%TF.GenerationSoftware,KiCad,Pcbnew,(6.0.11)*%
%TF.CreationDate,2023-04-05T13:23:01-07:00*%
%TF.ProjectId,IOBoard_ATSAMD21,494f426f-6172-4645-9f41-5453414d4432,rev?*%
%TF.SameCoordinates,Original*%
%TF.FileFunction,Legend,Top*%
%TF.FilePolarity,Positive*%
%FSLAX46Y46*%
G04 Gerber Fmt 4.6, Leading zero omitted, Abs format (unit mm)*
G04 Created by KiCad (PCBNEW (6.0.11)) date 2023-04-05 13:23:01*
%MOMM*%
%LPD*%
G01*
G04 APERTURE LIST*
%ADD10C,0.150000*%
%ADD11C,0.300000*%
%ADD12C,0.120000*%
G04 APERTURE END LIST*
D10*
X56727904Y-113904380D02*
X56727904Y-112904380D01*
X57061238Y-113618666D01*
X57394571Y-112904380D01*
X57394571Y-113904380D01*
X58442190Y-113809142D02*
X58394571Y-113856761D01*
X58251714Y-113904380D01*
X58156476Y-113904380D01*
X58013619Y-113856761D01*
X57918380Y-113761523D01*
X57870761Y-113666285D01*
X57823142Y-113475809D01*
X57823142Y-113332952D01*
X57870761Y-113142476D01*
X57918380Y-113047238D01*
X58013619Y-112952000D01*
X58156476Y-112904380D01*
X58251714Y-112904380D01*
X58394571Y-112952000D01*
X58442190Y-112999619D01*
X59346952Y-113904380D02*
X58870761Y-113904380D01*
X58870761Y-112904380D01*
X60251714Y-113904380D02*
X59918380Y-113428190D01*
X59680285Y-113904380D02*
X59680285Y-112904380D01*
X60061238Y-112904380D01*
X60156476Y-112952000D01*
X60204095Y-112999619D01*
X60251714Y-113094857D01*
X60251714Y-113237714D01*
X60204095Y-113332952D01*
X60156476Y-113380571D01*
X60061238Y-113428190D01*
X59680285Y-113428190D01*
X56966095Y-124016761D02*
X57108952Y-124064380D01*
X57347047Y-124064380D01*
X57442285Y-124016761D01*
X57489904Y-123969142D01*
X57537523Y-123873904D01*
X57537523Y-123778666D01*
X57489904Y-123683428D01*
X57442285Y-123635809D01*
X57347047Y-123588190D01*
X57156571Y-123540571D01*
X57061333Y-123492952D01*
X57013714Y-123445333D01*
X56966095Y-123350095D01*
X56966095Y-123254857D01*
X57013714Y-123159619D01*
X57061333Y-123112000D01*
X57156571Y-123064380D01*
X57394666Y-123064380D01*
X57537523Y-123112000D01*
X57870857Y-123064380D02*
X58108952Y-124064380D01*
X58299428Y-123350095D01*
X58489904Y-124064380D01*
X58728000Y-123064380D01*
X59680380Y-123969142D02*
X59632761Y-124016761D01*
X59489904Y-124064380D01*
X59394666Y-124064380D01*
X59251809Y-124016761D01*
X59156571Y-123921523D01*
X59108952Y-123826285D01*
X59061333Y-123635809D01*
X59061333Y-123492952D01*
X59108952Y-123302476D01*
X59156571Y-123207238D01*
X59251809Y-123112000D01*
X59394666Y-123064380D01*
X59489904Y-123064380D01*
X59632761Y-123112000D01*
X59680380Y-123159619D01*
X60585142Y-124064380D02*
X60108952Y-124064380D01*
X60108952Y-123064380D01*
X60918476Y-124064380D02*
X60918476Y-123064380D01*
X61489904Y-124064380D02*
X61061333Y-123492952D01*
X61489904Y-123064380D02*
X60918476Y-123635809D01*
X57323095Y-117905000D02*
X57227857Y-117857380D01*
X57085000Y-117857380D01*
X56942142Y-117905000D01*
X56846904Y-118000238D01*
X56799285Y-118095476D01*
X56751666Y-118285952D01*
X56751666Y-118428809D01*
X56799285Y-118619285D01*
X56846904Y-118714523D01*
X56942142Y-118809761D01*
X57085000Y-118857380D01*
X57180238Y-118857380D01*
X57323095Y-118809761D01*
X57370714Y-118762142D01*
X57370714Y-118428809D01*
X57180238Y-118428809D01*
X57799285Y-118857380D02*
X57799285Y-117857380D01*
X58370714Y-118857380D01*
X58370714Y-117857380D01*
X58846904Y-118857380D02*
X58846904Y-117857380D01*
X59085000Y-117857380D01*
X59227857Y-117905000D01*
X59323095Y-118000238D01*
X59370714Y-118095476D01*
X59418333Y-118285952D01*
X59418333Y-118428809D01*
X59370714Y-118619285D01*
X59323095Y-118714523D01*
X59227857Y-118809761D01*
X59085000Y-118857380D01*
X58846904Y-118857380D01*
X117648095Y-118032000D02*
X117552857Y-117984380D01*
X117410000Y-117984380D01*
X117267142Y-118032000D01*
X117171904Y-118127238D01*
X117124285Y-118222476D01*
X117076666Y-118412952D01*
X117076666Y-118555809D01*
X117124285Y-118746285D01*
X117171904Y-118841523D01*
X117267142Y-118936761D01*
X117410000Y-118984380D01*
X117505238Y-118984380D01*
X117648095Y-118936761D01*
X117695714Y-118889142D01*
X117695714Y-118555809D01*
X117505238Y-118555809D01*
X118124285Y-118984380D02*
X118124285Y-117984380D01*
X118695714Y-118984380D01*
X118695714Y-117984380D01*
X119171904Y-118984380D02*
X119171904Y-117984380D01*
X119410000Y-117984380D01*
X119552857Y-118032000D01*
X119648095Y-118127238D01*
X119695714Y-118222476D01*
X119743333Y-118412952D01*
X119743333Y-118555809D01*
X119695714Y-118746285D01*
X119648095Y-118841523D01*
X119552857Y-118936761D01*
X119410000Y-118984380D01*
X119171904Y-118984380D01*
X117076666Y-115444380D02*
X117410000Y-116444380D01*
X117743333Y-115444380D01*
X118648095Y-116349142D02*
X118600476Y-116396761D01*
X118457619Y-116444380D01*
X118362380Y-116444380D01*
X118219523Y-116396761D01*
X118124285Y-116301523D01*
X118076666Y-116206285D01*
X118029047Y-116015809D01*
X118029047Y-115872952D01*
X118076666Y-115682476D01*
X118124285Y-115587238D01*
X118219523Y-115492000D01*
X118362380Y-115444380D01*
X118457619Y-115444380D01*
X118600476Y-115492000D01*
X118648095Y-115539619D01*
X119648095Y-116349142D02*
X119600476Y-116396761D01*
X119457619Y-116444380D01*
X119362380Y-116444380D01*
X119219523Y-116396761D01*
X119124285Y-116301523D01*
X119076666Y-116206285D01*
X119029047Y-116015809D01*
X119029047Y-115872952D01*
X119076666Y-115682476D01*
X119124285Y-115587238D01*
X119219523Y-115492000D01*
X119362380Y-115444380D01*
X119457619Y-115444380D01*
X119600476Y-115492000D01*
X119648095Y-115539619D01*
D11*
X53274761Y-107241904D02*
X51274761Y-107241904D01*
X51274761Y-105908571D02*
X51274761Y-105527619D01*
X51370000Y-105337142D01*
X51560476Y-105146666D01*
X51941428Y-105051428D01*
X52608095Y-105051428D01*
X52989047Y-105146666D01*
X53179523Y-105337142D01*
X53274761Y-105527619D01*
X53274761Y-105908571D01*
X53179523Y-106099047D01*
X52989047Y-106289523D01*
X52608095Y-106384761D01*
X51941428Y-106384761D01*
X51560476Y-106289523D01*
X51370000Y-106099047D01*
X51274761Y-105908571D01*
X52227142Y-102003809D02*
X52322380Y-101718095D01*
X52417619Y-101622857D01*
X52608095Y-101527619D01*
X52893809Y-101527619D01*
X53084285Y-101622857D01*
X53179523Y-101718095D01*
X53274761Y-101908571D01*
X53274761Y-102670476D01*
X51274761Y-102670476D01*
X51274761Y-102003809D01*
X51370000Y-101813333D01*
X51465238Y-101718095D01*
X51655714Y-101622857D01*
X51846190Y-101622857D01*
X52036666Y-101718095D01*
X52131904Y-101813333D01*
X52227142Y-102003809D01*
X52227142Y-102670476D01*
X53274761Y-100384761D02*
X53179523Y-100575238D01*
X53084285Y-100670476D01*
X52893809Y-100765714D01*
X52322380Y-100765714D01*
X52131904Y-100670476D01*
X52036666Y-100575238D01*
X51941428Y-100384761D01*
X51941428Y-100099047D01*
X52036666Y-99908571D01*
X52131904Y-99813333D01*
X52322380Y-99718095D01*
X52893809Y-99718095D01*
X53084285Y-99813333D01*
X53179523Y-99908571D01*
X53274761Y-100099047D01*
X53274761Y-100384761D01*
X53274761Y-98003809D02*
X52227142Y-98003809D01*
X52036666Y-98099047D01*
X51941428Y-98289523D01*
X51941428Y-98670476D01*
X52036666Y-98860952D01*
X53179523Y-98003809D02*
X53274761Y-98194285D01*
X53274761Y-98670476D01*
X53179523Y-98860952D01*
X52989047Y-98956190D01*
X52798571Y-98956190D01*
X52608095Y-98860952D01*
X52512857Y-98670476D01*
X52512857Y-98194285D01*
X52417619Y-98003809D01*
X53274761Y-97051428D02*
X51941428Y-97051428D01*
X52322380Y-97051428D02*
X52131904Y-96956190D01*
X52036666Y-96860952D01*
X51941428Y-96670476D01*
X51941428Y-96480000D01*
X53274761Y-94956190D02*
X51274761Y-94956190D01*
X53179523Y-94956190D02*
X53274761Y-95146666D01*
X53274761Y-95527619D01*
X53179523Y-95718095D01*
X53084285Y-95813333D01*
X52893809Y-95908571D01*
X52322380Y-95908571D01*
X52131904Y-95813333D01*
X52036666Y-95718095D01*
X51941428Y-95527619D01*
X51941428Y-95146666D01*
X52036666Y-94956190D01*
X52512857Y-92480000D02*
X52512857Y-90956190D01*
X52703333Y-88575238D02*
X52703333Y-87622857D01*
X53274761Y-88765714D02*
X51274761Y-88099047D01*
X53274761Y-87432380D01*
X51274761Y-87051428D02*
X51274761Y-85908571D01*
X53274761Y-86480000D02*
X51274761Y-86480000D01*
X53179523Y-85337142D02*
X53274761Y-85051428D01*
X53274761Y-84575238D01*
X53179523Y-84384761D01*
X53084285Y-84289523D01*
X52893809Y-84194285D01*
X52703333Y-84194285D01*
X52512857Y-84289523D01*
X52417619Y-84384761D01*
X52322380Y-84575238D01*
X52227142Y-84956190D01*
X52131904Y-85146666D01*
X52036666Y-85241904D01*
X51846190Y-85337142D01*
X51655714Y-85337142D01*
X51465238Y-85241904D01*
X51370000Y-85146666D01*
X51274761Y-84956190D01*
X51274761Y-84480000D01*
X51370000Y-84194285D01*
X52703333Y-83432380D02*
X52703333Y-82480000D01*
X53274761Y-83622857D02*
X51274761Y-82956190D01*
X53274761Y-82289523D01*
X53274761Y-81622857D02*
X51274761Y-81622857D01*
X52703333Y-80956190D01*
X51274761Y-80289523D01*
X53274761Y-80289523D01*
X53274761Y-79337142D02*
X51274761Y-79337142D01*
X51274761Y-78860952D01*
X51370000Y-78575238D01*
X51560476Y-78384761D01*
X51750952Y-78289523D01*
X52131904Y-78194285D01*
X52417619Y-78194285D01*
X52798571Y-78289523D01*
X52989047Y-78384761D01*
X53179523Y-78575238D01*
X53274761Y-78860952D01*
X53274761Y-79337142D01*
X51465238Y-77432380D02*
X51370000Y-77337142D01*
X51274761Y-77146666D01*
X51274761Y-76670476D01*
X51370000Y-76480000D01*
X51465238Y-76384761D01*
X51655714Y-76289523D01*
X51846190Y-76289523D01*
X52131904Y-76384761D01*
X53274761Y-77527619D01*
X53274761Y-76289523D01*
X53274761Y-74384761D02*
X53274761Y-75527619D01*
X53274761Y-74956190D02*
X51274761Y-74956190D01*
X51560476Y-75146666D01*
X51750952Y-75337142D01*
X51846190Y-75527619D01*
X51370000Y-72480000D02*
X51274761Y-72670476D01*
X51274761Y-72956190D01*
X51370000Y-73241904D01*
X51560476Y-73432380D01*
X51750952Y-73527619D01*
X52131904Y-73622857D01*
X52417619Y-73622857D01*
X52798571Y-73527619D01*
X52989047Y-73432380D01*
X53179523Y-73241904D01*
X53274761Y-72956190D01*
X53274761Y-72765714D01*
X53179523Y-72480000D01*
X53084285Y-72384761D01*
X52417619Y-72384761D01*
X52417619Y-72765714D01*
X53274761Y-70480000D02*
X53274761Y-71622857D01*
X53274761Y-71051428D02*
X51274761Y-71051428D01*
X51560476Y-71241904D01*
X51750952Y-71432380D01*
X51846190Y-71622857D01*
X52131904Y-69337142D02*
X52036666Y-69527619D01*
X51941428Y-69622857D01*
X51750952Y-69718095D01*
X51655714Y-69718095D01*
X51465238Y-69622857D01*
X51370000Y-69527619D01*
X51274761Y-69337142D01*
X51274761Y-68956190D01*
X51370000Y-68765714D01*
X51465238Y-68670476D01*
X51655714Y-68575238D01*
X51750952Y-68575238D01*
X51941428Y-68670476D01*
X52036666Y-68765714D01*
X52131904Y-68956190D01*
X52131904Y-69337142D01*
X52227142Y-69527619D01*
X52322380Y-69622857D01*
X52512857Y-69718095D01*
X52893809Y-69718095D01*
X53084285Y-69622857D01*
X53179523Y-69527619D01*
X53274761Y-69337142D01*
X53274761Y-68956190D01*
X53179523Y-68765714D01*
X53084285Y-68670476D01*
X52893809Y-68575238D01*
X52512857Y-68575238D01*
X52322380Y-68670476D01*
X52227142Y-68765714D01*
X52131904Y-68956190D01*
X52703333Y-67813333D02*
X52703333Y-66860952D01*
X53274761Y-68003809D02*
X51274761Y-67337142D01*
X53274761Y-66670476D01*
X51274761Y-66003809D02*
X52893809Y-66003809D01*
X53084285Y-65908571D01*
X53179523Y-65813333D01*
X53274761Y-65622857D01*
X53274761Y-65241904D01*
X53179523Y-65051428D01*
X53084285Y-64956190D01*
X52893809Y-64860952D01*
X51274761Y-64860952D01*
X51274761Y-62670476D02*
X53274761Y-62003809D01*
X51274761Y-61337142D01*
X51465238Y-60765714D02*
X51370000Y-60670476D01*
X51274761Y-60480000D01*
X51274761Y-60003809D01*
X51370000Y-59813333D01*
X51465238Y-59718095D01*
X51655714Y-59622857D01*
X51846190Y-59622857D01*
X52131904Y-59718095D01*
X53274761Y-60860952D01*
X53274761Y-59622857D01*
X55447142Y-94622857D02*
X55542380Y-94337142D01*
X55637619Y-94241904D01*
X55828095Y-94146666D01*
X56113809Y-94146666D01*
X56304285Y-94241904D01*
X56399523Y-94337142D01*
X56494761Y-94527619D01*
X56494761Y-95289523D01*
X54494761Y-95289523D01*
X54494761Y-94622857D01*
X54590000Y-94432380D01*
X54685238Y-94337142D01*
X54875714Y-94241904D01*
X55066190Y-94241904D01*
X55256666Y-94337142D01*
X55351904Y-94432380D01*
X55447142Y-94622857D01*
X55447142Y-95289523D01*
X56494761Y-93003809D02*
X56399523Y-93194285D01*
X56209047Y-93289523D01*
X54494761Y-93289523D01*
X56494761Y-91956190D02*
X56399523Y-92146666D01*
X56304285Y-92241904D01*
X56113809Y-92337142D01*
X55542380Y-92337142D01*
X55351904Y-92241904D01*
X55256666Y-92146666D01*
X55161428Y-91956190D01*
X55161428Y-91670476D01*
X55256666Y-91480000D01*
X55351904Y-91384761D01*
X55542380Y-91289523D01*
X56113809Y-91289523D01*
X56304285Y-91384761D01*
X56399523Y-91480000D01*
X56494761Y-91670476D01*
X56494761Y-91956190D01*
X56494761Y-90146666D02*
X56399523Y-90337142D01*
X56304285Y-90432380D01*
X56113809Y-90527619D01*
X55542380Y-90527619D01*
X55351904Y-90432380D01*
X55256666Y-90337142D01*
X55161428Y-90146666D01*
X55161428Y-89860952D01*
X55256666Y-89670476D01*
X55351904Y-89575238D01*
X55542380Y-89480000D01*
X56113809Y-89480000D01*
X56304285Y-89575238D01*
X56399523Y-89670476D01*
X56494761Y-89860952D01*
X56494761Y-90146666D01*
X56494761Y-88622857D02*
X55161428Y-88622857D01*
X55351904Y-88622857D02*
X55256666Y-88527619D01*
X55161428Y-88337142D01*
X55161428Y-88051428D01*
X55256666Y-87860952D01*
X55447142Y-87765714D01*
X56494761Y-87765714D01*
X55447142Y-87765714D02*
X55256666Y-87670476D01*
X55161428Y-87480000D01*
X55161428Y-87194285D01*
X55256666Y-87003809D01*
X55447142Y-86908571D01*
X56494761Y-86908571D01*
X54494761Y-84622857D02*
X54494761Y-83384761D01*
X55256666Y-84051428D01*
X55256666Y-83765714D01*
X55351904Y-83575238D01*
X55447142Y-83480000D01*
X55637619Y-83384761D01*
X56113809Y-83384761D01*
X56304285Y-83480000D01*
X56399523Y-83575238D01*
X56494761Y-83765714D01*
X56494761Y-84337142D01*
X56399523Y-84527619D01*
X56304285Y-84622857D01*
X54399523Y-81099047D02*
X56970952Y-82813333D01*
X54494761Y-80622857D02*
X54494761Y-79384761D01*
X55256666Y-80051428D01*
X55256666Y-79765714D01*
X55351904Y-79575238D01*
X55447142Y-79480000D01*
X55637619Y-79384761D01*
X56113809Y-79384761D01*
X56304285Y-79480000D01*
X56399523Y-79575238D01*
X56494761Y-79765714D01*
X56494761Y-80337142D01*
X56399523Y-80527619D01*
X56304285Y-80622857D01*
X54494761Y-78146666D02*
X54494761Y-77956190D01*
X54590000Y-77765714D01*
X54685238Y-77670476D01*
X54875714Y-77575238D01*
X55256666Y-77480000D01*
X55732857Y-77480000D01*
X56113809Y-77575238D01*
X56304285Y-77670476D01*
X56399523Y-77765714D01*
X56494761Y-77956190D01*
X56494761Y-78146666D01*
X56399523Y-78337142D01*
X56304285Y-78432380D01*
X56113809Y-78527619D01*
X55732857Y-78622857D01*
X55256666Y-78622857D01*
X54875714Y-78527619D01*
X54685238Y-78432380D01*
X54590000Y-78337142D01*
X54494761Y-78146666D01*
X54399523Y-75194285D02*
X56970952Y-76908571D01*
X54685238Y-74622857D02*
X54590000Y-74527619D01*
X54494761Y-74337142D01*
X54494761Y-73860952D01*
X54590000Y-73670476D01*
X54685238Y-73575238D01*
X54875714Y-73480000D01*
X55066190Y-73480000D01*
X55351904Y-73575238D01*
X56494761Y-74718095D01*
X56494761Y-73480000D01*
X54494761Y-72813333D02*
X54494761Y-71575238D01*
X55256666Y-72241904D01*
X55256666Y-71956190D01*
X55351904Y-71765714D01*
X55447142Y-71670476D01*
X55637619Y-71575238D01*
X56113809Y-71575238D01*
X56304285Y-71670476D01*
X56399523Y-71765714D01*
X56494761Y-71956190D01*
X56494761Y-72527619D01*
X56399523Y-72718095D01*
X56304285Y-72813333D01*
D10*
X117195714Y-124016761D02*
X117338571Y-124064380D01*
X117576666Y-124064380D01*
X117671904Y-124016761D01*
X117719523Y-123969142D01*
X117767142Y-123873904D01*
X117767142Y-123778666D01*
X117719523Y-123683428D01*
X117671904Y-123635809D01*
X117576666Y-123588190D01*
X117386190Y-123540571D01*
X117290952Y-123492952D01*
X117243333Y-123445333D01*
X117195714Y-123350095D01*
X117195714Y-123254857D01*
X117243333Y-123159619D01*
X117290952Y-123112000D01*
X117386190Y-123064380D01*
X117624285Y-123064380D01*
X117767142Y-123112000D01*
X118195714Y-124064380D02*
X118195714Y-123064380D01*
X118433809Y-123064380D01*
X118576666Y-123112000D01*
X118671904Y-123207238D01*
X118719523Y-123302476D01*
X118767142Y-123492952D01*
X118767142Y-123635809D01*
X118719523Y-123826285D01*
X118671904Y-123921523D01*
X118576666Y-124016761D01*
X118433809Y-124064380D01*
X118195714Y-124064380D01*
X119148095Y-123778666D02*
X119624285Y-123778666D01*
X119052857Y-124064380D02*
X119386190Y-123064380D01*
X119719523Y-124064380D01*
X56751666Y-115317380D02*
X57085000Y-116317380D01*
X57418333Y-115317380D01*
X58323095Y-116222142D02*
X58275476Y-116269761D01*
X58132619Y-116317380D01*
X58037380Y-116317380D01*
X57894523Y-116269761D01*
X57799285Y-116174523D01*
X57751666Y-116079285D01*
X57704047Y-115888809D01*
X57704047Y-115745952D01*
X57751666Y-115555476D01*
X57799285Y-115460238D01*
X57894523Y-115365000D01*
X58037380Y-115317380D01*
X58132619Y-115317380D01*
X58275476Y-115365000D01*
X58323095Y-115412619D01*
X59323095Y-116222142D02*
X59275476Y-116269761D01*
X59132619Y-116317380D01*
X59037380Y-116317380D01*
X58894523Y-116269761D01*
X58799285Y-116174523D01*
X58751666Y-116079285D01*
X58704047Y-115888809D01*
X58704047Y-115745952D01*
X58751666Y-115555476D01*
X58799285Y-115460238D01*
X58894523Y-115365000D01*
X59037380Y-115317380D01*
X59132619Y-115317380D01*
X59275476Y-115365000D01*
X59323095Y-115412619D01*
D11*
X54744761Y-167758095D02*
X56363809Y-167758095D01*
X56554285Y-167662857D01*
X56649523Y-167567619D01*
X56744761Y-167377142D01*
X56744761Y-166996190D01*
X56649523Y-166805714D01*
X56554285Y-166710476D01*
X56363809Y-166615238D01*
X54744761Y-166615238D01*
X55411428Y-165662857D02*
X56744761Y-165662857D01*
X55601904Y-165662857D02*
X55506666Y-165567619D01*
X55411428Y-165377142D01*
X55411428Y-165091428D01*
X55506666Y-164900952D01*
X55697142Y-164805714D01*
X56744761Y-164805714D01*
X56744761Y-163853333D02*
X55411428Y-163853333D01*
X54744761Y-163853333D02*
X54840000Y-163948571D01*
X54935238Y-163853333D01*
X54840000Y-163758095D01*
X54744761Y-163853333D01*
X54935238Y-163853333D01*
X55411428Y-163091428D02*
X56744761Y-162615238D01*
X55411428Y-162139047D01*
X56649523Y-160615238D02*
X56744761Y-160805714D01*
X56744761Y-161186666D01*
X56649523Y-161377142D01*
X56459047Y-161472380D01*
X55697142Y-161472380D01*
X55506666Y-161377142D01*
X55411428Y-161186666D01*
X55411428Y-160805714D01*
X55506666Y-160615238D01*
X55697142Y-160520000D01*
X55887619Y-160520000D01*
X56078095Y-161472380D01*
X56744761Y-159662857D02*
X55411428Y-159662857D01*
X55792380Y-159662857D02*
X55601904Y-159567619D01*
X55506666Y-159472380D01*
X55411428Y-159281904D01*
X55411428Y-159091428D01*
X56649523Y-158520000D02*
X56744761Y-158329523D01*
X56744761Y-157948571D01*
X56649523Y-157758095D01*
X56459047Y-157662857D01*
X56363809Y-157662857D01*
X56173333Y-157758095D01*
X56078095Y-157948571D01*
X56078095Y-158234285D01*
X55982857Y-158424761D01*
X55792380Y-158520000D01*
X55697142Y-158520000D01*
X55506666Y-158424761D01*
X55411428Y-158234285D01*
X55411428Y-157948571D01*
X55506666Y-157758095D01*
X56744761Y-156805714D02*
X55411428Y-156805714D01*
X54744761Y-156805714D02*
X54840000Y-156900952D01*
X54935238Y-156805714D01*
X54840000Y-156710476D01*
X54744761Y-156805714D01*
X54935238Y-156805714D01*
X55411428Y-156139047D02*
X55411428Y-155377142D01*
X54744761Y-155853333D02*
X56459047Y-155853333D01*
X56649523Y-155758095D01*
X56744761Y-155567619D01*
X56744761Y-155377142D01*
X55411428Y-154900952D02*
X56744761Y-154424761D01*
X55411428Y-153948571D02*
X56744761Y-154424761D01*
X57220952Y-154615238D01*
X57316190Y-154710476D01*
X57411428Y-154900952D01*
X56744761Y-151377142D02*
X56649523Y-151567619D01*
X56554285Y-151662857D01*
X56363809Y-151758095D01*
X55792380Y-151758095D01*
X55601904Y-151662857D01*
X55506666Y-151567619D01*
X55411428Y-151377142D01*
X55411428Y-151091428D01*
X55506666Y-150900952D01*
X55601904Y-150805714D01*
X55792380Y-150710476D01*
X56363809Y-150710476D01*
X56554285Y-150805714D01*
X56649523Y-150900952D01*
X56744761Y-151091428D01*
X56744761Y-151377142D01*
X55411428Y-150139047D02*
X55411428Y-149377142D01*
X56744761Y-149853333D02*
X55030476Y-149853333D01*
X54840000Y-149758095D01*
X54744761Y-149567619D01*
X54744761Y-149377142D01*
X54744761Y-147377142D02*
X56744761Y-146900952D01*
X55316190Y-146520000D01*
X56744761Y-146139047D01*
X54744761Y-145662857D01*
X56744761Y-144043809D02*
X55697142Y-144043809D01*
X55506666Y-144139047D01*
X55411428Y-144329523D01*
X55411428Y-144710476D01*
X55506666Y-144900952D01*
X56649523Y-144043809D02*
X56744761Y-144234285D01*
X56744761Y-144710476D01*
X56649523Y-144900952D01*
X56459047Y-144996190D01*
X56268571Y-144996190D01*
X56078095Y-144900952D01*
X55982857Y-144710476D01*
X55982857Y-144234285D01*
X55887619Y-144043809D01*
X56649523Y-143186666D02*
X56744761Y-142996190D01*
X56744761Y-142615238D01*
X56649523Y-142424761D01*
X56459047Y-142329523D01*
X56363809Y-142329523D01*
X56173333Y-142424761D01*
X56078095Y-142615238D01*
X56078095Y-142900952D01*
X55982857Y-143091428D01*
X55792380Y-143186666D01*
X55697142Y-143186666D01*
X55506666Y-143091428D01*
X55411428Y-142900952D01*
X55411428Y-142615238D01*
X55506666Y-142424761D01*
X56744761Y-141472380D02*
X54744761Y-141472380D01*
X56744761Y-140615238D02*
X55697142Y-140615238D01*
X55506666Y-140710476D01*
X55411428Y-140900952D01*
X55411428Y-141186666D01*
X55506666Y-141377142D01*
X55601904Y-141472380D01*
X56744761Y-139662857D02*
X55411428Y-139662857D01*
X54744761Y-139662857D02*
X54840000Y-139758095D01*
X54935238Y-139662857D01*
X54840000Y-139567619D01*
X54744761Y-139662857D01*
X54935238Y-139662857D01*
X55411428Y-138710476D02*
X56744761Y-138710476D01*
X55601904Y-138710476D02*
X55506666Y-138615238D01*
X55411428Y-138424761D01*
X55411428Y-138139047D01*
X55506666Y-137948571D01*
X55697142Y-137853333D01*
X56744761Y-137853333D01*
X55411428Y-136043809D02*
X57030476Y-136043809D01*
X57220952Y-136139047D01*
X57316190Y-136234285D01*
X57411428Y-136424761D01*
X57411428Y-136710476D01*
X57316190Y-136900952D01*
X56649523Y-136043809D02*
X56744761Y-136234285D01*
X56744761Y-136615238D01*
X56649523Y-136805714D01*
X56554285Y-136900952D01*
X56363809Y-136996190D01*
X55792380Y-136996190D01*
X55601904Y-136900952D01*
X55506666Y-136805714D01*
X55411428Y-136615238D01*
X55411428Y-136234285D01*
X55506666Y-136043809D01*
X55411428Y-135377142D02*
X55411428Y-134615238D01*
X54744761Y-135091428D02*
X56459047Y-135091428D01*
X56649523Y-134996190D01*
X56744761Y-134805714D01*
X56744761Y-134615238D01*
X56744761Y-133662857D02*
X56649523Y-133853333D01*
X56554285Y-133948571D01*
X56363809Y-134043809D01*
X55792380Y-134043809D01*
X55601904Y-133948571D01*
X55506666Y-133853333D01*
X55411428Y-133662857D01*
X55411428Y-133377142D01*
X55506666Y-133186666D01*
X55601904Y-133091428D01*
X55792380Y-132996190D01*
X56363809Y-132996190D01*
X56554285Y-133091428D01*
X56649523Y-133186666D01*
X56744761Y-133377142D01*
X56744761Y-133662857D01*
X55411428Y-132139047D02*
X56744761Y-132139047D01*
X55601904Y-132139047D02*
X55506666Y-132043809D01*
X55411428Y-131853333D01*
X55411428Y-131567619D01*
X55506666Y-131377142D01*
X55697142Y-131281904D01*
X56744761Y-131281904D01*
X58917142Y-169520000D02*
X58917142Y-168853333D01*
X59964761Y-168567619D02*
X59964761Y-169520000D01*
X57964761Y-169520000D01*
X57964761Y-168567619D01*
X58631428Y-167710476D02*
X59964761Y-167710476D01*
X58821904Y-167710476D02*
X58726666Y-167615238D01*
X58631428Y-167424761D01*
X58631428Y-167139047D01*
X58726666Y-166948571D01*
X58917142Y-166853333D01*
X59964761Y-166853333D01*
X58631428Y-165043809D02*
X60250476Y-165043809D01*
X60440952Y-165139047D01*
X60536190Y-165234285D01*
X60631428Y-165424761D01*
X60631428Y-165710476D01*
X60536190Y-165900952D01*
X59869523Y-165043809D02*
X59964761Y-165234285D01*
X59964761Y-165615238D01*
X59869523Y-165805714D01*
X59774285Y-165900952D01*
X59583809Y-165996190D01*
X59012380Y-165996190D01*
X58821904Y-165900952D01*
X58726666Y-165805714D01*
X58631428Y-165615238D01*
X58631428Y-165234285D01*
X58726666Y-165043809D01*
X59964761Y-164091428D02*
X58631428Y-164091428D01*
X57964761Y-164091428D02*
X58060000Y-164186666D01*
X58155238Y-164091428D01*
X58060000Y-163996190D01*
X57964761Y-164091428D01*
X58155238Y-164091428D01*
X58631428Y-163139047D02*
X59964761Y-163139047D01*
X58821904Y-163139047D02*
X58726666Y-163043809D01*
X58631428Y-162853333D01*
X58631428Y-162567619D01*
X58726666Y-162377142D01*
X58917142Y-162281904D01*
X59964761Y-162281904D01*
X59869523Y-160567619D02*
X59964761Y-160758095D01*
X59964761Y-161139047D01*
X59869523Y-161329523D01*
X59679047Y-161424761D01*
X58917142Y-161424761D01*
X58726666Y-161329523D01*
X58631428Y-161139047D01*
X58631428Y-160758095D01*
X58726666Y-160567619D01*
X58917142Y-160472380D01*
X59107619Y-160472380D01*
X59298095Y-161424761D01*
X58155238Y-158186666D02*
X58060000Y-158091428D01*
X57964761Y-157900952D01*
X57964761Y-157424761D01*
X58060000Y-157234285D01*
X58155238Y-157139047D01*
X58345714Y-157043809D01*
X58536190Y-157043809D01*
X58821904Y-157139047D01*
X59964761Y-158281904D01*
X59964761Y-157043809D01*
X57964761Y-155805714D02*
X57964761Y-155615238D01*
X58060000Y-155424761D01*
X58155238Y-155329523D01*
X58345714Y-155234285D01*
X58726666Y-155139047D01*
X59202857Y-155139047D01*
X59583809Y-155234285D01*
X59774285Y-155329523D01*
X59869523Y-155424761D01*
X59964761Y-155615238D01*
X59964761Y-155805714D01*
X59869523Y-155996190D01*
X59774285Y-156091428D01*
X59583809Y-156186666D01*
X59202857Y-156281904D01*
X58726666Y-156281904D01*
X58345714Y-156186666D01*
X58155238Y-156091428D01*
X58060000Y-155996190D01*
X57964761Y-155805714D01*
X58155238Y-154377142D02*
X58060000Y-154281904D01*
X57964761Y-154091428D01*
X57964761Y-153615238D01*
X58060000Y-153424761D01*
X58155238Y-153329523D01*
X58345714Y-153234285D01*
X58536190Y-153234285D01*
X58821904Y-153329523D01*
X59964761Y-154472380D01*
X59964761Y-153234285D01*
X57964761Y-152567619D02*
X57964761Y-151329523D01*
X58726666Y-151996190D01*
X58726666Y-151710476D01*
X58821904Y-151520000D01*
X58917142Y-151424761D01*
X59107619Y-151329523D01*
X59583809Y-151329523D01*
X59774285Y-151424761D01*
X59869523Y-151520000D01*
X59964761Y-151710476D01*
X59964761Y-152281904D01*
X59869523Y-152472380D01*
X59774285Y-152567619D01*
X59202857Y-148948571D02*
X59202857Y-147424761D01*
X59774285Y-143805714D02*
X59869523Y-143900952D01*
X59964761Y-144186666D01*
X59964761Y-144377142D01*
X59869523Y-144662857D01*
X59679047Y-144853333D01*
X59488571Y-144948571D01*
X59107619Y-145043809D01*
X58821904Y-145043809D01*
X58440952Y-144948571D01*
X58250476Y-144853333D01*
X58060000Y-144662857D01*
X57964761Y-144377142D01*
X57964761Y-144186666D01*
X58060000Y-143900952D01*
X58155238Y-143805714D01*
X59964761Y-142948571D02*
X57964761Y-142948571D01*
X59964761Y-142091428D02*
X58917142Y-142091428D01*
X58726666Y-142186666D01*
X58631428Y-142377142D01*
X58631428Y-142662857D01*
X58726666Y-142853333D01*
X58821904Y-142948571D01*
X59964761Y-140281904D02*
X58917142Y-140281904D01*
X58726666Y-140377142D01*
X58631428Y-140567619D01*
X58631428Y-140948571D01*
X58726666Y-141139047D01*
X59869523Y-140281904D02*
X59964761Y-140472380D01*
X59964761Y-140948571D01*
X59869523Y-141139047D01*
X59679047Y-141234285D01*
X59488571Y-141234285D01*
X59298095Y-141139047D01*
X59202857Y-140948571D01*
X59202857Y-140472380D01*
X59107619Y-140281904D01*
X59964761Y-139329523D02*
X58631428Y-139329523D01*
X58821904Y-139329523D02*
X58726666Y-139234285D01*
X58631428Y-139043809D01*
X58631428Y-138758095D01*
X58726666Y-138567619D01*
X58917142Y-138472380D01*
X59964761Y-138472380D01*
X58917142Y-138472380D02*
X58726666Y-138377142D01*
X58631428Y-138186666D01*
X58631428Y-137900952D01*
X58726666Y-137710476D01*
X58917142Y-137615238D01*
X59964761Y-137615238D01*
X59869523Y-135900952D02*
X59964761Y-136091428D01*
X59964761Y-136472380D01*
X59869523Y-136662857D01*
X59679047Y-136758095D01*
X58917142Y-136758095D01*
X58726666Y-136662857D01*
X58631428Y-136472380D01*
X58631428Y-136091428D01*
X58726666Y-135900952D01*
X58917142Y-135805714D01*
X59107619Y-135805714D01*
X59298095Y-136758095D01*
X59964761Y-134662857D02*
X59869523Y-134853333D01*
X59679047Y-134948571D01*
X57964761Y-134948571D01*
X59869523Y-133139047D02*
X59964761Y-133329523D01*
X59964761Y-133710476D01*
X59869523Y-133900952D01*
X59679047Y-133996190D01*
X58917142Y-133996190D01*
X58726666Y-133900952D01*
X58631428Y-133710476D01*
X58631428Y-133329523D01*
X58726666Y-133139047D01*
X58917142Y-133043809D01*
X59107619Y-133043809D01*
X59298095Y-133996190D01*
X59964761Y-131900952D02*
X59869523Y-132091428D01*
X59774285Y-132186666D01*
X59583809Y-132281904D01*
X59012380Y-132281904D01*
X58821904Y-132186666D01*
X58726666Y-132091428D01*
X58631428Y-131900952D01*
X58631428Y-131615238D01*
X58726666Y-131424761D01*
X58821904Y-131329523D01*
X59012380Y-131234285D01*
X59583809Y-131234285D01*
X59774285Y-131329523D01*
X59869523Y-131424761D01*
X59964761Y-131615238D01*
X59964761Y-131900952D01*
X58631428Y-130377142D02*
X59964761Y-130377142D01*
X58821904Y-130377142D02*
X58726666Y-130281904D01*
X58631428Y-130091428D01*
X58631428Y-129805714D01*
X58726666Y-129615238D01*
X58917142Y-129520000D01*
X59964761Y-129520000D01*
D10*
X117219523Y-121476761D02*
X117362380Y-121524380D01*
X117600476Y-121524380D01*
X117695714Y-121476761D01*
X117743333Y-121429142D01*
X117790952Y-121333904D01*
X117790952Y-121238666D01*
X117743333Y-121143428D01*
X117695714Y-121095809D01*
X117600476Y-121048190D01*
X117410000Y-121000571D01*
X117314761Y-120952952D01*
X117267142Y-120905333D01*
X117219523Y-120810095D01*
X117219523Y-120714857D01*
X117267142Y-120619619D01*
X117314761Y-120572000D01*
X117410000Y-120524380D01*
X117648095Y-120524380D01*
X117790952Y-120572000D01*
X118790952Y-121429142D02*
X118743333Y-121476761D01*
X118600476Y-121524380D01*
X118505238Y-121524380D01*
X118362380Y-121476761D01*
X118267142Y-121381523D01*
X118219523Y-121286285D01*
X118171904Y-121095809D01*
X118171904Y-120952952D01*
X118219523Y-120762476D01*
X118267142Y-120667238D01*
X118362380Y-120572000D01*
X118505238Y-120524380D01*
X118600476Y-120524380D01*
X118743333Y-120572000D01*
X118790952Y-120619619D01*
X119695714Y-121524380D02*
X119219523Y-121524380D01*
X119219523Y-120524380D01*
X56854952Y-121349761D02*
X56997809Y-121397380D01*
X57235904Y-121397380D01*
X57331142Y-121349761D01*
X57378761Y-121302142D01*
X57426380Y-121206904D01*
X57426380Y-121111666D01*
X57378761Y-121016428D01*
X57331142Y-120968809D01*
X57235904Y-120921190D01*
X57045428Y-120873571D01*
X56950190Y-120825952D01*
X56902571Y-120778333D01*
X56854952Y-120683095D01*
X56854952Y-120587857D01*
X56902571Y-120492619D01*
X56950190Y-120445000D01*
X57045428Y-120397380D01*
X57283523Y-120397380D01*
X57426380Y-120445000D01*
X57759714Y-120397380D02*
X57997809Y-121397380D01*
X58188285Y-120683095D01*
X58378761Y-121397380D01*
X58616857Y-120397380D01*
X58997809Y-121397380D02*
X58997809Y-120397380D01*
X59235904Y-120397380D01*
X59378761Y-120445000D01*
X59474000Y-120540238D01*
X59521619Y-120635476D01*
X59569238Y-120825952D01*
X59569238Y-120968809D01*
X59521619Y-121159285D01*
X59474000Y-121254523D01*
X59378761Y-121349761D01*
X59235904Y-121397380D01*
X58997809Y-121397380D01*
X59997809Y-121397380D02*
X59997809Y-120397380D01*
X60664476Y-120397380D02*
X60854952Y-120397380D01*
X60950190Y-120445000D01*
X61045428Y-120540238D01*
X61093047Y-120730714D01*
X61093047Y-121064047D01*
X61045428Y-121254523D01*
X60950190Y-121349761D01*
X60854952Y-121397380D01*
X60664476Y-121397380D01*
X60569238Y-121349761D01*
X60474000Y-121254523D01*
X60426380Y-121064047D01*
X60426380Y-120730714D01*
X60474000Y-120540238D01*
X60569238Y-120445000D01*
X60664476Y-120397380D01*
X56918285Y-126604380D02*
X56918285Y-125604380D01*
X57489714Y-126604380D01*
X57489714Y-125604380D01*
X58537333Y-126509142D02*
X58489714Y-126556761D01*
X58346857Y-126604380D01*
X58251619Y-126604380D01*
X58108761Y-126556761D01*
X58013523Y-126461523D01*
X57965904Y-126366285D01*
X57918285Y-126175809D01*
X57918285Y-126032952D01*
X57965904Y-125842476D01*
X58013523Y-125747238D01*
X58108761Y-125652000D01*
X58251619Y-125604380D01*
X58346857Y-125604380D01*
X58489714Y-125652000D01*
X58537333Y-125699619D01*
%TO.C,R4*%
X109982380Y-167006666D02*
X109506190Y-167340000D01*
X109982380Y-167578095D02*
X108982380Y-167578095D01*
X108982380Y-167197142D01*
X109030000Y-167101904D01*
X109077619Y-167054285D01*
X109172857Y-167006666D01*
X109315714Y-167006666D01*
X109410952Y-167054285D01*
X109458571Y-167101904D01*
X109506190Y-167197142D01*
X109506190Y-167578095D01*
X109315714Y-166149523D02*
X109982380Y-166149523D01*
X108934761Y-166387619D02*
X109649047Y-166625714D01*
X109649047Y-166006666D01*
%TO.C,U1*%
X81702380Y-114777904D02*
X82511904Y-114777904D01*
X82607142Y-114730285D01*
X82654761Y-114682666D01*
X82702380Y-114587428D01*
X82702380Y-114396952D01*
X82654761Y-114301714D01*
X82607142Y-114254095D01*
X82511904Y-114206476D01*
X81702380Y-114206476D01*
X82702380Y-113206476D02*
X82702380Y-113777904D01*
X82702380Y-113492190D02*
X81702380Y-113492190D01*
X81845238Y-113587428D01*
X81940476Y-113682666D01*
X81988095Y-113777904D01*
%TO.C,H2*%
X117648095Y-49602380D02*
X117648095Y-48602380D01*
X117648095Y-49078571D02*
X118219523Y-49078571D01*
X118219523Y-49602380D02*
X118219523Y-48602380D01*
X118648095Y-48697619D02*
X118695714Y-48650000D01*
X118790952Y-48602380D01*
X119029047Y-48602380D01*
X119124285Y-48650000D01*
X119171904Y-48697619D01*
X119219523Y-48792857D01*
X119219523Y-48888095D01*
X119171904Y-49030952D01*
X118600476Y-49602380D01*
X119219523Y-49602380D01*
%TO.C,C5*%
X116481142Y-114380666D02*
X116528761Y-114428285D01*
X116576380Y-114571142D01*
X116576380Y-114666380D01*
X116528761Y-114809238D01*
X116433523Y-114904476D01*
X116338285Y-114952095D01*
X116147809Y-114999714D01*
X116004952Y-114999714D01*
X115814476Y-114952095D01*
X115719238Y-114904476D01*
X115624000Y-114809238D01*
X115576380Y-114666380D01*
X115576380Y-114571142D01*
X115624000Y-114428285D01*
X115671619Y-114380666D01*
X115576380Y-113475904D02*
X115576380Y-113952095D01*
X116052571Y-113999714D01*
X116004952Y-113952095D01*
X115957333Y-113856857D01*
X115957333Y-113618761D01*
X116004952Y-113523523D01*
X116052571Y-113475904D01*
X116147809Y-113428285D01*
X116385904Y-113428285D01*
X116481142Y-113475904D01*
X116528761Y-113523523D01*
X116576380Y-113618761D01*
X116576380Y-113856857D01*
X116528761Y-113952095D01*
X116481142Y-113999714D01*
%TO.C,SW2*%
X77475238Y-140106666D02*
X77427619Y-140249523D01*
X77427619Y-140487619D01*
X77475238Y-140582857D01*
X77522857Y-140630476D01*
X77618095Y-140678095D01*
X77713333Y-140678095D01*
X77808571Y-140630476D01*
X77856190Y-140582857D01*
X77903809Y-140487619D01*
X77951428Y-140297142D01*
X77999047Y-140201904D01*
X78046666Y-140154285D01*
X78141904Y-140106666D01*
X78237142Y-140106666D01*
X78332380Y-140154285D01*
X78380000Y-140201904D01*
X78427619Y-140297142D01*
X78427619Y-140535238D01*
X78380000Y-140678095D01*
X78427619Y-141011428D02*
X77427619Y-141249523D01*
X78141904Y-141440000D01*
X77427619Y-141630476D01*
X78427619Y-141868571D01*
X78332380Y-142201904D02*
X78380000Y-142249523D01*
X78427619Y-142344761D01*
X78427619Y-142582857D01*
X78380000Y-142678095D01*
X78332380Y-142725714D01*
X78237142Y-142773333D01*
X78141904Y-142773333D01*
X77999047Y-142725714D01*
X77427619Y-142154285D01*
X77427619Y-142773333D01*
%TO.C,D1*%
X63632380Y-161348095D02*
X62632380Y-161348095D01*
X62632380Y-161110000D01*
X62680000Y-160967142D01*
X62775238Y-160871904D01*
X62870476Y-160824285D01*
X63060952Y-160776666D01*
X63203809Y-160776666D01*
X63394285Y-160824285D01*
X63489523Y-160871904D01*
X63584761Y-160967142D01*
X63632380Y-161110000D01*
X63632380Y-161348095D01*
X63632380Y-159824285D02*
X63632380Y-160395714D01*
X63632380Y-160110000D02*
X62632380Y-160110000D01*
X62775238Y-160205238D01*
X62870476Y-160300476D01*
X62918095Y-160395714D01*
%TO.C,R2*%
X79502380Y-167006666D02*
X79026190Y-167340000D01*
X79502380Y-167578095D02*
X78502380Y-167578095D01*
X78502380Y-167197142D01*
X78550000Y-167101904D01*
X78597619Y-167054285D01*
X78692857Y-167006666D01*
X78835714Y-167006666D01*
X78930952Y-167054285D01*
X78978571Y-167101904D01*
X79026190Y-167197142D01*
X79026190Y-167578095D01*
X78597619Y-166625714D02*
X78550000Y-166578095D01*
X78502380Y-166482857D01*
X78502380Y-166244761D01*
X78550000Y-166149523D01*
X78597619Y-166101904D01*
X78692857Y-166054285D01*
X78788095Y-166054285D01*
X78930952Y-166101904D01*
X79502380Y-166673333D01*
X79502380Y-166054285D01*
%TO.C,C7*%
X84885333Y-123509142D02*
X84837714Y-123556761D01*
X84694857Y-123604380D01*
X84599619Y-123604380D01*
X84456761Y-123556761D01*
X84361523Y-123461523D01*
X84313904Y-123366285D01*
X84266285Y-123175809D01*
X84266285Y-123032952D01*
X84313904Y-122842476D01*
X84361523Y-122747238D01*
X84456761Y-122652000D01*
X84599619Y-122604380D01*
X84694857Y-122604380D01*
X84837714Y-122652000D01*
X84885333Y-122699619D01*
X85218666Y-122604380D02*
X85885333Y-122604380D01*
X85456761Y-123604380D01*
%TO.C,ENC3*%
X104249714Y-81376571D02*
X104583047Y-81376571D01*
X104725904Y-81900380D02*
X104249714Y-81900380D01*
X104249714Y-80900380D01*
X104725904Y-80900380D01*
X105154476Y-81900380D02*
X105154476Y-80900380D01*
X105725904Y-81900380D01*
X105725904Y-80900380D01*
X106773523Y-81805142D02*
X106725904Y-81852761D01*
X106583047Y-81900380D01*
X106487809Y-81900380D01*
X106344952Y-81852761D01*
X106249714Y-81757523D01*
X106202095Y-81662285D01*
X106154476Y-81471809D01*
X106154476Y-81328952D01*
X106202095Y-81138476D01*
X106249714Y-81043238D01*
X106344952Y-80948000D01*
X106487809Y-80900380D01*
X106583047Y-80900380D01*
X106725904Y-80948000D01*
X106773523Y-80995619D01*
X107106857Y-80900380D02*
X107725904Y-80900380D01*
X107392571Y-81281333D01*
X107535428Y-81281333D01*
X107630666Y-81328952D01*
X107678285Y-81376571D01*
X107725904Y-81471809D01*
X107725904Y-81709904D01*
X107678285Y-81805142D01*
X107630666Y-81852761D01*
X107535428Y-81900380D01*
X107249714Y-81900380D01*
X107154476Y-81852761D01*
X107106857Y-81805142D01*
%TO.C,C11*%
X77281142Y-117698857D02*
X77328761Y-117746476D01*
X77376380Y-117889333D01*
X77376380Y-117984571D01*
X77328761Y-118127428D01*
X77233523Y-118222666D01*
X77138285Y-118270285D01*
X76947809Y-118317904D01*
X76804952Y-118317904D01*
X76614476Y-118270285D01*
X76519238Y-118222666D01*
X76424000Y-118127428D01*
X76376380Y-117984571D01*
X76376380Y-117889333D01*
X76424000Y-117746476D01*
X76471619Y-117698857D01*
X77376380Y-116746476D02*
X77376380Y-117317904D01*
X77376380Y-117032190D02*
X76376380Y-117032190D01*
X76519238Y-117127428D01*
X76614476Y-117222666D01*
X76662095Y-117317904D01*
X77376380Y-115794095D02*
X77376380Y-116365523D01*
X77376380Y-116079809D02*
X76376380Y-116079809D01*
X76519238Y-116175047D01*
X76614476Y-116270285D01*
X76662095Y-116365523D01*
%TO.C,C6*%
X84885333Y-125247142D02*
X84837714Y-125294761D01*
X84694857Y-125342380D01*
X84599619Y-125342380D01*
X84456761Y-125294761D01*
X84361523Y-125199523D01*
X84313904Y-125104285D01*
X84266285Y-124913809D01*
X84266285Y-124770952D01*
X84313904Y-124580476D01*
X84361523Y-124485238D01*
X84456761Y-124390000D01*
X84599619Y-124342380D01*
X84694857Y-124342380D01*
X84837714Y-124390000D01*
X84885333Y-124437619D01*
X85742476Y-124342380D02*
X85552000Y-124342380D01*
X85456761Y-124390000D01*
X85409142Y-124437619D01*
X85313904Y-124580476D01*
X85266285Y-124770952D01*
X85266285Y-125151904D01*
X85313904Y-125247142D01*
X85361523Y-125294761D01*
X85456761Y-125342380D01*
X85647238Y-125342380D01*
X85742476Y-125294761D01*
X85790095Y-125247142D01*
X85837714Y-125151904D01*
X85837714Y-124913809D01*
X85790095Y-124818571D01*
X85742476Y-124770952D01*
X85647238Y-124723333D01*
X85456761Y-124723333D01*
X85361523Y-124770952D01*
X85313904Y-124818571D01*
X85266285Y-124913809D01*
%TO.C,J1*%
X54746666Y-110622380D02*
X54746666Y-111336666D01*
X54699047Y-111479523D01*
X54603809Y-111574761D01*
X54460952Y-111622380D01*
X54365714Y-111622380D01*
X55746666Y-111622380D02*
X55175238Y-111622380D01*
X55460952Y-111622380D02*
X55460952Y-110622380D01*
X55365714Y-110765238D01*
X55270476Y-110860476D01*
X55175238Y-110908095D01*
%TO.C,H4*%
X117648095Y-172102380D02*
X117648095Y-171102380D01*
X117648095Y-171578571D02*
X118219523Y-171578571D01*
X118219523Y-172102380D02*
X118219523Y-171102380D01*
X119124285Y-171435714D02*
X119124285Y-172102380D01*
X118886190Y-171054761D02*
X118648095Y-171769047D01*
X119267142Y-171769047D01*
%TO.C,C3*%
X98617142Y-118746666D02*
X98664761Y-118794285D01*
X98712380Y-118937142D01*
X98712380Y-119032380D01*
X98664761Y-119175238D01*
X98569523Y-119270476D01*
X98474285Y-119318095D01*
X98283809Y-119365714D01*
X98140952Y-119365714D01*
X97950476Y-119318095D01*
X97855238Y-119270476D01*
X97760000Y-119175238D01*
X97712380Y-119032380D01*
X97712380Y-118937142D01*
X97760000Y-118794285D01*
X97807619Y-118746666D01*
X97712380Y-118413333D02*
X97712380Y-117794285D01*
X98093333Y-118127619D01*
X98093333Y-117984761D01*
X98140952Y-117889523D01*
X98188571Y-117841904D01*
X98283809Y-117794285D01*
X98521904Y-117794285D01*
X98617142Y-117841904D01*
X98664761Y-117889523D01*
X98712380Y-117984761D01*
X98712380Y-118270476D01*
X98664761Y-118365714D01*
X98617142Y-118413333D01*
%TO.C,D3*%
X94112380Y-161228095D02*
X93112380Y-161228095D01*
X93112380Y-160990000D01*
X93160000Y-160847142D01*
X93255238Y-160751904D01*
X93350476Y-160704285D01*
X93540952Y-160656666D01*
X93683809Y-160656666D01*
X93874285Y-160704285D01*
X93969523Y-160751904D01*
X94064761Y-160847142D01*
X94112380Y-160990000D01*
X94112380Y-161228095D01*
X93112380Y-160323333D02*
X93112380Y-159704285D01*
X93493333Y-160037619D01*
X93493333Y-159894761D01*
X93540952Y-159799523D01*
X93588571Y-159751904D01*
X93683809Y-159704285D01*
X93921904Y-159704285D01*
X94017142Y-159751904D01*
X94064761Y-159799523D01*
X94112380Y-159894761D01*
X94112380Y-160180476D01*
X94064761Y-160275714D01*
X94017142Y-160323333D01*
%TO.C,D2*%
X78872380Y-161228095D02*
X77872380Y-161228095D01*
X77872380Y-160990000D01*
X77920000Y-160847142D01*
X78015238Y-160751904D01*
X78110476Y-160704285D01*
X78300952Y-160656666D01*
X78443809Y-160656666D01*
X78634285Y-160704285D01*
X78729523Y-160751904D01*
X78824761Y-160847142D01*
X78872380Y-160990000D01*
X78872380Y-161228095D01*
X77967619Y-160275714D02*
X77920000Y-160228095D01*
X77872380Y-160132857D01*
X77872380Y-159894761D01*
X77920000Y-159799523D01*
X77967619Y-159751904D01*
X78062857Y-159704285D01*
X78158095Y-159704285D01*
X78300952Y-159751904D01*
X78872380Y-160323333D01*
X78872380Y-159704285D01*
%TO.C,SW1*%
X62235238Y-140106666D02*
X62187619Y-140249523D01*
X62187619Y-140487619D01*
X62235238Y-140582857D01*
X62282857Y-140630476D01*
X62378095Y-140678095D01*
X62473333Y-140678095D01*
X62568571Y-140630476D01*
X62616190Y-140582857D01*
X62663809Y-140487619D01*
X62711428Y-140297142D01*
X62759047Y-140201904D01*
X62806666Y-140154285D01*
X62901904Y-140106666D01*
X62997142Y-140106666D01*
X63092380Y-140154285D01*
X63140000Y-140201904D01*
X63187619Y-140297142D01*
X63187619Y-140535238D01*
X63140000Y-140678095D01*
X63187619Y-141011428D02*
X62187619Y-141249523D01*
X62901904Y-141440000D01*
X62187619Y-141630476D01*
X63187619Y-141868571D01*
X62187619Y-142773333D02*
X62187619Y-142201904D01*
X62187619Y-142487619D02*
X63187619Y-142487619D01*
X63044761Y-142392380D01*
X62949523Y-142297142D01*
X62901904Y-142201904D01*
%TO.C,J2*%
X121104166Y-113162380D02*
X121104166Y-113876666D01*
X121056547Y-114019523D01*
X120961309Y-114114761D01*
X120818452Y-114162380D01*
X120723214Y-114162380D01*
X121532738Y-113257619D02*
X121580357Y-113210000D01*
X121675595Y-113162380D01*
X121913690Y-113162380D01*
X122008928Y-113210000D01*
X122056547Y-113257619D01*
X122104166Y-113352857D01*
X122104166Y-113448095D01*
X122056547Y-113590952D01*
X121485119Y-114162380D01*
X122104166Y-114162380D01*
%TO.C,R5*%
X65114333Y-113777380D02*
X64781000Y-113301190D01*
X64542904Y-113777380D02*
X64542904Y-112777380D01*
X64923857Y-112777380D01*
X65019095Y-112825000D01*
X65066714Y-112872619D01*
X65114333Y-112967857D01*
X65114333Y-113110714D01*
X65066714Y-113205952D01*
X65019095Y-113253571D01*
X64923857Y-113301190D01*
X64542904Y-113301190D01*
X66019095Y-112777380D02*
X65542904Y-112777380D01*
X65495285Y-113253571D01*
X65542904Y-113205952D01*
X65638142Y-113158333D01*
X65876238Y-113158333D01*
X65971476Y-113205952D01*
X66019095Y-113253571D01*
X66066714Y-113348809D01*
X66066714Y-113586904D01*
X66019095Y-113682142D01*
X65971476Y-113729761D01*
X65876238Y-113777380D01*
X65638142Y-113777380D01*
X65542904Y-113729761D01*
X65495285Y-113682142D01*
%TO.C,ENC0*%
X68435714Y-81376571D02*
X68769047Y-81376571D01*
X68911904Y-81900380D02*
X68435714Y-81900380D01*
X68435714Y-80900380D01*
X68911904Y-80900380D01*
X69340476Y-81900380D02*
X69340476Y-80900380D01*
X69911904Y-81900380D01*
X69911904Y-80900380D01*
X70959523Y-81805142D02*
X70911904Y-81852761D01*
X70769047Y-81900380D01*
X70673809Y-81900380D01*
X70530952Y-81852761D01*
X70435714Y-81757523D01*
X70388095Y-81662285D01*
X70340476Y-81471809D01*
X70340476Y-81328952D01*
X70388095Y-81138476D01*
X70435714Y-81043238D01*
X70530952Y-80948000D01*
X70673809Y-80900380D01*
X70769047Y-80900380D01*
X70911904Y-80948000D01*
X70959523Y-80995619D01*
X71578571Y-80900380D02*
X71673809Y-80900380D01*
X71769047Y-80948000D01*
X71816666Y-80995619D01*
X71864285Y-81090857D01*
X71911904Y-81281333D01*
X71911904Y-81519428D01*
X71864285Y-81709904D01*
X71816666Y-81805142D01*
X71769047Y-81852761D01*
X71673809Y-81900380D01*
X71578571Y-81900380D01*
X71483333Y-81852761D01*
X71435714Y-81805142D01*
X71388095Y-81709904D01*
X71340476Y-81519428D01*
X71340476Y-81281333D01*
X71388095Y-81090857D01*
X71435714Y-80995619D01*
X71483333Y-80948000D01*
X71578571Y-80900380D01*
%TO.C,ENC1*%
X68435714Y-55976571D02*
X68769047Y-55976571D01*
X68911904Y-56500380D02*
X68435714Y-56500380D01*
X68435714Y-55500380D01*
X68911904Y-55500380D01*
X69340476Y-56500380D02*
X69340476Y-55500380D01*
X69911904Y-56500380D01*
X69911904Y-55500380D01*
X70959523Y-56405142D02*
X70911904Y-56452761D01*
X70769047Y-56500380D01*
X70673809Y-56500380D01*
X70530952Y-56452761D01*
X70435714Y-56357523D01*
X70388095Y-56262285D01*
X70340476Y-56071809D01*
X70340476Y-55928952D01*
X70388095Y-55738476D01*
X70435714Y-55643238D01*
X70530952Y-55548000D01*
X70673809Y-55500380D01*
X70769047Y-55500380D01*
X70911904Y-55548000D01*
X70959523Y-55595619D01*
X71911904Y-56500380D02*
X71340476Y-56500380D01*
X71626190Y-56500380D02*
X71626190Y-55500380D01*
X71530952Y-55643238D01*
X71435714Y-55738476D01*
X71340476Y-55786095D01*
%TO.C,H3*%
X56688095Y-172030380D02*
X56688095Y-171030380D01*
X56688095Y-171506571D02*
X57259523Y-171506571D01*
X57259523Y-172030380D02*
X57259523Y-171030380D01*
X57640476Y-171030380D02*
X58259523Y-171030380D01*
X57926190Y-171411333D01*
X58069047Y-171411333D01*
X58164285Y-171458952D01*
X58211904Y-171506571D01*
X58259523Y-171601809D01*
X58259523Y-171839904D01*
X58211904Y-171935142D01*
X58164285Y-171982761D01*
X58069047Y-172030380D01*
X57783333Y-172030380D01*
X57688095Y-171982761D01*
X57640476Y-171935142D01*
%TO.C,C1*%
X81345142Y-116955666D02*
X81392761Y-117003285D01*
X81440380Y-117146142D01*
X81440380Y-117241380D01*
X81392761Y-117384238D01*
X81297523Y-117479476D01*
X81202285Y-117527095D01*
X81011809Y-117574714D01*
X80868952Y-117574714D01*
X80678476Y-117527095D01*
X80583238Y-117479476D01*
X80488000Y-117384238D01*
X80440380Y-117241380D01*
X80440380Y-117146142D01*
X80488000Y-117003285D01*
X80535619Y-116955666D01*
X81440380Y-116003285D02*
X81440380Y-116574714D01*
X81440380Y-116289000D02*
X80440380Y-116289000D01*
X80583238Y-116384238D01*
X80678476Y-116479476D01*
X80726095Y-116574714D01*
%TO.C,SW4*%
X107955238Y-140106666D02*
X107907619Y-140249523D01*
X107907619Y-140487619D01*
X107955238Y-140582857D01*
X108002857Y-140630476D01*
X108098095Y-140678095D01*
X108193333Y-140678095D01*
X108288571Y-140630476D01*
X108336190Y-140582857D01*
X108383809Y-140487619D01*
X108431428Y-140297142D01*
X108479047Y-140201904D01*
X108526666Y-140154285D01*
X108621904Y-140106666D01*
X108717142Y-140106666D01*
X108812380Y-140154285D01*
X108860000Y-140201904D01*
X108907619Y-140297142D01*
X108907619Y-140535238D01*
X108860000Y-140678095D01*
X108907619Y-141011428D02*
X107907619Y-141249523D01*
X108621904Y-141440000D01*
X107907619Y-141630476D01*
X108907619Y-141868571D01*
X108574285Y-142678095D02*
X107907619Y-142678095D01*
X108955238Y-142440000D02*
X108240952Y-142201904D01*
X108240952Y-142820952D01*
%TO.C,SW3*%
X92715238Y-140106666D02*
X92667619Y-140249523D01*
X92667619Y-140487619D01*
X92715238Y-140582857D01*
X92762857Y-140630476D01*
X92858095Y-140678095D01*
X92953333Y-140678095D01*
X93048571Y-140630476D01*
X93096190Y-140582857D01*
X93143809Y-140487619D01*
X93191428Y-140297142D01*
X93239047Y-140201904D01*
X93286666Y-140154285D01*
X93381904Y-140106666D01*
X93477142Y-140106666D01*
X93572380Y-140154285D01*
X93620000Y-140201904D01*
X93667619Y-140297142D01*
X93667619Y-140535238D01*
X93620000Y-140678095D01*
X93667619Y-141011428D02*
X92667619Y-141249523D01*
X93381904Y-141440000D01*
X92667619Y-141630476D01*
X93667619Y-141868571D01*
X93667619Y-142154285D02*
X93667619Y-142773333D01*
X93286666Y-142440000D01*
X93286666Y-142582857D01*
X93239047Y-142678095D01*
X93191428Y-142725714D01*
X93096190Y-142773333D01*
X92858095Y-142773333D01*
X92762857Y-142725714D01*
X92715238Y-142678095D01*
X92667619Y-142582857D01*
X92667619Y-142297142D01*
X92715238Y-142201904D01*
X92762857Y-142154285D01*
%TO.C,R1*%
X64262380Y-167006666D02*
X63786190Y-167340000D01*
X64262380Y-167578095D02*
X63262380Y-167578095D01*
X63262380Y-167197142D01*
X63310000Y-167101904D01*
X63357619Y-167054285D01*
X63452857Y-167006666D01*
X63595714Y-167006666D01*
X63690952Y-167054285D01*
X63738571Y-167101904D01*
X63786190Y-167197142D01*
X63786190Y-167578095D01*
X64262380Y-166054285D02*
X64262380Y-166625714D01*
X64262380Y-166340000D02*
X63262380Y-166340000D01*
X63405238Y-166435238D01*
X63500476Y-166530476D01*
X63548095Y-166625714D01*
%TO.C,H1*%
X56688095Y-49602380D02*
X56688095Y-48602380D01*
X56688095Y-49078571D02*
X57259523Y-49078571D01*
X57259523Y-49602380D02*
X57259523Y-48602380D01*
X58259523Y-49602380D02*
X57688095Y-49602380D01*
X57973809Y-49602380D02*
X57973809Y-48602380D01*
X57878571Y-48745238D01*
X57783333Y-48840476D01*
X57688095Y-48888095D01*
%TO.C,R3*%
X94742380Y-167006666D02*
X94266190Y-167340000D01*
X94742380Y-167578095D02*
X93742380Y-167578095D01*
X93742380Y-167197142D01*
X93790000Y-167101904D01*
X93837619Y-167054285D01*
X93932857Y-167006666D01*
X94075714Y-167006666D01*
X94170952Y-167054285D01*
X94218571Y-167101904D01*
X94266190Y-167197142D01*
X94266190Y-167578095D01*
X93742380Y-166673333D02*
X93742380Y-166054285D01*
X94123333Y-166387619D01*
X94123333Y-166244761D01*
X94170952Y-166149523D01*
X94218571Y-166101904D01*
X94313809Y-166054285D01*
X94551904Y-166054285D01*
X94647142Y-166101904D01*
X94694761Y-166149523D01*
X94742380Y-166244761D01*
X94742380Y-166530476D01*
X94694761Y-166625714D01*
X94647142Y-166673333D01*
%TO.C,D4*%
X109352380Y-161228095D02*
X108352380Y-161228095D01*
X108352380Y-160990000D01*
X108400000Y-160847142D01*
X108495238Y-160751904D01*
X108590476Y-160704285D01*
X108780952Y-160656666D01*
X108923809Y-160656666D01*
X109114285Y-160704285D01*
X109209523Y-160751904D01*
X109304761Y-160847142D01*
X109352380Y-160990000D01*
X109352380Y-161228095D01*
X108685714Y-159799523D02*
X109352380Y-159799523D01*
X108304761Y-160037619D02*
X109019047Y-160275714D01*
X109019047Y-159656666D01*
%TO.C,ENC2*%
X103995714Y-55976571D02*
X104329047Y-55976571D01*
X104471904Y-56500380D02*
X103995714Y-56500380D01*
X103995714Y-55500380D01*
X104471904Y-55500380D01*
X104900476Y-56500380D02*
X104900476Y-55500380D01*
X105471904Y-56500380D01*
X105471904Y-55500380D01*
X106519523Y-56405142D02*
X106471904Y-56452761D01*
X106329047Y-56500380D01*
X106233809Y-56500380D01*
X106090952Y-56452761D01*
X105995714Y-56357523D01*
X105948095Y-56262285D01*
X105900476Y-56071809D01*
X105900476Y-55928952D01*
X105948095Y-55738476D01*
X105995714Y-55643238D01*
X106090952Y-55548000D01*
X106233809Y-55500380D01*
X106329047Y-55500380D01*
X106471904Y-55548000D01*
X106519523Y-55595619D01*
X106900476Y-55595619D02*
X106948095Y-55548000D01*
X107043333Y-55500380D01*
X107281428Y-55500380D01*
X107376666Y-55548000D01*
X107424285Y-55595619D01*
X107471904Y-55690857D01*
X107471904Y-55786095D01*
X107424285Y-55928952D01*
X106852857Y-56500380D01*
X107471904Y-56500380D01*
%TO.C,C4*%
X96585142Y-118746666D02*
X96632761Y-118794285D01*
X96680380Y-118937142D01*
X96680380Y-119032380D01*
X96632761Y-119175238D01*
X96537523Y-119270476D01*
X96442285Y-119318095D01*
X96251809Y-119365714D01*
X96108952Y-119365714D01*
X95918476Y-119318095D01*
X95823238Y-119270476D01*
X95728000Y-119175238D01*
X95680380Y-119032380D01*
X95680380Y-118937142D01*
X95728000Y-118794285D01*
X95775619Y-118746666D01*
X96013714Y-117889523D02*
X96680380Y-117889523D01*
X95632761Y-118127619D02*
X96347047Y-118365714D01*
X96347047Y-117746666D01*
%TO.C,C10*%
X75598142Y-117698857D02*
X75645761Y-117746476D01*
X75693380Y-117889333D01*
X75693380Y-117984571D01*
X75645761Y-118127428D01*
X75550523Y-118222666D01*
X75455285Y-118270285D01*
X75264809Y-118317904D01*
X75121952Y-118317904D01*
X74931476Y-118270285D01*
X74836238Y-118222666D01*
X74741000Y-118127428D01*
X74693380Y-117984571D01*
X74693380Y-117889333D01*
X74741000Y-117746476D01*
X74788619Y-117698857D01*
X75693380Y-116746476D02*
X75693380Y-117317904D01*
X75693380Y-117032190D02*
X74693380Y-117032190D01*
X74836238Y-117127428D01*
X74931476Y-117222666D01*
X74979095Y-117317904D01*
X74693380Y-116127428D02*
X74693380Y-116032190D01*
X74741000Y-115936952D01*
X74788619Y-115889333D01*
X74883857Y-115841714D01*
X75074333Y-115794095D01*
X75312428Y-115794095D01*
X75502904Y-115841714D01*
X75598142Y-115889333D01*
X75645761Y-115936952D01*
X75693380Y-116032190D01*
X75693380Y-116127428D01*
X75645761Y-116222666D01*
X75598142Y-116270285D01*
X75502904Y-116317904D01*
X75312428Y-116365523D01*
X75074333Y-116365523D01*
X74883857Y-116317904D01*
X74788619Y-116270285D01*
X74741000Y-116222666D01*
X74693380Y-116127428D01*
%TO.C,C2*%
X79313142Y-116955666D02*
X79360761Y-117003285D01*
X79408380Y-117146142D01*
X79408380Y-117241380D01*
X79360761Y-117384238D01*
X79265523Y-117479476D01*
X79170285Y-117527095D01*
X78979809Y-117574714D01*
X78836952Y-117574714D01*
X78646476Y-117527095D01*
X78551238Y-117479476D01*
X78456000Y-117384238D01*
X78408380Y-117241380D01*
X78408380Y-117146142D01*
X78456000Y-117003285D01*
X78503619Y-116955666D01*
X78503619Y-116574714D02*
X78456000Y-116527095D01*
X78408380Y-116431857D01*
X78408380Y-116193761D01*
X78456000Y-116098523D01*
X78503619Y-116050904D01*
X78598857Y-116003285D01*
X78694095Y-116003285D01*
X78836952Y-116050904D01*
X79408380Y-116622333D01*
X79408380Y-116003285D01*
%TO.C,C9*%
X80554333Y-110809142D02*
X80506714Y-110856761D01*
X80363857Y-110904380D01*
X80268619Y-110904380D01*
X80125761Y-110856761D01*
X80030523Y-110761523D01*
X79982904Y-110666285D01*
X79935285Y-110475809D01*
X79935285Y-110332952D01*
X79982904Y-110142476D01*
X80030523Y-110047238D01*
X80125761Y-109952000D01*
X80268619Y-109904380D01*
X80363857Y-109904380D01*
X80506714Y-109952000D01*
X80554333Y-109999619D01*
X81030523Y-110904380D02*
X81221000Y-110904380D01*
X81316238Y-110856761D01*
X81363857Y-110809142D01*
X81459095Y-110666285D01*
X81506714Y-110475809D01*
X81506714Y-110094857D01*
X81459095Y-109999619D01*
X81411476Y-109952000D01*
X81316238Y-109904380D01*
X81125761Y-109904380D01*
X81030523Y-109952000D01*
X80982904Y-109999619D01*
X80935285Y-110094857D01*
X80935285Y-110332952D01*
X80982904Y-110428190D01*
X81030523Y-110475809D01*
X81125761Y-110523428D01*
X81316238Y-110523428D01*
X81411476Y-110475809D01*
X81459095Y-110428190D01*
X81506714Y-110332952D01*
%TO.C,U2*%
X107658095Y-117892380D02*
X107658095Y-118701904D01*
X107705714Y-118797142D01*
X107753333Y-118844761D01*
X107848571Y-118892380D01*
X108039047Y-118892380D01*
X108134285Y-118844761D01*
X108181904Y-118797142D01*
X108229523Y-118701904D01*
X108229523Y-117892380D01*
X108658095Y-117987619D02*
X108705714Y-117940000D01*
X108800952Y-117892380D01*
X109039047Y-117892380D01*
X109134285Y-117940000D01*
X109181904Y-117987619D01*
X109229523Y-118082857D01*
X109229523Y-118178095D01*
X109181904Y-118320952D01*
X108610476Y-118892380D01*
X109229523Y-118892380D01*
%TO.C,C8*%
X80313333Y-109285142D02*
X80265714Y-109332761D01*
X80122857Y-109380380D01*
X80027619Y-109380380D01*
X79884761Y-109332761D01*
X79789523Y-109237523D01*
X79741904Y-109142285D01*
X79694285Y-108951809D01*
X79694285Y-108808952D01*
X79741904Y-108618476D01*
X79789523Y-108523238D01*
X79884761Y-108428000D01*
X80027619Y-108380380D01*
X80122857Y-108380380D01*
X80265714Y-108428000D01*
X80313333Y-108475619D01*
X80884761Y-108808952D02*
X80789523Y-108761333D01*
X80741904Y-108713714D01*
X80694285Y-108618476D01*
X80694285Y-108570857D01*
X80741904Y-108475619D01*
X80789523Y-108428000D01*
X80884761Y-108380380D01*
X81075238Y-108380380D01*
X81170476Y-108428000D01*
X81218095Y-108475619D01*
X81265714Y-108570857D01*
X81265714Y-108618476D01*
X81218095Y-108713714D01*
X81170476Y-108761333D01*
X81075238Y-108808952D01*
X80884761Y-108808952D01*
X80789523Y-108856571D01*
X80741904Y-108904190D01*
X80694285Y-108999428D01*
X80694285Y-109189904D01*
X80741904Y-109285142D01*
X80789523Y-109332761D01*
X80884761Y-109380380D01*
X81075238Y-109380380D01*
X81170476Y-109332761D01*
X81218095Y-109285142D01*
X81265714Y-109189904D01*
X81265714Y-108999428D01*
X81218095Y-108904190D01*
X81170476Y-108856571D01*
X81075238Y-108808952D01*
D12*
%TO.C,R4*%
X111482500Y-167077258D02*
X111482500Y-166602742D01*
X110437500Y-167077258D02*
X110437500Y-166602742D01*
%TO.C,U1*%
X91710000Y-112430000D02*
X91260000Y-112430000D01*
X84940000Y-119650000D02*
X84940000Y-120940000D01*
X91710000Y-119650000D02*
X91260000Y-119650000D01*
X84490000Y-112880000D02*
X84490000Y-112430000D01*
X91710000Y-119200000D02*
X91710000Y-119650000D01*
X84490000Y-112430000D02*
X84940000Y-112430000D01*
X84490000Y-119200000D02*
X84490000Y-119650000D01*
X91710000Y-112880000D02*
X91710000Y-112430000D01*
X84490000Y-119650000D02*
X84940000Y-119650000D01*
%TO.C,C5*%
X116634000Y-116674420D02*
X116634000Y-116955580D01*
X115614000Y-116674420D02*
X115614000Y-116955580D01*
%TO.C,D1*%
X66300000Y-158610000D02*
X66300000Y-158050000D01*
X64180000Y-158050000D02*
X66300000Y-158050000D01*
X64180000Y-163050000D02*
X66300000Y-163050000D01*
X64180000Y-158610000D02*
X64180000Y-158050000D01*
X64180000Y-160800000D02*
X64180000Y-160069000D01*
X64180000Y-163170000D02*
X64180000Y-162960000D01*
X66300000Y-160800000D02*
X66300000Y-160069000D01*
X64180000Y-163170000D02*
X66300000Y-163170000D01*
X66300000Y-163170000D02*
X66300000Y-162960000D01*
%TO.C,R2*%
X81002500Y-167077258D02*
X81002500Y-166602742D01*
X79957500Y-167077258D02*
X79957500Y-166602742D01*
%TO.C,C7*%
X87451420Y-123662000D02*
X87732580Y-123662000D01*
X87451420Y-122642000D02*
X87732580Y-122642000D01*
%TO.C,ENC3*%
X104130000Y-96940000D02*
X99080000Y-96940000D01*
X99080000Y-91390000D02*
X99080000Y-92390000D01*
X99080000Y-87340000D02*
X99080000Y-84340000D01*
X112680000Y-94240000D02*
X112680000Y-96940000D01*
X112680000Y-89140000D02*
X112680000Y-92140000D01*
X99080000Y-93940000D02*
X99080000Y-96940000D01*
X99080000Y-88890000D02*
X99080000Y-89890000D01*
X107630000Y-84340000D02*
X112680000Y-84340000D01*
X112680000Y-96940000D02*
X107630000Y-96940000D01*
X112680000Y-84340000D02*
X112680000Y-87140000D01*
X99080000Y-84340000D02*
X104130000Y-84340000D01*
%TO.C,C11*%
X77434000Y-114375420D02*
X77434000Y-114656580D01*
X76414000Y-114375420D02*
X76414000Y-114656580D01*
%TO.C,C6*%
X87732580Y-125586000D02*
X87451420Y-125586000D01*
X87732580Y-124566000D02*
X87451420Y-124566000D01*
%TO.C,J1*%
X53750000Y-112170000D02*
X55080000Y-112170000D01*
X53750000Y-127530000D02*
X56410000Y-127530000D01*
X53750000Y-114770000D02*
X53750000Y-127530000D01*
X56410000Y-114770000D02*
X56410000Y-127530000D01*
X53750000Y-114770000D02*
X56410000Y-114770000D01*
X53750000Y-113500000D02*
X53750000Y-112170000D01*
%TO.C,C3*%
X97750000Y-116180580D02*
X97750000Y-115899420D01*
X98770000Y-116180580D02*
X98770000Y-115899420D01*
%TO.C,D3*%
X96780000Y-163050000D02*
X96780000Y-162840000D01*
X94660000Y-158490000D02*
X94660000Y-157930000D01*
X96780000Y-160680000D02*
X96780000Y-159949000D01*
X94660000Y-160680000D02*
X94660000Y-159949000D01*
X94660000Y-157930000D02*
X96780000Y-157930000D01*
X94660000Y-163050000D02*
X94660000Y-162840000D01*
X96780000Y-158490000D02*
X96780000Y-157930000D01*
X94660000Y-163050000D02*
X96780000Y-163050000D01*
X94660000Y-162930000D02*
X96780000Y-162930000D01*
%TO.C,D2*%
X79420000Y-158490000D02*
X79420000Y-157930000D01*
X79420000Y-163050000D02*
X81540000Y-163050000D01*
X81540000Y-163050000D02*
X81540000Y-162840000D01*
X81540000Y-158490000D02*
X81540000Y-157930000D01*
X79420000Y-157930000D02*
X81540000Y-157930000D01*
X79420000Y-163050000D02*
X79420000Y-162840000D01*
X79420000Y-160680000D02*
X79420000Y-159949000D01*
X81540000Y-160680000D02*
X81540000Y-159949000D01*
X79420000Y-162930000D02*
X81540000Y-162930000D01*
%TO.C,J2*%
X120107500Y-124990000D02*
X122767500Y-124990000D01*
X120107500Y-117310000D02*
X122767500Y-117310000D01*
X120107500Y-116040000D02*
X120107500Y-114710000D01*
X122767500Y-117310000D02*
X122767500Y-124990000D01*
X120107500Y-114710000D02*
X121437500Y-114710000D01*
X120107500Y-117310000D02*
X120107500Y-124990000D01*
%TO.C,R5*%
X62767258Y-114022500D02*
X62292742Y-114022500D01*
X62767258Y-112977500D02*
X62292742Y-112977500D01*
%TO.C,ENC0*%
X63520000Y-87040000D02*
X63520000Y-84340000D01*
X68570000Y-96940000D02*
X63520000Y-96940000D01*
X63520000Y-96940000D02*
X63520000Y-94140000D01*
X77120000Y-96940000D02*
X72070000Y-96940000D01*
X77120000Y-87340000D02*
X77120000Y-84340000D01*
X72070000Y-84340000D02*
X77120000Y-84340000D01*
X63520000Y-92140000D02*
X63520000Y-89140000D01*
X77120000Y-89890000D02*
X77120000Y-88890000D01*
X77120000Y-93940000D02*
X77120000Y-96940000D01*
X77120000Y-92390000D02*
X77120000Y-91390000D01*
X63520000Y-84340000D02*
X68570000Y-84340000D01*
%TO.C,ENC1*%
X68570000Y-71540000D02*
X63520000Y-71540000D01*
X77120000Y-64490000D02*
X77120000Y-63490000D01*
X77120000Y-61940000D02*
X77120000Y-58940000D01*
X72070000Y-58940000D02*
X77120000Y-58940000D01*
X77120000Y-68540000D02*
X77120000Y-71540000D01*
X63520000Y-61640000D02*
X63520000Y-58940000D01*
X77120000Y-71540000D02*
X72070000Y-71540000D01*
X63520000Y-58940000D02*
X68570000Y-58940000D01*
X63520000Y-66740000D02*
X63520000Y-63740000D01*
X77120000Y-66990000D02*
X77120000Y-65990000D01*
X63520000Y-71540000D02*
X63520000Y-68740000D01*
%TO.C,C1*%
X81498000Y-114375420D02*
X81498000Y-114656580D01*
X80478000Y-114375420D02*
X80478000Y-114656580D01*
%TO.C,R1*%
X64717500Y-167077258D02*
X64717500Y-166602742D01*
X65762500Y-167077258D02*
X65762500Y-166602742D01*
%TO.C,R3*%
X96242500Y-167077258D02*
X96242500Y-166602742D01*
X95197500Y-167077258D02*
X95197500Y-166602742D01*
%TO.C,D4*%
X112020000Y-160680000D02*
X112020000Y-159949000D01*
X109900000Y-163050000D02*
X109900000Y-162840000D01*
X112020000Y-158490000D02*
X112020000Y-157930000D01*
X109900000Y-162930000D02*
X112020000Y-162930000D01*
X109900000Y-160680000D02*
X109900000Y-159949000D01*
X109900000Y-157930000D02*
X112020000Y-157930000D01*
X109900000Y-158490000D02*
X109900000Y-157930000D01*
X112020000Y-163050000D02*
X112020000Y-162840000D01*
X109900000Y-163050000D02*
X112020000Y-163050000D01*
%TO.C,ENC2*%
X112680000Y-68840000D02*
X112680000Y-71540000D01*
X99080000Y-65990000D02*
X99080000Y-66990000D01*
X112680000Y-58940000D02*
X112680000Y-61740000D01*
X112680000Y-71540000D02*
X107630000Y-71540000D01*
X107630000Y-58940000D02*
X112680000Y-58940000D01*
X99080000Y-58940000D02*
X104130000Y-58940000D01*
X112680000Y-63740000D02*
X112680000Y-66740000D01*
X99080000Y-61940000D02*
X99080000Y-58940000D01*
X99080000Y-68540000D02*
X99080000Y-71540000D01*
X104130000Y-71540000D02*
X99080000Y-71540000D01*
X99080000Y-63490000D02*
X99080000Y-64490000D01*
%TO.C,C4*%
X95718000Y-115899420D02*
X95718000Y-116180580D01*
X96738000Y-115899420D02*
X96738000Y-116180580D01*
%TO.C,C10*%
X74490000Y-114656580D02*
X74490000Y-114375420D01*
X75510000Y-114656580D02*
X75510000Y-114375420D01*
%TO.C,C2*%
X78446000Y-114375420D02*
X78446000Y-114656580D01*
X79466000Y-114375420D02*
X79466000Y-114656580D01*
%TO.C,C9*%
X82879420Y-109942000D02*
X83160580Y-109942000D01*
X82879420Y-110962000D02*
X83160580Y-110962000D01*
%TO.C,U2*%
X108420000Y-114480000D02*
X109220000Y-114480000D01*
X108420000Y-117600000D02*
X107620000Y-117600000D01*
X108420000Y-114480000D02*
X107620000Y-114480000D01*
X108420000Y-117600000D02*
X110220000Y-117600000D01*
%TO.C,C8*%
X83160580Y-109438000D02*
X82879420Y-109438000D01*
X83160580Y-108418000D02*
X82879420Y-108418000D01*
%TD*%
M02*
