%TF.GenerationSoftware,KiCad,Pcbnew,7.0.2*%
%TF.CreationDate,2023-05-21T17:51:27-07:00*%
%TF.ProjectId,IOBoard_ATSAMD21,494f426f-6172-4645-9f41-5453414d4432,rev?*%
%TF.SameCoordinates,Original*%
%TF.FileFunction,Legend,Bot*%
%TF.FilePolarity,Positive*%
%FSLAX46Y46*%
G04 Gerber Fmt 4.6, Leading zero omitted, Abs format (unit mm)*
G04 Created by KiCad (PCBNEW 7.0.2) date 2023-05-21 17:51:27*
%MOMM*%
%LPD*%
G01*
G04 APERTURE LIST*
%ADD10C,0.150000*%
%ADD11C,0.120000*%
G04 APERTURE END LIST*
D10*
X52324000Y-96012000D02*
X63500000Y-96012000D01*
X63500000Y-113284000D01*
X52324000Y-113284000D01*
X52324000Y-96012000D01*
X86322000Y-146896000D02*
X107150000Y-146896000D01*
X107150000Y-155786000D01*
X86322000Y-155786000D01*
X86322000Y-146896000D01*
X115316000Y-107696000D02*
X125476000Y-107696000D01*
X125476000Y-116840000D01*
X115316000Y-116840000D01*
X115316000Y-107696000D01*
X115316000Y-95504000D02*
X125476000Y-95504000D01*
X125476000Y-106172000D01*
X115316000Y-106172000D01*
X115316000Y-95504000D01*
X62848570Y-109050000D02*
X62705713Y-109097619D01*
X62705713Y-109097619D02*
X62467618Y-109097619D01*
X62467618Y-109097619D02*
X62372380Y-109050000D01*
X62372380Y-109050000D02*
X62324761Y-109002380D01*
X62324761Y-109002380D02*
X62277142Y-108907142D01*
X62277142Y-108907142D02*
X62277142Y-108811904D01*
X62277142Y-108811904D02*
X62324761Y-108716666D01*
X62324761Y-108716666D02*
X62372380Y-108669047D01*
X62372380Y-108669047D02*
X62467618Y-108621428D01*
X62467618Y-108621428D02*
X62658094Y-108573809D01*
X62658094Y-108573809D02*
X62753332Y-108526190D01*
X62753332Y-108526190D02*
X62800951Y-108478571D01*
X62800951Y-108478571D02*
X62848570Y-108383333D01*
X62848570Y-108383333D02*
X62848570Y-108288095D01*
X62848570Y-108288095D02*
X62800951Y-108192857D01*
X62800951Y-108192857D02*
X62753332Y-108145238D01*
X62753332Y-108145238D02*
X62658094Y-108097619D01*
X62658094Y-108097619D02*
X62419999Y-108097619D01*
X62419999Y-108097619D02*
X62277142Y-108145238D01*
X61943808Y-108097619D02*
X61705713Y-109097619D01*
X61705713Y-109097619D02*
X61515237Y-108383333D01*
X61515237Y-108383333D02*
X61324761Y-109097619D01*
X61324761Y-109097619D02*
X61086666Y-108097619D01*
X60705713Y-109097619D02*
X60705713Y-108097619D01*
X60705713Y-108097619D02*
X60467618Y-108097619D01*
X60467618Y-108097619D02*
X60324761Y-108145238D01*
X60324761Y-108145238D02*
X60229523Y-108240476D01*
X60229523Y-108240476D02*
X60181904Y-108335714D01*
X60181904Y-108335714D02*
X60134285Y-108526190D01*
X60134285Y-108526190D02*
X60134285Y-108669047D01*
X60134285Y-108669047D02*
X60181904Y-108859523D01*
X60181904Y-108859523D02*
X60229523Y-108954761D01*
X60229523Y-108954761D02*
X60324761Y-109050000D01*
X60324761Y-109050000D02*
X60467618Y-109097619D01*
X60467618Y-109097619D02*
X60705713Y-109097619D01*
X59705713Y-109097619D02*
X59705713Y-108097619D01*
X59039047Y-108097619D02*
X58848571Y-108097619D01*
X58848571Y-108097619D02*
X58753333Y-108145238D01*
X58753333Y-108145238D02*
X58658095Y-108240476D01*
X58658095Y-108240476D02*
X58610476Y-108430952D01*
X58610476Y-108430952D02*
X58610476Y-108764285D01*
X58610476Y-108764285D02*
X58658095Y-108954761D01*
X58658095Y-108954761D02*
X58753333Y-109050000D01*
X58753333Y-109050000D02*
X58848571Y-109097619D01*
X58848571Y-109097619D02*
X59039047Y-109097619D01*
X59039047Y-109097619D02*
X59134285Y-109050000D01*
X59134285Y-109050000D02*
X59229523Y-108954761D01*
X59229523Y-108954761D02*
X59277142Y-108764285D01*
X59277142Y-108764285D02*
X59277142Y-108430952D01*
X59277142Y-108430952D02*
X59229523Y-108240476D01*
X59229523Y-108240476D02*
X59134285Y-108145238D01*
X59134285Y-108145238D02*
X59039047Y-108097619D01*
X61181904Y-100477619D02*
X60848571Y-101477619D01*
X60848571Y-101477619D02*
X60515238Y-100477619D01*
X60181904Y-101477619D02*
X60181904Y-100477619D01*
X60181904Y-100477619D02*
X59943809Y-100477619D01*
X59943809Y-100477619D02*
X59800952Y-100525238D01*
X59800952Y-100525238D02*
X59705714Y-100620476D01*
X59705714Y-100620476D02*
X59658095Y-100715714D01*
X59658095Y-100715714D02*
X59610476Y-100906190D01*
X59610476Y-100906190D02*
X59610476Y-101049047D01*
X59610476Y-101049047D02*
X59658095Y-101239523D01*
X59658095Y-101239523D02*
X59705714Y-101334761D01*
X59705714Y-101334761D02*
X59800952Y-101430000D01*
X59800952Y-101430000D02*
X59943809Y-101477619D01*
X59943809Y-101477619D02*
X60181904Y-101477619D01*
X59181904Y-101477619D02*
X59181904Y-100477619D01*
X59181904Y-100477619D02*
X58943809Y-100477619D01*
X58943809Y-100477619D02*
X58800952Y-100525238D01*
X58800952Y-100525238D02*
X58705714Y-100620476D01*
X58705714Y-100620476D02*
X58658095Y-100715714D01*
X58658095Y-100715714D02*
X58610476Y-100906190D01*
X58610476Y-100906190D02*
X58610476Y-101049047D01*
X58610476Y-101049047D02*
X58658095Y-101239523D01*
X58658095Y-101239523D02*
X58705714Y-101334761D01*
X58705714Y-101334761D02*
X58800952Y-101430000D01*
X58800952Y-101430000D02*
X58943809Y-101477619D01*
X58943809Y-101477619D02*
X59181904Y-101477619D01*
X120205523Y-98794000D02*
X120062666Y-98841619D01*
X120062666Y-98841619D02*
X119824571Y-98841619D01*
X119824571Y-98841619D02*
X119729333Y-98794000D01*
X119729333Y-98794000D02*
X119681714Y-98746380D01*
X119681714Y-98746380D02*
X119634095Y-98651142D01*
X119634095Y-98651142D02*
X119634095Y-98555904D01*
X119634095Y-98555904D02*
X119681714Y-98460666D01*
X119681714Y-98460666D02*
X119729333Y-98413047D01*
X119729333Y-98413047D02*
X119824571Y-98365428D01*
X119824571Y-98365428D02*
X120015047Y-98317809D01*
X120015047Y-98317809D02*
X120110285Y-98270190D01*
X120110285Y-98270190D02*
X120157904Y-98222571D01*
X120157904Y-98222571D02*
X120205523Y-98127333D01*
X120205523Y-98127333D02*
X120205523Y-98032095D01*
X120205523Y-98032095D02*
X120157904Y-97936857D01*
X120157904Y-97936857D02*
X120110285Y-97889238D01*
X120110285Y-97889238D02*
X120015047Y-97841619D01*
X120015047Y-97841619D02*
X119776952Y-97841619D01*
X119776952Y-97841619D02*
X119634095Y-97889238D01*
X118634095Y-98746380D02*
X118681714Y-98794000D01*
X118681714Y-98794000D02*
X118824571Y-98841619D01*
X118824571Y-98841619D02*
X118919809Y-98841619D01*
X118919809Y-98841619D02*
X119062666Y-98794000D01*
X119062666Y-98794000D02*
X119157904Y-98698761D01*
X119157904Y-98698761D02*
X119205523Y-98603523D01*
X119205523Y-98603523D02*
X119253142Y-98413047D01*
X119253142Y-98413047D02*
X119253142Y-98270190D01*
X119253142Y-98270190D02*
X119205523Y-98079714D01*
X119205523Y-98079714D02*
X119157904Y-97984476D01*
X119157904Y-97984476D02*
X119062666Y-97889238D01*
X119062666Y-97889238D02*
X118919809Y-97841619D01*
X118919809Y-97841619D02*
X118824571Y-97841619D01*
X118824571Y-97841619D02*
X118681714Y-97889238D01*
X118681714Y-97889238D02*
X118634095Y-97936857D01*
X117729333Y-98841619D02*
X118205523Y-98841619D01*
X118205523Y-98841619D02*
X118205523Y-97841619D01*
X120205523Y-101430000D02*
X120062666Y-101477619D01*
X120062666Y-101477619D02*
X119824571Y-101477619D01*
X119824571Y-101477619D02*
X119729333Y-101430000D01*
X119729333Y-101430000D02*
X119681714Y-101382380D01*
X119681714Y-101382380D02*
X119634095Y-101287142D01*
X119634095Y-101287142D02*
X119634095Y-101191904D01*
X119634095Y-101191904D02*
X119681714Y-101096666D01*
X119681714Y-101096666D02*
X119729333Y-101049047D01*
X119729333Y-101049047D02*
X119824571Y-101001428D01*
X119824571Y-101001428D02*
X120015047Y-100953809D01*
X120015047Y-100953809D02*
X120110285Y-100906190D01*
X120110285Y-100906190D02*
X120157904Y-100858571D01*
X120157904Y-100858571D02*
X120205523Y-100763333D01*
X120205523Y-100763333D02*
X120205523Y-100668095D01*
X120205523Y-100668095D02*
X120157904Y-100572857D01*
X120157904Y-100572857D02*
X120110285Y-100525238D01*
X120110285Y-100525238D02*
X120015047Y-100477619D01*
X120015047Y-100477619D02*
X119776952Y-100477619D01*
X119776952Y-100477619D02*
X119634095Y-100525238D01*
X119205523Y-101477619D02*
X119205523Y-100477619D01*
X119205523Y-100477619D02*
X118967428Y-100477619D01*
X118967428Y-100477619D02*
X118824571Y-100525238D01*
X118824571Y-100525238D02*
X118729333Y-100620476D01*
X118729333Y-100620476D02*
X118681714Y-100715714D01*
X118681714Y-100715714D02*
X118634095Y-100906190D01*
X118634095Y-100906190D02*
X118634095Y-101049047D01*
X118634095Y-101049047D02*
X118681714Y-101239523D01*
X118681714Y-101239523D02*
X118729333Y-101334761D01*
X118729333Y-101334761D02*
X118824571Y-101430000D01*
X118824571Y-101430000D02*
X118967428Y-101477619D01*
X118967428Y-101477619D02*
X119205523Y-101477619D01*
X118253142Y-101191904D02*
X117776952Y-101191904D01*
X118348380Y-101477619D02*
X118015047Y-100477619D01*
X118015047Y-100477619D02*
X117681714Y-101477619D01*
X63134285Y-106510000D02*
X62991428Y-106557619D01*
X62991428Y-106557619D02*
X62753333Y-106557619D01*
X62753333Y-106557619D02*
X62658095Y-106510000D01*
X62658095Y-106510000D02*
X62610476Y-106462380D01*
X62610476Y-106462380D02*
X62562857Y-106367142D01*
X62562857Y-106367142D02*
X62562857Y-106271904D01*
X62562857Y-106271904D02*
X62610476Y-106176666D01*
X62610476Y-106176666D02*
X62658095Y-106129047D01*
X62658095Y-106129047D02*
X62753333Y-106081428D01*
X62753333Y-106081428D02*
X62943809Y-106033809D01*
X62943809Y-106033809D02*
X63039047Y-105986190D01*
X63039047Y-105986190D02*
X63086666Y-105938571D01*
X63086666Y-105938571D02*
X63134285Y-105843333D01*
X63134285Y-105843333D02*
X63134285Y-105748095D01*
X63134285Y-105748095D02*
X63086666Y-105652857D01*
X63086666Y-105652857D02*
X63039047Y-105605238D01*
X63039047Y-105605238D02*
X62943809Y-105557619D01*
X62943809Y-105557619D02*
X62705714Y-105557619D01*
X62705714Y-105557619D02*
X62562857Y-105605238D01*
X62229523Y-105557619D02*
X61991428Y-106557619D01*
X61991428Y-106557619D02*
X61800952Y-105843333D01*
X61800952Y-105843333D02*
X61610476Y-106557619D01*
X61610476Y-106557619D02*
X61372381Y-105557619D01*
X60420000Y-106462380D02*
X60467619Y-106510000D01*
X60467619Y-106510000D02*
X60610476Y-106557619D01*
X60610476Y-106557619D02*
X60705714Y-106557619D01*
X60705714Y-106557619D02*
X60848571Y-106510000D01*
X60848571Y-106510000D02*
X60943809Y-106414761D01*
X60943809Y-106414761D02*
X60991428Y-106319523D01*
X60991428Y-106319523D02*
X61039047Y-106129047D01*
X61039047Y-106129047D02*
X61039047Y-105986190D01*
X61039047Y-105986190D02*
X60991428Y-105795714D01*
X60991428Y-105795714D02*
X60943809Y-105700476D01*
X60943809Y-105700476D02*
X60848571Y-105605238D01*
X60848571Y-105605238D02*
X60705714Y-105557619D01*
X60705714Y-105557619D02*
X60610476Y-105557619D01*
X60610476Y-105557619D02*
X60467619Y-105605238D01*
X60467619Y-105605238D02*
X60420000Y-105652857D01*
X59515238Y-106557619D02*
X59991428Y-106557619D01*
X59991428Y-106557619D02*
X59991428Y-105557619D01*
X59181904Y-106557619D02*
X59181904Y-105557619D01*
X58610476Y-106557619D02*
X59039047Y-105986190D01*
X58610476Y-105557619D02*
X59181904Y-106129047D01*
X60229523Y-111637619D02*
X60229523Y-110637619D01*
X60229523Y-110637619D02*
X59658095Y-111637619D01*
X59658095Y-111637619D02*
X59658095Y-110637619D01*
X58610476Y-111542380D02*
X58658095Y-111590000D01*
X58658095Y-111590000D02*
X58800952Y-111637619D01*
X58800952Y-111637619D02*
X58896190Y-111637619D01*
X58896190Y-111637619D02*
X59039047Y-111590000D01*
X59039047Y-111590000D02*
X59134285Y-111494761D01*
X59134285Y-111494761D02*
X59181904Y-111399523D01*
X59181904Y-111399523D02*
X59229523Y-111209047D01*
X59229523Y-111209047D02*
X59229523Y-111066190D01*
X59229523Y-111066190D02*
X59181904Y-110875714D01*
X59181904Y-110875714D02*
X59134285Y-110780476D01*
X59134285Y-110780476D02*
X59039047Y-110685238D01*
X59039047Y-110685238D02*
X58896190Y-110637619D01*
X58896190Y-110637619D02*
X58800952Y-110637619D01*
X58800952Y-110637619D02*
X58658095Y-110685238D01*
X58658095Y-110685238D02*
X58610476Y-110732857D01*
X92116476Y-152012380D02*
X92164095Y-152060000D01*
X92164095Y-152060000D02*
X92306952Y-152107619D01*
X92306952Y-152107619D02*
X92402190Y-152107619D01*
X92402190Y-152107619D02*
X92545047Y-152060000D01*
X92545047Y-152060000D02*
X92640285Y-151964761D01*
X92640285Y-151964761D02*
X92687904Y-151869523D01*
X92687904Y-151869523D02*
X92735523Y-151679047D01*
X92735523Y-151679047D02*
X92735523Y-151536190D01*
X92735523Y-151536190D02*
X92687904Y-151345714D01*
X92687904Y-151345714D02*
X92640285Y-151250476D01*
X92640285Y-151250476D02*
X92545047Y-151155238D01*
X92545047Y-151155238D02*
X92402190Y-151107619D01*
X92402190Y-151107619D02*
X92306952Y-151107619D01*
X92306952Y-151107619D02*
X92164095Y-151155238D01*
X92164095Y-151155238D02*
X92116476Y-151202857D01*
X91830761Y-151107619D02*
X91497428Y-152107619D01*
X91497428Y-152107619D02*
X91164095Y-151107619D01*
X91068857Y-152202857D02*
X90306952Y-152202857D01*
X90068856Y-152107619D02*
X90068856Y-151440952D01*
X90068856Y-151107619D02*
X90116475Y-151155238D01*
X90116475Y-151155238D02*
X90068856Y-151202857D01*
X90068856Y-151202857D02*
X90021237Y-151155238D01*
X90021237Y-151155238D02*
X90068856Y-151107619D01*
X90068856Y-151107619D02*
X90068856Y-151202857D01*
X89592666Y-151440952D02*
X89592666Y-152107619D01*
X89592666Y-151536190D02*
X89545047Y-151488571D01*
X89545047Y-151488571D02*
X89449809Y-151440952D01*
X89449809Y-151440952D02*
X89306952Y-151440952D01*
X89306952Y-151440952D02*
X89211714Y-151488571D01*
X89211714Y-151488571D02*
X89164095Y-151583809D01*
X89164095Y-151583809D02*
X89164095Y-152107619D01*
X120300761Y-109113619D02*
X119967428Y-110113619D01*
X119967428Y-110113619D02*
X119634095Y-109113619D01*
X118729333Y-110018380D02*
X118776952Y-110066000D01*
X118776952Y-110066000D02*
X118919809Y-110113619D01*
X118919809Y-110113619D02*
X119015047Y-110113619D01*
X119015047Y-110113619D02*
X119157904Y-110066000D01*
X119157904Y-110066000D02*
X119253142Y-109970761D01*
X119253142Y-109970761D02*
X119300761Y-109875523D01*
X119300761Y-109875523D02*
X119348380Y-109685047D01*
X119348380Y-109685047D02*
X119348380Y-109542190D01*
X119348380Y-109542190D02*
X119300761Y-109351714D01*
X119300761Y-109351714D02*
X119253142Y-109256476D01*
X119253142Y-109256476D02*
X119157904Y-109161238D01*
X119157904Y-109161238D02*
X119015047Y-109113619D01*
X119015047Y-109113619D02*
X118919809Y-109113619D01*
X118919809Y-109113619D02*
X118776952Y-109161238D01*
X118776952Y-109161238D02*
X118729333Y-109208857D01*
X117729333Y-110018380D02*
X117776952Y-110066000D01*
X117776952Y-110066000D02*
X117919809Y-110113619D01*
X117919809Y-110113619D02*
X118015047Y-110113619D01*
X118015047Y-110113619D02*
X118157904Y-110066000D01*
X118157904Y-110066000D02*
X118253142Y-109970761D01*
X118253142Y-109970761D02*
X118300761Y-109875523D01*
X118300761Y-109875523D02*
X118348380Y-109685047D01*
X118348380Y-109685047D02*
X118348380Y-109542190D01*
X118348380Y-109542190D02*
X118300761Y-109351714D01*
X118300761Y-109351714D02*
X118253142Y-109256476D01*
X118253142Y-109256476D02*
X118157904Y-109161238D01*
X118157904Y-109161238D02*
X118015047Y-109113619D01*
X118015047Y-109113619D02*
X117919809Y-109113619D01*
X117919809Y-109113619D02*
X117776952Y-109161238D01*
X117776952Y-109161238D02*
X117729333Y-109208857D01*
X106276000Y-154107904D02*
X105799810Y-154107904D01*
X106371238Y-154393619D02*
X106037905Y-153393619D01*
X106037905Y-153393619D02*
X105704572Y-154393619D01*
X104942667Y-153726952D02*
X104942667Y-154393619D01*
X105371238Y-153726952D02*
X105371238Y-154250761D01*
X105371238Y-154250761D02*
X105323619Y-154346000D01*
X105323619Y-154346000D02*
X105228381Y-154393619D01*
X105228381Y-154393619D02*
X105085524Y-154393619D01*
X105085524Y-154393619D02*
X104990286Y-154346000D01*
X104990286Y-154346000D02*
X104942667Y-154298380D01*
X104037905Y-154393619D02*
X104037905Y-153393619D01*
X104037905Y-154346000D02*
X104133143Y-154393619D01*
X104133143Y-154393619D02*
X104323619Y-154393619D01*
X104323619Y-154393619D02*
X104418857Y-154346000D01*
X104418857Y-154346000D02*
X104466476Y-154298380D01*
X104466476Y-154298380D02*
X104514095Y-154203142D01*
X104514095Y-154203142D02*
X104514095Y-153917428D01*
X104514095Y-153917428D02*
X104466476Y-153822190D01*
X104466476Y-153822190D02*
X104418857Y-153774571D01*
X104418857Y-153774571D02*
X104323619Y-153726952D01*
X104323619Y-153726952D02*
X104133143Y-153726952D01*
X104133143Y-153726952D02*
X104037905Y-153774571D01*
X103561714Y-154393619D02*
X103561714Y-153726952D01*
X103561714Y-153393619D02*
X103609333Y-153441238D01*
X103609333Y-153441238D02*
X103561714Y-153488857D01*
X103561714Y-153488857D02*
X103514095Y-153441238D01*
X103514095Y-153441238D02*
X103561714Y-153393619D01*
X103561714Y-153393619D02*
X103561714Y-153488857D01*
X102942667Y-154393619D02*
X103037905Y-154346000D01*
X103037905Y-154346000D02*
X103085524Y-154298380D01*
X103085524Y-154298380D02*
X103133143Y-154203142D01*
X103133143Y-154203142D02*
X103133143Y-153917428D01*
X103133143Y-153917428D02*
X103085524Y-153822190D01*
X103085524Y-153822190D02*
X103037905Y-153774571D01*
X103037905Y-153774571D02*
X102942667Y-153726952D01*
X102942667Y-153726952D02*
X102799810Y-153726952D01*
X102799810Y-153726952D02*
X102704572Y-153774571D01*
X102704572Y-153774571D02*
X102656953Y-153822190D01*
X102656953Y-153822190D02*
X102609334Y-153917428D01*
X102609334Y-153917428D02*
X102609334Y-154203142D01*
X102609334Y-154203142D02*
X102656953Y-154298380D01*
X102656953Y-154298380D02*
X102704572Y-154346000D01*
X102704572Y-154346000D02*
X102799810Y-154393619D01*
X102799810Y-154393619D02*
X102942667Y-154393619D01*
X102418858Y-154488857D02*
X101656953Y-154488857D01*
X101276000Y-154393619D02*
X101371238Y-154346000D01*
X101371238Y-154346000D02*
X101418857Y-154298380D01*
X101418857Y-154298380D02*
X101466476Y-154203142D01*
X101466476Y-154203142D02*
X101466476Y-153917428D01*
X101466476Y-153917428D02*
X101418857Y-153822190D01*
X101418857Y-153822190D02*
X101371238Y-153774571D01*
X101371238Y-153774571D02*
X101276000Y-153726952D01*
X101276000Y-153726952D02*
X101133143Y-153726952D01*
X101133143Y-153726952D02*
X101037905Y-153774571D01*
X101037905Y-153774571D02*
X100990286Y-153822190D01*
X100990286Y-153822190D02*
X100942667Y-153917428D01*
X100942667Y-153917428D02*
X100942667Y-154203142D01*
X100942667Y-154203142D02*
X100990286Y-154298380D01*
X100990286Y-154298380D02*
X101037905Y-154346000D01*
X101037905Y-154346000D02*
X101133143Y-154393619D01*
X101133143Y-154393619D02*
X101276000Y-154393619D01*
X100085524Y-153726952D02*
X100085524Y-154393619D01*
X100514095Y-153726952D02*
X100514095Y-154250761D01*
X100514095Y-154250761D02*
X100466476Y-154346000D01*
X100466476Y-154346000D02*
X100371238Y-154393619D01*
X100371238Y-154393619D02*
X100228381Y-154393619D01*
X100228381Y-154393619D02*
X100133143Y-154346000D01*
X100133143Y-154346000D02*
X100085524Y-154298380D01*
X99752190Y-153726952D02*
X99371238Y-153726952D01*
X99609333Y-153393619D02*
X99609333Y-154250761D01*
X99609333Y-154250761D02*
X99561714Y-154346000D01*
X99561714Y-154346000D02*
X99466476Y-154393619D01*
X99466476Y-154393619D02*
X99371238Y-154393619D01*
X92211714Y-149313619D02*
X92687904Y-149313619D01*
X92687904Y-149313619D02*
X92687904Y-148313619D01*
X91402190Y-149313619D02*
X91878380Y-149313619D01*
X91878380Y-149313619D02*
X91878380Y-148313619D01*
X91306952Y-149408857D02*
X90545047Y-149408857D01*
X90306951Y-149313619D02*
X90306951Y-148646952D01*
X90306951Y-148313619D02*
X90354570Y-148361238D01*
X90354570Y-148361238D02*
X90306951Y-148408857D01*
X90306951Y-148408857D02*
X90259332Y-148361238D01*
X90259332Y-148361238D02*
X90306951Y-148313619D01*
X90306951Y-148313619D02*
X90306951Y-148408857D01*
X89830761Y-148646952D02*
X89830761Y-149313619D01*
X89830761Y-148742190D02*
X89783142Y-148694571D01*
X89783142Y-148694571D02*
X89687904Y-148646952D01*
X89687904Y-148646952D02*
X89545047Y-148646952D01*
X89545047Y-148646952D02*
X89449809Y-148694571D01*
X89449809Y-148694571D02*
X89402190Y-148789809D01*
X89402190Y-148789809D02*
X89402190Y-149313619D01*
X119634095Y-111701238D02*
X119729333Y-111653619D01*
X119729333Y-111653619D02*
X119872190Y-111653619D01*
X119872190Y-111653619D02*
X120015047Y-111701238D01*
X120015047Y-111701238D02*
X120110285Y-111796476D01*
X120110285Y-111796476D02*
X120157904Y-111891714D01*
X120157904Y-111891714D02*
X120205523Y-112082190D01*
X120205523Y-112082190D02*
X120205523Y-112225047D01*
X120205523Y-112225047D02*
X120157904Y-112415523D01*
X120157904Y-112415523D02*
X120110285Y-112510761D01*
X120110285Y-112510761D02*
X120015047Y-112606000D01*
X120015047Y-112606000D02*
X119872190Y-112653619D01*
X119872190Y-112653619D02*
X119776952Y-112653619D01*
X119776952Y-112653619D02*
X119634095Y-112606000D01*
X119634095Y-112606000D02*
X119586476Y-112558380D01*
X119586476Y-112558380D02*
X119586476Y-112225047D01*
X119586476Y-112225047D02*
X119776952Y-112225047D01*
X119157904Y-112653619D02*
X119157904Y-111653619D01*
X119157904Y-111653619D02*
X118586476Y-112653619D01*
X118586476Y-112653619D02*
X118586476Y-111653619D01*
X118110285Y-112653619D02*
X118110285Y-111653619D01*
X118110285Y-111653619D02*
X117872190Y-111653619D01*
X117872190Y-111653619D02*
X117729333Y-111701238D01*
X117729333Y-111701238D02*
X117634095Y-111796476D01*
X117634095Y-111796476D02*
X117586476Y-111891714D01*
X117586476Y-111891714D02*
X117538857Y-112082190D01*
X117538857Y-112082190D02*
X117538857Y-112225047D01*
X117538857Y-112225047D02*
X117586476Y-112415523D01*
X117586476Y-112415523D02*
X117634095Y-112510761D01*
X117634095Y-112510761D02*
X117729333Y-112606000D01*
X117729333Y-112606000D02*
X117872190Y-112653619D01*
X117872190Y-112653619D02*
X118110285Y-112653619D01*
X117110285Y-112653619D02*
X117110285Y-111653619D01*
X117110285Y-111653619D02*
X116872190Y-111653619D01*
X116872190Y-111653619D02*
X116729333Y-111701238D01*
X116729333Y-111701238D02*
X116634095Y-111796476D01*
X116634095Y-111796476D02*
X116586476Y-111891714D01*
X116586476Y-111891714D02*
X116538857Y-112082190D01*
X116538857Y-112082190D02*
X116538857Y-112225047D01*
X116538857Y-112225047D02*
X116586476Y-112415523D01*
X116586476Y-112415523D02*
X116634095Y-112510761D01*
X116634095Y-112510761D02*
X116729333Y-112606000D01*
X116729333Y-112606000D02*
X116872190Y-112653619D01*
X116872190Y-112653619D02*
X117110285Y-112653619D01*
X119634095Y-114241238D02*
X119729333Y-114193619D01*
X119729333Y-114193619D02*
X119872190Y-114193619D01*
X119872190Y-114193619D02*
X120015047Y-114241238D01*
X120015047Y-114241238D02*
X120110285Y-114336476D01*
X120110285Y-114336476D02*
X120157904Y-114431714D01*
X120157904Y-114431714D02*
X120205523Y-114622190D01*
X120205523Y-114622190D02*
X120205523Y-114765047D01*
X120205523Y-114765047D02*
X120157904Y-114955523D01*
X120157904Y-114955523D02*
X120110285Y-115050761D01*
X120110285Y-115050761D02*
X120015047Y-115146000D01*
X120015047Y-115146000D02*
X119872190Y-115193619D01*
X119872190Y-115193619D02*
X119776952Y-115193619D01*
X119776952Y-115193619D02*
X119634095Y-115146000D01*
X119634095Y-115146000D02*
X119586476Y-115098380D01*
X119586476Y-115098380D02*
X119586476Y-114765047D01*
X119586476Y-114765047D02*
X119776952Y-114765047D01*
X119157904Y-115193619D02*
X119157904Y-114193619D01*
X119157904Y-114193619D02*
X118586476Y-115193619D01*
X118586476Y-115193619D02*
X118586476Y-114193619D01*
X118110285Y-115193619D02*
X118110285Y-114193619D01*
X118110285Y-114193619D02*
X117872190Y-114193619D01*
X117872190Y-114193619D02*
X117729333Y-114241238D01*
X117729333Y-114241238D02*
X117634095Y-114336476D01*
X117634095Y-114336476D02*
X117586476Y-114431714D01*
X117586476Y-114431714D02*
X117538857Y-114622190D01*
X117538857Y-114622190D02*
X117538857Y-114765047D01*
X117538857Y-114765047D02*
X117586476Y-114955523D01*
X117586476Y-114955523D02*
X117634095Y-115050761D01*
X117634095Y-115050761D02*
X117729333Y-115146000D01*
X117729333Y-115146000D02*
X117872190Y-115193619D01*
X117872190Y-115193619D02*
X118110285Y-115193619D01*
X117157904Y-114907904D02*
X116681714Y-114907904D01*
X117253142Y-115193619D02*
X116919809Y-114193619D01*
X116919809Y-114193619D02*
X116586476Y-115193619D01*
X103466477Y-151758380D02*
X103514096Y-151806000D01*
X103514096Y-151806000D02*
X103656953Y-151853619D01*
X103656953Y-151853619D02*
X103752191Y-151853619D01*
X103752191Y-151853619D02*
X103895048Y-151806000D01*
X103895048Y-151806000D02*
X103990286Y-151710761D01*
X103990286Y-151710761D02*
X104037905Y-151615523D01*
X104037905Y-151615523D02*
X104085524Y-151425047D01*
X104085524Y-151425047D02*
X104085524Y-151282190D01*
X104085524Y-151282190D02*
X104037905Y-151091714D01*
X104037905Y-151091714D02*
X103990286Y-150996476D01*
X103990286Y-150996476D02*
X103895048Y-150901238D01*
X103895048Y-150901238D02*
X103752191Y-150853619D01*
X103752191Y-150853619D02*
X103656953Y-150853619D01*
X103656953Y-150853619D02*
X103514096Y-150901238D01*
X103514096Y-150901238D02*
X103466477Y-150948857D01*
X103180762Y-150853619D02*
X102847429Y-151853619D01*
X102847429Y-151853619D02*
X102514096Y-150853619D01*
X102418858Y-151948857D02*
X101656953Y-151948857D01*
X101276000Y-151853619D02*
X101371238Y-151806000D01*
X101371238Y-151806000D02*
X101418857Y-151758380D01*
X101418857Y-151758380D02*
X101466476Y-151663142D01*
X101466476Y-151663142D02*
X101466476Y-151377428D01*
X101466476Y-151377428D02*
X101418857Y-151282190D01*
X101418857Y-151282190D02*
X101371238Y-151234571D01*
X101371238Y-151234571D02*
X101276000Y-151186952D01*
X101276000Y-151186952D02*
X101133143Y-151186952D01*
X101133143Y-151186952D02*
X101037905Y-151234571D01*
X101037905Y-151234571D02*
X100990286Y-151282190D01*
X100990286Y-151282190D02*
X100942667Y-151377428D01*
X100942667Y-151377428D02*
X100942667Y-151663142D01*
X100942667Y-151663142D02*
X100990286Y-151758380D01*
X100990286Y-151758380D02*
X101037905Y-151806000D01*
X101037905Y-151806000D02*
X101133143Y-151853619D01*
X101133143Y-151853619D02*
X101276000Y-151853619D01*
X100085524Y-151186952D02*
X100085524Y-151853619D01*
X100514095Y-151186952D02*
X100514095Y-151710761D01*
X100514095Y-151710761D02*
X100466476Y-151806000D01*
X100466476Y-151806000D02*
X100371238Y-151853619D01*
X100371238Y-151853619D02*
X100228381Y-151853619D01*
X100228381Y-151853619D02*
X100133143Y-151806000D01*
X100133143Y-151806000D02*
X100085524Y-151758380D01*
X99752190Y-151186952D02*
X99371238Y-151186952D01*
X99609333Y-150853619D02*
X99609333Y-151710761D01*
X99609333Y-151710761D02*
X99561714Y-151806000D01*
X99561714Y-151806000D02*
X99466476Y-151853619D01*
X99466476Y-151853619D02*
X99371238Y-151853619D01*
X124074380Y-113553904D02*
X125074380Y-113553904D01*
X125074380Y-113553904D02*
X125074380Y-113172952D01*
X125074380Y-113172952D02*
X125026761Y-113077714D01*
X125026761Y-113077714D02*
X124979142Y-113030095D01*
X124979142Y-113030095D02*
X124883904Y-112982476D01*
X124883904Y-112982476D02*
X124741047Y-112982476D01*
X124741047Y-112982476D02*
X124645809Y-113030095D01*
X124645809Y-113030095D02*
X124598190Y-113077714D01*
X124598190Y-113077714D02*
X124550571Y-113172952D01*
X124550571Y-113172952D02*
X124550571Y-113553904D01*
X124074380Y-112411047D02*
X124122000Y-112506285D01*
X124122000Y-112506285D02*
X124169619Y-112553904D01*
X124169619Y-112553904D02*
X124264857Y-112601523D01*
X124264857Y-112601523D02*
X124550571Y-112601523D01*
X124550571Y-112601523D02*
X124645809Y-112553904D01*
X124645809Y-112553904D02*
X124693428Y-112506285D01*
X124693428Y-112506285D02*
X124741047Y-112411047D01*
X124741047Y-112411047D02*
X124741047Y-112268190D01*
X124741047Y-112268190D02*
X124693428Y-112172952D01*
X124693428Y-112172952D02*
X124645809Y-112125333D01*
X124645809Y-112125333D02*
X124550571Y-112077714D01*
X124550571Y-112077714D02*
X124264857Y-112077714D01*
X124264857Y-112077714D02*
X124169619Y-112125333D01*
X124169619Y-112125333D02*
X124122000Y-112172952D01*
X124122000Y-112172952D02*
X124074380Y-112268190D01*
X124074380Y-112268190D02*
X124074380Y-112411047D01*
X124741047Y-111744380D02*
X124074380Y-111553904D01*
X124074380Y-111553904D02*
X124550571Y-111363428D01*
X124550571Y-111363428D02*
X124074380Y-111172952D01*
X124074380Y-111172952D02*
X124741047Y-110982476D01*
X124122000Y-110220571D02*
X124074380Y-110315809D01*
X124074380Y-110315809D02*
X124074380Y-110506285D01*
X124074380Y-110506285D02*
X124122000Y-110601523D01*
X124122000Y-110601523D02*
X124217238Y-110649142D01*
X124217238Y-110649142D02*
X124598190Y-110649142D01*
X124598190Y-110649142D02*
X124693428Y-110601523D01*
X124693428Y-110601523D02*
X124741047Y-110506285D01*
X124741047Y-110506285D02*
X124741047Y-110315809D01*
X124741047Y-110315809D02*
X124693428Y-110220571D01*
X124693428Y-110220571D02*
X124598190Y-110172952D01*
X124598190Y-110172952D02*
X124502952Y-110172952D01*
X124502952Y-110172952D02*
X124407714Y-110649142D01*
X124074380Y-109744380D02*
X124741047Y-109744380D01*
X124550571Y-109744380D02*
X124645809Y-109696761D01*
X124645809Y-109696761D02*
X124693428Y-109649142D01*
X124693428Y-109649142D02*
X124741047Y-109553904D01*
X124741047Y-109553904D02*
X124741047Y-109458666D01*
X124074380Y-103901904D02*
X125074380Y-103901904D01*
X124979142Y-103473333D02*
X125026761Y-103425714D01*
X125026761Y-103425714D02*
X125074380Y-103330476D01*
X125074380Y-103330476D02*
X125074380Y-103092381D01*
X125074380Y-103092381D02*
X125026761Y-102997143D01*
X125026761Y-102997143D02*
X124979142Y-102949524D01*
X124979142Y-102949524D02*
X124883904Y-102901905D01*
X124883904Y-102901905D02*
X124788666Y-102901905D01*
X124788666Y-102901905D02*
X124645809Y-102949524D01*
X124645809Y-102949524D02*
X124074380Y-103520952D01*
X124074380Y-103520952D02*
X124074380Y-102901905D01*
X124169619Y-101901905D02*
X124122000Y-101949524D01*
X124122000Y-101949524D02*
X124074380Y-102092381D01*
X124074380Y-102092381D02*
X124074380Y-102187619D01*
X124074380Y-102187619D02*
X124122000Y-102330476D01*
X124122000Y-102330476D02*
X124217238Y-102425714D01*
X124217238Y-102425714D02*
X124312476Y-102473333D01*
X124312476Y-102473333D02*
X124502952Y-102520952D01*
X124502952Y-102520952D02*
X124645809Y-102520952D01*
X124645809Y-102520952D02*
X124836285Y-102473333D01*
X124836285Y-102473333D02*
X124931523Y-102425714D01*
X124931523Y-102425714D02*
X125026761Y-102330476D01*
X125026761Y-102330476D02*
X125074380Y-102187619D01*
X125074380Y-102187619D02*
X125074380Y-102092381D01*
X125074380Y-102092381D02*
X125026761Y-101949524D01*
X125026761Y-101949524D02*
X124979142Y-101901905D01*
X125122000Y-100759048D02*
X123836285Y-101616190D01*
X124360095Y-100473333D02*
X124360095Y-99997143D01*
X124074380Y-100568571D02*
X125074380Y-100235238D01*
X125074380Y-100235238D02*
X124074380Y-99901905D01*
X124074380Y-99568571D02*
X125074380Y-99568571D01*
X125074380Y-99568571D02*
X125074380Y-99330476D01*
X125074380Y-99330476D02*
X125026761Y-99187619D01*
X125026761Y-99187619D02*
X124931523Y-99092381D01*
X124931523Y-99092381D02*
X124836285Y-99044762D01*
X124836285Y-99044762D02*
X124645809Y-98997143D01*
X124645809Y-98997143D02*
X124502952Y-98997143D01*
X124502952Y-98997143D02*
X124312476Y-99044762D01*
X124312476Y-99044762D02*
X124217238Y-99092381D01*
X124217238Y-99092381D02*
X124122000Y-99187619D01*
X124122000Y-99187619D02*
X124074380Y-99330476D01*
X124074380Y-99330476D02*
X124074380Y-99568571D01*
X124169619Y-97997143D02*
X124122000Y-98044762D01*
X124122000Y-98044762D02*
X124074380Y-98187619D01*
X124074380Y-98187619D02*
X124074380Y-98282857D01*
X124074380Y-98282857D02*
X124122000Y-98425714D01*
X124122000Y-98425714D02*
X124217238Y-98520952D01*
X124217238Y-98520952D02*
X124312476Y-98568571D01*
X124312476Y-98568571D02*
X124502952Y-98616190D01*
X124502952Y-98616190D02*
X124645809Y-98616190D01*
X124645809Y-98616190D02*
X124836285Y-98568571D01*
X124836285Y-98568571D02*
X124931523Y-98520952D01*
X124931523Y-98520952D02*
X125026761Y-98425714D01*
X125026761Y-98425714D02*
X125074380Y-98282857D01*
X125074380Y-98282857D02*
X125074380Y-98187619D01*
X125074380Y-98187619D02*
X125026761Y-98044762D01*
X125026761Y-98044762D02*
X124979142Y-97997143D01*
X62134285Y-98937619D02*
X62134285Y-97937619D01*
X62134285Y-97937619D02*
X61800952Y-98651904D01*
X61800952Y-98651904D02*
X61467619Y-97937619D01*
X61467619Y-97937619D02*
X61467619Y-98937619D01*
X60420000Y-98842380D02*
X60467619Y-98890000D01*
X60467619Y-98890000D02*
X60610476Y-98937619D01*
X60610476Y-98937619D02*
X60705714Y-98937619D01*
X60705714Y-98937619D02*
X60848571Y-98890000D01*
X60848571Y-98890000D02*
X60943809Y-98794761D01*
X60943809Y-98794761D02*
X60991428Y-98699523D01*
X60991428Y-98699523D02*
X61039047Y-98509047D01*
X61039047Y-98509047D02*
X61039047Y-98366190D01*
X61039047Y-98366190D02*
X60991428Y-98175714D01*
X60991428Y-98175714D02*
X60943809Y-98080476D01*
X60943809Y-98080476D02*
X60848571Y-97985238D01*
X60848571Y-97985238D02*
X60705714Y-97937619D01*
X60705714Y-97937619D02*
X60610476Y-97937619D01*
X60610476Y-97937619D02*
X60467619Y-97985238D01*
X60467619Y-97985238D02*
X60420000Y-98032857D01*
X59515238Y-98937619D02*
X59991428Y-98937619D01*
X59991428Y-98937619D02*
X59991428Y-97937619D01*
X58610476Y-98937619D02*
X58943809Y-98461428D01*
X59181904Y-98937619D02*
X59181904Y-97937619D01*
X59181904Y-97937619D02*
X58800952Y-97937619D01*
X58800952Y-97937619D02*
X58705714Y-97985238D01*
X58705714Y-97985238D02*
X58658095Y-98032857D01*
X58658095Y-98032857D02*
X58610476Y-98128095D01*
X58610476Y-98128095D02*
X58610476Y-98270952D01*
X58610476Y-98270952D02*
X58658095Y-98366190D01*
X58658095Y-98366190D02*
X58705714Y-98413809D01*
X58705714Y-98413809D02*
X58800952Y-98461428D01*
X58800952Y-98461428D02*
X59181904Y-98461428D01*
X60705714Y-103065238D02*
X60800952Y-103017619D01*
X60800952Y-103017619D02*
X60943809Y-103017619D01*
X60943809Y-103017619D02*
X61086666Y-103065238D01*
X61086666Y-103065238D02*
X61181904Y-103160476D01*
X61181904Y-103160476D02*
X61229523Y-103255714D01*
X61229523Y-103255714D02*
X61277142Y-103446190D01*
X61277142Y-103446190D02*
X61277142Y-103589047D01*
X61277142Y-103589047D02*
X61229523Y-103779523D01*
X61229523Y-103779523D02*
X61181904Y-103874761D01*
X61181904Y-103874761D02*
X61086666Y-103970000D01*
X61086666Y-103970000D02*
X60943809Y-104017619D01*
X60943809Y-104017619D02*
X60848571Y-104017619D01*
X60848571Y-104017619D02*
X60705714Y-103970000D01*
X60705714Y-103970000D02*
X60658095Y-103922380D01*
X60658095Y-103922380D02*
X60658095Y-103589047D01*
X60658095Y-103589047D02*
X60848571Y-103589047D01*
X60229523Y-104017619D02*
X60229523Y-103017619D01*
X60229523Y-103017619D02*
X59658095Y-104017619D01*
X59658095Y-104017619D02*
X59658095Y-103017619D01*
X59181904Y-104017619D02*
X59181904Y-103017619D01*
X59181904Y-103017619D02*
X58943809Y-103017619D01*
X58943809Y-103017619D02*
X58800952Y-103065238D01*
X58800952Y-103065238D02*
X58705714Y-103160476D01*
X58705714Y-103160476D02*
X58658095Y-103255714D01*
X58658095Y-103255714D02*
X58610476Y-103446190D01*
X58610476Y-103446190D02*
X58610476Y-103589047D01*
X58610476Y-103589047D02*
X58658095Y-103779523D01*
X58658095Y-103779523D02*
X58705714Y-103874761D01*
X58705714Y-103874761D02*
X58800952Y-103970000D01*
X58800952Y-103970000D02*
X58943809Y-104017619D01*
X58943809Y-104017619D02*
X59181904Y-104017619D01*
X103323620Y-149313619D02*
X103799810Y-149313619D01*
X103799810Y-149313619D02*
X103799810Y-148313619D01*
X102514096Y-149313619D02*
X102990286Y-149313619D01*
X102990286Y-149313619D02*
X102990286Y-148313619D01*
X102418858Y-149408857D02*
X101656953Y-149408857D01*
X101276000Y-149313619D02*
X101371238Y-149266000D01*
X101371238Y-149266000D02*
X101418857Y-149218380D01*
X101418857Y-149218380D02*
X101466476Y-149123142D01*
X101466476Y-149123142D02*
X101466476Y-148837428D01*
X101466476Y-148837428D02*
X101418857Y-148742190D01*
X101418857Y-148742190D02*
X101371238Y-148694571D01*
X101371238Y-148694571D02*
X101276000Y-148646952D01*
X101276000Y-148646952D02*
X101133143Y-148646952D01*
X101133143Y-148646952D02*
X101037905Y-148694571D01*
X101037905Y-148694571D02*
X100990286Y-148742190D01*
X100990286Y-148742190D02*
X100942667Y-148837428D01*
X100942667Y-148837428D02*
X100942667Y-149123142D01*
X100942667Y-149123142D02*
X100990286Y-149218380D01*
X100990286Y-149218380D02*
X101037905Y-149266000D01*
X101037905Y-149266000D02*
X101133143Y-149313619D01*
X101133143Y-149313619D02*
X101276000Y-149313619D01*
X100085524Y-148646952D02*
X100085524Y-149313619D01*
X100514095Y-148646952D02*
X100514095Y-149170761D01*
X100514095Y-149170761D02*
X100466476Y-149266000D01*
X100466476Y-149266000D02*
X100371238Y-149313619D01*
X100371238Y-149313619D02*
X100228381Y-149313619D01*
X100228381Y-149313619D02*
X100133143Y-149266000D01*
X100133143Y-149266000D02*
X100085524Y-149218380D01*
X99752190Y-148646952D02*
X99371238Y-148646952D01*
X99609333Y-148313619D02*
X99609333Y-149170761D01*
X99609333Y-149170761D02*
X99561714Y-149266000D01*
X99561714Y-149266000D02*
X99466476Y-149313619D01*
X99466476Y-149313619D02*
X99371238Y-149313619D01*
X106657904Y-146265619D02*
X106657904Y-145265619D01*
X106181714Y-145598952D02*
X106181714Y-146265619D01*
X106181714Y-145694190D02*
X106134095Y-145646571D01*
X106134095Y-145646571D02*
X106038857Y-145598952D01*
X106038857Y-145598952D02*
X105896000Y-145598952D01*
X105896000Y-145598952D02*
X105800762Y-145646571D01*
X105800762Y-145646571D02*
X105753143Y-145741809D01*
X105753143Y-145741809D02*
X105753143Y-146265619D01*
X105276952Y-145598952D02*
X105276952Y-146598952D01*
X105276952Y-145646571D02*
X105181714Y-145598952D01*
X105181714Y-145598952D02*
X104991238Y-145598952D01*
X104991238Y-145598952D02*
X104896000Y-145646571D01*
X104896000Y-145646571D02*
X104848381Y-145694190D01*
X104848381Y-145694190D02*
X104800762Y-145789428D01*
X104800762Y-145789428D02*
X104800762Y-146075142D01*
X104800762Y-146075142D02*
X104848381Y-146170380D01*
X104848381Y-146170380D02*
X104896000Y-146218000D01*
X104896000Y-146218000D02*
X104991238Y-146265619D01*
X104991238Y-146265619D02*
X105181714Y-146265619D01*
X105181714Y-146265619D02*
X105276952Y-146218000D01*
X103943619Y-145598952D02*
X103943619Y-146265619D01*
X104372190Y-145598952D02*
X104372190Y-146122761D01*
X104372190Y-146122761D02*
X104324571Y-146218000D01*
X104324571Y-146218000D02*
X104229333Y-146265619D01*
X104229333Y-146265619D02*
X104086476Y-146265619D01*
X104086476Y-146265619D02*
X103991238Y-146218000D01*
X103991238Y-146218000D02*
X103943619Y-146170380D01*
X103610285Y-145598952D02*
X103229333Y-145598952D01*
X103467428Y-145265619D02*
X103467428Y-146122761D01*
X103467428Y-146122761D02*
X103419809Y-146218000D01*
X103419809Y-146218000D02*
X103324571Y-146265619D01*
X103324571Y-146265619D02*
X103229333Y-146265619D01*
X102181714Y-145218000D02*
X103038856Y-146503714D01*
X101657904Y-145265619D02*
X101467428Y-145265619D01*
X101467428Y-145265619D02*
X101372190Y-145313238D01*
X101372190Y-145313238D02*
X101276952Y-145408476D01*
X101276952Y-145408476D02*
X101229333Y-145598952D01*
X101229333Y-145598952D02*
X101229333Y-145932285D01*
X101229333Y-145932285D02*
X101276952Y-146122761D01*
X101276952Y-146122761D02*
X101372190Y-146218000D01*
X101372190Y-146218000D02*
X101467428Y-146265619D01*
X101467428Y-146265619D02*
X101657904Y-146265619D01*
X101657904Y-146265619D02*
X101753142Y-146218000D01*
X101753142Y-146218000D02*
X101848380Y-146122761D01*
X101848380Y-146122761D02*
X101895999Y-145932285D01*
X101895999Y-145932285D02*
X101895999Y-145598952D01*
X101895999Y-145598952D02*
X101848380Y-145408476D01*
X101848380Y-145408476D02*
X101753142Y-145313238D01*
X101753142Y-145313238D02*
X101657904Y-145265619D01*
X100372190Y-145598952D02*
X100372190Y-146265619D01*
X100800761Y-145598952D02*
X100800761Y-146122761D01*
X100800761Y-146122761D02*
X100753142Y-146218000D01*
X100753142Y-146218000D02*
X100657904Y-146265619D01*
X100657904Y-146265619D02*
X100515047Y-146265619D01*
X100515047Y-146265619D02*
X100419809Y-146218000D01*
X100419809Y-146218000D02*
X100372190Y-146170380D01*
X100038856Y-145598952D02*
X99657904Y-145598952D01*
X99895999Y-145265619D02*
X99895999Y-146122761D01*
X99895999Y-146122761D02*
X99848380Y-146218000D01*
X99848380Y-146218000D02*
X99753142Y-146265619D01*
X99753142Y-146265619D02*
X99657904Y-146265619D01*
X99324570Y-145598952D02*
X99324570Y-146598952D01*
X99324570Y-145646571D02*
X99229332Y-145598952D01*
X99229332Y-145598952D02*
X99038856Y-145598952D01*
X99038856Y-145598952D02*
X98943618Y-145646571D01*
X98943618Y-145646571D02*
X98895999Y-145694190D01*
X98895999Y-145694190D02*
X98848380Y-145789428D01*
X98848380Y-145789428D02*
X98848380Y-146075142D01*
X98848380Y-146075142D02*
X98895999Y-146170380D01*
X98895999Y-146170380D02*
X98943618Y-146218000D01*
X98943618Y-146218000D02*
X99038856Y-146265619D01*
X99038856Y-146265619D02*
X99229332Y-146265619D01*
X99229332Y-146265619D02*
X99324570Y-146218000D01*
X97991237Y-145598952D02*
X97991237Y-146265619D01*
X98419808Y-145598952D02*
X98419808Y-146122761D01*
X98419808Y-146122761D02*
X98372189Y-146218000D01*
X98372189Y-146218000D02*
X98276951Y-146265619D01*
X98276951Y-146265619D02*
X98134094Y-146265619D01*
X98134094Y-146265619D02*
X98038856Y-146218000D01*
X98038856Y-146218000D02*
X97991237Y-146170380D01*
X97657903Y-145598952D02*
X97276951Y-145598952D01*
X97515046Y-145265619D02*
X97515046Y-146122761D01*
X97515046Y-146122761D02*
X97467427Y-146218000D01*
X97467427Y-146218000D02*
X97372189Y-146265619D01*
X97372189Y-146265619D02*
X97276951Y-146265619D01*
X95895998Y-145265619D02*
X95895998Y-145979904D01*
X95895998Y-145979904D02*
X95943617Y-146122761D01*
X95943617Y-146122761D02*
X96038855Y-146218000D01*
X96038855Y-146218000D02*
X96181712Y-146265619D01*
X96181712Y-146265619D02*
X96276950Y-146265619D01*
X94991236Y-145598952D02*
X94991236Y-146265619D01*
X95419807Y-145598952D02*
X95419807Y-146122761D01*
X95419807Y-146122761D02*
X95372188Y-146218000D01*
X95372188Y-146218000D02*
X95276950Y-146265619D01*
X95276950Y-146265619D02*
X95134093Y-146265619D01*
X95134093Y-146265619D02*
X95038855Y-146218000D01*
X95038855Y-146218000D02*
X94991236Y-146170380D01*
X94515045Y-146265619D02*
X94515045Y-145598952D01*
X94515045Y-145694190D02*
X94467426Y-145646571D01*
X94467426Y-145646571D02*
X94372188Y-145598952D01*
X94372188Y-145598952D02*
X94229331Y-145598952D01*
X94229331Y-145598952D02*
X94134093Y-145646571D01*
X94134093Y-145646571D02*
X94086474Y-145741809D01*
X94086474Y-145741809D02*
X94086474Y-146265619D01*
X94086474Y-145741809D02*
X94038855Y-145646571D01*
X94038855Y-145646571D02*
X93943617Y-145598952D01*
X93943617Y-145598952D02*
X93800760Y-145598952D01*
X93800760Y-145598952D02*
X93705521Y-145646571D01*
X93705521Y-145646571D02*
X93657902Y-145741809D01*
X93657902Y-145741809D02*
X93657902Y-146265619D01*
X93181712Y-145598952D02*
X93181712Y-146598952D01*
X93181712Y-145646571D02*
X93086474Y-145598952D01*
X93086474Y-145598952D02*
X92895998Y-145598952D01*
X92895998Y-145598952D02*
X92800760Y-145646571D01*
X92800760Y-145646571D02*
X92753141Y-145694190D01*
X92753141Y-145694190D02*
X92705522Y-145789428D01*
X92705522Y-145789428D02*
X92705522Y-146075142D01*
X92705522Y-146075142D02*
X92753141Y-146170380D01*
X92753141Y-146170380D02*
X92800760Y-146218000D01*
X92800760Y-146218000D02*
X92895998Y-146265619D01*
X92895998Y-146265619D02*
X93086474Y-146265619D01*
X93086474Y-146265619D02*
X93181712Y-146218000D01*
X91895998Y-146218000D02*
X91991236Y-146265619D01*
X91991236Y-146265619D02*
X92181712Y-146265619D01*
X92181712Y-146265619D02*
X92276950Y-146218000D01*
X92276950Y-146218000D02*
X92324569Y-146122761D01*
X92324569Y-146122761D02*
X92324569Y-145741809D01*
X92324569Y-145741809D02*
X92276950Y-145646571D01*
X92276950Y-145646571D02*
X92181712Y-145598952D01*
X92181712Y-145598952D02*
X91991236Y-145598952D01*
X91991236Y-145598952D02*
X91895998Y-145646571D01*
X91895998Y-145646571D02*
X91848379Y-145741809D01*
X91848379Y-145741809D02*
X91848379Y-145837047D01*
X91848379Y-145837047D02*
X92324569Y-145932285D01*
X91419807Y-146265619D02*
X91419807Y-145598952D01*
X91419807Y-145789428D02*
X91372188Y-145694190D01*
X91372188Y-145694190D02*
X91324569Y-145646571D01*
X91324569Y-145646571D02*
X91229331Y-145598952D01*
X91229331Y-145598952D02*
X91134093Y-145598952D01*
X90848378Y-146218000D02*
X90753140Y-146265619D01*
X90753140Y-146265619D02*
X90562664Y-146265619D01*
X90562664Y-146265619D02*
X90467426Y-146218000D01*
X90467426Y-146218000D02*
X90419807Y-146122761D01*
X90419807Y-146122761D02*
X90419807Y-146075142D01*
X90419807Y-146075142D02*
X90467426Y-145979904D01*
X90467426Y-145979904D02*
X90562664Y-145932285D01*
X90562664Y-145932285D02*
X90705521Y-145932285D01*
X90705521Y-145932285D02*
X90800759Y-145884666D01*
X90800759Y-145884666D02*
X90848378Y-145789428D01*
X90848378Y-145789428D02*
X90848378Y-145741809D01*
X90848378Y-145741809D02*
X90800759Y-145646571D01*
X90800759Y-145646571D02*
X90705521Y-145598952D01*
X90705521Y-145598952D02*
X90562664Y-145598952D01*
X90562664Y-145598952D02*
X90467426Y-145646571D01*
X92687904Y-154647619D02*
X92687904Y-153647619D01*
X92687904Y-153647619D02*
X92449809Y-153647619D01*
X92449809Y-153647619D02*
X92306952Y-153695238D01*
X92306952Y-153695238D02*
X92211714Y-153790476D01*
X92211714Y-153790476D02*
X92164095Y-153885714D01*
X92164095Y-153885714D02*
X92116476Y-154076190D01*
X92116476Y-154076190D02*
X92116476Y-154219047D01*
X92116476Y-154219047D02*
X92164095Y-154409523D01*
X92164095Y-154409523D02*
X92211714Y-154504761D01*
X92211714Y-154504761D02*
X92306952Y-154600000D01*
X92306952Y-154600000D02*
X92449809Y-154647619D01*
X92449809Y-154647619D02*
X92687904Y-154647619D01*
X91735523Y-154361904D02*
X91259333Y-154361904D01*
X91830761Y-154647619D02*
X91497428Y-153647619D01*
X91497428Y-153647619D02*
X91164095Y-154647619D01*
X90259333Y-154552380D02*
X90306952Y-154600000D01*
X90306952Y-154600000D02*
X90449809Y-154647619D01*
X90449809Y-154647619D02*
X90545047Y-154647619D01*
X90545047Y-154647619D02*
X90687904Y-154600000D01*
X90687904Y-154600000D02*
X90783142Y-154504761D01*
X90783142Y-154504761D02*
X90830761Y-154409523D01*
X90830761Y-154409523D02*
X90878380Y-154219047D01*
X90878380Y-154219047D02*
X90878380Y-154076190D01*
X90878380Y-154076190D02*
X90830761Y-153885714D01*
X90830761Y-153885714D02*
X90783142Y-153790476D01*
X90783142Y-153790476D02*
X90687904Y-153695238D01*
X90687904Y-153695238D02*
X90545047Y-153647619D01*
X90545047Y-153647619D02*
X90449809Y-153647619D01*
X90449809Y-153647619D02*
X90306952Y-153695238D01*
X90306952Y-153695238D02*
X90259333Y-153742857D01*
X90068857Y-154742857D02*
X89306952Y-154742857D01*
X88925999Y-154647619D02*
X89021237Y-154600000D01*
X89021237Y-154600000D02*
X89068856Y-154552380D01*
X89068856Y-154552380D02*
X89116475Y-154457142D01*
X89116475Y-154457142D02*
X89116475Y-154171428D01*
X89116475Y-154171428D02*
X89068856Y-154076190D01*
X89068856Y-154076190D02*
X89021237Y-154028571D01*
X89021237Y-154028571D02*
X88925999Y-153980952D01*
X88925999Y-153980952D02*
X88783142Y-153980952D01*
X88783142Y-153980952D02*
X88687904Y-154028571D01*
X88687904Y-154028571D02*
X88640285Y-154076190D01*
X88640285Y-154076190D02*
X88592666Y-154171428D01*
X88592666Y-154171428D02*
X88592666Y-154457142D01*
X88592666Y-154457142D02*
X88640285Y-154552380D01*
X88640285Y-154552380D02*
X88687904Y-154600000D01*
X88687904Y-154600000D02*
X88783142Y-154647619D01*
X88783142Y-154647619D02*
X88925999Y-154647619D01*
X87735523Y-153980952D02*
X87735523Y-154647619D01*
X88164094Y-153980952D02*
X88164094Y-154504761D01*
X88164094Y-154504761D02*
X88116475Y-154600000D01*
X88116475Y-154600000D02*
X88021237Y-154647619D01*
X88021237Y-154647619D02*
X87878380Y-154647619D01*
X87878380Y-154647619D02*
X87783142Y-154600000D01*
X87783142Y-154600000D02*
X87735523Y-154552380D01*
X87402189Y-153980952D02*
X87021237Y-153980952D01*
X87259332Y-153647619D02*
X87259332Y-154504761D01*
X87259332Y-154504761D02*
X87211713Y-154600000D01*
X87211713Y-154600000D02*
X87116475Y-154647619D01*
X87116475Y-154647619D02*
X87021237Y-154647619D01*
X54233619Y-97266095D02*
X53233619Y-97266095D01*
X53233619Y-97266095D02*
X53233619Y-97647047D01*
X53233619Y-97647047D02*
X53281238Y-97742285D01*
X53281238Y-97742285D02*
X53328857Y-97789904D01*
X53328857Y-97789904D02*
X53424095Y-97837523D01*
X53424095Y-97837523D02*
X53566952Y-97837523D01*
X53566952Y-97837523D02*
X53662190Y-97789904D01*
X53662190Y-97789904D02*
X53709809Y-97742285D01*
X53709809Y-97742285D02*
X53757428Y-97647047D01*
X53757428Y-97647047D02*
X53757428Y-97266095D01*
X54233619Y-98266095D02*
X53566952Y-98266095D01*
X53757428Y-98266095D02*
X53662190Y-98313714D01*
X53662190Y-98313714D02*
X53614571Y-98361333D01*
X53614571Y-98361333D02*
X53566952Y-98456571D01*
X53566952Y-98456571D02*
X53566952Y-98551809D01*
X54233619Y-99028000D02*
X54186000Y-98932762D01*
X54186000Y-98932762D02*
X54138380Y-98885143D01*
X54138380Y-98885143D02*
X54043142Y-98837524D01*
X54043142Y-98837524D02*
X53757428Y-98837524D01*
X53757428Y-98837524D02*
X53662190Y-98885143D01*
X53662190Y-98885143D02*
X53614571Y-98932762D01*
X53614571Y-98932762D02*
X53566952Y-99028000D01*
X53566952Y-99028000D02*
X53566952Y-99170857D01*
X53566952Y-99170857D02*
X53614571Y-99266095D01*
X53614571Y-99266095D02*
X53662190Y-99313714D01*
X53662190Y-99313714D02*
X53757428Y-99361333D01*
X53757428Y-99361333D02*
X54043142Y-99361333D01*
X54043142Y-99361333D02*
X54138380Y-99313714D01*
X54138380Y-99313714D02*
X54186000Y-99266095D01*
X54186000Y-99266095D02*
X54233619Y-99170857D01*
X54233619Y-99170857D02*
X54233619Y-99028000D01*
X53566952Y-100218476D02*
X54376476Y-100218476D01*
X54376476Y-100218476D02*
X54471714Y-100170857D01*
X54471714Y-100170857D02*
X54519333Y-100123238D01*
X54519333Y-100123238D02*
X54566952Y-100028000D01*
X54566952Y-100028000D02*
X54566952Y-99885143D01*
X54566952Y-99885143D02*
X54519333Y-99789905D01*
X54186000Y-100218476D02*
X54233619Y-100123238D01*
X54233619Y-100123238D02*
X54233619Y-99932762D01*
X54233619Y-99932762D02*
X54186000Y-99837524D01*
X54186000Y-99837524D02*
X54138380Y-99789905D01*
X54138380Y-99789905D02*
X54043142Y-99742286D01*
X54043142Y-99742286D02*
X53757428Y-99742286D01*
X53757428Y-99742286D02*
X53662190Y-99789905D01*
X53662190Y-99789905D02*
X53614571Y-99837524D01*
X53614571Y-99837524D02*
X53566952Y-99932762D01*
X53566952Y-99932762D02*
X53566952Y-100123238D01*
X53566952Y-100123238D02*
X53614571Y-100218476D01*
X54233619Y-100694667D02*
X53566952Y-100694667D01*
X53757428Y-100694667D02*
X53662190Y-100742286D01*
X53662190Y-100742286D02*
X53614571Y-100789905D01*
X53614571Y-100789905D02*
X53566952Y-100885143D01*
X53566952Y-100885143D02*
X53566952Y-100980381D01*
X54233619Y-101742286D02*
X53709809Y-101742286D01*
X53709809Y-101742286D02*
X53614571Y-101694667D01*
X53614571Y-101694667D02*
X53566952Y-101599429D01*
X53566952Y-101599429D02*
X53566952Y-101408953D01*
X53566952Y-101408953D02*
X53614571Y-101313715D01*
X54186000Y-101742286D02*
X54233619Y-101647048D01*
X54233619Y-101647048D02*
X54233619Y-101408953D01*
X54233619Y-101408953D02*
X54186000Y-101313715D01*
X54186000Y-101313715D02*
X54090761Y-101266096D01*
X54090761Y-101266096D02*
X53995523Y-101266096D01*
X53995523Y-101266096D02*
X53900285Y-101313715D01*
X53900285Y-101313715D02*
X53852666Y-101408953D01*
X53852666Y-101408953D02*
X53852666Y-101647048D01*
X53852666Y-101647048D02*
X53805047Y-101742286D01*
X54233619Y-102218477D02*
X53566952Y-102218477D01*
X53662190Y-102218477D02*
X53614571Y-102266096D01*
X53614571Y-102266096D02*
X53566952Y-102361334D01*
X53566952Y-102361334D02*
X53566952Y-102504191D01*
X53566952Y-102504191D02*
X53614571Y-102599429D01*
X53614571Y-102599429D02*
X53709809Y-102647048D01*
X53709809Y-102647048D02*
X54233619Y-102647048D01*
X53709809Y-102647048D02*
X53614571Y-102694667D01*
X53614571Y-102694667D02*
X53566952Y-102789905D01*
X53566952Y-102789905D02*
X53566952Y-102932762D01*
X53566952Y-102932762D02*
X53614571Y-103028001D01*
X53614571Y-103028001D02*
X53709809Y-103075620D01*
X53709809Y-103075620D02*
X54233619Y-103075620D01*
X54233619Y-103551810D02*
X53566952Y-103551810D01*
X53662190Y-103551810D02*
X53614571Y-103599429D01*
X53614571Y-103599429D02*
X53566952Y-103694667D01*
X53566952Y-103694667D02*
X53566952Y-103837524D01*
X53566952Y-103837524D02*
X53614571Y-103932762D01*
X53614571Y-103932762D02*
X53709809Y-103980381D01*
X53709809Y-103980381D02*
X54233619Y-103980381D01*
X53709809Y-103980381D02*
X53614571Y-104028000D01*
X53614571Y-104028000D02*
X53566952Y-104123238D01*
X53566952Y-104123238D02*
X53566952Y-104266095D01*
X53566952Y-104266095D02*
X53614571Y-104361334D01*
X53614571Y-104361334D02*
X53709809Y-104408953D01*
X53709809Y-104408953D02*
X54233619Y-104408953D01*
X54233619Y-104885143D02*
X53566952Y-104885143D01*
X53233619Y-104885143D02*
X53281238Y-104837524D01*
X53281238Y-104837524D02*
X53328857Y-104885143D01*
X53328857Y-104885143D02*
X53281238Y-104932762D01*
X53281238Y-104932762D02*
X53233619Y-104885143D01*
X53233619Y-104885143D02*
X53328857Y-104885143D01*
X53566952Y-105361333D02*
X54233619Y-105361333D01*
X53662190Y-105361333D02*
X53614571Y-105408952D01*
X53614571Y-105408952D02*
X53566952Y-105504190D01*
X53566952Y-105504190D02*
X53566952Y-105647047D01*
X53566952Y-105647047D02*
X53614571Y-105742285D01*
X53614571Y-105742285D02*
X53709809Y-105789904D01*
X53709809Y-105789904D02*
X54233619Y-105789904D01*
X53566952Y-106694666D02*
X54376476Y-106694666D01*
X54376476Y-106694666D02*
X54471714Y-106647047D01*
X54471714Y-106647047D02*
X54519333Y-106599428D01*
X54519333Y-106599428D02*
X54566952Y-106504190D01*
X54566952Y-106504190D02*
X54566952Y-106361333D01*
X54566952Y-106361333D02*
X54519333Y-106266095D01*
X54186000Y-106694666D02*
X54233619Y-106599428D01*
X54233619Y-106599428D02*
X54233619Y-106408952D01*
X54233619Y-106408952D02*
X54186000Y-106313714D01*
X54186000Y-106313714D02*
X54138380Y-106266095D01*
X54138380Y-106266095D02*
X54043142Y-106218476D01*
X54043142Y-106218476D02*
X53757428Y-106218476D01*
X53757428Y-106218476D02*
X53662190Y-106266095D01*
X53662190Y-106266095D02*
X53614571Y-106313714D01*
X53614571Y-106313714D02*
X53566952Y-106408952D01*
X53566952Y-106408952D02*
X53566952Y-106599428D01*
X53566952Y-106599428D02*
X53614571Y-106694666D01*
X54233619Y-107932762D02*
X53233619Y-107932762D01*
X53709809Y-107932762D02*
X53709809Y-108504190D01*
X54233619Y-108504190D02*
X53233619Y-108504190D01*
X54186000Y-109361333D02*
X54233619Y-109266095D01*
X54233619Y-109266095D02*
X54233619Y-109075619D01*
X54233619Y-109075619D02*
X54186000Y-108980381D01*
X54186000Y-108980381D02*
X54090761Y-108932762D01*
X54090761Y-108932762D02*
X53709809Y-108932762D01*
X53709809Y-108932762D02*
X53614571Y-108980381D01*
X53614571Y-108980381D02*
X53566952Y-109075619D01*
X53566952Y-109075619D02*
X53566952Y-109266095D01*
X53566952Y-109266095D02*
X53614571Y-109361333D01*
X53614571Y-109361333D02*
X53709809Y-109408952D01*
X53709809Y-109408952D02*
X53805047Y-109408952D01*
X53805047Y-109408952D02*
X53900285Y-108932762D01*
X54233619Y-110266095D02*
X53709809Y-110266095D01*
X53709809Y-110266095D02*
X53614571Y-110218476D01*
X53614571Y-110218476D02*
X53566952Y-110123238D01*
X53566952Y-110123238D02*
X53566952Y-109932762D01*
X53566952Y-109932762D02*
X53614571Y-109837524D01*
X54186000Y-110266095D02*
X54233619Y-110170857D01*
X54233619Y-110170857D02*
X54233619Y-109932762D01*
X54233619Y-109932762D02*
X54186000Y-109837524D01*
X54186000Y-109837524D02*
X54090761Y-109789905D01*
X54090761Y-109789905D02*
X53995523Y-109789905D01*
X53995523Y-109789905D02*
X53900285Y-109837524D01*
X53900285Y-109837524D02*
X53852666Y-109932762D01*
X53852666Y-109932762D02*
X53852666Y-110170857D01*
X53852666Y-110170857D02*
X53805047Y-110266095D01*
X54233619Y-111170857D02*
X53233619Y-111170857D01*
X54186000Y-111170857D02*
X54233619Y-111075619D01*
X54233619Y-111075619D02*
X54233619Y-110885143D01*
X54233619Y-110885143D02*
X54186000Y-110789905D01*
X54186000Y-110789905D02*
X54138380Y-110742286D01*
X54138380Y-110742286D02*
X54043142Y-110694667D01*
X54043142Y-110694667D02*
X53757428Y-110694667D01*
X53757428Y-110694667D02*
X53662190Y-110742286D01*
X53662190Y-110742286D02*
X53614571Y-110789905D01*
X53614571Y-110789905D02*
X53566952Y-110885143D01*
X53566952Y-110885143D02*
X53566952Y-111075619D01*
X53566952Y-111075619D02*
X53614571Y-111170857D01*
X54186000Y-112028000D02*
X54233619Y-111932762D01*
X54233619Y-111932762D02*
X54233619Y-111742286D01*
X54233619Y-111742286D02*
X54186000Y-111647048D01*
X54186000Y-111647048D02*
X54090761Y-111599429D01*
X54090761Y-111599429D02*
X53709809Y-111599429D01*
X53709809Y-111599429D02*
X53614571Y-111647048D01*
X53614571Y-111647048D02*
X53566952Y-111742286D01*
X53566952Y-111742286D02*
X53566952Y-111932762D01*
X53566952Y-111932762D02*
X53614571Y-112028000D01*
X53614571Y-112028000D02*
X53709809Y-112075619D01*
X53709809Y-112075619D02*
X53805047Y-112075619D01*
X53805047Y-112075619D02*
X53900285Y-111599429D01*
X54233619Y-112504191D02*
X53566952Y-112504191D01*
X53757428Y-112504191D02*
X53662190Y-112551810D01*
X53662190Y-112551810D02*
X53614571Y-112599429D01*
X53614571Y-112599429D02*
X53566952Y-112694667D01*
X53566952Y-112694667D02*
X53566952Y-112789905D01*
X120205523Y-103731904D02*
X119729333Y-103731904D01*
X120300761Y-104017619D02*
X119967428Y-103017619D01*
X119967428Y-103017619D02*
X119634095Y-104017619D01*
X119300761Y-104017619D02*
X119300761Y-103017619D01*
X119300761Y-103017619D02*
X119062666Y-103017619D01*
X119062666Y-103017619D02*
X118919809Y-103065238D01*
X118919809Y-103065238D02*
X118824571Y-103160476D01*
X118824571Y-103160476D02*
X118776952Y-103255714D01*
X118776952Y-103255714D02*
X118729333Y-103446190D01*
X118729333Y-103446190D02*
X118729333Y-103589047D01*
X118729333Y-103589047D02*
X118776952Y-103779523D01*
X118776952Y-103779523D02*
X118824571Y-103874761D01*
X118824571Y-103874761D02*
X118919809Y-103970000D01*
X118919809Y-103970000D02*
X119062666Y-104017619D01*
X119062666Y-104017619D02*
X119300761Y-104017619D01*
X117729333Y-103922380D02*
X117776952Y-103970000D01*
X117776952Y-103970000D02*
X117919809Y-104017619D01*
X117919809Y-104017619D02*
X118015047Y-104017619D01*
X118015047Y-104017619D02*
X118157904Y-103970000D01*
X118157904Y-103970000D02*
X118253142Y-103874761D01*
X118253142Y-103874761D02*
X118300761Y-103779523D01*
X118300761Y-103779523D02*
X118348380Y-103589047D01*
X118348380Y-103589047D02*
X118348380Y-103446190D01*
X118348380Y-103446190D02*
X118300761Y-103255714D01*
X118300761Y-103255714D02*
X118253142Y-103160476D01*
X118253142Y-103160476D02*
X118157904Y-103065238D01*
X118157904Y-103065238D02*
X118015047Y-103017619D01*
X118015047Y-103017619D02*
X117919809Y-103017619D01*
X117919809Y-103017619D02*
X117776952Y-103065238D01*
X117776952Y-103065238D02*
X117729333Y-103112857D01*
X117538857Y-104112857D02*
X116776952Y-104112857D01*
X116538856Y-104017619D02*
X116538856Y-103017619D01*
X116062666Y-103350952D02*
X116062666Y-104017619D01*
X116062666Y-103446190D02*
X116015047Y-103398571D01*
X116015047Y-103398571D02*
X115919809Y-103350952D01*
X115919809Y-103350952D02*
X115776952Y-103350952D01*
X115776952Y-103350952D02*
X115681714Y-103398571D01*
X115681714Y-103398571D02*
X115634095Y-103493809D01*
X115634095Y-103493809D02*
X115634095Y-104017619D01*
%TO.C,FB1*%
X101594809Y-133616666D02*
X101594809Y-133283333D01*
X102118619Y-133283333D02*
X101118619Y-133283333D01*
X101118619Y-133283333D02*
X101118619Y-133759523D01*
X101594809Y-134473809D02*
X101642428Y-134616666D01*
X101642428Y-134616666D02*
X101690047Y-134664285D01*
X101690047Y-134664285D02*
X101785285Y-134711904D01*
X101785285Y-134711904D02*
X101928142Y-134711904D01*
X101928142Y-134711904D02*
X102023380Y-134664285D01*
X102023380Y-134664285D02*
X102071000Y-134616666D01*
X102071000Y-134616666D02*
X102118619Y-134521428D01*
X102118619Y-134521428D02*
X102118619Y-134140476D01*
X102118619Y-134140476D02*
X101118619Y-134140476D01*
X101118619Y-134140476D02*
X101118619Y-134473809D01*
X101118619Y-134473809D02*
X101166238Y-134569047D01*
X101166238Y-134569047D02*
X101213857Y-134616666D01*
X101213857Y-134616666D02*
X101309095Y-134664285D01*
X101309095Y-134664285D02*
X101404333Y-134664285D01*
X101404333Y-134664285D02*
X101499571Y-134616666D01*
X101499571Y-134616666D02*
X101547190Y-134569047D01*
X101547190Y-134569047D02*
X101594809Y-134473809D01*
X101594809Y-134473809D02*
X101594809Y-134140476D01*
X102118619Y-135664285D02*
X102118619Y-135092857D01*
X102118619Y-135378571D02*
X101118619Y-135378571D01*
X101118619Y-135378571D02*
X101261476Y-135283333D01*
X101261476Y-135283333D02*
X101356714Y-135188095D01*
X101356714Y-135188095D02*
X101404333Y-135092857D01*
D11*
X103596000Y-134278733D02*
X103596000Y-134621267D01*
X102576000Y-134278733D02*
X102576000Y-134621267D01*
%TD*%
M02*
