%TF.GenerationSoftware,KiCad,Pcbnew,(6.0.10)*%
%TF.CreationDate,2023-03-01T09:57:49-08:00*%
%TF.ProjectId,IOBoard_ATSAMD21,494f426f-6172-4645-9f41-5453414d4432,rev?*%
%TF.SameCoordinates,Original*%
%TF.FileFunction,Legend,Top*%
%TF.FilePolarity,Positive*%
%FSLAX46Y46*%
G04 Gerber Fmt 4.6, Leading zero omitted, Abs format (unit mm)*
G04 Created by KiCad (PCBNEW (6.0.10)) date 2023-03-01 09:57:49*
%MOMM*%
%LPD*%
G01*
G04 APERTURE LIST*
%ADD10C,0.400000*%
%ADD11C,0.300000*%
%ADD12C,0.150000*%
%ADD13C,0.120000*%
G04 APERTURE END LIST*
D10*
X75011904Y-153934761D02*
X75011904Y-155553809D01*
X75107142Y-155744285D01*
X75202380Y-155839523D01*
X75392857Y-155934761D01*
X75773809Y-155934761D01*
X75964285Y-155839523D01*
X76059523Y-155744285D01*
X76154761Y-155553809D01*
X76154761Y-153934761D01*
X77107142Y-154601428D02*
X77107142Y-155934761D01*
X77107142Y-154791904D02*
X77202380Y-154696666D01*
X77392857Y-154601428D01*
X77678571Y-154601428D01*
X77869047Y-154696666D01*
X77964285Y-154887142D01*
X77964285Y-155934761D01*
X78916666Y-155934761D02*
X78916666Y-154601428D01*
X78916666Y-153934761D02*
X78821428Y-154030000D01*
X78916666Y-154125238D01*
X79011904Y-154030000D01*
X78916666Y-153934761D01*
X78916666Y-154125238D01*
X79678571Y-154601428D02*
X80154761Y-155934761D01*
X80630952Y-154601428D01*
X82154761Y-155839523D02*
X81964285Y-155934761D01*
X81583333Y-155934761D01*
X81392857Y-155839523D01*
X81297619Y-155649047D01*
X81297619Y-154887142D01*
X81392857Y-154696666D01*
X81583333Y-154601428D01*
X81964285Y-154601428D01*
X82154761Y-154696666D01*
X82250000Y-154887142D01*
X82250000Y-155077619D01*
X81297619Y-155268095D01*
X83107142Y-155934761D02*
X83107142Y-154601428D01*
X83107142Y-154982380D02*
X83202380Y-154791904D01*
X83297619Y-154696666D01*
X83488095Y-154601428D01*
X83678571Y-154601428D01*
X84250000Y-155839523D02*
X84440476Y-155934761D01*
X84821428Y-155934761D01*
X85011904Y-155839523D01*
X85107142Y-155649047D01*
X85107142Y-155553809D01*
X85011904Y-155363333D01*
X84821428Y-155268095D01*
X84535714Y-155268095D01*
X84345238Y-155172857D01*
X84250000Y-154982380D01*
X84250000Y-154887142D01*
X84345238Y-154696666D01*
X84535714Y-154601428D01*
X84821428Y-154601428D01*
X85011904Y-154696666D01*
X85964285Y-155934761D02*
X85964285Y-154601428D01*
X85964285Y-153934761D02*
X85869047Y-154030000D01*
X85964285Y-154125238D01*
X86059523Y-154030000D01*
X85964285Y-153934761D01*
X85964285Y-154125238D01*
X86630952Y-154601428D02*
X87392857Y-154601428D01*
X86916666Y-153934761D02*
X86916666Y-155649047D01*
X87011904Y-155839523D01*
X87202380Y-155934761D01*
X87392857Y-155934761D01*
X87869047Y-154601428D02*
X88345238Y-155934761D01*
X88821428Y-154601428D02*
X88345238Y-155934761D01*
X88154761Y-156410952D01*
X88059523Y-156506190D01*
X87869047Y-156601428D01*
X91392857Y-155934761D02*
X91202380Y-155839523D01*
X91107142Y-155744285D01*
X91011904Y-155553809D01*
X91011904Y-154982380D01*
X91107142Y-154791904D01*
X91202380Y-154696666D01*
X91392857Y-154601428D01*
X91678571Y-154601428D01*
X91869047Y-154696666D01*
X91964285Y-154791904D01*
X92059523Y-154982380D01*
X92059523Y-155553809D01*
X91964285Y-155744285D01*
X91869047Y-155839523D01*
X91678571Y-155934761D01*
X91392857Y-155934761D01*
X92630952Y-154601428D02*
X93392857Y-154601428D01*
X92916666Y-155934761D02*
X92916666Y-154220476D01*
X93011904Y-154030000D01*
X93202380Y-153934761D01*
X93392857Y-153934761D01*
X95392857Y-153934761D02*
X95869047Y-155934761D01*
X96250000Y-154506190D01*
X96630952Y-155934761D01*
X97107142Y-153934761D01*
X98726190Y-155934761D02*
X98726190Y-154887142D01*
X98630952Y-154696666D01*
X98440476Y-154601428D01*
X98059523Y-154601428D01*
X97869047Y-154696666D01*
X98726190Y-155839523D02*
X98535714Y-155934761D01*
X98059523Y-155934761D01*
X97869047Y-155839523D01*
X97773809Y-155649047D01*
X97773809Y-155458571D01*
X97869047Y-155268095D01*
X98059523Y-155172857D01*
X98535714Y-155172857D01*
X98726190Y-155077619D01*
X99583333Y-155839523D02*
X99773809Y-155934761D01*
X100154761Y-155934761D01*
X100345238Y-155839523D01*
X100440476Y-155649047D01*
X100440476Y-155553809D01*
X100345238Y-155363333D01*
X100154761Y-155268095D01*
X99869047Y-155268095D01*
X99678571Y-155172857D01*
X99583333Y-154982380D01*
X99583333Y-154887142D01*
X99678571Y-154696666D01*
X99869047Y-154601428D01*
X100154761Y-154601428D01*
X100345238Y-154696666D01*
X101297619Y-155934761D02*
X101297619Y-153934761D01*
X102154761Y-155934761D02*
X102154761Y-154887142D01*
X102059523Y-154696666D01*
X101869047Y-154601428D01*
X101583333Y-154601428D01*
X101392857Y-154696666D01*
X101297619Y-154791904D01*
X103107142Y-155934761D02*
X103107142Y-154601428D01*
X103107142Y-153934761D02*
X103011904Y-154030000D01*
X103107142Y-154125238D01*
X103202380Y-154030000D01*
X103107142Y-153934761D01*
X103107142Y-154125238D01*
X104059523Y-154601428D02*
X104059523Y-155934761D01*
X104059523Y-154791904D02*
X104154761Y-154696666D01*
X104345238Y-154601428D01*
X104630952Y-154601428D01*
X104821428Y-154696666D01*
X104916666Y-154887142D01*
X104916666Y-155934761D01*
X106726190Y-154601428D02*
X106726190Y-156220476D01*
X106630952Y-156410952D01*
X106535714Y-156506190D01*
X106345238Y-156601428D01*
X106059523Y-156601428D01*
X105869047Y-156506190D01*
X106726190Y-155839523D02*
X106535714Y-155934761D01*
X106154761Y-155934761D01*
X105964285Y-155839523D01*
X105869047Y-155744285D01*
X105773809Y-155553809D01*
X105773809Y-154982380D01*
X105869047Y-154791904D01*
X105964285Y-154696666D01*
X106154761Y-154601428D01*
X106535714Y-154601428D01*
X106726190Y-154696666D01*
X107392857Y-154601428D02*
X108154761Y-154601428D01*
X107678571Y-153934761D02*
X107678571Y-155649047D01*
X107773809Y-155839523D01*
X107964285Y-155934761D01*
X108154761Y-155934761D01*
X109107142Y-155934761D02*
X108916666Y-155839523D01*
X108821428Y-155744285D01*
X108726190Y-155553809D01*
X108726190Y-154982380D01*
X108821428Y-154791904D01*
X108916666Y-154696666D01*
X109107142Y-154601428D01*
X109392857Y-154601428D01*
X109583333Y-154696666D01*
X109678571Y-154791904D01*
X109773809Y-154982380D01*
X109773809Y-155553809D01*
X109678571Y-155744285D01*
X109583333Y-155839523D01*
X109392857Y-155934761D01*
X109107142Y-155934761D01*
X110630952Y-154601428D02*
X110630952Y-155934761D01*
X110630952Y-154791904D02*
X110726190Y-154696666D01*
X110916666Y-154601428D01*
X111202380Y-154601428D01*
X111392857Y-154696666D01*
X111488095Y-154887142D01*
X111488095Y-155934761D01*
X84202380Y-158107142D02*
X84869047Y-158107142D01*
X85154761Y-159154761D02*
X84202380Y-159154761D01*
X84202380Y-157154761D01*
X85154761Y-157154761D01*
X86011904Y-157821428D02*
X86011904Y-159154761D01*
X86011904Y-158011904D02*
X86107142Y-157916666D01*
X86297619Y-157821428D01*
X86583333Y-157821428D01*
X86773809Y-157916666D01*
X86869047Y-158107142D01*
X86869047Y-159154761D01*
X88678571Y-157821428D02*
X88678571Y-159440476D01*
X88583333Y-159630952D01*
X88488095Y-159726190D01*
X88297619Y-159821428D01*
X88011904Y-159821428D01*
X87821428Y-159726190D01*
X88678571Y-159059523D02*
X88488095Y-159154761D01*
X88107142Y-159154761D01*
X87916666Y-159059523D01*
X87821428Y-158964285D01*
X87726190Y-158773809D01*
X87726190Y-158202380D01*
X87821428Y-158011904D01*
X87916666Y-157916666D01*
X88107142Y-157821428D01*
X88488095Y-157821428D01*
X88678571Y-157916666D01*
X89630952Y-159154761D02*
X89630952Y-157821428D01*
X89630952Y-157154761D02*
X89535714Y-157250000D01*
X89630952Y-157345238D01*
X89726190Y-157250000D01*
X89630952Y-157154761D01*
X89630952Y-157345238D01*
X90583333Y-157821428D02*
X90583333Y-159154761D01*
X90583333Y-158011904D02*
X90678571Y-157916666D01*
X90869047Y-157821428D01*
X91154761Y-157821428D01*
X91345238Y-157916666D01*
X91440476Y-158107142D01*
X91440476Y-159154761D01*
X93154761Y-159059523D02*
X92964285Y-159154761D01*
X92583333Y-159154761D01*
X92392857Y-159059523D01*
X92297619Y-158869047D01*
X92297619Y-158107142D01*
X92392857Y-157916666D01*
X92583333Y-157821428D01*
X92964285Y-157821428D01*
X93154761Y-157916666D01*
X93250000Y-158107142D01*
X93250000Y-158297619D01*
X92297619Y-158488095D01*
X95535714Y-157345238D02*
X95630952Y-157250000D01*
X95821428Y-157154761D01*
X96297619Y-157154761D01*
X96488095Y-157250000D01*
X96583333Y-157345238D01*
X96678571Y-157535714D01*
X96678571Y-157726190D01*
X96583333Y-158011904D01*
X95440476Y-159154761D01*
X96678571Y-159154761D01*
X97916666Y-157154761D02*
X98107142Y-157154761D01*
X98297619Y-157250000D01*
X98392857Y-157345238D01*
X98488095Y-157535714D01*
X98583333Y-157916666D01*
X98583333Y-158392857D01*
X98488095Y-158773809D01*
X98392857Y-158964285D01*
X98297619Y-159059523D01*
X98107142Y-159154761D01*
X97916666Y-159154761D01*
X97726190Y-159059523D01*
X97630952Y-158964285D01*
X97535714Y-158773809D01*
X97440476Y-158392857D01*
X97440476Y-157916666D01*
X97535714Y-157535714D01*
X97630952Y-157345238D01*
X97726190Y-157250000D01*
X97916666Y-157154761D01*
X99345238Y-157345238D02*
X99440476Y-157250000D01*
X99630952Y-157154761D01*
X100107142Y-157154761D01*
X100297619Y-157250000D01*
X100392857Y-157345238D01*
X100488095Y-157535714D01*
X100488095Y-157726190D01*
X100392857Y-158011904D01*
X99250000Y-159154761D01*
X100488095Y-159154761D01*
X101154761Y-157154761D02*
X102392857Y-157154761D01*
X101726190Y-157916666D01*
X102011904Y-157916666D01*
X102202380Y-158011904D01*
X102297619Y-158107142D01*
X102392857Y-158297619D01*
X102392857Y-158773809D01*
X102297619Y-158964285D01*
X102202380Y-159059523D01*
X102011904Y-159154761D01*
X101440476Y-159154761D01*
X101250000Y-159059523D01*
X101154761Y-158964285D01*
X86678571Y-162184285D02*
X86583333Y-162279523D01*
X86297619Y-162374761D01*
X86107142Y-162374761D01*
X85821428Y-162279523D01*
X85630952Y-162089047D01*
X85535714Y-161898571D01*
X85440476Y-161517619D01*
X85440476Y-161231904D01*
X85535714Y-160850952D01*
X85630952Y-160660476D01*
X85821428Y-160470000D01*
X86107142Y-160374761D01*
X86297619Y-160374761D01*
X86583333Y-160470000D01*
X86678571Y-160565238D01*
X87535714Y-162374761D02*
X87535714Y-160374761D01*
X88392857Y-162374761D02*
X88392857Y-161327142D01*
X88297619Y-161136666D01*
X88107142Y-161041428D01*
X87821428Y-161041428D01*
X87630952Y-161136666D01*
X87535714Y-161231904D01*
X90202380Y-162374761D02*
X90202380Y-161327142D01*
X90107142Y-161136666D01*
X89916666Y-161041428D01*
X89535714Y-161041428D01*
X89345238Y-161136666D01*
X90202380Y-162279523D02*
X90011904Y-162374761D01*
X89535714Y-162374761D01*
X89345238Y-162279523D01*
X89250000Y-162089047D01*
X89250000Y-161898571D01*
X89345238Y-161708095D01*
X89535714Y-161612857D01*
X90011904Y-161612857D01*
X90202380Y-161517619D01*
X91154761Y-162374761D02*
X91154761Y-161041428D01*
X91154761Y-161231904D02*
X91250000Y-161136666D01*
X91440476Y-161041428D01*
X91726190Y-161041428D01*
X91916666Y-161136666D01*
X92011904Y-161327142D01*
X92011904Y-162374761D01*
X92011904Y-161327142D02*
X92107142Y-161136666D01*
X92297619Y-161041428D01*
X92583333Y-161041428D01*
X92773809Y-161136666D01*
X92869047Y-161327142D01*
X92869047Y-162374761D01*
X94583333Y-162279523D02*
X94392857Y-162374761D01*
X94011904Y-162374761D01*
X93821428Y-162279523D01*
X93726190Y-162089047D01*
X93726190Y-161327142D01*
X93821428Y-161136666D01*
X94011904Y-161041428D01*
X94392857Y-161041428D01*
X94583333Y-161136666D01*
X94678571Y-161327142D01*
X94678571Y-161517619D01*
X93726190Y-161708095D01*
X95821428Y-162374761D02*
X95630952Y-162279523D01*
X95535714Y-162089047D01*
X95535714Y-160374761D01*
X97345238Y-162279523D02*
X97154761Y-162374761D01*
X96773809Y-162374761D01*
X96583333Y-162279523D01*
X96488095Y-162089047D01*
X96488095Y-161327142D01*
X96583333Y-161136666D01*
X96773809Y-161041428D01*
X97154761Y-161041428D01*
X97345238Y-161136666D01*
X97440476Y-161327142D01*
X97440476Y-161517619D01*
X96488095Y-161708095D01*
X98583333Y-162374761D02*
X98392857Y-162279523D01*
X98297619Y-162184285D01*
X98202380Y-161993809D01*
X98202380Y-161422380D01*
X98297619Y-161231904D01*
X98392857Y-161136666D01*
X98583333Y-161041428D01*
X98869047Y-161041428D01*
X99059523Y-161136666D01*
X99154761Y-161231904D01*
X99250000Y-161422380D01*
X99250000Y-161993809D01*
X99154761Y-162184285D01*
X99059523Y-162279523D01*
X98869047Y-162374761D01*
X98583333Y-162374761D01*
X100107142Y-161041428D02*
X100107142Y-162374761D01*
X100107142Y-161231904D02*
X100202380Y-161136666D01*
X100392857Y-161041428D01*
X100678571Y-161041428D01*
X100869047Y-161136666D01*
X100964285Y-161327142D01*
X100964285Y-162374761D01*
D11*
X72857142Y-113857142D02*
X73071428Y-113928571D01*
X73428571Y-113928571D01*
X73571428Y-113857142D01*
X73642857Y-113785714D01*
X73714285Y-113642857D01*
X73714285Y-113500000D01*
X73642857Y-113357142D01*
X73571428Y-113285714D01*
X73428571Y-113214285D01*
X73142857Y-113142857D01*
X73000000Y-113071428D01*
X72928571Y-113000000D01*
X72857142Y-112857142D01*
X72857142Y-112714285D01*
X72928571Y-112571428D01*
X73000000Y-112500000D01*
X73142857Y-112428571D01*
X73500000Y-112428571D01*
X73714285Y-112500000D01*
X74214285Y-112428571D02*
X74571428Y-113928571D01*
X74857142Y-112857142D01*
X75142857Y-113928571D01*
X75500000Y-112428571D01*
X76928571Y-113785714D02*
X76857142Y-113857142D01*
X76642857Y-113928571D01*
X76500000Y-113928571D01*
X76285714Y-113857142D01*
X76142857Y-113714285D01*
X76071428Y-113571428D01*
X76000000Y-113285714D01*
X76000000Y-113071428D01*
X76071428Y-112785714D01*
X76142857Y-112642857D01*
X76285714Y-112500000D01*
X76500000Y-112428571D01*
X76642857Y-112428571D01*
X76857142Y-112500000D01*
X76928571Y-112571428D01*
X78285714Y-113928571D02*
X77571428Y-113928571D01*
X77571428Y-112428571D01*
X78785714Y-113928571D02*
X78785714Y-112428571D01*
X79642857Y-113928571D02*
X79000000Y-113071428D01*
X79642857Y-112428571D02*
X78785714Y-113285714D01*
X132607142Y-103000000D02*
X132464285Y-102928571D01*
X132250000Y-102928571D01*
X132035714Y-103000000D01*
X131892857Y-103142857D01*
X131821428Y-103285714D01*
X131750000Y-103571428D01*
X131750000Y-103785714D01*
X131821428Y-104071428D01*
X131892857Y-104214285D01*
X132035714Y-104357142D01*
X132250000Y-104428571D01*
X132392857Y-104428571D01*
X132607142Y-104357142D01*
X132678571Y-104285714D01*
X132678571Y-103785714D01*
X132392857Y-103785714D01*
X133321428Y-104428571D02*
X133321428Y-102928571D01*
X134178571Y-104428571D01*
X134178571Y-102928571D01*
X134892857Y-104428571D02*
X134892857Y-102928571D01*
X135250000Y-102928571D01*
X135464285Y-103000000D01*
X135607142Y-103142857D01*
X135678571Y-103285714D01*
X135750000Y-103571428D01*
X135750000Y-103785714D01*
X135678571Y-104071428D01*
X135607142Y-104214285D01*
X135464285Y-104357142D01*
X135250000Y-104428571D01*
X134892857Y-104428571D01*
X77071428Y-165471071D02*
X77071428Y-163971071D01*
X78071428Y-163971071D02*
X78357142Y-163971071D01*
X78500000Y-164042500D01*
X78642857Y-164185357D01*
X78714285Y-164471071D01*
X78714285Y-164971071D01*
X78642857Y-165256785D01*
X78500000Y-165399642D01*
X78357142Y-165471071D01*
X78071428Y-165471071D01*
X77928571Y-165399642D01*
X77785714Y-165256785D01*
X77714285Y-164971071D01*
X77714285Y-164471071D01*
X77785714Y-164185357D01*
X77928571Y-164042500D01*
X78071428Y-163971071D01*
X81000000Y-164685357D02*
X81214285Y-164756785D01*
X81285714Y-164828214D01*
X81357142Y-164971071D01*
X81357142Y-165185357D01*
X81285714Y-165328214D01*
X81214285Y-165399642D01*
X81071428Y-165471071D01*
X80500000Y-165471071D01*
X80500000Y-163971071D01*
X81000000Y-163971071D01*
X81142857Y-164042500D01*
X81214285Y-164113928D01*
X81285714Y-164256785D01*
X81285714Y-164399642D01*
X81214285Y-164542500D01*
X81142857Y-164613928D01*
X81000000Y-164685357D01*
X80500000Y-164685357D01*
X82214285Y-165471071D02*
X82071428Y-165399642D01*
X82000000Y-165328214D01*
X81928571Y-165185357D01*
X81928571Y-164756785D01*
X82000000Y-164613928D01*
X82071428Y-164542500D01*
X82214285Y-164471071D01*
X82428571Y-164471071D01*
X82571428Y-164542500D01*
X82642857Y-164613928D01*
X82714285Y-164756785D01*
X82714285Y-165185357D01*
X82642857Y-165328214D01*
X82571428Y-165399642D01*
X82428571Y-165471071D01*
X82214285Y-165471071D01*
X84000000Y-165471071D02*
X84000000Y-164685357D01*
X83928571Y-164542500D01*
X83785714Y-164471071D01*
X83500000Y-164471071D01*
X83357142Y-164542500D01*
X84000000Y-165399642D02*
X83857142Y-165471071D01*
X83500000Y-165471071D01*
X83357142Y-165399642D01*
X83285714Y-165256785D01*
X83285714Y-165113928D01*
X83357142Y-164971071D01*
X83500000Y-164899642D01*
X83857142Y-164899642D01*
X84000000Y-164828214D01*
X84714285Y-165471071D02*
X84714285Y-164471071D01*
X84714285Y-164756785D02*
X84785714Y-164613928D01*
X84857142Y-164542500D01*
X85000000Y-164471071D01*
X85142857Y-164471071D01*
X86285714Y-165471071D02*
X86285714Y-163971071D01*
X86285714Y-165399642D02*
X86142857Y-165471071D01*
X85857142Y-165471071D01*
X85714285Y-165399642D01*
X85642857Y-165328214D01*
X85571428Y-165185357D01*
X85571428Y-164756785D01*
X85642857Y-164613928D01*
X85714285Y-164542500D01*
X85857142Y-164471071D01*
X86142857Y-164471071D01*
X86285714Y-164542500D01*
X87928571Y-163971071D02*
X88428571Y-165471071D01*
X88928571Y-163971071D01*
X90214285Y-165471071D02*
X89357142Y-165471071D01*
X89785714Y-165471071D02*
X89785714Y-163971071D01*
X89642857Y-164185357D01*
X89500000Y-164328214D01*
X89357142Y-164399642D01*
X92000000Y-164899642D02*
X93142857Y-164899642D01*
X94928571Y-165042500D02*
X95642857Y-165042500D01*
X94785714Y-165471071D02*
X95285714Y-163971071D01*
X95785714Y-165471071D01*
X96071428Y-163971071D02*
X96928571Y-163971071D01*
X96500000Y-165471071D02*
X96500000Y-163971071D01*
X97357142Y-165399642D02*
X97571428Y-165471071D01*
X97928571Y-165471071D01*
X98071428Y-165399642D01*
X98142857Y-165328214D01*
X98214285Y-165185357D01*
X98214285Y-165042500D01*
X98142857Y-164899642D01*
X98071428Y-164828214D01*
X97928571Y-164756785D01*
X97642857Y-164685357D01*
X97500000Y-164613928D01*
X97428571Y-164542500D01*
X97357142Y-164399642D01*
X97357142Y-164256785D01*
X97428571Y-164113928D01*
X97500000Y-164042500D01*
X97642857Y-163971071D01*
X98000000Y-163971071D01*
X98214285Y-164042500D01*
X98785714Y-165042500D02*
X99500000Y-165042500D01*
X98642857Y-165471071D02*
X99142857Y-163971071D01*
X99642857Y-165471071D01*
X100142857Y-165471071D02*
X100142857Y-163971071D01*
X100642857Y-165042500D01*
X101142857Y-163971071D01*
X101142857Y-165471071D01*
X101857142Y-165471071D02*
X101857142Y-163971071D01*
X102214285Y-163971071D01*
X102428571Y-164042500D01*
X102571428Y-164185357D01*
X102642857Y-164328214D01*
X102714285Y-164613928D01*
X102714285Y-164828214D01*
X102642857Y-165113928D01*
X102571428Y-165256785D01*
X102428571Y-165399642D01*
X102214285Y-165471071D01*
X101857142Y-165471071D01*
X103285714Y-164113928D02*
X103357142Y-164042500D01*
X103500000Y-163971071D01*
X103857142Y-163971071D01*
X104000000Y-164042500D01*
X104071428Y-164113928D01*
X104142857Y-164256785D01*
X104142857Y-164399642D01*
X104071428Y-164613928D01*
X103214285Y-165471071D01*
X104142857Y-165471071D01*
X105571428Y-165471071D02*
X104714285Y-165471071D01*
X105142857Y-165471071D02*
X105142857Y-163971071D01*
X105000000Y-164185357D01*
X104857142Y-164328214D01*
X104714285Y-164399642D01*
X106142857Y-165042500D02*
X106857142Y-165042500D01*
X106000000Y-165471071D02*
X106500000Y-163971071D01*
X107000000Y-165471071D01*
X107500000Y-164899642D02*
X108642857Y-164899642D01*
X109285714Y-165042500D02*
X110000000Y-165042500D01*
X109142857Y-165471071D02*
X109642857Y-163971071D01*
X110142857Y-165471071D01*
X85142857Y-167100357D02*
X85357142Y-167171785D01*
X85428571Y-167243214D01*
X85500000Y-167386071D01*
X85500000Y-167600357D01*
X85428571Y-167743214D01*
X85357142Y-167814642D01*
X85214285Y-167886071D01*
X84642857Y-167886071D01*
X84642857Y-166386071D01*
X85142857Y-166386071D01*
X85285714Y-166457500D01*
X85357142Y-166528928D01*
X85428571Y-166671785D01*
X85428571Y-166814642D01*
X85357142Y-166957500D01*
X85285714Y-167028928D01*
X85142857Y-167100357D01*
X84642857Y-167100357D01*
X86357142Y-167886071D02*
X86214285Y-167814642D01*
X86142857Y-167671785D01*
X86142857Y-166386071D01*
X87142857Y-167886071D02*
X87000000Y-167814642D01*
X86928571Y-167743214D01*
X86857142Y-167600357D01*
X86857142Y-167171785D01*
X86928571Y-167028928D01*
X87000000Y-166957500D01*
X87142857Y-166886071D01*
X87357142Y-166886071D01*
X87500000Y-166957500D01*
X87571428Y-167028928D01*
X87642857Y-167171785D01*
X87642857Y-167600357D01*
X87571428Y-167743214D01*
X87500000Y-167814642D01*
X87357142Y-167886071D01*
X87142857Y-167886071D01*
X88500000Y-167886071D02*
X88357142Y-167814642D01*
X88285714Y-167743214D01*
X88214285Y-167600357D01*
X88214285Y-167171785D01*
X88285714Y-167028928D01*
X88357142Y-166957500D01*
X88500000Y-166886071D01*
X88714285Y-166886071D01*
X88857142Y-166957500D01*
X88928571Y-167028928D01*
X89000000Y-167171785D01*
X89000000Y-167600357D01*
X88928571Y-167743214D01*
X88857142Y-167814642D01*
X88714285Y-167886071D01*
X88500000Y-167886071D01*
X89642857Y-167886071D02*
X89642857Y-166886071D01*
X89642857Y-167028928D02*
X89714285Y-166957500D01*
X89857142Y-166886071D01*
X90071428Y-166886071D01*
X90214285Y-166957500D01*
X90285714Y-167100357D01*
X90285714Y-167886071D01*
X90285714Y-167100357D02*
X90357142Y-166957500D01*
X90500000Y-166886071D01*
X90714285Y-166886071D01*
X90857142Y-166957500D01*
X90928571Y-167100357D01*
X90928571Y-167886071D01*
X92714285Y-166528928D02*
X92785714Y-166457500D01*
X92928571Y-166386071D01*
X93285714Y-166386071D01*
X93428571Y-166457500D01*
X93500000Y-166528928D01*
X93571428Y-166671785D01*
X93571428Y-166814642D01*
X93500000Y-167028928D01*
X92642857Y-167886071D01*
X93571428Y-167886071D01*
X95285714Y-166314642D02*
X94000000Y-168243214D01*
X95714285Y-166528928D02*
X95785714Y-166457500D01*
X95928571Y-166386071D01*
X96285714Y-166386071D01*
X96428571Y-166457500D01*
X96500000Y-166528928D01*
X96571428Y-166671785D01*
X96571428Y-166814642D01*
X96500000Y-167028928D01*
X95642857Y-167886071D01*
X96571428Y-167886071D01*
X97428571Y-167028928D02*
X97285714Y-166957500D01*
X97214285Y-166886071D01*
X97142857Y-166743214D01*
X97142857Y-166671785D01*
X97214285Y-166528928D01*
X97285714Y-166457500D01*
X97428571Y-166386071D01*
X97714285Y-166386071D01*
X97857142Y-166457500D01*
X97928571Y-166528928D01*
X98000000Y-166671785D01*
X98000000Y-166743214D01*
X97928571Y-166886071D01*
X97857142Y-166957500D01*
X97714285Y-167028928D01*
X97428571Y-167028928D01*
X97285714Y-167100357D01*
X97214285Y-167171785D01*
X97142857Y-167314642D01*
X97142857Y-167600357D01*
X97214285Y-167743214D01*
X97285714Y-167814642D01*
X97428571Y-167886071D01*
X97714285Y-167886071D01*
X97857142Y-167814642D01*
X97928571Y-167743214D01*
X98000000Y-167600357D01*
X98000000Y-167314642D01*
X97928571Y-167171785D01*
X97857142Y-167100357D01*
X97714285Y-167028928D01*
X99714285Y-166314642D02*
X98428571Y-168243214D01*
X100142857Y-166528928D02*
X100214285Y-166457500D01*
X100357142Y-166386071D01*
X100714285Y-166386071D01*
X100857142Y-166457500D01*
X100928571Y-166528928D01*
X101000000Y-166671785D01*
X101000000Y-166814642D01*
X100928571Y-167028928D01*
X100071428Y-167886071D01*
X101000000Y-167886071D01*
X101500000Y-166386071D02*
X102428571Y-166386071D01*
X101928571Y-166957500D01*
X102142857Y-166957500D01*
X102285714Y-167028928D01*
X102357142Y-167100357D01*
X102428571Y-167243214D01*
X102428571Y-167600357D01*
X102357142Y-167743214D01*
X102285714Y-167814642D01*
X102142857Y-167886071D01*
X101714285Y-167886071D01*
X101571428Y-167814642D01*
X101500000Y-167743214D01*
X72821428Y-111357142D02*
X73035714Y-111428571D01*
X73392857Y-111428571D01*
X73535714Y-111357142D01*
X73607142Y-111285714D01*
X73678571Y-111142857D01*
X73678571Y-111000000D01*
X73607142Y-110857142D01*
X73535714Y-110785714D01*
X73392857Y-110714285D01*
X73107142Y-110642857D01*
X72964285Y-110571428D01*
X72892857Y-110500000D01*
X72821428Y-110357142D01*
X72821428Y-110214285D01*
X72892857Y-110071428D01*
X72964285Y-110000000D01*
X73107142Y-109928571D01*
X73464285Y-109928571D01*
X73678571Y-110000000D01*
X74178571Y-109928571D02*
X74535714Y-111428571D01*
X74821428Y-110357142D01*
X75107142Y-111428571D01*
X75464285Y-109928571D01*
X76035714Y-111428571D02*
X76035714Y-109928571D01*
X76392857Y-109928571D01*
X76607142Y-110000000D01*
X76750000Y-110142857D01*
X76821428Y-110285714D01*
X76892857Y-110571428D01*
X76892857Y-110785714D01*
X76821428Y-111071428D01*
X76750000Y-111214285D01*
X76607142Y-111357142D01*
X76392857Y-111428571D01*
X76035714Y-111428571D01*
X77535714Y-111428571D02*
X77535714Y-109928571D01*
X78535714Y-109928571D02*
X78821428Y-109928571D01*
X78964285Y-110000000D01*
X79107142Y-110142857D01*
X79178571Y-110428571D01*
X79178571Y-110928571D01*
X79107142Y-111214285D01*
X78964285Y-111357142D01*
X78821428Y-111428571D01*
X78535714Y-111428571D01*
X78392857Y-111357142D01*
X78250000Y-111214285D01*
X78178571Y-110928571D01*
X78178571Y-110428571D01*
X78250000Y-110142857D01*
X78392857Y-110000000D01*
X78535714Y-109928571D01*
X73607142Y-107500000D02*
X73464285Y-107428571D01*
X73250000Y-107428571D01*
X73035714Y-107500000D01*
X72892857Y-107642857D01*
X72821428Y-107785714D01*
X72750000Y-108071428D01*
X72750000Y-108285714D01*
X72821428Y-108571428D01*
X72892857Y-108714285D01*
X73035714Y-108857142D01*
X73250000Y-108928571D01*
X73392857Y-108928571D01*
X73607142Y-108857142D01*
X73678571Y-108785714D01*
X73678571Y-108285714D01*
X73392857Y-108285714D01*
X74321428Y-108928571D02*
X74321428Y-107428571D01*
X75178571Y-108928571D01*
X75178571Y-107428571D01*
X75892857Y-108928571D02*
X75892857Y-107428571D01*
X76250000Y-107428571D01*
X76464285Y-107500000D01*
X76607142Y-107642857D01*
X76678571Y-107785714D01*
X76750000Y-108071428D01*
X76750000Y-108285714D01*
X76678571Y-108571428D01*
X76607142Y-108714285D01*
X76464285Y-108857142D01*
X76250000Y-108928571D01*
X75892857Y-108928571D01*
X72785714Y-104678571D02*
X73714285Y-104678571D01*
X73214285Y-105250000D01*
X73428571Y-105250000D01*
X73571428Y-105321428D01*
X73642857Y-105392857D01*
X73714285Y-105535714D01*
X73714285Y-105892857D01*
X73642857Y-106035714D01*
X73571428Y-106107142D01*
X73428571Y-106178571D01*
X73000000Y-106178571D01*
X72857142Y-106107142D01*
X72785714Y-106035714D01*
X74357142Y-106035714D02*
X74428571Y-106107142D01*
X74357142Y-106178571D01*
X74285714Y-106107142D01*
X74357142Y-106035714D01*
X74357142Y-106178571D01*
X74928571Y-104678571D02*
X75857142Y-104678571D01*
X75357142Y-105250000D01*
X75571428Y-105250000D01*
X75714285Y-105321428D01*
X75785714Y-105392857D01*
X75857142Y-105535714D01*
X75857142Y-105892857D01*
X75785714Y-106035714D01*
X75714285Y-106107142D01*
X75571428Y-106178571D01*
X75142857Y-106178571D01*
X75000000Y-106107142D01*
X74928571Y-106035714D01*
X76285714Y-104678571D02*
X76785714Y-106178571D01*
X77285714Y-104678571D01*
X131928571Y-106857142D02*
X132142857Y-106928571D01*
X132500000Y-106928571D01*
X132642857Y-106857142D01*
X132714285Y-106785714D01*
X132785714Y-106642857D01*
X132785714Y-106500000D01*
X132714285Y-106357142D01*
X132642857Y-106285714D01*
X132500000Y-106214285D01*
X132214285Y-106142857D01*
X132071428Y-106071428D01*
X132000000Y-106000000D01*
X131928571Y-105857142D01*
X131928571Y-105714285D01*
X132000000Y-105571428D01*
X132071428Y-105500000D01*
X132214285Y-105428571D01*
X132571428Y-105428571D01*
X132785714Y-105500000D01*
X133428571Y-106928571D02*
X133428571Y-105428571D01*
X133785714Y-105428571D01*
X134000000Y-105500000D01*
X134142857Y-105642857D01*
X134214285Y-105785714D01*
X134285714Y-106071428D01*
X134285714Y-106285714D01*
X134214285Y-106571428D01*
X134142857Y-106714285D01*
X134000000Y-106857142D01*
X133785714Y-106928571D01*
X133428571Y-106928571D01*
X134857142Y-106500000D02*
X135571428Y-106500000D01*
X134714285Y-106928571D02*
X135214285Y-105428571D01*
X135714285Y-106928571D01*
X134214285Y-100428571D02*
X133500000Y-100428571D01*
X133428571Y-101142857D01*
X133500000Y-101071428D01*
X133642857Y-101000000D01*
X134000000Y-101000000D01*
X134142857Y-101071428D01*
X134214285Y-101142857D01*
X134285714Y-101285714D01*
X134285714Y-101642857D01*
X134214285Y-101785714D01*
X134142857Y-101857142D01*
X134000000Y-101928571D01*
X133642857Y-101928571D01*
X133500000Y-101857142D01*
X133428571Y-101785714D01*
X134714285Y-100428571D02*
X135214285Y-101928571D01*
X135714285Y-100428571D01*
X131964285Y-109357142D02*
X132178571Y-109428571D01*
X132535714Y-109428571D01*
X132678571Y-109357142D01*
X132750000Y-109285714D01*
X132821428Y-109142857D01*
X132821428Y-109000000D01*
X132750000Y-108857142D01*
X132678571Y-108785714D01*
X132535714Y-108714285D01*
X132250000Y-108642857D01*
X132107142Y-108571428D01*
X132035714Y-108500000D01*
X131964285Y-108357142D01*
X131964285Y-108214285D01*
X132035714Y-108071428D01*
X132107142Y-108000000D01*
X132250000Y-107928571D01*
X132607142Y-107928571D01*
X132821428Y-108000000D01*
X134321428Y-109285714D02*
X134250000Y-109357142D01*
X134035714Y-109428571D01*
X133892857Y-109428571D01*
X133678571Y-109357142D01*
X133535714Y-109214285D01*
X133464285Y-109071428D01*
X133392857Y-108785714D01*
X133392857Y-108571428D01*
X133464285Y-108285714D01*
X133535714Y-108142857D01*
X133678571Y-108000000D01*
X133892857Y-107928571D01*
X134035714Y-107928571D01*
X134250000Y-108000000D01*
X134321428Y-108071428D01*
X135678571Y-109428571D02*
X134964285Y-109428571D01*
X134964285Y-107928571D01*
D12*
%TO.C,U1*%
X97202380Y-105261904D02*
X98011904Y-105261904D01*
X98107142Y-105214285D01*
X98154761Y-105166666D01*
X98202380Y-105071428D01*
X98202380Y-104880952D01*
X98154761Y-104785714D01*
X98107142Y-104738095D01*
X98011904Y-104690476D01*
X97202380Y-104690476D01*
X98202380Y-103690476D02*
X98202380Y-104261904D01*
X98202380Y-103976190D02*
X97202380Y-103976190D01*
X97345238Y-104071428D01*
X97440476Y-104166666D01*
X97488095Y-104261904D01*
%TO.C,J1*%
X70666666Y-100142380D02*
X70666666Y-100856666D01*
X70619047Y-100999523D01*
X70523809Y-101094761D01*
X70380952Y-101142380D01*
X70285714Y-101142380D01*
X71666666Y-101142380D02*
X71095238Y-101142380D01*
X71380952Y-101142380D02*
X71380952Y-100142380D01*
X71285714Y-100285238D01*
X71190476Y-100380476D01*
X71095238Y-100428095D01*
%TO.C,R4*%
X123122380Y-142166666D02*
X122646190Y-142500000D01*
X123122380Y-142738095D02*
X122122380Y-142738095D01*
X122122380Y-142357142D01*
X122170000Y-142261904D01*
X122217619Y-142214285D01*
X122312857Y-142166666D01*
X122455714Y-142166666D01*
X122550952Y-142214285D01*
X122598571Y-142261904D01*
X122646190Y-142357142D01*
X122646190Y-142738095D01*
X122455714Y-141309523D02*
X123122380Y-141309523D01*
X122074761Y-141547619D02*
X122789047Y-141785714D01*
X122789047Y-141166666D01*
%TO.C,D2*%
X92492380Y-148968095D02*
X91492380Y-148968095D01*
X91492380Y-148730000D01*
X91540000Y-148587142D01*
X91635238Y-148491904D01*
X91730476Y-148444285D01*
X91920952Y-148396666D01*
X92063809Y-148396666D01*
X92254285Y-148444285D01*
X92349523Y-148491904D01*
X92444761Y-148587142D01*
X92492380Y-148730000D01*
X92492380Y-148968095D01*
X91587619Y-148015714D02*
X91540000Y-147968095D01*
X91492380Y-147872857D01*
X91492380Y-147634761D01*
X91540000Y-147539523D01*
X91587619Y-147491904D01*
X91682857Y-147444285D01*
X91778095Y-147444285D01*
X91920952Y-147491904D01*
X92492380Y-148063333D01*
X92492380Y-147444285D01*
%TO.C,C6*%
X104683333Y-113757142D02*
X104635714Y-113804761D01*
X104492857Y-113852380D01*
X104397619Y-113852380D01*
X104254761Y-113804761D01*
X104159523Y-113709523D01*
X104111904Y-113614285D01*
X104064285Y-113423809D01*
X104064285Y-113280952D01*
X104111904Y-113090476D01*
X104159523Y-112995238D01*
X104254761Y-112900000D01*
X104397619Y-112852380D01*
X104492857Y-112852380D01*
X104635714Y-112900000D01*
X104683333Y-112947619D01*
X105540476Y-112852380D02*
X105350000Y-112852380D01*
X105254761Y-112900000D01*
X105207142Y-112947619D01*
X105111904Y-113090476D01*
X105064285Y-113280952D01*
X105064285Y-113661904D01*
X105111904Y-113757142D01*
X105159523Y-113804761D01*
X105254761Y-113852380D01*
X105445238Y-113852380D01*
X105540476Y-113804761D01*
X105588095Y-113757142D01*
X105635714Y-113661904D01*
X105635714Y-113423809D01*
X105588095Y-113328571D01*
X105540476Y-113280952D01*
X105445238Y-113233333D01*
X105254761Y-113233333D01*
X105159523Y-113280952D01*
X105111904Y-113328571D01*
X105064285Y-113423809D01*
%TO.C,C4*%
X111007142Y-106766666D02*
X111054761Y-106814285D01*
X111102380Y-106957142D01*
X111102380Y-107052380D01*
X111054761Y-107195238D01*
X110959523Y-107290476D01*
X110864285Y-107338095D01*
X110673809Y-107385714D01*
X110530952Y-107385714D01*
X110340476Y-107338095D01*
X110245238Y-107290476D01*
X110150000Y-107195238D01*
X110102380Y-107052380D01*
X110102380Y-106957142D01*
X110150000Y-106814285D01*
X110197619Y-106766666D01*
X110435714Y-105909523D02*
X111102380Y-105909523D01*
X110054761Y-106147619D02*
X110769047Y-106385714D01*
X110769047Y-105766666D01*
%TO.C,C10*%
X94077142Y-101542857D02*
X94124761Y-101590476D01*
X94172380Y-101733333D01*
X94172380Y-101828571D01*
X94124761Y-101971428D01*
X94029523Y-102066666D01*
X93934285Y-102114285D01*
X93743809Y-102161904D01*
X93600952Y-102161904D01*
X93410476Y-102114285D01*
X93315238Y-102066666D01*
X93220000Y-101971428D01*
X93172380Y-101828571D01*
X93172380Y-101733333D01*
X93220000Y-101590476D01*
X93267619Y-101542857D01*
X94172380Y-100590476D02*
X94172380Y-101161904D01*
X94172380Y-100876190D02*
X93172380Y-100876190D01*
X93315238Y-100971428D01*
X93410476Y-101066666D01*
X93458095Y-101161904D01*
X93172380Y-99971428D02*
X93172380Y-99876190D01*
X93220000Y-99780952D01*
X93267619Y-99733333D01*
X93362857Y-99685714D01*
X93553333Y-99638095D01*
X93791428Y-99638095D01*
X93981904Y-99685714D01*
X94077142Y-99733333D01*
X94124761Y-99780952D01*
X94172380Y-99876190D01*
X94172380Y-99971428D01*
X94124761Y-100066666D01*
X94077142Y-100114285D01*
X93981904Y-100161904D01*
X93791428Y-100209523D01*
X93553333Y-100209523D01*
X93362857Y-100161904D01*
X93267619Y-100114285D01*
X93220000Y-100066666D01*
X93172380Y-99971428D01*
%TO.C,C5*%
X130857142Y-99916666D02*
X130904761Y-99964285D01*
X130952380Y-100107142D01*
X130952380Y-100202380D01*
X130904761Y-100345238D01*
X130809523Y-100440476D01*
X130714285Y-100488095D01*
X130523809Y-100535714D01*
X130380952Y-100535714D01*
X130190476Y-100488095D01*
X130095238Y-100440476D01*
X130000000Y-100345238D01*
X129952380Y-100202380D01*
X129952380Y-100107142D01*
X130000000Y-99964285D01*
X130047619Y-99916666D01*
X129952380Y-99011904D02*
X129952380Y-99488095D01*
X130428571Y-99535714D01*
X130380952Y-99488095D01*
X130333333Y-99392857D01*
X130333333Y-99154761D01*
X130380952Y-99059523D01*
X130428571Y-99011904D01*
X130523809Y-98964285D01*
X130761904Y-98964285D01*
X130857142Y-99011904D01*
X130904761Y-99059523D01*
X130952380Y-99154761D01*
X130952380Y-99392857D01*
X130904761Y-99488095D01*
X130857142Y-99535714D01*
%TO.C,ENC3*%
X131178571Y-88214285D02*
X131178571Y-87880952D01*
X131702380Y-87738095D02*
X131702380Y-88214285D01*
X130702380Y-88214285D01*
X130702380Y-87738095D01*
X131702380Y-87309523D02*
X130702380Y-87309523D01*
X131702380Y-86738095D01*
X130702380Y-86738095D01*
X131607142Y-85690476D02*
X131654761Y-85738095D01*
X131702380Y-85880952D01*
X131702380Y-85976190D01*
X131654761Y-86119047D01*
X131559523Y-86214285D01*
X131464285Y-86261904D01*
X131273809Y-86309523D01*
X131130952Y-86309523D01*
X130940476Y-86261904D01*
X130845238Y-86214285D01*
X130750000Y-86119047D01*
X130702380Y-85976190D01*
X130702380Y-85880952D01*
X130750000Y-85738095D01*
X130797619Y-85690476D01*
X130702380Y-85357142D02*
X130702380Y-84738095D01*
X131083333Y-85071428D01*
X131083333Y-84928571D01*
X131130952Y-84833333D01*
X131178571Y-84785714D01*
X131273809Y-84738095D01*
X131511904Y-84738095D01*
X131607142Y-84785714D01*
X131654761Y-84833333D01*
X131702380Y-84928571D01*
X131702380Y-85214285D01*
X131654761Y-85309523D01*
X131607142Y-85357142D01*
%TO.C,ENC1*%
X93678571Y-60714285D02*
X93678571Y-60380952D01*
X94202380Y-60238095D02*
X94202380Y-60714285D01*
X93202380Y-60714285D01*
X93202380Y-60238095D01*
X94202380Y-59809523D02*
X93202380Y-59809523D01*
X94202380Y-59238095D01*
X93202380Y-59238095D01*
X94107142Y-58190476D02*
X94154761Y-58238095D01*
X94202380Y-58380952D01*
X94202380Y-58476190D01*
X94154761Y-58619047D01*
X94059523Y-58714285D01*
X93964285Y-58761904D01*
X93773809Y-58809523D01*
X93630952Y-58809523D01*
X93440476Y-58761904D01*
X93345238Y-58714285D01*
X93250000Y-58619047D01*
X93202380Y-58476190D01*
X93202380Y-58380952D01*
X93250000Y-58238095D01*
X93297619Y-58190476D01*
X94202380Y-57238095D02*
X94202380Y-57809523D01*
X94202380Y-57523809D02*
X93202380Y-57523809D01*
X93345238Y-57619047D01*
X93440476Y-57714285D01*
X93488095Y-57809523D01*
%TO.C,R5*%
X74233333Y-102202380D02*
X73900000Y-101726190D01*
X73661904Y-102202380D02*
X73661904Y-101202380D01*
X74042857Y-101202380D01*
X74138095Y-101250000D01*
X74185714Y-101297619D01*
X74233333Y-101392857D01*
X74233333Y-101535714D01*
X74185714Y-101630952D01*
X74138095Y-101678571D01*
X74042857Y-101726190D01*
X73661904Y-101726190D01*
X75138095Y-101202380D02*
X74661904Y-101202380D01*
X74614285Y-101678571D01*
X74661904Y-101630952D01*
X74757142Y-101583333D01*
X74995238Y-101583333D01*
X75090476Y-101630952D01*
X75138095Y-101678571D01*
X75185714Y-101773809D01*
X75185714Y-102011904D01*
X75138095Y-102107142D01*
X75090476Y-102154761D01*
X74995238Y-102202380D01*
X74757142Y-102202380D01*
X74661904Y-102154761D01*
X74614285Y-102107142D01*
%TO.C,R1*%
X80622380Y-142166666D02*
X80146190Y-142500000D01*
X80622380Y-142738095D02*
X79622380Y-142738095D01*
X79622380Y-142357142D01*
X79670000Y-142261904D01*
X79717619Y-142214285D01*
X79812857Y-142166666D01*
X79955714Y-142166666D01*
X80050952Y-142214285D01*
X80098571Y-142261904D01*
X80146190Y-142357142D01*
X80146190Y-142738095D01*
X80622380Y-141214285D02*
X80622380Y-141785714D01*
X80622380Y-141500000D02*
X79622380Y-141500000D01*
X79765238Y-141595238D01*
X79860476Y-141690476D01*
X79908095Y-141785714D01*
%TO.C,H4*%
X133488095Y-45452380D02*
X133488095Y-44452380D01*
X133488095Y-44928571D02*
X134059523Y-44928571D01*
X134059523Y-45452380D02*
X134059523Y-44452380D01*
X134964285Y-44785714D02*
X134964285Y-45452380D01*
X134726190Y-44404761D02*
X134488095Y-45119047D01*
X135107142Y-45119047D01*
%TO.C,D4*%
X122492380Y-148968095D02*
X121492380Y-148968095D01*
X121492380Y-148730000D01*
X121540000Y-148587142D01*
X121635238Y-148491904D01*
X121730476Y-148444285D01*
X121920952Y-148396666D01*
X122063809Y-148396666D01*
X122254285Y-148444285D01*
X122349523Y-148491904D01*
X122444761Y-148587142D01*
X122492380Y-148730000D01*
X122492380Y-148968095D01*
X121825714Y-147539523D02*
X122492380Y-147539523D01*
X121444761Y-147777619D02*
X122159047Y-148015714D01*
X122159047Y-147396666D01*
%TO.C,SW3*%
X108595238Y-129166666D02*
X108547619Y-129309523D01*
X108547619Y-129547619D01*
X108595238Y-129642857D01*
X108642857Y-129690476D01*
X108738095Y-129738095D01*
X108833333Y-129738095D01*
X108928571Y-129690476D01*
X108976190Y-129642857D01*
X109023809Y-129547619D01*
X109071428Y-129357142D01*
X109119047Y-129261904D01*
X109166666Y-129214285D01*
X109261904Y-129166666D01*
X109357142Y-129166666D01*
X109452380Y-129214285D01*
X109500000Y-129261904D01*
X109547619Y-129357142D01*
X109547619Y-129595238D01*
X109500000Y-129738095D01*
X109547619Y-130071428D02*
X108547619Y-130309523D01*
X109261904Y-130500000D01*
X108547619Y-130690476D01*
X109547619Y-130928571D01*
X109547619Y-131214285D02*
X109547619Y-131833333D01*
X109166666Y-131500000D01*
X109166666Y-131642857D01*
X109119047Y-131738095D01*
X109071428Y-131785714D01*
X108976190Y-131833333D01*
X108738095Y-131833333D01*
X108642857Y-131785714D01*
X108595238Y-131738095D01*
X108547619Y-131642857D01*
X108547619Y-131357142D01*
X108595238Y-131261904D01*
X108642857Y-131214285D01*
%TO.C,U2*%
X125100595Y-103902380D02*
X125100595Y-104711904D01*
X125148214Y-104807142D01*
X125195833Y-104854761D01*
X125291071Y-104902380D01*
X125481547Y-104902380D01*
X125576785Y-104854761D01*
X125624404Y-104807142D01*
X125672023Y-104711904D01*
X125672023Y-103902380D01*
X126100595Y-103997619D02*
X126148214Y-103950000D01*
X126243452Y-103902380D01*
X126481547Y-103902380D01*
X126576785Y-103950000D01*
X126624404Y-103997619D01*
X126672023Y-104092857D01*
X126672023Y-104188095D01*
X126624404Y-104330952D01*
X126052976Y-104902380D01*
X126672023Y-104902380D01*
%TO.C,C2*%
X96407142Y-101666666D02*
X96454761Y-101714285D01*
X96502380Y-101857142D01*
X96502380Y-101952380D01*
X96454761Y-102095238D01*
X96359523Y-102190476D01*
X96264285Y-102238095D01*
X96073809Y-102285714D01*
X95930952Y-102285714D01*
X95740476Y-102238095D01*
X95645238Y-102190476D01*
X95550000Y-102095238D01*
X95502380Y-101952380D01*
X95502380Y-101857142D01*
X95550000Y-101714285D01*
X95597619Y-101666666D01*
X95597619Y-101285714D02*
X95550000Y-101238095D01*
X95502380Y-101142857D01*
X95502380Y-100904761D01*
X95550000Y-100809523D01*
X95597619Y-100761904D01*
X95692857Y-100714285D01*
X95788095Y-100714285D01*
X95930952Y-100761904D01*
X96502380Y-101333333D01*
X96502380Y-100714285D01*
%TO.C,R2*%
X93122380Y-142166666D02*
X92646190Y-142500000D01*
X93122380Y-142738095D02*
X92122380Y-142738095D01*
X92122380Y-142357142D01*
X92170000Y-142261904D01*
X92217619Y-142214285D01*
X92312857Y-142166666D01*
X92455714Y-142166666D01*
X92550952Y-142214285D01*
X92598571Y-142261904D01*
X92646190Y-142357142D01*
X92646190Y-142738095D01*
X92217619Y-141785714D02*
X92170000Y-141738095D01*
X92122380Y-141642857D01*
X92122380Y-141404761D01*
X92170000Y-141309523D01*
X92217619Y-141261904D01*
X92312857Y-141214285D01*
X92408095Y-141214285D01*
X92550952Y-141261904D01*
X93122380Y-141833333D01*
X93122380Y-141214285D01*
%TO.C,H1*%
X137238095Y-163252380D02*
X137238095Y-162252380D01*
X137238095Y-162728571D02*
X137809523Y-162728571D01*
X137809523Y-163252380D02*
X137809523Y-162252380D01*
X138809523Y-163252380D02*
X138238095Y-163252380D01*
X138523809Y-163252380D02*
X138523809Y-162252380D01*
X138428571Y-162395238D01*
X138333333Y-162490476D01*
X138238095Y-162538095D01*
%TO.C,D3*%
X109992380Y-148968095D02*
X108992380Y-148968095D01*
X108992380Y-148730000D01*
X109040000Y-148587142D01*
X109135238Y-148491904D01*
X109230476Y-148444285D01*
X109420952Y-148396666D01*
X109563809Y-148396666D01*
X109754285Y-148444285D01*
X109849523Y-148491904D01*
X109944761Y-148587142D01*
X109992380Y-148730000D01*
X109992380Y-148968095D01*
X108992380Y-148063333D02*
X108992380Y-147444285D01*
X109373333Y-147777619D01*
X109373333Y-147634761D01*
X109420952Y-147539523D01*
X109468571Y-147491904D01*
X109563809Y-147444285D01*
X109801904Y-147444285D01*
X109897142Y-147491904D01*
X109944761Y-147539523D01*
X109992380Y-147634761D01*
X109992380Y-147920476D01*
X109944761Y-148015714D01*
X109897142Y-148063333D01*
%TO.C,SW1*%
X78595238Y-129166666D02*
X78547619Y-129309523D01*
X78547619Y-129547619D01*
X78595238Y-129642857D01*
X78642857Y-129690476D01*
X78738095Y-129738095D01*
X78833333Y-129738095D01*
X78928571Y-129690476D01*
X78976190Y-129642857D01*
X79023809Y-129547619D01*
X79071428Y-129357142D01*
X79119047Y-129261904D01*
X79166666Y-129214285D01*
X79261904Y-129166666D01*
X79357142Y-129166666D01*
X79452380Y-129214285D01*
X79500000Y-129261904D01*
X79547619Y-129357142D01*
X79547619Y-129595238D01*
X79500000Y-129738095D01*
X79547619Y-130071428D02*
X78547619Y-130309523D01*
X79261904Y-130500000D01*
X78547619Y-130690476D01*
X79547619Y-130928571D01*
X78547619Y-131833333D02*
X78547619Y-131261904D01*
X78547619Y-131547619D02*
X79547619Y-131547619D01*
X79404761Y-131452380D01*
X79309523Y-131357142D01*
X79261904Y-131261904D01*
%TO.C,H2*%
X72988095Y-45452380D02*
X72988095Y-44452380D01*
X72988095Y-44928571D02*
X73559523Y-44928571D01*
X73559523Y-45452380D02*
X73559523Y-44452380D01*
X73988095Y-44547619D02*
X74035714Y-44500000D01*
X74130952Y-44452380D01*
X74369047Y-44452380D01*
X74464285Y-44500000D01*
X74511904Y-44547619D01*
X74559523Y-44642857D01*
X74559523Y-44738095D01*
X74511904Y-44880952D01*
X73940476Y-45452380D01*
X74559523Y-45452380D01*
%TO.C,C7*%
X104723333Y-112457142D02*
X104675714Y-112504761D01*
X104532857Y-112552380D01*
X104437619Y-112552380D01*
X104294761Y-112504761D01*
X104199523Y-112409523D01*
X104151904Y-112314285D01*
X104104285Y-112123809D01*
X104104285Y-111980952D01*
X104151904Y-111790476D01*
X104199523Y-111695238D01*
X104294761Y-111600000D01*
X104437619Y-111552380D01*
X104532857Y-111552380D01*
X104675714Y-111600000D01*
X104723333Y-111647619D01*
X105056666Y-111552380D02*
X105723333Y-111552380D01*
X105294761Y-112552380D01*
%TO.C,J2*%
X137066666Y-98222380D02*
X137066666Y-98936666D01*
X137019047Y-99079523D01*
X136923809Y-99174761D01*
X136780952Y-99222380D01*
X136685714Y-99222380D01*
X137495238Y-98317619D02*
X137542857Y-98270000D01*
X137638095Y-98222380D01*
X137876190Y-98222380D01*
X137971428Y-98270000D01*
X138019047Y-98317619D01*
X138066666Y-98412857D01*
X138066666Y-98508095D01*
X138019047Y-98650952D01*
X137447619Y-99222380D01*
X138066666Y-99222380D01*
%TO.C,ENC0*%
X93678571Y-88214285D02*
X93678571Y-87880952D01*
X94202380Y-87738095D02*
X94202380Y-88214285D01*
X93202380Y-88214285D01*
X93202380Y-87738095D01*
X94202380Y-87309523D02*
X93202380Y-87309523D01*
X94202380Y-86738095D01*
X93202380Y-86738095D01*
X94107142Y-85690476D02*
X94154761Y-85738095D01*
X94202380Y-85880952D01*
X94202380Y-85976190D01*
X94154761Y-86119047D01*
X94059523Y-86214285D01*
X93964285Y-86261904D01*
X93773809Y-86309523D01*
X93630952Y-86309523D01*
X93440476Y-86261904D01*
X93345238Y-86214285D01*
X93250000Y-86119047D01*
X93202380Y-85976190D01*
X93202380Y-85880952D01*
X93250000Y-85738095D01*
X93297619Y-85690476D01*
X93202380Y-85071428D02*
X93202380Y-84976190D01*
X93250000Y-84880952D01*
X93297619Y-84833333D01*
X93392857Y-84785714D01*
X93583333Y-84738095D01*
X93821428Y-84738095D01*
X94011904Y-84785714D01*
X94107142Y-84833333D01*
X94154761Y-84880952D01*
X94202380Y-84976190D01*
X94202380Y-85071428D01*
X94154761Y-85166666D01*
X94107142Y-85214285D01*
X94011904Y-85261904D01*
X93821428Y-85309523D01*
X93583333Y-85309523D01*
X93392857Y-85261904D01*
X93297619Y-85214285D01*
X93250000Y-85166666D01*
X93202380Y-85071428D01*
%TO.C,C8*%
X95757142Y-96666666D02*
X95804761Y-96714285D01*
X95852380Y-96857142D01*
X95852380Y-96952380D01*
X95804761Y-97095238D01*
X95709523Y-97190476D01*
X95614285Y-97238095D01*
X95423809Y-97285714D01*
X95280952Y-97285714D01*
X95090476Y-97238095D01*
X94995238Y-97190476D01*
X94900000Y-97095238D01*
X94852380Y-96952380D01*
X94852380Y-96857142D01*
X94900000Y-96714285D01*
X94947619Y-96666666D01*
X95280952Y-96095238D02*
X95233333Y-96190476D01*
X95185714Y-96238095D01*
X95090476Y-96285714D01*
X95042857Y-96285714D01*
X94947619Y-96238095D01*
X94900000Y-96190476D01*
X94852380Y-96095238D01*
X94852380Y-95904761D01*
X94900000Y-95809523D01*
X94947619Y-95761904D01*
X95042857Y-95714285D01*
X95090476Y-95714285D01*
X95185714Y-95761904D01*
X95233333Y-95809523D01*
X95280952Y-95904761D01*
X95280952Y-96095238D01*
X95328571Y-96190476D01*
X95376190Y-96238095D01*
X95471428Y-96285714D01*
X95661904Y-96285714D01*
X95757142Y-96238095D01*
X95804761Y-96190476D01*
X95852380Y-96095238D01*
X95852380Y-95904761D01*
X95804761Y-95809523D01*
X95757142Y-95761904D01*
X95661904Y-95714285D01*
X95471428Y-95714285D01*
X95376190Y-95761904D01*
X95328571Y-95809523D01*
X95280952Y-95904761D01*
%TO.C,C11*%
X93157142Y-101767857D02*
X93204761Y-101815476D01*
X93252380Y-101958333D01*
X93252380Y-102053571D01*
X93204761Y-102196428D01*
X93109523Y-102291666D01*
X93014285Y-102339285D01*
X92823809Y-102386904D01*
X92680952Y-102386904D01*
X92490476Y-102339285D01*
X92395238Y-102291666D01*
X92300000Y-102196428D01*
X92252380Y-102053571D01*
X92252380Y-101958333D01*
X92300000Y-101815476D01*
X92347619Y-101767857D01*
X93252380Y-100815476D02*
X93252380Y-101386904D01*
X93252380Y-101101190D02*
X92252380Y-101101190D01*
X92395238Y-101196428D01*
X92490476Y-101291666D01*
X92538095Y-101386904D01*
X93252380Y-99863095D02*
X93252380Y-100434523D01*
X93252380Y-100148809D02*
X92252380Y-100148809D01*
X92395238Y-100244047D01*
X92490476Y-100339285D01*
X92538095Y-100434523D01*
%TO.C,H3*%
X68238095Y-164252380D02*
X68238095Y-163252380D01*
X68238095Y-163728571D02*
X68809523Y-163728571D01*
X68809523Y-164252380D02*
X68809523Y-163252380D01*
X69190476Y-163252380D02*
X69809523Y-163252380D01*
X69476190Y-163633333D01*
X69619047Y-163633333D01*
X69714285Y-163680952D01*
X69761904Y-163728571D01*
X69809523Y-163823809D01*
X69809523Y-164061904D01*
X69761904Y-164157142D01*
X69714285Y-164204761D01*
X69619047Y-164252380D01*
X69333333Y-164252380D01*
X69238095Y-164204761D01*
X69190476Y-164157142D01*
%TO.C,R3*%
X110622380Y-142166666D02*
X110146190Y-142500000D01*
X110622380Y-142738095D02*
X109622380Y-142738095D01*
X109622380Y-142357142D01*
X109670000Y-142261904D01*
X109717619Y-142214285D01*
X109812857Y-142166666D01*
X109955714Y-142166666D01*
X110050952Y-142214285D01*
X110098571Y-142261904D01*
X110146190Y-142357142D01*
X110146190Y-142738095D01*
X109622380Y-141833333D02*
X109622380Y-141214285D01*
X110003333Y-141547619D01*
X110003333Y-141404761D01*
X110050952Y-141309523D01*
X110098571Y-141261904D01*
X110193809Y-141214285D01*
X110431904Y-141214285D01*
X110527142Y-141261904D01*
X110574761Y-141309523D01*
X110622380Y-141404761D01*
X110622380Y-141690476D01*
X110574761Y-141785714D01*
X110527142Y-141833333D01*
%TO.C,SW4*%
X120595238Y-129166666D02*
X120547619Y-129309523D01*
X120547619Y-129547619D01*
X120595238Y-129642857D01*
X120642857Y-129690476D01*
X120738095Y-129738095D01*
X120833333Y-129738095D01*
X120928571Y-129690476D01*
X120976190Y-129642857D01*
X121023809Y-129547619D01*
X121071428Y-129357142D01*
X121119047Y-129261904D01*
X121166666Y-129214285D01*
X121261904Y-129166666D01*
X121357142Y-129166666D01*
X121452380Y-129214285D01*
X121500000Y-129261904D01*
X121547619Y-129357142D01*
X121547619Y-129595238D01*
X121500000Y-129738095D01*
X121547619Y-130071428D02*
X120547619Y-130309523D01*
X121261904Y-130500000D01*
X120547619Y-130690476D01*
X121547619Y-130928571D01*
X121214285Y-131738095D02*
X120547619Y-131738095D01*
X121595238Y-131500000D02*
X120880952Y-131261904D01*
X120880952Y-131880952D01*
%TO.C,C9*%
X96757142Y-96721666D02*
X96804761Y-96769285D01*
X96852380Y-96912142D01*
X96852380Y-97007380D01*
X96804761Y-97150238D01*
X96709523Y-97245476D01*
X96614285Y-97293095D01*
X96423809Y-97340714D01*
X96280952Y-97340714D01*
X96090476Y-97293095D01*
X95995238Y-97245476D01*
X95900000Y-97150238D01*
X95852380Y-97007380D01*
X95852380Y-96912142D01*
X95900000Y-96769285D01*
X95947619Y-96721666D01*
X96852380Y-96245476D02*
X96852380Y-96055000D01*
X96804761Y-95959761D01*
X96757142Y-95912142D01*
X96614285Y-95816904D01*
X96423809Y-95769285D01*
X96042857Y-95769285D01*
X95947619Y-95816904D01*
X95900000Y-95864523D01*
X95852380Y-95959761D01*
X95852380Y-96150238D01*
X95900000Y-96245476D01*
X95947619Y-96293095D01*
X96042857Y-96340714D01*
X96280952Y-96340714D01*
X96376190Y-96293095D01*
X96423809Y-96245476D01*
X96471428Y-96150238D01*
X96471428Y-95959761D01*
X96423809Y-95864523D01*
X96376190Y-95816904D01*
X96280952Y-95769285D01*
%TO.C,D1*%
X79992380Y-148968095D02*
X78992380Y-148968095D01*
X78992380Y-148730000D01*
X79040000Y-148587142D01*
X79135238Y-148491904D01*
X79230476Y-148444285D01*
X79420952Y-148396666D01*
X79563809Y-148396666D01*
X79754285Y-148444285D01*
X79849523Y-148491904D01*
X79944761Y-148587142D01*
X79992380Y-148730000D01*
X79992380Y-148968095D01*
X79992380Y-147444285D02*
X79992380Y-148015714D01*
X79992380Y-147730000D02*
X78992380Y-147730000D01*
X79135238Y-147825238D01*
X79230476Y-147920476D01*
X79278095Y-148015714D01*
%TO.C,C3*%
X110157142Y-106746666D02*
X110204761Y-106794285D01*
X110252380Y-106937142D01*
X110252380Y-107032380D01*
X110204761Y-107175238D01*
X110109523Y-107270476D01*
X110014285Y-107318095D01*
X109823809Y-107365714D01*
X109680952Y-107365714D01*
X109490476Y-107318095D01*
X109395238Y-107270476D01*
X109300000Y-107175238D01*
X109252380Y-107032380D01*
X109252380Y-106937142D01*
X109300000Y-106794285D01*
X109347619Y-106746666D01*
X109252380Y-106413333D02*
X109252380Y-105794285D01*
X109633333Y-106127619D01*
X109633333Y-105984761D01*
X109680952Y-105889523D01*
X109728571Y-105841904D01*
X109823809Y-105794285D01*
X110061904Y-105794285D01*
X110157142Y-105841904D01*
X110204761Y-105889523D01*
X110252380Y-105984761D01*
X110252380Y-106270476D01*
X110204761Y-106365714D01*
X110157142Y-106413333D01*
%TO.C,SW2*%
X90595238Y-129166666D02*
X90547619Y-129309523D01*
X90547619Y-129547619D01*
X90595238Y-129642857D01*
X90642857Y-129690476D01*
X90738095Y-129738095D01*
X90833333Y-129738095D01*
X90928571Y-129690476D01*
X90976190Y-129642857D01*
X91023809Y-129547619D01*
X91071428Y-129357142D01*
X91119047Y-129261904D01*
X91166666Y-129214285D01*
X91261904Y-129166666D01*
X91357142Y-129166666D01*
X91452380Y-129214285D01*
X91500000Y-129261904D01*
X91547619Y-129357142D01*
X91547619Y-129595238D01*
X91500000Y-129738095D01*
X91547619Y-130071428D02*
X90547619Y-130309523D01*
X91261904Y-130500000D01*
X90547619Y-130690476D01*
X91547619Y-130928571D01*
X91452380Y-131261904D02*
X91500000Y-131309523D01*
X91547619Y-131404761D01*
X91547619Y-131642857D01*
X91500000Y-131738095D01*
X91452380Y-131785714D01*
X91357142Y-131833333D01*
X91261904Y-131833333D01*
X91119047Y-131785714D01*
X90547619Y-131214285D01*
X90547619Y-131833333D01*
%TO.C,C1*%
X95157142Y-101611666D02*
X95204761Y-101659285D01*
X95252380Y-101802142D01*
X95252380Y-101897380D01*
X95204761Y-102040238D01*
X95109523Y-102135476D01*
X95014285Y-102183095D01*
X94823809Y-102230714D01*
X94680952Y-102230714D01*
X94490476Y-102183095D01*
X94395238Y-102135476D01*
X94300000Y-102040238D01*
X94252380Y-101897380D01*
X94252380Y-101802142D01*
X94300000Y-101659285D01*
X94347619Y-101611666D01*
X95252380Y-100659285D02*
X95252380Y-101230714D01*
X95252380Y-100945000D02*
X94252380Y-100945000D01*
X94395238Y-101040238D01*
X94490476Y-101135476D01*
X94538095Y-101230714D01*
%TO.C,ENC2*%
X131178571Y-60714285D02*
X131178571Y-60380952D01*
X131702380Y-60238095D02*
X131702380Y-60714285D01*
X130702380Y-60714285D01*
X130702380Y-60238095D01*
X131702380Y-59809523D02*
X130702380Y-59809523D01*
X131702380Y-59238095D01*
X130702380Y-59238095D01*
X131607142Y-58190476D02*
X131654761Y-58238095D01*
X131702380Y-58380952D01*
X131702380Y-58476190D01*
X131654761Y-58619047D01*
X131559523Y-58714285D01*
X131464285Y-58761904D01*
X131273809Y-58809523D01*
X131130952Y-58809523D01*
X130940476Y-58761904D01*
X130845238Y-58714285D01*
X130750000Y-58619047D01*
X130702380Y-58476190D01*
X130702380Y-58380952D01*
X130750000Y-58238095D01*
X130797619Y-58190476D01*
X130797619Y-57809523D02*
X130750000Y-57761904D01*
X130702380Y-57666666D01*
X130702380Y-57428571D01*
X130750000Y-57333333D01*
X130797619Y-57285714D01*
X130892857Y-57238095D01*
X130988095Y-57238095D01*
X131130952Y-57285714D01*
X131702380Y-57857142D01*
X131702380Y-57238095D01*
D13*
%TO.C,U1*%
X99990000Y-101340000D02*
X99990000Y-100890000D01*
X99990000Y-108110000D02*
X100440000Y-108110000D01*
X107210000Y-101340000D02*
X107210000Y-100890000D01*
X107210000Y-108110000D02*
X106760000Y-108110000D01*
X107210000Y-100890000D02*
X106760000Y-100890000D01*
X107210000Y-107660000D02*
X107210000Y-108110000D01*
X99990000Y-107660000D02*
X99990000Y-108110000D01*
X99990000Y-100890000D02*
X100440000Y-100890000D01*
X100440000Y-108110000D02*
X100440000Y-109400000D01*
%TO.C,J1*%
X69670000Y-101690000D02*
X71000000Y-101690000D01*
X69670000Y-103020000D02*
X69670000Y-101690000D01*
X69670000Y-104290000D02*
X69670000Y-117050000D01*
X69670000Y-104290000D02*
X72330000Y-104290000D01*
X72330000Y-104290000D02*
X72330000Y-117050000D01*
X69670000Y-117050000D02*
X72330000Y-117050000D01*
%TO.C,R4*%
X124622500Y-142237258D02*
X124622500Y-141762742D01*
X123577500Y-142237258D02*
X123577500Y-141762742D01*
%TO.C,D2*%
X93040000Y-145670000D02*
X95160000Y-145670000D01*
X93040000Y-150790000D02*
X93040000Y-150580000D01*
X95160000Y-148420000D02*
X95160000Y-147689000D01*
X93040000Y-150670000D02*
X95160000Y-150670000D01*
X95160000Y-146230000D02*
X95160000Y-145670000D01*
X93040000Y-148420000D02*
X93040000Y-147689000D01*
X93040000Y-150790000D02*
X95160000Y-150790000D01*
X95160000Y-150790000D02*
X95160000Y-150580000D01*
X93040000Y-146230000D02*
X93040000Y-145670000D01*
%TO.C,ENC3*%
X120600000Y-92800000D02*
X115550000Y-92800000D01*
X129150000Y-90100000D02*
X129150000Y-92800000D01*
X115550000Y-84750000D02*
X115550000Y-85750000D01*
X115550000Y-80200000D02*
X120600000Y-80200000D01*
X129150000Y-85000000D02*
X129150000Y-88000000D01*
X115550000Y-89800000D02*
X115550000Y-92800000D01*
X115550000Y-87250000D02*
X115550000Y-88250000D01*
X124100000Y-80200000D02*
X129150000Y-80200000D01*
X115550000Y-83200000D02*
X115550000Y-80200000D01*
X129150000Y-92800000D02*
X124100000Y-92800000D01*
X129150000Y-80200000D02*
X129150000Y-83000000D01*
%TO.C,ENC1*%
X78050000Y-59750000D02*
X78050000Y-60750000D01*
X91650000Y-57500000D02*
X91650000Y-60500000D01*
X78050000Y-62300000D02*
X78050000Y-65300000D01*
X78050000Y-55700000D02*
X78050000Y-52700000D01*
X78050000Y-52700000D02*
X83100000Y-52700000D01*
X91650000Y-65300000D02*
X86600000Y-65300000D01*
X91650000Y-62600000D02*
X91650000Y-65300000D01*
X83100000Y-65300000D02*
X78050000Y-65300000D01*
X91650000Y-52700000D02*
X91650000Y-55500000D01*
X86600000Y-52700000D02*
X91650000Y-52700000D01*
X78050000Y-57250000D02*
X78050000Y-58250000D01*
%TO.C,R5*%
X74637258Y-103622500D02*
X74162742Y-103622500D01*
X74637258Y-102577500D02*
X74162742Y-102577500D01*
%TO.C,R1*%
X81077500Y-142237258D02*
X81077500Y-141762742D01*
X82122500Y-142237258D02*
X82122500Y-141762742D01*
%TO.C,D4*%
X125160000Y-146230000D02*
X125160000Y-145670000D01*
X125160000Y-150790000D02*
X125160000Y-150580000D01*
X125160000Y-148420000D02*
X125160000Y-147689000D01*
X123040000Y-150670000D02*
X125160000Y-150670000D01*
X123040000Y-145670000D02*
X125160000Y-145670000D01*
X123040000Y-146230000D02*
X123040000Y-145670000D01*
X123040000Y-150790000D02*
X123040000Y-150580000D01*
X123040000Y-150790000D02*
X125160000Y-150790000D01*
X123040000Y-148420000D02*
X123040000Y-147689000D01*
%TO.C,U2*%
X125862500Y-103610000D02*
X125062500Y-103610000D01*
X125862500Y-103610000D02*
X127662500Y-103610000D01*
X125862500Y-100490000D02*
X125062500Y-100490000D01*
X125862500Y-100490000D02*
X126662500Y-100490000D01*
%TO.C,R2*%
X93577500Y-142237258D02*
X93577500Y-141762742D01*
X94622500Y-142237258D02*
X94622500Y-141762742D01*
%TO.C,D3*%
X110540000Y-150790000D02*
X112660000Y-150790000D01*
X112660000Y-150790000D02*
X112660000Y-150580000D01*
X112660000Y-148420000D02*
X112660000Y-147689000D01*
X110540000Y-148420000D02*
X110540000Y-147689000D01*
X110540000Y-150790000D02*
X110540000Y-150580000D01*
X110540000Y-145670000D02*
X112660000Y-145670000D01*
X112660000Y-146230000D02*
X112660000Y-145670000D01*
X110540000Y-146230000D02*
X110540000Y-145670000D01*
X110540000Y-150670000D02*
X112660000Y-150670000D01*
%TO.C,J2*%
X136070000Y-99770000D02*
X137400000Y-99770000D01*
X136070000Y-102370000D02*
X138730000Y-102370000D01*
X138730000Y-102370000D02*
X138730000Y-110050000D01*
X136070000Y-110050000D02*
X138730000Y-110050000D01*
X136070000Y-101100000D02*
X136070000Y-99770000D01*
X136070000Y-102370000D02*
X136070000Y-110050000D01*
%TO.C,ENC0*%
X78050000Y-80200000D02*
X83100000Y-80200000D01*
X78050000Y-87250000D02*
X78050000Y-88250000D01*
X91650000Y-80200000D02*
X91650000Y-83000000D01*
X78050000Y-89800000D02*
X78050000Y-92800000D01*
X91650000Y-85000000D02*
X91650000Y-88000000D01*
X91650000Y-90100000D02*
X91650000Y-92800000D01*
X83100000Y-92800000D02*
X78050000Y-92800000D01*
X91650000Y-92800000D02*
X86600000Y-92800000D01*
X78050000Y-84750000D02*
X78050000Y-85750000D01*
X78050000Y-83200000D02*
X78050000Y-80200000D01*
X86600000Y-80200000D02*
X91650000Y-80200000D01*
%TO.C,R3*%
X112122500Y-142237258D02*
X112122500Y-141762742D01*
X111077500Y-142237258D02*
X111077500Y-141762742D01*
%TO.C,D1*%
X80540000Y-150790000D02*
X82660000Y-150790000D01*
X80540000Y-145670000D02*
X82660000Y-145670000D01*
X80540000Y-150790000D02*
X80540000Y-150580000D01*
X80540000Y-148420000D02*
X80540000Y-147689000D01*
X82660000Y-146230000D02*
X82660000Y-145670000D01*
X80540000Y-150670000D02*
X82660000Y-150670000D01*
X80540000Y-146230000D02*
X80540000Y-145670000D01*
X82660000Y-148420000D02*
X82660000Y-147689000D01*
X82660000Y-150790000D02*
X82660000Y-150580000D01*
%TO.C,ENC2*%
X115550000Y-57250000D02*
X115550000Y-58250000D01*
X115550000Y-62300000D02*
X115550000Y-65300000D01*
X129150000Y-62600000D02*
X129150000Y-65300000D01*
X120600000Y-65300000D02*
X115550000Y-65300000D01*
X115550000Y-55700000D02*
X115550000Y-52700000D01*
X129150000Y-52700000D02*
X129150000Y-55500000D01*
X124100000Y-52700000D02*
X129150000Y-52700000D01*
X115550000Y-59750000D02*
X115550000Y-60750000D01*
X115550000Y-52700000D02*
X120600000Y-52700000D01*
X129150000Y-57500000D02*
X129150000Y-60500000D01*
X129150000Y-65300000D02*
X124100000Y-65300000D01*
%TD*%
M02*
