%TF.GenerationSoftware,KiCad,Pcbnew,(6.0.11)*%
%TF.CreationDate,2023-04-05T13:23:01-07:00*%
%TF.ProjectId,IOBoard_ATSAMD21,494f426f-6172-4645-9f41-5453414d4432,rev?*%
%TF.SameCoordinates,Original*%
%TF.FileFunction,Paste,Top*%
%TF.FilePolarity,Positive*%
%FSLAX46Y46*%
G04 Gerber Fmt 4.6, Leading zero omitted, Abs format (unit mm)*
G04 Created by KiCad (PCBNEW (6.0.11)) date 2023-04-05 13:23:01*
%MOMM*%
%LPD*%
G01*
G04 APERTURE LIST*
G04 Aperture macros list*
%AMRoundRect*
0 Rectangle with rounded corners*
0 $1 Rounding radius*
0 $2 $3 $4 $5 $6 $7 $8 $9 X,Y pos of 4 corners*
0 Add a 4 corners polygon primitive as box body*
4,1,4,$2,$3,$4,$5,$6,$7,$8,$9,$2,$3,0*
0 Add four circle primitives for the rounded corners*
1,1,$1+$1,$2,$3*
1,1,$1+$1,$4,$5*
1,1,$1+$1,$6,$7*
1,1,$1+$1,$8,$9*
0 Add four rect primitives between the rounded corners*
20,1,$1+$1,$2,$3,$4,$5,0*
20,1,$1+$1,$4,$5,$6,$7,0*
20,1,$1+$1,$6,$7,$8,$9,0*
20,1,$1+$1,$8,$9,$2,$3,0*%
G04 Aperture macros list end*
%ADD10RoundRect,0.200000X0.275000X-0.200000X0.275000X0.200000X-0.275000X0.200000X-0.275000X-0.200000X0*%
%ADD11RoundRect,0.075000X0.075000X-0.662500X0.075000X0.662500X-0.075000X0.662500X-0.075000X-0.662500X0*%
%ADD12RoundRect,0.075000X0.662500X-0.075000X0.662500X0.075000X-0.662500X0.075000X-0.662500X-0.075000X0*%
%ADD13RoundRect,0.225000X-0.250000X0.225000X-0.250000X-0.225000X0.250000X-0.225000X0.250000X0.225000X0*%
%ADD14RoundRect,0.225000X-0.225000X-0.250000X0.225000X-0.250000X0.225000X0.250000X-0.225000X0.250000X0*%
%ADD15RoundRect,0.225000X0.225000X0.250000X-0.225000X0.250000X-0.225000X-0.250000X0.225000X-0.250000X0*%
%ADD16RoundRect,0.225000X0.250000X-0.225000X0.250000X0.225000X-0.250000X0.225000X-0.250000X-0.225000X0*%
%ADD17RoundRect,0.200000X0.200000X0.275000X-0.200000X0.275000X-0.200000X-0.275000X0.200000X-0.275000X0*%
%ADD18RoundRect,0.150000X0.512500X0.150000X-0.512500X0.150000X-0.512500X-0.150000X0.512500X-0.150000X0*%
G04 APERTURE END LIST*
D10*
%TO.C,R4*%
X110960000Y-167665000D03*
X110960000Y-166015000D03*
%TD*%
D11*
%TO.C,U1*%
X85350000Y-120202500D03*
X85850000Y-120202500D03*
X86350000Y-120202500D03*
X86850000Y-120202500D03*
X87350000Y-120202500D03*
X87850000Y-120202500D03*
X88350000Y-120202500D03*
X88850000Y-120202500D03*
X89350000Y-120202500D03*
X89850000Y-120202500D03*
X90350000Y-120202500D03*
X90850000Y-120202500D03*
D12*
X92262500Y-118790000D03*
X92262500Y-118290000D03*
X92262500Y-117790000D03*
X92262500Y-117290000D03*
X92262500Y-116790000D03*
X92262500Y-116290000D03*
X92262500Y-115790000D03*
X92262500Y-115290000D03*
X92262500Y-114790000D03*
X92262500Y-114290000D03*
X92262500Y-113790000D03*
X92262500Y-113290000D03*
D11*
X90850000Y-111877500D03*
X90350000Y-111877500D03*
X89850000Y-111877500D03*
X89350000Y-111877500D03*
X88850000Y-111877500D03*
X88350000Y-111877500D03*
X87850000Y-111877500D03*
X87350000Y-111877500D03*
X86850000Y-111877500D03*
X86350000Y-111877500D03*
X85850000Y-111877500D03*
X85350000Y-111877500D03*
D12*
X83937500Y-113290000D03*
X83937500Y-113790000D03*
X83937500Y-114290000D03*
X83937500Y-114790000D03*
X83937500Y-115290000D03*
X83937500Y-115790000D03*
X83937500Y-116290000D03*
X83937500Y-116790000D03*
X83937500Y-117290000D03*
X83937500Y-117790000D03*
X83937500Y-118290000D03*
X83937500Y-118790000D03*
%TD*%
D13*
%TO.C,C5*%
X116124000Y-116040000D03*
X116124000Y-117590000D03*
%TD*%
D10*
%TO.C,R2*%
X80480000Y-167665000D03*
X80480000Y-166015000D03*
%TD*%
D14*
%TO.C,C7*%
X86817000Y-123152000D03*
X88367000Y-123152000D03*
%TD*%
D13*
%TO.C,C11*%
X76924000Y-113741000D03*
X76924000Y-115291000D03*
%TD*%
D15*
%TO.C,C6*%
X88367000Y-125076000D03*
X86817000Y-125076000D03*
%TD*%
D16*
%TO.C,C3*%
X98260000Y-116815000D03*
X98260000Y-115265000D03*
%TD*%
D17*
%TO.C,R5*%
X63355000Y-113500000D03*
X61705000Y-113500000D03*
%TD*%
D13*
%TO.C,C1*%
X80988000Y-113741000D03*
X80988000Y-115291000D03*
%TD*%
D10*
%TO.C,R1*%
X65240000Y-167665000D03*
X65240000Y-166015000D03*
%TD*%
%TO.C,R3*%
X95720000Y-167665000D03*
X95720000Y-166015000D03*
%TD*%
D13*
%TO.C,C4*%
X96228000Y-115265000D03*
X96228000Y-116815000D03*
%TD*%
D16*
%TO.C,C10*%
X75000000Y-115291000D03*
X75000000Y-113741000D03*
%TD*%
D13*
%TO.C,C2*%
X78956000Y-113741000D03*
X78956000Y-115291000D03*
%TD*%
D14*
%TO.C,C9*%
X82245000Y-110452000D03*
X83795000Y-110452000D03*
%TD*%
D18*
%TO.C,U2*%
X109557500Y-116990000D03*
X109557500Y-116040000D03*
X109557500Y-115090000D03*
X107282500Y-115090000D03*
X107282500Y-116990000D03*
%TD*%
D15*
%TO.C,C8*%
X83795000Y-108928000D03*
X82245000Y-108928000D03*
%TD*%
M02*
