%TF.GenerationSoftware,KiCad,Pcbnew,(6.0.11)*%
%TF.CreationDate,2023-04-05T13:23:01-07:00*%
%TF.ProjectId,IOBoard_ATSAMD21,494f426f-6172-4645-9f41-5453414d4432,rev?*%
%TF.SameCoordinates,Original*%
%TF.FileFunction,Soldermask,Bot*%
%TF.FilePolarity,Negative*%
%FSLAX46Y46*%
G04 Gerber Fmt 4.6, Leading zero omitted, Abs format (unit mm)*
G04 Created by KiCad (PCBNEW (6.0.11)) date 2023-04-05 13:23:01*
%MOMM*%
%LPD*%
G01*
G04 APERTURE LIST*
%ADD10C,5.000000*%
%ADD11C,1.650000*%
%ADD12R,1.800000X1.800000*%
%ADD13C,1.800000*%
%ADD14O,3.600000X3.100000*%
%ADD15R,1.700000X1.700000*%
%ADD16O,1.700000X1.700000*%
%ADD17C,1.600000*%
G04 APERTURE END LIST*
D10*
%TO.C,H2*%
X118410000Y-53000000D03*
%TD*%
D11*
%TO.C,SW2*%
X80480000Y-141440000D03*
X80480000Y-138940000D03*
X80480000Y-143940000D03*
%TD*%
D12*
%TO.C,D1*%
X65240000Y-161880000D03*
D13*
X65240000Y-159340000D03*
%TD*%
D11*
%TO.C,ENC3*%
X98380000Y-88140000D03*
X98380000Y-93140000D03*
X98380000Y-90640000D03*
X112880000Y-88140000D03*
X112880000Y-93140000D03*
D14*
X105880000Y-97240000D03*
X105880000Y-84040000D03*
%TD*%
D15*
%TO.C,J1*%
X55080000Y-113500000D03*
D16*
X55080000Y-116040000D03*
X55080000Y-118580000D03*
X55080000Y-121120000D03*
X55080000Y-123660000D03*
X55080000Y-126200000D03*
%TD*%
D10*
%TO.C,H4*%
X118410000Y-175500000D03*
%TD*%
D12*
%TO.C,D3*%
X95720000Y-161760000D03*
D13*
X95720000Y-159220000D03*
%TD*%
D12*
%TO.C,D2*%
X80480000Y-161760000D03*
D13*
X80480000Y-159220000D03*
%TD*%
D17*
%TO.C,SW1*%
X65240000Y-141440000D03*
X65240000Y-138940000D03*
X65240000Y-143940000D03*
%TD*%
D15*
%TO.C,J2*%
X121437500Y-116040000D03*
D16*
X121437500Y-118580000D03*
X121437500Y-121120000D03*
X121437500Y-123660000D03*
%TD*%
D11*
%TO.C,ENC0*%
X77820000Y-93140000D03*
X77820000Y-88140000D03*
X77820000Y-90640000D03*
X63320000Y-93140000D03*
X63320000Y-88140000D03*
D14*
X70320000Y-84040000D03*
X70320000Y-97240000D03*
%TD*%
D11*
%TO.C,ENC1*%
X77820000Y-67740000D03*
X77820000Y-62740000D03*
X77820000Y-65240000D03*
X63320000Y-67740000D03*
X63320000Y-62740000D03*
D14*
X70320000Y-71840000D03*
X70320000Y-58640000D03*
%TD*%
D10*
%TO.C,H3*%
X57450000Y-175428000D03*
%TD*%
D11*
%TO.C,SW4*%
X110960000Y-141440000D03*
X110960000Y-138940000D03*
X110960000Y-143940000D03*
%TD*%
%TO.C,SW3*%
X95720000Y-141440000D03*
X95720000Y-138940000D03*
X95720000Y-143940000D03*
%TD*%
D10*
%TO.C,H1*%
X57450000Y-53000000D03*
%TD*%
D12*
%TO.C,D4*%
X110960000Y-161760000D03*
D13*
X110960000Y-159220000D03*
%TD*%
D11*
%TO.C,ENC2*%
X98380000Y-62740000D03*
X98380000Y-67740000D03*
X98380000Y-65240000D03*
X112880000Y-62740000D03*
X112880000Y-67740000D03*
D14*
X105880000Y-71840000D03*
X105880000Y-58640000D03*
%TD*%
M02*
