%TF.GenerationSoftware,KiCad,Pcbnew,7.0.2*%
%TF.CreationDate,2023-05-21T17:51:27-07:00*%
%TF.ProjectId,IOBoard_ATSAMD21,494f426f-6172-4645-9f41-5453414d4432,rev?*%
%TF.SameCoordinates,Original*%
%TF.FileFunction,Copper,L2,Bot*%
%TF.FilePolarity,Positive*%
%FSLAX46Y46*%
G04 Gerber Fmt 4.6, Leading zero omitted, Abs format (unit mm)*
G04 Created by KiCad (PCBNEW 7.0.2) date 2023-05-21 17:51:27*
%MOMM*%
%LPD*%
G01*
G04 APERTURE LIST*
G04 Aperture macros list*
%AMRoundRect*
0 Rectangle with rounded corners*
0 $1 Rounding radius*
0 $2 $3 $4 $5 $6 $7 $8 $9 X,Y pos of 4 corners*
0 Add a 4 corners polygon primitive as box body*
4,1,4,$2,$3,$4,$5,$6,$7,$8,$9,$2,$3,0*
0 Add four circle primitives for the rounded corners*
1,1,$1+$1,$2,$3*
1,1,$1+$1,$4,$5*
1,1,$1+$1,$6,$7*
1,1,$1+$1,$8,$9*
0 Add four rect primitives between the rounded corners*
20,1,$1+$1,$2,$3,$4,$5,0*
20,1,$1+$1,$4,$5,$6,$7,0*
20,1,$1+$1,$6,$7,$8,$9,0*
20,1,$1+$1,$8,$9,$2,$3,0*%
G04 Aperture macros list end*
%TA.AperFunction,ComponentPad*%
%ADD10C,1.524000*%
%TD*%
%TA.AperFunction,ComponentPad*%
%ADD11C,1.650000*%
%TD*%
%TA.AperFunction,ComponentPad*%
%ADD12O,3.600000X3.100000*%
%TD*%
%TA.AperFunction,ComponentPad*%
%ADD13R,1.800000X1.800000*%
%TD*%
%TA.AperFunction,ComponentPad*%
%ADD14C,1.800000*%
%TD*%
%TA.AperFunction,ComponentPad*%
%ADD15R,1.700000X1.700000*%
%TD*%
%TA.AperFunction,ComponentPad*%
%ADD16O,1.700000X1.700000*%
%TD*%
%TA.AperFunction,ComponentPad*%
%ADD17C,2.000000*%
%TD*%
%TA.AperFunction,SMDPad,CuDef*%
%ADD18RoundRect,0.237500X-0.237500X0.287500X-0.237500X-0.287500X0.237500X-0.287500X0.237500X0.287500X0*%
%TD*%
%TA.AperFunction,ViaPad*%
%ADD19C,1.000000*%
%TD*%
%TA.AperFunction,ViaPad*%
%ADD20C,0.800000*%
%TD*%
%TA.AperFunction,Conductor*%
%ADD21C,0.500000*%
%TD*%
%TA.AperFunction,Conductor*%
%ADD22C,1.000000*%
%TD*%
G04 APERTURE END LIST*
D10*
%TO.P,SW3,1*%
%TO.N,+3.3V*%
X95720000Y-109050000D03*
%TO.P,SW3,2*%
%TO.N,/SW2*%
X95720000Y-106550000D03*
%TO.P,SW3,3*%
%TO.N,unconnected-(SW3-Pad3)*%
X95720000Y-111550000D03*
%TD*%
D11*
%TO.P,ENC3,A,A*%
%TO.N,/ENC3_A*%
X98380000Y-86230000D03*
%TO.P,ENC3,B,B*%
%TO.N,/ENC3_B*%
X98380000Y-91230000D03*
%TO.P,ENC3,C,C*%
%TO.N,GNDD*%
X98380000Y-88730000D03*
%TO.P,ENC3,S1,S1*%
%TO.N,+3.3V*%
X112880000Y-86230000D03*
%TO.P,ENC3,S2,S2*%
%TO.N,/ENC3_SW*%
X112880000Y-91230000D03*
D12*
%TO.P,ENC3,SH*%
%TO.N,N/C*%
X105880000Y-82130000D03*
X105880000Y-95330000D03*
%TD*%
D10*
%TO.P,S3,1*%
%TO.N,/CV_out*%
X71630000Y-134450000D03*
%TO.P,S3,2*%
%TO.N,/ADC_in*%
X74130000Y-134450000D03*
%TO.P,S3,3*%
%TO.N,/LL_out*%
X76630000Y-134450000D03*
%TD*%
%TO.P,SW2,1*%
%TO.N,+3.3V*%
X80480000Y-109050000D03*
%TO.P,SW2,2*%
%TO.N,/SW1*%
X80480000Y-106550000D03*
%TO.P,SW2,3*%
%TO.N,unconnected-(SW2-Pad3)*%
X80480000Y-111550000D03*
%TD*%
%TO.P,S2,1*%
%TO.N,Net-(J8-Tip)*%
X67247736Y-153460000D03*
%TO.P,S2,2*%
%TO.N,/CV_in*%
X67247736Y-150960000D03*
%TO.P,S2,3*%
%TO.N,Net-(J7-Tip)*%
X67247736Y-148460000D03*
%TD*%
D13*
%TO.P,D1,1,K*%
%TO.N,Net-(D1-K)*%
X65240000Y-126830000D03*
D14*
%TO.P,D1,2,A*%
%TO.N,/LED0*%
X65240000Y-124290000D03*
%TD*%
D15*
%TO.P,J6,1,Pin_1*%
%TO.N,/LL_in*%
X94704000Y-148928000D03*
D16*
%TO.P,J6,2,Pin_2*%
%TO.N,/LL_out*%
X97244000Y-148928000D03*
%TO.P,J6,3,Pin_3*%
%TO.N,/CV_in*%
X94704000Y-151468000D03*
%TO.P,J6,4,Pin_4*%
%TO.N,/CV_out*%
X97244000Y-151468000D03*
%TO.P,J6,5,Pin_5*%
%TO.N,/DAC_out*%
X94704000Y-154008000D03*
%TO.P,J6,6,Pin_6*%
%TO.N,/Audio_out*%
X97244000Y-154008000D03*
%TD*%
D11*
%TO.P,ENC2,A,A*%
%TO.N,/ENC2_A*%
X98380000Y-65910000D03*
%TO.P,ENC2,B,B*%
%TO.N,/ENC2_B*%
X98380000Y-70910000D03*
%TO.P,ENC2,C,C*%
%TO.N,GNDD*%
X98380000Y-68410000D03*
%TO.P,ENC2,S1,S1*%
%TO.N,+3.3V*%
X112880000Y-65910000D03*
%TO.P,ENC2,S2,S2*%
%TO.N,/ENC2_SW*%
X112880000Y-70910000D03*
D12*
%TO.P,ENC2,SH*%
%TO.N,N/C*%
X105880000Y-61810000D03*
X105880000Y-75010000D03*
%TD*%
D13*
%TO.P,D4,1,K*%
%TO.N,Net-(D4-K)*%
X110960000Y-126830000D03*
D14*
%TO.P,D4,2,A*%
%TO.N,/LED3*%
X110960000Y-124290000D03*
%TD*%
D10*
%TO.P,SW1,1*%
%TO.N,+3.3V*%
X65240000Y-109050000D03*
%TO.P,SW1,2*%
%TO.N,/SW0*%
X65240000Y-106550000D03*
%TO.P,SW1,3*%
%TO.N,unconnected-(SW1-Pad3)*%
X65240000Y-111550000D03*
%TD*%
D17*
%TO.P,J7,S,Sleeve*%
%TO.N,GNDA*%
X60160000Y-148570000D03*
%TO.P,J7,T,Tip*%
%TO.N,Net-(J7-Tip)*%
X60160000Y-137070000D03*
%TO.P,J7,TN,Tip_normalize*%
%TO.N,unconnected-(J7-Tip_normalize-PadTN)*%
X60160000Y-145570000D03*
%TD*%
%TO.P,J4,S,Sleeve*%
%TO.N,GNDA*%
X88100000Y-168890000D03*
%TO.P,J4,T,Tip*%
%TO.N,Net-(J4-Tip)*%
X88100000Y-157390000D03*
%TO.P,J4,TN,Tip_normalize*%
%TO.N,unconnected-(J4-Tip_normalize-PadTN)*%
X88100000Y-165890000D03*
%TD*%
D15*
%TO.P,J5,1,Pin_1*%
%TO.N,VCC*%
X121920000Y-109728000D03*
D16*
%TO.P,J5,2,Pin_2*%
%TO.N,GNDD*%
X121920000Y-112268000D03*
%TO.P,J5,3,Pin_3*%
%TO.N,GNDA*%
X121920000Y-114808000D03*
%TD*%
D13*
%TO.P,D2,1,K*%
%TO.N,Net-(D2-K)*%
X80480000Y-126830000D03*
D14*
%TO.P,D2,2,A*%
%TO.N,/LED1*%
X80480000Y-124290000D03*
%TD*%
D13*
%TO.P,D3,1,K*%
%TO.N,Net-(D3-K)*%
X95720000Y-126830000D03*
D14*
%TO.P,D3,2,A*%
%TO.N,/LED2*%
X95720000Y-124290000D03*
%TD*%
D17*
%TO.P,J10,S,Sleeve*%
%TO.N,GNDA*%
X116040000Y-168890000D03*
%TO.P,J10,T,Tip*%
%TO.N,/Audio_out*%
X116040000Y-157390000D03*
%TO.P,J10,TN,Tip_normalize*%
%TO.N,unconnected-(J10-Tip_normalize-PadTN)*%
X116040000Y-165890000D03*
%TD*%
D11*
%TO.P,ENC1,A,A*%
%TO.N,/ENC1_A*%
X77820000Y-70910000D03*
%TO.P,ENC1,B,B*%
%TO.N,/ENC1_B*%
X77820000Y-65910000D03*
%TO.P,ENC1,C,C*%
%TO.N,GNDD*%
X77820000Y-68410000D03*
%TO.P,ENC1,S1,S1*%
%TO.N,+3.3V*%
X63320000Y-70910000D03*
%TO.P,ENC1,S2,S2*%
%TO.N,/ENC1_SW*%
X63320000Y-65910000D03*
D12*
%TO.P,ENC1,SH*%
%TO.N,N/C*%
X70320000Y-75010000D03*
X70320000Y-61810000D03*
%TD*%
D17*
%TO.P,J8,S,Sleeve*%
%TO.N,GNDA*%
X60160000Y-168890000D03*
%TO.P,J8,T,Tip*%
%TO.N,Net-(J8-Tip)*%
X60160000Y-157390000D03*
%TO.P,J8,TN,Tip_normalize*%
%TO.N,unconnected-(J8-Tip_normalize-PadTN)*%
X60160000Y-165890000D03*
%TD*%
D15*
%TO.P,J11,1,Pin_1*%
%TO.N,/SCL*%
X121882000Y-96858000D03*
D16*
%TO.P,J11,2,Pin_2*%
%TO.N,/SDA*%
X121882000Y-99398000D03*
%TO.P,J11,3,Pin_3*%
%TO.N,/ADC_in*%
X121882000Y-101938000D03*
%TO.P,J11,4,Pin_4*%
%TO.N,/DAC_out*%
X121882000Y-104478000D03*
%TD*%
D10*
%TO.P,S1,1*%
%TO.N,Net-(J4-Tip)*%
X81242000Y-153500000D03*
%TO.P,S1,2*%
%TO.N,/LL_in*%
X81242000Y-151000000D03*
%TO.P,S1,3*%
%TO.N,Net-(J3-Tip)*%
X81242000Y-148500000D03*
%TD*%
D15*
%TO.P,J1,1,~{MCLR}/VPP*%
%TO.N,Net-(J1-~{MCLR}{slash}VPP)*%
X56388000Y-98552000D03*
D16*
%TO.P,J1,2,VDD*%
%TO.N,+3.3V*%
X56388000Y-101092000D03*
%TO.P,J1,3,VSS*%
%TO.N,GNDD*%
X56388000Y-103632000D03*
%TO.P,J1,4,PGD/ICSPDAT*%
%TO.N,/SWCLK*%
X56388000Y-106172000D03*
%TO.P,J1,5,PGC/ICSPCLK*%
%TO.N,/SWDIO*%
X56388000Y-108712000D03*
%TO.P,J1,6,PGM/LVP*%
%TO.N,unconnected-(J1-PGM{slash}LVP-Pad6)*%
X56388000Y-111252000D03*
%TD*%
D17*
%TO.P,J3,S,Sleeve*%
%TO.N,GNDA*%
X88100000Y-148570000D03*
%TO.P,J3,T,Tip*%
%TO.N,Net-(J3-Tip)*%
X88100000Y-137070000D03*
%TO.P,J3,TN,Tip_normalize*%
%TO.N,unconnected-(J3-Tip_normalize-PadTN)*%
X88100000Y-145570000D03*
%TD*%
%TO.P,J2,S,Sleeve*%
%TO.N,GNDA*%
X116040000Y-148570000D03*
%TO.P,J2,T,Tip*%
%TO.N,/Audio_out*%
X116040000Y-137070000D03*
%TO.P,J2,TN,Tip_normalize*%
%TO.N,unconnected-(J2-Tip_normalize-PadTN)*%
X116040000Y-145570000D03*
%TD*%
D11*
%TO.P,ENC0,A,A*%
%TO.N,/ENC0_A*%
X77820000Y-91230000D03*
%TO.P,ENC0,B,B*%
%TO.N,/ENC0_B*%
X77820000Y-86230000D03*
%TO.P,ENC0,C,C*%
%TO.N,GNDD*%
X77820000Y-88730000D03*
%TO.P,ENC0,S1,S1*%
%TO.N,+3.3V*%
X63320000Y-91230000D03*
%TO.P,ENC0,S2,S2*%
%TO.N,/ENC0_SW*%
X63320000Y-86230000D03*
D12*
%TO.P,ENC0,SH*%
%TO.N,N/C*%
X70320000Y-95330000D03*
X70320000Y-82130000D03*
%TD*%
D10*
%TO.P,SW4,1*%
%TO.N,+3.3V*%
X110960000Y-109050000D03*
%TO.P,SW4,2*%
%TO.N,/SW3*%
X110960000Y-106550000D03*
%TO.P,SW4,3*%
%TO.N,unconnected-(SW4-Pad3)*%
X110960000Y-111550000D03*
%TD*%
D18*
%TO.P,FB1,1*%
%TO.N,GNDD*%
X103086000Y-133575000D03*
%TO.P,FB1,2*%
%TO.N,GNDA*%
X103086000Y-135325000D03*
%TD*%
D19*
%TO.N,GNDA*%
X70066000Y-158326000D03*
X73368000Y-166454000D03*
X75400000Y-138926500D03*
D20*
X108458000Y-156718000D03*
D19*
X71336000Y-146388000D03*
%TO.N,+3.3V*%
X110706000Y-115654000D03*
X66002000Y-97366000D03*
X115278000Y-118194000D03*
X68542000Y-102446000D03*
X110706000Y-118194000D03*
X71082000Y-123528000D03*
X115278000Y-115654000D03*
X71082000Y-118702000D03*
X58890000Y-100414000D03*
X93434000Y-99652000D03*
X63970000Y-102700000D03*
X98514000Y-96858000D03*
D20*
%TO.N,VCC*%
X107950000Y-142875000D03*
D19*
%TO.N,GNDD*%
X108458000Y-131064000D03*
X85052000Y-72474000D03*
X65240000Y-133180000D03*
X89370000Y-77300000D03*
X118707000Y-109685000D03*
X97028000Y-132842000D03*
D20*
X86195000Y-90635000D03*
D19*
X86192500Y-78572500D03*
D20*
X95720000Y-77300000D03*
D19*
X82512000Y-130386000D03*
X89370000Y-79840000D03*
X79845000Y-83650000D03*
%TO.N,/DAC_out*%
X124168000Y-148674000D03*
%TD*%
D21*
%TO.N,+3.3V*%
X110706000Y-118194000D02*
X115278000Y-118194000D01*
X93434000Y-99652000D02*
X96228000Y-96858000D01*
X61684000Y-100414000D02*
X63970000Y-102700000D01*
X58890000Y-100414000D02*
X61684000Y-100414000D01*
X115278000Y-115654000D02*
X110706000Y-115654000D01*
X66002000Y-97366000D02*
X66002000Y-99906000D01*
X71082000Y-118702000D02*
X71082000Y-123528000D01*
X96228000Y-96858000D02*
X98514000Y-96858000D01*
X66002000Y-99906000D02*
X68542000Y-102446000D01*
%TO.N,VCC*%
X120377610Y-130447390D02*
X120142000Y-130211780D01*
D22*
X107950000Y-142875000D02*
X120377610Y-130447390D01*
D21*
X120142000Y-130211780D02*
X120142000Y-111506000D01*
X120142000Y-111506000D02*
X121920000Y-109728000D01*
%TO.N,GNDD*%
X124422000Y-112098000D02*
X123914000Y-111590000D01*
X121920000Y-112268000D02*
X122852000Y-111336000D01*
X123406000Y-113114000D02*
X124422000Y-112098000D01*
X122766000Y-113114000D02*
X121920000Y-112268000D01*
X122852000Y-111336000D02*
X123152000Y-111336000D01*
X122766000Y-113114000D02*
X123406000Y-113114000D01*
%TO.N,/LL_in*%
X94704000Y-148928000D02*
X92632000Y-151000000D01*
X92632000Y-151000000D02*
X81242000Y-151000000D01*
%TO.N,/LL_out*%
X93434000Y-145118000D02*
X93434000Y-136736000D01*
X97244000Y-148928000D02*
X93434000Y-145118000D01*
X93434000Y-136736000D02*
X91148000Y-134450000D01*
X91148000Y-134450000D02*
X76630000Y-134450000D01*
%TO.N,/CV_in*%
X90640000Y-155532000D02*
X71819736Y-155532000D01*
X94704000Y-151468000D02*
X90640000Y-155532000D01*
X71819736Y-155532000D02*
X67247736Y-150960000D01*
%TO.N,/CV_out*%
X89851950Y-132164000D02*
X73916000Y-132164000D01*
X73916000Y-132164000D02*
X71630000Y-134450000D01*
X89851950Y-132164000D02*
X98544000Y-140856050D01*
X98544000Y-150168000D02*
X97244000Y-151468000D01*
X98544000Y-140856050D02*
X98544000Y-150168000D01*
%TO.N,/DAC_out*%
X111352610Y-155308000D02*
X96004000Y-155308000D01*
X96004000Y-155308000D02*
X94704000Y-154008000D01*
X124168000Y-148674000D02*
X117986610Y-148674000D01*
X117986610Y-148674000D02*
X111352610Y-155308000D01*
%TD*%
%TA.AperFunction,Conductor*%
%TO.N,GNDD*%
G36*
X125842539Y-58570185D02*
G01*
X125888294Y-58622989D01*
X125899500Y-58674500D01*
X125899500Y-113244000D01*
X125879815Y-113311039D01*
X125827011Y-113356794D01*
X125775500Y-113368000D01*
X123028550Y-113368000D01*
X122961511Y-113348315D01*
X122915756Y-113295511D01*
X122905812Y-113226353D01*
X122934837Y-113162797D01*
X122940869Y-113156319D01*
X122958106Y-113139081D01*
X123093600Y-112945576D01*
X123193430Y-112731492D01*
X123250636Y-112518000D01*
X122353686Y-112518000D01*
X122379493Y-112477844D01*
X122420000Y-112339889D01*
X122420000Y-112196111D01*
X122379493Y-112058156D01*
X122353686Y-112018000D01*
X123250636Y-112018000D01*
X123250635Y-112017999D01*
X123193430Y-111804507D01*
X123093599Y-111590421D01*
X122958109Y-111396921D01*
X122842272Y-111281084D01*
X122808787Y-111219761D01*
X122813771Y-111150069D01*
X122855643Y-111094136D01*
X122886612Y-111077224D01*
X123016204Y-111028889D01*
X123133261Y-110941261D01*
X123220889Y-110824204D01*
X123255944Y-110730219D01*
X123271988Y-110687205D01*
X123271988Y-110687203D01*
X123271989Y-110687201D01*
X123278500Y-110626638D01*
X123278500Y-108829362D01*
X123271989Y-108768799D01*
X123271988Y-108768797D01*
X123271988Y-108768794D01*
X123220889Y-108631796D01*
X123133261Y-108514738D01*
X123016203Y-108427110D01*
X122879205Y-108376011D01*
X122821924Y-108369853D01*
X122821918Y-108369852D01*
X122818638Y-108369500D01*
X121021362Y-108369500D01*
X121018082Y-108369852D01*
X121018075Y-108369853D01*
X120960794Y-108376011D01*
X120823796Y-108427110D01*
X120706738Y-108514738D01*
X120619110Y-108631796D01*
X120568011Y-108768794D01*
X120561853Y-108826075D01*
X120561500Y-108829362D01*
X120561500Y-108832670D01*
X120561500Y-108832671D01*
X120561500Y-109962456D01*
X120541815Y-110029495D01*
X120525181Y-110050137D01*
X119651122Y-110924195D01*
X119637493Y-110935974D01*
X119617940Y-110950531D01*
X119585713Y-110988936D01*
X119578430Y-110996886D01*
X119576980Y-110998335D01*
X119576950Y-110998368D01*
X119574420Y-111000899D01*
X119572194Y-111003713D01*
X119572186Y-111003723D01*
X119554982Y-111025480D01*
X119552710Y-111028269D01*
X119503220Y-111087250D01*
X119492521Y-111104044D01*
X119459982Y-111173824D01*
X119458427Y-111177037D01*
X119436972Y-111219761D01*
X119423862Y-111245866D01*
X119417332Y-111264654D01*
X119401759Y-111340072D01*
X119400979Y-111343591D01*
X119383228Y-111418490D01*
X119381207Y-111438274D01*
X119383448Y-111515291D01*
X119383500Y-111518897D01*
X119383500Y-129963903D01*
X119363815Y-130030942D01*
X119347181Y-130051584D01*
X114727975Y-134670789D01*
X114666652Y-134704274D01*
X114596960Y-134699290D01*
X114559748Y-134677386D01*
X114494904Y-134621987D01*
X114445680Y-134579932D01*
X114355639Y-134539569D01*
X114312309Y-134520145D01*
X114247559Y-134501623D01*
X114247546Y-134501619D01*
X114245138Y-134500931D01*
X114245133Y-134500930D01*
X114243239Y-134500671D01*
X114243226Y-134500669D01*
X114100323Y-134481142D01*
X114100321Y-134481142D01*
X113933958Y-134482305D01*
X104120060Y-134550934D01*
X104120028Y-134550935D01*
X104118462Y-134550946D01*
X104116896Y-134551038D01*
X104116871Y-134551039D01*
X104066961Y-134553977D01*
X104066927Y-134553979D01*
X104065362Y-134554072D01*
X104063783Y-134554247D01*
X104063764Y-134554249D01*
X104041478Y-134556725D01*
X104039876Y-134556903D01*
X104038287Y-134557163D01*
X104038275Y-134557165D01*
X104021779Y-134559868D01*
X104001729Y-134561500D01*
X103966845Y-134561500D01*
X103899806Y-134541815D01*
X103854051Y-134489011D01*
X103844107Y-134419853D01*
X103873132Y-134356297D01*
X103879165Y-134349818D01*
X103905943Y-134323040D01*
X103996453Y-134176301D01*
X104050681Y-134012651D01*
X104060680Y-133914777D01*
X104061000Y-133908499D01*
X104061000Y-133825000D01*
X102111001Y-133825000D01*
X102111001Y-133908497D01*
X102111321Y-133914779D01*
X102121318Y-134012650D01*
X102175546Y-134176301D01*
X102266056Y-134323040D01*
X102295637Y-134352621D01*
X102329122Y-134413944D01*
X102324138Y-134483636D01*
X102282266Y-134539569D01*
X102216802Y-134563986D01*
X102208823Y-134564299D01*
X98310496Y-134591560D01*
X98307469Y-134591544D01*
X93314408Y-134504556D01*
X93247722Y-134483707D01*
X93228887Y-134468256D01*
X92085631Y-133325000D01*
X102111000Y-133325000D01*
X102836000Y-133325000D01*
X102836000Y-132550000D01*
X103335999Y-132550000D01*
X103335999Y-133324999D01*
X103336001Y-133325000D01*
X104060999Y-133325000D01*
X104060999Y-133241502D01*
X104060678Y-133235220D01*
X104050681Y-133137349D01*
X103996453Y-132973698D01*
X103905943Y-132826959D01*
X103784040Y-132705056D01*
X103637301Y-132614546D01*
X103473651Y-132560318D01*
X103375777Y-132550319D01*
X103369500Y-132550000D01*
X103335999Y-132550000D01*
X102836000Y-132550000D01*
X102802504Y-132550000D01*
X102796219Y-132550321D01*
X102698349Y-132560318D01*
X102534698Y-132614546D01*
X102387959Y-132705056D01*
X102266056Y-132826959D01*
X102175546Y-132973698D01*
X102121318Y-133137348D01*
X102111319Y-133235222D01*
X102111000Y-133241500D01*
X102111000Y-133325000D01*
X92085631Y-133325000D01*
X90433754Y-131673123D01*
X90421971Y-131659489D01*
X90407419Y-131639942D01*
X90402104Y-131635482D01*
X90369010Y-131607712D01*
X90361035Y-131600404D01*
X90359603Y-131598972D01*
X90357051Y-131596420D01*
X90354228Y-131594187D01*
X90354217Y-131594178D01*
X90332462Y-131576976D01*
X90329669Y-131574701D01*
X90270698Y-131525219D01*
X90253915Y-131514526D01*
X90184109Y-131481974D01*
X90180867Y-131480404D01*
X90112094Y-131445866D01*
X90093299Y-131439333D01*
X90017876Y-131423759D01*
X90014356Y-131422979D01*
X90003976Y-131420519D01*
X89940606Y-131405500D01*
X89939458Y-131405228D01*
X89919677Y-131403207D01*
X89918508Y-131403241D01*
X89842656Y-131405448D01*
X89839052Y-131405500D01*
X73980294Y-131405500D01*
X73962324Y-131404191D01*
X73949501Y-131402312D01*
X73938211Y-131400659D01*
X73938210Y-131400659D01*
X73888274Y-131405028D01*
X73877467Y-131405500D01*
X73871820Y-131405500D01*
X73868261Y-131405915D01*
X73868243Y-131405917D01*
X73840678Y-131409139D01*
X73837093Y-131409505D01*
X73760410Y-131416214D01*
X73740989Y-131420519D01*
X73668660Y-131446844D01*
X73665259Y-131448026D01*
X73592153Y-131472252D01*
X73574242Y-131480924D01*
X73572646Y-131481974D01*
X73513374Y-131520957D01*
X73509924Y-131523226D01*
X73506885Y-131525162D01*
X73441360Y-131565579D01*
X73425916Y-131578160D01*
X73373052Y-131634191D01*
X73370541Y-131636776D01*
X71857253Y-133150064D01*
X71795930Y-133183549D01*
X71758766Y-133185911D01*
X71630000Y-133174646D01*
X71408539Y-133194021D01*
X71193802Y-133251560D01*
X70992323Y-133345512D01*
X70810218Y-133473023D01*
X70653023Y-133630218D01*
X70525512Y-133812323D01*
X70426975Y-134023636D01*
X70425372Y-134022888D01*
X70395696Y-134071566D01*
X70332846Y-134102089D01*
X70310135Y-134103785D01*
X50422340Y-133757308D01*
X50355654Y-133736459D01*
X50310825Y-133682866D01*
X50300500Y-133633327D01*
X50300500Y-124290000D01*
X63826672Y-124290000D01*
X63845948Y-124522621D01*
X63903251Y-124748908D01*
X63997016Y-124962669D01*
X64124684Y-125158081D01*
X64211857Y-125252775D01*
X64242779Y-125315429D01*
X64234919Y-125384856D01*
X64190772Y-125439011D01*
X64163962Y-125452939D01*
X64093796Y-125479110D01*
X63976738Y-125566738D01*
X63889110Y-125683796D01*
X63838011Y-125820794D01*
X63831853Y-125878075D01*
X63831500Y-125881362D01*
X63831500Y-127778638D01*
X63831852Y-127781918D01*
X63831853Y-127781924D01*
X63838011Y-127839205D01*
X63889110Y-127976203D01*
X63976738Y-128093261D01*
X64093796Y-128180889D01*
X64230794Y-128231988D01*
X64230797Y-128231988D01*
X64230799Y-128231989D01*
X64291362Y-128238500D01*
X64294672Y-128238500D01*
X66185328Y-128238500D01*
X66188638Y-128238500D01*
X66249201Y-128231989D01*
X66249203Y-128231988D01*
X66249205Y-128231988D01*
X66327124Y-128202924D01*
X66386204Y-128180889D01*
X66503261Y-128093261D01*
X66590889Y-127976204D01*
X66641989Y-127839201D01*
X66648500Y-127778638D01*
X66648500Y-125881362D01*
X66641989Y-125820799D01*
X66641988Y-125820797D01*
X66641988Y-125820794D01*
X66590889Y-125683796D01*
X66503261Y-125566738D01*
X66386204Y-125479110D01*
X66316037Y-125452939D01*
X66260104Y-125411067D01*
X66235688Y-125345603D01*
X66250541Y-125277330D01*
X66268138Y-125252780D01*
X66355314Y-125158083D01*
X66482984Y-124962669D01*
X66576749Y-124748907D01*
X66634051Y-124522626D01*
X66653327Y-124290000D01*
X66634051Y-124057374D01*
X66576749Y-123831093D01*
X66482984Y-123617331D01*
X66424621Y-123527999D01*
X70068620Y-123527999D01*
X70088091Y-123725698D01*
X70088092Y-123725701D01*
X70145759Y-123915804D01*
X70145761Y-123915807D01*
X70221431Y-124057378D01*
X70239405Y-124091004D01*
X70365432Y-124244568D01*
X70518996Y-124370595D01*
X70694196Y-124464241D01*
X70884299Y-124521908D01*
X71082000Y-124541380D01*
X71279701Y-124521908D01*
X71469804Y-124464241D01*
X71645004Y-124370595D01*
X71743210Y-124289999D01*
X79066672Y-124289999D01*
X79085948Y-124522621D01*
X79143251Y-124748908D01*
X79237016Y-124962669D01*
X79364684Y-125158081D01*
X79451857Y-125252775D01*
X79482779Y-125315429D01*
X79474919Y-125384856D01*
X79430772Y-125439011D01*
X79403962Y-125452939D01*
X79333796Y-125479110D01*
X79216738Y-125566738D01*
X79129110Y-125683796D01*
X79078011Y-125820794D01*
X79071853Y-125878075D01*
X79071500Y-125881362D01*
X79071500Y-127778638D01*
X79071852Y-127781918D01*
X79071853Y-127781924D01*
X79078011Y-127839205D01*
X79129110Y-127976203D01*
X79216738Y-128093261D01*
X79333796Y-128180889D01*
X79470794Y-128231988D01*
X79470797Y-128231988D01*
X79470799Y-128231989D01*
X79531362Y-128238500D01*
X79534672Y-128238500D01*
X81425328Y-128238500D01*
X81428638Y-128238500D01*
X81489201Y-128231989D01*
X81489203Y-128231988D01*
X81489205Y-128231988D01*
X81567124Y-128202924D01*
X81626204Y-128180889D01*
X81743261Y-128093261D01*
X81830889Y-127976204D01*
X81881989Y-127839201D01*
X81888500Y-127778638D01*
X81888500Y-125881362D01*
X81881989Y-125820799D01*
X81881988Y-125820797D01*
X81881988Y-125820794D01*
X81830889Y-125683796D01*
X81743261Y-125566738D01*
X81626204Y-125479110D01*
X81556037Y-125452939D01*
X81500104Y-125411067D01*
X81475688Y-125345603D01*
X81490541Y-125277330D01*
X81508138Y-125252780D01*
X81595314Y-125158083D01*
X81722984Y-124962669D01*
X81816749Y-124748907D01*
X81874051Y-124522626D01*
X81893327Y-124290000D01*
X94306672Y-124290000D01*
X94325948Y-124522621D01*
X94383251Y-124748908D01*
X94477016Y-124962669D01*
X94604684Y-125158081D01*
X94691857Y-125252775D01*
X94722779Y-125315429D01*
X94714919Y-125384856D01*
X94670772Y-125439011D01*
X94643962Y-125452939D01*
X94573796Y-125479110D01*
X94456738Y-125566738D01*
X94369110Y-125683796D01*
X94318011Y-125820794D01*
X94311853Y-125878075D01*
X94311500Y-125881362D01*
X94311500Y-127778638D01*
X94311852Y-127781918D01*
X94311853Y-127781924D01*
X94318011Y-127839205D01*
X94369110Y-127976203D01*
X94456738Y-128093261D01*
X94573796Y-128180889D01*
X94710794Y-128231988D01*
X94710797Y-128231988D01*
X94710799Y-128231989D01*
X94771362Y-128238500D01*
X94774672Y-128238500D01*
X96665328Y-128238500D01*
X96668638Y-128238500D01*
X96729201Y-128231989D01*
X96729203Y-128231988D01*
X96729205Y-128231988D01*
X96807124Y-128202924D01*
X96866204Y-128180889D01*
X96983261Y-128093261D01*
X97070889Y-127976204D01*
X97121989Y-127839201D01*
X97128500Y-127778638D01*
X97128500Y-125881362D01*
X97121989Y-125820799D01*
X97121988Y-125820797D01*
X97121988Y-125820794D01*
X97070889Y-125683796D01*
X96983261Y-125566738D01*
X96866204Y-125479110D01*
X96796037Y-125452939D01*
X96740104Y-125411067D01*
X96715688Y-125345603D01*
X96730541Y-125277330D01*
X96748138Y-125252780D01*
X96835314Y-125158083D01*
X96962984Y-124962669D01*
X97056749Y-124748907D01*
X97114051Y-124522626D01*
X97133327Y-124290000D01*
X109546672Y-124290000D01*
X109565948Y-124522621D01*
X109623251Y-124748908D01*
X109717016Y-124962669D01*
X109844684Y-125158081D01*
X109931857Y-125252775D01*
X109962779Y-125315429D01*
X109954919Y-125384856D01*
X109910772Y-125439011D01*
X109883962Y-125452939D01*
X109813796Y-125479110D01*
X109696738Y-125566738D01*
X109609110Y-125683796D01*
X109558011Y-125820794D01*
X109551853Y-125878075D01*
X109551500Y-125881362D01*
X109551500Y-127778638D01*
X109551852Y-127781918D01*
X109551853Y-127781924D01*
X109558011Y-127839205D01*
X109609110Y-127976203D01*
X109696738Y-128093261D01*
X109813796Y-128180889D01*
X109950794Y-128231988D01*
X109950797Y-128231988D01*
X109950799Y-128231989D01*
X110011362Y-128238500D01*
X110014672Y-128238500D01*
X111905328Y-128238500D01*
X111908638Y-128238500D01*
X111969201Y-128231989D01*
X111969203Y-128231988D01*
X111969205Y-128231988D01*
X112047124Y-128202924D01*
X112106204Y-128180889D01*
X112223261Y-128093261D01*
X112310889Y-127976204D01*
X112361989Y-127839201D01*
X112368500Y-127778638D01*
X112368500Y-125881362D01*
X112361989Y-125820799D01*
X112361988Y-125820797D01*
X112361988Y-125820794D01*
X112310889Y-125683796D01*
X112223261Y-125566738D01*
X112106204Y-125479110D01*
X112036037Y-125452939D01*
X111980104Y-125411067D01*
X111955688Y-125345603D01*
X111970541Y-125277330D01*
X111988138Y-125252780D01*
X112075314Y-125158083D01*
X112202984Y-124962669D01*
X112296749Y-124748907D01*
X112354051Y-124522626D01*
X112373327Y-124290000D01*
X112354051Y-124057374D01*
X112296749Y-123831093D01*
X112202984Y-123617331D01*
X112075314Y-123421917D01*
X111917220Y-123250182D01*
X111733017Y-123106810D01*
X111527727Y-122995713D01*
X111527726Y-122995712D01*
X111527725Y-122995712D01*
X111306953Y-122919919D01*
X111076712Y-122881500D01*
X110843288Y-122881500D01*
X110613046Y-122919919D01*
X110392274Y-122995712D01*
X110186983Y-123106810D01*
X110002780Y-123250181D01*
X109844684Y-123421918D01*
X109717016Y-123617330D01*
X109623251Y-123831091D01*
X109565948Y-124057378D01*
X109546672Y-124290000D01*
X97133327Y-124290000D01*
X97114051Y-124057374D01*
X97056749Y-123831093D01*
X96962984Y-123617331D01*
X96835314Y-123421917D01*
X96677220Y-123250182D01*
X96493017Y-123106810D01*
X96287727Y-122995713D01*
X96287726Y-122995712D01*
X96287725Y-122995712D01*
X96066953Y-122919919D01*
X95836712Y-122881500D01*
X95603288Y-122881500D01*
X95373046Y-122919919D01*
X95152274Y-122995712D01*
X94946983Y-123106810D01*
X94762780Y-123250181D01*
X94604684Y-123421918D01*
X94477016Y-123617330D01*
X94383251Y-123831091D01*
X94325948Y-124057378D01*
X94306672Y-124290000D01*
X81893327Y-124290000D01*
X81874051Y-124057374D01*
X81816749Y-123831093D01*
X81722984Y-123617331D01*
X81595314Y-123421917D01*
X81437220Y-123250182D01*
X81253017Y-123106810D01*
X81047727Y-122995713D01*
X81047726Y-122995712D01*
X81047725Y-122995712D01*
X80826953Y-122919919D01*
X80596712Y-122881500D01*
X80363288Y-122881500D01*
X80133046Y-122919919D01*
X79912274Y-122995712D01*
X79706983Y-123106810D01*
X79522780Y-123250181D01*
X79364684Y-123421918D01*
X79237016Y-123617330D01*
X79143251Y-123831091D01*
X79085948Y-124057378D01*
X79066672Y-124289999D01*
X71743210Y-124289999D01*
X71798568Y-124244568D01*
X71924595Y-124091004D01*
X72018241Y-123915804D01*
X72075908Y-123725701D01*
X72095380Y-123528000D01*
X72075908Y-123330299D01*
X72018241Y-123140196D01*
X71924595Y-122964996D01*
X71868647Y-122896823D01*
X71841334Y-122832513D01*
X71840500Y-122818158D01*
X71840500Y-119411841D01*
X71860185Y-119344802D01*
X71868647Y-119333176D01*
X71924595Y-119265004D01*
X72018241Y-119089804D01*
X72075908Y-118899701D01*
X72095380Y-118702000D01*
X72075908Y-118504299D01*
X72018241Y-118314196D01*
X71953995Y-118194000D01*
X109692620Y-118194000D01*
X109712091Y-118391698D01*
X109712092Y-118391701D01*
X109769759Y-118581804D01*
X109863405Y-118757004D01*
X109989432Y-118910568D01*
X110142996Y-119036595D01*
X110318196Y-119130241D01*
X110508299Y-119187908D01*
X110706000Y-119207380D01*
X110903701Y-119187908D01*
X111093804Y-119130241D01*
X111269004Y-119036595D01*
X111337176Y-118980647D01*
X111401487Y-118953334D01*
X111415842Y-118952500D01*
X114568158Y-118952500D01*
X114635197Y-118972185D01*
X114646823Y-118980647D01*
X114714996Y-119036595D01*
X114890196Y-119130241D01*
X115080299Y-119187908D01*
X115278000Y-119207380D01*
X115475701Y-119187908D01*
X115665804Y-119130241D01*
X115841004Y-119036595D01*
X115994568Y-118910568D01*
X116120595Y-118757004D01*
X116214241Y-118581804D01*
X116271908Y-118391701D01*
X116291380Y-118194000D01*
X116271908Y-117996299D01*
X116214241Y-117806196D01*
X116120595Y-117630996D01*
X115994568Y-117477432D01*
X115841004Y-117351405D01*
X115841003Y-117351404D01*
X115746390Y-117300833D01*
X115665804Y-117257759D01*
X115475701Y-117200092D01*
X115475698Y-117200091D01*
X115278000Y-117180620D01*
X115080301Y-117200091D01*
X115016931Y-117219314D01*
X114890196Y-117257759D01*
X114890192Y-117257760D01*
X114890192Y-117257761D01*
X114714996Y-117351404D01*
X114646823Y-117407353D01*
X114582513Y-117434666D01*
X114568158Y-117435500D01*
X111415842Y-117435500D01*
X111348803Y-117415815D01*
X111337177Y-117407353D01*
X111269003Y-117351404D01*
X111174390Y-117300833D01*
X111093804Y-117257759D01*
X110903701Y-117200092D01*
X110903698Y-117200091D01*
X110706000Y-117180620D01*
X110508301Y-117200091D01*
X110444931Y-117219314D01*
X110318196Y-117257759D01*
X110318192Y-117257760D01*
X110318192Y-117257761D01*
X110142996Y-117351404D01*
X109989432Y-117477432D01*
X109863404Y-117630996D01*
X109822196Y-117708092D01*
X109769759Y-117806196D01*
X109731314Y-117932931D01*
X109712091Y-117996301D01*
X109692620Y-118194000D01*
X71953995Y-118194000D01*
X71924595Y-118138996D01*
X71798568Y-117985432D01*
X71645004Y-117859405D01*
X71645003Y-117859404D01*
X71545449Y-117806192D01*
X71469804Y-117765759D01*
X71279701Y-117708092D01*
X71279698Y-117708091D01*
X71082000Y-117688620D01*
X70884301Y-117708091D01*
X70820931Y-117727314D01*
X70694196Y-117765759D01*
X70694192Y-117765760D01*
X70694192Y-117765761D01*
X70518996Y-117859404D01*
X70365432Y-117985432D01*
X70239404Y-118138996D01*
X70145761Y-118314192D01*
X70145759Y-118314196D01*
X70122249Y-118391698D01*
X70088091Y-118504301D01*
X70068620Y-118702000D01*
X70088091Y-118899698D01*
X70088092Y-118899701D01*
X70145759Y-119089804D01*
X70167373Y-119130241D01*
X70239404Y-119265003D01*
X70295353Y-119333176D01*
X70322666Y-119397486D01*
X70323500Y-119411841D01*
X70323500Y-122818158D01*
X70303815Y-122885197D01*
X70295353Y-122896823D01*
X70239404Y-122964996D01*
X70222986Y-122995713D01*
X70145759Y-123140196D01*
X70112395Y-123250182D01*
X70088091Y-123330301D01*
X70068620Y-123527999D01*
X66424621Y-123527999D01*
X66355314Y-123421917D01*
X66197220Y-123250182D01*
X66013017Y-123106810D01*
X65807727Y-122995713D01*
X65807726Y-122995712D01*
X65807725Y-122995712D01*
X65586953Y-122919919D01*
X65356712Y-122881500D01*
X65123288Y-122881500D01*
X64893046Y-122919919D01*
X64672274Y-122995712D01*
X64466983Y-123106810D01*
X64282780Y-123250181D01*
X64124684Y-123421918D01*
X63997016Y-123617330D01*
X63903251Y-123831091D01*
X63845948Y-124057378D01*
X63826672Y-124290000D01*
X50300500Y-124290000D01*
X50300500Y-115654000D01*
X109692620Y-115654000D01*
X109712091Y-115851698D01*
X109712092Y-115851701D01*
X109769759Y-116041804D01*
X109863405Y-116217004D01*
X109989432Y-116370568D01*
X110142996Y-116496595D01*
X110318196Y-116590241D01*
X110508299Y-116647908D01*
X110706000Y-116667380D01*
X110903701Y-116647908D01*
X111093804Y-116590241D01*
X111269004Y-116496595D01*
X111337176Y-116440647D01*
X111401487Y-116413334D01*
X111415842Y-116412500D01*
X114568158Y-116412500D01*
X114635197Y-116432185D01*
X114646823Y-116440647D01*
X114714996Y-116496595D01*
X114890196Y-116590241D01*
X115080299Y-116647908D01*
X115278000Y-116667380D01*
X115475701Y-116647908D01*
X115665804Y-116590241D01*
X115841004Y-116496595D01*
X115994568Y-116370568D01*
X116120595Y-116217004D01*
X116214241Y-116041804D01*
X116271908Y-115851701D01*
X116291380Y-115654000D01*
X116271908Y-115456299D01*
X116214241Y-115266196D01*
X116120595Y-115090996D01*
X115994568Y-114937432D01*
X115841004Y-114811405D01*
X115841003Y-114811404D01*
X115746390Y-114760833D01*
X115665804Y-114717759D01*
X115475701Y-114660092D01*
X115475698Y-114660091D01*
X115278000Y-114640620D01*
X115080301Y-114660091D01*
X115016931Y-114679314D01*
X114890196Y-114717759D01*
X114890192Y-114717760D01*
X114890192Y-114717761D01*
X114714996Y-114811404D01*
X114646823Y-114867353D01*
X114582513Y-114894666D01*
X114568158Y-114895500D01*
X111415842Y-114895500D01*
X111348803Y-114875815D01*
X111337177Y-114867353D01*
X111269003Y-114811404D01*
X111174390Y-114760833D01*
X111093804Y-114717759D01*
X110903701Y-114660092D01*
X110903698Y-114660091D01*
X110706000Y-114640620D01*
X110508301Y-114660091D01*
X110444931Y-114679314D01*
X110318196Y-114717759D01*
X110318192Y-114717760D01*
X110318192Y-114717761D01*
X110142996Y-114811404D01*
X109989432Y-114937432D01*
X109863404Y-115090996D01*
X109769761Y-115266192D01*
X109769759Y-115266196D01*
X109731314Y-115392931D01*
X109712091Y-115456301D01*
X109692620Y-115654000D01*
X50300500Y-115654000D01*
X50300500Y-111252000D01*
X55024843Y-111252000D01*
X55043435Y-111476363D01*
X55043435Y-111476366D01*
X55043436Y-111476368D01*
X55072318Y-111590421D01*
X55098705Y-111694618D01*
X55189138Y-111900788D01*
X55189140Y-111900791D01*
X55312278Y-112089268D01*
X55464760Y-112254906D01*
X55642424Y-112393189D01*
X55840426Y-112500342D01*
X56053365Y-112573444D01*
X56275431Y-112610500D01*
X56500569Y-112610500D01*
X56722635Y-112573444D01*
X56935574Y-112500342D01*
X57133576Y-112393189D01*
X57311240Y-112254906D01*
X57463722Y-112089268D01*
X57586860Y-111900791D01*
X57677296Y-111694616D01*
X57713918Y-111549999D01*
X63964646Y-111549999D01*
X63984021Y-111771460D01*
X64018675Y-111900791D01*
X64041560Y-111986196D01*
X64135512Y-112187677D01*
X64263023Y-112369781D01*
X64420219Y-112526977D01*
X64602323Y-112654488D01*
X64803804Y-112748440D01*
X65018537Y-112805978D01*
X65240000Y-112825353D01*
X65461463Y-112805978D01*
X65676196Y-112748440D01*
X65877677Y-112654488D01*
X66059781Y-112526977D01*
X66216977Y-112369781D01*
X66344488Y-112187677D01*
X66438440Y-111986196D01*
X66495978Y-111771463D01*
X66515353Y-111550000D01*
X66515353Y-111549999D01*
X79204646Y-111549999D01*
X79224021Y-111771460D01*
X79258675Y-111900791D01*
X79281560Y-111986196D01*
X79375512Y-112187677D01*
X79503023Y-112369781D01*
X79660219Y-112526977D01*
X79842323Y-112654488D01*
X80043804Y-112748440D01*
X80258537Y-112805978D01*
X80480000Y-112825353D01*
X80701463Y-112805978D01*
X80916196Y-112748440D01*
X81117677Y-112654488D01*
X81299781Y-112526977D01*
X81456977Y-112369781D01*
X81584488Y-112187677D01*
X81678440Y-111986196D01*
X81735978Y-111771463D01*
X81755353Y-111550000D01*
X81755353Y-111549999D01*
X94444646Y-111549999D01*
X94464021Y-111771460D01*
X94498675Y-111900791D01*
X94521560Y-111986196D01*
X94615512Y-112187677D01*
X94743023Y-112369781D01*
X94900219Y-112526977D01*
X95082323Y-112654488D01*
X95283804Y-112748440D01*
X95498537Y-112805978D01*
X95646178Y-112818894D01*
X95719999Y-112825353D01*
X95719999Y-112825352D01*
X95720000Y-112825353D01*
X95941463Y-112805978D01*
X96156196Y-112748440D01*
X96357677Y-112654488D01*
X96539781Y-112526977D01*
X96696977Y-112369781D01*
X96824488Y-112187677D01*
X96918440Y-111986196D01*
X96975978Y-111771463D01*
X96995353Y-111550000D01*
X96995353Y-111549999D01*
X109684646Y-111549999D01*
X109704021Y-111771460D01*
X109738675Y-111900791D01*
X109761560Y-111986196D01*
X109855512Y-112187677D01*
X109983023Y-112369781D01*
X110140219Y-112526977D01*
X110322323Y-112654488D01*
X110523804Y-112748440D01*
X110738537Y-112805978D01*
X110960000Y-112825353D01*
X111181463Y-112805978D01*
X111396196Y-112748440D01*
X111597677Y-112654488D01*
X111779781Y-112526977D01*
X111936977Y-112369781D01*
X112064488Y-112187677D01*
X112158440Y-111986196D01*
X112215978Y-111771463D01*
X112235353Y-111550000D01*
X112215978Y-111328537D01*
X112158440Y-111113804D01*
X112064488Y-110912324D01*
X111936977Y-110730219D01*
X111779781Y-110573023D01*
X111597677Y-110445512D01*
X111557297Y-110426682D01*
X111526628Y-110412381D01*
X111474189Y-110366208D01*
X111455038Y-110299014D01*
X111475254Y-110232133D01*
X111526625Y-110187619D01*
X111597677Y-110154488D01*
X111779781Y-110026977D01*
X111936977Y-109869781D01*
X112064488Y-109687677D01*
X112158440Y-109486196D01*
X112215978Y-109271463D01*
X112235353Y-109050000D01*
X112215978Y-108828537D01*
X112158440Y-108613804D01*
X112064488Y-108412324D01*
X111936977Y-108230219D01*
X111779781Y-108073023D01*
X111597677Y-107945512D01*
X111557297Y-107926682D01*
X111526628Y-107912381D01*
X111474189Y-107866208D01*
X111455038Y-107799014D01*
X111475254Y-107732133D01*
X111526625Y-107687619D01*
X111597677Y-107654488D01*
X111779781Y-107526977D01*
X111936977Y-107369781D01*
X112064488Y-107187677D01*
X112158440Y-106986196D01*
X112215978Y-106771463D01*
X112235353Y-106550000D01*
X112215978Y-106328537D01*
X112158440Y-106113804D01*
X112064488Y-105912324D01*
X111936977Y-105730219D01*
X111779781Y-105573023D01*
X111597677Y-105445512D01*
X111504781Y-105402194D01*
X111396197Y-105351560D01*
X111181460Y-105294021D01*
X110960000Y-105274646D01*
X110738539Y-105294021D01*
X110523802Y-105351560D01*
X110322323Y-105445512D01*
X110140218Y-105573023D01*
X109983023Y-105730218D01*
X109855512Y-105912323D01*
X109761560Y-106113802D01*
X109704021Y-106328539D01*
X109684646Y-106550000D01*
X109704021Y-106771460D01*
X109761560Y-106986197D01*
X109772319Y-107009269D01*
X109855512Y-107187677D01*
X109983023Y-107369781D01*
X110140219Y-107526977D01*
X110322323Y-107654488D01*
X110393371Y-107687618D01*
X110445810Y-107733790D01*
X110464962Y-107800984D01*
X110444746Y-107867865D01*
X110393371Y-107912382D01*
X110322323Y-107945512D01*
X110140218Y-108073023D01*
X109983023Y-108230218D01*
X109855512Y-108412323D01*
X109761560Y-108613802D01*
X109704021Y-108828539D01*
X109684646Y-109050000D01*
X109704021Y-109271460D01*
X109727957Y-109360791D01*
X109761560Y-109486196D01*
X109855512Y-109687677D01*
X109983023Y-109869781D01*
X110140219Y-110026977D01*
X110322323Y-110154488D01*
X110393371Y-110187618D01*
X110445810Y-110233790D01*
X110464962Y-110300984D01*
X110444746Y-110367865D01*
X110393371Y-110412382D01*
X110322323Y-110445512D01*
X110140218Y-110573023D01*
X109983023Y-110730218D01*
X109855512Y-110912323D01*
X109761560Y-111113802D01*
X109704021Y-111328539D01*
X109684646Y-111549999D01*
X96995353Y-111549999D01*
X96975978Y-111328537D01*
X96918440Y-111113804D01*
X96824488Y-110912324D01*
X96696977Y-110730219D01*
X96539781Y-110573023D01*
X96357677Y-110445512D01*
X96286628Y-110412381D01*
X96234190Y-110366210D01*
X96215038Y-110299016D01*
X96235254Y-110232135D01*
X96286629Y-110187618D01*
X96357677Y-110154488D01*
X96539781Y-110026977D01*
X96696977Y-109869781D01*
X96824488Y-109687677D01*
X96918440Y-109486196D01*
X96975978Y-109271463D01*
X96995353Y-109050000D01*
X96975978Y-108828537D01*
X96918440Y-108613804D01*
X96824488Y-108412324D01*
X96696977Y-108230219D01*
X96539781Y-108073023D01*
X96357677Y-107945512D01*
X96286628Y-107912381D01*
X96234190Y-107866210D01*
X96215038Y-107799016D01*
X96235254Y-107732135D01*
X96286629Y-107687618D01*
X96357677Y-107654488D01*
X96539781Y-107526977D01*
X96696977Y-107369781D01*
X96824488Y-107187677D01*
X96918440Y-106986196D01*
X96975978Y-106771463D01*
X96995353Y-106550000D01*
X96975978Y-106328537D01*
X96918440Y-106113804D01*
X96824488Y-105912324D01*
X96696977Y-105730219D01*
X96539781Y-105573023D01*
X96357677Y-105445512D01*
X96264781Y-105402194D01*
X96156197Y-105351560D01*
X95941460Y-105294021D01*
X95719999Y-105274646D01*
X95498539Y-105294021D01*
X95283802Y-105351560D01*
X95082323Y-105445512D01*
X94900218Y-105573023D01*
X94743023Y-105730218D01*
X94615512Y-105912323D01*
X94521560Y-106113802D01*
X94464021Y-106328539D01*
X94444646Y-106550000D01*
X94464021Y-106771460D01*
X94521560Y-106986197D01*
X94532319Y-107009269D01*
X94615512Y-107187677D01*
X94743023Y-107369781D01*
X94900219Y-107526977D01*
X95082323Y-107654488D01*
X95153371Y-107687618D01*
X95205810Y-107733790D01*
X95224962Y-107800984D01*
X95204746Y-107867865D01*
X95153371Y-107912382D01*
X95082323Y-107945512D01*
X94900218Y-108073023D01*
X94743023Y-108230218D01*
X94615512Y-108412323D01*
X94521560Y-108613802D01*
X94464021Y-108828539D01*
X94444646Y-109050000D01*
X94464021Y-109271460D01*
X94487957Y-109360791D01*
X94521560Y-109486196D01*
X94615512Y-109687677D01*
X94743023Y-109869781D01*
X94900219Y-110026977D01*
X95082323Y-110154488D01*
X95153371Y-110187618D01*
X95205810Y-110233790D01*
X95224962Y-110300984D01*
X95204746Y-110367865D01*
X95153371Y-110412382D01*
X95082323Y-110445512D01*
X94900218Y-110573023D01*
X94743023Y-110730218D01*
X94615512Y-110912323D01*
X94521560Y-111113802D01*
X94464021Y-111328539D01*
X94444646Y-111549999D01*
X81755353Y-111549999D01*
X81735978Y-111328537D01*
X81678440Y-111113804D01*
X81584488Y-110912324D01*
X81456977Y-110730219D01*
X81299781Y-110573023D01*
X81117677Y-110445512D01*
X81077297Y-110426682D01*
X81046628Y-110412381D01*
X80994189Y-110366208D01*
X80975038Y-110299014D01*
X80995254Y-110232133D01*
X81046625Y-110187619D01*
X81117677Y-110154488D01*
X81299781Y-110026977D01*
X81456977Y-109869781D01*
X81584488Y-109687677D01*
X81678440Y-109486196D01*
X81735978Y-109271463D01*
X81755353Y-109050000D01*
X81735978Y-108828537D01*
X81678440Y-108613804D01*
X81584488Y-108412324D01*
X81456977Y-108230219D01*
X81299781Y-108073023D01*
X81117677Y-107945512D01*
X81077297Y-107926682D01*
X81046628Y-107912381D01*
X80994189Y-107866208D01*
X80975038Y-107799014D01*
X80995254Y-107732133D01*
X81046625Y-107687619D01*
X81117677Y-107654488D01*
X81299781Y-107526977D01*
X81456977Y-107369781D01*
X81584488Y-107187677D01*
X81678440Y-106986196D01*
X81735978Y-106771463D01*
X81755353Y-106550000D01*
X81735978Y-106328537D01*
X81678440Y-106113804D01*
X81584488Y-105912324D01*
X81456977Y-105730219D01*
X81299781Y-105573023D01*
X81117677Y-105445512D01*
X81024781Y-105402194D01*
X80916197Y-105351560D01*
X80701460Y-105294021D01*
X80480000Y-105274646D01*
X80258539Y-105294021D01*
X80043802Y-105351560D01*
X79842323Y-105445512D01*
X79660218Y-105573023D01*
X79503023Y-105730218D01*
X79375512Y-105912323D01*
X79281560Y-106113802D01*
X79224021Y-106328539D01*
X79204646Y-106549999D01*
X79224021Y-106771460D01*
X79281560Y-106986197D01*
X79292319Y-107009269D01*
X79375512Y-107187677D01*
X79503023Y-107369781D01*
X79660219Y-107526977D01*
X79842323Y-107654488D01*
X79913371Y-107687618D01*
X79965810Y-107733790D01*
X79984962Y-107800984D01*
X79964746Y-107867865D01*
X79913371Y-107912382D01*
X79842323Y-107945512D01*
X79660218Y-108073023D01*
X79503023Y-108230218D01*
X79375512Y-108412323D01*
X79281560Y-108613802D01*
X79224021Y-108828539D01*
X79204646Y-109049999D01*
X79224021Y-109271460D01*
X79247957Y-109360791D01*
X79281560Y-109486196D01*
X79375512Y-109687677D01*
X79503023Y-109869781D01*
X79660219Y-110026977D01*
X79842323Y-110154488D01*
X79913371Y-110187618D01*
X79965810Y-110233790D01*
X79984962Y-110300984D01*
X79964746Y-110367865D01*
X79913371Y-110412382D01*
X79842323Y-110445512D01*
X79660218Y-110573023D01*
X79503023Y-110730218D01*
X79375512Y-110912323D01*
X79281560Y-111113802D01*
X79224021Y-111328539D01*
X79204646Y-111549999D01*
X66515353Y-111549999D01*
X66495978Y-111328537D01*
X66438440Y-111113804D01*
X66344488Y-110912324D01*
X66216977Y-110730219D01*
X66059781Y-110573023D01*
X65877677Y-110445512D01*
X65806628Y-110412381D01*
X65754190Y-110366210D01*
X65735038Y-110299016D01*
X65755254Y-110232135D01*
X65806629Y-110187618D01*
X65877677Y-110154488D01*
X66059781Y-110026977D01*
X66216977Y-109869781D01*
X66344488Y-109687677D01*
X66438440Y-109486196D01*
X66495978Y-109271463D01*
X66515353Y-109050000D01*
X66495978Y-108828537D01*
X66438440Y-108613804D01*
X66344488Y-108412324D01*
X66216977Y-108230219D01*
X66059781Y-108073023D01*
X65877677Y-107945512D01*
X65806628Y-107912381D01*
X65754190Y-107866210D01*
X65735038Y-107799016D01*
X65755254Y-107732135D01*
X65806629Y-107687618D01*
X65877677Y-107654488D01*
X66059781Y-107526977D01*
X66216977Y-107369781D01*
X66344488Y-107187677D01*
X66438440Y-106986196D01*
X66495978Y-106771463D01*
X66515353Y-106550000D01*
X66495978Y-106328537D01*
X66438440Y-106113804D01*
X66344488Y-105912324D01*
X66216977Y-105730219D01*
X66059781Y-105573023D01*
X65877677Y-105445512D01*
X65784781Y-105402194D01*
X65676197Y-105351560D01*
X65461460Y-105294021D01*
X65240000Y-105274646D01*
X65018539Y-105294021D01*
X64803802Y-105351560D01*
X64602323Y-105445512D01*
X64420218Y-105573023D01*
X64263023Y-105730218D01*
X64135512Y-105912323D01*
X64041560Y-106113802D01*
X63984021Y-106328539D01*
X63964646Y-106549999D01*
X63984021Y-106771460D01*
X64041560Y-106986197D01*
X64052319Y-107009269D01*
X64135512Y-107187677D01*
X64263023Y-107369781D01*
X64420219Y-107526977D01*
X64602323Y-107654488D01*
X64673371Y-107687618D01*
X64725810Y-107733790D01*
X64744962Y-107800984D01*
X64724746Y-107867865D01*
X64673371Y-107912382D01*
X64602323Y-107945512D01*
X64420218Y-108073023D01*
X64263023Y-108230218D01*
X64135512Y-108412323D01*
X64041560Y-108613802D01*
X63984021Y-108828539D01*
X63964646Y-109050000D01*
X63984021Y-109271460D01*
X64007957Y-109360791D01*
X64041560Y-109486196D01*
X64135512Y-109687677D01*
X64263023Y-109869781D01*
X64420219Y-110026977D01*
X64602323Y-110154488D01*
X64673371Y-110187618D01*
X64725810Y-110233790D01*
X64744962Y-110300984D01*
X64724746Y-110367865D01*
X64673371Y-110412382D01*
X64602323Y-110445512D01*
X64420218Y-110573023D01*
X64263023Y-110730218D01*
X64135512Y-110912323D01*
X64041560Y-111113802D01*
X63984021Y-111328539D01*
X63964646Y-111549999D01*
X57713918Y-111549999D01*
X57732564Y-111476368D01*
X57751156Y-111252000D01*
X57732564Y-111027632D01*
X57677296Y-110809384D01*
X57586860Y-110603209D01*
X57463722Y-110414732D01*
X57311240Y-110249094D01*
X57133576Y-110110811D01*
X57097067Y-110091053D01*
X57047478Y-110041836D01*
X57032370Y-109973619D01*
X57056540Y-109908063D01*
X57097067Y-109872946D01*
X57133576Y-109853189D01*
X57311240Y-109714906D01*
X57463722Y-109549268D01*
X57586860Y-109360791D01*
X57677296Y-109154616D01*
X57732564Y-108936368D01*
X57751156Y-108712000D01*
X57732564Y-108487632D01*
X57677296Y-108269384D01*
X57586860Y-108063209D01*
X57463722Y-107874732D01*
X57311240Y-107709094D01*
X57133576Y-107570811D01*
X57097067Y-107551053D01*
X57047478Y-107501836D01*
X57032370Y-107433619D01*
X57056540Y-107368063D01*
X57097067Y-107332946D01*
X57133576Y-107313189D01*
X57311240Y-107174906D01*
X57463722Y-107009268D01*
X57586860Y-106820791D01*
X57677296Y-106614616D01*
X57732564Y-106396368D01*
X57751156Y-106172000D01*
X57732564Y-105947632D01*
X57677296Y-105729384D01*
X57586860Y-105523209D01*
X57463722Y-105334732D01*
X57311240Y-105169094D01*
X57172956Y-105061462D01*
X57133575Y-105030810D01*
X57090302Y-105007392D01*
X57040712Y-104958172D01*
X57025605Y-104889955D01*
X57049776Y-104824400D01*
X57078198Y-104796763D01*
X57259078Y-104670109D01*
X57426106Y-104503081D01*
X57443669Y-104477999D01*
X120518843Y-104477999D01*
X120537435Y-104702363D01*
X120537435Y-104702366D01*
X120537436Y-104702368D01*
X120574962Y-104850556D01*
X120592705Y-104920618D01*
X120683138Y-105126788D01*
X120683140Y-105126791D01*
X120806278Y-105315268D01*
X120958760Y-105480906D01*
X121136424Y-105619189D01*
X121334426Y-105726342D01*
X121547365Y-105799444D01*
X121769431Y-105836500D01*
X121994569Y-105836500D01*
X122216635Y-105799444D01*
X122429574Y-105726342D01*
X122627576Y-105619189D01*
X122805240Y-105480906D01*
X122957722Y-105315268D01*
X123080860Y-105126791D01*
X123171296Y-104920616D01*
X123226564Y-104702368D01*
X123245156Y-104478000D01*
X123226564Y-104253632D01*
X123171296Y-104035384D01*
X123080860Y-103829209D01*
X122957722Y-103640732D01*
X122805240Y-103475094D01*
X122627576Y-103336811D01*
X122627575Y-103336810D01*
X122591067Y-103317053D01*
X122541477Y-103267833D01*
X122526370Y-103199616D01*
X122550541Y-103134061D01*
X122591066Y-103098946D01*
X122627576Y-103079189D01*
X122805240Y-102940906D01*
X122957722Y-102775268D01*
X123080860Y-102586791D01*
X123171296Y-102380616D01*
X123226564Y-102162368D01*
X123245156Y-101938000D01*
X123226564Y-101713632D01*
X123171296Y-101495384D01*
X123080860Y-101289209D01*
X122957722Y-101100732D01*
X122805240Y-100935094D01*
X122627576Y-100796811D01*
X122627575Y-100796810D01*
X122591067Y-100777053D01*
X122541477Y-100727833D01*
X122526370Y-100659616D01*
X122550541Y-100594061D01*
X122591066Y-100558946D01*
X122627576Y-100539189D01*
X122805240Y-100400906D01*
X122957722Y-100235268D01*
X123080860Y-100046791D01*
X123171296Y-99840616D01*
X123226564Y-99622368D01*
X123245156Y-99398000D01*
X123226564Y-99173632D01*
X123171296Y-98955384D01*
X123080860Y-98749209D01*
X122957722Y-98560732D01*
X122957721Y-98560731D01*
X122957718Y-98560726D01*
X122812510Y-98402990D01*
X122781587Y-98340336D01*
X122789447Y-98270910D01*
X122833594Y-98216754D01*
X122860396Y-98202829D01*
X122978204Y-98158889D01*
X123095261Y-98071261D01*
X123182889Y-97954204D01*
X123213781Y-97871380D01*
X123233988Y-97817205D01*
X123233988Y-97817203D01*
X123233989Y-97817201D01*
X123240500Y-97756638D01*
X123240500Y-95959362D01*
X123233989Y-95898799D01*
X123233988Y-95898797D01*
X123233988Y-95898794D01*
X123182889Y-95761796D01*
X123095261Y-95644738D01*
X122978203Y-95557110D01*
X122841205Y-95506011D01*
X122783924Y-95499853D01*
X122783918Y-95499852D01*
X122780638Y-95499500D01*
X120983362Y-95499500D01*
X120980082Y-95499852D01*
X120980075Y-95499853D01*
X120922794Y-95506011D01*
X120785796Y-95557110D01*
X120668738Y-95644738D01*
X120581110Y-95761796D01*
X120530011Y-95898794D01*
X120527542Y-95921761D01*
X120523500Y-95959362D01*
X120523500Y-97756638D01*
X120523852Y-97759918D01*
X120523853Y-97759924D01*
X120530011Y-97817205D01*
X120581110Y-97954203D01*
X120668738Y-98071261D01*
X120785793Y-98158887D01*
X120785796Y-98158889D01*
X120903596Y-98202826D01*
X120959527Y-98244697D01*
X120983944Y-98310161D01*
X120969092Y-98378434D01*
X120951490Y-98402990D01*
X120806279Y-98560730D01*
X120683138Y-98749211D01*
X120592705Y-98955381D01*
X120537435Y-99173636D01*
X120518843Y-99398000D01*
X120537435Y-99622363D01*
X120537435Y-99622366D01*
X120537436Y-99622368D01*
X120592704Y-99840616D01*
X120595250Y-99846420D01*
X120683138Y-100046788D01*
X120683140Y-100046791D01*
X120806278Y-100235268D01*
X120958760Y-100400906D01*
X121136424Y-100539189D01*
X121172930Y-100558945D01*
X121222520Y-100608162D01*
X121237630Y-100676379D01*
X121213459Y-100741935D01*
X121172933Y-100777052D01*
X121136427Y-100796809D01*
X120958760Y-100935094D01*
X120806279Y-101100730D01*
X120683138Y-101289211D01*
X120592705Y-101495381D01*
X120537435Y-101713636D01*
X120518843Y-101938000D01*
X120537435Y-102162363D01*
X120537435Y-102162366D01*
X120537436Y-102162368D01*
X120591039Y-102374042D01*
X120592705Y-102380618D01*
X120683138Y-102586788D01*
X120683140Y-102586791D01*
X120806278Y-102775268D01*
X120958760Y-102940906D01*
X121136424Y-103079189D01*
X121172930Y-103098945D01*
X121222520Y-103148162D01*
X121237630Y-103216379D01*
X121213459Y-103281935D01*
X121172933Y-103317052D01*
X121136427Y-103336809D01*
X121136425Y-103336810D01*
X121136424Y-103336811D01*
X120978950Y-103459379D01*
X120958760Y-103475094D01*
X120806279Y-103640730D01*
X120683138Y-103829211D01*
X120592705Y-104035381D01*
X120592704Y-104035384D01*
X120537436Y-104253632D01*
X120537435Y-104253636D01*
X120518843Y-104477999D01*
X57443669Y-104477999D01*
X57561600Y-104309576D01*
X57661430Y-104095492D01*
X57718636Y-103882000D01*
X56821686Y-103882000D01*
X56847493Y-103841844D01*
X56888000Y-103703889D01*
X56888000Y-103560111D01*
X56847493Y-103422156D01*
X56821686Y-103382000D01*
X57718636Y-103382000D01*
X57718635Y-103381999D01*
X57661430Y-103168507D01*
X57561599Y-102954421D01*
X57426109Y-102760921D01*
X57259081Y-102593893D01*
X57078197Y-102467236D01*
X57034572Y-102412659D01*
X57027380Y-102343160D01*
X57058902Y-102280806D01*
X57090301Y-102256607D01*
X57133576Y-102233189D01*
X57311240Y-102094906D01*
X57463722Y-101929268D01*
X57586860Y-101740791D01*
X57677296Y-101534616D01*
X57732564Y-101316368D01*
X57751156Y-101092000D01*
X57734998Y-100897015D01*
X57749080Y-100828579D01*
X57797925Y-100778620D01*
X57866026Y-100762999D01*
X57931761Y-100786676D01*
X57967933Y-100828322D01*
X58025003Y-100935094D01*
X58047405Y-100977004D01*
X58173432Y-101130568D01*
X58326996Y-101256595D01*
X58502196Y-101350241D01*
X58692299Y-101407908D01*
X58890000Y-101427380D01*
X59087701Y-101407908D01*
X59277804Y-101350241D01*
X59453004Y-101256595D01*
X59521176Y-101200647D01*
X59585487Y-101173334D01*
X59599842Y-101172500D01*
X61318457Y-101172500D01*
X61385496Y-101192185D01*
X61406138Y-101208819D01*
X62931724Y-102734405D01*
X62965209Y-102795728D01*
X62967446Y-102809930D01*
X62976092Y-102897704D01*
X63033758Y-103087803D01*
X63102484Y-103216379D01*
X63127405Y-103263004D01*
X63253432Y-103416568D01*
X63406996Y-103542595D01*
X63582196Y-103636241D01*
X63772299Y-103693908D01*
X63970000Y-103713380D01*
X64167701Y-103693908D01*
X64357804Y-103636241D01*
X64533004Y-103542595D01*
X64686568Y-103416568D01*
X64812595Y-103263004D01*
X64906241Y-103087804D01*
X64963908Y-102897701D01*
X64983380Y-102700000D01*
X64963908Y-102502299D01*
X64906241Y-102312196D01*
X64812595Y-102136996D01*
X64686568Y-101983432D01*
X64533004Y-101857405D01*
X64533003Y-101857404D01*
X64357803Y-101763758D01*
X64167704Y-101706092D01*
X64079930Y-101697446D01*
X64015143Y-101671284D01*
X64004405Y-101661724D01*
X62265804Y-99923123D01*
X62254021Y-99909489D01*
X62239469Y-99889942D01*
X62239467Y-99889940D01*
X62201060Y-99857712D01*
X62193085Y-99850404D01*
X62191653Y-99848972D01*
X62189101Y-99846420D01*
X62186278Y-99844187D01*
X62186267Y-99844178D01*
X62164512Y-99826976D01*
X62161719Y-99824701D01*
X62102748Y-99775219D01*
X62085965Y-99764526D01*
X62016159Y-99731974D01*
X62012917Y-99730404D01*
X61944144Y-99695866D01*
X61925349Y-99689333D01*
X61849926Y-99673759D01*
X61846406Y-99672979D01*
X61771508Y-99655228D01*
X61751727Y-99653207D01*
X61750558Y-99653241D01*
X61674706Y-99655448D01*
X61671102Y-99655500D01*
X59599842Y-99655500D01*
X59532803Y-99635815D01*
X59521177Y-99627353D01*
X59453003Y-99571404D01*
X59340370Y-99511201D01*
X59277804Y-99477759D01*
X59087701Y-99420092D01*
X59087698Y-99420091D01*
X58890000Y-99400620D01*
X58692301Y-99420091D01*
X58628931Y-99439314D01*
X58502196Y-99477759D01*
X58502192Y-99477760D01*
X58502192Y-99477761D01*
X58326996Y-99571404D01*
X58173432Y-99697432D01*
X58047404Y-99850996D01*
X57977745Y-99981321D01*
X57953759Y-100026196D01*
X57932284Y-100096990D01*
X57896091Y-100216301D01*
X57876619Y-100414000D01*
X57887748Y-100526992D01*
X57874729Y-100595638D01*
X57826664Y-100646348D01*
X57758813Y-100663022D01*
X57692718Y-100640366D01*
X57650789Y-100588954D01*
X57586862Y-100443213D01*
X57586861Y-100443211D01*
X57586860Y-100443209D01*
X57463722Y-100254732D01*
X57463721Y-100254731D01*
X57463718Y-100254726D01*
X57318510Y-100096990D01*
X57287587Y-100034336D01*
X57295447Y-99964910D01*
X57339594Y-99910754D01*
X57366396Y-99896829D01*
X57484204Y-99852889D01*
X57601261Y-99765261D01*
X57688889Y-99648204D01*
X57719246Y-99566814D01*
X57739988Y-99511205D01*
X57739988Y-99511203D01*
X57739989Y-99511201D01*
X57746500Y-99450638D01*
X57746500Y-97653362D01*
X57739989Y-97592799D01*
X57739988Y-97592797D01*
X57739988Y-97592794D01*
X57688889Y-97455796D01*
X57621669Y-97366000D01*
X64988620Y-97366000D01*
X64989353Y-97373445D01*
X65008091Y-97563698D01*
X65008092Y-97563701D01*
X65065759Y-97753804D01*
X65159405Y-97929004D01*
X65215352Y-97997176D01*
X65242665Y-98061485D01*
X65243499Y-98075840D01*
X65243499Y-99841705D01*
X65242190Y-99859672D01*
X65238658Y-99883786D01*
X65243027Y-99933729D01*
X65243499Y-99944512D01*
X65243499Y-99946572D01*
X65243499Y-99946583D01*
X65243500Y-99950180D01*
X65243917Y-99953753D01*
X65243918Y-99953759D01*
X65247139Y-99981321D01*
X65247505Y-99984905D01*
X65254214Y-100061582D01*
X65258523Y-100081017D01*
X65258920Y-100082109D01*
X65258921Y-100082113D01*
X65264336Y-100096990D01*
X65284855Y-100153367D01*
X65286037Y-100156771D01*
X65310251Y-100229843D01*
X65318922Y-100247754D01*
X65319564Y-100248731D01*
X65319565Y-100248732D01*
X65348105Y-100292125D01*
X65361245Y-100312103D01*
X65363178Y-100315138D01*
X65402970Y-100379651D01*
X65402972Y-100379653D01*
X65403589Y-100380653D01*
X65416153Y-100396075D01*
X65416997Y-100396871D01*
X65416999Y-100396874D01*
X65472173Y-100448928D01*
X65474760Y-100451441D01*
X67503724Y-102480405D01*
X67537209Y-102541728D01*
X67539446Y-102555930D01*
X67548092Y-102643704D01*
X67605758Y-102833803D01*
X67670230Y-102954421D01*
X67699405Y-103009004D01*
X67825432Y-103162568D01*
X67978996Y-103288595D01*
X68154196Y-103382241D01*
X68344299Y-103439908D01*
X68542000Y-103459380D01*
X68739701Y-103439908D01*
X68929804Y-103382241D01*
X69105004Y-103288595D01*
X69258568Y-103162568D01*
X69384595Y-103009004D01*
X69478241Y-102833804D01*
X69535908Y-102643701D01*
X69555380Y-102446000D01*
X69535908Y-102248299D01*
X69478241Y-102058196D01*
X69384595Y-101882996D01*
X69258568Y-101729432D01*
X69105004Y-101603405D01*
X69105003Y-101603404D01*
X68929803Y-101509758D01*
X68739704Y-101452092D01*
X68651930Y-101443446D01*
X68587143Y-101417284D01*
X68576405Y-101407724D01*
X66820682Y-99652000D01*
X92420620Y-99652000D01*
X92440091Y-99849698D01*
X92440092Y-99849701D01*
X92497759Y-100039804D01*
X92591405Y-100215004D01*
X92717432Y-100368568D01*
X92870996Y-100494595D01*
X93046196Y-100588241D01*
X93236299Y-100645908D01*
X93434000Y-100665380D01*
X93631701Y-100645908D01*
X93821804Y-100588241D01*
X93997004Y-100494595D01*
X94150568Y-100368568D01*
X94276595Y-100215004D01*
X94370241Y-100039804D01*
X94427908Y-99849701D01*
X94436552Y-99761932D01*
X94462712Y-99697145D01*
X94472265Y-99686414D01*
X96505861Y-97652819D01*
X96567185Y-97619334D01*
X96593543Y-97616500D01*
X97804158Y-97616500D01*
X97871197Y-97636185D01*
X97882823Y-97644647D01*
X97950996Y-97700595D01*
X98126196Y-97794241D01*
X98316299Y-97851908D01*
X98514000Y-97871380D01*
X98711701Y-97851908D01*
X98901804Y-97794241D01*
X99077004Y-97700595D01*
X99230568Y-97574568D01*
X99356595Y-97421004D01*
X99450241Y-97245804D01*
X99507908Y-97055701D01*
X99527380Y-96858000D01*
X99507908Y-96660299D01*
X99450241Y-96470196D01*
X99356595Y-96294996D01*
X99230568Y-96141432D01*
X99077004Y-96015405D01*
X99077003Y-96015404D01*
X98978345Y-95962671D01*
X98901804Y-95921759D01*
X98711701Y-95864092D01*
X98711698Y-95864091D01*
X98514000Y-95844620D01*
X98316301Y-95864091D01*
X98252931Y-95883314D01*
X98126196Y-95921759D01*
X98126192Y-95921760D01*
X98126192Y-95921761D01*
X97950996Y-96015404D01*
X97882823Y-96071353D01*
X97818513Y-96098666D01*
X97804158Y-96099500D01*
X96292295Y-96099500D01*
X96274325Y-96098191D01*
X96260233Y-96096127D01*
X96250211Y-96094659D01*
X96250210Y-96094659D01*
X96200274Y-96099028D01*
X96189467Y-96099500D01*
X96183820Y-96099500D01*
X96180258Y-96099916D01*
X96180246Y-96099917D01*
X96152682Y-96103139D01*
X96149097Y-96103505D01*
X96072419Y-96110214D01*
X96052973Y-96114524D01*
X95980652Y-96140847D01*
X95977249Y-96142030D01*
X95904160Y-96166250D01*
X95886239Y-96174925D01*
X95821901Y-96217241D01*
X95818861Y-96219178D01*
X95753359Y-96259580D01*
X95737916Y-96272160D01*
X95685052Y-96328191D01*
X95682541Y-96330776D01*
X93399593Y-98613724D01*
X93338270Y-98647209D01*
X93324068Y-98649446D01*
X93236296Y-98658092D01*
X93046196Y-98715758D01*
X92870996Y-98809404D01*
X92717432Y-98935432D01*
X92591404Y-99088996D01*
X92546166Y-99173632D01*
X92497759Y-99264196D01*
X92459314Y-99390931D01*
X92440091Y-99454301D01*
X92420620Y-99652000D01*
X66820682Y-99652000D01*
X66796819Y-99628137D01*
X66763334Y-99566814D01*
X66760500Y-99540456D01*
X66760500Y-98075841D01*
X66780185Y-98008802D01*
X66788647Y-97997176D01*
X66788648Y-97997175D01*
X66844595Y-97929004D01*
X66938241Y-97753804D01*
X66995908Y-97563701D01*
X67015380Y-97366000D01*
X66995908Y-97168299D01*
X66938241Y-96978196D01*
X66844595Y-96802996D01*
X66718568Y-96649432D01*
X66565004Y-96523405D01*
X66565003Y-96523404D01*
X66465449Y-96470192D01*
X66389804Y-96429759D01*
X66199701Y-96372092D01*
X66199698Y-96372091D01*
X66026247Y-96355008D01*
X66002000Y-96352620D01*
X66001999Y-96352620D01*
X65804301Y-96372091D01*
X65740931Y-96391314D01*
X65614196Y-96429759D01*
X65614192Y-96429760D01*
X65614192Y-96429761D01*
X65438996Y-96523404D01*
X65285432Y-96649432D01*
X65159404Y-96802996D01*
X65100446Y-96913301D01*
X65065759Y-96978196D01*
X65042249Y-97055698D01*
X65008091Y-97168301D01*
X64998048Y-97270273D01*
X64988620Y-97366000D01*
X57621669Y-97366000D01*
X57601261Y-97338738D01*
X57484203Y-97251110D01*
X57347205Y-97200011D01*
X57289924Y-97193853D01*
X57289918Y-97193852D01*
X57286638Y-97193500D01*
X55489362Y-97193500D01*
X55486082Y-97193852D01*
X55486075Y-97193853D01*
X55428794Y-97200011D01*
X55291796Y-97251110D01*
X55174738Y-97338738D01*
X55087110Y-97455796D01*
X55036011Y-97592794D01*
X55030437Y-97644647D01*
X55029500Y-97653362D01*
X55029500Y-99450638D01*
X55029852Y-99453918D01*
X55029853Y-99453924D01*
X55036011Y-99511205D01*
X55087110Y-99648203D01*
X55174738Y-99765261D01*
X55289267Y-99850996D01*
X55291796Y-99852889D01*
X55409596Y-99896826D01*
X55465527Y-99938697D01*
X55489944Y-100004161D01*
X55475092Y-100072434D01*
X55457490Y-100096990D01*
X55312279Y-100254730D01*
X55189138Y-100443211D01*
X55098705Y-100649381D01*
X55098704Y-100649384D01*
X55094654Y-100665379D01*
X55043435Y-100867636D01*
X55024843Y-101092000D01*
X55043435Y-101316363D01*
X55043435Y-101316366D01*
X55043436Y-101316368D01*
X55092409Y-101509759D01*
X55098705Y-101534618D01*
X55189138Y-101740788D01*
X55189140Y-101740791D01*
X55312278Y-101929268D01*
X55464760Y-102094906D01*
X55642424Y-102233189D01*
X55685697Y-102256607D01*
X55735287Y-102305825D01*
X55750395Y-102374042D01*
X55726225Y-102439598D01*
X55697803Y-102467236D01*
X55516918Y-102593893D01*
X55349890Y-102760921D01*
X55214400Y-102954421D01*
X55114569Y-103168507D01*
X55057364Y-103381999D01*
X55057364Y-103382000D01*
X55954314Y-103382000D01*
X55928507Y-103422156D01*
X55888000Y-103560111D01*
X55888000Y-103703889D01*
X55928507Y-103841844D01*
X55954314Y-103882000D01*
X55057364Y-103882000D01*
X55114569Y-104095492D01*
X55214399Y-104309576D01*
X55349893Y-104503081D01*
X55516918Y-104670106D01*
X55697802Y-104796763D01*
X55741426Y-104851340D01*
X55748619Y-104920839D01*
X55717097Y-104983193D01*
X55685698Y-105007392D01*
X55642422Y-105030812D01*
X55464760Y-105169094D01*
X55312279Y-105334730D01*
X55189138Y-105523211D01*
X55100038Y-105726342D01*
X55098704Y-105729384D01*
X55052377Y-105912324D01*
X55043435Y-105947636D01*
X55024843Y-106172000D01*
X55043435Y-106396363D01*
X55098705Y-106614618D01*
X55189138Y-106820788D01*
X55189140Y-106820791D01*
X55312278Y-107009268D01*
X55464760Y-107174906D01*
X55642424Y-107313189D01*
X55642426Y-107313190D01*
X55678931Y-107332946D01*
X55728521Y-107382165D01*
X55743629Y-107450382D01*
X55719458Y-107515937D01*
X55678931Y-107551054D01*
X55642426Y-107570809D01*
X55464760Y-107709094D01*
X55312279Y-107874730D01*
X55189138Y-108063211D01*
X55098705Y-108269381D01*
X55043435Y-108487636D01*
X55024843Y-108712000D01*
X55043435Y-108936363D01*
X55043435Y-108936366D01*
X55043436Y-108936368D01*
X55072211Y-109049999D01*
X55098705Y-109154618D01*
X55189138Y-109360788D01*
X55189140Y-109360791D01*
X55312278Y-109549268D01*
X55464760Y-109714906D01*
X55642424Y-109853189D01*
X55642426Y-109853190D01*
X55678931Y-109872946D01*
X55728521Y-109922165D01*
X55743629Y-109990382D01*
X55719458Y-110055937D01*
X55678931Y-110091054D01*
X55642426Y-110110809D01*
X55464760Y-110249094D01*
X55312279Y-110414730D01*
X55189138Y-110603211D01*
X55098705Y-110809381D01*
X55098704Y-110809384D01*
X55094951Y-110824204D01*
X55043435Y-111027636D01*
X55024843Y-111252000D01*
X50300500Y-111252000D01*
X50300500Y-95257984D01*
X68007730Y-95257984D01*
X68007881Y-95262314D01*
X68007881Y-95262320D01*
X68017625Y-95541363D01*
X68017625Y-95541372D01*
X68017777Y-95545697D01*
X68018528Y-95549958D01*
X68018529Y-95549964D01*
X68067015Y-95824940D01*
X68067017Y-95824949D01*
X68067769Y-95829212D01*
X68069108Y-95833333D01*
X68069109Y-95833337D01*
X68155390Y-96098886D01*
X68155393Y-96098895D01*
X68156731Y-96103011D01*
X68158632Y-96106909D01*
X68158633Y-96106911D01*
X68278473Y-96352620D01*
X68282933Y-96361763D01*
X68285349Y-96365345D01*
X68285352Y-96365350D01*
X68441497Y-96596844D01*
X68441500Y-96596848D01*
X68443919Y-96600434D01*
X68446814Y-96603649D01*
X68446817Y-96603653D01*
X68633653Y-96811156D01*
X68633659Y-96811161D01*
X68636554Y-96814377D01*
X68857089Y-96999428D01*
X69101233Y-97151986D01*
X69364232Y-97269081D01*
X69640969Y-97348434D01*
X69926056Y-97388500D01*
X69930390Y-97388500D01*
X70639740Y-97388500D01*
X70641890Y-97388500D01*
X70857187Y-97373445D01*
X71138785Y-97313589D01*
X71409312Y-97215126D01*
X71663503Y-97079970D01*
X71896410Y-96910753D01*
X72103499Y-96710769D01*
X72280741Y-96483910D01*
X72424686Y-96234591D01*
X72532531Y-95967665D01*
X72602177Y-95688328D01*
X72632270Y-95402016D01*
X72627240Y-95257984D01*
X103567730Y-95257984D01*
X103567881Y-95262314D01*
X103567881Y-95262320D01*
X103577625Y-95541363D01*
X103577625Y-95541372D01*
X103577777Y-95545697D01*
X103578528Y-95549958D01*
X103578529Y-95549964D01*
X103627015Y-95824940D01*
X103627017Y-95824949D01*
X103627769Y-95829212D01*
X103629108Y-95833333D01*
X103629109Y-95833337D01*
X103715390Y-96098886D01*
X103715393Y-96098895D01*
X103716731Y-96103011D01*
X103718632Y-96106909D01*
X103718633Y-96106911D01*
X103838473Y-96352620D01*
X103842933Y-96361763D01*
X103845349Y-96365345D01*
X103845352Y-96365350D01*
X104001497Y-96596844D01*
X104001500Y-96596848D01*
X104003919Y-96600434D01*
X104006814Y-96603649D01*
X104006817Y-96603653D01*
X104193653Y-96811156D01*
X104193659Y-96811161D01*
X104196554Y-96814377D01*
X104417089Y-96999428D01*
X104661233Y-97151986D01*
X104924232Y-97269081D01*
X105200969Y-97348434D01*
X105486056Y-97388500D01*
X105490390Y-97388500D01*
X106199740Y-97388500D01*
X106201890Y-97388500D01*
X106417187Y-97373445D01*
X106698785Y-97313589D01*
X106969312Y-97215126D01*
X107223503Y-97079970D01*
X107456410Y-96910753D01*
X107663499Y-96710769D01*
X107840741Y-96483910D01*
X107984686Y-96234591D01*
X108092531Y-95967665D01*
X108162177Y-95688328D01*
X108192270Y-95402016D01*
X108182223Y-95114303D01*
X108132231Y-94830788D01*
X108043269Y-94556989D01*
X107917067Y-94298237D01*
X107914647Y-94294649D01*
X107758502Y-94063155D01*
X107758500Y-94063153D01*
X107756081Y-94059566D01*
X107654027Y-93946223D01*
X107566346Y-93848843D01*
X107566340Y-93848837D01*
X107563446Y-93845623D01*
X107342911Y-93660572D01*
X107339237Y-93658276D01*
X107102436Y-93510306D01*
X107102429Y-93510302D01*
X107098767Y-93508014D01*
X107094820Y-93506256D01*
X107094815Y-93506254D01*
X106926432Y-93431285D01*
X106835768Y-93390919D01*
X106831608Y-93389726D01*
X106563197Y-93312760D01*
X106563189Y-93312758D01*
X106559031Y-93311566D01*
X106554750Y-93310964D01*
X106554739Y-93310962D01*
X106278238Y-93272103D01*
X106278231Y-93272102D01*
X106273944Y-93271500D01*
X105558110Y-93271500D01*
X105555993Y-93271648D01*
X105555965Y-93271649D01*
X105347134Y-93286252D01*
X105347122Y-93286253D01*
X105342813Y-93286555D01*
X105338576Y-93287455D01*
X105338573Y-93287456D01*
X105065453Y-93345510D01*
X105065450Y-93345510D01*
X105061215Y-93346411D01*
X105057153Y-93347889D01*
X105057144Y-93347892D01*
X104794754Y-93443393D01*
X104794740Y-93443399D01*
X104790688Y-93444874D01*
X104786868Y-93446904D01*
X104786866Y-93446906D01*
X104540319Y-93577997D01*
X104540310Y-93578002D01*
X104536497Y-93580030D01*
X104533004Y-93582567D01*
X104532994Y-93582574D01*
X104307097Y-93746698D01*
X104307087Y-93746705D01*
X104303590Y-93749247D01*
X104300481Y-93752248D01*
X104300473Y-93752256D01*
X104099615Y-93946223D01*
X104099609Y-93946229D01*
X104096501Y-93949231D01*
X104093838Y-93952639D01*
X104093833Y-93952645D01*
X103921927Y-94172674D01*
X103921921Y-94172682D01*
X103919259Y-94176090D01*
X103917097Y-94179834D01*
X103917092Y-94179842D01*
X103777479Y-94421657D01*
X103777472Y-94421670D01*
X103775314Y-94425409D01*
X103773698Y-94429408D01*
X103773691Y-94429423D01*
X103669091Y-94688318D01*
X103669087Y-94688330D01*
X103667469Y-94692335D01*
X103666422Y-94696532D01*
X103666421Y-94696537D01*
X103633978Y-94826662D01*
X103597823Y-94971672D01*
X103597372Y-94975957D01*
X103597370Y-94975972D01*
X103568182Y-95253674D01*
X103568181Y-95253688D01*
X103567730Y-95257984D01*
X72627240Y-95257984D01*
X72622223Y-95114303D01*
X72572231Y-94830788D01*
X72483269Y-94556989D01*
X72357067Y-94298237D01*
X72354647Y-94294649D01*
X72198502Y-94063155D01*
X72198500Y-94063153D01*
X72196081Y-94059566D01*
X72094027Y-93946223D01*
X72006346Y-93848843D01*
X72006340Y-93848837D01*
X72003446Y-93845623D01*
X71782911Y-93660572D01*
X71779237Y-93658276D01*
X71542436Y-93510306D01*
X71542429Y-93510302D01*
X71538767Y-93508014D01*
X71534820Y-93506256D01*
X71534815Y-93506254D01*
X71366432Y-93431285D01*
X71275768Y-93390919D01*
X71271608Y-93389726D01*
X71003197Y-93312760D01*
X71003189Y-93312758D01*
X70999031Y-93311566D01*
X70994750Y-93310964D01*
X70994739Y-93310962D01*
X70718238Y-93272103D01*
X70718231Y-93272102D01*
X70713944Y-93271500D01*
X69998110Y-93271500D01*
X69995993Y-93271648D01*
X69995965Y-93271649D01*
X69787134Y-93286252D01*
X69787122Y-93286253D01*
X69782813Y-93286555D01*
X69778576Y-93287455D01*
X69778573Y-93287456D01*
X69505453Y-93345510D01*
X69505450Y-93345510D01*
X69501215Y-93346411D01*
X69497153Y-93347889D01*
X69497144Y-93347892D01*
X69234754Y-93443393D01*
X69234740Y-93443399D01*
X69230688Y-93444874D01*
X69226868Y-93446904D01*
X69226866Y-93446906D01*
X68980319Y-93577997D01*
X68980310Y-93578002D01*
X68976497Y-93580030D01*
X68973004Y-93582567D01*
X68972994Y-93582574D01*
X68747097Y-93746698D01*
X68747087Y-93746705D01*
X68743590Y-93749247D01*
X68740481Y-93752248D01*
X68740473Y-93752256D01*
X68539615Y-93946223D01*
X68539609Y-93946229D01*
X68536501Y-93949231D01*
X68533838Y-93952639D01*
X68533833Y-93952645D01*
X68361927Y-94172674D01*
X68361921Y-94172682D01*
X68359259Y-94176090D01*
X68357097Y-94179834D01*
X68357092Y-94179842D01*
X68217479Y-94421657D01*
X68217472Y-94421670D01*
X68215314Y-94425409D01*
X68213698Y-94429408D01*
X68213691Y-94429423D01*
X68109091Y-94688318D01*
X68109087Y-94688330D01*
X68107469Y-94692335D01*
X68106422Y-94696532D01*
X68106421Y-94696537D01*
X68073978Y-94826662D01*
X68037823Y-94971672D01*
X68037372Y-94975957D01*
X68037370Y-94975972D01*
X68008182Y-95253674D01*
X68008181Y-95253688D01*
X68007730Y-95257984D01*
X50300500Y-95257984D01*
X50300500Y-91229999D01*
X61981405Y-91229999D01*
X62001741Y-91462441D01*
X62001742Y-91462444D01*
X62062133Y-91687826D01*
X62160744Y-91899297D01*
X62294578Y-92090432D01*
X62459568Y-92255422D01*
X62650703Y-92389256D01*
X62862174Y-92487867D01*
X63087556Y-92548258D01*
X63242518Y-92561815D01*
X63319999Y-92568594D01*
X63319999Y-92568593D01*
X63320000Y-92568594D01*
X63552444Y-92548258D01*
X63777826Y-92487867D01*
X63989297Y-92389256D01*
X64180432Y-92255422D01*
X64345422Y-92090432D01*
X64479256Y-91899297D01*
X64577867Y-91687826D01*
X64638258Y-91462444D01*
X64658594Y-91230000D01*
X64658594Y-91229999D01*
X76481405Y-91229999D01*
X76501741Y-91462441D01*
X76501742Y-91462444D01*
X76562133Y-91687826D01*
X76660744Y-91899297D01*
X76794578Y-92090432D01*
X76959568Y-92255422D01*
X77150703Y-92389256D01*
X77362174Y-92487867D01*
X77587556Y-92548258D01*
X77742518Y-92561815D01*
X77819999Y-92568594D01*
X77819999Y-92568593D01*
X77820000Y-92568594D01*
X78052444Y-92548258D01*
X78277826Y-92487867D01*
X78489297Y-92389256D01*
X78680432Y-92255422D01*
X78845422Y-92090432D01*
X78979256Y-91899297D01*
X79077867Y-91687826D01*
X79138258Y-91462444D01*
X79158594Y-91230000D01*
X79158594Y-91229999D01*
X97041405Y-91229999D01*
X97061741Y-91462441D01*
X97061742Y-91462444D01*
X97122133Y-91687826D01*
X97220744Y-91899297D01*
X97354578Y-92090432D01*
X97519568Y-92255422D01*
X97710703Y-92389256D01*
X97922174Y-92487867D01*
X98147556Y-92548258D01*
X98302518Y-92561815D01*
X98379999Y-92568594D01*
X98379999Y-92568593D01*
X98380000Y-92568594D01*
X98612444Y-92548258D01*
X98837826Y-92487867D01*
X99049297Y-92389256D01*
X99240432Y-92255422D01*
X99405422Y-92090432D01*
X99539256Y-91899297D01*
X99637867Y-91687826D01*
X99698258Y-91462444D01*
X99718594Y-91230000D01*
X99718594Y-91229999D01*
X111541405Y-91229999D01*
X111561741Y-91462441D01*
X111561742Y-91462444D01*
X111622133Y-91687826D01*
X111720744Y-91899297D01*
X111854578Y-92090432D01*
X112019568Y-92255422D01*
X112210703Y-92389256D01*
X112422174Y-92487867D01*
X112647556Y-92548258D01*
X112880000Y-92568594D01*
X113112444Y-92548258D01*
X113337826Y-92487867D01*
X113549297Y-92389256D01*
X113740432Y-92255422D01*
X113905422Y-92090432D01*
X114039256Y-91899297D01*
X114137867Y-91687826D01*
X114198258Y-91462444D01*
X114218594Y-91230000D01*
X114198258Y-90997556D01*
X114137867Y-90772174D01*
X114039256Y-90560703D01*
X113905422Y-90369568D01*
X113740432Y-90204578D01*
X113549297Y-90070744D01*
X113549296Y-90070743D01*
X113337827Y-89972133D01*
X113112441Y-89911741D01*
X112880000Y-89891405D01*
X112647558Y-89911741D01*
X112422172Y-89972133D01*
X112210702Y-90070744D01*
X112019567Y-90204578D01*
X111854578Y-90369567D01*
X111720744Y-90560702D01*
X111622133Y-90772172D01*
X111561741Y-90997558D01*
X111541405Y-91229999D01*
X99718594Y-91229999D01*
X99698258Y-90997556D01*
X99637867Y-90772174D01*
X99539256Y-90560703D01*
X99405422Y-90369568D01*
X99240432Y-90204578D01*
X99057353Y-90076385D01*
X99013730Y-90021809D01*
X99006537Y-89952310D01*
X99038059Y-89889956D01*
X99057355Y-89873236D01*
X99123423Y-89826975D01*
X98512533Y-89216086D01*
X98522315Y-89214680D01*
X98653100Y-89154952D01*
X98761761Y-89060798D01*
X98839493Y-88939844D01*
X98863076Y-88859524D01*
X99476975Y-89473423D01*
X99531867Y-89395028D01*
X99629848Y-89184907D01*
X99689854Y-88960961D01*
X99710061Y-88730000D01*
X99689854Y-88499038D01*
X99629848Y-88275092D01*
X99531867Y-88064972D01*
X99476974Y-87986576D01*
X98863076Y-88600475D01*
X98839493Y-88520156D01*
X98761761Y-88399202D01*
X98653100Y-88305048D01*
X98522315Y-88245320D01*
X98512534Y-88243913D01*
X99123423Y-87633024D01*
X99123422Y-87633023D01*
X99057355Y-87586762D01*
X99013731Y-87532185D01*
X99006538Y-87462686D01*
X99038060Y-87400332D01*
X99057349Y-87383617D01*
X99240432Y-87255422D01*
X99405422Y-87090432D01*
X99539256Y-86899297D01*
X99637867Y-86687826D01*
X99698258Y-86462444D01*
X99718594Y-86230000D01*
X111541405Y-86230000D01*
X111561741Y-86462441D01*
X111561742Y-86462444D01*
X111622133Y-86687826D01*
X111720744Y-86899297D01*
X111854578Y-87090432D01*
X112019568Y-87255422D01*
X112210703Y-87389256D01*
X112422174Y-87487867D01*
X112647556Y-87548258D01*
X112880000Y-87568594D01*
X113112444Y-87548258D01*
X113337826Y-87487867D01*
X113549297Y-87389256D01*
X113740432Y-87255422D01*
X113905422Y-87090432D01*
X114039256Y-86899297D01*
X114137867Y-86687826D01*
X114198258Y-86462444D01*
X114218594Y-86230000D01*
X114198258Y-85997556D01*
X114137867Y-85772174D01*
X114039256Y-85560703D01*
X113905422Y-85369568D01*
X113740432Y-85204578D01*
X113549297Y-85070744D01*
X113549296Y-85070743D01*
X113337827Y-84972133D01*
X113112441Y-84911741D01*
X112879999Y-84891405D01*
X112647558Y-84911741D01*
X112422172Y-84972133D01*
X112210702Y-85070744D01*
X112019567Y-85204578D01*
X111854578Y-85369567D01*
X111720744Y-85560702D01*
X111622133Y-85772172D01*
X111561741Y-85997558D01*
X111541405Y-86230000D01*
X99718594Y-86230000D01*
X99698258Y-85997556D01*
X99637867Y-85772174D01*
X99539256Y-85560703D01*
X99405422Y-85369568D01*
X99240432Y-85204578D01*
X99049297Y-85070744D01*
X99049296Y-85070743D01*
X98837827Y-84972133D01*
X98612441Y-84911741D01*
X98380000Y-84891405D01*
X98147558Y-84911741D01*
X97922172Y-84972133D01*
X97710702Y-85070744D01*
X97519567Y-85204578D01*
X97354578Y-85369567D01*
X97220744Y-85560702D01*
X97122133Y-85772172D01*
X97061741Y-85997558D01*
X97041405Y-86230000D01*
X97061741Y-86462441D01*
X97122133Y-86687827D01*
X97220744Y-86899297D01*
X97354578Y-87090432D01*
X97519567Y-87255421D01*
X97702644Y-87383613D01*
X97746269Y-87438190D01*
X97753462Y-87507688D01*
X97721940Y-87570043D01*
X97702645Y-87586763D01*
X97636577Y-87633024D01*
X97636576Y-87633024D01*
X98247466Y-88243913D01*
X98237685Y-88245320D01*
X98106900Y-88305048D01*
X97998239Y-88399202D01*
X97920507Y-88520156D01*
X97896923Y-88600475D01*
X97283024Y-87986576D01*
X97283023Y-87986577D01*
X97228133Y-88064968D01*
X97130151Y-88275092D01*
X97070145Y-88499038D01*
X97049938Y-88730000D01*
X97070145Y-88960961D01*
X97130151Y-89184907D01*
X97228133Y-89395032D01*
X97283023Y-89473422D01*
X97283024Y-89473423D01*
X97896923Y-88859523D01*
X97920507Y-88939844D01*
X97998239Y-89060798D01*
X98106900Y-89154952D01*
X98237685Y-89214680D01*
X98247466Y-89216086D01*
X97636575Y-89826975D01*
X97636575Y-89826976D01*
X97702643Y-89873237D01*
X97746268Y-89927814D01*
X97753462Y-89997312D01*
X97721939Y-90059667D01*
X97702644Y-90076387D01*
X97519564Y-90204581D01*
X97354578Y-90369567D01*
X97220744Y-90560702D01*
X97122133Y-90772172D01*
X97061741Y-90997558D01*
X97041405Y-91229999D01*
X79158594Y-91229999D01*
X79138258Y-90997556D01*
X79077867Y-90772174D01*
X78979256Y-90560703D01*
X78845422Y-90369568D01*
X78680432Y-90204578D01*
X78497353Y-90076385D01*
X78453730Y-90021809D01*
X78446537Y-89952310D01*
X78478059Y-89889956D01*
X78497355Y-89873236D01*
X78563423Y-89826975D01*
X77952533Y-89216086D01*
X77962315Y-89214680D01*
X78093100Y-89154952D01*
X78201761Y-89060798D01*
X78279493Y-88939844D01*
X78303076Y-88859524D01*
X78916975Y-89473423D01*
X78971867Y-89395028D01*
X79069848Y-89184907D01*
X79129854Y-88960961D01*
X79150061Y-88730000D01*
X79129854Y-88499038D01*
X79069848Y-88275092D01*
X78971867Y-88064972D01*
X78916974Y-87986576D01*
X78303076Y-88600475D01*
X78279493Y-88520156D01*
X78201761Y-88399202D01*
X78093100Y-88305048D01*
X77962315Y-88245320D01*
X77952534Y-88243913D01*
X78563423Y-87633024D01*
X78563422Y-87633023D01*
X78497355Y-87586762D01*
X78453731Y-87532185D01*
X78446538Y-87462686D01*
X78478060Y-87400332D01*
X78497349Y-87383617D01*
X78680432Y-87255422D01*
X78845422Y-87090432D01*
X78979256Y-86899297D01*
X79077867Y-86687826D01*
X79138258Y-86462444D01*
X79158594Y-86230000D01*
X79138258Y-85997556D01*
X79077867Y-85772174D01*
X78979256Y-85560703D01*
X78845422Y-85369568D01*
X78680432Y-85204578D01*
X78489297Y-85070744D01*
X78489297Y-85070743D01*
X78277827Y-84972133D01*
X78052441Y-84911741D01*
X77820000Y-84891405D01*
X77587558Y-84911741D01*
X77362172Y-84972133D01*
X77150702Y-85070744D01*
X76959567Y-85204578D01*
X76794578Y-85369567D01*
X76660744Y-85560702D01*
X76562133Y-85772172D01*
X76501741Y-85997558D01*
X76481405Y-86229999D01*
X76501741Y-86462441D01*
X76562133Y-86687827D01*
X76660744Y-86899297D01*
X76794578Y-87090432D01*
X76959567Y-87255421D01*
X77142644Y-87383613D01*
X77186269Y-87438190D01*
X77193462Y-87507688D01*
X77161940Y-87570043D01*
X77142645Y-87586763D01*
X77076577Y-87633024D01*
X77076576Y-87633024D01*
X77687466Y-88243913D01*
X77677685Y-88245320D01*
X77546900Y-88305048D01*
X77438239Y-88399202D01*
X77360507Y-88520156D01*
X77336923Y-88600475D01*
X76723024Y-87986576D01*
X76723023Y-87986577D01*
X76668133Y-88064968D01*
X76570151Y-88275092D01*
X76510145Y-88499038D01*
X76489938Y-88730000D01*
X76510145Y-88960961D01*
X76570151Y-89184907D01*
X76668133Y-89395032D01*
X76723023Y-89473422D01*
X76723024Y-89473423D01*
X77336923Y-88859523D01*
X77360507Y-88939844D01*
X77438239Y-89060798D01*
X77546900Y-89154952D01*
X77677685Y-89214680D01*
X77687466Y-89216086D01*
X77076575Y-89826975D01*
X77076575Y-89826976D01*
X77142643Y-89873237D01*
X77186268Y-89927814D01*
X77193462Y-89997312D01*
X77161939Y-90059667D01*
X77142644Y-90076387D01*
X76959564Y-90204581D01*
X76794578Y-90369567D01*
X76660744Y-90560702D01*
X76562133Y-90772172D01*
X76501741Y-90997558D01*
X76481405Y-91229999D01*
X64658594Y-91229999D01*
X64638258Y-90997556D01*
X64577867Y-90772174D01*
X64479256Y-90560703D01*
X64345422Y-90369568D01*
X64180432Y-90204578D01*
X63989297Y-90070744D01*
X63989296Y-90070743D01*
X63777827Y-89972133D01*
X63552441Y-89911741D01*
X63320000Y-89891405D01*
X63087558Y-89911741D01*
X62862172Y-89972133D01*
X62650702Y-90070744D01*
X62459567Y-90204578D01*
X62294578Y-90369567D01*
X62160744Y-90560702D01*
X62062133Y-90772172D01*
X62001741Y-90997558D01*
X61981405Y-91229999D01*
X50300500Y-91229999D01*
X50300500Y-86230000D01*
X61981405Y-86230000D01*
X62001741Y-86462441D01*
X62001742Y-86462444D01*
X62062133Y-86687826D01*
X62160744Y-86899297D01*
X62294578Y-87090432D01*
X62459568Y-87255422D01*
X62650703Y-87389256D01*
X62862174Y-87487867D01*
X63087556Y-87548258D01*
X63320000Y-87568594D01*
X63552444Y-87548258D01*
X63777826Y-87487867D01*
X63989297Y-87389256D01*
X64180432Y-87255422D01*
X64345422Y-87090432D01*
X64479256Y-86899297D01*
X64577867Y-86687826D01*
X64638258Y-86462444D01*
X64658594Y-86230000D01*
X64638258Y-85997556D01*
X64577867Y-85772174D01*
X64479256Y-85560703D01*
X64345422Y-85369568D01*
X64180432Y-85204578D01*
X63989297Y-85070744D01*
X63989296Y-85070744D01*
X63777827Y-84972133D01*
X63552441Y-84911741D01*
X63320000Y-84891405D01*
X63087558Y-84911741D01*
X62862172Y-84972133D01*
X62650702Y-85070744D01*
X62459567Y-85204578D01*
X62294578Y-85369567D01*
X62160744Y-85560702D01*
X62062133Y-85772172D01*
X62001741Y-85997558D01*
X61981405Y-86230000D01*
X50300500Y-86230000D01*
X50300500Y-82057984D01*
X68007730Y-82057984D01*
X68007881Y-82062314D01*
X68007881Y-82062320D01*
X68017625Y-82341363D01*
X68017625Y-82341372D01*
X68017777Y-82345697D01*
X68018528Y-82349958D01*
X68018529Y-82349964D01*
X68067015Y-82624940D01*
X68067017Y-82624949D01*
X68067769Y-82629212D01*
X68069108Y-82633333D01*
X68069109Y-82633337D01*
X68155390Y-82898886D01*
X68155393Y-82898895D01*
X68156731Y-82903011D01*
X68158632Y-82906909D01*
X68158633Y-82906911D01*
X68218948Y-83030576D01*
X68282933Y-83161763D01*
X68285349Y-83165345D01*
X68285352Y-83165350D01*
X68441497Y-83396844D01*
X68441500Y-83396848D01*
X68443919Y-83400434D01*
X68446814Y-83403649D01*
X68446817Y-83403653D01*
X68633653Y-83611156D01*
X68633659Y-83611161D01*
X68636554Y-83614377D01*
X68857089Y-83799428D01*
X69101233Y-83951986D01*
X69364232Y-84069081D01*
X69640969Y-84148434D01*
X69926056Y-84188500D01*
X69930390Y-84188500D01*
X70639740Y-84188500D01*
X70641890Y-84188500D01*
X70857187Y-84173445D01*
X71138785Y-84113589D01*
X71409312Y-84015126D01*
X71663503Y-83879970D01*
X71896410Y-83710753D01*
X72103499Y-83510769D01*
X72280741Y-83283910D01*
X72424686Y-83034591D01*
X72532531Y-82767665D01*
X72602177Y-82488328D01*
X72632270Y-82202016D01*
X72627240Y-82057984D01*
X103567730Y-82057984D01*
X103567881Y-82062314D01*
X103567881Y-82062320D01*
X103577625Y-82341363D01*
X103577625Y-82341372D01*
X103577777Y-82345697D01*
X103578528Y-82349958D01*
X103578529Y-82349964D01*
X103627015Y-82624940D01*
X103627017Y-82624949D01*
X103627769Y-82629212D01*
X103629108Y-82633333D01*
X103629109Y-82633337D01*
X103715390Y-82898886D01*
X103715393Y-82898895D01*
X103716731Y-82903011D01*
X103718632Y-82906909D01*
X103718633Y-82906911D01*
X103778948Y-83030576D01*
X103842933Y-83161763D01*
X103845349Y-83165345D01*
X103845352Y-83165350D01*
X104001497Y-83396844D01*
X104001500Y-83396848D01*
X104003919Y-83400434D01*
X104006814Y-83403649D01*
X104006817Y-83403653D01*
X104193653Y-83611156D01*
X104193659Y-83611161D01*
X104196554Y-83614377D01*
X104417089Y-83799428D01*
X104661233Y-83951986D01*
X104924232Y-84069081D01*
X105200969Y-84148434D01*
X105486056Y-84188500D01*
X105490390Y-84188500D01*
X106199740Y-84188500D01*
X106201890Y-84188500D01*
X106417187Y-84173445D01*
X106698785Y-84113589D01*
X106969312Y-84015126D01*
X107223503Y-83879970D01*
X107456410Y-83710753D01*
X107663499Y-83510769D01*
X107840741Y-83283910D01*
X107984686Y-83034591D01*
X108092531Y-82767665D01*
X108162177Y-82488328D01*
X108192270Y-82202016D01*
X108182223Y-81914303D01*
X108132231Y-81630788D01*
X108043269Y-81356989D01*
X107917067Y-81098237D01*
X107914647Y-81094649D01*
X107758502Y-80863155D01*
X107758500Y-80863153D01*
X107756081Y-80859566D01*
X107654027Y-80746223D01*
X107566346Y-80648843D01*
X107566340Y-80648837D01*
X107563446Y-80645623D01*
X107342911Y-80460572D01*
X107339237Y-80458276D01*
X107102436Y-80310306D01*
X107102429Y-80310302D01*
X107098767Y-80308014D01*
X107094820Y-80306256D01*
X107094815Y-80306254D01*
X106926432Y-80231285D01*
X106835768Y-80190919D01*
X106831608Y-80189726D01*
X106563197Y-80112760D01*
X106563189Y-80112758D01*
X106559031Y-80111566D01*
X106554750Y-80110964D01*
X106554739Y-80110962D01*
X106278238Y-80072103D01*
X106278231Y-80072102D01*
X106273944Y-80071500D01*
X105558110Y-80071500D01*
X105555993Y-80071648D01*
X105555965Y-80071649D01*
X105347134Y-80086252D01*
X105347122Y-80086253D01*
X105342813Y-80086555D01*
X105338576Y-80087455D01*
X105338573Y-80087456D01*
X105065453Y-80145510D01*
X105065450Y-80145510D01*
X105061215Y-80146411D01*
X105057153Y-80147889D01*
X105057144Y-80147892D01*
X104794754Y-80243393D01*
X104794740Y-80243399D01*
X104790688Y-80244874D01*
X104786868Y-80246904D01*
X104786866Y-80246906D01*
X104540319Y-80377997D01*
X104540310Y-80378002D01*
X104536497Y-80380030D01*
X104533004Y-80382567D01*
X104532994Y-80382574D01*
X104307097Y-80546698D01*
X104307087Y-80546705D01*
X104303590Y-80549247D01*
X104300481Y-80552248D01*
X104300473Y-80552256D01*
X104099615Y-80746223D01*
X104099609Y-80746229D01*
X104096501Y-80749231D01*
X104093838Y-80752639D01*
X104093833Y-80752645D01*
X103921927Y-80972674D01*
X103921921Y-80972682D01*
X103919259Y-80976090D01*
X103917097Y-80979834D01*
X103917092Y-80979842D01*
X103777479Y-81221657D01*
X103777472Y-81221670D01*
X103775314Y-81225409D01*
X103773698Y-81229408D01*
X103773691Y-81229423D01*
X103669091Y-81488318D01*
X103669087Y-81488330D01*
X103667469Y-81492335D01*
X103666422Y-81496532D01*
X103666421Y-81496537D01*
X103633978Y-81626662D01*
X103597823Y-81771672D01*
X103597372Y-81775957D01*
X103597370Y-81775972D01*
X103568182Y-82053674D01*
X103568181Y-82053688D01*
X103567730Y-82057984D01*
X72627240Y-82057984D01*
X72622223Y-81914303D01*
X72572231Y-81630788D01*
X72483269Y-81356989D01*
X72357067Y-81098237D01*
X72354647Y-81094649D01*
X72198502Y-80863155D01*
X72198500Y-80863153D01*
X72196081Y-80859566D01*
X72094027Y-80746223D01*
X72006346Y-80648843D01*
X72006340Y-80648837D01*
X72003446Y-80645623D01*
X71782911Y-80460572D01*
X71779237Y-80458276D01*
X71542436Y-80310306D01*
X71542429Y-80310302D01*
X71538767Y-80308014D01*
X71534820Y-80306256D01*
X71534815Y-80306254D01*
X71366432Y-80231285D01*
X71275768Y-80190919D01*
X71271608Y-80189726D01*
X71003197Y-80112760D01*
X71003189Y-80112758D01*
X70999031Y-80111566D01*
X70994750Y-80110964D01*
X70994739Y-80110962D01*
X70718238Y-80072103D01*
X70718231Y-80072102D01*
X70713944Y-80071500D01*
X69998110Y-80071500D01*
X69995993Y-80071648D01*
X69995965Y-80071649D01*
X69787134Y-80086252D01*
X69787122Y-80086253D01*
X69782813Y-80086555D01*
X69778576Y-80087455D01*
X69778573Y-80087456D01*
X69505453Y-80145510D01*
X69505450Y-80145510D01*
X69501215Y-80146411D01*
X69497153Y-80147889D01*
X69497144Y-80147892D01*
X69234754Y-80243393D01*
X69234740Y-80243399D01*
X69230688Y-80244874D01*
X69226868Y-80246904D01*
X69226866Y-80246906D01*
X68980319Y-80377997D01*
X68980310Y-80378002D01*
X68976497Y-80380030D01*
X68973004Y-80382567D01*
X68972994Y-80382574D01*
X68747097Y-80546698D01*
X68747087Y-80546705D01*
X68743590Y-80549247D01*
X68740481Y-80552248D01*
X68740473Y-80552256D01*
X68539615Y-80746223D01*
X68539609Y-80746229D01*
X68536501Y-80749231D01*
X68533838Y-80752639D01*
X68533833Y-80752645D01*
X68361927Y-80972674D01*
X68361921Y-80972682D01*
X68359259Y-80976090D01*
X68357097Y-80979834D01*
X68357092Y-80979842D01*
X68217479Y-81221657D01*
X68217472Y-81221670D01*
X68215314Y-81225409D01*
X68213698Y-81229408D01*
X68213691Y-81229423D01*
X68109091Y-81488318D01*
X68109087Y-81488330D01*
X68107469Y-81492335D01*
X68106422Y-81496532D01*
X68106421Y-81496537D01*
X68073978Y-81626662D01*
X68037823Y-81771672D01*
X68037372Y-81775957D01*
X68037370Y-81775972D01*
X68008182Y-82053674D01*
X68008181Y-82053688D01*
X68007730Y-82057984D01*
X50300500Y-82057984D01*
X50300500Y-74937984D01*
X68007730Y-74937984D01*
X68007881Y-74942314D01*
X68007881Y-74942320D01*
X68017625Y-75221363D01*
X68017625Y-75221372D01*
X68017777Y-75225697D01*
X68018528Y-75229958D01*
X68018529Y-75229964D01*
X68067015Y-75504940D01*
X68067017Y-75504949D01*
X68067769Y-75509212D01*
X68069108Y-75513333D01*
X68069109Y-75513337D01*
X68155390Y-75778886D01*
X68155393Y-75778895D01*
X68156731Y-75783011D01*
X68158632Y-75786909D01*
X68158633Y-75786911D01*
X68218948Y-75910576D01*
X68282933Y-76041763D01*
X68285349Y-76045345D01*
X68285352Y-76045350D01*
X68441497Y-76276844D01*
X68441500Y-76276848D01*
X68443919Y-76280434D01*
X68446814Y-76283649D01*
X68446817Y-76283653D01*
X68633653Y-76491156D01*
X68633659Y-76491161D01*
X68636554Y-76494377D01*
X68857089Y-76679428D01*
X69101233Y-76831986D01*
X69364232Y-76949081D01*
X69640969Y-77028434D01*
X69926056Y-77068500D01*
X69930390Y-77068500D01*
X70639740Y-77068500D01*
X70641890Y-77068500D01*
X70857187Y-77053445D01*
X71138785Y-76993589D01*
X71409312Y-76895126D01*
X71663503Y-76759970D01*
X71896410Y-76590753D01*
X72103499Y-76390769D01*
X72280741Y-76163910D01*
X72424686Y-75914591D01*
X72532531Y-75647665D01*
X72602177Y-75368328D01*
X72632270Y-75082016D01*
X72627240Y-74937984D01*
X103567730Y-74937984D01*
X103567881Y-74942314D01*
X103567881Y-74942320D01*
X103577625Y-75221363D01*
X103577625Y-75221372D01*
X103577777Y-75225697D01*
X103578528Y-75229958D01*
X103578529Y-75229964D01*
X103627015Y-75504940D01*
X103627017Y-75504949D01*
X103627769Y-75509212D01*
X103629108Y-75513333D01*
X103629109Y-75513337D01*
X103715390Y-75778886D01*
X103715393Y-75778895D01*
X103716731Y-75783011D01*
X103718632Y-75786909D01*
X103718633Y-75786911D01*
X103778948Y-75910576D01*
X103842933Y-76041763D01*
X103845349Y-76045345D01*
X103845352Y-76045350D01*
X104001497Y-76276844D01*
X104001500Y-76276848D01*
X104003919Y-76280434D01*
X104006814Y-76283649D01*
X104006817Y-76283653D01*
X104193653Y-76491156D01*
X104193659Y-76491161D01*
X104196554Y-76494377D01*
X104417089Y-76679428D01*
X104661233Y-76831986D01*
X104924232Y-76949081D01*
X105200969Y-77028434D01*
X105486056Y-77068500D01*
X105490390Y-77068500D01*
X106199740Y-77068500D01*
X106201890Y-77068500D01*
X106417187Y-77053445D01*
X106698785Y-76993589D01*
X106969312Y-76895126D01*
X107223503Y-76759970D01*
X107456410Y-76590753D01*
X107663499Y-76390769D01*
X107840741Y-76163910D01*
X107984686Y-75914591D01*
X108092531Y-75647665D01*
X108162177Y-75368328D01*
X108192270Y-75082016D01*
X108182223Y-74794303D01*
X108132231Y-74510788D01*
X108043269Y-74236989D01*
X107917067Y-73978237D01*
X107914647Y-73974649D01*
X107758502Y-73743155D01*
X107758500Y-73743153D01*
X107756081Y-73739566D01*
X107654027Y-73626223D01*
X107566346Y-73528843D01*
X107566340Y-73528837D01*
X107563446Y-73525623D01*
X107342911Y-73340572D01*
X107339237Y-73338276D01*
X107102436Y-73190306D01*
X107102429Y-73190302D01*
X107098767Y-73188014D01*
X107094820Y-73186256D01*
X107094815Y-73186254D01*
X106926432Y-73111285D01*
X106835768Y-73070919D01*
X106831608Y-73069726D01*
X106563197Y-72992760D01*
X106563189Y-72992758D01*
X106559031Y-72991566D01*
X106554750Y-72990964D01*
X106554739Y-72990962D01*
X106278238Y-72952103D01*
X106278231Y-72952102D01*
X106273944Y-72951500D01*
X105558110Y-72951500D01*
X105555993Y-72951648D01*
X105555965Y-72951649D01*
X105347134Y-72966252D01*
X105347122Y-72966253D01*
X105342813Y-72966555D01*
X105338576Y-72967455D01*
X105338573Y-72967456D01*
X105065453Y-73025510D01*
X105065450Y-73025510D01*
X105061215Y-73026411D01*
X105057153Y-73027889D01*
X105057144Y-73027892D01*
X104794754Y-73123393D01*
X104794740Y-73123399D01*
X104790688Y-73124874D01*
X104786868Y-73126904D01*
X104786866Y-73126906D01*
X104540319Y-73257997D01*
X104540310Y-73258002D01*
X104536497Y-73260030D01*
X104533004Y-73262567D01*
X104532994Y-73262574D01*
X104307097Y-73426698D01*
X104307087Y-73426705D01*
X104303590Y-73429247D01*
X104300481Y-73432248D01*
X104300473Y-73432256D01*
X104099615Y-73626223D01*
X104099609Y-73626229D01*
X104096501Y-73629231D01*
X104093838Y-73632639D01*
X104093833Y-73632645D01*
X103921927Y-73852674D01*
X103921921Y-73852682D01*
X103919259Y-73856090D01*
X103917097Y-73859834D01*
X103917092Y-73859842D01*
X103777479Y-74101657D01*
X103777472Y-74101670D01*
X103775314Y-74105409D01*
X103773698Y-74109408D01*
X103773691Y-74109423D01*
X103669091Y-74368318D01*
X103669087Y-74368330D01*
X103667469Y-74372335D01*
X103666422Y-74376532D01*
X103666421Y-74376537D01*
X103633978Y-74506662D01*
X103597823Y-74651672D01*
X103597372Y-74655957D01*
X103597370Y-74655972D01*
X103568182Y-74933674D01*
X103568181Y-74933688D01*
X103567730Y-74937984D01*
X72627240Y-74937984D01*
X72622223Y-74794303D01*
X72572231Y-74510788D01*
X72483269Y-74236989D01*
X72357067Y-73978237D01*
X72354647Y-73974649D01*
X72198502Y-73743155D01*
X72198500Y-73743153D01*
X72196081Y-73739566D01*
X72094027Y-73626223D01*
X72006346Y-73528843D01*
X72006340Y-73528837D01*
X72003446Y-73525623D01*
X71782911Y-73340572D01*
X71779237Y-73338276D01*
X71542436Y-73190306D01*
X71542429Y-73190302D01*
X71538767Y-73188014D01*
X71534820Y-73186256D01*
X71534815Y-73186254D01*
X71366432Y-73111285D01*
X71275768Y-73070919D01*
X71271608Y-73069726D01*
X71003197Y-72992760D01*
X71003189Y-72992758D01*
X70999031Y-72991566D01*
X70994750Y-72990964D01*
X70994739Y-72990962D01*
X70718238Y-72952103D01*
X70718231Y-72952102D01*
X70713944Y-72951500D01*
X69998110Y-72951500D01*
X69995993Y-72951648D01*
X69995965Y-72951649D01*
X69787134Y-72966252D01*
X69787122Y-72966253D01*
X69782813Y-72966555D01*
X69778576Y-72967455D01*
X69778573Y-72967456D01*
X69505453Y-73025510D01*
X69505450Y-73025510D01*
X69501215Y-73026411D01*
X69497153Y-73027889D01*
X69497144Y-73027892D01*
X69234754Y-73123393D01*
X69234740Y-73123399D01*
X69230688Y-73124874D01*
X69226868Y-73126904D01*
X69226866Y-73126906D01*
X68980319Y-73257997D01*
X68980310Y-73258002D01*
X68976497Y-73260030D01*
X68973004Y-73262567D01*
X68972994Y-73262574D01*
X68747097Y-73426698D01*
X68747087Y-73426705D01*
X68743590Y-73429247D01*
X68740481Y-73432248D01*
X68740473Y-73432256D01*
X68539615Y-73626223D01*
X68539609Y-73626229D01*
X68536501Y-73629231D01*
X68533838Y-73632639D01*
X68533833Y-73632645D01*
X68361927Y-73852674D01*
X68361921Y-73852682D01*
X68359259Y-73856090D01*
X68357097Y-73859834D01*
X68357092Y-73859842D01*
X68217479Y-74101657D01*
X68217472Y-74101670D01*
X68215314Y-74105409D01*
X68213698Y-74109408D01*
X68213691Y-74109423D01*
X68109091Y-74368318D01*
X68109087Y-74368330D01*
X68107469Y-74372335D01*
X68106422Y-74376532D01*
X68106421Y-74376537D01*
X68073978Y-74506662D01*
X68037823Y-74651672D01*
X68037372Y-74655957D01*
X68037370Y-74655972D01*
X68008182Y-74933674D01*
X68008181Y-74933688D01*
X68007730Y-74937984D01*
X50300500Y-74937984D01*
X50300500Y-70909999D01*
X61981405Y-70909999D01*
X62001741Y-71142441D01*
X62001742Y-71142444D01*
X62062133Y-71367826D01*
X62160744Y-71579297D01*
X62294578Y-71770432D01*
X62459568Y-71935422D01*
X62650703Y-72069256D01*
X62862174Y-72167867D01*
X63087556Y-72228258D01*
X63320000Y-72248594D01*
X63552444Y-72228258D01*
X63777826Y-72167867D01*
X63989297Y-72069256D01*
X64180432Y-71935422D01*
X64345422Y-71770432D01*
X64479256Y-71579297D01*
X64577867Y-71367826D01*
X64638258Y-71142444D01*
X64658594Y-70910000D01*
X76481405Y-70910000D01*
X76501741Y-71142441D01*
X76501742Y-71142444D01*
X76562133Y-71367826D01*
X76660744Y-71579297D01*
X76794578Y-71770432D01*
X76959568Y-71935422D01*
X77150703Y-72069256D01*
X77362174Y-72167867D01*
X77587556Y-72228258D01*
X77742518Y-72241815D01*
X77819999Y-72248594D01*
X77819999Y-72248593D01*
X77820000Y-72248594D01*
X78052444Y-72228258D01*
X78277826Y-72167867D01*
X78489297Y-72069256D01*
X78680432Y-71935422D01*
X78845422Y-71770432D01*
X78979256Y-71579297D01*
X79077867Y-71367826D01*
X79138258Y-71142444D01*
X79158594Y-70910000D01*
X97041405Y-70910000D01*
X97061741Y-71142441D01*
X97061742Y-71142444D01*
X97122133Y-71367826D01*
X97220744Y-71579297D01*
X97354578Y-71770432D01*
X97519568Y-71935422D01*
X97710703Y-72069256D01*
X97922174Y-72167867D01*
X98147556Y-72228258D01*
X98302518Y-72241815D01*
X98379999Y-72248594D01*
X98379999Y-72248593D01*
X98380000Y-72248594D01*
X98612444Y-72228258D01*
X98837826Y-72167867D01*
X99049297Y-72069256D01*
X99240432Y-71935422D01*
X99405422Y-71770432D01*
X99539256Y-71579297D01*
X99637867Y-71367826D01*
X99698258Y-71142444D01*
X99718594Y-70910000D01*
X111541405Y-70910000D01*
X111561741Y-71142441D01*
X111561742Y-71142444D01*
X111622133Y-71367826D01*
X111720744Y-71579297D01*
X111854578Y-71770432D01*
X112019568Y-71935422D01*
X112210703Y-72069256D01*
X112422174Y-72167867D01*
X112647556Y-72228258D01*
X112802518Y-72241815D01*
X112879999Y-72248594D01*
X112879999Y-72248593D01*
X112880000Y-72248594D01*
X113112444Y-72228258D01*
X113337826Y-72167867D01*
X113549297Y-72069256D01*
X113740432Y-71935422D01*
X113905422Y-71770432D01*
X114039256Y-71579297D01*
X114137867Y-71367826D01*
X114198258Y-71142444D01*
X114218594Y-70910000D01*
X114198258Y-70677556D01*
X114137867Y-70452174D01*
X114039256Y-70240703D01*
X113905422Y-70049568D01*
X113740432Y-69884578D01*
X113549297Y-69750744D01*
X113549296Y-69750743D01*
X113337827Y-69652133D01*
X113112441Y-69591741D01*
X112880000Y-69571405D01*
X112647558Y-69591741D01*
X112422172Y-69652133D01*
X112210702Y-69750744D01*
X112019567Y-69884578D01*
X111854578Y-70049567D01*
X111720744Y-70240702D01*
X111622133Y-70452172D01*
X111561741Y-70677558D01*
X111541405Y-70910000D01*
X99718594Y-70910000D01*
X99698258Y-70677556D01*
X99637867Y-70452174D01*
X99539256Y-70240703D01*
X99405422Y-70049568D01*
X99240432Y-69884578D01*
X99057353Y-69756385D01*
X99013730Y-69701809D01*
X99006537Y-69632310D01*
X99038059Y-69569956D01*
X99057355Y-69553236D01*
X99123423Y-69506975D01*
X98512533Y-68896086D01*
X98522315Y-68894680D01*
X98653100Y-68834952D01*
X98761761Y-68740798D01*
X98839493Y-68619844D01*
X98863077Y-68539523D01*
X99476975Y-69153423D01*
X99531867Y-69075028D01*
X99629848Y-68864907D01*
X99689854Y-68640961D01*
X99710061Y-68410000D01*
X99689854Y-68179038D01*
X99629848Y-67955092D01*
X99531867Y-67744972D01*
X99476974Y-67666576D01*
X98863076Y-68280474D01*
X98839493Y-68200156D01*
X98761761Y-68079202D01*
X98653100Y-67985048D01*
X98522315Y-67925320D01*
X98512534Y-67923913D01*
X99123423Y-67313024D01*
X99123422Y-67313023D01*
X99057355Y-67266762D01*
X99013731Y-67212185D01*
X99006538Y-67142686D01*
X99038060Y-67080332D01*
X99057349Y-67063617D01*
X99240432Y-66935422D01*
X99405422Y-66770432D01*
X99539256Y-66579297D01*
X99637867Y-66367826D01*
X99698258Y-66142444D01*
X99718594Y-65910000D01*
X111541405Y-65910000D01*
X111561741Y-66142441D01*
X111561742Y-66142444D01*
X111622133Y-66367826D01*
X111720744Y-66579297D01*
X111854578Y-66770432D01*
X112019568Y-66935422D01*
X112210703Y-67069256D01*
X112422174Y-67167867D01*
X112647556Y-67228258D01*
X112880000Y-67248594D01*
X113112444Y-67228258D01*
X113337826Y-67167867D01*
X113549297Y-67069256D01*
X113740432Y-66935422D01*
X113905422Y-66770432D01*
X114039256Y-66579297D01*
X114137867Y-66367826D01*
X114198258Y-66142444D01*
X114218594Y-65910000D01*
X114198258Y-65677556D01*
X114137867Y-65452174D01*
X114039256Y-65240703D01*
X113905422Y-65049568D01*
X113740432Y-64884578D01*
X113549297Y-64750744D01*
X113549296Y-64750743D01*
X113337827Y-64652133D01*
X113112441Y-64591741D01*
X112880000Y-64571405D01*
X112647558Y-64591741D01*
X112422172Y-64652133D01*
X112210702Y-64750744D01*
X112019567Y-64884578D01*
X111854578Y-65049567D01*
X111720744Y-65240702D01*
X111622133Y-65452172D01*
X111561741Y-65677558D01*
X111541405Y-65910000D01*
X99718594Y-65910000D01*
X99698258Y-65677556D01*
X99637867Y-65452174D01*
X99539256Y-65240703D01*
X99405422Y-65049568D01*
X99240432Y-64884578D01*
X99049297Y-64750744D01*
X99049297Y-64750743D01*
X98837827Y-64652133D01*
X98612441Y-64591741D01*
X98380000Y-64571405D01*
X98147558Y-64591741D01*
X97922172Y-64652133D01*
X97710702Y-64750744D01*
X97519567Y-64884578D01*
X97354578Y-65049567D01*
X97220744Y-65240702D01*
X97122133Y-65452172D01*
X97061741Y-65677558D01*
X97041405Y-65910000D01*
X97061741Y-66142441D01*
X97122133Y-66367827D01*
X97220744Y-66579297D01*
X97354578Y-66770432D01*
X97519567Y-66935421D01*
X97702644Y-67063613D01*
X97746269Y-67118190D01*
X97753462Y-67187688D01*
X97721940Y-67250043D01*
X97702645Y-67266763D01*
X97636577Y-67313024D01*
X97636576Y-67313024D01*
X98247466Y-67923913D01*
X98237685Y-67925320D01*
X98106900Y-67985048D01*
X97998239Y-68079202D01*
X97920507Y-68200156D01*
X97896923Y-68280475D01*
X97283024Y-67666576D01*
X97283023Y-67666577D01*
X97228133Y-67744968D01*
X97130151Y-67955092D01*
X97070145Y-68179038D01*
X97049938Y-68410000D01*
X97070145Y-68640961D01*
X97130151Y-68864907D01*
X97228133Y-69075032D01*
X97283023Y-69153422D01*
X97283024Y-69153423D01*
X97896923Y-68539523D01*
X97920507Y-68619844D01*
X97998239Y-68740798D01*
X98106900Y-68834952D01*
X98237685Y-68894680D01*
X98247466Y-68896086D01*
X97636575Y-69506975D01*
X97636575Y-69506976D01*
X97702643Y-69553237D01*
X97746268Y-69607814D01*
X97753462Y-69677312D01*
X97721939Y-69739667D01*
X97702644Y-69756387D01*
X97519564Y-69884581D01*
X97354578Y-70049567D01*
X97220744Y-70240702D01*
X97122133Y-70452172D01*
X97061741Y-70677558D01*
X97041405Y-70910000D01*
X79158594Y-70910000D01*
X79138258Y-70677556D01*
X79077867Y-70452174D01*
X78979256Y-70240703D01*
X78845422Y-70049568D01*
X78680432Y-69884578D01*
X78497353Y-69756385D01*
X78453730Y-69701809D01*
X78446537Y-69632310D01*
X78478059Y-69569956D01*
X78497355Y-69553236D01*
X78563423Y-69506975D01*
X77952533Y-68896086D01*
X77962315Y-68894680D01*
X78093100Y-68834952D01*
X78201761Y-68740798D01*
X78279493Y-68619844D01*
X78303076Y-68539524D01*
X78916975Y-69153423D01*
X78971867Y-69075028D01*
X79069848Y-68864907D01*
X79129854Y-68640961D01*
X79150061Y-68410000D01*
X79129854Y-68179038D01*
X79069848Y-67955092D01*
X78971867Y-67744972D01*
X78916974Y-67666576D01*
X78303076Y-68280475D01*
X78279493Y-68200156D01*
X78201761Y-68079202D01*
X78093100Y-67985048D01*
X77962315Y-67925320D01*
X77952532Y-67923913D01*
X78563423Y-67313023D01*
X78497355Y-67266762D01*
X78453731Y-67212185D01*
X78446538Y-67142686D01*
X78478060Y-67080332D01*
X78497349Y-67063617D01*
X78680432Y-66935422D01*
X78845422Y-66770432D01*
X78979256Y-66579297D01*
X79077867Y-66367826D01*
X79138258Y-66142444D01*
X79158594Y-65910000D01*
X79138258Y-65677556D01*
X79077867Y-65452174D01*
X78979256Y-65240703D01*
X78845422Y-65049568D01*
X78680432Y-64884578D01*
X78489297Y-64750744D01*
X78489297Y-64750743D01*
X78277827Y-64652133D01*
X78052441Y-64591741D01*
X77820000Y-64571405D01*
X77587558Y-64591741D01*
X77362172Y-64652133D01*
X77150702Y-64750744D01*
X76959567Y-64884578D01*
X76794578Y-65049567D01*
X76660744Y-65240702D01*
X76562133Y-65452172D01*
X76501741Y-65677558D01*
X76481405Y-65910000D01*
X76501741Y-66142441D01*
X76562133Y-66367827D01*
X76660744Y-66579297D01*
X76794578Y-66770432D01*
X76959567Y-66935421D01*
X77142644Y-67063613D01*
X77186269Y-67118190D01*
X77193462Y-67187688D01*
X77161940Y-67250043D01*
X77142645Y-67266763D01*
X77076577Y-67313024D01*
X77076576Y-67313025D01*
X77687464Y-67923913D01*
X77677685Y-67925320D01*
X77546900Y-67985048D01*
X77438239Y-68079202D01*
X77360507Y-68200156D01*
X77336923Y-68280474D01*
X76723025Y-67666576D01*
X76723023Y-67666577D01*
X76668133Y-67744968D01*
X76570151Y-67955092D01*
X76510145Y-68179038D01*
X76489938Y-68410000D01*
X76510145Y-68640961D01*
X76570151Y-68864907D01*
X76668133Y-69075032D01*
X76723023Y-69153422D01*
X76723023Y-69153423D01*
X77336922Y-68539523D01*
X77360507Y-68619844D01*
X77438239Y-68740798D01*
X77546900Y-68834952D01*
X77677685Y-68894680D01*
X77687466Y-68896086D01*
X77076575Y-69506975D01*
X77076575Y-69506976D01*
X77142643Y-69553237D01*
X77186268Y-69607814D01*
X77193462Y-69677312D01*
X77161939Y-69739667D01*
X77142644Y-69756387D01*
X76959564Y-69884581D01*
X76794578Y-70049567D01*
X76660744Y-70240702D01*
X76562133Y-70452172D01*
X76501741Y-70677558D01*
X76481405Y-70910000D01*
X64658594Y-70910000D01*
X64638258Y-70677556D01*
X64577867Y-70452174D01*
X64479256Y-70240703D01*
X64345422Y-70049568D01*
X64180432Y-69884578D01*
X63989297Y-69750744D01*
X63989297Y-69750743D01*
X63777827Y-69652133D01*
X63552441Y-69591741D01*
X63320000Y-69571405D01*
X63087558Y-69591741D01*
X62862172Y-69652133D01*
X62650702Y-69750744D01*
X62459567Y-69884578D01*
X62294578Y-70049567D01*
X62160744Y-70240702D01*
X62062133Y-70452172D01*
X62001741Y-70677558D01*
X61981405Y-70909999D01*
X50300500Y-70909999D01*
X50300500Y-65910000D01*
X61981405Y-65910000D01*
X62001741Y-66142441D01*
X62001742Y-66142444D01*
X62062133Y-66367826D01*
X62160744Y-66579297D01*
X62294578Y-66770432D01*
X62459568Y-66935422D01*
X62650703Y-67069256D01*
X62862174Y-67167867D01*
X63087556Y-67228258D01*
X63242518Y-67241815D01*
X63319999Y-67248594D01*
X63319999Y-67248593D01*
X63320000Y-67248594D01*
X63552444Y-67228258D01*
X63777826Y-67167867D01*
X63989297Y-67069256D01*
X64180432Y-66935422D01*
X64345422Y-66770432D01*
X64479256Y-66579297D01*
X64577867Y-66367826D01*
X64638258Y-66142444D01*
X64658594Y-65910000D01*
X64638258Y-65677556D01*
X64577867Y-65452174D01*
X64479256Y-65240703D01*
X64345422Y-65049568D01*
X64180432Y-64884578D01*
X63989297Y-64750744D01*
X63777827Y-64652133D01*
X63552441Y-64591741D01*
X63319999Y-64571405D01*
X63087558Y-64591741D01*
X62862172Y-64652133D01*
X62650702Y-64750744D01*
X62459567Y-64884578D01*
X62294578Y-65049567D01*
X62160744Y-65240702D01*
X62062133Y-65452172D01*
X62001741Y-65677558D01*
X61981405Y-65910000D01*
X50300500Y-65910000D01*
X50300500Y-61737984D01*
X68007730Y-61737984D01*
X68007881Y-61742314D01*
X68007881Y-61742320D01*
X68017625Y-62021363D01*
X68017625Y-62021372D01*
X68017777Y-62025697D01*
X68018528Y-62029958D01*
X68018529Y-62029964D01*
X68067015Y-62304940D01*
X68067017Y-62304949D01*
X68067769Y-62309212D01*
X68069108Y-62313333D01*
X68069109Y-62313337D01*
X68155390Y-62578886D01*
X68155393Y-62578895D01*
X68156731Y-62583011D01*
X68158632Y-62586909D01*
X68158633Y-62586911D01*
X68218948Y-62710576D01*
X68282933Y-62841763D01*
X68285349Y-62845345D01*
X68285352Y-62845350D01*
X68441497Y-63076844D01*
X68441500Y-63076848D01*
X68443919Y-63080434D01*
X68446814Y-63083649D01*
X68446817Y-63083653D01*
X68633653Y-63291156D01*
X68633659Y-63291161D01*
X68636554Y-63294377D01*
X68857089Y-63479428D01*
X69101233Y-63631986D01*
X69364232Y-63749081D01*
X69640969Y-63828434D01*
X69926056Y-63868500D01*
X69930390Y-63868500D01*
X70639740Y-63868500D01*
X70641890Y-63868500D01*
X70857187Y-63853445D01*
X71138785Y-63793589D01*
X71409312Y-63695126D01*
X71663503Y-63559970D01*
X71896410Y-63390753D01*
X72103499Y-63190769D01*
X72280741Y-62963910D01*
X72424686Y-62714591D01*
X72532531Y-62447665D01*
X72602177Y-62168328D01*
X72632270Y-61882016D01*
X72627240Y-61737984D01*
X103567730Y-61737984D01*
X103567881Y-61742314D01*
X103567881Y-61742320D01*
X103577625Y-62021363D01*
X103577625Y-62021372D01*
X103577777Y-62025697D01*
X103578528Y-62029958D01*
X103578529Y-62029964D01*
X103627015Y-62304940D01*
X103627017Y-62304949D01*
X103627769Y-62309212D01*
X103629108Y-62313333D01*
X103629109Y-62313337D01*
X103715390Y-62578886D01*
X103715393Y-62578895D01*
X103716731Y-62583011D01*
X103718632Y-62586909D01*
X103718633Y-62586911D01*
X103778948Y-62710576D01*
X103842933Y-62841763D01*
X103845349Y-62845345D01*
X103845352Y-62845350D01*
X104001497Y-63076844D01*
X104001500Y-63076848D01*
X104003919Y-63080434D01*
X104006814Y-63083649D01*
X104006817Y-63083653D01*
X104193653Y-63291156D01*
X104193659Y-63291161D01*
X104196554Y-63294377D01*
X104417089Y-63479428D01*
X104661233Y-63631986D01*
X104924232Y-63749081D01*
X105200969Y-63828434D01*
X105486056Y-63868500D01*
X105490390Y-63868500D01*
X106199740Y-63868500D01*
X106201890Y-63868500D01*
X106417187Y-63853445D01*
X106698785Y-63793589D01*
X106969312Y-63695126D01*
X107223503Y-63559970D01*
X107456410Y-63390753D01*
X107663499Y-63190769D01*
X107840741Y-62963910D01*
X107984686Y-62714591D01*
X108092531Y-62447665D01*
X108162177Y-62168328D01*
X108192270Y-61882016D01*
X108182223Y-61594303D01*
X108132231Y-61310788D01*
X108043269Y-61036989D01*
X107917067Y-60778237D01*
X107914647Y-60774649D01*
X107758502Y-60543155D01*
X107758500Y-60543153D01*
X107756081Y-60539566D01*
X107654027Y-60426223D01*
X107566346Y-60328843D01*
X107566340Y-60328837D01*
X107563446Y-60325623D01*
X107342911Y-60140572D01*
X107339237Y-60138276D01*
X107102436Y-59990306D01*
X107102429Y-59990302D01*
X107098767Y-59988014D01*
X107094820Y-59986256D01*
X107094815Y-59986254D01*
X106926432Y-59911285D01*
X106835768Y-59870919D01*
X106831608Y-59869726D01*
X106563197Y-59792760D01*
X106563189Y-59792758D01*
X106559031Y-59791566D01*
X106554750Y-59790964D01*
X106554739Y-59790962D01*
X106278238Y-59752103D01*
X106278231Y-59752102D01*
X106273944Y-59751500D01*
X105558110Y-59751500D01*
X105555993Y-59751648D01*
X105555965Y-59751649D01*
X105347134Y-59766252D01*
X105347122Y-59766253D01*
X105342813Y-59766555D01*
X105338576Y-59767455D01*
X105338573Y-59767456D01*
X105065453Y-59825510D01*
X105065450Y-59825510D01*
X105061215Y-59826411D01*
X105057153Y-59827889D01*
X105057144Y-59827892D01*
X104794754Y-59923393D01*
X104794740Y-59923399D01*
X104790688Y-59924874D01*
X104786868Y-59926904D01*
X104786866Y-59926906D01*
X104540319Y-60057997D01*
X104540310Y-60058002D01*
X104536497Y-60060030D01*
X104533004Y-60062567D01*
X104532994Y-60062574D01*
X104307097Y-60226698D01*
X104307087Y-60226705D01*
X104303590Y-60229247D01*
X104300481Y-60232248D01*
X104300473Y-60232256D01*
X104099615Y-60426223D01*
X104099609Y-60426229D01*
X104096501Y-60429231D01*
X104093838Y-60432639D01*
X104093833Y-60432645D01*
X103921927Y-60652674D01*
X103921921Y-60652682D01*
X103919259Y-60656090D01*
X103917097Y-60659834D01*
X103917092Y-60659842D01*
X103777479Y-60901657D01*
X103777472Y-60901670D01*
X103775314Y-60905409D01*
X103773698Y-60909408D01*
X103773691Y-60909423D01*
X103669091Y-61168318D01*
X103669087Y-61168330D01*
X103667469Y-61172335D01*
X103666422Y-61176532D01*
X103666421Y-61176537D01*
X103633978Y-61306662D01*
X103597823Y-61451672D01*
X103597372Y-61455957D01*
X103597370Y-61455972D01*
X103568182Y-61733674D01*
X103568181Y-61733688D01*
X103567730Y-61737984D01*
X72627240Y-61737984D01*
X72622223Y-61594303D01*
X72572231Y-61310788D01*
X72483269Y-61036989D01*
X72357067Y-60778237D01*
X72354647Y-60774649D01*
X72198502Y-60543155D01*
X72198500Y-60543153D01*
X72196081Y-60539566D01*
X72094027Y-60426223D01*
X72006346Y-60328843D01*
X72006340Y-60328837D01*
X72003446Y-60325623D01*
X71782911Y-60140572D01*
X71779237Y-60138276D01*
X71542436Y-59990306D01*
X71542429Y-59990302D01*
X71538767Y-59988014D01*
X71534820Y-59986256D01*
X71534815Y-59986254D01*
X71366432Y-59911285D01*
X71275768Y-59870919D01*
X71271608Y-59869726D01*
X71003197Y-59792760D01*
X71003189Y-59792758D01*
X70999031Y-59791566D01*
X70994750Y-59790964D01*
X70994739Y-59790962D01*
X70718238Y-59752103D01*
X70718231Y-59752102D01*
X70713944Y-59751500D01*
X69998110Y-59751500D01*
X69995993Y-59751648D01*
X69995965Y-59751649D01*
X69787134Y-59766252D01*
X69787122Y-59766253D01*
X69782813Y-59766555D01*
X69778576Y-59767455D01*
X69778573Y-59767456D01*
X69505453Y-59825510D01*
X69505450Y-59825510D01*
X69501215Y-59826411D01*
X69497153Y-59827889D01*
X69497144Y-59827892D01*
X69234754Y-59923393D01*
X69234740Y-59923399D01*
X69230688Y-59924874D01*
X69226868Y-59926904D01*
X69226866Y-59926906D01*
X68980319Y-60057997D01*
X68980310Y-60058002D01*
X68976497Y-60060030D01*
X68973004Y-60062567D01*
X68972994Y-60062574D01*
X68747097Y-60226698D01*
X68747087Y-60226705D01*
X68743590Y-60229247D01*
X68740481Y-60232248D01*
X68740473Y-60232256D01*
X68539615Y-60426223D01*
X68539609Y-60426229D01*
X68536501Y-60429231D01*
X68533838Y-60432639D01*
X68533833Y-60432645D01*
X68361927Y-60652674D01*
X68361921Y-60652682D01*
X68359259Y-60656090D01*
X68357097Y-60659834D01*
X68357092Y-60659842D01*
X68217479Y-60901657D01*
X68217472Y-60901670D01*
X68215314Y-60905409D01*
X68213698Y-60909408D01*
X68213691Y-60909423D01*
X68109091Y-61168318D01*
X68109087Y-61168330D01*
X68107469Y-61172335D01*
X68106422Y-61176532D01*
X68106421Y-61176537D01*
X68073978Y-61306662D01*
X68037823Y-61451672D01*
X68037372Y-61455957D01*
X68037370Y-61455972D01*
X68008182Y-61733674D01*
X68008181Y-61733688D01*
X68007730Y-61737984D01*
X50300500Y-61737984D01*
X50300500Y-58674500D01*
X50320185Y-58607461D01*
X50372989Y-58561706D01*
X50424500Y-58550500D01*
X125775500Y-58550500D01*
X125842539Y-58570185D01*
G37*
%TD.AperFunction*%
%TD*%
%TA.AperFunction,Conductor*%
%TO.N,GNDA*%
G36*
X123259150Y-114560476D02*
G01*
X123261117Y-114561054D01*
X123261146Y-114560609D01*
X125783749Y-114728783D01*
X125849329Y-114752882D01*
X125891470Y-114808613D01*
X125899499Y-114852507D01*
X125899500Y-169825500D01*
X125879815Y-169892539D01*
X125827011Y-169938294D01*
X125775500Y-169949500D01*
X117368685Y-169949500D01*
X117301646Y-169929815D01*
X117255891Y-169877011D01*
X117245947Y-169807853D01*
X117264876Y-169757678D01*
X117363733Y-169606365D01*
X117463586Y-169378721D01*
X117524613Y-169137732D01*
X117545141Y-168889999D01*
X117524613Y-168642267D01*
X117463586Y-168401278D01*
X117363730Y-168173630D01*
X117263434Y-168020116D01*
X116565928Y-168717621D01*
X116563116Y-168704085D01*
X116493558Y-168569844D01*
X116390362Y-168459348D01*
X116261181Y-168380791D01*
X116209997Y-168366450D01*
X116910057Y-167666390D01*
X116910056Y-167666388D01*
X116863235Y-167629947D01*
X116644605Y-167511630D01*
X116638717Y-167509609D01*
X116581703Y-167469222D01*
X116555574Y-167404422D01*
X116568627Y-167335782D01*
X116616717Y-167285096D01*
X116631506Y-167277779D01*
X116726963Y-167238240D01*
X116929416Y-167114176D01*
X117109969Y-166959969D01*
X117264176Y-166779416D01*
X117388240Y-166576963D01*
X117479105Y-166357594D01*
X117534535Y-166126711D01*
X117553165Y-165890000D01*
X117534535Y-165653289D01*
X117479105Y-165422406D01*
X117388240Y-165203037D01*
X117264176Y-165000584D01*
X117109969Y-164820031D01*
X116929416Y-164665824D01*
X116726963Y-164541760D01*
X116617278Y-164496327D01*
X116507593Y-164450894D01*
X116276712Y-164395465D01*
X116040000Y-164376835D01*
X115803287Y-164395465D01*
X115572406Y-164450894D01*
X115353035Y-164541761D01*
X115150585Y-164665823D01*
X114970031Y-164820031D01*
X114815823Y-165000585D01*
X114691761Y-165203035D01*
X114600894Y-165422406D01*
X114545465Y-165653287D01*
X114526835Y-165889999D01*
X114545465Y-166126712D01*
X114600894Y-166357593D01*
X114646327Y-166467278D01*
X114691760Y-166576963D01*
X114815824Y-166779416D01*
X114970031Y-166959969D01*
X115150584Y-167114176D01*
X115353037Y-167238240D01*
X115448469Y-167277769D01*
X115502872Y-167321608D01*
X115524937Y-167387902D01*
X115507658Y-167455602D01*
X115456521Y-167503213D01*
X115441284Y-167509608D01*
X115435397Y-167511629D01*
X115216764Y-167629946D01*
X115169942Y-167666388D01*
X115169942Y-167666390D01*
X115868431Y-168364878D01*
X115751542Y-168415651D01*
X115634261Y-168511066D01*
X115547072Y-168634585D01*
X115516645Y-168720197D01*
X114816564Y-168020116D01*
X114716266Y-168173634D01*
X114616413Y-168401278D01*
X114555386Y-168642267D01*
X114534858Y-168890000D01*
X114555386Y-169137732D01*
X114616413Y-169378721D01*
X114716266Y-169606365D01*
X114815124Y-169757678D01*
X114835311Y-169824568D01*
X114816131Y-169891753D01*
X114763673Y-169937904D01*
X114711315Y-169949500D01*
X89428685Y-169949500D01*
X89361646Y-169929815D01*
X89315891Y-169877011D01*
X89305947Y-169807853D01*
X89324876Y-169757678D01*
X89423733Y-169606365D01*
X89523586Y-169378721D01*
X89584613Y-169137732D01*
X89605141Y-168890000D01*
X89584613Y-168642267D01*
X89523586Y-168401278D01*
X89423730Y-168173630D01*
X89323434Y-168020116D01*
X88625928Y-168717621D01*
X88623116Y-168704085D01*
X88553558Y-168569844D01*
X88450362Y-168459348D01*
X88321181Y-168380791D01*
X88269997Y-168366450D01*
X88970057Y-167666390D01*
X88970056Y-167666388D01*
X88923235Y-167629947D01*
X88704605Y-167511630D01*
X88698717Y-167509609D01*
X88641703Y-167469222D01*
X88615574Y-167404422D01*
X88628627Y-167335782D01*
X88676717Y-167285096D01*
X88691506Y-167277779D01*
X88786963Y-167238240D01*
X88989416Y-167114176D01*
X89169969Y-166959969D01*
X89324176Y-166779416D01*
X89448240Y-166576963D01*
X89539105Y-166357594D01*
X89594535Y-166126711D01*
X89613165Y-165890000D01*
X89594535Y-165653289D01*
X89539105Y-165422406D01*
X89448240Y-165203037D01*
X89324176Y-165000584D01*
X89169969Y-164820031D01*
X88989416Y-164665824D01*
X88786963Y-164541760D01*
X88677278Y-164496327D01*
X88567593Y-164450894D01*
X88336712Y-164395465D01*
X88100000Y-164376835D01*
X87863287Y-164395465D01*
X87632406Y-164450894D01*
X87413035Y-164541761D01*
X87210585Y-164665823D01*
X87030031Y-164820031D01*
X86875823Y-165000585D01*
X86751761Y-165203035D01*
X86660894Y-165422406D01*
X86605465Y-165653287D01*
X86586835Y-165889999D01*
X86605465Y-166126712D01*
X86660894Y-166357593D01*
X86706327Y-166467278D01*
X86751760Y-166576963D01*
X86875824Y-166779416D01*
X87030031Y-166959969D01*
X87210584Y-167114176D01*
X87413037Y-167238240D01*
X87508469Y-167277769D01*
X87562872Y-167321608D01*
X87584937Y-167387902D01*
X87567658Y-167455602D01*
X87516521Y-167503213D01*
X87501284Y-167509608D01*
X87495397Y-167511629D01*
X87276764Y-167629946D01*
X87229942Y-167666388D01*
X87229942Y-167666390D01*
X87928431Y-168364878D01*
X87811542Y-168415651D01*
X87694261Y-168511066D01*
X87607072Y-168634585D01*
X87576645Y-168720197D01*
X86876564Y-168020116D01*
X86776266Y-168173634D01*
X86676413Y-168401278D01*
X86615386Y-168642267D01*
X86594858Y-168889999D01*
X86615386Y-169137732D01*
X86676413Y-169378721D01*
X86776266Y-169606365D01*
X86875124Y-169757678D01*
X86895311Y-169824568D01*
X86876131Y-169891753D01*
X86823673Y-169937904D01*
X86771315Y-169949500D01*
X61488685Y-169949500D01*
X61421646Y-169929815D01*
X61375891Y-169877011D01*
X61365947Y-169807853D01*
X61384876Y-169757678D01*
X61483733Y-169606365D01*
X61583586Y-169378721D01*
X61644613Y-169137732D01*
X61665141Y-168889999D01*
X61644613Y-168642267D01*
X61583586Y-168401278D01*
X61483730Y-168173630D01*
X61383434Y-168020116D01*
X60685928Y-168717621D01*
X60683116Y-168704085D01*
X60613558Y-168569844D01*
X60510362Y-168459348D01*
X60381181Y-168380791D01*
X60329997Y-168366450D01*
X61030057Y-167666390D01*
X61030056Y-167666388D01*
X60983235Y-167629947D01*
X60764605Y-167511630D01*
X60758717Y-167509609D01*
X60701703Y-167469222D01*
X60675574Y-167404422D01*
X60688627Y-167335782D01*
X60736717Y-167285096D01*
X60751506Y-167277779D01*
X60846963Y-167238240D01*
X61049416Y-167114176D01*
X61229969Y-166959969D01*
X61384176Y-166779416D01*
X61508240Y-166576963D01*
X61599105Y-166357594D01*
X61654535Y-166126711D01*
X61673165Y-165890000D01*
X61654535Y-165653289D01*
X61599105Y-165422406D01*
X61508240Y-165203037D01*
X61384176Y-165000584D01*
X61229969Y-164820031D01*
X61049416Y-164665824D01*
X60846963Y-164541760D01*
X60737278Y-164496327D01*
X60627593Y-164450894D01*
X60396712Y-164395465D01*
X60160000Y-164376835D01*
X59923287Y-164395465D01*
X59692406Y-164450894D01*
X59473035Y-164541761D01*
X59270585Y-164665823D01*
X59090031Y-164820031D01*
X58935823Y-165000585D01*
X58811761Y-165203035D01*
X58720894Y-165422406D01*
X58665465Y-165653287D01*
X58646835Y-165890000D01*
X58665465Y-166126712D01*
X58720894Y-166357593D01*
X58766327Y-166467278D01*
X58811760Y-166576963D01*
X58935824Y-166779416D01*
X59090031Y-166959969D01*
X59270584Y-167114176D01*
X59473037Y-167238240D01*
X59568469Y-167277769D01*
X59622872Y-167321608D01*
X59644937Y-167387902D01*
X59627658Y-167455602D01*
X59576521Y-167503213D01*
X59561284Y-167509608D01*
X59555397Y-167511629D01*
X59336764Y-167629946D01*
X59289942Y-167666388D01*
X59289942Y-167666390D01*
X59988431Y-168364878D01*
X59871542Y-168415651D01*
X59754261Y-168511066D01*
X59667072Y-168634585D01*
X59636645Y-168720197D01*
X58936564Y-168020116D01*
X58836266Y-168173634D01*
X58736413Y-168401278D01*
X58675386Y-168642267D01*
X58654858Y-168889999D01*
X58675386Y-169137732D01*
X58736413Y-169378721D01*
X58836266Y-169606365D01*
X58935124Y-169757678D01*
X58955311Y-169824568D01*
X58936131Y-169891753D01*
X58883673Y-169937904D01*
X58831315Y-169949500D01*
X50424500Y-169949500D01*
X50357461Y-169929815D01*
X50311706Y-169877011D01*
X50300500Y-169825500D01*
X50300500Y-157390000D01*
X58646835Y-157390000D01*
X58665465Y-157626712D01*
X58720894Y-157857593D01*
X58766327Y-157967278D01*
X58811760Y-158076963D01*
X58935824Y-158279416D01*
X59090031Y-158459969D01*
X59270584Y-158614176D01*
X59473037Y-158738240D01*
X59692406Y-158829105D01*
X59923289Y-158884535D01*
X60160000Y-158903165D01*
X60396711Y-158884535D01*
X60627594Y-158829105D01*
X60846963Y-158738240D01*
X61049416Y-158614176D01*
X61229969Y-158459969D01*
X61384176Y-158279416D01*
X61508240Y-158076963D01*
X61599105Y-157857594D01*
X61654535Y-157626711D01*
X61673165Y-157390000D01*
X61654535Y-157153289D01*
X61599105Y-156922406D01*
X61508240Y-156703037D01*
X61384176Y-156500584D01*
X61229969Y-156320031D01*
X61049416Y-156165824D01*
X60846963Y-156041760D01*
X60724610Y-155991080D01*
X60627593Y-155950894D01*
X60396712Y-155895465D01*
X60160000Y-155876835D01*
X59923287Y-155895465D01*
X59692406Y-155950894D01*
X59518625Y-156022877D01*
X59494995Y-156032665D01*
X59473035Y-156041761D01*
X59270585Y-156165823D01*
X59090031Y-156320031D01*
X58935823Y-156500585D01*
X58811761Y-156703035D01*
X58720894Y-156922406D01*
X58665465Y-157153287D01*
X58646835Y-157390000D01*
X50300500Y-157390000D01*
X50300500Y-145570000D01*
X58646835Y-145570000D01*
X58665465Y-145806712D01*
X58720894Y-146037593D01*
X58766327Y-146147278D01*
X58811760Y-146256963D01*
X58935824Y-146459416D01*
X59090031Y-146639969D01*
X59270584Y-146794176D01*
X59473037Y-146918240D01*
X59568469Y-146957769D01*
X59622872Y-147001608D01*
X59644937Y-147067902D01*
X59627658Y-147135602D01*
X59576521Y-147183213D01*
X59561284Y-147189608D01*
X59555397Y-147191629D01*
X59336764Y-147309946D01*
X59289942Y-147346388D01*
X59289942Y-147346390D01*
X59988431Y-148044878D01*
X59871542Y-148095651D01*
X59754261Y-148191066D01*
X59667072Y-148314585D01*
X59636645Y-148400197D01*
X58936564Y-147700116D01*
X58836266Y-147853634D01*
X58736413Y-148081278D01*
X58675386Y-148322267D01*
X58654858Y-148570000D01*
X58675386Y-148817732D01*
X58736413Y-149058721D01*
X58836268Y-149286370D01*
X58936563Y-149439882D01*
X58936564Y-149439882D01*
X59634070Y-148742376D01*
X59636884Y-148755915D01*
X59706442Y-148890156D01*
X59809638Y-149000652D01*
X59938819Y-149079209D01*
X59990002Y-149093549D01*
X59289942Y-149793609D01*
X59289942Y-149793610D01*
X59336766Y-149830055D01*
X59555393Y-149948368D01*
X59790506Y-150029083D01*
X60035707Y-150070000D01*
X60284293Y-150070000D01*
X60529493Y-150029083D01*
X60764606Y-149948368D01*
X60983233Y-149830053D01*
X61030056Y-149793609D01*
X60331568Y-149095121D01*
X60448458Y-149044349D01*
X60565739Y-148948934D01*
X60652928Y-148825415D01*
X60683354Y-148739802D01*
X61383434Y-149439882D01*
X61483730Y-149286369D01*
X61583586Y-149058721D01*
X61644613Y-148817732D01*
X61665141Y-148570000D01*
X61644613Y-148322267D01*
X61583586Y-148081278D01*
X61483730Y-147853630D01*
X61383434Y-147700116D01*
X60685928Y-148397621D01*
X60683116Y-148384085D01*
X60613558Y-148249844D01*
X60510362Y-148139348D01*
X60381181Y-148060791D01*
X60329997Y-148046450D01*
X61030057Y-147346390D01*
X61030056Y-147346388D01*
X60983235Y-147309947D01*
X60764605Y-147191630D01*
X60758717Y-147189609D01*
X60701703Y-147149222D01*
X60675574Y-147084422D01*
X60688627Y-147015782D01*
X60736717Y-146965096D01*
X60751506Y-146957779D01*
X60846963Y-146918240D01*
X61049416Y-146794176D01*
X61229969Y-146639969D01*
X61384176Y-146459416D01*
X61508240Y-146256963D01*
X61599105Y-146037594D01*
X61654535Y-145806711D01*
X61673165Y-145570000D01*
X61654535Y-145333289D01*
X61599105Y-145102406D01*
X61508240Y-144883037D01*
X61384176Y-144680584D01*
X61229969Y-144500031D01*
X61049416Y-144345824D01*
X60846963Y-144221760D01*
X60737278Y-144176327D01*
X60627593Y-144130894D01*
X60396712Y-144075465D01*
X60160000Y-144056835D01*
X59923287Y-144075465D01*
X59692406Y-144130894D01*
X59473035Y-144221761D01*
X59270585Y-144345823D01*
X59090031Y-144500031D01*
X58935823Y-144680585D01*
X58811761Y-144883035D01*
X58720894Y-145102406D01*
X58665465Y-145333287D01*
X58646835Y-145570000D01*
X50300500Y-145570000D01*
X50300500Y-135563942D01*
X50320185Y-135496903D01*
X50372989Y-135451148D01*
X50423625Y-135439946D01*
X59709728Y-135375008D01*
X59776901Y-135394223D01*
X59823024Y-135446706D01*
X59833451Y-135515793D01*
X59804871Y-135579550D01*
X59746359Y-135617735D01*
X59739540Y-135619579D01*
X59692406Y-135630894D01*
X59473035Y-135721761D01*
X59270585Y-135845823D01*
X59090031Y-136000031D01*
X58935823Y-136180585D01*
X58811761Y-136383035D01*
X58720894Y-136602406D01*
X58665465Y-136833287D01*
X58646835Y-137070000D01*
X58665465Y-137306712D01*
X58720894Y-137537593D01*
X58737313Y-137577231D01*
X58811760Y-137756963D01*
X58935824Y-137959416D01*
X59090031Y-138139969D01*
X59270584Y-138294176D01*
X59473037Y-138418240D01*
X59692406Y-138509105D01*
X59923289Y-138564535D01*
X60160000Y-138583165D01*
X60396711Y-138564535D01*
X60627594Y-138509105D01*
X60846963Y-138418240D01*
X61049416Y-138294176D01*
X61229969Y-138139969D01*
X61384176Y-137959416D01*
X61508240Y-137756963D01*
X61599105Y-137537594D01*
X61654535Y-137306711D01*
X61673165Y-137070000D01*
X86586835Y-137070000D01*
X86596150Y-137188355D01*
X86605465Y-137306712D01*
X86660894Y-137537593D01*
X86677313Y-137577231D01*
X86751760Y-137756963D01*
X86875824Y-137959416D01*
X87030031Y-138139969D01*
X87210584Y-138294176D01*
X87413037Y-138418240D01*
X87632406Y-138509105D01*
X87863289Y-138564535D01*
X88100000Y-138583165D01*
X88336711Y-138564535D01*
X88567594Y-138509105D01*
X88786963Y-138418240D01*
X88989416Y-138294176D01*
X89169969Y-138139969D01*
X89324176Y-137959416D01*
X89448240Y-137756963D01*
X89539105Y-137537594D01*
X89594535Y-137306711D01*
X89613165Y-137070000D01*
X89594535Y-136833289D01*
X89539105Y-136602406D01*
X89448240Y-136383037D01*
X89324176Y-136180584D01*
X89169969Y-136000031D01*
X88989416Y-135845824D01*
X88786963Y-135721760D01*
X88647317Y-135663917D01*
X88567593Y-135630894D01*
X88336712Y-135575465D01*
X88100000Y-135556835D01*
X87863287Y-135575465D01*
X87632406Y-135630894D01*
X87413035Y-135721761D01*
X87210585Y-135845823D01*
X87030031Y-136000031D01*
X86875823Y-136180585D01*
X86751761Y-136383035D01*
X86660894Y-136602406D01*
X86605465Y-136833287D01*
X86605465Y-136833289D01*
X86586835Y-137070000D01*
X61673165Y-137070000D01*
X61654535Y-136833289D01*
X61599105Y-136602406D01*
X61508240Y-136383037D01*
X61384176Y-136180584D01*
X61229969Y-136000031D01*
X61049416Y-135845824D01*
X60846963Y-135721760D01*
X60627594Y-135630895D01*
X60627593Y-135630894D01*
X60555019Y-135613471D01*
X60494427Y-135578680D01*
X60462264Y-135516653D01*
X60468740Y-135447084D01*
X60511800Y-135392061D01*
X60577773Y-135369052D01*
X60583038Y-135368901D01*
X70629659Y-135298645D01*
X70696829Y-135317859D01*
X70718202Y-135334960D01*
X70810219Y-135426977D01*
X70992323Y-135554488D01*
X71193804Y-135648440D01*
X71408537Y-135705978D01*
X71556179Y-135718894D01*
X71629999Y-135725353D01*
X71629999Y-135725352D01*
X71630000Y-135725353D01*
X71851463Y-135705978D01*
X72066196Y-135648440D01*
X72267677Y-135554488D01*
X72449781Y-135426977D01*
X72555877Y-135320880D01*
X72617196Y-135287398D01*
X72642673Y-135284568D01*
X73112298Y-135281284D01*
X73179468Y-135300498D01*
X73200841Y-135317599D01*
X73310219Y-135426977D01*
X73492323Y-135554488D01*
X73693804Y-135648440D01*
X73908537Y-135705978D01*
X74130000Y-135725353D01*
X74351463Y-135705978D01*
X74566196Y-135648440D01*
X74767677Y-135554488D01*
X74949781Y-135426977D01*
X75073479Y-135303278D01*
X75134803Y-135269793D01*
X75160285Y-135266962D01*
X75594936Y-135263923D01*
X75662106Y-135283137D01*
X75683479Y-135300237D01*
X75810219Y-135426977D01*
X75992323Y-135554488D01*
X76193804Y-135648440D01*
X76408537Y-135705978D01*
X76630000Y-135725353D01*
X76851463Y-135705978D01*
X77066196Y-135648440D01*
X77267677Y-135554488D01*
X77449781Y-135426977D01*
X77591085Y-135285672D01*
X77652409Y-135252187D01*
X77677887Y-135249357D01*
X83520350Y-135208500D01*
X90782459Y-135208500D01*
X90849495Y-135228184D01*
X90870136Y-135244817D01*
X92639182Y-137013863D01*
X92672666Y-137075184D01*
X92675500Y-137101542D01*
X92675499Y-145053706D01*
X92674190Y-145071673D01*
X92670658Y-145095785D01*
X92675028Y-145145725D01*
X92675500Y-145156532D01*
X92675500Y-145162180D01*
X92675916Y-145165739D01*
X92675917Y-145165756D01*
X92679139Y-145193321D01*
X92679505Y-145196905D01*
X92686214Y-145273582D01*
X92690523Y-145293017D01*
X92690920Y-145294109D01*
X92690921Y-145294113D01*
X92705179Y-145333287D01*
X92716855Y-145365367D01*
X92718037Y-145368771D01*
X92742251Y-145441843D01*
X92750922Y-145459754D01*
X92793245Y-145524103D01*
X92795178Y-145527138D01*
X92834970Y-145591651D01*
X92834972Y-145591653D01*
X92835589Y-145592653D01*
X92848153Y-145608075D01*
X92848997Y-145608871D01*
X92848999Y-145608874D01*
X92904173Y-145660928D01*
X92906760Y-145663441D01*
X94601138Y-147357819D01*
X94634623Y-147419142D01*
X94629639Y-147488834D01*
X94587767Y-147544767D01*
X94522303Y-147569184D01*
X94513457Y-147569500D01*
X93805362Y-147569500D01*
X93802082Y-147569852D01*
X93802075Y-147569853D01*
X93744794Y-147576011D01*
X93607796Y-147627110D01*
X93490738Y-147714738D01*
X93403110Y-147831796D01*
X93352011Y-147968794D01*
X93346034Y-148024395D01*
X93345500Y-148029362D01*
X93345500Y-148032671D01*
X93345500Y-149162457D01*
X93325815Y-149229496D01*
X93309181Y-149250138D01*
X92354138Y-150205181D01*
X92292815Y-150238666D01*
X92266457Y-150241500D01*
X88593836Y-150241500D01*
X88526797Y-150221815D01*
X88481042Y-150169011D01*
X88471098Y-150099853D01*
X88500123Y-150036297D01*
X88553573Y-150000219D01*
X88704606Y-149948368D01*
X88923233Y-149830053D01*
X88970056Y-149793609D01*
X88271568Y-149095121D01*
X88388458Y-149044349D01*
X88505739Y-148948934D01*
X88592928Y-148825415D01*
X88623354Y-148739802D01*
X89323434Y-149439882D01*
X89423730Y-149286369D01*
X89523586Y-149058721D01*
X89584613Y-148817732D01*
X89605141Y-148569999D01*
X89584613Y-148322267D01*
X89523586Y-148081278D01*
X89423730Y-147853630D01*
X89323434Y-147700116D01*
X88625928Y-148397621D01*
X88623116Y-148384085D01*
X88553558Y-148249844D01*
X88450362Y-148139348D01*
X88321181Y-148060791D01*
X88269997Y-148046450D01*
X88970057Y-147346390D01*
X88970056Y-147346388D01*
X88923235Y-147309947D01*
X88704605Y-147191630D01*
X88698717Y-147189609D01*
X88641703Y-147149222D01*
X88615574Y-147084422D01*
X88628627Y-147015782D01*
X88676717Y-146965096D01*
X88691506Y-146957779D01*
X88786963Y-146918240D01*
X88989416Y-146794176D01*
X89169969Y-146639969D01*
X89324176Y-146459416D01*
X89448240Y-146256963D01*
X89539105Y-146037594D01*
X89594535Y-145806711D01*
X89613165Y-145570000D01*
X89594535Y-145333289D01*
X89539105Y-145102406D01*
X89448240Y-144883037D01*
X89324176Y-144680584D01*
X89169969Y-144500031D01*
X88989416Y-144345824D01*
X88786963Y-144221760D01*
X88677278Y-144176327D01*
X88567593Y-144130894D01*
X88336712Y-144075465D01*
X88100000Y-144056835D01*
X87863287Y-144075465D01*
X87632406Y-144130894D01*
X87413035Y-144221761D01*
X87210585Y-144345823D01*
X87030031Y-144500031D01*
X86875823Y-144680585D01*
X86751761Y-144883035D01*
X86660894Y-145102406D01*
X86605465Y-145333287D01*
X86586835Y-145569999D01*
X86605465Y-145806712D01*
X86660894Y-146037593D01*
X86706327Y-146147278D01*
X86751760Y-146256963D01*
X86875824Y-146459416D01*
X87030031Y-146639969D01*
X87210584Y-146794176D01*
X87413037Y-146918240D01*
X87508469Y-146957769D01*
X87562872Y-147001608D01*
X87584937Y-147067902D01*
X87567658Y-147135602D01*
X87516521Y-147183213D01*
X87501284Y-147189608D01*
X87495397Y-147191629D01*
X87276764Y-147309946D01*
X87229942Y-147346388D01*
X87229942Y-147346390D01*
X87928431Y-148044878D01*
X87811542Y-148095651D01*
X87694261Y-148191066D01*
X87607072Y-148314585D01*
X87576645Y-148400197D01*
X86876564Y-147700116D01*
X86776266Y-147853634D01*
X86676413Y-148081278D01*
X86615386Y-148322267D01*
X86594858Y-148569999D01*
X86615386Y-148817732D01*
X86676413Y-149058721D01*
X86776268Y-149286370D01*
X86876563Y-149439882D01*
X86876564Y-149439882D01*
X87574070Y-148742376D01*
X87576884Y-148755915D01*
X87646442Y-148890156D01*
X87749638Y-149000652D01*
X87878819Y-149079209D01*
X87930002Y-149093549D01*
X87229942Y-149793609D01*
X87229942Y-149793610D01*
X87276766Y-149830055D01*
X87495393Y-149948368D01*
X87646427Y-150000219D01*
X87703442Y-150040605D01*
X87729573Y-150105404D01*
X87716521Y-150174044D01*
X87668433Y-150224732D01*
X87606164Y-150241500D01*
X82326437Y-150241500D01*
X82259398Y-150221815D01*
X82224861Y-150188622D01*
X82218975Y-150180216D01*
X82061784Y-150023026D01*
X82061783Y-150023025D01*
X82061781Y-150023023D01*
X81879677Y-149895512D01*
X81808628Y-149862381D01*
X81756190Y-149816210D01*
X81737038Y-149749016D01*
X81757254Y-149682135D01*
X81808629Y-149637618D01*
X81879677Y-149604488D01*
X82061781Y-149476977D01*
X82218977Y-149319781D01*
X82346488Y-149137677D01*
X82440440Y-148936196D01*
X82497978Y-148721463D01*
X82517353Y-148500000D01*
X82515279Y-148476299D01*
X82497978Y-148278539D01*
X82497978Y-148278537D01*
X82440440Y-148063804D01*
X82346488Y-147862324D01*
X82218977Y-147680219D01*
X82061781Y-147523023D01*
X81879677Y-147395512D01*
X81774330Y-147346388D01*
X81678197Y-147301560D01*
X81463460Y-147244021D01*
X81241999Y-147224646D01*
X81020539Y-147244021D01*
X80805802Y-147301560D01*
X80604323Y-147395512D01*
X80422218Y-147523023D01*
X80265023Y-147680218D01*
X80137512Y-147862323D01*
X80043560Y-148063802D01*
X79986021Y-148278539D01*
X79966646Y-148500000D01*
X79986021Y-148721460D01*
X80043560Y-148936197D01*
X80094194Y-149044781D01*
X80137512Y-149137677D01*
X80265023Y-149319781D01*
X80422219Y-149476977D01*
X80604323Y-149604488D01*
X80675371Y-149637618D01*
X80727810Y-149683790D01*
X80746962Y-149750984D01*
X80726746Y-149817865D01*
X80675371Y-149862382D01*
X80604323Y-149895512D01*
X80422218Y-150023023D01*
X80265023Y-150180218D01*
X80137512Y-150362323D01*
X80043560Y-150563802D01*
X79986021Y-150778539D01*
X79966646Y-150999999D01*
X79986021Y-151221460D01*
X79986022Y-151221463D01*
X80043560Y-151436196D01*
X80137512Y-151637677D01*
X80265023Y-151819781D01*
X80422219Y-151976977D01*
X80604323Y-152104488D01*
X80675371Y-152137618D01*
X80727810Y-152183790D01*
X80746962Y-152250984D01*
X80726746Y-152317865D01*
X80675371Y-152362382D01*
X80604323Y-152395512D01*
X80422218Y-152523023D01*
X80265023Y-152680218D01*
X80137512Y-152862323D01*
X80043560Y-153063802D01*
X79986021Y-153278539D01*
X79966646Y-153499999D01*
X79986021Y-153721460D01*
X79986022Y-153721463D01*
X80043560Y-153936196D01*
X80137512Y-154137677D01*
X80265023Y-154319781D01*
X80422219Y-154476977D01*
X80523545Y-154547926D01*
X80567169Y-154602502D01*
X80574361Y-154672001D01*
X80542839Y-154734355D01*
X80482609Y-154769769D01*
X80452420Y-154773500D01*
X72185279Y-154773500D01*
X72118240Y-154753815D01*
X72097598Y-154737181D01*
X68547670Y-151187253D01*
X68514185Y-151125930D01*
X68511823Y-151088768D01*
X68523089Y-150960000D01*
X68503714Y-150738537D01*
X68446176Y-150523804D01*
X68352224Y-150322324D01*
X68224713Y-150140219D01*
X68067517Y-149983023D01*
X67885413Y-149855512D01*
X67814364Y-149822381D01*
X67761926Y-149776210D01*
X67742774Y-149709016D01*
X67762990Y-149642135D01*
X67814365Y-149597618D01*
X67885413Y-149564488D01*
X68067517Y-149436977D01*
X68224713Y-149279781D01*
X68352224Y-149097677D01*
X68446176Y-148896196D01*
X68503714Y-148681463D01*
X68523089Y-148460000D01*
X68503714Y-148238537D01*
X68446176Y-148023804D01*
X68352224Y-147822324D01*
X68224713Y-147640219D01*
X68067517Y-147483023D01*
X67885413Y-147355512D01*
X67787696Y-147309946D01*
X67683933Y-147261560D01*
X67469196Y-147204021D01*
X67247736Y-147184646D01*
X67026275Y-147204021D01*
X66811538Y-147261560D01*
X66610059Y-147355512D01*
X66427954Y-147483023D01*
X66270759Y-147640218D01*
X66143248Y-147822323D01*
X66049296Y-148023802D01*
X65991757Y-148238539D01*
X65972382Y-148459999D01*
X65991757Y-148681460D01*
X66049296Y-148896197D01*
X66073888Y-148948934D01*
X66143248Y-149097677D01*
X66270759Y-149279781D01*
X66427955Y-149436977D01*
X66610059Y-149564488D01*
X66681107Y-149597618D01*
X66733546Y-149643790D01*
X66752698Y-149710984D01*
X66732482Y-149777865D01*
X66681107Y-149822382D01*
X66610059Y-149855512D01*
X66427954Y-149983023D01*
X66270759Y-150140218D01*
X66143248Y-150322323D01*
X66049296Y-150523802D01*
X65991757Y-150738539D01*
X65972382Y-150960000D01*
X65991757Y-151181460D01*
X66049296Y-151396197D01*
X66082779Y-151468000D01*
X66143248Y-151597677D01*
X66270759Y-151779781D01*
X66427955Y-151936977D01*
X66610059Y-152064488D01*
X66681107Y-152097618D01*
X66733546Y-152143790D01*
X66752698Y-152210984D01*
X66732482Y-152277865D01*
X66681107Y-152322382D01*
X66610059Y-152355512D01*
X66427954Y-152483023D01*
X66270759Y-152640218D01*
X66143248Y-152822323D01*
X66049296Y-153023802D01*
X65991757Y-153238539D01*
X65972382Y-153460000D01*
X65991757Y-153681460D01*
X66049296Y-153896197D01*
X66099930Y-154004781D01*
X66143248Y-154097677D01*
X66270759Y-154279781D01*
X66427955Y-154436977D01*
X66610059Y-154564488D01*
X66811540Y-154658440D01*
X67026273Y-154715978D01*
X67247736Y-154735353D01*
X67469199Y-154715978D01*
X67683932Y-154658440D01*
X67885413Y-154564488D01*
X68067517Y-154436977D01*
X68224713Y-154279781D01*
X68352224Y-154097677D01*
X68446176Y-153896196D01*
X68503714Y-153681463D01*
X68512139Y-153585167D01*
X68537591Y-153520098D01*
X68594182Y-153479119D01*
X68663944Y-153475241D01*
X68723348Y-153508293D01*
X71237932Y-156022877D01*
X71249713Y-156036509D01*
X71264139Y-156055887D01*
X71264267Y-156056058D01*
X71282481Y-156071341D01*
X71302669Y-156088281D01*
X71310644Y-156095589D01*
X71314635Y-156099580D01*
X71339241Y-156119036D01*
X71342003Y-156121286D01*
X71400096Y-156170032D01*
X71400099Y-156170033D01*
X71400997Y-156170787D01*
X71417770Y-156181472D01*
X71418827Y-156181965D01*
X71418830Y-156181967D01*
X71487588Y-156214028D01*
X71490770Y-156215569D01*
X71558548Y-156249609D01*
X71558551Y-156249609D01*
X71559595Y-156250134D01*
X71578378Y-156256664D01*
X71579527Y-156256901D01*
X71579529Y-156256902D01*
X71653852Y-156272247D01*
X71657285Y-156273009D01*
X71731080Y-156290500D01*
X71732219Y-156290770D01*
X71752005Y-156292791D01*
X71753173Y-156292757D01*
X71753178Y-156292758D01*
X71828993Y-156290552D01*
X71832600Y-156290500D01*
X86786276Y-156290500D01*
X86853315Y-156310185D01*
X86899070Y-156362989D01*
X86909014Y-156432147D01*
X86880566Y-156495032D01*
X86875823Y-156500585D01*
X86751761Y-156703035D01*
X86660894Y-156922406D01*
X86605465Y-157153287D01*
X86586835Y-157390000D01*
X86605465Y-157626712D01*
X86660894Y-157857593D01*
X86706327Y-157967278D01*
X86751760Y-158076963D01*
X86875824Y-158279416D01*
X87030031Y-158459969D01*
X87210584Y-158614176D01*
X87413037Y-158738240D01*
X87632406Y-158829105D01*
X87863289Y-158884535D01*
X88100000Y-158903165D01*
X88336711Y-158884535D01*
X88567594Y-158829105D01*
X88786963Y-158738240D01*
X88989416Y-158614176D01*
X89169969Y-158459969D01*
X89324176Y-158279416D01*
X89448240Y-158076963D01*
X89539105Y-157857594D01*
X89594535Y-157626711D01*
X89613165Y-157390000D01*
X114526835Y-157390000D01*
X114545465Y-157626712D01*
X114600894Y-157857593D01*
X114646327Y-157967278D01*
X114691760Y-158076963D01*
X114815824Y-158279416D01*
X114970031Y-158459969D01*
X115150584Y-158614176D01*
X115353037Y-158738240D01*
X115572406Y-158829105D01*
X115803289Y-158884535D01*
X116040000Y-158903165D01*
X116276711Y-158884535D01*
X116507594Y-158829105D01*
X116726963Y-158738240D01*
X116929416Y-158614176D01*
X117109969Y-158459969D01*
X117264176Y-158279416D01*
X117388240Y-158076963D01*
X117479105Y-157857594D01*
X117534535Y-157626711D01*
X117553165Y-157390000D01*
X117534535Y-157153289D01*
X117479105Y-156922406D01*
X117388240Y-156703037D01*
X117264176Y-156500584D01*
X117109969Y-156320031D01*
X116929416Y-156165824D01*
X116726963Y-156041760D01*
X116604610Y-155991080D01*
X116507593Y-155950894D01*
X116276712Y-155895465D01*
X116040000Y-155876835D01*
X115803287Y-155895465D01*
X115572406Y-155950894D01*
X115398625Y-156022877D01*
X115374995Y-156032665D01*
X115353035Y-156041761D01*
X115150585Y-156165823D01*
X114970031Y-156320031D01*
X114815823Y-156500585D01*
X114691761Y-156703035D01*
X114600894Y-156922406D01*
X114545465Y-157153287D01*
X114526835Y-157390000D01*
X89613165Y-157390000D01*
X89594535Y-157153289D01*
X89539105Y-156922406D01*
X89448240Y-156703037D01*
X89324176Y-156500584D01*
X89319433Y-156495031D01*
X89290863Y-156431270D01*
X89301300Y-156362185D01*
X89347431Y-156309709D01*
X89413724Y-156290500D01*
X90575706Y-156290500D01*
X90593676Y-156291809D01*
X90597114Y-156292312D01*
X90617789Y-156295341D01*
X90667726Y-156290971D01*
X90678533Y-156290500D01*
X90680571Y-156290500D01*
X90684180Y-156290500D01*
X90715370Y-156286853D01*
X90718851Y-156286498D01*
X90794426Y-156279887D01*
X90794429Y-156279885D01*
X90795594Y-156279784D01*
X90815015Y-156275478D01*
X90816110Y-156275079D01*
X90816113Y-156275079D01*
X90887414Y-156249126D01*
X90890708Y-156247981D01*
X90962738Y-156224114D01*
X90962742Y-156224111D01*
X90963863Y-156223740D01*
X90981751Y-156215080D01*
X90983375Y-156214012D01*
X91046103Y-156172753D01*
X91049129Y-156170826D01*
X91050416Y-156170032D01*
X91113651Y-156131030D01*
X91113655Y-156131025D01*
X91114650Y-156130412D01*
X91130069Y-156117853D01*
X91130870Y-156117003D01*
X91130874Y-156117001D01*
X91182962Y-156061789D01*
X91185408Y-156059271D01*
X93143709Y-154100970D01*
X93205030Y-154067487D01*
X93274722Y-154072471D01*
X93330655Y-154114343D01*
X93354964Y-154178412D01*
X93359435Y-154232363D01*
X93359435Y-154232366D01*
X93359436Y-154232368D01*
X93411250Y-154436977D01*
X93414705Y-154450618D01*
X93505138Y-154656788D01*
X93505140Y-154656791D01*
X93628278Y-154845268D01*
X93780760Y-155010906D01*
X93958424Y-155149189D01*
X94156426Y-155256342D01*
X94369365Y-155329444D01*
X94591431Y-155366500D01*
X94816566Y-155366500D01*
X94816569Y-155366500D01*
X94902087Y-155352229D01*
X94971450Y-155360611D01*
X95010176Y-155386857D01*
X95422196Y-155798877D01*
X95433977Y-155812509D01*
X95448530Y-155832057D01*
X95486933Y-155864281D01*
X95494908Y-155871589D01*
X95498900Y-155875581D01*
X95501727Y-155877816D01*
X95523471Y-155895009D01*
X95526267Y-155897287D01*
X95537879Y-155907030D01*
X95584360Y-155946032D01*
X95584361Y-155946032D01*
X95585258Y-155946785D01*
X95602032Y-155957471D01*
X95603094Y-155957966D01*
X95603095Y-155957967D01*
X95635056Y-155972871D01*
X95671830Y-155990019D01*
X95675071Y-155991588D01*
X95703048Y-156005639D01*
X95743867Y-156026139D01*
X95762644Y-156032665D01*
X95763791Y-156032902D01*
X95763794Y-156032903D01*
X95838150Y-156048256D01*
X95841571Y-156049014D01*
X95915344Y-156066500D01*
X95916487Y-156066771D01*
X95936272Y-156068792D01*
X95937437Y-156068758D01*
X95937442Y-156068759D01*
X96013292Y-156066552D01*
X96016899Y-156066500D01*
X111288316Y-156066500D01*
X111306286Y-156067809D01*
X111309724Y-156068312D01*
X111330399Y-156071341D01*
X111380336Y-156066971D01*
X111391143Y-156066500D01*
X111393181Y-156066500D01*
X111396790Y-156066500D01*
X111427980Y-156062853D01*
X111431461Y-156062498D01*
X111507036Y-156055887D01*
X111507039Y-156055885D01*
X111508204Y-156055784D01*
X111527625Y-156051478D01*
X111528720Y-156051079D01*
X111528723Y-156051079D01*
X111600024Y-156025126D01*
X111603318Y-156023981D01*
X111675348Y-156000114D01*
X111675352Y-156000111D01*
X111676473Y-155999740D01*
X111694361Y-155991080D01*
X111695974Y-155990019D01*
X111758713Y-155948753D01*
X111761739Y-155946826D01*
X111826261Y-155907030D01*
X111826265Y-155907025D01*
X111827260Y-155906412D01*
X111842679Y-155893853D01*
X111843480Y-155893003D01*
X111843484Y-155893001D01*
X111895572Y-155837789D01*
X111898018Y-155835271D01*
X118264471Y-149468819D01*
X118325795Y-149435334D01*
X118352153Y-149432500D01*
X123458158Y-149432500D01*
X123525197Y-149452185D01*
X123536823Y-149460647D01*
X123604996Y-149516595D01*
X123780196Y-149610241D01*
X123970299Y-149667908D01*
X124168000Y-149687380D01*
X124365701Y-149667908D01*
X124555804Y-149610241D01*
X124731004Y-149516595D01*
X124884568Y-149390568D01*
X125010595Y-149237004D01*
X125104241Y-149061804D01*
X125161908Y-148871701D01*
X125181380Y-148674000D01*
X125161908Y-148476299D01*
X125104241Y-148286196D01*
X125010595Y-148110996D01*
X124884568Y-147957432D01*
X124758085Y-147853630D01*
X124731003Y-147831404D01*
X124636390Y-147780833D01*
X124555804Y-147737759D01*
X124366120Y-147680219D01*
X124365698Y-147680091D01*
X124192247Y-147663008D01*
X124168000Y-147660620D01*
X124167999Y-147660620D01*
X123970301Y-147680091D01*
X123906931Y-147699314D01*
X123780196Y-147737759D01*
X123780192Y-147737760D01*
X123780192Y-147737761D01*
X123604996Y-147831404D01*
X123536823Y-147887353D01*
X123472513Y-147914666D01*
X123458158Y-147915500D01*
X118050905Y-147915500D01*
X118032935Y-147914191D01*
X118018843Y-147912127D01*
X118008821Y-147910659D01*
X118008820Y-147910659D01*
X117958884Y-147915028D01*
X117948077Y-147915500D01*
X117942430Y-147915500D01*
X117938868Y-147915916D01*
X117938856Y-147915917D01*
X117911292Y-147919139D01*
X117907707Y-147919505D01*
X117831029Y-147926214D01*
X117811583Y-147930524D01*
X117739262Y-147956847D01*
X117735859Y-147958030D01*
X117662770Y-147982250D01*
X117644851Y-147990925D01*
X117596112Y-148022980D01*
X117529284Y-148043371D01*
X117462041Y-148024395D01*
X117415731Y-147972077D01*
X117414419Y-147969188D01*
X117363730Y-147853630D01*
X117263434Y-147700116D01*
X116565929Y-148397622D01*
X116563116Y-148384085D01*
X116493558Y-148249844D01*
X116390362Y-148139348D01*
X116261181Y-148060791D01*
X116209997Y-148046450D01*
X116910057Y-147346390D01*
X116910056Y-147346388D01*
X116863235Y-147309947D01*
X116644605Y-147191630D01*
X116638717Y-147189609D01*
X116581703Y-147149222D01*
X116555574Y-147084422D01*
X116568627Y-147015782D01*
X116616717Y-146965096D01*
X116631506Y-146957779D01*
X116726963Y-146918240D01*
X116929416Y-146794176D01*
X117109969Y-146639969D01*
X117264176Y-146459416D01*
X117388240Y-146256963D01*
X117479105Y-146037594D01*
X117534535Y-145806711D01*
X117553165Y-145570000D01*
X117534535Y-145333289D01*
X117479105Y-145102406D01*
X117388240Y-144883037D01*
X117264176Y-144680584D01*
X117109969Y-144500031D01*
X116929416Y-144345824D01*
X116726963Y-144221760D01*
X116617278Y-144176327D01*
X116507593Y-144130894D01*
X116276712Y-144075465D01*
X116158355Y-144066150D01*
X116040000Y-144056835D01*
X116039999Y-144056835D01*
X115803287Y-144075465D01*
X115572406Y-144130894D01*
X115353035Y-144221761D01*
X115150585Y-144345823D01*
X114970031Y-144500031D01*
X114815823Y-144680585D01*
X114691761Y-144883035D01*
X114600894Y-145102406D01*
X114545465Y-145333287D01*
X114526835Y-145570000D01*
X114545465Y-145806712D01*
X114600894Y-146037593D01*
X114646327Y-146147278D01*
X114691760Y-146256963D01*
X114815824Y-146459416D01*
X114970031Y-146639969D01*
X115150584Y-146794176D01*
X115353037Y-146918240D01*
X115448469Y-146957769D01*
X115502872Y-147001608D01*
X115524937Y-147067902D01*
X115507658Y-147135602D01*
X115456521Y-147183213D01*
X115441284Y-147189608D01*
X115435397Y-147191629D01*
X115216764Y-147309946D01*
X115169942Y-147346388D01*
X115169942Y-147346390D01*
X115868431Y-148044878D01*
X115751542Y-148095651D01*
X115634261Y-148191066D01*
X115547072Y-148314585D01*
X115516645Y-148400197D01*
X114816564Y-147700116D01*
X114716266Y-147853634D01*
X114616413Y-148081278D01*
X114555386Y-148322267D01*
X114534858Y-148569999D01*
X114555386Y-148817732D01*
X114616413Y-149058721D01*
X114716268Y-149286370D01*
X114816563Y-149439882D01*
X114816564Y-149439882D01*
X115514070Y-148742375D01*
X115516884Y-148755915D01*
X115586442Y-148890156D01*
X115689638Y-149000652D01*
X115818819Y-149079209D01*
X115870002Y-149093549D01*
X115169942Y-149793609D01*
X115169942Y-149793610D01*
X115216766Y-149830055D01*
X115421615Y-149940912D01*
X115471206Y-149990131D01*
X115486314Y-150058348D01*
X115462144Y-150123903D01*
X115450279Y-150137648D01*
X111074748Y-154513181D01*
X111013425Y-154546666D01*
X110987067Y-154549500D01*
X98667570Y-154549500D01*
X98600531Y-154529815D01*
X98554776Y-154477011D01*
X98544832Y-154407853D01*
X98547360Y-154395076D01*
X98588564Y-154232368D01*
X98596411Y-154137677D01*
X98607156Y-154008000D01*
X98601206Y-153936196D01*
X98588564Y-153783632D01*
X98533296Y-153565384D01*
X98442860Y-153359209D01*
X98319722Y-153170732D01*
X98167240Y-153005094D01*
X97989576Y-152866811D01*
X97989575Y-152866810D01*
X97953067Y-152847053D01*
X97903477Y-152797833D01*
X97888370Y-152729616D01*
X97912541Y-152664061D01*
X97953066Y-152628946D01*
X97989576Y-152609189D01*
X98167240Y-152470906D01*
X98319722Y-152305268D01*
X98442860Y-152116791D01*
X98533296Y-151910616D01*
X98588564Y-151692368D01*
X98607156Y-151468000D01*
X98589674Y-151257029D01*
X98603754Y-151188595D01*
X98625566Y-151159113D01*
X99034881Y-150749798D01*
X99048506Y-150738023D01*
X99068058Y-150723469D01*
X99100278Y-150685068D01*
X99107594Y-150677087D01*
X99108209Y-150676471D01*
X99111581Y-150673100D01*
X99131047Y-150648479D01*
X99133295Y-150645721D01*
X99145875Y-150630730D01*
X99182032Y-150587640D01*
X99182032Y-150587639D01*
X99182787Y-150586740D01*
X99193468Y-150569974D01*
X99193965Y-150568906D01*
X99193967Y-150568905D01*
X99226034Y-150500136D01*
X99227562Y-150496978D01*
X99261609Y-150429188D01*
X99261610Y-150429182D01*
X99262137Y-150428134D01*
X99268666Y-150409352D01*
X99278377Y-150362324D01*
X99284244Y-150333905D01*
X99285021Y-150330401D01*
X99285873Y-150326809D01*
X99302500Y-150256656D01*
X99302500Y-150256655D01*
X99302771Y-150255512D01*
X99304792Y-150235728D01*
X99304758Y-150234562D01*
X99304759Y-150234558D01*
X99302549Y-150158638D01*
X99302499Y-150155170D01*
X99302499Y-140920342D01*
X99303809Y-140902365D01*
X99307341Y-140878259D01*
X99302972Y-140828325D01*
X99302500Y-140817516D01*
X99302500Y-140815479D01*
X99302500Y-140811870D01*
X99298862Y-140780750D01*
X99298495Y-140777158D01*
X99291785Y-140700458D01*
X99287481Y-140681044D01*
X99287079Y-140679940D01*
X99287079Y-140679937D01*
X99261120Y-140608616D01*
X99259981Y-140605340D01*
X99236114Y-140533312D01*
X99236113Y-140533311D01*
X99235742Y-140532190D01*
X99227078Y-140514295D01*
X99184754Y-140449945D01*
X99182815Y-140446902D01*
X99142412Y-140381397D01*
X99129849Y-140365975D01*
X99073826Y-140313121D01*
X99071238Y-140310607D01*
X94335631Y-135575000D01*
X102111001Y-135575000D01*
X102111001Y-135658497D01*
X102111321Y-135664779D01*
X102121318Y-135762650D01*
X102175546Y-135926301D01*
X102266056Y-136073040D01*
X102387959Y-136194943D01*
X102534698Y-136285453D01*
X102698348Y-136339681D01*
X102796203Y-136349678D01*
X102802519Y-136349999D01*
X102836000Y-136349999D01*
X102836000Y-135575000D01*
X103335999Y-135575000D01*
X103335999Y-136349998D01*
X103336000Y-136349999D01*
X103369497Y-136349999D01*
X103375779Y-136349678D01*
X103473650Y-136339681D01*
X103637301Y-136285453D01*
X103784040Y-136194943D01*
X103905943Y-136073040D01*
X103996453Y-135926301D01*
X104050681Y-135762651D01*
X104060680Y-135664777D01*
X104061000Y-135658499D01*
X104061000Y-135575000D01*
X103335999Y-135575000D01*
X102836000Y-135575000D01*
X102111001Y-135575000D01*
X94335631Y-135575000D01*
X94106175Y-135345544D01*
X94072690Y-135284221D01*
X94077674Y-135214529D01*
X94119546Y-135158596D01*
X94185010Y-135134179D01*
X94192952Y-135133867D01*
X102610997Y-135075000D01*
X104082401Y-135075000D01*
X104096567Y-135067264D01*
X104122053Y-135064433D01*
X114103912Y-134994629D01*
X114171084Y-135013844D01*
X114217207Y-135066327D01*
X114227634Y-135135414D01*
X114199054Y-135199171D01*
X114192457Y-135206307D01*
X107204000Y-142194765D01*
X107203990Y-142194775D01*
X107201848Y-142196918D01*
X107199923Y-142199263D01*
X107199919Y-142199268D01*
X107107404Y-142311997D01*
X107013758Y-142487195D01*
X106956091Y-142677297D01*
X106936620Y-142875000D01*
X106956091Y-143072702D01*
X107013758Y-143262804D01*
X107101357Y-143426688D01*
X107107405Y-143438003D01*
X107156648Y-143498006D01*
X107233431Y-143591568D01*
X107310214Y-143654581D01*
X107386997Y-143717595D01*
X107474596Y-143764417D01*
X107562195Y-143811241D01*
X107644973Y-143836351D01*
X107752299Y-143868909D01*
X107950000Y-143888380D01*
X108147701Y-143868909D01*
X108337804Y-143811241D01*
X108513003Y-143717595D01*
X108628082Y-143623152D01*
X114505500Y-137745732D01*
X114566821Y-137712249D01*
X114636513Y-137717233D01*
X114692446Y-137759105D01*
X114698906Y-137768625D01*
X114707642Y-137782880D01*
X114815824Y-137959416D01*
X114970031Y-138139969D01*
X115150584Y-138294176D01*
X115353037Y-138418240D01*
X115572406Y-138509105D01*
X115803289Y-138564535D01*
X116040000Y-138583165D01*
X116276711Y-138564535D01*
X116507594Y-138509105D01*
X116726963Y-138418240D01*
X116929416Y-138294176D01*
X117109969Y-138139969D01*
X117264176Y-137959416D01*
X117388240Y-137756963D01*
X117479105Y-137537594D01*
X117534535Y-137306711D01*
X117553165Y-137070000D01*
X117534535Y-136833289D01*
X117479105Y-136602406D01*
X117388240Y-136383037D01*
X117264176Y-136180584D01*
X117109969Y-136000031D01*
X116929416Y-135845824D01*
X116793691Y-135762651D01*
X116738625Y-135728906D01*
X116691750Y-135677094D01*
X116680327Y-135608164D01*
X116707985Y-135544002D01*
X116715723Y-135535509D01*
X117242848Y-135008384D01*
X117304167Y-134974902D01*
X117329645Y-134972072D01*
X119342000Y-134958000D01*
X119473895Y-132821293D01*
X119497672Y-132755596D01*
X119509968Y-132741265D01*
X121125762Y-131125472D01*
X121220205Y-131010393D01*
X121313851Y-130835193D01*
X121371519Y-130645090D01*
X121390990Y-130447390D01*
X121371519Y-130249689D01*
X121313851Y-130059586D01*
X121220205Y-129884386D01*
X121094178Y-129730822D01*
X120945833Y-129609078D01*
X120906500Y-129551333D01*
X120900500Y-129513232D01*
X120900500Y-115980380D01*
X120920184Y-115913345D01*
X120972988Y-115867590D01*
X121042146Y-115857646D01*
X121095623Y-115878810D01*
X121242419Y-115981598D01*
X121456509Y-116081430D01*
X121670000Y-116138634D01*
X121670000Y-115243501D01*
X121777685Y-115292680D01*
X121884237Y-115308000D01*
X121955763Y-115308000D01*
X122062315Y-115292680D01*
X122170000Y-115243501D01*
X122170000Y-116138633D01*
X122383490Y-116081430D01*
X122597576Y-115981600D01*
X122791081Y-115846106D01*
X122958106Y-115679081D01*
X123093600Y-115485576D01*
X123193430Y-115271492D01*
X123250636Y-115058000D01*
X122353686Y-115058000D01*
X122379493Y-115017844D01*
X122420000Y-114879889D01*
X122420000Y-114736111D01*
X122379493Y-114598156D01*
X122353686Y-114558000D01*
X123222002Y-114558000D01*
X123259150Y-114560476D01*
G37*
%TD.AperFunction*%
%TD*%
M02*
