%TF.GenerationSoftware,KiCad,Pcbnew,(6.0.11)*%
%TF.CreationDate,2023-04-05T13:23:07-07:00*%
%TF.ProjectId,IOBoard_ATSAMD21,494f426f-6172-4645-9f41-5453414d4432,rev?*%
%TF.SameCoordinates,Original*%
%TF.FileFunction,Drillmap*%
%TF.FilePolarity,Positive*%
%FSLAX45Y45*%
G04 Gerber Fmt 4.5, Leading zero omitted, Abs format (unit mm)*
G04 Created by KiCad (PCBNEW (6.0.11)) date 2023-04-05 13:23:07*
%MOMM*%
%LPD*%
G01*
G04 APERTURE LIST*
%ADD10C,0.100000*%
%ADD11C,0.200000*%
G04 APERTURE END LIST*
D10*
X5000000Y-5000000D02*
X12620000Y-5000000D01*
X12620000Y-5000000D02*
X12620000Y-17850000D01*
X12620000Y-17850000D02*
X5000000Y-17850000D01*
X5000000Y-17850000D02*
X5000000Y-5000000D01*
D11*
X5252619Y-18165476D02*
X5252619Y-17965476D01*
X5300238Y-17965476D01*
X5328810Y-17975000D01*
X5347857Y-17994048D01*
X5357381Y-18013095D01*
X5366905Y-18051190D01*
X5366905Y-18079762D01*
X5357381Y-18117857D01*
X5347857Y-18136905D01*
X5328810Y-18155952D01*
X5300238Y-18165476D01*
X5252619Y-18165476D01*
X5452619Y-18165476D02*
X5452619Y-18032143D01*
X5452619Y-18070238D02*
X5462143Y-18051190D01*
X5471667Y-18041667D01*
X5490714Y-18032143D01*
X5509762Y-18032143D01*
X5576429Y-18165476D02*
X5576429Y-18032143D01*
X5576429Y-17965476D02*
X5566905Y-17975000D01*
X5576429Y-17984524D01*
X5585952Y-17975000D01*
X5576429Y-17965476D01*
X5576429Y-17984524D01*
X5700238Y-18165476D02*
X5681190Y-18155952D01*
X5671667Y-18136905D01*
X5671667Y-17965476D01*
X5805000Y-18165476D02*
X5785952Y-18155952D01*
X5776428Y-18136905D01*
X5776428Y-17965476D01*
X6033571Y-18165476D02*
X6033571Y-17965476D01*
X6100238Y-18108333D01*
X6166905Y-17965476D01*
X6166905Y-18165476D01*
X6347857Y-18165476D02*
X6347857Y-18060714D01*
X6338333Y-18041667D01*
X6319286Y-18032143D01*
X6281190Y-18032143D01*
X6262143Y-18041667D01*
X6347857Y-18155952D02*
X6328809Y-18165476D01*
X6281190Y-18165476D01*
X6262143Y-18155952D01*
X6252619Y-18136905D01*
X6252619Y-18117857D01*
X6262143Y-18098810D01*
X6281190Y-18089286D01*
X6328809Y-18089286D01*
X6347857Y-18079762D01*
X6443095Y-18032143D02*
X6443095Y-18232143D01*
X6443095Y-18041667D02*
X6462143Y-18032143D01*
X6500238Y-18032143D01*
X6519286Y-18041667D01*
X6528809Y-18051190D01*
X6538333Y-18070238D01*
X6538333Y-18127381D01*
X6528809Y-18146429D01*
X6519286Y-18155952D01*
X6500238Y-18165476D01*
X6462143Y-18165476D01*
X6443095Y-18155952D01*
X6624048Y-18146429D02*
X6633571Y-18155952D01*
X6624048Y-18165476D01*
X6614524Y-18155952D01*
X6624048Y-18146429D01*
X6624048Y-18165476D01*
X6624048Y-18041667D02*
X6633571Y-18051190D01*
X6624048Y-18060714D01*
X6614524Y-18051190D01*
X6624048Y-18041667D01*
X6624048Y-18060714D01*
M02*
