%TF.GenerationSoftware,KiCad,Pcbnew,7.0.2*%
%TF.CreationDate,2023-05-21T17:51:27-07:00*%
%TF.ProjectId,IOBoard_ATSAMD21,494f426f-6172-4645-9f41-5453414d4432,rev?*%
%TF.SameCoordinates,Original*%
%TF.FileFunction,Paste,Top*%
%TF.FilePolarity,Positive*%
%FSLAX46Y46*%
G04 Gerber Fmt 4.6, Leading zero omitted, Abs format (unit mm)*
G04 Created by KiCad (PCBNEW 7.0.2) date 2023-05-21 17:51:27*
%MOMM*%
%LPD*%
G01*
G04 APERTURE LIST*
G04 Aperture macros list*
%AMRoundRect*
0 Rectangle with rounded corners*
0 $1 Rounding radius*
0 $2 $3 $4 $5 $6 $7 $8 $9 X,Y pos of 4 corners*
0 Add a 4 corners polygon primitive as box body*
4,1,4,$2,$3,$4,$5,$6,$7,$8,$9,$2,$3,0*
0 Add four circle primitives for the rounded corners*
1,1,$1+$1,$2,$3*
1,1,$1+$1,$4,$5*
1,1,$1+$1,$6,$7*
1,1,$1+$1,$8,$9*
0 Add four rect primitives between the rounded corners*
20,1,$1+$1,$2,$3,$4,$5,0*
20,1,$1+$1,$4,$5,$6,$7,0*
20,1,$1+$1,$6,$7,$8,$9,0*
20,1,$1+$1,$8,$9,$2,$3,0*%
G04 Aperture macros list end*
%ADD10RoundRect,0.225000X0.250000X-0.225000X0.250000X0.225000X-0.250000X0.225000X-0.250000X-0.225000X0*%
%ADD11RoundRect,0.200000X0.275000X-0.200000X0.275000X0.200000X-0.275000X0.200000X-0.275000X-0.200000X0*%
%ADD12RoundRect,0.225000X-0.225000X-0.250000X0.225000X-0.250000X0.225000X0.250000X-0.225000X0.250000X0*%
%ADD13RoundRect,0.200000X-0.275000X0.200000X-0.275000X-0.200000X0.275000X-0.200000X0.275000X0.200000X0*%
%ADD14RoundRect,0.200000X0.200000X0.275000X-0.200000X0.275000X-0.200000X-0.275000X0.200000X-0.275000X0*%
%ADD15RoundRect,0.225000X-0.250000X0.225000X-0.250000X-0.225000X0.250000X-0.225000X0.250000X0.225000X0*%
%ADD16RoundRect,0.150000X0.512500X0.150000X-0.512500X0.150000X-0.512500X-0.150000X0.512500X-0.150000X0*%
%ADD17RoundRect,0.225000X0.225000X0.250000X-0.225000X0.250000X-0.225000X-0.250000X0.225000X-0.250000X0*%
%ADD18RoundRect,0.150000X-0.150000X0.825000X-0.150000X-0.825000X0.150000X-0.825000X0.150000X0.825000X0*%
%ADD19RoundRect,0.150000X0.150000X-0.825000X0.150000X0.825000X-0.150000X0.825000X-0.150000X-0.825000X0*%
%ADD20RoundRect,0.075000X0.075000X-0.662500X0.075000X0.662500X-0.075000X0.662500X-0.075000X-0.662500X0*%
%ADD21RoundRect,0.075000X0.662500X-0.075000X0.662500X0.075000X-0.662500X0.075000X-0.662500X-0.075000X0*%
G04 APERTURE END LIST*
D10*
%TO.C,C16*%
X73368000Y-164930000D03*
X73368000Y-163380000D03*
%TD*%
D11*
%TO.C,R3*%
X95720000Y-131020000D03*
X95720000Y-129370000D03*
%TD*%
D12*
%TO.C,C2*%
X80480000Y-78570000D03*
X82030000Y-78570000D03*
%TD*%
D13*
%TO.C,R17*%
X107404000Y-155913000D03*
X107404000Y-157563000D03*
%TD*%
%TO.C,R12*%
X71312264Y-155660000D03*
X71312264Y-157310000D03*
%TD*%
D14*
%TO.C,R5*%
X60668000Y-98552000D03*
X59018000Y-98552000D03*
%TD*%
D11*
%TO.C,R10*%
X75400000Y-145181000D03*
X75400000Y-143531000D03*
%TD*%
D13*
%TO.C,R6*%
X78448000Y-140483000D03*
X78448000Y-142133000D03*
%TD*%
D15*
%TO.C,C21*%
X103340000Y-156154000D03*
X103340000Y-157704000D03*
%TD*%
D16*
%TO.C,U2*%
X117310000Y-110635000D03*
X117310000Y-109685000D03*
X117310000Y-108735000D03*
X115035000Y-108735000D03*
X115035000Y-110635000D03*
%TD*%
D13*
%TO.C,R18*%
X105372000Y-156104000D03*
X105372000Y-157754000D03*
%TD*%
D10*
%TO.C,C3*%
X94450000Y-79782000D03*
X94450000Y-78232000D03*
%TD*%
D15*
%TO.C,C17*%
X75527000Y-160358000D03*
X75527000Y-161908000D03*
%TD*%
D17*
%TO.C,C9*%
X82564000Y-73998000D03*
X81014000Y-73998000D03*
%TD*%
D15*
%TO.C,C15*%
X67526000Y-160866000D03*
X67526000Y-162416000D03*
%TD*%
%TO.C,C5*%
X119215000Y-110955000D03*
X119215000Y-112505000D03*
%TD*%
D10*
%TO.C,C12*%
X79972000Y-142083000D03*
X79972000Y-140533000D03*
%TD*%
D11*
%TO.C,R8*%
X69088500Y-162466000D03*
X69088500Y-160816000D03*
%TD*%
D12*
%TO.C,C8*%
X80988000Y-72474000D03*
X82538000Y-72474000D03*
%TD*%
D11*
%TO.C,R9*%
X72606000Y-146451000D03*
X72606000Y-144801000D03*
%TD*%
D17*
%TO.C,C19*%
X120295000Y-152230000D03*
X118745000Y-152230000D03*
%TD*%
D15*
%TO.C,C4*%
X96355000Y-78206000D03*
X96355000Y-79756000D03*
%TD*%
D18*
%TO.C,U9*%
X75146000Y-148550000D03*
X73876000Y-148550000D03*
X72606000Y-148550000D03*
X71336000Y-148550000D03*
X71336000Y-153500000D03*
X72606000Y-153500000D03*
X73876000Y-153500000D03*
X75146000Y-153500000D03*
%TD*%
D14*
%TO.C,R15*%
X117056000Y-152230000D03*
X115406000Y-152230000D03*
%TD*%
D19*
%TO.C,U3*%
X103975000Y-152800000D03*
X105245000Y-152800000D03*
X106515000Y-152800000D03*
X107785000Y-152800000D03*
X107785000Y-147850000D03*
X106515000Y-147850000D03*
X105245000Y-147850000D03*
X103975000Y-147850000D03*
%TD*%
D13*
%TO.C,R7*%
X76924000Y-140483000D03*
X76924000Y-142133000D03*
%TD*%
D17*
%TO.C,C6*%
X88100000Y-86825000D03*
X86550000Y-86825000D03*
%TD*%
D10*
%TO.C,C14*%
X76924000Y-145118000D03*
X76924000Y-143568000D03*
%TD*%
D11*
%TO.C,R11*%
X71844000Y-164967000D03*
X71844000Y-163317000D03*
%TD*%
%TO.C,R13*%
X71844000Y-168015000D03*
X71844000Y-166365000D03*
%TD*%
D15*
%TO.C,C13*%
X75400000Y-140533000D03*
X75400000Y-142083000D03*
%TD*%
D12*
%TO.C,C7*%
X86550000Y-88730000D03*
X88100000Y-88730000D03*
%TD*%
D20*
%TO.C,U1*%
X85350000Y-82732500D03*
X85850000Y-82732500D03*
X86350000Y-82732500D03*
X86850000Y-82732500D03*
X87350000Y-82732500D03*
X87850000Y-82732500D03*
X88350000Y-82732500D03*
X88850000Y-82732500D03*
X89350000Y-82732500D03*
X89850000Y-82732500D03*
X90350000Y-82732500D03*
X90850000Y-82732500D03*
D21*
X92262500Y-81320000D03*
X92262500Y-80820000D03*
X92262500Y-80320000D03*
X92262500Y-79820000D03*
X92262500Y-79320000D03*
X92262500Y-78820000D03*
X92262500Y-78320000D03*
X92262500Y-77820000D03*
X92262500Y-77320000D03*
X92262500Y-76820000D03*
X92262500Y-76320000D03*
X92262500Y-75820000D03*
D20*
X90850000Y-74407500D03*
X90350000Y-74407500D03*
X89850000Y-74407500D03*
X89350000Y-74407500D03*
X88850000Y-74407500D03*
X88350000Y-74407500D03*
X87850000Y-74407500D03*
X87350000Y-74407500D03*
X86850000Y-74407500D03*
X86350000Y-74407500D03*
X85850000Y-74407500D03*
X85350000Y-74407500D03*
D21*
X83937500Y-75820000D03*
X83937500Y-76320000D03*
X83937500Y-76820000D03*
X83937500Y-77320000D03*
X83937500Y-77820000D03*
X83937500Y-78320000D03*
X83937500Y-78820000D03*
X83937500Y-79320000D03*
X83937500Y-79820000D03*
X83937500Y-80320000D03*
X83937500Y-80820000D03*
X83937500Y-81320000D03*
%TD*%
D13*
%TO.C,R14*%
X77051000Y-160295000D03*
X77051000Y-161945000D03*
%TD*%
D17*
%TO.C,C10*%
X81306000Y-82380000D03*
X79756000Y-82380000D03*
%TD*%
D11*
%TO.C,R2*%
X80480000Y-131020000D03*
X80480000Y-129370000D03*
%TD*%
%TO.C,R1*%
X65240000Y-131020000D03*
X65240000Y-129370000D03*
%TD*%
D12*
%TO.C,C11*%
X79730000Y-80264000D03*
X81280000Y-80264000D03*
%TD*%
D15*
%TO.C,C18*%
X73876000Y-160358000D03*
X73876000Y-161908000D03*
%TD*%
D11*
%TO.C,R4*%
X110960000Y-131020000D03*
X110960000Y-129370000D03*
%TD*%
D12*
%TO.C,C1*%
X80480000Y-77046000D03*
X82030000Y-77046000D03*
%TD*%
M02*
