%TF.GenerationSoftware,KiCad,Pcbnew,7.0.2*%
%TF.CreationDate,2023-05-21T17:51:34-07:00*%
%TF.ProjectId,IOBoard_ATSAMD21,494f426f-6172-4645-9f41-5453414d4432,rev?*%
%TF.SameCoordinates,Original*%
%TF.FileFunction,Drillmap*%
%TF.FilePolarity,Positive*%
%FSLAX45Y45*%
G04 Gerber Fmt 4.5, Leading zero omitted, Abs format (unit mm)*
G04 Created by KiCad (PCBNEW 7.0.2) date 2023-05-21 17:51:34*
%MOMM*%
%LPD*%
G01*
G04 APERTURE LIST*
%ADD10C,0.100000*%
%ADD11C,0.200000*%
%ADD12C,0.040000*%
%ADD13C,0.090000*%
%ADD14C,0.110000*%
%ADD15C,0.210000*%
G04 APERTURE END LIST*
D10*
X5000000Y-5825000D02*
X12620000Y-5825000D01*
X12620000Y-17025000D01*
X5000000Y-17025000D01*
X5000000Y-5825000D01*
D11*
D12*
X5869000Y-10021400D02*
X5909000Y-10061400D01*
X5909000Y-10021400D02*
X5869000Y-10061400D01*
X6377000Y-10250000D02*
X6417000Y-10290000D01*
X6417000Y-10250000D02*
X6377000Y-10290000D01*
X6504000Y-13298000D02*
X6544000Y-13338000D01*
X6544000Y-13298000D02*
X6504000Y-13338000D01*
X6580200Y-9716600D02*
X6620200Y-9756600D01*
X6620200Y-9716600D02*
X6580200Y-9756600D01*
X6834200Y-10224600D02*
X6874200Y-10264600D01*
X6874200Y-10224600D02*
X6834200Y-10264600D01*
X6986600Y-15812600D02*
X7026600Y-15852600D01*
X7026600Y-15812600D02*
X6986600Y-15852600D01*
X7088200Y-11850200D02*
X7128200Y-11890200D01*
X7128200Y-11850200D02*
X7088200Y-11890200D01*
X7088200Y-12332800D02*
X7128200Y-12372800D01*
X7128200Y-12332800D02*
X7088200Y-12372800D01*
X7113600Y-14618800D02*
X7153600Y-14658800D01*
X7153600Y-14618800D02*
X7113600Y-14658800D01*
X7316800Y-16625400D02*
X7356800Y-16665400D01*
X7356800Y-16625400D02*
X7316800Y-16665400D01*
X7520000Y-13872650D02*
X7560000Y-13912650D01*
X7560000Y-13872650D02*
X7520000Y-13912650D01*
X7964500Y-8345000D02*
X8004500Y-8385000D01*
X8004500Y-8345000D02*
X7964500Y-8385000D01*
X8231200Y-13018600D02*
X8271200Y-13058600D01*
X8271200Y-13018600D02*
X8231200Y-13058600D01*
X8485200Y-7227400D02*
X8525200Y-7267400D01*
X8525200Y-7227400D02*
X8485200Y-7267400D01*
X8599250Y-7837250D02*
X8639250Y-7877250D01*
X8639250Y-7837250D02*
X8599250Y-7877250D01*
X8599500Y-9043500D02*
X8639500Y-9083500D01*
X8639500Y-9043500D02*
X8599500Y-9083500D01*
X8917000Y-7710000D02*
X8957000Y-7750000D01*
X8957000Y-7710000D02*
X8917000Y-7750000D01*
X8917000Y-7964000D02*
X8957000Y-8004000D01*
X8957000Y-7964000D02*
X8917000Y-8004000D01*
X9323400Y-9945200D02*
X9363400Y-9985200D01*
X9363400Y-9945200D02*
X9323400Y-9985200D01*
X9552000Y-7710000D02*
X9592000Y-7750000D01*
X9592000Y-7710000D02*
X9552000Y-7750000D01*
X9682800Y-13264200D02*
X9722800Y-13304200D01*
X9722800Y-13264200D02*
X9682800Y-13304200D01*
X9831400Y-9665800D02*
X9871400Y-9705800D01*
X9871400Y-9665800D02*
X9831400Y-9705800D01*
X10775000Y-14267500D02*
X10815000Y-14307500D01*
X10815000Y-14267500D02*
X10775000Y-14307500D01*
X10825800Y-13086400D02*
X10865800Y-13126400D01*
X10865800Y-13086400D02*
X10825800Y-13126400D01*
X10825800Y-15651800D02*
X10865800Y-15691800D01*
X10865800Y-15651800D02*
X10825800Y-15691800D01*
X11050600Y-11545400D02*
X11090600Y-11585400D01*
X11090600Y-11545400D02*
X11050600Y-11585400D01*
X11050600Y-11799400D02*
X11090600Y-11839400D01*
X11090600Y-11799400D02*
X11050600Y-11839400D01*
X11507800Y-11545400D02*
X11547800Y-11585400D01*
X11547800Y-11545400D02*
X11507800Y-11585400D01*
X11507800Y-11799400D02*
X11547800Y-11839400D01*
X11547800Y-11799400D02*
X11507800Y-11839400D01*
X11850700Y-10948500D02*
X11890700Y-10988500D01*
X11890700Y-10948500D02*
X11850700Y-10988500D01*
X12396800Y-14847400D02*
X12436800Y-14887400D01*
X12436800Y-14847400D02*
X12396800Y-14887400D01*
D13*
X6569000Y-12429000D02*
G75*
G03*
X6569000Y-12429000I-45000J0D01*
G01*
X6569000Y-12683000D02*
G75*
G03*
X6569000Y-12683000I-45000J0D01*
G01*
X8093000Y-12429000D02*
G75*
G03*
X8093000Y-12429000I-45000J0D01*
G01*
X8093000Y-12683000D02*
G75*
G03*
X8093000Y-12683000I-45000J0D01*
G01*
X9617000Y-12429000D02*
G75*
G03*
X9617000Y-12429000I-45000J0D01*
G01*
X9617000Y-12683000D02*
G75*
G03*
X9617000Y-12683000I-45000J0D01*
G01*
X11141000Y-12429000D02*
G75*
G03*
X11141000Y-12429000I-45000J0D01*
G01*
X11141000Y-12683000D02*
G75*
G03*
X11141000Y-12683000I-45000J0D01*
G01*
D10*
X5638800Y-9805200D02*
X5638800Y-9905200D01*
X5588800Y-9855200D02*
X5688800Y-9855200D01*
X5638800Y-10059200D02*
X5638800Y-10159200D01*
X5588800Y-10109200D02*
X5688800Y-10109200D01*
X5638800Y-10313200D02*
X5638800Y-10413200D01*
X5588800Y-10363200D02*
X5688800Y-10363200D01*
X5638800Y-10567200D02*
X5638800Y-10667200D01*
X5588800Y-10617200D02*
X5688800Y-10617200D01*
X5638800Y-10821200D02*
X5638800Y-10921200D01*
X5588800Y-10871200D02*
X5688800Y-10871200D01*
X5638800Y-11075200D02*
X5638800Y-11175200D01*
X5588800Y-11125200D02*
X5688800Y-11125200D01*
X6332000Y-6541000D02*
X6332000Y-6641000D01*
X6282000Y-6591000D02*
X6382000Y-6591000D01*
X6332000Y-7041000D02*
X6332000Y-7141000D01*
X6282000Y-7091000D02*
X6382000Y-7091000D01*
X6332000Y-8573000D02*
X6332000Y-8673000D01*
X6282000Y-8623000D02*
X6382000Y-8623000D01*
X6332000Y-9073000D02*
X6332000Y-9173000D01*
X6282000Y-9123000D02*
X6382000Y-9123000D01*
X6524000Y-10605000D02*
X6524000Y-10705000D01*
X6474000Y-10655000D02*
X6574000Y-10655000D01*
X6524000Y-10855000D02*
X6524000Y-10955000D01*
X6474000Y-10905000D02*
X6574000Y-10905000D01*
X6524000Y-11105000D02*
X6524000Y-11205000D01*
X6474000Y-11155000D02*
X6574000Y-11155000D01*
X6724774Y-14796000D02*
X6724774Y-14896000D01*
X6674774Y-14846000D02*
X6774774Y-14846000D01*
X6724774Y-15046000D02*
X6724774Y-15146000D01*
X6674774Y-15096000D02*
X6774774Y-15096000D01*
X6724774Y-15296000D02*
X6724774Y-15396000D01*
X6674774Y-15346000D02*
X6774774Y-15346000D01*
X7163000Y-13395000D02*
X7163000Y-13495000D01*
X7113000Y-13445000D02*
X7213000Y-13445000D01*
X7413000Y-13395000D02*
X7413000Y-13495000D01*
X7363000Y-13445000D02*
X7463000Y-13445000D01*
X7663000Y-13395000D02*
X7663000Y-13495000D01*
X7613000Y-13445000D02*
X7713000Y-13445000D01*
X7782000Y-6541000D02*
X7782000Y-6641000D01*
X7732000Y-6591000D02*
X7832000Y-6591000D01*
X7782000Y-6791000D02*
X7782000Y-6891000D01*
X7732000Y-6841000D02*
X7832000Y-6841000D01*
X7782000Y-7041000D02*
X7782000Y-7141000D01*
X7732000Y-7091000D02*
X7832000Y-7091000D01*
X7782000Y-8573000D02*
X7782000Y-8673000D01*
X7732000Y-8623000D02*
X7832000Y-8623000D01*
X7782000Y-8823000D02*
X7782000Y-8923000D01*
X7732000Y-8873000D02*
X7832000Y-8873000D01*
X7782000Y-9073000D02*
X7782000Y-9173000D01*
X7732000Y-9123000D02*
X7832000Y-9123000D01*
X8048000Y-10605000D02*
X8048000Y-10705000D01*
X7998000Y-10655000D02*
X8098000Y-10655000D01*
X8048000Y-10855000D02*
X8048000Y-10955000D01*
X7998000Y-10905000D02*
X8098000Y-10905000D01*
X8048000Y-11105000D02*
X8048000Y-11205000D01*
X7998000Y-11155000D02*
X8098000Y-11155000D01*
X8124200Y-14800000D02*
X8124200Y-14900000D01*
X8074200Y-14850000D02*
X8174200Y-14850000D01*
X8124200Y-15050000D02*
X8124200Y-15150000D01*
X8074200Y-15100000D02*
X8174200Y-15100000D01*
X8124200Y-15300000D02*
X8124200Y-15400000D01*
X8074200Y-15350000D02*
X8174200Y-15350000D01*
X9470400Y-14842800D02*
X9470400Y-14942800D01*
X9420400Y-14892800D02*
X9520400Y-14892800D01*
X9470400Y-15096800D02*
X9470400Y-15196800D01*
X9420400Y-15146800D02*
X9520400Y-15146800D01*
X9470400Y-15350800D02*
X9470400Y-15450800D01*
X9420400Y-15400800D02*
X9520400Y-15400800D01*
X9572000Y-10605000D02*
X9572000Y-10705000D01*
X9522000Y-10655000D02*
X9622000Y-10655000D01*
X9572000Y-10855000D02*
X9572000Y-10955000D01*
X9522000Y-10905000D02*
X9622000Y-10905000D01*
X9572000Y-11105000D02*
X9572000Y-11205000D01*
X9522000Y-11155000D02*
X9622000Y-11155000D01*
X9724400Y-14842800D02*
X9724400Y-14942800D01*
X9674400Y-14892800D02*
X9774400Y-14892800D01*
X9724400Y-15096800D02*
X9724400Y-15196800D01*
X9674400Y-15146800D02*
X9774400Y-15146800D01*
X9724400Y-15350800D02*
X9724400Y-15450800D01*
X9674400Y-15400800D02*
X9774400Y-15400800D01*
X9838000Y-6541000D02*
X9838000Y-6641000D01*
X9788000Y-6591000D02*
X9888000Y-6591000D01*
X9838000Y-6791000D02*
X9838000Y-6891000D01*
X9788000Y-6841000D02*
X9888000Y-6841000D01*
X9838000Y-7041000D02*
X9838000Y-7141000D01*
X9788000Y-7091000D02*
X9888000Y-7091000D01*
X9838000Y-8573000D02*
X9838000Y-8673000D01*
X9788000Y-8623000D02*
X9888000Y-8623000D01*
X9838000Y-8823000D02*
X9838000Y-8923000D01*
X9788000Y-8873000D02*
X9888000Y-8873000D01*
X9838000Y-9073000D02*
X9838000Y-9173000D01*
X9788000Y-9123000D02*
X9888000Y-9123000D01*
X11096000Y-10605000D02*
X11096000Y-10705000D01*
X11046000Y-10655000D02*
X11146000Y-10655000D01*
X11096000Y-10855000D02*
X11096000Y-10955000D01*
X11046000Y-10905000D02*
X11146000Y-10905000D01*
X11096000Y-11105000D02*
X11096000Y-11205000D01*
X11046000Y-11155000D02*
X11146000Y-11155000D01*
X11288000Y-6541000D02*
X11288000Y-6641000D01*
X11238000Y-6591000D02*
X11338000Y-6591000D01*
X11288000Y-7041000D02*
X11288000Y-7141000D01*
X11238000Y-7091000D02*
X11338000Y-7091000D01*
X11288000Y-8573000D02*
X11288000Y-8673000D01*
X11238000Y-8623000D02*
X11338000Y-8623000D01*
X11288000Y-9073000D02*
X11288000Y-9173000D01*
X11238000Y-9123000D02*
X11338000Y-9123000D01*
X12188200Y-9635800D02*
X12188200Y-9735800D01*
X12138200Y-9685800D02*
X12238200Y-9685800D01*
X12188200Y-9889800D02*
X12188200Y-9989800D01*
X12138200Y-9939800D02*
X12238200Y-9939800D01*
X12188200Y-10143800D02*
X12188200Y-10243800D01*
X12138200Y-10193800D02*
X12238200Y-10193800D01*
X12188200Y-10397800D02*
X12188200Y-10497800D01*
X12138200Y-10447800D02*
X12238200Y-10447800D01*
X12192000Y-10922800D02*
X12192000Y-11022800D01*
X12142000Y-10972800D02*
X12242000Y-10972800D01*
X12192000Y-11176800D02*
X12192000Y-11276800D01*
X12142000Y-11226800D02*
X12242000Y-11226800D01*
X12192000Y-11430800D02*
X12192000Y-11530800D01*
X12142000Y-11480800D02*
X12242000Y-11480800D01*
D14*
X6054891Y-13745891D02*
X6054891Y-13668109D01*
X5977109Y-13668109D01*
X5977109Y-13745891D01*
X6054891Y-13745891D01*
X6054891Y-14595891D02*
X6054891Y-14518109D01*
X5977109Y-14518109D01*
X5977109Y-14595891D01*
X6054891Y-14595891D01*
X6054891Y-14895891D02*
X6054891Y-14818109D01*
X5977109Y-14818109D01*
X5977109Y-14895891D01*
X6054891Y-14895891D01*
X6054891Y-15777891D02*
X6054891Y-15700109D01*
X5977109Y-15700109D01*
X5977109Y-15777891D01*
X6054891Y-15777891D01*
X6054891Y-16627891D02*
X6054891Y-16550109D01*
X5977109Y-16550109D01*
X5977109Y-16627891D01*
X6054891Y-16627891D01*
X6054891Y-16927891D02*
X6054891Y-16850109D01*
X5977109Y-16850109D01*
X5977109Y-16927891D01*
X6054891Y-16927891D01*
X8848891Y-13745891D02*
X8848891Y-13668109D01*
X8771109Y-13668109D01*
X8771109Y-13745891D01*
X8848891Y-13745891D01*
X8848891Y-14595891D02*
X8848891Y-14518109D01*
X8771109Y-14518109D01*
X8771109Y-14595891D01*
X8848891Y-14595891D01*
X8848891Y-14895891D02*
X8848891Y-14818109D01*
X8771109Y-14818109D01*
X8771109Y-14895891D01*
X8848891Y-14895891D01*
X8848891Y-15777891D02*
X8848891Y-15700109D01*
X8771109Y-15700109D01*
X8771109Y-15777891D01*
X8848891Y-15777891D01*
X8848891Y-16627891D02*
X8848891Y-16550109D01*
X8771109Y-16550109D01*
X8771109Y-16627891D01*
X8848891Y-16627891D01*
X8848891Y-16927891D02*
X8848891Y-16850109D01*
X8771109Y-16850109D01*
X8771109Y-16927891D01*
X8848891Y-16927891D01*
X11642891Y-13745891D02*
X11642891Y-13668109D01*
X11565109Y-13668109D01*
X11565109Y-13745891D01*
X11642891Y-13745891D01*
X11642891Y-14595891D02*
X11642891Y-14518109D01*
X11565109Y-14518109D01*
X11565109Y-14595891D01*
X11642891Y-14595891D01*
X11642891Y-14895891D02*
X11642891Y-14818109D01*
X11565109Y-14818109D01*
X11565109Y-14895891D01*
X11642891Y-14895891D01*
X11642891Y-15777891D02*
X11642891Y-15700109D01*
X11565109Y-15700109D01*
X11565109Y-15777891D01*
X11642891Y-15777891D01*
X11642891Y-16627891D02*
X11642891Y-16550109D01*
X11565109Y-16550109D01*
X11565109Y-16627891D01*
X11642891Y-16627891D01*
X11642891Y-16927891D02*
X11642891Y-16850109D01*
X11565109Y-16850109D01*
X11565109Y-16927891D01*
X11642891Y-16927891D01*
D15*
X7032000Y-6286000D02*
X7137000Y-6181000D01*
X7032000Y-6076000D01*
X6927000Y-6181000D01*
X7032000Y-6286000D01*
D11*
X7002000Y-6286000D02*
X7062000Y-6286000D01*
X7062000Y-6286000D02*
G75*
G03*
X7062000Y-6076000I0J105000D01*
G01*
X7062000Y-6076000D02*
X7002000Y-6076000D01*
X7002000Y-6076000D02*
G75*
G03*
X7002000Y-6286000I0J-105000D01*
G01*
D15*
X7032000Y-7606000D02*
X7137000Y-7501000D01*
X7032000Y-7396000D01*
X6927000Y-7501000D01*
X7032000Y-7606000D01*
D11*
X7002000Y-7606000D02*
X7062000Y-7606000D01*
X7062000Y-7606000D02*
G75*
G03*
X7062000Y-7396000I0J105000D01*
G01*
X7062000Y-7396000D02*
X7002000Y-7396000D01*
X7002000Y-7396000D02*
G75*
G03*
X7002000Y-7606000I0J-105000D01*
G01*
D15*
X7032000Y-8318000D02*
X7137000Y-8213000D01*
X7032000Y-8108000D01*
X6927000Y-8213000D01*
X7032000Y-8318000D01*
D11*
X7002000Y-8318000D02*
X7062000Y-8318000D01*
X7062000Y-8318000D02*
G75*
G03*
X7062000Y-8108000I0J105000D01*
G01*
X7062000Y-8108000D02*
X7002000Y-8108000D01*
X7002000Y-8108000D02*
G75*
G03*
X7002000Y-8318000I0J-105000D01*
G01*
D15*
X7032000Y-9638000D02*
X7137000Y-9533000D01*
X7032000Y-9428000D01*
X6927000Y-9533000D01*
X7032000Y-9638000D01*
D11*
X7002000Y-9638000D02*
X7062000Y-9638000D01*
X7062000Y-9638000D02*
G75*
G03*
X7062000Y-9428000I0J105000D01*
G01*
X7062000Y-9428000D02*
X7002000Y-9428000D01*
X7002000Y-9428000D02*
G75*
G03*
X7002000Y-9638000I0J-105000D01*
G01*
D15*
X10588000Y-6286000D02*
X10693000Y-6181000D01*
X10588000Y-6076000D01*
X10483000Y-6181000D01*
X10588000Y-6286000D01*
D11*
X10618000Y-6076000D02*
X10558000Y-6076000D01*
X10558000Y-6076000D02*
G75*
G03*
X10558000Y-6286000I0J-105000D01*
G01*
X10558000Y-6286000D02*
X10618000Y-6286000D01*
X10618000Y-6286000D02*
G75*
G03*
X10618000Y-6076000I0J105000D01*
G01*
D15*
X10588000Y-7606000D02*
X10693000Y-7501000D01*
X10588000Y-7396000D01*
X10483000Y-7501000D01*
X10588000Y-7606000D01*
D11*
X10618000Y-7396000D02*
X10558000Y-7396000D01*
X10558000Y-7396000D02*
G75*
G03*
X10558000Y-7606000I0J-105000D01*
G01*
X10558000Y-7606000D02*
X10618000Y-7606000D01*
X10618000Y-7606000D02*
G75*
G03*
X10618000Y-7396000I0J105000D01*
G01*
D15*
X10588000Y-8318000D02*
X10693000Y-8213000D01*
X10588000Y-8108000D01*
X10483000Y-8213000D01*
X10588000Y-8318000D01*
D11*
X10618000Y-8108000D02*
X10558000Y-8108000D01*
X10558000Y-8108000D02*
G75*
G03*
X10558000Y-8318000I0J-105000D01*
G01*
X10558000Y-8318000D02*
X10618000Y-8318000D01*
X10618000Y-8318000D02*
G75*
G03*
X10618000Y-8108000I0J105000D01*
G01*
D15*
X10588000Y-9638000D02*
X10693000Y-9533000D01*
X10588000Y-9428000D01*
X10483000Y-9533000D01*
X10588000Y-9638000D01*
D11*
X10618000Y-9428000D02*
X10558000Y-9428000D01*
X10558000Y-9428000D02*
G75*
G03*
X10558000Y-9638000I0J-105000D01*
G01*
X10558000Y-9638000D02*
X10618000Y-9638000D01*
X10618000Y-9638000D02*
G75*
G03*
X10618000Y-9428000I0J105000D01*
G01*
X5242619Y-17342524D02*
X5242619Y-17142524D01*
X5242619Y-17142524D02*
X5290238Y-17142524D01*
X5290238Y-17142524D02*
X5318810Y-17152048D01*
X5318810Y-17152048D02*
X5337857Y-17171095D01*
X5337857Y-17171095D02*
X5347381Y-17190143D01*
X5347381Y-17190143D02*
X5356905Y-17228238D01*
X5356905Y-17228238D02*
X5356905Y-17256810D01*
X5356905Y-17256810D02*
X5347381Y-17294905D01*
X5347381Y-17294905D02*
X5337857Y-17313952D01*
X5337857Y-17313952D02*
X5318810Y-17333000D01*
X5318810Y-17333000D02*
X5290238Y-17342524D01*
X5290238Y-17342524D02*
X5242619Y-17342524D01*
X5442619Y-17342524D02*
X5442619Y-17209190D01*
X5442619Y-17247286D02*
X5452143Y-17228238D01*
X5452143Y-17228238D02*
X5461667Y-17218714D01*
X5461667Y-17218714D02*
X5480714Y-17209190D01*
X5480714Y-17209190D02*
X5499762Y-17209190D01*
X5566429Y-17342524D02*
X5566429Y-17209190D01*
X5566429Y-17142524D02*
X5556905Y-17152048D01*
X5556905Y-17152048D02*
X5566429Y-17161571D01*
X5566429Y-17161571D02*
X5575952Y-17152048D01*
X5575952Y-17152048D02*
X5566429Y-17142524D01*
X5566429Y-17142524D02*
X5566429Y-17161571D01*
X5690238Y-17342524D02*
X5671190Y-17333000D01*
X5671190Y-17333000D02*
X5661667Y-17313952D01*
X5661667Y-17313952D02*
X5661667Y-17142524D01*
X5795000Y-17342524D02*
X5775952Y-17333000D01*
X5775952Y-17333000D02*
X5766428Y-17313952D01*
X5766428Y-17313952D02*
X5766428Y-17142524D01*
X6023571Y-17342524D02*
X6023571Y-17142524D01*
X6023571Y-17142524D02*
X6090238Y-17285381D01*
X6090238Y-17285381D02*
X6156905Y-17142524D01*
X6156905Y-17142524D02*
X6156905Y-17342524D01*
X6337857Y-17342524D02*
X6337857Y-17237762D01*
X6337857Y-17237762D02*
X6328333Y-17218714D01*
X6328333Y-17218714D02*
X6309286Y-17209190D01*
X6309286Y-17209190D02*
X6271190Y-17209190D01*
X6271190Y-17209190D02*
X6252143Y-17218714D01*
X6337857Y-17333000D02*
X6318809Y-17342524D01*
X6318809Y-17342524D02*
X6271190Y-17342524D01*
X6271190Y-17342524D02*
X6252143Y-17333000D01*
X6252143Y-17333000D02*
X6242619Y-17313952D01*
X6242619Y-17313952D02*
X6242619Y-17294905D01*
X6242619Y-17294905D02*
X6252143Y-17275857D01*
X6252143Y-17275857D02*
X6271190Y-17266333D01*
X6271190Y-17266333D02*
X6318809Y-17266333D01*
X6318809Y-17266333D02*
X6337857Y-17256810D01*
X6433095Y-17209190D02*
X6433095Y-17409190D01*
X6433095Y-17218714D02*
X6452143Y-17209190D01*
X6452143Y-17209190D02*
X6490238Y-17209190D01*
X6490238Y-17209190D02*
X6509286Y-17218714D01*
X6509286Y-17218714D02*
X6518809Y-17228238D01*
X6518809Y-17228238D02*
X6528333Y-17247286D01*
X6528333Y-17247286D02*
X6528333Y-17304429D01*
X6528333Y-17304429D02*
X6518809Y-17323476D01*
X6518809Y-17323476D02*
X6509286Y-17333000D01*
X6509286Y-17333000D02*
X6490238Y-17342524D01*
X6490238Y-17342524D02*
X6452143Y-17342524D01*
X6452143Y-17342524D02*
X6433095Y-17333000D01*
X6614048Y-17323476D02*
X6623571Y-17333000D01*
X6623571Y-17333000D02*
X6614048Y-17342524D01*
X6614048Y-17342524D02*
X6604524Y-17333000D01*
X6604524Y-17333000D02*
X6614048Y-17323476D01*
X6614048Y-17323476D02*
X6614048Y-17342524D01*
X6614048Y-17218714D02*
X6623571Y-17228238D01*
X6623571Y-17228238D02*
X6614048Y-17237762D01*
X6614048Y-17237762D02*
X6604524Y-17228238D01*
X6604524Y-17228238D02*
X6614048Y-17218714D01*
X6614048Y-17218714D02*
X6614048Y-17237762D01*
D12*
X4955000Y-17650000D02*
X4995000Y-17690000D01*
X4995000Y-17650000D02*
X4955000Y-17690000D01*
D11*
X5280714Y-17562524D02*
X5299762Y-17562524D01*
X5299762Y-17562524D02*
X5318810Y-17572048D01*
X5318810Y-17572048D02*
X5328333Y-17581571D01*
X5328333Y-17581571D02*
X5337857Y-17600619D01*
X5337857Y-17600619D02*
X5347381Y-17638714D01*
X5347381Y-17638714D02*
X5347381Y-17686333D01*
X5347381Y-17686333D02*
X5337857Y-17724429D01*
X5337857Y-17724429D02*
X5328333Y-17743476D01*
X5328333Y-17743476D02*
X5318810Y-17753000D01*
X5318810Y-17753000D02*
X5299762Y-17762524D01*
X5299762Y-17762524D02*
X5280714Y-17762524D01*
X5280714Y-17762524D02*
X5261667Y-17753000D01*
X5261667Y-17753000D02*
X5252143Y-17743476D01*
X5252143Y-17743476D02*
X5242619Y-17724429D01*
X5242619Y-17724429D02*
X5233095Y-17686333D01*
X5233095Y-17686333D02*
X5233095Y-17638714D01*
X5233095Y-17638714D02*
X5242619Y-17600619D01*
X5242619Y-17600619D02*
X5252143Y-17581571D01*
X5252143Y-17581571D02*
X5261667Y-17572048D01*
X5261667Y-17572048D02*
X5280714Y-17562524D01*
X5433095Y-17743476D02*
X5442619Y-17753000D01*
X5442619Y-17753000D02*
X5433095Y-17762524D01*
X5433095Y-17762524D02*
X5423571Y-17753000D01*
X5423571Y-17753000D02*
X5433095Y-17743476D01*
X5433095Y-17743476D02*
X5433095Y-17762524D01*
X5614048Y-17629190D02*
X5614048Y-17762524D01*
X5566429Y-17553000D02*
X5518810Y-17695857D01*
X5518810Y-17695857D02*
X5642619Y-17695857D01*
X5756905Y-17562524D02*
X5775952Y-17562524D01*
X5775952Y-17562524D02*
X5795000Y-17572048D01*
X5795000Y-17572048D02*
X5804524Y-17581571D01*
X5804524Y-17581571D02*
X5814048Y-17600619D01*
X5814048Y-17600619D02*
X5823571Y-17638714D01*
X5823571Y-17638714D02*
X5823571Y-17686333D01*
X5823571Y-17686333D02*
X5814048Y-17724429D01*
X5814048Y-17724429D02*
X5804524Y-17743476D01*
X5804524Y-17743476D02*
X5795000Y-17753000D01*
X5795000Y-17753000D02*
X5775952Y-17762524D01*
X5775952Y-17762524D02*
X5756905Y-17762524D01*
X5756905Y-17762524D02*
X5737857Y-17753000D01*
X5737857Y-17753000D02*
X5728333Y-17743476D01*
X5728333Y-17743476D02*
X5718809Y-17724429D01*
X5718809Y-17724429D02*
X5709286Y-17686333D01*
X5709286Y-17686333D02*
X5709286Y-17638714D01*
X5709286Y-17638714D02*
X5718809Y-17600619D01*
X5718809Y-17600619D02*
X5728333Y-17581571D01*
X5728333Y-17581571D02*
X5737857Y-17572048D01*
X5737857Y-17572048D02*
X5756905Y-17562524D01*
X5947381Y-17562524D02*
X5966429Y-17562524D01*
X5966429Y-17562524D02*
X5985476Y-17572048D01*
X5985476Y-17572048D02*
X5995000Y-17581571D01*
X5995000Y-17581571D02*
X6004524Y-17600619D01*
X6004524Y-17600619D02*
X6014048Y-17638714D01*
X6014048Y-17638714D02*
X6014048Y-17686333D01*
X6014048Y-17686333D02*
X6004524Y-17724429D01*
X6004524Y-17724429D02*
X5995000Y-17743476D01*
X5995000Y-17743476D02*
X5985476Y-17753000D01*
X5985476Y-17753000D02*
X5966429Y-17762524D01*
X5966429Y-17762524D02*
X5947381Y-17762524D01*
X5947381Y-17762524D02*
X5928333Y-17753000D01*
X5928333Y-17753000D02*
X5918809Y-17743476D01*
X5918809Y-17743476D02*
X5909286Y-17724429D01*
X5909286Y-17724429D02*
X5899762Y-17686333D01*
X5899762Y-17686333D02*
X5899762Y-17638714D01*
X5899762Y-17638714D02*
X5909286Y-17600619D01*
X5909286Y-17600619D02*
X5918809Y-17581571D01*
X5918809Y-17581571D02*
X5928333Y-17572048D01*
X5928333Y-17572048D02*
X5947381Y-17562524D01*
X6099762Y-17762524D02*
X6099762Y-17629190D01*
X6099762Y-17648238D02*
X6109286Y-17638714D01*
X6109286Y-17638714D02*
X6128333Y-17629190D01*
X6128333Y-17629190D02*
X6156905Y-17629190D01*
X6156905Y-17629190D02*
X6175952Y-17638714D01*
X6175952Y-17638714D02*
X6185476Y-17657762D01*
X6185476Y-17657762D02*
X6185476Y-17762524D01*
X6185476Y-17657762D02*
X6195000Y-17638714D01*
X6195000Y-17638714D02*
X6214048Y-17629190D01*
X6214048Y-17629190D02*
X6242619Y-17629190D01*
X6242619Y-17629190D02*
X6261667Y-17638714D01*
X6261667Y-17638714D02*
X6271190Y-17657762D01*
X6271190Y-17657762D02*
X6271190Y-17762524D01*
X6366429Y-17762524D02*
X6366429Y-17629190D01*
X6366429Y-17648238D02*
X6375952Y-17638714D01*
X6375952Y-17638714D02*
X6395000Y-17629190D01*
X6395000Y-17629190D02*
X6423571Y-17629190D01*
X6423571Y-17629190D02*
X6442619Y-17638714D01*
X6442619Y-17638714D02*
X6452143Y-17657762D01*
X6452143Y-17657762D02*
X6452143Y-17762524D01*
X6452143Y-17657762D02*
X6461667Y-17638714D01*
X6461667Y-17638714D02*
X6480714Y-17629190D01*
X6480714Y-17629190D02*
X6509286Y-17629190D01*
X6509286Y-17629190D02*
X6528333Y-17638714D01*
X6528333Y-17638714D02*
X6537857Y-17657762D01*
X6537857Y-17657762D02*
X6537857Y-17762524D01*
X6928333Y-17553000D02*
X6756905Y-17810143D01*
X7185476Y-17562524D02*
X7204524Y-17562524D01*
X7204524Y-17562524D02*
X7223572Y-17572048D01*
X7223572Y-17572048D02*
X7233095Y-17581571D01*
X7233095Y-17581571D02*
X7242619Y-17600619D01*
X7242619Y-17600619D02*
X7252143Y-17638714D01*
X7252143Y-17638714D02*
X7252143Y-17686333D01*
X7252143Y-17686333D02*
X7242619Y-17724429D01*
X7242619Y-17724429D02*
X7233095Y-17743476D01*
X7233095Y-17743476D02*
X7223572Y-17753000D01*
X7223572Y-17753000D02*
X7204524Y-17762524D01*
X7204524Y-17762524D02*
X7185476Y-17762524D01*
X7185476Y-17762524D02*
X7166429Y-17753000D01*
X7166429Y-17753000D02*
X7156905Y-17743476D01*
X7156905Y-17743476D02*
X7147381Y-17724429D01*
X7147381Y-17724429D02*
X7137857Y-17686333D01*
X7137857Y-17686333D02*
X7137857Y-17638714D01*
X7137857Y-17638714D02*
X7147381Y-17600619D01*
X7147381Y-17600619D02*
X7156905Y-17581571D01*
X7156905Y-17581571D02*
X7166429Y-17572048D01*
X7166429Y-17572048D02*
X7185476Y-17562524D01*
X7337857Y-17743476D02*
X7347381Y-17753000D01*
X7347381Y-17753000D02*
X7337857Y-17762524D01*
X7337857Y-17762524D02*
X7328333Y-17753000D01*
X7328333Y-17753000D02*
X7337857Y-17743476D01*
X7337857Y-17743476D02*
X7337857Y-17762524D01*
X7471191Y-17562524D02*
X7490238Y-17562524D01*
X7490238Y-17562524D02*
X7509286Y-17572048D01*
X7509286Y-17572048D02*
X7518810Y-17581571D01*
X7518810Y-17581571D02*
X7528333Y-17600619D01*
X7528333Y-17600619D02*
X7537857Y-17638714D01*
X7537857Y-17638714D02*
X7537857Y-17686333D01*
X7537857Y-17686333D02*
X7528333Y-17724429D01*
X7528333Y-17724429D02*
X7518810Y-17743476D01*
X7518810Y-17743476D02*
X7509286Y-17753000D01*
X7509286Y-17753000D02*
X7490238Y-17762524D01*
X7490238Y-17762524D02*
X7471191Y-17762524D01*
X7471191Y-17762524D02*
X7452143Y-17753000D01*
X7452143Y-17753000D02*
X7442619Y-17743476D01*
X7442619Y-17743476D02*
X7433095Y-17724429D01*
X7433095Y-17724429D02*
X7423572Y-17686333D01*
X7423572Y-17686333D02*
X7423572Y-17638714D01*
X7423572Y-17638714D02*
X7433095Y-17600619D01*
X7433095Y-17600619D02*
X7442619Y-17581571D01*
X7442619Y-17581571D02*
X7452143Y-17572048D01*
X7452143Y-17572048D02*
X7471191Y-17562524D01*
X7728333Y-17762524D02*
X7614048Y-17762524D01*
X7671191Y-17762524D02*
X7671191Y-17562524D01*
X7671191Y-17562524D02*
X7652143Y-17591095D01*
X7652143Y-17591095D02*
X7633095Y-17610143D01*
X7633095Y-17610143D02*
X7614048Y-17619667D01*
X7909286Y-17562524D02*
X7814048Y-17562524D01*
X7814048Y-17562524D02*
X7804524Y-17657762D01*
X7804524Y-17657762D02*
X7814048Y-17648238D01*
X7814048Y-17648238D02*
X7833095Y-17638714D01*
X7833095Y-17638714D02*
X7880714Y-17638714D01*
X7880714Y-17638714D02*
X7899762Y-17648238D01*
X7899762Y-17648238D02*
X7909286Y-17657762D01*
X7909286Y-17657762D02*
X7918810Y-17676810D01*
X7918810Y-17676810D02*
X7918810Y-17724429D01*
X7918810Y-17724429D02*
X7909286Y-17743476D01*
X7909286Y-17743476D02*
X7899762Y-17753000D01*
X7899762Y-17753000D02*
X7880714Y-17762524D01*
X7880714Y-17762524D02*
X7833095Y-17762524D01*
X7833095Y-17762524D02*
X7814048Y-17753000D01*
X7814048Y-17753000D02*
X7804524Y-17743476D01*
X7985476Y-17562524D02*
X8118810Y-17562524D01*
X8118810Y-17562524D02*
X8033095Y-17762524D01*
X8185476Y-17562524D02*
X8185476Y-17600619D01*
X8261667Y-17562524D02*
X8261667Y-17600619D01*
X8556905Y-17838714D02*
X8547381Y-17829190D01*
X8547381Y-17829190D02*
X8528334Y-17800619D01*
X8528334Y-17800619D02*
X8518810Y-17781571D01*
X8518810Y-17781571D02*
X8509286Y-17753000D01*
X8509286Y-17753000D02*
X8499762Y-17705381D01*
X8499762Y-17705381D02*
X8499762Y-17667286D01*
X8499762Y-17667286D02*
X8509286Y-17619667D01*
X8509286Y-17619667D02*
X8518810Y-17591095D01*
X8518810Y-17591095D02*
X8528334Y-17572048D01*
X8528334Y-17572048D02*
X8547381Y-17543476D01*
X8547381Y-17543476D02*
X8556905Y-17533952D01*
X8614048Y-17562524D02*
X8737857Y-17562524D01*
X8737857Y-17562524D02*
X8671191Y-17638714D01*
X8671191Y-17638714D02*
X8699762Y-17638714D01*
X8699762Y-17638714D02*
X8718810Y-17648238D01*
X8718810Y-17648238D02*
X8728334Y-17657762D01*
X8728334Y-17657762D02*
X8737857Y-17676810D01*
X8737857Y-17676810D02*
X8737857Y-17724429D01*
X8737857Y-17724429D02*
X8728334Y-17743476D01*
X8728334Y-17743476D02*
X8718810Y-17753000D01*
X8718810Y-17753000D02*
X8699762Y-17762524D01*
X8699762Y-17762524D02*
X8642619Y-17762524D01*
X8642619Y-17762524D02*
X8623572Y-17753000D01*
X8623572Y-17753000D02*
X8614048Y-17743476D01*
X8928334Y-17762524D02*
X8814048Y-17762524D01*
X8871191Y-17762524D02*
X8871191Y-17562524D01*
X8871191Y-17562524D02*
X8852143Y-17591095D01*
X8852143Y-17591095D02*
X8833096Y-17610143D01*
X8833096Y-17610143D02*
X8814048Y-17619667D01*
X9166429Y-17762524D02*
X9166429Y-17562524D01*
X9252143Y-17762524D02*
X9252143Y-17657762D01*
X9252143Y-17657762D02*
X9242619Y-17638714D01*
X9242619Y-17638714D02*
X9223572Y-17629190D01*
X9223572Y-17629190D02*
X9195000Y-17629190D01*
X9195000Y-17629190D02*
X9175953Y-17638714D01*
X9175953Y-17638714D02*
X9166429Y-17648238D01*
X9375953Y-17762524D02*
X9356905Y-17753000D01*
X9356905Y-17753000D02*
X9347381Y-17743476D01*
X9347381Y-17743476D02*
X9337858Y-17724429D01*
X9337858Y-17724429D02*
X9337858Y-17667286D01*
X9337858Y-17667286D02*
X9347381Y-17648238D01*
X9347381Y-17648238D02*
X9356905Y-17638714D01*
X9356905Y-17638714D02*
X9375953Y-17629190D01*
X9375953Y-17629190D02*
X9404524Y-17629190D01*
X9404524Y-17629190D02*
X9423572Y-17638714D01*
X9423572Y-17638714D02*
X9433096Y-17648238D01*
X9433096Y-17648238D02*
X9442619Y-17667286D01*
X9442619Y-17667286D02*
X9442619Y-17724429D01*
X9442619Y-17724429D02*
X9433096Y-17743476D01*
X9433096Y-17743476D02*
X9423572Y-17753000D01*
X9423572Y-17753000D02*
X9404524Y-17762524D01*
X9404524Y-17762524D02*
X9375953Y-17762524D01*
X9556905Y-17762524D02*
X9537858Y-17753000D01*
X9537858Y-17753000D02*
X9528334Y-17733952D01*
X9528334Y-17733952D02*
X9528334Y-17562524D01*
X9709286Y-17753000D02*
X9690239Y-17762524D01*
X9690239Y-17762524D02*
X9652143Y-17762524D01*
X9652143Y-17762524D02*
X9633096Y-17753000D01*
X9633096Y-17753000D02*
X9623572Y-17733952D01*
X9623572Y-17733952D02*
X9623572Y-17657762D01*
X9623572Y-17657762D02*
X9633096Y-17638714D01*
X9633096Y-17638714D02*
X9652143Y-17629190D01*
X9652143Y-17629190D02*
X9690239Y-17629190D01*
X9690239Y-17629190D02*
X9709286Y-17638714D01*
X9709286Y-17638714D02*
X9718810Y-17657762D01*
X9718810Y-17657762D02*
X9718810Y-17676810D01*
X9718810Y-17676810D02*
X9623572Y-17695857D01*
X9795000Y-17753000D02*
X9814048Y-17762524D01*
X9814048Y-17762524D02*
X9852143Y-17762524D01*
X9852143Y-17762524D02*
X9871191Y-17753000D01*
X9871191Y-17753000D02*
X9880715Y-17733952D01*
X9880715Y-17733952D02*
X9880715Y-17724429D01*
X9880715Y-17724429D02*
X9871191Y-17705381D01*
X9871191Y-17705381D02*
X9852143Y-17695857D01*
X9852143Y-17695857D02*
X9823572Y-17695857D01*
X9823572Y-17695857D02*
X9804524Y-17686333D01*
X9804524Y-17686333D02*
X9795000Y-17667286D01*
X9795000Y-17667286D02*
X9795000Y-17657762D01*
X9795000Y-17657762D02*
X9804524Y-17638714D01*
X9804524Y-17638714D02*
X9823572Y-17629190D01*
X9823572Y-17629190D02*
X9852143Y-17629190D01*
X9852143Y-17629190D02*
X9871191Y-17638714D01*
X9947381Y-17838714D02*
X9956905Y-17829190D01*
X9956905Y-17829190D02*
X9975953Y-17800619D01*
X9975953Y-17800619D02*
X9985477Y-17781571D01*
X9985477Y-17781571D02*
X9995000Y-17753000D01*
X9995000Y-17753000D02*
X10004524Y-17705381D01*
X10004524Y-17705381D02*
X10004524Y-17667286D01*
X10004524Y-17667286D02*
X9995000Y-17619667D01*
X9995000Y-17619667D02*
X9985477Y-17591095D01*
X9985477Y-17591095D02*
X9975953Y-17572048D01*
X9975953Y-17572048D02*
X9956905Y-17543476D01*
X9956905Y-17543476D02*
X9947381Y-17533952D01*
D13*
X4995000Y-17934000D02*
G75*
G03*
X4995000Y-17934000I-45000J0D01*
G01*
D11*
X5280714Y-17826524D02*
X5299762Y-17826524D01*
X5299762Y-17826524D02*
X5318810Y-17836048D01*
X5318810Y-17836048D02*
X5328333Y-17845571D01*
X5328333Y-17845571D02*
X5337857Y-17864619D01*
X5337857Y-17864619D02*
X5347381Y-17902714D01*
X5347381Y-17902714D02*
X5347381Y-17950333D01*
X5347381Y-17950333D02*
X5337857Y-17988429D01*
X5337857Y-17988429D02*
X5328333Y-18007476D01*
X5328333Y-18007476D02*
X5318810Y-18017000D01*
X5318810Y-18017000D02*
X5299762Y-18026524D01*
X5299762Y-18026524D02*
X5280714Y-18026524D01*
X5280714Y-18026524D02*
X5261667Y-18017000D01*
X5261667Y-18017000D02*
X5252143Y-18007476D01*
X5252143Y-18007476D02*
X5242619Y-17988429D01*
X5242619Y-17988429D02*
X5233095Y-17950333D01*
X5233095Y-17950333D02*
X5233095Y-17902714D01*
X5233095Y-17902714D02*
X5242619Y-17864619D01*
X5242619Y-17864619D02*
X5252143Y-17845571D01*
X5252143Y-17845571D02*
X5261667Y-17836048D01*
X5261667Y-17836048D02*
X5280714Y-17826524D01*
X5433095Y-18007476D02*
X5442619Y-18017000D01*
X5442619Y-18017000D02*
X5433095Y-18026524D01*
X5433095Y-18026524D02*
X5423571Y-18017000D01*
X5423571Y-18017000D02*
X5433095Y-18007476D01*
X5433095Y-18007476D02*
X5433095Y-18026524D01*
X5537857Y-18026524D02*
X5575952Y-18026524D01*
X5575952Y-18026524D02*
X5595000Y-18017000D01*
X5595000Y-18017000D02*
X5604524Y-18007476D01*
X5604524Y-18007476D02*
X5623571Y-17978905D01*
X5623571Y-17978905D02*
X5633095Y-17940810D01*
X5633095Y-17940810D02*
X5633095Y-17864619D01*
X5633095Y-17864619D02*
X5623571Y-17845571D01*
X5623571Y-17845571D02*
X5614048Y-17836048D01*
X5614048Y-17836048D02*
X5595000Y-17826524D01*
X5595000Y-17826524D02*
X5556905Y-17826524D01*
X5556905Y-17826524D02*
X5537857Y-17836048D01*
X5537857Y-17836048D02*
X5528333Y-17845571D01*
X5528333Y-17845571D02*
X5518810Y-17864619D01*
X5518810Y-17864619D02*
X5518810Y-17912238D01*
X5518810Y-17912238D02*
X5528333Y-17931286D01*
X5528333Y-17931286D02*
X5537857Y-17940810D01*
X5537857Y-17940810D02*
X5556905Y-17950333D01*
X5556905Y-17950333D02*
X5595000Y-17950333D01*
X5595000Y-17950333D02*
X5614048Y-17940810D01*
X5614048Y-17940810D02*
X5623571Y-17931286D01*
X5623571Y-17931286D02*
X5633095Y-17912238D01*
X5756905Y-17826524D02*
X5775952Y-17826524D01*
X5775952Y-17826524D02*
X5795000Y-17836048D01*
X5795000Y-17836048D02*
X5804524Y-17845571D01*
X5804524Y-17845571D02*
X5814048Y-17864619D01*
X5814048Y-17864619D02*
X5823571Y-17902714D01*
X5823571Y-17902714D02*
X5823571Y-17950333D01*
X5823571Y-17950333D02*
X5814048Y-17988429D01*
X5814048Y-17988429D02*
X5804524Y-18007476D01*
X5804524Y-18007476D02*
X5795000Y-18017000D01*
X5795000Y-18017000D02*
X5775952Y-18026524D01*
X5775952Y-18026524D02*
X5756905Y-18026524D01*
X5756905Y-18026524D02*
X5737857Y-18017000D01*
X5737857Y-18017000D02*
X5728333Y-18007476D01*
X5728333Y-18007476D02*
X5718809Y-17988429D01*
X5718809Y-17988429D02*
X5709286Y-17950333D01*
X5709286Y-17950333D02*
X5709286Y-17902714D01*
X5709286Y-17902714D02*
X5718809Y-17864619D01*
X5718809Y-17864619D02*
X5728333Y-17845571D01*
X5728333Y-17845571D02*
X5737857Y-17836048D01*
X5737857Y-17836048D02*
X5756905Y-17826524D01*
X5947381Y-17826524D02*
X5966429Y-17826524D01*
X5966429Y-17826524D02*
X5985476Y-17836048D01*
X5985476Y-17836048D02*
X5995000Y-17845571D01*
X5995000Y-17845571D02*
X6004524Y-17864619D01*
X6004524Y-17864619D02*
X6014048Y-17902714D01*
X6014048Y-17902714D02*
X6014048Y-17950333D01*
X6014048Y-17950333D02*
X6004524Y-17988429D01*
X6004524Y-17988429D02*
X5995000Y-18007476D01*
X5995000Y-18007476D02*
X5985476Y-18017000D01*
X5985476Y-18017000D02*
X5966429Y-18026524D01*
X5966429Y-18026524D02*
X5947381Y-18026524D01*
X5947381Y-18026524D02*
X5928333Y-18017000D01*
X5928333Y-18017000D02*
X5918809Y-18007476D01*
X5918809Y-18007476D02*
X5909286Y-17988429D01*
X5909286Y-17988429D02*
X5899762Y-17950333D01*
X5899762Y-17950333D02*
X5899762Y-17902714D01*
X5899762Y-17902714D02*
X5909286Y-17864619D01*
X5909286Y-17864619D02*
X5918809Y-17845571D01*
X5918809Y-17845571D02*
X5928333Y-17836048D01*
X5928333Y-17836048D02*
X5947381Y-17826524D01*
X6099762Y-18026524D02*
X6099762Y-17893190D01*
X6099762Y-17912238D02*
X6109286Y-17902714D01*
X6109286Y-17902714D02*
X6128333Y-17893190D01*
X6128333Y-17893190D02*
X6156905Y-17893190D01*
X6156905Y-17893190D02*
X6175952Y-17902714D01*
X6175952Y-17902714D02*
X6185476Y-17921762D01*
X6185476Y-17921762D02*
X6185476Y-18026524D01*
X6185476Y-17921762D02*
X6195000Y-17902714D01*
X6195000Y-17902714D02*
X6214048Y-17893190D01*
X6214048Y-17893190D02*
X6242619Y-17893190D01*
X6242619Y-17893190D02*
X6261667Y-17902714D01*
X6261667Y-17902714D02*
X6271190Y-17921762D01*
X6271190Y-17921762D02*
X6271190Y-18026524D01*
X6366429Y-18026524D02*
X6366429Y-17893190D01*
X6366429Y-17912238D02*
X6375952Y-17902714D01*
X6375952Y-17902714D02*
X6395000Y-17893190D01*
X6395000Y-17893190D02*
X6423571Y-17893190D01*
X6423571Y-17893190D02*
X6442619Y-17902714D01*
X6442619Y-17902714D02*
X6452143Y-17921762D01*
X6452143Y-17921762D02*
X6452143Y-18026524D01*
X6452143Y-17921762D02*
X6461667Y-17902714D01*
X6461667Y-17902714D02*
X6480714Y-17893190D01*
X6480714Y-17893190D02*
X6509286Y-17893190D01*
X6509286Y-17893190D02*
X6528333Y-17902714D01*
X6528333Y-17902714D02*
X6537857Y-17921762D01*
X6537857Y-17921762D02*
X6537857Y-18026524D01*
X6928333Y-17817000D02*
X6756905Y-18074143D01*
X7185476Y-17826524D02*
X7204524Y-17826524D01*
X7204524Y-17826524D02*
X7223572Y-17836048D01*
X7223572Y-17836048D02*
X7233095Y-17845571D01*
X7233095Y-17845571D02*
X7242619Y-17864619D01*
X7242619Y-17864619D02*
X7252143Y-17902714D01*
X7252143Y-17902714D02*
X7252143Y-17950333D01*
X7252143Y-17950333D02*
X7242619Y-17988429D01*
X7242619Y-17988429D02*
X7233095Y-18007476D01*
X7233095Y-18007476D02*
X7223572Y-18017000D01*
X7223572Y-18017000D02*
X7204524Y-18026524D01*
X7204524Y-18026524D02*
X7185476Y-18026524D01*
X7185476Y-18026524D02*
X7166429Y-18017000D01*
X7166429Y-18017000D02*
X7156905Y-18007476D01*
X7156905Y-18007476D02*
X7147381Y-17988429D01*
X7147381Y-17988429D02*
X7137857Y-17950333D01*
X7137857Y-17950333D02*
X7137857Y-17902714D01*
X7137857Y-17902714D02*
X7147381Y-17864619D01*
X7147381Y-17864619D02*
X7156905Y-17845571D01*
X7156905Y-17845571D02*
X7166429Y-17836048D01*
X7166429Y-17836048D02*
X7185476Y-17826524D01*
X7337857Y-18007476D02*
X7347381Y-18017000D01*
X7347381Y-18017000D02*
X7337857Y-18026524D01*
X7337857Y-18026524D02*
X7328333Y-18017000D01*
X7328333Y-18017000D02*
X7337857Y-18007476D01*
X7337857Y-18007476D02*
X7337857Y-18026524D01*
X7471191Y-17826524D02*
X7490238Y-17826524D01*
X7490238Y-17826524D02*
X7509286Y-17836048D01*
X7509286Y-17836048D02*
X7518810Y-17845571D01*
X7518810Y-17845571D02*
X7528333Y-17864619D01*
X7528333Y-17864619D02*
X7537857Y-17902714D01*
X7537857Y-17902714D02*
X7537857Y-17950333D01*
X7537857Y-17950333D02*
X7528333Y-17988429D01*
X7528333Y-17988429D02*
X7518810Y-18007476D01*
X7518810Y-18007476D02*
X7509286Y-18017000D01*
X7509286Y-18017000D02*
X7490238Y-18026524D01*
X7490238Y-18026524D02*
X7471191Y-18026524D01*
X7471191Y-18026524D02*
X7452143Y-18017000D01*
X7452143Y-18017000D02*
X7442619Y-18007476D01*
X7442619Y-18007476D02*
X7433095Y-17988429D01*
X7433095Y-17988429D02*
X7423572Y-17950333D01*
X7423572Y-17950333D02*
X7423572Y-17902714D01*
X7423572Y-17902714D02*
X7433095Y-17864619D01*
X7433095Y-17864619D02*
X7442619Y-17845571D01*
X7442619Y-17845571D02*
X7452143Y-17836048D01*
X7452143Y-17836048D02*
X7471191Y-17826524D01*
X7604524Y-17826524D02*
X7728333Y-17826524D01*
X7728333Y-17826524D02*
X7661667Y-17902714D01*
X7661667Y-17902714D02*
X7690238Y-17902714D01*
X7690238Y-17902714D02*
X7709286Y-17912238D01*
X7709286Y-17912238D02*
X7718810Y-17921762D01*
X7718810Y-17921762D02*
X7728333Y-17940810D01*
X7728333Y-17940810D02*
X7728333Y-17988429D01*
X7728333Y-17988429D02*
X7718810Y-18007476D01*
X7718810Y-18007476D02*
X7709286Y-18017000D01*
X7709286Y-18017000D02*
X7690238Y-18026524D01*
X7690238Y-18026524D02*
X7633095Y-18026524D01*
X7633095Y-18026524D02*
X7614048Y-18017000D01*
X7614048Y-18017000D02*
X7604524Y-18007476D01*
X7909286Y-17826524D02*
X7814048Y-17826524D01*
X7814048Y-17826524D02*
X7804524Y-17921762D01*
X7804524Y-17921762D02*
X7814048Y-17912238D01*
X7814048Y-17912238D02*
X7833095Y-17902714D01*
X7833095Y-17902714D02*
X7880714Y-17902714D01*
X7880714Y-17902714D02*
X7899762Y-17912238D01*
X7899762Y-17912238D02*
X7909286Y-17921762D01*
X7909286Y-17921762D02*
X7918810Y-17940810D01*
X7918810Y-17940810D02*
X7918810Y-17988429D01*
X7918810Y-17988429D02*
X7909286Y-18007476D01*
X7909286Y-18007476D02*
X7899762Y-18017000D01*
X7899762Y-18017000D02*
X7880714Y-18026524D01*
X7880714Y-18026524D02*
X7833095Y-18026524D01*
X7833095Y-18026524D02*
X7814048Y-18017000D01*
X7814048Y-18017000D02*
X7804524Y-18007476D01*
X8090238Y-17893190D02*
X8090238Y-18026524D01*
X8042619Y-17817000D02*
X7995000Y-17959857D01*
X7995000Y-17959857D02*
X8118810Y-17959857D01*
X8185476Y-17826524D02*
X8185476Y-17864619D01*
X8261667Y-17826524D02*
X8261667Y-17864619D01*
X8556905Y-18102714D02*
X8547381Y-18093190D01*
X8547381Y-18093190D02*
X8528334Y-18064619D01*
X8528334Y-18064619D02*
X8518810Y-18045571D01*
X8518810Y-18045571D02*
X8509286Y-18017000D01*
X8509286Y-18017000D02*
X8499762Y-17969381D01*
X8499762Y-17969381D02*
X8499762Y-17931286D01*
X8499762Y-17931286D02*
X8509286Y-17883667D01*
X8509286Y-17883667D02*
X8518810Y-17855095D01*
X8518810Y-17855095D02*
X8528334Y-17836048D01*
X8528334Y-17836048D02*
X8547381Y-17807476D01*
X8547381Y-17807476D02*
X8556905Y-17797952D01*
X8661667Y-17912238D02*
X8642619Y-17902714D01*
X8642619Y-17902714D02*
X8633096Y-17893190D01*
X8633096Y-17893190D02*
X8623572Y-17874143D01*
X8623572Y-17874143D02*
X8623572Y-17864619D01*
X8623572Y-17864619D02*
X8633096Y-17845571D01*
X8633096Y-17845571D02*
X8642619Y-17836048D01*
X8642619Y-17836048D02*
X8661667Y-17826524D01*
X8661667Y-17826524D02*
X8699762Y-17826524D01*
X8699762Y-17826524D02*
X8718810Y-17836048D01*
X8718810Y-17836048D02*
X8728334Y-17845571D01*
X8728334Y-17845571D02*
X8737857Y-17864619D01*
X8737857Y-17864619D02*
X8737857Y-17874143D01*
X8737857Y-17874143D02*
X8728334Y-17893190D01*
X8728334Y-17893190D02*
X8718810Y-17902714D01*
X8718810Y-17902714D02*
X8699762Y-17912238D01*
X8699762Y-17912238D02*
X8661667Y-17912238D01*
X8661667Y-17912238D02*
X8642619Y-17921762D01*
X8642619Y-17921762D02*
X8633096Y-17931286D01*
X8633096Y-17931286D02*
X8623572Y-17950333D01*
X8623572Y-17950333D02*
X8623572Y-17988429D01*
X8623572Y-17988429D02*
X8633096Y-18007476D01*
X8633096Y-18007476D02*
X8642619Y-18017000D01*
X8642619Y-18017000D02*
X8661667Y-18026524D01*
X8661667Y-18026524D02*
X8699762Y-18026524D01*
X8699762Y-18026524D02*
X8718810Y-18017000D01*
X8718810Y-18017000D02*
X8728334Y-18007476D01*
X8728334Y-18007476D02*
X8737857Y-17988429D01*
X8737857Y-17988429D02*
X8737857Y-17950333D01*
X8737857Y-17950333D02*
X8728334Y-17931286D01*
X8728334Y-17931286D02*
X8718810Y-17921762D01*
X8718810Y-17921762D02*
X8699762Y-17912238D01*
X8975953Y-18026524D02*
X8975953Y-17826524D01*
X9061667Y-18026524D02*
X9061667Y-17921762D01*
X9061667Y-17921762D02*
X9052143Y-17902714D01*
X9052143Y-17902714D02*
X9033096Y-17893190D01*
X9033096Y-17893190D02*
X9004524Y-17893190D01*
X9004524Y-17893190D02*
X8985477Y-17902714D01*
X8985477Y-17902714D02*
X8975953Y-17912238D01*
X9185477Y-18026524D02*
X9166429Y-18017000D01*
X9166429Y-18017000D02*
X9156905Y-18007476D01*
X9156905Y-18007476D02*
X9147381Y-17988429D01*
X9147381Y-17988429D02*
X9147381Y-17931286D01*
X9147381Y-17931286D02*
X9156905Y-17912238D01*
X9156905Y-17912238D02*
X9166429Y-17902714D01*
X9166429Y-17902714D02*
X9185477Y-17893190D01*
X9185477Y-17893190D02*
X9214048Y-17893190D01*
X9214048Y-17893190D02*
X9233096Y-17902714D01*
X9233096Y-17902714D02*
X9242619Y-17912238D01*
X9242619Y-17912238D02*
X9252143Y-17931286D01*
X9252143Y-17931286D02*
X9252143Y-17988429D01*
X9252143Y-17988429D02*
X9242619Y-18007476D01*
X9242619Y-18007476D02*
X9233096Y-18017000D01*
X9233096Y-18017000D02*
X9214048Y-18026524D01*
X9214048Y-18026524D02*
X9185477Y-18026524D01*
X9366429Y-18026524D02*
X9347381Y-18017000D01*
X9347381Y-18017000D02*
X9337858Y-17997952D01*
X9337858Y-17997952D02*
X9337858Y-17826524D01*
X9518810Y-18017000D02*
X9499762Y-18026524D01*
X9499762Y-18026524D02*
X9461667Y-18026524D01*
X9461667Y-18026524D02*
X9442619Y-18017000D01*
X9442619Y-18017000D02*
X9433096Y-17997952D01*
X9433096Y-17997952D02*
X9433096Y-17921762D01*
X9433096Y-17921762D02*
X9442619Y-17902714D01*
X9442619Y-17902714D02*
X9461667Y-17893190D01*
X9461667Y-17893190D02*
X9499762Y-17893190D01*
X9499762Y-17893190D02*
X9518810Y-17902714D01*
X9518810Y-17902714D02*
X9528334Y-17921762D01*
X9528334Y-17921762D02*
X9528334Y-17940810D01*
X9528334Y-17940810D02*
X9433096Y-17959857D01*
X9604524Y-18017000D02*
X9623572Y-18026524D01*
X9623572Y-18026524D02*
X9661667Y-18026524D01*
X9661667Y-18026524D02*
X9680715Y-18017000D01*
X9680715Y-18017000D02*
X9690239Y-17997952D01*
X9690239Y-17997952D02*
X9690239Y-17988429D01*
X9690239Y-17988429D02*
X9680715Y-17969381D01*
X9680715Y-17969381D02*
X9661667Y-17959857D01*
X9661667Y-17959857D02*
X9633096Y-17959857D01*
X9633096Y-17959857D02*
X9614048Y-17950333D01*
X9614048Y-17950333D02*
X9604524Y-17931286D01*
X9604524Y-17931286D02*
X9604524Y-17921762D01*
X9604524Y-17921762D02*
X9614048Y-17902714D01*
X9614048Y-17902714D02*
X9633096Y-17893190D01*
X9633096Y-17893190D02*
X9661667Y-17893190D01*
X9661667Y-17893190D02*
X9680715Y-17902714D01*
X9756905Y-18102714D02*
X9766429Y-18093190D01*
X9766429Y-18093190D02*
X9785477Y-18064619D01*
X9785477Y-18064619D02*
X9795000Y-18045571D01*
X9795000Y-18045571D02*
X9804524Y-18017000D01*
X9804524Y-18017000D02*
X9814048Y-17969381D01*
X9814048Y-17969381D02*
X9814048Y-17931286D01*
X9814048Y-17931286D02*
X9804524Y-17883667D01*
X9804524Y-17883667D02*
X9795000Y-17855095D01*
X9795000Y-17855095D02*
X9785477Y-17836048D01*
X9785477Y-17836048D02*
X9766429Y-17807476D01*
X9766429Y-17807476D02*
X9756905Y-17797952D01*
D10*
X4945000Y-18148000D02*
X4945000Y-18248000D01*
X4895000Y-18198000D02*
X4995000Y-18198000D01*
D11*
X5347381Y-18290524D02*
X5233095Y-18290524D01*
X5290238Y-18290524D02*
X5290238Y-18090524D01*
X5290238Y-18090524D02*
X5271190Y-18119095D01*
X5271190Y-18119095D02*
X5252143Y-18138143D01*
X5252143Y-18138143D02*
X5233095Y-18147667D01*
X5433095Y-18271476D02*
X5442619Y-18281000D01*
X5442619Y-18281000D02*
X5433095Y-18290524D01*
X5433095Y-18290524D02*
X5423571Y-18281000D01*
X5423571Y-18281000D02*
X5433095Y-18271476D01*
X5433095Y-18271476D02*
X5433095Y-18290524D01*
X5566429Y-18090524D02*
X5585476Y-18090524D01*
X5585476Y-18090524D02*
X5604524Y-18100048D01*
X5604524Y-18100048D02*
X5614048Y-18109571D01*
X5614048Y-18109571D02*
X5623571Y-18128619D01*
X5623571Y-18128619D02*
X5633095Y-18166714D01*
X5633095Y-18166714D02*
X5633095Y-18214333D01*
X5633095Y-18214333D02*
X5623571Y-18252429D01*
X5623571Y-18252429D02*
X5614048Y-18271476D01*
X5614048Y-18271476D02*
X5604524Y-18281000D01*
X5604524Y-18281000D02*
X5585476Y-18290524D01*
X5585476Y-18290524D02*
X5566429Y-18290524D01*
X5566429Y-18290524D02*
X5547381Y-18281000D01*
X5547381Y-18281000D02*
X5537857Y-18271476D01*
X5537857Y-18271476D02*
X5528333Y-18252429D01*
X5528333Y-18252429D02*
X5518810Y-18214333D01*
X5518810Y-18214333D02*
X5518810Y-18166714D01*
X5518810Y-18166714D02*
X5528333Y-18128619D01*
X5528333Y-18128619D02*
X5537857Y-18109571D01*
X5537857Y-18109571D02*
X5547381Y-18100048D01*
X5547381Y-18100048D02*
X5566429Y-18090524D01*
X5756905Y-18090524D02*
X5775952Y-18090524D01*
X5775952Y-18090524D02*
X5795000Y-18100048D01*
X5795000Y-18100048D02*
X5804524Y-18109571D01*
X5804524Y-18109571D02*
X5814048Y-18128619D01*
X5814048Y-18128619D02*
X5823571Y-18166714D01*
X5823571Y-18166714D02*
X5823571Y-18214333D01*
X5823571Y-18214333D02*
X5814048Y-18252429D01*
X5814048Y-18252429D02*
X5804524Y-18271476D01*
X5804524Y-18271476D02*
X5795000Y-18281000D01*
X5795000Y-18281000D02*
X5775952Y-18290524D01*
X5775952Y-18290524D02*
X5756905Y-18290524D01*
X5756905Y-18290524D02*
X5737857Y-18281000D01*
X5737857Y-18281000D02*
X5728333Y-18271476D01*
X5728333Y-18271476D02*
X5718809Y-18252429D01*
X5718809Y-18252429D02*
X5709286Y-18214333D01*
X5709286Y-18214333D02*
X5709286Y-18166714D01*
X5709286Y-18166714D02*
X5718809Y-18128619D01*
X5718809Y-18128619D02*
X5728333Y-18109571D01*
X5728333Y-18109571D02*
X5737857Y-18100048D01*
X5737857Y-18100048D02*
X5756905Y-18090524D01*
X5947381Y-18090524D02*
X5966429Y-18090524D01*
X5966429Y-18090524D02*
X5985476Y-18100048D01*
X5985476Y-18100048D02*
X5995000Y-18109571D01*
X5995000Y-18109571D02*
X6004524Y-18128619D01*
X6004524Y-18128619D02*
X6014048Y-18166714D01*
X6014048Y-18166714D02*
X6014048Y-18214333D01*
X6014048Y-18214333D02*
X6004524Y-18252429D01*
X6004524Y-18252429D02*
X5995000Y-18271476D01*
X5995000Y-18271476D02*
X5985476Y-18281000D01*
X5985476Y-18281000D02*
X5966429Y-18290524D01*
X5966429Y-18290524D02*
X5947381Y-18290524D01*
X5947381Y-18290524D02*
X5928333Y-18281000D01*
X5928333Y-18281000D02*
X5918809Y-18271476D01*
X5918809Y-18271476D02*
X5909286Y-18252429D01*
X5909286Y-18252429D02*
X5899762Y-18214333D01*
X5899762Y-18214333D02*
X5899762Y-18166714D01*
X5899762Y-18166714D02*
X5909286Y-18128619D01*
X5909286Y-18128619D02*
X5918809Y-18109571D01*
X5918809Y-18109571D02*
X5928333Y-18100048D01*
X5928333Y-18100048D02*
X5947381Y-18090524D01*
X6099762Y-18290524D02*
X6099762Y-18157190D01*
X6099762Y-18176238D02*
X6109286Y-18166714D01*
X6109286Y-18166714D02*
X6128333Y-18157190D01*
X6128333Y-18157190D02*
X6156905Y-18157190D01*
X6156905Y-18157190D02*
X6175952Y-18166714D01*
X6175952Y-18166714D02*
X6185476Y-18185762D01*
X6185476Y-18185762D02*
X6185476Y-18290524D01*
X6185476Y-18185762D02*
X6195000Y-18166714D01*
X6195000Y-18166714D02*
X6214048Y-18157190D01*
X6214048Y-18157190D02*
X6242619Y-18157190D01*
X6242619Y-18157190D02*
X6261667Y-18166714D01*
X6261667Y-18166714D02*
X6271190Y-18185762D01*
X6271190Y-18185762D02*
X6271190Y-18290524D01*
X6366429Y-18290524D02*
X6366429Y-18157190D01*
X6366429Y-18176238D02*
X6375952Y-18166714D01*
X6375952Y-18166714D02*
X6395000Y-18157190D01*
X6395000Y-18157190D02*
X6423571Y-18157190D01*
X6423571Y-18157190D02*
X6442619Y-18166714D01*
X6442619Y-18166714D02*
X6452143Y-18185762D01*
X6452143Y-18185762D02*
X6452143Y-18290524D01*
X6452143Y-18185762D02*
X6461667Y-18166714D01*
X6461667Y-18166714D02*
X6480714Y-18157190D01*
X6480714Y-18157190D02*
X6509286Y-18157190D01*
X6509286Y-18157190D02*
X6528333Y-18166714D01*
X6528333Y-18166714D02*
X6537857Y-18185762D01*
X6537857Y-18185762D02*
X6537857Y-18290524D01*
X6928333Y-18081000D02*
X6756905Y-18338143D01*
X7185476Y-18090524D02*
X7204524Y-18090524D01*
X7204524Y-18090524D02*
X7223572Y-18100048D01*
X7223572Y-18100048D02*
X7233095Y-18109571D01*
X7233095Y-18109571D02*
X7242619Y-18128619D01*
X7242619Y-18128619D02*
X7252143Y-18166714D01*
X7252143Y-18166714D02*
X7252143Y-18214333D01*
X7252143Y-18214333D02*
X7242619Y-18252429D01*
X7242619Y-18252429D02*
X7233095Y-18271476D01*
X7233095Y-18271476D02*
X7223572Y-18281000D01*
X7223572Y-18281000D02*
X7204524Y-18290524D01*
X7204524Y-18290524D02*
X7185476Y-18290524D01*
X7185476Y-18290524D02*
X7166429Y-18281000D01*
X7166429Y-18281000D02*
X7156905Y-18271476D01*
X7156905Y-18271476D02*
X7147381Y-18252429D01*
X7147381Y-18252429D02*
X7137857Y-18214333D01*
X7137857Y-18214333D02*
X7137857Y-18166714D01*
X7137857Y-18166714D02*
X7147381Y-18128619D01*
X7147381Y-18128619D02*
X7156905Y-18109571D01*
X7156905Y-18109571D02*
X7166429Y-18100048D01*
X7166429Y-18100048D02*
X7185476Y-18090524D01*
X7337857Y-18271476D02*
X7347381Y-18281000D01*
X7347381Y-18281000D02*
X7337857Y-18290524D01*
X7337857Y-18290524D02*
X7328333Y-18281000D01*
X7328333Y-18281000D02*
X7337857Y-18271476D01*
X7337857Y-18271476D02*
X7337857Y-18290524D01*
X7471191Y-18090524D02*
X7490238Y-18090524D01*
X7490238Y-18090524D02*
X7509286Y-18100048D01*
X7509286Y-18100048D02*
X7518810Y-18109571D01*
X7518810Y-18109571D02*
X7528333Y-18128619D01*
X7528333Y-18128619D02*
X7537857Y-18166714D01*
X7537857Y-18166714D02*
X7537857Y-18214333D01*
X7537857Y-18214333D02*
X7528333Y-18252429D01*
X7528333Y-18252429D02*
X7518810Y-18271476D01*
X7518810Y-18271476D02*
X7509286Y-18281000D01*
X7509286Y-18281000D02*
X7490238Y-18290524D01*
X7490238Y-18290524D02*
X7471191Y-18290524D01*
X7471191Y-18290524D02*
X7452143Y-18281000D01*
X7452143Y-18281000D02*
X7442619Y-18271476D01*
X7442619Y-18271476D02*
X7433095Y-18252429D01*
X7433095Y-18252429D02*
X7423572Y-18214333D01*
X7423572Y-18214333D02*
X7423572Y-18166714D01*
X7423572Y-18166714D02*
X7433095Y-18128619D01*
X7433095Y-18128619D02*
X7442619Y-18109571D01*
X7442619Y-18109571D02*
X7452143Y-18100048D01*
X7452143Y-18100048D02*
X7471191Y-18090524D01*
X7604524Y-18090524D02*
X7728333Y-18090524D01*
X7728333Y-18090524D02*
X7661667Y-18166714D01*
X7661667Y-18166714D02*
X7690238Y-18166714D01*
X7690238Y-18166714D02*
X7709286Y-18176238D01*
X7709286Y-18176238D02*
X7718810Y-18185762D01*
X7718810Y-18185762D02*
X7728333Y-18204810D01*
X7728333Y-18204810D02*
X7728333Y-18252429D01*
X7728333Y-18252429D02*
X7718810Y-18271476D01*
X7718810Y-18271476D02*
X7709286Y-18281000D01*
X7709286Y-18281000D02*
X7690238Y-18290524D01*
X7690238Y-18290524D02*
X7633095Y-18290524D01*
X7633095Y-18290524D02*
X7614048Y-18281000D01*
X7614048Y-18281000D02*
X7604524Y-18271476D01*
X7823572Y-18290524D02*
X7861667Y-18290524D01*
X7861667Y-18290524D02*
X7880714Y-18281000D01*
X7880714Y-18281000D02*
X7890238Y-18271476D01*
X7890238Y-18271476D02*
X7909286Y-18242905D01*
X7909286Y-18242905D02*
X7918810Y-18204810D01*
X7918810Y-18204810D02*
X7918810Y-18128619D01*
X7918810Y-18128619D02*
X7909286Y-18109571D01*
X7909286Y-18109571D02*
X7899762Y-18100048D01*
X7899762Y-18100048D02*
X7880714Y-18090524D01*
X7880714Y-18090524D02*
X7842619Y-18090524D01*
X7842619Y-18090524D02*
X7823572Y-18100048D01*
X7823572Y-18100048D02*
X7814048Y-18109571D01*
X7814048Y-18109571D02*
X7804524Y-18128619D01*
X7804524Y-18128619D02*
X7804524Y-18176238D01*
X7804524Y-18176238D02*
X7814048Y-18195286D01*
X7814048Y-18195286D02*
X7823572Y-18204810D01*
X7823572Y-18204810D02*
X7842619Y-18214333D01*
X7842619Y-18214333D02*
X7880714Y-18214333D01*
X7880714Y-18214333D02*
X7899762Y-18204810D01*
X7899762Y-18204810D02*
X7909286Y-18195286D01*
X7909286Y-18195286D02*
X7918810Y-18176238D01*
X8090238Y-18157190D02*
X8090238Y-18290524D01*
X8042619Y-18081000D02*
X7995000Y-18223857D01*
X7995000Y-18223857D02*
X8118810Y-18223857D01*
X8185476Y-18090524D02*
X8185476Y-18128619D01*
X8261667Y-18090524D02*
X8261667Y-18128619D01*
X8556905Y-18366714D02*
X8547381Y-18357190D01*
X8547381Y-18357190D02*
X8528334Y-18328619D01*
X8528334Y-18328619D02*
X8518810Y-18309571D01*
X8518810Y-18309571D02*
X8509286Y-18281000D01*
X8509286Y-18281000D02*
X8499762Y-18233381D01*
X8499762Y-18233381D02*
X8499762Y-18195286D01*
X8499762Y-18195286D02*
X8509286Y-18147667D01*
X8509286Y-18147667D02*
X8518810Y-18119095D01*
X8518810Y-18119095D02*
X8528334Y-18100048D01*
X8528334Y-18100048D02*
X8547381Y-18071476D01*
X8547381Y-18071476D02*
X8556905Y-18061952D01*
X8718810Y-18090524D02*
X8680715Y-18090524D01*
X8680715Y-18090524D02*
X8661667Y-18100048D01*
X8661667Y-18100048D02*
X8652143Y-18109571D01*
X8652143Y-18109571D02*
X8633096Y-18138143D01*
X8633096Y-18138143D02*
X8623572Y-18176238D01*
X8623572Y-18176238D02*
X8623572Y-18252429D01*
X8623572Y-18252429D02*
X8633096Y-18271476D01*
X8633096Y-18271476D02*
X8642619Y-18281000D01*
X8642619Y-18281000D02*
X8661667Y-18290524D01*
X8661667Y-18290524D02*
X8699762Y-18290524D01*
X8699762Y-18290524D02*
X8718810Y-18281000D01*
X8718810Y-18281000D02*
X8728334Y-18271476D01*
X8728334Y-18271476D02*
X8737857Y-18252429D01*
X8737857Y-18252429D02*
X8737857Y-18204810D01*
X8737857Y-18204810D02*
X8728334Y-18185762D01*
X8728334Y-18185762D02*
X8718810Y-18176238D01*
X8718810Y-18176238D02*
X8699762Y-18166714D01*
X8699762Y-18166714D02*
X8661667Y-18166714D01*
X8661667Y-18166714D02*
X8642619Y-18176238D01*
X8642619Y-18176238D02*
X8633096Y-18185762D01*
X8633096Y-18185762D02*
X8623572Y-18204810D01*
X8861667Y-18090524D02*
X8880715Y-18090524D01*
X8880715Y-18090524D02*
X8899762Y-18100048D01*
X8899762Y-18100048D02*
X8909286Y-18109571D01*
X8909286Y-18109571D02*
X8918810Y-18128619D01*
X8918810Y-18128619D02*
X8928334Y-18166714D01*
X8928334Y-18166714D02*
X8928334Y-18214333D01*
X8928334Y-18214333D02*
X8918810Y-18252429D01*
X8918810Y-18252429D02*
X8909286Y-18271476D01*
X8909286Y-18271476D02*
X8899762Y-18281000D01*
X8899762Y-18281000D02*
X8880715Y-18290524D01*
X8880715Y-18290524D02*
X8861667Y-18290524D01*
X8861667Y-18290524D02*
X8842619Y-18281000D01*
X8842619Y-18281000D02*
X8833096Y-18271476D01*
X8833096Y-18271476D02*
X8823572Y-18252429D01*
X8823572Y-18252429D02*
X8814048Y-18214333D01*
X8814048Y-18214333D02*
X8814048Y-18166714D01*
X8814048Y-18166714D02*
X8823572Y-18128619D01*
X8823572Y-18128619D02*
X8833096Y-18109571D01*
X8833096Y-18109571D02*
X8842619Y-18100048D01*
X8842619Y-18100048D02*
X8861667Y-18090524D01*
X9166429Y-18290524D02*
X9166429Y-18090524D01*
X9252143Y-18290524D02*
X9252143Y-18185762D01*
X9252143Y-18185762D02*
X9242619Y-18166714D01*
X9242619Y-18166714D02*
X9223572Y-18157190D01*
X9223572Y-18157190D02*
X9195000Y-18157190D01*
X9195000Y-18157190D02*
X9175953Y-18166714D01*
X9175953Y-18166714D02*
X9166429Y-18176238D01*
X9375953Y-18290524D02*
X9356905Y-18281000D01*
X9356905Y-18281000D02*
X9347381Y-18271476D01*
X9347381Y-18271476D02*
X9337858Y-18252429D01*
X9337858Y-18252429D02*
X9337858Y-18195286D01*
X9337858Y-18195286D02*
X9347381Y-18176238D01*
X9347381Y-18176238D02*
X9356905Y-18166714D01*
X9356905Y-18166714D02*
X9375953Y-18157190D01*
X9375953Y-18157190D02*
X9404524Y-18157190D01*
X9404524Y-18157190D02*
X9423572Y-18166714D01*
X9423572Y-18166714D02*
X9433096Y-18176238D01*
X9433096Y-18176238D02*
X9442619Y-18195286D01*
X9442619Y-18195286D02*
X9442619Y-18252429D01*
X9442619Y-18252429D02*
X9433096Y-18271476D01*
X9433096Y-18271476D02*
X9423572Y-18281000D01*
X9423572Y-18281000D02*
X9404524Y-18290524D01*
X9404524Y-18290524D02*
X9375953Y-18290524D01*
X9556905Y-18290524D02*
X9537858Y-18281000D01*
X9537858Y-18281000D02*
X9528334Y-18261952D01*
X9528334Y-18261952D02*
X9528334Y-18090524D01*
X9709286Y-18281000D02*
X9690239Y-18290524D01*
X9690239Y-18290524D02*
X9652143Y-18290524D01*
X9652143Y-18290524D02*
X9633096Y-18281000D01*
X9633096Y-18281000D02*
X9623572Y-18261952D01*
X9623572Y-18261952D02*
X9623572Y-18185762D01*
X9623572Y-18185762D02*
X9633096Y-18166714D01*
X9633096Y-18166714D02*
X9652143Y-18157190D01*
X9652143Y-18157190D02*
X9690239Y-18157190D01*
X9690239Y-18157190D02*
X9709286Y-18166714D01*
X9709286Y-18166714D02*
X9718810Y-18185762D01*
X9718810Y-18185762D02*
X9718810Y-18204810D01*
X9718810Y-18204810D02*
X9623572Y-18223857D01*
X9795000Y-18281000D02*
X9814048Y-18290524D01*
X9814048Y-18290524D02*
X9852143Y-18290524D01*
X9852143Y-18290524D02*
X9871191Y-18281000D01*
X9871191Y-18281000D02*
X9880715Y-18261952D01*
X9880715Y-18261952D02*
X9880715Y-18252429D01*
X9880715Y-18252429D02*
X9871191Y-18233381D01*
X9871191Y-18233381D02*
X9852143Y-18223857D01*
X9852143Y-18223857D02*
X9823572Y-18223857D01*
X9823572Y-18223857D02*
X9804524Y-18214333D01*
X9804524Y-18214333D02*
X9795000Y-18195286D01*
X9795000Y-18195286D02*
X9795000Y-18185762D01*
X9795000Y-18185762D02*
X9804524Y-18166714D01*
X9804524Y-18166714D02*
X9823572Y-18157190D01*
X9823572Y-18157190D02*
X9852143Y-18157190D01*
X9852143Y-18157190D02*
X9871191Y-18166714D01*
X9947381Y-18366714D02*
X9956905Y-18357190D01*
X9956905Y-18357190D02*
X9975953Y-18328619D01*
X9975953Y-18328619D02*
X9985477Y-18309571D01*
X9985477Y-18309571D02*
X9995000Y-18281000D01*
X9995000Y-18281000D02*
X10004524Y-18233381D01*
X10004524Y-18233381D02*
X10004524Y-18195286D01*
X10004524Y-18195286D02*
X9995000Y-18147667D01*
X9995000Y-18147667D02*
X9985477Y-18119095D01*
X9985477Y-18119095D02*
X9975953Y-18100048D01*
X9975953Y-18100048D02*
X9956905Y-18071476D01*
X9956905Y-18071476D02*
X9947381Y-18061952D01*
D14*
X4978891Y-18500891D02*
X4978891Y-18423109D01*
X4901109Y-18423109D01*
X4901109Y-18500891D01*
X4978891Y-18500891D01*
D11*
X5347381Y-18554524D02*
X5233095Y-18554524D01*
X5290238Y-18554524D02*
X5290238Y-18354524D01*
X5290238Y-18354524D02*
X5271190Y-18383095D01*
X5271190Y-18383095D02*
X5252143Y-18402143D01*
X5252143Y-18402143D02*
X5233095Y-18411667D01*
X5433095Y-18535476D02*
X5442619Y-18545000D01*
X5442619Y-18545000D02*
X5433095Y-18554524D01*
X5433095Y-18554524D02*
X5423571Y-18545000D01*
X5423571Y-18545000D02*
X5433095Y-18535476D01*
X5433095Y-18535476D02*
X5433095Y-18554524D01*
X5633095Y-18554524D02*
X5518810Y-18554524D01*
X5575952Y-18554524D02*
X5575952Y-18354524D01*
X5575952Y-18354524D02*
X5556905Y-18383095D01*
X5556905Y-18383095D02*
X5537857Y-18402143D01*
X5537857Y-18402143D02*
X5518810Y-18411667D01*
X5756905Y-18354524D02*
X5775952Y-18354524D01*
X5775952Y-18354524D02*
X5795000Y-18364048D01*
X5795000Y-18364048D02*
X5804524Y-18373571D01*
X5804524Y-18373571D02*
X5814048Y-18392619D01*
X5814048Y-18392619D02*
X5823571Y-18430714D01*
X5823571Y-18430714D02*
X5823571Y-18478333D01*
X5823571Y-18478333D02*
X5814048Y-18516429D01*
X5814048Y-18516429D02*
X5804524Y-18535476D01*
X5804524Y-18535476D02*
X5795000Y-18545000D01*
X5795000Y-18545000D02*
X5775952Y-18554524D01*
X5775952Y-18554524D02*
X5756905Y-18554524D01*
X5756905Y-18554524D02*
X5737857Y-18545000D01*
X5737857Y-18545000D02*
X5728333Y-18535476D01*
X5728333Y-18535476D02*
X5718809Y-18516429D01*
X5718809Y-18516429D02*
X5709286Y-18478333D01*
X5709286Y-18478333D02*
X5709286Y-18430714D01*
X5709286Y-18430714D02*
X5718809Y-18392619D01*
X5718809Y-18392619D02*
X5728333Y-18373571D01*
X5728333Y-18373571D02*
X5737857Y-18364048D01*
X5737857Y-18364048D02*
X5756905Y-18354524D01*
X5947381Y-18354524D02*
X5966429Y-18354524D01*
X5966429Y-18354524D02*
X5985476Y-18364048D01*
X5985476Y-18364048D02*
X5995000Y-18373571D01*
X5995000Y-18373571D02*
X6004524Y-18392619D01*
X6004524Y-18392619D02*
X6014048Y-18430714D01*
X6014048Y-18430714D02*
X6014048Y-18478333D01*
X6014048Y-18478333D02*
X6004524Y-18516429D01*
X6004524Y-18516429D02*
X5995000Y-18535476D01*
X5995000Y-18535476D02*
X5985476Y-18545000D01*
X5985476Y-18545000D02*
X5966429Y-18554524D01*
X5966429Y-18554524D02*
X5947381Y-18554524D01*
X5947381Y-18554524D02*
X5928333Y-18545000D01*
X5928333Y-18545000D02*
X5918809Y-18535476D01*
X5918809Y-18535476D02*
X5909286Y-18516429D01*
X5909286Y-18516429D02*
X5899762Y-18478333D01*
X5899762Y-18478333D02*
X5899762Y-18430714D01*
X5899762Y-18430714D02*
X5909286Y-18392619D01*
X5909286Y-18392619D02*
X5918809Y-18373571D01*
X5918809Y-18373571D02*
X5928333Y-18364048D01*
X5928333Y-18364048D02*
X5947381Y-18354524D01*
X6099762Y-18554524D02*
X6099762Y-18421190D01*
X6099762Y-18440238D02*
X6109286Y-18430714D01*
X6109286Y-18430714D02*
X6128333Y-18421190D01*
X6128333Y-18421190D02*
X6156905Y-18421190D01*
X6156905Y-18421190D02*
X6175952Y-18430714D01*
X6175952Y-18430714D02*
X6185476Y-18449762D01*
X6185476Y-18449762D02*
X6185476Y-18554524D01*
X6185476Y-18449762D02*
X6195000Y-18430714D01*
X6195000Y-18430714D02*
X6214048Y-18421190D01*
X6214048Y-18421190D02*
X6242619Y-18421190D01*
X6242619Y-18421190D02*
X6261667Y-18430714D01*
X6261667Y-18430714D02*
X6271190Y-18449762D01*
X6271190Y-18449762D02*
X6271190Y-18554524D01*
X6366429Y-18554524D02*
X6366429Y-18421190D01*
X6366429Y-18440238D02*
X6375952Y-18430714D01*
X6375952Y-18430714D02*
X6395000Y-18421190D01*
X6395000Y-18421190D02*
X6423571Y-18421190D01*
X6423571Y-18421190D02*
X6442619Y-18430714D01*
X6442619Y-18430714D02*
X6452143Y-18449762D01*
X6452143Y-18449762D02*
X6452143Y-18554524D01*
X6452143Y-18449762D02*
X6461667Y-18430714D01*
X6461667Y-18430714D02*
X6480714Y-18421190D01*
X6480714Y-18421190D02*
X6509286Y-18421190D01*
X6509286Y-18421190D02*
X6528333Y-18430714D01*
X6528333Y-18430714D02*
X6537857Y-18449762D01*
X6537857Y-18449762D02*
X6537857Y-18554524D01*
X6928333Y-18345000D02*
X6756905Y-18602143D01*
X7185476Y-18354524D02*
X7204524Y-18354524D01*
X7204524Y-18354524D02*
X7223572Y-18364048D01*
X7223572Y-18364048D02*
X7233095Y-18373571D01*
X7233095Y-18373571D02*
X7242619Y-18392619D01*
X7242619Y-18392619D02*
X7252143Y-18430714D01*
X7252143Y-18430714D02*
X7252143Y-18478333D01*
X7252143Y-18478333D02*
X7242619Y-18516429D01*
X7242619Y-18516429D02*
X7233095Y-18535476D01*
X7233095Y-18535476D02*
X7223572Y-18545000D01*
X7223572Y-18545000D02*
X7204524Y-18554524D01*
X7204524Y-18554524D02*
X7185476Y-18554524D01*
X7185476Y-18554524D02*
X7166429Y-18545000D01*
X7166429Y-18545000D02*
X7156905Y-18535476D01*
X7156905Y-18535476D02*
X7147381Y-18516429D01*
X7147381Y-18516429D02*
X7137857Y-18478333D01*
X7137857Y-18478333D02*
X7137857Y-18430714D01*
X7137857Y-18430714D02*
X7147381Y-18392619D01*
X7147381Y-18392619D02*
X7156905Y-18373571D01*
X7156905Y-18373571D02*
X7166429Y-18364048D01*
X7166429Y-18364048D02*
X7185476Y-18354524D01*
X7337857Y-18535476D02*
X7347381Y-18545000D01*
X7347381Y-18545000D02*
X7337857Y-18554524D01*
X7337857Y-18554524D02*
X7328333Y-18545000D01*
X7328333Y-18545000D02*
X7337857Y-18535476D01*
X7337857Y-18535476D02*
X7337857Y-18554524D01*
X7471191Y-18354524D02*
X7490238Y-18354524D01*
X7490238Y-18354524D02*
X7509286Y-18364048D01*
X7509286Y-18364048D02*
X7518810Y-18373571D01*
X7518810Y-18373571D02*
X7528333Y-18392619D01*
X7528333Y-18392619D02*
X7537857Y-18430714D01*
X7537857Y-18430714D02*
X7537857Y-18478333D01*
X7537857Y-18478333D02*
X7528333Y-18516429D01*
X7528333Y-18516429D02*
X7518810Y-18535476D01*
X7518810Y-18535476D02*
X7509286Y-18545000D01*
X7509286Y-18545000D02*
X7490238Y-18554524D01*
X7490238Y-18554524D02*
X7471191Y-18554524D01*
X7471191Y-18554524D02*
X7452143Y-18545000D01*
X7452143Y-18545000D02*
X7442619Y-18535476D01*
X7442619Y-18535476D02*
X7433095Y-18516429D01*
X7433095Y-18516429D02*
X7423572Y-18478333D01*
X7423572Y-18478333D02*
X7423572Y-18430714D01*
X7423572Y-18430714D02*
X7433095Y-18392619D01*
X7433095Y-18392619D02*
X7442619Y-18373571D01*
X7442619Y-18373571D02*
X7452143Y-18364048D01*
X7452143Y-18364048D02*
X7471191Y-18354524D01*
X7709286Y-18421190D02*
X7709286Y-18554524D01*
X7661667Y-18345000D02*
X7614048Y-18487857D01*
X7614048Y-18487857D02*
X7737857Y-18487857D01*
X7795000Y-18354524D02*
X7918810Y-18354524D01*
X7918810Y-18354524D02*
X7852143Y-18430714D01*
X7852143Y-18430714D02*
X7880714Y-18430714D01*
X7880714Y-18430714D02*
X7899762Y-18440238D01*
X7899762Y-18440238D02*
X7909286Y-18449762D01*
X7909286Y-18449762D02*
X7918810Y-18468810D01*
X7918810Y-18468810D02*
X7918810Y-18516429D01*
X7918810Y-18516429D02*
X7909286Y-18535476D01*
X7909286Y-18535476D02*
X7899762Y-18545000D01*
X7899762Y-18545000D02*
X7880714Y-18554524D01*
X7880714Y-18554524D02*
X7823572Y-18554524D01*
X7823572Y-18554524D02*
X7804524Y-18545000D01*
X7804524Y-18545000D02*
X7795000Y-18535476D01*
X7985476Y-18354524D02*
X8109286Y-18354524D01*
X8109286Y-18354524D02*
X8042619Y-18430714D01*
X8042619Y-18430714D02*
X8071191Y-18430714D01*
X8071191Y-18430714D02*
X8090238Y-18440238D01*
X8090238Y-18440238D02*
X8099762Y-18449762D01*
X8099762Y-18449762D02*
X8109286Y-18468810D01*
X8109286Y-18468810D02*
X8109286Y-18516429D01*
X8109286Y-18516429D02*
X8099762Y-18535476D01*
X8099762Y-18535476D02*
X8090238Y-18545000D01*
X8090238Y-18545000D02*
X8071191Y-18554524D01*
X8071191Y-18554524D02*
X8014048Y-18554524D01*
X8014048Y-18554524D02*
X7995000Y-18545000D01*
X7995000Y-18545000D02*
X7985476Y-18535476D01*
X8185476Y-18354524D02*
X8185476Y-18392619D01*
X8261667Y-18354524D02*
X8261667Y-18392619D01*
X8556905Y-18630714D02*
X8547381Y-18621190D01*
X8547381Y-18621190D02*
X8528334Y-18592619D01*
X8528334Y-18592619D02*
X8518810Y-18573571D01*
X8518810Y-18573571D02*
X8509286Y-18545000D01*
X8509286Y-18545000D02*
X8499762Y-18497381D01*
X8499762Y-18497381D02*
X8499762Y-18459286D01*
X8499762Y-18459286D02*
X8509286Y-18411667D01*
X8509286Y-18411667D02*
X8518810Y-18383095D01*
X8518810Y-18383095D02*
X8528334Y-18364048D01*
X8528334Y-18364048D02*
X8547381Y-18335476D01*
X8547381Y-18335476D02*
X8556905Y-18325952D01*
X8737857Y-18554524D02*
X8623572Y-18554524D01*
X8680715Y-18554524D02*
X8680715Y-18354524D01*
X8680715Y-18354524D02*
X8661667Y-18383095D01*
X8661667Y-18383095D02*
X8642619Y-18402143D01*
X8642619Y-18402143D02*
X8623572Y-18411667D01*
X8852143Y-18440238D02*
X8833096Y-18430714D01*
X8833096Y-18430714D02*
X8823572Y-18421190D01*
X8823572Y-18421190D02*
X8814048Y-18402143D01*
X8814048Y-18402143D02*
X8814048Y-18392619D01*
X8814048Y-18392619D02*
X8823572Y-18373571D01*
X8823572Y-18373571D02*
X8833096Y-18364048D01*
X8833096Y-18364048D02*
X8852143Y-18354524D01*
X8852143Y-18354524D02*
X8890238Y-18354524D01*
X8890238Y-18354524D02*
X8909286Y-18364048D01*
X8909286Y-18364048D02*
X8918810Y-18373571D01*
X8918810Y-18373571D02*
X8928334Y-18392619D01*
X8928334Y-18392619D02*
X8928334Y-18402143D01*
X8928334Y-18402143D02*
X8918810Y-18421190D01*
X8918810Y-18421190D02*
X8909286Y-18430714D01*
X8909286Y-18430714D02*
X8890238Y-18440238D01*
X8890238Y-18440238D02*
X8852143Y-18440238D01*
X8852143Y-18440238D02*
X8833096Y-18449762D01*
X8833096Y-18449762D02*
X8823572Y-18459286D01*
X8823572Y-18459286D02*
X8814048Y-18478333D01*
X8814048Y-18478333D02*
X8814048Y-18516429D01*
X8814048Y-18516429D02*
X8823572Y-18535476D01*
X8823572Y-18535476D02*
X8833096Y-18545000D01*
X8833096Y-18545000D02*
X8852143Y-18554524D01*
X8852143Y-18554524D02*
X8890238Y-18554524D01*
X8890238Y-18554524D02*
X8909286Y-18545000D01*
X8909286Y-18545000D02*
X8918810Y-18535476D01*
X8918810Y-18535476D02*
X8928334Y-18516429D01*
X8928334Y-18516429D02*
X8928334Y-18478333D01*
X8928334Y-18478333D02*
X8918810Y-18459286D01*
X8918810Y-18459286D02*
X8909286Y-18449762D01*
X8909286Y-18449762D02*
X8890238Y-18440238D01*
X9166429Y-18554524D02*
X9166429Y-18354524D01*
X9252143Y-18554524D02*
X9252143Y-18449762D01*
X9252143Y-18449762D02*
X9242619Y-18430714D01*
X9242619Y-18430714D02*
X9223572Y-18421190D01*
X9223572Y-18421190D02*
X9195000Y-18421190D01*
X9195000Y-18421190D02*
X9175953Y-18430714D01*
X9175953Y-18430714D02*
X9166429Y-18440238D01*
X9375953Y-18554524D02*
X9356905Y-18545000D01*
X9356905Y-18545000D02*
X9347381Y-18535476D01*
X9347381Y-18535476D02*
X9337858Y-18516429D01*
X9337858Y-18516429D02*
X9337858Y-18459286D01*
X9337858Y-18459286D02*
X9347381Y-18440238D01*
X9347381Y-18440238D02*
X9356905Y-18430714D01*
X9356905Y-18430714D02*
X9375953Y-18421190D01*
X9375953Y-18421190D02*
X9404524Y-18421190D01*
X9404524Y-18421190D02*
X9423572Y-18430714D01*
X9423572Y-18430714D02*
X9433096Y-18440238D01*
X9433096Y-18440238D02*
X9442619Y-18459286D01*
X9442619Y-18459286D02*
X9442619Y-18516429D01*
X9442619Y-18516429D02*
X9433096Y-18535476D01*
X9433096Y-18535476D02*
X9423572Y-18545000D01*
X9423572Y-18545000D02*
X9404524Y-18554524D01*
X9404524Y-18554524D02*
X9375953Y-18554524D01*
X9556905Y-18554524D02*
X9537858Y-18545000D01*
X9537858Y-18545000D02*
X9528334Y-18525952D01*
X9528334Y-18525952D02*
X9528334Y-18354524D01*
X9709286Y-18545000D02*
X9690239Y-18554524D01*
X9690239Y-18554524D02*
X9652143Y-18554524D01*
X9652143Y-18554524D02*
X9633096Y-18545000D01*
X9633096Y-18545000D02*
X9623572Y-18525952D01*
X9623572Y-18525952D02*
X9623572Y-18449762D01*
X9623572Y-18449762D02*
X9633096Y-18430714D01*
X9633096Y-18430714D02*
X9652143Y-18421190D01*
X9652143Y-18421190D02*
X9690239Y-18421190D01*
X9690239Y-18421190D02*
X9709286Y-18430714D01*
X9709286Y-18430714D02*
X9718810Y-18449762D01*
X9718810Y-18449762D02*
X9718810Y-18468810D01*
X9718810Y-18468810D02*
X9623572Y-18487857D01*
X9795000Y-18545000D02*
X9814048Y-18554524D01*
X9814048Y-18554524D02*
X9852143Y-18554524D01*
X9852143Y-18554524D02*
X9871191Y-18545000D01*
X9871191Y-18545000D02*
X9880715Y-18525952D01*
X9880715Y-18525952D02*
X9880715Y-18516429D01*
X9880715Y-18516429D02*
X9871191Y-18497381D01*
X9871191Y-18497381D02*
X9852143Y-18487857D01*
X9852143Y-18487857D02*
X9823572Y-18487857D01*
X9823572Y-18487857D02*
X9804524Y-18478333D01*
X9804524Y-18478333D02*
X9795000Y-18459286D01*
X9795000Y-18459286D02*
X9795000Y-18449762D01*
X9795000Y-18449762D02*
X9804524Y-18430714D01*
X9804524Y-18430714D02*
X9823572Y-18421190D01*
X9823572Y-18421190D02*
X9852143Y-18421190D01*
X9852143Y-18421190D02*
X9871191Y-18430714D01*
X9947381Y-18630714D02*
X9956905Y-18621190D01*
X9956905Y-18621190D02*
X9975953Y-18592619D01*
X9975953Y-18592619D02*
X9985477Y-18573571D01*
X9985477Y-18573571D02*
X9995000Y-18545000D01*
X9995000Y-18545000D02*
X10004524Y-18497381D01*
X10004524Y-18497381D02*
X10004524Y-18459286D01*
X10004524Y-18459286D02*
X9995000Y-18411667D01*
X9995000Y-18411667D02*
X9985477Y-18383095D01*
X9985477Y-18383095D02*
X9975953Y-18364048D01*
X9975953Y-18364048D02*
X9956905Y-18335476D01*
X9956905Y-18335476D02*
X9947381Y-18325952D01*
X4895000Y-18826000D02*
X4995000Y-18726000D01*
X4895000Y-18626000D01*
X4795000Y-18726000D01*
X4895000Y-18826000D01*
X5233095Y-18637571D02*
X5242619Y-18628048D01*
X5242619Y-18628048D02*
X5261667Y-18618524D01*
X5261667Y-18618524D02*
X5309286Y-18618524D01*
X5309286Y-18618524D02*
X5328333Y-18628048D01*
X5328333Y-18628048D02*
X5337857Y-18637571D01*
X5337857Y-18637571D02*
X5347381Y-18656619D01*
X5347381Y-18656619D02*
X5347381Y-18675667D01*
X5347381Y-18675667D02*
X5337857Y-18704238D01*
X5337857Y-18704238D02*
X5223571Y-18818524D01*
X5223571Y-18818524D02*
X5347381Y-18818524D01*
X5433095Y-18799476D02*
X5442619Y-18809000D01*
X5442619Y-18809000D02*
X5433095Y-18818524D01*
X5433095Y-18818524D02*
X5423571Y-18809000D01*
X5423571Y-18809000D02*
X5433095Y-18799476D01*
X5433095Y-18799476D02*
X5433095Y-18818524D01*
X5633095Y-18818524D02*
X5518810Y-18818524D01*
X5575952Y-18818524D02*
X5575952Y-18618524D01*
X5575952Y-18618524D02*
X5556905Y-18647095D01*
X5556905Y-18647095D02*
X5537857Y-18666143D01*
X5537857Y-18666143D02*
X5518810Y-18675667D01*
X5756905Y-18618524D02*
X5775952Y-18618524D01*
X5775952Y-18618524D02*
X5795000Y-18628048D01*
X5795000Y-18628048D02*
X5804524Y-18637571D01*
X5804524Y-18637571D02*
X5814048Y-18656619D01*
X5814048Y-18656619D02*
X5823571Y-18694714D01*
X5823571Y-18694714D02*
X5823571Y-18742333D01*
X5823571Y-18742333D02*
X5814048Y-18780429D01*
X5814048Y-18780429D02*
X5804524Y-18799476D01*
X5804524Y-18799476D02*
X5795000Y-18809000D01*
X5795000Y-18809000D02*
X5775952Y-18818524D01*
X5775952Y-18818524D02*
X5756905Y-18818524D01*
X5756905Y-18818524D02*
X5737857Y-18809000D01*
X5737857Y-18809000D02*
X5728333Y-18799476D01*
X5728333Y-18799476D02*
X5718809Y-18780429D01*
X5718809Y-18780429D02*
X5709286Y-18742333D01*
X5709286Y-18742333D02*
X5709286Y-18694714D01*
X5709286Y-18694714D02*
X5718809Y-18656619D01*
X5718809Y-18656619D02*
X5728333Y-18637571D01*
X5728333Y-18637571D02*
X5737857Y-18628048D01*
X5737857Y-18628048D02*
X5756905Y-18618524D01*
X5947381Y-18618524D02*
X5966429Y-18618524D01*
X5966429Y-18618524D02*
X5985476Y-18628048D01*
X5985476Y-18628048D02*
X5995000Y-18637571D01*
X5995000Y-18637571D02*
X6004524Y-18656619D01*
X6004524Y-18656619D02*
X6014048Y-18694714D01*
X6014048Y-18694714D02*
X6014048Y-18742333D01*
X6014048Y-18742333D02*
X6004524Y-18780429D01*
X6004524Y-18780429D02*
X5995000Y-18799476D01*
X5995000Y-18799476D02*
X5985476Y-18809000D01*
X5985476Y-18809000D02*
X5966429Y-18818524D01*
X5966429Y-18818524D02*
X5947381Y-18818524D01*
X5947381Y-18818524D02*
X5928333Y-18809000D01*
X5928333Y-18809000D02*
X5918809Y-18799476D01*
X5918809Y-18799476D02*
X5909286Y-18780429D01*
X5909286Y-18780429D02*
X5899762Y-18742333D01*
X5899762Y-18742333D02*
X5899762Y-18694714D01*
X5899762Y-18694714D02*
X5909286Y-18656619D01*
X5909286Y-18656619D02*
X5918809Y-18637571D01*
X5918809Y-18637571D02*
X5928333Y-18628048D01*
X5928333Y-18628048D02*
X5947381Y-18618524D01*
X6099762Y-18818524D02*
X6099762Y-18685190D01*
X6099762Y-18704238D02*
X6109286Y-18694714D01*
X6109286Y-18694714D02*
X6128333Y-18685190D01*
X6128333Y-18685190D02*
X6156905Y-18685190D01*
X6156905Y-18685190D02*
X6175952Y-18694714D01*
X6175952Y-18694714D02*
X6185476Y-18713762D01*
X6185476Y-18713762D02*
X6185476Y-18818524D01*
X6185476Y-18713762D02*
X6195000Y-18694714D01*
X6195000Y-18694714D02*
X6214048Y-18685190D01*
X6214048Y-18685190D02*
X6242619Y-18685190D01*
X6242619Y-18685190D02*
X6261667Y-18694714D01*
X6261667Y-18694714D02*
X6271190Y-18713762D01*
X6271190Y-18713762D02*
X6271190Y-18818524D01*
X6366429Y-18818524D02*
X6366429Y-18685190D01*
X6366429Y-18704238D02*
X6375952Y-18694714D01*
X6375952Y-18694714D02*
X6395000Y-18685190D01*
X6395000Y-18685190D02*
X6423571Y-18685190D01*
X6423571Y-18685190D02*
X6442619Y-18694714D01*
X6442619Y-18694714D02*
X6452143Y-18713762D01*
X6452143Y-18713762D02*
X6452143Y-18818524D01*
X6452143Y-18713762D02*
X6461667Y-18694714D01*
X6461667Y-18694714D02*
X6480714Y-18685190D01*
X6480714Y-18685190D02*
X6509286Y-18685190D01*
X6509286Y-18685190D02*
X6528333Y-18694714D01*
X6528333Y-18694714D02*
X6537857Y-18713762D01*
X6537857Y-18713762D02*
X6537857Y-18818524D01*
X6928333Y-18609000D02*
X6756905Y-18866143D01*
X7185476Y-18618524D02*
X7204524Y-18618524D01*
X7204524Y-18618524D02*
X7223572Y-18628048D01*
X7223572Y-18628048D02*
X7233095Y-18637571D01*
X7233095Y-18637571D02*
X7242619Y-18656619D01*
X7242619Y-18656619D02*
X7252143Y-18694714D01*
X7252143Y-18694714D02*
X7252143Y-18742333D01*
X7252143Y-18742333D02*
X7242619Y-18780429D01*
X7242619Y-18780429D02*
X7233095Y-18799476D01*
X7233095Y-18799476D02*
X7223572Y-18809000D01*
X7223572Y-18809000D02*
X7204524Y-18818524D01*
X7204524Y-18818524D02*
X7185476Y-18818524D01*
X7185476Y-18818524D02*
X7166429Y-18809000D01*
X7166429Y-18809000D02*
X7156905Y-18799476D01*
X7156905Y-18799476D02*
X7147381Y-18780429D01*
X7147381Y-18780429D02*
X7137857Y-18742333D01*
X7137857Y-18742333D02*
X7137857Y-18694714D01*
X7137857Y-18694714D02*
X7147381Y-18656619D01*
X7147381Y-18656619D02*
X7156905Y-18637571D01*
X7156905Y-18637571D02*
X7166429Y-18628048D01*
X7166429Y-18628048D02*
X7185476Y-18618524D01*
X7337857Y-18799476D02*
X7347381Y-18809000D01*
X7347381Y-18809000D02*
X7337857Y-18818524D01*
X7337857Y-18818524D02*
X7328333Y-18809000D01*
X7328333Y-18809000D02*
X7337857Y-18799476D01*
X7337857Y-18799476D02*
X7337857Y-18818524D01*
X7471191Y-18618524D02*
X7490238Y-18618524D01*
X7490238Y-18618524D02*
X7509286Y-18628048D01*
X7509286Y-18628048D02*
X7518810Y-18637571D01*
X7518810Y-18637571D02*
X7528333Y-18656619D01*
X7528333Y-18656619D02*
X7537857Y-18694714D01*
X7537857Y-18694714D02*
X7537857Y-18742333D01*
X7537857Y-18742333D02*
X7528333Y-18780429D01*
X7528333Y-18780429D02*
X7518810Y-18799476D01*
X7518810Y-18799476D02*
X7509286Y-18809000D01*
X7509286Y-18809000D02*
X7490238Y-18818524D01*
X7490238Y-18818524D02*
X7471191Y-18818524D01*
X7471191Y-18818524D02*
X7452143Y-18809000D01*
X7452143Y-18809000D02*
X7442619Y-18799476D01*
X7442619Y-18799476D02*
X7433095Y-18780429D01*
X7433095Y-18780429D02*
X7423572Y-18742333D01*
X7423572Y-18742333D02*
X7423572Y-18694714D01*
X7423572Y-18694714D02*
X7433095Y-18656619D01*
X7433095Y-18656619D02*
X7442619Y-18637571D01*
X7442619Y-18637571D02*
X7452143Y-18628048D01*
X7452143Y-18628048D02*
X7471191Y-18618524D01*
X7652143Y-18704238D02*
X7633095Y-18694714D01*
X7633095Y-18694714D02*
X7623572Y-18685190D01*
X7623572Y-18685190D02*
X7614048Y-18666143D01*
X7614048Y-18666143D02*
X7614048Y-18656619D01*
X7614048Y-18656619D02*
X7623572Y-18637571D01*
X7623572Y-18637571D02*
X7633095Y-18628048D01*
X7633095Y-18628048D02*
X7652143Y-18618524D01*
X7652143Y-18618524D02*
X7690238Y-18618524D01*
X7690238Y-18618524D02*
X7709286Y-18628048D01*
X7709286Y-18628048D02*
X7718810Y-18637571D01*
X7718810Y-18637571D02*
X7728333Y-18656619D01*
X7728333Y-18656619D02*
X7728333Y-18666143D01*
X7728333Y-18666143D02*
X7718810Y-18685190D01*
X7718810Y-18685190D02*
X7709286Y-18694714D01*
X7709286Y-18694714D02*
X7690238Y-18704238D01*
X7690238Y-18704238D02*
X7652143Y-18704238D01*
X7652143Y-18704238D02*
X7633095Y-18713762D01*
X7633095Y-18713762D02*
X7623572Y-18723286D01*
X7623572Y-18723286D02*
X7614048Y-18742333D01*
X7614048Y-18742333D02*
X7614048Y-18780429D01*
X7614048Y-18780429D02*
X7623572Y-18799476D01*
X7623572Y-18799476D02*
X7633095Y-18809000D01*
X7633095Y-18809000D02*
X7652143Y-18818524D01*
X7652143Y-18818524D02*
X7690238Y-18818524D01*
X7690238Y-18818524D02*
X7709286Y-18809000D01*
X7709286Y-18809000D02*
X7718810Y-18799476D01*
X7718810Y-18799476D02*
X7728333Y-18780429D01*
X7728333Y-18780429D02*
X7728333Y-18742333D01*
X7728333Y-18742333D02*
X7718810Y-18723286D01*
X7718810Y-18723286D02*
X7709286Y-18713762D01*
X7709286Y-18713762D02*
X7690238Y-18704238D01*
X7804524Y-18637571D02*
X7814048Y-18628048D01*
X7814048Y-18628048D02*
X7833095Y-18618524D01*
X7833095Y-18618524D02*
X7880714Y-18618524D01*
X7880714Y-18618524D02*
X7899762Y-18628048D01*
X7899762Y-18628048D02*
X7909286Y-18637571D01*
X7909286Y-18637571D02*
X7918810Y-18656619D01*
X7918810Y-18656619D02*
X7918810Y-18675667D01*
X7918810Y-18675667D02*
X7909286Y-18704238D01*
X7909286Y-18704238D02*
X7795000Y-18818524D01*
X7795000Y-18818524D02*
X7918810Y-18818524D01*
X7985476Y-18618524D02*
X8118810Y-18618524D01*
X8118810Y-18618524D02*
X8033095Y-18818524D01*
X8185476Y-18618524D02*
X8185476Y-18656619D01*
X8261667Y-18618524D02*
X8261667Y-18656619D01*
X8556905Y-18894714D02*
X8547381Y-18885190D01*
X8547381Y-18885190D02*
X8528334Y-18856619D01*
X8528334Y-18856619D02*
X8518810Y-18837571D01*
X8518810Y-18837571D02*
X8509286Y-18809000D01*
X8509286Y-18809000D02*
X8499762Y-18761381D01*
X8499762Y-18761381D02*
X8499762Y-18723286D01*
X8499762Y-18723286D02*
X8509286Y-18675667D01*
X8509286Y-18675667D02*
X8518810Y-18647095D01*
X8518810Y-18647095D02*
X8528334Y-18628048D01*
X8528334Y-18628048D02*
X8547381Y-18599476D01*
X8547381Y-18599476D02*
X8556905Y-18589952D01*
X8671191Y-18618524D02*
X8690238Y-18618524D01*
X8690238Y-18618524D02*
X8709286Y-18628048D01*
X8709286Y-18628048D02*
X8718810Y-18637571D01*
X8718810Y-18637571D02*
X8728334Y-18656619D01*
X8728334Y-18656619D02*
X8737857Y-18694714D01*
X8737857Y-18694714D02*
X8737857Y-18742333D01*
X8737857Y-18742333D02*
X8728334Y-18780429D01*
X8728334Y-18780429D02*
X8718810Y-18799476D01*
X8718810Y-18799476D02*
X8709286Y-18809000D01*
X8709286Y-18809000D02*
X8690238Y-18818524D01*
X8690238Y-18818524D02*
X8671191Y-18818524D01*
X8671191Y-18818524D02*
X8652143Y-18809000D01*
X8652143Y-18809000D02*
X8642619Y-18799476D01*
X8642619Y-18799476D02*
X8633096Y-18780429D01*
X8633096Y-18780429D02*
X8623572Y-18742333D01*
X8623572Y-18742333D02*
X8623572Y-18694714D01*
X8623572Y-18694714D02*
X8633096Y-18656619D01*
X8633096Y-18656619D02*
X8642619Y-18637571D01*
X8642619Y-18637571D02*
X8652143Y-18628048D01*
X8652143Y-18628048D02*
X8671191Y-18618524D01*
X8975953Y-18818524D02*
X8975953Y-18618524D01*
X9061667Y-18818524D02*
X9061667Y-18713762D01*
X9061667Y-18713762D02*
X9052143Y-18694714D01*
X9052143Y-18694714D02*
X9033096Y-18685190D01*
X9033096Y-18685190D02*
X9004524Y-18685190D01*
X9004524Y-18685190D02*
X8985477Y-18694714D01*
X8985477Y-18694714D02*
X8975953Y-18704238D01*
X9185477Y-18818524D02*
X9166429Y-18809000D01*
X9166429Y-18809000D02*
X9156905Y-18799476D01*
X9156905Y-18799476D02*
X9147381Y-18780429D01*
X9147381Y-18780429D02*
X9147381Y-18723286D01*
X9147381Y-18723286D02*
X9156905Y-18704238D01*
X9156905Y-18704238D02*
X9166429Y-18694714D01*
X9166429Y-18694714D02*
X9185477Y-18685190D01*
X9185477Y-18685190D02*
X9214048Y-18685190D01*
X9214048Y-18685190D02*
X9233096Y-18694714D01*
X9233096Y-18694714D02*
X9242619Y-18704238D01*
X9242619Y-18704238D02*
X9252143Y-18723286D01*
X9252143Y-18723286D02*
X9252143Y-18780429D01*
X9252143Y-18780429D02*
X9242619Y-18799476D01*
X9242619Y-18799476D02*
X9233096Y-18809000D01*
X9233096Y-18809000D02*
X9214048Y-18818524D01*
X9214048Y-18818524D02*
X9185477Y-18818524D01*
X9366429Y-18818524D02*
X9347381Y-18809000D01*
X9347381Y-18809000D02*
X9337858Y-18789952D01*
X9337858Y-18789952D02*
X9337858Y-18618524D01*
X9518810Y-18809000D02*
X9499762Y-18818524D01*
X9499762Y-18818524D02*
X9461667Y-18818524D01*
X9461667Y-18818524D02*
X9442619Y-18809000D01*
X9442619Y-18809000D02*
X9433096Y-18789952D01*
X9433096Y-18789952D02*
X9433096Y-18713762D01*
X9433096Y-18713762D02*
X9442619Y-18694714D01*
X9442619Y-18694714D02*
X9461667Y-18685190D01*
X9461667Y-18685190D02*
X9499762Y-18685190D01*
X9499762Y-18685190D02*
X9518810Y-18694714D01*
X9518810Y-18694714D02*
X9528334Y-18713762D01*
X9528334Y-18713762D02*
X9528334Y-18732810D01*
X9528334Y-18732810D02*
X9433096Y-18751857D01*
X9604524Y-18809000D02*
X9623572Y-18818524D01*
X9623572Y-18818524D02*
X9661667Y-18818524D01*
X9661667Y-18818524D02*
X9680715Y-18809000D01*
X9680715Y-18809000D02*
X9690239Y-18789952D01*
X9690239Y-18789952D02*
X9690239Y-18780429D01*
X9690239Y-18780429D02*
X9680715Y-18761381D01*
X9680715Y-18761381D02*
X9661667Y-18751857D01*
X9661667Y-18751857D02*
X9633096Y-18751857D01*
X9633096Y-18751857D02*
X9614048Y-18742333D01*
X9614048Y-18742333D02*
X9604524Y-18723286D01*
X9604524Y-18723286D02*
X9604524Y-18713762D01*
X9604524Y-18713762D02*
X9614048Y-18694714D01*
X9614048Y-18694714D02*
X9633096Y-18685190D01*
X9633096Y-18685190D02*
X9661667Y-18685190D01*
X9661667Y-18685190D02*
X9680715Y-18694714D01*
X9928334Y-18742333D02*
X10080715Y-18742333D01*
X10004524Y-18818524D02*
X10004524Y-18666143D01*
X10356905Y-18704238D02*
X10337858Y-18694714D01*
X10337858Y-18694714D02*
X10328334Y-18685190D01*
X10328334Y-18685190D02*
X10318810Y-18666143D01*
X10318810Y-18666143D02*
X10318810Y-18656619D01*
X10318810Y-18656619D02*
X10328334Y-18637571D01*
X10328334Y-18637571D02*
X10337858Y-18628048D01*
X10337858Y-18628048D02*
X10356905Y-18618524D01*
X10356905Y-18618524D02*
X10395001Y-18618524D01*
X10395001Y-18618524D02*
X10414048Y-18628048D01*
X10414048Y-18628048D02*
X10423572Y-18637571D01*
X10423572Y-18637571D02*
X10433096Y-18656619D01*
X10433096Y-18656619D02*
X10433096Y-18666143D01*
X10433096Y-18666143D02*
X10423572Y-18685190D01*
X10423572Y-18685190D02*
X10414048Y-18694714D01*
X10414048Y-18694714D02*
X10395001Y-18704238D01*
X10395001Y-18704238D02*
X10356905Y-18704238D01*
X10356905Y-18704238D02*
X10337858Y-18713762D01*
X10337858Y-18713762D02*
X10328334Y-18723286D01*
X10328334Y-18723286D02*
X10318810Y-18742333D01*
X10318810Y-18742333D02*
X10318810Y-18780429D01*
X10318810Y-18780429D02*
X10328334Y-18799476D01*
X10328334Y-18799476D02*
X10337858Y-18809000D01*
X10337858Y-18809000D02*
X10356905Y-18818524D01*
X10356905Y-18818524D02*
X10395001Y-18818524D01*
X10395001Y-18818524D02*
X10414048Y-18809000D01*
X10414048Y-18809000D02*
X10423572Y-18799476D01*
X10423572Y-18799476D02*
X10433096Y-18780429D01*
X10433096Y-18780429D02*
X10433096Y-18742333D01*
X10433096Y-18742333D02*
X10423572Y-18723286D01*
X10423572Y-18723286D02*
X10414048Y-18713762D01*
X10414048Y-18713762D02*
X10395001Y-18704238D01*
X10661667Y-18809000D02*
X10680715Y-18818524D01*
X10680715Y-18818524D02*
X10718810Y-18818524D01*
X10718810Y-18818524D02*
X10737858Y-18809000D01*
X10737858Y-18809000D02*
X10747382Y-18789952D01*
X10747382Y-18789952D02*
X10747382Y-18780429D01*
X10747382Y-18780429D02*
X10737858Y-18761381D01*
X10737858Y-18761381D02*
X10718810Y-18751857D01*
X10718810Y-18751857D02*
X10690239Y-18751857D01*
X10690239Y-18751857D02*
X10671191Y-18742333D01*
X10671191Y-18742333D02*
X10661667Y-18723286D01*
X10661667Y-18723286D02*
X10661667Y-18713762D01*
X10661667Y-18713762D02*
X10671191Y-18694714D01*
X10671191Y-18694714D02*
X10690239Y-18685190D01*
X10690239Y-18685190D02*
X10718810Y-18685190D01*
X10718810Y-18685190D02*
X10737858Y-18694714D01*
X10861667Y-18818524D02*
X10842620Y-18809000D01*
X10842620Y-18809000D02*
X10833096Y-18789952D01*
X10833096Y-18789952D02*
X10833096Y-18618524D01*
X10966429Y-18818524D02*
X10947382Y-18809000D01*
X10947382Y-18809000D02*
X10937858Y-18799476D01*
X10937858Y-18799476D02*
X10928334Y-18780429D01*
X10928334Y-18780429D02*
X10928334Y-18723286D01*
X10928334Y-18723286D02*
X10937858Y-18704238D01*
X10937858Y-18704238D02*
X10947382Y-18694714D01*
X10947382Y-18694714D02*
X10966429Y-18685190D01*
X10966429Y-18685190D02*
X10995001Y-18685190D01*
X10995001Y-18685190D02*
X11014048Y-18694714D01*
X11014048Y-18694714D02*
X11023572Y-18704238D01*
X11023572Y-18704238D02*
X11033096Y-18723286D01*
X11033096Y-18723286D02*
X11033096Y-18780429D01*
X11033096Y-18780429D02*
X11023572Y-18799476D01*
X11023572Y-18799476D02*
X11014048Y-18809000D01*
X11014048Y-18809000D02*
X10995001Y-18818524D01*
X10995001Y-18818524D02*
X10966429Y-18818524D01*
X11090239Y-18685190D02*
X11166429Y-18685190D01*
X11118810Y-18618524D02*
X11118810Y-18789952D01*
X11118810Y-18789952D02*
X11128334Y-18809000D01*
X11128334Y-18809000D02*
X11147382Y-18818524D01*
X11147382Y-18818524D02*
X11166429Y-18818524D01*
X11223572Y-18809000D02*
X11242620Y-18818524D01*
X11242620Y-18818524D02*
X11280715Y-18818524D01*
X11280715Y-18818524D02*
X11299762Y-18809000D01*
X11299762Y-18809000D02*
X11309286Y-18789952D01*
X11309286Y-18789952D02*
X11309286Y-18780429D01*
X11309286Y-18780429D02*
X11299762Y-18761381D01*
X11299762Y-18761381D02*
X11280715Y-18751857D01*
X11280715Y-18751857D02*
X11252143Y-18751857D01*
X11252143Y-18751857D02*
X11233096Y-18742333D01*
X11233096Y-18742333D02*
X11223572Y-18723286D01*
X11223572Y-18723286D02*
X11223572Y-18713762D01*
X11223572Y-18713762D02*
X11233096Y-18694714D01*
X11233096Y-18694714D02*
X11252143Y-18685190D01*
X11252143Y-18685190D02*
X11280715Y-18685190D01*
X11280715Y-18685190D02*
X11299762Y-18694714D01*
X11375953Y-18894714D02*
X11385477Y-18885190D01*
X11385477Y-18885190D02*
X11404524Y-18856619D01*
X11404524Y-18856619D02*
X11414048Y-18837571D01*
X11414048Y-18837571D02*
X11423572Y-18809000D01*
X11423572Y-18809000D02*
X11433096Y-18761381D01*
X11433096Y-18761381D02*
X11433096Y-18723286D01*
X11433096Y-18723286D02*
X11423572Y-18675667D01*
X11423572Y-18675667D02*
X11414048Y-18647095D01*
X11414048Y-18647095D02*
X11404524Y-18628048D01*
X11404524Y-18628048D02*
X11385477Y-18599476D01*
X11385477Y-18599476D02*
X11375953Y-18589952D01*
M02*
