M48
; DRILL file {KiCad 7.0.2} date Sun May 21 17:51:31 2023
; FORMAT={-:-/ absolute / inch / decimal}
; #@! TF.CreationDate,2023-05-21T17:51:31-07:00
; #@! TF.GenerationSoftware,Kicad,Pcbnew,7.0.2
; #@! TF.FileFunction,Plated,1,2,PTH
FMAT,2
INCH
; #@! TA.AperFunction,Plated,PTH,ViaDrill
T1C0.0157
; #@! TA.AperFunction,Plated,PTH,ComponentDrill
T2C0.0354
; #@! TA.AperFunction,Plated,PTH,ComponentDrill
T3C0.0394
; #@! TA.AperFunction,Plated,PTH,ComponentDrill
T4C0.0433
; #@! TA.AperFunction,Plated,PTH,ComponentDrill
T5C0.0827
%
G90
G05
T1
X2.3185Y-3.9533
X2.5185Y-4.0433
X2.5685Y-5.2433
X2.5985Y-3.8333
X2.6985Y-4.0333
X2.7585Y-6.2333
X2.7985Y-4.6733
X2.7985Y-4.8633
X2.8085Y-5.7633
X2.8885Y-6.5533
X2.9685Y-5.4695
X3.1435Y-3.2933
X3.2485Y-5.1333
X3.3485Y-2.8533
X3.3934Y-3.0934
X3.3935Y-3.5683
X3.5185Y-3.0433
X3.5185Y-3.1433
X3.6785Y-3.9233
X3.7685Y-3.0433
X3.82Y-5.23
X3.8785Y-3.8133
X4.25Y-5.625
X4.27Y-5.16
X4.27Y-6.17
X4.3585Y-4.5533
X4.3585Y-4.6533
X4.5385Y-4.5533
X4.5385Y-4.6533
X4.6735Y-4.3183
X4.8885Y-5.8533
T2
X2.5685Y-4.8933
X2.5685Y-4.9933
X3.1685Y-4.8933
X3.1685Y-4.9933
X3.7685Y-4.8933
X3.7685Y-4.9933
X4.3685Y-4.8933
X4.3685Y-4.9933
T3
X2.22Y-3.88
X2.22Y-3.98
X2.22Y-4.08
X2.22Y-4.18
X2.22Y-4.28
X2.22Y-4.38
X2.4929Y-2.5949
X2.4929Y-2.7917
X2.4929Y-3.3949
X2.4929Y-3.5917
X2.5685Y-4.1949
X2.5685Y-4.2933
X2.5685Y-4.3917
X2.6475Y-5.8449
X2.6475Y-5.9433
X2.6475Y-6.0417
X2.8201Y-5.2933
X2.9185Y-5.2933
X3.0169Y-5.2933
X3.0638Y-2.5949
X3.0638Y-2.6933
X3.0638Y-2.7917
X3.0638Y-3.3949
X3.0638Y-3.4933
X3.0638Y-3.5917
X3.1685Y-4.1949
X3.1685Y-4.2933
X3.1685Y-4.3917
X3.1985Y-5.8465
X3.1985Y-5.9449
X3.1985Y-6.0433
X3.7285Y-5.8633
X3.7285Y-5.9633
X3.7285Y-6.0633
X3.7685Y-4.1949
X3.7685Y-4.2933
X3.7685Y-4.3917
X3.8285Y-5.8633
X3.8285Y-5.9633
X3.8285Y-6.0633
X3.8732Y-2.5949
X3.8732Y-2.6933
X3.8732Y-2.7917
X3.8732Y-3.3949
X3.8732Y-3.4933
X3.8732Y-3.5917
X4.3685Y-4.1949
X4.3685Y-4.2933
X4.3685Y-4.3917
X4.4441Y-2.5949
X4.4441Y-2.7917
X4.4441Y-3.3949
X4.4441Y-3.5917
X4.7985Y-3.8133
X4.7985Y-3.9133
X4.7985Y-4.0133
X4.7985Y-4.1133
X4.8Y-4.32
X4.8Y-4.42
X4.8Y-4.52
T4
X2.3685Y-5.3965
X2.3685Y-5.7311
X2.3685Y-5.8492
X2.3685Y-6.1965
X2.3685Y-6.5311
X2.3685Y-6.6492
X3.4685Y-5.3965
X3.4685Y-5.7311
X3.4685Y-5.8492
X3.4685Y-6.1965
X3.4685Y-6.5311
X3.4685Y-6.6492
X4.5685Y-5.3965
X4.5685Y-5.7311
X4.5685Y-5.8492
X4.5685Y-6.1965
X4.5685Y-6.5311
X4.5685Y-6.6492
T5
G00X2.7567Y-2.4335
M15
G01X2.7803Y-2.4335
M16
G05
G00X2.7567Y-2.9531
M15
G01X2.7803Y-2.9531
M16
G05
G00X2.7567Y-3.2335
M15
G01X2.7803Y-3.2335
M16
G05
G00X2.7567Y-3.7531
M15
G01X2.7803Y-3.7531
M16
G05
G00X4.1803Y-2.4335
M15
G01X4.1567Y-2.4335
M16
G05
G00X4.1803Y-2.9531
M15
G01X4.1567Y-2.9531
M16
G05
G00X4.1803Y-3.2335
M15
G01X4.1567Y-3.2335
M16
G05
G00X4.1803Y-3.7531
M15
G01X4.1567Y-3.7531
M16
G05
T0
M30
