M48
; DRILL file {KiCad (6.0.11)} date Wed Apr  5 13:23:03 2023
; FORMAT={-:-/ absolute / inch / decimal}
; #@! TF.CreationDate,2023-04-05T13:23:03-07:00
; #@! TF.GenerationSoftware,Kicad,Pcbnew,(6.0.11)
; #@! TF.FileFunction,Plated,1,2,PTH
FMAT,2
INCH
; #@! TA.AperFunction,Plated,PTH,ViaDrill
T1C0.0157
; #@! TA.AperFunction,Plated,PTH,ComponentDrill
T2C0.0354
; #@! TA.AperFunction,Plated,PTH,ComponentDrill
T3C0.0394
; #@! TA.AperFunction,Plated,PTH,ComponentDrill
T4C0.0827
; #@! TA.AperFunction,Plated,PTH,ComponentDrill
T5C0.1260
%
G90
G05
T1
X2.5685Y-6.6685
X2.8885Y-4.4485
X3.1685Y-6.6685
X3.3385Y-4.2485
X3.3885Y-4.9685
X3.7185Y-4.5785
X3.7685Y-6.6685
X4.3685Y-4.5685
X4.3685Y-6.6685
X4.5718Y-4.6885
T2
X2.5685Y-6.2732
X2.5685Y-6.3732
X3.1685Y-6.2685
X3.1685Y-6.3685
X3.7685Y-6.2685
X3.7685Y-6.3685
X4.3685Y-6.2685
X4.3685Y-6.3685
T3
X2.1685Y-4.4685
X2.1685Y-4.5685
X2.1685Y-4.6685
X2.1685Y-4.7685
X2.1685Y-4.8685
X2.1685Y-4.9685
X2.4929Y-2.4701
X2.4929Y-2.6669
X2.4929Y-3.4701
X2.4929Y-3.6669
X2.5685Y-5.4701
X2.5685Y-5.5685
X2.5685Y-5.6669
X3.0638Y-2.4701
X3.0638Y-2.5685
X3.0638Y-2.6669
X3.0638Y-3.4701
X3.0638Y-3.5685
X3.0638Y-3.6669
X3.1685Y-5.4701
X3.1685Y-5.5685
X3.1685Y-5.6669
X3.7685Y-5.4701
X3.7685Y-5.5685
X3.7685Y-5.6669
X3.8732Y-2.4701
X3.8732Y-2.5685
X3.8732Y-2.6669
X3.8732Y-3.4701
X3.8732Y-3.5685
X3.8732Y-3.6669
X4.3685Y-5.4701
X4.3685Y-5.5685
X4.3685Y-5.6669
X4.4441Y-2.4701
X4.4441Y-2.6669
X4.4441Y-3.4701
X4.4441Y-3.6669
X4.781Y-4.5685
X4.781Y-4.6685
X4.781Y-4.7685
X4.781Y-4.8685
T5
X2.2618Y-2.0866
X2.2618Y-6.9066
X4.6618Y-2.0866
X4.6618Y-6.9094
T4
G00X2.7567Y-2.3087
M15
G01X2.7803Y-2.3087
M16
G05
G00X2.7567Y-2.8283
M15
G01X2.7803Y-2.8283
M16
G05
G00X2.7567Y-3.3087
M15
G01X2.7803Y-3.3087
M16
G05
G00X2.7567Y-3.8283
M15
G01X2.7803Y-3.8283
M16
G05
G00X4.1803Y-2.3087
M15
G01X4.1567Y-2.3087
M16
G05
G00X4.1803Y-2.8283
M15
G01X4.1567Y-2.8283
M16
G05
G00X4.1803Y-3.3087
M15
G01X4.1567Y-3.3087
M16
G05
G00X4.1803Y-3.8283
M15
G01X4.1567Y-3.8283
M16
G05
T0
M30
