%TF.GenerationSoftware,KiCad,Pcbnew,(6.0.10)*%
%TF.CreationDate,2023-03-01T09:57:49-08:00*%
%TF.ProjectId,IOBoard_ATSAMD21,494f426f-6172-4645-9f41-5453414d4432,rev?*%
%TF.SameCoordinates,Original*%
%TF.FileFunction,Soldermask,Bot*%
%TF.FilePolarity,Negative*%
%FSLAX46Y46*%
G04 Gerber Fmt 4.6, Leading zero omitted, Abs format (unit mm)*
G04 Created by KiCad (PCBNEW (6.0.10)) date 2023-03-01 09:57:49*
%MOMM*%
%LPD*%
G01*
G04 APERTURE LIST*
%ADD10R,1.700000X1.700000*%
%ADD11O,1.700000X1.700000*%
%ADD12R,1.800000X1.800000*%
%ADD13C,1.800000*%
%ADD14C,1.524000*%
%ADD15O,3.000000X2.900000*%
%ADD16C,4.400000*%
G04 APERTURE END LIST*
D10*
%TO.C,J1*%
X71000000Y-103020000D03*
D11*
X71000000Y-105560000D03*
X71000000Y-108100000D03*
X71000000Y-110640000D03*
X71000000Y-113180000D03*
X71000000Y-115720000D03*
%TD*%
D12*
%TO.C,D2*%
X94100000Y-149500000D03*
D13*
X94100000Y-146960000D03*
%TD*%
D14*
%TO.C,ENC3*%
X114850000Y-84000000D03*
X114850000Y-89000000D03*
X114850000Y-86500000D03*
X129350000Y-84000000D03*
X129350000Y-89000000D03*
D15*
X122350000Y-93100000D03*
X122350000Y-79900000D03*
%TD*%
D14*
%TO.C,ENC1*%
X77350000Y-56500000D03*
X77350000Y-61500000D03*
X77350000Y-59000000D03*
X91850000Y-56500000D03*
X91850000Y-61500000D03*
D15*
X84850000Y-65600000D03*
X84850000Y-52400000D03*
%TD*%
D16*
%TO.C,H4*%
X138000000Y-45000000D03*
%TD*%
D12*
%TO.C,D4*%
X124100000Y-149500000D03*
D13*
X124100000Y-146960000D03*
%TD*%
D14*
%TO.C,SW3*%
X111600000Y-130500000D03*
X111600000Y-128000000D03*
X111600000Y-133000000D03*
%TD*%
D16*
%TO.C,H1*%
X138000000Y-166000000D03*
%TD*%
D12*
%TO.C,D3*%
X111600000Y-149500000D03*
D13*
X111600000Y-146960000D03*
%TD*%
D14*
%TO.C,SW1*%
X81600000Y-130500000D03*
X81600000Y-128000000D03*
X81600000Y-133000000D03*
%TD*%
D16*
%TO.C,H2*%
X70000000Y-45000000D03*
%TD*%
D10*
%TO.C,J2*%
X137400000Y-101100000D03*
D11*
X137400000Y-103640000D03*
X137400000Y-106180000D03*
X137400000Y-108720000D03*
%TD*%
D14*
%TO.C,ENC0*%
X77350000Y-84000000D03*
X77350000Y-89000000D03*
X77350000Y-86500000D03*
X91850000Y-84000000D03*
X91850000Y-89000000D03*
D15*
X84850000Y-79900000D03*
X84850000Y-93100000D03*
%TD*%
D16*
%TO.C,H3*%
X69000000Y-167000000D03*
%TD*%
D14*
%TO.C,SW4*%
X124005000Y-130500000D03*
X124005000Y-128000000D03*
X124005000Y-133000000D03*
%TD*%
D12*
%TO.C,D1*%
X81600000Y-149500000D03*
D13*
X81600000Y-146960000D03*
%TD*%
D14*
%TO.C,SW2*%
X94005000Y-130500000D03*
X94005000Y-128000000D03*
X94005000Y-133000000D03*
%TD*%
%TO.C,ENC2*%
X114850000Y-56500000D03*
X114850000Y-61500000D03*
X114850000Y-59000000D03*
X129350000Y-56500000D03*
X129350000Y-61500000D03*
D15*
X122350000Y-65600000D03*
X122350000Y-52400000D03*
%TD*%
M02*
