%TF.GenerationSoftware,KiCad,Pcbnew,(6.0.11)*%
%TF.CreationDate,2023-02-27T19:33:52-08:00*%
%TF.ProjectId,IOBoard_ATSAMD21,494f426f-6172-4645-9f41-5453414d4432,rev?*%
%TF.SameCoordinates,Original*%
%TF.FileFunction,Drillmap*%
%TF.FilePolarity,Positive*%
%FSLAX45Y45*%
G04 Gerber Fmt 4.5, Leading zero omitted, Abs format (unit mm)*
G04 Created by KiCad (PCBNEW (6.0.11)) date 2023-02-27 19:33:52*
%MOMM*%
%LPD*%
G01*
G04 APERTURE LIST*
%ADD10C,0.100000*%
%ADD11C,0.200000*%
G04 APERTURE END LIST*
D10*
X6580000Y-4150000D02*
X14200000Y-4150000D01*
X14200000Y-4150000D02*
X14200000Y-17000000D01*
X14200000Y-17000000D02*
X6580000Y-17000000D01*
X6580000Y-17000000D02*
X6580000Y-4150000D01*
D11*
X6832619Y-17315476D02*
X6832619Y-17115476D01*
X6880238Y-17115476D01*
X6908809Y-17125000D01*
X6927857Y-17144048D01*
X6937381Y-17163095D01*
X6946905Y-17201190D01*
X6946905Y-17229762D01*
X6937381Y-17267857D01*
X6927857Y-17286905D01*
X6908809Y-17305952D01*
X6880238Y-17315476D01*
X6832619Y-17315476D01*
X7032619Y-17315476D02*
X7032619Y-17182143D01*
X7032619Y-17220238D02*
X7042143Y-17201190D01*
X7051667Y-17191667D01*
X7070714Y-17182143D01*
X7089762Y-17182143D01*
X7156428Y-17315476D02*
X7156428Y-17182143D01*
X7156428Y-17115476D02*
X7146905Y-17125000D01*
X7156428Y-17134524D01*
X7165952Y-17125000D01*
X7156428Y-17115476D01*
X7156428Y-17134524D01*
X7280238Y-17315476D02*
X7261190Y-17305952D01*
X7251667Y-17286905D01*
X7251667Y-17115476D01*
X7385000Y-17315476D02*
X7365952Y-17305952D01*
X7356428Y-17286905D01*
X7356428Y-17115476D01*
X7613571Y-17315476D02*
X7613571Y-17115476D01*
X7680238Y-17258333D01*
X7746905Y-17115476D01*
X7746905Y-17315476D01*
X7927857Y-17315476D02*
X7927857Y-17210714D01*
X7918333Y-17191667D01*
X7899286Y-17182143D01*
X7861190Y-17182143D01*
X7842143Y-17191667D01*
X7927857Y-17305952D02*
X7908809Y-17315476D01*
X7861190Y-17315476D01*
X7842143Y-17305952D01*
X7832619Y-17286905D01*
X7832619Y-17267857D01*
X7842143Y-17248810D01*
X7861190Y-17239286D01*
X7908809Y-17239286D01*
X7927857Y-17229762D01*
X8023095Y-17182143D02*
X8023095Y-17382143D01*
X8023095Y-17191667D02*
X8042143Y-17182143D01*
X8080238Y-17182143D01*
X8099286Y-17191667D01*
X8108809Y-17201190D01*
X8118333Y-17220238D01*
X8118333Y-17277381D01*
X8108809Y-17296429D01*
X8099286Y-17305952D01*
X8080238Y-17315476D01*
X8042143Y-17315476D01*
X8023095Y-17305952D01*
X8204048Y-17296429D02*
X8213571Y-17305952D01*
X8204048Y-17315476D01*
X8194524Y-17305952D01*
X8204048Y-17296429D01*
X8204048Y-17315476D01*
X8204048Y-17191667D02*
X8213571Y-17201190D01*
X8204048Y-17210714D01*
X8194524Y-17201190D01*
X8204048Y-17191667D01*
X8204048Y-17210714D01*
M02*
