M48
; DRILL file {KiCad (6.0.11)} date Mon Feb 27 19:33:49 2023
; FORMAT={-:-/ absolute / inch / decimal}
; #@! TF.CreationDate,2023-02-27T19:33:49-08:00
; #@! TF.GenerationSoftware,Kicad,Pcbnew,(6.0.11)
; #@! TF.FileFunction,Plated,1,2,PTH
FMAT,2
INCH
; #@! TA.AperFunction,Plated,PTH,ViaDrill
T1C0.0157
; #@! TA.AperFunction,Plated,PTH,ViaDrill
T2C0.0236
; #@! TA.AperFunction,Plated,PTH,ComponentDrill
T3C0.0354
; #@! TA.AperFunction,Plated,PTH,ComponentDrill
T4C0.0394
; #@! TA.AperFunction,Plated,PTH,ComponentDrill
T5C0.0827
%
G90
G05
T1
X2.9134Y-4.2559
X3.1929Y-3.4055
X3.2126Y-2.3228
X3.2126Y-5.9843
X3.7047Y-5.9843
X3.8189Y-4.0827
X3.9134Y-3.8465
X4.0492Y-4.3799
X4.3946Y-5.9854
X4.4016Y-4.0906
X4.6693Y-2.3228
X4.689Y-3.4055
X4.8858Y-5.9843
X5.0709Y-4.0197
X5.252Y-4.0433
T2
X3.6142Y-4.1535
X4.1057Y-4.5236
X5.5433Y-4.4528
T3
X3.2126Y-5.7858
X3.2126Y-5.8858
X3.7047Y-5.7858
X3.7047Y-5.8858
X4.3937Y-5.7858
X4.3937Y-5.8858
X4.8858Y-5.7858
X4.8858Y-5.8858
T4
X2.7953Y-4.0559
X2.7953Y-4.1559
X2.7953Y-4.2559
X2.7953Y-4.3559
X2.7953Y-4.4559
X2.7953Y-4.5559
X3.0453Y-2.2244
X3.0453Y-2.3228
X3.0453Y-2.4213
X3.0453Y-3.3071
X3.0453Y-3.4055
X3.0453Y-3.5039
X3.2126Y-5.0394
X3.2126Y-5.1378
X3.2126Y-5.2362
X3.6161Y-2.2244
X3.6161Y-2.4213
X3.6161Y-3.3071
X3.6161Y-3.5039
X3.701Y-5.0394
X3.701Y-5.1378
X3.701Y-5.2362
X4.3937Y-5.0394
X4.3937Y-5.1378
X4.3937Y-5.2362
X4.5217Y-2.2244
X4.5217Y-2.3228
X4.5217Y-2.4213
X4.5217Y-3.3071
X4.5217Y-3.4055
X4.5217Y-3.5039
X4.8821Y-5.0394
X4.8821Y-5.1378
X4.8821Y-5.2362
X5.0925Y-2.2244
X5.0925Y-2.4213
X5.0925Y-3.3071
X5.0925Y-3.5039
X5.4094Y-3.9803
X5.4094Y-4.0803
X5.4094Y-4.1803
X5.4094Y-4.2803
T5
G00X3.3425Y-2.063
M15
G01X3.3386Y-2.063
M16
G05
G00X3.3425Y-2.5827
M15
G01X3.3386Y-2.5827
M16
G05
G00X3.3425Y-3.1457
M15
G01X3.3386Y-3.1457
M16
G05
G00X3.3425Y-3.6654
M15
G01X3.3386Y-3.6654
M16
G05
G00X4.8189Y-2.063
M15
G01X4.815Y-2.063
M16
G05
G00X4.8189Y-2.5827
M15
G01X4.815Y-2.5827
M16
G05
G00X4.8189Y-3.1457
M15
G01X4.815Y-3.1457
M16
G05
G00X4.8189Y-3.6654
M15
G01X4.815Y-3.6654
M16
G05
T0
M30
