%TF.GenerationSoftware,KiCad,Pcbnew,(6.0.11)*%
%TF.CreationDate,2023-02-27T19:33:45-08:00*%
%TF.ProjectId,IOBoard_ATSAMD21,494f426f-6172-4645-9f41-5453414d4432,rev?*%
%TF.SameCoordinates,Original*%
%TF.FileFunction,Paste,Top*%
%TF.FilePolarity,Positive*%
%FSLAX46Y46*%
G04 Gerber Fmt 4.6, Leading zero omitted, Abs format (unit mm)*
G04 Created by KiCad (PCBNEW (6.0.11)) date 2023-02-27 19:33:45*
%MOMM*%
%LPD*%
G01*
G04 APERTURE LIST*
G04 Aperture macros list*
%AMRoundRect*
0 Rectangle with rounded corners*
0 $1 Rounding radius*
0 $2 $3 $4 $5 $6 $7 $8 $9 X,Y pos of 4 corners*
0 Add a 4 corners polygon primitive as box body*
4,1,4,$2,$3,$4,$5,$6,$7,$8,$9,$2,$3,0*
0 Add four circle primitives for the rounded corners*
1,1,$1+$1,$2,$3*
1,1,$1+$1,$4,$5*
1,1,$1+$1,$6,$7*
1,1,$1+$1,$8,$9*
0 Add four rect primitives between the rounded corners*
20,1,$1+$1,$2,$3,$4,$5,0*
20,1,$1+$1,$4,$5,$6,$7,0*
20,1,$1+$1,$6,$7,$8,$9,0*
20,1,$1+$1,$8,$9,$2,$3,0*%
G04 Aperture macros list end*
%ADD10RoundRect,0.200000X0.275000X-0.200000X0.275000X0.200000X-0.275000X0.200000X-0.275000X-0.200000X0*%
%ADD11RoundRect,0.075000X0.075000X-0.662500X0.075000X0.662500X-0.075000X0.662500X-0.075000X-0.662500X0*%
%ADD12RoundRect,0.075000X0.662500X-0.075000X0.662500X0.075000X-0.662500X0.075000X-0.662500X-0.075000X0*%
%ADD13RoundRect,0.079500X0.079500X0.100500X-0.079500X0.100500X-0.079500X-0.100500X0.079500X-0.100500X0*%
%ADD14RoundRect,0.079500X-0.100500X0.079500X-0.100500X-0.079500X0.100500X-0.079500X0.100500X0.079500X0*%
%ADD15RoundRect,0.079500X0.100500X-0.079500X0.100500X0.079500X-0.100500X0.079500X-0.100500X-0.079500X0*%
%ADD16RoundRect,0.200000X0.200000X0.275000X-0.200000X0.275000X-0.200000X-0.275000X0.200000X-0.275000X0*%
%ADD17RoundRect,0.150000X0.512500X0.150000X-0.512500X0.150000X-0.512500X-0.150000X0.512500X-0.150000X0*%
%ADD18RoundRect,0.079500X-0.079500X-0.100500X0.079500X-0.100500X0.079500X0.100500X-0.079500X0.100500X0*%
G04 APERTURE END LIST*
D10*
%TO.C,R9*%
X107600000Y-121215000D03*
X107600000Y-119565000D03*
%TD*%
%TO.C,R8*%
X105600000Y-121215000D03*
X105600000Y-119565000D03*
%TD*%
%TO.C,R7*%
X103600000Y-121215000D03*
X103600000Y-119565000D03*
%TD*%
%TO.C,R6*%
X101600000Y-121215000D03*
X101600000Y-119565000D03*
%TD*%
D11*
%TO.C,U1*%
X100850000Y-108662500D03*
X101350000Y-108662500D03*
X101850000Y-108662500D03*
X102350000Y-108662500D03*
X102850000Y-108662500D03*
X103350000Y-108662500D03*
X103850000Y-108662500D03*
X104350000Y-108662500D03*
X104850000Y-108662500D03*
X105350000Y-108662500D03*
X105850000Y-108662500D03*
X106350000Y-108662500D03*
D12*
X107762500Y-107250000D03*
X107762500Y-106750000D03*
X107762500Y-106250000D03*
X107762500Y-105750000D03*
X107762500Y-105250000D03*
X107762500Y-104750000D03*
X107762500Y-104250000D03*
X107762500Y-103750000D03*
X107762500Y-103250000D03*
X107762500Y-102750000D03*
X107762500Y-102250000D03*
X107762500Y-101750000D03*
D11*
X106350000Y-100337500D03*
X105850000Y-100337500D03*
X105350000Y-100337500D03*
X104850000Y-100337500D03*
X104350000Y-100337500D03*
X103850000Y-100337500D03*
X103350000Y-100337500D03*
X102850000Y-100337500D03*
X102350000Y-100337500D03*
X101850000Y-100337500D03*
X101350000Y-100337500D03*
X100850000Y-100337500D03*
D12*
X99437500Y-101750000D03*
X99437500Y-102250000D03*
X99437500Y-102750000D03*
X99437500Y-103250000D03*
X99437500Y-103750000D03*
X99437500Y-104250000D03*
X99437500Y-104750000D03*
X99437500Y-105250000D03*
X99437500Y-105750000D03*
X99437500Y-106250000D03*
X99437500Y-106750000D03*
X99437500Y-107250000D03*
%TD*%
D10*
%TO.C,R4*%
X124100000Y-142825000D03*
X124100000Y-141175000D03*
%TD*%
D13*
%TO.C,C6*%
X103515000Y-113300000D03*
X102825000Y-113300000D03*
%TD*%
D14*
%TO.C,C4*%
X110650000Y-104575000D03*
X110650000Y-105265000D03*
%TD*%
D15*
%TO.C,C10*%
X93750000Y-102755000D03*
X93750000Y-103445000D03*
%TD*%
D14*
%TO.C,C5*%
X133400000Y-101110000D03*
X133400000Y-101800000D03*
%TD*%
D16*
%TO.C,R5*%
X75225000Y-103100000D03*
X73575000Y-103100000D03*
%TD*%
D10*
%TO.C,R1*%
X81600000Y-142825000D03*
X81600000Y-141175000D03*
%TD*%
D17*
%TO.C,U2*%
X129937500Y-103000000D03*
X129937500Y-102050000D03*
X129937500Y-101100000D03*
X127662500Y-101100000D03*
X127662500Y-103000000D03*
%TD*%
D14*
%TO.C,C2*%
X95850000Y-103525000D03*
X95850000Y-102835000D03*
%TD*%
D10*
%TO.C,R2*%
X94100000Y-142825000D03*
X94100000Y-141175000D03*
%TD*%
D18*
%TO.C,C7*%
X102820000Y-112100000D03*
X103510000Y-112100000D03*
%TD*%
D15*
%TO.C,C8*%
X95500000Y-97755000D03*
X95500000Y-98445000D03*
%TD*%
D14*
%TO.C,C11*%
X92800000Y-102810000D03*
X92800000Y-103500000D03*
%TD*%
D10*
%TO.C,R3*%
X111600000Y-142825000D03*
X111600000Y-141175000D03*
%TD*%
D14*
%TO.C,C9*%
X96400000Y-98500000D03*
X96400000Y-97810000D03*
%TD*%
D15*
%TO.C,C3*%
X109800000Y-105245000D03*
X109800000Y-104555000D03*
%TD*%
D14*
%TO.C,C1*%
X94800000Y-102755000D03*
X94800000Y-103445000D03*
%TD*%
M02*
