%TF.GenerationSoftware,KiCad,Pcbnew,(6.0.11)*%
%TF.CreationDate,2023-02-27T19:33:52-08:00*%
%TF.ProjectId,IOBoard_ATSAMD21,494f426f-6172-4645-9f41-5453414d4432,rev?*%
%TF.SameCoordinates,Original*%
%TF.FileFunction,Drillmap*%
%TF.FilePolarity,Positive*%
%FSLAX45Y45*%
G04 Gerber Fmt 4.5, Leading zero omitted, Abs format (unit mm)*
G04 Created by KiCad (PCBNEW (6.0.11)) date 2023-02-27 19:33:52*
%MOMM*%
%LPD*%
G01*
G04 APERTURE LIST*
%ADD10C,0.100000*%
%ADD11C,0.200000*%
%ADD12C,0.040000*%
%ADD13C,0.060000*%
%ADD14C,0.090000*%
%ADD15C,0.210000*%
G04 APERTURE END LIST*
D10*
X6580000Y-4150000D02*
X14200000Y-4150000D01*
X14200000Y-4150000D02*
X14200000Y-17000000D01*
X14200000Y-17000000D02*
X6580000Y-17000000D01*
X6580000Y-17000000D02*
X6580000Y-4150000D01*
D11*
D12*
X7380000Y-10790000D02*
X7420000Y-10830000D01*
X7420000Y-10790000D02*
X7380000Y-10830000D01*
X8090000Y-8630000D02*
X8130000Y-8670000D01*
X8130000Y-8630000D02*
X8090000Y-8670000D01*
X8140000Y-5880000D02*
X8180000Y-5920000D01*
X8180000Y-5880000D02*
X8140000Y-5920000D01*
X8140000Y-15180000D02*
X8180000Y-15220000D01*
X8180000Y-15180000D02*
X8140000Y-15220000D01*
X9390000Y-15180000D02*
X9430000Y-15220000D01*
X9430000Y-15180000D02*
X9390000Y-15220000D01*
X9680000Y-10350000D02*
X9720000Y-10390000D01*
X9720000Y-10350000D02*
X9680000Y-10390000D01*
X9920000Y-9750000D02*
X9960000Y-9790000D01*
X9960000Y-9750000D02*
X9920000Y-9790000D01*
X10265000Y-11105000D02*
X10305000Y-11145000D01*
X10305000Y-11105000D02*
X10265000Y-11145000D01*
X11142262Y-15182836D02*
X11182262Y-15222836D01*
X11182262Y-15182836D02*
X11142262Y-15222836D01*
X11160000Y-10370000D02*
X11200000Y-10410000D01*
X11200000Y-10370000D02*
X11160000Y-10410000D01*
X11840000Y-5880000D02*
X11880000Y-5920000D01*
X11880000Y-5880000D02*
X11840000Y-5920000D01*
X11890000Y-8630000D02*
X11930000Y-8670000D01*
X11930000Y-8630000D02*
X11890000Y-8670000D01*
X12390000Y-15180000D02*
X12430000Y-15220000D01*
X12430000Y-15180000D02*
X12390000Y-15220000D01*
X12860000Y-10190000D02*
X12900000Y-10230000D01*
X12900000Y-10190000D02*
X12860000Y-10230000D01*
X13320000Y-10250000D02*
X13360000Y-10290000D01*
X13360000Y-10250000D02*
X13320000Y-10290000D01*
D13*
X9210000Y-10550000D02*
G75*
G03*
X9210000Y-10550000I-30000J0D01*
G01*
X10458500Y-11490000D02*
G75*
G03*
X10458500Y-11490000I-30000J0D01*
G01*
X14110000Y-11310000D02*
G75*
G03*
X14110000Y-11310000I-30000J0D01*
G01*
D14*
X8160000Y-14651000D02*
X8160000Y-14741000D01*
X8115000Y-14696000D02*
X8205000Y-14696000D01*
X8160000Y-14905000D02*
X8160000Y-14995000D01*
X8115000Y-14950000D02*
X8205000Y-14950000D01*
X9410000Y-14651000D02*
X9410000Y-14741000D01*
X9365000Y-14696000D02*
X9455000Y-14696000D01*
X9410000Y-14905000D02*
X9410000Y-14995000D01*
X9365000Y-14950000D02*
X9455000Y-14950000D01*
X11160000Y-14651000D02*
X11160000Y-14741000D01*
X11115000Y-14696000D02*
X11205000Y-14696000D01*
X11160000Y-14905000D02*
X11160000Y-14995000D01*
X11115000Y-14950000D02*
X11205000Y-14950000D01*
X12410000Y-14651000D02*
X12410000Y-14741000D01*
X12365000Y-14696000D02*
X12455000Y-14696000D01*
X12410000Y-14905000D02*
X12410000Y-14995000D01*
X12365000Y-14950000D02*
X12455000Y-14950000D01*
D10*
X7135356Y-10337356D02*
X7135356Y-10266644D01*
X7064644Y-10266644D01*
X7064644Y-10337356D01*
X7135356Y-10337356D01*
X7135356Y-10591356D02*
X7135356Y-10520644D01*
X7064644Y-10520644D01*
X7064644Y-10591356D01*
X7135356Y-10591356D01*
X7135356Y-10845356D02*
X7135356Y-10774644D01*
X7064644Y-10774644D01*
X7064644Y-10845356D01*
X7135356Y-10845356D01*
X7135356Y-11099356D02*
X7135356Y-11028644D01*
X7064644Y-11028644D01*
X7064644Y-11099356D01*
X7135356Y-11099356D01*
X7135356Y-11353356D02*
X7135356Y-11282644D01*
X7064644Y-11282644D01*
X7064644Y-11353356D01*
X7135356Y-11353356D01*
X7135356Y-11607356D02*
X7135356Y-11536644D01*
X7064644Y-11536644D01*
X7064644Y-11607356D01*
X7135356Y-11607356D01*
X7770356Y-5685356D02*
X7770356Y-5614644D01*
X7699644Y-5614644D01*
X7699644Y-5685356D01*
X7770356Y-5685356D01*
X7770356Y-5935356D02*
X7770356Y-5864644D01*
X7699644Y-5864644D01*
X7699644Y-5935356D01*
X7770356Y-5935356D01*
X7770356Y-6185356D02*
X7770356Y-6114644D01*
X7699644Y-6114644D01*
X7699644Y-6185356D01*
X7770356Y-6185356D01*
X7770356Y-8435356D02*
X7770356Y-8364644D01*
X7699644Y-8364644D01*
X7699644Y-8435356D01*
X7770356Y-8435356D01*
X7770356Y-8685356D02*
X7770356Y-8614644D01*
X7699644Y-8614644D01*
X7699644Y-8685356D01*
X7770356Y-8685356D01*
X7770356Y-8935356D02*
X7770356Y-8864644D01*
X7699644Y-8864644D01*
X7699644Y-8935356D01*
X7770356Y-8935356D01*
X8195356Y-12835356D02*
X8195356Y-12764644D01*
X8124644Y-12764644D01*
X8124644Y-12835356D01*
X8195356Y-12835356D01*
X8195356Y-13085356D02*
X8195356Y-13014644D01*
X8124644Y-13014644D01*
X8124644Y-13085356D01*
X8195356Y-13085356D01*
X8195356Y-13335356D02*
X8195356Y-13264644D01*
X8124644Y-13264644D01*
X8124644Y-13335356D01*
X8195356Y-13335356D01*
X9220356Y-5685356D02*
X9220356Y-5614644D01*
X9149644Y-5614644D01*
X9149644Y-5685356D01*
X9220356Y-5685356D01*
X9220356Y-6185356D02*
X9220356Y-6114644D01*
X9149644Y-6114644D01*
X9149644Y-6185356D01*
X9220356Y-6185356D01*
X9220356Y-8435356D02*
X9220356Y-8364644D01*
X9149644Y-8364644D01*
X9149644Y-8435356D01*
X9220356Y-8435356D01*
X9220356Y-8935356D02*
X9220356Y-8864644D01*
X9149644Y-8864644D01*
X9149644Y-8935356D01*
X9220356Y-8935356D01*
X9435856Y-12835356D02*
X9435856Y-12764644D01*
X9365144Y-12764644D01*
X9365144Y-12835356D01*
X9435856Y-12835356D01*
X9435856Y-13085356D02*
X9435856Y-13014644D01*
X9365144Y-13014644D01*
X9365144Y-13085356D01*
X9435856Y-13085356D01*
X9435856Y-13335356D02*
X9435856Y-13264644D01*
X9365144Y-13264644D01*
X9365144Y-13335356D01*
X9435856Y-13335356D01*
X11195356Y-12835356D02*
X11195356Y-12764644D01*
X11124644Y-12764644D01*
X11124644Y-12835356D01*
X11195356Y-12835356D01*
X11195356Y-13085356D02*
X11195356Y-13014644D01*
X11124644Y-13014644D01*
X11124644Y-13085356D01*
X11195356Y-13085356D01*
X11195356Y-13335356D02*
X11195356Y-13264644D01*
X11124644Y-13264644D01*
X11124644Y-13335356D01*
X11195356Y-13335356D01*
X11520356Y-5685356D02*
X11520356Y-5614644D01*
X11449644Y-5614644D01*
X11449644Y-5685356D01*
X11520356Y-5685356D01*
X11520356Y-5935356D02*
X11520356Y-5864644D01*
X11449644Y-5864644D01*
X11449644Y-5935356D01*
X11520356Y-5935356D01*
X11520356Y-6185356D02*
X11520356Y-6114644D01*
X11449644Y-6114644D01*
X11449644Y-6185356D01*
X11520356Y-6185356D01*
X11520356Y-8435356D02*
X11520356Y-8364644D01*
X11449644Y-8364644D01*
X11449644Y-8435356D01*
X11520356Y-8435356D01*
X11520356Y-8685356D02*
X11520356Y-8614644D01*
X11449644Y-8614644D01*
X11449644Y-8685356D01*
X11520356Y-8685356D01*
X11520356Y-8935356D02*
X11520356Y-8864644D01*
X11449644Y-8864644D01*
X11449644Y-8935356D01*
X11520356Y-8935356D01*
X12435856Y-12835356D02*
X12435856Y-12764644D01*
X12365144Y-12764644D01*
X12365144Y-12835356D01*
X12435856Y-12835356D01*
X12435856Y-13085356D02*
X12435856Y-13014644D01*
X12365144Y-13014644D01*
X12365144Y-13085356D01*
X12435856Y-13085356D01*
X12435856Y-13335356D02*
X12435856Y-13264644D01*
X12365144Y-13264644D01*
X12365144Y-13335356D01*
X12435856Y-13335356D01*
X12970356Y-5685356D02*
X12970356Y-5614644D01*
X12899644Y-5614644D01*
X12899644Y-5685356D01*
X12970356Y-5685356D01*
X12970356Y-6185356D02*
X12970356Y-6114644D01*
X12899644Y-6114644D01*
X12899644Y-6185356D01*
X12970356Y-6185356D01*
X12970356Y-8435356D02*
X12970356Y-8364644D01*
X12899644Y-8364644D01*
X12899644Y-8435356D01*
X12970356Y-8435356D01*
X12970356Y-8935356D02*
X12970356Y-8864644D01*
X12899644Y-8864644D01*
X12899644Y-8935356D01*
X12970356Y-8935356D01*
X13775356Y-10145356D02*
X13775356Y-10074644D01*
X13704644Y-10074644D01*
X13704644Y-10145356D01*
X13775356Y-10145356D01*
X13775356Y-10399356D02*
X13775356Y-10328644D01*
X13704644Y-10328644D01*
X13704644Y-10399356D01*
X13775356Y-10399356D01*
X13775356Y-10653356D02*
X13775356Y-10582644D01*
X13704644Y-10582644D01*
X13704644Y-10653356D01*
X13775356Y-10653356D01*
X13775356Y-10907356D02*
X13775356Y-10836644D01*
X13704644Y-10836644D01*
X13704644Y-10907356D01*
X13775356Y-10907356D01*
D15*
X8485000Y-5345000D02*
X8590000Y-5240000D01*
X8485000Y-5135000D01*
X8380000Y-5240000D01*
X8485000Y-5345000D01*
D11*
X8490000Y-5135000D02*
X8480000Y-5135000D01*
X8490000Y-5345000D02*
X8480000Y-5345000D01*
X8480000Y-5135000D02*
G75*
G03*
X8480000Y-5345000I0J-105000D01*
G01*
X8490000Y-5345000D02*
G75*
G03*
X8490000Y-5135000I0J105000D01*
G01*
D15*
X8485000Y-6665000D02*
X8590000Y-6560000D01*
X8485000Y-6455000D01*
X8380000Y-6560000D01*
X8485000Y-6665000D01*
D11*
X8490000Y-6455000D02*
X8480000Y-6455000D01*
X8490000Y-6665000D02*
X8480000Y-6665000D01*
X8480000Y-6455000D02*
G75*
G03*
X8480000Y-6665000I0J-105000D01*
G01*
X8490000Y-6665000D02*
G75*
G03*
X8490000Y-6455000I0J105000D01*
G01*
D15*
X8485000Y-8095000D02*
X8590000Y-7990000D01*
X8485000Y-7885000D01*
X8380000Y-7990000D01*
X8485000Y-8095000D01*
D11*
X8490000Y-7885000D02*
X8480000Y-7885000D01*
X8490000Y-8095000D02*
X8480000Y-8095000D01*
X8480000Y-7885000D02*
G75*
G03*
X8480000Y-8095000I0J-105000D01*
G01*
X8490000Y-8095000D02*
G75*
G03*
X8490000Y-7885000I0J105000D01*
G01*
D15*
X8485000Y-9415000D02*
X8590000Y-9310000D01*
X8485000Y-9205000D01*
X8380000Y-9310000D01*
X8485000Y-9415000D01*
D11*
X8490000Y-9205000D02*
X8480000Y-9205000D01*
X8490000Y-9415000D02*
X8480000Y-9415000D01*
X8480000Y-9205000D02*
G75*
G03*
X8480000Y-9415000I0J-105000D01*
G01*
X8490000Y-9415000D02*
G75*
G03*
X8490000Y-9205000I0J105000D01*
G01*
D15*
X12235000Y-5345000D02*
X12340000Y-5240000D01*
X12235000Y-5135000D01*
X12130000Y-5240000D01*
X12235000Y-5345000D01*
D11*
X12240000Y-5135000D02*
X12230000Y-5135000D01*
X12240000Y-5345000D02*
X12230000Y-5345000D01*
X12230000Y-5135000D02*
G75*
G03*
X12230000Y-5345000I0J-105000D01*
G01*
X12240000Y-5345000D02*
G75*
G03*
X12240000Y-5135000I0J105000D01*
G01*
D15*
X12235000Y-6665000D02*
X12340000Y-6560000D01*
X12235000Y-6455000D01*
X12130000Y-6560000D01*
X12235000Y-6665000D01*
D11*
X12240000Y-6455000D02*
X12230000Y-6455000D01*
X12240000Y-6665000D02*
X12230000Y-6665000D01*
X12230000Y-6455000D02*
G75*
G03*
X12230000Y-6665000I0J-105000D01*
G01*
X12240000Y-6665000D02*
G75*
G03*
X12240000Y-6455000I0J105000D01*
G01*
D15*
X12235000Y-8095000D02*
X12340000Y-7990000D01*
X12235000Y-7885000D01*
X12130000Y-7990000D01*
X12235000Y-8095000D01*
D11*
X12240000Y-7885000D02*
X12230000Y-7885000D01*
X12240000Y-8095000D02*
X12230000Y-8095000D01*
X12230000Y-7885000D02*
G75*
G03*
X12230000Y-8095000I0J-105000D01*
G01*
X12240000Y-8095000D02*
G75*
G03*
X12240000Y-7885000I0J105000D01*
G01*
D15*
X12235000Y-9415000D02*
X12340000Y-9310000D01*
X12235000Y-9205000D01*
X12130000Y-9310000D01*
X12235000Y-9415000D01*
D11*
X12240000Y-9205000D02*
X12230000Y-9205000D01*
X12240000Y-9415000D02*
X12230000Y-9415000D01*
X12230000Y-9205000D02*
G75*
G03*
X12230000Y-9415000I0J-105000D01*
G01*
X12240000Y-9415000D02*
G75*
G03*
X12240000Y-9205000I0J105000D01*
G01*
X6832619Y-17315476D02*
X6832619Y-17115476D01*
X6880238Y-17115476D01*
X6908809Y-17125000D01*
X6927857Y-17144048D01*
X6937381Y-17163095D01*
X6946905Y-17201190D01*
X6946905Y-17229762D01*
X6937381Y-17267857D01*
X6927857Y-17286905D01*
X6908809Y-17305952D01*
X6880238Y-17315476D01*
X6832619Y-17315476D01*
X7032619Y-17315476D02*
X7032619Y-17182143D01*
X7032619Y-17220238D02*
X7042143Y-17201190D01*
X7051667Y-17191667D01*
X7070714Y-17182143D01*
X7089762Y-17182143D01*
X7156428Y-17315476D02*
X7156428Y-17182143D01*
X7156428Y-17115476D02*
X7146905Y-17125000D01*
X7156428Y-17134524D01*
X7165952Y-17125000D01*
X7156428Y-17115476D01*
X7156428Y-17134524D01*
X7280238Y-17315476D02*
X7261190Y-17305952D01*
X7251667Y-17286905D01*
X7251667Y-17115476D01*
X7385000Y-17315476D02*
X7365952Y-17305952D01*
X7356428Y-17286905D01*
X7356428Y-17115476D01*
X7613571Y-17315476D02*
X7613571Y-17115476D01*
X7680238Y-17258333D01*
X7746905Y-17115476D01*
X7746905Y-17315476D01*
X7927857Y-17315476D02*
X7927857Y-17210714D01*
X7918333Y-17191667D01*
X7899286Y-17182143D01*
X7861190Y-17182143D01*
X7842143Y-17191667D01*
X7927857Y-17305952D02*
X7908809Y-17315476D01*
X7861190Y-17315476D01*
X7842143Y-17305952D01*
X7832619Y-17286905D01*
X7832619Y-17267857D01*
X7842143Y-17248810D01*
X7861190Y-17239286D01*
X7908809Y-17239286D01*
X7927857Y-17229762D01*
X8023095Y-17182143D02*
X8023095Y-17382143D01*
X8023095Y-17191667D02*
X8042143Y-17182143D01*
X8080238Y-17182143D01*
X8099286Y-17191667D01*
X8108809Y-17201190D01*
X8118333Y-17220238D01*
X8118333Y-17277381D01*
X8108809Y-17296429D01*
X8099286Y-17305952D01*
X8080238Y-17315476D01*
X8042143Y-17315476D01*
X8023095Y-17305952D01*
X8204048Y-17296429D02*
X8213571Y-17305952D01*
X8204048Y-17315476D01*
X8194524Y-17305952D01*
X8204048Y-17296429D01*
X8204048Y-17315476D01*
X8204048Y-17191667D02*
X8213571Y-17201190D01*
X8204048Y-17210714D01*
X8194524Y-17201190D01*
X8204048Y-17191667D01*
X8204048Y-17210714D01*
D12*
X6535000Y-17625000D02*
X6575000Y-17665000D01*
X6575000Y-17625000D02*
X6535000Y-17665000D01*
D11*
X6870714Y-17535476D02*
X6889762Y-17535476D01*
X6908809Y-17545000D01*
X6918333Y-17554524D01*
X6927857Y-17573571D01*
X6937381Y-17611667D01*
X6937381Y-17659286D01*
X6927857Y-17697381D01*
X6918333Y-17716429D01*
X6908809Y-17725952D01*
X6889762Y-17735476D01*
X6870714Y-17735476D01*
X6851667Y-17725952D01*
X6842143Y-17716429D01*
X6832619Y-17697381D01*
X6823095Y-17659286D01*
X6823095Y-17611667D01*
X6832619Y-17573571D01*
X6842143Y-17554524D01*
X6851667Y-17545000D01*
X6870714Y-17535476D01*
X7023095Y-17716429D02*
X7032619Y-17725952D01*
X7023095Y-17735476D01*
X7013571Y-17725952D01*
X7023095Y-17716429D01*
X7023095Y-17735476D01*
X7204048Y-17602143D02*
X7204048Y-17735476D01*
X7156428Y-17525952D02*
X7108809Y-17668810D01*
X7232619Y-17668810D01*
X7346905Y-17535476D02*
X7365952Y-17535476D01*
X7385000Y-17545000D01*
X7394524Y-17554524D01*
X7404048Y-17573571D01*
X7413571Y-17611667D01*
X7413571Y-17659286D01*
X7404048Y-17697381D01*
X7394524Y-17716429D01*
X7385000Y-17725952D01*
X7365952Y-17735476D01*
X7346905Y-17735476D01*
X7327857Y-17725952D01*
X7318333Y-17716429D01*
X7308809Y-17697381D01*
X7299286Y-17659286D01*
X7299286Y-17611667D01*
X7308809Y-17573571D01*
X7318333Y-17554524D01*
X7327857Y-17545000D01*
X7346905Y-17535476D01*
X7537381Y-17535476D02*
X7556428Y-17535476D01*
X7575476Y-17545000D01*
X7585000Y-17554524D01*
X7594524Y-17573571D01*
X7604048Y-17611667D01*
X7604048Y-17659286D01*
X7594524Y-17697381D01*
X7585000Y-17716429D01*
X7575476Y-17725952D01*
X7556428Y-17735476D01*
X7537381Y-17735476D01*
X7518333Y-17725952D01*
X7508809Y-17716429D01*
X7499286Y-17697381D01*
X7489762Y-17659286D01*
X7489762Y-17611667D01*
X7499286Y-17573571D01*
X7508809Y-17554524D01*
X7518333Y-17545000D01*
X7537381Y-17535476D01*
X7689762Y-17735476D02*
X7689762Y-17602143D01*
X7689762Y-17621190D02*
X7699286Y-17611667D01*
X7718333Y-17602143D01*
X7746905Y-17602143D01*
X7765952Y-17611667D01*
X7775476Y-17630714D01*
X7775476Y-17735476D01*
X7775476Y-17630714D02*
X7785000Y-17611667D01*
X7804048Y-17602143D01*
X7832619Y-17602143D01*
X7851667Y-17611667D01*
X7861190Y-17630714D01*
X7861190Y-17735476D01*
X7956428Y-17735476D02*
X7956428Y-17602143D01*
X7956428Y-17621190D02*
X7965952Y-17611667D01*
X7985000Y-17602143D01*
X8013571Y-17602143D01*
X8032619Y-17611667D01*
X8042143Y-17630714D01*
X8042143Y-17735476D01*
X8042143Y-17630714D02*
X8051667Y-17611667D01*
X8070714Y-17602143D01*
X8099286Y-17602143D01*
X8118333Y-17611667D01*
X8127857Y-17630714D01*
X8127857Y-17735476D01*
X8518333Y-17525952D02*
X8346905Y-17783095D01*
X8775476Y-17535476D02*
X8794524Y-17535476D01*
X8813571Y-17545000D01*
X8823095Y-17554524D01*
X8832619Y-17573571D01*
X8842143Y-17611667D01*
X8842143Y-17659286D01*
X8832619Y-17697381D01*
X8823095Y-17716429D01*
X8813571Y-17725952D01*
X8794524Y-17735476D01*
X8775476Y-17735476D01*
X8756429Y-17725952D01*
X8746905Y-17716429D01*
X8737381Y-17697381D01*
X8727857Y-17659286D01*
X8727857Y-17611667D01*
X8737381Y-17573571D01*
X8746905Y-17554524D01*
X8756429Y-17545000D01*
X8775476Y-17535476D01*
X8927857Y-17716429D02*
X8937381Y-17725952D01*
X8927857Y-17735476D01*
X8918333Y-17725952D01*
X8927857Y-17716429D01*
X8927857Y-17735476D01*
X9061190Y-17535476D02*
X9080238Y-17535476D01*
X9099286Y-17545000D01*
X9108810Y-17554524D01*
X9118333Y-17573571D01*
X9127857Y-17611667D01*
X9127857Y-17659286D01*
X9118333Y-17697381D01*
X9108810Y-17716429D01*
X9099286Y-17725952D01*
X9080238Y-17735476D01*
X9061190Y-17735476D01*
X9042143Y-17725952D01*
X9032619Y-17716429D01*
X9023095Y-17697381D01*
X9013571Y-17659286D01*
X9013571Y-17611667D01*
X9023095Y-17573571D01*
X9032619Y-17554524D01*
X9042143Y-17545000D01*
X9061190Y-17535476D01*
X9318333Y-17735476D02*
X9204048Y-17735476D01*
X9261190Y-17735476D02*
X9261190Y-17535476D01*
X9242143Y-17564048D01*
X9223095Y-17583095D01*
X9204048Y-17592619D01*
X9499286Y-17535476D02*
X9404048Y-17535476D01*
X9394524Y-17630714D01*
X9404048Y-17621190D01*
X9423095Y-17611667D01*
X9470714Y-17611667D01*
X9489762Y-17621190D01*
X9499286Y-17630714D01*
X9508810Y-17649762D01*
X9508810Y-17697381D01*
X9499286Y-17716429D01*
X9489762Y-17725952D01*
X9470714Y-17735476D01*
X9423095Y-17735476D01*
X9404048Y-17725952D01*
X9394524Y-17716429D01*
X9575476Y-17535476D02*
X9708810Y-17535476D01*
X9623095Y-17735476D01*
X9775476Y-17535476D02*
X9775476Y-17573571D01*
X9851667Y-17535476D02*
X9851667Y-17573571D01*
X10146905Y-17811667D02*
X10137381Y-17802143D01*
X10118333Y-17773571D01*
X10108810Y-17754524D01*
X10099286Y-17725952D01*
X10089762Y-17678333D01*
X10089762Y-17640238D01*
X10099286Y-17592619D01*
X10108810Y-17564048D01*
X10118333Y-17545000D01*
X10137381Y-17516429D01*
X10146905Y-17506905D01*
X10327857Y-17735476D02*
X10213571Y-17735476D01*
X10270714Y-17735476D02*
X10270714Y-17535476D01*
X10251667Y-17564048D01*
X10232619Y-17583095D01*
X10213571Y-17592619D01*
X10508810Y-17535476D02*
X10413571Y-17535476D01*
X10404048Y-17630714D01*
X10413571Y-17621190D01*
X10432619Y-17611667D01*
X10480238Y-17611667D01*
X10499286Y-17621190D01*
X10508810Y-17630714D01*
X10518333Y-17649762D01*
X10518333Y-17697381D01*
X10508810Y-17716429D01*
X10499286Y-17725952D01*
X10480238Y-17735476D01*
X10432619Y-17735476D01*
X10413571Y-17725952D01*
X10404048Y-17716429D01*
X10756429Y-17735476D02*
X10756429Y-17535476D01*
X10842143Y-17735476D02*
X10842143Y-17630714D01*
X10832619Y-17611667D01*
X10813571Y-17602143D01*
X10785000Y-17602143D01*
X10765952Y-17611667D01*
X10756429Y-17621190D01*
X10965952Y-17735476D02*
X10946905Y-17725952D01*
X10937381Y-17716429D01*
X10927857Y-17697381D01*
X10927857Y-17640238D01*
X10937381Y-17621190D01*
X10946905Y-17611667D01*
X10965952Y-17602143D01*
X10994524Y-17602143D01*
X11013571Y-17611667D01*
X11023095Y-17621190D01*
X11032619Y-17640238D01*
X11032619Y-17697381D01*
X11023095Y-17716429D01*
X11013571Y-17725952D01*
X10994524Y-17735476D01*
X10965952Y-17735476D01*
X11146905Y-17735476D02*
X11127857Y-17725952D01*
X11118333Y-17706905D01*
X11118333Y-17535476D01*
X11299286Y-17725952D02*
X11280238Y-17735476D01*
X11242143Y-17735476D01*
X11223095Y-17725952D01*
X11213571Y-17706905D01*
X11213571Y-17630714D01*
X11223095Y-17611667D01*
X11242143Y-17602143D01*
X11280238Y-17602143D01*
X11299286Y-17611667D01*
X11308809Y-17630714D01*
X11308809Y-17649762D01*
X11213571Y-17668810D01*
X11385000Y-17725952D02*
X11404048Y-17735476D01*
X11442143Y-17735476D01*
X11461190Y-17725952D01*
X11470714Y-17706905D01*
X11470714Y-17697381D01*
X11461190Y-17678333D01*
X11442143Y-17668810D01*
X11413571Y-17668810D01*
X11394524Y-17659286D01*
X11385000Y-17640238D01*
X11385000Y-17630714D01*
X11394524Y-17611667D01*
X11413571Y-17602143D01*
X11442143Y-17602143D01*
X11461190Y-17611667D01*
X11537381Y-17811667D02*
X11546905Y-17802143D01*
X11565952Y-17773571D01*
X11575476Y-17754524D01*
X11585000Y-17725952D01*
X11594524Y-17678333D01*
X11594524Y-17640238D01*
X11585000Y-17592619D01*
X11575476Y-17564048D01*
X11565952Y-17545000D01*
X11546905Y-17516429D01*
X11537381Y-17506905D01*
D13*
X6575000Y-17909000D02*
G75*
G03*
X6575000Y-17909000I-30000J0D01*
G01*
D11*
X6870714Y-17799476D02*
X6889762Y-17799476D01*
X6908809Y-17809000D01*
X6918333Y-17818524D01*
X6927857Y-17837571D01*
X6937381Y-17875667D01*
X6937381Y-17923286D01*
X6927857Y-17961381D01*
X6918333Y-17980429D01*
X6908809Y-17989952D01*
X6889762Y-17999476D01*
X6870714Y-17999476D01*
X6851667Y-17989952D01*
X6842143Y-17980429D01*
X6832619Y-17961381D01*
X6823095Y-17923286D01*
X6823095Y-17875667D01*
X6832619Y-17837571D01*
X6842143Y-17818524D01*
X6851667Y-17809000D01*
X6870714Y-17799476D01*
X7023095Y-17980429D02*
X7032619Y-17989952D01*
X7023095Y-17999476D01*
X7013571Y-17989952D01*
X7023095Y-17980429D01*
X7023095Y-17999476D01*
X7204048Y-17799476D02*
X7165952Y-17799476D01*
X7146905Y-17809000D01*
X7137381Y-17818524D01*
X7118333Y-17847095D01*
X7108809Y-17885190D01*
X7108809Y-17961381D01*
X7118333Y-17980429D01*
X7127857Y-17989952D01*
X7146905Y-17999476D01*
X7185000Y-17999476D01*
X7204048Y-17989952D01*
X7213571Y-17980429D01*
X7223095Y-17961381D01*
X7223095Y-17913762D01*
X7213571Y-17894714D01*
X7204048Y-17885190D01*
X7185000Y-17875667D01*
X7146905Y-17875667D01*
X7127857Y-17885190D01*
X7118333Y-17894714D01*
X7108809Y-17913762D01*
X7346905Y-17799476D02*
X7365952Y-17799476D01*
X7385000Y-17809000D01*
X7394524Y-17818524D01*
X7404048Y-17837571D01*
X7413571Y-17875667D01*
X7413571Y-17923286D01*
X7404048Y-17961381D01*
X7394524Y-17980429D01*
X7385000Y-17989952D01*
X7365952Y-17999476D01*
X7346905Y-17999476D01*
X7327857Y-17989952D01*
X7318333Y-17980429D01*
X7308809Y-17961381D01*
X7299286Y-17923286D01*
X7299286Y-17875667D01*
X7308809Y-17837571D01*
X7318333Y-17818524D01*
X7327857Y-17809000D01*
X7346905Y-17799476D01*
X7537381Y-17799476D02*
X7556428Y-17799476D01*
X7575476Y-17809000D01*
X7585000Y-17818524D01*
X7594524Y-17837571D01*
X7604048Y-17875667D01*
X7604048Y-17923286D01*
X7594524Y-17961381D01*
X7585000Y-17980429D01*
X7575476Y-17989952D01*
X7556428Y-17999476D01*
X7537381Y-17999476D01*
X7518333Y-17989952D01*
X7508809Y-17980429D01*
X7499286Y-17961381D01*
X7489762Y-17923286D01*
X7489762Y-17875667D01*
X7499286Y-17837571D01*
X7508809Y-17818524D01*
X7518333Y-17809000D01*
X7537381Y-17799476D01*
X7689762Y-17999476D02*
X7689762Y-17866143D01*
X7689762Y-17885190D02*
X7699286Y-17875667D01*
X7718333Y-17866143D01*
X7746905Y-17866143D01*
X7765952Y-17875667D01*
X7775476Y-17894714D01*
X7775476Y-17999476D01*
X7775476Y-17894714D02*
X7785000Y-17875667D01*
X7804048Y-17866143D01*
X7832619Y-17866143D01*
X7851667Y-17875667D01*
X7861190Y-17894714D01*
X7861190Y-17999476D01*
X7956428Y-17999476D02*
X7956428Y-17866143D01*
X7956428Y-17885190D02*
X7965952Y-17875667D01*
X7985000Y-17866143D01*
X8013571Y-17866143D01*
X8032619Y-17875667D01*
X8042143Y-17894714D01*
X8042143Y-17999476D01*
X8042143Y-17894714D02*
X8051667Y-17875667D01*
X8070714Y-17866143D01*
X8099286Y-17866143D01*
X8118333Y-17875667D01*
X8127857Y-17894714D01*
X8127857Y-17999476D01*
X8518333Y-17789952D02*
X8346905Y-18047095D01*
X8775476Y-17799476D02*
X8794524Y-17799476D01*
X8813571Y-17809000D01*
X8823095Y-17818524D01*
X8832619Y-17837571D01*
X8842143Y-17875667D01*
X8842143Y-17923286D01*
X8832619Y-17961381D01*
X8823095Y-17980429D01*
X8813571Y-17989952D01*
X8794524Y-17999476D01*
X8775476Y-17999476D01*
X8756429Y-17989952D01*
X8746905Y-17980429D01*
X8737381Y-17961381D01*
X8727857Y-17923286D01*
X8727857Y-17875667D01*
X8737381Y-17837571D01*
X8746905Y-17818524D01*
X8756429Y-17809000D01*
X8775476Y-17799476D01*
X8927857Y-17980429D02*
X8937381Y-17989952D01*
X8927857Y-17999476D01*
X8918333Y-17989952D01*
X8927857Y-17980429D01*
X8927857Y-17999476D01*
X9061190Y-17799476D02*
X9080238Y-17799476D01*
X9099286Y-17809000D01*
X9108810Y-17818524D01*
X9118333Y-17837571D01*
X9127857Y-17875667D01*
X9127857Y-17923286D01*
X9118333Y-17961381D01*
X9108810Y-17980429D01*
X9099286Y-17989952D01*
X9080238Y-17999476D01*
X9061190Y-17999476D01*
X9042143Y-17989952D01*
X9032619Y-17980429D01*
X9023095Y-17961381D01*
X9013571Y-17923286D01*
X9013571Y-17875667D01*
X9023095Y-17837571D01*
X9032619Y-17818524D01*
X9042143Y-17809000D01*
X9061190Y-17799476D01*
X9204048Y-17818524D02*
X9213571Y-17809000D01*
X9232619Y-17799476D01*
X9280238Y-17799476D01*
X9299286Y-17809000D01*
X9308810Y-17818524D01*
X9318333Y-17837571D01*
X9318333Y-17856619D01*
X9308810Y-17885190D01*
X9194524Y-17999476D01*
X9318333Y-17999476D01*
X9385000Y-17799476D02*
X9508810Y-17799476D01*
X9442143Y-17875667D01*
X9470714Y-17875667D01*
X9489762Y-17885190D01*
X9499286Y-17894714D01*
X9508810Y-17913762D01*
X9508810Y-17961381D01*
X9499286Y-17980429D01*
X9489762Y-17989952D01*
X9470714Y-17999476D01*
X9413571Y-17999476D01*
X9394524Y-17989952D01*
X9385000Y-17980429D01*
X9680238Y-17799476D02*
X9642143Y-17799476D01*
X9623095Y-17809000D01*
X9613571Y-17818524D01*
X9594524Y-17847095D01*
X9585000Y-17885190D01*
X9585000Y-17961381D01*
X9594524Y-17980429D01*
X9604048Y-17989952D01*
X9623095Y-17999476D01*
X9661190Y-17999476D01*
X9680238Y-17989952D01*
X9689762Y-17980429D01*
X9699286Y-17961381D01*
X9699286Y-17913762D01*
X9689762Y-17894714D01*
X9680238Y-17885190D01*
X9661190Y-17875667D01*
X9623095Y-17875667D01*
X9604048Y-17885190D01*
X9594524Y-17894714D01*
X9585000Y-17913762D01*
X9775476Y-17799476D02*
X9775476Y-17837571D01*
X9851667Y-17799476D02*
X9851667Y-17837571D01*
X10146905Y-18075667D02*
X10137381Y-18066143D01*
X10118333Y-18037571D01*
X10108810Y-18018524D01*
X10099286Y-17989952D01*
X10089762Y-17942333D01*
X10089762Y-17904238D01*
X10099286Y-17856619D01*
X10108810Y-17828048D01*
X10118333Y-17809000D01*
X10137381Y-17780429D01*
X10146905Y-17770905D01*
X10204048Y-17799476D02*
X10327857Y-17799476D01*
X10261190Y-17875667D01*
X10289762Y-17875667D01*
X10308810Y-17885190D01*
X10318333Y-17894714D01*
X10327857Y-17913762D01*
X10327857Y-17961381D01*
X10318333Y-17980429D01*
X10308810Y-17989952D01*
X10289762Y-17999476D01*
X10232619Y-17999476D01*
X10213571Y-17989952D01*
X10204048Y-17980429D01*
X10565952Y-17999476D02*
X10565952Y-17799476D01*
X10651667Y-17999476D02*
X10651667Y-17894714D01*
X10642143Y-17875667D01*
X10623095Y-17866143D01*
X10594524Y-17866143D01*
X10575476Y-17875667D01*
X10565952Y-17885190D01*
X10775476Y-17999476D02*
X10756429Y-17989952D01*
X10746905Y-17980429D01*
X10737381Y-17961381D01*
X10737381Y-17904238D01*
X10746905Y-17885190D01*
X10756429Y-17875667D01*
X10775476Y-17866143D01*
X10804048Y-17866143D01*
X10823095Y-17875667D01*
X10832619Y-17885190D01*
X10842143Y-17904238D01*
X10842143Y-17961381D01*
X10832619Y-17980429D01*
X10823095Y-17989952D01*
X10804048Y-17999476D01*
X10775476Y-17999476D01*
X10956429Y-17999476D02*
X10937381Y-17989952D01*
X10927857Y-17970905D01*
X10927857Y-17799476D01*
X11108810Y-17989952D02*
X11089762Y-17999476D01*
X11051667Y-17999476D01*
X11032619Y-17989952D01*
X11023095Y-17970905D01*
X11023095Y-17894714D01*
X11032619Y-17875667D01*
X11051667Y-17866143D01*
X11089762Y-17866143D01*
X11108810Y-17875667D01*
X11118333Y-17894714D01*
X11118333Y-17913762D01*
X11023095Y-17932810D01*
X11194524Y-17989952D02*
X11213571Y-17999476D01*
X11251667Y-17999476D01*
X11270714Y-17989952D01*
X11280238Y-17970905D01*
X11280238Y-17961381D01*
X11270714Y-17942333D01*
X11251667Y-17932810D01*
X11223095Y-17932810D01*
X11204048Y-17923286D01*
X11194524Y-17904238D01*
X11194524Y-17894714D01*
X11204048Y-17875667D01*
X11223095Y-17866143D01*
X11251667Y-17866143D01*
X11270714Y-17875667D01*
X11346905Y-18075667D02*
X11356428Y-18066143D01*
X11375476Y-18037571D01*
X11385000Y-18018524D01*
X11394524Y-17989952D01*
X11404048Y-17942333D01*
X11404048Y-17904238D01*
X11394524Y-17856619D01*
X11385000Y-17828048D01*
X11375476Y-17809000D01*
X11356428Y-17780429D01*
X11346905Y-17770905D01*
D14*
X6530000Y-18128000D02*
X6530000Y-18218000D01*
X6485000Y-18173000D02*
X6575000Y-18173000D01*
D11*
X6870714Y-18063476D02*
X6889762Y-18063476D01*
X6908809Y-18073000D01*
X6918333Y-18082524D01*
X6927857Y-18101571D01*
X6937381Y-18139667D01*
X6937381Y-18187286D01*
X6927857Y-18225381D01*
X6918333Y-18244429D01*
X6908809Y-18253952D01*
X6889762Y-18263476D01*
X6870714Y-18263476D01*
X6851667Y-18253952D01*
X6842143Y-18244429D01*
X6832619Y-18225381D01*
X6823095Y-18187286D01*
X6823095Y-18139667D01*
X6832619Y-18101571D01*
X6842143Y-18082524D01*
X6851667Y-18073000D01*
X6870714Y-18063476D01*
X7023095Y-18244429D02*
X7032619Y-18253952D01*
X7023095Y-18263476D01*
X7013571Y-18253952D01*
X7023095Y-18244429D01*
X7023095Y-18263476D01*
X7127857Y-18263476D02*
X7165952Y-18263476D01*
X7185000Y-18253952D01*
X7194524Y-18244429D01*
X7213571Y-18215857D01*
X7223095Y-18177762D01*
X7223095Y-18101571D01*
X7213571Y-18082524D01*
X7204048Y-18073000D01*
X7185000Y-18063476D01*
X7146905Y-18063476D01*
X7127857Y-18073000D01*
X7118333Y-18082524D01*
X7108809Y-18101571D01*
X7108809Y-18149190D01*
X7118333Y-18168238D01*
X7127857Y-18177762D01*
X7146905Y-18187286D01*
X7185000Y-18187286D01*
X7204048Y-18177762D01*
X7213571Y-18168238D01*
X7223095Y-18149190D01*
X7346905Y-18063476D02*
X7365952Y-18063476D01*
X7385000Y-18073000D01*
X7394524Y-18082524D01*
X7404048Y-18101571D01*
X7413571Y-18139667D01*
X7413571Y-18187286D01*
X7404048Y-18225381D01*
X7394524Y-18244429D01*
X7385000Y-18253952D01*
X7365952Y-18263476D01*
X7346905Y-18263476D01*
X7327857Y-18253952D01*
X7318333Y-18244429D01*
X7308809Y-18225381D01*
X7299286Y-18187286D01*
X7299286Y-18139667D01*
X7308809Y-18101571D01*
X7318333Y-18082524D01*
X7327857Y-18073000D01*
X7346905Y-18063476D01*
X7537381Y-18063476D02*
X7556428Y-18063476D01*
X7575476Y-18073000D01*
X7585000Y-18082524D01*
X7594524Y-18101571D01*
X7604048Y-18139667D01*
X7604048Y-18187286D01*
X7594524Y-18225381D01*
X7585000Y-18244429D01*
X7575476Y-18253952D01*
X7556428Y-18263476D01*
X7537381Y-18263476D01*
X7518333Y-18253952D01*
X7508809Y-18244429D01*
X7499286Y-18225381D01*
X7489762Y-18187286D01*
X7489762Y-18139667D01*
X7499286Y-18101571D01*
X7508809Y-18082524D01*
X7518333Y-18073000D01*
X7537381Y-18063476D01*
X7689762Y-18263476D02*
X7689762Y-18130143D01*
X7689762Y-18149190D02*
X7699286Y-18139667D01*
X7718333Y-18130143D01*
X7746905Y-18130143D01*
X7765952Y-18139667D01*
X7775476Y-18158714D01*
X7775476Y-18263476D01*
X7775476Y-18158714D02*
X7785000Y-18139667D01*
X7804048Y-18130143D01*
X7832619Y-18130143D01*
X7851667Y-18139667D01*
X7861190Y-18158714D01*
X7861190Y-18263476D01*
X7956428Y-18263476D02*
X7956428Y-18130143D01*
X7956428Y-18149190D02*
X7965952Y-18139667D01*
X7985000Y-18130143D01*
X8013571Y-18130143D01*
X8032619Y-18139667D01*
X8042143Y-18158714D01*
X8042143Y-18263476D01*
X8042143Y-18158714D02*
X8051667Y-18139667D01*
X8070714Y-18130143D01*
X8099286Y-18130143D01*
X8118333Y-18139667D01*
X8127857Y-18158714D01*
X8127857Y-18263476D01*
X8518333Y-18053952D02*
X8346905Y-18311095D01*
X8775476Y-18063476D02*
X8794524Y-18063476D01*
X8813571Y-18073000D01*
X8823095Y-18082524D01*
X8832619Y-18101571D01*
X8842143Y-18139667D01*
X8842143Y-18187286D01*
X8832619Y-18225381D01*
X8823095Y-18244429D01*
X8813571Y-18253952D01*
X8794524Y-18263476D01*
X8775476Y-18263476D01*
X8756429Y-18253952D01*
X8746905Y-18244429D01*
X8737381Y-18225381D01*
X8727857Y-18187286D01*
X8727857Y-18139667D01*
X8737381Y-18101571D01*
X8746905Y-18082524D01*
X8756429Y-18073000D01*
X8775476Y-18063476D01*
X8927857Y-18244429D02*
X8937381Y-18253952D01*
X8927857Y-18263476D01*
X8918333Y-18253952D01*
X8927857Y-18244429D01*
X8927857Y-18263476D01*
X9061190Y-18063476D02*
X9080238Y-18063476D01*
X9099286Y-18073000D01*
X9108810Y-18082524D01*
X9118333Y-18101571D01*
X9127857Y-18139667D01*
X9127857Y-18187286D01*
X9118333Y-18225381D01*
X9108810Y-18244429D01*
X9099286Y-18253952D01*
X9080238Y-18263476D01*
X9061190Y-18263476D01*
X9042143Y-18253952D01*
X9032619Y-18244429D01*
X9023095Y-18225381D01*
X9013571Y-18187286D01*
X9013571Y-18139667D01*
X9023095Y-18101571D01*
X9032619Y-18082524D01*
X9042143Y-18073000D01*
X9061190Y-18063476D01*
X9194524Y-18063476D02*
X9318333Y-18063476D01*
X9251667Y-18139667D01*
X9280238Y-18139667D01*
X9299286Y-18149190D01*
X9308810Y-18158714D01*
X9318333Y-18177762D01*
X9318333Y-18225381D01*
X9308810Y-18244429D01*
X9299286Y-18253952D01*
X9280238Y-18263476D01*
X9223095Y-18263476D01*
X9204048Y-18253952D01*
X9194524Y-18244429D01*
X9499286Y-18063476D02*
X9404048Y-18063476D01*
X9394524Y-18158714D01*
X9404048Y-18149190D01*
X9423095Y-18139667D01*
X9470714Y-18139667D01*
X9489762Y-18149190D01*
X9499286Y-18158714D01*
X9508810Y-18177762D01*
X9508810Y-18225381D01*
X9499286Y-18244429D01*
X9489762Y-18253952D01*
X9470714Y-18263476D01*
X9423095Y-18263476D01*
X9404048Y-18253952D01*
X9394524Y-18244429D01*
X9680238Y-18130143D02*
X9680238Y-18263476D01*
X9632619Y-18053952D02*
X9585000Y-18196810D01*
X9708810Y-18196810D01*
X9775476Y-18063476D02*
X9775476Y-18101571D01*
X9851667Y-18063476D02*
X9851667Y-18101571D01*
X10146905Y-18339667D02*
X10137381Y-18330143D01*
X10118333Y-18301571D01*
X10108810Y-18282524D01*
X10099286Y-18253952D01*
X10089762Y-18206333D01*
X10089762Y-18168238D01*
X10099286Y-18120619D01*
X10108810Y-18092048D01*
X10118333Y-18073000D01*
X10137381Y-18044429D01*
X10146905Y-18034905D01*
X10251667Y-18149190D02*
X10232619Y-18139667D01*
X10223095Y-18130143D01*
X10213571Y-18111095D01*
X10213571Y-18101571D01*
X10223095Y-18082524D01*
X10232619Y-18073000D01*
X10251667Y-18063476D01*
X10289762Y-18063476D01*
X10308810Y-18073000D01*
X10318333Y-18082524D01*
X10327857Y-18101571D01*
X10327857Y-18111095D01*
X10318333Y-18130143D01*
X10308810Y-18139667D01*
X10289762Y-18149190D01*
X10251667Y-18149190D01*
X10232619Y-18158714D01*
X10223095Y-18168238D01*
X10213571Y-18187286D01*
X10213571Y-18225381D01*
X10223095Y-18244429D01*
X10232619Y-18253952D01*
X10251667Y-18263476D01*
X10289762Y-18263476D01*
X10308810Y-18253952D01*
X10318333Y-18244429D01*
X10327857Y-18225381D01*
X10327857Y-18187286D01*
X10318333Y-18168238D01*
X10308810Y-18158714D01*
X10289762Y-18149190D01*
X10565952Y-18263476D02*
X10565952Y-18063476D01*
X10651667Y-18263476D02*
X10651667Y-18158714D01*
X10642143Y-18139667D01*
X10623095Y-18130143D01*
X10594524Y-18130143D01*
X10575476Y-18139667D01*
X10565952Y-18149190D01*
X10775476Y-18263476D02*
X10756429Y-18253952D01*
X10746905Y-18244429D01*
X10737381Y-18225381D01*
X10737381Y-18168238D01*
X10746905Y-18149190D01*
X10756429Y-18139667D01*
X10775476Y-18130143D01*
X10804048Y-18130143D01*
X10823095Y-18139667D01*
X10832619Y-18149190D01*
X10842143Y-18168238D01*
X10842143Y-18225381D01*
X10832619Y-18244429D01*
X10823095Y-18253952D01*
X10804048Y-18263476D01*
X10775476Y-18263476D01*
X10956429Y-18263476D02*
X10937381Y-18253952D01*
X10927857Y-18234905D01*
X10927857Y-18063476D01*
X11108810Y-18253952D02*
X11089762Y-18263476D01*
X11051667Y-18263476D01*
X11032619Y-18253952D01*
X11023095Y-18234905D01*
X11023095Y-18158714D01*
X11032619Y-18139667D01*
X11051667Y-18130143D01*
X11089762Y-18130143D01*
X11108810Y-18139667D01*
X11118333Y-18158714D01*
X11118333Y-18177762D01*
X11023095Y-18196810D01*
X11194524Y-18253952D02*
X11213571Y-18263476D01*
X11251667Y-18263476D01*
X11270714Y-18253952D01*
X11280238Y-18234905D01*
X11280238Y-18225381D01*
X11270714Y-18206333D01*
X11251667Y-18196810D01*
X11223095Y-18196810D01*
X11204048Y-18187286D01*
X11194524Y-18168238D01*
X11194524Y-18158714D01*
X11204048Y-18139667D01*
X11223095Y-18130143D01*
X11251667Y-18130143D01*
X11270714Y-18139667D01*
X11346905Y-18339667D02*
X11356428Y-18330143D01*
X11375476Y-18301571D01*
X11385000Y-18282524D01*
X11394524Y-18253952D01*
X11404048Y-18206333D01*
X11404048Y-18168238D01*
X11394524Y-18120619D01*
X11385000Y-18092048D01*
X11375476Y-18073000D01*
X11356428Y-18044429D01*
X11346905Y-18034905D01*
D10*
X6560356Y-18472356D02*
X6560356Y-18401644D01*
X6489644Y-18401644D01*
X6489644Y-18472356D01*
X6560356Y-18472356D01*
D11*
X6937381Y-18527476D02*
X6823095Y-18527476D01*
X6880238Y-18527476D02*
X6880238Y-18327476D01*
X6861190Y-18356048D01*
X6842143Y-18375095D01*
X6823095Y-18384619D01*
X7023095Y-18508429D02*
X7032619Y-18517952D01*
X7023095Y-18527476D01*
X7013571Y-18517952D01*
X7023095Y-18508429D01*
X7023095Y-18527476D01*
X7156428Y-18327476D02*
X7175476Y-18327476D01*
X7194524Y-18337000D01*
X7204048Y-18346524D01*
X7213571Y-18365571D01*
X7223095Y-18403667D01*
X7223095Y-18451286D01*
X7213571Y-18489381D01*
X7204048Y-18508429D01*
X7194524Y-18517952D01*
X7175476Y-18527476D01*
X7156428Y-18527476D01*
X7137381Y-18517952D01*
X7127857Y-18508429D01*
X7118333Y-18489381D01*
X7108809Y-18451286D01*
X7108809Y-18403667D01*
X7118333Y-18365571D01*
X7127857Y-18346524D01*
X7137381Y-18337000D01*
X7156428Y-18327476D01*
X7346905Y-18327476D02*
X7365952Y-18327476D01*
X7385000Y-18337000D01*
X7394524Y-18346524D01*
X7404048Y-18365571D01*
X7413571Y-18403667D01*
X7413571Y-18451286D01*
X7404048Y-18489381D01*
X7394524Y-18508429D01*
X7385000Y-18517952D01*
X7365952Y-18527476D01*
X7346905Y-18527476D01*
X7327857Y-18517952D01*
X7318333Y-18508429D01*
X7308809Y-18489381D01*
X7299286Y-18451286D01*
X7299286Y-18403667D01*
X7308809Y-18365571D01*
X7318333Y-18346524D01*
X7327857Y-18337000D01*
X7346905Y-18327476D01*
X7537381Y-18327476D02*
X7556428Y-18327476D01*
X7575476Y-18337000D01*
X7585000Y-18346524D01*
X7594524Y-18365571D01*
X7604048Y-18403667D01*
X7604048Y-18451286D01*
X7594524Y-18489381D01*
X7585000Y-18508429D01*
X7575476Y-18517952D01*
X7556428Y-18527476D01*
X7537381Y-18527476D01*
X7518333Y-18517952D01*
X7508809Y-18508429D01*
X7499286Y-18489381D01*
X7489762Y-18451286D01*
X7489762Y-18403667D01*
X7499286Y-18365571D01*
X7508809Y-18346524D01*
X7518333Y-18337000D01*
X7537381Y-18327476D01*
X7689762Y-18527476D02*
X7689762Y-18394143D01*
X7689762Y-18413190D02*
X7699286Y-18403667D01*
X7718333Y-18394143D01*
X7746905Y-18394143D01*
X7765952Y-18403667D01*
X7775476Y-18422714D01*
X7775476Y-18527476D01*
X7775476Y-18422714D02*
X7785000Y-18403667D01*
X7804048Y-18394143D01*
X7832619Y-18394143D01*
X7851667Y-18403667D01*
X7861190Y-18422714D01*
X7861190Y-18527476D01*
X7956428Y-18527476D02*
X7956428Y-18394143D01*
X7956428Y-18413190D02*
X7965952Y-18403667D01*
X7985000Y-18394143D01*
X8013571Y-18394143D01*
X8032619Y-18403667D01*
X8042143Y-18422714D01*
X8042143Y-18527476D01*
X8042143Y-18422714D02*
X8051667Y-18403667D01*
X8070714Y-18394143D01*
X8099286Y-18394143D01*
X8118333Y-18403667D01*
X8127857Y-18422714D01*
X8127857Y-18527476D01*
X8518333Y-18317952D02*
X8346905Y-18575095D01*
X8775476Y-18327476D02*
X8794524Y-18327476D01*
X8813571Y-18337000D01*
X8823095Y-18346524D01*
X8832619Y-18365571D01*
X8842143Y-18403667D01*
X8842143Y-18451286D01*
X8832619Y-18489381D01*
X8823095Y-18508429D01*
X8813571Y-18517952D01*
X8794524Y-18527476D01*
X8775476Y-18527476D01*
X8756429Y-18517952D01*
X8746905Y-18508429D01*
X8737381Y-18489381D01*
X8727857Y-18451286D01*
X8727857Y-18403667D01*
X8737381Y-18365571D01*
X8746905Y-18346524D01*
X8756429Y-18337000D01*
X8775476Y-18327476D01*
X8927857Y-18508429D02*
X8937381Y-18517952D01*
X8927857Y-18527476D01*
X8918333Y-18517952D01*
X8927857Y-18508429D01*
X8927857Y-18527476D01*
X9061190Y-18327476D02*
X9080238Y-18327476D01*
X9099286Y-18337000D01*
X9108810Y-18346524D01*
X9118333Y-18365571D01*
X9127857Y-18403667D01*
X9127857Y-18451286D01*
X9118333Y-18489381D01*
X9108810Y-18508429D01*
X9099286Y-18517952D01*
X9080238Y-18527476D01*
X9061190Y-18527476D01*
X9042143Y-18517952D01*
X9032619Y-18508429D01*
X9023095Y-18489381D01*
X9013571Y-18451286D01*
X9013571Y-18403667D01*
X9023095Y-18365571D01*
X9032619Y-18346524D01*
X9042143Y-18337000D01*
X9061190Y-18327476D01*
X9194524Y-18327476D02*
X9318333Y-18327476D01*
X9251667Y-18403667D01*
X9280238Y-18403667D01*
X9299286Y-18413190D01*
X9308810Y-18422714D01*
X9318333Y-18441762D01*
X9318333Y-18489381D01*
X9308810Y-18508429D01*
X9299286Y-18517952D01*
X9280238Y-18527476D01*
X9223095Y-18527476D01*
X9204048Y-18517952D01*
X9194524Y-18508429D01*
X9413571Y-18527476D02*
X9451667Y-18527476D01*
X9470714Y-18517952D01*
X9480238Y-18508429D01*
X9499286Y-18479857D01*
X9508810Y-18441762D01*
X9508810Y-18365571D01*
X9499286Y-18346524D01*
X9489762Y-18337000D01*
X9470714Y-18327476D01*
X9432619Y-18327476D01*
X9413571Y-18337000D01*
X9404048Y-18346524D01*
X9394524Y-18365571D01*
X9394524Y-18413190D01*
X9404048Y-18432238D01*
X9413571Y-18441762D01*
X9432619Y-18451286D01*
X9470714Y-18451286D01*
X9489762Y-18441762D01*
X9499286Y-18432238D01*
X9508810Y-18413190D01*
X9680238Y-18394143D02*
X9680238Y-18527476D01*
X9632619Y-18317952D02*
X9585000Y-18460810D01*
X9708810Y-18460810D01*
X9775476Y-18327476D02*
X9775476Y-18365571D01*
X9851667Y-18327476D02*
X9851667Y-18365571D01*
X10146905Y-18603667D02*
X10137381Y-18594143D01*
X10118333Y-18565571D01*
X10108810Y-18546524D01*
X10099286Y-18517952D01*
X10089762Y-18470333D01*
X10089762Y-18432238D01*
X10099286Y-18384619D01*
X10108810Y-18356048D01*
X10118333Y-18337000D01*
X10137381Y-18308429D01*
X10146905Y-18298905D01*
X10308810Y-18394143D02*
X10308810Y-18527476D01*
X10261190Y-18317952D02*
X10213571Y-18460810D01*
X10337381Y-18460810D01*
X10404048Y-18346524D02*
X10413571Y-18337000D01*
X10432619Y-18327476D01*
X10480238Y-18327476D01*
X10499286Y-18337000D01*
X10508810Y-18346524D01*
X10518333Y-18365571D01*
X10518333Y-18384619D01*
X10508810Y-18413190D01*
X10394524Y-18527476D01*
X10518333Y-18527476D01*
X10756429Y-18527476D02*
X10756429Y-18327476D01*
X10842143Y-18527476D02*
X10842143Y-18422714D01*
X10832619Y-18403667D01*
X10813571Y-18394143D01*
X10785000Y-18394143D01*
X10765952Y-18403667D01*
X10756429Y-18413190D01*
X10965952Y-18527476D02*
X10946905Y-18517952D01*
X10937381Y-18508429D01*
X10927857Y-18489381D01*
X10927857Y-18432238D01*
X10937381Y-18413190D01*
X10946905Y-18403667D01*
X10965952Y-18394143D01*
X10994524Y-18394143D01*
X11013571Y-18403667D01*
X11023095Y-18413190D01*
X11032619Y-18432238D01*
X11032619Y-18489381D01*
X11023095Y-18508429D01*
X11013571Y-18517952D01*
X10994524Y-18527476D01*
X10965952Y-18527476D01*
X11146905Y-18527476D02*
X11127857Y-18517952D01*
X11118333Y-18498905D01*
X11118333Y-18327476D01*
X11299286Y-18517952D02*
X11280238Y-18527476D01*
X11242143Y-18527476D01*
X11223095Y-18517952D01*
X11213571Y-18498905D01*
X11213571Y-18422714D01*
X11223095Y-18403667D01*
X11242143Y-18394143D01*
X11280238Y-18394143D01*
X11299286Y-18403667D01*
X11308809Y-18422714D01*
X11308809Y-18441762D01*
X11213571Y-18460810D01*
X11385000Y-18517952D02*
X11404048Y-18527476D01*
X11442143Y-18527476D01*
X11461190Y-18517952D01*
X11470714Y-18498905D01*
X11470714Y-18489381D01*
X11461190Y-18470333D01*
X11442143Y-18460810D01*
X11413571Y-18460810D01*
X11394524Y-18451286D01*
X11385000Y-18432238D01*
X11385000Y-18422714D01*
X11394524Y-18403667D01*
X11413571Y-18394143D01*
X11442143Y-18394143D01*
X11461190Y-18403667D01*
X11537381Y-18603667D02*
X11546905Y-18594143D01*
X11565952Y-18565571D01*
X11575476Y-18546524D01*
X11585000Y-18517952D01*
X11594524Y-18470333D01*
X11594524Y-18432238D01*
X11585000Y-18384619D01*
X11575476Y-18356048D01*
X11565952Y-18337000D01*
X11546905Y-18308429D01*
X11537381Y-18298905D01*
X6475000Y-18801000D02*
X6575000Y-18701000D01*
X6475000Y-18601000D01*
X6375000Y-18701000D01*
X6475000Y-18801000D01*
X6823095Y-18610524D02*
X6832619Y-18601000D01*
X6851667Y-18591476D01*
X6899286Y-18591476D01*
X6918333Y-18601000D01*
X6927857Y-18610524D01*
X6937381Y-18629571D01*
X6937381Y-18648619D01*
X6927857Y-18677190D01*
X6813571Y-18791476D01*
X6937381Y-18791476D01*
X7023095Y-18772429D02*
X7032619Y-18781952D01*
X7023095Y-18791476D01*
X7013571Y-18781952D01*
X7023095Y-18772429D01*
X7023095Y-18791476D01*
X7223095Y-18791476D02*
X7108809Y-18791476D01*
X7165952Y-18791476D02*
X7165952Y-18591476D01*
X7146905Y-18620048D01*
X7127857Y-18639095D01*
X7108809Y-18648619D01*
X7346905Y-18591476D02*
X7365952Y-18591476D01*
X7385000Y-18601000D01*
X7394524Y-18610524D01*
X7404048Y-18629571D01*
X7413571Y-18667667D01*
X7413571Y-18715286D01*
X7404048Y-18753381D01*
X7394524Y-18772429D01*
X7385000Y-18781952D01*
X7365952Y-18791476D01*
X7346905Y-18791476D01*
X7327857Y-18781952D01*
X7318333Y-18772429D01*
X7308809Y-18753381D01*
X7299286Y-18715286D01*
X7299286Y-18667667D01*
X7308809Y-18629571D01*
X7318333Y-18610524D01*
X7327857Y-18601000D01*
X7346905Y-18591476D01*
X7537381Y-18591476D02*
X7556428Y-18591476D01*
X7575476Y-18601000D01*
X7585000Y-18610524D01*
X7594524Y-18629571D01*
X7604048Y-18667667D01*
X7604048Y-18715286D01*
X7594524Y-18753381D01*
X7585000Y-18772429D01*
X7575476Y-18781952D01*
X7556428Y-18791476D01*
X7537381Y-18791476D01*
X7518333Y-18781952D01*
X7508809Y-18772429D01*
X7499286Y-18753381D01*
X7489762Y-18715286D01*
X7489762Y-18667667D01*
X7499286Y-18629571D01*
X7508809Y-18610524D01*
X7518333Y-18601000D01*
X7537381Y-18591476D01*
X7689762Y-18791476D02*
X7689762Y-18658143D01*
X7689762Y-18677190D02*
X7699286Y-18667667D01*
X7718333Y-18658143D01*
X7746905Y-18658143D01*
X7765952Y-18667667D01*
X7775476Y-18686714D01*
X7775476Y-18791476D01*
X7775476Y-18686714D02*
X7785000Y-18667667D01*
X7804048Y-18658143D01*
X7832619Y-18658143D01*
X7851667Y-18667667D01*
X7861190Y-18686714D01*
X7861190Y-18791476D01*
X7956428Y-18791476D02*
X7956428Y-18658143D01*
X7956428Y-18677190D02*
X7965952Y-18667667D01*
X7985000Y-18658143D01*
X8013571Y-18658143D01*
X8032619Y-18667667D01*
X8042143Y-18686714D01*
X8042143Y-18791476D01*
X8042143Y-18686714D02*
X8051667Y-18667667D01*
X8070714Y-18658143D01*
X8099286Y-18658143D01*
X8118333Y-18667667D01*
X8127857Y-18686714D01*
X8127857Y-18791476D01*
X8518333Y-18581952D02*
X8346905Y-18839095D01*
X8775476Y-18591476D02*
X8794524Y-18591476D01*
X8813571Y-18601000D01*
X8823095Y-18610524D01*
X8832619Y-18629571D01*
X8842143Y-18667667D01*
X8842143Y-18715286D01*
X8832619Y-18753381D01*
X8823095Y-18772429D01*
X8813571Y-18781952D01*
X8794524Y-18791476D01*
X8775476Y-18791476D01*
X8756429Y-18781952D01*
X8746905Y-18772429D01*
X8737381Y-18753381D01*
X8727857Y-18715286D01*
X8727857Y-18667667D01*
X8737381Y-18629571D01*
X8746905Y-18610524D01*
X8756429Y-18601000D01*
X8775476Y-18591476D01*
X8927857Y-18772429D02*
X8937381Y-18781952D01*
X8927857Y-18791476D01*
X8918333Y-18781952D01*
X8927857Y-18772429D01*
X8927857Y-18791476D01*
X9061190Y-18591476D02*
X9080238Y-18591476D01*
X9099286Y-18601000D01*
X9108810Y-18610524D01*
X9118333Y-18629571D01*
X9127857Y-18667667D01*
X9127857Y-18715286D01*
X9118333Y-18753381D01*
X9108810Y-18772429D01*
X9099286Y-18781952D01*
X9080238Y-18791476D01*
X9061190Y-18791476D01*
X9042143Y-18781952D01*
X9032619Y-18772429D01*
X9023095Y-18753381D01*
X9013571Y-18715286D01*
X9013571Y-18667667D01*
X9023095Y-18629571D01*
X9032619Y-18610524D01*
X9042143Y-18601000D01*
X9061190Y-18591476D01*
X9242143Y-18677190D02*
X9223095Y-18667667D01*
X9213571Y-18658143D01*
X9204048Y-18639095D01*
X9204048Y-18629571D01*
X9213571Y-18610524D01*
X9223095Y-18601000D01*
X9242143Y-18591476D01*
X9280238Y-18591476D01*
X9299286Y-18601000D01*
X9308810Y-18610524D01*
X9318333Y-18629571D01*
X9318333Y-18639095D01*
X9308810Y-18658143D01*
X9299286Y-18667667D01*
X9280238Y-18677190D01*
X9242143Y-18677190D01*
X9223095Y-18686714D01*
X9213571Y-18696238D01*
X9204048Y-18715286D01*
X9204048Y-18753381D01*
X9213571Y-18772429D01*
X9223095Y-18781952D01*
X9242143Y-18791476D01*
X9280238Y-18791476D01*
X9299286Y-18781952D01*
X9308810Y-18772429D01*
X9318333Y-18753381D01*
X9318333Y-18715286D01*
X9308810Y-18696238D01*
X9299286Y-18686714D01*
X9280238Y-18677190D01*
X9394524Y-18610524D02*
X9404048Y-18601000D01*
X9423095Y-18591476D01*
X9470714Y-18591476D01*
X9489762Y-18601000D01*
X9499286Y-18610524D01*
X9508810Y-18629571D01*
X9508810Y-18648619D01*
X9499286Y-18677190D01*
X9385000Y-18791476D01*
X9508810Y-18791476D01*
X9575476Y-18591476D02*
X9708810Y-18591476D01*
X9623095Y-18791476D01*
X9775476Y-18591476D02*
X9775476Y-18629571D01*
X9851667Y-18591476D02*
X9851667Y-18629571D01*
X10146905Y-18867667D02*
X10137381Y-18858143D01*
X10118333Y-18829571D01*
X10108810Y-18810524D01*
X10099286Y-18781952D01*
X10089762Y-18734333D01*
X10089762Y-18696238D01*
X10099286Y-18648619D01*
X10108810Y-18620048D01*
X10118333Y-18601000D01*
X10137381Y-18572429D01*
X10146905Y-18562905D01*
X10261190Y-18591476D02*
X10280238Y-18591476D01*
X10299286Y-18601000D01*
X10308810Y-18610524D01*
X10318333Y-18629571D01*
X10327857Y-18667667D01*
X10327857Y-18715286D01*
X10318333Y-18753381D01*
X10308810Y-18772429D01*
X10299286Y-18781952D01*
X10280238Y-18791476D01*
X10261190Y-18791476D01*
X10242143Y-18781952D01*
X10232619Y-18772429D01*
X10223095Y-18753381D01*
X10213571Y-18715286D01*
X10213571Y-18667667D01*
X10223095Y-18629571D01*
X10232619Y-18610524D01*
X10242143Y-18601000D01*
X10261190Y-18591476D01*
X10565952Y-18791476D02*
X10565952Y-18591476D01*
X10651667Y-18791476D02*
X10651667Y-18686714D01*
X10642143Y-18667667D01*
X10623095Y-18658143D01*
X10594524Y-18658143D01*
X10575476Y-18667667D01*
X10565952Y-18677190D01*
X10775476Y-18791476D02*
X10756429Y-18781952D01*
X10746905Y-18772429D01*
X10737381Y-18753381D01*
X10737381Y-18696238D01*
X10746905Y-18677190D01*
X10756429Y-18667667D01*
X10775476Y-18658143D01*
X10804048Y-18658143D01*
X10823095Y-18667667D01*
X10832619Y-18677190D01*
X10842143Y-18696238D01*
X10842143Y-18753381D01*
X10832619Y-18772429D01*
X10823095Y-18781952D01*
X10804048Y-18791476D01*
X10775476Y-18791476D01*
X10956429Y-18791476D02*
X10937381Y-18781952D01*
X10927857Y-18762905D01*
X10927857Y-18591476D01*
X11108810Y-18781952D02*
X11089762Y-18791476D01*
X11051667Y-18791476D01*
X11032619Y-18781952D01*
X11023095Y-18762905D01*
X11023095Y-18686714D01*
X11032619Y-18667667D01*
X11051667Y-18658143D01*
X11089762Y-18658143D01*
X11108810Y-18667667D01*
X11118333Y-18686714D01*
X11118333Y-18705762D01*
X11023095Y-18724810D01*
X11194524Y-18781952D02*
X11213571Y-18791476D01*
X11251667Y-18791476D01*
X11270714Y-18781952D01*
X11280238Y-18762905D01*
X11280238Y-18753381D01*
X11270714Y-18734333D01*
X11251667Y-18724810D01*
X11223095Y-18724810D01*
X11204048Y-18715286D01*
X11194524Y-18696238D01*
X11194524Y-18686714D01*
X11204048Y-18667667D01*
X11223095Y-18658143D01*
X11251667Y-18658143D01*
X11270714Y-18667667D01*
X11518333Y-18715286D02*
X11670714Y-18715286D01*
X11594524Y-18791476D02*
X11594524Y-18639095D01*
X11946905Y-18677190D02*
X11927857Y-18667667D01*
X11918333Y-18658143D01*
X11908809Y-18639095D01*
X11908809Y-18629571D01*
X11918333Y-18610524D01*
X11927857Y-18601000D01*
X11946905Y-18591476D01*
X11985000Y-18591476D01*
X12004048Y-18601000D01*
X12013571Y-18610524D01*
X12023095Y-18629571D01*
X12023095Y-18639095D01*
X12013571Y-18658143D01*
X12004048Y-18667667D01*
X11985000Y-18677190D01*
X11946905Y-18677190D01*
X11927857Y-18686714D01*
X11918333Y-18696238D01*
X11908809Y-18715286D01*
X11908809Y-18753381D01*
X11918333Y-18772429D01*
X11927857Y-18781952D01*
X11946905Y-18791476D01*
X11985000Y-18791476D01*
X12004048Y-18781952D01*
X12013571Y-18772429D01*
X12023095Y-18753381D01*
X12023095Y-18715286D01*
X12013571Y-18696238D01*
X12004048Y-18686714D01*
X11985000Y-18677190D01*
X12251667Y-18781952D02*
X12270714Y-18791476D01*
X12308809Y-18791476D01*
X12327857Y-18781952D01*
X12337381Y-18762905D01*
X12337381Y-18753381D01*
X12327857Y-18734333D01*
X12308809Y-18724810D01*
X12280238Y-18724810D01*
X12261190Y-18715286D01*
X12251667Y-18696238D01*
X12251667Y-18686714D01*
X12261190Y-18667667D01*
X12280238Y-18658143D01*
X12308809Y-18658143D01*
X12327857Y-18667667D01*
X12451667Y-18791476D02*
X12432619Y-18781952D01*
X12423095Y-18762905D01*
X12423095Y-18591476D01*
X12556428Y-18791476D02*
X12537381Y-18781952D01*
X12527857Y-18772429D01*
X12518333Y-18753381D01*
X12518333Y-18696238D01*
X12527857Y-18677190D01*
X12537381Y-18667667D01*
X12556428Y-18658143D01*
X12585000Y-18658143D01*
X12604048Y-18667667D01*
X12613571Y-18677190D01*
X12623095Y-18696238D01*
X12623095Y-18753381D01*
X12613571Y-18772429D01*
X12604048Y-18781952D01*
X12585000Y-18791476D01*
X12556428Y-18791476D01*
X12680238Y-18658143D02*
X12756428Y-18658143D01*
X12708809Y-18591476D02*
X12708809Y-18762905D01*
X12718333Y-18781952D01*
X12737381Y-18791476D01*
X12756428Y-18791476D01*
X12813571Y-18781952D02*
X12832619Y-18791476D01*
X12870714Y-18791476D01*
X12889762Y-18781952D01*
X12899286Y-18762905D01*
X12899286Y-18753381D01*
X12889762Y-18734333D01*
X12870714Y-18724810D01*
X12842143Y-18724810D01*
X12823095Y-18715286D01*
X12813571Y-18696238D01*
X12813571Y-18686714D01*
X12823095Y-18667667D01*
X12842143Y-18658143D01*
X12870714Y-18658143D01*
X12889762Y-18667667D01*
X12965952Y-18867667D02*
X12975476Y-18858143D01*
X12994524Y-18829571D01*
X13004048Y-18810524D01*
X13013571Y-18781952D01*
X13023095Y-18734333D01*
X13023095Y-18696238D01*
X13013571Y-18648619D01*
X13004048Y-18620048D01*
X12994524Y-18601000D01*
X12975476Y-18572429D01*
X12965952Y-18562905D01*
M02*
