%TF.GenerationSoftware,KiCad,Pcbnew,(6.0.5)*%
%TF.CreationDate,2023-02-15T13:04:29-08:00*%
%TF.ProjectId,STM32tut,53544d33-3274-4757-942e-6b696361645f,rev?*%
%TF.SameCoordinates,Original*%
%TF.FileFunction,Copper,L2,Bot*%
%TF.FilePolarity,Positive*%
%FSLAX46Y46*%
G04 Gerber Fmt 4.6, Leading zero omitted, Abs format (unit mm)*
G04 Created by KiCad (PCBNEW (6.0.5)) date 2023-02-15 13:04:29*
%MOMM*%
%LPD*%
G01*
G04 APERTURE LIST*
%TA.AperFunction,ComponentPad*%
%ADD10R,1.700000X1.700000*%
%TD*%
%TA.AperFunction,ComponentPad*%
%ADD11O,1.700000X1.700000*%
%TD*%
%TA.AperFunction,ComponentPad*%
%ADD12C,4.400000*%
%TD*%
%TA.AperFunction,ComponentPad*%
%ADD13O,1.800000X1.150000*%
%TD*%
%TA.AperFunction,ComponentPad*%
%ADD14O,2.000000X1.450000*%
%TD*%
%TA.AperFunction,ViaPad*%
%ADD15C,0.700000*%
%TD*%
%TA.AperFunction,Conductor*%
%ADD16C,0.500000*%
%TD*%
G04 APERTURE END LIST*
D10*
%TO.P,J1,1,Pin_1*%
%TO.N,+3V3*%
X134800000Y-65100000D03*
D11*
%TO.P,J1,2,Pin_2*%
%TO.N,/UART1_TX*%
X132260000Y-65100000D03*
%TO.P,J1,3,Pin_3*%
%TO.N,/UART1_RX*%
X129720000Y-65100000D03*
%TO.P,J1,4,Pin_4*%
%TO.N,GND*%
X127180000Y-65100000D03*
%TD*%
D12*
%TO.P,H4,1,1*%
%TO.N,GND*%
X155000000Y-95000000D03*
%TD*%
D10*
%TO.P,J2,1,Pin_1*%
%TO.N,+3V3*%
X130700000Y-95500000D03*
D11*
%TO.P,J2,2,Pin_2*%
%TO.N,/I2C2_SCL*%
X133240000Y-95500000D03*
%TO.P,J2,3,Pin_3*%
%TO.N,/I2C2_SDA*%
X135780000Y-95500000D03*
%TO.P,J2,4,Pin_4*%
%TO.N,GND*%
X138320000Y-95500000D03*
%TD*%
D10*
%TO.P,J3,1,Pin_1*%
%TO.N,+3V3*%
X147900000Y-65000000D03*
D11*
%TO.P,J3,2,Pin_2*%
%TO.N,/SWDIO*%
X145360000Y-65000000D03*
%TO.P,J3,3,Pin_3*%
%TO.N,/SWCLK*%
X142820000Y-65000000D03*
%TO.P,J3,4,Pin_4*%
%TO.N,GND*%
X140280000Y-65000000D03*
%TD*%
D12*
%TO.P,H1,1,1*%
%TO.N,GND*%
X155000000Y-65000000D03*
%TD*%
%TO.P,H2,1,1*%
%TO.N,GND*%
X120000000Y-65000000D03*
%TD*%
D13*
%TO.P,J4,6,Shield*%
%TO.N,unconnected-(J4-Pad6)*%
X155895000Y-76725000D03*
D14*
X152095000Y-76875000D03*
X152095000Y-84325000D03*
D13*
X155895000Y-84475000D03*
%TD*%
D12*
%TO.P,H3,1,1*%
%TO.N,GND*%
X120000000Y-95000000D03*
%TD*%
D15*
%TO.N,GND*%
X150200000Y-79300000D03*
X141600000Y-79900000D03*
X122800000Y-70500000D03*
X121900000Y-78700000D03*
X119300000Y-85400000D03*
%TO.N,+3V3*%
X131800000Y-93300000D03*
X133200000Y-92100000D03*
X134800000Y-89900000D03*
X136337000Y-89900000D03*
%TO.N,GND*%
X145400000Y-95500000D03*
X145600000Y-83800000D03*
X145600000Y-84700000D03*
X151000000Y-88800000D03*
X147300000Y-88500000D03*
X146200000Y-88500000D03*
X124000000Y-79000000D03*
X125200000Y-82800000D03*
X132500000Y-79200000D03*
X124700000Y-88900000D03*
X123400000Y-85700000D03*
X131700000Y-83400000D03*
X136700000Y-84800000D03*
X132100000Y-87900000D03*
X128100000Y-76100000D03*
%TD*%
D16*
%TO.N,+3V3*%
X132000000Y-93300000D02*
X131800000Y-93300000D01*
X133200000Y-92100000D02*
X132000000Y-93300000D01*
X136337000Y-89900000D02*
X134800000Y-89900000D01*
%TD*%
%TA.AperFunction,Conductor*%
%TO.N,GND*%
G36*
X125666622Y-62216691D02*
G01*
X153820156Y-62297130D01*
X153888218Y-62317326D01*
X153934558Y-62371114D01*
X153944461Y-62441417D01*
X153914783Y-62505913D01*
X153870743Y-62538369D01*
X153759176Y-62587693D01*
X153752445Y-62591167D01*
X153478355Y-62754233D01*
X153472091Y-62758490D01*
X153286385Y-62901762D01*
X153277917Y-62913423D01*
X153284520Y-62925309D01*
X155000000Y-64640790D01*
X157073287Y-66714076D01*
X157086407Y-66721240D01*
X157096710Y-66713850D01*
X157200751Y-66586055D01*
X157205164Y-66579914D01*
X157375349Y-66310187D01*
X157379005Y-66303536D01*
X157459633Y-66133350D01*
X157506874Y-66080352D01*
X157575269Y-66061308D01*
X157643102Y-66082265D01*
X157688837Y-66136568D01*
X157699500Y-66187296D01*
X157699500Y-93812661D01*
X157679498Y-93880782D01*
X157625842Y-93927275D01*
X157555568Y-93937379D01*
X157490988Y-93907885D01*
X157458528Y-93864211D01*
X157405781Y-93746570D01*
X157402264Y-93739843D01*
X157237771Y-93466621D01*
X157233481Y-93460377D01*
X157097991Y-93286647D01*
X157086199Y-93278178D01*
X157074486Y-93284725D01*
X155000000Y-95359210D01*
X153285816Y-97073395D01*
X153278703Y-97086422D01*
X153286229Y-97096855D01*
X153425483Y-97209020D01*
X153431657Y-97213408D01*
X153702271Y-97382178D01*
X153708931Y-97385794D01*
X153866317Y-97459352D01*
X153919561Y-97506315D01*
X153938962Y-97574610D01*
X153918361Y-97642552D01*
X153864298Y-97688570D01*
X153812967Y-97699500D01*
X121189441Y-97699500D01*
X121121320Y-97679498D01*
X121074827Y-97625842D01*
X121064723Y-97555568D01*
X121094217Y-97490988D01*
X121139703Y-97457732D01*
X121215496Y-97425169D01*
X121222263Y-97421765D01*
X121498042Y-97261580D01*
X121504349Y-97257390D01*
X121714305Y-97098889D01*
X121722761Y-97087496D01*
X121716045Y-97075256D01*
X119641921Y-95001131D01*
X120364408Y-95001131D01*
X120364539Y-95002966D01*
X120368790Y-95009580D01*
X122073285Y-96714074D01*
X122086408Y-96721240D01*
X122096709Y-96713851D01*
X122200751Y-96586055D01*
X122205164Y-96579914D01*
X122322059Y-96394646D01*
X129549500Y-96394646D01*
X129552618Y-96420846D01*
X129598061Y-96523153D01*
X129606294Y-96531372D01*
X129606295Y-96531373D01*
X129632363Y-96557395D01*
X129677287Y-96602241D01*
X129687924Y-96606944D01*
X129687926Y-96606945D01*
X129725382Y-96623504D01*
X129779673Y-96647506D01*
X129805354Y-96650500D01*
X131594646Y-96650500D01*
X131598350Y-96650059D01*
X131598353Y-96650059D01*
X131605746Y-96649179D01*
X131620846Y-96647382D01*
X131723153Y-96601939D01*
X131739010Y-96586055D01*
X131794023Y-96530945D01*
X131802241Y-96522713D01*
X131807922Y-96509865D01*
X131833265Y-96452538D01*
X131847506Y-96420327D01*
X131850500Y-96394646D01*
X131850500Y-95710673D01*
X131870502Y-95642552D01*
X131924158Y-95596059D01*
X131994432Y-95585955D01*
X132059012Y-95615449D01*
X132097396Y-95675175D01*
X132098658Y-95680784D01*
X132098796Y-95680749D01*
X132150845Y-95885690D01*
X132153262Y-95890933D01*
X132210612Y-96015335D01*
X132239369Y-96077714D01*
X132361405Y-96250391D01*
X132365539Y-96254418D01*
X132505727Y-96390983D01*
X132512865Y-96397937D01*
X132517661Y-96401142D01*
X132517664Y-96401144D01*
X132620216Y-96469667D01*
X132688677Y-96515411D01*
X132693985Y-96517692D01*
X132693986Y-96517692D01*
X132877650Y-96596600D01*
X132877653Y-96596601D01*
X132882953Y-96598878D01*
X132888582Y-96600152D01*
X132888583Y-96600152D01*
X133083550Y-96644269D01*
X133083553Y-96644269D01*
X133089186Y-96645544D01*
X133094957Y-96645771D01*
X133094959Y-96645771D01*
X133156989Y-96648208D01*
X133300470Y-96653846D01*
X133306179Y-96653018D01*
X133306183Y-96653018D01*
X133504015Y-96624333D01*
X133504019Y-96624332D01*
X133509730Y-96623504D01*
X133596579Y-96594023D01*
X133704483Y-96557395D01*
X133704488Y-96557393D01*
X133709955Y-96555537D01*
X133714998Y-96552713D01*
X133889395Y-96455046D01*
X133889399Y-96455043D01*
X133894442Y-96452219D01*
X134057012Y-96317012D01*
X134192219Y-96154442D01*
X134195043Y-96149399D01*
X134195046Y-96149395D01*
X134292713Y-95974998D01*
X134292714Y-95974996D01*
X134295537Y-95969955D01*
X134297393Y-95964488D01*
X134297395Y-95964483D01*
X134361647Y-95775200D01*
X134363504Y-95769730D01*
X134364333Y-95764015D01*
X134385090Y-95620860D01*
X134414660Y-95556315D01*
X134474432Y-95518003D01*
X134545429Y-95518087D01*
X134605109Y-95556542D01*
X134634525Y-95621158D01*
X134635515Y-95630695D01*
X134638796Y-95680749D01*
X134640217Y-95686345D01*
X134640218Y-95686350D01*
X134674736Y-95822262D01*
X134690845Y-95885690D01*
X134693262Y-95890933D01*
X134750612Y-96015335D01*
X134779369Y-96077714D01*
X134901405Y-96250391D01*
X134905539Y-96254418D01*
X135045727Y-96390983D01*
X135052865Y-96397937D01*
X135057661Y-96401142D01*
X135057664Y-96401144D01*
X135160216Y-96469667D01*
X135228677Y-96515411D01*
X135233985Y-96517692D01*
X135233986Y-96517692D01*
X135417650Y-96596600D01*
X135417653Y-96596601D01*
X135422953Y-96598878D01*
X135428582Y-96600152D01*
X135428583Y-96600152D01*
X135623550Y-96644269D01*
X135623553Y-96644269D01*
X135629186Y-96645544D01*
X135634957Y-96645771D01*
X135634959Y-96645771D01*
X135696989Y-96648208D01*
X135840470Y-96653846D01*
X135846179Y-96653018D01*
X135846183Y-96653018D01*
X136044015Y-96624333D01*
X136044019Y-96624332D01*
X136049730Y-96623504D01*
X136136579Y-96594023D01*
X136244483Y-96557395D01*
X136244488Y-96557393D01*
X136249955Y-96555537D01*
X136254998Y-96552713D01*
X136429395Y-96455046D01*
X136429399Y-96455043D01*
X136434442Y-96452219D01*
X136597012Y-96317012D01*
X136732219Y-96154442D01*
X136828931Y-95981751D01*
X136879667Y-95932091D01*
X136949198Y-95917744D01*
X137015449Y-95943265D01*
X137055607Y-95995915D01*
X137101770Y-96109603D01*
X137106413Y-96118794D01*
X137217694Y-96300388D01*
X137223777Y-96308699D01*
X137363213Y-96469667D01*
X137370580Y-96476883D01*
X137534434Y-96612916D01*
X137542881Y-96618831D01*
X137726756Y-96726279D01*
X137736042Y-96730729D01*
X137935001Y-96806703D01*
X137944899Y-96809579D01*
X138048250Y-96830606D01*
X138062299Y-96829410D01*
X138066000Y-96819065D01*
X138066000Y-96818517D01*
X138574000Y-96818517D01*
X138578064Y-96832359D01*
X138591478Y-96834393D01*
X138598184Y-96833534D01*
X138608262Y-96831392D01*
X138812255Y-96770191D01*
X138821842Y-96766433D01*
X139013095Y-96672739D01*
X139021945Y-96667464D01*
X139195328Y-96543792D01*
X139203200Y-96537139D01*
X139354052Y-96386812D01*
X139360730Y-96378965D01*
X139485003Y-96206020D01*
X139490313Y-96197183D01*
X139584670Y-96006267D01*
X139588469Y-95996672D01*
X139650377Y-95792910D01*
X139652555Y-95782837D01*
X139653986Y-95771962D01*
X139651775Y-95757778D01*
X139638617Y-95754000D01*
X138592115Y-95754000D01*
X138576876Y-95758475D01*
X138575671Y-95759865D01*
X138574000Y-95767548D01*
X138574000Y-96818517D01*
X138066000Y-96818517D01*
X138066000Y-95227885D01*
X138574000Y-95227885D01*
X138578475Y-95243124D01*
X138579865Y-95244329D01*
X138587548Y-95246000D01*
X139638344Y-95246000D01*
X139651875Y-95242027D01*
X139653180Y-95232947D01*
X139611214Y-95065875D01*
X139607894Y-95056124D01*
X139572787Y-94975383D01*
X152287388Y-94975383D01*
X152303245Y-95293914D01*
X152304076Y-95301443D01*
X152358085Y-95615759D01*
X152359818Y-95623146D01*
X152451196Y-95928695D01*
X152453799Y-95935808D01*
X152581227Y-96228173D01*
X152584669Y-96234929D01*
X152746296Y-96509865D01*
X152750519Y-96516150D01*
X152901463Y-96713934D01*
X152912989Y-96722396D01*
X152925054Y-96715735D01*
X154627980Y-95012810D01*
X154635592Y-94998869D01*
X154635461Y-94997034D01*
X154631210Y-94990420D01*
X152926445Y-93285656D01*
X152913510Y-93278592D01*
X152902949Y-93286252D01*
X152782766Y-93437072D01*
X152778410Y-93443270D01*
X152611059Y-93714764D01*
X152607479Y-93721440D01*
X152473956Y-94011074D01*
X152471206Y-94018125D01*
X152373444Y-94321708D01*
X152371561Y-94329041D01*
X152310979Y-94642170D01*
X152309992Y-94649670D01*
X152287467Y-94967802D01*
X152287388Y-94975383D01*
X139572787Y-94975383D01*
X139522972Y-94860814D01*
X139518105Y-94851739D01*
X139402426Y-94672926D01*
X139396136Y-94664757D01*
X139252806Y-94507240D01*
X139245273Y-94500215D01*
X139078139Y-94368222D01*
X139069552Y-94362517D01*
X138883117Y-94259599D01*
X138873705Y-94255369D01*
X138672959Y-94184280D01*
X138662988Y-94181646D01*
X138591837Y-94168972D01*
X138578540Y-94170432D01*
X138574000Y-94184989D01*
X138574000Y-95227885D01*
X138066000Y-95227885D01*
X138066000Y-94183102D01*
X138062082Y-94169758D01*
X138047806Y-94167771D01*
X138009324Y-94173660D01*
X137999288Y-94176051D01*
X137796868Y-94242212D01*
X137787359Y-94246209D01*
X137598463Y-94344542D01*
X137589738Y-94350036D01*
X137419433Y-94477905D01*
X137411726Y-94484748D01*
X137264590Y-94638717D01*
X137258104Y-94646727D01*
X137138098Y-94822649D01*
X137133000Y-94831623D01*
X137050033Y-95010360D01*
X137003209Y-95063727D01*
X136934965Y-95083308D01*
X136866970Y-95062884D01*
X136822739Y-95013038D01*
X136767721Y-94901473D01*
X136767719Y-94901469D01*
X136765165Y-94896290D01*
X136638651Y-94726867D01*
X136511236Y-94609086D01*
X136487622Y-94587257D01*
X136487620Y-94587255D01*
X136483381Y-94583337D01*
X136351641Y-94500215D01*
X136309434Y-94473584D01*
X136309433Y-94473584D01*
X136304554Y-94470505D01*
X136108160Y-94392152D01*
X136102503Y-94391027D01*
X136102497Y-94391025D01*
X135906442Y-94352028D01*
X135906440Y-94352028D01*
X135900775Y-94350901D01*
X135895000Y-94350825D01*
X135894996Y-94350825D01*
X135788976Y-94349437D01*
X135689346Y-94348133D01*
X135683649Y-94349112D01*
X135683648Y-94349112D01*
X135486650Y-94382962D01*
X135486649Y-94382962D01*
X135480953Y-94383941D01*
X135282575Y-94457127D01*
X135277614Y-94460079D01*
X135277613Y-94460079D01*
X135231553Y-94487482D01*
X135100856Y-94565238D01*
X134941881Y-94704655D01*
X134810976Y-94870708D01*
X134808287Y-94875819D01*
X134808285Y-94875822D01*
X134791814Y-94907129D01*
X134712523Y-95057836D01*
X134649820Y-95259773D01*
X134649141Y-95265510D01*
X134635088Y-95384239D01*
X134607217Y-95449537D01*
X134548469Y-95489401D01*
X134477494Y-95491174D01*
X134416828Y-95454295D01*
X134385730Y-95390471D01*
X134384490Y-95380958D01*
X134381230Y-95345470D01*
X134376081Y-95289440D01*
X134363359Y-95244329D01*
X134320255Y-95091496D01*
X134318686Y-95085931D01*
X134308796Y-95065875D01*
X134227719Y-94901469D01*
X134225165Y-94896290D01*
X134098651Y-94726867D01*
X133971236Y-94609086D01*
X133947622Y-94587257D01*
X133947620Y-94587255D01*
X133943381Y-94583337D01*
X133811641Y-94500215D01*
X133769434Y-94473584D01*
X133769433Y-94473584D01*
X133764554Y-94470505D01*
X133568160Y-94392152D01*
X133562503Y-94391027D01*
X133562497Y-94391025D01*
X133366442Y-94352028D01*
X133366440Y-94352028D01*
X133360775Y-94350901D01*
X133355000Y-94350825D01*
X133354996Y-94350825D01*
X133248976Y-94349437D01*
X133149346Y-94348133D01*
X133143649Y-94349112D01*
X133143648Y-94349112D01*
X132946650Y-94382962D01*
X132946649Y-94382962D01*
X132940953Y-94383941D01*
X132742575Y-94457127D01*
X132737614Y-94460079D01*
X132737613Y-94460079D01*
X132691553Y-94487482D01*
X132560856Y-94565238D01*
X132401881Y-94704655D01*
X132270976Y-94870708D01*
X132268287Y-94875819D01*
X132268285Y-94875822D01*
X132251814Y-94907129D01*
X132172523Y-95057836D01*
X132109820Y-95259773D01*
X132109141Y-95265510D01*
X132101627Y-95328995D01*
X132073756Y-95394292D01*
X132015008Y-95434156D01*
X131944034Y-95435930D01*
X131883367Y-95399051D01*
X131852269Y-95335227D01*
X131850500Y-95314185D01*
X131850500Y-94605354D01*
X131847382Y-94579154D01*
X131801939Y-94476847D01*
X131793444Y-94468366D01*
X131730945Y-94405977D01*
X131722713Y-94397759D01*
X131712076Y-94393056D01*
X131712074Y-94393055D01*
X131642998Y-94362517D01*
X131620327Y-94352494D01*
X131594646Y-94349500D01*
X129805354Y-94349500D01*
X129801650Y-94349941D01*
X129801647Y-94349941D01*
X129794254Y-94350821D01*
X129779154Y-94352618D01*
X129770514Y-94356456D01*
X129770513Y-94356456D01*
X129704131Y-94385942D01*
X129676847Y-94398061D01*
X129597759Y-94477287D01*
X129593056Y-94487924D01*
X129593055Y-94487926D01*
X129566735Y-94547462D01*
X129552494Y-94579673D01*
X129549500Y-94605354D01*
X129549500Y-96394646D01*
X122322059Y-96394646D01*
X122375349Y-96310187D01*
X122379005Y-96303536D01*
X122515544Y-96015335D01*
X122518375Y-96008295D01*
X122619306Y-95705767D01*
X122621270Y-95698433D01*
X122685122Y-95385989D01*
X122686194Y-95378465D01*
X122712173Y-95059051D01*
X122712378Y-95054576D01*
X122712927Y-95002221D01*
X122712817Y-94997789D01*
X122693529Y-94677853D01*
X122692621Y-94670351D01*
X122635319Y-94356593D01*
X122633518Y-94349260D01*
X122538935Y-94044655D01*
X122536263Y-94037583D01*
X122405781Y-93746570D01*
X122402264Y-93739843D01*
X122237771Y-93466621D01*
X122233481Y-93460377D01*
X122103053Y-93293138D01*
X131144758Y-93293138D01*
X131162035Y-93449633D01*
X131216143Y-93597490D01*
X131303958Y-93728172D01*
X131420410Y-93834135D01*
X131427085Y-93837759D01*
X131552099Y-93905637D01*
X131552101Y-93905638D01*
X131558776Y-93909262D01*
X131566125Y-93911190D01*
X131703719Y-93947287D01*
X131703721Y-93947287D01*
X131711069Y-93949215D01*
X131794380Y-93950524D01*
X131860898Y-93951569D01*
X131860901Y-93951569D01*
X131868495Y-93951688D01*
X132021968Y-93916538D01*
X132130248Y-93862079D01*
X132155840Y-93849208D01*
X132155843Y-93849206D01*
X132162625Y-93845795D01*
X132168400Y-93840862D01*
X132168404Y-93840860D01*
X132176493Y-93833952D01*
X132199843Y-93820056D01*
X132199135Y-93818769D01*
X132237268Y-93797805D01*
X132247913Y-93792589D01*
X132287855Y-93775305D01*
X132299541Y-93765842D01*
X132318126Y-93753354D01*
X132325518Y-93749290D01*
X132331308Y-93746107D01*
X132339422Y-93739103D01*
X132363958Y-93714567D01*
X132373759Y-93705742D01*
X132398392Y-93685794D01*
X132398393Y-93685793D01*
X132405070Y-93680386D01*
X132410043Y-93673388D01*
X132410048Y-93673383D01*
X132415968Y-93665052D01*
X132429579Y-93648946D01*
X133165102Y-92913423D01*
X153277917Y-92913423D01*
X153284520Y-92925309D01*
X154987190Y-94627980D01*
X155001131Y-94635592D01*
X155002966Y-94635461D01*
X155009580Y-94631210D01*
X156714559Y-92926230D01*
X156721571Y-92913389D01*
X156713777Y-92902701D01*
X156551298Y-92774613D01*
X156545075Y-92770288D01*
X156272702Y-92604357D01*
X156266025Y-92600822D01*
X155975686Y-92468813D01*
X155968616Y-92466099D01*
X155664537Y-92369932D01*
X155657186Y-92368085D01*
X155343746Y-92309142D01*
X155336237Y-92308194D01*
X155017989Y-92287335D01*
X155010424Y-92287295D01*
X154691964Y-92304821D01*
X154684450Y-92305690D01*
X154370405Y-92361348D01*
X154363044Y-92363115D01*
X154057980Y-92456092D01*
X154050860Y-92458740D01*
X153759182Y-92587690D01*
X153752445Y-92591167D01*
X153478355Y-92754233D01*
X153472091Y-92758490D01*
X153286385Y-92901762D01*
X153277917Y-92913423D01*
X133165102Y-92913423D01*
X133318535Y-92759990D01*
X133379499Y-92726265D01*
X133385763Y-92724830D01*
X133421968Y-92716538D01*
X133562625Y-92645795D01*
X133615282Y-92600822D01*
X133676574Y-92548474D01*
X133676576Y-92548471D01*
X133682348Y-92543542D01*
X133774224Y-92415683D01*
X133832950Y-92269598D01*
X133855134Y-92113723D01*
X133855278Y-92100000D01*
X133836363Y-91943694D01*
X133780710Y-91796412D01*
X133691531Y-91666657D01*
X133644971Y-91625174D01*
X133579648Y-91566972D01*
X133579645Y-91566970D01*
X133573976Y-91561919D01*
X133434831Y-91488245D01*
X133418122Y-91484048D01*
X133289498Y-91451740D01*
X133289496Y-91451740D01*
X133282128Y-91449889D01*
X133274530Y-91449849D01*
X133274528Y-91449849D01*
X133207319Y-91449497D01*
X133124684Y-91449065D01*
X133117305Y-91450837D01*
X133117301Y-91450837D01*
X132978967Y-91484048D01*
X132978963Y-91484049D01*
X132971588Y-91485820D01*
X132831679Y-91558032D01*
X132825957Y-91563024D01*
X132825955Y-91563025D01*
X132718759Y-91656538D01*
X132718756Y-91656541D01*
X132713034Y-91661533D01*
X132622501Y-91790348D01*
X132565309Y-91937039D01*
X132563792Y-91936448D01*
X132535596Y-91985879D01*
X131908820Y-92612656D01*
X131846507Y-92646681D01*
X131819066Y-92649559D01*
X131724684Y-92649065D01*
X131717305Y-92650837D01*
X131717301Y-92650837D01*
X131578967Y-92684048D01*
X131578963Y-92684049D01*
X131571588Y-92685820D01*
X131431679Y-92758032D01*
X131425957Y-92763024D01*
X131425955Y-92763025D01*
X131318759Y-92856538D01*
X131318756Y-92856541D01*
X131313034Y-92861533D01*
X131222501Y-92990348D01*
X131165309Y-93137039D01*
X131164318Y-93144568D01*
X131145866Y-93284725D01*
X131144758Y-93293138D01*
X122103053Y-93293138D01*
X122097991Y-93286647D01*
X122086199Y-93278178D01*
X122074486Y-93284725D01*
X120372020Y-94987190D01*
X120364408Y-95001131D01*
X119641921Y-95001131D01*
X119640790Y-95000000D01*
X117926443Y-93285654D01*
X117913511Y-93278592D01*
X117902948Y-93286253D01*
X117782766Y-93437072D01*
X117778410Y-93443270D01*
X117611059Y-93714764D01*
X117607479Y-93721440D01*
X117542644Y-93862079D01*
X117495960Y-93915568D01*
X117427769Y-93935327D01*
X117359720Y-93915082D01*
X117313418Y-93861261D01*
X117302218Y-93809335D01*
X117302165Y-92913423D01*
X118277917Y-92913423D01*
X118284520Y-92925309D01*
X119987190Y-94627980D01*
X120001131Y-94635592D01*
X120002966Y-94635461D01*
X120009580Y-94631210D01*
X121714559Y-92926230D01*
X121721571Y-92913389D01*
X121713777Y-92902701D01*
X121551298Y-92774613D01*
X121545075Y-92770288D01*
X121272702Y-92604357D01*
X121266025Y-92600822D01*
X120975686Y-92468813D01*
X120968616Y-92466099D01*
X120664537Y-92369932D01*
X120657186Y-92368085D01*
X120343746Y-92309142D01*
X120336237Y-92308194D01*
X120017989Y-92287335D01*
X120010424Y-92287295D01*
X119691964Y-92304821D01*
X119684450Y-92305690D01*
X119370405Y-92361348D01*
X119363044Y-92363115D01*
X119057980Y-92456092D01*
X119050860Y-92458740D01*
X118759182Y-92587690D01*
X118752445Y-92591167D01*
X118478355Y-92754233D01*
X118472091Y-92758490D01*
X118286385Y-92901762D01*
X118277917Y-92913423D01*
X117302165Y-92913423D01*
X117301986Y-89893138D01*
X134144758Y-89893138D01*
X134162035Y-90049633D01*
X134216143Y-90197490D01*
X134220380Y-90203796D01*
X134220382Y-90203799D01*
X134260709Y-90263811D01*
X134303958Y-90328172D01*
X134420410Y-90434135D01*
X134478672Y-90465769D01*
X134552099Y-90505637D01*
X134552101Y-90505638D01*
X134558776Y-90509262D01*
X134566125Y-90511190D01*
X134703719Y-90547287D01*
X134703721Y-90547287D01*
X134711069Y-90549215D01*
X134794380Y-90550524D01*
X134860898Y-90551569D01*
X134860901Y-90551569D01*
X134868495Y-90551688D01*
X135021968Y-90516538D01*
X135126558Y-90463935D01*
X135183171Y-90450500D01*
X135955550Y-90450500D01*
X136015672Y-90465769D01*
X136089099Y-90505637D01*
X136089101Y-90505638D01*
X136095776Y-90509262D01*
X136103125Y-90511190D01*
X136240719Y-90547287D01*
X136240721Y-90547287D01*
X136248069Y-90549215D01*
X136331380Y-90550524D01*
X136397898Y-90551569D01*
X136397901Y-90551569D01*
X136405495Y-90551688D01*
X136558968Y-90516538D01*
X136699625Y-90445795D01*
X136725869Y-90423381D01*
X136813574Y-90348474D01*
X136813576Y-90348471D01*
X136819348Y-90343542D01*
X136911224Y-90215683D01*
X136969950Y-90069598D01*
X136992134Y-89913723D01*
X136992278Y-89900000D01*
X136973363Y-89743694D01*
X136917710Y-89596412D01*
X136828531Y-89466657D01*
X136781971Y-89425174D01*
X136716648Y-89366972D01*
X136716645Y-89366970D01*
X136710976Y-89361919D01*
X136571831Y-89288245D01*
X136555122Y-89284048D01*
X136426498Y-89251740D01*
X136426496Y-89251740D01*
X136419128Y-89249889D01*
X136411530Y-89249849D01*
X136411528Y-89249849D01*
X136344319Y-89249497D01*
X136261684Y-89249065D01*
X136254305Y-89250837D01*
X136254301Y-89250837D01*
X136115967Y-89284048D01*
X136115963Y-89284049D01*
X136108588Y-89285820D01*
X136101843Y-89289301D01*
X136101844Y-89289301D01*
X136012400Y-89335466D01*
X135954610Y-89349500D01*
X135181819Y-89349500D01*
X135122860Y-89334854D01*
X135041544Y-89291799D01*
X135041541Y-89291798D01*
X135034831Y-89288245D01*
X135018122Y-89284048D01*
X134889498Y-89251740D01*
X134889496Y-89251740D01*
X134882128Y-89249889D01*
X134874530Y-89249849D01*
X134874528Y-89249849D01*
X134807319Y-89249497D01*
X134724684Y-89249065D01*
X134717305Y-89250837D01*
X134717301Y-89250837D01*
X134578967Y-89284048D01*
X134578963Y-89284049D01*
X134571588Y-89285820D01*
X134564843Y-89289301D01*
X134564844Y-89289301D01*
X134448210Y-89349500D01*
X134431679Y-89358032D01*
X134425957Y-89363024D01*
X134425955Y-89363025D01*
X134318759Y-89456538D01*
X134318756Y-89456541D01*
X134313034Y-89461533D01*
X134222501Y-89590348D01*
X134165309Y-89737039D01*
X134144758Y-89893138D01*
X117301986Y-89893138D01*
X117301655Y-84317806D01*
X150789563Y-84317806D01*
X150791055Y-84334199D01*
X150800016Y-84432661D01*
X150807790Y-84518089D01*
X150809528Y-84523995D01*
X150809529Y-84523999D01*
X150834543Y-84608988D01*
X150864572Y-84711018D01*
X150957746Y-84889243D01*
X151083763Y-85045976D01*
X151237823Y-85175248D01*
X151243215Y-85178212D01*
X151243219Y-85178215D01*
X151339543Y-85231169D01*
X151414058Y-85272134D01*
X151419925Y-85273995D01*
X151419927Y-85273996D01*
X151529259Y-85308678D01*
X151605755Y-85332944D01*
X151762268Y-85350500D01*
X152420606Y-85350500D01*
X152570151Y-85335837D01*
X152762679Y-85277710D01*
X152855630Y-85228287D01*
X152934803Y-85186190D01*
X152934805Y-85186189D01*
X152940249Y-85183294D01*
X152998135Y-85136083D01*
X153091324Y-85060081D01*
X153091327Y-85060078D01*
X153096099Y-85056186D01*
X153101269Y-85049937D01*
X153220363Y-84905977D01*
X153220365Y-84905974D01*
X153224292Y-84901227D01*
X153319945Y-84724320D01*
X153379415Y-84532203D01*
X153380899Y-84518089D01*
X153390595Y-84425840D01*
X154690711Y-84425840D01*
X154691068Y-84432656D01*
X154691068Y-84432661D01*
X154696594Y-84538090D01*
X154700667Y-84615801D01*
X154751181Y-84799193D01*
X154839898Y-84967460D01*
X154962678Y-85112751D01*
X154968102Y-85116898D01*
X154968103Y-85116899D01*
X155108372Y-85224143D01*
X155108376Y-85224146D01*
X155113793Y-85228287D01*
X155286193Y-85308678D01*
X155368721Y-85327125D01*
X155466790Y-85349047D01*
X155466796Y-85349048D01*
X155471834Y-85350174D01*
X155477665Y-85350500D01*
X156267517Y-85350500D01*
X156409109Y-85335118D01*
X156589396Y-85274445D01*
X156752447Y-85176474D01*
X156890658Y-85045775D01*
X156940335Y-84972677D01*
X156993744Y-84894088D01*
X156993745Y-84894086D01*
X156997578Y-84888446D01*
X157030862Y-84805232D01*
X157065685Y-84718168D01*
X157065686Y-84718166D01*
X157068221Y-84711827D01*
X157096983Y-84538090D01*
X157098174Y-84530897D01*
X157098174Y-84530894D01*
X157099289Y-84524160D01*
X157098650Y-84511950D01*
X157089690Y-84341012D01*
X157089333Y-84334199D01*
X157038819Y-84150807D01*
X156950102Y-83982540D01*
X156827322Y-83837249D01*
X156816274Y-83828802D01*
X156681628Y-83725857D01*
X156681624Y-83725854D01*
X156676207Y-83721713D01*
X156503807Y-83641322D01*
X156421279Y-83622875D01*
X156323210Y-83600953D01*
X156323204Y-83600952D01*
X156318166Y-83599826D01*
X156312335Y-83599500D01*
X155522483Y-83599500D01*
X155380891Y-83614882D01*
X155200604Y-83675555D01*
X155037553Y-83773526D01*
X154964654Y-83842463D01*
X154919095Y-83885546D01*
X154899342Y-83904225D01*
X154895507Y-83909868D01*
X154846120Y-83982540D01*
X154792422Y-84061554D01*
X154789890Y-84067883D01*
X154789889Y-84067886D01*
X154756723Y-84150807D01*
X154721779Y-84238173D01*
X154690711Y-84425840D01*
X153390595Y-84425840D01*
X153399793Y-84338322D01*
X153399793Y-84338321D01*
X153400437Y-84332194D01*
X153382210Y-84131911D01*
X153376324Y-84111910D01*
X153344859Y-84005002D01*
X153344814Y-83934005D01*
X153383160Y-83874255D01*
X153424295Y-83850436D01*
X153447190Y-83842463D01*
X153493073Y-83826485D01*
X153645375Y-83731316D01*
X153737499Y-83639833D01*
X153767810Y-83609733D01*
X153767813Y-83609729D01*
X153772807Y-83604770D01*
X153869037Y-83453136D01*
X153898459Y-83370509D01*
X153926919Y-83290586D01*
X153926920Y-83290581D01*
X153929281Y-83283951D01*
X153930114Y-83276965D01*
X153930115Y-83276961D01*
X153949711Y-83112617D01*
X153950545Y-83105624D01*
X153931773Y-82927017D01*
X153873897Y-82757007D01*
X153779794Y-82604045D01*
X153774868Y-82599014D01*
X153774865Y-82599011D01*
X153714024Y-82536883D01*
X153654141Y-82475732D01*
X153637413Y-82464951D01*
X153509109Y-82382265D01*
X153503183Y-82378446D01*
X153496563Y-82376037D01*
X153496560Y-82376035D01*
X153341039Y-82319430D01*
X153341036Y-82319429D01*
X153334422Y-82317022D01*
X153277692Y-82309856D01*
X153199645Y-82299996D01*
X153199642Y-82299996D01*
X153195717Y-82299500D01*
X153099845Y-82299500D01*
X152966528Y-82314454D01*
X152959875Y-82316771D01*
X152959874Y-82316771D01*
X152891549Y-82340564D01*
X152796927Y-82373515D01*
X152790953Y-82377248D01*
X152790951Y-82377249D01*
X152782924Y-82382265D01*
X152644625Y-82468684D01*
X152580635Y-82532229D01*
X152522190Y-82590267D01*
X152522187Y-82590271D01*
X152517193Y-82595230D01*
X152420963Y-82746864D01*
X152418598Y-82753506D01*
X152363081Y-82909414D01*
X152363080Y-82909419D01*
X152360719Y-82916049D01*
X152359886Y-82923035D01*
X152359885Y-82923039D01*
X152344648Y-83050823D01*
X152339455Y-83094376D01*
X152340191Y-83101379D01*
X152346387Y-83160329D01*
X152333615Y-83230168D01*
X152285113Y-83282015D01*
X152221077Y-83299500D01*
X151769394Y-83299500D01*
X151619849Y-83314163D01*
X151427321Y-83372290D01*
X151421880Y-83375183D01*
X151255197Y-83463810D01*
X151255195Y-83463811D01*
X151249751Y-83466706D01*
X151244972Y-83470604D01*
X151098676Y-83589919D01*
X151098673Y-83589922D01*
X151093901Y-83593814D01*
X151089974Y-83598561D01*
X151089972Y-83598563D01*
X150969637Y-83744023D01*
X150969635Y-83744026D01*
X150965708Y-83748773D01*
X150870055Y-83925680D01*
X150854069Y-83977323D01*
X150829742Y-84055912D01*
X150810585Y-84117797D01*
X150809941Y-84123922D01*
X150809941Y-84123923D01*
X150808456Y-84138050D01*
X150789563Y-84317806D01*
X117301655Y-84317806D01*
X117301212Y-76867806D01*
X150789563Y-76867806D01*
X150807790Y-77068089D01*
X150809528Y-77073995D01*
X150809529Y-77073999D01*
X150844654Y-77193341D01*
X150864572Y-77261018D01*
X150882743Y-77295775D01*
X150952908Y-77429988D01*
X150957746Y-77439243D01*
X151083763Y-77595976D01*
X151237823Y-77725248D01*
X151243215Y-77728212D01*
X151243219Y-77728215D01*
X151284678Y-77751007D01*
X151414058Y-77822134D01*
X151419925Y-77823995D01*
X151419927Y-77823996D01*
X151599885Y-77881082D01*
X151605755Y-77882944D01*
X151762268Y-77900500D01*
X152220656Y-77900500D01*
X152288777Y-77920502D01*
X152335270Y-77974158D01*
X152345770Y-78041418D01*
X152339455Y-78094376D01*
X152358227Y-78272983D01*
X152416103Y-78442993D01*
X152510206Y-78595955D01*
X152515132Y-78600986D01*
X152515135Y-78600989D01*
X152518838Y-78604770D01*
X152635859Y-78724268D01*
X152641784Y-78728087D01*
X152641786Y-78728088D01*
X152780891Y-78817735D01*
X152786817Y-78821554D01*
X152793437Y-78823963D01*
X152793440Y-78823965D01*
X152948961Y-78880570D01*
X152948964Y-78880571D01*
X152955578Y-78882978D01*
X152982121Y-78886331D01*
X153090355Y-78900004D01*
X153090358Y-78900004D01*
X153094283Y-78900500D01*
X153190155Y-78900500D01*
X153323472Y-78885546D01*
X153330847Y-78882978D01*
X153398451Y-78859436D01*
X153493073Y-78826485D01*
X153500965Y-78821554D01*
X153639401Y-78735049D01*
X153645375Y-78731316D01*
X153709365Y-78667771D01*
X153767810Y-78609733D01*
X153767813Y-78609729D01*
X153772807Y-78604770D01*
X153869037Y-78453136D01*
X153879643Y-78423352D01*
X153926919Y-78290586D01*
X153926920Y-78290581D01*
X153929281Y-78283951D01*
X153930114Y-78276965D01*
X153930115Y-78276961D01*
X153949711Y-78112617D01*
X153950545Y-78105624D01*
X153931773Y-77927017D01*
X153916769Y-77882944D01*
X153876168Y-77763677D01*
X153876167Y-77763674D01*
X153873897Y-77757007D01*
X153779794Y-77604045D01*
X153774868Y-77599014D01*
X153774865Y-77599011D01*
X153659465Y-77481169D01*
X153654141Y-77475732D01*
X153597522Y-77439243D01*
X153509109Y-77382265D01*
X153503183Y-77378446D01*
X153422280Y-77349000D01*
X153365111Y-77306907D01*
X153339773Y-77240586D01*
X153345012Y-77193341D01*
X153377593Y-77088090D01*
X153377594Y-77088087D01*
X153379415Y-77082203D01*
X153380899Y-77068089D01*
X153399793Y-76888322D01*
X153399793Y-76888321D01*
X153400437Y-76882194D01*
X153390605Y-76774160D01*
X153382769Y-76688050D01*
X153382768Y-76688047D01*
X153382210Y-76681911D01*
X153380424Y-76675840D01*
X154690711Y-76675840D01*
X154691068Y-76682656D01*
X154691068Y-76682661D01*
X154695864Y-76774160D01*
X154700667Y-76865801D01*
X154751181Y-77049193D01*
X154839898Y-77217460D01*
X154962678Y-77362751D01*
X154968102Y-77366898D01*
X154968103Y-77366899D01*
X155108372Y-77474143D01*
X155108376Y-77474146D01*
X155113793Y-77478287D01*
X155286193Y-77558678D01*
X155368721Y-77577125D01*
X155466790Y-77599047D01*
X155466796Y-77599048D01*
X155471834Y-77600174D01*
X155477665Y-77600500D01*
X156267517Y-77600500D01*
X156272700Y-77599937D01*
X156309161Y-77595976D01*
X156409109Y-77585118D01*
X156589396Y-77524445D01*
X156752447Y-77426474D01*
X156890658Y-77295775D01*
X156914279Y-77261018D01*
X156993744Y-77144088D01*
X156993745Y-77144086D01*
X156997578Y-77138446D01*
X157028175Y-77061950D01*
X157065685Y-76968168D01*
X157065686Y-76968166D01*
X157068221Y-76961827D01*
X157099289Y-76774160D01*
X157094494Y-76682661D01*
X157089690Y-76591012D01*
X157089333Y-76584199D01*
X157038819Y-76400807D01*
X156950102Y-76232540D01*
X156827322Y-76087249D01*
X156821897Y-76083101D01*
X156681628Y-75975857D01*
X156681624Y-75975854D01*
X156676207Y-75971713D01*
X156503807Y-75891322D01*
X156403578Y-75868918D01*
X156323210Y-75850953D01*
X156323204Y-75850952D01*
X156318166Y-75849826D01*
X156312335Y-75849500D01*
X155522483Y-75849500D01*
X155380891Y-75864882D01*
X155200604Y-75925555D01*
X155037553Y-76023526D01*
X154899342Y-76154225D01*
X154895507Y-76159868D01*
X154846120Y-76232540D01*
X154792422Y-76311554D01*
X154789890Y-76317883D01*
X154789889Y-76317886D01*
X154756723Y-76400807D01*
X154721779Y-76488173D01*
X154720664Y-76494911D01*
X154692043Y-76667797D01*
X154690711Y-76675840D01*
X153380424Y-76675840D01*
X153327167Y-76494891D01*
X153325428Y-76488982D01*
X153232254Y-76310757D01*
X153106237Y-76154024D01*
X152952177Y-76024752D01*
X152946785Y-76021788D01*
X152946781Y-76021785D01*
X152781337Y-75930832D01*
X152781338Y-75930832D01*
X152775942Y-75927866D01*
X152770075Y-75926005D01*
X152770073Y-75926004D01*
X152590115Y-75868918D01*
X152590114Y-75868918D01*
X152584245Y-75867056D01*
X152427732Y-75849500D01*
X151769394Y-75849500D01*
X151619849Y-75864163D01*
X151427321Y-75922290D01*
X151421880Y-75925183D01*
X151255197Y-76013810D01*
X151255195Y-76013811D01*
X151249751Y-76016706D01*
X151191865Y-76063917D01*
X151098676Y-76139919D01*
X151098673Y-76139922D01*
X151093901Y-76143814D01*
X151089974Y-76148561D01*
X151089972Y-76148563D01*
X150969637Y-76294023D01*
X150969635Y-76294026D01*
X150965708Y-76298773D01*
X150870055Y-76475680D01*
X150810585Y-76667797D01*
X150809941Y-76673922D01*
X150809941Y-76673923D01*
X150790490Y-76858988D01*
X150789563Y-76867806D01*
X117301212Y-76867806D01*
X117301056Y-74252244D01*
X118490819Y-74252244D01*
X118491176Y-74259061D01*
X118491176Y-74259065D01*
X118499302Y-74414111D01*
X118500490Y-74436781D01*
X118502301Y-74443354D01*
X118502301Y-74443357D01*
X118527930Y-74536402D01*
X118549562Y-74614936D01*
X118635746Y-74778398D01*
X118755020Y-74919540D01*
X118760444Y-74923687D01*
X118760445Y-74923688D01*
X118896399Y-75027633D01*
X118896403Y-75027636D01*
X118901820Y-75031777D01*
X118908000Y-75034659D01*
X118908002Y-75034660D01*
X119063120Y-75106993D01*
X119063123Y-75106994D01*
X119069297Y-75109873D01*
X119075942Y-75111358D01*
X119075947Y-75111360D01*
X119184207Y-75135558D01*
X119249637Y-75150183D01*
X119255307Y-75150500D01*
X119391164Y-75150500D01*
X119528709Y-75135558D01*
X119703848Y-75076617D01*
X119862244Y-74981443D01*
X119923318Y-74923688D01*
X119991549Y-74859165D01*
X119991551Y-74859163D01*
X119996507Y-74854476D01*
X120100375Y-74701640D01*
X120132639Y-74620975D01*
X120166466Y-74536402D01*
X120166467Y-74536397D01*
X120169000Y-74530065D01*
X120199181Y-74347756D01*
X120193823Y-74245506D01*
X120189867Y-74170032D01*
X120189510Y-74163219D01*
X120163816Y-74069935D01*
X120142251Y-73991646D01*
X120140438Y-73985064D01*
X120054254Y-73821602D01*
X119934980Y-73680460D01*
X119929555Y-73676312D01*
X119793601Y-73572367D01*
X119793597Y-73572364D01*
X119788180Y-73568223D01*
X119782000Y-73565341D01*
X119781998Y-73565340D01*
X119626880Y-73493007D01*
X119626877Y-73493006D01*
X119620703Y-73490127D01*
X119614058Y-73488642D01*
X119614053Y-73488640D01*
X119474129Y-73457365D01*
X119440363Y-73449817D01*
X119434693Y-73449500D01*
X119298836Y-73449500D01*
X119161291Y-73464442D01*
X118986152Y-73523383D01*
X118827756Y-73618557D01*
X118822796Y-73623248D01*
X118822794Y-73623249D01*
X118762296Y-73680460D01*
X118693493Y-73745524D01*
X118589625Y-73898360D01*
X118587092Y-73904694D01*
X118587090Y-73904697D01*
X118523534Y-74063598D01*
X118523533Y-74063603D01*
X118521000Y-74069935D01*
X118490819Y-74252244D01*
X117301056Y-74252244D01*
X117300878Y-71252244D01*
X118490819Y-71252244D01*
X118491176Y-71259061D01*
X118491176Y-71259065D01*
X118499302Y-71414111D01*
X118500490Y-71436781D01*
X118502301Y-71443354D01*
X118502301Y-71443357D01*
X118527930Y-71536402D01*
X118549562Y-71614936D01*
X118635746Y-71778398D01*
X118755020Y-71919540D01*
X118760444Y-71923687D01*
X118760445Y-71923688D01*
X118896399Y-72027633D01*
X118896403Y-72027636D01*
X118901820Y-72031777D01*
X118908000Y-72034659D01*
X118908002Y-72034660D01*
X119063120Y-72106993D01*
X119063123Y-72106994D01*
X119069297Y-72109873D01*
X119075942Y-72111358D01*
X119075947Y-72111360D01*
X119184207Y-72135558D01*
X119249637Y-72150183D01*
X119255307Y-72150500D01*
X119391164Y-72150500D01*
X119528709Y-72135558D01*
X119703848Y-72076617D01*
X119862244Y-71981443D01*
X119923318Y-71923688D01*
X119991549Y-71859165D01*
X119991551Y-71859163D01*
X119996507Y-71854476D01*
X120100375Y-71701640D01*
X120132639Y-71620975D01*
X120166466Y-71536402D01*
X120166467Y-71536397D01*
X120169000Y-71530065D01*
X120199181Y-71347756D01*
X120193823Y-71245506D01*
X120189867Y-71170032D01*
X120189510Y-71163219D01*
X120163816Y-71069935D01*
X120142251Y-70991646D01*
X120140438Y-70985064D01*
X120054254Y-70821602D01*
X119934980Y-70680460D01*
X119929555Y-70676312D01*
X119793601Y-70572367D01*
X119793597Y-70572364D01*
X119788180Y-70568223D01*
X119782000Y-70565341D01*
X119781998Y-70565340D01*
X119626880Y-70493007D01*
X119626877Y-70493006D01*
X119620703Y-70490127D01*
X119614058Y-70488642D01*
X119614053Y-70488640D01*
X119474129Y-70457365D01*
X119440363Y-70449817D01*
X119434693Y-70449500D01*
X119298836Y-70449500D01*
X119161291Y-70464442D01*
X118986152Y-70523383D01*
X118827756Y-70618557D01*
X118822796Y-70623248D01*
X118822794Y-70623249D01*
X118762296Y-70680460D01*
X118693493Y-70745524D01*
X118589625Y-70898360D01*
X118587092Y-70904694D01*
X118587090Y-70904697D01*
X118523534Y-71063598D01*
X118523533Y-71063603D01*
X118521000Y-71069935D01*
X118490819Y-71252244D01*
X117300878Y-71252244D01*
X117300630Y-67086423D01*
X118278703Y-67086423D01*
X118286227Y-67096854D01*
X118425483Y-67209020D01*
X118431657Y-67213408D01*
X118702271Y-67382178D01*
X118708931Y-67385794D01*
X118997852Y-67520827D01*
X119004905Y-67523620D01*
X119307970Y-67622970D01*
X119315282Y-67624888D01*
X119628092Y-67687109D01*
X119635590Y-67688137D01*
X119953610Y-67712328D01*
X119961173Y-67712446D01*
X120279785Y-67698257D01*
X120287326Y-67697465D01*
X120601924Y-67645101D01*
X120609302Y-67643411D01*
X120915355Y-67553625D01*
X120922450Y-67551071D01*
X121215496Y-67425169D01*
X121222263Y-67421765D01*
X121498042Y-67261580D01*
X121504349Y-67257390D01*
X121714305Y-67098889D01*
X121722761Y-67087496D01*
X121722172Y-67086423D01*
X153278703Y-67086423D01*
X153286227Y-67096854D01*
X153425483Y-67209020D01*
X153431657Y-67213408D01*
X153702271Y-67382178D01*
X153708931Y-67385794D01*
X153997852Y-67520827D01*
X154004905Y-67523620D01*
X154307970Y-67622970D01*
X154315282Y-67624888D01*
X154628092Y-67687109D01*
X154635590Y-67688137D01*
X154953610Y-67712328D01*
X154961173Y-67712446D01*
X155279785Y-67698257D01*
X155287326Y-67697465D01*
X155601924Y-67645101D01*
X155609302Y-67643411D01*
X155915355Y-67553625D01*
X155922450Y-67551071D01*
X156215496Y-67425169D01*
X156222263Y-67421765D01*
X156498042Y-67261580D01*
X156504349Y-67257390D01*
X156714305Y-67098889D01*
X156722761Y-67087496D01*
X156716045Y-67075256D01*
X155012810Y-65372020D01*
X154998869Y-65364408D01*
X154997034Y-65364539D01*
X154990420Y-65368790D01*
X153285818Y-67073393D01*
X153278703Y-67086423D01*
X121722172Y-67086423D01*
X121716045Y-67075256D01*
X120012810Y-65372020D01*
X119998869Y-65364408D01*
X119997034Y-65364539D01*
X119990420Y-65368790D01*
X118285818Y-67073393D01*
X118278703Y-67086423D01*
X117300630Y-67086423D01*
X117300591Y-66433534D01*
X117300576Y-66188712D01*
X117320574Y-66120591D01*
X117374227Y-66074094D01*
X117444500Y-66063986D01*
X117509083Y-66093476D01*
X117542081Y-66138361D01*
X117581223Y-66228165D01*
X117584669Y-66234929D01*
X117746296Y-66509865D01*
X117750519Y-66516150D01*
X117901463Y-66713934D01*
X117912989Y-66722396D01*
X117925054Y-66715735D01*
X119639659Y-65001131D01*
X120364408Y-65001131D01*
X120364539Y-65002966D01*
X120368790Y-65009580D01*
X122073285Y-66714074D01*
X122086408Y-66721240D01*
X122096709Y-66713851D01*
X122200751Y-66586055D01*
X122205164Y-66579914D01*
X122375349Y-66310187D01*
X122379005Y-66303536D01*
X122515544Y-66015335D01*
X122518375Y-66008295D01*
X122619306Y-65705767D01*
X122621270Y-65698433D01*
X122685122Y-65385989D01*
X122686194Y-65378465D01*
X122687048Y-65367966D01*
X125848257Y-65367966D01*
X125878565Y-65502446D01*
X125881645Y-65512275D01*
X125961770Y-65709603D01*
X125966413Y-65718794D01*
X126077694Y-65900388D01*
X126083777Y-65908699D01*
X126223213Y-66069667D01*
X126230580Y-66076883D01*
X126394434Y-66212916D01*
X126402881Y-66218831D01*
X126586756Y-66326279D01*
X126596042Y-66330729D01*
X126795001Y-66406703D01*
X126804899Y-66409579D01*
X126908250Y-66430606D01*
X126922299Y-66429410D01*
X126926000Y-66419065D01*
X126926000Y-66418517D01*
X127434000Y-66418517D01*
X127438064Y-66432359D01*
X127451478Y-66434393D01*
X127458184Y-66433534D01*
X127468262Y-66431392D01*
X127672255Y-66370191D01*
X127681842Y-66366433D01*
X127873095Y-66272739D01*
X127881945Y-66267464D01*
X128055328Y-66143792D01*
X128063200Y-66137139D01*
X128214052Y-65986812D01*
X128220730Y-65978965D01*
X128345003Y-65806020D01*
X128350313Y-65797183D01*
X128444670Y-65606267D01*
X128448019Y-65597809D01*
X128491693Y-65541836D01*
X128558696Y-65518359D01*
X128627755Y-65534835D01*
X128679597Y-65591442D01*
X128694213Y-65623146D01*
X128719369Y-65677714D01*
X128841405Y-65850391D01*
X128886834Y-65894646D01*
X128985727Y-65990983D01*
X128992865Y-65997937D01*
X128997661Y-66001142D01*
X128997664Y-66001144D01*
X129135849Y-66093476D01*
X129168677Y-66115411D01*
X129173985Y-66117692D01*
X129173986Y-66117692D01*
X129357650Y-66196600D01*
X129357653Y-66196601D01*
X129362953Y-66198878D01*
X129368582Y-66200152D01*
X129368583Y-66200152D01*
X129563550Y-66244269D01*
X129563553Y-66244269D01*
X129569186Y-66245544D01*
X129574957Y-66245771D01*
X129574959Y-66245771D01*
X129636989Y-66248208D01*
X129780470Y-66253846D01*
X129786179Y-66253018D01*
X129786183Y-66253018D01*
X129984015Y-66224333D01*
X129984019Y-66224332D01*
X129989730Y-66223504D01*
X130076579Y-66194023D01*
X130184483Y-66157395D01*
X130184488Y-66157393D01*
X130189955Y-66155537D01*
X130194998Y-66152713D01*
X130369395Y-66055046D01*
X130369399Y-66055043D01*
X130374442Y-66052219D01*
X130537012Y-65917012D01*
X130672219Y-65754442D01*
X130675043Y-65749399D01*
X130675046Y-65749395D01*
X130772713Y-65574998D01*
X130772714Y-65574996D01*
X130775537Y-65569955D01*
X130777393Y-65564488D01*
X130777395Y-65564483D01*
X130832398Y-65402446D01*
X130843504Y-65369730D01*
X130845785Y-65354000D01*
X130865090Y-65220860D01*
X130894660Y-65156315D01*
X130954432Y-65118003D01*
X131025429Y-65118087D01*
X131085109Y-65156542D01*
X131114525Y-65221158D01*
X131115515Y-65230695D01*
X131118796Y-65280749D01*
X131120217Y-65286345D01*
X131120218Y-65286350D01*
X131169424Y-65480095D01*
X131170845Y-65485690D01*
X131173262Y-65490933D01*
X131215443Y-65582430D01*
X131259369Y-65677714D01*
X131381405Y-65850391D01*
X131426834Y-65894646D01*
X131525727Y-65990983D01*
X131532865Y-65997937D01*
X131537661Y-66001142D01*
X131537664Y-66001144D01*
X131675849Y-66093476D01*
X131708677Y-66115411D01*
X131713985Y-66117692D01*
X131713986Y-66117692D01*
X131897650Y-66196600D01*
X131897653Y-66196601D01*
X131902953Y-66198878D01*
X131908582Y-66200152D01*
X131908583Y-66200152D01*
X132103550Y-66244269D01*
X132103553Y-66244269D01*
X132109186Y-66245544D01*
X132114957Y-66245771D01*
X132114959Y-66245771D01*
X132176989Y-66248208D01*
X132320470Y-66253846D01*
X132326179Y-66253018D01*
X132326183Y-66253018D01*
X132524015Y-66224333D01*
X132524019Y-66224332D01*
X132529730Y-66223504D01*
X132616579Y-66194023D01*
X132724483Y-66157395D01*
X132724488Y-66157393D01*
X132729955Y-66155537D01*
X132734998Y-66152713D01*
X132909395Y-66055046D01*
X132909399Y-66055043D01*
X132914442Y-66052219D01*
X133077012Y-65917012D01*
X133212219Y-65754442D01*
X133215043Y-65749399D01*
X133215046Y-65749395D01*
X133312713Y-65574998D01*
X133312714Y-65574996D01*
X133315537Y-65569955D01*
X133317393Y-65564488D01*
X133317395Y-65564483D01*
X133372398Y-65402446D01*
X133383504Y-65369730D01*
X133398004Y-65269730D01*
X133398804Y-65264211D01*
X133428374Y-65199665D01*
X133488146Y-65161353D01*
X133559143Y-65161437D01*
X133618823Y-65199892D01*
X133648239Y-65264508D01*
X133649500Y-65282291D01*
X133649500Y-65994646D01*
X133652618Y-66020846D01*
X133656456Y-66029486D01*
X133656456Y-66029487D01*
X133687278Y-66098878D01*
X133698061Y-66123153D01*
X133706294Y-66131372D01*
X133706295Y-66131373D01*
X133732363Y-66157395D01*
X133777287Y-66202241D01*
X133787924Y-66206944D01*
X133787926Y-66206945D01*
X133825382Y-66223504D01*
X133879673Y-66247506D01*
X133905354Y-66250500D01*
X135694646Y-66250500D01*
X135698350Y-66250059D01*
X135698353Y-66250059D01*
X135705746Y-66249179D01*
X135720846Y-66247382D01*
X135758338Y-66230729D01*
X135812518Y-66206663D01*
X135823153Y-66201939D01*
X135837771Y-66187296D01*
X135879450Y-66145544D01*
X135902241Y-66122713D01*
X135911426Y-66101939D01*
X135933265Y-66052538D01*
X135947506Y-66020327D01*
X135950500Y-65994646D01*
X135950500Y-65267966D01*
X138948257Y-65267966D01*
X138978565Y-65402446D01*
X138981645Y-65412275D01*
X139061770Y-65609603D01*
X139066413Y-65618794D01*
X139177694Y-65800388D01*
X139183777Y-65808699D01*
X139323213Y-65969667D01*
X139330580Y-65976883D01*
X139494434Y-66112916D01*
X139502881Y-66118831D01*
X139686756Y-66226279D01*
X139696042Y-66230729D01*
X139895001Y-66306703D01*
X139904899Y-66309579D01*
X140008250Y-66330606D01*
X140022299Y-66329410D01*
X140026000Y-66319065D01*
X140026000Y-66318517D01*
X140534000Y-66318517D01*
X140538064Y-66332359D01*
X140551478Y-66334393D01*
X140558184Y-66333534D01*
X140568262Y-66331392D01*
X140772255Y-66270191D01*
X140781842Y-66266433D01*
X140973095Y-66172739D01*
X140981945Y-66167464D01*
X141155328Y-66043792D01*
X141163200Y-66037139D01*
X141314052Y-65886812D01*
X141320730Y-65878965D01*
X141445003Y-65706020D01*
X141450313Y-65697183D01*
X141544670Y-65506267D01*
X141548019Y-65497809D01*
X141591693Y-65441836D01*
X141658696Y-65418359D01*
X141727755Y-65434835D01*
X141779597Y-65491442D01*
X141802829Y-65541836D01*
X141819369Y-65577714D01*
X141941405Y-65750391D01*
X141989438Y-65797183D01*
X142085727Y-65890983D01*
X142092865Y-65897937D01*
X142097661Y-65901142D01*
X142097664Y-65901144D01*
X142200216Y-65969667D01*
X142268677Y-66015411D01*
X142273985Y-66017692D01*
X142273986Y-66017692D01*
X142457650Y-66096600D01*
X142457653Y-66096601D01*
X142462953Y-66098878D01*
X142468582Y-66100152D01*
X142468583Y-66100152D01*
X142663550Y-66144269D01*
X142663553Y-66144269D01*
X142669186Y-66145544D01*
X142674957Y-66145771D01*
X142674959Y-66145771D01*
X142736989Y-66148208D01*
X142880470Y-66153846D01*
X142886179Y-66153018D01*
X142886183Y-66153018D01*
X143084015Y-66124333D01*
X143084019Y-66124332D01*
X143089730Y-66123504D01*
X143176579Y-66094023D01*
X143284483Y-66057395D01*
X143284488Y-66057393D01*
X143289955Y-66055537D01*
X143302483Y-66048521D01*
X143469395Y-65955046D01*
X143469399Y-65955043D01*
X143474442Y-65952219D01*
X143637012Y-65817012D01*
X143772219Y-65654442D01*
X143775043Y-65649399D01*
X143775046Y-65649395D01*
X143872713Y-65474998D01*
X143872714Y-65474996D01*
X143875537Y-65469955D01*
X143877393Y-65464488D01*
X143877395Y-65464483D01*
X143939240Y-65282291D01*
X143943504Y-65269730D01*
X143950590Y-65220860D01*
X143965090Y-65120860D01*
X143994660Y-65056315D01*
X144054432Y-65018003D01*
X144125429Y-65018087D01*
X144185109Y-65056542D01*
X144214525Y-65121158D01*
X144215515Y-65130695D01*
X144218796Y-65180749D01*
X144220217Y-65186345D01*
X144220218Y-65186350D01*
X144249449Y-65301443D01*
X144270845Y-65385690D01*
X144273262Y-65390933D01*
X144319597Y-65491442D01*
X144359369Y-65577714D01*
X144481405Y-65750391D01*
X144529438Y-65797183D01*
X144625727Y-65890983D01*
X144632865Y-65897937D01*
X144637661Y-65901142D01*
X144637664Y-65901144D01*
X144740216Y-65969667D01*
X144808677Y-66015411D01*
X144813985Y-66017692D01*
X144813986Y-66017692D01*
X144997650Y-66096600D01*
X144997653Y-66096601D01*
X145002953Y-66098878D01*
X145008582Y-66100152D01*
X145008583Y-66100152D01*
X145203550Y-66144269D01*
X145203553Y-66144269D01*
X145209186Y-66145544D01*
X145214957Y-66145771D01*
X145214959Y-66145771D01*
X145276989Y-66148208D01*
X145420470Y-66153846D01*
X145426179Y-66153018D01*
X145426183Y-66153018D01*
X145624015Y-66124333D01*
X145624019Y-66124332D01*
X145629730Y-66123504D01*
X145716579Y-66094023D01*
X145824483Y-66057395D01*
X145824488Y-66057393D01*
X145829955Y-66055537D01*
X145842483Y-66048521D01*
X146009395Y-65955046D01*
X146009399Y-65955043D01*
X146014442Y-65952219D01*
X146177012Y-65817012D01*
X146312219Y-65654442D01*
X146315043Y-65649399D01*
X146315046Y-65649395D01*
X146412713Y-65474998D01*
X146412714Y-65474996D01*
X146415537Y-65469955D01*
X146417393Y-65464488D01*
X146417395Y-65464483D01*
X146479240Y-65282291D01*
X146483504Y-65269730D01*
X146498804Y-65164211D01*
X146528374Y-65099665D01*
X146588146Y-65061353D01*
X146659143Y-65061437D01*
X146718823Y-65099892D01*
X146748239Y-65164508D01*
X146749500Y-65182291D01*
X146749500Y-65894646D01*
X146752618Y-65920846D01*
X146756456Y-65929486D01*
X146756456Y-65929487D01*
X146792867Y-66011459D01*
X146798061Y-66023153D01*
X146806294Y-66031372D01*
X146806295Y-66031373D01*
X146832363Y-66057395D01*
X146877287Y-66102241D01*
X146887924Y-66106944D01*
X146887926Y-66106945D01*
X146923593Y-66122713D01*
X146979673Y-66147506D01*
X147005354Y-66150500D01*
X148794646Y-66150500D01*
X148798350Y-66150059D01*
X148798353Y-66150059D01*
X148805746Y-66149179D01*
X148820846Y-66147382D01*
X148841156Y-66138361D01*
X148912518Y-66106663D01*
X148923153Y-66101939D01*
X148931602Y-66093476D01*
X148994023Y-66030945D01*
X149002241Y-66022713D01*
X149007217Y-66011459D01*
X149033265Y-65952538D01*
X149047506Y-65920327D01*
X149050500Y-65894646D01*
X149050500Y-64975383D01*
X152287388Y-64975383D01*
X152303245Y-65293914D01*
X152304076Y-65301443D01*
X152358085Y-65615759D01*
X152359818Y-65623146D01*
X152451196Y-65928695D01*
X152453799Y-65935808D01*
X152581227Y-66228173D01*
X152584669Y-66234929D01*
X152746296Y-66509865D01*
X152750519Y-66516150D01*
X152901463Y-66713934D01*
X152912989Y-66722396D01*
X152925054Y-66715735D01*
X154627980Y-65012810D01*
X154635592Y-64998869D01*
X154635461Y-64997034D01*
X154631210Y-64990420D01*
X152926445Y-63285656D01*
X152913510Y-63278592D01*
X152902949Y-63286252D01*
X152782766Y-63437072D01*
X152778410Y-63443270D01*
X152611059Y-63714764D01*
X152607479Y-63721440D01*
X152473956Y-64011074D01*
X152471206Y-64018125D01*
X152373444Y-64321708D01*
X152371561Y-64329041D01*
X152310979Y-64642170D01*
X152309992Y-64649670D01*
X152287467Y-64967802D01*
X152287388Y-64975383D01*
X149050500Y-64975383D01*
X149050500Y-64105354D01*
X149049889Y-64100215D01*
X149048499Y-64088541D01*
X149047382Y-64079154D01*
X149001939Y-63976847D01*
X148993444Y-63968366D01*
X148930945Y-63905977D01*
X148922713Y-63897759D01*
X148912076Y-63893056D01*
X148912074Y-63893055D01*
X148836398Y-63859599D01*
X148820327Y-63852494D01*
X148794646Y-63849500D01*
X147005354Y-63849500D01*
X147001650Y-63849941D01*
X147001647Y-63849941D01*
X146994254Y-63850821D01*
X146979154Y-63852618D01*
X146970514Y-63856456D01*
X146970513Y-63856456D01*
X146904131Y-63885942D01*
X146876847Y-63898061D01*
X146797759Y-63977287D01*
X146793056Y-63987924D01*
X146793055Y-63987926D01*
X146766735Y-64047462D01*
X146752494Y-64079673D01*
X146749500Y-64105354D01*
X146749500Y-64799111D01*
X146729498Y-64867232D01*
X146675842Y-64913725D01*
X146605568Y-64923829D01*
X146540988Y-64894335D01*
X146502604Y-64834609D01*
X146498029Y-64810640D01*
X146496610Y-64795197D01*
X146496081Y-64789440D01*
X146438686Y-64585931D01*
X146429692Y-64567692D01*
X146347719Y-64401469D01*
X146345165Y-64396290D01*
X146218651Y-64226867D01*
X146091236Y-64109086D01*
X146067622Y-64087257D01*
X146067620Y-64087255D01*
X146063381Y-64083337D01*
X146030014Y-64062284D01*
X145889434Y-63973584D01*
X145889433Y-63973584D01*
X145884554Y-63970505D01*
X145688160Y-63892152D01*
X145682503Y-63891027D01*
X145682497Y-63891025D01*
X145486442Y-63852028D01*
X145486440Y-63852028D01*
X145480775Y-63850901D01*
X145475000Y-63850825D01*
X145474996Y-63850825D01*
X145368976Y-63849437D01*
X145269346Y-63848133D01*
X145263649Y-63849112D01*
X145263648Y-63849112D01*
X145066650Y-63882962D01*
X145066649Y-63882962D01*
X145060953Y-63883941D01*
X144862575Y-63957127D01*
X144857614Y-63960079D01*
X144857613Y-63960079D01*
X144689528Y-64060079D01*
X144680856Y-64065238D01*
X144521881Y-64204655D01*
X144390976Y-64370708D01*
X144388287Y-64375819D01*
X144388285Y-64375822D01*
X144375930Y-64399305D01*
X144292523Y-64557836D01*
X144229820Y-64759773D01*
X144229141Y-64765510D01*
X144215088Y-64884239D01*
X144187217Y-64949537D01*
X144128469Y-64989401D01*
X144057494Y-64991174D01*
X143996828Y-64954295D01*
X143965730Y-64890471D01*
X143964490Y-64880958D01*
X143964408Y-64880059D01*
X143956081Y-64789440D01*
X143898686Y-64585931D01*
X143889692Y-64567692D01*
X143807719Y-64401469D01*
X143805165Y-64396290D01*
X143678651Y-64226867D01*
X143551236Y-64109086D01*
X143527622Y-64087257D01*
X143527620Y-64087255D01*
X143523381Y-64083337D01*
X143490014Y-64062284D01*
X143349434Y-63973584D01*
X143349433Y-63973584D01*
X143344554Y-63970505D01*
X143148160Y-63892152D01*
X143142503Y-63891027D01*
X143142497Y-63891025D01*
X142946442Y-63852028D01*
X142946440Y-63852028D01*
X142940775Y-63850901D01*
X142935000Y-63850825D01*
X142934996Y-63850825D01*
X142828976Y-63849437D01*
X142729346Y-63848133D01*
X142723649Y-63849112D01*
X142723648Y-63849112D01*
X142526650Y-63882962D01*
X142526649Y-63882962D01*
X142520953Y-63883941D01*
X142322575Y-63957127D01*
X142317614Y-63960079D01*
X142317613Y-63960079D01*
X142149528Y-64060079D01*
X142140856Y-64065238D01*
X141981881Y-64204655D01*
X141850976Y-64370708D01*
X141848287Y-64375819D01*
X141848285Y-64375822D01*
X141774155Y-64516720D01*
X141724736Y-64567692D01*
X141655603Y-64583855D01*
X141588707Y-64560076D01*
X141547097Y-64508294D01*
X141482971Y-64360814D01*
X141478105Y-64351739D01*
X141362426Y-64172926D01*
X141356136Y-64164757D01*
X141212806Y-64007240D01*
X141205273Y-64000215D01*
X141038139Y-63868222D01*
X141029552Y-63862517D01*
X140843117Y-63759599D01*
X140833705Y-63755369D01*
X140632959Y-63684280D01*
X140622988Y-63681646D01*
X140551837Y-63668972D01*
X140538540Y-63670432D01*
X140534000Y-63684989D01*
X140534000Y-66318517D01*
X140026000Y-66318517D01*
X140026000Y-65272115D01*
X140021525Y-65256876D01*
X140020135Y-65255671D01*
X140012452Y-65254000D01*
X138963225Y-65254000D01*
X138949694Y-65257973D01*
X138948257Y-65267966D01*
X135950500Y-65267966D01*
X135950500Y-64734183D01*
X138944389Y-64734183D01*
X138945912Y-64742607D01*
X138958292Y-64746000D01*
X140007885Y-64746000D01*
X140023124Y-64741525D01*
X140024329Y-64740135D01*
X140026000Y-64732452D01*
X140026000Y-63683102D01*
X140022082Y-63669758D01*
X140007806Y-63667771D01*
X139969324Y-63673660D01*
X139959288Y-63676051D01*
X139756868Y-63742212D01*
X139747359Y-63746209D01*
X139558463Y-63844542D01*
X139549738Y-63850036D01*
X139379433Y-63977905D01*
X139371726Y-63984748D01*
X139224590Y-64138717D01*
X139218104Y-64146727D01*
X139098098Y-64322649D01*
X139093000Y-64331623D01*
X139003338Y-64524783D01*
X138999775Y-64534470D01*
X138944389Y-64734183D01*
X135950500Y-64734183D01*
X135950500Y-64205354D01*
X135947382Y-64179154D01*
X135932979Y-64146727D01*
X135906663Y-64087482D01*
X135901939Y-64076847D01*
X135893444Y-64068366D01*
X135862165Y-64037142D01*
X135822713Y-63997759D01*
X135812076Y-63993056D01*
X135812074Y-63993055D01*
X135742998Y-63962517D01*
X135720327Y-63952494D01*
X135694646Y-63949500D01*
X133905354Y-63949500D01*
X133901650Y-63949941D01*
X133901647Y-63949941D01*
X133894254Y-63950821D01*
X133879154Y-63952618D01*
X133870514Y-63956456D01*
X133870513Y-63956456D01*
X133799664Y-63987926D01*
X133776847Y-63998061D01*
X133768628Y-64006294D01*
X133768627Y-64006295D01*
X133756818Y-64018125D01*
X133697759Y-64077287D01*
X133693056Y-64087924D01*
X133693055Y-64087926D01*
X133670601Y-64138717D01*
X133652494Y-64179673D01*
X133649500Y-64205354D01*
X133649500Y-64899111D01*
X133629498Y-64967232D01*
X133575842Y-65013725D01*
X133505568Y-65023829D01*
X133440988Y-64994335D01*
X133402604Y-64934609D01*
X133398029Y-64910640D01*
X133396610Y-64895197D01*
X133396081Y-64889440D01*
X133338686Y-64685931D01*
X133334703Y-64677853D01*
X133247719Y-64501469D01*
X133245165Y-64496290D01*
X133135373Y-64349260D01*
X133122104Y-64331491D01*
X133122103Y-64331490D01*
X133118651Y-64326867D01*
X132991236Y-64209086D01*
X132967622Y-64187257D01*
X132967620Y-64187255D01*
X132963381Y-64183337D01*
X132839786Y-64105354D01*
X132789434Y-64073584D01*
X132789433Y-64073584D01*
X132784554Y-64070505D01*
X132588160Y-63992152D01*
X132582503Y-63991027D01*
X132582497Y-63991025D01*
X132386442Y-63952028D01*
X132386440Y-63952028D01*
X132380775Y-63950901D01*
X132375000Y-63950825D01*
X132374996Y-63950825D01*
X132268976Y-63949437D01*
X132169346Y-63948133D01*
X132163649Y-63949112D01*
X132163648Y-63949112D01*
X131966650Y-63982962D01*
X131966649Y-63982962D01*
X131960953Y-63983941D01*
X131762575Y-64057127D01*
X131757614Y-64060079D01*
X131757613Y-64060079D01*
X131709773Y-64088541D01*
X131580856Y-64165238D01*
X131421881Y-64304655D01*
X131290976Y-64470708D01*
X131288287Y-64475819D01*
X131288285Y-64475822D01*
X131274792Y-64501469D01*
X131192523Y-64657836D01*
X131129820Y-64859773D01*
X131129141Y-64865510D01*
X131115088Y-64984239D01*
X131087217Y-65049537D01*
X131028469Y-65089401D01*
X130957494Y-65091174D01*
X130896828Y-65054295D01*
X130865730Y-64990471D01*
X130864490Y-64980958D01*
X130864408Y-64980059D01*
X130856081Y-64889440D01*
X130798686Y-64685931D01*
X130794703Y-64677853D01*
X130707719Y-64501469D01*
X130705165Y-64496290D01*
X130595373Y-64349260D01*
X130582104Y-64331491D01*
X130582103Y-64331490D01*
X130578651Y-64326867D01*
X130451236Y-64209086D01*
X130427622Y-64187257D01*
X130427620Y-64187255D01*
X130423381Y-64183337D01*
X130299786Y-64105354D01*
X130249434Y-64073584D01*
X130249433Y-64073584D01*
X130244554Y-64070505D01*
X130048160Y-63992152D01*
X130042503Y-63991027D01*
X130042497Y-63991025D01*
X129846442Y-63952028D01*
X129846440Y-63952028D01*
X129840775Y-63950901D01*
X129835000Y-63950825D01*
X129834996Y-63950825D01*
X129728976Y-63949437D01*
X129629346Y-63948133D01*
X129623649Y-63949112D01*
X129623648Y-63949112D01*
X129426650Y-63982962D01*
X129426649Y-63982962D01*
X129420953Y-63983941D01*
X129222575Y-64057127D01*
X129217614Y-64060079D01*
X129217613Y-64060079D01*
X129169773Y-64088541D01*
X129040856Y-64165238D01*
X128881881Y-64304655D01*
X128750976Y-64470708D01*
X128748287Y-64475819D01*
X128748285Y-64475822D01*
X128674155Y-64616720D01*
X128624736Y-64667692D01*
X128555603Y-64683855D01*
X128488707Y-64660076D01*
X128447097Y-64608294D01*
X128382971Y-64460814D01*
X128378105Y-64451739D01*
X128262426Y-64272926D01*
X128256136Y-64264757D01*
X128112806Y-64107240D01*
X128105273Y-64100215D01*
X127938139Y-63968222D01*
X127929552Y-63962517D01*
X127743117Y-63859599D01*
X127733705Y-63855369D01*
X127532959Y-63784280D01*
X127522988Y-63781646D01*
X127451837Y-63768972D01*
X127438540Y-63770432D01*
X127434000Y-63784989D01*
X127434000Y-66418517D01*
X126926000Y-66418517D01*
X126926000Y-65372115D01*
X126921525Y-65356876D01*
X126920135Y-65355671D01*
X126912452Y-65354000D01*
X125863225Y-65354000D01*
X125849694Y-65357973D01*
X125848257Y-65367966D01*
X122687048Y-65367966D01*
X122712173Y-65059051D01*
X122712378Y-65054576D01*
X122712927Y-65002221D01*
X122712817Y-64997789D01*
X122702954Y-64834183D01*
X125844389Y-64834183D01*
X125845912Y-64842607D01*
X125858292Y-64846000D01*
X126907885Y-64846000D01*
X126923124Y-64841525D01*
X126924329Y-64840135D01*
X126926000Y-64832452D01*
X126926000Y-63783102D01*
X126922082Y-63769758D01*
X126907806Y-63767771D01*
X126869324Y-63773660D01*
X126859288Y-63776051D01*
X126656868Y-63842212D01*
X126647359Y-63846209D01*
X126458463Y-63944542D01*
X126449738Y-63950036D01*
X126279433Y-64077905D01*
X126271726Y-64084748D01*
X126124590Y-64238717D01*
X126118104Y-64246727D01*
X125998098Y-64422649D01*
X125993000Y-64431623D01*
X125903338Y-64624783D01*
X125899775Y-64634470D01*
X125844389Y-64834183D01*
X122702954Y-64834183D01*
X122693529Y-64677853D01*
X122692621Y-64670351D01*
X122635319Y-64356593D01*
X122633518Y-64349260D01*
X122538935Y-64044655D01*
X122536263Y-64037583D01*
X122405781Y-63746570D01*
X122402264Y-63739843D01*
X122237771Y-63466621D01*
X122233481Y-63460377D01*
X122097991Y-63286647D01*
X122086199Y-63278178D01*
X122074486Y-63284725D01*
X120372020Y-64987190D01*
X120364408Y-65001131D01*
X119639659Y-65001131D01*
X120000000Y-64640790D01*
X121714561Y-62926228D01*
X121721571Y-62913390D01*
X121713776Y-62902700D01*
X121551298Y-62774613D01*
X121545075Y-62770288D01*
X121272702Y-62604357D01*
X121266025Y-62600822D01*
X120975686Y-62468813D01*
X120968611Y-62466097D01*
X120915692Y-62449361D01*
X120856773Y-62409750D01*
X120828623Y-62344572D01*
X120840179Y-62274522D01*
X120887773Y-62221841D01*
X120954045Y-62203227D01*
X125666622Y-62216691D01*
G37*
%TD.AperFunction*%
%TD*%
M02*
