%TF.GenerationSoftware,KiCad,Pcbnew,(6.0.5)*%
%TF.CreationDate,2023-02-15T13:04:29-08:00*%
%TF.ProjectId,STM32tut,53544d33-3274-4757-942e-6b696361645f,rev?*%
%TF.SameCoordinates,Original*%
%TF.FileFunction,Legend,Bot*%
%TF.FilePolarity,Positive*%
%FSLAX46Y46*%
G04 Gerber Fmt 4.6, Leading zero omitted, Abs format (unit mm)*
G04 Created by KiCad (PCBNEW (6.0.5)) date 2023-02-15 13:04:29*
%MOMM*%
%LPD*%
G01*
G04 APERTURE LIST*
%ADD10C,0.150000*%
G04 APERTURE END LIST*
D10*
X156152380Y-69480714D02*
X155914285Y-70147380D01*
X155676190Y-69480714D01*
X155295238Y-70052142D02*
X155247619Y-70099761D01*
X155295238Y-70147380D01*
X155342857Y-70099761D01*
X155295238Y-70052142D01*
X155295238Y-70147380D01*
X154295238Y-70147380D02*
X154866666Y-70147380D01*
X154580952Y-70147380D02*
X154580952Y-69147380D01*
X154676190Y-69290238D01*
X154771428Y-69385476D01*
X154866666Y-69433095D01*
X156961904Y-70852619D02*
X156914285Y-70805000D01*
X156819047Y-70757380D01*
X156580952Y-70757380D01*
X156485714Y-70805000D01*
X156438095Y-70852619D01*
X156390476Y-70947857D01*
X156390476Y-71043095D01*
X156438095Y-71185952D01*
X157009523Y-71757380D01*
X156390476Y-71757380D01*
X155247619Y-70709761D02*
X156104761Y-71995476D01*
X154961904Y-70852619D02*
X154914285Y-70805000D01*
X154819047Y-70757380D01*
X154580952Y-70757380D01*
X154485714Y-70805000D01*
X154438095Y-70852619D01*
X154390476Y-70947857D01*
X154390476Y-71043095D01*
X154438095Y-71185952D01*
X155009523Y-71757380D01*
X154390476Y-71757380D01*
X154057142Y-70757380D02*
X153438095Y-70757380D01*
X153771428Y-71138333D01*
X153628571Y-71138333D01*
X153533333Y-71185952D01*
X153485714Y-71233571D01*
X153438095Y-71328809D01*
X153438095Y-71566904D01*
X153485714Y-71662142D01*
X153533333Y-71709761D01*
X153628571Y-71757380D01*
X153914285Y-71757380D01*
X154009523Y-71709761D01*
X154057142Y-71662142D01*
M02*
