M48
; DRILL file {KiCad (6.0.5)} date Wed Feb 15 13:04:25 2023
; FORMAT={-:-/ absolute / inch / decimal}
; #@! TF.CreationDate,2023-02-15T13:04:25-08:00
; #@! TF.GenerationSoftware,Kicad,Pcbnew,(6.0.5)
; #@! TF.FileFunction,MixedPlating,1,2
FMAT,2
INCH
; #@! TA.AperFunction,Plated,PTH,ViaDrill
T1C0.0118
; #@! TA.AperFunction,Plated,PTH,ComponentDrill
T2C0.0217
; #@! TA.AperFunction,Plated,PTH,ComponentDrill
T3C0.0335
; #@! TA.AperFunction,Plated,PTH,ComponentDrill
T4C0.0394
; #@! TA.AperFunction,Plated,PTH,ComponentDrill
T5C0.0866
; #@! TA.AperFunction,NonPlated,NPTH,ComponentDrill
T6C0.0315
; #@! TA.AperFunction,NonPlated,NPTH,ComponentDrill
T7C0.0354
%
G90
G05
T1
X4.6969Y-3.3622
X4.7992Y-3.0984
X4.8346Y-2.7756
X4.8583Y-3.374
X4.8819Y-3.1102
X4.9094Y-3.5
X4.9291Y-3.2598
X5.0433Y-2.9961
X5.185Y-3.2835
X5.189Y-3.6732
X5.2008Y-3.4606
X5.2165Y-3.1181
X5.2441Y-3.626
X5.3071Y-3.5394
X5.3676Y-3.5394
X5.3819Y-3.3386
X5.5748Y-3.1457
X5.7244Y-3.7598
X5.7323Y-3.2992
X5.7323Y-3.3346
X5.7559Y-3.4843
X5.7992Y-3.4843
X5.9134Y-3.122
X5.9449Y-3.4961
T4
X5.0071Y-2.563
X5.1071Y-2.563
X5.1457Y-3.7598
X5.2071Y-2.563
X5.2457Y-3.7598
X5.3071Y-2.563
X5.3457Y-3.7598
X5.4457Y-3.7598
X5.5228Y-2.5591
X5.6228Y-2.5591
X5.7228Y-2.5591
X5.8228Y-2.5591
T5
X4.7244Y-2.5591
X4.7244Y-3.7402
X6.1024Y-2.5591
X6.1024Y-3.7402
T6
X6.0293Y-3.0748
X6.0293Y-3.2717
T7
X4.6986Y-2.8071
X4.6986Y-2.9252
T2
G00X6.1248Y-3.0207
M15
G01X6.1504Y-3.0207
M16
G05
G00X6.1248Y-3.3258
M15
G01X6.1504Y-3.3258
M16
G05
T3
G00X5.9772Y-3.0266
M15
G01X5.9988Y-3.0266
M16
G05
G00X5.9772Y-3.3199
M15
G01X5.9988Y-3.3199
M16
G05
T0
M30
