%TF.GenerationSoftware,KiCad,Pcbnew,(6.0.5)*%
%TF.CreationDate,2023-02-15T13:04:29-08:00*%
%TF.ProjectId,STM32tut,53544d33-3274-4757-942e-6b696361645f,rev?*%
%TF.SameCoordinates,Original*%
%TF.FileFunction,Soldermask,Top*%
%TF.FilePolarity,Negative*%
%FSLAX46Y46*%
G04 Gerber Fmt 4.6, Leading zero omitted, Abs format (unit mm)*
G04 Created by KiCad (PCBNEW (6.0.5)) date 2023-02-15 13:04:29*
%MOMM*%
%LPD*%
G01*
G04 APERTURE LIST*
G04 Aperture macros list*
%AMRoundRect*
0 Rectangle with rounded corners*
0 $1 Rounding radius*
0 $2 $3 $4 $5 $6 $7 $8 $9 X,Y pos of 4 corners*
0 Add a 4 corners polygon primitive as box body*
4,1,4,$2,$3,$4,$5,$6,$7,$8,$9,$2,$3,0*
0 Add four circle primitives for the rounded corners*
1,1,$1+$1,$2,$3*
1,1,$1+$1,$4,$5*
1,1,$1+$1,$6,$7*
1,1,$1+$1,$8,$9*
0 Add four rect primitives between the rounded corners*
20,1,$1+$1,$2,$3,$4,$5,0*
20,1,$1+$1,$4,$5,$6,$7,0*
20,1,$1+$1,$6,$7,$8,$9,0*
20,1,$1+$1,$8,$9,$2,$3,0*%
G04 Aperture macros list end*
%ADD10R,0.800000X1.000000*%
%ADD11C,0.900000*%
%ADD12R,1.500000X0.700000*%
%ADD13RoundRect,0.155000X-0.155000X0.212500X-0.155000X-0.212500X0.155000X-0.212500X0.155000X0.212500X0*%
%ADD14RoundRect,0.075000X-0.662500X-0.075000X0.662500X-0.075000X0.662500X0.075000X-0.662500X0.075000X0*%
%ADD15RoundRect,0.075000X-0.075000X-0.662500X0.075000X-0.662500X0.075000X0.662500X-0.075000X0.662500X0*%
%ADD16R,1.700000X1.700000*%
%ADD17O,1.700000X1.700000*%
%ADD18C,4.400000*%
%ADD19RoundRect,0.237500X0.300000X0.237500X-0.300000X0.237500X-0.300000X-0.237500X0.300000X-0.237500X0*%
%ADD20RoundRect,0.155000X-0.212500X-0.155000X0.212500X-0.155000X0.212500X0.155000X-0.212500X0.155000X0*%
%ADD21RoundRect,0.155000X0.212500X0.155000X-0.212500X0.155000X-0.212500X-0.155000X0.212500X-0.155000X0*%
%ADD22RoundRect,0.160000X-0.197500X-0.160000X0.197500X-0.160000X0.197500X0.160000X-0.197500X0.160000X0*%
%ADD23RoundRect,0.237500X-0.237500X0.287500X-0.237500X-0.287500X0.237500X-0.287500X0.237500X0.287500X0*%
%ADD24R,1.800000X2.100000*%
%ADD25RoundRect,0.160000X0.197500X0.160000X-0.197500X0.160000X-0.197500X-0.160000X0.197500X-0.160000X0*%
%ADD26RoundRect,0.237500X0.237500X-0.300000X0.237500X0.300000X-0.237500X0.300000X-0.237500X-0.300000X0*%
%ADD27RoundRect,0.155000X0.155000X-0.212500X0.155000X0.212500X-0.155000X0.212500X-0.155000X-0.212500X0*%
%ADD28R,1.500000X2.000000*%
%ADD29R,3.800000X2.000000*%
%ADD30RoundRect,0.250000X0.475000X-0.337500X0.475000X0.337500X-0.475000X0.337500X-0.475000X-0.337500X0*%
%ADD31O,0.800000X0.800000*%
%ADD32R,1.300000X0.450000*%
%ADD33O,1.800000X1.150000*%
%ADD34O,2.000000X1.450000*%
%ADD35RoundRect,0.237500X0.237500X-0.287500X0.237500X0.287500X-0.237500X0.287500X-0.237500X-0.287500X0*%
%ADD36RoundRect,0.250000X-0.337500X-0.475000X0.337500X-0.475000X0.337500X0.475000X-0.337500X0.475000X0*%
%ADD37RoundRect,0.160000X-0.160000X0.197500X-0.160000X-0.197500X0.160000X-0.197500X0.160000X0.197500X0*%
G04 APERTURE END LIST*
D10*
%TO.C,SW1*%
X120455000Y-69150000D03*
X118245000Y-69150000D03*
D11*
X119345000Y-74300000D03*
X119345000Y-71300000D03*
D10*
X118245000Y-76450000D03*
X120455000Y-76450000D03*
D12*
X121105000Y-70550000D03*
X121105000Y-73550000D03*
X121105000Y-75050000D03*
%TD*%
D13*
%TO.C,C9*%
X140600000Y-78732500D03*
X140600000Y-79867500D03*
%TD*%
D14*
%TO.C,U2*%
X130337500Y-79250000D03*
X130337500Y-79750000D03*
X130337500Y-80250000D03*
X130337500Y-80750000D03*
X130337500Y-81250000D03*
X130337500Y-81750000D03*
X130337500Y-82250000D03*
X130337500Y-82750000D03*
X130337500Y-83250000D03*
X130337500Y-83750000D03*
X130337500Y-84250000D03*
X130337500Y-84750000D03*
D15*
X131750000Y-86162500D03*
X132250000Y-86162500D03*
X132750000Y-86162500D03*
X133250000Y-86162500D03*
X133750000Y-86162500D03*
X134250000Y-86162500D03*
X134750000Y-86162500D03*
X135250000Y-86162500D03*
X135750000Y-86162500D03*
X136250000Y-86162500D03*
X136750000Y-86162500D03*
X137250000Y-86162500D03*
D14*
X138662500Y-84750000D03*
X138662500Y-84250000D03*
X138662500Y-83750000D03*
X138662500Y-83250000D03*
X138662500Y-82750000D03*
X138662500Y-82250000D03*
X138662500Y-81750000D03*
X138662500Y-81250000D03*
X138662500Y-80750000D03*
X138662500Y-80250000D03*
X138662500Y-79750000D03*
X138662500Y-79250000D03*
D15*
X137250000Y-77837500D03*
X136750000Y-77837500D03*
X136250000Y-77837500D03*
X135750000Y-77837500D03*
X135250000Y-77837500D03*
X134750000Y-77837500D03*
X134250000Y-77837500D03*
X133750000Y-77837500D03*
X133250000Y-77837500D03*
X132750000Y-77837500D03*
X132250000Y-77837500D03*
X131750000Y-77837500D03*
%TD*%
D16*
%TO.C,J1*%
X134800000Y-65100000D03*
D17*
X132260000Y-65100000D03*
X129720000Y-65100000D03*
X127180000Y-65100000D03*
%TD*%
D18*
%TO.C,H4*%
X155000000Y-95000000D03*
%TD*%
D19*
%TO.C,C13*%
X126500000Y-87600000D03*
X124775000Y-87600000D03*
%TD*%
D20*
%TO.C,C10*%
X131332500Y-75800000D03*
X132467500Y-75800000D03*
%TD*%
%TO.C,C5*%
X130000000Y-87900000D03*
X131135000Y-87900000D03*
%TD*%
D16*
%TO.C,J2*%
X130700000Y-95500000D03*
D17*
X133240000Y-95500000D03*
X135780000Y-95500000D03*
X138320000Y-95500000D03*
%TD*%
D19*
%TO.C,C12*%
X126500000Y-85700000D03*
X124775000Y-85700000D03*
%TD*%
D21*
%TO.C,C8*%
X137767500Y-88100000D03*
X136632500Y-88100000D03*
%TD*%
D22*
%TO.C,R3*%
X134442500Y-91200000D03*
X135637500Y-91200000D03*
%TD*%
D23*
%TO.C,FB1*%
X128300000Y-85825000D03*
X128300000Y-87575000D03*
%TD*%
D24*
%TO.C,Y1*%
X119550000Y-80550000D03*
X119550000Y-83450000D03*
X121850000Y-83450000D03*
X121850000Y-80550000D03*
%TD*%
D25*
%TO.C,R2*%
X133237500Y-91200000D03*
X132042500Y-91200000D03*
%TD*%
D26*
%TO.C,C3*%
X128100000Y-79262500D03*
X128100000Y-77537500D03*
%TD*%
D27*
%TO.C,C4*%
X124000000Y-81367500D03*
X124000000Y-80232500D03*
%TD*%
D16*
%TO.C,J3*%
X147900000Y-65000000D03*
D17*
X145360000Y-65000000D03*
X142820000Y-65000000D03*
X140280000Y-65000000D03*
%TD*%
D28*
%TO.C,U1*%
X146800000Y-86850000D03*
D29*
X144500000Y-93150000D03*
D28*
X144500000Y-86850000D03*
X142200000Y-86850000D03*
%TD*%
D25*
%TO.C,R1*%
X147795000Y-95500000D03*
X146600000Y-95500000D03*
%TD*%
D18*
%TO.C,H1*%
X155000000Y-65000000D03*
%TD*%
D20*
%TO.C,C6*%
X131332500Y-74300000D03*
X132467500Y-74300000D03*
%TD*%
D30*
%TO.C,C2*%
X149400000Y-90937500D03*
X149400000Y-88862500D03*
%TD*%
D18*
%TO.C,H2*%
X120000000Y-65000000D03*
%TD*%
D31*
%TO.C,J4*%
X153145000Y-78100000D03*
X153145000Y-83100000D03*
D32*
X152045000Y-81900000D03*
X152045000Y-81250000D03*
X152045000Y-80600000D03*
X152045000Y-79950000D03*
X152045000Y-79300000D03*
D33*
X155895000Y-76725000D03*
D34*
X152095000Y-76875000D03*
X152095000Y-84325000D03*
D33*
X155895000Y-84475000D03*
%TD*%
D22*
%TO.C,R4*%
X126297500Y-73600000D03*
X125102500Y-73600000D03*
%TD*%
D27*
%TO.C,C7*%
X124000000Y-83967500D03*
X124000000Y-82832500D03*
%TD*%
%TO.C,C11*%
X128400000Y-83767500D03*
X128400000Y-82632500D03*
%TD*%
D18*
%TO.C,H3*%
X120000000Y-95000000D03*
%TD*%
D35*
%TO.C,D1*%
X149400000Y-94775000D03*
X149400000Y-93025000D03*
%TD*%
D36*
%TO.C,C1*%
X142162500Y-84100000D03*
X144237500Y-84100000D03*
%TD*%
D37*
%TO.C,R5*%
X145900000Y-79402500D03*
X145900000Y-80597500D03*
%TD*%
M02*
