%TF.GenerationSoftware,KiCad,Pcbnew,(6.0.5)*%
%TF.CreationDate,2023-02-15T13:04:29-08:00*%
%TF.ProjectId,STM32tut,53544d33-3274-4757-942e-6b696361645f,rev?*%
%TF.SameCoordinates,Original*%
%TF.FileFunction,Copper,L1,Top*%
%TF.FilePolarity,Positive*%
%FSLAX46Y46*%
G04 Gerber Fmt 4.6, Leading zero omitted, Abs format (unit mm)*
G04 Created by KiCad (PCBNEW (6.0.5)) date 2023-02-15 13:04:29*
%MOMM*%
%LPD*%
G01*
G04 APERTURE LIST*
G04 Aperture macros list*
%AMRoundRect*
0 Rectangle with rounded corners*
0 $1 Rounding radius*
0 $2 $3 $4 $5 $6 $7 $8 $9 X,Y pos of 4 corners*
0 Add a 4 corners polygon primitive as box body*
4,1,4,$2,$3,$4,$5,$6,$7,$8,$9,$2,$3,0*
0 Add four circle primitives for the rounded corners*
1,1,$1+$1,$2,$3*
1,1,$1+$1,$4,$5*
1,1,$1+$1,$6,$7*
1,1,$1+$1,$8,$9*
0 Add four rect primitives between the rounded corners*
20,1,$1+$1,$2,$3,$4,$5,0*
20,1,$1+$1,$4,$5,$6,$7,0*
20,1,$1+$1,$6,$7,$8,$9,0*
20,1,$1+$1,$8,$9,$2,$3,0*%
G04 Aperture macros list end*
%TA.AperFunction,SMDPad,CuDef*%
%ADD10R,0.800000X1.000000*%
%TD*%
%TA.AperFunction,SMDPad,CuDef*%
%ADD11R,1.500000X0.700000*%
%TD*%
%TA.AperFunction,SMDPad,CuDef*%
%ADD12RoundRect,0.155000X-0.155000X0.212500X-0.155000X-0.212500X0.155000X-0.212500X0.155000X0.212500X0*%
%TD*%
%TA.AperFunction,SMDPad,CuDef*%
%ADD13RoundRect,0.075000X-0.662500X-0.075000X0.662500X-0.075000X0.662500X0.075000X-0.662500X0.075000X0*%
%TD*%
%TA.AperFunction,SMDPad,CuDef*%
%ADD14RoundRect,0.075000X-0.075000X-0.662500X0.075000X-0.662500X0.075000X0.662500X-0.075000X0.662500X0*%
%TD*%
%TA.AperFunction,ComponentPad*%
%ADD15R,1.700000X1.700000*%
%TD*%
%TA.AperFunction,ComponentPad*%
%ADD16O,1.700000X1.700000*%
%TD*%
%TA.AperFunction,ComponentPad*%
%ADD17C,4.400000*%
%TD*%
%TA.AperFunction,SMDPad,CuDef*%
%ADD18RoundRect,0.237500X0.300000X0.237500X-0.300000X0.237500X-0.300000X-0.237500X0.300000X-0.237500X0*%
%TD*%
%TA.AperFunction,SMDPad,CuDef*%
%ADD19RoundRect,0.155000X-0.212500X-0.155000X0.212500X-0.155000X0.212500X0.155000X-0.212500X0.155000X0*%
%TD*%
%TA.AperFunction,SMDPad,CuDef*%
%ADD20RoundRect,0.155000X0.212500X0.155000X-0.212500X0.155000X-0.212500X-0.155000X0.212500X-0.155000X0*%
%TD*%
%TA.AperFunction,SMDPad,CuDef*%
%ADD21RoundRect,0.160000X-0.197500X-0.160000X0.197500X-0.160000X0.197500X0.160000X-0.197500X0.160000X0*%
%TD*%
%TA.AperFunction,SMDPad,CuDef*%
%ADD22RoundRect,0.237500X-0.237500X0.287500X-0.237500X-0.287500X0.237500X-0.287500X0.237500X0.287500X0*%
%TD*%
%TA.AperFunction,SMDPad,CuDef*%
%ADD23R,1.800000X2.100000*%
%TD*%
%TA.AperFunction,SMDPad,CuDef*%
%ADD24RoundRect,0.160000X0.197500X0.160000X-0.197500X0.160000X-0.197500X-0.160000X0.197500X-0.160000X0*%
%TD*%
%TA.AperFunction,SMDPad,CuDef*%
%ADD25RoundRect,0.237500X0.237500X-0.300000X0.237500X0.300000X-0.237500X0.300000X-0.237500X-0.300000X0*%
%TD*%
%TA.AperFunction,SMDPad,CuDef*%
%ADD26RoundRect,0.155000X0.155000X-0.212500X0.155000X0.212500X-0.155000X0.212500X-0.155000X-0.212500X0*%
%TD*%
%TA.AperFunction,SMDPad,CuDef*%
%ADD27R,1.500000X2.000000*%
%TD*%
%TA.AperFunction,SMDPad,CuDef*%
%ADD28R,3.800000X2.000000*%
%TD*%
%TA.AperFunction,SMDPad,CuDef*%
%ADD29RoundRect,0.250000X0.475000X-0.337500X0.475000X0.337500X-0.475000X0.337500X-0.475000X-0.337500X0*%
%TD*%
%TA.AperFunction,SMDPad,CuDef*%
%ADD30R,1.300000X0.450000*%
%TD*%
%TA.AperFunction,ComponentPad*%
%ADD31O,1.800000X1.150000*%
%TD*%
%TA.AperFunction,ComponentPad*%
%ADD32O,2.000000X1.450000*%
%TD*%
%TA.AperFunction,SMDPad,CuDef*%
%ADD33RoundRect,0.237500X0.237500X-0.287500X0.237500X0.287500X-0.237500X0.287500X-0.237500X-0.287500X0*%
%TD*%
%TA.AperFunction,SMDPad,CuDef*%
%ADD34RoundRect,0.250000X-0.337500X-0.475000X0.337500X-0.475000X0.337500X0.475000X-0.337500X0.475000X0*%
%TD*%
%TA.AperFunction,SMDPad,CuDef*%
%ADD35RoundRect,0.160000X-0.160000X0.197500X-0.160000X-0.197500X0.160000X-0.197500X0.160000X0.197500X0*%
%TD*%
%TA.AperFunction,ViaPad*%
%ADD36C,0.700000*%
%TD*%
%TA.AperFunction,Conductor*%
%ADD37C,0.300000*%
%TD*%
%TA.AperFunction,Conductor*%
%ADD38C,0.500000*%
%TD*%
%TA.AperFunction,Conductor*%
%ADD39C,0.200000*%
%TD*%
G04 APERTURE END LIST*
D10*
%TO.P,SW1,*%
%TO.N,*%
X120455000Y-69150000D03*
X118245000Y-69150000D03*
X118245000Y-76450000D03*
X120455000Y-76450000D03*
D11*
%TO.P,SW1,1,A*%
%TO.N,GND*%
X121105000Y-70550000D03*
%TO.P,SW1,2,B*%
%TO.N,/SW_BOOT0*%
X121105000Y-73550000D03*
%TO.P,SW1,3,C*%
%TO.N,+3V3*%
X121105000Y-75050000D03*
%TD*%
D12*
%TO.P,C9,1*%
%TO.N,+3V3*%
X140600000Y-78732500D03*
%TO.P,C9,2*%
%TO.N,GND*%
X140600000Y-79867500D03*
%TD*%
D13*
%TO.P,U2,1,VBAT*%
%TO.N,+3V3*%
X130337500Y-79250000D03*
%TO.P,U2,2,PC13*%
%TO.N,unconnected-(U2-Pad2)*%
X130337500Y-79750000D03*
%TO.P,U2,3,PC14*%
%TO.N,unconnected-(U2-Pad3)*%
X130337500Y-80250000D03*
%TO.P,U2,4,PC15*%
%TO.N,unconnected-(U2-Pad4)*%
X130337500Y-80750000D03*
%TO.P,U2,5,PD0*%
%TO.N,/HSE_IN*%
X130337500Y-81250000D03*
%TO.P,U2,6,PD1*%
%TO.N,/HSE_OUT*%
X130337500Y-81750000D03*
%TO.P,U2,7,NRST*%
%TO.N,/NRST*%
X130337500Y-82250000D03*
%TO.P,U2,8,VSSA*%
%TO.N,GND*%
X130337500Y-82750000D03*
%TO.P,U2,9,VDDA*%
%TO.N,+3.3VA*%
X130337500Y-83250000D03*
%TO.P,U2,10,PA0*%
%TO.N,unconnected-(U2-Pad10)*%
X130337500Y-83750000D03*
%TO.P,U2,11,PA1*%
%TO.N,unconnected-(U2-Pad11)*%
X130337500Y-84250000D03*
%TO.P,U2,12,PA2*%
%TO.N,unconnected-(U2-Pad12)*%
X130337500Y-84750000D03*
D14*
%TO.P,U2,13,PA3*%
%TO.N,unconnected-(U2-Pad13)*%
X131750000Y-86162500D03*
%TO.P,U2,14,PA4*%
%TO.N,unconnected-(U2-Pad14)*%
X132250000Y-86162500D03*
%TO.P,U2,15,PA5*%
%TO.N,unconnected-(U2-Pad15)*%
X132750000Y-86162500D03*
%TO.P,U2,16,PA6*%
%TO.N,unconnected-(U2-Pad16)*%
X133250000Y-86162500D03*
%TO.P,U2,17,PA7*%
%TO.N,unconnected-(U2-Pad17)*%
X133750000Y-86162500D03*
%TO.P,U2,18,PB0*%
%TO.N,unconnected-(U2-Pad18)*%
X134250000Y-86162500D03*
%TO.P,U2,19,PB1*%
%TO.N,unconnected-(U2-Pad19)*%
X134750000Y-86162500D03*
%TO.P,U2,20,PB2*%
%TO.N,unconnected-(U2-Pad20)*%
X135250000Y-86162500D03*
%TO.P,U2,21,PB10*%
%TO.N,/I2C2_SCL*%
X135750000Y-86162500D03*
%TO.P,U2,22,PB11*%
%TO.N,/I2C2_SDA*%
X136250000Y-86162500D03*
%TO.P,U2,23,VSS*%
%TO.N,GND*%
X136750000Y-86162500D03*
%TO.P,U2,24,VDD*%
%TO.N,+3V3*%
X137250000Y-86162500D03*
D13*
%TO.P,U2,25,PB12*%
%TO.N,unconnected-(U2-Pad25)*%
X138662500Y-84750000D03*
%TO.P,U2,26,PB13*%
%TO.N,unconnected-(U2-Pad26)*%
X138662500Y-84250000D03*
%TO.P,U2,27,PB14*%
%TO.N,unconnected-(U2-Pad27)*%
X138662500Y-83750000D03*
%TO.P,U2,28,PB15*%
%TO.N,unconnected-(U2-Pad28)*%
X138662500Y-83250000D03*
%TO.P,U2,29,PA8*%
%TO.N,unconnected-(U2-Pad29)*%
X138662500Y-82750000D03*
%TO.P,U2,30,PA9*%
%TO.N,unconnected-(U2-Pad30)*%
X138662500Y-82250000D03*
%TO.P,U2,31,PA10*%
%TO.N,unconnected-(U2-Pad31)*%
X138662500Y-81750000D03*
%TO.P,U2,32,PA11*%
%TO.N,/USB_D-*%
X138662500Y-81250000D03*
%TO.P,U2,33,PA12*%
%TO.N,/USB_D+*%
X138662500Y-80750000D03*
%TO.P,U2,34,PA13*%
%TO.N,/SWDIO*%
X138662500Y-80250000D03*
%TO.P,U2,35,VSS*%
%TO.N,GND*%
X138662500Y-79750000D03*
%TO.P,U2,36,VDD*%
%TO.N,+3V3*%
X138662500Y-79250000D03*
D14*
%TO.P,U2,37,PA14*%
%TO.N,/SWCLK*%
X137250000Y-77837500D03*
%TO.P,U2,38,PA15*%
%TO.N,unconnected-(U2-Pad38)*%
X136750000Y-77837500D03*
%TO.P,U2,39,PB3*%
%TO.N,unconnected-(U2-Pad39)*%
X136250000Y-77837500D03*
%TO.P,U2,40,PB4*%
%TO.N,unconnected-(U2-Pad40)*%
X135750000Y-77837500D03*
%TO.P,U2,41,PB5*%
%TO.N,unconnected-(U2-Pad41)*%
X135250000Y-77837500D03*
%TO.P,U2,42,PB6*%
%TO.N,/UART1_TX*%
X134750000Y-77837500D03*
%TO.P,U2,43,PB7*%
%TO.N,/UART1_RX*%
X134250000Y-77837500D03*
%TO.P,U2,44,BOOT0*%
%TO.N,/BOOT0*%
X133750000Y-77837500D03*
%TO.P,U2,45,PB8*%
%TO.N,unconnected-(U2-Pad45)*%
X133250000Y-77837500D03*
%TO.P,U2,46,PB9*%
%TO.N,unconnected-(U2-Pad46)*%
X132750000Y-77837500D03*
%TO.P,U2,47,VSS*%
%TO.N,GND*%
X132250000Y-77837500D03*
%TO.P,U2,48,VDD*%
%TO.N,+3V3*%
X131750000Y-77837500D03*
%TD*%
D15*
%TO.P,J1,1,Pin_1*%
%TO.N,+3V3*%
X134800000Y-65100000D03*
D16*
%TO.P,J1,2,Pin_2*%
%TO.N,/UART1_TX*%
X132260000Y-65100000D03*
%TO.P,J1,3,Pin_3*%
%TO.N,/UART1_RX*%
X129720000Y-65100000D03*
%TO.P,J1,4,Pin_4*%
%TO.N,GND*%
X127180000Y-65100000D03*
%TD*%
D17*
%TO.P,H4,1,1*%
%TO.N,GND*%
X155000000Y-95000000D03*
%TD*%
D18*
%TO.P,C13,1*%
%TO.N,+3V3*%
X126500000Y-87600000D03*
%TO.P,C13,2*%
%TO.N,GND*%
X124775000Y-87600000D03*
%TD*%
D19*
%TO.P,C10,1*%
%TO.N,+3V3*%
X131332500Y-75800000D03*
%TO.P,C10,2*%
%TO.N,GND*%
X132467500Y-75800000D03*
%TD*%
%TO.P,C5,1*%
%TO.N,/NRST*%
X130000000Y-87900000D03*
%TO.P,C5,2*%
%TO.N,GND*%
X131135000Y-87900000D03*
%TD*%
D15*
%TO.P,J2,1,Pin_1*%
%TO.N,+3V3*%
X130700000Y-95500000D03*
D16*
%TO.P,J2,2,Pin_2*%
%TO.N,/I2C2_SCL*%
X133240000Y-95500000D03*
%TO.P,J2,3,Pin_3*%
%TO.N,/I2C2_SDA*%
X135780000Y-95500000D03*
%TO.P,J2,4,Pin_4*%
%TO.N,GND*%
X138320000Y-95500000D03*
%TD*%
D18*
%TO.P,C12,1*%
%TO.N,+3.3VA*%
X126500000Y-85700000D03*
%TO.P,C12,2*%
%TO.N,GND*%
X124775000Y-85700000D03*
%TD*%
D20*
%TO.P,C8,1*%
%TO.N,+3V3*%
X137767500Y-88100000D03*
%TO.P,C8,2*%
%TO.N,GND*%
X136632500Y-88100000D03*
%TD*%
D21*
%TO.P,R3,1*%
%TO.N,+3V3*%
X134442500Y-91200000D03*
%TO.P,R3,2*%
%TO.N,/I2C2_SDA*%
X135637500Y-91200000D03*
%TD*%
D22*
%TO.P,FB1,1*%
%TO.N,+3.3VA*%
X128300000Y-85825000D03*
%TO.P,FB1,2*%
%TO.N,+3V3*%
X128300000Y-87575000D03*
%TD*%
D23*
%TO.P,Y1,1,1*%
%TO.N,/HSE_IN*%
X119550000Y-80550000D03*
%TO.P,Y1,2,2*%
%TO.N,GND*%
X119550000Y-83450000D03*
%TO.P,Y1,3,3*%
%TO.N,/HSE_OUT*%
X121850000Y-83450000D03*
%TO.P,Y1,4,4*%
%TO.N,GND*%
X121850000Y-80550000D03*
%TD*%
D24*
%TO.P,R2,1*%
%TO.N,+3V3*%
X133237500Y-91200000D03*
%TO.P,R2,2*%
%TO.N,/I2C2_SCL*%
X132042500Y-91200000D03*
%TD*%
D25*
%TO.P,C3,1*%
%TO.N,+3V3*%
X128100000Y-79262500D03*
%TO.P,C3,2*%
%TO.N,GND*%
X128100000Y-77537500D03*
%TD*%
D26*
%TO.P,C4,1*%
%TO.N,/HSE_IN*%
X124000000Y-81367500D03*
%TO.P,C4,2*%
%TO.N,GND*%
X124000000Y-80232500D03*
%TD*%
D15*
%TO.P,J3,1,Pin_1*%
%TO.N,+3V3*%
X147900000Y-65000000D03*
D16*
%TO.P,J3,2,Pin_2*%
%TO.N,/SWDIO*%
X145360000Y-65000000D03*
%TO.P,J3,3,Pin_3*%
%TO.N,/SWCLK*%
X142820000Y-65000000D03*
%TO.P,J3,4,Pin_4*%
%TO.N,GND*%
X140280000Y-65000000D03*
%TD*%
D27*
%TO.P,U1,1,GND*%
%TO.N,GND*%
X146800000Y-86850000D03*
D28*
%TO.P,U1,2,VO*%
%TO.N,+3V3*%
X144500000Y-93150000D03*
D27*
X144500000Y-86850000D03*
%TO.P,U1,3,VI*%
%TO.N,VBUS*%
X142200000Y-86850000D03*
%TD*%
D24*
%TO.P,R1,1*%
%TO.N,/POWER_LED_K*%
X147795000Y-95500000D03*
%TO.P,R1,2*%
%TO.N,GND*%
X146600000Y-95500000D03*
%TD*%
D17*
%TO.P,H1,1,1*%
%TO.N,GND*%
X155000000Y-65000000D03*
%TD*%
D19*
%TO.P,C6,1*%
%TO.N,+3V3*%
X131332500Y-74300000D03*
%TO.P,C6,2*%
%TO.N,GND*%
X132467500Y-74300000D03*
%TD*%
D29*
%TO.P,C2,1*%
%TO.N,+3V3*%
X149400000Y-90937500D03*
%TO.P,C2,2*%
%TO.N,GND*%
X149400000Y-88862500D03*
%TD*%
D17*
%TO.P,H2,1,1*%
%TO.N,GND*%
X120000000Y-65000000D03*
%TD*%
D30*
%TO.P,J4,1,VBUS*%
%TO.N,VBUS*%
X152045000Y-81900000D03*
%TO.P,J4,2,D-*%
%TO.N,/USB_D-*%
X152045000Y-81250000D03*
%TO.P,J4,3,D+*%
%TO.N,/USB_D+*%
X152045000Y-80600000D03*
%TO.P,J4,4,ID*%
%TO.N,unconnected-(J4-Pad4)*%
X152045000Y-79950000D03*
%TO.P,J4,5,GND*%
%TO.N,GND*%
X152045000Y-79300000D03*
D31*
%TO.P,J4,6,Shield*%
%TO.N,unconnected-(J4-Pad6)*%
X155895000Y-76725000D03*
D32*
X152095000Y-76875000D03*
X152095000Y-84325000D03*
D31*
X155895000Y-84475000D03*
%TD*%
D21*
%TO.P,R4,2*%
%TO.N,/BOOT0*%
X126297500Y-73600000D03*
%TO.P,R4,1*%
%TO.N,/SW_BOOT0*%
X125102500Y-73600000D03*
%TD*%
D26*
%TO.P,C7,1*%
%TO.N,/HSE_OUT*%
X124000000Y-83967500D03*
%TO.P,C7,2*%
%TO.N,GND*%
X124000000Y-82832500D03*
%TD*%
%TO.P,C11,1*%
%TO.N,+3.3VA*%
X128400000Y-83767500D03*
%TO.P,C11,2*%
%TO.N,GND*%
X128400000Y-82632500D03*
%TD*%
D17*
%TO.P,H3,1,1*%
%TO.N,GND*%
X120000000Y-95000000D03*
%TD*%
D33*
%TO.P,D1,1,K*%
%TO.N,/POWER_LED_K*%
X149400000Y-94775000D03*
%TO.P,D1,2,A*%
%TO.N,+3V3*%
X149400000Y-93025000D03*
%TD*%
D34*
%TO.P,C1,1*%
%TO.N,VBUS*%
X142162500Y-84100000D03*
%TO.P,C1,2*%
%TO.N,GND*%
X144237500Y-84100000D03*
%TD*%
D35*
%TO.P,R5,1*%
%TO.N,+3V3*%
X145900000Y-79402500D03*
%TO.P,R5,2*%
%TO.N,/USB_D+*%
X145900000Y-80597500D03*
%TD*%
D36*
%TO.N,GND*%
X150200000Y-79300000D03*
X141600000Y-79900000D03*
X122800000Y-70500000D03*
X121900000Y-78700000D03*
X119300000Y-85400000D03*
%TO.N,+3V3*%
X131800000Y-93300000D03*
X133200000Y-92100000D03*
X134800000Y-89900000D03*
X136337000Y-89900000D03*
%TO.N,GND*%
X145400000Y-95500000D03*
X145600000Y-83800000D03*
X145600000Y-84700000D03*
X151000000Y-88800000D03*
X147300000Y-88500000D03*
X146200000Y-88500000D03*
X124000000Y-79000000D03*
X125200000Y-82800000D03*
X132500000Y-79200000D03*
X124700000Y-88900000D03*
X123400000Y-85700000D03*
X131700000Y-83400000D03*
X136700000Y-84800000D03*
X132100000Y-87900000D03*
X128100000Y-76100000D03*
%TD*%
D37*
%TO.N,GND*%
X152045000Y-79300000D02*
X150200000Y-79300000D01*
D38*
%TO.N,+3V3*%
X137100000Y-62800000D02*
X134800000Y-65100000D01*
X145700000Y-62800000D02*
X137100000Y-62800000D01*
X147900000Y-65000000D02*
X145700000Y-62800000D01*
D37*
%TO.N,GND*%
X141567500Y-79867500D02*
X141600000Y-79900000D01*
X140600000Y-79867500D02*
X141567500Y-79867500D01*
D38*
%TO.N,+3V3*%
X154200000Y-73400000D02*
X151902500Y-73400000D01*
X151902500Y-73400000D02*
X145900000Y-79402500D01*
D37*
X145230000Y-78732500D02*
X145900000Y-79402500D01*
X140600000Y-78732500D02*
X145230000Y-78732500D01*
D38*
X147900000Y-67100000D02*
X147900000Y-65000000D01*
X154200000Y-90200000D02*
X154200000Y-73400000D01*
X151462500Y-92937500D02*
X154200000Y-90200000D01*
X151400000Y-92937500D02*
X151462500Y-92937500D01*
X154200000Y-73400000D02*
X147900000Y-67100000D01*
X126762500Y-79262500D02*
X128100000Y-79262500D01*
X124900000Y-77400000D02*
X126762500Y-79262500D01*
X121700000Y-77400000D02*
X124900000Y-77400000D01*
X131032500Y-74600000D02*
X131332500Y-74300000D01*
X124500000Y-74600000D02*
X131032500Y-74600000D01*
X121700000Y-77400000D02*
X124500000Y-74600000D01*
%TO.N,GND*%
X122750000Y-70550000D02*
X122800000Y-70500000D01*
X121105000Y-70550000D02*
X122750000Y-70550000D01*
%TO.N,+3V3*%
X121700000Y-75645000D02*
X121105000Y-75050000D01*
X121700000Y-77400000D02*
X121700000Y-75645000D01*
X120400000Y-78700000D02*
X121700000Y-77400000D01*
X117800000Y-79200000D02*
X118300000Y-78700000D01*
X117800000Y-87600000D02*
X117800000Y-79200000D01*
X120000000Y-89800000D02*
X117800000Y-87600000D01*
X128300000Y-89800000D02*
X120000000Y-89800000D01*
X118300000Y-78700000D02*
X120400000Y-78700000D01*
%TO.N,GND*%
X121850000Y-78750000D02*
X121900000Y-78700000D01*
X121850000Y-80550000D02*
X121850000Y-78750000D01*
X119550000Y-85150000D02*
X119300000Y-85400000D01*
X119550000Y-83450000D02*
X119550000Y-85150000D01*
%TO.N,+3.3VA*%
X128300000Y-83867500D02*
X128400000Y-83767500D01*
X128300000Y-85825000D02*
X128300000Y-83867500D01*
X128175000Y-85700000D02*
X128300000Y-85825000D01*
X126500000Y-85700000D02*
X128175000Y-85700000D01*
%TO.N,+3V3*%
X131800000Y-93300000D02*
X128300000Y-89800000D01*
X128300000Y-89800000D02*
X128300000Y-87575000D01*
X126525000Y-87575000D02*
X126500000Y-87600000D01*
X128300000Y-87575000D02*
X126525000Y-87575000D01*
X131000000Y-94100000D02*
X131000000Y-95200000D01*
X131800000Y-93300000D02*
X131000000Y-94100000D01*
X131000000Y-95200000D02*
X130700000Y-95500000D01*
X133237500Y-91200000D02*
X133237500Y-92062500D01*
X133237500Y-92062500D02*
X133200000Y-92100000D01*
X133237500Y-91200000D02*
X134442500Y-91200000D01*
X134442500Y-90257500D02*
X134800000Y-89900000D01*
X134442500Y-91200000D02*
X134442500Y-90257500D01*
X136729500Y-89507500D02*
X136337000Y-89900000D01*
X137767500Y-89507500D02*
X136729500Y-89507500D01*
X151400000Y-92937500D02*
X149400000Y-90937500D01*
X151400000Y-96100000D02*
X151400000Y-92937500D01*
X150300000Y-97200000D02*
X151400000Y-96100000D01*
X142300000Y-97200000D02*
X150300000Y-97200000D01*
X140500000Y-95400000D02*
X142300000Y-97200000D01*
X140500000Y-92240000D02*
X140500000Y-95400000D01*
X137767500Y-89507500D02*
X140500000Y-92240000D01*
X137767500Y-88100000D02*
X137767500Y-89507500D01*
D37*
%TO.N,GND*%
X146600000Y-95500000D02*
X145400000Y-95500000D01*
%TO.N,/POWER_LED_K*%
X148520000Y-94775000D02*
X147795000Y-95500000D01*
X149400000Y-94775000D02*
X148520000Y-94775000D01*
D38*
%TO.N,+3V3*%
X149400000Y-90937500D02*
X149400000Y-93025000D01*
%TO.N,GND*%
X124000000Y-80232500D02*
X124000000Y-79000000D01*
X125167500Y-82832500D02*
X125200000Y-82800000D01*
X124000000Y-82832500D02*
X125167500Y-82832500D01*
D37*
X132250000Y-78950000D02*
X132500000Y-79200000D01*
X132250000Y-77837500D02*
X132250000Y-78950000D01*
%TO.N,/SWDIO*%
X137575480Y-78924520D02*
X145360000Y-71140000D01*
X136975480Y-78924520D02*
X137575480Y-78924520D01*
X136600000Y-79900000D02*
X136600000Y-79300000D01*
X145360000Y-71140000D02*
X145360000Y-65000000D01*
X136950000Y-80250000D02*
X136600000Y-79900000D01*
X136600000Y-79300000D02*
X136975480Y-78924520D01*
X138662500Y-80250000D02*
X136950000Y-80250000D01*
D38*
%TO.N,GND*%
X124775000Y-88825000D02*
X124700000Y-88900000D01*
X124775000Y-87600000D02*
X124775000Y-88825000D01*
X124775000Y-85700000D02*
X123400000Y-85700000D01*
D37*
X131700000Y-83200000D02*
X131700000Y-83400000D01*
X131250000Y-82750000D02*
X131700000Y-83200000D01*
X130337500Y-82750000D02*
X131250000Y-82750000D01*
%TO.N,/NRST*%
X132400000Y-84025361D02*
X130000000Y-86425361D01*
X131650000Y-82250000D02*
X132400000Y-83000000D01*
X130000000Y-86425361D02*
X130000000Y-87900000D01*
X130337500Y-82250000D02*
X131650000Y-82250000D01*
X132400000Y-83000000D02*
X132400000Y-84025361D01*
%TO.N,GND*%
X136750000Y-84850000D02*
X136700000Y-84800000D01*
X136750000Y-86162500D02*
X136750000Y-84850000D01*
D38*
X131135000Y-87900000D02*
X132100000Y-87900000D01*
X128100000Y-77537500D02*
X128100000Y-76100000D01*
D37*
%TO.N,/I2C2_SCL*%
X132042500Y-91200000D02*
X132042500Y-92142500D01*
X132042500Y-92142500D02*
X133240000Y-93340000D01*
X133240000Y-93340000D02*
X133240000Y-95500000D01*
X132042500Y-90157500D02*
X132042500Y-91200000D01*
X134500000Y-87700000D02*
X132042500Y-90157500D01*
X135750000Y-87195073D02*
X135245073Y-87700000D01*
X135245073Y-87700000D02*
X134500000Y-87700000D01*
X135750000Y-86162500D02*
X135750000Y-87195073D01*
%TO.N,/I2C2_SDA*%
X136211021Y-87440480D02*
X135637500Y-88014001D01*
X136234700Y-87440480D02*
X136211021Y-87440480D01*
X135637500Y-88014001D02*
X135637500Y-91200000D01*
X136250000Y-87425180D02*
X136234700Y-87440480D01*
X136250000Y-86162500D02*
X136250000Y-87425180D01*
X135780000Y-91342500D02*
X135780000Y-95500000D01*
X135637500Y-91200000D02*
X135780000Y-91342500D01*
%TO.N,/SW_BOOT0*%
X125052500Y-73550000D02*
X125102500Y-73600000D01*
X121105000Y-73550000D02*
X125052500Y-73550000D01*
%TO.N,/BOOT0*%
X133750000Y-74050000D02*
X133100000Y-73400000D01*
X133100000Y-73400000D02*
X126497500Y-73400000D01*
X126497500Y-73400000D02*
X126297500Y-73600000D01*
X133750000Y-77837500D02*
X133750000Y-74050000D01*
%TO.N,/UART1_RX*%
X129720000Y-67120000D02*
X129720000Y-65100000D01*
X131100000Y-68500000D02*
X129720000Y-67120000D01*
X134300000Y-68500000D02*
X131100000Y-68500000D01*
X135500000Y-69700000D02*
X134300000Y-68500000D01*
X135500000Y-74700000D02*
X135500000Y-69700000D01*
X134250000Y-75950000D02*
X135500000Y-74700000D01*
X134250000Y-77837500D02*
X134250000Y-75950000D01*
%TO.N,/UART1_TX*%
X132260000Y-66560000D02*
X132260000Y-65100000D01*
X133000000Y-67300000D02*
X132260000Y-66560000D01*
X134800000Y-67300000D02*
X133000000Y-67300000D01*
X136600000Y-69100000D02*
X134800000Y-67300000D01*
X136600000Y-75200000D02*
X136600000Y-69100000D01*
X136000000Y-75800000D02*
X136600000Y-75200000D01*
X135949639Y-75800000D02*
X136000000Y-75800000D01*
X134750000Y-76999639D02*
X135949639Y-75800000D01*
X134750000Y-77837500D02*
X134750000Y-76999639D01*
%TO.N,/SWCLK*%
X142820000Y-71380000D02*
X142820000Y-65000000D01*
X137250000Y-76950000D02*
X142820000Y-71380000D01*
X137250000Y-77837500D02*
X137250000Y-76950000D01*
D39*
%TO.N,/USB_D+*%
X151095489Y-80725489D02*
X151919511Y-80725489D01*
X151095489Y-80799999D02*
X151095489Y-80725489D01*
%TO.N,/USB_D-*%
X138662500Y-81250000D02*
X152045000Y-81250000D01*
%TO.N,/USB_D+*%
X138712499Y-80799999D02*
X151095489Y-80799999D01*
X151919511Y-80725489D02*
X152045000Y-80600000D01*
X138662500Y-80750000D02*
X138712499Y-80799999D01*
%TO.N,/USB_D-*%
X138687499Y-81225001D02*
X138700000Y-81225000D01*
X138662500Y-81250000D02*
X138687499Y-81225001D01*
%TO.N,/USB_D+*%
X138687499Y-80774999D02*
X138700000Y-80775000D01*
X138662500Y-80750000D02*
X138687499Y-80774999D01*
D37*
%TO.N,/HSE_IN*%
X123367500Y-82000000D02*
X124000000Y-81367500D01*
X120850000Y-82000000D02*
X123367500Y-82000000D01*
X119550000Y-80550000D02*
X119550000Y-80700000D01*
X119550000Y-80700000D02*
X120850000Y-82000000D01*
X124567500Y-80800000D02*
X124000000Y-81367500D01*
X129100000Y-80850361D02*
X129100000Y-80800000D01*
X129100000Y-80800000D02*
X124567500Y-80800000D01*
X129499639Y-81250000D02*
X129100000Y-80850361D01*
X130337500Y-81250000D02*
X129499639Y-81250000D01*
%TO.N,/HSE_OUT*%
X124000000Y-83967500D02*
X122367500Y-83967500D01*
X122367500Y-83967500D02*
X121850000Y-83450000D01*
X125732500Y-83967500D02*
X124000000Y-83967500D01*
X127950000Y-81750000D02*
X125732500Y-83967500D01*
X130337500Y-81750000D02*
X127950000Y-81750000D01*
%TO.N,+3V3*%
X128112500Y-79250000D02*
X128100000Y-79262500D01*
X130337500Y-79250000D02*
X128112500Y-79250000D01*
%TO.N,+3.3VA*%
X128832500Y-83767500D02*
X128400000Y-83767500D01*
X129350000Y-83250000D02*
X128832500Y-83767500D01*
X130337500Y-83250000D02*
X129350000Y-83250000D01*
%TO.N,GND*%
X128517500Y-82750000D02*
X128400000Y-82632500D01*
X130337500Y-82750000D02*
X128517500Y-82750000D01*
X136750000Y-87982500D02*
X136632500Y-88100000D01*
X136750000Y-86162500D02*
X136750000Y-87982500D01*
%TO.N,+3V3*%
X137767500Y-87467500D02*
X137767500Y-88100000D01*
X137250000Y-86950000D02*
X137767500Y-87467500D01*
X137250000Y-86162500D02*
X137250000Y-86950000D01*
%TO.N,GND*%
X139800000Y-79900000D02*
X140567500Y-79900000D01*
X140567500Y-79900000D02*
X140600000Y-79867500D01*
X139650000Y-79750000D02*
X139800000Y-79900000D01*
X138662500Y-79750000D02*
X139650000Y-79750000D01*
%TO.N,+3V3*%
X140167500Y-78732500D02*
X140600000Y-78732500D01*
X139650000Y-79250000D02*
X140167500Y-78732500D01*
X138662500Y-79250000D02*
X139650000Y-79250000D01*
D38*
%TO.N,GND*%
X132467500Y-74300000D02*
X132467500Y-75800000D01*
%TO.N,+3V3*%
X131332500Y-74300000D02*
X131332500Y-75800000D01*
D37*
X131300000Y-76500000D02*
X131300000Y-75832500D01*
X131300000Y-75832500D02*
X131332500Y-75800000D01*
X131750000Y-76950000D02*
X131300000Y-76500000D01*
X131750000Y-77837500D02*
X131750000Y-76950000D01*
%TO.N,GND*%
X132467500Y-76632500D02*
X132467500Y-75800000D01*
X132250000Y-76850000D02*
X132467500Y-76632500D01*
X132250000Y-77837500D02*
X132250000Y-76850000D01*
%TD*%
%TA.AperFunction,Conductor*%
%TO.N,GND*%
G36*
X147510169Y-83020002D02*
G01*
X147537714Y-83044000D01*
X148069666Y-83664610D01*
X148098812Y-83729349D01*
X148100000Y-83746610D01*
X148100000Y-87200000D01*
X148600000Y-87700000D01*
X151247810Y-87700000D01*
X151315931Y-87720002D01*
X151336905Y-87736905D01*
X151666764Y-88066764D01*
X151700790Y-88129076D01*
X151703348Y-88146878D01*
X151738180Y-88634514D01*
X151795901Y-89442612D01*
X151780803Y-89511985D01*
X151759316Y-89540684D01*
X151437975Y-89862025D01*
X151375663Y-89896051D01*
X151346309Y-89898904D01*
X150112610Y-89873726D01*
X150075516Y-89867346D01*
X150075356Y-89867293D01*
X150029861Y-89852203D01*
X149925400Y-89841500D01*
X148874600Y-89841500D01*
X148871354Y-89841837D01*
X148871350Y-89841837D01*
X148850544Y-89843996D01*
X148826303Y-89846511D01*
X148810735Y-89847158D01*
X147947287Y-89829536D01*
X146565774Y-89801342D01*
X146498076Y-89779954D01*
X146463507Y-89745260D01*
X146300974Y-89501461D01*
X146300000Y-89500000D01*
X146000000Y-89100000D01*
X145627611Y-88634513D01*
X145600675Y-88568825D01*
X145600000Y-88555802D01*
X145600000Y-88272931D01*
X145620002Y-88204810D01*
X145625174Y-88197366D01*
X145695229Y-88103892D01*
X145695230Y-88103890D01*
X145700615Y-88096705D01*
X145751745Y-87960316D01*
X145758500Y-87898134D01*
X145758500Y-85801866D01*
X145751745Y-85739684D01*
X145700615Y-85603295D01*
X145613261Y-85486739D01*
X145535552Y-85428499D01*
X145503887Y-85404767D01*
X145503884Y-85404765D01*
X145496705Y-85399385D01*
X145451923Y-85382597D01*
X145420556Y-85365417D01*
X145200000Y-85200000D01*
X143945618Y-85200000D01*
X143877497Y-85179998D01*
X143864955Y-85170796D01*
X143345337Y-84737781D01*
X143305810Y-84678805D01*
X143300000Y-84640985D01*
X143300000Y-83371340D01*
X143320002Y-83303219D01*
X143361173Y-83263296D01*
X143770074Y-83017955D01*
X143834899Y-83000000D01*
X147442048Y-83000000D01*
X147510169Y-83020002D01*
G37*
%TD.AperFunction*%
%TD*%
%TA.AperFunction,Conductor*%
%TO.N,+3V3*%
G36*
X145134919Y-85524386D02*
G01*
X145184878Y-85574830D01*
X145200000Y-85634680D01*
X145200000Y-91000000D01*
X146538152Y-91552009D01*
X147963781Y-90233497D01*
X148027374Y-90201928D01*
X148049334Y-90200000D01*
X150265879Y-90200000D01*
X150334000Y-90220002D01*
X150380493Y-90273658D01*
X150391634Y-90333860D01*
X150307004Y-91687936D01*
X150282791Y-91754676D01*
X150226340Y-91797731D01*
X150187874Y-91805901D01*
X148400000Y-91900000D01*
X148393708Y-91918782D01*
X147713243Y-93949857D01*
X147672637Y-94008095D01*
X147657697Y-94018408D01*
X146577995Y-94654080D01*
X146514072Y-94671501D01*
X146349064Y-94671501D01*
X146346205Y-94671764D01*
X146346197Y-94671764D01*
X146312424Y-94674867D01*
X146279781Y-94677866D01*
X146273403Y-94679865D01*
X146273402Y-94679865D01*
X146227551Y-94694234D01*
X146189872Y-94700000D01*
X145740657Y-94700000D01*
X145689409Y-94689107D01*
X145672787Y-94681706D01*
X145672779Y-94681703D01*
X145666752Y-94679020D01*
X145578492Y-94660260D01*
X145496689Y-94642872D01*
X145496685Y-94642872D01*
X145490232Y-94641500D01*
X145309768Y-94641500D01*
X145303315Y-94642872D01*
X145303311Y-94642872D01*
X145139706Y-94677647D01*
X145139703Y-94677648D01*
X145133248Y-94679020D01*
X145110595Y-94689106D01*
X145059345Y-94700000D01*
X142363000Y-94700000D01*
X142294879Y-94679998D01*
X142262200Y-94649600D01*
X142025200Y-94333600D01*
X142000329Y-94267102D01*
X142000000Y-94258000D01*
X142000000Y-91652190D01*
X142020002Y-91584069D01*
X142036905Y-91563095D01*
X142600000Y-91000000D01*
X142697781Y-88848818D01*
X142720856Y-88781675D01*
X142734556Y-88765444D01*
X143201052Y-88298948D01*
X143214582Y-88287217D01*
X143306080Y-88218643D01*
X143306081Y-88218642D01*
X143313261Y-88213261D01*
X143392598Y-88107402D01*
X143400000Y-88100000D01*
X143400000Y-88097526D01*
X143400615Y-88096705D01*
X143451745Y-87960316D01*
X143458500Y-87898134D01*
X143458500Y-85893690D01*
X143478502Y-85825569D01*
X143495405Y-85804595D01*
X143666523Y-85633477D01*
X143728835Y-85599451D01*
X143747237Y-85596851D01*
X145065619Y-85508959D01*
X145134919Y-85524386D01*
G37*
%TD.AperFunction*%
%TD*%
%TA.AperFunction,Conductor*%
%TO.N,VBUS*%
G36*
X151084889Y-81878502D02*
G01*
X151092333Y-81883674D01*
X151141108Y-81920229D01*
X151141110Y-81920230D01*
X151148295Y-81925615D01*
X151284684Y-81976745D01*
X151346866Y-81983500D01*
X152677333Y-81983500D01*
X152745454Y-82003502D01*
X152791947Y-82057158D01*
X152802051Y-82127432D01*
X152772557Y-82192012D01*
X152752933Y-82210300D01*
X152532935Y-82375299D01*
X152466437Y-82400170D01*
X152458835Y-82400490D01*
X151361303Y-82413556D01*
X144100000Y-82500000D01*
X143000000Y-83200000D01*
X143000000Y-84700000D01*
X143010347Y-84715521D01*
X143010348Y-84715523D01*
X143177363Y-84966044D01*
X143198432Y-85040779D01*
X143102214Y-87542439D01*
X143079609Y-87609740D01*
X143055020Y-87635984D01*
X142634514Y-87972389D01*
X142568825Y-87999325D01*
X142555802Y-88000000D01*
X141471340Y-88000000D01*
X141403219Y-87979998D01*
X141363296Y-87938827D01*
X141118809Y-87531348D01*
X141100891Y-87463453D01*
X141160976Y-85000000D01*
X141198771Y-83450384D01*
X141220429Y-83382771D01*
X141235639Y-83364361D01*
X141798214Y-82801786D01*
X141801846Y-82798296D01*
X142233333Y-82400000D01*
X142783760Y-81891914D01*
X142847380Y-81860407D01*
X142869221Y-81858500D01*
X151016768Y-81858500D01*
X151084889Y-81878502D01*
G37*
%TD.AperFunction*%
%TD*%
M02*
