M48
; DRILL file {KiCad (6.0.5)} date Fri Feb 17 12:54:04 2023
; FORMAT={-:-/ absolute / inch / decimal}
; #@! TF.CreationDate,2023-02-17T12:54:04-08:00
; #@! TF.GenerationSoftware,Kicad,Pcbnew,(6.0.5)
; #@! TF.FileFunction,MixedPlating,1,2
FMAT,2
INCH
; #@! TA.AperFunction,Plated,PTH,ViaDrill
T1C0.0157
; #@! TA.AperFunction,Plated,PTH,ComponentDrill
T2C0.0217
; #@! TA.AperFunction,Plated,PTH,ComponentDrill
T3C0.0335
; #@! TA.AperFunction,Plated,PTH,ComponentDrill
T4C0.0394
; #@! TA.AperFunction,Plated,PTH,ComponentDrill
T5C0.0866
; #@! TA.AperFunction,NonPlated,NPTH,ComponentDrill
T6C0.0315
%
G90
G05
T1
X4.8711Y-5.6309
X4.9685Y-4.8159
X5.0276Y-4.811
X5.0394Y-5.315
X5.0787Y-4.7402
X5.1378Y-5.3189
X5.1484Y-5.5197
X5.4016Y-5.748
X5.4724Y-5.5039
X5.4803Y-4.6781
X5.5118Y-5.2205
X5.5118Y-5.2874
X5.563Y-5.0118
X5.5866Y-5.2874
X5.6063Y-5.5906
X5.6732Y-4.9803
X5.7677Y-5.437
X5.7835Y-5.5827
X5.8228Y-4.9055
X5.845Y-5.3912
X5.8583Y-5.4882
X5.8583Y-5.5827
X5.878Y-5.3504
X5.878Y-5.6772
X5.8976Y-5.1535
X5.9016Y-5.0512
X5.9094Y-5.4252
X6.0Y-5.1654
X6.0039Y-5.5866
X6.063Y-5.1654
X6.0906Y-5.4331
X6.1535Y-5.1654
X6.2047Y-5.6181
X6.3504Y-5.3976
X6.3661Y-5.4961
X6.4803Y-4.8858
T4
X5.6368Y-5.8701
X5.7368Y-5.8701
X5.8368Y-5.8701
X5.9268Y-4.6614
X5.9368Y-5.8701
X6.0268Y-4.6614
X6.0368Y-5.8701
X6.1268Y-4.6614
X6.1368Y-5.8701
X6.2268Y-4.6614
X6.2368Y-5.8701
X6.3268Y-4.6614
X6.3368Y-5.8701
X6.4268Y-4.6614
X6.4368Y-5.8701
X6.5268Y-4.6614
X6.5368Y-5.8701
X6.6268Y-4.6614
X6.7268Y-4.6614
X6.8268Y-4.6614
X7.0787Y-4.9868
X7.0787Y-5.0868
X7.0787Y-5.1868
X7.0787Y-5.2868
X7.0787Y-5.3868
X7.0787Y-5.4868
X7.0787Y-5.5868
X7.0787Y-5.6868
X7.0787Y-5.7868
X7.0787Y-5.8868
T5
X4.7244Y-4.7244
X4.7244Y-6.1024
X7.0866Y-4.7244
X7.0866Y-6.1024
T6
X4.7165Y-5.4803
X4.7165Y-5.6772
T2
G00X4.6211Y-5.4262
M15
G01X4.5955Y-5.4262
M16
G05
G00X4.6211Y-5.7313
M15
G01X4.5955Y-5.7313
M16
G05
T3
G00X4.7687Y-5.4321
M15
G01X4.747Y-5.4321
M16
G05
G00X4.7687Y-5.7254
M15
G01X4.747Y-5.7254
M16
G05
T0
M30
