G04 #@! TF.GenerationSoftware,KiCad,Pcbnew,(6.0.5)*
G04 #@! TF.CreationDate,2023-03-12T22:04:04-07:00*
G04 #@! TF.ProjectId,PCM1863,50434d31-3836-4332-9e6b-696361645f70,rev?*
G04 #@! TF.SameCoordinates,Original*
G04 #@! TF.FileFunction,Copper,L1,Top*
G04 #@! TF.FilePolarity,Positive*
%FSLAX46Y46*%
G04 Gerber Fmt 4.6, Leading zero omitted, Abs format (unit mm)*
G04 Created by KiCad (PCBNEW (6.0.5)) date 2023-03-12 22:04:04*
%MOMM*%
%LPD*%
G01*
G04 APERTURE LIST*
G04 Aperture macros list*
%AMRoundRect*
0 Rectangle with rounded corners*
0 $1 Rounding radius*
0 $2 $3 $4 $5 $6 $7 $8 $9 X,Y pos of 4 corners*
0 Add a 4 corners polygon primitive as box body*
4,1,4,$2,$3,$4,$5,$6,$7,$8,$9,$2,$3,0*
0 Add four circle primitives for the rounded corners*
1,1,$1+$1,$2,$3*
1,1,$1+$1,$4,$5*
1,1,$1+$1,$6,$7*
1,1,$1+$1,$8,$9*
0 Add four rect primitives between the rounded corners*
20,1,$1+$1,$2,$3,$4,$5,0*
20,1,$1+$1,$4,$5,$6,$7,0*
20,1,$1+$1,$6,$7,$8,$9,0*
20,1,$1+$1,$8,$9,$2,$3,0*%
G04 Aperture macros list end*
G04 #@! TA.AperFunction,SMDPad,CuDef*
%ADD10RoundRect,0.237500X0.237500X-0.300000X0.237500X0.300000X-0.237500X0.300000X-0.237500X-0.300000X0*%
G04 #@! TD*
G04 #@! TA.AperFunction,ComponentPad*
%ADD11R,1.700000X1.700000*%
G04 #@! TD*
G04 #@! TA.AperFunction,ComponentPad*
%ADD12O,1.700000X1.700000*%
G04 #@! TD*
G04 #@! TA.AperFunction,SMDPad,CuDef*
%ADD13R,0.400000X1.200000*%
G04 #@! TD*
G04 #@! TA.AperFunction,SMDPad,CuDef*
%ADD14RoundRect,0.237500X0.287500X0.237500X-0.287500X0.237500X-0.287500X-0.237500X0.287500X-0.237500X0*%
G04 #@! TD*
G04 #@! TA.AperFunction,SMDPad,CuDef*
%ADD15RoundRect,0.237500X-0.237500X0.300000X-0.237500X-0.300000X0.237500X-0.300000X0.237500X0.300000X0*%
G04 #@! TD*
G04 #@! TA.AperFunction,SMDPad,CuDef*
%ADD16RoundRect,0.237500X0.250000X0.237500X-0.250000X0.237500X-0.250000X-0.237500X0.250000X-0.237500X0*%
G04 #@! TD*
G04 #@! TA.AperFunction,SMDPad,CuDef*
%ADD17R,1.150000X0.600000*%
G04 #@! TD*
G04 #@! TA.AperFunction,SMDPad,CuDef*
%ADD18RoundRect,0.237500X0.300000X0.237500X-0.300000X0.237500X-0.300000X-0.237500X0.300000X-0.237500X0*%
G04 #@! TD*
G04 #@! TA.AperFunction,SMDPad,CuDef*
%ADD19RoundRect,0.237500X-0.237500X0.250000X-0.237500X-0.250000X0.237500X-0.250000X0.237500X0.250000X0*%
G04 #@! TD*
G04 #@! TA.AperFunction,ComponentPad*
%ADD20C,6.400000*%
G04 #@! TD*
G04 #@! TA.AperFunction,SMDPad,CuDef*
%ADD21RoundRect,0.075000X-0.075000X0.662500X-0.075000X-0.662500X0.075000X-0.662500X0.075000X0.662500X0*%
G04 #@! TD*
G04 #@! TA.AperFunction,SMDPad,CuDef*
%ADD22RoundRect,0.237500X-0.300000X-0.237500X0.300000X-0.237500X0.300000X0.237500X-0.300000X0.237500X0*%
G04 #@! TD*
G04 #@! TA.AperFunction,SMDPad,CuDef*
%ADD23R,0.600000X1.200000*%
G04 #@! TD*
G04 #@! TA.AperFunction,SMDPad,CuDef*
%ADD24RoundRect,0.237500X-0.287500X-0.237500X0.287500X-0.237500X0.287500X0.237500X-0.287500X0.237500X0*%
G04 #@! TD*
G04 #@! TA.AperFunction,SMDPad,CuDef*
%ADD25R,1.100000X1.300000*%
G04 #@! TD*
G04 #@! TA.AperFunction,SMDPad,CuDef*
%ADD26R,0.450000X1.300000*%
G04 #@! TD*
G04 #@! TA.AperFunction,ComponentPad*
%ADD27O,1.450000X2.000000*%
G04 #@! TD*
G04 #@! TA.AperFunction,ComponentPad*
%ADD28O,1.150000X1.800000*%
G04 #@! TD*
G04 #@! TA.AperFunction,SMDPad,CuDef*
%ADD29RoundRect,0.237500X-0.237500X0.287500X-0.237500X-0.287500X0.237500X-0.287500X0.237500X0.287500X0*%
G04 #@! TD*
G04 #@! TA.AperFunction,ViaPad*
%ADD30C,1.000000*%
G04 #@! TD*
G04 #@! TA.AperFunction,Conductor*
%ADD31C,1.000000*%
G04 #@! TD*
G04 #@! TA.AperFunction,Conductor*
%ADD32C,0.250000*%
G04 #@! TD*
G04 #@! TA.AperFunction,Conductor*
%ADD33C,0.750000*%
G04 #@! TD*
G04 #@! TA.AperFunction,Conductor*
%ADD34C,0.500000*%
G04 #@! TD*
G04 #@! TA.AperFunction,Conductor*
%ADD35C,0.200000*%
G04 #@! TD*
G04 APERTURE END LIST*
D10*
G04 #@! TO.P,C22,1*
G04 #@! TO.N,GNDA*
X116500000Y-127362500D03*
G04 #@! TO.P,C22,2*
G04 #@! TO.N,Net-(U1-Pad28)*
X116500000Y-125637500D03*
G04 #@! TD*
D11*
G04 #@! TO.P,J9,1,Pin_1*
G04 #@! TO.N,GNDA*
X135500000Y-112075000D03*
D12*
G04 #@! TO.P,J9,2,Pin_2*
G04 #@! TO.N,/VREF*
X135500000Y-114615000D03*
G04 #@! TO.P,J9,3,Pin_3*
G04 #@! TO.N,/IN1*
X135500000Y-117155000D03*
G04 #@! TO.P,J9,4,Pin_4*
G04 #@! TO.N,/IN2*
X135500000Y-119695000D03*
G04 #@! TO.P,J9,5,Pin_5*
G04 #@! TO.N,/IN3*
X135500000Y-122235000D03*
G04 #@! TO.P,J9,6,Pin_6*
G04 #@! TO.N,/IN4*
X135500000Y-124775000D03*
G04 #@! TO.P,J9,7,Pin_7*
G04 #@! TO.N,/MDO*
X135500000Y-127315000D03*
G04 #@! TO.P,J9,8,Pin_8*
G04 #@! TO.N,/MD1{slash}MS{slash}AD*
X135500000Y-129855000D03*
G04 #@! TO.P,J9,9,Pin_9*
G04 #@! TO.N,/MD3{slash}MC{slash}SCL*
X135500000Y-132395000D03*
G04 #@! TO.P,J9,10,Pin_10*
G04 #@! TO.N,/DOUT2{slash}MD2{slash}MOSI{slash}SDA*
X135500000Y-134935000D03*
G04 #@! TD*
D13*
G04 #@! TO.P,IC1,1,EN*
G04 #@! TO.N,GNDD*
X99150000Y-65550000D03*
G04 #@! TO.P,IC1,2,INPUT(A)*
G04 #@! TO.N,/OSC*
X98500000Y-65550000D03*
G04 #@! TO.P,IC1,3,GND*
G04 #@! TO.N,GNDD*
X97850000Y-65550000D03*
G04 #@! TO.P,IC1,4,OUTPUT(Y)*
G04 #@! TO.N,/XI*
X97850000Y-67450000D03*
G04 #@! TO.P,IC1,5,VCC*
G04 #@! TO.N,+1V8*
X99150000Y-67450000D03*
G04 #@! TD*
D14*
G04 #@! TO.P,D3,1,K*
G04 #@! TO.N,Net-(D3-Pad1)*
X135162011Y-103950000D03*
G04 #@! TO.P,D3,2,A*
G04 #@! TO.N,+3.3VA*
X133412011Y-103950000D03*
G04 #@! TD*
D10*
G04 #@! TO.P,C23,1*
G04 #@! TO.N,GNDA*
X124500000Y-123362500D03*
G04 #@! TO.P,C23,2*
G04 #@! TO.N,/VIN3P*
X124500000Y-121637500D03*
G04 #@! TD*
G04 #@! TO.P,C17,1*
G04 #@! TO.N,+3V3*
X95500000Y-59362500D03*
G04 #@! TO.P,C17,2*
G04 #@! TO.N,GNDD*
X95500000Y-57637500D03*
G04 #@! TD*
D15*
G04 #@! TO.P,C21,1*
G04 #@! TO.N,Net-(C21-Pad1)*
X121500000Y-124637500D03*
G04 #@! TO.P,C21,2*
G04 #@! TO.N,/IN4*
X121500000Y-126362500D03*
G04 #@! TD*
D16*
G04 #@! TO.P,R8,1*
G04 #@! TO.N,Net-(C33-Pad1)*
X122500000Y-113500000D03*
G04 #@! TO.P,R8,2*
G04 #@! TO.N,/VIN1P*
X120675000Y-113500000D03*
G04 #@! TD*
D17*
G04 #@! TO.P,IC2,1,IN*
G04 #@! TO.N,VCC*
X90250000Y-157275978D03*
G04 #@! TO.P,IC2,2,GND*
G04 #@! TO.N,GNDD*
X90250000Y-158225978D03*
G04 #@! TO.P,IC2,3,EN*
G04 #@! TO.N,VCC*
X90250000Y-159175978D03*
G04 #@! TO.P,IC2,4,NC*
G04 #@! TO.N,unconnected-(IC2-Pad4)*
X92750000Y-159175978D03*
G04 #@! TO.P,IC2,5,OUT*
G04 #@! TO.N,+3V3*
X92750000Y-157275978D03*
G04 #@! TD*
D15*
G04 #@! TO.P,C26,1*
G04 #@! TO.N,Net-(C26-Pad1)*
X126500000Y-121637500D03*
G04 #@! TO.P,C26,2*
G04 #@! TO.N,/IN3*
X126500000Y-123362500D03*
G04 #@! TD*
D16*
G04 #@! TO.P,R6,1*
G04 #@! TO.N,Net-(C26-Pad1)*
X126500000Y-119500000D03*
G04 #@! TO.P,R6,2*
G04 #@! TO.N,/VIN3P*
X124675000Y-119500000D03*
G04 #@! TD*
D18*
G04 #@! TO.P,C25,1*
G04 #@! TO.N,VCC*
X136149511Y-92950000D03*
G04 #@! TO.P,C25,2*
G04 #@! TO.N,GNDA*
X134424511Y-92950000D03*
G04 #@! TD*
G04 #@! TO.P,C16,1*
G04 #@! TO.N,Net-(C14-Pad1)*
X96000000Y-82910000D03*
G04 #@! TO.P,C16,2*
G04 #@! TO.N,GNDD*
X94275000Y-82910000D03*
G04 #@! TD*
D19*
G04 #@! TO.P,R23,1*
G04 #@! TO.N,+3V3*
X117562500Y-63725000D03*
G04 #@! TO.P,R23,2*
G04 #@! TO.N,Net-(IC4-Pad5)*
X117562500Y-65550000D03*
G04 #@! TD*
D10*
G04 #@! TO.P,C31,1*
G04 #@! TO.N,Net-(C31-Pad1)*
X126500000Y-114362500D03*
G04 #@! TO.P,C31,2*
G04 #@! TO.N,/IN2*
X126500000Y-112637500D03*
G04 #@! TD*
D11*
G04 #@! TO.P,J5,1,Pin_1*
G04 #@! TO.N,+1V8*
X96000000Y-78335000D03*
D12*
G04 #@! TO.P,J5,2,Pin_2*
G04 #@! TO.N,Net-(C14-Pad1)*
X93460000Y-78335000D03*
G04 #@! TD*
D20*
G04 #@! TO.P,H4,1,1*
G04 #@! TO.N,GNDD*
X84700000Y-168000000D03*
G04 #@! TD*
D15*
G04 #@! TO.P,C32,1*
G04 #@! TO.N,GNDA*
X120500000Y-109637500D03*
G04 #@! TO.P,C32,2*
G04 #@! TO.N,/VIN1P*
X120500000Y-111362500D03*
G04 #@! TD*
D21*
G04 #@! TO.P,U1,1,VINL2/VIN1M*
G04 #@! TO.N,Net-(U1-Pad1)*
X110640000Y-108637500D03*
G04 #@! TO.P,U1,2,VINR2/VIN2M*
G04 #@! TO.N,Net-(U1-Pad2)*
X110140000Y-108637500D03*
G04 #@! TO.P,U1,3,VINL1/VIN1P*
G04 #@! TO.N,/VIN1P*
X109640000Y-108637500D03*
G04 #@! TO.P,U1,4,VINR1/VIN2P*
G04 #@! TO.N,/VIN2P*
X109140000Y-108637500D03*
G04 #@! TO.P,U1,5,Mic_Bias*
G04 #@! TO.N,Net-(C13-Pad2)*
X108640000Y-108637500D03*
G04 #@! TO.P,U1,6,VREF*
G04 #@! TO.N,Net-(U1-Pad6)*
X108140000Y-108637500D03*
G04 #@! TO.P,U1,7,AGND*
G04 #@! TO.N,GNDA*
X107640000Y-108637500D03*
G04 #@! TO.P,U1,8,AVDD*
G04 #@! TO.N,+3.3VA*
X107140000Y-108637500D03*
G04 #@! TO.P,U1,9,XO*
G04 #@! TO.N,Net-(U1-Pad9)*
X106640000Y-108637500D03*
G04 #@! TO.P,U1,10,XI*
G04 #@! TO.N,Net-(U1-Pad10)*
X106140000Y-108637500D03*
G04 #@! TO.P,U1,11,LDO*
G04 #@! TO.N,Net-(C14-Pad1)*
X105640000Y-108637500D03*
G04 #@! TO.P,U1,12,DGND*
G04 #@! TO.N,GNDD*
X105140000Y-108637500D03*
G04 #@! TO.P,U1,13,DVDD*
G04 #@! TO.N,+3V3*
X104640000Y-108637500D03*
G04 #@! TO.P,U1,14,IOVDD*
X104140000Y-108637500D03*
G04 #@! TO.P,U1,15,SCKI*
G04 #@! TO.N,/SCKI(3.3V)*
X103640000Y-108637500D03*
G04 #@! TO.P,U1,16,LRCK*
G04 #@! TO.N,/LRCK*
X103640000Y-114362500D03*
G04 #@! TO.P,U1,17,BCK*
G04 #@! TO.N,/BCK*
X104140000Y-114362500D03*
G04 #@! TO.P,U1,18,DOUT*
G04 #@! TO.N,/DOUT*
X104640000Y-114362500D03*
G04 #@! TO.P,U1,19,GPIO3/INTC*
G04 #@! TO.N,/INT{slash}GPIO3{slash}INTC*
X105140000Y-114362500D03*
G04 #@! TO.P,U1,20,GPIO2/INTB/DMCLK*
G04 #@! TO.N,/MD6{slash}GPIO2{slash}INTB{slash}DMCLK*
X105640000Y-114362500D03*
G04 #@! TO.P,U1,21,GPIO1/INTA/DMIN*
G04 #@! TO.N,/MD5{slash}GPIO1{slash}INTA{slash}DMIN*
X106140000Y-114362500D03*
G04 #@! TO.P,U1,22,MISO/GPIO0/DMIN2*
G04 #@! TO.N,/MD4{slash}MISO{slash}GPIO0*
X106640000Y-114362500D03*
G04 #@! TO.P,U1,23,MOSI/SDA*
G04 #@! TO.N,/DOUT2{slash}MD2{slash}MOSI{slash}SDA*
X107140000Y-114362500D03*
G04 #@! TO.P,U1,24,MC/SCL*
G04 #@! TO.N,/MD3{slash}MC{slash}SCL*
X107640000Y-114362500D03*
G04 #@! TO.P,U1,25,MS/AD*
G04 #@! TO.N,/MD1{slash}MS{slash}AD*
X108140000Y-114362500D03*
G04 #@! TO.P,U1,26,MD0*
G04 #@! TO.N,/MDO*
X108640000Y-114362500D03*
G04 #@! TO.P,U1,27,VINL4/VIN4M*
G04 #@! TO.N,Net-(U1-Pad27)*
X109140000Y-114362500D03*
G04 #@! TO.P,U1,28,VINR4/VIN3M*
G04 #@! TO.N,Net-(U1-Pad28)*
X109640000Y-114362500D03*
G04 #@! TO.P,U1,29,VINL3/VIN4P*
G04 #@! TO.N,/VIN4P*
X110140000Y-114362500D03*
G04 #@! TO.P,U1,30,VINR3/VIN3P*
G04 #@! TO.N,/VIN3P*
X110640000Y-114362500D03*
G04 #@! TD*
D15*
G04 #@! TO.P,C27,1*
G04 #@! TO.N,GNDA*
X124580000Y-112637500D03*
G04 #@! TO.P,C27,2*
G04 #@! TO.N,/VIN2P*
X124580000Y-114362500D03*
G04 #@! TD*
D18*
G04 #@! TO.P,C19,1*
G04 #@! TO.N,GNDA*
X117500000Y-109500000D03*
G04 #@! TO.P,C19,2*
G04 #@! TO.N,Net-(U1-Pad1)*
X115775000Y-109500000D03*
G04 #@! TD*
D11*
G04 #@! TO.P,J7,1,Pin_1*
G04 #@! TO.N,Net-(U1-Pad6)*
X112500000Y-99500000D03*
D12*
G04 #@! TO.P,J7,2,Pin_2*
G04 #@! TO.N,/VREF*
X115040000Y-99500000D03*
G04 #@! TD*
D16*
G04 #@! TO.P,R7,1*
G04 #@! TO.N,Net-(C31-Pad1)*
X126500000Y-116500000D03*
G04 #@! TO.P,R7,2*
G04 #@! TO.N,/VIN2P*
X124675000Y-116500000D03*
G04 #@! TD*
D11*
G04 #@! TO.P,J6,1,Pin_1*
G04 #@! TO.N,/XI*
X106500000Y-71500000D03*
D12*
G04 #@! TO.P,J6,2,Pin_2*
G04 #@! TO.N,GNDD*
X106500000Y-68960000D03*
G04 #@! TD*
D10*
G04 #@! TO.P,C29,1*
G04 #@! TO.N,GNDD*
X113562500Y-81637500D03*
G04 #@! TO.P,C29,2*
G04 #@! TO.N,+1V8*
X113562500Y-79912500D03*
G04 #@! TD*
D18*
G04 #@! TO.P,C10,1*
G04 #@! TO.N,GNDA*
X108500000Y-103500000D03*
G04 #@! TO.P,C10,2*
G04 #@! TO.N,+3.3VA*
X106775000Y-103500000D03*
G04 #@! TD*
D22*
G04 #@! TO.P,C12,1*
G04 #@! TO.N,+3V3*
X99637500Y-98500000D03*
G04 #@! TO.P,C12,2*
G04 #@! TO.N,GNDD*
X101362500Y-98500000D03*
G04 #@! TD*
D19*
G04 #@! TO.P,R1,1*
G04 #@! TO.N,Net-(D1-Pad1)*
X94137500Y-93462500D03*
G04 #@! TO.P,R1,2*
G04 #@! TO.N,GNDD*
X94137500Y-95287500D03*
G04 #@! TD*
D18*
G04 #@! TO.P,C14,1*
G04 #@! TO.N,Net-(C14-Pad1)*
X96000000Y-88375000D03*
G04 #@! TO.P,C14,2*
G04 #@! TO.N,GNDD*
X94275000Y-88375000D03*
G04 #@! TD*
G04 #@! TO.P,C13,1*
G04 #@! TO.N,GNDA*
X116362500Y-103500000D03*
G04 #@! TO.P,C13,2*
G04 #@! TO.N,Net-(C13-Pad2)*
X114637500Y-103500000D03*
G04 #@! TD*
G04 #@! TO.P,C5,1*
G04 #@! TO.N,GNDA*
X108362500Y-101500000D03*
G04 #@! TO.P,C5,2*
G04 #@! TO.N,+3.3VA*
X106637500Y-101500000D03*
G04 #@! TD*
D15*
G04 #@! TO.P,C11,1*
G04 #@! TO.N,GNDA*
X118500000Y-97637500D03*
G04 #@! TO.P,C11,2*
G04 #@! TO.N,/VREF*
X118500000Y-99362500D03*
G04 #@! TD*
D18*
G04 #@! TO.P,C24,1*
G04 #@! TO.N,VCC*
X136149511Y-95950000D03*
G04 #@! TO.P,C24,2*
G04 #@! TO.N,GNDA*
X134424511Y-95950000D03*
G04 #@! TD*
D20*
G04 #@! TO.P,H2,1,1*
G04 #@! TO.N,GNDA*
X135500000Y-39500000D03*
G04 #@! TD*
D23*
G04 #@! TO.P,IC4,1,VCCA*
G04 #@! TO.N,+1V8*
X116612500Y-79887500D03*
G04 #@! TO.P,IC4,2,GND*
G04 #@! TO.N,GNDD*
X117562500Y-79887500D03*
G04 #@! TO.P,IC4,3,A*
G04 #@! TO.N,/XO*
X118512500Y-79887500D03*
G04 #@! TO.P,IC4,4,B*
G04 #@! TO.N,/XO_BUFF*
X118512500Y-77387500D03*
G04 #@! TO.P,IC4,5,OE*
G04 #@! TO.N,Net-(IC4-Pad5)*
X117562500Y-77387500D03*
G04 #@! TO.P,IC4,6,VCCB*
G04 #@! TO.N,+3V3*
X116612500Y-77387500D03*
G04 #@! TD*
D10*
G04 #@! TO.P,C20,1*
G04 #@! TO.N,GNDA*
X119500000Y-126362500D03*
G04 #@! TO.P,C20,2*
G04 #@! TO.N,/VIN4P*
X119500000Y-124637500D03*
G04 #@! TD*
D11*
G04 #@! TO.P,J8,1,Pin_1*
G04 #@! TO.N,GNDA*
X122000000Y-168000000D03*
D12*
G04 #@! TO.P,J8,2,Pin_2*
X119460000Y-168000000D03*
G04 #@! TO.P,J8,3,Pin_3*
G04 #@! TO.N,/MD4{slash}MISO{slash}GPIO0*
X116920000Y-168000000D03*
G04 #@! TO.P,J8,4,Pin_4*
G04 #@! TO.N,/MD5{slash}GPIO1{slash}INTA{slash}DMIN*
X114380000Y-168000000D03*
G04 #@! TO.P,J8,5,Pin_5*
G04 #@! TO.N,/MD6{slash}GPIO2{slash}INTB{slash}DMCLK*
X111840000Y-168000000D03*
G04 #@! TO.P,J8,6,Pin_6*
G04 #@! TO.N,/INT{slash}GPIO3{slash}INTC*
X109300000Y-168000000D03*
G04 #@! TO.P,J8,7,Pin_7*
G04 #@! TO.N,/DOUT*
X106760000Y-168000000D03*
G04 #@! TO.P,J8,8,Pin_8*
G04 #@! TO.N,/BCK*
X104220000Y-168000000D03*
G04 #@! TO.P,J8,9,Pin_9*
G04 #@! TO.N,/LRCK*
X101680000Y-168000000D03*
G04 #@! TO.P,J8,10,Pin_10*
G04 #@! TO.N,/SCKI(3.3V)*
X99140000Y-168000000D03*
G04 #@! TD*
D10*
G04 #@! TO.P,C28,1*
G04 #@! TO.N,+3V3*
X113562500Y-77500000D03*
G04 #@! TO.P,C28,2*
G04 #@! TO.N,GNDD*
X113562500Y-75775000D03*
G04 #@! TD*
D22*
G04 #@! TO.P,C1,1*
G04 #@! TO.N,+3V3*
X96637500Y-108500000D03*
G04 #@! TO.P,C1,2*
G04 #@! TO.N,GNDD*
X98362500Y-108500000D03*
G04 #@! TD*
D15*
G04 #@! TO.P,C2,1*
G04 #@! TO.N,/XO*
X121500000Y-87637500D03*
G04 #@! TO.P,C2,2*
G04 #@! TO.N,GNDD*
X121500000Y-89362500D03*
G04 #@! TD*
D10*
G04 #@! TO.P,C30,1*
G04 #@! TO.N,GNDA*
X114500000Y-127500000D03*
G04 #@! TO.P,C30,2*
G04 #@! TO.N,Net-(U1-Pad27)*
X114500000Y-125775000D03*
G04 #@! TD*
D22*
G04 #@! TO.P,C15,1*
G04 #@! TO.N,+3V3*
X99637500Y-104500000D03*
G04 #@! TO.P,C15,2*
G04 #@! TO.N,GNDD*
X101362500Y-104500000D03*
G04 #@! TD*
D24*
G04 #@! TO.P,D1,1,K*
G04 #@! TO.N,Net-(D1-Pad1)*
X94262500Y-91375000D03*
G04 #@! TO.P,D1,2,A*
G04 #@! TO.N,Net-(C14-Pad1)*
X96012500Y-91375000D03*
G04 #@! TD*
D11*
G04 #@! TO.P,J10,1,Pin_1*
G04 #@! TO.N,/OSC*
X134000000Y-62075000D03*
D12*
G04 #@! TO.P,J10,2,Pin_2*
G04 #@! TO.N,GNDA*
X134000000Y-64615000D03*
G04 #@! TO.P,J10,3,Pin_3*
G04 #@! TO.N,+3V3*
X134000000Y-67155000D03*
G04 #@! TO.P,J10,4,Pin_4*
G04 #@! TO.N,VCC*
X134000000Y-69695000D03*
G04 #@! TO.P,J10,5,Pin_5*
G04 #@! TO.N,+3.3VA*
X134000000Y-72235000D03*
G04 #@! TO.P,J10,6,Pin_6*
G04 #@! TO.N,/XO_BUFF*
X134000000Y-74775000D03*
G04 #@! TO.P,J10,7,Pin_7*
G04 #@! TO.N,+1V8*
X134000000Y-77315000D03*
G04 #@! TO.P,J10,8,Pin_8*
G04 #@! TO.N,GNDA*
X134000000Y-79855000D03*
G04 #@! TO.P,J10,9,Pin_9*
G04 #@! TO.N,/XI*
X134000000Y-82395000D03*
G04 #@! TO.P,J10,10,Pin_10*
G04 #@! TO.N,/XO*
X134000000Y-84935000D03*
G04 #@! TD*
D17*
G04 #@! TO.P,IC3,1,IN*
G04 #@! TO.N,VCC*
X136537011Y-100900000D03*
G04 #@! TO.P,IC3,2,GND*
G04 #@! TO.N,GNDA*
X136537011Y-99950000D03*
G04 #@! TO.P,IC3,3,EN*
G04 #@! TO.N,VCC*
X136537011Y-99000000D03*
G04 #@! TO.P,IC3,4,NC*
G04 #@! TO.N,unconnected-(IC3-Pad4)*
X134037011Y-99000000D03*
G04 #@! TO.P,IC3,5,OUT*
G04 #@! TO.N,+3.3VA*
X134037011Y-100900000D03*
G04 #@! TD*
D11*
G04 #@! TO.P,J3,1,Pin_1*
G04 #@! TO.N,Net-(U1-Pad9)*
X115960000Y-88500000D03*
D12*
G04 #@! TO.P,J3,2,Pin_2*
G04 #@! TO.N,/XO*
X118500000Y-88500000D03*
G04 #@! TD*
D18*
G04 #@! TO.P,C6,1*
G04 #@! TO.N,GNDD*
X101362500Y-101500000D03*
G04 #@! TO.P,C6,2*
G04 #@! TO.N,+3V3*
X99637500Y-101500000D03*
G04 #@! TD*
D20*
G04 #@! TO.P,H3,1,1*
G04 #@! TO.N,GNDA*
X135500000Y-168000000D03*
G04 #@! TD*
D19*
G04 #@! TO.P,R3,1*
G04 #@! TO.N,Net-(D3-Pad1)*
X135287011Y-107037500D03*
G04 #@! TO.P,R3,2*
G04 #@! TO.N,GNDA*
X135287011Y-108862500D03*
G04 #@! TD*
D25*
G04 #@! TO.P,Y1,1,_TRI-STATE_(STBY)*
G04 #@! TO.N,+3V3*
X97675000Y-112450000D03*
G04 #@! TO.P,Y1,2,GND/CASE*
G04 #@! TO.N,GNDD*
X97675000Y-114550000D03*
G04 #@! TO.P,Y1,3,OUTPUT*
G04 #@! TO.N,/SCKI(3.3V)*
X99325000Y-114550000D03*
G04 #@! TO.P,Y1,4,VDD*
G04 #@! TO.N,+3V3*
X99325000Y-112450000D03*
G04 #@! TD*
D14*
G04 #@! TO.P,D2,1,K*
G04 #@! TO.N,Net-(D2-Pad1)*
X95875000Y-152000000D03*
G04 #@! TO.P,D2,2,A*
G04 #@! TO.N,+3V3*
X94125000Y-152000000D03*
G04 #@! TD*
D18*
G04 #@! TO.P,C8,1*
G04 #@! TO.N,GNDA*
X108362500Y-98500000D03*
G04 #@! TO.P,C8,2*
G04 #@! TO.N,+3.3VA*
X106637500Y-98500000D03*
G04 #@! TD*
D15*
G04 #@! TO.P,C9,1*
G04 #@! TO.N,VCC*
X84500000Y-157363478D03*
G04 #@! TO.P,C9,2*
G04 #@! TO.N,GNDD*
X84500000Y-159088478D03*
G04 #@! TD*
D20*
G04 #@! TO.P,H1,1,1*
G04 #@! TO.N,GNDD*
X84700000Y-39500000D03*
G04 #@! TD*
D16*
G04 #@! TO.P,R5,1*
G04 #@! TO.N,Net-(C21-Pad1)*
X121500000Y-122500000D03*
G04 #@! TO.P,R5,2*
G04 #@! TO.N,/VIN4P*
X119675000Y-122500000D03*
G04 #@! TD*
D18*
G04 #@! TO.P,C18,1*
G04 #@! TO.N,GNDA*
X117500000Y-106500000D03*
G04 #@! TO.P,C18,2*
G04 #@! TO.N,Net-(U1-Pad2)*
X115775000Y-106500000D03*
G04 #@! TD*
D24*
G04 #@! TO.P,FB1,1*
G04 #@! TO.N,GNDD*
X125125000Y-70000000D03*
G04 #@! TO.P,FB1,2*
G04 #@! TO.N,GNDA*
X126875000Y-70000000D03*
G04 #@! TD*
D10*
G04 #@! TO.P,C3,1*
G04 #@! TO.N,GNDD*
X102500000Y-77362500D03*
G04 #@! TO.P,C3,2*
G04 #@! TO.N,/XI*
X102500000Y-75637500D03*
G04 #@! TD*
D26*
G04 #@! TO.P,J4,1,VBUS*
G04 #@! TO.N,VCC*
X100300000Y-40155000D03*
G04 #@! TO.P,J4,2,D-*
G04 #@! TO.N,unconnected-(J4-Pad2)*
X99650000Y-40155000D03*
G04 #@! TO.P,J4,3,D+*
G04 #@! TO.N,unconnected-(J4-Pad3)*
X99000000Y-40155000D03*
G04 #@! TO.P,J4,4,ID*
G04 #@! TO.N,unconnected-(J4-Pad4)*
X98350000Y-40155000D03*
G04 #@! TO.P,J4,5,GND*
G04 #@! TO.N,GNDD*
X97700000Y-40155000D03*
D27*
G04 #@! TO.P,J4,6,Shield*
X102725000Y-40105000D03*
X95275000Y-40105000D03*
D28*
X102875000Y-36305000D03*
X95125000Y-36305000D03*
G04 #@! TD*
D16*
G04 #@! TO.P,R2,1*
G04 #@! TO.N,Net-(D2-Pad1)*
X95912500Y-150000000D03*
G04 #@! TO.P,R2,2*
G04 #@! TO.N,GNDD*
X94087500Y-150000000D03*
G04 #@! TD*
D29*
G04 #@! TO.P,D4,1,K*
G04 #@! TO.N,Net-(D4-Pad1)*
X106037500Y-39125000D03*
G04 #@! TO.P,D4,2,A*
G04 #@! TO.N,VCC*
X106037500Y-40875000D03*
G04 #@! TD*
D25*
G04 #@! TO.P,Y2,1,_TRI-STATE_(STBY)*
G04 #@! TO.N,+3V3*
X98675000Y-57450000D03*
G04 #@! TO.P,Y2,2,GND/CASE*
G04 #@! TO.N,GNDD*
X98675000Y-59550000D03*
G04 #@! TO.P,Y2,3,OUTPUT*
G04 #@! TO.N,/OSC*
X100325000Y-59550000D03*
G04 #@! TO.P,Y2,4,VDD*
G04 #@! TO.N,+3V3*
X100325000Y-57450000D03*
G04 #@! TD*
D15*
G04 #@! TO.P,C4,1*
G04 #@! TO.N,VCC*
X87500000Y-157363478D03*
G04 #@! TO.P,C4,2*
G04 #@! TO.N,GNDD*
X87500000Y-159088478D03*
G04 #@! TD*
D11*
G04 #@! TO.P,J2,1,Pin_1*
G04 #@! TO.N,/XI*
X101500000Y-71500000D03*
D12*
G04 #@! TO.P,J2,2,Pin_2*
G04 #@! TO.N,Net-(U1-Pad10)*
X98960000Y-71500000D03*
G04 #@! TD*
D10*
G04 #@! TO.P,C33,1*
G04 #@! TO.N,Net-(C33-Pad1)*
X122500000Y-111362500D03*
G04 #@! TO.P,C33,2*
G04 #@! TO.N,/IN1*
X122500000Y-109637500D03*
G04 #@! TD*
D16*
G04 #@! TO.P,R4,1*
G04 #@! TO.N,GNDD*
X110950000Y-38875000D03*
G04 #@! TO.P,R4,2*
G04 #@! TO.N,Net-(D4-Pad1)*
X109125000Y-38875000D03*
G04 #@! TD*
D11*
G04 #@! TO.P,J1,1,Pin_1*
G04 #@! TO.N,GNDD*
X120102500Y-69637500D03*
D12*
G04 #@! TO.P,J1,2,Pin_2*
G04 #@! TO.N,Net-(IC4-Pad5)*
X117562500Y-69637500D03*
G04 #@! TD*
D18*
G04 #@! TO.P,C7,1*
G04 #@! TO.N,Net-(C14-Pad1)*
X96000000Y-85375000D03*
G04 #@! TO.P,C7,2*
G04 #@! TO.N,GNDD*
X94275000Y-85375000D03*
G04 #@! TD*
D30*
G04 #@! TO.N,GNDA*
X125500000Y-109000000D03*
X120000000Y-118000000D03*
X119500000Y-37000000D03*
X120500000Y-102000000D03*
X127000000Y-38500000D03*
X137000000Y-109000000D03*
X118000000Y-128000000D03*
X131500000Y-44500000D03*
X123000000Y-121000000D03*
X137500000Y-50000000D03*
X121000000Y-98000000D03*
X120000000Y-105000000D03*
X129500000Y-70500000D03*
X123500000Y-105000000D03*
X139000000Y-101000000D03*
X131000000Y-113000000D03*
X129000000Y-117500000D03*
X123000000Y-124500000D03*
X133000000Y-93000000D03*
X131000000Y-120000000D03*
X119000000Y-111000000D03*
X110000000Y-100000000D03*
X128500000Y-121500000D03*
X133000000Y-96000000D03*
X118000000Y-126000000D03*
X128000000Y-110500000D03*
G04 #@! TO.N,GNDD*
X101000000Y-97000000D03*
X100000000Y-109000000D03*
X104000000Y-78500000D03*
X102675480Y-103000000D03*
X108000000Y-84000000D03*
X102675480Y-100000000D03*
X124000000Y-88000000D03*
X116000000Y-75000000D03*
X97000000Y-64000000D03*
X86000000Y-162000000D03*
X123000000Y-70500000D03*
X103000000Y-105000000D03*
X97000000Y-125500000D03*
X102000000Y-87000000D03*
X96500000Y-95000000D03*
X90500000Y-163500000D03*
X101000000Y-64000000D03*
X92000000Y-168000000D03*
X108000000Y-89000000D03*
X111000000Y-80000000D03*
X92500000Y-88000000D03*
X94087500Y-147500000D03*
X97000000Y-62000000D03*
X110000000Y-41000000D03*
X101000000Y-81000000D03*
X104000000Y-84000000D03*
X97500000Y-118500000D03*
X92500000Y-84500000D03*
X93000000Y-81500000D03*
X95000000Y-55000000D03*
X123000000Y-79000000D03*
G04 #@! TO.N,/XO*
X120500000Y-77500000D03*
G04 #@! TO.N,/OSC*
X106500000Y-56500000D03*
X110500000Y-52500000D03*
G04 #@! TD*
D31*
G04 #@! TO.N,+3V3*
X95500000Y-59362500D02*
X96263478Y-59362500D01*
D32*
X102500000Y-106500000D02*
X103500000Y-106500000D01*
D31*
X113424854Y-77500000D02*
X110918750Y-74993896D01*
X98675000Y-57450000D02*
X100325000Y-57450000D01*
X98175978Y-57450000D02*
X98675000Y-57450000D01*
D33*
X100500000Y-106500000D02*
X101500000Y-106500000D01*
D31*
X116562989Y-77437011D02*
X116562989Y-77387500D01*
D32*
X104140000Y-108637500D02*
X104640000Y-108637500D01*
X103500000Y-106500000D02*
X104640000Y-107640000D01*
D31*
X99637500Y-105637500D02*
X100500000Y-106500000D01*
X103275000Y-54500000D02*
X100325000Y-57450000D01*
X117562500Y-63725000D02*
X119725000Y-63725000D01*
X110918750Y-57081250D02*
X117562500Y-63725000D01*
X96263478Y-59362500D02*
X98175978Y-57450000D01*
X110918750Y-57081250D02*
X110918750Y-56918750D01*
D32*
X104640000Y-107640000D02*
X104640000Y-108637500D01*
D31*
X119725000Y-63725000D02*
X123155000Y-67155000D01*
X99637500Y-104500000D02*
X99637500Y-105637500D01*
D34*
X101500000Y-106500000D02*
X102500000Y-106500000D01*
D31*
X113562500Y-77500000D02*
X116500000Y-77500000D01*
X116500000Y-77500000D02*
X116562989Y-77437011D01*
X123155000Y-67155000D02*
X134000000Y-67155000D01*
X110918750Y-56918750D02*
X108500000Y-54500000D01*
X113562500Y-77500000D02*
X113424854Y-77500000D01*
X108500000Y-54500000D02*
X103275000Y-54500000D01*
X99637500Y-104500000D02*
X99637500Y-104711522D01*
X110918750Y-74993896D02*
X110918750Y-57081250D01*
D33*
G04 #@! TO.N,Net-(IC4-Pad5)*
X117500000Y-75500000D02*
X117562500Y-75437500D01*
D34*
X117562500Y-77387500D02*
X117562500Y-75562500D01*
D31*
X117562500Y-65550000D02*
X117562500Y-69637500D01*
D33*
X117562500Y-75437500D02*
X117562500Y-69637500D01*
D34*
X117562500Y-75562500D02*
X117500000Y-75500000D01*
D32*
G04 #@! TO.N,/MDO*
X108640000Y-117640000D02*
X109500000Y-118500000D01*
X112500000Y-121500000D02*
X112500000Y-124500000D01*
X108640000Y-114362500D02*
X108640000Y-117640000D01*
X109500000Y-118500000D02*
X112500000Y-121500000D01*
D33*
X134315000Y-128500000D02*
X135500000Y-127315000D01*
D34*
X113500000Y-129500000D02*
X120500000Y-129500000D01*
D33*
X124500000Y-128500000D02*
X134315000Y-128500000D01*
D32*
X112500000Y-124500000D02*
X112500000Y-128500000D01*
D33*
X120500000Y-129500000D02*
X123500000Y-129500000D01*
X123500000Y-129500000D02*
X124500000Y-128500000D01*
D32*
X112500000Y-128500000D02*
X113500000Y-129500000D01*
D33*
G04 #@! TO.N,/MD1{slash}MS{slash}AD*
X124500000Y-131500000D02*
X126145000Y-129855000D01*
D34*
X114500000Y-131500000D02*
X119500000Y-131500000D01*
D32*
X111500000Y-129500000D02*
X112500000Y-130500000D01*
X108140000Y-114362500D02*
X108140000Y-118140000D01*
X113500000Y-131500000D02*
X114500000Y-131500000D01*
D33*
X126145000Y-129855000D02*
X135500000Y-129855000D01*
D32*
X112500000Y-130500000D02*
X113500000Y-131500000D01*
X111500000Y-121500000D02*
X111500000Y-123500000D01*
X109500000Y-119500000D02*
X111500000Y-121500000D01*
D33*
X119500000Y-131500000D02*
X124500000Y-131500000D01*
D32*
X111500000Y-123500000D02*
X111500000Y-129500000D01*
X108140000Y-118140000D02*
X109500000Y-119500000D01*
G04 #@! TO.N,/MD3{slash}MC{slash}SCL*
X107640000Y-114362500D02*
X107640000Y-118640000D01*
X110500000Y-121500000D02*
X110500000Y-123500000D01*
X111500000Y-131500000D02*
X113500000Y-133500000D01*
X108500000Y-119500000D02*
X110500000Y-121500000D01*
D34*
X114500000Y-133500000D02*
X120500000Y-133500000D01*
D32*
X110500000Y-130500000D02*
X111500000Y-131500000D01*
D33*
X120500000Y-133500000D02*
X125500000Y-133500000D01*
D32*
X113500000Y-133500000D02*
X114500000Y-133500000D01*
X110500000Y-123500000D02*
X110500000Y-130500000D01*
D33*
X125500000Y-133500000D02*
X126605000Y-132395000D01*
X126605000Y-132395000D02*
X135500000Y-132395000D01*
D32*
X107640000Y-118640000D02*
X108500000Y-119500000D01*
G04 #@! TO.N,/DOUT2{slash}MD2{slash}MOSI{slash}SDA*
X109500000Y-121500000D02*
X109500000Y-123500000D01*
D33*
X134935000Y-135500000D02*
X135500000Y-134935000D01*
D32*
X109500000Y-132500000D02*
X112500000Y-135500000D01*
X109500000Y-123500000D02*
X109500000Y-132500000D01*
X107140000Y-114362500D02*
X107140000Y-119140000D01*
D34*
X112500000Y-135500000D02*
X118500000Y-135500000D01*
D32*
X107140000Y-119140000D02*
X107500000Y-119500000D01*
X107500000Y-119500000D02*
X109500000Y-121500000D01*
D33*
X118500000Y-135500000D02*
X134935000Y-135500000D01*
D34*
G04 #@! TO.N,/MD4{slash}MISO{slash}GPIO0*
X116845000Y-166500000D02*
X108500000Y-158155000D01*
D31*
X116920000Y-166575000D02*
X116920000Y-168000000D01*
D34*
X108500000Y-122285480D02*
X106714520Y-120500000D01*
D32*
X106640000Y-114362500D02*
X106640000Y-120640000D01*
D31*
X116845000Y-166500000D02*
X116920000Y-166575000D01*
D34*
X106714520Y-120500000D02*
X106714520Y-120640000D01*
X108500000Y-158155000D02*
X108500000Y-122285480D01*
D31*
G04 #@! TO.N,/MD5{slash}GPIO1{slash}INTA{slash}DMIN*
X114380000Y-166575000D02*
X114380000Y-168000000D01*
D32*
X106140000Y-114362500D02*
X106140000Y-123140000D01*
D34*
X107500000Y-124500000D02*
X107500000Y-159695000D01*
D32*
X106140000Y-123140000D02*
X107500000Y-124500000D01*
D34*
X107500000Y-159695000D02*
X114305000Y-166500000D01*
D31*
X114305000Y-166500000D02*
X114380000Y-166575000D01*
G04 #@! TO.N,Net-(D1-Pad1)*
X94262500Y-91375000D02*
X94262500Y-93337500D01*
G04 #@! TO.N,Net-(D2-Pad1)*
X95875000Y-152000000D02*
X95875000Y-150037500D01*
X95875000Y-150037500D02*
X95912500Y-150000000D01*
G04 #@! TO.N,Net-(D3-Pad1)*
X135162011Y-106912500D02*
X135287011Y-107037500D01*
X135162011Y-103950000D02*
X135162011Y-106912500D01*
G04 #@! TO.N,VCC*
X136487500Y-98950489D02*
X136537011Y-98950489D01*
X136149511Y-92950000D02*
X136149511Y-95950000D01*
X139000000Y-64000000D02*
X139000000Y-64695000D01*
D33*
X135287011Y-99175978D02*
X135287011Y-100724022D01*
X91500000Y-157451956D02*
X91500000Y-159000000D01*
D32*
X100300000Y-42300000D02*
X100300000Y-40155000D01*
D31*
X135000000Y-56000000D02*
X139000000Y-60000000D01*
X136149511Y-95950000D02*
X136149511Y-98612500D01*
D33*
X135287011Y-100724022D02*
X135462989Y-100900000D01*
X135462989Y-99000000D02*
X135287011Y-99175978D01*
D31*
X136149511Y-98612500D02*
X136487500Y-98950489D01*
D33*
X90250000Y-157275978D02*
X91324022Y-157275978D01*
D31*
X139000000Y-60000000D02*
X139000000Y-64000000D01*
D33*
X135462989Y-100900000D02*
X136537011Y-100900000D01*
D31*
X136149511Y-92950000D02*
X139000000Y-90099511D01*
X139000000Y-90099511D02*
X139000000Y-66695000D01*
D33*
X136537011Y-99000000D02*
X135462989Y-99000000D01*
D31*
X139000000Y-64000000D02*
X139000000Y-66695000D01*
X139000000Y-64695000D02*
X134000000Y-69695000D01*
D33*
X91324022Y-157275978D02*
X91500000Y-157451956D01*
X87587500Y-157275978D02*
X87500000Y-157363478D01*
X91324022Y-159175978D02*
X90250000Y-159175978D01*
X91500000Y-159000000D02*
X91324022Y-159175978D01*
D31*
G04 #@! TO.N,Net-(D4-Pad1)*
X108875000Y-39125000D02*
X109125000Y-38875000D01*
X106037500Y-39125000D02*
X108875000Y-39125000D01*
D34*
G04 #@! TO.N,/MD6{slash}GPIO2{slash}INTB{slash}DMCLK*
X105500000Y-125500000D02*
X105500000Y-160235000D01*
D32*
X105589520Y-115500000D02*
X105589520Y-125410480D01*
X105640000Y-114362500D02*
X105640000Y-115449520D01*
D31*
X111840000Y-166575000D02*
X111840000Y-168000000D01*
X111765000Y-166500000D02*
X111840000Y-166575000D01*
D34*
X105589520Y-125410480D02*
X105500000Y-125500000D01*
X105500000Y-160235000D02*
X111765000Y-166500000D01*
D32*
X105640000Y-115449520D02*
X105589520Y-115500000D01*
G04 #@! TO.N,/INT{slash}GPIO3{slash}INTC*
X105140000Y-119860000D02*
X104500000Y-120500000D01*
D31*
X109300000Y-166575000D02*
X109300000Y-168000000D01*
X109225000Y-166500000D02*
X109300000Y-166575000D01*
D34*
X103500000Y-160775000D02*
X109225000Y-166500000D01*
X104500000Y-124500000D02*
X103500000Y-125500000D01*
D32*
X104500000Y-120500000D02*
X104500000Y-124500000D01*
D34*
X103500000Y-125500000D02*
X103500000Y-160775000D01*
D32*
X105140000Y-114362500D02*
X105140000Y-119860000D01*
D31*
G04 #@! TO.N,GNDA*
X127000000Y-70000000D02*
X127500000Y-70500000D01*
X108500000Y-101500000D02*
X110000000Y-100000000D01*
X108500000Y-101637500D02*
X108362500Y-101500000D01*
X120637500Y-97637500D02*
X121000000Y-98000000D01*
X135287011Y-108862500D02*
X136862500Y-108862500D01*
X116362500Y-127500000D02*
X116500000Y-127362500D01*
X134424511Y-92950000D02*
X133050000Y-92950000D01*
D34*
X108500000Y-103500000D02*
X107640000Y-104360000D01*
D32*
X107640000Y-108637500D02*
X107640000Y-107120000D01*
D34*
X107640000Y-104360000D02*
X107640000Y-107120000D01*
D31*
X136862500Y-108862500D02*
X137000000Y-109000000D01*
D34*
X136537011Y-99950000D02*
X137950000Y-99950000D01*
D31*
X108362500Y-98500000D02*
X108362500Y-101500000D01*
X108362500Y-101500000D02*
X108500000Y-101500000D01*
X108500000Y-103500000D02*
X108500000Y-101637500D01*
X114500000Y-127500000D02*
X116362500Y-127500000D01*
X133050000Y-95950000D02*
X133000000Y-96000000D01*
X118500000Y-97637500D02*
X120637500Y-97637500D01*
X118000000Y-126000000D02*
X119137500Y-126000000D01*
D34*
X137950000Y-99950000D02*
X139000000Y-101000000D01*
D31*
X117362500Y-127362500D02*
X118000000Y-128000000D01*
X133050000Y-92950000D02*
X133000000Y-93000000D01*
X127500000Y-70500000D02*
X129500000Y-70500000D01*
X134424511Y-95950000D02*
X133050000Y-95950000D01*
X119137500Y-126000000D02*
X119500000Y-126362500D01*
X116500000Y-127362500D02*
X117362500Y-127362500D01*
D33*
G04 #@! TO.N,GNDD*
X97500479Y-40354521D02*
X97550489Y-40304511D01*
D31*
X110950000Y-40050000D02*
X110000000Y-41000000D01*
D34*
X118342824Y-82000000D02*
X120000000Y-82000000D01*
D31*
X112637500Y-81637500D02*
X111000000Y-80000000D01*
D33*
X95275000Y-36455000D02*
X95125000Y-36305000D01*
D32*
X100700000Y-64000000D02*
X101000000Y-64000000D01*
X99150000Y-65550000D02*
X100700000Y-64000000D01*
X105114520Y-107114520D02*
X103000000Y-105000000D01*
D31*
X123500000Y-70000000D02*
X125250000Y-70000000D01*
X121500000Y-89362500D02*
X122637500Y-89362500D01*
X98675000Y-59550000D02*
X98675000Y-60325000D01*
X98675000Y-60325000D02*
X97000000Y-62000000D01*
X101500000Y-101500000D02*
X102675480Y-100324520D01*
D32*
X97850000Y-64850000D02*
X97000000Y-64000000D01*
D33*
X102875000Y-39955000D02*
X102725000Y-40105000D01*
D31*
X101362500Y-104500000D02*
X101500000Y-104500000D01*
X110950000Y-38875000D02*
X110950000Y-40050000D01*
X101362500Y-97362500D02*
X101000000Y-97000000D01*
D34*
X117562500Y-79887500D02*
X117562500Y-81219676D01*
D32*
X97850000Y-65550000D02*
X97850000Y-64850000D01*
D31*
X95500000Y-55500000D02*
X95000000Y-55000000D01*
X122637500Y-89362500D02*
X124000000Y-88000000D01*
D34*
X90250000Y-158225978D02*
X88362500Y-158225978D01*
D31*
X94137500Y-95287500D02*
X96212500Y-95287500D01*
D34*
X88362500Y-158225978D02*
X87500000Y-159088478D01*
D31*
X113562500Y-75775000D02*
X115225000Y-75775000D01*
X123000000Y-70500000D02*
X123500000Y-70000000D01*
D33*
X97550489Y-40304511D02*
X97550489Y-40155000D01*
D34*
X117562500Y-81219676D02*
X118342824Y-82000000D01*
D31*
X99500000Y-108500000D02*
X100000000Y-109000000D01*
X101500000Y-104500000D02*
X102675480Y-103324520D01*
X95500000Y-57637500D02*
X95500000Y-55500000D01*
D33*
X95275000Y-40105000D02*
X95524521Y-40354521D01*
D31*
X101362500Y-98500000D02*
X101362500Y-97362500D01*
X113562500Y-81637500D02*
X112637500Y-81637500D01*
X101362500Y-101500000D02*
X101500000Y-101500000D01*
D32*
X105114520Y-108612020D02*
X105114520Y-107114520D01*
D31*
X98362500Y-108500000D02*
X99500000Y-108500000D01*
D33*
X95524521Y-40354521D02*
X97500479Y-40354521D01*
D32*
X105140000Y-108637500D02*
X105114520Y-108612020D01*
D34*
X120000000Y-82000000D02*
X123000000Y-79000000D01*
D31*
X102675480Y-103324520D02*
X102675480Y-103000000D01*
X102675480Y-100324520D02*
X102675480Y-100000000D01*
X115225000Y-75775000D02*
X116000000Y-75000000D01*
G04 #@! TO.N,/XO*
X120000000Y-88500000D02*
X118500000Y-88500000D01*
X121500000Y-87500000D02*
X124065000Y-84935000D01*
X120862500Y-87637500D02*
X120000000Y-88500000D01*
X124065000Y-84935000D02*
X134000000Y-84935000D01*
D33*
X118512500Y-79887500D02*
X118512500Y-79487500D01*
D31*
X121500000Y-87637500D02*
X121500000Y-87500000D01*
X121362500Y-87637500D02*
X120862500Y-87637500D01*
D33*
X118512500Y-79487500D02*
X120500000Y-77500000D01*
D31*
G04 #@! TO.N,/XI*
X97850000Y-67450000D02*
X97850000Y-69050000D01*
X122303622Y-85000000D02*
X124908622Y-82395000D01*
X99500000Y-69500000D02*
X101500000Y-71500000D01*
X98300000Y-69500000D02*
X99500000Y-69500000D01*
X124908622Y-82395000D02*
X134000000Y-82395000D01*
X106500000Y-78500000D02*
X113000000Y-85000000D01*
X101500000Y-74637500D02*
X102500000Y-75637500D01*
X113000000Y-85000000D02*
X122303622Y-85000000D01*
X97850000Y-69050000D02*
X98300000Y-69500000D01*
X106500000Y-71500000D02*
X101500000Y-71500000D01*
X106500000Y-71500000D02*
X106500000Y-78500000D01*
X101500000Y-71500000D02*
X101500000Y-74637500D01*
G04 #@! TO.N,+3.3VA*
X106637500Y-98362354D02*
X106637500Y-98500000D01*
X106637500Y-101500000D02*
X106637500Y-98500000D01*
X106775000Y-103500000D02*
X106775000Y-101637500D01*
D34*
X106925480Y-105405480D02*
X106925480Y-103650480D01*
D31*
X132925000Y-90075000D02*
X137000000Y-86000000D01*
D32*
X106925480Y-105405480D02*
X106925480Y-107217973D01*
D31*
X137000000Y-86000000D02*
X137000000Y-75235000D01*
D32*
X106925480Y-107217973D02*
X107140000Y-107432493D01*
X107140000Y-107432493D02*
X107140000Y-108637500D01*
D31*
X106775000Y-101637500D02*
X106637500Y-101500000D01*
D34*
X106925480Y-103650480D02*
X106775000Y-103500000D01*
D31*
X137000000Y-75235000D02*
X134000000Y-72235000D01*
G04 #@! TO.N,Net-(C14-Pad1)*
X94565978Y-80000000D02*
X95000000Y-80000000D01*
D32*
X105576919Y-106328355D02*
X103500000Y-104251436D01*
X103500000Y-99980000D02*
X103500000Y-98500000D01*
D33*
X102500000Y-95500000D02*
X101500000Y-94500000D01*
D31*
X96000000Y-85375000D02*
X96000000Y-88375000D01*
D34*
X102500000Y-97500000D02*
X102500000Y-95500000D01*
D31*
X95000000Y-80000000D02*
X96000000Y-81000000D01*
X93460000Y-78894022D02*
X94565978Y-80000000D01*
X99375000Y-91375000D02*
X96012500Y-91375000D01*
X93460000Y-78335000D02*
X93460000Y-78894022D01*
D32*
X105640000Y-108637500D02*
X105640000Y-107839644D01*
X103500000Y-98500000D02*
X102500000Y-97500000D01*
D31*
X101500000Y-93500000D02*
X99375000Y-91375000D01*
D32*
X103500000Y-104251436D02*
X103500000Y-99980000D01*
X105640000Y-107839644D02*
X105576919Y-107776562D01*
D31*
X96000000Y-88375000D02*
X96000000Y-91362500D01*
X96000000Y-81000000D02*
X96000000Y-82910000D01*
X96000000Y-82910000D02*
X96000000Y-85375000D01*
D32*
X105576919Y-107776562D02*
X105576919Y-106328355D01*
D33*
X101500000Y-94500000D02*
X101500000Y-93500000D01*
D31*
G04 #@! TO.N,/VREF*
X133950489Y-113624511D02*
X134940978Y-114615000D01*
X118500000Y-99362500D02*
X122362500Y-99362500D01*
X134940978Y-114615000D02*
X135500000Y-114615000D01*
X133950489Y-110950489D02*
X133950489Y-113624511D01*
X122362500Y-99362500D02*
X133950489Y-110950489D01*
X118500000Y-99362500D02*
X115177500Y-99362500D01*
X115177500Y-99362500D02*
X115040000Y-99500000D01*
D32*
G04 #@! TO.N,Net-(C13-Pad2)*
X108640000Y-108637500D02*
X108640000Y-107640000D01*
D33*
X111500000Y-104500000D02*
X112500000Y-103500000D01*
D34*
X109500000Y-106666048D02*
X110583024Y-105583024D01*
D33*
X112500000Y-103500000D02*
X113500000Y-103500000D01*
D34*
X110583024Y-105583024D02*
X111500000Y-104666048D01*
D31*
X114637500Y-103500000D02*
X113500000Y-103500000D01*
D34*
X111500000Y-104666048D02*
X111500000Y-104500000D01*
X109500000Y-106780000D02*
X109500000Y-106666048D01*
D32*
X108640000Y-107640000D02*
X109500000Y-106780000D01*
D33*
G04 #@! TO.N,Net-(U1-Pad2)*
X114500000Y-106500000D02*
X113500000Y-106500000D01*
D32*
X110140000Y-107834994D02*
X110140000Y-108637500D01*
X112500000Y-106500000D02*
X111474994Y-106500000D01*
D31*
X115775000Y-106500000D02*
X114500000Y-106500000D01*
D32*
X111474994Y-106500000D02*
X110140000Y-107834994D01*
D34*
X113500000Y-106500000D02*
X112500000Y-106500000D01*
D31*
G04 #@! TO.N,Net-(U1-Pad1)*
X113500000Y-109500000D02*
X115775000Y-109500000D01*
D33*
X112500000Y-109500000D02*
X113500000Y-109500000D01*
D32*
X110640000Y-108637500D02*
X110640000Y-108640000D01*
X110640000Y-108640000D02*
X111500000Y-109500000D01*
D34*
X111500000Y-109500000D02*
X112500000Y-109500000D01*
D31*
G04 #@! TO.N,/VIN4P*
X113500000Y-118500000D02*
X117500000Y-122500000D01*
X119675000Y-124462500D02*
X119500000Y-124637500D01*
D32*
X110140000Y-114362500D02*
X110140000Y-115165006D01*
D31*
X117500000Y-122500000D02*
X119675000Y-122500000D01*
X119675000Y-122500000D02*
X119675000Y-124462500D01*
D33*
X112500000Y-117500000D02*
X113500000Y-118500000D01*
D34*
X111500000Y-116500000D02*
X112500000Y-117500000D01*
D32*
X111474994Y-116500000D02*
X111500000Y-116500000D01*
X110140000Y-115165006D02*
X111474994Y-116500000D01*
D31*
G04 #@! TO.N,Net-(C21-Pad1)*
X121500000Y-122500000D02*
X121500000Y-124637500D01*
G04 #@! TO.N,/IN4*
X135500000Y-124775000D02*
X134225000Y-124775000D01*
X132637500Y-126362500D02*
X121500000Y-126362500D01*
X134225000Y-124775000D02*
X132637500Y-126362500D01*
D32*
G04 #@! TO.N,Net-(U1-Pad28)*
X109640000Y-114362500D02*
X109640000Y-116640000D01*
X109640000Y-116640000D02*
X116500000Y-123500000D01*
X116500000Y-123500000D02*
X116500000Y-125637500D01*
G04 #@! TO.N,/VIN3P*
X110640000Y-114362500D02*
X111362500Y-114362500D01*
D31*
X124675000Y-121462500D02*
X124500000Y-121637500D01*
X113500000Y-115500000D02*
X114587500Y-115500000D01*
X114587500Y-115500000D02*
X118587500Y-119500000D01*
D33*
X112500000Y-115500000D02*
X113500000Y-115500000D01*
D34*
X111500000Y-114500000D02*
X112500000Y-115500000D01*
D32*
X111362500Y-114362500D02*
X111500000Y-114500000D01*
D31*
X124675000Y-119500000D02*
X124675000Y-121462500D01*
X118587500Y-119500000D02*
X124675000Y-119500000D01*
G04 #@! TO.N,Net-(C26-Pad1)*
X126500000Y-119500000D02*
X126500000Y-121637500D01*
G04 #@! TO.N,/IN3*
X132500000Y-123500000D02*
X126637500Y-123500000D01*
X135500000Y-122235000D02*
X133765000Y-122235000D01*
X133765000Y-122235000D02*
X132500000Y-123500000D01*
X126637500Y-123500000D02*
X126500000Y-123362500D01*
D32*
G04 #@! TO.N,/VIN2P*
X109140000Y-111140000D02*
X109500000Y-111500000D01*
X109140000Y-108637500D02*
X109140000Y-111140000D01*
D31*
X124675000Y-116500000D02*
X118500000Y-116500000D01*
X124580000Y-116405000D02*
X124675000Y-116500000D01*
D34*
X109500000Y-111500000D02*
X110500000Y-112500000D01*
D33*
X111500000Y-112500000D02*
X112500000Y-113500000D01*
D31*
X124580000Y-114362500D02*
X124580000Y-116405000D01*
D34*
X110500000Y-112500000D02*
X111500000Y-112500000D01*
D31*
X115500000Y-113500000D02*
X112500000Y-113500000D01*
X118500000Y-116500000D02*
X115500000Y-113500000D01*
D35*
G04 #@! TO.N,+1V8*
X99150000Y-67450000D02*
X98200000Y-66500000D01*
D31*
X94500000Y-69500000D02*
X94500000Y-72500000D01*
X114912500Y-79912500D02*
X116562989Y-79912500D01*
D35*
X98200000Y-66500000D02*
X97500000Y-66500000D01*
D31*
X94500000Y-72500000D02*
X96000000Y-74000000D01*
X116562989Y-79912500D02*
X116562989Y-79887500D01*
X121199520Y-83800480D02*
X127685000Y-77315000D01*
X101500000Y-65500000D02*
X107500000Y-65500000D01*
D35*
X97500000Y-66500000D02*
X96500000Y-67500000D01*
D31*
X109500000Y-75850000D02*
X113562500Y-79912500D01*
X107500000Y-65500000D02*
X109500000Y-67500000D01*
X114912500Y-79912500D02*
X118800480Y-83800480D01*
X113562500Y-79912500D02*
X114912500Y-79912500D01*
X109500000Y-67500000D02*
X109500000Y-75850000D01*
X99150000Y-67450000D02*
X99550000Y-67450000D01*
X118800480Y-83800480D02*
X121199520Y-83800480D01*
D34*
X95500000Y-68500000D02*
X94500000Y-69500000D01*
D31*
X96000000Y-74000000D02*
X96000000Y-78335000D01*
X127685000Y-77315000D02*
X134000000Y-77315000D01*
D32*
X96500000Y-67500000D02*
X95500000Y-68500000D01*
D31*
X99550000Y-67450000D02*
X101500000Y-65500000D01*
D32*
G04 #@! TO.N,Net-(U1-Pad27)*
X109140000Y-117140000D02*
X114500000Y-122500000D01*
X114500000Y-122500000D02*
X114500000Y-125775000D01*
X109140000Y-114362500D02*
X109140000Y-117140000D01*
D31*
G04 #@! TO.N,Net-(C31-Pad1)*
X126500000Y-114362500D02*
X126500000Y-116500000D01*
G04 #@! TO.N,/IN2*
X135500000Y-119695000D02*
X134695000Y-119695000D01*
X127637500Y-112637500D02*
X126500000Y-112637500D01*
X134695000Y-119695000D02*
X127637500Y-112637500D01*
D32*
G04 #@! TO.N,/VIN1P*
X109640000Y-108637500D02*
X109640000Y-109640000D01*
D34*
X110500000Y-110500000D02*
X111500000Y-111500000D01*
D31*
X116587500Y-111500000D02*
X118587500Y-113500000D01*
X120675000Y-111537500D02*
X120500000Y-111362500D01*
X114500000Y-111500000D02*
X116587500Y-111500000D01*
D32*
X109640000Y-109640000D02*
X110500000Y-110500000D01*
D34*
X111500000Y-111500000D02*
X112500000Y-111500000D01*
D33*
X112500000Y-111500000D02*
X114500000Y-111500000D01*
D31*
X120675000Y-113500000D02*
X120675000Y-111537500D01*
X118587500Y-113500000D02*
X120675000Y-113500000D01*
G04 #@! TO.N,Net-(C33-Pad1)*
X122500000Y-111362500D02*
X122500000Y-113500000D01*
G04 #@! TO.N,/IN1*
X124637500Y-107500000D02*
X122500000Y-109637500D01*
X135500000Y-117155000D02*
X132750969Y-114405969D01*
X127922500Y-107500000D02*
X124637500Y-107500000D01*
X132750969Y-114405969D02*
X132750969Y-112328469D01*
X132750969Y-112328469D02*
X127922500Y-107500000D01*
G04 #@! TO.N,/OSC*
X100325000Y-59550000D02*
X100325000Y-61675000D01*
X120500000Y-58500000D02*
X124075000Y-62075000D01*
X111845000Y-52500000D02*
X117845000Y-58500000D01*
D34*
X98500000Y-63500000D02*
X98500000Y-65550000D01*
D31*
X110500000Y-52500000D02*
X111845000Y-52500000D01*
X100325000Y-59550000D02*
X103450000Y-59550000D01*
X100325000Y-61675000D02*
X99500000Y-62500000D01*
D34*
X99500000Y-62500000D02*
X98500000Y-63500000D01*
D31*
X103450000Y-59550000D02*
X106500000Y-56500000D01*
X124075000Y-62075000D02*
X134000000Y-62075000D01*
X117845000Y-58500000D02*
X120500000Y-58500000D01*
D33*
G04 #@! TO.N,/XO_BUFF*
X118512500Y-76412500D02*
X118512500Y-77387500D01*
D31*
X120225000Y-74775000D02*
X134000000Y-74775000D01*
X119500000Y-75500000D02*
X120225000Y-74775000D01*
D33*
X119500000Y-75500000D02*
X119400000Y-75500000D01*
X118500000Y-76400000D02*
X118512500Y-76412500D01*
X119400000Y-75500000D02*
X118500000Y-76400000D01*
D32*
G04 #@! TO.N,Net-(U1-Pad10)*
X103949520Y-101050480D02*
X103949520Y-104065238D01*
D34*
X103500000Y-93500000D02*
X103500000Y-96500000D01*
D32*
X103949520Y-101050480D02*
X103949520Y-96949520D01*
D33*
X103500000Y-93500000D02*
X102500000Y-92500000D01*
D32*
X103949520Y-96949520D02*
X103500000Y-96500000D01*
D31*
X98960000Y-88960000D02*
X98960000Y-71500000D01*
D32*
X106026440Y-106142158D02*
X106026439Y-107590366D01*
D31*
X102500000Y-92500000D02*
X98960000Y-88960000D01*
D32*
X106026439Y-107590366D02*
X106140000Y-107703928D01*
X103949520Y-104065238D02*
X106026440Y-106142158D01*
X106140000Y-107703928D02*
X106140000Y-108637500D01*
G04 #@! TO.N,Net-(U1-Pad9)*
X106640000Y-108637500D02*
X106640000Y-107568211D01*
X106640000Y-107568211D02*
X106475960Y-107404170D01*
X106475960Y-105955960D02*
X104500000Y-103980000D01*
D34*
X104500000Y-96500000D02*
X105500000Y-95500000D01*
D32*
X104500000Y-103980000D02*
X104500000Y-99980000D01*
D31*
X105500000Y-95500000D02*
X112500000Y-88500000D01*
D32*
X104500000Y-99980000D02*
X104500000Y-96500000D01*
D31*
X112500000Y-88500000D02*
X115960000Y-88500000D01*
D32*
X106475960Y-107404170D02*
X106475960Y-105955960D01*
D31*
G04 #@! TO.N,Net-(U1-Pad6)*
X112500000Y-101500000D02*
X112500000Y-99500000D01*
D32*
X108214520Y-107357973D02*
X108214520Y-106785480D01*
D31*
X110500000Y-103500000D02*
X112500000Y-101500000D01*
D33*
X109500000Y-105500000D02*
X110500000Y-104500000D01*
D32*
X108140000Y-108637500D02*
X108140000Y-107432493D01*
D33*
X110500000Y-104500000D02*
X110500000Y-103500000D01*
D34*
X108500000Y-106500000D02*
X109500000Y-105500000D01*
D32*
X108214520Y-106785480D02*
X108500000Y-106500000D01*
X108140000Y-107432493D02*
X108214520Y-107357973D01*
D31*
G04 #@! TO.N,/SCKI(3.3V)*
X99065000Y-166500000D02*
X99140000Y-166575000D01*
D32*
X103640000Y-110360000D02*
X103640000Y-108637500D01*
D31*
X99325000Y-114550000D02*
X99325000Y-166240000D01*
D34*
X101500000Y-112500000D02*
X103500000Y-110500000D01*
D31*
X99325000Y-114550000D02*
X99450000Y-114550000D01*
X99450000Y-114550000D02*
X101500000Y-112500000D01*
D32*
X103500000Y-110500000D02*
X103640000Y-110360000D01*
D31*
X99140000Y-166575000D02*
X99140000Y-168000000D01*
X99325000Y-166240000D02*
X99065000Y-166500000D01*
G04 #@! TO.N,/DOUT*
X106760000Y-166575000D02*
X106760000Y-168000000D01*
D32*
X103500000Y-124500000D02*
X102500000Y-125500000D01*
D34*
X102500000Y-125500000D02*
X102500000Y-162315000D01*
D32*
X103500000Y-119500000D02*
X103500000Y-124500000D01*
D34*
X102500000Y-162315000D02*
X106685000Y-166500000D01*
D32*
X104640000Y-114362500D02*
X104640000Y-118360000D01*
X104640000Y-118360000D02*
X103500000Y-119500000D01*
D31*
X106685000Y-166500000D02*
X106760000Y-166575000D01*
D34*
G04 #@! TO.N,/BCK*
X101500000Y-123500000D02*
X101500000Y-163855000D01*
X101500000Y-163855000D02*
X104145000Y-166500000D01*
D31*
X104220000Y-166575000D02*
X104220000Y-168000000D01*
D32*
X104140000Y-115860000D02*
X102500000Y-117500000D01*
D31*
X104145000Y-166500000D02*
X104220000Y-166575000D01*
D32*
X102500000Y-117500000D02*
X102500000Y-122500000D01*
X102500000Y-122500000D02*
X101500000Y-123500000D01*
X104140000Y-114362500D02*
X104140000Y-115860000D01*
D31*
G04 #@! TO.N,/LRCK*
X101605000Y-166500000D02*
X101680000Y-166575000D01*
D32*
X100500000Y-117502500D02*
X100500000Y-125500000D01*
D34*
X100500000Y-125500000D02*
X100500000Y-165395000D01*
D32*
X103640000Y-114362500D02*
X100500000Y-117502500D01*
D31*
X101680000Y-166575000D02*
X101680000Y-168000000D01*
D34*
X100500000Y-165395000D02*
X101605000Y-166500000D01*
G04 #@! TD*
G04 #@! TA.AperFunction,Conductor*
G04 #@! TO.N,GNDA*
G36*
X127520696Y-108528502D02*
G01*
X127541670Y-108545405D01*
X131705564Y-112709298D01*
X131739590Y-112771610D01*
X131742469Y-112798393D01*
X131742469Y-114344126D01*
X131741732Y-114357733D01*
X131737645Y-114395357D01*
X131738182Y-114401492D01*
X131742019Y-114445357D01*
X131742348Y-114450183D01*
X131742469Y-114452655D01*
X131742469Y-114455738D01*
X131742770Y-114458806D01*
X131746659Y-114498475D01*
X131746781Y-114499788D01*
X131754882Y-114592382D01*
X131756369Y-114597501D01*
X131756889Y-114602802D01*
X131783760Y-114691803D01*
X131784095Y-114692936D01*
X131810060Y-114782305D01*
X131812513Y-114787037D01*
X131814053Y-114792138D01*
X131816947Y-114797581D01*
X131857700Y-114874229D01*
X131858312Y-114875395D01*
X131901077Y-114957895D01*
X131904400Y-114962058D01*
X131906903Y-114966765D01*
X131965722Y-115038884D01*
X131966452Y-115039789D01*
X131972475Y-115047334D01*
X131999339Y-115113052D01*
X132000000Y-115125938D01*
X132000000Y-115195810D01*
X131979998Y-115263931D01*
X131926342Y-115310424D01*
X131856068Y-115320528D01*
X131791488Y-115291034D01*
X131784905Y-115284905D01*
X128000000Y-111500000D01*
X125500000Y-111500000D01*
X125500000Y-111661580D01*
X125479998Y-111729701D01*
X125426342Y-111776194D01*
X125356068Y-111786298D01*
X125293848Y-111757882D01*
X125293617Y-111758175D01*
X125292420Y-111757230D01*
X125291488Y-111756804D01*
X125289276Y-111754747D01*
X125276460Y-111744625D01*
X125140937Y-111661088D01*
X125127759Y-111654944D01*
X124976234Y-111604685D01*
X124962868Y-111601819D01*
X124870230Y-111592328D01*
X124863815Y-111592000D01*
X124852115Y-111592000D01*
X124836876Y-111596475D01*
X124835671Y-111597865D01*
X124834000Y-111605548D01*
X124834000Y-112765500D01*
X124813998Y-112833621D01*
X124760342Y-112880114D01*
X124708000Y-112891500D01*
X124452000Y-112891500D01*
X124383879Y-112871498D01*
X124337386Y-112817842D01*
X124326000Y-112765500D01*
X124326000Y-111610115D01*
X124321525Y-111594876D01*
X124320135Y-111593671D01*
X124312452Y-111592000D01*
X124296234Y-111592000D01*
X124289718Y-111592337D01*
X124195868Y-111602075D01*
X124182472Y-111604968D01*
X124031047Y-111655488D01*
X124017885Y-111661653D01*
X123882508Y-111745426D01*
X123871110Y-111754460D01*
X123758637Y-111867129D01*
X123749623Y-111878543D01*
X123741760Y-111891299D01*
X123688989Y-111938793D01*
X123618917Y-111950217D01*
X123553793Y-111921944D01*
X123514293Y-111862950D01*
X123508500Y-111825184D01*
X123508500Y-111312731D01*
X123507814Y-111305727D01*
X123500601Y-111232172D01*
X123500000Y-111219876D01*
X123500000Y-110115925D01*
X123520002Y-110047804D01*
X123536905Y-110026830D01*
X125018330Y-108545405D01*
X125080642Y-108511379D01*
X125107425Y-108508500D01*
X127452575Y-108508500D01*
X127520696Y-108528502D01*
G37*
G04 #@! TD.AperFunction*
G04 #@! TD*
G04 #@! TA.AperFunction,Conductor*
G04 #@! TO.N,GNDD*
G36*
X94436380Y-34928502D02*
G01*
X94482873Y-34982158D01*
X94492977Y-35052432D01*
X94463483Y-35117012D01*
X94441158Y-35137270D01*
X94419018Y-35152975D01*
X94409984Y-35160772D01*
X94275369Y-35301393D01*
X94267965Y-35310768D01*
X94162380Y-35474292D01*
X94156879Y-35484906D01*
X94084117Y-35665449D01*
X94080725Y-35676898D01*
X94043134Y-35869391D01*
X94042064Y-35878201D01*
X94042000Y-35880828D01*
X94042000Y-36032885D01*
X94046475Y-36048124D01*
X94047865Y-36049329D01*
X94055548Y-36051000D01*
X96189885Y-36051000D01*
X96205124Y-36046525D01*
X96206329Y-36045135D01*
X96208000Y-36037452D01*
X96208000Y-35931363D01*
X96207715Y-35925387D01*
X96193868Y-35780255D01*
X96191609Y-35768520D01*
X96136812Y-35581732D01*
X96132379Y-35570649D01*
X96043249Y-35397594D01*
X96036793Y-35387539D01*
X95916551Y-35234463D01*
X95908316Y-35225816D01*
X95797513Y-35129666D01*
X95759172Y-35069912D01*
X95759222Y-34998915D01*
X95797649Y-34939217D01*
X95862250Y-34909770D01*
X95880093Y-34908500D01*
X102118259Y-34908500D01*
X102186380Y-34928502D01*
X102232873Y-34982158D01*
X102242977Y-35052432D01*
X102213483Y-35117012D01*
X102191158Y-35137270D01*
X102169018Y-35152975D01*
X102159984Y-35160772D01*
X102025369Y-35301393D01*
X102017965Y-35310768D01*
X101912380Y-35474292D01*
X101906879Y-35484906D01*
X101834117Y-35665449D01*
X101830725Y-35676898D01*
X101793134Y-35869391D01*
X101792064Y-35878201D01*
X101792000Y-35880828D01*
X101792000Y-36032885D01*
X101796475Y-36048124D01*
X101797865Y-36049329D01*
X101805548Y-36051000D01*
X103939885Y-36051000D01*
X103955124Y-36046525D01*
X103956329Y-36045135D01*
X103958000Y-36037452D01*
X103958000Y-35931363D01*
X103957715Y-35925387D01*
X103943868Y-35780255D01*
X103941609Y-35768520D01*
X103886812Y-35581732D01*
X103882379Y-35570649D01*
X103793249Y-35397594D01*
X103786793Y-35387539D01*
X103666551Y-35234463D01*
X103658316Y-35225816D01*
X103547513Y-35129666D01*
X103509172Y-35069912D01*
X103509222Y-34998915D01*
X103547649Y-34939217D01*
X103612250Y-34909770D01*
X103630093Y-34908500D01*
X111874000Y-34908500D01*
X111942121Y-34928502D01*
X111988614Y-34982158D01*
X112000000Y-35034500D01*
X112000000Y-36874000D01*
X111979998Y-36942121D01*
X111926342Y-36988614D01*
X111874000Y-37000000D01*
X104059196Y-37000000D01*
X103991075Y-36979998D01*
X103944582Y-36926342D01*
X103935532Y-36849850D01*
X103956866Y-36740609D01*
X103957936Y-36731799D01*
X103958000Y-36729172D01*
X103958000Y-36577115D01*
X103953525Y-36561876D01*
X103952135Y-36560671D01*
X103944452Y-36559000D01*
X103147115Y-36559000D01*
X103131876Y-36563475D01*
X103130671Y-36564865D01*
X103129000Y-36572548D01*
X103129000Y-37664686D01*
X103132973Y-37678217D01*
X103142399Y-37679572D01*
X103223361Y-37660060D01*
X103234656Y-37656171D01*
X103411863Y-37575600D01*
X103422205Y-37569653D01*
X103580987Y-37457021D01*
X103590016Y-37449228D01*
X103724631Y-37308607D01*
X103732035Y-37299232D01*
X103768148Y-37243302D01*
X103821903Y-37196924D01*
X103892199Y-37186970D01*
X103956716Y-37216601D01*
X103994972Y-37276410D01*
X104000000Y-37311649D01*
X104000000Y-39099976D01*
X103979998Y-39168097D01*
X103926342Y-39214590D01*
X103856068Y-39224694D01*
X103791488Y-39195200D01*
X103771677Y-39173502D01*
X103665424Y-39025635D01*
X103658116Y-39017169D01*
X103508117Y-38871809D01*
X103499435Y-38864779D01*
X103326055Y-38748272D01*
X103316269Y-38742893D01*
X103125004Y-38658933D01*
X103114412Y-38655368D01*
X102996615Y-38627088D01*
X102982530Y-38627793D01*
X102979000Y-38636672D01*
X102979000Y-41573226D01*
X102983106Y-41587210D01*
X102990670Y-41588384D01*
X103187400Y-41527862D01*
X103197744Y-41523641D01*
X103383362Y-41427836D01*
X103392793Y-41421851D01*
X103558517Y-41294686D01*
X103566734Y-41287130D01*
X103707318Y-41132631D01*
X103714068Y-41123737D01*
X103767263Y-41038938D01*
X103820407Y-40991861D01*
X103890566Y-40980989D01*
X103955465Y-41009773D01*
X103994500Y-41069076D01*
X104000000Y-41105895D01*
X104000000Y-41874000D01*
X103979998Y-41942121D01*
X103926342Y-41988614D01*
X103874000Y-42000000D01*
X102126000Y-42000000D01*
X102057879Y-41979998D01*
X102011386Y-41926342D01*
X102000000Y-41874000D01*
X102000000Y-41601320D01*
X102020002Y-41533199D01*
X102073658Y-41486706D01*
X102143932Y-41476602D01*
X102176645Y-41485946D01*
X102324996Y-41551067D01*
X102335588Y-41554632D01*
X102453385Y-41582912D01*
X102467470Y-41582207D01*
X102471000Y-41573328D01*
X102471000Y-38636774D01*
X102466894Y-38622790D01*
X102459330Y-38621616D01*
X102419004Y-38634022D01*
X102348014Y-38634934D01*
X102287799Y-38597322D01*
X102272836Y-38576592D01*
X102242342Y-38523774D01*
X102242339Y-38523769D01*
X102239040Y-38518056D01*
X102111253Y-38376134D01*
X102051938Y-38333039D01*
X102008585Y-38276818D01*
X102000000Y-38231104D01*
X102000000Y-38000000D01*
X99000000Y-38000000D01*
X99000000Y-38870500D01*
X98979998Y-38938621D01*
X98926342Y-38985114D01*
X98874000Y-38996500D01*
X98726866Y-38996500D01*
X98723471Y-38996869D01*
X98723467Y-38996869D01*
X98707570Y-38998596D01*
X98688606Y-39000656D01*
X98661394Y-39000656D01*
X98642430Y-38998596D01*
X98626533Y-38996869D01*
X98626529Y-38996869D01*
X98623134Y-38996500D01*
X98076866Y-38996500D01*
X98036280Y-39000909D01*
X98009067Y-39000909D01*
X97976483Y-38997369D01*
X97969672Y-38997000D01*
X97943115Y-38997000D01*
X97927876Y-39001475D01*
X97905611Y-39027170D01*
X97905082Y-39026712D01*
X97898318Y-39039100D01*
X97878161Y-39054207D01*
X97878295Y-39054385D01*
X97761739Y-39141739D01*
X97756358Y-39148919D01*
X97701826Y-39221681D01*
X97644967Y-39264196D01*
X97574149Y-39269222D01*
X97511855Y-39235162D01*
X97477865Y-39172831D01*
X97475000Y-39146116D01*
X97475000Y-39015116D01*
X97470525Y-38999877D01*
X97444830Y-38977612D01*
X97445276Y-38977097D01*
X97432835Y-38970303D01*
X97398811Y-38907990D01*
X97396622Y-38894379D01*
X97394232Y-38871636D01*
X97394232Y-38871635D01*
X97393542Y-38865072D01*
X97334527Y-38683444D01*
X97307739Y-38637045D01*
X97242341Y-38523774D01*
X97239040Y-38518056D01*
X97111253Y-38376134D01*
X96956752Y-38263882D01*
X96950724Y-38261198D01*
X96950722Y-38261197D01*
X96788319Y-38188891D01*
X96788318Y-38188891D01*
X96782288Y-38186206D01*
X96688888Y-38166353D01*
X96601944Y-38147872D01*
X96601939Y-38147872D01*
X96595487Y-38146500D01*
X96404513Y-38146500D01*
X96398061Y-38147872D01*
X96398056Y-38147872D01*
X96311112Y-38166353D01*
X96217712Y-38186206D01*
X96211682Y-38188891D01*
X96211681Y-38188891D01*
X96049278Y-38261197D01*
X96049276Y-38261198D01*
X96043248Y-38263882D01*
X95888747Y-38376134D01*
X95760960Y-38518056D01*
X95757659Y-38523774D01*
X95726624Y-38577528D01*
X95675241Y-38626521D01*
X95605527Y-38639956D01*
X95588090Y-38637045D01*
X95546618Y-38627088D01*
X95532530Y-38627793D01*
X95529000Y-38636672D01*
X95529000Y-39832885D01*
X95533475Y-39848124D01*
X95534865Y-39849329D01*
X95542548Y-39851000D01*
X96027430Y-39851000D01*
X96078678Y-39861893D01*
X96211677Y-39921108D01*
X96211685Y-39921111D01*
X96217712Y-39923794D01*
X96311113Y-39943647D01*
X96398056Y-39962128D01*
X96398061Y-39962128D01*
X96404513Y-39963500D01*
X96595487Y-39963500D01*
X96601939Y-39962128D01*
X96601944Y-39962128D01*
X96688888Y-39943647D01*
X96782288Y-39923794D01*
X96788315Y-39921111D01*
X96788323Y-39921108D01*
X96831521Y-39901875D01*
X96901888Y-39892441D01*
X96965281Y-39921758D01*
X96972864Y-39928328D01*
X96980548Y-39930000D01*
X97475000Y-39930000D01*
X97475000Y-39930552D01*
X97526000Y-39930553D01*
X97585725Y-39968938D01*
X97615218Y-40033519D01*
X97616500Y-40051449D01*
X97616500Y-40257372D01*
X97596498Y-40325493D01*
X97542842Y-40371986D01*
X97472568Y-40382090D01*
X97463715Y-40380492D01*
X97461453Y-40380000D01*
X96985116Y-40380000D01*
X96969877Y-40384475D01*
X96968672Y-40385865D01*
X96967001Y-40393548D01*
X96967001Y-40849669D01*
X96967371Y-40856490D01*
X96972895Y-40907352D01*
X96976521Y-40922604D01*
X97021676Y-41043054D01*
X97030214Y-41058649D01*
X97106715Y-41160724D01*
X97119276Y-41173285D01*
X97221351Y-41249786D01*
X97236946Y-41258324D01*
X97357394Y-41303478D01*
X97372649Y-41307105D01*
X97423514Y-41312631D01*
X97430328Y-41313000D01*
X97456885Y-41313000D01*
X97472124Y-41308525D01*
X97473329Y-41307135D01*
X97475000Y-41299452D01*
X97475000Y-41163884D01*
X97495002Y-41095763D01*
X97548658Y-41049270D01*
X97618932Y-41039166D01*
X97683512Y-41068660D01*
X97701825Y-41088317D01*
X97761739Y-41168261D01*
X97876295Y-41254116D01*
X97878295Y-41255615D01*
X97878079Y-41255904D01*
X97924139Y-41302065D01*
X97926353Y-41307418D01*
X97930865Y-41311328D01*
X97938548Y-41312999D01*
X97969670Y-41312999D01*
X97976488Y-41312630D01*
X98009067Y-41309091D01*
X98036280Y-41309091D01*
X98076866Y-41313500D01*
X98623134Y-41313500D01*
X98626529Y-41313131D01*
X98626533Y-41313131D01*
X98652531Y-41310307D01*
X98661394Y-41309344D01*
X98688606Y-41309344D01*
X98697469Y-41310307D01*
X98723467Y-41313131D01*
X98723471Y-41313131D01*
X98726866Y-41313500D01*
X98874000Y-41313500D01*
X98942121Y-41333502D01*
X98988614Y-41387158D01*
X99000000Y-41439500D01*
X99000000Y-42874000D01*
X98979998Y-42942121D01*
X98926342Y-42988614D01*
X98874000Y-43000000D01*
X95000000Y-43000000D01*
X94989496Y-43008403D01*
X80413212Y-54669430D01*
X80347523Y-54696366D01*
X80277700Y-54683512D01*
X80225910Y-54634949D01*
X80208500Y-54571041D01*
X80208500Y-42297386D01*
X82267759Y-42297386D01*
X82275216Y-42307753D01*
X82514935Y-42501874D01*
X82520272Y-42505751D01*
X82840685Y-42713830D01*
X82846394Y-42717127D01*
X83186811Y-42890578D01*
X83192836Y-42893260D01*
X83549502Y-43030171D01*
X83555784Y-43032212D01*
X83924816Y-43131094D01*
X83931266Y-43132465D01*
X84308629Y-43192234D01*
X84315167Y-43192920D01*
X84696699Y-43212916D01*
X84703301Y-43212916D01*
X85084833Y-43192920D01*
X85091371Y-43192234D01*
X85468734Y-43132465D01*
X85475184Y-43131094D01*
X85844216Y-43032212D01*
X85850498Y-43030171D01*
X86207164Y-42893260D01*
X86213189Y-42890578D01*
X86553606Y-42717127D01*
X86559315Y-42713830D01*
X86879728Y-42505751D01*
X86885065Y-42501874D01*
X87123835Y-42308522D01*
X87132300Y-42296267D01*
X87125966Y-42285176D01*
X84712812Y-39872022D01*
X84698868Y-39864408D01*
X84697035Y-39864539D01*
X84690420Y-39868790D01*
X82274900Y-42284310D01*
X82267759Y-42297386D01*
X80208500Y-42297386D01*
X80208500Y-39503301D01*
X80987084Y-39503301D01*
X81007080Y-39884833D01*
X81007766Y-39891371D01*
X81067535Y-40268734D01*
X81068906Y-40275184D01*
X81167788Y-40644216D01*
X81169829Y-40650498D01*
X81306740Y-41007164D01*
X81309422Y-41013189D01*
X81482872Y-41353603D01*
X81486169Y-41359313D01*
X81694253Y-41679735D01*
X81698123Y-41685061D01*
X81891478Y-41923835D01*
X81903733Y-41932300D01*
X81914824Y-41925966D01*
X84327978Y-39512812D01*
X84334356Y-39501132D01*
X85064408Y-39501132D01*
X85064539Y-39502965D01*
X85068790Y-39509580D01*
X87484310Y-41925100D01*
X87497386Y-41932241D01*
X87507753Y-41924784D01*
X87701877Y-41685061D01*
X87705747Y-41679735D01*
X87913831Y-41359313D01*
X87917128Y-41353603D01*
X88090578Y-41013189D01*
X88093260Y-41007164D01*
X88230171Y-40650498D01*
X88232212Y-40644216D01*
X88288796Y-40433041D01*
X94042000Y-40433041D01*
X94042249Y-40438636D01*
X94056083Y-40593633D01*
X94058065Y-40604647D01*
X94113180Y-40806116D01*
X94117074Y-40816589D01*
X94207001Y-41005123D01*
X94212687Y-41014738D01*
X94334576Y-41184365D01*
X94341884Y-41192831D01*
X94491883Y-41338191D01*
X94500565Y-41345221D01*
X94673945Y-41461728D01*
X94683731Y-41467107D01*
X94874996Y-41551067D01*
X94885588Y-41554632D01*
X95003385Y-41582912D01*
X95017470Y-41582207D01*
X95021000Y-41573328D01*
X95021000Y-41573226D01*
X95529000Y-41573226D01*
X95533106Y-41587210D01*
X95540670Y-41588384D01*
X95737400Y-41527862D01*
X95747744Y-41523641D01*
X95933362Y-41427836D01*
X95942793Y-41421851D01*
X96108517Y-41294686D01*
X96116734Y-41287130D01*
X96257318Y-41132631D01*
X96264072Y-41123732D01*
X96375069Y-40946789D01*
X96380146Y-40936823D01*
X96458050Y-40743031D01*
X96461285Y-40732316D01*
X96503843Y-40526814D01*
X96505046Y-40517678D01*
X96507895Y-40468265D01*
X96508000Y-40464618D01*
X96508000Y-40377115D01*
X96503525Y-40361876D01*
X96502135Y-40360671D01*
X96494452Y-40359000D01*
X95547115Y-40359000D01*
X95531876Y-40363475D01*
X95530671Y-40364865D01*
X95529000Y-40372548D01*
X95529000Y-41573226D01*
X95021000Y-41573226D01*
X95021000Y-40377115D01*
X95016525Y-40361876D01*
X95015135Y-40360671D01*
X95007452Y-40359000D01*
X94060115Y-40359000D01*
X94044876Y-40363475D01*
X94043671Y-40364865D01*
X94042000Y-40372548D01*
X94042000Y-40433041D01*
X88288796Y-40433041D01*
X88331094Y-40275184D01*
X88332465Y-40268734D01*
X88392234Y-39891371D01*
X88392920Y-39884833D01*
X88395643Y-39832885D01*
X94042000Y-39832885D01*
X94046475Y-39848124D01*
X94047865Y-39849329D01*
X94055548Y-39851000D01*
X95002885Y-39851000D01*
X95018124Y-39846525D01*
X95019329Y-39845135D01*
X95021000Y-39837452D01*
X95021000Y-38636774D01*
X95016894Y-38622790D01*
X95009330Y-38621616D01*
X94812600Y-38682138D01*
X94802256Y-38686359D01*
X94616638Y-38782164D01*
X94607207Y-38788149D01*
X94441483Y-38915314D01*
X94433266Y-38922870D01*
X94292682Y-39077369D01*
X94285928Y-39086268D01*
X94174931Y-39263211D01*
X94169854Y-39273177D01*
X94091950Y-39466969D01*
X94088715Y-39477684D01*
X94046157Y-39683186D01*
X94044954Y-39692322D01*
X94042105Y-39741735D01*
X94042000Y-39745382D01*
X94042000Y-39832885D01*
X88395643Y-39832885D01*
X88412916Y-39503301D01*
X88412916Y-39496699D01*
X88392920Y-39115167D01*
X88392234Y-39108629D01*
X88332465Y-38731266D01*
X88331094Y-38724816D01*
X88232212Y-38355784D01*
X88230171Y-38349502D01*
X88093260Y-37992836D01*
X88090578Y-37986811D01*
X87917128Y-37646397D01*
X87913831Y-37640687D01*
X87705747Y-37320265D01*
X87701877Y-37314939D01*
X87508522Y-37076165D01*
X87496267Y-37067700D01*
X87485176Y-37074034D01*
X85072022Y-39487188D01*
X85064408Y-39501132D01*
X84334356Y-39501132D01*
X84335592Y-39498868D01*
X84335461Y-39497035D01*
X84331210Y-39490420D01*
X81915690Y-37074900D01*
X81902614Y-37067759D01*
X81892247Y-37075216D01*
X81698123Y-37314939D01*
X81694253Y-37320265D01*
X81486169Y-37640687D01*
X81482872Y-37646397D01*
X81309422Y-37986811D01*
X81306740Y-37992836D01*
X81169829Y-38349502D01*
X81167788Y-38355784D01*
X81068906Y-38724816D01*
X81067535Y-38731266D01*
X81007766Y-39108629D01*
X81007080Y-39115167D01*
X80987084Y-39496699D01*
X80987084Y-39503301D01*
X80208500Y-39503301D01*
X80208500Y-39453250D01*
X80210246Y-39432345D01*
X80212770Y-39417344D01*
X80212770Y-39417341D01*
X80213576Y-39412552D01*
X80213729Y-39400000D01*
X80213039Y-39395184D01*
X80213039Y-39395178D01*
X80211387Y-39383644D01*
X80210234Y-39360284D01*
X80210447Y-39355423D01*
X80225352Y-39014035D01*
X80226310Y-39003086D01*
X80227111Y-38997000D01*
X80276019Y-38625502D01*
X80277927Y-38614685D01*
X80281777Y-38597322D01*
X80360353Y-38242885D01*
X80363198Y-38232268D01*
X80421019Y-38048884D01*
X80477718Y-37869061D01*
X80481474Y-37858739D01*
X80627220Y-37506877D01*
X80631862Y-37496924D01*
X80652635Y-37457021D01*
X80807706Y-37159132D01*
X80813201Y-37149613D01*
X80822060Y-37135708D01*
X80951134Y-36933102D01*
X81017820Y-36828426D01*
X81024124Y-36819422D01*
X81112895Y-36703733D01*
X82267700Y-36703733D01*
X82274034Y-36714824D01*
X84687188Y-39127978D01*
X84701132Y-39135592D01*
X84702965Y-39135461D01*
X84709580Y-39131210D01*
X87125100Y-36715690D01*
X87132241Y-36702614D01*
X87124784Y-36692247D01*
X87107977Y-36678637D01*
X94042000Y-36678637D01*
X94042285Y-36684613D01*
X94056132Y-36829745D01*
X94058391Y-36841480D01*
X94113188Y-37028268D01*
X94117621Y-37039351D01*
X94206751Y-37212406D01*
X94213207Y-37222461D01*
X94333449Y-37375537D01*
X94341689Y-37384190D01*
X94488701Y-37511760D01*
X94498433Y-37518702D01*
X94666924Y-37616177D01*
X94677785Y-37621150D01*
X94858962Y-37684065D01*
X94867007Y-37682918D01*
X94871000Y-37669349D01*
X94871000Y-37664686D01*
X95379000Y-37664686D01*
X95382973Y-37678217D01*
X95392399Y-37679572D01*
X95473361Y-37660060D01*
X95484656Y-37656171D01*
X95661863Y-37575600D01*
X95672205Y-37569653D01*
X95830987Y-37457021D01*
X95840016Y-37449228D01*
X95974631Y-37308607D01*
X95982035Y-37299232D01*
X96087620Y-37135708D01*
X96093121Y-37125094D01*
X96165883Y-36944551D01*
X96169275Y-36933102D01*
X96206866Y-36740609D01*
X96207936Y-36731799D01*
X96208000Y-36729172D01*
X96208000Y-36678637D01*
X101792000Y-36678637D01*
X101792285Y-36684613D01*
X101806132Y-36829745D01*
X101808391Y-36841480D01*
X101863188Y-37028268D01*
X101867621Y-37039351D01*
X101956751Y-37212406D01*
X101963207Y-37222461D01*
X102083449Y-37375537D01*
X102091689Y-37384190D01*
X102238701Y-37511760D01*
X102248433Y-37518702D01*
X102416924Y-37616177D01*
X102427785Y-37621150D01*
X102608962Y-37684065D01*
X102617007Y-37682918D01*
X102621000Y-37669349D01*
X102621000Y-36577115D01*
X102616525Y-36561876D01*
X102615135Y-36560671D01*
X102607452Y-36559000D01*
X101810115Y-36559000D01*
X101794876Y-36563475D01*
X101793671Y-36564865D01*
X101792000Y-36572548D01*
X101792000Y-36678637D01*
X96208000Y-36678637D01*
X96208000Y-36577115D01*
X96203525Y-36561876D01*
X96202135Y-36560671D01*
X96194452Y-36559000D01*
X95397115Y-36559000D01*
X95381876Y-36563475D01*
X95380671Y-36564865D01*
X95379000Y-36572548D01*
X95379000Y-37664686D01*
X94871000Y-37664686D01*
X94871000Y-36577115D01*
X94866525Y-36561876D01*
X94865135Y-36560671D01*
X94857452Y-36559000D01*
X94060115Y-36559000D01*
X94044876Y-36563475D01*
X94043671Y-36564865D01*
X94042000Y-36572548D01*
X94042000Y-36678637D01*
X87107977Y-36678637D01*
X86885065Y-36498126D01*
X86879728Y-36494249D01*
X86559315Y-36286170D01*
X86553606Y-36282873D01*
X86213189Y-36109422D01*
X86207164Y-36106740D01*
X85850498Y-35969829D01*
X85844216Y-35967788D01*
X85475184Y-35868906D01*
X85468734Y-35867535D01*
X85091371Y-35807766D01*
X85084833Y-35807080D01*
X84703301Y-35787084D01*
X84696699Y-35787084D01*
X84315167Y-35807080D01*
X84308629Y-35807766D01*
X83931266Y-35867535D01*
X83924816Y-35868906D01*
X83555784Y-35967788D01*
X83549502Y-35969829D01*
X83192836Y-36106740D01*
X83186811Y-36109422D01*
X82846397Y-36282872D01*
X82840687Y-36286169D01*
X82520265Y-36494253D01*
X82514939Y-36498123D01*
X82276165Y-36691478D01*
X82267700Y-36703733D01*
X81112895Y-36703733D01*
X81255962Y-36517284D01*
X81263028Y-36508863D01*
X81520314Y-36228086D01*
X81528086Y-36220314D01*
X81808863Y-35963028D01*
X81817284Y-35955962D01*
X82119422Y-35724124D01*
X82128426Y-35717820D01*
X82449613Y-35513201D01*
X82459133Y-35507705D01*
X82796933Y-35331858D01*
X82806877Y-35327220D01*
X83158746Y-35181471D01*
X83169061Y-35177718D01*
X83532269Y-35063198D01*
X83542886Y-35060353D01*
X83914693Y-34977926D01*
X83925502Y-34976019D01*
X84303087Y-34926310D01*
X84314035Y-34925352D01*
X84656554Y-34910397D01*
X84681429Y-34911777D01*
X84693724Y-34913691D01*
X84702626Y-34912527D01*
X84702628Y-34912527D01*
X84718914Y-34910397D01*
X84725286Y-34909564D01*
X84741621Y-34908500D01*
X94368259Y-34908500D01*
X94436380Y-34928502D01*
G37*
G04 #@! TD.AperFunction*
G04 #@! TD*
G04 #@! TA.AperFunction,Conductor*
G04 #@! TO.N,GNDD*
G36*
X101464259Y-77020002D02*
G01*
X101510752Y-77073658D01*
X101517034Y-77090501D01*
X101521475Y-77105624D01*
X101522865Y-77106829D01*
X101530548Y-77108500D01*
X103464885Y-77108500D01*
X103480124Y-77104025D01*
X103481329Y-77102635D01*
X103482072Y-77099218D01*
X103516097Y-77036906D01*
X103578408Y-77002880D01*
X103605193Y-77000000D01*
X104874000Y-77000000D01*
X104942121Y-77020002D01*
X104988614Y-77073658D01*
X105000000Y-77126000D01*
X105000000Y-79000000D01*
X111963095Y-85963095D01*
X111997121Y-86025407D01*
X112000000Y-86052190D01*
X112000000Y-86947810D01*
X111979998Y-87015931D01*
X111963095Y-87036905D01*
X106036905Y-92963095D01*
X105974593Y-92997121D01*
X105947810Y-93000000D01*
X105052190Y-93000000D01*
X104984069Y-92979998D01*
X104963095Y-92963095D01*
X100036905Y-88036905D01*
X100002879Y-87974593D01*
X100000000Y-87947810D01*
X100000000Y-77708766D01*
X101517000Y-77708766D01*
X101517337Y-77715282D01*
X101527075Y-77809132D01*
X101529968Y-77822528D01*
X101580488Y-77973953D01*
X101586653Y-77987115D01*
X101670426Y-78122492D01*
X101679460Y-78133890D01*
X101792129Y-78246363D01*
X101803540Y-78255375D01*
X101939063Y-78338912D01*
X101952241Y-78345056D01*
X102103766Y-78395315D01*
X102117132Y-78398181D01*
X102209770Y-78407672D01*
X102216185Y-78408000D01*
X102227885Y-78408000D01*
X102243124Y-78403525D01*
X102244329Y-78402135D01*
X102246000Y-78394452D01*
X102246000Y-78389885D01*
X102754000Y-78389885D01*
X102758475Y-78405124D01*
X102759865Y-78406329D01*
X102767548Y-78408000D01*
X102783766Y-78408000D01*
X102790282Y-78407663D01*
X102884132Y-78397925D01*
X102897528Y-78395032D01*
X103048953Y-78344512D01*
X103062115Y-78338347D01*
X103197492Y-78254574D01*
X103208890Y-78245540D01*
X103321363Y-78132871D01*
X103330375Y-78121460D01*
X103413912Y-77985937D01*
X103420056Y-77972759D01*
X103470315Y-77821234D01*
X103473181Y-77807868D01*
X103482672Y-77715230D01*
X103483000Y-77708815D01*
X103483000Y-77634615D01*
X103478525Y-77619376D01*
X103477135Y-77618171D01*
X103469452Y-77616500D01*
X102772115Y-77616500D01*
X102756876Y-77620975D01*
X102755671Y-77622365D01*
X102754000Y-77630048D01*
X102754000Y-78389885D01*
X102246000Y-78389885D01*
X102246000Y-77634615D01*
X102241525Y-77619376D01*
X102240135Y-77618171D01*
X102232452Y-77616500D01*
X101535115Y-77616500D01*
X101519876Y-77620975D01*
X101518671Y-77622365D01*
X101517000Y-77630048D01*
X101517000Y-77708766D01*
X100000000Y-77708766D01*
X100000000Y-77126000D01*
X100020002Y-77057879D01*
X100073658Y-77011386D01*
X100126000Y-77000000D01*
X101396138Y-77000000D01*
X101464259Y-77020002D01*
G37*
G04 #@! TD.AperFunction*
G04 #@! TD*
G04 #@! TA.AperFunction,Conductor*
G04 #@! TO.N,GNDD*
G36*
X96559121Y-114020002D02*
G01*
X96605614Y-114073658D01*
X96617000Y-114126000D01*
X96617000Y-114277885D01*
X96621475Y-114293124D01*
X96622865Y-114294329D01*
X96630548Y-114296000D01*
X97803000Y-114296000D01*
X97871121Y-114316002D01*
X97917614Y-114369658D01*
X97929000Y-114422000D01*
X97929000Y-115689884D01*
X97933475Y-115705123D01*
X97934865Y-115706328D01*
X97942548Y-115707999D01*
X98190500Y-115707999D01*
X98258621Y-115728001D01*
X98305114Y-115781657D01*
X98316500Y-115833999D01*
X98316500Y-164374000D01*
X98296498Y-164442121D01*
X98242842Y-164488614D01*
X98190500Y-164500000D01*
X97500000Y-164500000D01*
X97500000Y-172290496D01*
X97479998Y-172358617D01*
X97426342Y-172405110D01*
X97373751Y-172416496D01*
X85267301Y-172392618D01*
X84749740Y-172391597D01*
X84730604Y-172390097D01*
X84715148Y-172387690D01*
X84715145Y-172387690D01*
X84706276Y-172386309D01*
X84685817Y-172388984D01*
X84663993Y-172389928D01*
X84314035Y-172374648D01*
X84303086Y-172373690D01*
X83925502Y-172323981D01*
X83914693Y-172322074D01*
X83542885Y-172239647D01*
X83532268Y-172236802D01*
X83169061Y-172122282D01*
X83158746Y-172118529D01*
X82806877Y-171972780D01*
X82796933Y-171968142D01*
X82459132Y-171792294D01*
X82449613Y-171786799D01*
X82128426Y-171582180D01*
X82119422Y-171575876D01*
X81817284Y-171344038D01*
X81808863Y-171336972D01*
X81528086Y-171079686D01*
X81520314Y-171071914D01*
X81268754Y-170797386D01*
X82267759Y-170797386D01*
X82275216Y-170807753D01*
X82514935Y-171001874D01*
X82520272Y-171005751D01*
X82840685Y-171213830D01*
X82846394Y-171217127D01*
X83186811Y-171390578D01*
X83192836Y-171393260D01*
X83549502Y-171530171D01*
X83555784Y-171532212D01*
X83924816Y-171631094D01*
X83931266Y-171632465D01*
X84308629Y-171692234D01*
X84315167Y-171692920D01*
X84696699Y-171712916D01*
X84703301Y-171712916D01*
X85084833Y-171692920D01*
X85091371Y-171692234D01*
X85468734Y-171632465D01*
X85475184Y-171631094D01*
X85844216Y-171532212D01*
X85850498Y-171530171D01*
X86207164Y-171393260D01*
X86213189Y-171390578D01*
X86553606Y-171217127D01*
X86559315Y-171213830D01*
X86879728Y-171005751D01*
X86885065Y-171001874D01*
X87123835Y-170808522D01*
X87132300Y-170796267D01*
X87125966Y-170785176D01*
X84712812Y-168372022D01*
X84698868Y-168364408D01*
X84697035Y-168364539D01*
X84690420Y-168368790D01*
X82274900Y-170784310D01*
X82267759Y-170797386D01*
X81268754Y-170797386D01*
X81263028Y-170791137D01*
X81255962Y-170782716D01*
X81024124Y-170480578D01*
X81017820Y-170471574D01*
X80813201Y-170150387D01*
X80807705Y-170140867D01*
X80794047Y-170114631D01*
X80631858Y-169803067D01*
X80627216Y-169793114D01*
X80584562Y-169690136D01*
X80481471Y-169441254D01*
X80477715Y-169430932D01*
X80439280Y-169309030D01*
X80363198Y-169067731D01*
X80360353Y-169057114D01*
X80277927Y-168685315D01*
X80276018Y-168674490D01*
X80235773Y-168368790D01*
X80226310Y-168296913D01*
X80225352Y-168285964D01*
X80215774Y-168066590D01*
X80213010Y-168003301D01*
X80987084Y-168003301D01*
X81007080Y-168384833D01*
X81007766Y-168391371D01*
X81067535Y-168768734D01*
X81068906Y-168775184D01*
X81167788Y-169144216D01*
X81169829Y-169150498D01*
X81306740Y-169507164D01*
X81309422Y-169513189D01*
X81482872Y-169853603D01*
X81486169Y-169859313D01*
X81694253Y-170179735D01*
X81698123Y-170185061D01*
X81891478Y-170423835D01*
X81903733Y-170432300D01*
X81914824Y-170425966D01*
X84327978Y-168012812D01*
X84334356Y-168001132D01*
X85064408Y-168001132D01*
X85064539Y-168002965D01*
X85068790Y-168009580D01*
X87484310Y-170425100D01*
X87497386Y-170432241D01*
X87507753Y-170424784D01*
X87701877Y-170185061D01*
X87705747Y-170179735D01*
X87913831Y-169859313D01*
X87917128Y-169853603D01*
X88090578Y-169513189D01*
X88093260Y-169507164D01*
X88230171Y-169150498D01*
X88232212Y-169144216D01*
X88331094Y-168775184D01*
X88332465Y-168768734D01*
X88392234Y-168391371D01*
X88392920Y-168384833D01*
X88412916Y-168003301D01*
X88412916Y-167996699D01*
X88392920Y-167615167D01*
X88392234Y-167608629D01*
X88332465Y-167231266D01*
X88331094Y-167224816D01*
X88232212Y-166855784D01*
X88230171Y-166849502D01*
X88093260Y-166492836D01*
X88090578Y-166486811D01*
X87917128Y-166146397D01*
X87913831Y-166140687D01*
X87705747Y-165820265D01*
X87701877Y-165814939D01*
X87508522Y-165576165D01*
X87496267Y-165567700D01*
X87485176Y-165574034D01*
X85072022Y-167987188D01*
X85064408Y-168001132D01*
X84334356Y-168001132D01*
X84335592Y-167998868D01*
X84335461Y-167997035D01*
X84331210Y-167990420D01*
X81915690Y-165574900D01*
X81902614Y-165567759D01*
X81892247Y-165575216D01*
X81698123Y-165814939D01*
X81694253Y-165820265D01*
X81486169Y-166140687D01*
X81482872Y-166146397D01*
X81309422Y-166486811D01*
X81306740Y-166492836D01*
X81169829Y-166849502D01*
X81167788Y-166855784D01*
X81068906Y-167224816D01*
X81067535Y-167231266D01*
X81007766Y-167608629D01*
X81007080Y-167615167D01*
X80987084Y-167996699D01*
X80987084Y-168003301D01*
X80213010Y-168003301D01*
X80210561Y-167947206D01*
X80212188Y-167920805D01*
X80212769Y-167917352D01*
X80212770Y-167917345D01*
X80213576Y-167912552D01*
X80213729Y-167900000D01*
X80209773Y-167872376D01*
X80208500Y-167854514D01*
X80208500Y-165203733D01*
X82267700Y-165203733D01*
X82274034Y-165214824D01*
X84687188Y-167627978D01*
X84701132Y-167635592D01*
X84702965Y-167635461D01*
X84709580Y-167631210D01*
X87125100Y-165215690D01*
X87132241Y-165202614D01*
X87124784Y-165192247D01*
X86885065Y-164998126D01*
X86879728Y-164994249D01*
X86559315Y-164786170D01*
X86553606Y-164782873D01*
X86213189Y-164609422D01*
X86207164Y-164606740D01*
X85850498Y-164469829D01*
X85844216Y-164467788D01*
X85475184Y-164368906D01*
X85468734Y-164367535D01*
X85091371Y-164307766D01*
X85084833Y-164307080D01*
X84703301Y-164287084D01*
X84696699Y-164287084D01*
X84315167Y-164307080D01*
X84308629Y-164307766D01*
X83931266Y-164367535D01*
X83924816Y-164368906D01*
X83555784Y-164467788D01*
X83549502Y-164469829D01*
X83192836Y-164606740D01*
X83186811Y-164609422D01*
X82846397Y-164782872D01*
X82840687Y-164786169D01*
X82520265Y-164994253D01*
X82514939Y-164998123D01*
X82276165Y-165191478D01*
X82267700Y-165203733D01*
X80208500Y-165203733D01*
X80208500Y-159434744D01*
X83517000Y-159434744D01*
X83517337Y-159441260D01*
X83527075Y-159535110D01*
X83529968Y-159548506D01*
X83580488Y-159699931D01*
X83586653Y-159713093D01*
X83670426Y-159848470D01*
X83679460Y-159859868D01*
X83792129Y-159972341D01*
X83803540Y-159981353D01*
X83939063Y-160064890D01*
X83952241Y-160071034D01*
X84103766Y-160121293D01*
X84117132Y-160124159D01*
X84209770Y-160133650D01*
X84216185Y-160133978D01*
X84227885Y-160133978D01*
X84243124Y-160129503D01*
X84244329Y-160128113D01*
X84246000Y-160120430D01*
X84246000Y-160115863D01*
X84754000Y-160115863D01*
X84758475Y-160131102D01*
X84759865Y-160132307D01*
X84767548Y-160133978D01*
X84783766Y-160133978D01*
X84790282Y-160133641D01*
X84884132Y-160123903D01*
X84897528Y-160121010D01*
X85048953Y-160070490D01*
X85062115Y-160064325D01*
X85197492Y-159980552D01*
X85208890Y-159971518D01*
X85321363Y-159858849D01*
X85330375Y-159847438D01*
X85413912Y-159711915D01*
X85420056Y-159698737D01*
X85470315Y-159547212D01*
X85473181Y-159533846D01*
X85482672Y-159441208D01*
X85483000Y-159434793D01*
X85483000Y-159434744D01*
X86517000Y-159434744D01*
X86517337Y-159441260D01*
X86527075Y-159535110D01*
X86529968Y-159548506D01*
X86580488Y-159699931D01*
X86586653Y-159713093D01*
X86670426Y-159848470D01*
X86679460Y-159859868D01*
X86792129Y-159972341D01*
X86803540Y-159981353D01*
X86939063Y-160064890D01*
X86952241Y-160071034D01*
X87103766Y-160121293D01*
X87117132Y-160124159D01*
X87209770Y-160133650D01*
X87216185Y-160133978D01*
X87227885Y-160133978D01*
X87243124Y-160129503D01*
X87244329Y-160128113D01*
X87246000Y-160120430D01*
X87246000Y-160115863D01*
X87754000Y-160115863D01*
X87758475Y-160131102D01*
X87759865Y-160132307D01*
X87767548Y-160133978D01*
X87783766Y-160133978D01*
X87790282Y-160133641D01*
X87884132Y-160123903D01*
X87897528Y-160121010D01*
X88048953Y-160070490D01*
X88062115Y-160064325D01*
X88197492Y-159980552D01*
X88208890Y-159971518D01*
X88321363Y-159858849D01*
X88330375Y-159847438D01*
X88413912Y-159711915D01*
X88420056Y-159698737D01*
X88470315Y-159547212D01*
X88473181Y-159533846D01*
X88482672Y-159441208D01*
X88483000Y-159434793D01*
X88483000Y-159360593D01*
X88478525Y-159345354D01*
X88477135Y-159344149D01*
X88469452Y-159342478D01*
X87772115Y-159342478D01*
X87756876Y-159346953D01*
X87755671Y-159348343D01*
X87754000Y-159356026D01*
X87754000Y-160115863D01*
X87246000Y-160115863D01*
X87246000Y-159360593D01*
X87241525Y-159345354D01*
X87240135Y-159344149D01*
X87232452Y-159342478D01*
X86535115Y-159342478D01*
X86519876Y-159346953D01*
X86518671Y-159348343D01*
X86517000Y-159356026D01*
X86517000Y-159434744D01*
X85483000Y-159434744D01*
X85483000Y-159360593D01*
X85478525Y-159345354D01*
X85477135Y-159344149D01*
X85469452Y-159342478D01*
X84772115Y-159342478D01*
X84756876Y-159346953D01*
X84755671Y-159348343D01*
X84754000Y-159356026D01*
X84754000Y-160115863D01*
X84246000Y-160115863D01*
X84246000Y-159360593D01*
X84241525Y-159345354D01*
X84240135Y-159344149D01*
X84232452Y-159342478D01*
X83535115Y-159342478D01*
X83519876Y-159346953D01*
X83518671Y-159348343D01*
X83517000Y-159356026D01*
X83517000Y-159434744D01*
X80208500Y-159434744D01*
X80208500Y-158851978D01*
X80228502Y-158783857D01*
X80282158Y-158737364D01*
X80334500Y-158725978D01*
X83396138Y-158725978D01*
X83464259Y-158745980D01*
X83510752Y-158799636D01*
X83517034Y-158816479D01*
X83521475Y-158831602D01*
X83522865Y-158832807D01*
X83530548Y-158834478D01*
X85464885Y-158834478D01*
X85480124Y-158830003D01*
X85481329Y-158828613D01*
X85482072Y-158825196D01*
X85516097Y-158762884D01*
X85578408Y-158728858D01*
X85605193Y-158725978D01*
X86396138Y-158725978D01*
X86464259Y-158745980D01*
X86510752Y-158799636D01*
X86517034Y-158816479D01*
X86521475Y-158831602D01*
X86522865Y-158832807D01*
X86530548Y-158834478D01*
X88464885Y-158834478D01*
X88480124Y-158830003D01*
X88481329Y-158828613D01*
X88482072Y-158825196D01*
X88516097Y-158762884D01*
X88578408Y-158728858D01*
X88605193Y-158725978D01*
X88874000Y-158725978D01*
X88942121Y-158745980D01*
X88988614Y-158799636D01*
X89000000Y-158851978D01*
X89000000Y-160500000D01*
X97000000Y-160500000D01*
X97000000Y-149000000D01*
X96052589Y-149000000D01*
X96038982Y-148999263D01*
X95929237Y-148987341D01*
X95929233Y-148987341D01*
X95923112Y-148986676D01*
X95781184Y-148999093D01*
X95776289Y-148999521D01*
X95765308Y-149000000D01*
X95000000Y-149000000D01*
X95000000Y-149070307D01*
X94979998Y-149138428D01*
X94926342Y-149184921D01*
X94856068Y-149195025D01*
X94803355Y-149172388D01*
X94802691Y-149173466D01*
X94660937Y-149086088D01*
X94647759Y-149079944D01*
X94496234Y-149029685D01*
X94482868Y-149026819D01*
X94390230Y-149017328D01*
X94383815Y-149017000D01*
X94359615Y-149017000D01*
X94344376Y-149021475D01*
X94343171Y-149022865D01*
X94341500Y-149030548D01*
X94341500Y-150128000D01*
X94321498Y-150196121D01*
X94267842Y-150242614D01*
X94215500Y-150254000D01*
X93959500Y-150254000D01*
X93891379Y-150233998D01*
X93844886Y-150180342D01*
X93833500Y-150128000D01*
X93833500Y-149035115D01*
X93829025Y-149019876D01*
X93827635Y-149018671D01*
X93819952Y-149017000D01*
X93791234Y-149017000D01*
X93784718Y-149017337D01*
X93690868Y-149027075D01*
X93677472Y-149029968D01*
X93665876Y-149033837D01*
X93594927Y-149036421D01*
X93533843Y-149000238D01*
X93502018Y-148936773D01*
X93500000Y-148914313D01*
X93500000Y-146626000D01*
X93520002Y-146557879D01*
X93573658Y-146511386D01*
X93626000Y-146500000D01*
X96000000Y-146500000D01*
X96000000Y-115244669D01*
X96617001Y-115244669D01*
X96617371Y-115251490D01*
X96622895Y-115302352D01*
X96626521Y-115317604D01*
X96671676Y-115438054D01*
X96680214Y-115453649D01*
X96756715Y-115555724D01*
X96769276Y-115568285D01*
X96871351Y-115644786D01*
X96886946Y-115653324D01*
X97007394Y-115698478D01*
X97022649Y-115702105D01*
X97073514Y-115707631D01*
X97080328Y-115708000D01*
X97402885Y-115708000D01*
X97418124Y-115703525D01*
X97419329Y-115702135D01*
X97421000Y-115694452D01*
X97421000Y-114822115D01*
X97416525Y-114806876D01*
X97415135Y-114805671D01*
X97407452Y-114804000D01*
X96635116Y-114804000D01*
X96619877Y-114808475D01*
X96618672Y-114809865D01*
X96617001Y-114817548D01*
X96617001Y-115244669D01*
X96000000Y-115244669D01*
X96000000Y-114126000D01*
X96020002Y-114057879D01*
X96073658Y-114011386D01*
X96126000Y-114000000D01*
X96491000Y-114000000D01*
X96559121Y-114020002D01*
G37*
G04 #@! TD.AperFunction*
G04 #@! TD*
G04 #@! TA.AperFunction,Conductor*
G04 #@! TO.N,GNDA*
G36*
X128211141Y-114693546D02*
G01*
X128883185Y-115309587D01*
X128887103Y-115313337D01*
X133938145Y-120364379D01*
X133947247Y-120374522D01*
X133970968Y-120404025D01*
X133969070Y-120405551D01*
X133997394Y-120458739D01*
X134000000Y-120484232D01*
X134000000Y-121100500D01*
X133979998Y-121168621D01*
X133926342Y-121215114D01*
X133874000Y-121226500D01*
X133826842Y-121226500D01*
X133813235Y-121225763D01*
X133781737Y-121222341D01*
X133781732Y-121222341D01*
X133775611Y-121221676D01*
X133757611Y-121223251D01*
X133725609Y-121226050D01*
X133720784Y-121226379D01*
X133718313Y-121226500D01*
X133715231Y-121226500D01*
X133692763Y-121228703D01*
X133672489Y-121230691D01*
X133671174Y-121230813D01*
X133638913Y-121233636D01*
X133578587Y-121238913D01*
X133573468Y-121240400D01*
X133568167Y-121240920D01*
X133479166Y-121267791D01*
X133478033Y-121268126D01*
X133394586Y-121292370D01*
X133394582Y-121292372D01*
X133388664Y-121294091D01*
X133383932Y-121296544D01*
X133378831Y-121298084D01*
X133373388Y-121300978D01*
X133296740Y-121341731D01*
X133295574Y-121342343D01*
X133218547Y-121382271D01*
X133213074Y-121385108D01*
X133208911Y-121388431D01*
X133204204Y-121390934D01*
X133132081Y-121449756D01*
X133131246Y-121450430D01*
X133103632Y-121472474D01*
X133037914Y-121499339D01*
X133025026Y-121500000D01*
X133000000Y-121500000D01*
X132045405Y-122454595D01*
X131983093Y-122488621D01*
X131956310Y-122491500D01*
X127626000Y-122491500D01*
X127557879Y-122471498D01*
X127511386Y-122417842D01*
X127500000Y-122365500D01*
X127500000Y-121777099D01*
X127500785Y-121763054D01*
X127508107Y-121697773D01*
X127508500Y-121694273D01*
X127508500Y-119450231D01*
X127500601Y-119369672D01*
X127500000Y-119357376D01*
X127500000Y-118500000D01*
X126640746Y-118500000D01*
X126627576Y-118499310D01*
X126513204Y-118487289D01*
X126513202Y-118487289D01*
X126507075Y-118486645D01*
X126367910Y-118499310D01*
X126366031Y-118499481D01*
X126354611Y-118500000D01*
X124815745Y-118500000D01*
X124802575Y-118499310D01*
X124784326Y-118497392D01*
X124783550Y-118497308D01*
X124731773Y-118491500D01*
X124729200Y-118491500D01*
X124725224Y-118491180D01*
X124688204Y-118487289D01*
X124688202Y-118487289D01*
X124682075Y-118486645D01*
X124634430Y-118490981D01*
X124623010Y-118491500D01*
X119057425Y-118491500D01*
X118989304Y-118471498D01*
X118968330Y-118454595D01*
X118228830Y-117715095D01*
X118194804Y-117652783D01*
X118199869Y-117581968D01*
X118242416Y-117525132D01*
X118308936Y-117500321D01*
X118317925Y-117500000D01*
X118358408Y-117500000D01*
X118371139Y-117500645D01*
X118380742Y-117501620D01*
X118392271Y-117502791D01*
X118393434Y-117502915D01*
X118443227Y-117508500D01*
X118446756Y-117508500D01*
X118447739Y-117508555D01*
X118453426Y-117509003D01*
X118473683Y-117511060D01*
X118490336Y-117512752D01*
X118490339Y-117512752D01*
X118496463Y-117513374D01*
X118542112Y-117509059D01*
X118553969Y-117508500D01*
X124617096Y-117508500D01*
X124629829Y-117509145D01*
X124665334Y-117512752D01*
X124665339Y-117512752D01*
X124671462Y-117513374D01*
X124721615Y-117508633D01*
X124723474Y-117508500D01*
X124724769Y-117508500D01*
X124727833Y-117508200D01*
X124727844Y-117508199D01*
X124771531Y-117503915D01*
X124771872Y-117503882D01*
X124806115Y-117500645D01*
X124807025Y-117500559D01*
X124818881Y-117500000D01*
X126359254Y-117500000D01*
X126372424Y-117500690D01*
X126486796Y-117512711D01*
X126486798Y-117512711D01*
X126492925Y-117513355D01*
X126633969Y-117500519D01*
X126645389Y-117500000D01*
X128000000Y-117500000D01*
X128000000Y-114786427D01*
X128020002Y-114718306D01*
X128073658Y-114671813D01*
X128143932Y-114661709D01*
X128211141Y-114693546D01*
G37*
G04 #@! TD.AperFunction*
G04 #@! TD*
G04 #@! TA.AperFunction,Conductor*
G04 #@! TO.N,GNDA*
G36*
X135470018Y-34910000D02*
G01*
X135484851Y-34912310D01*
X135484855Y-34912310D01*
X135493724Y-34913691D01*
X135514183Y-34911016D01*
X135536007Y-34910072D01*
X135885965Y-34925352D01*
X135896913Y-34926310D01*
X136274498Y-34976019D01*
X136285307Y-34977926D01*
X136657114Y-35060353D01*
X136667731Y-35063198D01*
X137030939Y-35177718D01*
X137041254Y-35181471D01*
X137393123Y-35327220D01*
X137403067Y-35331858D01*
X137740867Y-35507705D01*
X137750387Y-35513201D01*
X138071574Y-35717820D01*
X138080578Y-35724124D01*
X138382716Y-35955962D01*
X138391137Y-35963028D01*
X138671914Y-36220314D01*
X138679686Y-36228086D01*
X138936972Y-36508863D01*
X138944038Y-36517284D01*
X139175876Y-36819422D01*
X139182180Y-36828426D01*
X139386799Y-37149613D01*
X139392294Y-37159132D01*
X139473403Y-37314939D01*
X139568138Y-37496924D01*
X139572780Y-37506877D01*
X139628206Y-37640687D01*
X139718526Y-37858739D01*
X139722285Y-37869068D01*
X139836802Y-38232268D01*
X139839647Y-38242886D01*
X139922073Y-38614685D01*
X139923981Y-38625502D01*
X139937905Y-38731266D01*
X139973690Y-39003086D01*
X139974648Y-39014036D01*
X139989603Y-39356552D01*
X139988223Y-39381429D01*
X139986309Y-39393724D01*
X139990405Y-39425045D01*
X139991468Y-39441466D01*
X139988535Y-43212916D01*
X139978067Y-56673975D01*
X139958012Y-56742080D01*
X139904320Y-56788531D01*
X139834038Y-56798581D01*
X139769481Y-56769037D01*
X139762972Y-56762972D01*
X125297386Y-42297386D01*
X133067759Y-42297386D01*
X133075216Y-42307753D01*
X133314935Y-42501874D01*
X133320272Y-42505751D01*
X133640685Y-42713830D01*
X133646394Y-42717127D01*
X133986811Y-42890578D01*
X133992836Y-42893260D01*
X134349502Y-43030171D01*
X134355784Y-43032212D01*
X134724816Y-43131094D01*
X134731266Y-43132465D01*
X135108629Y-43192234D01*
X135115167Y-43192920D01*
X135496699Y-43212916D01*
X135503301Y-43212916D01*
X135884833Y-43192920D01*
X135891371Y-43192234D01*
X136268734Y-43132465D01*
X136275184Y-43131094D01*
X136644216Y-43032212D01*
X136650498Y-43030171D01*
X137007164Y-42893260D01*
X137013189Y-42890578D01*
X137353606Y-42717127D01*
X137359315Y-42713830D01*
X137679728Y-42505751D01*
X137685065Y-42501874D01*
X137923835Y-42308522D01*
X137932300Y-42296267D01*
X137925966Y-42285176D01*
X135512812Y-39872022D01*
X135498868Y-39864408D01*
X135497035Y-39864539D01*
X135490420Y-39868790D01*
X133074900Y-42284310D01*
X133067759Y-42297386D01*
X125297386Y-42297386D01*
X123500000Y-40500000D01*
X114126000Y-40500000D01*
X114057879Y-40479998D01*
X114011386Y-40426342D01*
X114000000Y-40374000D01*
X114000000Y-39503301D01*
X131787084Y-39503301D01*
X131807080Y-39884833D01*
X131807766Y-39891371D01*
X131867535Y-40268734D01*
X131868906Y-40275184D01*
X131967788Y-40644216D01*
X131969829Y-40650498D01*
X132106740Y-41007164D01*
X132109422Y-41013189D01*
X132282872Y-41353603D01*
X132286169Y-41359313D01*
X132494253Y-41679735D01*
X132498123Y-41685061D01*
X132691478Y-41923835D01*
X132703733Y-41932300D01*
X132714824Y-41925966D01*
X135127978Y-39512812D01*
X135134356Y-39501132D01*
X135864408Y-39501132D01*
X135864539Y-39502965D01*
X135868790Y-39509580D01*
X138284310Y-41925100D01*
X138297386Y-41932241D01*
X138307753Y-41924784D01*
X138501877Y-41685061D01*
X138505747Y-41679735D01*
X138713831Y-41359313D01*
X138717128Y-41353603D01*
X138890578Y-41013189D01*
X138893260Y-41007164D01*
X139030171Y-40650498D01*
X139032212Y-40644216D01*
X139131094Y-40275184D01*
X139132465Y-40268734D01*
X139192234Y-39891371D01*
X139192920Y-39884833D01*
X139212916Y-39503301D01*
X139212916Y-39496699D01*
X139192920Y-39115167D01*
X139192234Y-39108629D01*
X139132465Y-38731266D01*
X139131094Y-38724816D01*
X139032212Y-38355784D01*
X139030171Y-38349502D01*
X138893260Y-37992836D01*
X138890578Y-37986811D01*
X138717128Y-37646397D01*
X138713831Y-37640687D01*
X138505747Y-37320265D01*
X138501877Y-37314939D01*
X138308522Y-37076165D01*
X138296267Y-37067700D01*
X138285176Y-37074034D01*
X135872022Y-39487188D01*
X135864408Y-39501132D01*
X135134356Y-39501132D01*
X135135592Y-39498868D01*
X135135461Y-39497035D01*
X135131210Y-39490420D01*
X132715690Y-37074900D01*
X132702614Y-37067759D01*
X132692247Y-37075216D01*
X132498123Y-37314939D01*
X132494253Y-37320265D01*
X132286169Y-37640687D01*
X132282872Y-37646397D01*
X132109422Y-37986811D01*
X132106740Y-37992836D01*
X131969829Y-38349502D01*
X131967788Y-38355784D01*
X131868906Y-38724816D01*
X131867535Y-38731266D01*
X131807766Y-39108629D01*
X131807080Y-39115167D01*
X131787084Y-39496699D01*
X131787084Y-39503301D01*
X114000000Y-39503301D01*
X114000000Y-36703733D01*
X133067700Y-36703733D01*
X133074034Y-36714824D01*
X135487188Y-39127978D01*
X135501132Y-39135592D01*
X135502965Y-39135461D01*
X135509580Y-39131210D01*
X137925100Y-36715690D01*
X137932241Y-36702614D01*
X137924784Y-36692247D01*
X137685065Y-36498126D01*
X137679728Y-36494249D01*
X137359315Y-36286170D01*
X137353606Y-36282873D01*
X137013189Y-36109422D01*
X137007164Y-36106740D01*
X136650498Y-35969829D01*
X136644216Y-35967788D01*
X136275184Y-35868906D01*
X136268734Y-35867535D01*
X135891371Y-35807766D01*
X135884833Y-35807080D01*
X135503301Y-35787084D01*
X135496699Y-35787084D01*
X135115167Y-35807080D01*
X135108629Y-35807766D01*
X134731266Y-35867535D01*
X134724816Y-35868906D01*
X134355784Y-35967788D01*
X134349502Y-35969829D01*
X133992836Y-36106740D01*
X133986811Y-36109422D01*
X133646397Y-36282872D01*
X133640687Y-36286169D01*
X133320265Y-36494253D01*
X133314939Y-36498123D01*
X133076165Y-36691478D01*
X133067700Y-36703733D01*
X114000000Y-36703733D01*
X114000000Y-35034500D01*
X114020002Y-34966379D01*
X114073658Y-34919886D01*
X114126000Y-34908500D01*
X135450633Y-34908500D01*
X135470018Y-34910000D01*
G37*
G04 #@! TD.AperFunction*
G04 #@! TD*
G04 #@! TA.AperFunction,Conductor*
G04 #@! TO.N,VCC*
G36*
X107942121Y-40153502D02*
G01*
X107988614Y-40207158D01*
X108000000Y-40259500D01*
X108000000Y-42000000D01*
X109859915Y-42000000D01*
X109873517Y-42000736D01*
X109885130Y-42001998D01*
X109886420Y-42002145D01*
X109969043Y-42011997D01*
X109978777Y-42013158D01*
X109984094Y-42012749D01*
X109989388Y-42013324D01*
X110050038Y-42008018D01*
X110081969Y-42005225D01*
X110083282Y-42005117D01*
X110144953Y-42000371D01*
X110154621Y-42000000D01*
X122947810Y-42000000D01*
X123015931Y-42020002D01*
X123036905Y-42036905D01*
X138784905Y-57784905D01*
X138818931Y-57847217D01*
X138813866Y-57918032D01*
X138771319Y-57974868D01*
X138704799Y-57999679D01*
X138695810Y-58000000D01*
X124052190Y-58000000D01*
X123984069Y-57979998D01*
X123963095Y-57963095D01*
X122000000Y-56000000D01*
X119047343Y-56000000D01*
X118979222Y-55979998D01*
X118964371Y-55968825D01*
X111013633Y-49011929D01*
X111000000Y-49000000D01*
X109000000Y-49000000D01*
X106036905Y-51963095D01*
X105974593Y-51997121D01*
X105947810Y-52000000D01*
X95000000Y-52000000D01*
X87000000Y-60000000D01*
X87000000Y-152000000D01*
X90963095Y-155963095D01*
X90997121Y-156025407D01*
X91000000Y-156052190D01*
X91000000Y-156342027D01*
X90979998Y-156410148D01*
X90926342Y-156456641D01*
X90873089Y-156466735D01*
X90873089Y-156467978D01*
X90522115Y-156467978D01*
X90506876Y-156472453D01*
X90505671Y-156473843D01*
X90504000Y-156481526D01*
X90504000Y-157000000D01*
X89996000Y-157000000D01*
X89996000Y-156486094D01*
X89991525Y-156470855D01*
X89990135Y-156469650D01*
X89982452Y-156467979D01*
X89630331Y-156467979D01*
X89623510Y-156468349D01*
X89572648Y-156473873D01*
X89557396Y-156477499D01*
X89436946Y-156522654D01*
X89421351Y-156531192D01*
X89319276Y-156607693D01*
X89306715Y-156620254D01*
X89230214Y-156722329D01*
X89221676Y-156737924D01*
X89176522Y-156858372D01*
X89172894Y-156873628D01*
X89171376Y-156887606D01*
X89144135Y-156953169D01*
X89085772Y-156993596D01*
X89046113Y-157000000D01*
X89000000Y-157000000D01*
X88665347Y-157167326D01*
X88595475Y-157179900D01*
X88529895Y-157152701D01*
X88489430Y-157094365D01*
X88483000Y-157054628D01*
X88483000Y-157017212D01*
X88482663Y-157010696D01*
X88472925Y-156916846D01*
X88470032Y-156903450D01*
X88419512Y-156752025D01*
X88413347Y-156738863D01*
X88329574Y-156603486D01*
X88320540Y-156592088D01*
X88207871Y-156479615D01*
X88196460Y-156470603D01*
X88060937Y-156387066D01*
X88047759Y-156380922D01*
X87896234Y-156330663D01*
X87882868Y-156327797D01*
X87790230Y-156318306D01*
X87783815Y-156317978D01*
X87772115Y-156317978D01*
X87756876Y-156322453D01*
X87755671Y-156323843D01*
X87754000Y-156331526D01*
X87754000Y-157491478D01*
X87751498Y-157500000D01*
X84247854Y-157500000D01*
X84246000Y-157491478D01*
X84246000Y-157091363D01*
X84754000Y-157091363D01*
X84758475Y-157106602D01*
X84759865Y-157107807D01*
X84767548Y-157109478D01*
X85464885Y-157109478D01*
X85480124Y-157105003D01*
X85481329Y-157103613D01*
X85483000Y-157095930D01*
X85483000Y-157091363D01*
X86517000Y-157091363D01*
X86521475Y-157106602D01*
X86522865Y-157107807D01*
X86530548Y-157109478D01*
X87227885Y-157109478D01*
X87243124Y-157105003D01*
X87244329Y-157103613D01*
X87246000Y-157095930D01*
X87246000Y-156336093D01*
X87241525Y-156320854D01*
X87240135Y-156319649D01*
X87232452Y-156317978D01*
X87216234Y-156317978D01*
X87209718Y-156318315D01*
X87115868Y-156328053D01*
X87102472Y-156330946D01*
X86951047Y-156381466D01*
X86937885Y-156387631D01*
X86802508Y-156471404D01*
X86791110Y-156480438D01*
X86678637Y-156593107D01*
X86669625Y-156604518D01*
X86586088Y-156740041D01*
X86579944Y-156753219D01*
X86529685Y-156904744D01*
X86526819Y-156918110D01*
X86517328Y-157010748D01*
X86517000Y-157017163D01*
X86517000Y-157091363D01*
X85483000Y-157091363D01*
X85483000Y-157017212D01*
X85482663Y-157010696D01*
X85472925Y-156916846D01*
X85470032Y-156903450D01*
X85419512Y-156752025D01*
X85413347Y-156738863D01*
X85329574Y-156603486D01*
X85320540Y-156592088D01*
X85207871Y-156479615D01*
X85196460Y-156470603D01*
X85060937Y-156387066D01*
X85047759Y-156380922D01*
X84896234Y-156330663D01*
X84882868Y-156327797D01*
X84790230Y-156318306D01*
X84783815Y-156317978D01*
X84772115Y-156317978D01*
X84756876Y-156322453D01*
X84755671Y-156323843D01*
X84754000Y-156331526D01*
X84754000Y-157091363D01*
X84246000Y-157091363D01*
X84246000Y-156336093D01*
X84241525Y-156320854D01*
X84240135Y-156319649D01*
X84232452Y-156317978D01*
X84216234Y-156317978D01*
X84209718Y-156318315D01*
X84115868Y-156328053D01*
X84102472Y-156330946D01*
X83951047Y-156381466D01*
X83937885Y-156387631D01*
X83802508Y-156471404D01*
X83791110Y-156480438D01*
X83678637Y-156593107D01*
X83669625Y-156604518D01*
X83586088Y-156740041D01*
X83579945Y-156753216D01*
X83546418Y-156854295D01*
X83505987Y-156912654D01*
X83440423Y-156939891D01*
X83370541Y-156927357D01*
X83342537Y-156908284D01*
X80250210Y-154125189D01*
X80212957Y-154064751D01*
X80208500Y-154031534D01*
X80208500Y-56893759D01*
X80228502Y-56825638D01*
X80255788Y-56795370D01*
X94997271Y-45002183D01*
X95000000Y-45000000D01*
X95963095Y-44036905D01*
X96025407Y-44002879D01*
X96052190Y-44000000D01*
X100000000Y-44000000D01*
X100000000Y-41424025D01*
X100020002Y-41355904D01*
X100064422Y-41317414D01*
X100094389Y-41282830D01*
X100094918Y-41283288D01*
X100101682Y-41270900D01*
X100121839Y-41255793D01*
X100121705Y-41255615D01*
X100162338Y-41225162D01*
X100238261Y-41168261D01*
X100298175Y-41088319D01*
X100355033Y-41045804D01*
X100425851Y-41040778D01*
X100488145Y-41074838D01*
X100522135Y-41137169D01*
X100525000Y-41163884D01*
X100525000Y-41294884D01*
X100529475Y-41310123D01*
X100530865Y-41311328D01*
X100538548Y-41312999D01*
X100569669Y-41312999D01*
X100576490Y-41312629D01*
X100627352Y-41307105D01*
X100642604Y-41303479D01*
X100763054Y-41258324D01*
X100778649Y-41249786D01*
X100798435Y-41234957D01*
X100864942Y-41210109D01*
X100934324Y-41225162D01*
X100984554Y-41275337D01*
X101000000Y-41335783D01*
X101000000Y-43000000D01*
X105000000Y-43000000D01*
X105000000Y-41721124D01*
X105020002Y-41653003D01*
X105073658Y-41606510D01*
X105143932Y-41596406D01*
X105208512Y-41625900D01*
X105215018Y-41631951D01*
X105329629Y-41746363D01*
X105341040Y-41755375D01*
X105476563Y-41838912D01*
X105489741Y-41845056D01*
X105641266Y-41895315D01*
X105654632Y-41898181D01*
X105747270Y-41907672D01*
X105753685Y-41908000D01*
X105765385Y-41908000D01*
X105780624Y-41903525D01*
X105781829Y-41902135D01*
X105783500Y-41894452D01*
X105783500Y-41889885D01*
X106291500Y-41889885D01*
X106295975Y-41905124D01*
X106297365Y-41906329D01*
X106305048Y-41908000D01*
X106321266Y-41908000D01*
X106327782Y-41907663D01*
X106421632Y-41897925D01*
X106435028Y-41895032D01*
X106586453Y-41844512D01*
X106599615Y-41838347D01*
X106734992Y-41754574D01*
X106746390Y-41745540D01*
X106858863Y-41632871D01*
X106867875Y-41621460D01*
X106951412Y-41485937D01*
X106957556Y-41472759D01*
X107007815Y-41321234D01*
X107010681Y-41307868D01*
X107020172Y-41215230D01*
X107020500Y-41208815D01*
X107020500Y-41147115D01*
X107016025Y-41131876D01*
X107014635Y-41130671D01*
X107006952Y-41129000D01*
X106309615Y-41129000D01*
X106294376Y-41133475D01*
X106293171Y-41134865D01*
X106291500Y-41142548D01*
X106291500Y-41889885D01*
X105783500Y-41889885D01*
X105783500Y-40747000D01*
X105803502Y-40678879D01*
X105857158Y-40632386D01*
X105909500Y-40621000D01*
X107002385Y-40621000D01*
X107017624Y-40616525D01*
X107018829Y-40615135D01*
X107020500Y-40607452D01*
X107020500Y-40541234D01*
X107020163Y-40534718D01*
X107010425Y-40440868D01*
X107007532Y-40427472D01*
X106964796Y-40299376D01*
X106962212Y-40228426D01*
X106998396Y-40167342D01*
X107061860Y-40135518D01*
X107084320Y-40133500D01*
X107874000Y-40133500D01*
X107942121Y-40153502D01*
G37*
G04 #@! TD.AperFunction*
G04 #@! TD*
G04 #@! TA.AperFunction,Conductor*
G04 #@! TO.N,+3.3VA*
G36*
X135763931Y-88020002D02*
G01*
X135810424Y-88073658D01*
X135820528Y-88143932D01*
X135791034Y-88208512D01*
X135784905Y-88215095D01*
X132000000Y-92000000D01*
X132000000Y-92858414D01*
X131999355Y-92871146D01*
X131997219Y-92892177D01*
X131997086Y-92893427D01*
X131986719Y-92985851D01*
X131987165Y-92991159D01*
X131986626Y-92996462D01*
X131987206Y-93002593D01*
X131995375Y-93089016D01*
X131995492Y-93090330D01*
X131999558Y-93138750D01*
X132000000Y-93149294D01*
X132000000Y-95858414D01*
X131999355Y-95871146D01*
X131997219Y-95892177D01*
X131997086Y-95893427D01*
X131986719Y-95985851D01*
X131987165Y-95991159D01*
X131986626Y-95996462D01*
X131987206Y-96002593D01*
X131995375Y-96089016D01*
X131995492Y-96090330D01*
X131999558Y-96138750D01*
X132000000Y-96149294D01*
X132000000Y-97000000D01*
X133905604Y-97952802D01*
X133957588Y-98001157D01*
X133975177Y-98069940D01*
X133952786Y-98137314D01*
X133897526Y-98181887D01*
X133849255Y-98191500D01*
X133413877Y-98191500D01*
X133351695Y-98198255D01*
X133215306Y-98249385D01*
X133098750Y-98336739D01*
X133011396Y-98453295D01*
X132960266Y-98589684D01*
X132953511Y-98651866D01*
X132953511Y-99348134D01*
X132960266Y-99410316D01*
X133011396Y-99546705D01*
X133098750Y-99663261D01*
X133215306Y-99750615D01*
X133351695Y-99801745D01*
X133413877Y-99808500D01*
X133874000Y-99808500D01*
X133942121Y-99828502D01*
X133988614Y-99882158D01*
X134000000Y-99934500D01*
X134000000Y-99950000D01*
X133999739Y-99950000D01*
X133996299Y-100008530D01*
X133954478Y-100065901D01*
X133888278Y-100091555D01*
X133877694Y-100092000D01*
X133417343Y-100092001D01*
X133410521Y-100092371D01*
X133359659Y-100097895D01*
X133344407Y-100101521D01*
X133223957Y-100146676D01*
X133208362Y-100155214D01*
X133106287Y-100231715D01*
X133093726Y-100244276D01*
X133017225Y-100346351D01*
X133008687Y-100361946D01*
X132963533Y-100482394D01*
X132959906Y-100497649D01*
X132954380Y-100548514D01*
X132954011Y-100555328D01*
X132954011Y-100627885D01*
X132958486Y-100643124D01*
X132959876Y-100644329D01*
X132967559Y-100646000D01*
X134165011Y-100646000D01*
X134233132Y-100666002D01*
X134279625Y-100719658D01*
X134291011Y-100772000D01*
X134291011Y-101689884D01*
X134295486Y-101705123D01*
X134296876Y-101706328D01*
X134304559Y-101707999D01*
X134656680Y-101707999D01*
X134663501Y-101707629D01*
X134714363Y-101702105D01*
X134737304Y-101696651D01*
X134737812Y-101698789D01*
X134797405Y-101694427D01*
X134859774Y-101728348D01*
X134884073Y-101762350D01*
X134976502Y-101951830D01*
X134988390Y-102021822D01*
X134981596Y-102050335D01*
X134652649Y-102949993D01*
X134610472Y-103007100D01*
X134574191Y-103026245D01*
X134555904Y-103032346D01*
X134407980Y-103123884D01*
X134375780Y-103156141D01*
X134313499Y-103190220D01*
X134242679Y-103185218D01*
X134197589Y-103156296D01*
X134169882Y-103128637D01*
X134158471Y-103119625D01*
X134022948Y-103036088D01*
X134009770Y-103029944D01*
X133858245Y-102979685D01*
X133844879Y-102976819D01*
X133752241Y-102967328D01*
X133745826Y-102967000D01*
X133684126Y-102967000D01*
X133668887Y-102971475D01*
X133667682Y-102972865D01*
X133666011Y-102980548D01*
X133666011Y-104914885D01*
X133670486Y-104930124D01*
X133671876Y-104931329D01*
X133679559Y-104933000D01*
X133745777Y-104933000D01*
X133752293Y-104932663D01*
X133846143Y-104922925D01*
X133859539Y-104920032D01*
X133987635Y-104877296D01*
X134058585Y-104874712D01*
X134119669Y-104910896D01*
X134151493Y-104974360D01*
X134153511Y-104996820D01*
X134153511Y-106295376D01*
X134153308Y-106302526D01*
X134015963Y-108719126D01*
X133992128Y-108786002D01*
X133935921Y-108829375D01*
X133865186Y-108835475D01*
X133801071Y-108801071D01*
X129233766Y-104233766D01*
X132379011Y-104233766D01*
X132379348Y-104240282D01*
X132389086Y-104334132D01*
X132391979Y-104347528D01*
X132442499Y-104498953D01*
X132448664Y-104512115D01*
X132532437Y-104647492D01*
X132541471Y-104658890D01*
X132654140Y-104771363D01*
X132665551Y-104780375D01*
X132801074Y-104863912D01*
X132814252Y-104870056D01*
X132965777Y-104920315D01*
X132979143Y-104923181D01*
X133071781Y-104932672D01*
X133078196Y-104933000D01*
X133139896Y-104933000D01*
X133155135Y-104928525D01*
X133156340Y-104927135D01*
X133158011Y-104919452D01*
X133158011Y-104222115D01*
X133153536Y-104206876D01*
X133152146Y-104205671D01*
X133144463Y-104204000D01*
X132397126Y-104204000D01*
X132381887Y-104208475D01*
X132380682Y-104209865D01*
X132379011Y-104217548D01*
X132379011Y-104233766D01*
X129233766Y-104233766D01*
X128677885Y-103677885D01*
X132379011Y-103677885D01*
X132383486Y-103693124D01*
X132384876Y-103694329D01*
X132392559Y-103696000D01*
X133139896Y-103696000D01*
X133155135Y-103691525D01*
X133156340Y-103690135D01*
X133158011Y-103682452D01*
X133158011Y-102985115D01*
X133153536Y-102969876D01*
X133152146Y-102968671D01*
X133144463Y-102967000D01*
X133078245Y-102967000D01*
X133071729Y-102967337D01*
X132977879Y-102977075D01*
X132964483Y-102979968D01*
X132813058Y-103030488D01*
X132799896Y-103036653D01*
X132664519Y-103120426D01*
X132653121Y-103129460D01*
X132540648Y-103242129D01*
X132531636Y-103253540D01*
X132448099Y-103389063D01*
X132441955Y-103402241D01*
X132391696Y-103553766D01*
X132388830Y-103567132D01*
X132379339Y-103659770D01*
X132379011Y-103666185D01*
X132379011Y-103677885D01*
X128677885Y-103677885D01*
X126244669Y-101244669D01*
X132954012Y-101244669D01*
X132954382Y-101251490D01*
X132959906Y-101302352D01*
X132963532Y-101317604D01*
X133008687Y-101438054D01*
X133017225Y-101453649D01*
X133093726Y-101555724D01*
X133106287Y-101568285D01*
X133208362Y-101644786D01*
X133223957Y-101653324D01*
X133344405Y-101698478D01*
X133359660Y-101702105D01*
X133410525Y-101707631D01*
X133417339Y-101708000D01*
X133764896Y-101708000D01*
X133780135Y-101703525D01*
X133781340Y-101702135D01*
X133783011Y-101694452D01*
X133783011Y-101172115D01*
X133778536Y-101156876D01*
X133777146Y-101155671D01*
X133769463Y-101154000D01*
X132972127Y-101154000D01*
X132956888Y-101158475D01*
X132955683Y-101159865D01*
X132954012Y-101167548D01*
X132954012Y-101244669D01*
X126244669Y-101244669D01*
X121000000Y-96000000D01*
X116000000Y-96000000D01*
X114026604Y-96986698D01*
X113970255Y-97000000D01*
X109000000Y-97000000D01*
X108984479Y-97010347D01*
X108984477Y-97010348D01*
X108280912Y-97479392D01*
X108222440Y-97500035D01*
X108178752Y-97504011D01*
X108178750Y-97504011D01*
X108172612Y-97504570D01*
X108166706Y-97506308D01*
X108166702Y-97506309D01*
X108149494Y-97511374D01*
X108113919Y-97516500D01*
X108012928Y-97516500D01*
X108009682Y-97516837D01*
X108009678Y-97516837D01*
X107915765Y-97526581D01*
X107915761Y-97526582D01*
X107908907Y-97527293D01*
X107902371Y-97529474D01*
X107902369Y-97529474D01*
X107769605Y-97573768D01*
X107743893Y-97582346D01*
X107595969Y-97673884D01*
X107590797Y-97679065D01*
X107588727Y-97681139D01*
X107586962Y-97682105D01*
X107585059Y-97683613D01*
X107584801Y-97683287D01*
X107526446Y-97715219D01*
X107455625Y-97710218D01*
X107410530Y-97681292D01*
X107407869Y-97678636D01*
X107396460Y-97669625D01*
X107260937Y-97586088D01*
X107247759Y-97579944D01*
X107096234Y-97529685D01*
X107082868Y-97526819D01*
X106990230Y-97517328D01*
X106983815Y-97517000D01*
X106909615Y-97517000D01*
X106894376Y-97521475D01*
X106893171Y-97522865D01*
X106891500Y-97530548D01*
X106891500Y-98628000D01*
X106871498Y-98696121D01*
X106817842Y-98742614D01*
X106765500Y-98754000D01*
X106509500Y-98754000D01*
X106441379Y-98733998D01*
X106394886Y-98680342D01*
X106383500Y-98628000D01*
X106383500Y-97535115D01*
X106379025Y-97519876D01*
X106356007Y-97499931D01*
X106317623Y-97440205D01*
X106317623Y-97369208D01*
X106325819Y-97348362D01*
X106985036Y-96029928D01*
X107027842Y-95981439D01*
X108501167Y-94999222D01*
X109974493Y-94017005D01*
X110030468Y-93996615D01*
X119000000Y-93000000D01*
X123000000Y-92000000D01*
X123025624Y-91987188D01*
X124996499Y-91001751D01*
X124996505Y-91001747D01*
X125000000Y-91000000D01*
X127968257Y-89021162D01*
X128038149Y-89000000D01*
X130000000Y-89000000D01*
X131918835Y-88013932D01*
X131976426Y-88000000D01*
X135695810Y-88000000D01*
X135763931Y-88020002D01*
G37*
G04 #@! TD.AperFunction*
G04 #@! TD*
G04 #@! TA.AperFunction,Conductor*
G04 #@! TO.N,+3V3*
G36*
X94575888Y-58520002D02*
G01*
X94622381Y-58573658D01*
X94632485Y-58643932D01*
X94615027Y-58692116D01*
X94586088Y-58739063D01*
X94579944Y-58752241D01*
X94529685Y-58903766D01*
X94526819Y-58917132D01*
X94517328Y-59009770D01*
X94517000Y-59016185D01*
X94517000Y-59090385D01*
X94521475Y-59105624D01*
X94522865Y-59106829D01*
X94530548Y-59108500D01*
X95628000Y-59108500D01*
X95696121Y-59128502D01*
X95742614Y-59182158D01*
X95754000Y-59234500D01*
X95754000Y-60389885D01*
X95758475Y-60405124D01*
X95759865Y-60406329D01*
X95767548Y-60408000D01*
X95783766Y-60408000D01*
X95790280Y-60407663D01*
X95860995Y-60400325D01*
X95930817Y-60413189D01*
X95982599Y-60461760D01*
X96000000Y-60525652D01*
X96000000Y-60874000D01*
X95979998Y-60942121D01*
X95926342Y-60988614D01*
X95874000Y-61000000D01*
X95000000Y-61000000D01*
X91000000Y-65000000D01*
X91000000Y-89000000D01*
X92963095Y-90963095D01*
X92997121Y-91025407D01*
X93000000Y-91052190D01*
X93000000Y-97000000D01*
X95000000Y-97000000D01*
X95667095Y-96332905D01*
X95729407Y-96298879D01*
X95756190Y-96296000D01*
X96262269Y-96296000D01*
X96265325Y-96295700D01*
X96265332Y-96295700D01*
X96323840Y-96289963D01*
X96409333Y-96281580D01*
X96415234Y-96279798D01*
X96415236Y-96279798D01*
X96508330Y-96251691D01*
X96598669Y-96224416D01*
X96773296Y-96131566D01*
X96803410Y-96107006D01*
X96853930Y-96065802D01*
X96899843Y-96028357D01*
X96965274Y-96000803D01*
X96979478Y-96000000D01*
X97947810Y-96000000D01*
X98015931Y-96020002D01*
X98036905Y-96036905D01*
X99308358Y-97308358D01*
X99342384Y-97370670D01*
X99337319Y-97441485D01*
X99294772Y-97498321D01*
X99232267Y-97522780D01*
X99190868Y-97527075D01*
X99177472Y-97529968D01*
X99026047Y-97580488D01*
X99012885Y-97586653D01*
X98877508Y-97670426D01*
X98866110Y-97679460D01*
X98753637Y-97792129D01*
X98744625Y-97803540D01*
X98661088Y-97939063D01*
X98654944Y-97952241D01*
X98604685Y-98103766D01*
X98601819Y-98117132D01*
X98592328Y-98209770D01*
X98592000Y-98216185D01*
X98592000Y-98227885D01*
X98596475Y-98243124D01*
X98597865Y-98244329D01*
X98605548Y-98246000D01*
X99765500Y-98246000D01*
X99833621Y-98266002D01*
X99880114Y-98319658D01*
X99891500Y-98372000D01*
X99891500Y-99464885D01*
X99895975Y-99480124D01*
X99897365Y-99481329D01*
X99905048Y-99483000D01*
X99983766Y-99483000D01*
X99990282Y-99482663D01*
X100084132Y-99472925D01*
X100097528Y-99470032D01*
X100248953Y-99419512D01*
X100262117Y-99413346D01*
X100307697Y-99385140D01*
X100376149Y-99366302D01*
X100443919Y-99387463D01*
X100489490Y-99441904D01*
X100500000Y-99492284D01*
X100500000Y-100507767D01*
X100479998Y-100575888D01*
X100426342Y-100622381D01*
X100356068Y-100632485D01*
X100307884Y-100615027D01*
X100260937Y-100586088D01*
X100247759Y-100579944D01*
X100096234Y-100529685D01*
X100082868Y-100526819D01*
X99990230Y-100517328D01*
X99983815Y-100517000D01*
X99909615Y-100517000D01*
X99894376Y-100521475D01*
X99893171Y-100522865D01*
X99891500Y-100530548D01*
X99891500Y-102464885D01*
X99895975Y-102480124D01*
X99897365Y-102481329D01*
X99905048Y-102483000D01*
X99983766Y-102483000D01*
X99990282Y-102482663D01*
X100084132Y-102472925D01*
X100097528Y-102470032D01*
X100248953Y-102419512D01*
X100262117Y-102413346D01*
X100307697Y-102385140D01*
X100376149Y-102366302D01*
X100443919Y-102387463D01*
X100489490Y-102441904D01*
X100500000Y-102492284D01*
X100500000Y-103507767D01*
X100479998Y-103575888D01*
X100426342Y-103622381D01*
X100356068Y-103632485D01*
X100307884Y-103615027D01*
X100260937Y-103586088D01*
X100247759Y-103579944D01*
X100096234Y-103529685D01*
X100082868Y-103526819D01*
X99990230Y-103517328D01*
X99983815Y-103517000D01*
X99909615Y-103517000D01*
X99894376Y-103521475D01*
X99893171Y-103522865D01*
X99891500Y-103530548D01*
X99891500Y-105464885D01*
X99895975Y-105480124D01*
X99897365Y-105481329D01*
X99905048Y-105483000D01*
X99983766Y-105483000D01*
X99990282Y-105482663D01*
X100084132Y-105472925D01*
X100097528Y-105470032D01*
X100248953Y-105419512D01*
X100262117Y-105413346D01*
X100307697Y-105385140D01*
X100376149Y-105366302D01*
X100443919Y-105387463D01*
X100489490Y-105441904D01*
X100500000Y-105492284D01*
X100500000Y-105874000D01*
X100479998Y-105942121D01*
X100426342Y-105988614D01*
X100374000Y-106000000D01*
X97500000Y-106000000D01*
X97500000Y-107507767D01*
X97479998Y-107575888D01*
X97426342Y-107622381D01*
X97356068Y-107632485D01*
X97307884Y-107615027D01*
X97260937Y-107586088D01*
X97247759Y-107579944D01*
X97096234Y-107529685D01*
X97082868Y-107526819D01*
X96990230Y-107517328D01*
X96983815Y-107517000D01*
X96909615Y-107517000D01*
X96894376Y-107521475D01*
X96893171Y-107522865D01*
X96891500Y-107530548D01*
X96891500Y-109464885D01*
X96895975Y-109480124D01*
X96897365Y-109481329D01*
X96905048Y-109483000D01*
X96983766Y-109483000D01*
X96990282Y-109482663D01*
X97084132Y-109472925D01*
X97097528Y-109470032D01*
X97248953Y-109419512D01*
X97262117Y-109413346D01*
X97307697Y-109385140D01*
X97376149Y-109366302D01*
X97443919Y-109387463D01*
X97489490Y-109441904D01*
X97500000Y-109492284D01*
X97500000Y-110000000D01*
X99858414Y-110000000D01*
X99871145Y-110000645D01*
X99878781Y-110001420D01*
X99888227Y-110002380D01*
X99890412Y-110002621D01*
X99953222Y-110010111D01*
X99978777Y-110013158D01*
X99984913Y-110012686D01*
X99985868Y-110012706D01*
X99986387Y-110012738D01*
X99986495Y-110012738D01*
X99988708Y-110012765D01*
X99988856Y-110012768D01*
X99989401Y-110012748D01*
X99990329Y-110012751D01*
X99996462Y-110013374D01*
X100085088Y-110004997D01*
X100087241Y-110004812D01*
X100116137Y-110002589D01*
X100144955Y-110000371D01*
X100154622Y-110000000D01*
X100874000Y-110000000D01*
X100942121Y-110020002D01*
X100988614Y-110073658D01*
X101000000Y-110126000D01*
X101000000Y-111548692D01*
X100979998Y-111616813D01*
X100947534Y-111649431D01*
X100948074Y-111650108D01*
X100888521Y-111697649D01*
X100827028Y-111746738D01*
X100598094Y-111975672D01*
X100535782Y-112009698D01*
X100464967Y-112004633D01*
X100408131Y-111962086D01*
X100383320Y-111895566D01*
X100382999Y-111886577D01*
X100382999Y-111755331D01*
X100382629Y-111748510D01*
X100377105Y-111697648D01*
X100373479Y-111682396D01*
X100328324Y-111561946D01*
X100319786Y-111546351D01*
X100243285Y-111444276D01*
X100230724Y-111431715D01*
X100128649Y-111355214D01*
X100113054Y-111346676D01*
X99992606Y-111301522D01*
X99977351Y-111297895D01*
X99926486Y-111292369D01*
X99919672Y-111292000D01*
X99597115Y-111292000D01*
X99581876Y-111296475D01*
X99580671Y-111297865D01*
X99579000Y-111305548D01*
X99579000Y-112578000D01*
X99558998Y-112646121D01*
X99505342Y-112692614D01*
X99453000Y-112704000D01*
X96635116Y-112704000D01*
X96619877Y-112708475D01*
X96618672Y-112709865D01*
X96617001Y-112717548D01*
X96617001Y-112874000D01*
X96596999Y-112942121D01*
X96543343Y-112988614D01*
X96491001Y-113000000D01*
X95000000Y-113000000D01*
X95000000Y-145374000D01*
X94979998Y-145442121D01*
X94926342Y-145488614D01*
X94874000Y-145500000D01*
X92500000Y-145500000D01*
X92500000Y-151500000D01*
X92974251Y-151500000D01*
X93042372Y-151520002D01*
X93088865Y-151573658D01*
X93099595Y-151638843D01*
X93092328Y-151709770D01*
X93092000Y-151716185D01*
X93092000Y-151727885D01*
X93096475Y-151743124D01*
X93097865Y-151744329D01*
X93105548Y-151746000D01*
X94253000Y-151746000D01*
X94321121Y-151766002D01*
X94367614Y-151819658D01*
X94379000Y-151872000D01*
X94379000Y-152964885D01*
X94383475Y-152980124D01*
X94384865Y-152981329D01*
X94392548Y-152983000D01*
X94458766Y-152983000D01*
X94465282Y-152982663D01*
X94559132Y-152972925D01*
X94572528Y-152970032D01*
X94723953Y-152919512D01*
X94737111Y-152913349D01*
X94807697Y-152869669D01*
X94876149Y-152850832D01*
X94943919Y-152871994D01*
X94989490Y-152926435D01*
X95000000Y-152976814D01*
X95000000Y-157874000D01*
X94979998Y-157942121D01*
X94926342Y-157988614D01*
X94874000Y-158000000D01*
X93889141Y-158000000D01*
X93821020Y-157979998D01*
X93774527Y-157926342D01*
X93764423Y-157856068D01*
X93775585Y-157822595D01*
X93775172Y-157822440D01*
X93823478Y-157693584D01*
X93827105Y-157678329D01*
X93832631Y-157627464D01*
X93833000Y-157620650D01*
X93833000Y-157548093D01*
X93828525Y-157532854D01*
X93827135Y-157531649D01*
X93819452Y-157529978D01*
X92622000Y-157529978D01*
X92553879Y-157509976D01*
X92507386Y-157456320D01*
X92496000Y-157403978D01*
X92496000Y-157003863D01*
X93004000Y-157003863D01*
X93008475Y-157019102D01*
X93009865Y-157020307D01*
X93017548Y-157021978D01*
X93814884Y-157021978D01*
X93830123Y-157017503D01*
X93831328Y-157016113D01*
X93832999Y-157008430D01*
X93832999Y-156931309D01*
X93832629Y-156924488D01*
X93827105Y-156873626D01*
X93823479Y-156858374D01*
X93778324Y-156737924D01*
X93769786Y-156722329D01*
X93693285Y-156620254D01*
X93680724Y-156607693D01*
X93578649Y-156531192D01*
X93563054Y-156522654D01*
X93442606Y-156477500D01*
X93427351Y-156473873D01*
X93376486Y-156468347D01*
X93369672Y-156467978D01*
X93022115Y-156467978D01*
X93006876Y-156472453D01*
X93005671Y-156473843D01*
X93004000Y-156481526D01*
X93004000Y-157003863D01*
X92496000Y-157003863D01*
X92496000Y-156486094D01*
X92491525Y-156470855D01*
X92490135Y-156469650D01*
X92482452Y-156467979D01*
X92126912Y-156467979D01*
X92126912Y-156466466D01*
X92063664Y-156451528D01*
X92014360Y-156400444D01*
X92000000Y-156342028D01*
X92000000Y-156000000D01*
X88283766Y-152283766D01*
X93092000Y-152283766D01*
X93092337Y-152290282D01*
X93102075Y-152384132D01*
X93104968Y-152397528D01*
X93155488Y-152548953D01*
X93161653Y-152562115D01*
X93245426Y-152697492D01*
X93254460Y-152708890D01*
X93367129Y-152821363D01*
X93378540Y-152830375D01*
X93514063Y-152913912D01*
X93527241Y-152920056D01*
X93678766Y-152970315D01*
X93692132Y-152973181D01*
X93784770Y-152982672D01*
X93791185Y-152983000D01*
X93852885Y-152983000D01*
X93868124Y-152978525D01*
X93869329Y-152977135D01*
X93871000Y-152969452D01*
X93871000Y-152272115D01*
X93866525Y-152256876D01*
X93865135Y-152255671D01*
X93857452Y-152254000D01*
X93110115Y-152254000D01*
X93094876Y-152258475D01*
X93093671Y-152259865D01*
X93092000Y-152267548D01*
X93092000Y-152283766D01*
X88283766Y-152283766D01*
X88036905Y-152036905D01*
X88002879Y-151974593D01*
X88000000Y-151947810D01*
X88000000Y-112177885D01*
X96617000Y-112177885D01*
X96621475Y-112193124D01*
X96622865Y-112194329D01*
X96630548Y-112196000D01*
X97402885Y-112196000D01*
X97418124Y-112191525D01*
X97419329Y-112190135D01*
X97421000Y-112182452D01*
X97421000Y-112177885D01*
X97929000Y-112177885D01*
X97933475Y-112193124D01*
X97934865Y-112194329D01*
X97942548Y-112196000D01*
X99052885Y-112196000D01*
X99068124Y-112191525D01*
X99069329Y-112190135D01*
X99071000Y-112182452D01*
X99071000Y-111310116D01*
X99066525Y-111294877D01*
X99065135Y-111293672D01*
X99057452Y-111292001D01*
X98730331Y-111292001D01*
X98723510Y-111292371D01*
X98672648Y-111297895D01*
X98657394Y-111301522D01*
X98544229Y-111343945D01*
X98473422Y-111349128D01*
X98455771Y-111343945D01*
X98342609Y-111301522D01*
X98327351Y-111297895D01*
X98276486Y-111292369D01*
X98269672Y-111292000D01*
X97947115Y-111292000D01*
X97931876Y-111296475D01*
X97930671Y-111297865D01*
X97929000Y-111305548D01*
X97929000Y-112177885D01*
X97421000Y-112177885D01*
X97421000Y-111310116D01*
X97416525Y-111294877D01*
X97415135Y-111293672D01*
X97407452Y-111292001D01*
X97080331Y-111292001D01*
X97073510Y-111292371D01*
X97022648Y-111297895D01*
X97007396Y-111301521D01*
X96886946Y-111346676D01*
X96871351Y-111355214D01*
X96769276Y-111431715D01*
X96756715Y-111444276D01*
X96680214Y-111546351D01*
X96671676Y-111561946D01*
X96626522Y-111682394D01*
X96622895Y-111697649D01*
X96617369Y-111748514D01*
X96617000Y-111755328D01*
X96617000Y-112177885D01*
X88000000Y-112177885D01*
X88000000Y-108783766D01*
X95592000Y-108783766D01*
X95592337Y-108790282D01*
X95602075Y-108884132D01*
X95604968Y-108897528D01*
X95655488Y-109048953D01*
X95661653Y-109062115D01*
X95745426Y-109197492D01*
X95754460Y-109208890D01*
X95867129Y-109321363D01*
X95878540Y-109330375D01*
X96014063Y-109413912D01*
X96027241Y-109420056D01*
X96178766Y-109470315D01*
X96192132Y-109473181D01*
X96284770Y-109482672D01*
X96291185Y-109483000D01*
X96365385Y-109483000D01*
X96380624Y-109478525D01*
X96381829Y-109477135D01*
X96383500Y-109469452D01*
X96383500Y-108772115D01*
X96379025Y-108756876D01*
X96377635Y-108755671D01*
X96369952Y-108754000D01*
X95610115Y-108754000D01*
X95594876Y-108758475D01*
X95593671Y-108759865D01*
X95592000Y-108767548D01*
X95592000Y-108783766D01*
X88000000Y-108783766D01*
X88000000Y-108227885D01*
X95592000Y-108227885D01*
X95596475Y-108243124D01*
X95597865Y-108244329D01*
X95605548Y-108246000D01*
X96365385Y-108246000D01*
X96380624Y-108241525D01*
X96381829Y-108240135D01*
X96383500Y-108232452D01*
X96383500Y-107535115D01*
X96379025Y-107519876D01*
X96377635Y-107518671D01*
X96369952Y-107517000D01*
X96291234Y-107517000D01*
X96284718Y-107517337D01*
X96190868Y-107527075D01*
X96177472Y-107529968D01*
X96026047Y-107580488D01*
X96012885Y-107586653D01*
X95877508Y-107670426D01*
X95866110Y-107679460D01*
X95753637Y-107792129D01*
X95744625Y-107803540D01*
X95661088Y-107939063D01*
X95654944Y-107952241D01*
X95604685Y-108103766D01*
X95601819Y-108117132D01*
X95592328Y-108209770D01*
X95592000Y-108216185D01*
X95592000Y-108227885D01*
X88000000Y-108227885D01*
X88000000Y-104783766D01*
X98592000Y-104783766D01*
X98592337Y-104790282D01*
X98602075Y-104884132D01*
X98604968Y-104897528D01*
X98655488Y-105048953D01*
X98661653Y-105062115D01*
X98745426Y-105197492D01*
X98754460Y-105208890D01*
X98867129Y-105321363D01*
X98878540Y-105330375D01*
X99014063Y-105413912D01*
X99027241Y-105420056D01*
X99178766Y-105470315D01*
X99192132Y-105473181D01*
X99284770Y-105482672D01*
X99291185Y-105483000D01*
X99365385Y-105483000D01*
X99380624Y-105478525D01*
X99381829Y-105477135D01*
X99383500Y-105469452D01*
X99383500Y-104772115D01*
X99379025Y-104756876D01*
X99377635Y-104755671D01*
X99369952Y-104754000D01*
X98610115Y-104754000D01*
X98594876Y-104758475D01*
X98593671Y-104759865D01*
X98592000Y-104767548D01*
X98592000Y-104783766D01*
X88000000Y-104783766D01*
X88000000Y-104227885D01*
X98592000Y-104227885D01*
X98596475Y-104243124D01*
X98597865Y-104244329D01*
X98605548Y-104246000D01*
X99365385Y-104246000D01*
X99380624Y-104241525D01*
X99381829Y-104240135D01*
X99383500Y-104232452D01*
X99383500Y-103535115D01*
X99379025Y-103519876D01*
X99377635Y-103518671D01*
X99369952Y-103517000D01*
X99291234Y-103517000D01*
X99284718Y-103517337D01*
X99190868Y-103527075D01*
X99177472Y-103529968D01*
X99026047Y-103580488D01*
X99012885Y-103586653D01*
X98877508Y-103670426D01*
X98866110Y-103679460D01*
X98753637Y-103792129D01*
X98744625Y-103803540D01*
X98661088Y-103939063D01*
X98654944Y-103952241D01*
X98604685Y-104103766D01*
X98601819Y-104117132D01*
X98592328Y-104209770D01*
X98592000Y-104216185D01*
X98592000Y-104227885D01*
X88000000Y-104227885D01*
X88000000Y-101783766D01*
X98592000Y-101783766D01*
X98592337Y-101790282D01*
X98602075Y-101884132D01*
X98604968Y-101897528D01*
X98655488Y-102048953D01*
X98661653Y-102062115D01*
X98745426Y-102197492D01*
X98754460Y-102208890D01*
X98867129Y-102321363D01*
X98878540Y-102330375D01*
X99014063Y-102413912D01*
X99027241Y-102420056D01*
X99178766Y-102470315D01*
X99192132Y-102473181D01*
X99284770Y-102482672D01*
X99291185Y-102483000D01*
X99365385Y-102483000D01*
X99380624Y-102478525D01*
X99381829Y-102477135D01*
X99383500Y-102469452D01*
X99383500Y-101772115D01*
X99379025Y-101756876D01*
X99377635Y-101755671D01*
X99369952Y-101754000D01*
X98610115Y-101754000D01*
X98594876Y-101758475D01*
X98593671Y-101759865D01*
X98592000Y-101767548D01*
X98592000Y-101783766D01*
X88000000Y-101783766D01*
X88000000Y-101227885D01*
X98592000Y-101227885D01*
X98596475Y-101243124D01*
X98597865Y-101244329D01*
X98605548Y-101246000D01*
X99365385Y-101246000D01*
X99380624Y-101241525D01*
X99381829Y-101240135D01*
X99383500Y-101232452D01*
X99383500Y-100535115D01*
X99379025Y-100519876D01*
X99377635Y-100518671D01*
X99369952Y-100517000D01*
X99291234Y-100517000D01*
X99284718Y-100517337D01*
X99190868Y-100527075D01*
X99177472Y-100529968D01*
X99026047Y-100580488D01*
X99012885Y-100586653D01*
X98877508Y-100670426D01*
X98866110Y-100679460D01*
X98753637Y-100792129D01*
X98744625Y-100803540D01*
X98661088Y-100939063D01*
X98654944Y-100952241D01*
X98604685Y-101103766D01*
X98601819Y-101117132D01*
X98592328Y-101209770D01*
X98592000Y-101216185D01*
X98592000Y-101227885D01*
X88000000Y-101227885D01*
X88000000Y-98783766D01*
X98592000Y-98783766D01*
X98592337Y-98790282D01*
X98602075Y-98884132D01*
X98604968Y-98897528D01*
X98655488Y-99048953D01*
X98661653Y-99062115D01*
X98745426Y-99197492D01*
X98754460Y-99208890D01*
X98867129Y-99321363D01*
X98878540Y-99330375D01*
X99014063Y-99413912D01*
X99027241Y-99420056D01*
X99178766Y-99470315D01*
X99192132Y-99473181D01*
X99284770Y-99482672D01*
X99291185Y-99483000D01*
X99365385Y-99483000D01*
X99380624Y-99478525D01*
X99381829Y-99477135D01*
X99383500Y-99469452D01*
X99383500Y-98772115D01*
X99379025Y-98756876D01*
X99377635Y-98755671D01*
X99369952Y-98754000D01*
X98610115Y-98754000D01*
X98594876Y-98758475D01*
X98593671Y-98759865D01*
X98592000Y-98767548D01*
X98592000Y-98783766D01*
X88000000Y-98783766D01*
X88000000Y-64055427D01*
X88020002Y-63987306D01*
X88040859Y-63962546D01*
X92094877Y-60246363D01*
X92681346Y-59708766D01*
X94517000Y-59708766D01*
X94517337Y-59715282D01*
X94527075Y-59809132D01*
X94529968Y-59822528D01*
X94580488Y-59973953D01*
X94586653Y-59987115D01*
X94670426Y-60122492D01*
X94679460Y-60133890D01*
X94792129Y-60246363D01*
X94803540Y-60255375D01*
X94939063Y-60338912D01*
X94952241Y-60345056D01*
X95103766Y-60395315D01*
X95117132Y-60398181D01*
X95209770Y-60407672D01*
X95216185Y-60408000D01*
X95227885Y-60408000D01*
X95243124Y-60403525D01*
X95244329Y-60402135D01*
X95246000Y-60394452D01*
X95246000Y-59634615D01*
X95241525Y-59619376D01*
X95240135Y-59618171D01*
X95232452Y-59616500D01*
X94535115Y-59616500D01*
X94519876Y-59620975D01*
X94518671Y-59622365D01*
X94517000Y-59630048D01*
X94517000Y-59708766D01*
X92681346Y-59708766D01*
X93963870Y-58533119D01*
X94027601Y-58501832D01*
X94049011Y-58500000D01*
X94507767Y-58500000D01*
X94575888Y-58520002D01*
G37*
G04 #@! TD.AperFunction*
G04 #@! TD*
G04 #@! TA.AperFunction,Conductor*
G04 #@! TO.N,GNDA*
G36*
X122015931Y-100520002D02*
G01*
X122036905Y-100536905D01*
X123963095Y-102463095D01*
X123997121Y-102525407D01*
X124000000Y-102552190D01*
X124000000Y-105947810D01*
X123979998Y-106015931D01*
X123963095Y-106036905D01*
X121500000Y-108500000D01*
X121500000Y-108741441D01*
X121479998Y-108809562D01*
X121426342Y-108856055D01*
X121356068Y-108866159D01*
X121291488Y-108836665D01*
X121284982Y-108830614D01*
X121207871Y-108753637D01*
X121196460Y-108744625D01*
X121060937Y-108661088D01*
X121047759Y-108654944D01*
X120896234Y-108604685D01*
X120882868Y-108601819D01*
X120790230Y-108592328D01*
X120783815Y-108592000D01*
X120772115Y-108592000D01*
X120756876Y-108596475D01*
X120755671Y-108597865D01*
X120754000Y-108605548D01*
X120754000Y-109765500D01*
X120733998Y-109833621D01*
X120680342Y-109880114D01*
X120628000Y-109891500D01*
X119535115Y-109891500D01*
X119519876Y-109895975D01*
X119518671Y-109897365D01*
X119517000Y-109905048D01*
X119517000Y-109983766D01*
X119517337Y-109990282D01*
X119527075Y-110084132D01*
X119529968Y-110097528D01*
X119580488Y-110248953D01*
X119586654Y-110262117D01*
X119614860Y-110307697D01*
X119633698Y-110376149D01*
X119612537Y-110443919D01*
X119558096Y-110489490D01*
X119535307Y-110494244D01*
X119535498Y-110494896D01*
X119518116Y-110500000D01*
X119500000Y-110500000D01*
X119500000Y-111222411D01*
X119499263Y-111236018D01*
X119490930Y-111312731D01*
X119486676Y-111351888D01*
X119487213Y-111358023D01*
X119499521Y-111498711D01*
X119500000Y-111509692D01*
X119500000Y-112365500D01*
X119479998Y-112433621D01*
X119426342Y-112480114D01*
X119374000Y-112491500D01*
X119057425Y-112491500D01*
X118989304Y-112471498D01*
X118968330Y-112454595D01*
X117344355Y-110830621D01*
X117335253Y-110820478D01*
X117315397Y-110795782D01*
X117311532Y-110790975D01*
X117273078Y-110758708D01*
X117269431Y-110755528D01*
X117267619Y-110753885D01*
X117265425Y-110751691D01*
X117232167Y-110724372D01*
X117231300Y-110723651D01*
X117198111Y-110695802D01*
X117158784Y-110636693D01*
X117157658Y-110565705D01*
X117195089Y-110505377D01*
X117242914Y-110478768D01*
X117244329Y-110477135D01*
X117246000Y-110469452D01*
X117246000Y-110464885D01*
X117754000Y-110464885D01*
X117758475Y-110480124D01*
X117759865Y-110481329D01*
X117767548Y-110483000D01*
X117846266Y-110483000D01*
X117852782Y-110482663D01*
X117946632Y-110472925D01*
X117960028Y-110470032D01*
X118111453Y-110419512D01*
X118124615Y-110413347D01*
X118259992Y-110329574D01*
X118271390Y-110320540D01*
X118383863Y-110207871D01*
X118392875Y-110196460D01*
X118476412Y-110060937D01*
X118482556Y-110047759D01*
X118532815Y-109896234D01*
X118535681Y-109882868D01*
X118545172Y-109790230D01*
X118545500Y-109783815D01*
X118545500Y-109772115D01*
X118541025Y-109756876D01*
X118539635Y-109755671D01*
X118531952Y-109754000D01*
X117772115Y-109754000D01*
X117756876Y-109758475D01*
X117755671Y-109759865D01*
X117754000Y-109767548D01*
X117754000Y-110464885D01*
X117246000Y-110464885D01*
X117246000Y-109365385D01*
X119517000Y-109365385D01*
X119521475Y-109380624D01*
X119522865Y-109381829D01*
X119530548Y-109383500D01*
X120227885Y-109383500D01*
X120243124Y-109379025D01*
X120244329Y-109377635D01*
X120246000Y-109369952D01*
X120246000Y-108610115D01*
X120241525Y-108594876D01*
X120240135Y-108593671D01*
X120232452Y-108592000D01*
X120216234Y-108592000D01*
X120209718Y-108592337D01*
X120115868Y-108602075D01*
X120102472Y-108604968D01*
X119951047Y-108655488D01*
X119937885Y-108661653D01*
X119802508Y-108745426D01*
X119791110Y-108754460D01*
X119678637Y-108867129D01*
X119669625Y-108878540D01*
X119586088Y-109014063D01*
X119579944Y-109027241D01*
X119529685Y-109178766D01*
X119526819Y-109192132D01*
X119517328Y-109284770D01*
X119517000Y-109291185D01*
X119517000Y-109365385D01*
X117246000Y-109365385D01*
X117246000Y-109227885D01*
X117754000Y-109227885D01*
X117758475Y-109243124D01*
X117759865Y-109244329D01*
X117767548Y-109246000D01*
X118527385Y-109246000D01*
X118542624Y-109241525D01*
X118543829Y-109240135D01*
X118545500Y-109232452D01*
X118545500Y-109216234D01*
X118545163Y-109209718D01*
X118535425Y-109115868D01*
X118532532Y-109102472D01*
X118482012Y-108951047D01*
X118475847Y-108937885D01*
X118392074Y-108802508D01*
X118383040Y-108791110D01*
X118270371Y-108678637D01*
X118258960Y-108669625D01*
X118123437Y-108586088D01*
X118110259Y-108579944D01*
X117958734Y-108529685D01*
X117945368Y-108526819D01*
X117852730Y-108517328D01*
X117846315Y-108517000D01*
X117772115Y-108517000D01*
X117756876Y-108521475D01*
X117755671Y-108522865D01*
X117754000Y-108530548D01*
X117754000Y-109227885D01*
X117246000Y-109227885D01*
X117246000Y-108535115D01*
X117241525Y-108519876D01*
X117240135Y-108518671D01*
X117232452Y-108517000D01*
X117153734Y-108517000D01*
X117147218Y-108517337D01*
X117053368Y-108527075D01*
X117039972Y-108529968D01*
X116888547Y-108580488D01*
X116875383Y-108586654D01*
X116829803Y-108614860D01*
X116761351Y-108633698D01*
X116693581Y-108612537D01*
X116648010Y-108558096D01*
X116637500Y-108507716D01*
X116637500Y-107492233D01*
X116657502Y-107424112D01*
X116711158Y-107377619D01*
X116781432Y-107367515D01*
X116829616Y-107384973D01*
X116876563Y-107413912D01*
X116889741Y-107420056D01*
X117041266Y-107470315D01*
X117054632Y-107473181D01*
X117147270Y-107482672D01*
X117153685Y-107483000D01*
X117227885Y-107483000D01*
X117243124Y-107478525D01*
X117244329Y-107477135D01*
X117246000Y-107469452D01*
X117246000Y-107464885D01*
X117754000Y-107464885D01*
X117758475Y-107480124D01*
X117759865Y-107481329D01*
X117767548Y-107483000D01*
X117846266Y-107483000D01*
X117852782Y-107482663D01*
X117946632Y-107472925D01*
X117960028Y-107470032D01*
X118111453Y-107419512D01*
X118124615Y-107413347D01*
X118259992Y-107329574D01*
X118271390Y-107320540D01*
X118383863Y-107207871D01*
X118392875Y-107196460D01*
X118476412Y-107060937D01*
X118482556Y-107047759D01*
X118532815Y-106896234D01*
X118535681Y-106882868D01*
X118545172Y-106790230D01*
X118545500Y-106783815D01*
X118545500Y-106772115D01*
X118541025Y-106756876D01*
X118539635Y-106755671D01*
X118531952Y-106754000D01*
X117772115Y-106754000D01*
X117756876Y-106758475D01*
X117755671Y-106759865D01*
X117754000Y-106767548D01*
X117754000Y-107464885D01*
X117246000Y-107464885D01*
X117246000Y-106227885D01*
X117754000Y-106227885D01*
X117758475Y-106243124D01*
X117759865Y-106244329D01*
X117767548Y-106246000D01*
X118527385Y-106246000D01*
X118542624Y-106241525D01*
X118543829Y-106240135D01*
X118545500Y-106232452D01*
X118545500Y-106216234D01*
X118545163Y-106209718D01*
X118535425Y-106115868D01*
X118532532Y-106102472D01*
X118482012Y-105951047D01*
X118475847Y-105937885D01*
X118392074Y-105802508D01*
X118383040Y-105791110D01*
X118270371Y-105678637D01*
X118258960Y-105669625D01*
X118123437Y-105586088D01*
X118110259Y-105579944D01*
X117958734Y-105529685D01*
X117945368Y-105526819D01*
X117852730Y-105517328D01*
X117846315Y-105517000D01*
X117772115Y-105517000D01*
X117756876Y-105521475D01*
X117755671Y-105522865D01*
X117754000Y-105530548D01*
X117754000Y-106227885D01*
X117246000Y-106227885D01*
X117246000Y-105535115D01*
X117241525Y-105519876D01*
X117240135Y-105518671D01*
X117232452Y-105517000D01*
X117153734Y-105517000D01*
X117147218Y-105517337D01*
X117053368Y-105527075D01*
X117039972Y-105529968D01*
X116888547Y-105580488D01*
X116875383Y-105586654D01*
X116829803Y-105614860D01*
X116761351Y-105633698D01*
X116693581Y-105612537D01*
X116648010Y-105558096D01*
X116637500Y-105507716D01*
X116637500Y-105000000D01*
X115626000Y-105000000D01*
X115557879Y-104979998D01*
X115511386Y-104926342D01*
X115500000Y-104874000D01*
X115500000Y-104492233D01*
X115520002Y-104424112D01*
X115573658Y-104377619D01*
X115643932Y-104367515D01*
X115692116Y-104384973D01*
X115739063Y-104413912D01*
X115752241Y-104420056D01*
X115903766Y-104470315D01*
X115917132Y-104473181D01*
X116009770Y-104482672D01*
X116016185Y-104483000D01*
X116090385Y-104483000D01*
X116105624Y-104478525D01*
X116106829Y-104477135D01*
X116108500Y-104469452D01*
X116108500Y-104464885D01*
X116616500Y-104464885D01*
X116620975Y-104480124D01*
X116622365Y-104481329D01*
X116630048Y-104483000D01*
X116708766Y-104483000D01*
X116715282Y-104482663D01*
X116809132Y-104472925D01*
X116822528Y-104470032D01*
X116973953Y-104419512D01*
X116987115Y-104413347D01*
X117122492Y-104329574D01*
X117133890Y-104320540D01*
X117246363Y-104207871D01*
X117255375Y-104196460D01*
X117338912Y-104060937D01*
X117345056Y-104047759D01*
X117395315Y-103896234D01*
X117398181Y-103882868D01*
X117407672Y-103790230D01*
X117408000Y-103783815D01*
X117408000Y-103772115D01*
X117403525Y-103756876D01*
X117402135Y-103755671D01*
X117394452Y-103754000D01*
X116634615Y-103754000D01*
X116619376Y-103758475D01*
X116618171Y-103759865D01*
X116616500Y-103767548D01*
X116616500Y-104464885D01*
X116108500Y-104464885D01*
X116108500Y-103227885D01*
X116616500Y-103227885D01*
X116620975Y-103243124D01*
X116622365Y-103244329D01*
X116630048Y-103246000D01*
X117389885Y-103246000D01*
X117405124Y-103241525D01*
X117406329Y-103240135D01*
X117408000Y-103232452D01*
X117408000Y-103216234D01*
X117407663Y-103209718D01*
X117397925Y-103115868D01*
X117395032Y-103102472D01*
X117344512Y-102951047D01*
X117338347Y-102937885D01*
X117254574Y-102802508D01*
X117245540Y-102791110D01*
X117132871Y-102678637D01*
X117121460Y-102669625D01*
X116985937Y-102586088D01*
X116972759Y-102579944D01*
X116821234Y-102529685D01*
X116807868Y-102526819D01*
X116715230Y-102517328D01*
X116708815Y-102517000D01*
X116634615Y-102517000D01*
X116619376Y-102521475D01*
X116618171Y-102522865D01*
X116616500Y-102530548D01*
X116616500Y-103227885D01*
X116108500Y-103227885D01*
X116108500Y-102535115D01*
X116104025Y-102519876D01*
X116102635Y-102518671D01*
X116094952Y-102517000D01*
X116016234Y-102517000D01*
X116009718Y-102517337D01*
X115915868Y-102527075D01*
X115902472Y-102529968D01*
X115751047Y-102580488D01*
X115737883Y-102586654D01*
X115692303Y-102614860D01*
X115623851Y-102633698D01*
X115556081Y-102612537D01*
X115510510Y-102558096D01*
X115500000Y-102507716D01*
X115500000Y-101626000D01*
X115520002Y-101557879D01*
X115573658Y-101511386D01*
X115626000Y-101500000D01*
X118000000Y-101500000D01*
X118963095Y-100536905D01*
X119025407Y-100502879D01*
X119052190Y-100500000D01*
X121947810Y-100500000D01*
X122015931Y-100520002D01*
G37*
G04 #@! TD.AperFunction*
G04 #@! TD*
G04 #@! TA.AperFunction,Conductor*
G04 #@! TO.N,GNDA*
G36*
X114063758Y-116556674D02*
G01*
X115448634Y-117787675D01*
X115454019Y-117792754D01*
X117830645Y-120169379D01*
X117839747Y-120179522D01*
X117863468Y-120209025D01*
X117901956Y-120241320D01*
X117905575Y-120244478D01*
X117907390Y-120246124D01*
X117909575Y-120248309D01*
X117911955Y-120250264D01*
X117911965Y-120250273D01*
X117942736Y-120275549D01*
X117943751Y-120276391D01*
X118014974Y-120336154D01*
X118019648Y-120338723D01*
X118023761Y-120342102D01*
X118029198Y-120345017D01*
X118029199Y-120345018D01*
X118105547Y-120385955D01*
X118106707Y-120386584D01*
X118156695Y-120414065D01*
X118188287Y-120431433D01*
X118193369Y-120433045D01*
X118198063Y-120435562D01*
X118287031Y-120462762D01*
X118288059Y-120463082D01*
X118376806Y-120491235D01*
X118382102Y-120491829D01*
X118387198Y-120493387D01*
X118479757Y-120502790D01*
X118480893Y-120502911D01*
X118514508Y-120506681D01*
X118527230Y-120508108D01*
X118527234Y-120508108D01*
X118530727Y-120508500D01*
X118534254Y-120508500D01*
X118535239Y-120508555D01*
X118540919Y-120509002D01*
X118570325Y-120511989D01*
X118577837Y-120512752D01*
X118577839Y-120512752D01*
X118583962Y-120513374D01*
X118629608Y-120509059D01*
X118641467Y-120508500D01*
X123374000Y-120508500D01*
X123442121Y-120528502D01*
X123488614Y-120582158D01*
X123500000Y-120634500D01*
X123500000Y-121495917D01*
X123499355Y-121508650D01*
X123486626Y-121633962D01*
X123492327Y-121694273D01*
X123499441Y-121769528D01*
X123500000Y-121781386D01*
X123500000Y-122500000D01*
X123513547Y-122500000D01*
X123526783Y-122502879D01*
X123526230Y-122505421D01*
X123575888Y-122520002D01*
X123622381Y-122573658D01*
X123632485Y-122643932D01*
X123615027Y-122692116D01*
X123586088Y-122739063D01*
X123579944Y-122752241D01*
X123529685Y-122903766D01*
X123526819Y-122917132D01*
X123517328Y-123009770D01*
X123517000Y-123016185D01*
X123517000Y-123090385D01*
X123521475Y-123105624D01*
X123522865Y-123106829D01*
X123530548Y-123108500D01*
X124628000Y-123108500D01*
X124696121Y-123128502D01*
X124742614Y-123182158D01*
X124754000Y-123234500D01*
X124754000Y-124389885D01*
X124758475Y-124405124D01*
X124759865Y-124406329D01*
X124767548Y-124408000D01*
X124783766Y-124408000D01*
X124790282Y-124407663D01*
X124884132Y-124397925D01*
X124897528Y-124395032D01*
X125048953Y-124344512D01*
X125062115Y-124338347D01*
X125197492Y-124254574D01*
X125208890Y-124245540D01*
X125284827Y-124169471D01*
X125347110Y-124135392D01*
X125417930Y-124140395D01*
X125474803Y-124182892D01*
X125499671Y-124249391D01*
X125500000Y-124258489D01*
X125500000Y-124500000D01*
X126495912Y-124500000D01*
X126508643Y-124500645D01*
X126523304Y-124502134D01*
X126529717Y-124502785D01*
X126530896Y-124502911D01*
X126564508Y-124506681D01*
X126577230Y-124508108D01*
X126577234Y-124508108D01*
X126580727Y-124508500D01*
X126584254Y-124508500D01*
X126585239Y-124508555D01*
X126590919Y-124509002D01*
X126620325Y-124511989D01*
X126627837Y-124512752D01*
X126627839Y-124512752D01*
X126633962Y-124513374D01*
X126679608Y-124509059D01*
X126691467Y-124508500D01*
X132438157Y-124508500D01*
X132451764Y-124509237D01*
X132483262Y-124512659D01*
X132483267Y-124512659D01*
X132489388Y-124513324D01*
X132517415Y-124510872D01*
X132539388Y-124508950D01*
X132544214Y-124508621D01*
X132546686Y-124508500D01*
X132549769Y-124508500D01*
X132561738Y-124507326D01*
X132592506Y-124504310D01*
X132593819Y-124504188D01*
X132641685Y-124500000D01*
X132686413Y-124496087D01*
X132691532Y-124494600D01*
X132696833Y-124494080D01*
X132765055Y-124473483D01*
X132836048Y-124472943D01*
X132896064Y-124510872D01*
X132926048Y-124575226D01*
X132916478Y-124645575D01*
X132890566Y-124683199D01*
X132825695Y-124748071D01*
X132256671Y-125317095D01*
X132194359Y-125351121D01*
X132167576Y-125354000D01*
X122626000Y-125354000D01*
X122557879Y-125333998D01*
X122511386Y-125280342D01*
X122500000Y-125228000D01*
X122500000Y-124777099D01*
X122500785Y-124763054D01*
X122508107Y-124697773D01*
X122508500Y-124694273D01*
X122508500Y-123708766D01*
X123517000Y-123708766D01*
X123517337Y-123715282D01*
X123527075Y-123809132D01*
X123529968Y-123822528D01*
X123580488Y-123973953D01*
X123586653Y-123987115D01*
X123670426Y-124122492D01*
X123679460Y-124133890D01*
X123792129Y-124246363D01*
X123803540Y-124255375D01*
X123939063Y-124338912D01*
X123952241Y-124345056D01*
X124103766Y-124395315D01*
X124117132Y-124398181D01*
X124209770Y-124407672D01*
X124216185Y-124408000D01*
X124227885Y-124408000D01*
X124243124Y-124403525D01*
X124244329Y-124402135D01*
X124246000Y-124394452D01*
X124246000Y-123634615D01*
X124241525Y-123619376D01*
X124240135Y-123618171D01*
X124232452Y-123616500D01*
X123535115Y-123616500D01*
X123519876Y-123620975D01*
X123518671Y-123622365D01*
X123517000Y-123630048D01*
X123517000Y-123708766D01*
X122508500Y-123708766D01*
X122508500Y-122450231D01*
X122500601Y-122369672D01*
X122500000Y-122357376D01*
X122500000Y-121500000D01*
X121640746Y-121500000D01*
X121627576Y-121499310D01*
X121513204Y-121487289D01*
X121513202Y-121487289D01*
X121507075Y-121486645D01*
X121367910Y-121499310D01*
X121366031Y-121499481D01*
X121354611Y-121500000D01*
X119815745Y-121500000D01*
X119802575Y-121499310D01*
X119784326Y-121497392D01*
X119783550Y-121497308D01*
X119731773Y-121491500D01*
X119729200Y-121491500D01*
X119725224Y-121491180D01*
X119688204Y-121487289D01*
X119688202Y-121487289D01*
X119682075Y-121486645D01*
X119634430Y-121490981D01*
X119623010Y-121491500D01*
X118038907Y-121491500D01*
X117970786Y-121471498D01*
X117954617Y-121459155D01*
X117264798Y-120838318D01*
X117259993Y-120833758D01*
X114180107Y-117753873D01*
X114177925Y-117751691D01*
X114063739Y-117657897D01*
X113889437Y-117564438D01*
X113810672Y-117540357D01*
X113758415Y-117508958D01*
X113289918Y-117040460D01*
X113255893Y-116978148D01*
X113260958Y-116907332D01*
X113303505Y-116850497D01*
X113322661Y-116838670D01*
X113923701Y-116538150D01*
X113993573Y-116525576D01*
X114063758Y-116556674D01*
G37*
G04 #@! TD.AperFunction*
G04 #@! TD*
G04 #@! TA.AperFunction,Conductor*
G04 #@! TO.N,GNDD*
G36*
X93517989Y-81005493D02*
G01*
X93689554Y-81057879D01*
X94902296Y-81428182D01*
X94961606Y-81467205D01*
X94990403Y-81532099D01*
X94991500Y-81548689D01*
X94991500Y-81850640D01*
X94971498Y-81918761D01*
X94917842Y-81965254D01*
X94847568Y-81975358D01*
X94825833Y-81970233D01*
X94733734Y-81939685D01*
X94720368Y-81936819D01*
X94627730Y-81927328D01*
X94621315Y-81927000D01*
X94547115Y-81927000D01*
X94531876Y-81931475D01*
X94530671Y-81932865D01*
X94529000Y-81940548D01*
X94529000Y-83874885D01*
X94533475Y-83890124D01*
X94534865Y-83891329D01*
X94542548Y-83893000D01*
X94621266Y-83893000D01*
X94627782Y-83892663D01*
X94721632Y-83882925D01*
X94735029Y-83880032D01*
X94825624Y-83849807D01*
X94896574Y-83847223D01*
X94957658Y-83883407D01*
X94989482Y-83946871D01*
X94991500Y-83969331D01*
X94991500Y-84315640D01*
X94971498Y-84383761D01*
X94917842Y-84430254D01*
X94847568Y-84440358D01*
X94825833Y-84435233D01*
X94733734Y-84404685D01*
X94720368Y-84401819D01*
X94627730Y-84392328D01*
X94621315Y-84392000D01*
X94547115Y-84392000D01*
X94531876Y-84396475D01*
X94530671Y-84397865D01*
X94529000Y-84405548D01*
X94529000Y-86339885D01*
X94533475Y-86355124D01*
X94534865Y-86356329D01*
X94542548Y-86358000D01*
X94621266Y-86358000D01*
X94627782Y-86357663D01*
X94721632Y-86347925D01*
X94735029Y-86345032D01*
X94825624Y-86314807D01*
X94896574Y-86312223D01*
X94957658Y-86348407D01*
X94989482Y-86411871D01*
X94991500Y-86434331D01*
X94991500Y-87315640D01*
X94971498Y-87383761D01*
X94917842Y-87430254D01*
X94847568Y-87440358D01*
X94825833Y-87435233D01*
X94733734Y-87404685D01*
X94720368Y-87401819D01*
X94627730Y-87392328D01*
X94621315Y-87392000D01*
X94547115Y-87392000D01*
X94531876Y-87396475D01*
X94530671Y-87397865D01*
X94529000Y-87405548D01*
X94529000Y-89339885D01*
X94533475Y-89355124D01*
X94534865Y-89356329D01*
X94542548Y-89358000D01*
X94621266Y-89358000D01*
X94627782Y-89357663D01*
X94721632Y-89347925D01*
X94735029Y-89345032D01*
X94825624Y-89314807D01*
X94896574Y-89312223D01*
X94957658Y-89348407D01*
X94989482Y-89411871D01*
X94991500Y-89434331D01*
X94991500Y-89874000D01*
X94971498Y-89942121D01*
X94917842Y-89988614D01*
X94865500Y-90000000D01*
X93077872Y-90000000D01*
X93009751Y-89979998D01*
X92965174Y-89930349D01*
X92329382Y-88658766D01*
X93229500Y-88658766D01*
X93229837Y-88665282D01*
X93239575Y-88759132D01*
X93242468Y-88772528D01*
X93292988Y-88923953D01*
X93299153Y-88937115D01*
X93382926Y-89072492D01*
X93391960Y-89083890D01*
X93504629Y-89196363D01*
X93516040Y-89205375D01*
X93651563Y-89288912D01*
X93664741Y-89295056D01*
X93816266Y-89345315D01*
X93829632Y-89348181D01*
X93922270Y-89357672D01*
X93928685Y-89358000D01*
X94002885Y-89358000D01*
X94018124Y-89353525D01*
X94019329Y-89352135D01*
X94021000Y-89344452D01*
X94021000Y-88647115D01*
X94016525Y-88631876D01*
X94015135Y-88630671D01*
X94007452Y-88629000D01*
X93247615Y-88629000D01*
X93232376Y-88633475D01*
X93231171Y-88634865D01*
X93229500Y-88642548D01*
X93229500Y-88658766D01*
X92329382Y-88658766D01*
X92051442Y-88102885D01*
X93229500Y-88102885D01*
X93233975Y-88118124D01*
X93235365Y-88119329D01*
X93243048Y-88121000D01*
X94002885Y-88121000D01*
X94018124Y-88116525D01*
X94019329Y-88115135D01*
X94021000Y-88107452D01*
X94021000Y-87410115D01*
X94016525Y-87394876D01*
X94015135Y-87393671D01*
X94007452Y-87392000D01*
X93928734Y-87392000D01*
X93922218Y-87392337D01*
X93828368Y-87402075D01*
X93814972Y-87404968D01*
X93663547Y-87455488D01*
X93650385Y-87461653D01*
X93515008Y-87545426D01*
X93503610Y-87554460D01*
X93391137Y-87667129D01*
X93382125Y-87678540D01*
X93298588Y-87814063D01*
X93292444Y-87827241D01*
X93242185Y-87978766D01*
X93239319Y-87992132D01*
X93229828Y-88084770D01*
X93229500Y-88091185D01*
X93229500Y-88102885D01*
X92051442Y-88102885D01*
X92013302Y-88026604D01*
X92000000Y-87970255D01*
X92000000Y-85658766D01*
X93229500Y-85658766D01*
X93229837Y-85665282D01*
X93239575Y-85759132D01*
X93242468Y-85772528D01*
X93292988Y-85923953D01*
X93299153Y-85937115D01*
X93382926Y-86072492D01*
X93391960Y-86083890D01*
X93504629Y-86196363D01*
X93516040Y-86205375D01*
X93651563Y-86288912D01*
X93664741Y-86295056D01*
X93816266Y-86345315D01*
X93829632Y-86348181D01*
X93922270Y-86357672D01*
X93928685Y-86358000D01*
X94002885Y-86358000D01*
X94018124Y-86353525D01*
X94019329Y-86352135D01*
X94021000Y-86344452D01*
X94021000Y-85647115D01*
X94016525Y-85631876D01*
X94015135Y-85630671D01*
X94007452Y-85629000D01*
X93247615Y-85629000D01*
X93232376Y-85633475D01*
X93231171Y-85634865D01*
X93229500Y-85642548D01*
X93229500Y-85658766D01*
X92000000Y-85658766D01*
X92000000Y-85102885D01*
X93229500Y-85102885D01*
X93233975Y-85118124D01*
X93235365Y-85119329D01*
X93243048Y-85121000D01*
X94002885Y-85121000D01*
X94018124Y-85116525D01*
X94019329Y-85115135D01*
X94021000Y-85107452D01*
X94021000Y-84410115D01*
X94016525Y-84394876D01*
X94015135Y-84393671D01*
X94007452Y-84392000D01*
X93928734Y-84392000D01*
X93922218Y-84392337D01*
X93828368Y-84402075D01*
X93814972Y-84404968D01*
X93663547Y-84455488D01*
X93650385Y-84461653D01*
X93515008Y-84545426D01*
X93503610Y-84554460D01*
X93391137Y-84667129D01*
X93382125Y-84678540D01*
X93298588Y-84814063D01*
X93292444Y-84827241D01*
X93242185Y-84978766D01*
X93239319Y-84992132D01*
X93229828Y-85084770D01*
X93229500Y-85091185D01*
X93229500Y-85102885D01*
X92000000Y-85102885D01*
X92000000Y-83193766D01*
X93229500Y-83193766D01*
X93229837Y-83200282D01*
X93239575Y-83294132D01*
X93242468Y-83307528D01*
X93292988Y-83458953D01*
X93299153Y-83472115D01*
X93382926Y-83607492D01*
X93391960Y-83618890D01*
X93504629Y-83731363D01*
X93516040Y-83740375D01*
X93651563Y-83823912D01*
X93664741Y-83830056D01*
X93816266Y-83880315D01*
X93829632Y-83883181D01*
X93922270Y-83892672D01*
X93928685Y-83893000D01*
X94002885Y-83893000D01*
X94018124Y-83888525D01*
X94019329Y-83887135D01*
X94021000Y-83879452D01*
X94021000Y-83182115D01*
X94016525Y-83166876D01*
X94015135Y-83165671D01*
X94007452Y-83164000D01*
X93247615Y-83164000D01*
X93232376Y-83168475D01*
X93231171Y-83169865D01*
X93229500Y-83177548D01*
X93229500Y-83193766D01*
X92000000Y-83193766D01*
X92000000Y-82637885D01*
X93229500Y-82637885D01*
X93233975Y-82653124D01*
X93235365Y-82654329D01*
X93243048Y-82656000D01*
X94002885Y-82656000D01*
X94018124Y-82651525D01*
X94019329Y-82650135D01*
X94021000Y-82642452D01*
X94021000Y-81945115D01*
X94016525Y-81929876D01*
X94015135Y-81928671D01*
X94007452Y-81927000D01*
X93928734Y-81927000D01*
X93922218Y-81927337D01*
X93828368Y-81937075D01*
X93814972Y-81939968D01*
X93663547Y-81990488D01*
X93650385Y-81996653D01*
X93515008Y-82080426D01*
X93503610Y-82089460D01*
X93391137Y-82202129D01*
X93382125Y-82213540D01*
X93298588Y-82349063D01*
X93292444Y-82362241D01*
X93242185Y-82513766D01*
X93239319Y-82527132D01*
X93229828Y-82619770D01*
X93229500Y-82626185D01*
X93229500Y-82637885D01*
X92000000Y-82637885D01*
X92000000Y-81126000D01*
X92020002Y-81057879D01*
X92073658Y-81011386D01*
X92126000Y-81000000D01*
X93481194Y-81000000D01*
X93517989Y-81005493D01*
G37*
G04 #@! TD.AperFunction*
G04 #@! TD*
M02*
