G04 #@! TF.GenerationSoftware,KiCad,Pcbnew,(6.0.5)*
G04 #@! TF.CreationDate,2023-02-17T12:54:08-08:00*
G04 #@! TF.ProjectId,PCM1863,50434d31-3836-4332-9e6b-696361645f70,rev?*
G04 #@! TF.SameCoordinates,Original*
G04 #@! TF.FileFunction,Soldermask,Top*
G04 #@! TF.FilePolarity,Negative*
%FSLAX46Y46*%
G04 Gerber Fmt 4.6, Leading zero omitted, Abs format (unit mm)*
G04 Created by KiCad (PCBNEW (6.0.5)) date 2023-02-17 12:54:08*
%MOMM*%
%LPD*%
G01*
G04 APERTURE LIST*
G04 Aperture macros list*
%AMRoundRect*
0 Rectangle with rounded corners*
0 $1 Rounding radius*
0 $2 $3 $4 $5 $6 $7 $8 $9 X,Y pos of 4 corners*
0 Add a 4 corners polygon primitive as box body*
4,1,4,$2,$3,$4,$5,$6,$7,$8,$9,$2,$3,0*
0 Add four circle primitives for the rounded corners*
1,1,$1+$1,$2,$3*
1,1,$1+$1,$4,$5*
1,1,$1+$1,$6,$7*
1,1,$1+$1,$8,$9*
0 Add four rect primitives between the rounded corners*
20,1,$1+$1,$2,$3,$4,$5,0*
20,1,$1+$1,$4,$5,$6,$7,0*
20,1,$1+$1,$6,$7,$8,$9,0*
20,1,$1+$1,$8,$9,$2,$3,0*%
G04 Aperture macros list end*
%ADD10RoundRect,0.237500X-0.237500X0.300000X-0.237500X-0.300000X0.237500X-0.300000X0.237500X0.300000X0*%
%ADD11R,1.300000X1.100000*%
%ADD12RoundRect,0.237500X0.237500X-0.300000X0.237500X0.300000X-0.237500X0.300000X-0.237500X-0.300000X0*%
%ADD13RoundRect,0.237500X0.300000X0.237500X-0.300000X0.237500X-0.300000X-0.237500X0.300000X-0.237500X0*%
%ADD14RoundRect,0.237500X0.250000X0.237500X-0.250000X0.237500X-0.250000X-0.237500X0.250000X-0.237500X0*%
%ADD15RoundRect,0.075000X-0.662500X-0.075000X0.662500X-0.075000X0.662500X0.075000X-0.662500X0.075000X0*%
%ADD16R,0.400000X1.200000*%
%ADD17R,1.700000X1.700000*%
%ADD18O,1.700000X1.700000*%
%ADD19RoundRect,0.237500X0.237500X-0.250000X0.237500X0.250000X-0.237500X0.250000X-0.237500X-0.250000X0*%
%ADD20RoundRect,0.237500X-0.287500X-0.237500X0.287500X-0.237500X0.287500X0.237500X-0.287500X0.237500X0*%
%ADD21C,4.400000*%
%ADD22RoundRect,0.237500X-0.300000X-0.237500X0.300000X-0.237500X0.300000X0.237500X-0.300000X0.237500X0*%
%ADD23RoundRect,0.237500X0.237500X-0.287500X0.237500X0.287500X-0.237500X0.287500X-0.237500X-0.287500X0*%
%ADD24O,0.800000X0.800000*%
%ADD25R,1.300000X0.450000*%
%ADD26O,1.800000X1.150000*%
%ADD27O,2.000000X1.450000*%
%ADD28RoundRect,0.237500X0.287500X0.237500X-0.287500X0.237500X-0.287500X-0.237500X0.287500X-0.237500X0*%
%ADD29R,1.150000X0.600000*%
%ADD30RoundRect,0.237500X-0.237500X0.287500X-0.237500X-0.287500X0.237500X-0.287500X0.237500X0.287500X0*%
G04 APERTURE END LIST*
D10*
G04 #@! TO.C,C24*
X152600000Y-132737500D03*
X152600000Y-134462500D03*
G04 #@! TD*
D11*
G04 #@! TO.C,Y2*
X141900000Y-138525000D03*
X144000000Y-138525000D03*
X144000000Y-136875000D03*
X141900000Y-136875000D03*
G04 #@! TD*
D12*
G04 #@! TO.C,C4*
X130100000Y-138362500D03*
X130100000Y-136637500D03*
G04 #@! TD*
G04 #@! TO.C,C9*
X128300000Y-138362500D03*
X128300000Y-136637500D03*
G04 #@! TD*
D10*
G04 #@! TO.C,C21*
X168400000Y-125737500D03*
X168400000Y-127462500D03*
G04 #@! TD*
D13*
G04 #@! TO.C,C6*
X138562500Y-134300000D03*
X136837500Y-134300000D03*
G04 #@! TD*
D10*
G04 #@! TO.C,C22*
X170300000Y-125737500D03*
X170300000Y-127462500D03*
G04 #@! TD*
G04 #@! TO.C,C1*
X138200000Y-136437500D03*
X138200000Y-138162500D03*
G04 #@! TD*
D14*
G04 #@! TO.C,R2*
X132687500Y-141455000D03*
X130862500Y-141455000D03*
G04 #@! TD*
D15*
G04 #@! TO.C,U1*
X159737500Y-133400000D03*
X159737500Y-133900000D03*
X159737500Y-134400000D03*
X159737500Y-134900000D03*
X159737500Y-135400000D03*
X159737500Y-135900000D03*
X159737500Y-136400000D03*
X159737500Y-136900000D03*
X159737500Y-137400000D03*
X159737500Y-137900000D03*
X159737500Y-138400000D03*
X159737500Y-138900000D03*
X159737500Y-139400000D03*
X159737500Y-139900000D03*
X159737500Y-140400000D03*
X165462500Y-140400000D03*
X165462500Y-139900000D03*
X165462500Y-139400000D03*
X165462500Y-138900000D03*
X165462500Y-138400000D03*
X165462500Y-137900000D03*
X165462500Y-137400000D03*
X165462500Y-136900000D03*
X165462500Y-136400000D03*
X165462500Y-135900000D03*
X165462500Y-135400000D03*
X165462500Y-134900000D03*
X165462500Y-134400000D03*
X165462500Y-133900000D03*
X165462500Y-133400000D03*
G04 #@! TD*
D16*
G04 #@! TO.C,IC1*
X143845000Y-128155000D03*
X143195000Y-128155000D03*
X142545000Y-128155000D03*
X142545000Y-130055000D03*
X143845000Y-130055000D03*
G04 #@! TD*
D17*
G04 #@! TO.C,J3*
X179800000Y-149525000D03*
D18*
X179800000Y-146985000D03*
X179800000Y-144445000D03*
X179800000Y-141905000D03*
X179800000Y-139365000D03*
X179800000Y-136825000D03*
X179800000Y-134285000D03*
X179800000Y-131745000D03*
X179800000Y-129205000D03*
X179800000Y-126665000D03*
G04 #@! TD*
D10*
G04 #@! TO.C,C8*
X154300000Y-132737500D03*
X154300000Y-134462500D03*
G04 #@! TD*
G04 #@! TO.C,C10*
X156100000Y-132737500D03*
X156100000Y-134462500D03*
G04 #@! TD*
G04 #@! TO.C,C20*
X166400000Y-125737500D03*
X166400000Y-127462500D03*
G04 #@! TD*
D12*
G04 #@! TO.C,C3*
X156100000Y-138662500D03*
X156100000Y-136937500D03*
G04 #@! TD*
D19*
G04 #@! TO.C,R3*
X137600000Y-120912500D03*
X137600000Y-119087500D03*
G04 #@! TD*
D11*
G04 #@! TO.C,Y1*
X136800000Y-129925000D03*
X138900000Y-129925000D03*
X138900000Y-128275000D03*
X136800000Y-128275000D03*
G04 #@! TD*
D10*
G04 #@! TO.C,C2*
X149800000Y-132437500D03*
X149800000Y-134162500D03*
G04 #@! TD*
G04 #@! TO.C,C18*
X155400000Y-125737500D03*
X155400000Y-127462500D03*
G04 #@! TD*
D20*
G04 #@! TO.C,D2*
X134525000Y-141500000D03*
X136275000Y-141500000D03*
G04 #@! TD*
D10*
G04 #@! TO.C,C5*
X127700000Y-119200000D03*
X127700000Y-120925000D03*
G04 #@! TD*
D21*
G04 #@! TO.C,H4*
X180000000Y-155000000D03*
G04 #@! TD*
D10*
G04 #@! TO.C,C11*
X164600000Y-125775000D03*
X164600000Y-127500000D03*
G04 #@! TD*
D19*
G04 #@! TO.C,R1*
X146400000Y-126400000D03*
X146400000Y-124575000D03*
G04 #@! TD*
D17*
G04 #@! TO.C,J1*
X143175000Y-149100000D03*
D18*
X145715000Y-149100000D03*
X148255000Y-149100000D03*
X150795000Y-149100000D03*
X153335000Y-149100000D03*
X155875000Y-149100000D03*
X158415000Y-149100000D03*
X160955000Y-149100000D03*
X163495000Y-149100000D03*
X166035000Y-149100000D03*
G04 #@! TD*
D12*
G04 #@! TO.C,C7*
X148400000Y-130062500D03*
X148400000Y-128337500D03*
G04 #@! TD*
D22*
G04 #@! TO.C,C17*
X136837500Y-132600000D03*
X138562500Y-132600000D03*
G04 #@! TD*
D10*
G04 #@! TO.C,C15*
X156300000Y-140700000D03*
X156300000Y-142425000D03*
G04 #@! TD*
G04 #@! TO.C,C19*
X157100000Y-125737500D03*
X157100000Y-127462500D03*
G04 #@! TD*
G04 #@! TO.C,C13*
X162600000Y-125737500D03*
X162600000Y-127462500D03*
G04 #@! TD*
D21*
G04 #@! TO.C,H1*
X120000000Y-155000000D03*
G04 #@! TD*
D23*
G04 #@! TO.C,D3*
X135600000Y-120875000D03*
X135600000Y-119125000D03*
G04 #@! TD*
D14*
G04 #@! TO.C,R4*
X135812500Y-146200000D03*
X133987500Y-146200000D03*
G04 #@! TD*
D24*
G04 #@! TO.C,J4*
X119800000Y-144200000D03*
X119800000Y-139200000D03*
D25*
X120900000Y-140400000D03*
X120900000Y-141050000D03*
X120900000Y-141700000D03*
X120900000Y-142350000D03*
X120900000Y-143000000D03*
D26*
X117050000Y-137825000D03*
D27*
X120850000Y-137975000D03*
X120850000Y-145425000D03*
D26*
X117050000Y-145575000D03*
G04 #@! TD*
D28*
G04 #@! TO.C,D4*
X132175000Y-146200000D03*
X130425000Y-146200000D03*
G04 #@! TD*
D29*
G04 #@! TO.C,IC3*
X130350000Y-119150000D03*
X130350000Y-120100000D03*
X130350000Y-121050000D03*
X132850000Y-121050000D03*
X132850000Y-119150000D03*
G04 #@! TD*
D10*
G04 #@! TO.C,C16*
X158900000Y-125737500D03*
X158900000Y-127462500D03*
G04 #@! TD*
D21*
G04 #@! TO.C,H3*
X120000000Y-120000000D03*
G04 #@! TD*
D10*
G04 #@! TO.C,C14*
X160700000Y-125737500D03*
X160700000Y-127462500D03*
G04 #@! TD*
D21*
G04 #@! TO.C,H2*
X180000000Y-120000000D03*
G04 #@! TD*
D29*
G04 #@! TO.C,IC2*
X132495000Y-136455000D03*
X132495000Y-137405000D03*
X132495000Y-138355000D03*
X134995000Y-138355000D03*
X134995000Y-136455000D03*
G04 #@! TD*
D10*
G04 #@! TO.C,C25*
X125900000Y-119212500D03*
X125900000Y-120937500D03*
G04 #@! TD*
D30*
G04 #@! TO.C,D1*
X146400000Y-128312500D03*
X146400000Y-130062500D03*
G04 #@! TD*
D10*
G04 #@! TO.C,C12*
X154400000Y-140737500D03*
X154400000Y-142462500D03*
G04 #@! TD*
G04 #@! TO.C,C23*
X172300000Y-125737500D03*
X172300000Y-127462500D03*
G04 #@! TD*
D17*
G04 #@! TO.C,J2*
X173400000Y-118400000D03*
D18*
X170860000Y-118400000D03*
X168320000Y-118400000D03*
X165780000Y-118400000D03*
X163240000Y-118400000D03*
X160700000Y-118400000D03*
X158160000Y-118400000D03*
X155620000Y-118400000D03*
X153080000Y-118400000D03*
X150540000Y-118400000D03*
G04 #@! TD*
M02*
