G04 #@! TF.GenerationSoftware,KiCad,Pcbnew,(6.0.5)*
G04 #@! TF.CreationDate,2023-02-17T12:54:08-08:00*
G04 #@! TF.ProjectId,PCM1863,50434d31-3836-4332-9e6b-696361645f70,rev?*
G04 #@! TF.SameCoordinates,Original*
G04 #@! TF.FileFunction,Soldermask,Bot*
G04 #@! TF.FilePolarity,Negative*
%FSLAX46Y46*%
G04 Gerber Fmt 4.6, Leading zero omitted, Abs format (unit mm)*
G04 Created by KiCad (PCBNEW (6.0.5)) date 2023-02-17 12:54:08*
%MOMM*%
%LPD*%
G01*
G04 APERTURE LIST*
%ADD10R,1.700000X1.700000*%
%ADD11O,1.700000X1.700000*%
%ADD12C,4.400000*%
%ADD13O,0.800000X0.800000*%
%ADD14O,1.800000X1.150000*%
%ADD15O,2.000000X1.450000*%
G04 APERTURE END LIST*
D10*
G04 #@! TO.C,J3*
X179800000Y-149525000D03*
D11*
X179800000Y-146985000D03*
X179800000Y-144445000D03*
X179800000Y-141905000D03*
X179800000Y-139365000D03*
X179800000Y-136825000D03*
X179800000Y-134285000D03*
X179800000Y-131745000D03*
X179800000Y-129205000D03*
X179800000Y-126665000D03*
G04 #@! TD*
D12*
G04 #@! TO.C,H4*
X180000000Y-155000000D03*
G04 #@! TD*
D10*
G04 #@! TO.C,J1*
X143175000Y-149100000D03*
D11*
X145715000Y-149100000D03*
X148255000Y-149100000D03*
X150795000Y-149100000D03*
X153335000Y-149100000D03*
X155875000Y-149100000D03*
X158415000Y-149100000D03*
X160955000Y-149100000D03*
X163495000Y-149100000D03*
X166035000Y-149100000D03*
G04 #@! TD*
D12*
G04 #@! TO.C,H1*
X120000000Y-155000000D03*
G04 #@! TD*
D13*
G04 #@! TO.C,J4*
X119800000Y-144200000D03*
X119800000Y-139200000D03*
D14*
X117050000Y-137825000D03*
D15*
X120850000Y-137975000D03*
X120850000Y-145425000D03*
D14*
X117050000Y-145575000D03*
G04 #@! TD*
D12*
G04 #@! TO.C,H3*
X120000000Y-120000000D03*
G04 #@! TD*
G04 #@! TO.C,H2*
X180000000Y-120000000D03*
G04 #@! TD*
D10*
G04 #@! TO.C,J2*
X173400000Y-118400000D03*
D11*
X170860000Y-118400000D03*
X168320000Y-118400000D03*
X165780000Y-118400000D03*
X163240000Y-118400000D03*
X160700000Y-118400000D03*
X158160000Y-118400000D03*
X155620000Y-118400000D03*
X153080000Y-118400000D03*
X150540000Y-118400000D03*
G04 #@! TD*
M02*
