G04 #@! TF.GenerationSoftware,KiCad,Pcbnew,7.0.1*
G04 #@! TF.CreationDate,2023-04-14T22:16:16-07:00*
G04 #@! TF.ProjectId,PCM1863,50434d31-3836-4332-9e6b-696361645f70,rev?*
G04 #@! TF.SameCoordinates,Original*
G04 #@! TF.FileFunction,Copper,L2,Bot*
G04 #@! TF.FilePolarity,Positive*
%FSLAX46Y46*%
G04 Gerber Fmt 4.6, Leading zero omitted, Abs format (unit mm)*
G04 Created by KiCad (PCBNEW 7.0.1) date 2023-04-14 22:16:16*
%MOMM*%
%LPD*%
G01*
G04 APERTURE LIST*
G04 #@! TA.AperFunction,ComponentPad*
%ADD10O,1.450000X2.000000*%
G04 #@! TD*
G04 #@! TA.AperFunction,ComponentPad*
%ADD11O,1.150000X1.800000*%
G04 #@! TD*
G04 #@! TA.AperFunction,ComponentPad*
%ADD12C,5.600000*%
G04 #@! TD*
G04 #@! TA.AperFunction,ComponentPad*
%ADD13R,1.700000X1.700000*%
G04 #@! TD*
G04 #@! TA.AperFunction,ComponentPad*
%ADD14O,1.700000X1.700000*%
G04 #@! TD*
G04 #@! TA.AperFunction,ViaPad*
%ADD15C,1.000000*%
G04 #@! TD*
G04 #@! TA.AperFunction,Conductor*
%ADD16C,0.750000*%
G04 #@! TD*
G04 #@! TA.AperFunction,Conductor*
%ADD17C,1.000000*%
G04 #@! TD*
G04 APERTURE END LIST*
D10*
G04 #@! TO.P,J4,6,Shield*
G04 #@! TO.N,GNDD*
X106795000Y-146290000D03*
X114245000Y-146290000D03*
D11*
X106645000Y-150090000D03*
X114395000Y-150090000D03*
G04 #@! TD*
D12*
G04 #@! TO.P,H1,1,1*
G04 #@! TO.N,GNDA*
X98940000Y-25960000D03*
G04 #@! TD*
G04 #@! TO.P,H4,1,1*
G04 #@! TO.N,GNDA*
X159900000Y-25960000D03*
G04 #@! TD*
G04 #@! TO.P,H3,1,1*
G04 #@! TO.N,GNDD*
X159900000Y-148260000D03*
G04 #@! TD*
G04 #@! TO.P,H2,1,1*
G04 #@! TO.N,GNDD*
X98940000Y-148260000D03*
G04 #@! TD*
D13*
G04 #@! TO.P,J8,1,Pin_1*
G04 #@! TO.N,/XO*
X101351000Y-42399000D03*
D14*
G04 #@! TO.P,J8,2,Pin_2*
G04 #@! TO.N,/XO_gnd*
X101351000Y-39859000D03*
G04 #@! TO.P,J8,3,Pin_3*
G04 #@! TO.N,/VREF*
X103891000Y-42399000D03*
G04 #@! TO.P,J8,4,Pin_4*
G04 #@! TO.N,/VREF_gnd*
X103891000Y-39859000D03*
G04 #@! TO.P,J8,5,Pin_5*
G04 #@! TO.N,/XO_DIS*
X106431000Y-42399000D03*
G04 #@! TO.P,J8,6,Pin_6*
G04 #@! TO.N,GNDD*
X106431000Y-39859000D03*
G04 #@! TO.P,J8,7,Pin_7*
G04 #@! TO.N,/XI_DIS*
X108971000Y-42399000D03*
G04 #@! TO.P,J8,8,Pin_8*
G04 #@! TO.N,GNDD*
X108971000Y-39859000D03*
G04 #@! TO.P,J8,9,Pin_9*
G04 #@! TO.N,/XI*
X111511000Y-42399000D03*
G04 #@! TO.P,J8,10,Pin_10*
G04 #@! TO.N,/XI_gnd*
X111511000Y-39859000D03*
G04 #@! TD*
G04 #@! TO.P,J1,4,Pin_4*
G04 #@! TO.N,/VIN4P*
X151384000Y-49252000D03*
G04 #@! TO.P,J1,3,Pin_3*
G04 #@! TO.N,/VIN3P*
X148844000Y-49252000D03*
G04 #@! TO.P,J1,2,Pin_2*
G04 #@! TO.N,/VIN2P*
X146304000Y-49252000D03*
D13*
G04 #@! TO.P,J1,1,Pin_1*
G04 #@! TO.N,/VIN1P*
X143764000Y-49252000D03*
G04 #@! TD*
G04 #@! TO.P,J11,1,Pin_1*
G04 #@! TO.N,/MD4{slash}MISO{slash}GPIO0*
X158496000Y-80240000D03*
D14*
G04 #@! TO.P,J11,2,Pin_2*
G04 #@! TO.N,/MD5{slash}GPIO1{slash}INTA{slash}DMIN*
X158496000Y-82780000D03*
G04 #@! TO.P,J11,3,Pin_3*
G04 #@! TO.N,/MD6{slash}GPIO2{slash}INTB{slash}DMCLK*
X158496000Y-85320000D03*
G04 #@! TO.P,J11,4,Pin_4*
G04 #@! TO.N,/INT{slash}GPIO3{slash}INTC*
X158496000Y-87860000D03*
G04 #@! TD*
D13*
G04 #@! TO.P,J7,1,Pin_1*
G04 #@! TO.N,/XO*
X116078000Y-90146000D03*
D14*
G04 #@! TO.P,J7,2,Pin_2*
G04 #@! TO.N,/XO_BUFF*
X118618000Y-90146000D03*
G04 #@! TO.P,J7,3,Pin_3*
G04 #@! TO.N,/OSC*
X121158000Y-90146000D03*
G04 #@! TO.P,J7,4,Pin_4*
G04 #@! TO.N,/XI*
X123698000Y-90146000D03*
G04 #@! TO.P,J7,5,Pin_5*
G04 #@! TO.N,/SCKI(3.3V)*
X126238000Y-90146000D03*
G04 #@! TD*
D13*
G04 #@! TO.P,J6,1,Pin_1*
G04 #@! TO.N,GNDA*
X98806000Y-54332000D03*
D14*
G04 #@! TO.P,J6,2,Pin_2*
G04 #@! TO.N,/VREF*
X98806000Y-56872000D03*
G04 #@! TO.P,J6,3,Pin_3*
G04 #@! TO.N,GNDD*
X98806000Y-59412000D03*
G04 #@! TO.P,J6,4,Pin_4*
G04 #@! TO.N,+3.3VA*
X98806000Y-61952000D03*
G04 #@! TO.P,J6,5,Pin_5*
G04 #@! TO.N,GNDD*
X98806000Y-64492000D03*
G04 #@! TO.P,J6,6,Pin_6*
G04 #@! TO.N,+3V3*
X98806000Y-67032000D03*
G04 #@! TO.P,J6,7,Pin_7*
G04 #@! TO.N,GNDD*
X98806000Y-69572000D03*
G04 #@! TO.P,J6,8,Pin_8*
G04 #@! TO.N,VCC*
X98806000Y-72112000D03*
G04 #@! TO.P,J6,9,Pin_9*
G04 #@! TO.N,GNDD*
X98806000Y-74652000D03*
G04 #@! TO.P,J6,10,Pin_10*
G04 #@! TO.N,+1V8*
X98806000Y-77192000D03*
G04 #@! TD*
D13*
G04 #@! TO.P,J5,1,Pin_1*
G04 #@! TO.N,/IN1*
X143764000Y-29440000D03*
D14*
G04 #@! TO.P,J5,2,Pin_2*
G04 #@! TO.N,/IN2*
X146304000Y-29440000D03*
G04 #@! TO.P,J5,3,Pin_3*
G04 #@! TO.N,/IN3*
X148844000Y-29440000D03*
G04 #@! TO.P,J5,4,Pin_4*
G04 #@! TO.N,/IN4*
X151384000Y-29440000D03*
G04 #@! TD*
D13*
G04 #@! TO.P,J3,1,Pin_1*
G04 #@! TO.N,/MDO*
X158496000Y-66270000D03*
D14*
G04 #@! TO.P,J3,2,Pin_2*
G04 #@! TO.N,/MD1{slash}MS{slash}AD*
X158496000Y-68810000D03*
G04 #@! TO.P,J3,3,Pin_3*
G04 #@! TO.N,/MD3{slash}MC{slash}SCL*
X158496000Y-71350000D03*
G04 #@! TO.P,J3,4,Pin_4*
G04 #@! TO.N,/DOUT2{slash}MD2{slash}MOSI{slash}SDA*
X158496000Y-73890000D03*
G04 #@! TD*
D13*
G04 #@! TO.P,J2,1,Pin_1*
G04 #@! TO.N,/DOUT*
X158496000Y-95485000D03*
D14*
G04 #@! TO.P,J2,2,Pin_2*
G04 #@! TO.N,/LRCK*
X158496000Y-98025000D03*
G04 #@! TO.P,J2,3,Pin_3*
G04 #@! TO.N,/BCK*
X158496000Y-100565000D03*
G04 #@! TD*
D15*
G04 #@! TO.N,GNDA*
X165862000Y-99798000D03*
X166370000Y-84304000D03*
X164592000Y-33250000D03*
X94234000Y-29948000D03*
X164338000Y-112752000D03*
X163068000Y-119610000D03*
X155956000Y-126976000D03*
X162560000Y-136120000D03*
X161544000Y-127738000D03*
X149098000Y-132564000D03*
X154178000Y-140692000D03*
X147066000Y-138152000D03*
X153416000Y-132818000D03*
X148082000Y-121388000D03*
X146304000Y-127992000D03*
X158496000Y-114530000D03*
X149860000Y-113514000D03*
X154432000Y-121134000D03*
X145796000Y-115800000D03*
X150114000Y-105640000D03*
X152400000Y-110212000D03*
X148844000Y-100052000D03*
G04 #@! TO.N,GNDD*
X122682000Y-149836000D03*
X118110000Y-149836000D03*
X110490000Y-149582000D03*
G04 #@! TO.N,GNDA*
X144780000Y-107672000D03*
X143764000Y-90908000D03*
X156464000Y-106910000D03*
X164592000Y-105640000D03*
X164338000Y-91670000D03*
X165100000Y-76684000D03*
X164592000Y-63984000D03*
X141478000Y-24106000D03*
X109474000Y-25630000D03*
X119380000Y-28932000D03*
X125222000Y-27154000D03*
X162560000Y-42902000D03*
X164338000Y-52808000D03*
X158496000Y-49506000D03*
X160782000Y-36552000D03*
X136398000Y-27662000D03*
X131064000Y-36806000D03*
X126746000Y-33504000D03*
X134620000Y-41378000D03*
X125984000Y-42140000D03*
X97790000Y-33504000D03*
X127762000Y-66778000D03*
G04 #@! TO.N,GNDD*
X123444000Y-69064000D03*
G04 #@! TO.N,GNDA*
X133096000Y-49252000D03*
X99060000Y-50014000D03*
X104902000Y-53570000D03*
X108712000Y-57634000D03*
X98552000Y-39346000D03*
X109728000Y-47982000D03*
X138938000Y-51030000D03*
X155448000Y-78462000D03*
X155194000Y-92432000D03*
X149606000Y-86844000D03*
G04 #@! TO.N,GNDD*
X100330000Y-85955000D03*
X102235000Y-94210000D03*
X102235000Y-79605000D03*
X101600000Y-64365000D03*
X101346000Y-71350000D03*
X105410000Y-136120000D03*
G04 #@! TO.N,GNDA*
X143002000Y-78462000D03*
X123190000Y-51030000D03*
X115570000Y-37568000D03*
X152400000Y-34520000D03*
X147828000Y-34266000D03*
X143256000Y-34266000D03*
X143256000Y-44934000D03*
X147574000Y-44934000D03*
X152400000Y-44934000D03*
X153162000Y-54078000D03*
X141986000Y-54078000D03*
G04 #@! TO.N,GNDD*
X111506000Y-88876000D03*
X114300000Y-82780000D03*
G04 #@! TO.N,GNDA*
X104902000Y-57634000D03*
G04 #@! TO.N,GNDD*
X119888000Y-66016000D03*
X123190000Y-63984000D03*
G04 #@! TO.N,GNDA*
X156464000Y-57634000D03*
X147574000Y-56110000D03*
X139954000Y-61190000D03*
X128270000Y-53062000D03*
X128270000Y-59158000D03*
G04 #@! TO.N,GNDD*
X138684000Y-75160000D03*
X112014000Y-77192000D03*
X121412000Y-75922000D03*
X129540000Y-75414000D03*
X136652000Y-85574000D03*
X133350000Y-143994000D03*
G04 #@! TO.N,GNDA*
X106680000Y-34774000D03*
G04 #@! TO.N,+1V8*
X106934000Y-75414000D03*
X119126000Y-69064000D03*
G04 #@! TO.N,/SCKI(3.3V)*
X143002000Y-84050000D03*
G04 #@! TO.N,/XO*
X109474000Y-60174000D03*
G04 #@! TO.N,/XO_BUFF*
X110490000Y-61444000D03*
G04 #@! TO.N,+3.3VA*
X125730000Y-55856000D03*
X127508000Y-60936000D03*
G04 #@! TO.N,/XI_DIS*
X117602000Y-54840000D03*
G04 #@! TO.N,/XI*
X119126000Y-50014000D03*
X125476000Y-69572000D03*
X122682000Y-72366000D03*
G04 #@! TO.N,/XI_DIS*
X117602000Y-67540000D03*
G04 #@! TO.N,/XO_DIS*
X113284000Y-50268000D03*
X115316000Y-64238000D03*
G04 #@! TD*
D16*
G04 #@! TO.N,/XI*
X122682000Y-72366000D02*
X125476000Y-69572000D01*
D17*
X121666000Y-52554000D02*
X121666000Y-65000000D01*
X125476000Y-68810000D02*
X125476000Y-69572000D01*
X119126000Y-50014000D02*
X121666000Y-52554000D01*
X121666000Y-65000000D02*
X125476000Y-68810000D01*
G04 #@! TO.N,+1V8*
X112776000Y-75414000D02*
X106934000Y-75414000D01*
X119126000Y-69064000D02*
X112776000Y-75414000D01*
G04 #@! TO.N,/XO_BUFF*
X118618000Y-89586000D02*
X118618000Y-90146000D01*
X117068000Y-88596000D02*
X117628000Y-88596000D01*
X104902000Y-76430000D02*
X117068000Y-88596000D01*
X104902000Y-67032000D02*
X104902000Y-76430000D01*
X110490000Y-61444000D02*
X104902000Y-67032000D01*
X117628000Y-88596000D02*
X118618000Y-89586000D01*
G04 #@! TO.N,/XO*
X103378000Y-77446000D02*
X116078000Y-90146000D01*
X103378000Y-66270000D02*
X103378000Y-77446000D01*
X109474000Y-60174000D02*
X103378000Y-66270000D01*
G04 #@! TO.N,/SCKI(3.3V)*
X136906000Y-90146000D02*
X126238000Y-90146000D01*
X143002000Y-84050000D02*
X136906000Y-90146000D01*
G04 #@! TO.N,+3.3VA*
X125730000Y-59158000D02*
X125730000Y-55856000D01*
X127508000Y-60936000D02*
X125730000Y-59158000D01*
G04 #@! TO.N,/XI_DIS*
X117602000Y-54840000D02*
X117602000Y-67540000D01*
D16*
G04 #@! TO.N,/XO_DIS*
X113284000Y-62206000D02*
X115316000Y-64238000D01*
X113284000Y-50268000D02*
X113284000Y-62206000D01*
G04 #@! TD*
G04 #@! TA.AperFunction,Conductor*
G04 #@! TO.N,GNDA*
G36*
X96860950Y-23175580D02*
G01*
X96905801Y-23217153D01*
X96925328Y-23275106D01*
X96914781Y-23335344D01*
X96876725Y-23383216D01*
X96800486Y-23441170D01*
X96787256Y-23453702D01*
X96787255Y-23453703D01*
X98940000Y-25606447D01*
X98940001Y-25606447D01*
X101092743Y-23453703D01*
X101092742Y-23453702D01*
X101079513Y-23441170D01*
X101003274Y-23383215D01*
X100965219Y-23335344D01*
X100954672Y-23275106D01*
X100974199Y-23217153D01*
X101019050Y-23175580D01*
X101078316Y-23160500D01*
X157761684Y-23160500D01*
X157820950Y-23175580D01*
X157865801Y-23217153D01*
X157885328Y-23275106D01*
X157874781Y-23335344D01*
X157836725Y-23383216D01*
X157760486Y-23441170D01*
X157747256Y-23453702D01*
X157747255Y-23453703D01*
X159900000Y-25606447D01*
X159900001Y-25606447D01*
X162052743Y-23453703D01*
X162052742Y-23453702D01*
X162039513Y-23441170D01*
X161963274Y-23383215D01*
X161925219Y-23335344D01*
X161914672Y-23275106D01*
X161934199Y-23217153D01*
X161979050Y-23175580D01*
X162038316Y-23160500D01*
X162512405Y-23160500D01*
X162557294Y-23160500D01*
X162562702Y-23160618D01*
X162576499Y-23161220D01*
X162971173Y-23178451D01*
X162981910Y-23179391D01*
X163384584Y-23232404D01*
X163395222Y-23234279D01*
X163791749Y-23322188D01*
X163802189Y-23324986D01*
X164189530Y-23447113D01*
X164199676Y-23450806D01*
X164574911Y-23606234D01*
X164584702Y-23610800D01*
X164944942Y-23798329D01*
X164954309Y-23803736D01*
X165199586Y-23959995D01*
X165296840Y-24021952D01*
X165305699Y-24028155D01*
X165602853Y-24256170D01*
X165627909Y-24275396D01*
X165636195Y-24282350D01*
X165935624Y-24556726D01*
X165943273Y-24564375D01*
X166217649Y-24863804D01*
X166224603Y-24872090D01*
X166471842Y-25194297D01*
X166478047Y-25203159D01*
X166696262Y-25545689D01*
X166701670Y-25555057D01*
X166889196Y-25915290D01*
X166893768Y-25925094D01*
X167049189Y-26300313D01*
X167052889Y-26310479D01*
X167175012Y-26697806D01*
X167177812Y-26708254D01*
X167265718Y-27104769D01*
X167267596Y-27115423D01*
X167320606Y-27518069D01*
X167321549Y-27528845D01*
X167337047Y-27883827D01*
X167339382Y-27937297D01*
X167339500Y-27942706D01*
X167339500Y-143616000D01*
X167322887Y-143678000D01*
X167277500Y-143723387D01*
X167215500Y-143740000D01*
X142364000Y-143740000D01*
X142302000Y-143723387D01*
X142256613Y-143678000D01*
X142240000Y-143616000D01*
X142240000Y-100564999D01*
X157132843Y-100564999D01*
X157151435Y-100789363D01*
X157206705Y-101007618D01*
X157297138Y-101213788D01*
X157297140Y-101213791D01*
X157420278Y-101402268D01*
X157572760Y-101567906D01*
X157750424Y-101706189D01*
X157948426Y-101813342D01*
X158161365Y-101886444D01*
X158383431Y-101923500D01*
X158608569Y-101923500D01*
X158830635Y-101886444D01*
X159043574Y-101813342D01*
X159241576Y-101706189D01*
X159419240Y-101567906D01*
X159571722Y-101402268D01*
X159694860Y-101213791D01*
X159785296Y-101007616D01*
X159840564Y-100789368D01*
X159859156Y-100565000D01*
X159840564Y-100340632D01*
X159785296Y-100122384D01*
X159694860Y-99916209D01*
X159571722Y-99727732D01*
X159419240Y-99562094D01*
X159241576Y-99423811D01*
X159205067Y-99404053D01*
X159157563Y-99358474D01*
X159140086Y-99295000D01*
X159157563Y-99231526D01*
X159205067Y-99185946D01*
X159241576Y-99166189D01*
X159419240Y-99027906D01*
X159571722Y-98862268D01*
X159694860Y-98673791D01*
X159785296Y-98467616D01*
X159840564Y-98249368D01*
X159859156Y-98025000D01*
X159840564Y-97800632D01*
X159785296Y-97582384D01*
X159694860Y-97376209D01*
X159571722Y-97187732D01*
X159571721Y-97187731D01*
X159571718Y-97187726D01*
X159426510Y-97029990D01*
X159397736Y-96977238D01*
X159397143Y-96917151D01*
X159424870Y-96863840D01*
X159474401Y-96829827D01*
X159592204Y-96785889D01*
X159709261Y-96698261D01*
X159796889Y-96581204D01*
X159847989Y-96444201D01*
X159854500Y-96383638D01*
X159854500Y-94586362D01*
X159847989Y-94525799D01*
X159847988Y-94525797D01*
X159847988Y-94525794D01*
X159796889Y-94388796D01*
X159709261Y-94271738D01*
X159592203Y-94184110D01*
X159455205Y-94133011D01*
X159424919Y-94129755D01*
X159394638Y-94126500D01*
X157597362Y-94126500D01*
X157570445Y-94129393D01*
X157536794Y-94133011D01*
X157399796Y-94184110D01*
X157282738Y-94271738D01*
X157195110Y-94388796D01*
X157144011Y-94525794D01*
X157137500Y-94586366D01*
X157137500Y-96383634D01*
X157144011Y-96444205D01*
X157195110Y-96581203D01*
X157282738Y-96698261D01*
X157399793Y-96785887D01*
X157399796Y-96785889D01*
X157517596Y-96829826D01*
X157567129Y-96863840D01*
X157594856Y-96917151D01*
X157594263Y-96977237D01*
X157565490Y-97029990D01*
X157420279Y-97187730D01*
X157297138Y-97376211D01*
X157206705Y-97582381D01*
X157151435Y-97800636D01*
X157132843Y-98025000D01*
X157151435Y-98249363D01*
X157206705Y-98467618D01*
X157297138Y-98673788D01*
X157297140Y-98673791D01*
X157420278Y-98862268D01*
X157572760Y-99027906D01*
X157750424Y-99166189D01*
X157786930Y-99185945D01*
X157834435Y-99231524D01*
X157851913Y-99294997D01*
X157834437Y-99358471D01*
X157786933Y-99404052D01*
X157750427Y-99423809D01*
X157572760Y-99562094D01*
X157420279Y-99727730D01*
X157297138Y-99916211D01*
X157206705Y-100122381D01*
X157151435Y-100340636D01*
X157132843Y-100564999D01*
X142240000Y-100564999D01*
X142240000Y-87860000D01*
X157132843Y-87860000D01*
X157151435Y-88084363D01*
X157206705Y-88302618D01*
X157297138Y-88508788D01*
X157297140Y-88508791D01*
X157420278Y-88697268D01*
X157572760Y-88862906D01*
X157750424Y-89001189D01*
X157948426Y-89108342D01*
X158161365Y-89181444D01*
X158383431Y-89218500D01*
X158608569Y-89218500D01*
X158830635Y-89181444D01*
X159043574Y-89108342D01*
X159241576Y-89001189D01*
X159419240Y-88862906D01*
X159571722Y-88697268D01*
X159694860Y-88508791D01*
X159785296Y-88302616D01*
X159840564Y-88084368D01*
X159859156Y-87860000D01*
X159840564Y-87635632D01*
X159785296Y-87417384D01*
X159694860Y-87211209D01*
X159571722Y-87022732D01*
X159419240Y-86857094D01*
X159241576Y-86718811D01*
X159205067Y-86699053D01*
X159157563Y-86653474D01*
X159140086Y-86590000D01*
X159157563Y-86526526D01*
X159205067Y-86480946D01*
X159241576Y-86461189D01*
X159419240Y-86322906D01*
X159571722Y-86157268D01*
X159694860Y-85968791D01*
X159785296Y-85762616D01*
X159840564Y-85544368D01*
X159859156Y-85320000D01*
X159840564Y-85095632D01*
X159785296Y-84877384D01*
X159694860Y-84671209D01*
X159571722Y-84482732D01*
X159419240Y-84317094D01*
X159241576Y-84178811D01*
X159205067Y-84159053D01*
X159157563Y-84113474D01*
X159140086Y-84050000D01*
X159157563Y-83986526D01*
X159205067Y-83940946D01*
X159241576Y-83921189D01*
X159419240Y-83782906D01*
X159571722Y-83617268D01*
X159694860Y-83428791D01*
X159785296Y-83222616D01*
X159840564Y-83004368D01*
X159859156Y-82780000D01*
X159840564Y-82555632D01*
X159785296Y-82337384D01*
X159694860Y-82131209D01*
X159571722Y-81942732D01*
X159571721Y-81942731D01*
X159571718Y-81942726D01*
X159426510Y-81784990D01*
X159397736Y-81732238D01*
X159397143Y-81672151D01*
X159424870Y-81618840D01*
X159474401Y-81584827D01*
X159592204Y-81540889D01*
X159709261Y-81453261D01*
X159796889Y-81336204D01*
X159847989Y-81199201D01*
X159854500Y-81138638D01*
X159854500Y-79341362D01*
X159847989Y-79280799D01*
X159847988Y-79280797D01*
X159847988Y-79280794D01*
X159796889Y-79143796D01*
X159709261Y-79026738D01*
X159592203Y-78939110D01*
X159455205Y-78888011D01*
X159424919Y-78884755D01*
X159394638Y-78881500D01*
X157597362Y-78881500D01*
X157570445Y-78884393D01*
X157536794Y-78888011D01*
X157399796Y-78939110D01*
X157282738Y-79026738D01*
X157195110Y-79143796D01*
X157144011Y-79280794D01*
X157137500Y-79341366D01*
X157137500Y-81138634D01*
X157144011Y-81199205D01*
X157195110Y-81336203D01*
X157282738Y-81453261D01*
X157399793Y-81540887D01*
X157399796Y-81540889D01*
X157517596Y-81584826D01*
X157567129Y-81618840D01*
X157594856Y-81672151D01*
X157594263Y-81732237D01*
X157565490Y-81784990D01*
X157420279Y-81942730D01*
X157297138Y-82131211D01*
X157206705Y-82337381D01*
X157151435Y-82555636D01*
X157132843Y-82780000D01*
X157151435Y-83004363D01*
X157151435Y-83004366D01*
X157151436Y-83004368D01*
X157202852Y-83207405D01*
X157206705Y-83222618D01*
X157297138Y-83428788D01*
X157297140Y-83428791D01*
X157420278Y-83617268D01*
X157572760Y-83782906D01*
X157750424Y-83921189D01*
X157750426Y-83921190D01*
X157786931Y-83940946D01*
X157834436Y-83986527D01*
X157851913Y-84050000D01*
X157834436Y-84113473D01*
X157786931Y-84159054D01*
X157750426Y-84178809D01*
X157572760Y-84317094D01*
X157420279Y-84482730D01*
X157297138Y-84671211D01*
X157206705Y-84877381D01*
X157151435Y-85095636D01*
X157132843Y-85319999D01*
X157151435Y-85544363D01*
X157206705Y-85762618D01*
X157297138Y-85968788D01*
X157297140Y-85968791D01*
X157420278Y-86157268D01*
X157572760Y-86322906D01*
X157750424Y-86461189D01*
X157750426Y-86461190D01*
X157786931Y-86480946D01*
X157834436Y-86526527D01*
X157851913Y-86590000D01*
X157834436Y-86653473D01*
X157786931Y-86699054D01*
X157750426Y-86718809D01*
X157572760Y-86857094D01*
X157420279Y-87022730D01*
X157297138Y-87211211D01*
X157206705Y-87417381D01*
X157206704Y-87417384D01*
X157163625Y-87587500D01*
X157151435Y-87635636D01*
X157132843Y-87860000D01*
X142240000Y-87860000D01*
X142240000Y-86289595D01*
X142249439Y-86242142D01*
X142276319Y-86201914D01*
X142933870Y-85544363D01*
X143675781Y-84802451D01*
X143684776Y-84794299D01*
X143718568Y-84766568D01*
X143844595Y-84613004D01*
X143938241Y-84437804D01*
X143955268Y-84381675D01*
X143995909Y-84247701D01*
X144015380Y-84050000D01*
X143995909Y-83852299D01*
X143938241Y-83662196D01*
X143917074Y-83622595D01*
X143844595Y-83486996D01*
X143718568Y-83333432D01*
X143572019Y-83213162D01*
X143565003Y-83207404D01*
X143389802Y-83113758D01*
X143382935Y-83111675D01*
X143382934Y-83111675D01*
X143199702Y-83056091D01*
X143002000Y-83036620D01*
X142804297Y-83056091D01*
X142658442Y-83100337D01*
X142658440Y-83100337D01*
X142614194Y-83113759D01*
X142428225Y-83213162D01*
X142427103Y-83211064D01*
X142379179Y-83231608D01*
X142310983Y-83220636D01*
X142259238Y-83174881D01*
X142240000Y-83108541D01*
X142240000Y-73890000D01*
X157132843Y-73890000D01*
X157151435Y-74114363D01*
X157151435Y-74114366D01*
X157151436Y-74114368D01*
X157202852Y-74317405D01*
X157206705Y-74332618D01*
X157297138Y-74538788D01*
X157297140Y-74538791D01*
X157420278Y-74727268D01*
X157572760Y-74892906D01*
X157750424Y-75031189D01*
X157948426Y-75138342D01*
X158161365Y-75211444D01*
X158383431Y-75248500D01*
X158608569Y-75248500D01*
X158830635Y-75211444D01*
X159043574Y-75138342D01*
X159241576Y-75031189D01*
X159419240Y-74892906D01*
X159571722Y-74727268D01*
X159694860Y-74538791D01*
X159785296Y-74332616D01*
X159840564Y-74114368D01*
X159859156Y-73890000D01*
X159840564Y-73665632D01*
X159785296Y-73447384D01*
X159694860Y-73241209D01*
X159571722Y-73052732D01*
X159419240Y-72887094D01*
X159241576Y-72748811D01*
X159205067Y-72729053D01*
X159157563Y-72683474D01*
X159140086Y-72620000D01*
X159157563Y-72556526D01*
X159205067Y-72510946D01*
X159241576Y-72491189D01*
X159419240Y-72352906D01*
X159571722Y-72187268D01*
X159694860Y-71998791D01*
X159785296Y-71792616D01*
X159840564Y-71574368D01*
X159859156Y-71350000D01*
X159840564Y-71125632D01*
X159785296Y-70907384D01*
X159694860Y-70701209D01*
X159571722Y-70512732D01*
X159419240Y-70347094D01*
X159241576Y-70208811D01*
X159205067Y-70189053D01*
X159157563Y-70143474D01*
X159140086Y-70080000D01*
X159157563Y-70016526D01*
X159205067Y-69970946D01*
X159241576Y-69951189D01*
X159419240Y-69812906D01*
X159571722Y-69647268D01*
X159694860Y-69458791D01*
X159785296Y-69252616D01*
X159840564Y-69034368D01*
X159859156Y-68810000D01*
X159840564Y-68585632D01*
X159785296Y-68367384D01*
X159694860Y-68161209D01*
X159571722Y-67972732D01*
X159571721Y-67972731D01*
X159571718Y-67972726D01*
X159426510Y-67814990D01*
X159397736Y-67762238D01*
X159397143Y-67702151D01*
X159424870Y-67648840D01*
X159474401Y-67614827D01*
X159592204Y-67570889D01*
X159709261Y-67483261D01*
X159796889Y-67366204D01*
X159847989Y-67229201D01*
X159854500Y-67168638D01*
X159854500Y-65371362D01*
X159847989Y-65310799D01*
X159847988Y-65310797D01*
X159847988Y-65310794D01*
X159796889Y-65173796D01*
X159709261Y-65056738D01*
X159592203Y-64969110D01*
X159455205Y-64918011D01*
X159424919Y-64914755D01*
X159394638Y-64911500D01*
X157597362Y-64911500D01*
X157570445Y-64914393D01*
X157536794Y-64918011D01*
X157399796Y-64969110D01*
X157282738Y-65056738D01*
X157195110Y-65173796D01*
X157144011Y-65310794D01*
X157137500Y-65371366D01*
X157137500Y-67168634D01*
X157144011Y-67229205D01*
X157195110Y-67366203D01*
X157282738Y-67483261D01*
X157358533Y-67540000D01*
X157399796Y-67570889D01*
X157517596Y-67614826D01*
X157567129Y-67648840D01*
X157594856Y-67702151D01*
X157594263Y-67762237D01*
X157565490Y-67814990D01*
X157420279Y-67972730D01*
X157297138Y-68161211D01*
X157206705Y-68367381D01*
X157206704Y-68367384D01*
X157190642Y-68430811D01*
X157151435Y-68585636D01*
X157132843Y-68810000D01*
X157151435Y-69034363D01*
X157151435Y-69034366D01*
X157151436Y-69034368D01*
X157194352Y-69203840D01*
X157206705Y-69252618D01*
X157297138Y-69458788D01*
X157297140Y-69458791D01*
X157420278Y-69647268D01*
X157572760Y-69812906D01*
X157750424Y-69951189D01*
X157750426Y-69951190D01*
X157786931Y-69970946D01*
X157834436Y-70016527D01*
X157851913Y-70080000D01*
X157834436Y-70143473D01*
X157786931Y-70189054D01*
X157750426Y-70208809D01*
X157572760Y-70347094D01*
X157420279Y-70512730D01*
X157297138Y-70701211D01*
X157206705Y-70907381D01*
X157151435Y-71125636D01*
X157132843Y-71350000D01*
X157151435Y-71574363D01*
X157151435Y-71574366D01*
X157151436Y-71574368D01*
X157175497Y-71669384D01*
X157206705Y-71792618D01*
X157297138Y-71998788D01*
X157297140Y-71998791D01*
X157420278Y-72187268D01*
X157572760Y-72352906D01*
X157750424Y-72491189D01*
X157750426Y-72491190D01*
X157786931Y-72510946D01*
X157834436Y-72556527D01*
X157851913Y-72620000D01*
X157834436Y-72683473D01*
X157786931Y-72729054D01*
X157750426Y-72748809D01*
X157572760Y-72887094D01*
X157420279Y-73052730D01*
X157297138Y-73241211D01*
X157206705Y-73447381D01*
X157151435Y-73665636D01*
X157132843Y-73890000D01*
X142240000Y-73890000D01*
X142240000Y-67540000D01*
X127124000Y-67540000D01*
X127062000Y-67523387D01*
X127016613Y-67478000D01*
X127000000Y-67416000D01*
X127000000Y-62002975D01*
X127013240Y-61947223D01*
X127050133Y-61903378D01*
X127102800Y-61880801D01*
X127159994Y-61884314D01*
X127169749Y-61887272D01*
X127177863Y-61889734D01*
X127310300Y-61929909D01*
X127508000Y-61949380D01*
X127705701Y-61929909D01*
X127895804Y-61872241D01*
X128071004Y-61778595D01*
X128224568Y-61652568D01*
X128350595Y-61499004D01*
X128444241Y-61323804D01*
X128501909Y-61133701D01*
X128521380Y-60936000D01*
X128501909Y-60738300D01*
X128448369Y-60561804D01*
X128444241Y-60548196D01*
X128350595Y-60372996D01*
X128224568Y-60219432D01*
X128190784Y-60191706D01*
X128181769Y-60183535D01*
X126774819Y-58776585D01*
X126747939Y-58736357D01*
X126738500Y-58688904D01*
X126738500Y-55911640D01*
X126739097Y-55899486D01*
X126742090Y-55869094D01*
X126743380Y-55856000D01*
X126723908Y-55658299D01*
X126666241Y-55468196D01*
X126572595Y-55292996D01*
X126446568Y-55139432D01*
X126293004Y-55013405D01*
X126293003Y-55013404D01*
X126198390Y-54962833D01*
X126117804Y-54919759D01*
X125927701Y-54862092D01*
X125927698Y-54862091D01*
X125730000Y-54842620D01*
X125532301Y-54862091D01*
X125468931Y-54881314D01*
X125342196Y-54919759D01*
X125342192Y-54919760D01*
X125342192Y-54919761D01*
X125166996Y-55013404D01*
X125013432Y-55139432D01*
X124887404Y-55292996D01*
X124793761Y-55468192D01*
X124793759Y-55468196D01*
X124755314Y-55594931D01*
X124736091Y-55658301D01*
X124716620Y-55856000D01*
X124720903Y-55899486D01*
X124721500Y-55911640D01*
X124721500Y-59102358D01*
X124720903Y-59114512D01*
X124716620Y-59157999D01*
X124736091Y-59355702D01*
X124769399Y-59465500D01*
X124769399Y-59465502D01*
X124793758Y-59545803D01*
X124893162Y-59731775D01*
X124891064Y-59732896D01*
X124911608Y-59780821D01*
X124900636Y-59849017D01*
X124854881Y-59900762D01*
X124788541Y-59920000D01*
X122798500Y-59920000D01*
X122736500Y-59903387D01*
X122691113Y-59858000D01*
X122674500Y-59796000D01*
X122674500Y-52609640D01*
X122675097Y-52597486D01*
X122675253Y-52595897D01*
X122679380Y-52554000D01*
X122659908Y-52356299D01*
X122602241Y-52166196D01*
X122508595Y-51990996D01*
X122382568Y-51837432D01*
X122348784Y-51809706D01*
X122339769Y-51801535D01*
X120688868Y-50150634D01*
X142405500Y-50150634D01*
X142412011Y-50211205D01*
X142463110Y-50348203D01*
X142550738Y-50465261D01*
X142667796Y-50552889D01*
X142804794Y-50603988D01*
X142804797Y-50603988D01*
X142804799Y-50603989D01*
X142865362Y-50610500D01*
X144662634Y-50610500D01*
X144662638Y-50610500D01*
X144723201Y-50603989D01*
X144723203Y-50603988D01*
X144723205Y-50603988D01*
X144805097Y-50573443D01*
X144860204Y-50552889D01*
X144977261Y-50465261D01*
X145064889Y-50348204D01*
X145110137Y-50226889D01*
X145146089Y-50175677D01*
X145202471Y-50148539D01*
X145264925Y-50152387D01*
X145317548Y-50186241D01*
X145354969Y-50226890D01*
X145380760Y-50254906D01*
X145558424Y-50393189D01*
X145756426Y-50500342D01*
X145969365Y-50573444D01*
X146191431Y-50610500D01*
X146416569Y-50610500D01*
X146638635Y-50573444D01*
X146851574Y-50500342D01*
X147049576Y-50393189D01*
X147227240Y-50254906D01*
X147379722Y-50089268D01*
X147470190Y-49950795D01*
X147514982Y-49909561D01*
X147574000Y-49894616D01*
X147633018Y-49909561D01*
X147677809Y-49950795D01*
X147768278Y-50089268D01*
X147920760Y-50254906D01*
X148098424Y-50393189D01*
X148296426Y-50500342D01*
X148509365Y-50573444D01*
X148731431Y-50610500D01*
X148956569Y-50610500D01*
X149178635Y-50573444D01*
X149391574Y-50500342D01*
X149589576Y-50393189D01*
X149767240Y-50254906D01*
X149919722Y-50089268D01*
X150010190Y-49950795D01*
X150054982Y-49909561D01*
X150114000Y-49894616D01*
X150173018Y-49909561D01*
X150217809Y-49950795D01*
X150308278Y-50089268D01*
X150460760Y-50254906D01*
X150638424Y-50393189D01*
X150836426Y-50500342D01*
X151049365Y-50573444D01*
X151271431Y-50610500D01*
X151496569Y-50610500D01*
X151718635Y-50573444D01*
X151931574Y-50500342D01*
X152129576Y-50393189D01*
X152307240Y-50254906D01*
X152459722Y-50089268D01*
X152582860Y-49900791D01*
X152673296Y-49694616D01*
X152728564Y-49476368D01*
X152747156Y-49252000D01*
X152728564Y-49027632D01*
X152673296Y-48809384D01*
X152582860Y-48603209D01*
X152459722Y-48414732D01*
X152307240Y-48249094D01*
X152129576Y-48110811D01*
X151931574Y-48003658D01*
X151931573Y-48003657D01*
X151931572Y-48003657D01*
X151718636Y-47930556D01*
X151496569Y-47893500D01*
X151271431Y-47893500D01*
X151049363Y-47930556D01*
X150836427Y-48003657D01*
X150638424Y-48110811D01*
X150460760Y-48249094D01*
X150308279Y-48414730D01*
X150217809Y-48553205D01*
X150173017Y-48594438D01*
X150114000Y-48609383D01*
X150054983Y-48594438D01*
X150010191Y-48553205D01*
X149990043Y-48522367D01*
X149919722Y-48414732D01*
X149767240Y-48249094D01*
X149589576Y-48110811D01*
X149391574Y-48003658D01*
X149391573Y-48003657D01*
X149391572Y-48003657D01*
X149178636Y-47930556D01*
X148956569Y-47893500D01*
X148731431Y-47893500D01*
X148509363Y-47930556D01*
X148296427Y-48003657D01*
X148098424Y-48110811D01*
X147920760Y-48249094D01*
X147768279Y-48414730D01*
X147677809Y-48553205D01*
X147633017Y-48594438D01*
X147574000Y-48609383D01*
X147514983Y-48594438D01*
X147470191Y-48553205D01*
X147450043Y-48522367D01*
X147379722Y-48414732D01*
X147227240Y-48249094D01*
X147049576Y-48110811D01*
X146851574Y-48003658D01*
X146851573Y-48003657D01*
X146851572Y-48003657D01*
X146638636Y-47930556D01*
X146416569Y-47893500D01*
X146191431Y-47893500D01*
X145969363Y-47930556D01*
X145756427Y-48003657D01*
X145558424Y-48110811D01*
X145380759Y-48249094D01*
X145317548Y-48317759D01*
X145264924Y-48351612D01*
X145202470Y-48355460D01*
X145146089Y-48328322D01*
X145110138Y-48277110D01*
X145085427Y-48210861D01*
X145064889Y-48155796D01*
X145031214Y-48110811D01*
X144977261Y-48038738D01*
X144860203Y-47951110D01*
X144723205Y-47900011D01*
X144692919Y-47896755D01*
X144662638Y-47893500D01*
X142865362Y-47893500D01*
X142838445Y-47896393D01*
X142804794Y-47900011D01*
X142667796Y-47951110D01*
X142550738Y-48038738D01*
X142463110Y-48155796D01*
X142412011Y-48292794D01*
X142408393Y-48326445D01*
X142405689Y-48351612D01*
X142405500Y-48353366D01*
X142405500Y-50150634D01*
X120688868Y-50150634D01*
X119878464Y-49340230D01*
X119870291Y-49331213D01*
X119842567Y-49297431D01*
X119689003Y-49171404D01*
X119513803Y-49077758D01*
X119323702Y-49020091D01*
X119126000Y-49000620D01*
X118928296Y-49020091D01*
X118694695Y-49090954D01*
X118661176Y-49118926D01*
X118562995Y-49171405D01*
X118409432Y-49297432D01*
X118283404Y-49450996D01*
X118235443Y-49540727D01*
X118189758Y-49626195D01*
X118132091Y-49816297D01*
X118112620Y-50014000D01*
X118132091Y-50211702D01*
X118145196Y-50254903D01*
X118187146Y-50393189D01*
X118189759Y-50401804D01*
X118189760Y-50401806D01*
X118283404Y-50577003D01*
X118409431Y-50730567D01*
X118443213Y-50758291D01*
X118452230Y-50766464D01*
X120621181Y-52935415D01*
X120648061Y-52975643D01*
X120657500Y-53023096D01*
X120657500Y-59796000D01*
X120640887Y-59858000D01*
X120595500Y-59903387D01*
X120533500Y-59920000D01*
X118734500Y-59920000D01*
X118672500Y-59903387D01*
X118627113Y-59858000D01*
X118610500Y-59796000D01*
X118610500Y-54895640D01*
X118611097Y-54883486D01*
X118613204Y-54862091D01*
X118615380Y-54840000D01*
X118595908Y-54642299D01*
X118538241Y-54452196D01*
X118444595Y-54276996D01*
X118318568Y-54123432D01*
X118165004Y-53997405D01*
X118165003Y-53997404D01*
X118070390Y-53946833D01*
X117989804Y-53903759D01*
X117799701Y-53846092D01*
X117799698Y-53846091D01*
X117602000Y-53826620D01*
X117404301Y-53846091D01*
X117340931Y-53865314D01*
X117214196Y-53903759D01*
X117214192Y-53903760D01*
X117214192Y-53903761D01*
X117038996Y-53997404D01*
X116885432Y-54123432D01*
X116759404Y-54276996D01*
X116665761Y-54452192D01*
X116665759Y-54452196D01*
X116627314Y-54578931D01*
X116608091Y-54642301D01*
X116588620Y-54840000D01*
X116592903Y-54883486D01*
X116593500Y-54895640D01*
X116593500Y-59796000D01*
X116576887Y-59858000D01*
X116531500Y-59903387D01*
X116469500Y-59920000D01*
X114291500Y-59920000D01*
X114229500Y-59903387D01*
X114184113Y-59858000D01*
X114167500Y-59796000D01*
X114167500Y-50785536D01*
X114182140Y-50727085D01*
X114220241Y-50655804D01*
X114277908Y-50465701D01*
X114297380Y-50268000D01*
X114277908Y-50070299D01*
X114220241Y-49880196D01*
X114126595Y-49704996D01*
X114000568Y-49551432D01*
X113847004Y-49425405D01*
X113847003Y-49425404D01*
X113687652Y-49340230D01*
X113671804Y-49331759D01*
X113481701Y-49274092D01*
X113481698Y-49274091D01*
X113308247Y-49257008D01*
X113284000Y-49254620D01*
X113283999Y-49254620D01*
X113086301Y-49274091D01*
X113022931Y-49293314D01*
X112896196Y-49331759D01*
X112896192Y-49331760D01*
X112896192Y-49331761D01*
X112720996Y-49425404D01*
X112567432Y-49551432D01*
X112441404Y-49704996D01*
X112347761Y-49880192D01*
X112347759Y-49880196D01*
X112326343Y-49950795D01*
X112290091Y-50070301D01*
X112270620Y-50268000D01*
X112290091Y-50465698D01*
X112290092Y-50465701D01*
X112347759Y-50655804D01*
X112385859Y-50727085D01*
X112400500Y-50785536D01*
X112400500Y-59796000D01*
X112383887Y-59858000D01*
X112338500Y-59903387D01*
X112276500Y-59920000D01*
X110542795Y-59920000D01*
X110491620Y-59908947D01*
X110449567Y-59877759D01*
X110424135Y-59831996D01*
X110410241Y-59786196D01*
X110364557Y-59700727D01*
X110316595Y-59610996D01*
X110263092Y-59545803D01*
X110190568Y-59457432D01*
X110037004Y-59331405D01*
X110037003Y-59331404D01*
X109864504Y-59239202D01*
X109862130Y-59237857D01*
X109671699Y-59180090D01*
X109474000Y-59160620D01*
X109276297Y-59180091D01*
X109163533Y-59214299D01*
X109163530Y-59214299D01*
X109086196Y-59237758D01*
X108910996Y-59331404D01*
X108757433Y-59457430D01*
X108729707Y-59491214D01*
X108721536Y-59500228D01*
X108338084Y-59883681D01*
X108297856Y-59910561D01*
X108250403Y-59920000D01*
X101724000Y-59920000D01*
X101662000Y-59903387D01*
X101616613Y-59858000D01*
X101600000Y-59796000D01*
X101600000Y-54840000D01*
X100280000Y-54840000D01*
X100218000Y-54823387D01*
X100172613Y-54778000D01*
X100156000Y-54716000D01*
X100156000Y-54582000D01*
X97456000Y-54582000D01*
X97456000Y-54716000D01*
X97439387Y-54778000D01*
X97394000Y-54823387D01*
X97332000Y-54840000D01*
X91864500Y-54840000D01*
X91802500Y-54823387D01*
X91757113Y-54778000D01*
X91740500Y-54716000D01*
X91740500Y-54082000D01*
X97456000Y-54082000D01*
X98556000Y-54082000D01*
X98556000Y-52982000D01*
X99056000Y-52982000D01*
X99056000Y-54082000D01*
X100156000Y-54082000D01*
X100156000Y-53434176D01*
X100149597Y-53374624D01*
X100099352Y-53239910D01*
X100013188Y-53124811D01*
X99898089Y-53038647D01*
X99763375Y-52988402D01*
X99703824Y-52982000D01*
X99056000Y-52982000D01*
X98556000Y-52982000D01*
X97908176Y-52982000D01*
X97848624Y-52988402D01*
X97713910Y-53038647D01*
X97598811Y-53124811D01*
X97512647Y-53239910D01*
X97462402Y-53374624D01*
X97456000Y-53434176D01*
X97456000Y-54082000D01*
X91740500Y-54082000D01*
X91740500Y-39859000D01*
X99987843Y-39859000D01*
X100006435Y-40083363D01*
X100061705Y-40301618D01*
X100152138Y-40507788D01*
X100275281Y-40696273D01*
X100420489Y-40854009D01*
X100449263Y-40906761D01*
X100449856Y-40966848D01*
X100422129Y-41020158D01*
X100372595Y-41054173D01*
X100254795Y-41098111D01*
X100137738Y-41185738D01*
X100050110Y-41302796D01*
X99999011Y-41439794D01*
X99995393Y-41473445D01*
X99992689Y-41498612D01*
X99992500Y-41500366D01*
X99992500Y-43297634D01*
X99999011Y-43358205D01*
X100050110Y-43495203D01*
X100137738Y-43612261D01*
X100254796Y-43699889D01*
X100391794Y-43750988D01*
X100391797Y-43750988D01*
X100391799Y-43750989D01*
X100452362Y-43757500D01*
X102249634Y-43757500D01*
X102249638Y-43757500D01*
X102310201Y-43750989D01*
X102310203Y-43750988D01*
X102310205Y-43750988D01*
X102392097Y-43720443D01*
X102447204Y-43699889D01*
X102564261Y-43612261D01*
X102651889Y-43495204D01*
X102697137Y-43373889D01*
X102733089Y-43322677D01*
X102789471Y-43295539D01*
X102851925Y-43299387D01*
X102904548Y-43333241D01*
X102941969Y-43373890D01*
X102967760Y-43401906D01*
X103145424Y-43540189D01*
X103343426Y-43647342D01*
X103556365Y-43720444D01*
X103778431Y-43757500D01*
X104003569Y-43757500D01*
X104225635Y-43720444D01*
X104438574Y-43647342D01*
X104636576Y-43540189D01*
X104814240Y-43401906D01*
X104966722Y-43236268D01*
X105057190Y-43097795D01*
X105101982Y-43056561D01*
X105161000Y-43041616D01*
X105220018Y-43056561D01*
X105264809Y-43097795D01*
X105355278Y-43236268D01*
X105507760Y-43401906D01*
X105685424Y-43540189D01*
X105883426Y-43647342D01*
X106096365Y-43720444D01*
X106318431Y-43757500D01*
X106543569Y-43757500D01*
X106765635Y-43720444D01*
X106978574Y-43647342D01*
X107176576Y-43540189D01*
X107354240Y-43401906D01*
X107506722Y-43236268D01*
X107597190Y-43097795D01*
X107641982Y-43056561D01*
X107701000Y-43041616D01*
X107760018Y-43056561D01*
X107804809Y-43097795D01*
X107895278Y-43236268D01*
X108047760Y-43401906D01*
X108225424Y-43540189D01*
X108423426Y-43647342D01*
X108636365Y-43720444D01*
X108858431Y-43757500D01*
X109083569Y-43757500D01*
X109305635Y-43720444D01*
X109518574Y-43647342D01*
X109716576Y-43540189D01*
X109894240Y-43401906D01*
X110046722Y-43236268D01*
X110137190Y-43097795D01*
X110181982Y-43056561D01*
X110241000Y-43041616D01*
X110300018Y-43056561D01*
X110344809Y-43097795D01*
X110435278Y-43236268D01*
X110587760Y-43401906D01*
X110765424Y-43540189D01*
X110963426Y-43647342D01*
X111176365Y-43720444D01*
X111398431Y-43757500D01*
X111623569Y-43757500D01*
X111845635Y-43720444D01*
X112058574Y-43647342D01*
X112256576Y-43540189D01*
X112434240Y-43401906D01*
X112586722Y-43236268D01*
X112709860Y-43047791D01*
X112800296Y-42841616D01*
X112855564Y-42623368D01*
X112874156Y-42399000D01*
X112855564Y-42174632D01*
X112800296Y-41956384D01*
X112709860Y-41750209D01*
X112586722Y-41561732D01*
X112434240Y-41396094D01*
X112256576Y-41257811D01*
X112220067Y-41238053D01*
X112172563Y-41192474D01*
X112155086Y-41129000D01*
X112172563Y-41065526D01*
X112220067Y-41019946D01*
X112256576Y-41000189D01*
X112434240Y-40861906D01*
X112586722Y-40696268D01*
X112709860Y-40507791D01*
X112800296Y-40301616D01*
X112855564Y-40083368D01*
X112874156Y-39859000D01*
X112855564Y-39634632D01*
X112800296Y-39416384D01*
X112709860Y-39210209D01*
X112586722Y-39021732D01*
X112434240Y-38856094D01*
X112256576Y-38717811D01*
X112058574Y-38610658D01*
X112058573Y-38610657D01*
X112058572Y-38610657D01*
X111845636Y-38537556D01*
X111623569Y-38500500D01*
X111398431Y-38500500D01*
X111176363Y-38537556D01*
X110963427Y-38610657D01*
X110765424Y-38717811D01*
X110587760Y-38856094D01*
X110435279Y-39021730D01*
X110344809Y-39160205D01*
X110300017Y-39201438D01*
X110241000Y-39216383D01*
X110181983Y-39201438D01*
X110137191Y-39160205D01*
X110117043Y-39129367D01*
X110046722Y-39021732D01*
X109894240Y-38856094D01*
X109716576Y-38717811D01*
X109518574Y-38610658D01*
X109518573Y-38610657D01*
X109518572Y-38610657D01*
X109305636Y-38537556D01*
X109083569Y-38500500D01*
X108858431Y-38500500D01*
X108636363Y-38537556D01*
X108423427Y-38610657D01*
X108225424Y-38717811D01*
X108047760Y-38856094D01*
X107895279Y-39021730D01*
X107804809Y-39160205D01*
X107760017Y-39201438D01*
X107701000Y-39216383D01*
X107641983Y-39201438D01*
X107597191Y-39160205D01*
X107577043Y-39129367D01*
X107506722Y-39021732D01*
X107354240Y-38856094D01*
X107176576Y-38717811D01*
X106978574Y-38610658D01*
X106978573Y-38610657D01*
X106978572Y-38610657D01*
X106765636Y-38537556D01*
X106543569Y-38500500D01*
X106318431Y-38500500D01*
X106096363Y-38537556D01*
X105883427Y-38610657D01*
X105685424Y-38717811D01*
X105507760Y-38856094D01*
X105355279Y-39021730D01*
X105264809Y-39160205D01*
X105220017Y-39201438D01*
X105161000Y-39216383D01*
X105101983Y-39201438D01*
X105057191Y-39160205D01*
X105037043Y-39129367D01*
X104966722Y-39021732D01*
X104814240Y-38856094D01*
X104636576Y-38717811D01*
X104438574Y-38610658D01*
X104438573Y-38610657D01*
X104438572Y-38610657D01*
X104225636Y-38537556D01*
X104003569Y-38500500D01*
X103778431Y-38500500D01*
X103556363Y-38537556D01*
X103343427Y-38610657D01*
X103145424Y-38717811D01*
X102967760Y-38856094D01*
X102815279Y-39021730D01*
X102724809Y-39160205D01*
X102680017Y-39201438D01*
X102621000Y-39216383D01*
X102561983Y-39201438D01*
X102517191Y-39160205D01*
X102497043Y-39129367D01*
X102426722Y-39021732D01*
X102274240Y-38856094D01*
X102096576Y-38717811D01*
X101898574Y-38610658D01*
X101898573Y-38610657D01*
X101898572Y-38610657D01*
X101685636Y-38537556D01*
X101463569Y-38500500D01*
X101238431Y-38500500D01*
X101016363Y-38537556D01*
X100803427Y-38610657D01*
X100605424Y-38717811D01*
X100427760Y-38856094D01*
X100275279Y-39021730D01*
X100152138Y-39210211D01*
X100061705Y-39416381D01*
X100006435Y-39634636D01*
X99987843Y-39859000D01*
X91740500Y-39859000D01*
X91740500Y-30338634D01*
X142405500Y-30338634D01*
X142412011Y-30399205D01*
X142463110Y-30536203D01*
X142550738Y-30653261D01*
X142667796Y-30740889D01*
X142804794Y-30791988D01*
X142804797Y-30791988D01*
X142804799Y-30791989D01*
X142865362Y-30798500D01*
X144662634Y-30798500D01*
X144662638Y-30798500D01*
X144723201Y-30791989D01*
X144723203Y-30791988D01*
X144723205Y-30791988D01*
X144805097Y-30761443D01*
X144860204Y-30740889D01*
X144977261Y-30653261D01*
X145064889Y-30536204D01*
X145110137Y-30414889D01*
X145146089Y-30363677D01*
X145202471Y-30336539D01*
X145264925Y-30340387D01*
X145317548Y-30374241D01*
X145354969Y-30414890D01*
X145380760Y-30442906D01*
X145558424Y-30581189D01*
X145756426Y-30688342D01*
X145969365Y-30761444D01*
X146191431Y-30798500D01*
X146416569Y-30798500D01*
X146638635Y-30761444D01*
X146851574Y-30688342D01*
X147049576Y-30581189D01*
X147227240Y-30442906D01*
X147379722Y-30277268D01*
X147470190Y-30138795D01*
X147514982Y-30097561D01*
X147574000Y-30082616D01*
X147633018Y-30097561D01*
X147677809Y-30138795D01*
X147768278Y-30277268D01*
X147920760Y-30442906D01*
X148098424Y-30581189D01*
X148296426Y-30688342D01*
X148509365Y-30761444D01*
X148731431Y-30798500D01*
X148956569Y-30798500D01*
X149178635Y-30761444D01*
X149391574Y-30688342D01*
X149589576Y-30581189D01*
X149767240Y-30442906D01*
X149919722Y-30277268D01*
X150010190Y-30138795D01*
X150054982Y-30097561D01*
X150114000Y-30082616D01*
X150173018Y-30097561D01*
X150217809Y-30138795D01*
X150308278Y-30277268D01*
X150460760Y-30442906D01*
X150638424Y-30581189D01*
X150836426Y-30688342D01*
X151049365Y-30761444D01*
X151271431Y-30798500D01*
X151496569Y-30798500D01*
X151718635Y-30761444D01*
X151931574Y-30688342D01*
X152129576Y-30581189D01*
X152307240Y-30442906D01*
X152459722Y-30277268D01*
X152582860Y-30088791D01*
X152673296Y-29882616D01*
X152728564Y-29664368D01*
X152747156Y-29440000D01*
X152728564Y-29215632D01*
X152673296Y-28997384D01*
X152582860Y-28791209D01*
X152459722Y-28602732D01*
X152334122Y-28466295D01*
X157747255Y-28466295D01*
X157747256Y-28466296D01*
X157760485Y-28478828D01*
X158045363Y-28695386D01*
X158351984Y-28879873D01*
X158676746Y-29030124D01*
X159015859Y-29144385D01*
X159365335Y-29221310D01*
X159721078Y-29260000D01*
X160078922Y-29260000D01*
X160434664Y-29221310D01*
X160784140Y-29144385D01*
X161123253Y-29030124D01*
X161448015Y-28879873D01*
X161754636Y-28695386D01*
X162039515Y-28478827D01*
X162052742Y-28466297D01*
X162052743Y-28466295D01*
X159900000Y-26313553D01*
X157747255Y-28466295D01*
X152334122Y-28466295D01*
X152307240Y-28437094D01*
X152129576Y-28298811D01*
X151931574Y-28191658D01*
X151931573Y-28191657D01*
X151931572Y-28191657D01*
X151718636Y-28118556D01*
X151496569Y-28081500D01*
X151271431Y-28081500D01*
X151049363Y-28118556D01*
X150836427Y-28191657D01*
X150638424Y-28298811D01*
X150460760Y-28437094D01*
X150308279Y-28602730D01*
X150217809Y-28741205D01*
X150173017Y-28782438D01*
X150114000Y-28797383D01*
X150054983Y-28782438D01*
X150010191Y-28741205D01*
X149980256Y-28695386D01*
X149919722Y-28602732D01*
X149767240Y-28437094D01*
X149589576Y-28298811D01*
X149391574Y-28191658D01*
X149391573Y-28191657D01*
X149391572Y-28191657D01*
X149178636Y-28118556D01*
X148956569Y-28081500D01*
X148731431Y-28081500D01*
X148509363Y-28118556D01*
X148296427Y-28191657D01*
X148098424Y-28298811D01*
X147920760Y-28437094D01*
X147768279Y-28602730D01*
X147677809Y-28741205D01*
X147633017Y-28782438D01*
X147574000Y-28797383D01*
X147514983Y-28782438D01*
X147470191Y-28741205D01*
X147440256Y-28695386D01*
X147379722Y-28602732D01*
X147227240Y-28437094D01*
X147049576Y-28298811D01*
X146851574Y-28191658D01*
X146851573Y-28191657D01*
X146851572Y-28191657D01*
X146638636Y-28118556D01*
X146416569Y-28081500D01*
X146191431Y-28081500D01*
X145969363Y-28118556D01*
X145756427Y-28191657D01*
X145558424Y-28298811D01*
X145380759Y-28437094D01*
X145317548Y-28505759D01*
X145264924Y-28539612D01*
X145202470Y-28543460D01*
X145146089Y-28516322D01*
X145110138Y-28465110D01*
X145085427Y-28398861D01*
X145064889Y-28343796D01*
X145031214Y-28298811D01*
X144977261Y-28226738D01*
X144860203Y-28139110D01*
X144723205Y-28088011D01*
X144692919Y-28084755D01*
X144662638Y-28081500D01*
X142865362Y-28081500D01*
X142838445Y-28084393D01*
X142804794Y-28088011D01*
X142667796Y-28139110D01*
X142550738Y-28226738D01*
X142463110Y-28343796D01*
X142412011Y-28480794D01*
X142408393Y-28514445D01*
X142405689Y-28539612D01*
X142405500Y-28541366D01*
X142405500Y-30338634D01*
X91740500Y-30338634D01*
X91740500Y-28466295D01*
X96787255Y-28466295D01*
X96787256Y-28466296D01*
X96800485Y-28478828D01*
X97085363Y-28695386D01*
X97391984Y-28879873D01*
X97716746Y-29030124D01*
X98055859Y-29144385D01*
X98405335Y-29221310D01*
X98761078Y-29260000D01*
X99118922Y-29260000D01*
X99474664Y-29221310D01*
X99824140Y-29144385D01*
X100163253Y-29030124D01*
X100488015Y-28879873D01*
X100794636Y-28695386D01*
X101079515Y-28478827D01*
X101092742Y-28466297D01*
X101092743Y-28466295D01*
X98940000Y-26313553D01*
X96787255Y-28466295D01*
X91740500Y-28466295D01*
X91740500Y-27942706D01*
X91740618Y-27937298D01*
X91741716Y-27912156D01*
X91758451Y-27528824D01*
X91759391Y-27518091D01*
X91812404Y-27115411D01*
X91814278Y-27104781D01*
X91902189Y-26708244D01*
X91904987Y-26697806D01*
X91913612Y-26670451D01*
X92027116Y-26310462D01*
X92030803Y-26300330D01*
X92171773Y-25959999D01*
X95635152Y-25959999D01*
X95654525Y-26317310D01*
X95712419Y-26670451D01*
X95808149Y-27015241D01*
X95940601Y-27347670D01*
X96108218Y-27663829D01*
X96309031Y-27960004D01*
X96436441Y-28110003D01*
X96436442Y-28110004D01*
X98586447Y-25960001D01*
X99293553Y-25960001D01*
X101443556Y-28110003D01*
X101570968Y-27960004D01*
X101771781Y-27663829D01*
X101939398Y-27347670D01*
X102071850Y-27015241D01*
X102167580Y-26670451D01*
X102225474Y-26317310D01*
X102244847Y-25959999D01*
X156595152Y-25959999D01*
X156614525Y-26317310D01*
X156672419Y-26670451D01*
X156768149Y-27015241D01*
X156900601Y-27347670D01*
X157068218Y-27663829D01*
X157269031Y-27960004D01*
X157396441Y-28110003D01*
X157396442Y-28110004D01*
X159546447Y-25960001D01*
X160253553Y-25960001D01*
X162403556Y-28110003D01*
X162530968Y-27960004D01*
X162731781Y-27663829D01*
X162899398Y-27347670D01*
X163031850Y-27015241D01*
X163127580Y-26670451D01*
X163185474Y-26317310D01*
X163204847Y-25959999D01*
X163185474Y-25602689D01*
X163127580Y-25249548D01*
X163031850Y-24904758D01*
X162899398Y-24572329D01*
X162731781Y-24256170D01*
X162530968Y-23959995D01*
X162403557Y-23809995D01*
X162403556Y-23809994D01*
X160253553Y-25959999D01*
X160253553Y-25960001D01*
X159546447Y-25960001D01*
X159546447Y-25960000D01*
X157396442Y-23809994D01*
X157396441Y-23809995D01*
X157269030Y-23959995D01*
X157068218Y-24256170D01*
X156900601Y-24572329D01*
X156768149Y-24904758D01*
X156672419Y-25249548D01*
X156614525Y-25602689D01*
X156595152Y-25959999D01*
X102244847Y-25959999D01*
X102225474Y-25602689D01*
X102167580Y-25249548D01*
X102071850Y-24904758D01*
X101939398Y-24572329D01*
X101771781Y-24256170D01*
X101570968Y-23959995D01*
X101443557Y-23809995D01*
X101443556Y-23809994D01*
X99293553Y-25959999D01*
X99293553Y-25960001D01*
X98586447Y-25960001D01*
X98586447Y-25959999D01*
X96436442Y-23809994D01*
X96436441Y-23809995D01*
X96309030Y-23959995D01*
X96108218Y-24256170D01*
X95940601Y-24572329D01*
X95808149Y-24904758D01*
X95712419Y-25249548D01*
X95654525Y-25602689D01*
X95635152Y-25959999D01*
X92171773Y-25959999D01*
X92186237Y-25925079D01*
X92190795Y-25915305D01*
X92378335Y-25555045D01*
X92383730Y-25545700D01*
X92601961Y-25203145D01*
X92608147Y-25194310D01*
X92855405Y-24872078D01*
X92862350Y-24863804D01*
X93136726Y-24564375D01*
X93144375Y-24556726D01*
X93443804Y-24282350D01*
X93452078Y-24275405D01*
X93774310Y-24028147D01*
X93783145Y-24021961D01*
X94125700Y-23803730D01*
X94135045Y-23798335D01*
X94495305Y-23610795D01*
X94505079Y-23606237D01*
X94880330Y-23450803D01*
X94890462Y-23447116D01*
X95277815Y-23324984D01*
X95288244Y-23322189D01*
X95684781Y-23234278D01*
X95695411Y-23232404D01*
X96098091Y-23179391D01*
X96108824Y-23178451D01*
X96504126Y-23161193D01*
X96517298Y-23160618D01*
X96522706Y-23160500D01*
X96567595Y-23160500D01*
X96801684Y-23160500D01*
X96860950Y-23175580D01*
G37*
G04 #@! TD.AperFunction*
G04 #@! TD*
G04 #@! TA.AperFunction,Conductor*
G04 #@! TO.N,GNDD*
G36*
X97511033Y-57389115D02*
G01*
X97550835Y-57415119D01*
X97577926Y-57454190D01*
X97607138Y-57520788D01*
X97607140Y-57520791D01*
X97730278Y-57709268D01*
X97882760Y-57874906D01*
X98060424Y-58013189D01*
X98103697Y-58036607D01*
X98149336Y-58079156D01*
X98168475Y-58138545D01*
X98156267Y-58199737D01*
X98115803Y-58247236D01*
X97934918Y-58373893D01*
X97767890Y-58540921D01*
X97632400Y-58734421D01*
X97532569Y-58948507D01*
X97475364Y-59161999D01*
X97475364Y-59162000D01*
X98932000Y-59162000D01*
X98994000Y-59178613D01*
X99039387Y-59224000D01*
X99056000Y-59286000D01*
X99056000Y-59538000D01*
X99039387Y-59600000D01*
X98994000Y-59645387D01*
X98932000Y-59662000D01*
X97475364Y-59662000D01*
X97532569Y-59875492D01*
X97632399Y-60089576D01*
X97767893Y-60283081D01*
X97934918Y-60450106D01*
X98115802Y-60576763D01*
X98156265Y-60624261D01*
X98168474Y-60685452D01*
X98149336Y-60744842D01*
X98103698Y-60787392D01*
X98060422Y-60810812D01*
X97882760Y-60949094D01*
X97730279Y-61114730D01*
X97607138Y-61303211D01*
X97516705Y-61509381D01*
X97461435Y-61727636D01*
X97442843Y-61952000D01*
X97461435Y-62176363D01*
X97461435Y-62176366D01*
X97461436Y-62176368D01*
X97509838Y-62367504D01*
X97516705Y-62394618D01*
X97607138Y-62600788D01*
X97607140Y-62600791D01*
X97730278Y-62789268D01*
X97882760Y-62954906D01*
X98060424Y-63093189D01*
X98103697Y-63116607D01*
X98149336Y-63159156D01*
X98168475Y-63218545D01*
X98156267Y-63279737D01*
X98115803Y-63327236D01*
X97934918Y-63453893D01*
X97767890Y-63620921D01*
X97632400Y-63814421D01*
X97532569Y-64028507D01*
X97475364Y-64241999D01*
X97475364Y-64242000D01*
X100136636Y-64242000D01*
X100136635Y-64241999D01*
X100079430Y-64028507D01*
X99979599Y-63814421D01*
X99844109Y-63620921D01*
X99677081Y-63453893D01*
X99496197Y-63327236D01*
X99455733Y-63279737D01*
X99443525Y-63218545D01*
X99462664Y-63159156D01*
X99508302Y-63116607D01*
X99551576Y-63093189D01*
X99729240Y-62954906D01*
X99881722Y-62789268D01*
X100004860Y-62600791D01*
X100020734Y-62564602D01*
X100034074Y-62534190D01*
X100061165Y-62495119D01*
X100100967Y-62469115D01*
X100147630Y-62460000D01*
X105462403Y-62460000D01*
X105518698Y-62473515D01*
X105562721Y-62511115D01*
X105584876Y-62564602D01*
X105580334Y-62622318D01*
X105550084Y-62671681D01*
X102704228Y-65517536D01*
X102695214Y-65525707D01*
X102661430Y-65553433D01*
X102535404Y-65706996D01*
X102472415Y-65824842D01*
X102463373Y-65841759D01*
X102455488Y-65856509D01*
X102441757Y-65882198D01*
X102384091Y-66072297D01*
X102364620Y-66270000D01*
X102368903Y-66313488D01*
X102369500Y-66325642D01*
X102369500Y-77390358D01*
X102368903Y-77402512D01*
X102364620Y-77445999D01*
X102384091Y-77643702D01*
X102417399Y-77753500D01*
X102417399Y-77753502D01*
X102441758Y-77833803D01*
X102535404Y-78009003D01*
X102661431Y-78162567D01*
X102695213Y-78190291D01*
X102704230Y-78198464D01*
X114683181Y-90177415D01*
X114710061Y-90217643D01*
X114719500Y-90265096D01*
X114719500Y-91044634D01*
X114726011Y-91105205D01*
X114777110Y-91242203D01*
X114864738Y-91359261D01*
X114981796Y-91446889D01*
X115118794Y-91497988D01*
X115118797Y-91497988D01*
X115118799Y-91497989D01*
X115179362Y-91504500D01*
X116976634Y-91504500D01*
X116976638Y-91504500D01*
X117037201Y-91497989D01*
X117037203Y-91497988D01*
X117037205Y-91497988D01*
X117119097Y-91467443D01*
X117174204Y-91446889D01*
X117291261Y-91359261D01*
X117378889Y-91242204D01*
X117424137Y-91120889D01*
X117460089Y-91069677D01*
X117516471Y-91042539D01*
X117578925Y-91046387D01*
X117631548Y-91080241D01*
X117694757Y-91148903D01*
X117694760Y-91148906D01*
X117872424Y-91287189D01*
X118070426Y-91394342D01*
X118283365Y-91467444D01*
X118505431Y-91504500D01*
X118730569Y-91504500D01*
X118952635Y-91467444D01*
X119165574Y-91394342D01*
X119363576Y-91287189D01*
X119541240Y-91148906D01*
X119693722Y-90983268D01*
X119784190Y-90844795D01*
X119828982Y-90803561D01*
X119888000Y-90788616D01*
X119947018Y-90803561D01*
X119991809Y-90844795D01*
X120082278Y-90983268D01*
X120234760Y-91148906D01*
X120412424Y-91287189D01*
X120610426Y-91394342D01*
X120823365Y-91467444D01*
X121045431Y-91504500D01*
X121270569Y-91504500D01*
X121492635Y-91467444D01*
X121705574Y-91394342D01*
X121903576Y-91287189D01*
X122081240Y-91148906D01*
X122233722Y-90983268D01*
X122324190Y-90844795D01*
X122368982Y-90803561D01*
X122428000Y-90788616D01*
X122487018Y-90803561D01*
X122531809Y-90844795D01*
X122622278Y-90983268D01*
X122774760Y-91148906D01*
X122952424Y-91287189D01*
X123150426Y-91394342D01*
X123363365Y-91467444D01*
X123585431Y-91504500D01*
X123810569Y-91504500D01*
X124032635Y-91467444D01*
X124245574Y-91394342D01*
X124443576Y-91287189D01*
X124621240Y-91148906D01*
X124773722Y-90983268D01*
X124864190Y-90844795D01*
X124908982Y-90803561D01*
X124968000Y-90788616D01*
X125027018Y-90803561D01*
X125071809Y-90844795D01*
X125162278Y-90983268D01*
X125314760Y-91148906D01*
X125492424Y-91287189D01*
X125690426Y-91394342D01*
X125903365Y-91467444D01*
X126125431Y-91504500D01*
X126350569Y-91504500D01*
X126572635Y-91467444D01*
X126785574Y-91394342D01*
X126983576Y-91287189D01*
X127120458Y-91180647D01*
X127156360Y-91161219D01*
X127196623Y-91154500D01*
X136850358Y-91154500D01*
X136862511Y-91155096D01*
X136906000Y-91159380D01*
X137103701Y-91139909D01*
X137293804Y-91082241D01*
X137297546Y-91080241D01*
X137300237Y-91078803D01*
X137300240Y-91078801D01*
X137360882Y-91046387D01*
X137469004Y-90988595D01*
X137622568Y-90862568D01*
X137650299Y-90828776D01*
X137658451Y-90819781D01*
X139488319Y-88989913D01*
X139537682Y-88959664D01*
X139595398Y-88955122D01*
X139648885Y-88977277D01*
X139686485Y-89021300D01*
X139700000Y-89077595D01*
X139700000Y-146280000D01*
X157021579Y-146280000D01*
X157085508Y-146297750D01*
X157131134Y-146345917D01*
X157145397Y-146410713D01*
X157124213Y-146473587D01*
X157068215Y-146556177D01*
X156900601Y-146872329D01*
X156768149Y-147204758D01*
X156672419Y-147549548D01*
X156614525Y-147902689D01*
X156595152Y-148259999D01*
X156614525Y-148617310D01*
X156672419Y-148970451D01*
X156768149Y-149315241D01*
X156900601Y-149647670D01*
X157068218Y-149963829D01*
X157269031Y-150260004D01*
X157396441Y-150410003D01*
X157396442Y-150410004D01*
X159812319Y-147994128D01*
X159867906Y-147962034D01*
X159932094Y-147962034D01*
X159987681Y-147994128D01*
X162403556Y-150410003D01*
X162530968Y-150260004D01*
X162731781Y-149963829D01*
X162899398Y-149647670D01*
X163031850Y-149315241D01*
X163127580Y-148970451D01*
X163185474Y-148617310D01*
X163204847Y-148259999D01*
X163185474Y-147902689D01*
X163127580Y-147549548D01*
X163031850Y-147204758D01*
X162899398Y-146872329D01*
X162731784Y-146556177D01*
X162675787Y-146473587D01*
X162654603Y-146410713D01*
X162668866Y-146345917D01*
X162714492Y-146297750D01*
X162778421Y-146280000D01*
X167209968Y-146280000D01*
X167273523Y-146297526D01*
X167319113Y-146345149D01*
X167333850Y-146409409D01*
X167321549Y-146691154D01*
X167320606Y-146701930D01*
X167267596Y-147104576D01*
X167265718Y-147115230D01*
X167177812Y-147511745D01*
X167175012Y-147522193D01*
X167052889Y-147909520D01*
X167049189Y-147919686D01*
X166893768Y-148294905D01*
X166889196Y-148304709D01*
X166701670Y-148664942D01*
X166696262Y-148674310D01*
X166478047Y-149016840D01*
X166471842Y-149025702D01*
X166224603Y-149347909D01*
X166217649Y-149356195D01*
X165943273Y-149655624D01*
X165935624Y-149663273D01*
X165636195Y-149937649D01*
X165627909Y-149944603D01*
X165305702Y-150191842D01*
X165296840Y-150198047D01*
X164954310Y-150416262D01*
X164944942Y-150421670D01*
X164584709Y-150609196D01*
X164574905Y-150613768D01*
X164199686Y-150769189D01*
X164189520Y-150772889D01*
X163802193Y-150895012D01*
X163791745Y-150897812D01*
X163395230Y-150985718D01*
X163384576Y-150987596D01*
X162981930Y-151040606D01*
X162971154Y-151041549D01*
X162562703Y-151059382D01*
X162557294Y-151059500D01*
X162038316Y-151059500D01*
X161979050Y-151044420D01*
X161934199Y-151002847D01*
X161914672Y-150944894D01*
X161925219Y-150884656D01*
X161963275Y-150836784D01*
X162039515Y-150778827D01*
X162052742Y-150766297D01*
X162052743Y-150766295D01*
X159900000Y-148613553D01*
X157747255Y-150766295D01*
X157747256Y-150766296D01*
X157760487Y-150778829D01*
X157836726Y-150836785D01*
X157874781Y-150884656D01*
X157885328Y-150944894D01*
X157865801Y-151002847D01*
X157820950Y-151044420D01*
X157761684Y-151059500D01*
X115478138Y-151059500D01*
X115420011Y-151045032D01*
X115375448Y-151005003D01*
X115354849Y-150948755D01*
X115363020Y-150889414D01*
X115431147Y-150719238D01*
X115470000Y-150517650D01*
X115470000Y-150340000D01*
X113320000Y-150340000D01*
X113320000Y-150466206D01*
X113334625Y-150619373D01*
X113392464Y-150816353D01*
X113424596Y-150878680D01*
X113438301Y-150939926D01*
X113420261Y-151000038D01*
X113375098Y-151043617D01*
X113314380Y-151059500D01*
X107728138Y-151059500D01*
X107670011Y-151045032D01*
X107625448Y-151005003D01*
X107604849Y-150948755D01*
X107613020Y-150889414D01*
X107681147Y-150719238D01*
X107720000Y-150517650D01*
X107720000Y-150340000D01*
X105570000Y-150340000D01*
X105570000Y-150466206D01*
X105584625Y-150619373D01*
X105642464Y-150816353D01*
X105674596Y-150878680D01*
X105688301Y-150939926D01*
X105670261Y-151000038D01*
X105625098Y-151043617D01*
X105564380Y-151059500D01*
X101078316Y-151059500D01*
X101019050Y-151044420D01*
X100974199Y-151002847D01*
X100954672Y-150944894D01*
X100965219Y-150884656D01*
X101003275Y-150836784D01*
X101079515Y-150778827D01*
X101092742Y-150766297D01*
X101092743Y-150766295D01*
X98940000Y-148613553D01*
X96787255Y-150766295D01*
X96787256Y-150766296D01*
X96800487Y-150778829D01*
X96876726Y-150836785D01*
X96914781Y-150884656D01*
X96925328Y-150944894D01*
X96905801Y-151002847D01*
X96860950Y-151044420D01*
X96801684Y-151059500D01*
X96522706Y-151059500D01*
X96517297Y-151059382D01*
X96108845Y-151041549D01*
X96098069Y-151040606D01*
X95695423Y-150987596D01*
X95684769Y-150985718D01*
X95288254Y-150897812D01*
X95277806Y-150895012D01*
X94890479Y-150772889D01*
X94880313Y-150769189D01*
X94505094Y-150613768D01*
X94495290Y-150609196D01*
X94135057Y-150421670D01*
X94125689Y-150416262D01*
X93783159Y-150198047D01*
X93774297Y-150191842D01*
X93452090Y-149944603D01*
X93443804Y-149937649D01*
X93144375Y-149663273D01*
X93136726Y-149655624D01*
X92862350Y-149356195D01*
X92855396Y-149347909D01*
X92830329Y-149315241D01*
X92608155Y-149025699D01*
X92601952Y-149016840D01*
X92383737Y-148674310D01*
X92378329Y-148664942D01*
X92353533Y-148617310D01*
X92190800Y-148304702D01*
X92186231Y-148294905D01*
X92171772Y-148259999D01*
X95635152Y-148259999D01*
X95654525Y-148617310D01*
X95712419Y-148970451D01*
X95808149Y-149315241D01*
X95940601Y-149647670D01*
X96108218Y-149963829D01*
X96309031Y-150260004D01*
X96436441Y-150410003D01*
X96436442Y-150410004D01*
X98586447Y-148260001D01*
X99293553Y-148260001D01*
X101443556Y-150410003D01*
X101570968Y-150260004D01*
X101771781Y-149963829D01*
X101837431Y-149840000D01*
X105570000Y-149840000D01*
X106395000Y-149840000D01*
X106395000Y-148719468D01*
X106394999Y-148719468D01*
X106291798Y-148744504D01*
X106105055Y-148829786D01*
X105937824Y-148948872D01*
X105796146Y-149097459D01*
X105685157Y-149270162D01*
X105608852Y-149460762D01*
X105570000Y-149662350D01*
X105570000Y-149840000D01*
X101837431Y-149840000D01*
X101939398Y-149647670D01*
X102071850Y-149315241D01*
X102167580Y-148970451D01*
X102209477Y-148714888D01*
X106895000Y-148714888D01*
X106895000Y-149840000D01*
X107720000Y-149840000D01*
X113320000Y-149840000D01*
X114145000Y-149840000D01*
X114145000Y-148719468D01*
X114144999Y-148719468D01*
X114041798Y-148744504D01*
X113855055Y-148829786D01*
X113687824Y-148948872D01*
X113546146Y-149097459D01*
X113435157Y-149270162D01*
X113358852Y-149460762D01*
X113320000Y-149662350D01*
X113320000Y-149840000D01*
X107720000Y-149840000D01*
X107720000Y-149713794D01*
X107705374Y-149560626D01*
X107647535Y-149363646D01*
X107553459Y-149181163D01*
X107426554Y-149019792D01*
X107271396Y-148885346D01*
X107093604Y-148782698D01*
X106899592Y-148715549D01*
X106895000Y-148714888D01*
X114645000Y-148714888D01*
X114645000Y-149840000D01*
X115470000Y-149840000D01*
X115470000Y-149713794D01*
X115455374Y-149560626D01*
X115397535Y-149363646D01*
X115303459Y-149181163D01*
X115176554Y-149019792D01*
X115021396Y-148885346D01*
X114843604Y-148782698D01*
X114649592Y-148715549D01*
X114645000Y-148714888D01*
X106895000Y-148714888D01*
X102209477Y-148714888D01*
X102225474Y-148617310D01*
X102244847Y-148259999D01*
X102225474Y-147902689D01*
X102203282Y-147767322D01*
X107045000Y-147767322D01*
X107068688Y-147764114D01*
X107093421Y-147756078D01*
X107144702Y-147750688D01*
X107193741Y-147766623D01*
X107232060Y-147801126D01*
X107253205Y-147830231D01*
X107260271Y-147841112D01*
X107260276Y-147841120D01*
X107280960Y-147876944D01*
X107308646Y-147907692D01*
X107316808Y-147917773D01*
X107341132Y-147951251D01*
X107371878Y-147978935D01*
X107381054Y-147988111D01*
X107399043Y-148008088D01*
X107408747Y-148018866D01*
X107442217Y-148043183D01*
X107452295Y-148051342D01*
X107483056Y-148079040D01*
X107499204Y-148088363D01*
X107518884Y-148099726D01*
X107529767Y-148106793D01*
X107563248Y-148131118D01*
X107601061Y-148147952D01*
X107612609Y-148153837D01*
X107648444Y-148174527D01*
X107687794Y-148187312D01*
X107699906Y-148191961D01*
X107737712Y-148208794D01*
X107778191Y-148217397D01*
X107790728Y-148220757D01*
X107830072Y-148233542D01*
X107871234Y-148237868D01*
X107884027Y-148239894D01*
X107924513Y-148248500D01*
X107972390Y-148248500D01*
X108115484Y-148248500D01*
X108115487Y-148248500D01*
X108155977Y-148239893D01*
X108168760Y-148237868D01*
X108209928Y-148233542D01*
X108249279Y-148220755D01*
X108261808Y-148217397D01*
X108302288Y-148208794D01*
X108340085Y-148191964D01*
X108352208Y-148187311D01*
X108365148Y-148183106D01*
X108391554Y-148174528D01*
X108391556Y-148174527D01*
X108427391Y-148153835D01*
X108438944Y-148147949D01*
X108476752Y-148131118D01*
X108510240Y-148106786D01*
X108521114Y-148099726D01*
X108556944Y-148079040D01*
X108587696Y-148051349D01*
X108597782Y-148043183D01*
X108631253Y-148018866D01*
X108658949Y-147988104D01*
X108668104Y-147978949D01*
X108698866Y-147951253D01*
X108723190Y-147917773D01*
X108731353Y-147907692D01*
X108759040Y-147876944D01*
X108779729Y-147841108D01*
X108786792Y-147830233D01*
X108811118Y-147796752D01*
X108827949Y-147758944D01*
X108833839Y-147747386D01*
X108854527Y-147711556D01*
X108867312Y-147672205D01*
X108871964Y-147660087D01*
X108888793Y-147622290D01*
X108888792Y-147622290D01*
X108888794Y-147622288D01*
X108897397Y-147581808D01*
X108900757Y-147569272D01*
X108913542Y-147529928D01*
X108917868Y-147488760D01*
X108919893Y-147475977D01*
X108928500Y-147435487D01*
X108928500Y-147394110D01*
X108929179Y-147381149D01*
X108929906Y-147374233D01*
X108933504Y-147340000D01*
X112106496Y-147340000D01*
X112110821Y-147381149D01*
X112111500Y-147394110D01*
X112111500Y-147435487D01*
X112120102Y-147475961D01*
X112122131Y-147488774D01*
X112126457Y-147529925D01*
X112139244Y-147569279D01*
X112142603Y-147581814D01*
X112151206Y-147622287D01*
X112168037Y-147660092D01*
X112172686Y-147672205D01*
X112185472Y-147711554D01*
X112206159Y-147747386D01*
X112212050Y-147758949D01*
X112228881Y-147796751D01*
X112253204Y-147830230D01*
X112260271Y-147841112D01*
X112260276Y-147841120D01*
X112280960Y-147876944D01*
X112308646Y-147907692D01*
X112316808Y-147917773D01*
X112341132Y-147951251D01*
X112371878Y-147978935D01*
X112381054Y-147988111D01*
X112399043Y-148008088D01*
X112408747Y-148018866D01*
X112442217Y-148043183D01*
X112452295Y-148051342D01*
X112483056Y-148079040D01*
X112499204Y-148088363D01*
X112518884Y-148099726D01*
X112529767Y-148106793D01*
X112563248Y-148131118D01*
X112601061Y-148147952D01*
X112612609Y-148153837D01*
X112648444Y-148174527D01*
X112687794Y-148187312D01*
X112699906Y-148191961D01*
X112737712Y-148208794D01*
X112778191Y-148217397D01*
X112790728Y-148220757D01*
X112830072Y-148233542D01*
X112871234Y-148237868D01*
X112884027Y-148239894D01*
X112924513Y-148248500D01*
X112972390Y-148248500D01*
X113115484Y-148248500D01*
X113115487Y-148248500D01*
X113155977Y-148239893D01*
X113168760Y-148237868D01*
X113209928Y-148233542D01*
X113249279Y-148220755D01*
X113261808Y-148217397D01*
X113302288Y-148208794D01*
X113340085Y-148191964D01*
X113352208Y-148187311D01*
X113365148Y-148183106D01*
X113391554Y-148174528D01*
X113391556Y-148174527D01*
X113427391Y-148153835D01*
X113438944Y-148147949D01*
X113476752Y-148131118D01*
X113510240Y-148106786D01*
X113521114Y-148099726D01*
X113556944Y-148079040D01*
X113587696Y-148051349D01*
X113597782Y-148043183D01*
X113631253Y-148018866D01*
X113658949Y-147988104D01*
X113668104Y-147978949D01*
X113698866Y-147951253D01*
X113723190Y-147917773D01*
X113731353Y-147907692D01*
X113759040Y-147876944D01*
X113779729Y-147841108D01*
X113786780Y-147830249D01*
X113809302Y-147799251D01*
X113844430Y-147766658D01*
X113889302Y-147749817D01*
X113937208Y-147751251D01*
X113994999Y-147764441D01*
X113995000Y-147764442D01*
X113995000Y-146540000D01*
X114495000Y-146540000D01*
X114495000Y-147767322D01*
X114518689Y-147764114D01*
X114728401Y-147695973D01*
X114922576Y-147591482D01*
X115094973Y-147454001D01*
X115240051Y-147287946D01*
X115353148Y-147098655D01*
X115430627Y-146892212D01*
X115470000Y-146675253D01*
X115470000Y-146540000D01*
X114495000Y-146540000D01*
X113995000Y-146540000D01*
X113484584Y-146540000D01*
X113422584Y-146523387D01*
X113391554Y-146505472D01*
X113352205Y-146492686D01*
X113340092Y-146488037D01*
X113321010Y-146479541D01*
X113302288Y-146471206D01*
X113261810Y-146462602D01*
X113249279Y-146459244D01*
X113209925Y-146446457D01*
X113168774Y-146442131D01*
X113155961Y-146440102D01*
X113115487Y-146431500D01*
X112924513Y-146431500D01*
X112924510Y-146431500D01*
X112884037Y-146440101D01*
X112871228Y-146442130D01*
X112830072Y-146446457D01*
X112790718Y-146459244D01*
X112778187Y-146462602D01*
X112737712Y-146471206D01*
X112737710Y-146471206D01*
X112737709Y-146471207D01*
X112699911Y-146488035D01*
X112687801Y-146492684D01*
X112648444Y-146505473D01*
X112612610Y-146526161D01*
X112601050Y-146532051D01*
X112563246Y-146548882D01*
X112529767Y-146573205D01*
X112518891Y-146580268D01*
X112483057Y-146600958D01*
X112452307Y-146628645D01*
X112442226Y-146636809D01*
X112408747Y-146661134D01*
X112381058Y-146691885D01*
X112371885Y-146701058D01*
X112341134Y-146728747D01*
X112316809Y-146762226D01*
X112308645Y-146772307D01*
X112280958Y-146803057D01*
X112260268Y-146838891D01*
X112253205Y-146849767D01*
X112228882Y-146883246D01*
X112212051Y-146921050D01*
X112206161Y-146932610D01*
X112185473Y-146968444D01*
X112172684Y-147007801D01*
X112168035Y-147019911D01*
X112151207Y-147057709D01*
X112142603Y-147098185D01*
X112139244Y-147110718D01*
X112126457Y-147150072D01*
X112122130Y-147191228D01*
X112120101Y-147204037D01*
X112111500Y-147244510D01*
X112111500Y-147285890D01*
X112110821Y-147298851D01*
X112106496Y-147340000D01*
X108933504Y-147340000D01*
X108929178Y-147298849D01*
X108928500Y-147285890D01*
X108928500Y-147244515D01*
X108928499Y-147244510D01*
X108919894Y-147204027D01*
X108917867Y-147191228D01*
X108913542Y-147150072D01*
X108900757Y-147110728D01*
X108897397Y-147098189D01*
X108897396Y-147098185D01*
X108888794Y-147057712D01*
X108871961Y-147019906D01*
X108867309Y-147007786D01*
X108854527Y-146968444D01*
X108833837Y-146932609D01*
X108827952Y-146921061D01*
X108811118Y-146883248D01*
X108786793Y-146849767D01*
X108779726Y-146838884D01*
X108759042Y-146803060D01*
X108759040Y-146803056D01*
X108731342Y-146772295D01*
X108723186Y-146762222D01*
X108698866Y-146728747D01*
X108688088Y-146719043D01*
X108668111Y-146701054D01*
X108658935Y-146691878D01*
X108631251Y-146661132D01*
X108597773Y-146636808D01*
X108587691Y-146628645D01*
X108556944Y-146600960D01*
X108556941Y-146600958D01*
X108521112Y-146580271D01*
X108510230Y-146573204D01*
X108476751Y-146548881D01*
X108438949Y-146532050D01*
X108427386Y-146526159D01*
X108391554Y-146505472D01*
X108352205Y-146492686D01*
X108340092Y-146488037D01*
X108321010Y-146479541D01*
X108302288Y-146471206D01*
X108261810Y-146462602D01*
X108249279Y-146459244D01*
X108209925Y-146446457D01*
X108168774Y-146442131D01*
X108155961Y-146440102D01*
X108115487Y-146431500D01*
X107924513Y-146431500D01*
X107924510Y-146431500D01*
X107884037Y-146440101D01*
X107871228Y-146442130D01*
X107830072Y-146446457D01*
X107790718Y-146459244D01*
X107778187Y-146462602D01*
X107737712Y-146471206D01*
X107737710Y-146471206D01*
X107737709Y-146471207D01*
X107699911Y-146488035D01*
X107687801Y-146492684D01*
X107648445Y-146505472D01*
X107635040Y-146513211D01*
X107617413Y-146523388D01*
X107555416Y-146540000D01*
X107045000Y-146540000D01*
X107045000Y-147767322D01*
X102203282Y-147767322D01*
X102167580Y-147549548D01*
X102071850Y-147204758D01*
X101939398Y-146872329D01*
X101771781Y-146556170D01*
X101760817Y-146540000D01*
X105570000Y-146540000D01*
X105570000Y-146620007D01*
X105584816Y-146784620D01*
X105643476Y-146997173D01*
X105739147Y-147195838D01*
X105868761Y-147374233D01*
X106028137Y-147526614D01*
X106212164Y-147648088D01*
X106414923Y-147734753D01*
X106544999Y-147764442D01*
X106545000Y-147764442D01*
X106545000Y-146540000D01*
X105570000Y-146540000D01*
X101760817Y-146540000D01*
X101570968Y-146259995D01*
X101443557Y-146109995D01*
X101443556Y-146109994D01*
X99293553Y-148259999D01*
X99293553Y-148260001D01*
X98586447Y-148260001D01*
X98586447Y-148259999D01*
X96436442Y-146109994D01*
X96436441Y-146109995D01*
X96309030Y-146259995D01*
X96108218Y-146556170D01*
X95940601Y-146872329D01*
X95808149Y-147204758D01*
X95712419Y-147549548D01*
X95654525Y-147902689D01*
X95635152Y-148259999D01*
X92171772Y-148259999D01*
X92030806Y-147919676D01*
X92027110Y-147909520D01*
X92026141Y-147906447D01*
X91904986Y-147522189D01*
X91902187Y-147511745D01*
X91897095Y-147488777D01*
X91814279Y-147115222D01*
X91812403Y-147104576D01*
X91759391Y-146701910D01*
X91758451Y-146691173D01*
X91740618Y-146282702D01*
X91740500Y-146277294D01*
X91740500Y-145753703D01*
X96787255Y-145753703D01*
X98940000Y-147906447D01*
X98940001Y-147906447D01*
X100806446Y-146040000D01*
X105570000Y-146040000D01*
X106545000Y-146040000D01*
X106545000Y-144815557D01*
X107045000Y-144815557D01*
X107045000Y-146040000D01*
X108020000Y-146040000D01*
X113020000Y-146040000D01*
X113995000Y-146040000D01*
X113995000Y-144815557D01*
X114495000Y-144815557D01*
X114495000Y-146040000D01*
X115470000Y-146040000D01*
X115470000Y-145959993D01*
X115455183Y-145795379D01*
X115396523Y-145582826D01*
X115300852Y-145384161D01*
X115171238Y-145205766D01*
X115011862Y-145053385D01*
X114827835Y-144931911D01*
X114625076Y-144845246D01*
X114495000Y-144815557D01*
X113995000Y-144815557D01*
X113995000Y-144812678D01*
X113994999Y-144812677D01*
X113971310Y-144815885D01*
X113761598Y-144884026D01*
X113567423Y-144988517D01*
X113395026Y-145125998D01*
X113249948Y-145292053D01*
X113136851Y-145481344D01*
X113059372Y-145687787D01*
X113020000Y-145904747D01*
X113020000Y-146040000D01*
X108020000Y-146040000D01*
X108020000Y-145959993D01*
X108005183Y-145795379D01*
X107946523Y-145582826D01*
X107850852Y-145384161D01*
X107721238Y-145205766D01*
X107561862Y-145053385D01*
X107377835Y-144931911D01*
X107175076Y-144845246D01*
X107045000Y-144815557D01*
X106545000Y-144815557D01*
X106545000Y-144812678D01*
X106544999Y-144812677D01*
X106521310Y-144815885D01*
X106311598Y-144884026D01*
X106117423Y-144988517D01*
X105945026Y-145125998D01*
X105799948Y-145292053D01*
X105686851Y-145481344D01*
X105609372Y-145687787D01*
X105570000Y-145904747D01*
X105570000Y-146040000D01*
X100806446Y-146040000D01*
X101092743Y-145753703D01*
X101092742Y-145753702D01*
X101079514Y-145741171D01*
X100794636Y-145524613D01*
X100488015Y-145340126D01*
X100163253Y-145189875D01*
X99824140Y-145075614D01*
X99474664Y-144998689D01*
X99118922Y-144960000D01*
X98761078Y-144960000D01*
X98405335Y-144998689D01*
X98055859Y-145075614D01*
X97716746Y-145189875D01*
X97391984Y-145340126D01*
X97085363Y-145524613D01*
X96800486Y-145741170D01*
X96787256Y-145753702D01*
X96787255Y-145753703D01*
X91740500Y-145753703D01*
X91740500Y-77192000D01*
X97442843Y-77192000D01*
X97461435Y-77416363D01*
X97461435Y-77416366D01*
X97461436Y-77416368D01*
X97516704Y-77634616D01*
X97530460Y-77665978D01*
X97607138Y-77840788D01*
X97607140Y-77840791D01*
X97730278Y-78029268D01*
X97882760Y-78194906D01*
X98060424Y-78333189D01*
X98258426Y-78440342D01*
X98471365Y-78513444D01*
X98693431Y-78550500D01*
X98918569Y-78550500D01*
X99140635Y-78513444D01*
X99353574Y-78440342D01*
X99551576Y-78333189D01*
X99729240Y-78194906D01*
X99881722Y-78029268D01*
X100004860Y-77840791D01*
X100095296Y-77634616D01*
X100150564Y-77416368D01*
X100169156Y-77192000D01*
X100150564Y-76967632D01*
X100095296Y-76749384D01*
X100004860Y-76543209D01*
X99881722Y-76354732D01*
X99729240Y-76189094D01*
X99590956Y-76081462D01*
X99551575Y-76050810D01*
X99508302Y-76027392D01*
X99462663Y-75984842D01*
X99443525Y-75925452D01*
X99455734Y-75864261D01*
X99496198Y-75816763D01*
X99677078Y-75690109D01*
X99844106Y-75523081D01*
X99979600Y-75329576D01*
X100079430Y-75115492D01*
X100136636Y-74902000D01*
X97475364Y-74902000D01*
X97532569Y-75115492D01*
X97632399Y-75329576D01*
X97767893Y-75523081D01*
X97934918Y-75690106D01*
X98115802Y-75816763D01*
X98156265Y-75864261D01*
X98168474Y-75925452D01*
X98149336Y-75984842D01*
X98103698Y-76027392D01*
X98060422Y-76050812D01*
X97882760Y-76189094D01*
X97730279Y-76354730D01*
X97607138Y-76543211D01*
X97516705Y-76749381D01*
X97461435Y-76967636D01*
X97442843Y-77192000D01*
X91740500Y-77192000D01*
X91740500Y-72111999D01*
X97442843Y-72111999D01*
X97461435Y-72336363D01*
X97461435Y-72336366D01*
X97461436Y-72336368D01*
X97500642Y-72491189D01*
X97516705Y-72554618D01*
X97607138Y-72760788D01*
X97607140Y-72760791D01*
X97730278Y-72949268D01*
X97882760Y-73114906D01*
X98060424Y-73253189D01*
X98103697Y-73276607D01*
X98149336Y-73319156D01*
X98168475Y-73378545D01*
X98156267Y-73439737D01*
X98115803Y-73487236D01*
X97934918Y-73613893D01*
X97767890Y-73780921D01*
X97632400Y-73974421D01*
X97532569Y-74188507D01*
X97475364Y-74401999D01*
X97475364Y-74402000D01*
X100136636Y-74402000D01*
X100136635Y-74401999D01*
X100079430Y-74188507D01*
X99979599Y-73974421D01*
X99844109Y-73780921D01*
X99677081Y-73613893D01*
X99496197Y-73487236D01*
X99455733Y-73439737D01*
X99443525Y-73378545D01*
X99462664Y-73319156D01*
X99508302Y-73276607D01*
X99551576Y-73253189D01*
X99729240Y-73114906D01*
X99881722Y-72949268D01*
X100004860Y-72760791D01*
X100095296Y-72554616D01*
X100150564Y-72336368D01*
X100169156Y-72112000D01*
X100150564Y-71887632D01*
X100095296Y-71669384D01*
X100004860Y-71463209D01*
X99881722Y-71274732D01*
X99729240Y-71109094D01*
X99590956Y-71001462D01*
X99551575Y-70970810D01*
X99508302Y-70947392D01*
X99462663Y-70904842D01*
X99443525Y-70845452D01*
X99455734Y-70784261D01*
X99496198Y-70736763D01*
X99677078Y-70610109D01*
X99844106Y-70443081D01*
X99979600Y-70249576D01*
X100079430Y-70035492D01*
X100136636Y-69822000D01*
X97475364Y-69822000D01*
X97532569Y-70035492D01*
X97632399Y-70249576D01*
X97767893Y-70443081D01*
X97934918Y-70610106D01*
X98115802Y-70736763D01*
X98156265Y-70784261D01*
X98168474Y-70845452D01*
X98149336Y-70904842D01*
X98103698Y-70947392D01*
X98060422Y-70970812D01*
X97882760Y-71109094D01*
X97730279Y-71274730D01*
X97607138Y-71463211D01*
X97516705Y-71669381D01*
X97461435Y-71887636D01*
X97442843Y-72111999D01*
X91740500Y-72111999D01*
X91740500Y-67032000D01*
X97442843Y-67032000D01*
X97461435Y-67256363D01*
X97461435Y-67256366D01*
X97461436Y-67256368D01*
X97489250Y-67366204D01*
X97516705Y-67474618D01*
X97607138Y-67680788D01*
X97607140Y-67680791D01*
X97730278Y-67869268D01*
X97882760Y-68034906D01*
X98060424Y-68173189D01*
X98103697Y-68196607D01*
X98149336Y-68239156D01*
X98168475Y-68298545D01*
X98156267Y-68359737D01*
X98115803Y-68407236D01*
X97934918Y-68533893D01*
X97767890Y-68700921D01*
X97632400Y-68894421D01*
X97532569Y-69108507D01*
X97475364Y-69321999D01*
X97475364Y-69322000D01*
X100136636Y-69322000D01*
X100136635Y-69321999D01*
X100079430Y-69108507D01*
X99979599Y-68894421D01*
X99844109Y-68700921D01*
X99677081Y-68533893D01*
X99496197Y-68407236D01*
X99455733Y-68359737D01*
X99443525Y-68298545D01*
X99462664Y-68239156D01*
X99508302Y-68196607D01*
X99551576Y-68173189D01*
X99729240Y-68034906D01*
X99881722Y-67869268D01*
X100004860Y-67680791D01*
X100095296Y-67474616D01*
X100150564Y-67256368D01*
X100169156Y-67032000D01*
X100150564Y-66807632D01*
X100095296Y-66589384D01*
X100004860Y-66383209D01*
X99881722Y-66194732D01*
X99729240Y-66029094D01*
X99590955Y-65921462D01*
X99551575Y-65890810D01*
X99508302Y-65867392D01*
X99462663Y-65824842D01*
X99443525Y-65765452D01*
X99455734Y-65704261D01*
X99496198Y-65656763D01*
X99677078Y-65530109D01*
X99844106Y-65363081D01*
X99979600Y-65169576D01*
X100079430Y-64955492D01*
X100136636Y-64742000D01*
X97475364Y-64742000D01*
X97532569Y-64955492D01*
X97632399Y-65169576D01*
X97767893Y-65363081D01*
X97934918Y-65530106D01*
X98115802Y-65656763D01*
X98156265Y-65704261D01*
X98168474Y-65765452D01*
X98149336Y-65824842D01*
X98103698Y-65867392D01*
X98060422Y-65890812D01*
X97882760Y-66029094D01*
X97730279Y-66194730D01*
X97607138Y-66383211D01*
X97516705Y-66589381D01*
X97461435Y-66807636D01*
X97442843Y-67032000D01*
X91740500Y-67032000D01*
X91740500Y-57504000D01*
X91757113Y-57442000D01*
X91802500Y-57396613D01*
X91864500Y-57380000D01*
X97464370Y-57380000D01*
X97511033Y-57389115D01*
G37*
G04 #@! TD.AperFunction*
G04 #@! TA.AperFunction,Conductor*
G36*
X120595500Y-62476613D02*
G01*
X120640887Y-62522000D01*
X120657500Y-62584000D01*
X120657500Y-64944358D01*
X120656903Y-64956512D01*
X120652620Y-64999999D01*
X120672090Y-65197699D01*
X120724769Y-65371358D01*
X120724771Y-65371362D01*
X120729759Y-65387805D01*
X120823404Y-65563003D01*
X120949431Y-65716567D01*
X120983213Y-65744291D01*
X120992230Y-65752464D01*
X124423681Y-69183915D01*
X124450561Y-69224143D01*
X124460000Y-69271596D01*
X124460000Y-69287181D01*
X124450561Y-69334634D01*
X124423681Y-69374862D01*
X122423222Y-71375318D01*
X122371537Y-71406297D01*
X122294196Y-71429758D01*
X122118996Y-71523404D01*
X121965432Y-71649432D01*
X121839404Y-71802996D01*
X121794166Y-71887632D01*
X121745759Y-71978196D01*
X121739512Y-71998791D01*
X121688091Y-72168301D01*
X121668620Y-72366000D01*
X121688091Y-72563698D01*
X121688092Y-72563701D01*
X121745759Y-72753804D01*
X121745761Y-72753807D01*
X121839403Y-72929002D01*
X121839405Y-72929004D01*
X121965432Y-73082568D01*
X122118996Y-73208595D01*
X122294196Y-73302241D01*
X122484299Y-73359908D01*
X122682000Y-73379380D01*
X122879701Y-73359908D01*
X123069804Y-73302241D01*
X123245004Y-73208595D01*
X123398568Y-73082568D01*
X123524595Y-72929004D01*
X123618241Y-72753804D01*
X123641702Y-72676461D01*
X123672679Y-72624777D01*
X125734776Y-70562680D01*
X125786456Y-70531703D01*
X125863804Y-70508241D01*
X126039004Y-70414595D01*
X126192568Y-70288568D01*
X126318595Y-70135004D01*
X126318595Y-70135003D01*
X126326343Y-70125563D01*
X126329505Y-70128158D01*
X126358593Y-70097627D01*
X126422318Y-70080000D01*
X139576000Y-70080000D01*
X139638000Y-70096613D01*
X139683387Y-70142000D01*
X139700000Y-70204000D01*
X139700000Y-85874403D01*
X139690561Y-85921856D01*
X139663681Y-85962084D01*
X136524585Y-89101181D01*
X136484357Y-89128061D01*
X136436904Y-89137500D01*
X127196623Y-89137500D01*
X127156360Y-89130781D01*
X127120460Y-89111353D01*
X127077088Y-89077595D01*
X126983576Y-89004811D01*
X126785574Y-88897658D01*
X126785573Y-88897657D01*
X126785572Y-88897657D01*
X126572636Y-88824556D01*
X126350569Y-88787500D01*
X126125431Y-88787500D01*
X125903363Y-88824556D01*
X125690427Y-88897657D01*
X125492424Y-89004811D01*
X125314760Y-89143094D01*
X125162279Y-89308730D01*
X125071809Y-89447205D01*
X125027017Y-89488438D01*
X124968000Y-89503383D01*
X124908983Y-89488438D01*
X124864191Y-89447205D01*
X124844043Y-89416367D01*
X124773722Y-89308732D01*
X124621240Y-89143094D01*
X124443576Y-89004811D01*
X124245574Y-88897658D01*
X124245573Y-88897657D01*
X124245572Y-88897657D01*
X124032636Y-88824556D01*
X123810569Y-88787500D01*
X123585431Y-88787500D01*
X123363363Y-88824556D01*
X123150427Y-88897657D01*
X122952424Y-89004811D01*
X122774760Y-89143094D01*
X122622279Y-89308730D01*
X122531809Y-89447205D01*
X122487017Y-89488438D01*
X122428000Y-89503383D01*
X122368983Y-89488438D01*
X122324191Y-89447205D01*
X122304043Y-89416367D01*
X122233722Y-89308732D01*
X122081240Y-89143094D01*
X121903576Y-89004811D01*
X121705574Y-88897658D01*
X121705573Y-88897657D01*
X121705572Y-88897657D01*
X121492636Y-88824556D01*
X121270569Y-88787500D01*
X121045431Y-88787500D01*
X120823363Y-88824556D01*
X120610427Y-88897657D01*
X120412424Y-89004811D01*
X120234760Y-89143094D01*
X120082279Y-89308730D01*
X119991809Y-89447205D01*
X119947017Y-89488438D01*
X119888000Y-89503383D01*
X119828983Y-89488438D01*
X119784191Y-89447205D01*
X119764043Y-89416367D01*
X119693722Y-89308732D01*
X119541240Y-89143094D01*
X119541239Y-89143093D01*
X119541237Y-89143091D01*
X119533847Y-89137339D01*
X119500654Y-89097941D01*
X119460595Y-89022996D01*
X119428430Y-88983803D01*
X119334568Y-88869432D01*
X119300784Y-88841706D01*
X119291768Y-88833534D01*
X118380464Y-87922230D01*
X118372291Y-87913213D01*
X118344567Y-87879431D01*
X118191003Y-87753404D01*
X118018504Y-87661202D01*
X118016130Y-87659857D01*
X117825699Y-87602090D01*
X117649597Y-87584747D01*
X117628000Y-87582620D01*
X117627999Y-87582620D01*
X117584512Y-87586903D01*
X117572358Y-87587500D01*
X117537096Y-87587500D01*
X117489643Y-87578061D01*
X117449415Y-87551181D01*
X106468879Y-76570645D01*
X106436578Y-76514273D01*
X106437216Y-76449305D01*
X106470617Y-76393578D01*
X106527613Y-76362390D01*
X106592555Y-76364303D01*
X106736299Y-76407908D01*
X106934000Y-76427380D01*
X106977485Y-76423097D01*
X106989640Y-76422500D01*
X112720358Y-76422500D01*
X112732511Y-76423096D01*
X112776000Y-76427380D01*
X112973701Y-76407909D01*
X113163804Y-76350241D01*
X113264915Y-76296196D01*
X113339004Y-76256595D01*
X113492568Y-76130568D01*
X113520299Y-76096776D01*
X113528451Y-76087781D01*
X119799781Y-69816451D01*
X119808776Y-69808299D01*
X119842568Y-69780568D01*
X119968595Y-69627004D01*
X120062241Y-69451804D01*
X120119908Y-69261701D01*
X120139380Y-69064000D01*
X120119908Y-68866299D01*
X120062241Y-68676196D01*
X119968595Y-68500996D01*
X119842568Y-68347432D01*
X119689004Y-68221405D01*
X119689003Y-68221404D01*
X119576385Y-68161209D01*
X119513804Y-68127759D01*
X119323701Y-68070092D01*
X119323698Y-68070091D01*
X119126000Y-68050620D01*
X118928301Y-68070091D01*
X118738193Y-68127760D01*
X118669140Y-68164670D01*
X118608252Y-68179287D01*
X118547986Y-68162290D01*
X118503708Y-68118012D01*
X118486712Y-68057745D01*
X118501328Y-67996862D01*
X118538241Y-67927804D01*
X118595908Y-67737701D01*
X118615380Y-67540000D01*
X118611097Y-67496514D01*
X118610500Y-67484360D01*
X118610500Y-62584000D01*
X118627113Y-62522000D01*
X118672500Y-62476613D01*
X118734500Y-62460000D01*
X120533500Y-62460000D01*
X120595500Y-62476613D01*
G37*
G04 #@! TD.AperFunction*
G04 #@! TA.AperFunction,Conductor*
G36*
X124398000Y-62476613D02*
G01*
X124443387Y-62522000D01*
X124460000Y-62584000D01*
X124460000Y-66068404D01*
X124446485Y-66124699D01*
X124408885Y-66168722D01*
X124355398Y-66190877D01*
X124297682Y-66186335D01*
X124248319Y-66156085D01*
X122710819Y-64618585D01*
X122683939Y-64578357D01*
X122674500Y-64530904D01*
X122674500Y-62584000D01*
X122691113Y-62522000D01*
X122736500Y-62476613D01*
X122798500Y-62460000D01*
X124336000Y-62460000D01*
X124398000Y-62476613D01*
G37*
G04 #@! TD.AperFunction*
G04 #@! TD*
M02*
