G04 #@! TF.GenerationSoftware,KiCad,Pcbnew,7.0.1*
G04 #@! TF.CreationDate,2023-05-20T00:25:49-07:00*
G04 #@! TF.ProjectId,PCM1863,50434d31-3836-4332-9e6b-696361645f70,rev?*
G04 #@! TF.SameCoordinates,Original*
G04 #@! TF.FileFunction,Copper,L1,Top*
G04 #@! TF.FilePolarity,Positive*
%FSLAX46Y46*%
G04 Gerber Fmt 4.6, Leading zero omitted, Abs format (unit mm)*
G04 Created by KiCad (PCBNEW 7.0.1) date 2023-05-20 00:25:49*
%MOMM*%
%LPD*%
G01*
G04 APERTURE LIST*
G04 Aperture macros list*
%AMRoundRect*
0 Rectangle with rounded corners*
0 $1 Rounding radius*
0 $2 $3 $4 $5 $6 $7 $8 $9 X,Y pos of 4 corners*
0 Add a 4 corners polygon primitive as box body*
4,1,4,$2,$3,$4,$5,$6,$7,$8,$9,$2,$3,0*
0 Add four circle primitives for the rounded corners*
1,1,$1+$1,$2,$3*
1,1,$1+$1,$4,$5*
1,1,$1+$1,$6,$7*
1,1,$1+$1,$8,$9*
0 Add four rect primitives between the rounded corners*
20,1,$1+$1,$2,$3,$4,$5,0*
20,1,$1+$1,$4,$5,$6,$7,0*
20,1,$1+$1,$6,$7,$8,$9,0*
20,1,$1+$1,$8,$9,$2,$3,0*%
G04 Aperture macros list end*
G04 #@! TA.AperFunction,SMDPad,CuDef*
%ADD10R,1.300000X1.100000*%
G04 #@! TD*
G04 #@! TA.AperFunction,SMDPad,CuDef*
%ADD11RoundRect,0.075000X-0.662500X-0.075000X0.662500X-0.075000X0.662500X0.075000X-0.662500X0.075000X0*%
G04 #@! TD*
G04 #@! TA.AperFunction,SMDPad,CuDef*
%ADD12RoundRect,0.237500X-0.237500X0.250000X-0.237500X-0.250000X0.237500X-0.250000X0.237500X0.250000X0*%
G04 #@! TD*
G04 #@! TA.AperFunction,SMDPad,CuDef*
%ADD13RoundRect,0.237500X0.237500X-0.250000X0.237500X0.250000X-0.237500X0.250000X-0.237500X-0.250000X0*%
G04 #@! TD*
G04 #@! TA.AperFunction,ComponentPad*
%ADD14O,1.700000X1.700000*%
G04 #@! TD*
G04 #@! TA.AperFunction,ComponentPad*
%ADD15R,1.700000X1.700000*%
G04 #@! TD*
G04 #@! TA.AperFunction,SMDPad,CuDef*
%ADD16R,1.150000X0.600000*%
G04 #@! TD*
G04 #@! TA.AperFunction,SMDPad,CuDef*
%ADD17RoundRect,0.237500X0.287500X0.237500X-0.287500X0.237500X-0.287500X-0.237500X0.287500X-0.237500X0*%
G04 #@! TD*
G04 #@! TA.AperFunction,SMDPad,CuDef*
%ADD18RoundRect,0.237500X-0.237500X0.287500X-0.237500X-0.287500X0.237500X-0.287500X0.237500X0.287500X0*%
G04 #@! TD*
G04 #@! TA.AperFunction,SMDPad,CuDef*
%ADD19RoundRect,0.237500X0.237500X-0.287500X0.237500X0.287500X-0.237500X0.287500X-0.237500X-0.287500X0*%
G04 #@! TD*
G04 #@! TA.AperFunction,SMDPad,CuDef*
%ADD20RoundRect,0.237500X0.300000X0.237500X-0.300000X0.237500X-0.300000X-0.237500X0.300000X-0.237500X0*%
G04 #@! TD*
G04 #@! TA.AperFunction,SMDPad,CuDef*
%ADD21RoundRect,0.237500X-0.300000X-0.237500X0.300000X-0.237500X0.300000X0.237500X-0.300000X0.237500X0*%
G04 #@! TD*
G04 #@! TA.AperFunction,SMDPad,CuDef*
%ADD22RoundRect,0.237500X-0.237500X0.300000X-0.237500X-0.300000X0.237500X-0.300000X0.237500X0.300000X0*%
G04 #@! TD*
G04 #@! TA.AperFunction,SMDPad,CuDef*
%ADD23RoundRect,0.237500X0.237500X-0.300000X0.237500X0.300000X-0.237500X0.300000X-0.237500X-0.300000X0*%
G04 #@! TD*
G04 #@! TA.AperFunction,ViaPad*
%ADD24C,1.000000*%
G04 #@! TD*
G04 #@! TA.AperFunction,Conductor*
%ADD25C,1.000000*%
G04 #@! TD*
G04 #@! TA.AperFunction,Conductor*
%ADD26C,0.500000*%
G04 #@! TD*
G04 #@! TA.AperFunction,Conductor*
%ADD27C,0.250000*%
G04 #@! TD*
G04 #@! TA.AperFunction,Conductor*
%ADD28C,0.750000*%
G04 #@! TD*
G04 APERTURE END LIST*
D10*
G04 #@! TO.P,Y1,4,VDD*
G04 #@! TO.N,+3V3*
X190051000Y-71350000D03*
G04 #@! TO.P,Y1,3,OUTPUT*
G04 #@! TO.N,/SCKI(3.3V)*
X192151000Y-71350000D03*
G04 #@! TO.P,Y1,2,GND/CASE*
G04 #@! TO.N,GNDD*
X192151000Y-73000000D03*
G04 #@! TO.P,Y1,1,_TRI-STATE_(STBY)*
G04 #@! TO.N,+3V3*
X190051000Y-73000000D03*
G04 #@! TD*
D11*
G04 #@! TO.P,U1,30,VINR3/VIN3P*
G04 #@! TO.N,Net-(U1-VINR3{slash}VIN3P)*
X197553500Y-57690000D03*
G04 #@! TO.P,U1,29,VINL3/VIN4P*
G04 #@! TO.N,Net-(U1-VINL3{slash}VIN4P)*
X197553500Y-58190000D03*
G04 #@! TO.P,U1,28,VINR4/VIN3M*
G04 #@! TO.N,Net-(U1-VINR4{slash}VIN3M)*
X197553500Y-58690000D03*
G04 #@! TO.P,U1,27,VINL4/VIN4M*
G04 #@! TO.N,Net-(U1-VINL4{slash}VIN4M)*
X197553500Y-59190000D03*
G04 #@! TO.P,U1,26,MD0*
G04 #@! TO.N,/MDO*
X197553500Y-59690000D03*
G04 #@! TO.P,U1,25,MS/AD*
G04 #@! TO.N,/MD1{slash}MS{slash}AD*
X197553500Y-60190000D03*
G04 #@! TO.P,U1,24,MC/SCL*
G04 #@! TO.N,/MD3{slash}MC{slash}SCL*
X197553500Y-60690000D03*
G04 #@! TO.P,U1,23,MOSI/SDA*
G04 #@! TO.N,/DOUT2{slash}MD2{slash}MOSI{slash}SDA*
X197553500Y-61190000D03*
G04 #@! TO.P,U1,22,MISO/GPIO0/DMIN2*
G04 #@! TO.N,/MD4{slash}MISO{slash}GPIO0*
X197553500Y-61690000D03*
G04 #@! TO.P,U1,21,GPIO1/INTA/DMIN*
G04 #@! TO.N,/MD5{slash}GPIO1{slash}INTA{slash}DMIN*
X197553500Y-62190000D03*
G04 #@! TO.P,U1,20,GPIO2/INTB/DMCLK*
G04 #@! TO.N,/MD6{slash}GPIO2{slash}INTB{slash}DMCLK*
X197553500Y-62690000D03*
G04 #@! TO.P,U1,19,GPIO3/INTC*
G04 #@! TO.N,/INT{slash}GPIO3{slash}INTC*
X197553500Y-63190000D03*
G04 #@! TO.P,U1,18,DOUT*
G04 #@! TO.N,/DOUT*
X197553500Y-63690000D03*
G04 #@! TO.P,U1,17,BCK*
G04 #@! TO.N,/BCK*
X197553500Y-64190000D03*
G04 #@! TO.P,U1,16,LRCK*
G04 #@! TO.N,/LRCK*
X197553500Y-64690000D03*
G04 #@! TO.P,U1,15,SCKI*
G04 #@! TO.N,/SCKI(3.3V)*
X191828500Y-64690000D03*
G04 #@! TO.P,U1,14,IOVDD*
G04 #@! TO.N,+3V3*
X191828500Y-64190000D03*
G04 #@! TO.P,U1,13,DVDD*
X191828500Y-63690000D03*
G04 #@! TO.P,U1,12,DGND*
G04 #@! TO.N,GNDD*
X191828500Y-63190000D03*
G04 #@! TO.P,U1,11,LDO*
G04 #@! TO.N,+1V8*
X191828500Y-62690000D03*
G04 #@! TO.P,U1,10,XI*
G04 #@! TO.N,/XI*
X191828500Y-62190000D03*
G04 #@! TO.P,U1,9,XO*
G04 #@! TO.N,/XO*
X191828500Y-61690000D03*
G04 #@! TO.P,U1,8,AVDD*
G04 #@! TO.N,+3.3VA*
X191828500Y-61190000D03*
G04 #@! TO.P,U1,7,AGND*
G04 #@! TO.N,GNDA*
X191828500Y-60690000D03*
G04 #@! TO.P,U1,6,VREF*
G04 #@! TO.N,/VREF*
X191828500Y-60190000D03*
G04 #@! TO.P,U1,5,Mic_Bias*
G04 #@! TO.N,Net-(U1-Mic_Bias)*
X191828500Y-59690000D03*
G04 #@! TO.P,U1,4,VINR1/VIN2P*
G04 #@! TO.N,/VINR1*
X191828500Y-59190000D03*
G04 #@! TO.P,U1,3,VINL1/VIN1P*
G04 #@! TO.N,/VIN1P*
X191828500Y-58690000D03*
G04 #@! TO.P,U1,2,VINR2/VIN2M*
G04 #@! TO.N,Net-(U1-VINR2{slash}VIN2M)*
X191828500Y-58190000D03*
G04 #@! TO.P,U1,1,VINL2/VIN1M*
G04 #@! TO.N,/VIN1M*
X191828500Y-57690000D03*
G04 #@! TD*
D12*
G04 #@! TO.P,R12,2*
G04 #@! TO.N,/XI*
X181991000Y-59562500D03*
G04 #@! TO.P,R12,1*
G04 #@! TO.N,GNDD*
X181991000Y-57737500D03*
G04 #@! TD*
D13*
G04 #@! TO.P,R11,2*
G04 #@! TO.N,/XO*
X179451000Y-57737500D03*
G04 #@! TO.P,R11,1*
G04 #@! TO.N,GNDD*
X179451000Y-59562500D03*
G04 #@! TD*
D12*
G04 #@! TO.P,R10,2*
G04 #@! TO.N,+3.3VA*
X176911000Y-55395000D03*
G04 #@! TO.P,R10,1*
G04 #@! TO.N,/VREF*
X176911000Y-53570000D03*
G04 #@! TD*
G04 #@! TO.P,R9,2*
G04 #@! TO.N,/VREF*
X176911000Y-51030000D03*
G04 #@! TO.P,R9,1*
G04 #@! TO.N,GNDA*
X176911000Y-49205000D03*
G04 #@! TD*
G04 #@! TO.P,R4,2*
G04 #@! TO.N,Net-(D4-K)*
X191770000Y-125602500D03*
G04 #@! TO.P,R4,1*
G04 #@! TO.N,GNDD*
X191770000Y-123777500D03*
G04 #@! TD*
D13*
G04 #@! TO.P,R3,2*
G04 #@! TO.N,GNDA*
X185295000Y-110090000D03*
G04 #@! TO.P,R3,1*
G04 #@! TO.N,Net-(D3-K)*
X185295000Y-111915000D03*
G04 #@! TD*
G04 #@! TO.P,R2,2*
G04 #@! TO.N,GNDD*
X210860000Y-110165000D03*
G04 #@! TO.P,R2,1*
G04 #@! TO.N,Net-(D2-K)*
X210860000Y-111990000D03*
G04 #@! TD*
D12*
G04 #@! TO.P,R1,2*
G04 #@! TO.N,GNDD*
X176911000Y-68810000D03*
G04 #@! TO.P,R1,1*
G04 #@! TO.N,Net-(D1-K)*
X176911000Y-66985000D03*
G04 #@! TD*
D14*
G04 #@! TO.P,J6,10,Pin_10*
G04 #@! TO.N,+3.3VA*
X180335000Y-134850000D03*
G04 #@! TO.P,J6,9,Pin_9*
G04 #@! TO.N,GNDD*
X182875000Y-134850000D03*
G04 #@! TO.P,J6,8,Pin_8*
G04 #@! TO.N,+1V8*
X185415000Y-134850000D03*
G04 #@! TO.P,J6,7,Pin_7*
G04 #@! TO.N,GNDD*
X187955000Y-134850000D03*
G04 #@! TO.P,J6,6,Pin_6*
G04 #@! TO.N,VCC*
X190495000Y-134850000D03*
G04 #@! TO.P,J6,5,Pin_5*
G04 #@! TO.N,GNDD*
X193035000Y-134850000D03*
G04 #@! TO.P,J6,4,Pin_4*
G04 #@! TO.N,/VREF*
X195575000Y-134850000D03*
G04 #@! TO.P,J6,3,Pin_3*
G04 #@! TO.N,GNDA*
X198115000Y-134850000D03*
G04 #@! TO.P,J6,2,Pin_2*
G04 #@! TO.N,+3V3*
X200655000Y-134850000D03*
D15*
G04 #@! TO.P,J6,1,Pin_1*
G04 #@! TO.N,GNDD*
X203195000Y-134850000D03*
G04 #@! TD*
D14*
G04 #@! TO.P,J4,4,Pin_4*
G04 #@! TO.N,/INT{slash}GPIO3{slash}INTC*
X210820000Y-75160000D03*
G04 #@! TO.P,J4,3,Pin_3*
G04 #@! TO.N,/MD6{slash}GPIO2{slash}INTB{slash}DMCLK*
X210820000Y-72620000D03*
G04 #@! TO.P,J4,2,Pin_2*
G04 #@! TO.N,/MD5{slash}GPIO1{slash}INTA{slash}DMIN*
X210820000Y-70080000D03*
D15*
G04 #@! TO.P,J4,1,Pin_1*
G04 #@! TO.N,/MD4{slash}MISO{slash}GPIO0*
X210820000Y-67540000D03*
G04 #@! TD*
D14*
G04 #@! TO.P,J3,4,Pin_4*
G04 #@! TO.N,/DOUT2{slash}MD2{slash}MOSI{slash}SDA*
X210820000Y-61962000D03*
G04 #@! TO.P,J3,3,Pin_3*
G04 #@! TO.N,/MD3{slash}MC{slash}SCL*
X210820000Y-59422000D03*
G04 #@! TO.P,J3,2,Pin_2*
G04 #@! TO.N,/MD1{slash}MS{slash}AD*
X210820000Y-56882000D03*
D15*
G04 #@! TO.P,J3,1,Pin_1*
G04 #@! TO.N,/MDO*
X210820000Y-54342000D03*
G04 #@! TD*
D14*
G04 #@! TO.P,J2,4,Pin_4*
G04 #@! TO.N,/SCKI(3.3V)*
X210820000Y-88505000D03*
G04 #@! TO.P,J2,3,Pin_3*
G04 #@! TO.N,/BCK*
X210820000Y-85965000D03*
G04 #@! TO.P,J2,2,Pin_2*
G04 #@! TO.N,/LRCK*
X210820000Y-83425000D03*
D15*
G04 #@! TO.P,J2,1,Pin_1*
G04 #@! TO.N,/DOUT*
X210820000Y-80885000D03*
G04 #@! TD*
D14*
G04 #@! TO.P,J1,4,Pin_4*
G04 #@! TO.N,/VINR1*
X189230000Y-38330000D03*
G04 #@! TO.P,J1,3,Pin_3*
G04 #@! TO.N,/VIN1P*
X191770000Y-38330000D03*
G04 #@! TO.P,J1,2,Pin_2*
G04 #@! TO.N,/VIN1M*
X194310000Y-38330000D03*
D15*
G04 #@! TO.P,J1,1,Pin_1*
G04 #@! TO.N,/VIN1P*
X196850000Y-38330000D03*
G04 #@! TD*
D16*
G04 #@! TO.P,IC3,5,OUT*
G04 #@! TO.N,+3.3VA*
X180215000Y-110090000D03*
G04 #@! TO.P,IC3,4,NC*
G04 #@! TO.N,unconnected-(IC3-NC-Pad4)*
X180215000Y-111990000D03*
G04 #@! TO.P,IC3,3,EN*
G04 #@! TO.N,VCC*
X177715000Y-111990000D03*
G04 #@! TO.P,IC3,2,GND*
G04 #@! TO.N,GNDA*
X177715000Y-111040000D03*
G04 #@! TO.P,IC3,1,IN*
G04 #@! TO.N,VCC*
X177715000Y-110090000D03*
G04 #@! TD*
G04 #@! TO.P,IC2,5,OUT*
G04 #@! TO.N,+3V3*
X205740000Y-110090000D03*
G04 #@! TO.P,IC2,4,NC*
G04 #@! TO.N,unconnected-(IC2-NC-Pad4)*
X205740000Y-111990000D03*
G04 #@! TO.P,IC2,3,EN*
G04 #@! TO.N,VCC*
X203240000Y-111990000D03*
G04 #@! TO.P,IC2,2,GND*
G04 #@! TO.N,GNDD*
X203240000Y-111040000D03*
G04 #@! TO.P,IC2,1,IN*
G04 #@! TO.N,VCC*
X203240000Y-110090000D03*
G04 #@! TD*
D17*
G04 #@! TO.P,FB1,1*
G04 #@! TO.N,GNDD*
X202405000Y-137390000D03*
G04 #@! TO.P,FB1,2*
G04 #@! TO.N,GNDA*
X200655000Y-137390000D03*
G04 #@! TD*
D18*
G04 #@! TO.P,D4,2,A*
G04 #@! TO.N,VCC*
X191770000Y-130024000D03*
G04 #@! TO.P,D4,1,K*
G04 #@! TO.N,Net-(D4-K)*
X191770000Y-128274000D03*
G04 #@! TD*
D19*
G04 #@! TO.P,D3,2,A*
G04 #@! TO.N,+3.3VA*
X182755000Y-110090000D03*
G04 #@! TO.P,D3,1,K*
G04 #@! TO.N,Net-(D3-K)*
X182755000Y-111840000D03*
G04 #@! TD*
G04 #@! TO.P,D2,2,A*
G04 #@! TO.N,+3V3*
X208320000Y-110240000D03*
G04 #@! TO.P,D2,1,K*
G04 #@! TO.N,Net-(D2-K)*
X208320000Y-111990000D03*
G04 #@! TD*
G04 #@! TO.P,D1,2,A*
G04 #@! TO.N,+1V8*
X176911000Y-61980000D03*
G04 #@! TO.P,D1,1,K*
G04 #@! TO.N,Net-(D1-K)*
X176911000Y-63730000D03*
G04 #@! TD*
D20*
G04 #@! TO.P,C30,1*
G04 #@! TO.N,GNDA*
X212063500Y-46077000D03*
G04 #@! TO.P,C30,2*
G04 #@! TO.N,Net-(U1-VINL4{slash}VIN4M)*
X210338500Y-46077000D03*
G04 #@! TD*
D21*
G04 #@! TO.P,C25,2*
G04 #@! TO.N,GNDA*
X179400000Y-117070000D03*
G04 #@! TO.P,C25,1*
G04 #@! TO.N,VCC*
X177675000Y-117070000D03*
G04 #@! TD*
G04 #@! TO.P,C24,2*
G04 #@! TO.N,GNDA*
X179400000Y-114530000D03*
G04 #@! TO.P,C24,1*
G04 #@! TO.N,VCC*
X177675000Y-114530000D03*
G04 #@! TD*
D20*
G04 #@! TO.P,C22,1*
G04 #@! TO.N,GNDA*
X212063500Y-43537000D03*
G04 #@! TO.P,C22,2*
G04 #@! TO.N,Net-(U1-VINR4{slash}VIN3M)*
X210338500Y-43537000D03*
G04 #@! TD*
D22*
G04 #@! TO.P,C18,2*
G04 #@! TO.N,Net-(U1-VINR2{slash}VIN2M)*
X196850000Y-50622500D03*
G04 #@! TO.P,C18,1*
G04 #@! TO.N,GNDA*
X196850000Y-48897500D03*
G04 #@! TD*
G04 #@! TO.P,C16,2*
G04 #@! TO.N,GNDD*
X184531000Y-63730000D03*
G04 #@! TO.P,C16,1*
G04 #@! TO.N,+1V8*
X184531000Y-62005000D03*
G04 #@! TD*
D23*
G04 #@! TO.P,C15,2*
G04 #@! TO.N,GNDD*
X184531000Y-67085000D03*
G04 #@! TO.P,C15,1*
G04 #@! TO.N,+3V3*
X184531000Y-68810000D03*
G04 #@! TD*
D22*
G04 #@! TO.P,C14,2*
G04 #@! TO.N,GNDD*
X179451000Y-63730000D03*
G04 #@! TO.P,C14,1*
G04 #@! TO.N,+1V8*
X179451000Y-62005000D03*
G04 #@! TD*
D21*
G04 #@! TO.P,C13,2*
G04 #@! TO.N,Net-(U1-Mic_Bias)*
X182853500Y-45950000D03*
G04 #@! TO.P,C13,1*
G04 #@! TO.N,GNDA*
X181128500Y-45950000D03*
G04 #@! TD*
D23*
G04 #@! TO.P,C12,1*
G04 #@! TO.N,+3V3*
X179451000Y-68810000D03*
G04 #@! TO.P,C12,2*
G04 #@! TO.N,GNDD*
X179451000Y-67085000D03*
G04 #@! TD*
D22*
G04 #@! TO.P,C10,2*
G04 #@! TO.N,+3.3VA*
X184531000Y-55295000D03*
G04 #@! TO.P,C10,1*
G04 #@! TO.N,GNDA*
X184531000Y-53570000D03*
G04 #@! TD*
D21*
G04 #@! TO.P,C9,2*
G04 #@! TO.N,GNDD*
X204965000Y-117070000D03*
G04 #@! TO.P,C9,1*
G04 #@! TO.N,VCC*
X203240000Y-117070000D03*
G04 #@! TD*
D22*
G04 #@! TO.P,C8,2*
G04 #@! TO.N,+3.3VA*
X179451000Y-55295000D03*
G04 #@! TO.P,C8,1*
G04 #@! TO.N,GNDA*
X179451000Y-53570000D03*
G04 #@! TD*
G04 #@! TO.P,C7,2*
G04 #@! TO.N,GNDD*
X181991000Y-63730000D03*
G04 #@! TO.P,C7,1*
G04 #@! TO.N,+1V8*
X181991000Y-62005000D03*
G04 #@! TD*
G04 #@! TO.P,C6,2*
G04 #@! TO.N,+3V3*
X181991000Y-68810000D03*
G04 #@! TO.P,C6,1*
G04 #@! TO.N,GNDD*
X181991000Y-67085000D03*
G04 #@! TD*
G04 #@! TO.P,C5,2*
G04 #@! TO.N,+3.3VA*
X181991000Y-55295000D03*
G04 #@! TO.P,C5,1*
G04 #@! TO.N,GNDA*
X181991000Y-53570000D03*
G04 #@! TD*
D21*
G04 #@! TO.P,C4,2*
G04 #@! TO.N,GNDD*
X204965000Y-114530000D03*
G04 #@! TO.P,C4,1*
G04 #@! TO.N,VCC*
X203240000Y-114530000D03*
G04 #@! TD*
D20*
G04 #@! TO.P,C3,1*
G04 #@! TO.N,GNDA*
X212063500Y-38457000D03*
G04 #@! TO.P,C3,2*
G04 #@! TO.N,Net-(U1-VINR3{slash}VIN3P)*
X210338500Y-38457000D03*
G04 #@! TD*
G04 #@! TO.P,C2,1*
G04 #@! TO.N,GNDA*
X212063500Y-40997000D03*
G04 #@! TO.P,C2,2*
G04 #@! TO.N,Net-(U1-VINL3{slash}VIN4P)*
X210338500Y-40997000D03*
G04 #@! TD*
D21*
G04 #@! TO.P,C1,2*
G04 #@! TO.N,GNDD*
X192151000Y-76430000D03*
G04 #@! TO.P,C1,1*
G04 #@! TO.N,+3V3*
X190426000Y-76430000D03*
G04 #@! TD*
D24*
G04 #@! TO.N,GNDA*
X208280000Y-51665000D03*
X179070000Y-47855000D03*
X183515000Y-52300000D03*
X180975000Y-52300000D03*
G04 #@! TO.N,GNDD*
X177800000Y-58015000D03*
X176530000Y-59920000D03*
X179705000Y-72620000D03*
X177800000Y-70715000D03*
X178435000Y-65635000D03*
X180975000Y-65635000D03*
X183515000Y-65635000D03*
X186055000Y-65000000D03*
X186690000Y-66905000D03*
G04 #@! TO.N,GNDA*
X169545000Y-54840000D03*
X172085000Y-51030000D03*
X174625000Y-47220000D03*
X170815000Y-45950000D03*
X170815000Y-41505000D03*
X175260000Y-43410000D03*
X175895000Y-38965000D03*
X172720000Y-37060000D03*
X177165000Y-34520000D03*
X180975000Y-33250000D03*
X179705000Y-37060000D03*
X179070000Y-40870000D03*
X186690000Y-47220000D03*
X184150000Y-43410000D03*
X182880000Y-40235000D03*
X183515000Y-35790000D03*
X186055000Y-32615000D03*
X191135000Y-32615000D03*
X194945000Y-32615000D03*
X199390000Y-32615000D03*
X216535000Y-71985000D03*
X214630000Y-70080000D03*
X216535000Y-67540000D03*
X214630000Y-65000000D03*
X216535000Y-61825000D03*
X214630000Y-58650000D03*
X216535000Y-56110000D03*
X214630000Y-53570000D03*
G04 #@! TO.N,GNDD*
X202565000Y-70715000D03*
X205740000Y-73890000D03*
X208280000Y-76430000D03*
X211455000Y-78335000D03*
X210820000Y-92305000D03*
X210820000Y-97385000D03*
X210820000Y-102465000D03*
X210820000Y-106275000D03*
G04 #@! TO.N,GNDA*
X180975000Y-113895000D03*
G04 #@! TO.N,GNDD*
X193675000Y-92940000D03*
X193675000Y-95480000D03*
X193675000Y-98020000D03*
X193675000Y-101195000D03*
X193675000Y-104370000D03*
X193675000Y-107545000D03*
X193675000Y-110720000D03*
X193675000Y-113895000D03*
X193675000Y-117705000D03*
X187960000Y-129770000D03*
X189230000Y-127865000D03*
X187960000Y-125325000D03*
X191135000Y-121515000D03*
X193675000Y-120880000D03*
X193675000Y-124055000D03*
X193675000Y-127230000D03*
X193675000Y-130405000D03*
X204470000Y-137390000D03*
G04 #@! TO.N,GNDA*
X198755000Y-55475000D03*
X194945000Y-59285000D03*
X209550000Y-48490000D03*
X211455000Y-49760000D03*
X214630000Y-49760000D03*
X215900000Y-47220000D03*
X215900000Y-42775000D03*
X215900000Y-39600000D03*
X212090000Y-35790000D03*
X208915000Y-33885000D03*
X203835000Y-32615000D03*
X205740000Y-35790000D03*
X201295000Y-35790000D03*
X203835000Y-38965000D03*
X199390000Y-39600000D03*
X200660000Y-42140000D03*
X194945000Y-42140000D03*
X196850000Y-45315000D03*
X194945000Y-44680000D03*
X194945000Y-47855000D03*
X194945000Y-50395000D03*
X194945000Y-52935000D03*
X191135000Y-48490000D03*
X191135000Y-51030000D03*
X191135000Y-53570000D03*
X191135000Y-56110000D03*
X190500000Y-45950000D03*
X189230000Y-43410000D03*
X190500000Y-40870000D03*
G04 #@! TO.N,GNDD*
X194310000Y-63730000D03*
X194310000Y-66270000D03*
X194310000Y-68810000D03*
X210820000Y-114530000D03*
X207010000Y-114530000D03*
G04 #@! TO.N,GNDA*
X182880000Y-114530000D03*
G04 #@! TO.N,GNDD*
X194310000Y-76430000D03*
G04 #@! TO.N,GNDA*
X179070000Y-44680000D03*
X213360000Y-47220000D03*
X197485000Y-47220000D03*
X181610000Y-115800000D03*
G04 #@! TO.N,GNDD*
X210820000Y-108180000D03*
G04 #@! TO.N,/VREF*
X175641000Y-71350000D03*
X173101000Y-56110000D03*
G04 #@! TD*
D25*
G04 #@! TO.N,/SCKI(3.3V)*
X206385000Y-88505000D02*
X210820000Y-88505000D01*
X199390000Y-81510000D02*
X206385000Y-88505000D01*
G04 #@! TO.N,/BCK*
X207655000Y-85965000D02*
X210820000Y-85965000D01*
X201930000Y-80240000D02*
X207655000Y-85965000D01*
G04 #@! TO.N,/LRCK*
X208925000Y-83425000D02*
X210820000Y-83425000D01*
X205740000Y-80240000D02*
X208925000Y-83425000D01*
G04 #@! TO.N,/DOUT*
X210195000Y-80885000D02*
X210820000Y-80885000D01*
X199771000Y-70461000D02*
X210195000Y-80885000D01*
G04 #@! TO.N,GNDA*
X198115000Y-134850000D02*
X200655000Y-137390000D01*
G04 #@! TO.N,/VIN1M*
X193040000Y-40870000D02*
X193040000Y-52300000D01*
X194310000Y-39600000D02*
X193040000Y-40870000D01*
X194310000Y-38330000D02*
X194310000Y-39600000D01*
G04 #@! TO.N,/VIN1P*
X196850000Y-42140000D02*
X196850000Y-38330000D01*
X191770000Y-37060000D02*
X192405000Y-36425000D01*
X192405000Y-36425000D02*
X195580000Y-36425000D01*
X191770000Y-38330000D02*
X191770000Y-37060000D01*
X195580000Y-36425000D02*
X196850000Y-37695000D01*
X196850000Y-37695000D02*
X196850000Y-38330000D01*
G04 #@! TO.N,/VINR1*
X186690000Y-40870000D02*
X189230000Y-38330000D01*
X186690000Y-44680000D02*
X186690000Y-40870000D01*
X189611000Y-47601000D02*
X186690000Y-44680000D01*
X189611000Y-53570000D02*
X189611000Y-47601000D01*
D26*
G04 #@! TO.N,GNDA*
X185801000Y-57380000D02*
X185801000Y-54840000D01*
X185801000Y-54840000D02*
X184531000Y-53570000D01*
D27*
G04 #@! TO.N,GNDD*
X189611000Y-63730000D02*
X190151000Y-63190000D01*
D25*
G04 #@! TO.N,/BCK*
X195961000Y-71731000D02*
X201930000Y-77700000D01*
X195961000Y-67540000D02*
X195961000Y-71731000D01*
X201930000Y-77700000D02*
X201930000Y-80240000D01*
G04 #@! TO.N,/VREF*
X195575000Y-91284000D02*
X195575000Y-134850000D01*
X175641000Y-71350000D02*
X195575000Y-91284000D01*
G04 #@! TO.N,/SCKI(3.3V)*
X199390000Y-77700000D02*
X199390000Y-81510000D01*
X193040000Y-71350000D02*
X199390000Y-77700000D01*
X192151000Y-71350000D02*
X193040000Y-71350000D01*
D26*
G04 #@! TO.N,Net-(U1-VINR2{slash}VIN2M)*
X195961000Y-54840000D02*
X195961000Y-54459000D01*
D28*
X196850000Y-53570000D02*
X196850000Y-52300000D01*
D26*
X195961000Y-54459000D02*
X196850000Y-53570000D01*
D25*
G04 #@! TO.N,+1V8*
X173101000Y-65689175D02*
X176810175Y-61980000D01*
X176810175Y-61980000D02*
X176911000Y-61980000D01*
X191770000Y-117070000D02*
X191770000Y-90400000D01*
X173101000Y-71731000D02*
X173101000Y-65689175D01*
X185415000Y-123425000D02*
X191770000Y-117070000D01*
X185415000Y-134850000D02*
X185415000Y-123425000D01*
X191770000Y-90400000D02*
X173101000Y-71731000D01*
G04 #@! TO.N,+3V3*
X181991000Y-68810000D02*
X179451000Y-68810000D01*
G04 #@! TO.N,/MD5{slash}GPIO1{slash}INTA{slash}DMIN*
X204470000Y-65000000D02*
X209550000Y-70080000D01*
G04 #@! TO.N,GNDD*
X192151000Y-76430000D02*
X194310000Y-76430000D01*
G04 #@! TO.N,GNDA*
X212063500Y-46077000D02*
X212217000Y-46077000D01*
G04 #@! TO.N,GNDD*
X210860000Y-110165000D02*
X210773000Y-110165000D01*
G04 #@! TO.N,/VREF*
X180721000Y-49760000D02*
X178181000Y-52300000D01*
X183261000Y-49760000D02*
X180721000Y-49760000D01*
X187071000Y-53570000D02*
X183261000Y-49760000D01*
X187071000Y-54840000D02*
X187071000Y-53570000D01*
G04 #@! TO.N,GNDD*
X203200000Y-134855000D02*
X203195000Y-134850000D01*
G04 #@! TO.N,VCC*
X190495000Y-131299000D02*
X191770000Y-130024000D01*
X190495000Y-134850000D02*
X190495000Y-131299000D01*
G04 #@! TO.N,+3.3VA*
X176911000Y-55729000D02*
X170180000Y-62460000D01*
X176911000Y-55395000D02*
X176911000Y-55729000D01*
G04 #@! TO.N,Net-(U1-VINR2{slash}VIN2M)*
X196850000Y-52300000D02*
X196850000Y-50622500D01*
G04 #@! TO.N,/INT{slash}GPIO3{slash}INTC*
X209550000Y-75160000D02*
X210820000Y-75160000D01*
X201930000Y-67540000D02*
X209550000Y-75160000D01*
G04 #@! TO.N,/MD6{slash}GPIO2{slash}INTB{slash}DMCLK*
X204470000Y-67540000D02*
X209550000Y-72620000D01*
X209550000Y-72620000D02*
X210820000Y-72620000D01*
D28*
X203200000Y-66270000D02*
X204470000Y-67540000D01*
D25*
G04 #@! TO.N,/MD5{slash}GPIO1{slash}INTA{slash}DMIN*
X209550000Y-70080000D02*
X210820000Y-70080000D01*
D28*
X204470000Y-65000000D02*
X203200000Y-65000000D01*
X203200000Y-65000000D02*
X201930000Y-63730000D01*
G04 #@! TO.N,/MD4{slash}MISO{slash}GPIO0*
X207010000Y-63730000D02*
X210820000Y-67540000D01*
X205740000Y-63730000D02*
X207010000Y-63730000D01*
D26*
X203200000Y-62460000D02*
X204470000Y-63730000D01*
X204470000Y-63730000D02*
X205740000Y-63730000D01*
D27*
X202430000Y-61690000D02*
X203200000Y-62460000D01*
X197553500Y-61690000D02*
X202430000Y-61690000D01*
D26*
G04 #@! TO.N,/MD5{slash}GPIO1{slash}INTA{slash}DMIN*
X200660000Y-62460000D02*
X201930000Y-63730000D01*
D27*
X197553500Y-62190000D02*
X200390000Y-62190000D01*
X200390000Y-62190000D02*
X200660000Y-62460000D01*
D26*
G04 #@! TO.N,/MD6{slash}GPIO2{slash}INTB{slash}DMCLK*
X201930000Y-65000000D02*
X203200000Y-66270000D01*
D27*
X199620000Y-62690000D02*
X200660000Y-63730000D01*
D26*
X200660000Y-63730000D02*
X201930000Y-65000000D01*
D27*
X197553500Y-62690000D02*
X199620000Y-62690000D01*
D28*
G04 #@! TO.N,/INT{slash}GPIO3{slash}INTC*
X201930000Y-66270000D02*
X201930000Y-67540000D01*
D26*
X200660000Y-65000000D02*
X201930000Y-66270000D01*
D27*
X198850000Y-63190000D02*
X200660000Y-65000000D01*
X197553500Y-63190000D02*
X198850000Y-63190000D01*
D25*
G04 #@! TO.N,/DOUT*
X199771000Y-67540000D02*
X199771000Y-70461000D01*
G04 #@! TO.N,/LRCK*
X205740000Y-78970000D02*
X205740000Y-80240000D01*
X197423000Y-70653000D02*
X205740000Y-78970000D01*
X197423000Y-68810000D02*
X197423000Y-70653000D01*
X197231000Y-67540000D02*
X197231000Y-68810000D01*
X197231000Y-68810000D02*
X197423000Y-68810000D01*
G04 #@! TO.N,/DOUT2{slash}MD2{slash}MOSI{slash}SDA*
X206893000Y-61962000D02*
X210820000Y-61962000D01*
X206121000Y-61190000D02*
X206893000Y-61962000D01*
G04 #@! TO.N,/MD3{slash}MC{slash}SCL*
X206121000Y-59422000D02*
X210820000Y-59422000D01*
G04 #@! TO.N,/MD1{slash}MS{slash}AD*
X206619000Y-56882000D02*
X210820000Y-56882000D01*
G04 #@! TO.N,/MDO*
X207076000Y-54520000D02*
X207254000Y-54342000D01*
X207254000Y-54342000D02*
X210820000Y-54342000D01*
G04 #@! TO.N,Net-(U1-VINR3{slash}VIN3P)*
X208253500Y-38457000D02*
X210338500Y-38457000D01*
X202311000Y-44399500D02*
X208253500Y-38457000D01*
X202311000Y-51030000D02*
X202311000Y-44399500D01*
G04 #@! TO.N,Net-(U1-VINL3{slash}VIN4P)*
X208253500Y-40997000D02*
X210338500Y-40997000D01*
X203581000Y-52300000D02*
X203581000Y-45669500D01*
X203581000Y-45669500D02*
X208253500Y-40997000D01*
D28*
G04 #@! TO.N,Net-(U1-VINR4{slash}VIN3M)*
X204851000Y-46939500D02*
X204851000Y-53570000D01*
D25*
X205840500Y-45950000D02*
X208253500Y-43537000D01*
X208253500Y-43537000D02*
X210338500Y-43537000D01*
D28*
X205840500Y-45950000D02*
X204851000Y-46939500D01*
D25*
G04 #@! TO.N,Net-(U1-VINL4{slash}VIN4M)*
X206121000Y-48209500D02*
X208253500Y-46077000D01*
X208253500Y-46077000D02*
X210338500Y-46077000D01*
X206121000Y-51030000D02*
X206121000Y-48209500D01*
G04 #@! TO.N,/VIN1P*
X199771000Y-45061000D02*
X196850000Y-42140000D01*
X199771000Y-51030000D02*
X199771000Y-45061000D01*
D28*
G04 #@! TO.N,/VIN1M*
X193040000Y-55729000D02*
X193040000Y-52300000D01*
X193421000Y-56110000D02*
X193040000Y-55729000D01*
G04 #@! TO.N,/DOUT*
X199771000Y-66270000D02*
X199771000Y-67540000D01*
D26*
X199771000Y-65000000D02*
X199771000Y-66270000D01*
D27*
X198461000Y-63690000D02*
X199771000Y-65000000D01*
X197553500Y-63690000D02*
X198461000Y-63690000D01*
D28*
G04 #@! TO.N,/LRCK*
X197231000Y-66270000D02*
X197231000Y-67540000D01*
D26*
X197231000Y-65000000D02*
X197231000Y-66270000D01*
D27*
X197541000Y-64690000D02*
X197231000Y-65000000D01*
X197553500Y-64690000D02*
X197541000Y-64690000D01*
D28*
G04 #@! TO.N,/BCK*
X195961000Y-66270000D02*
X195961000Y-67540000D01*
D26*
X195961000Y-65000000D02*
X195961000Y-66270000D01*
D27*
X195961000Y-64979315D02*
X195961000Y-65000000D01*
X196750315Y-64190000D02*
X195961000Y-64979315D01*
X197553500Y-64190000D02*
X196750315Y-64190000D01*
D28*
G04 #@! TO.N,/DOUT2{slash}MD2{slash}MOSI{slash}SDA*
X204851000Y-61190000D02*
X206121000Y-61190000D01*
D27*
X197553500Y-61190000D02*
X203581000Y-61190000D01*
D26*
X203581000Y-61190000D02*
X204851000Y-61190000D01*
D28*
G04 #@! TO.N,/MD3{slash}MC{slash}SCL*
X205349000Y-59422000D02*
X206121000Y-59422000D01*
X204851000Y-59920000D02*
X205349000Y-59422000D01*
D26*
X203581000Y-59920000D02*
X204851000Y-59920000D01*
D27*
X202811000Y-60690000D02*
X203581000Y-59920000D01*
X197553500Y-60690000D02*
X202811000Y-60690000D01*
D28*
G04 #@! TO.N,/MD1{slash}MS{slash}AD*
X203654502Y-58650000D02*
X203581000Y-58650000D01*
X205422502Y-56882000D02*
X203654502Y-58650000D01*
X206619000Y-56882000D02*
X205422502Y-56882000D01*
D26*
X202311000Y-59920000D02*
X203581000Y-58650000D01*
D27*
X197553500Y-60190000D02*
X202041000Y-60190000D01*
X202041000Y-60190000D02*
X202311000Y-59920000D01*
D28*
G04 #@! TO.N,/MDO*
X206441000Y-54520000D02*
X203581000Y-57380000D01*
X207076000Y-54520000D02*
X206441000Y-54520000D01*
D26*
X202311000Y-58650000D02*
X203581000Y-57380000D01*
D27*
X201271000Y-59690000D02*
X202311000Y-58650000D01*
X197553500Y-59690000D02*
X201271000Y-59690000D01*
D26*
G04 #@! TO.N,Net-(U1-VINR3{slash}VIN3P)*
X202311000Y-53570000D02*
X199771000Y-56110000D01*
X202311000Y-52300000D02*
X202311000Y-53570000D01*
D28*
X202311000Y-52300000D02*
X202311000Y-51030000D01*
D27*
X199771000Y-56110000D02*
X198191000Y-57690000D01*
X198191000Y-57690000D02*
X197553500Y-57690000D01*
D26*
G04 #@! TO.N,Net-(U1-VINL4{slash}VIN4M)*
X206121000Y-53643503D02*
X206121000Y-53570000D01*
X202384503Y-57380000D02*
X206121000Y-53643503D01*
X202311000Y-57380000D02*
X202384503Y-57380000D01*
X201041000Y-58650000D02*
X202311000Y-57380000D01*
D28*
X206121000Y-53570000D02*
X206121000Y-51030000D01*
D27*
X200501000Y-59190000D02*
X201041000Y-58650000D01*
X199867396Y-59190000D02*
X200501000Y-59190000D01*
X197553500Y-59190000D02*
X199867396Y-59190000D01*
G04 #@! TO.N,Net-(U1-VINR4{slash}VIN3M)*
X199771000Y-58650000D02*
X201041000Y-57380000D01*
D26*
X201041000Y-57380000D02*
X202311000Y-56110000D01*
X203581000Y-54840000D02*
X204851000Y-53570000D01*
D27*
X199731000Y-58690000D02*
X199771000Y-58650000D01*
D26*
X202311000Y-56110000D02*
X203581000Y-54840000D01*
D27*
X197553500Y-58690000D02*
X199731000Y-58690000D01*
D28*
G04 #@! TO.N,Net-(U1-VINL3{slash}VIN4P)*
X203581000Y-53570000D02*
X203581000Y-52300000D01*
X202311000Y-54840000D02*
X203581000Y-53570000D01*
D26*
X199771000Y-57380000D02*
X201041000Y-56110000D01*
D27*
X197553500Y-58190000D02*
X198961000Y-58190000D01*
X198961000Y-58190000D02*
X199771000Y-57380000D01*
D28*
X201041000Y-56110000D02*
X202311000Y-54840000D01*
D27*
G04 #@! TO.N,Net-(U1-VINR2{slash}VIN2M)*
X194691000Y-56110000D02*
X195961000Y-54840000D01*
X193421000Y-57400685D02*
X193421000Y-57380000D01*
X193421000Y-57380000D02*
X194691000Y-56110000D01*
X192631685Y-58190000D02*
X193421000Y-57400685D01*
X191828500Y-58190000D02*
X192631685Y-58190000D01*
D28*
G04 #@! TO.N,/VIN1P*
X195961000Y-56110000D02*
X199771000Y-52300000D01*
X199771000Y-52300000D02*
X199771000Y-51030000D01*
D26*
X194691000Y-57380000D02*
X195961000Y-56110000D01*
D27*
X193381000Y-58690000D02*
X194691000Y-57380000D01*
X191828500Y-58690000D02*
X193381000Y-58690000D01*
G04 #@! TO.N,/VIN1M*
X191841000Y-57690000D02*
X191828500Y-57690000D01*
X193421000Y-56110000D02*
X191841000Y-57690000D01*
D28*
G04 #@! TO.N,/VINR1*
X189611000Y-56110000D02*
X189611000Y-53570000D01*
D26*
X189611000Y-57380000D02*
X189611000Y-56110000D01*
D27*
X191025315Y-59190000D02*
X189611000Y-57775685D01*
X189611000Y-57775685D02*
X189611000Y-57380000D01*
X191828500Y-59190000D02*
X191025315Y-59190000D01*
D28*
G04 #@! TO.N,Net-(U1-Mic_Bias)*
X188341000Y-52300000D02*
X187071000Y-51030000D01*
D26*
X188341000Y-53570000D02*
X188341000Y-52300000D01*
D25*
X187071000Y-51030000D02*
X182853500Y-46812500D01*
D26*
X188341000Y-57380000D02*
X188341000Y-53570000D01*
D25*
X182853500Y-46812500D02*
X182853500Y-45975000D01*
D27*
X190651000Y-59690000D02*
X189611000Y-58650000D01*
D26*
X189611000Y-58650000D02*
X188341000Y-57380000D01*
D27*
X191828500Y-59690000D02*
X190651000Y-59690000D01*
D25*
G04 #@! TO.N,/VREF*
X175641000Y-53570000D02*
X173101000Y-56110000D01*
X176911000Y-53570000D02*
X175641000Y-53570000D01*
X178181000Y-52300000D02*
X176911000Y-51030000D01*
X178181000Y-52300000D02*
X176911000Y-53570000D01*
D28*
X187071000Y-57380000D02*
X187071000Y-54840000D01*
X188341000Y-58650000D02*
X187071000Y-57380000D01*
D26*
X189611000Y-59920000D02*
X188341000Y-58650000D01*
D27*
X191828500Y-60190000D02*
X189881000Y-60190000D01*
X189881000Y-60190000D02*
X189611000Y-59920000D01*
D26*
G04 #@! TO.N,GNDA*
X188341000Y-59920000D02*
X185801000Y-57380000D01*
D27*
X189111000Y-60690000D02*
X191828500Y-60690000D01*
X188341000Y-59920000D02*
X189111000Y-60690000D01*
G04 #@! TO.N,+3.3VA*
X188341000Y-61190000D02*
X187071000Y-59920000D01*
X189611000Y-61190000D02*
X188341000Y-61190000D01*
D28*
X184531000Y-57380000D02*
X184531000Y-56110000D01*
X187071000Y-59920000D02*
X184531000Y-57380000D01*
D27*
G04 #@! TO.N,/XO*
X187571000Y-61690000D02*
X187071000Y-61190000D01*
X191828500Y-61690000D02*
X187571000Y-61690000D01*
D26*
X180401000Y-56787500D02*
X179451000Y-57737500D01*
X182668500Y-56787500D02*
X180401000Y-56787500D01*
X187071000Y-61190000D02*
X182668500Y-56787500D01*
D27*
G04 #@! TO.N,/XI*
X192716000Y-62190000D02*
X191828500Y-62190000D01*
X192741000Y-62165000D02*
X192716000Y-62190000D01*
X185801000Y-61190000D02*
X186776000Y-62165000D01*
D28*
X184173500Y-59562500D02*
X181991000Y-59562500D01*
X185801000Y-61190000D02*
X184173500Y-59562500D01*
D27*
X186776000Y-62165000D02*
X192741000Y-62165000D01*
D28*
G04 #@! TO.N,+3.3VA*
X183716000Y-55295000D02*
X181991000Y-55295000D01*
X184531000Y-56110000D02*
X183716000Y-55295000D01*
X184531000Y-56110000D02*
X184531000Y-55295000D01*
D27*
X191828500Y-61190000D02*
X189611000Y-61190000D01*
G04 #@! TO.N,GNDD*
X190151000Y-63190000D02*
X191828500Y-63190000D01*
G04 #@! TO.N,+1V8*
X192741000Y-62715000D02*
X185241000Y-62715000D01*
X192716000Y-62690000D02*
X192741000Y-62715000D01*
X191828500Y-62690000D02*
X192716000Y-62690000D01*
X185241000Y-62715000D02*
X184531000Y-62005000D01*
G04 #@! TO.N,+3V3*
X191828500Y-64190000D02*
X191828500Y-63690000D01*
X191025315Y-64190000D02*
X189611000Y-65604315D01*
X191828500Y-64190000D02*
X191025315Y-64190000D01*
D28*
G04 #@! TO.N,/SCKI(3.3V)*
X192151000Y-68810000D02*
X192151000Y-71350000D01*
D27*
X192151000Y-65012500D02*
X192151000Y-66270000D01*
D26*
X192151000Y-66270000D02*
X192151000Y-68810000D01*
D27*
X191828500Y-64690000D02*
X192151000Y-65012500D01*
D26*
G04 #@! TO.N,GNDA*
X178540000Y-111040000D02*
X178740000Y-111240000D01*
X178740000Y-111240000D02*
X178740000Y-113870000D01*
X178740000Y-113870000D02*
X179400000Y-114530000D01*
X177715000Y-111040000D02*
X178540000Y-111040000D01*
G04 #@! TO.N,GNDD*
X204265000Y-113830000D02*
X204965000Y-114530000D01*
X204265000Y-111240000D02*
X204265000Y-113830000D01*
X204065000Y-111040000D02*
X204265000Y-111240000D01*
X203240000Y-111040000D02*
X204065000Y-111040000D01*
D25*
X204965000Y-117070000D02*
X204965000Y-114530000D01*
G04 #@! TO.N,+1V8*
X181991000Y-62005000D02*
X184531000Y-62005000D01*
X179451000Y-62005000D02*
X181991000Y-62005000D01*
X176911000Y-61980000D02*
X179426000Y-61980000D01*
X179426000Y-61980000D02*
X179451000Y-62005000D01*
G04 #@! TO.N,Net-(D1-K)*
X176911000Y-63730000D02*
X176911000Y-66985000D01*
G04 #@! TO.N,+3.3VA*
X181991000Y-55295000D02*
X184531000Y-55295000D01*
X179451000Y-55295000D02*
X181991000Y-55295000D01*
X179351000Y-55395000D02*
X179451000Y-55295000D01*
X176911000Y-55395000D02*
X179351000Y-55395000D01*
G04 #@! TO.N,/VREF*
X176911000Y-53570000D02*
X176911000Y-51030000D01*
G04 #@! TO.N,GNDD*
X192151000Y-73000000D02*
X192151000Y-76430000D01*
D28*
G04 #@! TO.N,Net-(D2-K)*
X208320000Y-111990000D02*
X210860000Y-111990000D01*
G04 #@! TO.N,+3V3*
X208170000Y-110090000D02*
X208320000Y-110240000D01*
G04 #@! TO.N,Net-(D3-K)*
X185220000Y-111840000D02*
X185295000Y-111915000D01*
X182755000Y-111840000D02*
X185220000Y-111840000D01*
D25*
G04 #@! TO.N,Net-(D4-K)*
X191770000Y-128274000D02*
X191770000Y-125602500D01*
G04 #@! TD*
G04 #@! TA.AperFunction,Conductor*
G04 #@! TO.N,+3V3*
G36*
X190438000Y-65016613D02*
G01*
X190483387Y-65062000D01*
X190500000Y-65124000D01*
X190500000Y-70176000D01*
X190483387Y-70238000D01*
X190438000Y-70283387D01*
X190376000Y-70300000D01*
X190301000Y-70300000D01*
X190301000Y-74050000D01*
X190376000Y-74050000D01*
X190438000Y-74066613D01*
X190483387Y-74112000D01*
X190500000Y-74174000D01*
X190500000Y-77700000D01*
X196726000Y-77700000D01*
X196788000Y-77716613D01*
X196833387Y-77762000D01*
X196850000Y-77824000D01*
X196850000Y-82780000D01*
X208243802Y-94173802D01*
X208270626Y-94213895D01*
X208280121Y-94261190D01*
X208315209Y-109090707D01*
X208298694Y-109152830D01*
X208253294Y-109198338D01*
X208191210Y-109215000D01*
X208033353Y-109215000D01*
X207932349Y-109225318D01*
X207768698Y-109279546D01*
X207621959Y-109370056D01*
X207500056Y-109491959D01*
X207409546Y-109638698D01*
X207355318Y-109802348D01*
X207345000Y-109903353D01*
X207345000Y-109990000D01*
X208317338Y-109990000D01*
X208318521Y-110490000D01*
X207345001Y-110490000D01*
X207345001Y-110576647D01*
X207355318Y-110677650D01*
X207409547Y-110841303D01*
X207449930Y-110906775D01*
X207468373Y-110969774D01*
X207452071Y-111033360D01*
X207405593Y-111079715D01*
X207341963Y-111095847D01*
X206578206Y-111080891D01*
X206513450Y-111061138D01*
X206468721Y-111010315D01*
X206457354Y-110943574D01*
X206482736Y-110880810D01*
X206537301Y-110840733D01*
X206557088Y-110833352D01*
X206672188Y-110747188D01*
X206758352Y-110632089D01*
X206808597Y-110497375D01*
X206815000Y-110437824D01*
X206815000Y-110340000D01*
X205614000Y-110340000D01*
X205552000Y-110323387D01*
X205506613Y-110278000D01*
X205490000Y-110216000D01*
X205490000Y-109290000D01*
X205990000Y-109290000D01*
X205990000Y-109840000D01*
X206815000Y-109840000D01*
X206815000Y-109742176D01*
X206808597Y-109682624D01*
X206758352Y-109547910D01*
X206672188Y-109432811D01*
X206557089Y-109346647D01*
X206422375Y-109296402D01*
X206362824Y-109290000D01*
X205990000Y-109290000D01*
X205490000Y-109290000D01*
X205117176Y-109290000D01*
X205057624Y-109296402D01*
X204922910Y-109346647D01*
X204807811Y-109432811D01*
X204721645Y-109547913D01*
X204719487Y-109553701D01*
X204679163Y-109608457D01*
X204616025Y-109633713D01*
X204549062Y-109621873D01*
X204498412Y-109576498D01*
X204479309Y-109511234D01*
X204479174Y-109491959D01*
X204470000Y-108180000D01*
X199390000Y-108180000D01*
X199390000Y-122150000D01*
X201806000Y-122150000D01*
X201868000Y-122166613D01*
X201913387Y-122212000D01*
X201930000Y-122274000D01*
X201930000Y-132943603D01*
X201910811Y-133009865D01*
X201859183Y-133055619D01*
X201796890Y-133065761D01*
X201796890Y-133066500D01*
X201792348Y-133066500D01*
X201791095Y-133066703D01*
X201789411Y-133066500D01*
X201596278Y-133066500D01*
X201582307Y-133068241D01*
X201470222Y-133082212D01*
X201411200Y-133097159D01*
X201292862Y-133143334D01*
X201189481Y-133217147D01*
X201144682Y-133258387D01*
X201062584Y-133355318D01*
X201018276Y-133445953D01*
X200982588Y-133489694D01*
X200931207Y-133513082D01*
X200913912Y-133512525D01*
X200905000Y-133519364D01*
X200905000Y-134976000D01*
X200888387Y-135038000D01*
X200843000Y-135083387D01*
X200781000Y-135100000D01*
X200529000Y-135100000D01*
X200467000Y-135083387D01*
X200421613Y-135038000D01*
X200405000Y-134976000D01*
X200405000Y-133519364D01*
X200396086Y-133512524D01*
X200378791Y-133513081D01*
X200327410Y-133489694D01*
X200291722Y-133445952D01*
X200252722Y-133366176D01*
X200247415Y-133355320D01*
X200247413Y-133355318D01*
X200247413Y-133355317D01*
X200165317Y-133258387D01*
X200154275Y-133248222D01*
X200120523Y-133217151D01*
X200120520Y-133217148D01*
X200120518Y-133217147D01*
X200017137Y-133143334D01*
X199898799Y-133097159D01*
X199839777Y-133082212D01*
X199729434Y-133068458D01*
X199713722Y-133066500D01*
X199514000Y-133066500D01*
X199452000Y-133049887D01*
X199406613Y-133004500D01*
X199390000Y-132942500D01*
X199390000Y-131040000D01*
X196974000Y-131040000D01*
X196912000Y-131023387D01*
X196866613Y-130978000D01*
X196850000Y-130916000D01*
X196850000Y-90400001D01*
X196849999Y-90399999D01*
X183130000Y-76680000D01*
X189388501Y-76680000D01*
X189388501Y-76716647D01*
X189398818Y-76817650D01*
X189453046Y-76981301D01*
X189543556Y-77128040D01*
X189665459Y-77249943D01*
X189812198Y-77340453D01*
X189975848Y-77394681D01*
X190076853Y-77405000D01*
X190176000Y-77405000D01*
X190176000Y-76680000D01*
X189388501Y-76680000D01*
X183130000Y-76680000D01*
X182916319Y-76466319D01*
X182889439Y-76426091D01*
X182880000Y-76378638D01*
X182880000Y-76180000D01*
X189388500Y-76180000D01*
X190176000Y-76180000D01*
X190176000Y-75455001D01*
X190076853Y-75455001D01*
X189975849Y-75465318D01*
X189812198Y-75519546D01*
X189665459Y-75610056D01*
X189543556Y-75731959D01*
X189453046Y-75878698D01*
X189398818Y-76042348D01*
X189388500Y-76143353D01*
X189388500Y-76180000D01*
X182880000Y-76180000D01*
X182880000Y-73250000D01*
X188901000Y-73250000D01*
X188901000Y-73597824D01*
X188907402Y-73657375D01*
X188957647Y-73792089D01*
X189043811Y-73907188D01*
X189158910Y-73993352D01*
X189293624Y-74043597D01*
X189353176Y-74050000D01*
X189801000Y-74050000D01*
X189801000Y-73250000D01*
X188901000Y-73250000D01*
X182880000Y-73250000D01*
X182880000Y-71600000D01*
X188901000Y-71600000D01*
X188901000Y-71947824D01*
X188907402Y-72007375D01*
X188953760Y-72131666D01*
X188961578Y-72175000D01*
X188953760Y-72218334D01*
X188907402Y-72342624D01*
X188901000Y-72402176D01*
X188901000Y-72750000D01*
X189801000Y-72750000D01*
X189801000Y-71600000D01*
X188901000Y-71600000D01*
X182880000Y-71600000D01*
X182880000Y-71350001D01*
X182880000Y-71350000D01*
X182879999Y-71349999D01*
X182879998Y-71349998D01*
X182380002Y-71100000D01*
X188901000Y-71100000D01*
X189801000Y-71100000D01*
X189801000Y-70300000D01*
X189353176Y-70300000D01*
X189293624Y-70306402D01*
X189158910Y-70356647D01*
X189043811Y-70442811D01*
X188957647Y-70557910D01*
X188907402Y-70692624D01*
X188901000Y-70752176D01*
X188901000Y-71100000D01*
X182380002Y-71100000D01*
X180408546Y-70114273D01*
X180358519Y-70068555D01*
X180340000Y-70003364D01*
X180340000Y-69493750D01*
X180358462Y-69428652D01*
X180361452Y-69423803D01*
X180415681Y-69260151D01*
X180425999Y-69159147D01*
X180425999Y-68934001D01*
X180442612Y-68872000D01*
X180487999Y-68826613D01*
X180549999Y-68810000D01*
X180892001Y-68810000D01*
X180954001Y-68826613D01*
X180999388Y-68872000D01*
X181016001Y-68934000D01*
X181016001Y-69159147D01*
X181026318Y-69260150D01*
X181080546Y-69423801D01*
X181171056Y-69570540D01*
X181292959Y-69692443D01*
X181439698Y-69782953D01*
X181603348Y-69837181D01*
X181704353Y-69847500D01*
X181741000Y-69847500D01*
X181741000Y-68810000D01*
X182241000Y-68810000D01*
X182241000Y-69847499D01*
X182277647Y-69847499D01*
X182378650Y-69837181D01*
X182542301Y-69782953D01*
X182689040Y-69692443D01*
X182810943Y-69570540D01*
X182901453Y-69423801D01*
X182955681Y-69260151D01*
X182965999Y-69159147D01*
X182965999Y-68934001D01*
X182982612Y-68872000D01*
X183027999Y-68826613D01*
X183089999Y-68810000D01*
X183432001Y-68810000D01*
X183494001Y-68826613D01*
X183539388Y-68872000D01*
X183556001Y-68934000D01*
X183556001Y-69159147D01*
X183566318Y-69260150D01*
X183620546Y-69423801D01*
X183711056Y-69570540D01*
X183832959Y-69692443D01*
X183979698Y-69782953D01*
X184143348Y-69837181D01*
X184244353Y-69847500D01*
X184281000Y-69847500D01*
X184281000Y-68810000D01*
X184781000Y-68810000D01*
X184781000Y-69847499D01*
X184817647Y-69847499D01*
X184918650Y-69837181D01*
X185082301Y-69782953D01*
X185229040Y-69692443D01*
X185350943Y-69570540D01*
X185441453Y-69423801D01*
X185495681Y-69260151D01*
X185505999Y-69159147D01*
X185505999Y-68934001D01*
X185522612Y-68872000D01*
X185567999Y-68826613D01*
X185629999Y-68810000D01*
X187960000Y-68810000D01*
X187960000Y-65124000D01*
X187976613Y-65062000D01*
X188022000Y-65016613D01*
X188084000Y-65000000D01*
X190376000Y-65000000D01*
X190438000Y-65016613D01*
G37*
G04 #@! TD.AperFunction*
G04 #@! TD*
G04 #@! TA.AperFunction,Conductor*
G04 #@! TO.N,+3.3VA*
G36*
X173928000Y-58666613D02*
G01*
X173973387Y-58712000D01*
X173990000Y-58774000D01*
X173990000Y-62336000D01*
X173973387Y-62398000D01*
X173928000Y-62443387D01*
X173866000Y-62460000D01*
X171450000Y-62460000D01*
X171450000Y-72620000D01*
X190463681Y-91633681D01*
X190490561Y-91673909D01*
X190500000Y-91721362D01*
X190500000Y-116862404D01*
X190490561Y-116909857D01*
X190463681Y-116950085D01*
X186570084Y-120843681D01*
X186529856Y-120870561D01*
X186482403Y-120880000D01*
X184150000Y-120880000D01*
X184150000Y-132821000D01*
X184133387Y-132883000D01*
X184088000Y-132928387D01*
X184026000Y-132945000D01*
X181610000Y-132945000D01*
X181610000Y-132988386D01*
X181600561Y-133035839D01*
X181573681Y-133076067D01*
X181533453Y-133102947D01*
X181415247Y-133151909D01*
X181308900Y-133233513D01*
X181263513Y-133278900D01*
X181181908Y-133385248D01*
X181130612Y-133509088D01*
X181130610Y-133509094D01*
X181130610Y-133509095D01*
X181125806Y-133527026D01*
X181115898Y-133564002D01*
X181091112Y-133611613D01*
X181048527Y-133644289D01*
X180996123Y-133655907D01*
X180943718Y-133644289D01*
X180798493Y-133576569D01*
X180585000Y-133519364D01*
X180585000Y-134976000D01*
X180568387Y-135038000D01*
X180523000Y-135083387D01*
X180461000Y-135100000D01*
X180209000Y-135100000D01*
X180147000Y-135083387D01*
X180101613Y-135038000D01*
X180085000Y-134976000D01*
X180085000Y-133519364D01*
X180084999Y-133519364D01*
X179871507Y-133576569D01*
X179657421Y-133676400D01*
X179463921Y-133811890D01*
X179296891Y-133978920D01*
X179295574Y-133980802D01*
X179291709Y-133984102D01*
X179289219Y-133986593D01*
X179289022Y-133986396D01*
X179248357Y-134021128D01*
X179187509Y-134033507D01*
X179128289Y-134014835D01*
X179085547Y-133969793D01*
X179070000Y-133909677D01*
X179070000Y-118464000D01*
X179086613Y-118402000D01*
X179132000Y-118356613D01*
X179194000Y-118340000D01*
X185420000Y-118340000D01*
X185420000Y-115924000D01*
X185436613Y-115862000D01*
X185482000Y-115816613D01*
X185544000Y-115800000D01*
X187960000Y-115800000D01*
X187960000Y-108180000D01*
X184150000Y-108180000D01*
X184150000Y-110832500D01*
X184133387Y-110894500D01*
X184088000Y-110939887D01*
X184026000Y-110956500D01*
X183724052Y-110956500D01*
X183661273Y-110939433D01*
X183615775Y-110892932D01*
X183600082Y-110829795D01*
X183618513Y-110767403D01*
X183665453Y-110691301D01*
X183719681Y-110527651D01*
X183730000Y-110426647D01*
X183730000Y-110340000D01*
X181780001Y-110340000D01*
X181780001Y-110426647D01*
X181790318Y-110527650D01*
X181844546Y-110691301D01*
X181935056Y-110838040D01*
X181968324Y-110871308D01*
X182000418Y-110926895D01*
X182000418Y-110991082D01*
X181968325Y-111046669D01*
X181928344Y-111086650D01*
X181836790Y-111235082D01*
X181781938Y-111400617D01*
X181771500Y-111502787D01*
X181771501Y-111866000D01*
X181754888Y-111928000D01*
X181709501Y-111973387D01*
X181647501Y-111990000D01*
X181422500Y-111990000D01*
X181360500Y-111973387D01*
X181315113Y-111928000D01*
X181298500Y-111866000D01*
X181298500Y-111641366D01*
X181291988Y-111580794D01*
X181240889Y-111443796D01*
X181153261Y-111326738D01*
X181036203Y-111239110D01*
X180899205Y-111188011D01*
X180868919Y-111184755D01*
X180838638Y-111181500D01*
X179609215Y-111181500D01*
X179559000Y-111170877D01*
X179517388Y-111140829D01*
X179491509Y-111096504D01*
X179488360Y-111087001D01*
X179483480Y-111064987D01*
X179480358Y-111056409D01*
X179473941Y-110997814D01*
X179495306Y-110942876D01*
X179539624Y-110904010D01*
X179596880Y-110890000D01*
X179965000Y-110890000D01*
X179965000Y-110340000D01*
X180465000Y-110340000D01*
X180465000Y-110890000D01*
X180837824Y-110890000D01*
X180897375Y-110883597D01*
X181032089Y-110833352D01*
X181147188Y-110747188D01*
X181233352Y-110632089D01*
X181283597Y-110497375D01*
X181290000Y-110437824D01*
X181290000Y-110340000D01*
X180465000Y-110340000D01*
X179965000Y-110340000D01*
X179965000Y-109290000D01*
X180465000Y-109290000D01*
X180465000Y-109840000D01*
X181290000Y-109840000D01*
X181780000Y-109840000D01*
X182505000Y-109840000D01*
X182505000Y-109065001D01*
X182468353Y-109065001D01*
X182367349Y-109075318D01*
X182203698Y-109129546D01*
X182056959Y-109220056D01*
X181935056Y-109341959D01*
X181844546Y-109488698D01*
X181790318Y-109652348D01*
X181780000Y-109753353D01*
X181780000Y-109840000D01*
X181290000Y-109840000D01*
X181290000Y-109742176D01*
X181283597Y-109682624D01*
X181233352Y-109547910D01*
X181147188Y-109432811D01*
X181032089Y-109346647D01*
X180897375Y-109296402D01*
X180837824Y-109290000D01*
X180465000Y-109290000D01*
X179965000Y-109290000D01*
X179592176Y-109290000D01*
X179532624Y-109296402D01*
X179397910Y-109346647D01*
X179268539Y-109443495D01*
X179266333Y-109440548D01*
X179245572Y-109457300D01*
X179185204Y-109468221D01*
X179126989Y-109448866D01*
X179085176Y-109403975D01*
X179070000Y-109344533D01*
X179070000Y-109065000D01*
X183005000Y-109065000D01*
X183005000Y-109840000D01*
X183729999Y-109840000D01*
X183729999Y-109753353D01*
X183719681Y-109652349D01*
X183665453Y-109488698D01*
X183574943Y-109341959D01*
X183453040Y-109220056D01*
X183306301Y-109129546D01*
X183142651Y-109075318D01*
X183041647Y-109065000D01*
X183005000Y-109065000D01*
X179070000Y-109065000D01*
X179070000Y-108180000D01*
X168064500Y-108180000D01*
X168002500Y-108163387D01*
X167957113Y-108118000D01*
X167940500Y-108056000D01*
X167940500Y-58774000D01*
X167957113Y-58712000D01*
X168002500Y-58666613D01*
X168064500Y-58650000D01*
X173866000Y-58650000D01*
X173928000Y-58666613D01*
G37*
G04 #@! TD.AperFunction*
G04 #@! TD*
G04 #@! TA.AperFunction,Conductor*
G04 #@! TO.N,VCC*
G36*
X176612047Y-109464124D02*
G01*
X176656428Y-109503280D01*
X176677605Y-109558546D01*
X176670754Y-109617333D01*
X176646402Y-109682622D01*
X176640000Y-109742176D01*
X176640000Y-109840000D01*
X177800000Y-109840000D01*
X177800000Y-110231500D01*
X177091362Y-110231500D01*
X177064445Y-110234393D01*
X177030794Y-110238011D01*
X176893796Y-110289110D01*
X176858855Y-110315267D01*
X176823704Y-110333655D01*
X176784545Y-110340000D01*
X176640000Y-110340000D01*
X176640000Y-110437824D01*
X176646402Y-110497377D01*
X176650926Y-110509507D01*
X176658743Y-110552838D01*
X176650926Y-110596168D01*
X176638011Y-110630795D01*
X176631500Y-110691366D01*
X176631500Y-111388634D01*
X176638011Y-111449200D01*
X176650926Y-111483826D01*
X176658744Y-111527159D01*
X176650927Y-111570492D01*
X176646402Y-111582624D01*
X176640000Y-111642176D01*
X176640000Y-111740000D01*
X176784545Y-111740000D01*
X176823704Y-111746345D01*
X176858855Y-111764733D01*
X176893796Y-111790889D01*
X177030794Y-111841988D01*
X177030797Y-111841988D01*
X177030799Y-111841989D01*
X177091362Y-111848500D01*
X177800000Y-111848500D01*
X177800000Y-137390000D01*
X180288638Y-137390000D01*
X180336091Y-137399439D01*
X180376319Y-137426319D01*
X182880000Y-139930000D01*
X186690000Y-139930000D01*
X188680181Y-137939819D01*
X188720409Y-137912939D01*
X188767862Y-137903500D01*
X189106001Y-137903500D01*
X189132580Y-137900000D01*
X189238905Y-137886003D01*
X189300905Y-137869390D01*
X189424751Y-137818091D01*
X189531099Y-137736486D01*
X189576486Y-137691099D01*
X189658091Y-137584751D01*
X189709390Y-137460905D01*
X189726003Y-137398905D01*
X189743500Y-137266000D01*
X189743500Y-136183771D01*
X189758786Y-136124128D01*
X189800875Y-136079190D01*
X189859390Y-136060036D01*
X189919905Y-136071389D01*
X190031507Y-136123430D01*
X190244999Y-136180635D01*
X190245000Y-136180636D01*
X190245000Y-134724000D01*
X190261613Y-134662000D01*
X190307000Y-134616613D01*
X190369000Y-134600000D01*
X190621000Y-134600000D01*
X190683000Y-134616613D01*
X190728387Y-134662000D01*
X190745000Y-134724000D01*
X190745000Y-136180635D01*
X190958492Y-136123430D01*
X191080095Y-136066726D01*
X191140610Y-136055373D01*
X191199125Y-136074527D01*
X191241214Y-136119465D01*
X191256500Y-136179108D01*
X191256500Y-137323637D01*
X191271921Y-137448536D01*
X191271922Y-137448539D01*
X191286593Y-137507048D01*
X191331934Y-137624449D01*
X191404467Y-137727294D01*
X191407678Y-137730831D01*
X191407688Y-137730844D01*
X191445009Y-137771956D01*
X191540376Y-137854068D01*
X191714783Y-137970339D01*
X191755328Y-138015003D01*
X191770000Y-138073513D01*
X191770000Y-138660000D01*
X195580000Y-141200000D01*
X204470000Y-141200000D01*
X207010000Y-138660000D01*
X207010000Y-132310000D01*
X203324000Y-132310000D01*
X203262000Y-132293387D01*
X203216613Y-132248000D01*
X203200000Y-132186000D01*
X203200000Y-120880000D01*
X200784000Y-120880000D01*
X200722000Y-120863387D01*
X200676613Y-120818000D01*
X200660000Y-120756000D01*
X200660000Y-117320000D01*
X202202501Y-117320000D01*
X202202501Y-117356647D01*
X202212818Y-117457650D01*
X202267046Y-117621301D01*
X202357556Y-117768040D01*
X202479459Y-117889943D01*
X202626198Y-117980453D01*
X202789848Y-118034681D01*
X202890853Y-118045000D01*
X202990000Y-118045000D01*
X202990000Y-117320000D01*
X202202501Y-117320000D01*
X200660000Y-117320000D01*
X200660000Y-109574000D01*
X200676613Y-109512000D01*
X200722000Y-109466613D01*
X200784000Y-109450000D01*
X202079572Y-109450000D01*
X202137047Y-109464124D01*
X202181428Y-109503280D01*
X202202605Y-109558546D01*
X202195754Y-109617333D01*
X202171402Y-109682622D01*
X202165000Y-109742176D01*
X202165000Y-109840000D01*
X203200000Y-109840000D01*
X203200000Y-110231500D01*
X202616362Y-110231500D01*
X202589445Y-110234393D01*
X202555794Y-110238011D01*
X202418796Y-110289110D01*
X202383855Y-110315267D01*
X202348704Y-110333655D01*
X202309545Y-110340000D01*
X202165000Y-110340000D01*
X202165000Y-110437824D01*
X202171402Y-110497377D01*
X202175926Y-110509507D01*
X202183743Y-110552838D01*
X202175926Y-110596168D01*
X202163011Y-110630795D01*
X202156500Y-110691366D01*
X202156500Y-111388634D01*
X202163011Y-111449200D01*
X202175926Y-111483826D01*
X202183744Y-111527159D01*
X202175927Y-111570492D01*
X202171402Y-111582624D01*
X202165000Y-111642176D01*
X202165000Y-111740000D01*
X202309545Y-111740000D01*
X202348704Y-111746345D01*
X202383855Y-111764733D01*
X202418796Y-111790889D01*
X202555794Y-111841988D01*
X202555797Y-111841988D01*
X202555799Y-111841989D01*
X202616362Y-111848500D01*
X203200000Y-111848500D01*
X203200000Y-112240000D01*
X202165000Y-112240000D01*
X202165000Y-112337824D01*
X202171402Y-112397375D01*
X202221647Y-112532089D01*
X202307811Y-112647188D01*
X202422910Y-112733352D01*
X202557624Y-112783597D01*
X202617176Y-112790000D01*
X203076000Y-112790000D01*
X203138000Y-112806613D01*
X203183387Y-112852000D01*
X203200000Y-112914000D01*
X203200000Y-113431001D01*
X203183387Y-113493001D01*
X203138000Y-113538388D01*
X203076000Y-113555001D01*
X202890853Y-113555001D01*
X202789849Y-113565318D01*
X202626198Y-113619546D01*
X202479459Y-113710056D01*
X202357556Y-113831959D01*
X202267046Y-113978698D01*
X202212818Y-114142348D01*
X202202500Y-114243353D01*
X202202500Y-114280000D01*
X203200000Y-114280000D01*
X203200000Y-114780000D01*
X202202501Y-114780000D01*
X202202501Y-114816647D01*
X202212818Y-114917650D01*
X202267046Y-115081301D01*
X202357556Y-115228040D01*
X202479459Y-115349943D01*
X202626198Y-115440453D01*
X202789848Y-115494681D01*
X202890853Y-115505000D01*
X203076000Y-115505000D01*
X203138000Y-115521613D01*
X203183387Y-115567000D01*
X203200000Y-115629000D01*
X203200000Y-115971001D01*
X203183387Y-116033001D01*
X203138000Y-116078388D01*
X203076000Y-116095001D01*
X202890853Y-116095001D01*
X202789849Y-116105318D01*
X202626198Y-116159546D01*
X202479459Y-116250056D01*
X202357556Y-116371959D01*
X202267046Y-116518698D01*
X202212818Y-116682348D01*
X202202500Y-116783353D01*
X202202500Y-116820000D01*
X203200000Y-116820000D01*
X203200000Y-117070000D01*
X203490000Y-117070000D01*
X203490000Y-118044999D01*
X203589147Y-118044999D01*
X203690150Y-118034681D01*
X203853804Y-117980452D01*
X204000533Y-117889947D01*
X204008805Y-117881676D01*
X204064394Y-117849581D01*
X204128583Y-117849580D01*
X204184169Y-117881673D01*
X204199154Y-117896658D01*
X204347580Y-117988209D01*
X204513119Y-118043062D01*
X204615287Y-118053500D01*
X204714592Y-118053499D01*
X204750589Y-118058839D01*
X204767298Y-118063908D01*
X204785024Y-118065653D01*
X204965000Y-118083380D01*
X205162701Y-118063908D01*
X205179410Y-118058839D01*
X205215408Y-118053499D01*
X205314713Y-118053499D01*
X205416881Y-118043062D01*
X205416881Y-118043061D01*
X205582420Y-117988209D01*
X205730846Y-117896658D01*
X205854158Y-117773346D01*
X205945709Y-117624920D01*
X206000562Y-117459381D01*
X206011000Y-117357213D01*
X206010999Y-117193998D01*
X206027612Y-117132000D01*
X206072999Y-117086613D01*
X206134999Y-117070000D01*
X218015500Y-117070000D01*
X218077500Y-117086613D01*
X218122887Y-117132000D01*
X218139500Y-117194000D01*
X218139500Y-130008303D01*
X218139455Y-130011661D01*
X218121405Y-130677944D01*
X218121041Y-130684650D01*
X218067086Y-131347273D01*
X218066360Y-131353949D01*
X217976607Y-132012697D01*
X217975520Y-132019324D01*
X217850242Y-132672213D01*
X217848799Y-132678772D01*
X217688347Y-133323963D01*
X217686550Y-133330434D01*
X217491412Y-133965963D01*
X217489268Y-133972327D01*
X217260004Y-134596377D01*
X217257518Y-134602616D01*
X216994807Y-135213331D01*
X216991987Y-135219426D01*
X216696596Y-135815028D01*
X216693452Y-135820957D01*
X216490964Y-136179108D01*
X216366255Y-136399685D01*
X216362792Y-136405439D01*
X216004740Y-136965607D01*
X216000971Y-136971166D01*
X215613114Y-137511130D01*
X215609050Y-137516476D01*
X215192542Y-138034635D01*
X215188195Y-138039754D01*
X214744213Y-138534640D01*
X214739594Y-138539515D01*
X214269515Y-139009594D01*
X214264640Y-139014213D01*
X213769754Y-139458195D01*
X213764635Y-139462542D01*
X213246476Y-139879050D01*
X213241130Y-139883114D01*
X212701166Y-140270971D01*
X212695607Y-140274740D01*
X212135439Y-140632792D01*
X212129685Y-140636255D01*
X211550961Y-140963451D01*
X211545028Y-140966596D01*
X210949426Y-141261987D01*
X210943331Y-141264807D01*
X210332616Y-141527518D01*
X210326377Y-141530004D01*
X209702327Y-141759268D01*
X209695963Y-141761412D01*
X209060434Y-141956550D01*
X209053963Y-141958347D01*
X208408772Y-142118799D01*
X208402213Y-142120242D01*
X207749324Y-142245520D01*
X207742697Y-142246607D01*
X207083949Y-142336360D01*
X207077273Y-142337086D01*
X206414650Y-142391041D01*
X206407944Y-142391405D01*
X205741661Y-142409455D01*
X205738303Y-142409500D01*
X180341697Y-142409500D01*
X180338339Y-142409455D01*
X179672055Y-142391405D01*
X179665349Y-142391041D01*
X179002726Y-142337086D01*
X178996050Y-142336360D01*
X178337302Y-142246607D01*
X178330675Y-142245520D01*
X177677786Y-142120242D01*
X177671227Y-142118799D01*
X177026036Y-141958347D01*
X177019565Y-141956550D01*
X176384036Y-141761412D01*
X176377672Y-141759268D01*
X175753622Y-141530004D01*
X175747383Y-141527518D01*
X175136668Y-141264807D01*
X175130573Y-141261987D01*
X174534971Y-140966596D01*
X174529057Y-140963461D01*
X173950290Y-140636241D01*
X173944560Y-140632792D01*
X173648415Y-140443500D01*
X173384380Y-140274731D01*
X173378845Y-140270979D01*
X172904142Y-139930000D01*
X172838869Y-139883114D01*
X172833523Y-139879050D01*
X172315364Y-139462542D01*
X172310245Y-139458195D01*
X171815359Y-139014213D01*
X171810484Y-139009594D01*
X171340405Y-138539515D01*
X171335786Y-138534640D01*
X170891804Y-138039754D01*
X170887457Y-138034635D01*
X170470949Y-137516476D01*
X170466885Y-137511130D01*
X170314285Y-137298685D01*
X170079014Y-136971146D01*
X170075273Y-136965628D01*
X169717202Y-136405431D01*
X169713765Y-136399720D01*
X169386531Y-135820929D01*
X169383403Y-135815028D01*
X169088007Y-135219416D01*
X169085192Y-135213331D01*
X169077492Y-135195431D01*
X168822476Y-134602604D01*
X168819995Y-134596377D01*
X168797263Y-134534500D01*
X168590725Y-133972310D01*
X168588593Y-133965980D01*
X168393444Y-133330418D01*
X168391656Y-133323980D01*
X168231198Y-132678763D01*
X168229757Y-132672213D01*
X168104474Y-132019297D01*
X168103396Y-132012725D01*
X168013637Y-131353938D01*
X168012913Y-131347273D01*
X167980281Y-130946523D01*
X167958957Y-130684643D01*
X167958594Y-130677944D01*
X167957131Y-130623954D01*
X167940545Y-130011661D01*
X167940500Y-130008303D01*
X167940500Y-117320000D01*
X176637501Y-117320000D01*
X176637501Y-117356647D01*
X176647818Y-117457650D01*
X176702046Y-117621301D01*
X176792556Y-117768040D01*
X176914459Y-117889943D01*
X177061198Y-117980453D01*
X177224848Y-118034681D01*
X177325853Y-118045000D01*
X177425000Y-118045000D01*
X177425000Y-117320000D01*
X176637501Y-117320000D01*
X167940500Y-117320000D01*
X167940500Y-116820000D01*
X176637500Y-116820000D01*
X177425000Y-116820000D01*
X177425000Y-116095001D01*
X177325853Y-116095001D01*
X177224849Y-116105318D01*
X177061198Y-116159546D01*
X176914459Y-116250056D01*
X176792556Y-116371959D01*
X176702046Y-116518698D01*
X176647818Y-116682348D01*
X176637500Y-116783353D01*
X176637500Y-116820000D01*
X167940500Y-116820000D01*
X167940500Y-114780000D01*
X176637501Y-114780000D01*
X176637501Y-114816647D01*
X176647818Y-114917650D01*
X176702046Y-115081301D01*
X176792556Y-115228040D01*
X176914459Y-115349943D01*
X177061198Y-115440453D01*
X177224848Y-115494681D01*
X177325853Y-115505000D01*
X177425000Y-115505000D01*
X177425000Y-114780000D01*
X176637501Y-114780000D01*
X167940500Y-114780000D01*
X167940500Y-114280000D01*
X176637500Y-114280000D01*
X177425000Y-114280000D01*
X177425000Y-113555001D01*
X177325853Y-113555001D01*
X177224849Y-113565318D01*
X177061198Y-113619546D01*
X176914459Y-113710056D01*
X176792556Y-113831959D01*
X176702046Y-113978698D01*
X176647818Y-114142348D01*
X176637500Y-114243353D01*
X176637500Y-114280000D01*
X167940500Y-114280000D01*
X167940500Y-112240000D01*
X176640000Y-112240000D01*
X176640000Y-112337824D01*
X176646402Y-112397375D01*
X176696647Y-112532089D01*
X176782811Y-112647188D01*
X176897910Y-112733352D01*
X177032624Y-112783597D01*
X177092176Y-112790000D01*
X177465000Y-112790000D01*
X177465000Y-112240000D01*
X176640000Y-112240000D01*
X167940500Y-112240000D01*
X167940500Y-109574000D01*
X167957113Y-109512000D01*
X168002500Y-109466613D01*
X168064500Y-109450000D01*
X176554572Y-109450000D01*
X176612047Y-109464124D01*
G37*
G04 #@! TD.AperFunction*
G04 #@! TD*
G04 #@! TA.AperFunction,Conductor*
G04 #@! TO.N,GNDA*
G36*
X186628000Y-109466613D02*
G01*
X186673387Y-109512000D01*
X186690000Y-109574000D01*
X186690000Y-114406000D01*
X186673387Y-114468000D01*
X186628000Y-114513387D01*
X186566000Y-114530000D01*
X184150000Y-114530000D01*
X184150000Y-116946000D01*
X184133387Y-117008000D01*
X184088000Y-117053387D01*
X184026000Y-117070000D01*
X180561499Y-117070000D01*
X180499499Y-117053387D01*
X180454112Y-117008000D01*
X180437499Y-116946000D01*
X180437499Y-116783353D01*
X180427181Y-116682349D01*
X180372953Y-116518698D01*
X180282443Y-116371959D01*
X180160540Y-116250056D01*
X180013801Y-116159546D01*
X179850151Y-116105318D01*
X179749147Y-116095000D01*
X179650000Y-116095000D01*
X179650000Y-117070000D01*
X179150000Y-117070000D01*
X179150000Y-116095001D01*
X179133894Y-116078895D01*
X179132000Y-116078388D01*
X179086613Y-116033001D01*
X179070000Y-115971001D01*
X179070000Y-115629000D01*
X179086613Y-115567000D01*
X179132000Y-115521613D01*
X179133894Y-115521105D01*
X179150000Y-115505000D01*
X179150000Y-114780000D01*
X179650000Y-114780000D01*
X179650000Y-115504999D01*
X179749147Y-115504999D01*
X179850150Y-115494681D01*
X180013801Y-115440453D01*
X180160540Y-115349943D01*
X180282443Y-115228040D01*
X180372953Y-115081301D01*
X180427181Y-114917651D01*
X180437500Y-114816647D01*
X180437500Y-114780000D01*
X179650000Y-114780000D01*
X179150000Y-114780000D01*
X179150000Y-113555001D01*
X179149999Y-113555000D01*
X179650000Y-113555000D01*
X179650000Y-114280000D01*
X180437499Y-114280000D01*
X180437499Y-114243353D01*
X180427181Y-114142349D01*
X180372953Y-113978698D01*
X180282443Y-113831959D01*
X180160540Y-113710056D01*
X180013801Y-113619546D01*
X179850151Y-113565318D01*
X179749147Y-113555000D01*
X179650000Y-113555000D01*
X179149999Y-113555000D01*
X179133894Y-113538895D01*
X179132000Y-113538388D01*
X179086613Y-113493001D01*
X179070000Y-113431001D01*
X179070000Y-113384000D01*
X179086613Y-113322000D01*
X179132000Y-113276613D01*
X179194000Y-113260000D01*
X185420000Y-113260000D01*
X185420000Y-113034999D01*
X185436613Y-112972999D01*
X185482000Y-112927612D01*
X185543999Y-112910999D01*
X185582212Y-112910999D01*
X185582213Y-112910999D01*
X185684381Y-112900562D01*
X185684381Y-112900561D01*
X185849920Y-112845709D01*
X185998346Y-112754158D01*
X186121658Y-112630846D01*
X186213209Y-112482420D01*
X186268062Y-112316881D01*
X186278500Y-112214713D01*
X186278499Y-111615288D01*
X186268062Y-111513119D01*
X186264638Y-111502787D01*
X186230784Y-111400619D01*
X186213209Y-111347580D01*
X186121658Y-111199154D01*
X186121657Y-111199153D01*
X186121656Y-111199151D01*
X186006675Y-111084170D01*
X185974581Y-111028582D01*
X185974581Y-110964395D01*
X186006675Y-110908807D01*
X186114944Y-110800537D01*
X186205453Y-110653801D01*
X186259681Y-110490151D01*
X186270000Y-110389147D01*
X186270000Y-110340000D01*
X185420000Y-110340000D01*
X185420000Y-109840000D01*
X186269999Y-109840000D01*
X186269999Y-109790853D01*
X186259681Y-109689849D01*
X186234217Y-109613004D01*
X186229366Y-109555137D01*
X186251393Y-109501407D01*
X186295467Y-109463597D01*
X186351923Y-109450000D01*
X186566000Y-109450000D01*
X186628000Y-109466613D01*
G37*
G04 #@! TD.AperFunction*
G04 #@! TD*
G04 #@! TA.AperFunction,Conductor*
G04 #@! TO.N,GNDD*
G36*
X200968290Y-67916262D02*
G01*
X201012858Y-67963536D01*
X201087404Y-68103002D01*
X201181849Y-68218084D01*
X208797535Y-75833769D01*
X208805706Y-75842784D01*
X208833432Y-75876568D01*
X208980505Y-75997268D01*
X208986996Y-76002595D01*
X209162196Y-76096241D01*
X209352299Y-76153908D01*
X209550000Y-76173380D01*
X209593485Y-76169097D01*
X209605640Y-76168500D01*
X209861377Y-76168500D01*
X209901640Y-76175219D01*
X209937541Y-76194647D01*
X210074424Y-76301189D01*
X210272426Y-76408342D01*
X210485365Y-76481444D01*
X210707431Y-76518500D01*
X210932569Y-76518500D01*
X211154635Y-76481444D01*
X211367574Y-76408342D01*
X211565576Y-76301189D01*
X211743240Y-76162906D01*
X211895722Y-75997268D01*
X212018860Y-75808791D01*
X212109296Y-75602616D01*
X212164564Y-75384368D01*
X212172881Y-75284000D01*
X212173730Y-75273760D01*
X212193497Y-75216178D01*
X212238289Y-75174945D01*
X212297306Y-75160000D01*
X218015500Y-75160000D01*
X218077500Y-75176613D01*
X218122887Y-75222000D01*
X218139500Y-75284000D01*
X218139500Y-115676000D01*
X218122887Y-115738000D01*
X218077500Y-115783387D01*
X218015500Y-115800000D01*
X204594000Y-115800000D01*
X204532000Y-115783387D01*
X204486613Y-115738000D01*
X204470000Y-115676000D01*
X204470000Y-115627413D01*
X204488778Y-115561805D01*
X204539425Y-115516068D01*
X204606602Y-115504055D01*
X204615853Y-115505000D01*
X204715000Y-115505000D01*
X204715000Y-114780000D01*
X205215000Y-114780000D01*
X205215000Y-115504999D01*
X205314147Y-115504999D01*
X205415150Y-115494681D01*
X205578801Y-115440453D01*
X205725540Y-115349943D01*
X205847443Y-115228040D01*
X205937953Y-115081301D01*
X205992181Y-114917651D01*
X206002500Y-114816647D01*
X206002500Y-114780000D01*
X205215000Y-114780000D01*
X204715000Y-114780000D01*
X204715000Y-113555001D01*
X204615852Y-113555001D01*
X204606600Y-113555946D01*
X204601310Y-113555000D01*
X205215000Y-113555000D01*
X205215000Y-114280000D01*
X206002499Y-114280000D01*
X206002499Y-114243353D01*
X205992181Y-114142349D01*
X205937953Y-113978698D01*
X205847443Y-113831959D01*
X205725540Y-113710056D01*
X205578801Y-113619546D01*
X205415151Y-113565318D01*
X205314147Y-113555000D01*
X205215000Y-113555000D01*
X204601310Y-113555000D01*
X204539424Y-113543932D01*
X204488778Y-113498195D01*
X204470000Y-113432588D01*
X204470000Y-112569003D01*
X204488738Y-112503460D01*
X204539288Y-112457726D01*
X204606373Y-112445622D01*
X204669719Y-112470806D01*
X204710181Y-112525668D01*
X204714110Y-112536204D01*
X204801738Y-112653261D01*
X204918796Y-112740889D01*
X205055794Y-112791988D01*
X205055797Y-112791988D01*
X205055799Y-112791989D01*
X205116362Y-112798500D01*
X206363634Y-112798500D01*
X206363638Y-112798500D01*
X206424201Y-112791989D01*
X206424203Y-112791988D01*
X206424205Y-112791988D01*
X206502124Y-112762924D01*
X206561204Y-112740889D01*
X206678261Y-112653261D01*
X206765889Y-112536204D01*
X206799675Y-112445622D01*
X206816988Y-112399205D01*
X206816988Y-112399203D01*
X206816989Y-112399201D01*
X206823500Y-112338638D01*
X206823500Y-112114000D01*
X206840113Y-112052000D01*
X206885500Y-112006613D01*
X206947500Y-111990000D01*
X207212501Y-111990000D01*
X207274501Y-112006613D01*
X207319888Y-112052000D01*
X207336501Y-112114000D01*
X207336501Y-112327213D01*
X207346937Y-112429381D01*
X207382335Y-112536204D01*
X207401791Y-112594920D01*
X207470212Y-112705846D01*
X207493343Y-112743348D01*
X207616651Y-112866656D01*
X207616653Y-112866657D01*
X207616654Y-112866658D01*
X207765080Y-112958209D01*
X207930619Y-113013062D01*
X208032787Y-113023500D01*
X208607212Y-113023499D01*
X208709381Y-113013062D01*
X208874920Y-112958209D01*
X208982323Y-112891960D01*
X209047420Y-112873500D01*
X210193377Y-112873500D01*
X210258474Y-112891962D01*
X210305080Y-112920709D01*
X210470619Y-112975562D01*
X210572787Y-112986000D01*
X211147212Y-112985999D01*
X211249381Y-112975562D01*
X211414920Y-112920709D01*
X211563346Y-112829158D01*
X211686658Y-112705846D01*
X211778209Y-112557420D01*
X211833062Y-112391881D01*
X211843500Y-112289713D01*
X211843499Y-111690288D01*
X211833062Y-111588119D01*
X211830636Y-111580799D01*
X211785239Y-111443796D01*
X211778209Y-111422580D01*
X211686658Y-111274154D01*
X211686657Y-111274153D01*
X211686656Y-111274151D01*
X211571675Y-111159170D01*
X211539581Y-111103582D01*
X211539581Y-111039395D01*
X211571675Y-110983807D01*
X211679944Y-110875537D01*
X211770453Y-110728801D01*
X211824681Y-110565151D01*
X211835000Y-110464147D01*
X211835000Y-110415000D01*
X209885001Y-110415000D01*
X209885001Y-110464147D01*
X209895318Y-110565150D01*
X209949546Y-110728801D01*
X210040056Y-110875540D01*
X210059335Y-110894819D01*
X210089585Y-110944182D01*
X210094127Y-111001898D01*
X210071972Y-111055385D01*
X210027949Y-111092985D01*
X209971654Y-111106500D01*
X209674000Y-111106500D01*
X209612000Y-111089887D01*
X209566613Y-111044500D01*
X209550000Y-110982500D01*
X209550000Y-109915000D01*
X209885000Y-109915000D01*
X210610000Y-109915000D01*
X210610000Y-109177501D01*
X210573353Y-109177501D01*
X210472349Y-109187818D01*
X210308698Y-109242046D01*
X210161959Y-109332556D01*
X210040056Y-109454459D01*
X209949546Y-109601198D01*
X209895318Y-109764848D01*
X209885000Y-109865853D01*
X209885000Y-109915000D01*
X209550000Y-109915000D01*
X209550000Y-109177500D01*
X211110000Y-109177500D01*
X211110000Y-109915000D01*
X211834999Y-109915000D01*
X211834999Y-109865853D01*
X211824681Y-109764849D01*
X211770453Y-109601198D01*
X211679943Y-109454459D01*
X211558040Y-109332556D01*
X211411301Y-109242046D01*
X211247651Y-109187818D01*
X211146647Y-109177500D01*
X211110000Y-109177500D01*
X209550000Y-109177500D01*
X209550000Y-92940001D01*
X209549999Y-92939999D01*
X206336775Y-89726775D01*
X206303469Y-89666262D01*
X206307705Y-89597319D01*
X206348168Y-89541338D01*
X206412303Y-89515691D01*
X206428489Y-89514097D01*
X206440642Y-89513500D01*
X209861377Y-89513500D01*
X209901640Y-89520219D01*
X209937541Y-89539647D01*
X210074424Y-89646189D01*
X210272426Y-89753342D01*
X210485365Y-89826444D01*
X210707431Y-89863500D01*
X210932569Y-89863500D01*
X211154635Y-89826444D01*
X211367574Y-89753342D01*
X211565576Y-89646189D01*
X211743240Y-89507906D01*
X211895722Y-89342268D01*
X212018860Y-89153791D01*
X212109296Y-88947616D01*
X212164564Y-88729368D01*
X212183156Y-88505000D01*
X212164564Y-88280632D01*
X212109296Y-88062384D01*
X212018860Y-87856209D01*
X211895722Y-87667732D01*
X211743240Y-87502094D01*
X211565576Y-87363811D01*
X211529067Y-87344053D01*
X211481563Y-87298474D01*
X211464086Y-87235000D01*
X211481563Y-87171526D01*
X211529067Y-87125946D01*
X211565576Y-87106189D01*
X211743240Y-86967906D01*
X211895722Y-86802268D01*
X212018860Y-86613791D01*
X212109296Y-86407616D01*
X212164564Y-86189368D01*
X212183156Y-85965000D01*
X212164564Y-85740632D01*
X212109296Y-85522384D01*
X212018860Y-85316209D01*
X211895722Y-85127732D01*
X211743240Y-84962094D01*
X211565576Y-84823811D01*
X211529067Y-84804053D01*
X211481563Y-84758474D01*
X211464086Y-84695000D01*
X211481563Y-84631526D01*
X211529067Y-84585946D01*
X211565576Y-84566189D01*
X211743240Y-84427906D01*
X211895722Y-84262268D01*
X212018860Y-84073791D01*
X212109296Y-83867616D01*
X212164564Y-83649368D01*
X212183156Y-83425000D01*
X212164564Y-83200632D01*
X212109296Y-82982384D01*
X212018860Y-82776209D01*
X211895722Y-82587732D01*
X211895721Y-82587731D01*
X211895718Y-82587726D01*
X211750510Y-82429990D01*
X211721736Y-82377238D01*
X211721143Y-82317151D01*
X211748870Y-82263840D01*
X211798401Y-82229827D01*
X211916204Y-82185889D01*
X212033261Y-82098261D01*
X212120889Y-81981204D01*
X212171989Y-81844201D01*
X212178500Y-81783638D01*
X212178500Y-79986362D01*
X212171989Y-79925799D01*
X212171988Y-79925797D01*
X212171988Y-79925794D01*
X212120889Y-79788796D01*
X212033261Y-79671738D01*
X211916203Y-79584110D01*
X211779205Y-79533011D01*
X211748919Y-79529755D01*
X211718638Y-79526500D01*
X211718634Y-79526500D01*
X210314096Y-79526500D01*
X210266643Y-79517061D01*
X210226415Y-79490181D01*
X200815819Y-70079585D01*
X200788939Y-70039357D01*
X200779500Y-69991904D01*
X200779500Y-68021989D01*
X200796521Y-67959287D01*
X200842911Y-67913800D01*
X200905935Y-67898013D01*
X200968290Y-67916262D01*
G37*
G04 #@! TD.AperFunction*
G04 #@! TA.AperFunction,Conductor*
G36*
X192339000Y-72766613D02*
G01*
X192384387Y-72812000D01*
X192401000Y-72874000D01*
X192401000Y-74050000D01*
X192848824Y-74050000D01*
X192908375Y-74043597D01*
X193043089Y-73993352D01*
X193158188Y-73907188D01*
X193244352Y-73792089D01*
X193294597Y-73657375D01*
X193301000Y-73597824D01*
X193301000Y-73336596D01*
X193314515Y-73280301D01*
X193352115Y-73236278D01*
X193405602Y-73214123D01*
X193463318Y-73218665D01*
X193512681Y-73248915D01*
X196482085Y-76218319D01*
X196512335Y-76267682D01*
X196516877Y-76325398D01*
X196494722Y-76378885D01*
X196450699Y-76416485D01*
X196394404Y-76430000D01*
X193312499Y-76430000D01*
X193250499Y-76413387D01*
X193205112Y-76368000D01*
X193188499Y-76306000D01*
X193188499Y-76143353D01*
X193178181Y-76042349D01*
X193123953Y-75878698D01*
X193033443Y-75731959D01*
X192911540Y-75610056D01*
X192764801Y-75519546D01*
X192601151Y-75465318D01*
X192500147Y-75455000D01*
X192401000Y-75455000D01*
X192401000Y-76430000D01*
X191901000Y-76430000D01*
X191901000Y-75455001D01*
X191894000Y-75455001D01*
X191832000Y-75438388D01*
X191786613Y-75393001D01*
X191770000Y-75331001D01*
X191770000Y-74174000D01*
X191786613Y-74112000D01*
X191832000Y-74066613D01*
X191894000Y-74050000D01*
X191901000Y-74050000D01*
X191901000Y-72874000D01*
X191917613Y-72812000D01*
X191963000Y-72766613D01*
X192025000Y-72750000D01*
X192277000Y-72750000D01*
X192339000Y-72766613D01*
G37*
G04 #@! TD.AperFunction*
G04 #@! TA.AperFunction,Conductor*
G36*
X196241103Y-61204011D02*
G01*
X196285421Y-61242877D01*
X196306785Y-61297816D01*
X196323372Y-61423816D01*
X196323372Y-61456184D01*
X196307500Y-61576753D01*
X196307500Y-61803245D01*
X196323373Y-61923812D01*
X196323373Y-61956182D01*
X196307500Y-62076755D01*
X196307500Y-62303245D01*
X196323373Y-62423812D01*
X196323373Y-62456182D01*
X196307500Y-62576755D01*
X196307500Y-62803247D01*
X196323372Y-62923816D01*
X196323372Y-62956184D01*
X196307500Y-63076753D01*
X196307500Y-63303247D01*
X196323372Y-63423815D01*
X196323372Y-63456183D01*
X196307500Y-63576753D01*
X196307500Y-63685548D01*
X196298061Y-63733001D01*
X196271181Y-63773229D01*
X195810918Y-64233490D01*
X195780497Y-64255797D01*
X195744776Y-64267924D01*
X195741982Y-64268416D01*
X195579167Y-64338648D01*
X195436941Y-64444531D01*
X195322969Y-64580357D01*
X195243391Y-64738811D01*
X195243390Y-64738812D01*
X195243391Y-64738812D01*
X195202746Y-64910309D01*
X195202500Y-64911346D01*
X195202500Y-65783534D01*
X195185887Y-65845534D01*
X195149435Y-65908668D01*
X195092046Y-66085296D01*
X195077500Y-66223697D01*
X195077500Y-67022464D01*
X195062859Y-67080914D01*
X195024758Y-67152196D01*
X195024759Y-67152196D01*
X194967091Y-67342301D01*
X194952500Y-67490454D01*
X194952500Y-71536904D01*
X194938985Y-71593199D01*
X194901385Y-71637222D01*
X194847898Y-71659377D01*
X194790182Y-71654835D01*
X194740819Y-71624585D01*
X193792464Y-70676230D01*
X193784291Y-70667213D01*
X193756567Y-70633431D01*
X193603003Y-70507404D01*
X193427802Y-70413758D01*
X193420935Y-70411675D01*
X193420934Y-70411675D01*
X193237702Y-70356091D01*
X193206663Y-70353034D01*
X193146346Y-70347093D01*
X193089610Y-70326794D01*
X193049142Y-70282144D01*
X193034500Y-70223691D01*
X193034500Y-68763697D01*
X193034500Y-68763694D01*
X193019954Y-68625298D01*
X192962564Y-68448669D01*
X192962564Y-68448668D01*
X192926113Y-68385534D01*
X192909500Y-68323534D01*
X192909500Y-66225825D01*
X192909500Y-66225820D01*
X192894079Y-66093887D01*
X192833435Y-65927268D01*
X192804899Y-65883881D01*
X192789709Y-65851307D01*
X192784500Y-65815743D01*
X192784500Y-65336426D01*
X192797288Y-65281582D01*
X192833013Y-65238051D01*
X192907154Y-65181159D01*
X192907153Y-65181159D01*
X192907157Y-65181157D01*
X193000686Y-65059268D01*
X193059481Y-64917324D01*
X193074500Y-64803244D01*
X193074500Y-64576756D01*
X193059481Y-64462676D01*
X193059480Y-64462674D01*
X193058626Y-64456186D01*
X193058626Y-64423814D01*
X193059480Y-64417325D01*
X193059481Y-64417324D01*
X193074500Y-64303244D01*
X193074500Y-64076756D01*
X193059481Y-63962676D01*
X193059480Y-63962674D01*
X193058626Y-63956185D01*
X193058626Y-63923813D01*
X193059480Y-63917326D01*
X193059481Y-63917324D01*
X193074500Y-63803244D01*
X193074500Y-63576756D01*
X193059481Y-63462676D01*
X193059480Y-63462675D01*
X193057350Y-63446491D01*
X193058476Y-63446342D01*
X193052781Y-63403090D01*
X193064904Y-63311010D01*
X193082286Y-63262129D01*
X193118143Y-63224640D01*
X193163270Y-63193972D01*
X193163271Y-63193969D01*
X193165601Y-63192387D01*
X193176312Y-63182641D01*
X193178105Y-63180473D01*
X193178107Y-63180472D01*
X193221600Y-63127896D01*
X193224016Y-63125066D01*
X193269120Y-63073909D01*
X193269122Y-63073904D01*
X193270977Y-63071801D01*
X193278935Y-63059687D01*
X193280129Y-63057147D01*
X193280133Y-63057144D01*
X193309159Y-62995457D01*
X193310851Y-62992004D01*
X193341785Y-62931296D01*
X193341786Y-62931290D01*
X193343063Y-62928785D01*
X193347755Y-62915081D01*
X193348281Y-62912321D01*
X193348283Y-62912318D01*
X193361056Y-62845355D01*
X193361841Y-62841570D01*
X193371645Y-62797709D01*
X193376701Y-62775091D01*
X193376700Y-62775090D01*
X193377312Y-62772357D01*
X193378451Y-62757892D01*
X193373996Y-62687097D01*
X193373812Y-62683202D01*
X193371673Y-62615110D01*
X193371672Y-62615107D01*
X193371584Y-62612297D01*
X193369094Y-62598025D01*
X193347165Y-62530537D01*
X193346019Y-62526811D01*
X193330408Y-62473075D01*
X193325867Y-62428751D01*
X193337288Y-62385683D01*
X193349476Y-62359782D01*
X193353741Y-62345920D01*
X193354180Y-62343146D01*
X193354181Y-62343145D01*
X193364848Y-62275788D01*
X193365494Y-62272089D01*
X193378275Y-62205094D01*
X193378274Y-62205091D01*
X193378800Y-62202339D01*
X193379483Y-62187854D01*
X193376867Y-62160181D01*
X193372806Y-62117219D01*
X193372502Y-62113342D01*
X193372280Y-62109819D01*
X193368225Y-62045350D01*
X193368224Y-62045349D01*
X193368049Y-62042553D01*
X193365107Y-62028347D01*
X193341081Y-61961611D01*
X193339819Y-61957926D01*
X193317896Y-61890453D01*
X193311520Y-61877437D01*
X193302130Y-61863622D01*
X193271640Y-61818758D01*
X193269521Y-61815531D01*
X193231498Y-61755615D01*
X193222082Y-61744590D01*
X193168895Y-61697699D01*
X193166016Y-61695079D01*
X193111642Y-61644020D01*
X193086187Y-61610212D01*
X193073586Y-61569816D01*
X193059481Y-61462676D01*
X193059480Y-61462674D01*
X193058626Y-61456185D01*
X193058626Y-61423814D01*
X193059480Y-61417325D01*
X193059481Y-61417324D01*
X193074500Y-61303244D01*
X193075215Y-61297814D01*
X193096579Y-61242876D01*
X193140897Y-61204011D01*
X193198154Y-61190000D01*
X196183846Y-61190000D01*
X196241103Y-61204011D01*
G37*
G04 #@! TD.AperFunction*
G04 #@! TD*
G04 #@! TA.AperFunction,Conductor*
G04 #@! TO.N,GNDA*
G36*
X205741661Y-31010545D02*
G01*
X206407952Y-31028594D01*
X206414643Y-31028957D01*
X207077284Y-31082914D01*
X207083938Y-31083637D01*
X207742725Y-31173396D01*
X207749297Y-31174474D01*
X208402223Y-31299759D01*
X208408763Y-31301198D01*
X209053980Y-31461656D01*
X209060418Y-31463444D01*
X209695980Y-31658593D01*
X209702310Y-31660725D01*
X210326389Y-31889999D01*
X210332604Y-31892476D01*
X210943341Y-32155197D01*
X210949416Y-32158007D01*
X211542185Y-32451993D01*
X211545028Y-32453403D01*
X211550929Y-32456531D01*
X212129720Y-32783765D01*
X212135431Y-32787202D01*
X212695628Y-33145273D01*
X212701146Y-33149014D01*
X213028685Y-33384285D01*
X213241130Y-33536885D01*
X213246476Y-33540949D01*
X213764635Y-33957457D01*
X213769754Y-33961804D01*
X214264640Y-34405786D01*
X214269515Y-34410405D01*
X214739594Y-34880484D01*
X214744213Y-34885359D01*
X215188195Y-35380245D01*
X215192542Y-35385364D01*
X215609050Y-35903523D01*
X215613114Y-35908869D01*
X215848371Y-36236388D01*
X216000979Y-36448845D01*
X216004731Y-36454380D01*
X216112320Y-36622700D01*
X216362792Y-37014560D01*
X216366241Y-37020290D01*
X216693461Y-37599057D01*
X216696596Y-37604971D01*
X216991987Y-38200573D01*
X216994807Y-38206668D01*
X217257518Y-38817383D01*
X217260004Y-38823622D01*
X217489268Y-39447672D01*
X217491412Y-39454036D01*
X217686550Y-40089565D01*
X217688347Y-40096036D01*
X217848799Y-40741227D01*
X217850242Y-40747786D01*
X217975520Y-41400675D01*
X217976607Y-41407302D01*
X218066360Y-42066050D01*
X218067086Y-42072726D01*
X218121041Y-42735349D01*
X218121405Y-42742055D01*
X218139455Y-43408339D01*
X218139500Y-43411697D01*
X218139500Y-73766000D01*
X218122887Y-73828000D01*
X218077500Y-73873387D01*
X218015500Y-73890000D01*
X211761278Y-73890000D01*
X211702261Y-73875055D01*
X211657470Y-73833822D01*
X211637702Y-73776240D01*
X211647722Y-73716190D01*
X211685115Y-73668147D01*
X211685116Y-73668146D01*
X211743240Y-73622906D01*
X211895722Y-73457268D01*
X212018860Y-73268791D01*
X212109296Y-73062616D01*
X212164564Y-72844368D01*
X212183156Y-72620000D01*
X212164564Y-72395632D01*
X212109296Y-72177384D01*
X212018860Y-71971209D01*
X211895722Y-71782732D01*
X211743240Y-71617094D01*
X211565576Y-71478811D01*
X211529067Y-71459053D01*
X211481563Y-71413474D01*
X211464086Y-71350000D01*
X211481563Y-71286526D01*
X211529067Y-71240946D01*
X211565576Y-71221189D01*
X211743240Y-71082906D01*
X211895722Y-70917268D01*
X212018860Y-70728791D01*
X212109296Y-70522616D01*
X212164564Y-70304368D01*
X212183156Y-70080000D01*
X212164564Y-69855632D01*
X212109296Y-69637384D01*
X212018860Y-69431209D01*
X211895722Y-69242732D01*
X211895721Y-69242731D01*
X211895718Y-69242726D01*
X211750510Y-69084990D01*
X211721736Y-69032238D01*
X211721143Y-68972151D01*
X211748870Y-68918840D01*
X211798401Y-68884827D01*
X211916204Y-68840889D01*
X212033261Y-68753261D01*
X212120889Y-68636204D01*
X212171989Y-68499201D01*
X212178500Y-68438638D01*
X212178500Y-66641362D01*
X212171989Y-66580799D01*
X212171988Y-66580797D01*
X212171988Y-66580794D01*
X212120889Y-66443796D01*
X212033261Y-66326738D01*
X211916203Y-66239110D01*
X211779205Y-66188011D01*
X211748919Y-66184755D01*
X211718638Y-66181500D01*
X211718634Y-66181500D01*
X210762319Y-66181500D01*
X210714866Y-66172061D01*
X210674638Y-66145181D01*
X209195698Y-64666241D01*
X207711639Y-63182181D01*
X207681389Y-63132818D01*
X207676847Y-63075102D01*
X207699002Y-63021615D01*
X207743025Y-62984015D01*
X207799320Y-62970500D01*
X209861377Y-62970500D01*
X209901640Y-62977219D01*
X209937541Y-62996647D01*
X210074424Y-63103189D01*
X210272426Y-63210342D01*
X210485365Y-63283444D01*
X210707431Y-63320500D01*
X210932569Y-63320500D01*
X211154635Y-63283444D01*
X211367574Y-63210342D01*
X211565576Y-63103189D01*
X211743240Y-62964906D01*
X211895722Y-62799268D01*
X212018860Y-62610791D01*
X212109296Y-62404616D01*
X212164564Y-62186368D01*
X212183156Y-61962000D01*
X212164564Y-61737632D01*
X212109296Y-61519384D01*
X212018860Y-61313209D01*
X211895722Y-61124732D01*
X211743240Y-60959094D01*
X211565576Y-60820811D01*
X211529067Y-60801053D01*
X211481563Y-60755474D01*
X211464086Y-60692000D01*
X211481563Y-60628526D01*
X211529067Y-60582946D01*
X211565576Y-60563189D01*
X211743240Y-60424906D01*
X211895722Y-60259268D01*
X212018860Y-60070791D01*
X212109296Y-59864616D01*
X212164564Y-59646368D01*
X212183156Y-59422000D01*
X212164564Y-59197632D01*
X212109296Y-58979384D01*
X212018860Y-58773209D01*
X211895722Y-58584732D01*
X211743240Y-58419094D01*
X211565576Y-58280811D01*
X211529067Y-58261053D01*
X211481563Y-58215474D01*
X211464086Y-58152000D01*
X211481563Y-58088526D01*
X211529067Y-58042946D01*
X211565576Y-58023189D01*
X211743240Y-57884906D01*
X211895722Y-57719268D01*
X212018860Y-57530791D01*
X212109296Y-57324616D01*
X212164564Y-57106368D01*
X212183156Y-56882000D01*
X212164564Y-56657632D01*
X212109296Y-56439384D01*
X212018860Y-56233209D01*
X211895722Y-56044732D01*
X211895721Y-56044731D01*
X211895718Y-56044726D01*
X211750510Y-55886990D01*
X211721736Y-55834238D01*
X211721143Y-55774151D01*
X211748870Y-55720840D01*
X211798401Y-55686827D01*
X211916204Y-55642889D01*
X212033261Y-55555261D01*
X212120889Y-55438204D01*
X212162562Y-55326476D01*
X212171988Y-55301205D01*
X212171988Y-55301203D01*
X212171989Y-55301201D01*
X212178500Y-55240638D01*
X212178500Y-53443362D01*
X212171989Y-53382799D01*
X212171988Y-53382797D01*
X212171988Y-53382794D01*
X212120889Y-53245796D01*
X212033261Y-53128738D01*
X211916203Y-53041110D01*
X211779205Y-52990011D01*
X211748919Y-52986755D01*
X211718638Y-52983500D01*
X209921362Y-52983500D01*
X209894445Y-52986393D01*
X209860794Y-52990011D01*
X209723796Y-53041110D01*
X209606738Y-53128738D01*
X209519111Y-53245795D01*
X209516487Y-53252832D01*
X209490049Y-53295069D01*
X209449118Y-53323488D01*
X209400305Y-53333500D01*
X207309642Y-53333500D01*
X207297488Y-53332903D01*
X207253999Y-53328619D01*
X207140653Y-53339783D01*
X207073656Y-53327592D01*
X207023199Y-53281860D01*
X207004500Y-53216380D01*
X207004500Y-51547536D01*
X207019140Y-51489085D01*
X207057241Y-51417804D01*
X207114908Y-51227701D01*
X207129500Y-51079547D01*
X207129500Y-48678596D01*
X207138939Y-48631143D01*
X207165819Y-48590915D01*
X208634915Y-47121819D01*
X208675143Y-47094939D01*
X208722596Y-47085500D01*
X210388046Y-47085500D01*
X210388047Y-47085500D01*
X210536201Y-47070908D01*
X210552910Y-47065839D01*
X210588908Y-47060499D01*
X210688213Y-47060499D01*
X210790381Y-47050062D01*
X210790380Y-47050062D01*
X210955920Y-46995209D01*
X211104346Y-46903658D01*
X211119331Y-46888672D01*
X211174916Y-46856580D01*
X211239105Y-46856581D01*
X211294694Y-46888676D01*
X211302963Y-46896945D01*
X211449698Y-46987453D01*
X211613348Y-47041681D01*
X211714353Y-47052000D01*
X211813500Y-47052000D01*
X211813500Y-46327000D01*
X212313500Y-46327000D01*
X212313500Y-47051999D01*
X212412647Y-47051999D01*
X212513650Y-47041681D01*
X212677301Y-46987453D01*
X212824040Y-46896943D01*
X212945943Y-46775040D01*
X213036453Y-46628301D01*
X213090681Y-46464651D01*
X213101000Y-46363647D01*
X213101000Y-46327000D01*
X212313500Y-46327000D01*
X211813500Y-46327000D01*
X211813500Y-45102001D01*
X211714353Y-45102001D01*
X211613349Y-45112318D01*
X211449698Y-45166546D01*
X211302960Y-45257056D01*
X211294689Y-45265327D01*
X211239101Y-45297418D01*
X211174915Y-45297418D01*
X211119329Y-45265324D01*
X211104348Y-45250343D01*
X211072359Y-45230612D01*
X210955920Y-45158791D01*
X210955917Y-45158790D01*
X210790382Y-45103938D01*
X210771416Y-45102000D01*
X212313500Y-45102000D01*
X212313500Y-45827000D01*
X213100999Y-45827000D01*
X213100999Y-45790353D01*
X213090681Y-45689349D01*
X213036453Y-45525698D01*
X212945943Y-45378959D01*
X212824040Y-45257056D01*
X212677301Y-45166546D01*
X212513651Y-45112318D01*
X212412647Y-45102000D01*
X212313500Y-45102000D01*
X210771416Y-45102000D01*
X210739296Y-45098718D01*
X210688213Y-45093500D01*
X210688212Y-45093500D01*
X210588906Y-45093500D01*
X210552911Y-45088161D01*
X210536199Y-45083091D01*
X210404232Y-45070094D01*
X210388047Y-45068500D01*
X210388046Y-45068500D01*
X208447595Y-45068500D01*
X208391300Y-45054985D01*
X208347277Y-45017385D01*
X208325122Y-44963898D01*
X208329664Y-44906182D01*
X208359914Y-44856819D01*
X208634915Y-44581819D01*
X208675143Y-44554939D01*
X208722596Y-44545500D01*
X210388046Y-44545500D01*
X210388047Y-44545500D01*
X210536201Y-44530908D01*
X210552910Y-44525839D01*
X210588908Y-44520499D01*
X210688213Y-44520499D01*
X210790381Y-44510062D01*
X210790380Y-44510062D01*
X210955920Y-44455209D01*
X211104346Y-44363658D01*
X211119331Y-44348672D01*
X211174916Y-44316580D01*
X211239105Y-44316581D01*
X211294694Y-44348676D01*
X211302963Y-44356945D01*
X211449698Y-44447453D01*
X211613348Y-44501681D01*
X211714353Y-44512000D01*
X211813500Y-44512000D01*
X211813500Y-43787000D01*
X212313500Y-43787000D01*
X212313500Y-44511999D01*
X212412647Y-44511999D01*
X212513650Y-44501681D01*
X212677301Y-44447453D01*
X212824040Y-44356943D01*
X212945943Y-44235040D01*
X213036453Y-44088301D01*
X213090681Y-43924651D01*
X213101000Y-43823647D01*
X213101000Y-43787000D01*
X212313500Y-43787000D01*
X211813500Y-43787000D01*
X211813500Y-42562001D01*
X211714353Y-42562001D01*
X211613349Y-42572318D01*
X211449698Y-42626546D01*
X211302960Y-42717056D01*
X211294689Y-42725327D01*
X211239101Y-42757418D01*
X211174915Y-42757418D01*
X211119329Y-42725324D01*
X211104348Y-42710343D01*
X211072359Y-42690612D01*
X210955920Y-42618791D01*
X210955917Y-42618790D01*
X210790382Y-42563938D01*
X210771416Y-42562000D01*
X212313500Y-42562000D01*
X212313500Y-43287000D01*
X213100999Y-43287000D01*
X213100999Y-43250353D01*
X213090681Y-43149349D01*
X213036453Y-42985698D01*
X212945943Y-42838959D01*
X212824040Y-42717056D01*
X212677301Y-42626546D01*
X212513651Y-42572318D01*
X212412647Y-42562000D01*
X212313500Y-42562000D01*
X210771416Y-42562000D01*
X210739296Y-42558718D01*
X210688213Y-42553500D01*
X210688212Y-42553500D01*
X210588906Y-42553500D01*
X210552911Y-42548161D01*
X210536199Y-42543091D01*
X210404232Y-42530094D01*
X210388047Y-42528500D01*
X210388046Y-42528500D01*
X208447595Y-42528500D01*
X208391300Y-42514985D01*
X208347277Y-42477385D01*
X208325122Y-42423898D01*
X208329664Y-42366182D01*
X208359914Y-42316819D01*
X208634915Y-42041819D01*
X208675143Y-42014939D01*
X208722596Y-42005500D01*
X210388046Y-42005500D01*
X210388047Y-42005500D01*
X210536201Y-41990908D01*
X210552910Y-41985839D01*
X210588908Y-41980499D01*
X210688213Y-41980499D01*
X210790381Y-41970062D01*
X210790380Y-41970062D01*
X210955920Y-41915209D01*
X211104346Y-41823658D01*
X211119331Y-41808672D01*
X211174916Y-41776580D01*
X211239105Y-41776581D01*
X211294694Y-41808676D01*
X211302963Y-41816945D01*
X211449698Y-41907453D01*
X211613348Y-41961681D01*
X211714353Y-41972000D01*
X211813500Y-41972000D01*
X211813500Y-41247000D01*
X212313500Y-41247000D01*
X212313500Y-41971999D01*
X212412647Y-41971999D01*
X212513650Y-41961681D01*
X212677301Y-41907453D01*
X212824040Y-41816943D01*
X212945943Y-41695040D01*
X213036453Y-41548301D01*
X213090681Y-41384651D01*
X213101000Y-41283647D01*
X213101000Y-41247000D01*
X212313500Y-41247000D01*
X211813500Y-41247000D01*
X211813500Y-40022001D01*
X211714353Y-40022001D01*
X211613349Y-40032318D01*
X211449698Y-40086546D01*
X211302960Y-40177056D01*
X211294689Y-40185327D01*
X211239101Y-40217418D01*
X211174915Y-40217418D01*
X211119329Y-40185324D01*
X211104348Y-40170343D01*
X211025719Y-40121844D01*
X210955920Y-40078791D01*
X210955917Y-40078790D01*
X210790382Y-40023938D01*
X210771416Y-40022000D01*
X212313500Y-40022000D01*
X212313500Y-40747000D01*
X213100999Y-40747000D01*
X213100999Y-40710353D01*
X213090681Y-40609349D01*
X213036453Y-40445698D01*
X212945943Y-40298959D01*
X212824040Y-40177056D01*
X212677301Y-40086546D01*
X212513651Y-40032318D01*
X212412647Y-40022000D01*
X212313500Y-40022000D01*
X210771416Y-40022000D01*
X210739296Y-40018718D01*
X210688213Y-40013500D01*
X210688212Y-40013500D01*
X210588906Y-40013500D01*
X210552911Y-40008161D01*
X210536199Y-40003091D01*
X210404232Y-39990094D01*
X210388047Y-39988500D01*
X210388046Y-39988500D01*
X208447595Y-39988500D01*
X208391300Y-39974985D01*
X208347277Y-39937385D01*
X208325122Y-39883898D01*
X208329664Y-39826182D01*
X208359914Y-39776819D01*
X208411915Y-39724819D01*
X208634914Y-39501819D01*
X208675143Y-39474939D01*
X208722596Y-39465500D01*
X210388046Y-39465500D01*
X210388047Y-39465500D01*
X210536201Y-39450908D01*
X210536488Y-39450821D01*
X210552911Y-39445839D01*
X210588908Y-39440499D01*
X210688213Y-39440499D01*
X210790381Y-39430062D01*
X210802027Y-39426203D01*
X210955920Y-39375209D01*
X211104346Y-39283658D01*
X211119331Y-39268672D01*
X211174916Y-39236580D01*
X211239105Y-39236581D01*
X211294694Y-39268676D01*
X211302963Y-39276945D01*
X211449698Y-39367453D01*
X211613348Y-39421681D01*
X211714353Y-39432000D01*
X211813500Y-39432000D01*
X211813500Y-38707000D01*
X212313500Y-38707000D01*
X212313500Y-39431999D01*
X212412647Y-39431999D01*
X212513650Y-39421681D01*
X212677301Y-39367453D01*
X212824040Y-39276943D01*
X212945943Y-39155040D01*
X213036453Y-39008301D01*
X213090681Y-38844651D01*
X213101000Y-38743647D01*
X213101000Y-38707000D01*
X212313500Y-38707000D01*
X211813500Y-38707000D01*
X211813500Y-37482001D01*
X211714353Y-37482001D01*
X211613349Y-37492318D01*
X211449698Y-37546546D01*
X211302960Y-37637056D01*
X211294689Y-37645327D01*
X211239101Y-37677418D01*
X211174915Y-37677418D01*
X211119329Y-37645324D01*
X211104348Y-37630343D01*
X211072359Y-37610612D01*
X210955920Y-37538791D01*
X210901499Y-37520758D01*
X210790382Y-37483938D01*
X210771412Y-37482000D01*
X212313500Y-37482000D01*
X212313500Y-38207000D01*
X213100999Y-38207000D01*
X213100999Y-38170353D01*
X213090681Y-38069349D01*
X213036453Y-37905698D01*
X212945943Y-37758959D01*
X212824040Y-37637056D01*
X212677301Y-37546546D01*
X212513651Y-37492318D01*
X212412647Y-37482000D01*
X212313500Y-37482000D01*
X210771412Y-37482000D01*
X210739297Y-37478719D01*
X210688213Y-37473500D01*
X210688212Y-37473500D01*
X210588906Y-37473500D01*
X210552911Y-37468161D01*
X210536199Y-37463091D01*
X210404232Y-37450094D01*
X210388047Y-37448500D01*
X210388046Y-37448500D01*
X208309142Y-37448500D01*
X208296988Y-37447903D01*
X208253500Y-37443620D01*
X208055801Y-37463090D01*
X207953069Y-37494253D01*
X207865696Y-37520758D01*
X207851288Y-37525129D01*
X207841138Y-37533885D01*
X207690496Y-37614404D01*
X207536933Y-37740430D01*
X207509207Y-37774214D01*
X207501036Y-37783228D01*
X201637228Y-43647036D01*
X201628214Y-43655207D01*
X201594430Y-43682933D01*
X201478485Y-43824213D01*
X201468405Y-43836496D01*
X201400557Y-43963432D01*
X201400556Y-43963433D01*
X201400554Y-43963435D01*
X201374758Y-44011695D01*
X201317091Y-44201797D01*
X201297620Y-44399500D01*
X201301903Y-44442988D01*
X201302500Y-44455142D01*
X201302500Y-51079546D01*
X201317091Y-51227698D01*
X201317092Y-51227701D01*
X201374759Y-51417804D01*
X201412859Y-51489085D01*
X201427500Y-51547536D01*
X201427500Y-52346306D01*
X201438409Y-52450103D01*
X201442046Y-52484703D01*
X201499435Y-52661331D01*
X201535887Y-52724466D01*
X201552500Y-52786466D01*
X201552500Y-53204457D01*
X201543061Y-53251910D01*
X201516181Y-53292138D01*
X199203418Y-55604900D01*
X199121033Y-55709092D01*
X199046097Y-55869793D01*
X199035595Y-55920651D01*
X199023301Y-55954425D01*
X199001838Y-55983255D01*
X197989914Y-56995181D01*
X197949686Y-57022061D01*
X197902233Y-57031500D01*
X196852756Y-57031500D01*
X196738675Y-57046519D01*
X196596734Y-57105312D01*
X196474843Y-57198843D01*
X196381312Y-57320734D01*
X196322519Y-57462675D01*
X196307500Y-57576756D01*
X196307500Y-57803247D01*
X196323372Y-57923815D01*
X196323372Y-57956183D01*
X196307500Y-58076753D01*
X196307500Y-58303245D01*
X196323373Y-58423812D01*
X196323373Y-58456182D01*
X196307500Y-58576755D01*
X196307500Y-58803245D01*
X196323373Y-58923812D01*
X196323373Y-58956182D01*
X196307500Y-59076755D01*
X196307500Y-59303245D01*
X196323373Y-59423812D01*
X196323373Y-59456182D01*
X196307500Y-59576755D01*
X196307500Y-59796000D01*
X196290887Y-59858000D01*
X196245500Y-59903387D01*
X196183500Y-59920000D01*
X193198500Y-59920000D01*
X193136500Y-59903387D01*
X193091113Y-59858000D01*
X193074500Y-59796000D01*
X193074500Y-59576755D01*
X193059614Y-59463685D01*
X193070171Y-59395095D01*
X193115928Y-59342919D01*
X193182553Y-59323500D01*
X193297367Y-59323500D01*
X193318108Y-59325789D01*
X193320905Y-59325701D01*
X193320909Y-59325702D01*
X193389017Y-59323560D01*
X193392913Y-59323500D01*
X193420854Y-59323500D01*
X193420856Y-59323500D01*
X193424956Y-59322981D01*
X193436606Y-59322064D01*
X193480889Y-59320673D01*
X193500498Y-59314975D01*
X193519531Y-59311033D01*
X193539797Y-59308474D01*
X193581006Y-59292157D01*
X193592037Y-59288380D01*
X193634593Y-59276018D01*
X193652160Y-59265628D01*
X193669632Y-59257068D01*
X193688617Y-59249552D01*
X193724475Y-59223498D01*
X193734223Y-59217096D01*
X193772362Y-59194542D01*
X193786800Y-59180103D01*
X193801588Y-59167472D01*
X193818107Y-59155472D01*
X193846359Y-59121319D01*
X193854203Y-59112699D01*
X194815061Y-58151842D01*
X194863733Y-58121820D01*
X195013738Y-58072114D01*
X195164651Y-57979030D01*
X196153357Y-56990322D01*
X196208942Y-56958230D01*
X196279363Y-56939362D01*
X196444839Y-56855047D01*
X196552986Y-56767472D01*
X200339660Y-52980795D01*
X200354451Y-52968163D01*
X200365434Y-52960185D01*
X200409941Y-52910752D01*
X200414372Y-52906083D01*
X200428472Y-52891985D01*
X200441023Y-52876484D01*
X200445194Y-52871600D01*
X200489704Y-52822169D01*
X200496484Y-52810423D01*
X200507503Y-52794389D01*
X200516048Y-52783839D01*
X200546238Y-52724584D01*
X200549312Y-52718922D01*
X200582564Y-52661331D01*
X200586754Y-52648435D01*
X200594205Y-52630445D01*
X200600362Y-52618363D01*
X200617567Y-52554146D01*
X200619407Y-52547935D01*
X200639954Y-52484702D01*
X200641373Y-52471198D01*
X200644916Y-52452083D01*
X200648430Y-52438971D01*
X200651909Y-52372568D01*
X200652419Y-52366096D01*
X200654500Y-52346306D01*
X200654500Y-52326397D01*
X200654670Y-52319907D01*
X200658150Y-52253507D01*
X200656027Y-52240103D01*
X200654500Y-52220705D01*
X200654500Y-51547536D01*
X200669140Y-51489085D01*
X200707241Y-51417804D01*
X200764908Y-51227701D01*
X200779500Y-51079547D01*
X200779500Y-45116642D01*
X200780097Y-45104488D01*
X200782204Y-45083091D01*
X200784380Y-45061000D01*
X200764909Y-44863299D01*
X200708129Y-44676124D01*
X200707401Y-44673494D01*
X200653681Y-44572993D01*
X200613595Y-44497996D01*
X200487568Y-44344432D01*
X200453784Y-44316706D01*
X200444769Y-44308535D01*
X197894819Y-41758585D01*
X197867939Y-41718357D01*
X197858500Y-41670904D01*
X197858500Y-39749695D01*
X197868512Y-39700882D01*
X197896931Y-39659951D01*
X197939166Y-39633513D01*
X197946204Y-39630889D01*
X198063261Y-39543261D01*
X198150889Y-39426204D01*
X198201989Y-39289201D01*
X198208500Y-39228638D01*
X198208500Y-37431362D01*
X198201989Y-37370799D01*
X198201988Y-37370797D01*
X198201988Y-37370794D01*
X198150889Y-37233796D01*
X198063261Y-37116738D01*
X197946203Y-37029110D01*
X197809205Y-36978011D01*
X197778919Y-36974755D01*
X197748638Y-36971500D01*
X197748634Y-36971500D01*
X197604096Y-36971500D01*
X197556643Y-36962061D01*
X197516415Y-36935181D01*
X196332464Y-35751230D01*
X196324291Y-35742213D01*
X196296567Y-35708431D01*
X196143003Y-35582404D01*
X195970504Y-35490202D01*
X195968130Y-35488857D01*
X195777699Y-35431090D01*
X195601597Y-35413747D01*
X195580000Y-35411620D01*
X195579999Y-35411620D01*
X195536512Y-35415903D01*
X195524358Y-35416500D01*
X192460642Y-35416500D01*
X192448488Y-35415903D01*
X192405000Y-35411620D01*
X192207300Y-35431090D01*
X192074863Y-35471265D01*
X192017194Y-35488759D01*
X191841996Y-35582404D01*
X191688433Y-35708430D01*
X191660707Y-35742214D01*
X191652536Y-35751228D01*
X191096228Y-36307536D01*
X191087214Y-36315707D01*
X191053430Y-36343433D01*
X190927404Y-36496996D01*
X190860215Y-36622700D01*
X190833759Y-36672196D01*
X190833757Y-36672200D01*
X190776091Y-36862297D01*
X190756620Y-37060000D01*
X190760903Y-37103488D01*
X190761500Y-37115642D01*
X190761500Y-37371325D01*
X190753017Y-37416401D01*
X190728729Y-37455309D01*
X190694278Y-37492730D01*
X190603809Y-37631205D01*
X190559017Y-37672438D01*
X190500000Y-37687383D01*
X190440983Y-37672438D01*
X190396191Y-37631205D01*
X190340880Y-37546546D01*
X190305722Y-37492732D01*
X190153240Y-37327094D01*
X189975576Y-37188811D01*
X189777574Y-37081658D01*
X189777573Y-37081657D01*
X189777572Y-37081657D01*
X189564636Y-37008556D01*
X189342569Y-36971500D01*
X189117431Y-36971500D01*
X188895363Y-37008556D01*
X188682427Y-37081657D01*
X188484424Y-37188811D01*
X188306760Y-37327094D01*
X188154279Y-37492730D01*
X188031138Y-37681211D01*
X187960000Y-37843393D01*
X187940704Y-37887384D01*
X187936066Y-37905698D01*
X187885435Y-38105636D01*
X187876296Y-38215922D01*
X187865222Y-38257829D01*
X187840401Y-38293363D01*
X186016228Y-40117536D01*
X186007214Y-40125707D01*
X185973430Y-40153433D01*
X185847406Y-40306993D01*
X185844692Y-40312071D01*
X185842289Y-40316568D01*
X185842287Y-40316570D01*
X185842287Y-40316571D01*
X185753758Y-40482195D01*
X185696091Y-40672297D01*
X185676620Y-40870000D01*
X185680903Y-40913488D01*
X185681500Y-40925642D01*
X185681500Y-44624358D01*
X185680903Y-44636512D01*
X185676620Y-44679999D01*
X185696091Y-44877702D01*
X185728737Y-44985318D01*
X185744948Y-45038759D01*
X185753759Y-45067804D01*
X185753760Y-45067807D01*
X185753761Y-45067808D01*
X185847404Y-45243003D01*
X185958980Y-45378959D01*
X185973432Y-45396568D01*
X185976027Y-45398698D01*
X186007213Y-45424291D01*
X186016230Y-45432464D01*
X188566181Y-47982415D01*
X188593061Y-48022643D01*
X188602500Y-48070096D01*
X188602500Y-51012680D01*
X188588985Y-51068975D01*
X188551385Y-51112998D01*
X188497898Y-51135153D01*
X188440182Y-51130611D01*
X188390819Y-51100361D01*
X188061681Y-50771223D01*
X188030703Y-50719541D01*
X188007241Y-50642197D01*
X187913595Y-50466997D01*
X187878964Y-50424799D01*
X187819150Y-50351915D01*
X183922624Y-46455390D01*
X183889640Y-46396272D01*
X183891534Y-46353286D01*
X183887682Y-46352893D01*
X183891373Y-46316755D01*
X183899500Y-46237213D01*
X183899499Y-45662788D01*
X183889062Y-45560619D01*
X183834209Y-45395080D01*
X183742658Y-45246654D01*
X183742657Y-45246653D01*
X183742656Y-45246651D01*
X183619348Y-45123343D01*
X183584747Y-45102001D01*
X183470920Y-45031791D01*
X183427445Y-45017385D01*
X183305382Y-44976938D01*
X183254297Y-44971719D01*
X183203213Y-44966500D01*
X183203212Y-44966500D01*
X182909142Y-44966500D01*
X182896990Y-44965903D01*
X182892225Y-44965433D01*
X182853499Y-44961619D01*
X182810008Y-44965903D01*
X182797855Y-44966500D01*
X182503787Y-44966500D01*
X182401618Y-44976937D01*
X182236082Y-45031790D01*
X182087652Y-45123342D01*
X182072669Y-45138326D01*
X182017081Y-45170418D01*
X181952895Y-45170418D01*
X181897308Y-45138324D01*
X181889040Y-45130056D01*
X181742301Y-45039546D01*
X181578651Y-44985318D01*
X181477647Y-44975000D01*
X181378500Y-44975000D01*
X181378500Y-46924999D01*
X181477647Y-46924999D01*
X181578650Y-46914681D01*
X181694394Y-46876327D01*
X181749247Y-46871050D01*
X181800970Y-46890062D01*
X181839348Y-46929608D01*
X181856801Y-46981877D01*
X181859591Y-47010202D01*
X181882433Y-47085500D01*
X181907892Y-47169426D01*
X181917259Y-47200304D01*
X181917260Y-47200307D01*
X182010904Y-47375503D01*
X182136931Y-47529067D01*
X182170713Y-47556791D01*
X182179730Y-47564964D01*
X183154585Y-48539819D01*
X183184835Y-48589182D01*
X183189377Y-48646898D01*
X183167222Y-48700385D01*
X183123199Y-48737985D01*
X183066904Y-48751500D01*
X180776640Y-48751500D01*
X180764486Y-48750903D01*
X180721000Y-48746620D01*
X180671453Y-48751500D01*
X180523301Y-48766091D01*
X180459931Y-48785314D01*
X180333196Y-48823759D01*
X180333192Y-48823760D01*
X180333192Y-48823761D01*
X180157996Y-48917404D01*
X180004433Y-49043430D01*
X179976707Y-49077214D01*
X179968536Y-49086228D01*
X178268680Y-50786084D01*
X178213093Y-50818178D01*
X178148905Y-50818178D01*
X178093318Y-50786084D01*
X177879424Y-50572190D01*
X177849399Y-50523512D01*
X177829209Y-50462580D01*
X177737658Y-50314154D01*
X177737657Y-50314153D01*
X177737656Y-50314151D01*
X177622675Y-50199170D01*
X177590581Y-50143582D01*
X177590581Y-50079395D01*
X177622675Y-50023807D01*
X177730944Y-49915537D01*
X177821453Y-49768801D01*
X177875681Y-49605151D01*
X177886000Y-49504147D01*
X177886000Y-49455000D01*
X175936001Y-49455000D01*
X175936001Y-49504147D01*
X175946318Y-49605150D01*
X176000546Y-49768801D01*
X176091056Y-49915540D01*
X176199324Y-50023808D01*
X176231418Y-50079395D01*
X176231418Y-50143582D01*
X176199325Y-50199170D01*
X176084342Y-50314153D01*
X175992790Y-50462582D01*
X175937938Y-50628117D01*
X175927500Y-50730288D01*
X175927500Y-50779591D01*
X175922161Y-50815586D01*
X175917090Y-50832299D01*
X175897620Y-51029999D01*
X175901903Y-51073485D01*
X175902500Y-51085639D01*
X175902500Y-52437500D01*
X175885887Y-52499500D01*
X175840500Y-52544887D01*
X175778500Y-52561500D01*
X175696640Y-52561500D01*
X175684486Y-52560903D01*
X175641000Y-52556620D01*
X175591453Y-52561500D01*
X175443301Y-52576091D01*
X175379931Y-52595314D01*
X175253196Y-52633759D01*
X175253192Y-52633760D01*
X175253192Y-52633761D01*
X175077996Y-52727404D01*
X174924433Y-52853430D01*
X174896707Y-52887214D01*
X174888536Y-52896228D01*
X172427228Y-55357536D01*
X172418214Y-55365707D01*
X172384430Y-55393433D01*
X172258404Y-55546996D01*
X172207150Y-55642887D01*
X172179449Y-55694713D01*
X172177698Y-55697989D01*
X172164757Y-55722198D01*
X172107091Y-55912297D01*
X172087620Y-56110000D01*
X172107091Y-56307702D01*
X172158961Y-56478690D01*
X172158963Y-56478695D01*
X172164759Y-56497807D01*
X172250191Y-56657636D01*
X172258405Y-56673004D01*
X172384432Y-56826568D01*
X172537996Y-56952595D01*
X172687488Y-57032500D01*
X172713196Y-57046241D01*
X172903299Y-57103909D01*
X173101000Y-57123380D01*
X173298701Y-57103909D01*
X173488804Y-57046241D01*
X173514512Y-57032500D01*
X173664004Y-56952595D01*
X173817568Y-56826568D01*
X173845299Y-56792776D01*
X173853451Y-56783781D01*
X175724909Y-54912324D01*
X175776679Y-54881320D01*
X175836956Y-54878425D01*
X175891461Y-54904325D01*
X175927286Y-54952887D01*
X175935946Y-55012609D01*
X175927500Y-55095286D01*
X175927500Y-55144594D01*
X175922161Y-55180589D01*
X175917091Y-55197299D01*
X175910583Y-55263377D01*
X175899274Y-55304239D01*
X175874861Y-55338902D01*
X175355432Y-55858332D01*
X174331765Y-56882000D01*
X173870084Y-57343681D01*
X173829856Y-57370561D01*
X173782403Y-57380000D01*
X168064500Y-57380000D01*
X168002500Y-57363387D01*
X167957113Y-57318000D01*
X167940500Y-57256000D01*
X167940500Y-48955000D01*
X175936000Y-48955000D01*
X176661000Y-48955000D01*
X176661000Y-48217501D01*
X176624353Y-48217501D01*
X176523349Y-48227818D01*
X176359698Y-48282046D01*
X176212959Y-48372556D01*
X176091056Y-48494459D01*
X176000546Y-48641198D01*
X175946318Y-48804848D01*
X175936000Y-48905853D01*
X175936000Y-48955000D01*
X167940500Y-48955000D01*
X167940500Y-48217500D01*
X177161000Y-48217500D01*
X177161000Y-48955000D01*
X177885999Y-48955000D01*
X177885999Y-48905853D01*
X177875681Y-48804849D01*
X177821453Y-48641198D01*
X177730943Y-48494459D01*
X177609040Y-48372556D01*
X177462301Y-48282046D01*
X177298651Y-48227818D01*
X177197647Y-48217500D01*
X177161000Y-48217500D01*
X167940500Y-48217500D01*
X167940500Y-46200000D01*
X180091001Y-46200000D01*
X180091001Y-46236647D01*
X180101318Y-46337650D01*
X180155546Y-46501301D01*
X180246056Y-46648040D01*
X180367959Y-46769943D01*
X180514698Y-46860453D01*
X180678348Y-46914681D01*
X180779353Y-46925000D01*
X180878500Y-46925000D01*
X180878500Y-46200000D01*
X180091001Y-46200000D01*
X167940500Y-46200000D01*
X167940500Y-45700000D01*
X180091000Y-45700000D01*
X180878500Y-45700000D01*
X180878500Y-44975001D01*
X180779353Y-44975001D01*
X180678349Y-44985318D01*
X180514698Y-45039546D01*
X180367959Y-45130056D01*
X180246056Y-45251959D01*
X180155546Y-45398698D01*
X180101318Y-45562348D01*
X180091000Y-45663353D01*
X180091000Y-45700000D01*
X167940500Y-45700000D01*
X167940500Y-43411697D01*
X167940545Y-43408339D01*
X167958594Y-42742055D01*
X167958958Y-42735349D01*
X167959774Y-42725327D01*
X168012914Y-42072711D01*
X168013639Y-42066050D01*
X168103397Y-41407268D01*
X168104473Y-41400708D01*
X168229760Y-40747768D01*
X168231200Y-40741227D01*
X168391659Y-40096009D01*
X168393441Y-40089591D01*
X168588596Y-39454007D01*
X168590721Y-39447700D01*
X168820004Y-38823597D01*
X168822471Y-38817408D01*
X169085203Y-38206643D01*
X169088000Y-38200597D01*
X169383412Y-37604952D01*
X169386522Y-37599085D01*
X169713774Y-37020263D01*
X169717192Y-37014584D01*
X170075284Y-36454354D01*
X170079002Y-36448870D01*
X170466888Y-35908864D01*
X170470949Y-35903523D01*
X170887474Y-35385343D01*
X170891786Y-35380265D01*
X171335803Y-34885340D01*
X171340386Y-34880503D01*
X171810503Y-34410386D01*
X171815340Y-34405803D01*
X172310265Y-33961786D01*
X172315343Y-33957474D01*
X172833527Y-33540945D01*
X172838869Y-33536885D01*
X173378870Y-33149002D01*
X173384354Y-33145284D01*
X173944584Y-32787192D01*
X173950263Y-32783774D01*
X174529085Y-32456522D01*
X174534952Y-32453412D01*
X175130597Y-32158000D01*
X175136643Y-32155203D01*
X175747408Y-31892471D01*
X175753597Y-31890004D01*
X176377700Y-31660721D01*
X176384007Y-31658596D01*
X177019591Y-31463441D01*
X177026009Y-31461659D01*
X177671244Y-31301196D01*
X177677768Y-31299760D01*
X178330708Y-31174473D01*
X178337268Y-31173397D01*
X178996065Y-31083637D01*
X179002711Y-31082914D01*
X179665358Y-31028957D01*
X179672045Y-31028594D01*
X180338338Y-31010545D01*
X180341697Y-31010500D01*
X180387595Y-31010500D01*
X205692405Y-31010500D01*
X205738303Y-31010500D01*
X205741661Y-31010545D01*
G37*
G04 #@! TD.AperFunction*
G04 #@! TA.AperFunction,Conductor*
G36*
X188093056Y-59498231D02*
G01*
X188148644Y-59530325D01*
X188963137Y-60344819D01*
X188993387Y-60394182D01*
X188997929Y-60451898D01*
X188975774Y-60505385D01*
X188931751Y-60542985D01*
X188875456Y-60556500D01*
X188654767Y-60556500D01*
X188607314Y-60547061D01*
X188567086Y-60520181D01*
X187988750Y-59941845D01*
X187963151Y-59904599D01*
X187952602Y-59860656D01*
X187948429Y-59781028D01*
X187911193Y-59642059D01*
X187911193Y-59577876D01*
X187943287Y-59522288D01*
X187998874Y-59490194D01*
X188063061Y-59490194D01*
X188093056Y-59498231D01*
G37*
G04 #@! TD.AperFunction*
G04 #@! TA.AperFunction,Conductor*
G36*
X185668317Y-53612664D02*
G01*
X185717680Y-53642914D01*
X186026181Y-53951415D01*
X186053061Y-53991643D01*
X186062500Y-54039096D01*
X186062500Y-54889546D01*
X186077091Y-55037698D01*
X186077092Y-55037701D01*
X186134759Y-55227804D01*
X186172859Y-55299085D01*
X186187500Y-55357536D01*
X186187500Y-57300705D01*
X186185973Y-57320103D01*
X186185873Y-57320734D01*
X186183850Y-57333506D01*
X186187330Y-57399907D01*
X186187500Y-57406397D01*
X186187500Y-57426312D01*
X186189580Y-57446112D01*
X186190089Y-57452574D01*
X186191825Y-57485682D01*
X186180741Y-57543791D01*
X186143997Y-57590153D01*
X186089955Y-57614215D01*
X186030915Y-57610501D01*
X185980314Y-57579856D01*
X185450819Y-57050361D01*
X185423939Y-57010133D01*
X185414500Y-56962680D01*
X185414500Y-56189295D01*
X185416027Y-56169896D01*
X185418150Y-56156493D01*
X185414669Y-56090092D01*
X185414500Y-56083603D01*
X185414500Y-56003858D01*
X185432961Y-55938762D01*
X185448418Y-55913702D01*
X185449209Y-55912420D01*
X185504062Y-55746881D01*
X185514500Y-55644713D01*
X185514499Y-55545406D01*
X185519840Y-55509407D01*
X185524908Y-55492701D01*
X185528499Y-55456241D01*
X185544380Y-55295000D01*
X185524908Y-55097299D01*
X185519837Y-55080584D01*
X185514499Y-55044591D01*
X185514499Y-54945287D01*
X185504062Y-54843118D01*
X185485777Y-54787939D01*
X185449209Y-54677580D01*
X185357658Y-54529154D01*
X185342673Y-54514169D01*
X185310580Y-54458583D01*
X185310581Y-54394394D01*
X185342676Y-54338805D01*
X185350947Y-54330533D01*
X185441452Y-54183804D01*
X185495681Y-54020151D01*
X185505999Y-53919147D01*
X185505999Y-53730596D01*
X185519514Y-53674301D01*
X185557113Y-53630277D01*
X185610601Y-53608122D01*
X185668317Y-53612664D01*
G37*
G04 #@! TD.AperFunction*
G04 #@! TA.AperFunction,Conductor*
G36*
X193099018Y-38987560D02*
G01*
X193143807Y-39028792D01*
X193183502Y-39089550D01*
X193211692Y-39132698D01*
X193230931Y-39185182D01*
X193225164Y-39240782D01*
X193195564Y-39288200D01*
X192366228Y-40117536D01*
X192357214Y-40125707D01*
X192323430Y-40153433D01*
X192197406Y-40306993D01*
X192194692Y-40312071D01*
X192192289Y-40316568D01*
X192192287Y-40316570D01*
X192192287Y-40316571D01*
X192103758Y-40482195D01*
X192046091Y-40672297D01*
X192026620Y-40870000D01*
X192030903Y-40913488D01*
X192031500Y-40925642D01*
X192031500Y-52349546D01*
X192046091Y-52497698D01*
X192046092Y-52497701D01*
X192103759Y-52687804D01*
X192141859Y-52759085D01*
X192156500Y-52817536D01*
X192156500Y-55649705D01*
X192154973Y-55669104D01*
X192152850Y-55682506D01*
X192156330Y-55748907D01*
X192156500Y-55755397D01*
X192156500Y-55775312D01*
X192158580Y-55795112D01*
X192159089Y-55801575D01*
X192162569Y-55867970D01*
X192166083Y-55881084D01*
X192169627Y-55900209D01*
X192171045Y-55913702D01*
X192191585Y-55976918D01*
X192193428Y-55983140D01*
X192210637Y-56047361D01*
X192216798Y-56059454D01*
X192224242Y-56077426D01*
X192228434Y-56090328D01*
X192228436Y-56090331D01*
X192261681Y-56147914D01*
X192264770Y-56153603D01*
X192297021Y-56216898D01*
X192310367Y-56266704D01*
X192302301Y-56317631D01*
X192274218Y-56360875D01*
X191639914Y-56995181D01*
X191599686Y-57022061D01*
X191552233Y-57031500D01*
X191127756Y-57031500D01*
X191013675Y-57046519D01*
X190871734Y-57105312D01*
X190749843Y-57198843D01*
X190656312Y-57320734D01*
X190608061Y-57437225D01*
X190566386Y-57490091D01*
X190503229Y-57513391D01*
X190437205Y-57500258D01*
X190387773Y-57454563D01*
X190369500Y-57389773D01*
X190369500Y-56596466D01*
X190386113Y-56534466D01*
X190422564Y-56471331D01*
X190458453Y-56360875D01*
X190479954Y-56294702D01*
X190494500Y-56156306D01*
X190494500Y-54087536D01*
X190509140Y-54029085D01*
X190547241Y-53957804D01*
X190604908Y-53767701D01*
X190619500Y-53619547D01*
X190619500Y-47656642D01*
X190620097Y-47644488D01*
X190624380Y-47601000D01*
X190604909Y-47403299D01*
X190548129Y-47216124D01*
X190547401Y-47213494D01*
X190493681Y-47112993D01*
X190453595Y-47037996D01*
X190327568Y-46884432D01*
X190293784Y-46856706D01*
X190284769Y-46848535D01*
X187734819Y-44298585D01*
X187707939Y-44258357D01*
X187698500Y-44210904D01*
X187698500Y-41339096D01*
X187707939Y-41291643D01*
X187734819Y-41251415D01*
X189261415Y-39724819D01*
X189301643Y-39697939D01*
X189332697Y-39691761D01*
X189332435Y-39690191D01*
X189342568Y-39688500D01*
X189342569Y-39688500D01*
X189564635Y-39651444D01*
X189777574Y-39578342D01*
X189975576Y-39471189D01*
X190153240Y-39332906D01*
X190305722Y-39167268D01*
X190396190Y-39028795D01*
X190440982Y-38987561D01*
X190500000Y-38972616D01*
X190559018Y-38987561D01*
X190603809Y-39028795D01*
X190689755Y-39160346D01*
X190694278Y-39167268D01*
X190846760Y-39332906D01*
X191024424Y-39471189D01*
X191222426Y-39578342D01*
X191435365Y-39651444D01*
X191657431Y-39688500D01*
X191882569Y-39688500D01*
X192104635Y-39651444D01*
X192317574Y-39578342D01*
X192515576Y-39471189D01*
X192693240Y-39332906D01*
X192845722Y-39167268D01*
X192936192Y-39028792D01*
X192980982Y-38987560D01*
X193040000Y-38972615D01*
X193099018Y-38987560D01*
G37*
G04 #@! TD.AperFunction*
G04 #@! TA.AperFunction,Conductor*
G36*
X195494011Y-39377910D02*
G01*
X195541767Y-39416394D01*
X195636738Y-39543261D01*
X195702728Y-39592660D01*
X195753796Y-39630889D01*
X195760833Y-39633513D01*
X195803069Y-39659951D01*
X195831488Y-39700882D01*
X195841500Y-39749695D01*
X195841500Y-42084358D01*
X195840903Y-42096512D01*
X195836620Y-42139999D01*
X195856091Y-42337702D01*
X195864731Y-42366182D01*
X195912490Y-42523620D01*
X195913759Y-42527804D01*
X195913761Y-42527809D01*
X196007404Y-42703003D01*
X196133431Y-42856567D01*
X196167213Y-42884291D01*
X196176230Y-42892464D01*
X198726181Y-45442415D01*
X198753061Y-45482643D01*
X198762500Y-45530096D01*
X198762500Y-51079546D01*
X198777091Y-51227698D01*
X198777092Y-51227701D01*
X198834759Y-51417804D01*
X198872859Y-51489085D01*
X198887500Y-51547536D01*
X198887500Y-51882681D01*
X198878061Y-51930134D01*
X198851181Y-51970362D01*
X197978313Y-52843229D01*
X197917206Y-52876667D01*
X197847712Y-52871883D01*
X197791763Y-52830387D01*
X197767014Y-52765274D01*
X197781274Y-52697096D01*
X197786241Y-52687804D01*
X197843908Y-52497701D01*
X197858500Y-52349547D01*
X197858500Y-50572953D01*
X197843908Y-50424799D01*
X197838837Y-50408084D01*
X197833499Y-50372091D01*
X197833499Y-50272787D01*
X197823062Y-50170618D01*
X197792834Y-50079395D01*
X197768209Y-50005080D01*
X197676658Y-49856654D01*
X197661673Y-49841669D01*
X197629580Y-49786083D01*
X197629581Y-49721894D01*
X197661676Y-49666305D01*
X197669947Y-49658033D01*
X197760452Y-49511304D01*
X197814681Y-49347651D01*
X197825000Y-49246647D01*
X197825000Y-49147500D01*
X195875001Y-49147500D01*
X195875001Y-49246647D01*
X195885318Y-49347650D01*
X195939546Y-49511301D01*
X196030056Y-49658040D01*
X196038324Y-49666308D01*
X196070418Y-49721895D01*
X196070418Y-49786081D01*
X196038326Y-49841669D01*
X196023342Y-49856652D01*
X195931790Y-50005082D01*
X195876938Y-50170617D01*
X195866500Y-50272788D01*
X195866500Y-50372094D01*
X195861161Y-50408089D01*
X195856091Y-50424800D01*
X195841500Y-50572954D01*
X195841500Y-52349546D01*
X195856091Y-52497698D01*
X195856092Y-52497701D01*
X195913759Y-52687804D01*
X195951859Y-52759085D01*
X195966500Y-52817536D01*
X195966500Y-53329457D01*
X195957061Y-53376910D01*
X195930181Y-53417138D01*
X195470122Y-53877195D01*
X195456493Y-53888974D01*
X195436941Y-53903531D01*
X195404714Y-53941936D01*
X195397418Y-53949900D01*
X195393418Y-53953900D01*
X195373984Y-53978478D01*
X195371710Y-53981270D01*
X195322220Y-54040251D01*
X195311521Y-54057044D01*
X195278982Y-54126824D01*
X195277427Y-54130037D01*
X195243391Y-54197812D01*
X195242862Y-54198866D01*
X195236332Y-54217654D01*
X195220759Y-54293072D01*
X195219979Y-54296591D01*
X195202228Y-54371488D01*
X195200207Y-54391272D01*
X195202448Y-54468293D01*
X195202500Y-54471899D01*
X195202500Y-54651233D01*
X195193061Y-54698686D01*
X195166181Y-54738914D01*
X194313937Y-55591155D01*
X194254150Y-55624296D01*
X194185885Y-55620718D01*
X194129890Y-55581509D01*
X194078478Y-55518020D01*
X194032064Y-55471606D01*
X193959816Y-55399358D01*
X193932939Y-55359133D01*
X193923500Y-55311680D01*
X193923500Y-52817536D01*
X193938140Y-52759085D01*
X193976241Y-52687804D01*
X194033908Y-52497701D01*
X194048500Y-52349547D01*
X194048500Y-48647500D01*
X195875000Y-48647500D01*
X196600000Y-48647500D01*
X196600000Y-47860001D01*
X196563353Y-47860001D01*
X196462349Y-47870318D01*
X196298698Y-47924546D01*
X196151959Y-48015056D01*
X196030056Y-48136959D01*
X195939546Y-48283698D01*
X195885318Y-48447348D01*
X195875000Y-48548353D01*
X195875000Y-48647500D01*
X194048500Y-48647500D01*
X194048500Y-47860000D01*
X197100000Y-47860000D01*
X197100000Y-48647500D01*
X197824999Y-48647500D01*
X197824999Y-48548353D01*
X197814681Y-48447349D01*
X197760453Y-48283698D01*
X197669943Y-48136959D01*
X197548040Y-48015056D01*
X197401301Y-47924546D01*
X197237651Y-47870318D01*
X197136647Y-47860000D01*
X197100000Y-47860000D01*
X194048500Y-47860000D01*
X194048500Y-41339096D01*
X194057939Y-41291643D01*
X194084819Y-41251415D01*
X194118127Y-41218106D01*
X194983781Y-40352451D01*
X194992776Y-40344299D01*
X195026568Y-40316568D01*
X195152595Y-40163004D01*
X195246241Y-39987804D01*
X195303908Y-39797701D01*
X195318500Y-39649547D01*
X195323380Y-39600000D01*
X195319097Y-39556514D01*
X195318500Y-39544360D01*
X195318500Y-39490704D01*
X195333668Y-39431277D01*
X195375461Y-39386389D01*
X195433654Y-39367020D01*
X195494011Y-39377910D01*
G37*
G04 #@! TD.AperFunction*
G04 #@! TA.AperFunction,Conductor*
G36*
X182839357Y-50777939D02*
G01*
X182879585Y-50804819D01*
X184395585Y-52320819D01*
X184425835Y-52370182D01*
X184430377Y-52427897D01*
X184408223Y-52481385D01*
X184364200Y-52518984D01*
X184307906Y-52532500D01*
X184244354Y-52532500D01*
X184143349Y-52542818D01*
X183979698Y-52597046D01*
X183832959Y-52687556D01*
X183711056Y-52809459D01*
X183620546Y-52956198D01*
X183566318Y-53119848D01*
X183556000Y-53220853D01*
X183556000Y-53320000D01*
X184657000Y-53320000D01*
X184719000Y-53336613D01*
X184764387Y-53382000D01*
X184781000Y-53444000D01*
X184781000Y-53696000D01*
X184764387Y-53758000D01*
X184719000Y-53803387D01*
X184657000Y-53820000D01*
X183556001Y-53820000D01*
X183556001Y-53919147D01*
X183566318Y-54020150D01*
X183600564Y-54123496D01*
X183605415Y-54181363D01*
X183583388Y-54235093D01*
X183539314Y-54272903D01*
X183482858Y-54286500D01*
X183039143Y-54286500D01*
X182982688Y-54272903D01*
X182938613Y-54235093D01*
X182916586Y-54181364D01*
X182921437Y-54123497D01*
X182955681Y-54020153D01*
X182966000Y-53919147D01*
X182966000Y-53820000D01*
X181016001Y-53820000D01*
X181016001Y-53919147D01*
X181026318Y-54020150D01*
X181060564Y-54123496D01*
X181065415Y-54181363D01*
X181043388Y-54235093D01*
X180999314Y-54272903D01*
X180942858Y-54286500D01*
X180499143Y-54286500D01*
X180442688Y-54272903D01*
X180398613Y-54235093D01*
X180376586Y-54181364D01*
X180381437Y-54123497D01*
X180415681Y-54020153D01*
X180426000Y-53919147D01*
X180426000Y-53820000D01*
X179325000Y-53820000D01*
X179263000Y-53803387D01*
X179217613Y-53758000D01*
X179201000Y-53696000D01*
X179201000Y-53444000D01*
X179217613Y-53382000D01*
X179263000Y-53336613D01*
X179325000Y-53320000D01*
X180425999Y-53320000D01*
X181016000Y-53320000D01*
X181741000Y-53320000D01*
X181741000Y-52532501D01*
X181704353Y-52532501D01*
X181603349Y-52542818D01*
X181439698Y-52597046D01*
X181292959Y-52687556D01*
X181171056Y-52809459D01*
X181080546Y-52956198D01*
X181026318Y-53119848D01*
X181016000Y-53220853D01*
X181016000Y-53320000D01*
X180425999Y-53320000D01*
X180425999Y-53220853D01*
X180415681Y-53119849D01*
X180361453Y-52956198D01*
X180270943Y-52809459D01*
X180149040Y-52687556D01*
X180002301Y-52597046D01*
X179838651Y-52542818D01*
X179737647Y-52532500D01*
X182241000Y-52532500D01*
X182241000Y-53320000D01*
X182965999Y-53320000D01*
X182965999Y-53220853D01*
X182955681Y-53119849D01*
X182901453Y-52956198D01*
X182810943Y-52809459D01*
X182689040Y-52687556D01*
X182542301Y-52597046D01*
X182378651Y-52542818D01*
X182277647Y-52532500D01*
X182241000Y-52532500D01*
X179737647Y-52532500D01*
X179674094Y-52532500D01*
X179617799Y-52518985D01*
X179573776Y-52481385D01*
X179551621Y-52427898D01*
X179556163Y-52370182D01*
X179586410Y-52320822D01*
X181102414Y-50804819D01*
X181142643Y-50777939D01*
X181190096Y-50768500D01*
X182791904Y-50768500D01*
X182839357Y-50777939D01*
G37*
G04 #@! TD.AperFunction*
G04 #@! TD*
G04 #@! TA.AperFunction,Conductor*
G04 #@! TO.N,GNDD*
G36*
X205678000Y-133596613D02*
G01*
X205723387Y-133642000D01*
X205740000Y-133704000D01*
X205740000Y-137338638D01*
X205730561Y-137386091D01*
X205703681Y-137426319D01*
X203236319Y-139893681D01*
X203196091Y-139920561D01*
X203148638Y-139930000D01*
X195617544Y-139930000D01*
X195581611Y-139924679D01*
X195548761Y-139909174D01*
X191825217Y-137426811D01*
X191791801Y-137390000D01*
X194310000Y-137390000D01*
X194310000Y-135488935D01*
X194361335Y-135502595D01*
X194405252Y-135543351D01*
X194499276Y-135687267D01*
X194555024Y-135747824D01*
X194651760Y-135852906D01*
X194829424Y-135991189D01*
X195027426Y-136098342D01*
X195240365Y-136171444D01*
X195462431Y-136208500D01*
X195687569Y-136208500D01*
X195909635Y-136171444D01*
X196122574Y-136098342D01*
X196320576Y-135991189D01*
X196498240Y-135852906D01*
X196650722Y-135687268D01*
X196741190Y-135548795D01*
X196785982Y-135507561D01*
X196845000Y-135492616D01*
X196904018Y-135507561D01*
X196948809Y-135548795D01*
X197033792Y-135678872D01*
X197039278Y-135687268D01*
X197191760Y-135852906D01*
X197369424Y-135991189D01*
X197567426Y-136098342D01*
X197780365Y-136171444D01*
X198002431Y-136208500D01*
X198012565Y-136210191D01*
X198012302Y-136211761D01*
X198043357Y-136217939D01*
X198083585Y-136244819D01*
X199617991Y-137779225D01*
X199648016Y-137827903D01*
X199686791Y-137944920D01*
X199743751Y-138037266D01*
X199778343Y-138093348D01*
X199901651Y-138216656D01*
X199901653Y-138216657D01*
X199901654Y-138216658D01*
X200050080Y-138308209D01*
X200215619Y-138363062D01*
X200317787Y-138373500D01*
X200404592Y-138373499D01*
X200440589Y-138378839D01*
X200457298Y-138383908D01*
X200476769Y-138385825D01*
X200655000Y-138403380D01*
X200852700Y-138383908D01*
X200869409Y-138378839D01*
X200905407Y-138373499D01*
X200992213Y-138373499D01*
X201094381Y-138363062D01*
X201094384Y-138363061D01*
X201259920Y-138308209D01*
X201408346Y-138216658D01*
X201448327Y-138176676D01*
X201503916Y-138144581D01*
X201568103Y-138144581D01*
X201623691Y-138176675D01*
X201656959Y-138209943D01*
X201803698Y-138300453D01*
X201967348Y-138354681D01*
X202068353Y-138365000D01*
X202155000Y-138365000D01*
X202155000Y-137640000D01*
X202655000Y-137640000D01*
X202655000Y-138364999D01*
X202741647Y-138364999D01*
X202842650Y-138354681D01*
X203006301Y-138300453D01*
X203153040Y-138209943D01*
X203274943Y-138088040D01*
X203365453Y-137941301D01*
X203419681Y-137777651D01*
X203430000Y-137676647D01*
X203430000Y-137640000D01*
X202655000Y-137640000D01*
X202155000Y-137640000D01*
X202155000Y-137264000D01*
X202171613Y-137202000D01*
X202217000Y-137156613D01*
X202279000Y-137140000D01*
X203429999Y-137140000D01*
X203429999Y-137103353D01*
X203419681Y-137002349D01*
X203365453Y-136838698D01*
X203274943Y-136691959D01*
X203153040Y-136570056D01*
X203006301Y-136479546D01*
X202892105Y-136441706D01*
X202835198Y-136402595D01*
X202808033Y-136339112D01*
X202819034Y-136270942D01*
X202864788Y-136219226D01*
X202931109Y-136200000D01*
X202945000Y-136200000D01*
X202945000Y-135100000D01*
X203445000Y-135100000D01*
X203445000Y-136200000D01*
X204092824Y-136200000D01*
X204152375Y-136193597D01*
X204287089Y-136143352D01*
X204402188Y-136057188D01*
X204488352Y-135942089D01*
X204538597Y-135807375D01*
X204545000Y-135747824D01*
X204545000Y-135100000D01*
X203445000Y-135100000D01*
X202945000Y-135100000D01*
X202945000Y-134724000D01*
X202961613Y-134662000D01*
X203007000Y-134616613D01*
X203069000Y-134600000D01*
X204545000Y-134600000D01*
X204545000Y-133952176D01*
X204538597Y-133892624D01*
X204484407Y-133747334D01*
X204477556Y-133688547D01*
X204498733Y-133633280D01*
X204543114Y-133594124D01*
X204600589Y-133580000D01*
X205616000Y-133580000D01*
X205678000Y-133596613D01*
G37*
G04 #@! TD.AperFunction*
G04 #@! TA.AperFunction,Conductor*
G36*
X183063000Y-134616613D02*
G01*
X183108387Y-134662000D01*
X183125000Y-134724000D01*
X183125000Y-136180635D01*
X183338492Y-136123430D01*
X183552576Y-136023600D01*
X183746081Y-135888106D01*
X183913106Y-135721081D01*
X184039868Y-135540048D01*
X184085072Y-135500726D01*
X184143436Y-135487188D01*
X184201335Y-135502595D01*
X184245252Y-135543351D01*
X184339276Y-135687267D01*
X184395024Y-135747824D01*
X184491760Y-135852906D01*
X184669424Y-135991189D01*
X184867426Y-136098342D01*
X185080365Y-136171444D01*
X185302431Y-136208500D01*
X185527569Y-136208500D01*
X185749635Y-136171444D01*
X185962574Y-136098342D01*
X186160576Y-135991189D01*
X186338240Y-135852906D01*
X186490722Y-135687268D01*
X186584748Y-135543349D01*
X186628663Y-135502595D01*
X186686562Y-135487188D01*
X186690000Y-135487985D01*
X186690000Y-137390000D01*
X187959999Y-137390000D01*
X186726319Y-138623681D01*
X186686091Y-138650561D01*
X186638638Y-138660000D01*
X182931362Y-138660000D01*
X182883909Y-138650561D01*
X182843681Y-138623681D01*
X181646319Y-137426319D01*
X181619439Y-137386091D01*
X181610000Y-137338638D01*
X181610000Y-135790323D01*
X181625547Y-135730207D01*
X181668289Y-135685165D01*
X181727509Y-135666493D01*
X181788357Y-135678872D01*
X181829022Y-135713603D01*
X181829219Y-135713407D01*
X181831709Y-135715897D01*
X181835574Y-135719198D01*
X181836891Y-135721079D01*
X182003918Y-135888106D01*
X182197423Y-136023600D01*
X182411507Y-136123430D01*
X182624999Y-136180635D01*
X182625000Y-136180636D01*
X182625000Y-134724000D01*
X182641613Y-134662000D01*
X182687000Y-134616613D01*
X182749000Y-134600000D01*
X183001000Y-134600000D01*
X183063000Y-134616613D01*
G37*
G04 #@! TD.AperFunction*
G04 #@! TA.AperFunction,Conductor*
G36*
X186690000Y-134212015D02*
G01*
X186686564Y-134212812D01*
X186628665Y-134197405D01*
X186584748Y-134156649D01*
X186490723Y-134012733D01*
X186461328Y-133980802D01*
X186456270Y-133975307D01*
X186431983Y-133936401D01*
X186423500Y-133891325D01*
X186423500Y-133704000D01*
X186440113Y-133642000D01*
X186485500Y-133596613D01*
X186547500Y-133580000D01*
X186690000Y-133580000D01*
X186690000Y-134212015D01*
G37*
G04 #@! TD.AperFunction*
G04 #@! TA.AperFunction,Conductor*
G36*
X194504500Y-133596613D02*
G01*
X194549887Y-133642000D01*
X194566500Y-133704000D01*
X194566500Y-133891325D01*
X194558017Y-133936401D01*
X194533729Y-133975307D01*
X194528672Y-133980802D01*
X194499275Y-134012734D01*
X194405250Y-134156650D01*
X194361334Y-134197405D01*
X194310000Y-134211065D01*
X194310000Y-133580000D01*
X194442500Y-133580000D01*
X194504500Y-133596613D01*
G37*
G04 #@! TD.AperFunction*
G04 #@! TD*
G04 #@! TA.AperFunction,Conductor*
G04 #@! TO.N,GNDD*
G36*
X193202318Y-90581431D02*
G01*
X193251681Y-90611681D01*
X194273681Y-91633681D01*
X194300561Y-91673909D01*
X194310000Y-91721362D01*
X194310000Y-134211065D01*
X194303435Y-134212812D01*
X194245071Y-134199274D01*
X194199867Y-134159951D01*
X194073109Y-133978921D01*
X193906081Y-133811893D01*
X193712576Y-133676399D01*
X193498492Y-133576569D01*
X193285000Y-133519364D01*
X193285000Y-136180635D01*
X193498492Y-136123430D01*
X193712576Y-136023600D01*
X193906081Y-135888106D01*
X194073106Y-135721081D01*
X194199868Y-135540048D01*
X194245072Y-135500726D01*
X194303436Y-135487188D01*
X194310000Y-135488935D01*
X194310000Y-137390000D01*
X191791801Y-137390000D01*
X191784672Y-137382147D01*
X191770000Y-137323637D01*
X191770000Y-135790323D01*
X191785547Y-135730207D01*
X191828289Y-135685165D01*
X191887509Y-135666493D01*
X191948357Y-135678872D01*
X191989022Y-135713603D01*
X191989219Y-135713407D01*
X191991709Y-135715897D01*
X191995574Y-135719198D01*
X191996891Y-135721079D01*
X192163918Y-135888106D01*
X192357423Y-136023600D01*
X192571507Y-136123430D01*
X192784999Y-136180635D01*
X192785000Y-136180636D01*
X192785000Y-133519364D01*
X192784999Y-133519364D01*
X192571507Y-133576569D01*
X192357421Y-133676400D01*
X192163921Y-133811890D01*
X191996891Y-133978920D01*
X191995574Y-133980802D01*
X191991709Y-133984102D01*
X191989219Y-133986593D01*
X191989022Y-133986396D01*
X191948357Y-134021128D01*
X191887509Y-134033507D01*
X191828289Y-134014835D01*
X191785547Y-133969793D01*
X191770000Y-133909677D01*
X191770000Y-133580000D01*
X191627500Y-133580000D01*
X191565500Y-133563387D01*
X191520113Y-133518000D01*
X191503500Y-133456000D01*
X191503500Y-131768096D01*
X191512939Y-131720643D01*
X191539819Y-131680415D01*
X191921233Y-131299000D01*
X192159226Y-131061006D01*
X192207902Y-131030983D01*
X192324920Y-130992209D01*
X192473346Y-130900658D01*
X192596658Y-130777346D01*
X192688209Y-130628920D01*
X192743062Y-130463381D01*
X192753500Y-130361213D01*
X192753499Y-130274406D01*
X192758840Y-130238407D01*
X192763908Y-130221701D01*
X192763907Y-130221701D01*
X192783380Y-130024000D01*
X192763908Y-129826300D01*
X192758837Y-129809585D01*
X192753499Y-129773592D01*
X192753499Y-129686787D01*
X192743062Y-129584618D01*
X192724777Y-129529439D01*
X192688209Y-129419080D01*
X192596658Y-129270654D01*
X192596657Y-129270653D01*
X192596656Y-129270651D01*
X192562686Y-129236682D01*
X192530591Y-129181094D01*
X192530591Y-129116906D01*
X192562686Y-129061318D01*
X192596656Y-129027348D01*
X192596655Y-129027348D01*
X192596658Y-129027346D01*
X192688209Y-128878920D01*
X192743062Y-128713381D01*
X192753500Y-128611213D01*
X192753499Y-128524405D01*
X192758840Y-128488407D01*
X192763908Y-128471701D01*
X192778500Y-128323547D01*
X192778500Y-125552954D01*
X192763908Y-125404800D01*
X192758838Y-125388086D01*
X192753499Y-125352091D01*
X192753499Y-125302787D01*
X192743062Y-125200618D01*
X192724777Y-125145439D01*
X192688209Y-125035080D01*
X192596658Y-124886654D01*
X192596657Y-124886653D01*
X192596656Y-124886651D01*
X192481675Y-124771670D01*
X192449581Y-124716082D01*
X192449581Y-124651895D01*
X192481675Y-124596307D01*
X192589944Y-124488037D01*
X192680453Y-124341301D01*
X192734681Y-124177651D01*
X192745000Y-124076647D01*
X192745000Y-124027500D01*
X190795001Y-124027500D01*
X190795001Y-124076647D01*
X190805318Y-124177650D01*
X190859546Y-124341301D01*
X190950056Y-124488040D01*
X191058324Y-124596308D01*
X191090418Y-124651895D01*
X191090418Y-124716082D01*
X191058325Y-124771670D01*
X190943342Y-124886653D01*
X190851790Y-125035082D01*
X190796938Y-125200617D01*
X190786500Y-125302788D01*
X190786500Y-125352094D01*
X190781161Y-125388089D01*
X190776091Y-125404800D01*
X190761500Y-125552954D01*
X190761500Y-128323546D01*
X190776092Y-128471700D01*
X190781161Y-128488412D01*
X190786500Y-128524405D01*
X190786500Y-128611211D01*
X190796938Y-128713381D01*
X190851791Y-128878920D01*
X190923612Y-128995359D01*
X190943343Y-129027348D01*
X190977314Y-129061319D01*
X191009408Y-129116906D01*
X191009408Y-129181094D01*
X190977314Y-129236681D01*
X190943341Y-129270653D01*
X190851791Y-129419077D01*
X190813015Y-129536097D01*
X190782990Y-129584774D01*
X189821228Y-130546536D01*
X189812214Y-130554707D01*
X189778430Y-130582433D01*
X189652404Y-130735996D01*
X189630303Y-130777346D01*
X189558758Y-130911196D01*
X189501091Y-131101297D01*
X189481620Y-131299000D01*
X189485903Y-131342488D01*
X189486500Y-131354642D01*
X189486500Y-133456000D01*
X189469887Y-133518000D01*
X189424500Y-133563387D01*
X189362500Y-133580000D01*
X189230000Y-133580000D01*
X189230000Y-133923959D01*
X189214453Y-133984075D01*
X189171710Y-134029117D01*
X189112489Y-134047789D01*
X189051642Y-134035409D01*
X189004425Y-133995082D01*
X188993109Y-133978921D01*
X188826081Y-133811893D01*
X188632576Y-133676399D01*
X188418492Y-133576569D01*
X188205000Y-133519364D01*
X188205000Y-136180635D01*
X188418492Y-136123430D01*
X188632576Y-136023600D01*
X188826081Y-135888106D01*
X188993109Y-135721078D01*
X189004425Y-135704918D01*
X189051642Y-135664591D01*
X189112489Y-135652211D01*
X189171710Y-135670883D01*
X189214453Y-135715925D01*
X189230000Y-135776041D01*
X189230000Y-137266000D01*
X189213387Y-137328000D01*
X189168000Y-137373387D01*
X189106000Y-137390000D01*
X186690000Y-137390000D01*
X186690000Y-135487985D01*
X186744926Y-135500726D01*
X186790131Y-135540048D01*
X186916892Y-135721080D01*
X187083918Y-135888106D01*
X187277423Y-136023600D01*
X187491507Y-136123430D01*
X187704999Y-136180635D01*
X187705000Y-136180636D01*
X187705000Y-133519364D01*
X187704999Y-133519364D01*
X187491507Y-133576569D01*
X187277421Y-133676400D01*
X187083921Y-133811890D01*
X186916893Y-133978918D01*
X186790132Y-134159952D01*
X186744928Y-134199274D01*
X186690000Y-134212015D01*
X186690000Y-124741362D01*
X186699439Y-124693909D01*
X186726319Y-124653681D01*
X187852500Y-123527500D01*
X190795000Y-123527500D01*
X191520000Y-123527500D01*
X191520000Y-122790001D01*
X191483353Y-122790001D01*
X191382349Y-122800318D01*
X191218698Y-122854546D01*
X191071959Y-122945056D01*
X190950056Y-123066959D01*
X190859546Y-123213698D01*
X190805318Y-123377348D01*
X190795000Y-123478353D01*
X190795000Y-123527500D01*
X187852500Y-123527500D01*
X188590000Y-122790000D01*
X192020000Y-122790000D01*
X192020000Y-123527500D01*
X192744999Y-123527500D01*
X192744999Y-123478353D01*
X192734681Y-123377349D01*
X192680453Y-123213698D01*
X192589943Y-123066959D01*
X192468040Y-122945056D01*
X192321301Y-122854546D01*
X192157651Y-122800318D01*
X192056647Y-122790000D01*
X192020000Y-122790000D01*
X188590000Y-122790000D01*
X193040000Y-118340000D01*
X193040000Y-90699362D01*
X193053515Y-90643067D01*
X193091115Y-90599044D01*
X193144602Y-90576889D01*
X193202318Y-90581431D01*
G37*
G04 #@! TD.AperFunction*
G04 #@! TD*
G04 #@! TA.AperFunction,Conductor*
G04 #@! TO.N,GNDD*
G36*
X178432306Y-63108597D02*
G01*
X178476380Y-63146406D01*
X178498408Y-63200136D01*
X178493557Y-63258003D01*
X178486318Y-63279846D01*
X178476000Y-63380853D01*
X178476000Y-63480000D01*
X180425999Y-63480000D01*
X180425999Y-63380853D01*
X180415681Y-63279851D01*
X180408442Y-63258005D01*
X180403591Y-63200138D01*
X180425618Y-63146407D01*
X180469692Y-63108597D01*
X180526148Y-63095000D01*
X180915851Y-63095000D01*
X180972306Y-63108597D01*
X181016380Y-63146406D01*
X181038408Y-63200136D01*
X181033557Y-63258003D01*
X181026318Y-63279846D01*
X181016000Y-63380853D01*
X181016000Y-63480000D01*
X182965999Y-63480000D01*
X182965999Y-63380853D01*
X182955681Y-63279851D01*
X182948442Y-63258005D01*
X182943591Y-63200138D01*
X182965618Y-63146407D01*
X183009692Y-63108597D01*
X183066148Y-63095000D01*
X183455851Y-63095000D01*
X183512306Y-63108597D01*
X183556380Y-63146406D01*
X183578408Y-63200136D01*
X183573557Y-63258003D01*
X183566318Y-63279846D01*
X183556000Y-63380853D01*
X183556000Y-63480000D01*
X185505999Y-63480000D01*
X185505999Y-63472500D01*
X185522612Y-63410500D01*
X185567999Y-63365113D01*
X185629999Y-63348500D01*
X190376000Y-63348500D01*
X190438000Y-63365113D01*
X190483387Y-63410500D01*
X190500000Y-63472500D01*
X190500000Y-63768047D01*
X190490561Y-63815500D01*
X190463681Y-63855728D01*
X189990728Y-64328681D01*
X189950500Y-64355561D01*
X189903047Y-64365000D01*
X187325000Y-64365000D01*
X187325000Y-68051000D01*
X187308387Y-68113000D01*
X187263000Y-68158387D01*
X187201000Y-68175000D01*
X185507571Y-68175000D01*
X185447139Y-68159277D01*
X185402033Y-68116097D01*
X185357658Y-68044154D01*
X185342673Y-68029169D01*
X185310580Y-67973583D01*
X185310581Y-67909394D01*
X185342676Y-67853805D01*
X185350947Y-67845533D01*
X185441452Y-67698804D01*
X185495681Y-67535151D01*
X185506000Y-67434147D01*
X185506000Y-67335000D01*
X183556001Y-67335000D01*
X183556001Y-67434147D01*
X183566318Y-67535150D01*
X183620546Y-67698801D01*
X183711056Y-67845540D01*
X183719324Y-67853808D01*
X183751418Y-67909395D01*
X183751418Y-67973581D01*
X183719326Y-68029169D01*
X183704341Y-68044154D01*
X183678527Y-68086005D01*
X183659966Y-68116097D01*
X183614861Y-68159277D01*
X183554429Y-68175000D01*
X182967571Y-68175000D01*
X182907139Y-68159277D01*
X182862033Y-68116097D01*
X182817658Y-68044154D01*
X182802673Y-68029169D01*
X182770580Y-67973583D01*
X182770581Y-67909394D01*
X182802676Y-67853805D01*
X182810947Y-67845533D01*
X182901452Y-67698804D01*
X182955681Y-67535151D01*
X182966000Y-67434147D01*
X182966000Y-67335000D01*
X181016001Y-67335000D01*
X181016001Y-67434147D01*
X181026318Y-67535150D01*
X181060564Y-67638496D01*
X181065415Y-67696363D01*
X181043388Y-67750093D01*
X180999314Y-67787903D01*
X180942858Y-67801500D01*
X180499143Y-67801500D01*
X180442688Y-67787903D01*
X180398613Y-67750093D01*
X180376586Y-67696364D01*
X180381437Y-67638497D01*
X180415681Y-67535153D01*
X180426000Y-67434147D01*
X180426000Y-67335000D01*
X178476001Y-67335000D01*
X178476001Y-67434147D01*
X178486318Y-67535150D01*
X178540546Y-67698801D01*
X178631056Y-67845540D01*
X178639324Y-67853808D01*
X178671418Y-67909395D01*
X178671418Y-67973581D01*
X178639326Y-68029169D01*
X178624342Y-68044152D01*
X178532790Y-68192582D01*
X178477938Y-68358117D01*
X178467500Y-68460288D01*
X178467500Y-68559594D01*
X178462161Y-68595589D01*
X178457091Y-68612300D01*
X178437620Y-68809999D01*
X178457092Y-69007700D01*
X178462161Y-69024412D01*
X178467500Y-69060405D01*
X178467500Y-69159712D01*
X178477938Y-69261881D01*
X178532791Y-69427420D01*
X178590229Y-69520540D01*
X178624343Y-69575848D01*
X178747651Y-69699156D01*
X178747653Y-69699157D01*
X178747654Y-69699158D01*
X178896080Y-69790709D01*
X179061619Y-69845562D01*
X179163787Y-69856000D01*
X179581001Y-69855999D01*
X179643000Y-69872612D01*
X179688387Y-69917999D01*
X179705000Y-69979999D01*
X179705000Y-70715000D01*
X181554783Y-71948189D01*
X181595328Y-71992853D01*
X181610000Y-72051363D01*
X181610000Y-75593404D01*
X181596485Y-75649699D01*
X181558885Y-75693722D01*
X181505398Y-75715877D01*
X181447682Y-75711335D01*
X181398319Y-75681085D01*
X176393464Y-70676230D01*
X176385291Y-70667213D01*
X176357567Y-70633431D01*
X176204003Y-70507404D01*
X176031504Y-70415202D01*
X176029130Y-70413857D01*
X175838699Y-70356090D01*
X175641000Y-70336620D01*
X175443296Y-70356091D01*
X175209695Y-70426954D01*
X175176176Y-70454926D01*
X175077995Y-70507405D01*
X174924432Y-70633432D01*
X174844853Y-70730399D01*
X174796452Y-70766295D01*
X174736845Y-70775137D01*
X174680109Y-70754836D01*
X174639642Y-70710187D01*
X174625000Y-70651734D01*
X174625000Y-69060000D01*
X175936001Y-69060000D01*
X175936001Y-69109147D01*
X175946318Y-69210150D01*
X176000546Y-69373801D01*
X176091056Y-69520540D01*
X176212959Y-69642443D01*
X176359698Y-69732953D01*
X176523348Y-69787181D01*
X176624353Y-69797500D01*
X176661000Y-69797500D01*
X176661000Y-69060000D01*
X177161000Y-69060000D01*
X177161000Y-69797499D01*
X177197647Y-69797499D01*
X177298650Y-69787181D01*
X177462301Y-69732953D01*
X177609040Y-69642443D01*
X177730943Y-69520540D01*
X177821453Y-69373801D01*
X177875681Y-69210151D01*
X177886000Y-69109147D01*
X177886000Y-69060000D01*
X177161000Y-69060000D01*
X176661000Y-69060000D01*
X175936001Y-69060000D01*
X174625000Y-69060000D01*
X174625000Y-66321362D01*
X174634439Y-66273909D01*
X174661319Y-66233681D01*
X175690819Y-65204181D01*
X175740182Y-65173931D01*
X175797898Y-65169389D01*
X175851385Y-65191544D01*
X175888985Y-65235567D01*
X175902500Y-65291862D01*
X175902500Y-67034546D01*
X175917092Y-67182700D01*
X175922161Y-67199412D01*
X175927500Y-67235404D01*
X175927500Y-67284711D01*
X175932638Y-67335000D01*
X175937938Y-67386881D01*
X175992791Y-67552420D01*
X176064612Y-67668859D01*
X176084343Y-67700848D01*
X176199324Y-67815829D01*
X176231418Y-67871416D01*
X176231418Y-67935603D01*
X176199325Y-67991191D01*
X176091055Y-68099461D01*
X176000546Y-68246198D01*
X175946318Y-68409848D01*
X175936000Y-68510853D01*
X175936000Y-68560000D01*
X177885999Y-68560000D01*
X177885999Y-68510853D01*
X177875681Y-68409849D01*
X177821453Y-68246198D01*
X177730943Y-68099459D01*
X177622675Y-67991191D01*
X177590581Y-67935603D01*
X177590581Y-67871416D01*
X177622673Y-67815830D01*
X177737658Y-67700846D01*
X177829209Y-67552420D01*
X177884062Y-67386881D01*
X177894500Y-67284713D01*
X177894499Y-67235407D01*
X177899840Y-67199407D01*
X177904908Y-67182701D01*
X177919500Y-67034547D01*
X177919500Y-66835000D01*
X178476000Y-66835000D01*
X179201000Y-66835000D01*
X179201000Y-66047501D01*
X179164353Y-66047501D01*
X179063349Y-66057818D01*
X178899698Y-66112046D01*
X178752959Y-66202556D01*
X178631056Y-66324459D01*
X178540546Y-66471198D01*
X178486318Y-66634848D01*
X178476000Y-66735853D01*
X178476000Y-66835000D01*
X177919500Y-66835000D01*
X177919500Y-66047500D01*
X179701000Y-66047500D01*
X179701000Y-66835000D01*
X180425999Y-66835000D01*
X181016000Y-66835000D01*
X181741000Y-66835000D01*
X181741000Y-66047501D01*
X181704353Y-66047501D01*
X181603349Y-66057818D01*
X181439698Y-66112046D01*
X181292959Y-66202556D01*
X181171056Y-66324459D01*
X181080546Y-66471198D01*
X181026318Y-66634848D01*
X181016000Y-66735853D01*
X181016000Y-66835000D01*
X180425999Y-66835000D01*
X180425999Y-66735853D01*
X180415681Y-66634849D01*
X180361453Y-66471198D01*
X180270943Y-66324459D01*
X180149040Y-66202556D01*
X180002301Y-66112046D01*
X179838651Y-66057818D01*
X179737647Y-66047500D01*
X182241000Y-66047500D01*
X182241000Y-66835000D01*
X182965999Y-66835000D01*
X183556000Y-66835000D01*
X184281000Y-66835000D01*
X184281000Y-66047501D01*
X184244353Y-66047501D01*
X184143349Y-66057818D01*
X183979698Y-66112046D01*
X183832959Y-66202556D01*
X183711056Y-66324459D01*
X183620546Y-66471198D01*
X183566318Y-66634848D01*
X183556000Y-66735853D01*
X183556000Y-66835000D01*
X182965999Y-66835000D01*
X182965999Y-66735853D01*
X182955681Y-66634849D01*
X182901453Y-66471198D01*
X182810943Y-66324459D01*
X182689040Y-66202556D01*
X182542301Y-66112046D01*
X182378651Y-66057818D01*
X182277647Y-66047500D01*
X184781000Y-66047500D01*
X184781000Y-66835000D01*
X185505999Y-66835000D01*
X185505999Y-66735853D01*
X185495681Y-66634849D01*
X185441453Y-66471198D01*
X185350943Y-66324459D01*
X185229040Y-66202556D01*
X185082301Y-66112046D01*
X184918651Y-66057818D01*
X184817647Y-66047500D01*
X184781000Y-66047500D01*
X182277647Y-66047500D01*
X182241000Y-66047500D01*
X179737647Y-66047500D01*
X179701000Y-66047500D01*
X177919500Y-66047500D01*
X177919500Y-63980000D01*
X178476001Y-63980000D01*
X178476001Y-64079147D01*
X178486318Y-64180150D01*
X178540546Y-64343801D01*
X178631056Y-64490540D01*
X178752959Y-64612443D01*
X178899698Y-64702953D01*
X179063348Y-64757181D01*
X179164353Y-64767500D01*
X179201000Y-64767500D01*
X179201000Y-63980000D01*
X179701000Y-63980000D01*
X179701000Y-64767499D01*
X179737647Y-64767499D01*
X179838650Y-64757181D01*
X180002301Y-64702953D01*
X180149040Y-64612443D01*
X180270943Y-64490540D01*
X180361453Y-64343801D01*
X180415681Y-64180151D01*
X180426000Y-64079147D01*
X180426000Y-63980000D01*
X181016001Y-63980000D01*
X181016001Y-64079147D01*
X181026318Y-64180150D01*
X181080546Y-64343801D01*
X181171056Y-64490540D01*
X181292959Y-64612443D01*
X181439698Y-64702953D01*
X181603348Y-64757181D01*
X181704353Y-64767500D01*
X181741000Y-64767500D01*
X181741000Y-63980000D01*
X182241000Y-63980000D01*
X182241000Y-64767499D01*
X182277647Y-64767499D01*
X182378650Y-64757181D01*
X182542301Y-64702953D01*
X182689040Y-64612443D01*
X182810943Y-64490540D01*
X182901453Y-64343801D01*
X182955681Y-64180151D01*
X182966000Y-64079147D01*
X182966000Y-63980000D01*
X183556001Y-63980000D01*
X183556001Y-64079147D01*
X183566318Y-64180150D01*
X183620546Y-64343801D01*
X183711056Y-64490540D01*
X183832959Y-64612443D01*
X183979698Y-64702953D01*
X184143348Y-64757181D01*
X184244353Y-64767500D01*
X184281000Y-64767500D01*
X184281000Y-63980000D01*
X184781000Y-63980000D01*
X184781000Y-64767499D01*
X184817647Y-64767499D01*
X184918650Y-64757181D01*
X185082301Y-64702953D01*
X185229040Y-64612443D01*
X185350943Y-64490540D01*
X185441453Y-64343801D01*
X185495681Y-64180151D01*
X185506000Y-64079147D01*
X185506000Y-63980000D01*
X184781000Y-63980000D01*
X184281000Y-63980000D01*
X183556001Y-63980000D01*
X182966000Y-63980000D01*
X182241000Y-63980000D01*
X181741000Y-63980000D01*
X181016001Y-63980000D01*
X180426000Y-63980000D01*
X179701000Y-63980000D01*
X179201000Y-63980000D01*
X178476001Y-63980000D01*
X177919500Y-63980000D01*
X177919500Y-63680454D01*
X177908771Y-63571526D01*
X177904908Y-63532299D01*
X177899837Y-63515584D01*
X177894499Y-63479591D01*
X177894499Y-63392787D01*
X177884062Y-63290617D01*
X177873255Y-63258003D01*
X177868404Y-63200136D01*
X177890432Y-63146406D01*
X177934506Y-63108597D01*
X177990961Y-63095000D01*
X178375851Y-63095000D01*
X178432306Y-63108597D01*
G37*
G04 #@! TD.AperFunction*
G04 #@! TD*
G04 #@! TA.AperFunction,Conductor*
G04 #@! TO.N,GNDD*
G36*
X179461098Y-56412249D02*
G01*
X179509498Y-56448145D01*
X179535262Y-56502619D01*
X179532306Y-56562805D01*
X179501326Y-56614491D01*
X179410636Y-56705181D01*
X179370408Y-56732061D01*
X179322956Y-56741500D01*
X179163787Y-56741500D01*
X179061618Y-56751937D01*
X178896082Y-56806790D01*
X178747651Y-56898343D01*
X178624343Y-57021651D01*
X178532790Y-57170082D01*
X178477938Y-57335617D01*
X178467500Y-57437787D01*
X178467500Y-58037212D01*
X178477937Y-58139381D01*
X178525673Y-58283440D01*
X178532791Y-58304920D01*
X178533473Y-58306025D01*
X178624343Y-58453348D01*
X178739324Y-58568329D01*
X178771418Y-58623916D01*
X178771418Y-58688103D01*
X178739325Y-58743691D01*
X178631055Y-58851961D01*
X178540546Y-58998698D01*
X178486318Y-59162348D01*
X178476000Y-59263353D01*
X178476000Y-59312500D01*
X180425999Y-59312500D01*
X180425999Y-59263353D01*
X180415681Y-59162349D01*
X180361453Y-58998698D01*
X180270943Y-58851959D01*
X180162675Y-58743691D01*
X180130581Y-58688103D01*
X180130581Y-58623916D01*
X180162673Y-58568330D01*
X180277658Y-58453346D01*
X180369209Y-58304920D01*
X180424062Y-58139381D01*
X180434500Y-58037213D01*
X180434499Y-57878041D01*
X180443938Y-57830589D01*
X180470813Y-57790366D01*
X180678864Y-57582316D01*
X180719091Y-57555439D01*
X180766543Y-57546000D01*
X182117000Y-57546000D01*
X182179000Y-57562613D01*
X182224387Y-57608000D01*
X182241000Y-57670000D01*
X182241000Y-57863500D01*
X182224387Y-57925500D01*
X182179000Y-57970887D01*
X182117000Y-57987500D01*
X181016001Y-57987500D01*
X181016001Y-58036647D01*
X181026318Y-58137650D01*
X181080546Y-58301301D01*
X181171056Y-58448040D01*
X181279324Y-58556308D01*
X181311418Y-58611895D01*
X181311418Y-58676082D01*
X181279325Y-58731670D01*
X181164342Y-58846653D01*
X181072790Y-58995082D01*
X181017938Y-59160617D01*
X181007500Y-59262787D01*
X181007500Y-59862212D01*
X181017937Y-59964381D01*
X181071592Y-60126301D01*
X181072791Y-60129920D01*
X181144612Y-60246359D01*
X181164343Y-60278348D01*
X181287651Y-60401656D01*
X181287653Y-60401657D01*
X181287654Y-60401658D01*
X181436080Y-60493209D01*
X181601619Y-60548062D01*
X181703787Y-60558500D01*
X182278212Y-60558499D01*
X182380381Y-60548062D01*
X182545920Y-60493209D01*
X182592525Y-60464462D01*
X182657623Y-60446000D01*
X183756180Y-60446000D01*
X183803633Y-60455439D01*
X183843861Y-60482319D01*
X183997916Y-60636374D01*
X184113681Y-60752138D01*
X184140561Y-60792366D01*
X184150000Y-60839819D01*
X184150000Y-60872500D01*
X184133387Y-60934500D01*
X184088000Y-60979887D01*
X184026000Y-60996500D01*
X182482059Y-60996500D01*
X182443056Y-60990206D01*
X182431734Y-60986454D01*
X182380381Y-60969437D01*
X182287682Y-60959967D01*
X182278212Y-60959000D01*
X181703787Y-60959000D01*
X181601619Y-60969437D01*
X181550265Y-60986454D01*
X181538943Y-60990206D01*
X181499941Y-60996500D01*
X179942059Y-60996500D01*
X179903056Y-60990206D01*
X179891734Y-60986454D01*
X179840381Y-60969437D01*
X179747682Y-60959967D01*
X179738212Y-60959000D01*
X179163788Y-60959000D01*
X179048110Y-60970818D01*
X179047972Y-60969473D01*
X179035387Y-60971500D01*
X177364336Y-60971500D01*
X177325334Y-60965206D01*
X177306604Y-60959000D01*
X177300379Y-60956937D01*
X177209837Y-60947687D01*
X177198212Y-60946500D01*
X176623787Y-60946500D01*
X176521618Y-60956937D01*
X176356082Y-61011790D01*
X176207653Y-61103342D01*
X176084341Y-61226655D01*
X176006724Y-61352489D01*
X175988867Y-61375072D01*
X175471681Y-61892259D01*
X175422318Y-61922509D01*
X175364602Y-61927051D01*
X175311115Y-61904896D01*
X175273515Y-61860873D01*
X175260000Y-61804578D01*
X175260000Y-59812500D01*
X178476001Y-59812500D01*
X178476001Y-59861647D01*
X178486318Y-59962650D01*
X178540546Y-60126301D01*
X178631056Y-60273040D01*
X178752959Y-60394943D01*
X178899698Y-60485453D01*
X179063348Y-60539681D01*
X179164353Y-60550000D01*
X179201000Y-60550000D01*
X179201000Y-59812500D01*
X179701000Y-59812500D01*
X179701000Y-60549999D01*
X179737647Y-60549999D01*
X179838650Y-60539681D01*
X180002301Y-60485453D01*
X180149040Y-60394943D01*
X180270943Y-60273040D01*
X180361453Y-60126301D01*
X180415681Y-59962651D01*
X180426000Y-59861647D01*
X180426000Y-59812500D01*
X179701000Y-59812500D01*
X179201000Y-59812500D01*
X178476001Y-59812500D01*
X175260000Y-59812500D01*
X175260000Y-59336362D01*
X175269439Y-59288909D01*
X175296319Y-59248681D01*
X178105181Y-56439819D01*
X178145409Y-56412939D01*
X178192862Y-56403500D01*
X179295358Y-56403500D01*
X179307511Y-56404096D01*
X179351000Y-56408380D01*
X179401492Y-56403407D01*
X179461098Y-56412249D01*
G37*
G04 #@! TD.AperFunction*
G04 #@! TD*
M02*
