G04 #@! TF.GenerationSoftware,KiCad,Pcbnew,7.0.1*
G04 #@! TF.CreationDate,2023-05-20T00:25:49-07:00*
G04 #@! TF.ProjectId,PCM1863,50434d31-3836-4332-9e6b-696361645f70,rev?*
G04 #@! TF.SameCoordinates,Original*
G04 #@! TF.FileFunction,Legend,Bot*
G04 #@! TF.FilePolarity,Positive*
%FSLAX46Y46*%
G04 Gerber Fmt 4.6, Leading zero omitted, Abs format (unit mm)*
G04 Created by KiCad (PCBNEW 7.0.1) date 2023-05-20 00:25:49*
%MOMM*%
%LPD*%
G01*
G04 APERTURE LIST*
%ADD10C,0.153000*%
%ADD11C,0.150000*%
%ADD12C,0.229500*%
%ADD13C,0.300000*%
G04 APERTURE END LIST*
D10*
X207645000Y-64365000D02*
X217805000Y-64365000D01*
X207645000Y-51665000D02*
X207645000Y-64365000D01*
X217805000Y-51665000D02*
X207645000Y-51665000D01*
X217805000Y-64365000D02*
X217805000Y-51665000D01*
X207645000Y-65000000D02*
X207645000Y-77700000D01*
X217805000Y-65000000D02*
X207645000Y-65000000D01*
X217805000Y-77700000D02*
X217805000Y-65000000D01*
X207645000Y-77700000D02*
X217805000Y-77700000D01*
X207645000Y-78335000D02*
X207645000Y-91035000D01*
X217805000Y-78335000D02*
X207645000Y-78335000D01*
X217805000Y-91035000D02*
X217805000Y-78335000D01*
X207645000Y-91035000D02*
X217805000Y-91035000D01*
D11*
X206811190Y-90942000D02*
X206668333Y-90989619D01*
X206668333Y-90989619D02*
X206430238Y-90989619D01*
X206430238Y-90989619D02*
X206335000Y-90942000D01*
X206335000Y-90942000D02*
X206287381Y-90894380D01*
X206287381Y-90894380D02*
X206239762Y-90799142D01*
X206239762Y-90799142D02*
X206239762Y-90703904D01*
X206239762Y-90703904D02*
X206287381Y-90608666D01*
X206287381Y-90608666D02*
X206335000Y-90561047D01*
X206335000Y-90561047D02*
X206430238Y-90513428D01*
X206430238Y-90513428D02*
X206620714Y-90465809D01*
X206620714Y-90465809D02*
X206715952Y-90418190D01*
X206715952Y-90418190D02*
X206763571Y-90370571D01*
X206763571Y-90370571D02*
X206811190Y-90275333D01*
X206811190Y-90275333D02*
X206811190Y-90180095D01*
X206811190Y-90180095D02*
X206763571Y-90084857D01*
X206763571Y-90084857D02*
X206715952Y-90037238D01*
X206715952Y-90037238D02*
X206620714Y-89989619D01*
X206620714Y-89989619D02*
X206382619Y-89989619D01*
X206382619Y-89989619D02*
X206239762Y-90037238D01*
X205620714Y-90513428D02*
X205620714Y-90989619D01*
X205954047Y-89989619D02*
X205620714Y-90513428D01*
X205620714Y-90513428D02*
X205287381Y-89989619D01*
X205001666Y-90942000D02*
X204858809Y-90989619D01*
X204858809Y-90989619D02*
X204620714Y-90989619D01*
X204620714Y-90989619D02*
X204525476Y-90942000D01*
X204525476Y-90942000D02*
X204477857Y-90894380D01*
X204477857Y-90894380D02*
X204430238Y-90799142D01*
X204430238Y-90799142D02*
X204430238Y-90703904D01*
X204430238Y-90703904D02*
X204477857Y-90608666D01*
X204477857Y-90608666D02*
X204525476Y-90561047D01*
X204525476Y-90561047D02*
X204620714Y-90513428D01*
X204620714Y-90513428D02*
X204811190Y-90465809D01*
X204811190Y-90465809D02*
X204906428Y-90418190D01*
X204906428Y-90418190D02*
X204954047Y-90370571D01*
X204954047Y-90370571D02*
X205001666Y-90275333D01*
X205001666Y-90275333D02*
X205001666Y-90180095D01*
X205001666Y-90180095D02*
X204954047Y-90084857D01*
X204954047Y-90084857D02*
X204906428Y-90037238D01*
X204906428Y-90037238D02*
X204811190Y-89989619D01*
X204811190Y-89989619D02*
X204573095Y-89989619D01*
X204573095Y-89989619D02*
X204430238Y-90037238D01*
X204239762Y-91084857D02*
X203477857Y-91084857D01*
X202668333Y-90894380D02*
X202715952Y-90942000D01*
X202715952Y-90942000D02*
X202858809Y-90989619D01*
X202858809Y-90989619D02*
X202954047Y-90989619D01*
X202954047Y-90989619D02*
X203096904Y-90942000D01*
X203096904Y-90942000D02*
X203192142Y-90846761D01*
X203192142Y-90846761D02*
X203239761Y-90751523D01*
X203239761Y-90751523D02*
X203287380Y-90561047D01*
X203287380Y-90561047D02*
X203287380Y-90418190D01*
X203287380Y-90418190D02*
X203239761Y-90227714D01*
X203239761Y-90227714D02*
X203192142Y-90132476D01*
X203192142Y-90132476D02*
X203096904Y-90037238D01*
X203096904Y-90037238D02*
X202954047Y-89989619D01*
X202954047Y-89989619D02*
X202858809Y-89989619D01*
X202858809Y-89989619D02*
X202715952Y-90037238D01*
X202715952Y-90037238D02*
X202668333Y-90084857D01*
X201763571Y-90989619D02*
X202239761Y-90989619D01*
X202239761Y-90989619D02*
X202239761Y-89989619D01*
X201430237Y-90989619D02*
X201430237Y-89989619D01*
X200858809Y-90989619D02*
X201287380Y-90418190D01*
X200858809Y-89989619D02*
X201430237Y-90561047D01*
D10*
X215153571Y-85943809D02*
X215010714Y-85991428D01*
X215010714Y-85991428D02*
X214963095Y-86039047D01*
X214963095Y-86039047D02*
X214915476Y-86134285D01*
X214915476Y-86134285D02*
X214915476Y-86277142D01*
X214915476Y-86277142D02*
X214963095Y-86372380D01*
X214963095Y-86372380D02*
X215010714Y-86420000D01*
X215010714Y-86420000D02*
X215105952Y-86467619D01*
X215105952Y-86467619D02*
X215486904Y-86467619D01*
X215486904Y-86467619D02*
X215486904Y-85467619D01*
X215486904Y-85467619D02*
X215153571Y-85467619D01*
X215153571Y-85467619D02*
X215058333Y-85515238D01*
X215058333Y-85515238D02*
X215010714Y-85562857D01*
X215010714Y-85562857D02*
X214963095Y-85658095D01*
X214963095Y-85658095D02*
X214963095Y-85753333D01*
X214963095Y-85753333D02*
X215010714Y-85848571D01*
X215010714Y-85848571D02*
X215058333Y-85896190D01*
X215058333Y-85896190D02*
X215153571Y-85943809D01*
X215153571Y-85943809D02*
X215486904Y-85943809D01*
X213915476Y-86372380D02*
X213963095Y-86420000D01*
X213963095Y-86420000D02*
X214105952Y-86467619D01*
X214105952Y-86467619D02*
X214201190Y-86467619D01*
X214201190Y-86467619D02*
X214344047Y-86420000D01*
X214344047Y-86420000D02*
X214439285Y-86324761D01*
X214439285Y-86324761D02*
X214486904Y-86229523D01*
X214486904Y-86229523D02*
X214534523Y-86039047D01*
X214534523Y-86039047D02*
X214534523Y-85896190D01*
X214534523Y-85896190D02*
X214486904Y-85705714D01*
X214486904Y-85705714D02*
X214439285Y-85610476D01*
X214439285Y-85610476D02*
X214344047Y-85515238D01*
X214344047Y-85515238D02*
X214201190Y-85467619D01*
X214201190Y-85467619D02*
X214105952Y-85467619D01*
X214105952Y-85467619D02*
X213963095Y-85515238D01*
X213963095Y-85515238D02*
X213915476Y-85562857D01*
X213486904Y-86467619D02*
X213486904Y-85467619D01*
X212915476Y-86467619D02*
X213344047Y-85896190D01*
X212915476Y-85467619D02*
X213486904Y-86039047D01*
X216344047Y-81387619D02*
X216344047Y-80387619D01*
X216344047Y-80387619D02*
X216105952Y-80387619D01*
X216105952Y-80387619D02*
X215963095Y-80435238D01*
X215963095Y-80435238D02*
X215867857Y-80530476D01*
X215867857Y-80530476D02*
X215820238Y-80625714D01*
X215820238Y-80625714D02*
X215772619Y-80816190D01*
X215772619Y-80816190D02*
X215772619Y-80959047D01*
X215772619Y-80959047D02*
X215820238Y-81149523D01*
X215820238Y-81149523D02*
X215867857Y-81244761D01*
X215867857Y-81244761D02*
X215963095Y-81340000D01*
X215963095Y-81340000D02*
X216105952Y-81387619D01*
X216105952Y-81387619D02*
X216344047Y-81387619D01*
X215153571Y-80387619D02*
X214963095Y-80387619D01*
X214963095Y-80387619D02*
X214867857Y-80435238D01*
X214867857Y-80435238D02*
X214772619Y-80530476D01*
X214772619Y-80530476D02*
X214725000Y-80720952D01*
X214725000Y-80720952D02*
X214725000Y-81054285D01*
X214725000Y-81054285D02*
X214772619Y-81244761D01*
X214772619Y-81244761D02*
X214867857Y-81340000D01*
X214867857Y-81340000D02*
X214963095Y-81387619D01*
X214963095Y-81387619D02*
X215153571Y-81387619D01*
X215153571Y-81387619D02*
X215248809Y-81340000D01*
X215248809Y-81340000D02*
X215344047Y-81244761D01*
X215344047Y-81244761D02*
X215391666Y-81054285D01*
X215391666Y-81054285D02*
X215391666Y-80720952D01*
X215391666Y-80720952D02*
X215344047Y-80530476D01*
X215344047Y-80530476D02*
X215248809Y-80435238D01*
X215248809Y-80435238D02*
X215153571Y-80387619D01*
X214296428Y-80387619D02*
X214296428Y-81197142D01*
X214296428Y-81197142D02*
X214248809Y-81292380D01*
X214248809Y-81292380D02*
X214201190Y-81340000D01*
X214201190Y-81340000D02*
X214105952Y-81387619D01*
X214105952Y-81387619D02*
X213915476Y-81387619D01*
X213915476Y-81387619D02*
X213820238Y-81340000D01*
X213820238Y-81340000D02*
X213772619Y-81292380D01*
X213772619Y-81292380D02*
X213725000Y-81197142D01*
X213725000Y-81197142D02*
X213725000Y-80387619D01*
X213391666Y-80387619D02*
X212820238Y-80387619D01*
X213105952Y-81387619D02*
X213105952Y-80387619D01*
X216439285Y-67100238D02*
X216534523Y-67052619D01*
X216534523Y-67052619D02*
X216677380Y-67052619D01*
X216677380Y-67052619D02*
X216820237Y-67100238D01*
X216820237Y-67100238D02*
X216915475Y-67195476D01*
X216915475Y-67195476D02*
X216963094Y-67290714D01*
X216963094Y-67290714D02*
X217010713Y-67481190D01*
X217010713Y-67481190D02*
X217010713Y-67624047D01*
X217010713Y-67624047D02*
X216963094Y-67814523D01*
X216963094Y-67814523D02*
X216915475Y-67909761D01*
X216915475Y-67909761D02*
X216820237Y-68005000D01*
X216820237Y-68005000D02*
X216677380Y-68052619D01*
X216677380Y-68052619D02*
X216582142Y-68052619D01*
X216582142Y-68052619D02*
X216439285Y-68005000D01*
X216439285Y-68005000D02*
X216391666Y-67957380D01*
X216391666Y-67957380D02*
X216391666Y-67624047D01*
X216391666Y-67624047D02*
X216582142Y-67624047D01*
X215963094Y-68052619D02*
X215963094Y-67052619D01*
X215963094Y-67052619D02*
X215582142Y-67052619D01*
X215582142Y-67052619D02*
X215486904Y-67100238D01*
X215486904Y-67100238D02*
X215439285Y-67147857D01*
X215439285Y-67147857D02*
X215391666Y-67243095D01*
X215391666Y-67243095D02*
X215391666Y-67385952D01*
X215391666Y-67385952D02*
X215439285Y-67481190D01*
X215439285Y-67481190D02*
X215486904Y-67528809D01*
X215486904Y-67528809D02*
X215582142Y-67576428D01*
X215582142Y-67576428D02*
X215963094Y-67576428D01*
X214963094Y-68052619D02*
X214963094Y-67052619D01*
X214296428Y-67052619D02*
X214105952Y-67052619D01*
X214105952Y-67052619D02*
X214010714Y-67100238D01*
X214010714Y-67100238D02*
X213915476Y-67195476D01*
X213915476Y-67195476D02*
X213867857Y-67385952D01*
X213867857Y-67385952D02*
X213867857Y-67719285D01*
X213867857Y-67719285D02*
X213915476Y-67909761D01*
X213915476Y-67909761D02*
X214010714Y-68005000D01*
X214010714Y-68005000D02*
X214105952Y-68052619D01*
X214105952Y-68052619D02*
X214296428Y-68052619D01*
X214296428Y-68052619D02*
X214391666Y-68005000D01*
X214391666Y-68005000D02*
X214486904Y-67909761D01*
X214486904Y-67909761D02*
X214534523Y-67719285D01*
X214534523Y-67719285D02*
X214534523Y-67385952D01*
X214534523Y-67385952D02*
X214486904Y-67195476D01*
X214486904Y-67195476D02*
X214391666Y-67100238D01*
X214391666Y-67100238D02*
X214296428Y-67052619D01*
X213248809Y-67052619D02*
X213153571Y-67052619D01*
X213153571Y-67052619D02*
X213058333Y-67100238D01*
X213058333Y-67100238D02*
X213010714Y-67147857D01*
X213010714Y-67147857D02*
X212963095Y-67243095D01*
X212963095Y-67243095D02*
X212915476Y-67433571D01*
X212915476Y-67433571D02*
X212915476Y-67671666D01*
X212915476Y-67671666D02*
X212963095Y-67862142D01*
X212963095Y-67862142D02*
X213010714Y-67957380D01*
X213010714Y-67957380D02*
X213058333Y-68005000D01*
X213058333Y-68005000D02*
X213153571Y-68052619D01*
X213153571Y-68052619D02*
X213248809Y-68052619D01*
X213248809Y-68052619D02*
X213344047Y-68005000D01*
X213344047Y-68005000D02*
X213391666Y-67957380D01*
X213391666Y-67957380D02*
X213439285Y-67862142D01*
X213439285Y-67862142D02*
X213486904Y-67671666D01*
X213486904Y-67671666D02*
X213486904Y-67433571D01*
X213486904Y-67433571D02*
X213439285Y-67243095D01*
X213439285Y-67243095D02*
X213391666Y-67147857D01*
X213391666Y-67147857D02*
X213344047Y-67100238D01*
X213344047Y-67100238D02*
X213248809Y-67052619D01*
X215344047Y-62290000D02*
X215201190Y-62337619D01*
X215201190Y-62337619D02*
X214963095Y-62337619D01*
X214963095Y-62337619D02*
X214867857Y-62290000D01*
X214867857Y-62290000D02*
X214820238Y-62242380D01*
X214820238Y-62242380D02*
X214772619Y-62147142D01*
X214772619Y-62147142D02*
X214772619Y-62051904D01*
X214772619Y-62051904D02*
X214820238Y-61956666D01*
X214820238Y-61956666D02*
X214867857Y-61909047D01*
X214867857Y-61909047D02*
X214963095Y-61861428D01*
X214963095Y-61861428D02*
X215153571Y-61813809D01*
X215153571Y-61813809D02*
X215248809Y-61766190D01*
X215248809Y-61766190D02*
X215296428Y-61718571D01*
X215296428Y-61718571D02*
X215344047Y-61623333D01*
X215344047Y-61623333D02*
X215344047Y-61528095D01*
X215344047Y-61528095D02*
X215296428Y-61432857D01*
X215296428Y-61432857D02*
X215248809Y-61385238D01*
X215248809Y-61385238D02*
X215153571Y-61337619D01*
X215153571Y-61337619D02*
X214915476Y-61337619D01*
X214915476Y-61337619D02*
X214772619Y-61385238D01*
X214344047Y-62337619D02*
X214344047Y-61337619D01*
X214344047Y-61337619D02*
X214105952Y-61337619D01*
X214105952Y-61337619D02*
X213963095Y-61385238D01*
X213963095Y-61385238D02*
X213867857Y-61480476D01*
X213867857Y-61480476D02*
X213820238Y-61575714D01*
X213820238Y-61575714D02*
X213772619Y-61766190D01*
X213772619Y-61766190D02*
X213772619Y-61909047D01*
X213772619Y-61909047D02*
X213820238Y-62099523D01*
X213820238Y-62099523D02*
X213867857Y-62194761D01*
X213867857Y-62194761D02*
X213963095Y-62290000D01*
X213963095Y-62290000D02*
X214105952Y-62337619D01*
X214105952Y-62337619D02*
X214344047Y-62337619D01*
X213391666Y-62051904D02*
X212915476Y-62051904D01*
X213486904Y-62337619D02*
X213153571Y-61337619D01*
X213153571Y-61337619D02*
X212820238Y-62337619D01*
X214391666Y-56971904D02*
X213915476Y-56971904D01*
X214486904Y-57257619D02*
X214153571Y-56257619D01*
X214153571Y-56257619D02*
X213820238Y-57257619D01*
X213486904Y-57257619D02*
X213486904Y-56257619D01*
X213486904Y-56257619D02*
X213248809Y-56257619D01*
X213248809Y-56257619D02*
X213105952Y-56305238D01*
X213105952Y-56305238D02*
X213010714Y-56400476D01*
X213010714Y-56400476D02*
X212963095Y-56495714D01*
X212963095Y-56495714D02*
X212915476Y-56686190D01*
X212915476Y-56686190D02*
X212915476Y-56829047D01*
X212915476Y-56829047D02*
X212963095Y-57019523D01*
X212963095Y-57019523D02*
X213010714Y-57114761D01*
X213010714Y-57114761D02*
X213105952Y-57210000D01*
X213105952Y-57210000D02*
X213248809Y-57257619D01*
X213248809Y-57257619D02*
X213486904Y-57257619D01*
D12*
X205867142Y-65015857D02*
X206010000Y-64944428D01*
X206010000Y-64944428D02*
X206224285Y-64944428D01*
X206224285Y-64944428D02*
X206438571Y-65015857D01*
X206438571Y-65015857D02*
X206581428Y-65158714D01*
X206581428Y-65158714D02*
X206652857Y-65301571D01*
X206652857Y-65301571D02*
X206724285Y-65587285D01*
X206724285Y-65587285D02*
X206724285Y-65801571D01*
X206724285Y-65801571D02*
X206652857Y-66087285D01*
X206652857Y-66087285D02*
X206581428Y-66230142D01*
X206581428Y-66230142D02*
X206438571Y-66373000D01*
X206438571Y-66373000D02*
X206224285Y-66444428D01*
X206224285Y-66444428D02*
X206081428Y-66444428D01*
X206081428Y-66444428D02*
X205867142Y-66373000D01*
X205867142Y-66373000D02*
X205795714Y-66301571D01*
X205795714Y-66301571D02*
X205795714Y-65801571D01*
X205795714Y-65801571D02*
X206081428Y-65801571D01*
X205152857Y-66444428D02*
X205152857Y-64944428D01*
X205152857Y-64944428D02*
X204581428Y-64944428D01*
X204581428Y-64944428D02*
X204438571Y-65015857D01*
X204438571Y-65015857D02*
X204367142Y-65087285D01*
X204367142Y-65087285D02*
X204295714Y-65230142D01*
X204295714Y-65230142D02*
X204295714Y-65444428D01*
X204295714Y-65444428D02*
X204367142Y-65587285D01*
X204367142Y-65587285D02*
X204438571Y-65658714D01*
X204438571Y-65658714D02*
X204581428Y-65730142D01*
X204581428Y-65730142D02*
X205152857Y-65730142D01*
X203652857Y-66444428D02*
X203652857Y-64944428D01*
X202652856Y-64944428D02*
X202367142Y-64944428D01*
X202367142Y-64944428D02*
X202224285Y-65015857D01*
X202224285Y-65015857D02*
X202081428Y-65158714D01*
X202081428Y-65158714D02*
X202009999Y-65444428D01*
X202009999Y-65444428D02*
X202009999Y-65944428D01*
X202009999Y-65944428D02*
X202081428Y-66230142D01*
X202081428Y-66230142D02*
X202224285Y-66373000D01*
X202224285Y-66373000D02*
X202367142Y-66444428D01*
X202367142Y-66444428D02*
X202652856Y-66444428D01*
X202652856Y-66444428D02*
X202795714Y-66373000D01*
X202795714Y-66373000D02*
X202938571Y-66230142D01*
X202938571Y-66230142D02*
X203009999Y-65944428D01*
X203009999Y-65944428D02*
X203009999Y-65444428D01*
X203009999Y-65444428D02*
X202938571Y-65158714D01*
X202938571Y-65158714D02*
X202795714Y-65015857D01*
X202795714Y-65015857D02*
X202652856Y-64944428D01*
D10*
X216439285Y-69640238D02*
X216534523Y-69592619D01*
X216534523Y-69592619D02*
X216677380Y-69592619D01*
X216677380Y-69592619D02*
X216820237Y-69640238D01*
X216820237Y-69640238D02*
X216915475Y-69735476D01*
X216915475Y-69735476D02*
X216963094Y-69830714D01*
X216963094Y-69830714D02*
X217010713Y-70021190D01*
X217010713Y-70021190D02*
X217010713Y-70164047D01*
X217010713Y-70164047D02*
X216963094Y-70354523D01*
X216963094Y-70354523D02*
X216915475Y-70449761D01*
X216915475Y-70449761D02*
X216820237Y-70545000D01*
X216820237Y-70545000D02*
X216677380Y-70592619D01*
X216677380Y-70592619D02*
X216582142Y-70592619D01*
X216582142Y-70592619D02*
X216439285Y-70545000D01*
X216439285Y-70545000D02*
X216391666Y-70497380D01*
X216391666Y-70497380D02*
X216391666Y-70164047D01*
X216391666Y-70164047D02*
X216582142Y-70164047D01*
X215963094Y-70592619D02*
X215963094Y-69592619D01*
X215963094Y-69592619D02*
X215582142Y-69592619D01*
X215582142Y-69592619D02*
X215486904Y-69640238D01*
X215486904Y-69640238D02*
X215439285Y-69687857D01*
X215439285Y-69687857D02*
X215391666Y-69783095D01*
X215391666Y-69783095D02*
X215391666Y-69925952D01*
X215391666Y-69925952D02*
X215439285Y-70021190D01*
X215439285Y-70021190D02*
X215486904Y-70068809D01*
X215486904Y-70068809D02*
X215582142Y-70116428D01*
X215582142Y-70116428D02*
X215963094Y-70116428D01*
X214963094Y-70592619D02*
X214963094Y-69592619D01*
X214296428Y-69592619D02*
X214105952Y-69592619D01*
X214105952Y-69592619D02*
X214010714Y-69640238D01*
X214010714Y-69640238D02*
X213915476Y-69735476D01*
X213915476Y-69735476D02*
X213867857Y-69925952D01*
X213867857Y-69925952D02*
X213867857Y-70259285D01*
X213867857Y-70259285D02*
X213915476Y-70449761D01*
X213915476Y-70449761D02*
X214010714Y-70545000D01*
X214010714Y-70545000D02*
X214105952Y-70592619D01*
X214105952Y-70592619D02*
X214296428Y-70592619D01*
X214296428Y-70592619D02*
X214391666Y-70545000D01*
X214391666Y-70545000D02*
X214486904Y-70449761D01*
X214486904Y-70449761D02*
X214534523Y-70259285D01*
X214534523Y-70259285D02*
X214534523Y-69925952D01*
X214534523Y-69925952D02*
X214486904Y-69735476D01*
X214486904Y-69735476D02*
X214391666Y-69640238D01*
X214391666Y-69640238D02*
X214296428Y-69592619D01*
X212915476Y-70592619D02*
X213486904Y-70592619D01*
X213201190Y-70592619D02*
X213201190Y-69592619D01*
X213201190Y-69592619D02*
X213296428Y-69735476D01*
X213296428Y-69735476D02*
X213391666Y-69830714D01*
X213391666Y-69830714D02*
X213486904Y-69878333D01*
X215296428Y-59750000D02*
X215153571Y-59797619D01*
X215153571Y-59797619D02*
X214915476Y-59797619D01*
X214915476Y-59797619D02*
X214820238Y-59750000D01*
X214820238Y-59750000D02*
X214772619Y-59702380D01*
X214772619Y-59702380D02*
X214725000Y-59607142D01*
X214725000Y-59607142D02*
X214725000Y-59511904D01*
X214725000Y-59511904D02*
X214772619Y-59416666D01*
X214772619Y-59416666D02*
X214820238Y-59369047D01*
X214820238Y-59369047D02*
X214915476Y-59321428D01*
X214915476Y-59321428D02*
X215105952Y-59273809D01*
X215105952Y-59273809D02*
X215201190Y-59226190D01*
X215201190Y-59226190D02*
X215248809Y-59178571D01*
X215248809Y-59178571D02*
X215296428Y-59083333D01*
X215296428Y-59083333D02*
X215296428Y-58988095D01*
X215296428Y-58988095D02*
X215248809Y-58892857D01*
X215248809Y-58892857D02*
X215201190Y-58845238D01*
X215201190Y-58845238D02*
X215105952Y-58797619D01*
X215105952Y-58797619D02*
X214867857Y-58797619D01*
X214867857Y-58797619D02*
X214725000Y-58845238D01*
X213725000Y-59702380D02*
X213772619Y-59750000D01*
X213772619Y-59750000D02*
X213915476Y-59797619D01*
X213915476Y-59797619D02*
X214010714Y-59797619D01*
X214010714Y-59797619D02*
X214153571Y-59750000D01*
X214153571Y-59750000D02*
X214248809Y-59654761D01*
X214248809Y-59654761D02*
X214296428Y-59559523D01*
X214296428Y-59559523D02*
X214344047Y-59369047D01*
X214344047Y-59369047D02*
X214344047Y-59226190D01*
X214344047Y-59226190D02*
X214296428Y-59035714D01*
X214296428Y-59035714D02*
X214248809Y-58940476D01*
X214248809Y-58940476D02*
X214153571Y-58845238D01*
X214153571Y-58845238D02*
X214010714Y-58797619D01*
X214010714Y-58797619D02*
X213915476Y-58797619D01*
X213915476Y-58797619D02*
X213772619Y-58845238D01*
X213772619Y-58845238D02*
X213725000Y-58892857D01*
X212820238Y-59797619D02*
X213296428Y-59797619D01*
X213296428Y-59797619D02*
X213296428Y-58797619D01*
D12*
X206652857Y-53109428D02*
X206652857Y-51609428D01*
X206009999Y-51752285D02*
X205938571Y-51680857D01*
X205938571Y-51680857D02*
X205795714Y-51609428D01*
X205795714Y-51609428D02*
X205438571Y-51609428D01*
X205438571Y-51609428D02*
X205295714Y-51680857D01*
X205295714Y-51680857D02*
X205224285Y-51752285D01*
X205224285Y-51752285D02*
X205152856Y-51895142D01*
X205152856Y-51895142D02*
X205152856Y-52038000D01*
X205152856Y-52038000D02*
X205224285Y-52252285D01*
X205224285Y-52252285D02*
X206081428Y-53109428D01*
X206081428Y-53109428D02*
X205152856Y-53109428D01*
X203652857Y-52966571D02*
X203724285Y-53038000D01*
X203724285Y-53038000D02*
X203938571Y-53109428D01*
X203938571Y-53109428D02*
X204081428Y-53109428D01*
X204081428Y-53109428D02*
X204295714Y-53038000D01*
X204295714Y-53038000D02*
X204438571Y-52895142D01*
X204438571Y-52895142D02*
X204510000Y-52752285D01*
X204510000Y-52752285D02*
X204581428Y-52466571D01*
X204581428Y-52466571D02*
X204581428Y-52252285D01*
X204581428Y-52252285D02*
X204510000Y-51966571D01*
X204510000Y-51966571D02*
X204438571Y-51823714D01*
X204438571Y-51823714D02*
X204295714Y-51680857D01*
X204295714Y-51680857D02*
X204081428Y-51609428D01*
X204081428Y-51609428D02*
X203938571Y-51609428D01*
X203938571Y-51609428D02*
X203724285Y-51680857D01*
X203724285Y-51680857D02*
X203652857Y-51752285D01*
D10*
X216439285Y-74720238D02*
X216534523Y-74672619D01*
X216534523Y-74672619D02*
X216677380Y-74672619D01*
X216677380Y-74672619D02*
X216820237Y-74720238D01*
X216820237Y-74720238D02*
X216915475Y-74815476D01*
X216915475Y-74815476D02*
X216963094Y-74910714D01*
X216963094Y-74910714D02*
X217010713Y-75101190D01*
X217010713Y-75101190D02*
X217010713Y-75244047D01*
X217010713Y-75244047D02*
X216963094Y-75434523D01*
X216963094Y-75434523D02*
X216915475Y-75529761D01*
X216915475Y-75529761D02*
X216820237Y-75625000D01*
X216820237Y-75625000D02*
X216677380Y-75672619D01*
X216677380Y-75672619D02*
X216582142Y-75672619D01*
X216582142Y-75672619D02*
X216439285Y-75625000D01*
X216439285Y-75625000D02*
X216391666Y-75577380D01*
X216391666Y-75577380D02*
X216391666Y-75244047D01*
X216391666Y-75244047D02*
X216582142Y-75244047D01*
X215963094Y-75672619D02*
X215963094Y-74672619D01*
X215963094Y-74672619D02*
X215582142Y-74672619D01*
X215582142Y-74672619D02*
X215486904Y-74720238D01*
X215486904Y-74720238D02*
X215439285Y-74767857D01*
X215439285Y-74767857D02*
X215391666Y-74863095D01*
X215391666Y-74863095D02*
X215391666Y-75005952D01*
X215391666Y-75005952D02*
X215439285Y-75101190D01*
X215439285Y-75101190D02*
X215486904Y-75148809D01*
X215486904Y-75148809D02*
X215582142Y-75196428D01*
X215582142Y-75196428D02*
X215963094Y-75196428D01*
X214963094Y-75672619D02*
X214963094Y-74672619D01*
X214296428Y-74672619D02*
X214105952Y-74672619D01*
X214105952Y-74672619D02*
X214010714Y-74720238D01*
X214010714Y-74720238D02*
X213915476Y-74815476D01*
X213915476Y-74815476D02*
X213867857Y-75005952D01*
X213867857Y-75005952D02*
X213867857Y-75339285D01*
X213867857Y-75339285D02*
X213915476Y-75529761D01*
X213915476Y-75529761D02*
X214010714Y-75625000D01*
X214010714Y-75625000D02*
X214105952Y-75672619D01*
X214105952Y-75672619D02*
X214296428Y-75672619D01*
X214296428Y-75672619D02*
X214391666Y-75625000D01*
X214391666Y-75625000D02*
X214486904Y-75529761D01*
X214486904Y-75529761D02*
X214534523Y-75339285D01*
X214534523Y-75339285D02*
X214534523Y-75005952D01*
X214534523Y-75005952D02*
X214486904Y-74815476D01*
X214486904Y-74815476D02*
X214391666Y-74720238D01*
X214391666Y-74720238D02*
X214296428Y-74672619D01*
X213534523Y-74672619D02*
X212915476Y-74672619D01*
X212915476Y-74672619D02*
X213248809Y-75053571D01*
X213248809Y-75053571D02*
X213105952Y-75053571D01*
X213105952Y-75053571D02*
X213010714Y-75101190D01*
X213010714Y-75101190D02*
X212963095Y-75148809D01*
X212963095Y-75148809D02*
X212915476Y-75244047D01*
X212915476Y-75244047D02*
X212915476Y-75482142D01*
X212915476Y-75482142D02*
X212963095Y-75577380D01*
X212963095Y-75577380D02*
X213010714Y-75625000D01*
X213010714Y-75625000D02*
X213105952Y-75672619D01*
X213105952Y-75672619D02*
X213391666Y-75672619D01*
X213391666Y-75672619D02*
X213486904Y-75625000D01*
X213486904Y-75625000D02*
X213534523Y-75577380D01*
X216439285Y-72180238D02*
X216534523Y-72132619D01*
X216534523Y-72132619D02*
X216677380Y-72132619D01*
X216677380Y-72132619D02*
X216820237Y-72180238D01*
X216820237Y-72180238D02*
X216915475Y-72275476D01*
X216915475Y-72275476D02*
X216963094Y-72370714D01*
X216963094Y-72370714D02*
X217010713Y-72561190D01*
X217010713Y-72561190D02*
X217010713Y-72704047D01*
X217010713Y-72704047D02*
X216963094Y-72894523D01*
X216963094Y-72894523D02*
X216915475Y-72989761D01*
X216915475Y-72989761D02*
X216820237Y-73085000D01*
X216820237Y-73085000D02*
X216677380Y-73132619D01*
X216677380Y-73132619D02*
X216582142Y-73132619D01*
X216582142Y-73132619D02*
X216439285Y-73085000D01*
X216439285Y-73085000D02*
X216391666Y-73037380D01*
X216391666Y-73037380D02*
X216391666Y-72704047D01*
X216391666Y-72704047D02*
X216582142Y-72704047D01*
X215963094Y-73132619D02*
X215963094Y-72132619D01*
X215963094Y-72132619D02*
X215582142Y-72132619D01*
X215582142Y-72132619D02*
X215486904Y-72180238D01*
X215486904Y-72180238D02*
X215439285Y-72227857D01*
X215439285Y-72227857D02*
X215391666Y-72323095D01*
X215391666Y-72323095D02*
X215391666Y-72465952D01*
X215391666Y-72465952D02*
X215439285Y-72561190D01*
X215439285Y-72561190D02*
X215486904Y-72608809D01*
X215486904Y-72608809D02*
X215582142Y-72656428D01*
X215582142Y-72656428D02*
X215963094Y-72656428D01*
X214963094Y-73132619D02*
X214963094Y-72132619D01*
X214296428Y-72132619D02*
X214105952Y-72132619D01*
X214105952Y-72132619D02*
X214010714Y-72180238D01*
X214010714Y-72180238D02*
X213915476Y-72275476D01*
X213915476Y-72275476D02*
X213867857Y-72465952D01*
X213867857Y-72465952D02*
X213867857Y-72799285D01*
X213867857Y-72799285D02*
X213915476Y-72989761D01*
X213915476Y-72989761D02*
X214010714Y-73085000D01*
X214010714Y-73085000D02*
X214105952Y-73132619D01*
X214105952Y-73132619D02*
X214296428Y-73132619D01*
X214296428Y-73132619D02*
X214391666Y-73085000D01*
X214391666Y-73085000D02*
X214486904Y-72989761D01*
X214486904Y-72989761D02*
X214534523Y-72799285D01*
X214534523Y-72799285D02*
X214534523Y-72465952D01*
X214534523Y-72465952D02*
X214486904Y-72275476D01*
X214486904Y-72275476D02*
X214391666Y-72180238D01*
X214391666Y-72180238D02*
X214296428Y-72132619D01*
X213486904Y-72227857D02*
X213439285Y-72180238D01*
X213439285Y-72180238D02*
X213344047Y-72132619D01*
X213344047Y-72132619D02*
X213105952Y-72132619D01*
X213105952Y-72132619D02*
X213010714Y-72180238D01*
X213010714Y-72180238D02*
X212963095Y-72227857D01*
X212963095Y-72227857D02*
X212915476Y-72323095D01*
X212915476Y-72323095D02*
X212915476Y-72418333D01*
X212915476Y-72418333D02*
X212963095Y-72561190D01*
X212963095Y-72561190D02*
X213534523Y-73132619D01*
X213534523Y-73132619D02*
X212915476Y-73132619D01*
X215963094Y-89087000D02*
X215820237Y-89134619D01*
X215820237Y-89134619D02*
X215582142Y-89134619D01*
X215582142Y-89134619D02*
X215486904Y-89087000D01*
X215486904Y-89087000D02*
X215439285Y-89039380D01*
X215439285Y-89039380D02*
X215391666Y-88944142D01*
X215391666Y-88944142D02*
X215391666Y-88848904D01*
X215391666Y-88848904D02*
X215439285Y-88753666D01*
X215439285Y-88753666D02*
X215486904Y-88706047D01*
X215486904Y-88706047D02*
X215582142Y-88658428D01*
X215582142Y-88658428D02*
X215772618Y-88610809D01*
X215772618Y-88610809D02*
X215867856Y-88563190D01*
X215867856Y-88563190D02*
X215915475Y-88515571D01*
X215915475Y-88515571D02*
X215963094Y-88420333D01*
X215963094Y-88420333D02*
X215963094Y-88325095D01*
X215963094Y-88325095D02*
X215915475Y-88229857D01*
X215915475Y-88229857D02*
X215867856Y-88182238D01*
X215867856Y-88182238D02*
X215772618Y-88134619D01*
X215772618Y-88134619D02*
X215534523Y-88134619D01*
X215534523Y-88134619D02*
X215391666Y-88182238D01*
X214391666Y-89039380D02*
X214439285Y-89087000D01*
X214439285Y-89087000D02*
X214582142Y-89134619D01*
X214582142Y-89134619D02*
X214677380Y-89134619D01*
X214677380Y-89134619D02*
X214820237Y-89087000D01*
X214820237Y-89087000D02*
X214915475Y-88991761D01*
X214915475Y-88991761D02*
X214963094Y-88896523D01*
X214963094Y-88896523D02*
X215010713Y-88706047D01*
X215010713Y-88706047D02*
X215010713Y-88563190D01*
X215010713Y-88563190D02*
X214963094Y-88372714D01*
X214963094Y-88372714D02*
X214915475Y-88277476D01*
X214915475Y-88277476D02*
X214820237Y-88182238D01*
X214820237Y-88182238D02*
X214677380Y-88134619D01*
X214677380Y-88134619D02*
X214582142Y-88134619D01*
X214582142Y-88134619D02*
X214439285Y-88182238D01*
X214439285Y-88182238D02*
X214391666Y-88229857D01*
X213963094Y-89134619D02*
X213963094Y-88134619D01*
X213391666Y-89134619D02*
X213820237Y-88563190D01*
X213391666Y-88134619D02*
X213963094Y-88706047D01*
X212963094Y-89134619D02*
X212963094Y-88134619D01*
X215677380Y-54717619D02*
X215677380Y-53717619D01*
X215677380Y-53717619D02*
X215344047Y-54431904D01*
X215344047Y-54431904D02*
X215010714Y-53717619D01*
X215010714Y-53717619D02*
X215010714Y-54717619D01*
X214534523Y-54717619D02*
X214534523Y-53717619D01*
X214534523Y-53717619D02*
X214296428Y-53717619D01*
X214296428Y-53717619D02*
X214153571Y-53765238D01*
X214153571Y-53765238D02*
X214058333Y-53860476D01*
X214058333Y-53860476D02*
X214010714Y-53955714D01*
X214010714Y-53955714D02*
X213963095Y-54146190D01*
X213963095Y-54146190D02*
X213963095Y-54289047D01*
X213963095Y-54289047D02*
X214010714Y-54479523D01*
X214010714Y-54479523D02*
X214058333Y-54574761D01*
X214058333Y-54574761D02*
X214153571Y-54670000D01*
X214153571Y-54670000D02*
X214296428Y-54717619D01*
X214296428Y-54717619D02*
X214534523Y-54717619D01*
X213344047Y-53717619D02*
X213153571Y-53717619D01*
X213153571Y-53717619D02*
X213058333Y-53765238D01*
X213058333Y-53765238D02*
X212963095Y-53860476D01*
X212963095Y-53860476D02*
X212915476Y-54050952D01*
X212915476Y-54050952D02*
X212915476Y-54384285D01*
X212915476Y-54384285D02*
X212963095Y-54574761D01*
X212963095Y-54574761D02*
X213058333Y-54670000D01*
X213058333Y-54670000D02*
X213153571Y-54717619D01*
X213153571Y-54717619D02*
X213344047Y-54717619D01*
X213344047Y-54717619D02*
X213439285Y-54670000D01*
X213439285Y-54670000D02*
X213534523Y-54574761D01*
X213534523Y-54574761D02*
X213582142Y-54384285D01*
X213582142Y-54384285D02*
X213582142Y-54050952D01*
X213582142Y-54050952D02*
X213534523Y-53860476D01*
X213534523Y-53860476D02*
X213439285Y-53765238D01*
X213439285Y-53765238D02*
X213344047Y-53717619D01*
D12*
X206652857Y-80033428D02*
X206652857Y-78533428D01*
X206009999Y-78676285D02*
X205938571Y-78604857D01*
X205938571Y-78604857D02*
X205795714Y-78533428D01*
X205795714Y-78533428D02*
X205438571Y-78533428D01*
X205438571Y-78533428D02*
X205295714Y-78604857D01*
X205295714Y-78604857D02*
X205224285Y-78676285D01*
X205224285Y-78676285D02*
X205152856Y-78819142D01*
X205152856Y-78819142D02*
X205152856Y-78962000D01*
X205152856Y-78962000D02*
X205224285Y-79176285D01*
X205224285Y-79176285D02*
X206081428Y-80033428D01*
X206081428Y-80033428D02*
X205152856Y-80033428D01*
X204581428Y-79962000D02*
X204367143Y-80033428D01*
X204367143Y-80033428D02*
X204010000Y-80033428D01*
X204010000Y-80033428D02*
X203867143Y-79962000D01*
X203867143Y-79962000D02*
X203795714Y-79890571D01*
X203795714Y-79890571D02*
X203724285Y-79747714D01*
X203724285Y-79747714D02*
X203724285Y-79604857D01*
X203724285Y-79604857D02*
X203795714Y-79462000D01*
X203795714Y-79462000D02*
X203867143Y-79390571D01*
X203867143Y-79390571D02*
X204010000Y-79319142D01*
X204010000Y-79319142D02*
X204295714Y-79247714D01*
X204295714Y-79247714D02*
X204438571Y-79176285D01*
X204438571Y-79176285D02*
X204510000Y-79104857D01*
X204510000Y-79104857D02*
X204581428Y-78962000D01*
X204581428Y-78962000D02*
X204581428Y-78819142D01*
X204581428Y-78819142D02*
X204510000Y-78676285D01*
X204510000Y-78676285D02*
X204438571Y-78604857D01*
X204438571Y-78604857D02*
X204295714Y-78533428D01*
X204295714Y-78533428D02*
X203938571Y-78533428D01*
X203938571Y-78533428D02*
X203724285Y-78604857D01*
D10*
X215820238Y-83927619D02*
X216296428Y-83927619D01*
X216296428Y-83927619D02*
X216296428Y-82927619D01*
X214915476Y-83927619D02*
X215248809Y-83451428D01*
X215486904Y-83927619D02*
X215486904Y-82927619D01*
X215486904Y-82927619D02*
X215105952Y-82927619D01*
X215105952Y-82927619D02*
X215010714Y-82975238D01*
X215010714Y-82975238D02*
X214963095Y-83022857D01*
X214963095Y-83022857D02*
X214915476Y-83118095D01*
X214915476Y-83118095D02*
X214915476Y-83260952D01*
X214915476Y-83260952D02*
X214963095Y-83356190D01*
X214963095Y-83356190D02*
X215010714Y-83403809D01*
X215010714Y-83403809D02*
X215105952Y-83451428D01*
X215105952Y-83451428D02*
X215486904Y-83451428D01*
X213915476Y-83832380D02*
X213963095Y-83880000D01*
X213963095Y-83880000D02*
X214105952Y-83927619D01*
X214105952Y-83927619D02*
X214201190Y-83927619D01*
X214201190Y-83927619D02*
X214344047Y-83880000D01*
X214344047Y-83880000D02*
X214439285Y-83784761D01*
X214439285Y-83784761D02*
X214486904Y-83689523D01*
X214486904Y-83689523D02*
X214534523Y-83499047D01*
X214534523Y-83499047D02*
X214534523Y-83356190D01*
X214534523Y-83356190D02*
X214486904Y-83165714D01*
X214486904Y-83165714D02*
X214439285Y-83070476D01*
X214439285Y-83070476D02*
X214344047Y-82975238D01*
X214344047Y-82975238D02*
X214201190Y-82927619D01*
X214201190Y-82927619D02*
X214105952Y-82927619D01*
X214105952Y-82927619D02*
X213963095Y-82975238D01*
X213963095Y-82975238D02*
X213915476Y-83022857D01*
X213486904Y-83927619D02*
X213486904Y-82927619D01*
X212915476Y-83927619D02*
X213344047Y-83356190D01*
X212915476Y-82927619D02*
X213486904Y-83499047D01*
D13*
X211278096Y-94440238D02*
X211278096Y-96059285D01*
X211278096Y-96059285D02*
X211182858Y-96249761D01*
X211182858Y-96249761D02*
X211087620Y-96345000D01*
X211087620Y-96345000D02*
X210897144Y-96440238D01*
X210897144Y-96440238D02*
X210516191Y-96440238D01*
X210516191Y-96440238D02*
X210325715Y-96345000D01*
X210325715Y-96345000D02*
X210230477Y-96249761D01*
X210230477Y-96249761D02*
X210135239Y-96059285D01*
X210135239Y-96059285D02*
X210135239Y-94440238D01*
X209182858Y-95106904D02*
X209182858Y-96440238D01*
X209182858Y-95297380D02*
X209087620Y-95202142D01*
X209087620Y-95202142D02*
X208897144Y-95106904D01*
X208897144Y-95106904D02*
X208611429Y-95106904D01*
X208611429Y-95106904D02*
X208420953Y-95202142D01*
X208420953Y-95202142D02*
X208325715Y-95392619D01*
X208325715Y-95392619D02*
X208325715Y-96440238D01*
X207373334Y-96440238D02*
X207373334Y-95106904D01*
X207373334Y-94440238D02*
X207468572Y-94535476D01*
X207468572Y-94535476D02*
X207373334Y-94630714D01*
X207373334Y-94630714D02*
X207278096Y-94535476D01*
X207278096Y-94535476D02*
X207373334Y-94440238D01*
X207373334Y-94440238D02*
X207373334Y-94630714D01*
X206611429Y-95106904D02*
X206135239Y-96440238D01*
X206135239Y-96440238D02*
X205659048Y-95106904D01*
X204135238Y-96345000D02*
X204325714Y-96440238D01*
X204325714Y-96440238D02*
X204706667Y-96440238D01*
X204706667Y-96440238D02*
X204897143Y-96345000D01*
X204897143Y-96345000D02*
X204992381Y-96154523D01*
X204992381Y-96154523D02*
X204992381Y-95392619D01*
X204992381Y-95392619D02*
X204897143Y-95202142D01*
X204897143Y-95202142D02*
X204706667Y-95106904D01*
X204706667Y-95106904D02*
X204325714Y-95106904D01*
X204325714Y-95106904D02*
X204135238Y-95202142D01*
X204135238Y-95202142D02*
X204040000Y-95392619D01*
X204040000Y-95392619D02*
X204040000Y-95583095D01*
X204040000Y-95583095D02*
X204992381Y-95773571D01*
X203182857Y-96440238D02*
X203182857Y-95106904D01*
X203182857Y-95487857D02*
X203087619Y-95297380D01*
X203087619Y-95297380D02*
X202992381Y-95202142D01*
X202992381Y-95202142D02*
X202801905Y-95106904D01*
X202801905Y-95106904D02*
X202611428Y-95106904D01*
X202040000Y-96345000D02*
X201849524Y-96440238D01*
X201849524Y-96440238D02*
X201468572Y-96440238D01*
X201468572Y-96440238D02*
X201278095Y-96345000D01*
X201278095Y-96345000D02*
X201182857Y-96154523D01*
X201182857Y-96154523D02*
X201182857Y-96059285D01*
X201182857Y-96059285D02*
X201278095Y-95868809D01*
X201278095Y-95868809D02*
X201468572Y-95773571D01*
X201468572Y-95773571D02*
X201754286Y-95773571D01*
X201754286Y-95773571D02*
X201944762Y-95678333D01*
X201944762Y-95678333D02*
X202040000Y-95487857D01*
X202040000Y-95487857D02*
X202040000Y-95392619D01*
X202040000Y-95392619D02*
X201944762Y-95202142D01*
X201944762Y-95202142D02*
X201754286Y-95106904D01*
X201754286Y-95106904D02*
X201468572Y-95106904D01*
X201468572Y-95106904D02*
X201278095Y-95202142D01*
X200325714Y-96440238D02*
X200325714Y-95106904D01*
X200325714Y-94440238D02*
X200420952Y-94535476D01*
X200420952Y-94535476D02*
X200325714Y-94630714D01*
X200325714Y-94630714D02*
X200230476Y-94535476D01*
X200230476Y-94535476D02*
X200325714Y-94440238D01*
X200325714Y-94440238D02*
X200325714Y-94630714D01*
X199659047Y-95106904D02*
X198897143Y-95106904D01*
X199373333Y-94440238D02*
X199373333Y-96154523D01*
X199373333Y-96154523D02*
X199278095Y-96345000D01*
X199278095Y-96345000D02*
X199087619Y-96440238D01*
X199087619Y-96440238D02*
X198897143Y-96440238D01*
X198420952Y-95106904D02*
X197944762Y-96440238D01*
X197468571Y-95106904D02*
X197944762Y-96440238D01*
X197944762Y-96440238D02*
X198135238Y-96916428D01*
X198135238Y-96916428D02*
X198230476Y-97011666D01*
X198230476Y-97011666D02*
X198420952Y-97106904D01*
X194897142Y-96440238D02*
X195087618Y-96345000D01*
X195087618Y-96345000D02*
X195182856Y-96249761D01*
X195182856Y-96249761D02*
X195278094Y-96059285D01*
X195278094Y-96059285D02*
X195278094Y-95487857D01*
X195278094Y-95487857D02*
X195182856Y-95297380D01*
X195182856Y-95297380D02*
X195087618Y-95202142D01*
X195087618Y-95202142D02*
X194897142Y-95106904D01*
X194897142Y-95106904D02*
X194611427Y-95106904D01*
X194611427Y-95106904D02*
X194420951Y-95202142D01*
X194420951Y-95202142D02*
X194325713Y-95297380D01*
X194325713Y-95297380D02*
X194230475Y-95487857D01*
X194230475Y-95487857D02*
X194230475Y-96059285D01*
X194230475Y-96059285D02*
X194325713Y-96249761D01*
X194325713Y-96249761D02*
X194420951Y-96345000D01*
X194420951Y-96345000D02*
X194611427Y-96440238D01*
X194611427Y-96440238D02*
X194897142Y-96440238D01*
X193659046Y-95106904D02*
X192897142Y-95106904D01*
X193373332Y-96440238D02*
X193373332Y-94725952D01*
X193373332Y-94725952D02*
X193278094Y-94535476D01*
X193278094Y-94535476D02*
X193087618Y-94440238D01*
X193087618Y-94440238D02*
X192897142Y-94440238D01*
X190897141Y-94440238D02*
X190420951Y-96440238D01*
X190420951Y-96440238D02*
X190039998Y-95011666D01*
X190039998Y-95011666D02*
X189659046Y-96440238D01*
X189659046Y-96440238D02*
X189182856Y-94440238D01*
X187563808Y-96440238D02*
X187563808Y-95392619D01*
X187563808Y-95392619D02*
X187659046Y-95202142D01*
X187659046Y-95202142D02*
X187849522Y-95106904D01*
X187849522Y-95106904D02*
X188230475Y-95106904D01*
X188230475Y-95106904D02*
X188420951Y-95202142D01*
X187563808Y-96345000D02*
X187754284Y-96440238D01*
X187754284Y-96440238D02*
X188230475Y-96440238D01*
X188230475Y-96440238D02*
X188420951Y-96345000D01*
X188420951Y-96345000D02*
X188516189Y-96154523D01*
X188516189Y-96154523D02*
X188516189Y-95964047D01*
X188516189Y-95964047D02*
X188420951Y-95773571D01*
X188420951Y-95773571D02*
X188230475Y-95678333D01*
X188230475Y-95678333D02*
X187754284Y-95678333D01*
X187754284Y-95678333D02*
X187563808Y-95583095D01*
X186706665Y-96345000D02*
X186516189Y-96440238D01*
X186516189Y-96440238D02*
X186135237Y-96440238D01*
X186135237Y-96440238D02*
X185944760Y-96345000D01*
X185944760Y-96345000D02*
X185849522Y-96154523D01*
X185849522Y-96154523D02*
X185849522Y-96059285D01*
X185849522Y-96059285D02*
X185944760Y-95868809D01*
X185944760Y-95868809D02*
X186135237Y-95773571D01*
X186135237Y-95773571D02*
X186420951Y-95773571D01*
X186420951Y-95773571D02*
X186611427Y-95678333D01*
X186611427Y-95678333D02*
X186706665Y-95487857D01*
X186706665Y-95487857D02*
X186706665Y-95392619D01*
X186706665Y-95392619D02*
X186611427Y-95202142D01*
X186611427Y-95202142D02*
X186420951Y-95106904D01*
X186420951Y-95106904D02*
X186135237Y-95106904D01*
X186135237Y-95106904D02*
X185944760Y-95202142D01*
X184992379Y-96440238D02*
X184992379Y-94440238D01*
X184135236Y-96440238D02*
X184135236Y-95392619D01*
X184135236Y-95392619D02*
X184230474Y-95202142D01*
X184230474Y-95202142D02*
X184420950Y-95106904D01*
X184420950Y-95106904D02*
X184706665Y-95106904D01*
X184706665Y-95106904D02*
X184897141Y-95202142D01*
X184897141Y-95202142D02*
X184992379Y-95297380D01*
X183182855Y-96440238D02*
X183182855Y-95106904D01*
X183182855Y-94440238D02*
X183278093Y-94535476D01*
X183278093Y-94535476D02*
X183182855Y-94630714D01*
X183182855Y-94630714D02*
X183087617Y-94535476D01*
X183087617Y-94535476D02*
X183182855Y-94440238D01*
X183182855Y-94440238D02*
X183182855Y-94630714D01*
X182230474Y-95106904D02*
X182230474Y-96440238D01*
X182230474Y-95297380D02*
X182135236Y-95202142D01*
X182135236Y-95202142D02*
X181944760Y-95106904D01*
X181944760Y-95106904D02*
X181659045Y-95106904D01*
X181659045Y-95106904D02*
X181468569Y-95202142D01*
X181468569Y-95202142D02*
X181373331Y-95392619D01*
X181373331Y-95392619D02*
X181373331Y-96440238D01*
X179563807Y-95106904D02*
X179563807Y-96725952D01*
X179563807Y-96725952D02*
X179659045Y-96916428D01*
X179659045Y-96916428D02*
X179754283Y-97011666D01*
X179754283Y-97011666D02*
X179944760Y-97106904D01*
X179944760Y-97106904D02*
X180230474Y-97106904D01*
X180230474Y-97106904D02*
X180420950Y-97011666D01*
X179563807Y-96345000D02*
X179754283Y-96440238D01*
X179754283Y-96440238D02*
X180135236Y-96440238D01*
X180135236Y-96440238D02*
X180325712Y-96345000D01*
X180325712Y-96345000D02*
X180420950Y-96249761D01*
X180420950Y-96249761D02*
X180516188Y-96059285D01*
X180516188Y-96059285D02*
X180516188Y-95487857D01*
X180516188Y-95487857D02*
X180420950Y-95297380D01*
X180420950Y-95297380D02*
X180325712Y-95202142D01*
X180325712Y-95202142D02*
X180135236Y-95106904D01*
X180135236Y-95106904D02*
X179754283Y-95106904D01*
X179754283Y-95106904D02*
X179563807Y-95202142D01*
X178897140Y-95106904D02*
X178135236Y-95106904D01*
X178611426Y-94440238D02*
X178611426Y-96154523D01*
X178611426Y-96154523D02*
X178516188Y-96345000D01*
X178516188Y-96345000D02*
X178325712Y-96440238D01*
X178325712Y-96440238D02*
X178135236Y-96440238D01*
X177182855Y-96440238D02*
X177373331Y-96345000D01*
X177373331Y-96345000D02*
X177468569Y-96249761D01*
X177468569Y-96249761D02*
X177563807Y-96059285D01*
X177563807Y-96059285D02*
X177563807Y-95487857D01*
X177563807Y-95487857D02*
X177468569Y-95297380D01*
X177468569Y-95297380D02*
X177373331Y-95202142D01*
X177373331Y-95202142D02*
X177182855Y-95106904D01*
X177182855Y-95106904D02*
X176897140Y-95106904D01*
X176897140Y-95106904D02*
X176706664Y-95202142D01*
X176706664Y-95202142D02*
X176611426Y-95297380D01*
X176611426Y-95297380D02*
X176516188Y-95487857D01*
X176516188Y-95487857D02*
X176516188Y-96059285D01*
X176516188Y-96059285D02*
X176611426Y-96249761D01*
X176611426Y-96249761D02*
X176706664Y-96345000D01*
X176706664Y-96345000D02*
X176897140Y-96440238D01*
X176897140Y-96440238D02*
X177182855Y-96440238D01*
X175659045Y-95106904D02*
X175659045Y-96440238D01*
X175659045Y-95297380D02*
X175563807Y-95202142D01*
X175563807Y-95202142D02*
X175373331Y-95106904D01*
X175373331Y-95106904D02*
X175087616Y-95106904D01*
X175087616Y-95106904D02*
X174897140Y-95202142D01*
X174897140Y-95202142D02*
X174801902Y-95392619D01*
X174801902Y-95392619D02*
X174801902Y-96440238D01*
X213468572Y-98632619D02*
X212801905Y-98632619D01*
X212516191Y-99680238D02*
X213468572Y-99680238D01*
X213468572Y-99680238D02*
X213468572Y-97680238D01*
X213468572Y-97680238D02*
X212516191Y-97680238D01*
X211659048Y-99680238D02*
X211659048Y-97680238D01*
X211659048Y-97680238D02*
X210516191Y-99680238D01*
X210516191Y-99680238D02*
X210516191Y-97680238D01*
X208516191Y-97775476D02*
X208706667Y-97680238D01*
X208706667Y-97680238D02*
X208992381Y-97680238D01*
X208992381Y-97680238D02*
X209278096Y-97775476D01*
X209278096Y-97775476D02*
X209468572Y-97965952D01*
X209468572Y-97965952D02*
X209563810Y-98156428D01*
X209563810Y-98156428D02*
X209659048Y-98537380D01*
X209659048Y-98537380D02*
X209659048Y-98823095D01*
X209659048Y-98823095D02*
X209563810Y-99204047D01*
X209563810Y-99204047D02*
X209468572Y-99394523D01*
X209468572Y-99394523D02*
X209278096Y-99585000D01*
X209278096Y-99585000D02*
X208992381Y-99680238D01*
X208992381Y-99680238D02*
X208801905Y-99680238D01*
X208801905Y-99680238D02*
X208516191Y-99585000D01*
X208516191Y-99585000D02*
X208420953Y-99489761D01*
X208420953Y-99489761D02*
X208420953Y-98823095D01*
X208420953Y-98823095D02*
X208801905Y-98823095D01*
X207563810Y-99680238D02*
X207563810Y-97680238D01*
X206611429Y-99680238D02*
X206611429Y-97680238D01*
X206611429Y-97680238D02*
X205468572Y-99680238D01*
X205468572Y-99680238D02*
X205468572Y-97680238D01*
X204516191Y-98632619D02*
X203849524Y-98632619D01*
X203563810Y-99680238D02*
X204516191Y-99680238D01*
X204516191Y-99680238D02*
X204516191Y-97680238D01*
X204516191Y-97680238D02*
X203563810Y-97680238D01*
X201278095Y-97870714D02*
X201182857Y-97775476D01*
X201182857Y-97775476D02*
X200992381Y-97680238D01*
X200992381Y-97680238D02*
X200516190Y-97680238D01*
X200516190Y-97680238D02*
X200325714Y-97775476D01*
X200325714Y-97775476D02*
X200230476Y-97870714D01*
X200230476Y-97870714D02*
X200135238Y-98061190D01*
X200135238Y-98061190D02*
X200135238Y-98251666D01*
X200135238Y-98251666D02*
X200230476Y-98537380D01*
X200230476Y-98537380D02*
X201373333Y-99680238D01*
X201373333Y-99680238D02*
X200135238Y-99680238D01*
X198897143Y-97680238D02*
X198706666Y-97680238D01*
X198706666Y-97680238D02*
X198516190Y-97775476D01*
X198516190Y-97775476D02*
X198420952Y-97870714D01*
X198420952Y-97870714D02*
X198325714Y-98061190D01*
X198325714Y-98061190D02*
X198230476Y-98442142D01*
X198230476Y-98442142D02*
X198230476Y-98918333D01*
X198230476Y-98918333D02*
X198325714Y-99299285D01*
X198325714Y-99299285D02*
X198420952Y-99489761D01*
X198420952Y-99489761D02*
X198516190Y-99585000D01*
X198516190Y-99585000D02*
X198706666Y-99680238D01*
X198706666Y-99680238D02*
X198897143Y-99680238D01*
X198897143Y-99680238D02*
X199087619Y-99585000D01*
X199087619Y-99585000D02*
X199182857Y-99489761D01*
X199182857Y-99489761D02*
X199278095Y-99299285D01*
X199278095Y-99299285D02*
X199373333Y-98918333D01*
X199373333Y-98918333D02*
X199373333Y-98442142D01*
X199373333Y-98442142D02*
X199278095Y-98061190D01*
X199278095Y-98061190D02*
X199182857Y-97870714D01*
X199182857Y-97870714D02*
X199087619Y-97775476D01*
X199087619Y-97775476D02*
X198897143Y-97680238D01*
X197468571Y-97870714D02*
X197373333Y-97775476D01*
X197373333Y-97775476D02*
X197182857Y-97680238D01*
X197182857Y-97680238D02*
X196706666Y-97680238D01*
X196706666Y-97680238D02*
X196516190Y-97775476D01*
X196516190Y-97775476D02*
X196420952Y-97870714D01*
X196420952Y-97870714D02*
X196325714Y-98061190D01*
X196325714Y-98061190D02*
X196325714Y-98251666D01*
X196325714Y-98251666D02*
X196420952Y-98537380D01*
X196420952Y-98537380D02*
X197563809Y-99680238D01*
X197563809Y-99680238D02*
X196325714Y-99680238D01*
X195659047Y-97680238D02*
X194420952Y-97680238D01*
X194420952Y-97680238D02*
X195087619Y-98442142D01*
X195087619Y-98442142D02*
X194801904Y-98442142D01*
X194801904Y-98442142D02*
X194611428Y-98537380D01*
X194611428Y-98537380D02*
X194516190Y-98632619D01*
X194516190Y-98632619D02*
X194420952Y-98823095D01*
X194420952Y-98823095D02*
X194420952Y-99299285D01*
X194420952Y-99299285D02*
X194516190Y-99489761D01*
X194516190Y-99489761D02*
X194611428Y-99585000D01*
X194611428Y-99585000D02*
X194801904Y-99680238D01*
X194801904Y-99680238D02*
X195373333Y-99680238D01*
X195373333Y-99680238D02*
X195563809Y-99585000D01*
X195563809Y-99585000D02*
X195659047Y-99489761D01*
X192039999Y-98918333D02*
X190516190Y-98918333D01*
X186897142Y-99489761D02*
X186992380Y-99585000D01*
X186992380Y-99585000D02*
X187278094Y-99680238D01*
X187278094Y-99680238D02*
X187468570Y-99680238D01*
X187468570Y-99680238D02*
X187754285Y-99585000D01*
X187754285Y-99585000D02*
X187944761Y-99394523D01*
X187944761Y-99394523D02*
X188039999Y-99204047D01*
X188039999Y-99204047D02*
X188135237Y-98823095D01*
X188135237Y-98823095D02*
X188135237Y-98537380D01*
X188135237Y-98537380D02*
X188039999Y-98156428D01*
X188039999Y-98156428D02*
X187944761Y-97965952D01*
X187944761Y-97965952D02*
X187754285Y-97775476D01*
X187754285Y-97775476D02*
X187468570Y-97680238D01*
X187468570Y-97680238D02*
X187278094Y-97680238D01*
X187278094Y-97680238D02*
X186992380Y-97775476D01*
X186992380Y-97775476D02*
X186897142Y-97870714D01*
X186039999Y-99680238D02*
X186039999Y-97680238D01*
X185182856Y-99680238D02*
X185182856Y-98632619D01*
X185182856Y-98632619D02*
X185278094Y-98442142D01*
X185278094Y-98442142D02*
X185468570Y-98346904D01*
X185468570Y-98346904D02*
X185754285Y-98346904D01*
X185754285Y-98346904D02*
X185944761Y-98442142D01*
X185944761Y-98442142D02*
X186039999Y-98537380D01*
X183373332Y-99680238D02*
X183373332Y-98632619D01*
X183373332Y-98632619D02*
X183468570Y-98442142D01*
X183468570Y-98442142D02*
X183659046Y-98346904D01*
X183659046Y-98346904D02*
X184039999Y-98346904D01*
X184039999Y-98346904D02*
X184230475Y-98442142D01*
X183373332Y-99585000D02*
X183563808Y-99680238D01*
X183563808Y-99680238D02*
X184039999Y-99680238D01*
X184039999Y-99680238D02*
X184230475Y-99585000D01*
X184230475Y-99585000D02*
X184325713Y-99394523D01*
X184325713Y-99394523D02*
X184325713Y-99204047D01*
X184325713Y-99204047D02*
X184230475Y-99013571D01*
X184230475Y-99013571D02*
X184039999Y-98918333D01*
X184039999Y-98918333D02*
X183563808Y-98918333D01*
X183563808Y-98918333D02*
X183373332Y-98823095D01*
X182420951Y-99680238D02*
X182420951Y-98346904D01*
X182420951Y-98537380D02*
X182325713Y-98442142D01*
X182325713Y-98442142D02*
X182135237Y-98346904D01*
X182135237Y-98346904D02*
X181849522Y-98346904D01*
X181849522Y-98346904D02*
X181659046Y-98442142D01*
X181659046Y-98442142D02*
X181563808Y-98632619D01*
X181563808Y-98632619D02*
X181563808Y-99680238D01*
X181563808Y-98632619D02*
X181468570Y-98442142D01*
X181468570Y-98442142D02*
X181278094Y-98346904D01*
X181278094Y-98346904D02*
X180992380Y-98346904D01*
X180992380Y-98346904D02*
X180801903Y-98442142D01*
X180801903Y-98442142D02*
X180706665Y-98632619D01*
X180706665Y-98632619D02*
X180706665Y-99680238D01*
X178992379Y-99585000D02*
X179182855Y-99680238D01*
X179182855Y-99680238D02*
X179563808Y-99680238D01*
X179563808Y-99680238D02*
X179754284Y-99585000D01*
X179754284Y-99585000D02*
X179849522Y-99394523D01*
X179849522Y-99394523D02*
X179849522Y-98632619D01*
X179849522Y-98632619D02*
X179754284Y-98442142D01*
X179754284Y-98442142D02*
X179563808Y-98346904D01*
X179563808Y-98346904D02*
X179182855Y-98346904D01*
X179182855Y-98346904D02*
X178992379Y-98442142D01*
X178992379Y-98442142D02*
X178897141Y-98632619D01*
X178897141Y-98632619D02*
X178897141Y-98823095D01*
X178897141Y-98823095D02*
X179849522Y-99013571D01*
X177754284Y-99680238D02*
X177944760Y-99585000D01*
X177944760Y-99585000D02*
X178039998Y-99394523D01*
X178039998Y-99394523D02*
X178039998Y-97680238D01*
X176230474Y-99585000D02*
X176420950Y-99680238D01*
X176420950Y-99680238D02*
X176801903Y-99680238D01*
X176801903Y-99680238D02*
X176992379Y-99585000D01*
X176992379Y-99585000D02*
X177087617Y-99394523D01*
X177087617Y-99394523D02*
X177087617Y-98632619D01*
X177087617Y-98632619D02*
X176992379Y-98442142D01*
X176992379Y-98442142D02*
X176801903Y-98346904D01*
X176801903Y-98346904D02*
X176420950Y-98346904D01*
X176420950Y-98346904D02*
X176230474Y-98442142D01*
X176230474Y-98442142D02*
X176135236Y-98632619D01*
X176135236Y-98632619D02*
X176135236Y-98823095D01*
X176135236Y-98823095D02*
X177087617Y-99013571D01*
X174992379Y-99680238D02*
X175182855Y-99585000D01*
X175182855Y-99585000D02*
X175278093Y-99489761D01*
X175278093Y-99489761D02*
X175373331Y-99299285D01*
X175373331Y-99299285D02*
X175373331Y-98727857D01*
X175373331Y-98727857D02*
X175278093Y-98537380D01*
X175278093Y-98537380D02*
X175182855Y-98442142D01*
X175182855Y-98442142D02*
X174992379Y-98346904D01*
X174992379Y-98346904D02*
X174706664Y-98346904D01*
X174706664Y-98346904D02*
X174516188Y-98442142D01*
X174516188Y-98442142D02*
X174420950Y-98537380D01*
X174420950Y-98537380D02*
X174325712Y-98727857D01*
X174325712Y-98727857D02*
X174325712Y-99299285D01*
X174325712Y-99299285D02*
X174420950Y-99489761D01*
X174420950Y-99489761D02*
X174516188Y-99585000D01*
X174516188Y-99585000D02*
X174706664Y-99680238D01*
X174706664Y-99680238D02*
X174992379Y-99680238D01*
X173468569Y-98346904D02*
X173468569Y-99680238D01*
X173468569Y-98537380D02*
X173373331Y-98442142D01*
X173373331Y-98442142D02*
X173182855Y-98346904D01*
X173182855Y-98346904D02*
X172897140Y-98346904D01*
X172897140Y-98346904D02*
X172706664Y-98442142D01*
X172706664Y-98442142D02*
X172611426Y-98632619D01*
X172611426Y-98632619D02*
X172611426Y-99680238D01*
D10*
X208724523Y-38206904D02*
X208248333Y-38206904D01*
X208819761Y-38492619D02*
X208486428Y-37492619D01*
X208486428Y-37492619D02*
X208153095Y-38492619D01*
X207819761Y-38492619D02*
X207819761Y-37825952D01*
X207819761Y-38016428D02*
X207772142Y-37921190D01*
X207772142Y-37921190D02*
X207724523Y-37873571D01*
X207724523Y-37873571D02*
X207629285Y-37825952D01*
X207629285Y-37825952D02*
X207534047Y-37825952D01*
X207343570Y-37825952D02*
X206962618Y-37825952D01*
X207200713Y-37492619D02*
X207200713Y-38349761D01*
X207200713Y-38349761D02*
X207153094Y-38445000D01*
X207153094Y-38445000D02*
X207057856Y-38492619D01*
X207057856Y-38492619D02*
X206962618Y-38492619D01*
X206724522Y-37825952D02*
X206534046Y-38492619D01*
X206534046Y-38492619D02*
X206343570Y-38016428D01*
X206343570Y-38016428D02*
X206153094Y-38492619D01*
X206153094Y-38492619D02*
X205962618Y-37825952D01*
X205438808Y-38492619D02*
X205534046Y-38445000D01*
X205534046Y-38445000D02*
X205581665Y-38397380D01*
X205581665Y-38397380D02*
X205629284Y-38302142D01*
X205629284Y-38302142D02*
X205629284Y-38016428D01*
X205629284Y-38016428D02*
X205581665Y-37921190D01*
X205581665Y-37921190D02*
X205534046Y-37873571D01*
X205534046Y-37873571D02*
X205438808Y-37825952D01*
X205438808Y-37825952D02*
X205295951Y-37825952D01*
X205295951Y-37825952D02*
X205200713Y-37873571D01*
X205200713Y-37873571D02*
X205153094Y-37921190D01*
X205153094Y-37921190D02*
X205105475Y-38016428D01*
X205105475Y-38016428D02*
X205105475Y-38302142D01*
X205105475Y-38302142D02*
X205153094Y-38397380D01*
X205153094Y-38397380D02*
X205200713Y-38445000D01*
X205200713Y-38445000D02*
X205295951Y-38492619D01*
X205295951Y-38492619D02*
X205438808Y-38492619D01*
X204676903Y-38492619D02*
X204676903Y-37825952D01*
X204676903Y-38016428D02*
X204629284Y-37921190D01*
X204629284Y-37921190D02*
X204581665Y-37873571D01*
X204581665Y-37873571D02*
X204486427Y-37825952D01*
X204486427Y-37825952D02*
X204391189Y-37825952D01*
X204057855Y-38492619D02*
X204057855Y-37492619D01*
X203962617Y-38111666D02*
X203676903Y-38492619D01*
X203676903Y-37825952D02*
X204057855Y-38206904D01*
X202486426Y-38492619D02*
X202486426Y-37492619D01*
X202486426Y-37873571D02*
X202391188Y-37825952D01*
X202391188Y-37825952D02*
X202200712Y-37825952D01*
X202200712Y-37825952D02*
X202105474Y-37873571D01*
X202105474Y-37873571D02*
X202057855Y-37921190D01*
X202057855Y-37921190D02*
X202010236Y-38016428D01*
X202010236Y-38016428D02*
X202010236Y-38302142D01*
X202010236Y-38302142D02*
X202057855Y-38397380D01*
X202057855Y-38397380D02*
X202105474Y-38445000D01*
X202105474Y-38445000D02*
X202200712Y-38492619D01*
X202200712Y-38492619D02*
X202391188Y-38492619D01*
X202391188Y-38492619D02*
X202486426Y-38445000D01*
X201676902Y-37825952D02*
X201438807Y-38492619D01*
X201200712Y-37825952D02*
X201438807Y-38492619D01*
X201438807Y-38492619D02*
X201534045Y-38730714D01*
X201534045Y-38730714D02*
X201581664Y-38778333D01*
X201581664Y-38778333D02*
X201676902Y-38825952D01*
X200819759Y-38397380D02*
X200772140Y-38445000D01*
X200772140Y-38445000D02*
X200819759Y-38492619D01*
X200819759Y-38492619D02*
X200867378Y-38445000D01*
X200867378Y-38445000D02*
X200819759Y-38397380D01*
X200819759Y-38397380D02*
X200819759Y-38492619D01*
X200819759Y-37873571D02*
X200772140Y-37921190D01*
X200772140Y-37921190D02*
X200819759Y-37968809D01*
X200819759Y-37968809D02*
X200867378Y-37921190D01*
X200867378Y-37921190D02*
X200819759Y-37873571D01*
X200819759Y-37873571D02*
X200819759Y-37968809D01*
X208819761Y-39112619D02*
X208248333Y-39112619D01*
X208534047Y-40112619D02*
X208534047Y-39112619D01*
X207914999Y-40112619D02*
X207914999Y-39445952D01*
X207914999Y-39636428D02*
X207867380Y-39541190D01*
X207867380Y-39541190D02*
X207819761Y-39493571D01*
X207819761Y-39493571D02*
X207724523Y-39445952D01*
X207724523Y-39445952D02*
X207629285Y-39445952D01*
X207295951Y-40112619D02*
X207295951Y-39445952D01*
X207295951Y-39112619D02*
X207343570Y-39160238D01*
X207343570Y-39160238D02*
X207295951Y-39207857D01*
X207295951Y-39207857D02*
X207248332Y-39160238D01*
X207248332Y-39160238D02*
X207295951Y-39112619D01*
X207295951Y-39112619D02*
X207295951Y-39207857D01*
X206819761Y-39445952D02*
X206819761Y-40112619D01*
X206819761Y-39541190D02*
X206772142Y-39493571D01*
X206772142Y-39493571D02*
X206676904Y-39445952D01*
X206676904Y-39445952D02*
X206534047Y-39445952D01*
X206534047Y-39445952D02*
X206438809Y-39493571D01*
X206438809Y-39493571D02*
X206391190Y-39588809D01*
X206391190Y-39588809D02*
X206391190Y-40112619D01*
X205486428Y-40112619D02*
X205486428Y-39588809D01*
X205486428Y-39588809D02*
X205534047Y-39493571D01*
X205534047Y-39493571D02*
X205629285Y-39445952D01*
X205629285Y-39445952D02*
X205819761Y-39445952D01*
X205819761Y-39445952D02*
X205914999Y-39493571D01*
X205486428Y-40065000D02*
X205581666Y-40112619D01*
X205581666Y-40112619D02*
X205819761Y-40112619D01*
X205819761Y-40112619D02*
X205914999Y-40065000D01*
X205914999Y-40065000D02*
X205962618Y-39969761D01*
X205962618Y-39969761D02*
X205962618Y-39874523D01*
X205962618Y-39874523D02*
X205914999Y-39779285D01*
X205914999Y-39779285D02*
X205819761Y-39731666D01*
X205819761Y-39731666D02*
X205581666Y-39731666D01*
X205581666Y-39731666D02*
X205486428Y-39684047D01*
X204248332Y-40112619D02*
X204248332Y-39112619D01*
X203676904Y-40112619D02*
X204105475Y-39541190D01*
X203676904Y-39112619D02*
X204248332Y-39684047D01*
X203248332Y-40112619D02*
X203248332Y-39112619D01*
X202819761Y-40112619D02*
X202819761Y-39588809D01*
X202819761Y-39588809D02*
X202867380Y-39493571D01*
X202867380Y-39493571D02*
X202962618Y-39445952D01*
X202962618Y-39445952D02*
X203105475Y-39445952D01*
X203105475Y-39445952D02*
X203200713Y-39493571D01*
X203200713Y-39493571D02*
X203248332Y-39541190D01*
X201914999Y-40112619D02*
X201914999Y-39588809D01*
X201914999Y-39588809D02*
X201962618Y-39493571D01*
X201962618Y-39493571D02*
X202057856Y-39445952D01*
X202057856Y-39445952D02*
X202248332Y-39445952D01*
X202248332Y-39445952D02*
X202343570Y-39493571D01*
X201914999Y-40065000D02*
X202010237Y-40112619D01*
X202010237Y-40112619D02*
X202248332Y-40112619D01*
X202248332Y-40112619D02*
X202343570Y-40065000D01*
X202343570Y-40065000D02*
X202391189Y-39969761D01*
X202391189Y-39969761D02*
X202391189Y-39874523D01*
X202391189Y-39874523D02*
X202343570Y-39779285D01*
X202343570Y-39779285D02*
X202248332Y-39731666D01*
X202248332Y-39731666D02*
X202010237Y-39731666D01*
X202010237Y-39731666D02*
X201914999Y-39684047D01*
D13*
X207547857Y-103488809D02*
X206595476Y-103488809D01*
X207738333Y-104060238D02*
X207071667Y-102060238D01*
X207071667Y-102060238D02*
X206405000Y-104060238D01*
X205738333Y-104060238D02*
X205738333Y-102060238D01*
X205738333Y-102060238D02*
X205262143Y-102060238D01*
X205262143Y-102060238D02*
X204976428Y-102155476D01*
X204976428Y-102155476D02*
X204785952Y-102345952D01*
X204785952Y-102345952D02*
X204690714Y-102536428D01*
X204690714Y-102536428D02*
X204595476Y-102917380D01*
X204595476Y-102917380D02*
X204595476Y-103203095D01*
X204595476Y-103203095D02*
X204690714Y-103584047D01*
X204690714Y-103584047D02*
X204785952Y-103774523D01*
X204785952Y-103774523D02*
X204976428Y-103965000D01*
X204976428Y-103965000D02*
X205262143Y-104060238D01*
X205262143Y-104060238D02*
X205738333Y-104060238D01*
X202595476Y-103869761D02*
X202690714Y-103965000D01*
X202690714Y-103965000D02*
X202976428Y-104060238D01*
X202976428Y-104060238D02*
X203166904Y-104060238D01*
X203166904Y-104060238D02*
X203452619Y-103965000D01*
X203452619Y-103965000D02*
X203643095Y-103774523D01*
X203643095Y-103774523D02*
X203738333Y-103584047D01*
X203738333Y-103584047D02*
X203833571Y-103203095D01*
X203833571Y-103203095D02*
X203833571Y-102917380D01*
X203833571Y-102917380D02*
X203738333Y-102536428D01*
X203738333Y-102536428D02*
X203643095Y-102345952D01*
X203643095Y-102345952D02*
X203452619Y-102155476D01*
X203452619Y-102155476D02*
X203166904Y-102060238D01*
X203166904Y-102060238D02*
X202976428Y-102060238D01*
X202976428Y-102060238D02*
X202690714Y-102155476D01*
X202690714Y-102155476D02*
X202595476Y-102250714D01*
X200214523Y-103298333D02*
X198690714Y-103298333D01*
X196214523Y-104060238D02*
X196214523Y-102060238D01*
X196214523Y-102060238D02*
X195452618Y-102060238D01*
X195452618Y-102060238D02*
X195262142Y-102155476D01*
X195262142Y-102155476D02*
X195166904Y-102250714D01*
X195166904Y-102250714D02*
X195071666Y-102441190D01*
X195071666Y-102441190D02*
X195071666Y-102726904D01*
X195071666Y-102726904D02*
X195166904Y-102917380D01*
X195166904Y-102917380D02*
X195262142Y-103012619D01*
X195262142Y-103012619D02*
X195452618Y-103107857D01*
X195452618Y-103107857D02*
X196214523Y-103107857D01*
X193071666Y-103869761D02*
X193166904Y-103965000D01*
X193166904Y-103965000D02*
X193452618Y-104060238D01*
X193452618Y-104060238D02*
X193643094Y-104060238D01*
X193643094Y-104060238D02*
X193928809Y-103965000D01*
X193928809Y-103965000D02*
X194119285Y-103774523D01*
X194119285Y-103774523D02*
X194214523Y-103584047D01*
X194214523Y-103584047D02*
X194309761Y-103203095D01*
X194309761Y-103203095D02*
X194309761Y-102917380D01*
X194309761Y-102917380D02*
X194214523Y-102536428D01*
X194214523Y-102536428D02*
X194119285Y-102345952D01*
X194119285Y-102345952D02*
X193928809Y-102155476D01*
X193928809Y-102155476D02*
X193643094Y-102060238D01*
X193643094Y-102060238D02*
X193452618Y-102060238D01*
X193452618Y-102060238D02*
X193166904Y-102155476D01*
X193166904Y-102155476D02*
X193071666Y-102250714D01*
X192214523Y-104060238D02*
X192214523Y-102060238D01*
X192214523Y-102060238D02*
X191547856Y-103488809D01*
X191547856Y-103488809D02*
X190881190Y-102060238D01*
X190881190Y-102060238D02*
X190881190Y-104060238D01*
X188881190Y-104060238D02*
X190024047Y-104060238D01*
X189452619Y-104060238D02*
X189452619Y-102060238D01*
X189452619Y-102060238D02*
X189643095Y-102345952D01*
X189643095Y-102345952D02*
X189833571Y-102536428D01*
X189833571Y-102536428D02*
X190024047Y-102631666D01*
X187738333Y-102917380D02*
X187928809Y-102822142D01*
X187928809Y-102822142D02*
X188024047Y-102726904D01*
X188024047Y-102726904D02*
X188119285Y-102536428D01*
X188119285Y-102536428D02*
X188119285Y-102441190D01*
X188119285Y-102441190D02*
X188024047Y-102250714D01*
X188024047Y-102250714D02*
X187928809Y-102155476D01*
X187928809Y-102155476D02*
X187738333Y-102060238D01*
X187738333Y-102060238D02*
X187357380Y-102060238D01*
X187357380Y-102060238D02*
X187166904Y-102155476D01*
X187166904Y-102155476D02*
X187071666Y-102250714D01*
X187071666Y-102250714D02*
X186976428Y-102441190D01*
X186976428Y-102441190D02*
X186976428Y-102536428D01*
X186976428Y-102536428D02*
X187071666Y-102726904D01*
X187071666Y-102726904D02*
X187166904Y-102822142D01*
X187166904Y-102822142D02*
X187357380Y-102917380D01*
X187357380Y-102917380D02*
X187738333Y-102917380D01*
X187738333Y-102917380D02*
X187928809Y-103012619D01*
X187928809Y-103012619D02*
X188024047Y-103107857D01*
X188024047Y-103107857D02*
X188119285Y-103298333D01*
X188119285Y-103298333D02*
X188119285Y-103679285D01*
X188119285Y-103679285D02*
X188024047Y-103869761D01*
X188024047Y-103869761D02*
X187928809Y-103965000D01*
X187928809Y-103965000D02*
X187738333Y-104060238D01*
X187738333Y-104060238D02*
X187357380Y-104060238D01*
X187357380Y-104060238D02*
X187166904Y-103965000D01*
X187166904Y-103965000D02*
X187071666Y-103869761D01*
X187071666Y-103869761D02*
X186976428Y-103679285D01*
X186976428Y-103679285D02*
X186976428Y-103298333D01*
X186976428Y-103298333D02*
X187071666Y-103107857D01*
X187071666Y-103107857D02*
X187166904Y-103012619D01*
X187166904Y-103012619D02*
X187357380Y-102917380D01*
X185262142Y-102060238D02*
X185643095Y-102060238D01*
X185643095Y-102060238D02*
X185833571Y-102155476D01*
X185833571Y-102155476D02*
X185928809Y-102250714D01*
X185928809Y-102250714D02*
X186119285Y-102536428D01*
X186119285Y-102536428D02*
X186214523Y-102917380D01*
X186214523Y-102917380D02*
X186214523Y-103679285D01*
X186214523Y-103679285D02*
X186119285Y-103869761D01*
X186119285Y-103869761D02*
X186024047Y-103965000D01*
X186024047Y-103965000D02*
X185833571Y-104060238D01*
X185833571Y-104060238D02*
X185452618Y-104060238D01*
X185452618Y-104060238D02*
X185262142Y-103965000D01*
X185262142Y-103965000D02*
X185166904Y-103869761D01*
X185166904Y-103869761D02*
X185071666Y-103679285D01*
X185071666Y-103679285D02*
X185071666Y-103203095D01*
X185071666Y-103203095D02*
X185166904Y-103012619D01*
X185166904Y-103012619D02*
X185262142Y-102917380D01*
X185262142Y-102917380D02*
X185452618Y-102822142D01*
X185452618Y-102822142D02*
X185833571Y-102822142D01*
X185833571Y-102822142D02*
X186024047Y-102917380D01*
X186024047Y-102917380D02*
X186119285Y-103012619D01*
X186119285Y-103012619D02*
X186214523Y-103203095D01*
X184404999Y-102060238D02*
X183166904Y-102060238D01*
X183166904Y-102060238D02*
X183833571Y-102822142D01*
X183833571Y-102822142D02*
X183547856Y-102822142D01*
X183547856Y-102822142D02*
X183357380Y-102917380D01*
X183357380Y-102917380D02*
X183262142Y-103012619D01*
X183262142Y-103012619D02*
X183166904Y-103203095D01*
X183166904Y-103203095D02*
X183166904Y-103679285D01*
X183166904Y-103679285D02*
X183262142Y-103869761D01*
X183262142Y-103869761D02*
X183357380Y-103965000D01*
X183357380Y-103965000D02*
X183547856Y-104060238D01*
X183547856Y-104060238D02*
X184119285Y-104060238D01*
X184119285Y-104060238D02*
X184309761Y-103965000D01*
X184309761Y-103965000D02*
X184404999Y-103869761D01*
X180976427Y-102726904D02*
X180500237Y-104060238D01*
X180500237Y-104060238D02*
X180024046Y-102726904D01*
X179262141Y-103869761D02*
X179166903Y-103965000D01*
X179166903Y-103965000D02*
X179262141Y-104060238D01*
X179262141Y-104060238D02*
X179357379Y-103965000D01*
X179357379Y-103965000D02*
X179262141Y-103869761D01*
X179262141Y-103869761D02*
X179262141Y-104060238D01*
X178500236Y-102060238D02*
X177166903Y-102060238D01*
X177166903Y-102060238D02*
X178024046Y-104060238D01*
X211690715Y-107300238D02*
X211690715Y-105300238D01*
X211690715Y-105300238D02*
X210547858Y-107300238D01*
X210547858Y-107300238D02*
X210547858Y-105300238D01*
X208738334Y-107300238D02*
X208738334Y-106252619D01*
X208738334Y-106252619D02*
X208833572Y-106062142D01*
X208833572Y-106062142D02*
X209024048Y-105966904D01*
X209024048Y-105966904D02*
X209405001Y-105966904D01*
X209405001Y-105966904D02*
X209595477Y-106062142D01*
X208738334Y-107205000D02*
X208928810Y-107300238D01*
X208928810Y-107300238D02*
X209405001Y-107300238D01*
X209405001Y-107300238D02*
X209595477Y-107205000D01*
X209595477Y-107205000D02*
X209690715Y-107014523D01*
X209690715Y-107014523D02*
X209690715Y-106824047D01*
X209690715Y-106824047D02*
X209595477Y-106633571D01*
X209595477Y-106633571D02*
X209405001Y-106538333D01*
X209405001Y-106538333D02*
X208928810Y-106538333D01*
X208928810Y-106538333D02*
X208738334Y-106443095D01*
X208071667Y-105966904D02*
X207309763Y-105966904D01*
X207785953Y-105300238D02*
X207785953Y-107014523D01*
X207785953Y-107014523D02*
X207690715Y-107205000D01*
X207690715Y-107205000D02*
X207500239Y-107300238D01*
X207500239Y-107300238D02*
X207309763Y-107300238D01*
X206643096Y-107300238D02*
X206643096Y-105300238D01*
X205785953Y-107300238D02*
X205785953Y-106252619D01*
X205785953Y-106252619D02*
X205881191Y-106062142D01*
X205881191Y-106062142D02*
X206071667Y-105966904D01*
X206071667Y-105966904D02*
X206357382Y-105966904D01*
X206357382Y-105966904D02*
X206547858Y-106062142D01*
X206547858Y-106062142D02*
X206643096Y-106157380D01*
X203976429Y-107300238D02*
X203976429Y-106252619D01*
X203976429Y-106252619D02*
X204071667Y-106062142D01*
X204071667Y-106062142D02*
X204262143Y-105966904D01*
X204262143Y-105966904D02*
X204643096Y-105966904D01*
X204643096Y-105966904D02*
X204833572Y-106062142D01*
X203976429Y-107205000D02*
X204166905Y-107300238D01*
X204166905Y-107300238D02*
X204643096Y-107300238D01*
X204643096Y-107300238D02*
X204833572Y-107205000D01*
X204833572Y-107205000D02*
X204928810Y-107014523D01*
X204928810Y-107014523D02*
X204928810Y-106824047D01*
X204928810Y-106824047D02*
X204833572Y-106633571D01*
X204833572Y-106633571D02*
X204643096Y-106538333D01*
X204643096Y-106538333D02*
X204166905Y-106538333D01*
X204166905Y-106538333D02*
X203976429Y-106443095D01*
X203024048Y-105966904D02*
X203024048Y-107300238D01*
X203024048Y-106157380D02*
X202928810Y-106062142D01*
X202928810Y-106062142D02*
X202738334Y-105966904D01*
X202738334Y-105966904D02*
X202452619Y-105966904D01*
X202452619Y-105966904D02*
X202262143Y-106062142D01*
X202262143Y-106062142D02*
X202166905Y-106252619D01*
X202166905Y-106252619D02*
X202166905Y-107300238D01*
X199024047Y-106252619D02*
X199690714Y-106252619D01*
X199690714Y-107300238D02*
X199690714Y-105300238D01*
X199690714Y-105300238D02*
X198738333Y-105300238D01*
X197690714Y-107300238D02*
X197881190Y-107205000D01*
X197881190Y-107205000D02*
X197976428Y-107109761D01*
X197976428Y-107109761D02*
X198071666Y-106919285D01*
X198071666Y-106919285D02*
X198071666Y-106347857D01*
X198071666Y-106347857D02*
X197976428Y-106157380D01*
X197976428Y-106157380D02*
X197881190Y-106062142D01*
X197881190Y-106062142D02*
X197690714Y-105966904D01*
X197690714Y-105966904D02*
X197404999Y-105966904D01*
X197404999Y-105966904D02*
X197214523Y-106062142D01*
X197214523Y-106062142D02*
X197119285Y-106157380D01*
X197119285Y-106157380D02*
X197024047Y-106347857D01*
X197024047Y-106347857D02*
X197024047Y-106919285D01*
X197024047Y-106919285D02*
X197119285Y-107109761D01*
X197119285Y-107109761D02*
X197214523Y-107205000D01*
X197214523Y-107205000D02*
X197404999Y-107300238D01*
X197404999Y-107300238D02*
X197690714Y-107300238D01*
X196166904Y-107300238D02*
X196166904Y-105966904D01*
X196166904Y-106347857D02*
X196071666Y-106157380D01*
X196071666Y-106157380D02*
X195976428Y-106062142D01*
X195976428Y-106062142D02*
X195785952Y-105966904D01*
X195785952Y-105966904D02*
X195595475Y-105966904D01*
X194071666Y-107300238D02*
X194071666Y-105300238D01*
X194071666Y-107205000D02*
X194262142Y-107300238D01*
X194262142Y-107300238D02*
X194643095Y-107300238D01*
X194643095Y-107300238D02*
X194833571Y-107205000D01*
X194833571Y-107205000D02*
X194928809Y-107109761D01*
X194928809Y-107109761D02*
X195024047Y-106919285D01*
X195024047Y-106919285D02*
X195024047Y-106347857D01*
X195024047Y-106347857D02*
X194928809Y-106157380D01*
X194928809Y-106157380D02*
X194833571Y-106062142D01*
X194833571Y-106062142D02*
X194643095Y-105966904D01*
X194643095Y-105966904D02*
X194262142Y-105966904D01*
X194262142Y-105966904D02*
X194071666Y-106062142D01*
X191214523Y-105300238D02*
X191024046Y-105300238D01*
X191024046Y-105300238D02*
X190833570Y-105395476D01*
X190833570Y-105395476D02*
X190738332Y-105490714D01*
X190738332Y-105490714D02*
X190643094Y-105681190D01*
X190643094Y-105681190D02*
X190547856Y-106062142D01*
X190547856Y-106062142D02*
X190547856Y-106538333D01*
X190547856Y-106538333D02*
X190643094Y-106919285D01*
X190643094Y-106919285D02*
X190738332Y-107109761D01*
X190738332Y-107109761D02*
X190833570Y-107205000D01*
X190833570Y-107205000D02*
X191024046Y-107300238D01*
X191024046Y-107300238D02*
X191214523Y-107300238D01*
X191214523Y-107300238D02*
X191404999Y-107205000D01*
X191404999Y-107205000D02*
X191500237Y-107109761D01*
X191500237Y-107109761D02*
X191595475Y-106919285D01*
X191595475Y-106919285D02*
X191690713Y-106538333D01*
X191690713Y-106538333D02*
X191690713Y-106062142D01*
X191690713Y-106062142D02*
X191595475Y-105681190D01*
X191595475Y-105681190D02*
X191500237Y-105490714D01*
X191500237Y-105490714D02*
X191404999Y-105395476D01*
X191404999Y-105395476D02*
X191214523Y-105300238D01*
X188738332Y-105300238D02*
X189690713Y-105300238D01*
X189690713Y-105300238D02*
X189785951Y-106252619D01*
X189785951Y-106252619D02*
X189690713Y-106157380D01*
X189690713Y-106157380D02*
X189500237Y-106062142D01*
X189500237Y-106062142D02*
X189024046Y-106062142D01*
X189024046Y-106062142D02*
X188833570Y-106157380D01*
X188833570Y-106157380D02*
X188738332Y-106252619D01*
X188738332Y-106252619D02*
X188643094Y-106443095D01*
X188643094Y-106443095D02*
X188643094Y-106919285D01*
X188643094Y-106919285D02*
X188738332Y-107109761D01*
X188738332Y-107109761D02*
X188833570Y-107205000D01*
X188833570Y-107205000D02*
X189024046Y-107300238D01*
X189024046Y-107300238D02*
X189500237Y-107300238D01*
X189500237Y-107300238D02*
X189690713Y-107205000D01*
X189690713Y-107205000D02*
X189785951Y-107109761D01*
X186357380Y-105205000D02*
X188071665Y-107776428D01*
X184643094Y-107300238D02*
X185785951Y-107300238D01*
X185214523Y-107300238D02*
X185214523Y-105300238D01*
X185214523Y-105300238D02*
X185404999Y-105585952D01*
X185404999Y-105585952D02*
X185595475Y-105776428D01*
X185595475Y-105776428D02*
X185785951Y-105871666D01*
X183690713Y-107300238D02*
X183309761Y-107300238D01*
X183309761Y-107300238D02*
X183119284Y-107205000D01*
X183119284Y-107205000D02*
X183024046Y-107109761D01*
X183024046Y-107109761D02*
X182833570Y-106824047D01*
X182833570Y-106824047D02*
X182738332Y-106443095D01*
X182738332Y-106443095D02*
X182738332Y-105681190D01*
X182738332Y-105681190D02*
X182833570Y-105490714D01*
X182833570Y-105490714D02*
X182928808Y-105395476D01*
X182928808Y-105395476D02*
X183119284Y-105300238D01*
X183119284Y-105300238D02*
X183500237Y-105300238D01*
X183500237Y-105300238D02*
X183690713Y-105395476D01*
X183690713Y-105395476D02*
X183785951Y-105490714D01*
X183785951Y-105490714D02*
X183881189Y-105681190D01*
X183881189Y-105681190D02*
X183881189Y-106157380D01*
X183881189Y-106157380D02*
X183785951Y-106347857D01*
X183785951Y-106347857D02*
X183690713Y-106443095D01*
X183690713Y-106443095D02*
X183500237Y-106538333D01*
X183500237Y-106538333D02*
X183119284Y-106538333D01*
X183119284Y-106538333D02*
X182928808Y-106443095D01*
X182928808Y-106443095D02*
X182833570Y-106347857D01*
X182833570Y-106347857D02*
X182738332Y-106157380D01*
X180452618Y-105205000D02*
X182166903Y-107776428D01*
X179881189Y-105490714D02*
X179785951Y-105395476D01*
X179785951Y-105395476D02*
X179595475Y-105300238D01*
X179595475Y-105300238D02*
X179119284Y-105300238D01*
X179119284Y-105300238D02*
X178928808Y-105395476D01*
X178928808Y-105395476D02*
X178833570Y-105490714D01*
X178833570Y-105490714D02*
X178738332Y-105681190D01*
X178738332Y-105681190D02*
X178738332Y-105871666D01*
X178738332Y-105871666D02*
X178833570Y-106157380D01*
X178833570Y-106157380D02*
X179976427Y-107300238D01*
X179976427Y-107300238D02*
X178738332Y-107300238D01*
X177500237Y-105300238D02*
X177309760Y-105300238D01*
X177309760Y-105300238D02*
X177119284Y-105395476D01*
X177119284Y-105395476D02*
X177024046Y-105490714D01*
X177024046Y-105490714D02*
X176928808Y-105681190D01*
X176928808Y-105681190D02*
X176833570Y-106062142D01*
X176833570Y-106062142D02*
X176833570Y-106538333D01*
X176833570Y-106538333D02*
X176928808Y-106919285D01*
X176928808Y-106919285D02*
X177024046Y-107109761D01*
X177024046Y-107109761D02*
X177119284Y-107205000D01*
X177119284Y-107205000D02*
X177309760Y-107300238D01*
X177309760Y-107300238D02*
X177500237Y-107300238D01*
X177500237Y-107300238D02*
X177690713Y-107205000D01*
X177690713Y-107205000D02*
X177785951Y-107109761D01*
X177785951Y-107109761D02*
X177881189Y-106919285D01*
X177881189Y-106919285D02*
X177976427Y-106538333D01*
X177976427Y-106538333D02*
X177976427Y-106062142D01*
X177976427Y-106062142D02*
X177881189Y-105681190D01*
X177881189Y-105681190D02*
X177785951Y-105490714D01*
X177785951Y-105490714D02*
X177690713Y-105395476D01*
X177690713Y-105395476D02*
X177500237Y-105300238D01*
X176071665Y-105490714D02*
X175976427Y-105395476D01*
X175976427Y-105395476D02*
X175785951Y-105300238D01*
X175785951Y-105300238D02*
X175309760Y-105300238D01*
X175309760Y-105300238D02*
X175119284Y-105395476D01*
X175119284Y-105395476D02*
X175024046Y-105490714D01*
X175024046Y-105490714D02*
X174928808Y-105681190D01*
X174928808Y-105681190D02*
X174928808Y-105871666D01*
X174928808Y-105871666D02*
X175024046Y-106157380D01*
X175024046Y-106157380D02*
X176166903Y-107300238D01*
X176166903Y-107300238D02*
X174928808Y-107300238D01*
X174262141Y-105300238D02*
X173024046Y-105300238D01*
X173024046Y-105300238D02*
X173690713Y-106062142D01*
X173690713Y-106062142D02*
X173404998Y-106062142D01*
X173404998Y-106062142D02*
X173214522Y-106157380D01*
X173214522Y-106157380D02*
X173119284Y-106252619D01*
X173119284Y-106252619D02*
X173024046Y-106443095D01*
X173024046Y-106443095D02*
X173024046Y-106919285D01*
X173024046Y-106919285D02*
X173119284Y-107109761D01*
X173119284Y-107109761D02*
X173214522Y-107205000D01*
X173214522Y-107205000D02*
X173404998Y-107300238D01*
X173404998Y-107300238D02*
X173976427Y-107300238D01*
X173976427Y-107300238D02*
X174166903Y-107205000D01*
X174166903Y-107205000D02*
X174262141Y-107109761D01*
D10*
X179852619Y-137532857D02*
X179852619Y-138151904D01*
X179852619Y-138151904D02*
X180233571Y-137818571D01*
X180233571Y-137818571D02*
X180233571Y-137961428D01*
X180233571Y-137961428D02*
X180281190Y-138056666D01*
X180281190Y-138056666D02*
X180328809Y-138104285D01*
X180328809Y-138104285D02*
X180424047Y-138151904D01*
X180424047Y-138151904D02*
X180662142Y-138151904D01*
X180662142Y-138151904D02*
X180757380Y-138104285D01*
X180757380Y-138104285D02*
X180805000Y-138056666D01*
X180805000Y-138056666D02*
X180852619Y-137961428D01*
X180852619Y-137961428D02*
X180852619Y-137675714D01*
X180852619Y-137675714D02*
X180805000Y-137580476D01*
X180805000Y-137580476D02*
X180757380Y-137532857D01*
X180757380Y-138580476D02*
X180805000Y-138628095D01*
X180805000Y-138628095D02*
X180852619Y-138580476D01*
X180852619Y-138580476D02*
X180805000Y-138532857D01*
X180805000Y-138532857D02*
X180757380Y-138580476D01*
X180757380Y-138580476D02*
X180852619Y-138580476D01*
X179852619Y-138961428D02*
X179852619Y-139580475D01*
X179852619Y-139580475D02*
X180233571Y-139247142D01*
X180233571Y-139247142D02*
X180233571Y-139389999D01*
X180233571Y-139389999D02*
X180281190Y-139485237D01*
X180281190Y-139485237D02*
X180328809Y-139532856D01*
X180328809Y-139532856D02*
X180424047Y-139580475D01*
X180424047Y-139580475D02*
X180662142Y-139580475D01*
X180662142Y-139580475D02*
X180757380Y-139532856D01*
X180757380Y-139532856D02*
X180805000Y-139485237D01*
X180805000Y-139485237D02*
X180852619Y-139389999D01*
X180852619Y-139389999D02*
X180852619Y-139104285D01*
X180852619Y-139104285D02*
X180805000Y-139009047D01*
X180805000Y-139009047D02*
X180757380Y-138961428D01*
X179852619Y-139866190D02*
X180852619Y-140199523D01*
X180852619Y-140199523D02*
X179852619Y-140532856D01*
X180566904Y-140818571D02*
X180566904Y-141294761D01*
X180852619Y-140723333D02*
X179852619Y-141056666D01*
X179852619Y-141056666D02*
X180852619Y-141389999D01*
X182440238Y-138151904D02*
X182392619Y-138056666D01*
X182392619Y-138056666D02*
X182392619Y-137913809D01*
X182392619Y-137913809D02*
X182440238Y-137770952D01*
X182440238Y-137770952D02*
X182535476Y-137675714D01*
X182535476Y-137675714D02*
X182630714Y-137628095D01*
X182630714Y-137628095D02*
X182821190Y-137580476D01*
X182821190Y-137580476D02*
X182964047Y-137580476D01*
X182964047Y-137580476D02*
X183154523Y-137628095D01*
X183154523Y-137628095D02*
X183249761Y-137675714D01*
X183249761Y-137675714D02*
X183345000Y-137770952D01*
X183345000Y-137770952D02*
X183392619Y-137913809D01*
X183392619Y-137913809D02*
X183392619Y-138009047D01*
X183392619Y-138009047D02*
X183345000Y-138151904D01*
X183345000Y-138151904D02*
X183297380Y-138199523D01*
X183297380Y-138199523D02*
X182964047Y-138199523D01*
X182964047Y-138199523D02*
X182964047Y-138009047D01*
X183392619Y-138628095D02*
X182392619Y-138628095D01*
X182392619Y-138628095D02*
X183392619Y-139199523D01*
X183392619Y-139199523D02*
X182392619Y-139199523D01*
X183392619Y-139675714D02*
X182392619Y-139675714D01*
X182392619Y-139675714D02*
X182392619Y-139913809D01*
X182392619Y-139913809D02*
X182440238Y-140056666D01*
X182440238Y-140056666D02*
X182535476Y-140151904D01*
X182535476Y-140151904D02*
X182630714Y-140199523D01*
X182630714Y-140199523D02*
X182821190Y-140247142D01*
X182821190Y-140247142D02*
X182964047Y-140247142D01*
X182964047Y-140247142D02*
X183154523Y-140199523D01*
X183154523Y-140199523D02*
X183249761Y-140151904D01*
X183249761Y-140151904D02*
X183345000Y-140056666D01*
X183345000Y-140056666D02*
X183392619Y-139913809D01*
X183392619Y-139913809D02*
X183392619Y-139675714D01*
X183392619Y-140675714D02*
X182392619Y-140675714D01*
X182392619Y-140675714D02*
X182392619Y-140913809D01*
X182392619Y-140913809D02*
X182440238Y-141056666D01*
X182440238Y-141056666D02*
X182535476Y-141151904D01*
X182535476Y-141151904D02*
X182630714Y-141199523D01*
X182630714Y-141199523D02*
X182821190Y-141247142D01*
X182821190Y-141247142D02*
X182964047Y-141247142D01*
X182964047Y-141247142D02*
X183154523Y-141199523D01*
X183154523Y-141199523D02*
X183249761Y-141151904D01*
X183249761Y-141151904D02*
X183345000Y-141056666D01*
X183345000Y-141056666D02*
X183392619Y-140913809D01*
X183392619Y-140913809D02*
X183392619Y-140675714D01*
X185932619Y-138104285D02*
X185932619Y-137628095D01*
X185932619Y-137628095D02*
X184932619Y-137628095D01*
X185932619Y-138437619D02*
X184932619Y-138437619D01*
X184932619Y-138437619D02*
X184932619Y-138675714D01*
X184932619Y-138675714D02*
X184980238Y-138818571D01*
X184980238Y-138818571D02*
X185075476Y-138913809D01*
X185075476Y-138913809D02*
X185170714Y-138961428D01*
X185170714Y-138961428D02*
X185361190Y-139009047D01*
X185361190Y-139009047D02*
X185504047Y-139009047D01*
X185504047Y-139009047D02*
X185694523Y-138961428D01*
X185694523Y-138961428D02*
X185789761Y-138913809D01*
X185789761Y-138913809D02*
X185885000Y-138818571D01*
X185885000Y-138818571D02*
X185932619Y-138675714D01*
X185932619Y-138675714D02*
X185932619Y-138437619D01*
X184932619Y-139628095D02*
X184932619Y-139818571D01*
X184932619Y-139818571D02*
X184980238Y-139913809D01*
X184980238Y-139913809D02*
X185075476Y-140009047D01*
X185075476Y-140009047D02*
X185265952Y-140056666D01*
X185265952Y-140056666D02*
X185599285Y-140056666D01*
X185599285Y-140056666D02*
X185789761Y-140009047D01*
X185789761Y-140009047D02*
X185885000Y-139913809D01*
X185885000Y-139913809D02*
X185932619Y-139818571D01*
X185932619Y-139818571D02*
X185932619Y-139628095D01*
X185932619Y-139628095D02*
X185885000Y-139532857D01*
X185885000Y-139532857D02*
X185789761Y-139437619D01*
X185789761Y-139437619D02*
X185599285Y-139390000D01*
X185599285Y-139390000D02*
X185265952Y-139390000D01*
X185265952Y-139390000D02*
X185075476Y-139437619D01*
X185075476Y-139437619D02*
X184980238Y-139532857D01*
X184980238Y-139532857D02*
X184932619Y-139628095D01*
X205740000Y-132310000D02*
X205740000Y-141835000D01*
X177800000Y-141835000D02*
X177800000Y-132310000D01*
X205740000Y-141835000D02*
X177800000Y-141835000D01*
X190012619Y-138104285D02*
X190012619Y-137628095D01*
X190012619Y-137628095D02*
X190488809Y-137580476D01*
X190488809Y-137580476D02*
X190441190Y-137628095D01*
X190441190Y-137628095D02*
X190393571Y-137723333D01*
X190393571Y-137723333D02*
X190393571Y-137961428D01*
X190393571Y-137961428D02*
X190441190Y-138056666D01*
X190441190Y-138056666D02*
X190488809Y-138104285D01*
X190488809Y-138104285D02*
X190584047Y-138151904D01*
X190584047Y-138151904D02*
X190822142Y-138151904D01*
X190822142Y-138151904D02*
X190917380Y-138104285D01*
X190917380Y-138104285D02*
X190965000Y-138056666D01*
X190965000Y-138056666D02*
X191012619Y-137961428D01*
X191012619Y-137961428D02*
X191012619Y-137723333D01*
X191012619Y-137723333D02*
X190965000Y-137628095D01*
X190965000Y-137628095D02*
X190917380Y-137580476D01*
X190012619Y-138437619D02*
X191012619Y-138770952D01*
X191012619Y-138770952D02*
X190012619Y-139104285D01*
X195092619Y-137485238D02*
X196092619Y-137818571D01*
X196092619Y-137818571D02*
X195092619Y-138151904D01*
X196092619Y-139056666D02*
X195616428Y-138723333D01*
X196092619Y-138485238D02*
X195092619Y-138485238D01*
X195092619Y-138485238D02*
X195092619Y-138866190D01*
X195092619Y-138866190D02*
X195140238Y-138961428D01*
X195140238Y-138961428D02*
X195187857Y-139009047D01*
X195187857Y-139009047D02*
X195283095Y-139056666D01*
X195283095Y-139056666D02*
X195425952Y-139056666D01*
X195425952Y-139056666D02*
X195521190Y-139009047D01*
X195521190Y-139009047D02*
X195568809Y-138961428D01*
X195568809Y-138961428D02*
X195616428Y-138866190D01*
X195616428Y-138866190D02*
X195616428Y-138485238D01*
X195568809Y-139485238D02*
X195568809Y-139818571D01*
X196092619Y-139961428D02*
X196092619Y-139485238D01*
X196092619Y-139485238D02*
X195092619Y-139485238D01*
X195092619Y-139485238D02*
X195092619Y-139961428D01*
X195568809Y-140723333D02*
X195568809Y-140390000D01*
X196092619Y-140390000D02*
X195092619Y-140390000D01*
X195092619Y-140390000D02*
X195092619Y-140866190D01*
X177800000Y-132310000D02*
X205740000Y-132310000D01*
X197680238Y-138151904D02*
X197632619Y-138056666D01*
X197632619Y-138056666D02*
X197632619Y-137913809D01*
X197632619Y-137913809D02*
X197680238Y-137770952D01*
X197680238Y-137770952D02*
X197775476Y-137675714D01*
X197775476Y-137675714D02*
X197870714Y-137628095D01*
X197870714Y-137628095D02*
X198061190Y-137580476D01*
X198061190Y-137580476D02*
X198204047Y-137580476D01*
X198204047Y-137580476D02*
X198394523Y-137628095D01*
X198394523Y-137628095D02*
X198489761Y-137675714D01*
X198489761Y-137675714D02*
X198585000Y-137770952D01*
X198585000Y-137770952D02*
X198632619Y-137913809D01*
X198632619Y-137913809D02*
X198632619Y-138009047D01*
X198632619Y-138009047D02*
X198585000Y-138151904D01*
X198585000Y-138151904D02*
X198537380Y-138199523D01*
X198537380Y-138199523D02*
X198204047Y-138199523D01*
X198204047Y-138199523D02*
X198204047Y-138009047D01*
X198632619Y-138628095D02*
X197632619Y-138628095D01*
X197632619Y-138628095D02*
X198632619Y-139199523D01*
X198632619Y-139199523D02*
X197632619Y-139199523D01*
X198632619Y-139675714D02*
X197632619Y-139675714D01*
X197632619Y-139675714D02*
X197632619Y-139913809D01*
X197632619Y-139913809D02*
X197680238Y-140056666D01*
X197680238Y-140056666D02*
X197775476Y-140151904D01*
X197775476Y-140151904D02*
X197870714Y-140199523D01*
X197870714Y-140199523D02*
X198061190Y-140247142D01*
X198061190Y-140247142D02*
X198204047Y-140247142D01*
X198204047Y-140247142D02*
X198394523Y-140199523D01*
X198394523Y-140199523D02*
X198489761Y-140151904D01*
X198489761Y-140151904D02*
X198585000Y-140056666D01*
X198585000Y-140056666D02*
X198632619Y-139913809D01*
X198632619Y-139913809D02*
X198632619Y-139675714D01*
X198346904Y-140628095D02*
X198346904Y-141104285D01*
X198632619Y-140532857D02*
X197632619Y-140866190D01*
X197632619Y-140866190D02*
X198632619Y-141199523D01*
X187520238Y-138151904D02*
X187472619Y-138056666D01*
X187472619Y-138056666D02*
X187472619Y-137913809D01*
X187472619Y-137913809D02*
X187520238Y-137770952D01*
X187520238Y-137770952D02*
X187615476Y-137675714D01*
X187615476Y-137675714D02*
X187710714Y-137628095D01*
X187710714Y-137628095D02*
X187901190Y-137580476D01*
X187901190Y-137580476D02*
X188044047Y-137580476D01*
X188044047Y-137580476D02*
X188234523Y-137628095D01*
X188234523Y-137628095D02*
X188329761Y-137675714D01*
X188329761Y-137675714D02*
X188425000Y-137770952D01*
X188425000Y-137770952D02*
X188472619Y-137913809D01*
X188472619Y-137913809D02*
X188472619Y-138009047D01*
X188472619Y-138009047D02*
X188425000Y-138151904D01*
X188425000Y-138151904D02*
X188377380Y-138199523D01*
X188377380Y-138199523D02*
X188044047Y-138199523D01*
X188044047Y-138199523D02*
X188044047Y-138009047D01*
X188472619Y-138628095D02*
X187472619Y-138628095D01*
X187472619Y-138628095D02*
X188472619Y-139199523D01*
X188472619Y-139199523D02*
X187472619Y-139199523D01*
X188472619Y-139675714D02*
X187472619Y-139675714D01*
X187472619Y-139675714D02*
X187472619Y-139913809D01*
X187472619Y-139913809D02*
X187520238Y-140056666D01*
X187520238Y-140056666D02*
X187615476Y-140151904D01*
X187615476Y-140151904D02*
X187710714Y-140199523D01*
X187710714Y-140199523D02*
X187901190Y-140247142D01*
X187901190Y-140247142D02*
X188044047Y-140247142D01*
X188044047Y-140247142D02*
X188234523Y-140199523D01*
X188234523Y-140199523D02*
X188329761Y-140151904D01*
X188329761Y-140151904D02*
X188425000Y-140056666D01*
X188425000Y-140056666D02*
X188472619Y-139913809D01*
X188472619Y-139913809D02*
X188472619Y-139675714D01*
X188472619Y-140675714D02*
X187472619Y-140675714D01*
X187472619Y-140675714D02*
X187472619Y-140913809D01*
X187472619Y-140913809D02*
X187520238Y-141056666D01*
X187520238Y-141056666D02*
X187615476Y-141151904D01*
X187615476Y-141151904D02*
X187710714Y-141199523D01*
X187710714Y-141199523D02*
X187901190Y-141247142D01*
X187901190Y-141247142D02*
X188044047Y-141247142D01*
X188044047Y-141247142D02*
X188234523Y-141199523D01*
X188234523Y-141199523D02*
X188329761Y-141151904D01*
X188329761Y-141151904D02*
X188425000Y-141056666D01*
X188425000Y-141056666D02*
X188472619Y-140913809D01*
X188472619Y-140913809D02*
X188472619Y-140675714D01*
D12*
X207946428Y-134064142D02*
X206446428Y-134064142D01*
X206446428Y-134064142D02*
X206446428Y-134635571D01*
X206446428Y-134635571D02*
X206517857Y-134778428D01*
X206517857Y-134778428D02*
X206589285Y-134849857D01*
X206589285Y-134849857D02*
X206732142Y-134921285D01*
X206732142Y-134921285D02*
X206946428Y-134921285D01*
X206946428Y-134921285D02*
X207089285Y-134849857D01*
X207089285Y-134849857D02*
X207160714Y-134778428D01*
X207160714Y-134778428D02*
X207232142Y-134635571D01*
X207232142Y-134635571D02*
X207232142Y-134064142D01*
X207946428Y-135778428D02*
X207875000Y-135635571D01*
X207875000Y-135635571D02*
X207803571Y-135564142D01*
X207803571Y-135564142D02*
X207660714Y-135492714D01*
X207660714Y-135492714D02*
X207232142Y-135492714D01*
X207232142Y-135492714D02*
X207089285Y-135564142D01*
X207089285Y-135564142D02*
X207017857Y-135635571D01*
X207017857Y-135635571D02*
X206946428Y-135778428D01*
X206946428Y-135778428D02*
X206946428Y-135992714D01*
X206946428Y-135992714D02*
X207017857Y-136135571D01*
X207017857Y-136135571D02*
X207089285Y-136207000D01*
X207089285Y-136207000D02*
X207232142Y-136278428D01*
X207232142Y-136278428D02*
X207660714Y-136278428D01*
X207660714Y-136278428D02*
X207803571Y-136207000D01*
X207803571Y-136207000D02*
X207875000Y-136135571D01*
X207875000Y-136135571D02*
X207946428Y-135992714D01*
X207946428Y-135992714D02*
X207946428Y-135778428D01*
X206946428Y-136778428D02*
X207946428Y-137064143D01*
X207946428Y-137064143D02*
X207232142Y-137349857D01*
X207232142Y-137349857D02*
X207946428Y-137635571D01*
X207946428Y-137635571D02*
X206946428Y-137921285D01*
X207875000Y-139064143D02*
X207946428Y-138921286D01*
X207946428Y-138921286D02*
X207946428Y-138635572D01*
X207946428Y-138635572D02*
X207875000Y-138492714D01*
X207875000Y-138492714D02*
X207732142Y-138421286D01*
X207732142Y-138421286D02*
X207160714Y-138421286D01*
X207160714Y-138421286D02*
X207017857Y-138492714D01*
X207017857Y-138492714D02*
X206946428Y-138635572D01*
X206946428Y-138635572D02*
X206946428Y-138921286D01*
X206946428Y-138921286D02*
X207017857Y-139064143D01*
X207017857Y-139064143D02*
X207160714Y-139135572D01*
X207160714Y-139135572D02*
X207303571Y-139135572D01*
X207303571Y-139135572D02*
X207446428Y-138421286D01*
X207946428Y-139778428D02*
X206946428Y-139778428D01*
X207232142Y-139778428D02*
X207089285Y-139849857D01*
X207089285Y-139849857D02*
X207017857Y-139921286D01*
X207017857Y-139921286D02*
X206946428Y-140064143D01*
X206946428Y-140064143D02*
X206946428Y-140207000D01*
D10*
X200172619Y-137532857D02*
X200172619Y-138151904D01*
X200172619Y-138151904D02*
X200553571Y-137818571D01*
X200553571Y-137818571D02*
X200553571Y-137961428D01*
X200553571Y-137961428D02*
X200601190Y-138056666D01*
X200601190Y-138056666D02*
X200648809Y-138104285D01*
X200648809Y-138104285D02*
X200744047Y-138151904D01*
X200744047Y-138151904D02*
X200982142Y-138151904D01*
X200982142Y-138151904D02*
X201077380Y-138104285D01*
X201077380Y-138104285D02*
X201125000Y-138056666D01*
X201125000Y-138056666D02*
X201172619Y-137961428D01*
X201172619Y-137961428D02*
X201172619Y-137675714D01*
X201172619Y-137675714D02*
X201125000Y-137580476D01*
X201125000Y-137580476D02*
X201077380Y-137532857D01*
X201077380Y-138580476D02*
X201125000Y-138628095D01*
X201125000Y-138628095D02*
X201172619Y-138580476D01*
X201172619Y-138580476D02*
X201125000Y-138532857D01*
X201125000Y-138532857D02*
X201077380Y-138580476D01*
X201077380Y-138580476D02*
X201172619Y-138580476D01*
X200172619Y-138961428D02*
X200172619Y-139580475D01*
X200172619Y-139580475D02*
X200553571Y-139247142D01*
X200553571Y-139247142D02*
X200553571Y-139389999D01*
X200553571Y-139389999D02*
X200601190Y-139485237D01*
X200601190Y-139485237D02*
X200648809Y-139532856D01*
X200648809Y-139532856D02*
X200744047Y-139580475D01*
X200744047Y-139580475D02*
X200982142Y-139580475D01*
X200982142Y-139580475D02*
X201077380Y-139532856D01*
X201077380Y-139532856D02*
X201125000Y-139485237D01*
X201125000Y-139485237D02*
X201172619Y-139389999D01*
X201172619Y-139389999D02*
X201172619Y-139104285D01*
X201172619Y-139104285D02*
X201125000Y-139009047D01*
X201125000Y-139009047D02*
X201077380Y-138961428D01*
X200172619Y-139866190D02*
X201172619Y-140199523D01*
X201172619Y-140199523D02*
X200172619Y-140532856D01*
X201172619Y-140866190D02*
X200172619Y-140866190D01*
X200172619Y-140866190D02*
X200172619Y-141104285D01*
X200172619Y-141104285D02*
X200220238Y-141247142D01*
X200220238Y-141247142D02*
X200315476Y-141342380D01*
X200315476Y-141342380D02*
X200410714Y-141389999D01*
X200410714Y-141389999D02*
X200601190Y-141437618D01*
X200601190Y-141437618D02*
X200744047Y-141437618D01*
X200744047Y-141437618D02*
X200934523Y-141389999D01*
X200934523Y-141389999D02*
X201029761Y-141342380D01*
X201029761Y-141342380D02*
X201125000Y-141247142D01*
X201125000Y-141247142D02*
X201172619Y-141104285D01*
X201172619Y-141104285D02*
X201172619Y-140866190D01*
X192600238Y-138151904D02*
X192552619Y-138056666D01*
X192552619Y-138056666D02*
X192552619Y-137913809D01*
X192552619Y-137913809D02*
X192600238Y-137770952D01*
X192600238Y-137770952D02*
X192695476Y-137675714D01*
X192695476Y-137675714D02*
X192790714Y-137628095D01*
X192790714Y-137628095D02*
X192981190Y-137580476D01*
X192981190Y-137580476D02*
X193124047Y-137580476D01*
X193124047Y-137580476D02*
X193314523Y-137628095D01*
X193314523Y-137628095D02*
X193409761Y-137675714D01*
X193409761Y-137675714D02*
X193505000Y-137770952D01*
X193505000Y-137770952D02*
X193552619Y-137913809D01*
X193552619Y-137913809D02*
X193552619Y-138009047D01*
X193552619Y-138009047D02*
X193505000Y-138151904D01*
X193505000Y-138151904D02*
X193457380Y-138199523D01*
X193457380Y-138199523D02*
X193124047Y-138199523D01*
X193124047Y-138199523D02*
X193124047Y-138009047D01*
X193552619Y-138628095D02*
X192552619Y-138628095D01*
X192552619Y-138628095D02*
X193552619Y-139199523D01*
X193552619Y-139199523D02*
X192552619Y-139199523D01*
X193552619Y-139675714D02*
X192552619Y-139675714D01*
X192552619Y-139675714D02*
X192552619Y-139913809D01*
X192552619Y-139913809D02*
X192600238Y-140056666D01*
X192600238Y-140056666D02*
X192695476Y-140151904D01*
X192695476Y-140151904D02*
X192790714Y-140199523D01*
X192790714Y-140199523D02*
X192981190Y-140247142D01*
X192981190Y-140247142D02*
X193124047Y-140247142D01*
X193124047Y-140247142D02*
X193314523Y-140199523D01*
X193314523Y-140199523D02*
X193409761Y-140151904D01*
X193409761Y-140151904D02*
X193505000Y-140056666D01*
X193505000Y-140056666D02*
X193552619Y-139913809D01*
X193552619Y-139913809D02*
X193552619Y-139675714D01*
X193552619Y-140675714D02*
X192552619Y-140675714D01*
X192552619Y-140675714D02*
X192552619Y-140913809D01*
X192552619Y-140913809D02*
X192600238Y-141056666D01*
X192600238Y-141056666D02*
X192695476Y-141151904D01*
X192695476Y-141151904D02*
X192790714Y-141199523D01*
X192790714Y-141199523D02*
X192981190Y-141247142D01*
X192981190Y-141247142D02*
X193124047Y-141247142D01*
X193124047Y-141247142D02*
X193314523Y-141199523D01*
X193314523Y-141199523D02*
X193409761Y-141151904D01*
X193409761Y-141151904D02*
X193505000Y-141056666D01*
X193505000Y-141056666D02*
X193552619Y-140913809D01*
X193552619Y-140913809D02*
X193552619Y-140675714D01*
X202760238Y-138151904D02*
X202712619Y-138056666D01*
X202712619Y-138056666D02*
X202712619Y-137913809D01*
X202712619Y-137913809D02*
X202760238Y-137770952D01*
X202760238Y-137770952D02*
X202855476Y-137675714D01*
X202855476Y-137675714D02*
X202950714Y-137628095D01*
X202950714Y-137628095D02*
X203141190Y-137580476D01*
X203141190Y-137580476D02*
X203284047Y-137580476D01*
X203284047Y-137580476D02*
X203474523Y-137628095D01*
X203474523Y-137628095D02*
X203569761Y-137675714D01*
X203569761Y-137675714D02*
X203665000Y-137770952D01*
X203665000Y-137770952D02*
X203712619Y-137913809D01*
X203712619Y-137913809D02*
X203712619Y-138009047D01*
X203712619Y-138009047D02*
X203665000Y-138151904D01*
X203665000Y-138151904D02*
X203617380Y-138199523D01*
X203617380Y-138199523D02*
X203284047Y-138199523D01*
X203284047Y-138199523D02*
X203284047Y-138009047D01*
X203712619Y-138628095D02*
X202712619Y-138628095D01*
X202712619Y-138628095D02*
X203712619Y-139199523D01*
X203712619Y-139199523D02*
X202712619Y-139199523D01*
X203712619Y-139675714D02*
X202712619Y-139675714D01*
X202712619Y-139675714D02*
X202712619Y-139913809D01*
X202712619Y-139913809D02*
X202760238Y-140056666D01*
X202760238Y-140056666D02*
X202855476Y-140151904D01*
X202855476Y-140151904D02*
X202950714Y-140199523D01*
X202950714Y-140199523D02*
X203141190Y-140247142D01*
X203141190Y-140247142D02*
X203284047Y-140247142D01*
X203284047Y-140247142D02*
X203474523Y-140199523D01*
X203474523Y-140199523D02*
X203569761Y-140151904D01*
X203569761Y-140151904D02*
X203665000Y-140056666D01*
X203665000Y-140056666D02*
X203712619Y-139913809D01*
X203712619Y-139913809D02*
X203712619Y-139675714D01*
X203712619Y-140675714D02*
X202712619Y-140675714D01*
X202712619Y-140675714D02*
X202712619Y-140913809D01*
X202712619Y-140913809D02*
X202760238Y-141056666D01*
X202760238Y-141056666D02*
X202855476Y-141151904D01*
X202855476Y-141151904D02*
X202950714Y-141199523D01*
X202950714Y-141199523D02*
X203141190Y-141247142D01*
X203141190Y-141247142D02*
X203284047Y-141247142D01*
X203284047Y-141247142D02*
X203474523Y-141199523D01*
X203474523Y-141199523D02*
X203569761Y-141151904D01*
X203569761Y-141151904D02*
X203665000Y-141056666D01*
X203665000Y-141056666D02*
X203712619Y-140913809D01*
X203712619Y-140913809D02*
X203712619Y-140675714D01*
X184925952Y-39412619D02*
X184925952Y-38412619D01*
X184497381Y-39412619D02*
X184497381Y-38888809D01*
X184497381Y-38888809D02*
X184545000Y-38793571D01*
X184545000Y-38793571D02*
X184640238Y-38745952D01*
X184640238Y-38745952D02*
X184783095Y-38745952D01*
X184783095Y-38745952D02*
X184878333Y-38793571D01*
X184878333Y-38793571D02*
X184925952Y-38841190D01*
X184164047Y-38745952D02*
X183783095Y-38745952D01*
X184021190Y-38412619D02*
X184021190Y-39269761D01*
X184021190Y-39269761D02*
X183973571Y-39365000D01*
X183973571Y-39365000D02*
X183878333Y-39412619D01*
X183878333Y-39412619D02*
X183783095Y-39412619D01*
X183592618Y-38745952D02*
X183211666Y-38745952D01*
X183449761Y-38412619D02*
X183449761Y-39269761D01*
X183449761Y-39269761D02*
X183402142Y-39365000D01*
X183402142Y-39365000D02*
X183306904Y-39412619D01*
X183306904Y-39412619D02*
X183211666Y-39412619D01*
X182878332Y-38745952D02*
X182878332Y-39745952D01*
X182878332Y-38793571D02*
X182783094Y-38745952D01*
X182783094Y-38745952D02*
X182592618Y-38745952D01*
X182592618Y-38745952D02*
X182497380Y-38793571D01*
X182497380Y-38793571D02*
X182449761Y-38841190D01*
X182449761Y-38841190D02*
X182402142Y-38936428D01*
X182402142Y-38936428D02*
X182402142Y-39222142D01*
X182402142Y-39222142D02*
X182449761Y-39317380D01*
X182449761Y-39317380D02*
X182497380Y-39365000D01*
X182497380Y-39365000D02*
X182592618Y-39412619D01*
X182592618Y-39412619D02*
X182783094Y-39412619D01*
X182783094Y-39412619D02*
X182878332Y-39365000D01*
X182021189Y-39365000D02*
X181925951Y-39412619D01*
X181925951Y-39412619D02*
X181735475Y-39412619D01*
X181735475Y-39412619D02*
X181640237Y-39365000D01*
X181640237Y-39365000D02*
X181592618Y-39269761D01*
X181592618Y-39269761D02*
X181592618Y-39222142D01*
X181592618Y-39222142D02*
X181640237Y-39126904D01*
X181640237Y-39126904D02*
X181735475Y-39079285D01*
X181735475Y-39079285D02*
X181878332Y-39079285D01*
X181878332Y-39079285D02*
X181973570Y-39031666D01*
X181973570Y-39031666D02*
X182021189Y-38936428D01*
X182021189Y-38936428D02*
X182021189Y-38888809D01*
X182021189Y-38888809D02*
X181973570Y-38793571D01*
X181973570Y-38793571D02*
X181878332Y-38745952D01*
X181878332Y-38745952D02*
X181735475Y-38745952D01*
X181735475Y-38745952D02*
X181640237Y-38793571D01*
X181164046Y-39317380D02*
X181116427Y-39365000D01*
X181116427Y-39365000D02*
X181164046Y-39412619D01*
X181164046Y-39412619D02*
X181211665Y-39365000D01*
X181211665Y-39365000D02*
X181164046Y-39317380D01*
X181164046Y-39317380D02*
X181164046Y-39412619D01*
X181164046Y-38793571D02*
X181116427Y-38841190D01*
X181116427Y-38841190D02*
X181164046Y-38888809D01*
X181164046Y-38888809D02*
X181211665Y-38841190D01*
X181211665Y-38841190D02*
X181164046Y-38793571D01*
X181164046Y-38793571D02*
X181164046Y-38888809D01*
X179973571Y-38365000D02*
X180830713Y-39650714D01*
X178925952Y-38365000D02*
X179783094Y-39650714D01*
X178164047Y-38745952D02*
X178164047Y-39555476D01*
X178164047Y-39555476D02*
X178211666Y-39650714D01*
X178211666Y-39650714D02*
X178259285Y-39698333D01*
X178259285Y-39698333D02*
X178354523Y-39745952D01*
X178354523Y-39745952D02*
X178497380Y-39745952D01*
X178497380Y-39745952D02*
X178592618Y-39698333D01*
X178164047Y-39365000D02*
X178259285Y-39412619D01*
X178259285Y-39412619D02*
X178449761Y-39412619D01*
X178449761Y-39412619D02*
X178544999Y-39365000D01*
X178544999Y-39365000D02*
X178592618Y-39317380D01*
X178592618Y-39317380D02*
X178640237Y-39222142D01*
X178640237Y-39222142D02*
X178640237Y-38936428D01*
X178640237Y-38936428D02*
X178592618Y-38841190D01*
X178592618Y-38841190D02*
X178544999Y-38793571D01*
X178544999Y-38793571D02*
X178449761Y-38745952D01*
X178449761Y-38745952D02*
X178259285Y-38745952D01*
X178259285Y-38745952D02*
X178164047Y-38793571D01*
X177687856Y-39412619D02*
X177687856Y-38745952D01*
X177687856Y-38412619D02*
X177735475Y-38460238D01*
X177735475Y-38460238D02*
X177687856Y-38507857D01*
X177687856Y-38507857D02*
X177640237Y-38460238D01*
X177640237Y-38460238D02*
X177687856Y-38412619D01*
X177687856Y-38412619D02*
X177687856Y-38507857D01*
X177354523Y-38745952D02*
X176973571Y-38745952D01*
X177211666Y-38412619D02*
X177211666Y-39269761D01*
X177211666Y-39269761D02*
X177164047Y-39365000D01*
X177164047Y-39365000D02*
X177068809Y-39412619D01*
X177068809Y-39412619D02*
X176973571Y-39412619D01*
X176640237Y-39412619D02*
X176640237Y-38412619D01*
X176211666Y-39412619D02*
X176211666Y-38888809D01*
X176211666Y-38888809D02*
X176259285Y-38793571D01*
X176259285Y-38793571D02*
X176354523Y-38745952D01*
X176354523Y-38745952D02*
X176497380Y-38745952D01*
X176497380Y-38745952D02*
X176592618Y-38793571D01*
X176592618Y-38793571D02*
X176640237Y-38841190D01*
X175306904Y-38745952D02*
X175306904Y-39412619D01*
X175735475Y-38745952D02*
X175735475Y-39269761D01*
X175735475Y-39269761D02*
X175687856Y-39365000D01*
X175687856Y-39365000D02*
X175592618Y-39412619D01*
X175592618Y-39412619D02*
X175449761Y-39412619D01*
X175449761Y-39412619D02*
X175354523Y-39365000D01*
X175354523Y-39365000D02*
X175306904Y-39317380D01*
X174830713Y-39412619D02*
X174830713Y-38412619D01*
X174830713Y-38793571D02*
X174735475Y-38745952D01*
X174735475Y-38745952D02*
X174544999Y-38745952D01*
X174544999Y-38745952D02*
X174449761Y-38793571D01*
X174449761Y-38793571D02*
X174402142Y-38841190D01*
X174402142Y-38841190D02*
X174354523Y-38936428D01*
X174354523Y-38936428D02*
X174354523Y-39222142D01*
X174354523Y-39222142D02*
X174402142Y-39317380D01*
X174402142Y-39317380D02*
X174449761Y-39365000D01*
X174449761Y-39365000D02*
X174544999Y-39412619D01*
X174544999Y-39412619D02*
X174735475Y-39412619D01*
X174735475Y-39412619D02*
X174830713Y-39365000D01*
X173925951Y-39317380D02*
X173878332Y-39365000D01*
X173878332Y-39365000D02*
X173925951Y-39412619D01*
X173925951Y-39412619D02*
X173973570Y-39365000D01*
X173973570Y-39365000D02*
X173925951Y-39317380D01*
X173925951Y-39317380D02*
X173925951Y-39412619D01*
X173021190Y-39365000D02*
X173116428Y-39412619D01*
X173116428Y-39412619D02*
X173306904Y-39412619D01*
X173306904Y-39412619D02*
X173402142Y-39365000D01*
X173402142Y-39365000D02*
X173449761Y-39317380D01*
X173449761Y-39317380D02*
X173497380Y-39222142D01*
X173497380Y-39222142D02*
X173497380Y-38936428D01*
X173497380Y-38936428D02*
X173449761Y-38841190D01*
X173449761Y-38841190D02*
X173402142Y-38793571D01*
X173402142Y-38793571D02*
X173306904Y-38745952D01*
X173306904Y-38745952D02*
X173116428Y-38745952D01*
X173116428Y-38745952D02*
X173021190Y-38793571D01*
X172449761Y-39412619D02*
X172544999Y-39365000D01*
X172544999Y-39365000D02*
X172592618Y-39317380D01*
X172592618Y-39317380D02*
X172640237Y-39222142D01*
X172640237Y-39222142D02*
X172640237Y-38936428D01*
X172640237Y-38936428D02*
X172592618Y-38841190D01*
X172592618Y-38841190D02*
X172544999Y-38793571D01*
X172544999Y-38793571D02*
X172449761Y-38745952D01*
X172449761Y-38745952D02*
X172306904Y-38745952D01*
X172306904Y-38745952D02*
X172211666Y-38793571D01*
X172211666Y-38793571D02*
X172164047Y-38841190D01*
X172164047Y-38841190D02*
X172116428Y-38936428D01*
X172116428Y-38936428D02*
X172116428Y-39222142D01*
X172116428Y-39222142D02*
X172164047Y-39317380D01*
X172164047Y-39317380D02*
X172211666Y-39365000D01*
X172211666Y-39365000D02*
X172306904Y-39412619D01*
X172306904Y-39412619D02*
X172449761Y-39412619D01*
X171687856Y-39412619D02*
X171687856Y-38745952D01*
X171687856Y-38841190D02*
X171640237Y-38793571D01*
X171640237Y-38793571D02*
X171544999Y-38745952D01*
X171544999Y-38745952D02*
X171402142Y-38745952D01*
X171402142Y-38745952D02*
X171306904Y-38793571D01*
X171306904Y-38793571D02*
X171259285Y-38888809D01*
X171259285Y-38888809D02*
X171259285Y-39412619D01*
X171259285Y-38888809D02*
X171211666Y-38793571D01*
X171211666Y-38793571D02*
X171116428Y-38745952D01*
X171116428Y-38745952D02*
X170973571Y-38745952D01*
X170973571Y-38745952D02*
X170878332Y-38793571D01*
X170878332Y-38793571D02*
X170830713Y-38888809D01*
X170830713Y-38888809D02*
X170830713Y-39412619D01*
X169640238Y-38365000D02*
X170497380Y-39650714D01*
X179592618Y-40365952D02*
X179592618Y-41223095D01*
X179592618Y-41223095D02*
X179640237Y-41318333D01*
X179640237Y-41318333D02*
X179735475Y-41365952D01*
X179735475Y-41365952D02*
X179783094Y-41365952D01*
X179592618Y-40032619D02*
X179640237Y-40080238D01*
X179640237Y-40080238D02*
X179592618Y-40127857D01*
X179592618Y-40127857D02*
X179544999Y-40080238D01*
X179544999Y-40080238D02*
X179592618Y-40032619D01*
X179592618Y-40032619D02*
X179592618Y-40127857D01*
X178735476Y-40985000D02*
X178830714Y-41032619D01*
X178830714Y-41032619D02*
X179021190Y-41032619D01*
X179021190Y-41032619D02*
X179116428Y-40985000D01*
X179116428Y-40985000D02*
X179164047Y-40889761D01*
X179164047Y-40889761D02*
X179164047Y-40508809D01*
X179164047Y-40508809D02*
X179116428Y-40413571D01*
X179116428Y-40413571D02*
X179021190Y-40365952D01*
X179021190Y-40365952D02*
X178830714Y-40365952D01*
X178830714Y-40365952D02*
X178735476Y-40413571D01*
X178735476Y-40413571D02*
X178687857Y-40508809D01*
X178687857Y-40508809D02*
X178687857Y-40604047D01*
X178687857Y-40604047D02*
X179164047Y-40699285D01*
X178116428Y-41032619D02*
X178211666Y-40985000D01*
X178211666Y-40985000D02*
X178259285Y-40889761D01*
X178259285Y-40889761D02*
X178259285Y-40032619D01*
X177735475Y-41032619D02*
X177735475Y-40032619D01*
X177640237Y-40651666D02*
X177354523Y-41032619D01*
X177354523Y-40365952D02*
X177735475Y-40746904D01*
X176925951Y-41032619D02*
X176925951Y-40365952D01*
X176925951Y-40032619D02*
X176973570Y-40080238D01*
X176973570Y-40080238D02*
X176925951Y-40127857D01*
X176925951Y-40127857D02*
X176878332Y-40080238D01*
X176878332Y-40080238D02*
X176925951Y-40032619D01*
X176925951Y-40032619D02*
X176925951Y-40127857D01*
X176449761Y-40365952D02*
X176449761Y-41032619D01*
X176449761Y-40461190D02*
X176402142Y-40413571D01*
X176402142Y-40413571D02*
X176306904Y-40365952D01*
X176306904Y-40365952D02*
X176164047Y-40365952D01*
X176164047Y-40365952D02*
X176068809Y-40413571D01*
X176068809Y-40413571D02*
X176021190Y-40508809D01*
X176021190Y-40508809D02*
X176021190Y-41032619D01*
X175592618Y-40985000D02*
X175497380Y-41032619D01*
X175497380Y-41032619D02*
X175306904Y-41032619D01*
X175306904Y-41032619D02*
X175211666Y-40985000D01*
X175211666Y-40985000D02*
X175164047Y-40889761D01*
X175164047Y-40889761D02*
X175164047Y-40842142D01*
X175164047Y-40842142D02*
X175211666Y-40746904D01*
X175211666Y-40746904D02*
X175306904Y-40699285D01*
X175306904Y-40699285D02*
X175449761Y-40699285D01*
X175449761Y-40699285D02*
X175544999Y-40651666D01*
X175544999Y-40651666D02*
X175592618Y-40556428D01*
X175592618Y-40556428D02*
X175592618Y-40508809D01*
X175592618Y-40508809D02*
X175544999Y-40413571D01*
X175544999Y-40413571D02*
X175449761Y-40365952D01*
X175449761Y-40365952D02*
X175306904Y-40365952D01*
X175306904Y-40365952D02*
X175211666Y-40413571D01*
X174735475Y-40365952D02*
X174735475Y-41223095D01*
X174735475Y-41223095D02*
X174783094Y-41318333D01*
X174783094Y-41318333D02*
X174878332Y-41365952D01*
X174878332Y-41365952D02*
X174925951Y-41365952D01*
X174735475Y-40032619D02*
X174783094Y-40080238D01*
X174783094Y-40080238D02*
X174735475Y-40127857D01*
X174735475Y-40127857D02*
X174687856Y-40080238D01*
X174687856Y-40080238D02*
X174735475Y-40032619D01*
X174735475Y-40032619D02*
X174735475Y-40127857D01*
X173830714Y-41032619D02*
X173830714Y-40508809D01*
X173830714Y-40508809D02*
X173878333Y-40413571D01*
X173878333Y-40413571D02*
X173973571Y-40365952D01*
X173973571Y-40365952D02*
X174164047Y-40365952D01*
X174164047Y-40365952D02*
X174259285Y-40413571D01*
X173830714Y-40985000D02*
X173925952Y-41032619D01*
X173925952Y-41032619D02*
X174164047Y-41032619D01*
X174164047Y-41032619D02*
X174259285Y-40985000D01*
X174259285Y-40985000D02*
X174306904Y-40889761D01*
X174306904Y-40889761D02*
X174306904Y-40794523D01*
X174306904Y-40794523D02*
X174259285Y-40699285D01*
X174259285Y-40699285D02*
X174164047Y-40651666D01*
X174164047Y-40651666D02*
X173925952Y-40651666D01*
X173925952Y-40651666D02*
X173830714Y-40604047D01*
X173354523Y-41032619D02*
X173354523Y-40365952D01*
X173354523Y-40461190D02*
X173306904Y-40413571D01*
X173306904Y-40413571D02*
X173211666Y-40365952D01*
X173211666Y-40365952D02*
X173068809Y-40365952D01*
X173068809Y-40365952D02*
X172973571Y-40413571D01*
X172973571Y-40413571D02*
X172925952Y-40508809D01*
X172925952Y-40508809D02*
X172925952Y-41032619D01*
X172925952Y-40508809D02*
X172878333Y-40413571D01*
X172878333Y-40413571D02*
X172783095Y-40365952D01*
X172783095Y-40365952D02*
X172640238Y-40365952D01*
X172640238Y-40365952D02*
X172544999Y-40413571D01*
X172544999Y-40413571D02*
X172497380Y-40508809D01*
X172497380Y-40508809D02*
X172497380Y-41032619D01*
X171640238Y-40985000D02*
X171735476Y-41032619D01*
X171735476Y-41032619D02*
X171925952Y-41032619D01*
X171925952Y-41032619D02*
X172021190Y-40985000D01*
X172021190Y-40985000D02*
X172068809Y-40889761D01*
X172068809Y-40889761D02*
X172068809Y-40508809D01*
X172068809Y-40508809D02*
X172021190Y-40413571D01*
X172021190Y-40413571D02*
X171925952Y-40365952D01*
X171925952Y-40365952D02*
X171735476Y-40365952D01*
X171735476Y-40365952D02*
X171640238Y-40413571D01*
X171640238Y-40413571D02*
X171592619Y-40508809D01*
X171592619Y-40508809D02*
X171592619Y-40604047D01*
X171592619Y-40604047D02*
X172068809Y-40699285D01*
X171211666Y-40985000D02*
X171116428Y-41032619D01*
X171116428Y-41032619D02*
X170925952Y-41032619D01*
X170925952Y-41032619D02*
X170830714Y-40985000D01*
X170830714Y-40985000D02*
X170783095Y-40889761D01*
X170783095Y-40889761D02*
X170783095Y-40842142D01*
X170783095Y-40842142D02*
X170830714Y-40746904D01*
X170830714Y-40746904D02*
X170925952Y-40699285D01*
X170925952Y-40699285D02*
X171068809Y-40699285D01*
X171068809Y-40699285D02*
X171164047Y-40651666D01*
X171164047Y-40651666D02*
X171211666Y-40556428D01*
X171211666Y-40556428D02*
X171211666Y-40508809D01*
X171211666Y-40508809D02*
X171164047Y-40413571D01*
X171164047Y-40413571D02*
X171068809Y-40365952D01*
X171068809Y-40365952D02*
X170925952Y-40365952D01*
X170925952Y-40365952D02*
X170830714Y-40413571D01*
X169640238Y-39985000D02*
X170497380Y-41270714D01*
X183592619Y-42605000D02*
X183687857Y-42652619D01*
X183687857Y-42652619D02*
X183878333Y-42652619D01*
X183878333Y-42652619D02*
X183973571Y-42605000D01*
X183973571Y-42605000D02*
X184021190Y-42557380D01*
X184021190Y-42557380D02*
X184068809Y-42462142D01*
X184068809Y-42462142D02*
X184068809Y-42176428D01*
X184068809Y-42176428D02*
X184021190Y-42081190D01*
X184021190Y-42081190D02*
X183973571Y-42033571D01*
X183973571Y-42033571D02*
X183878333Y-41985952D01*
X183878333Y-41985952D02*
X183687857Y-41985952D01*
X183687857Y-41985952D02*
X183592619Y-42033571D01*
X183164047Y-42652619D02*
X183164047Y-41652619D01*
X182735476Y-42652619D02*
X182735476Y-42128809D01*
X182735476Y-42128809D02*
X182783095Y-42033571D01*
X182783095Y-42033571D02*
X182878333Y-41985952D01*
X182878333Y-41985952D02*
X183021190Y-41985952D01*
X183021190Y-41985952D02*
X183116428Y-42033571D01*
X183116428Y-42033571D02*
X183164047Y-42081190D01*
X181830714Y-42652619D02*
X181830714Y-42128809D01*
X181830714Y-42128809D02*
X181878333Y-42033571D01*
X181878333Y-42033571D02*
X181973571Y-41985952D01*
X181973571Y-41985952D02*
X182164047Y-41985952D01*
X182164047Y-41985952D02*
X182259285Y-42033571D01*
X181830714Y-42605000D02*
X181925952Y-42652619D01*
X181925952Y-42652619D02*
X182164047Y-42652619D01*
X182164047Y-42652619D02*
X182259285Y-42605000D01*
X182259285Y-42605000D02*
X182306904Y-42509761D01*
X182306904Y-42509761D02*
X182306904Y-42414523D01*
X182306904Y-42414523D02*
X182259285Y-42319285D01*
X182259285Y-42319285D02*
X182164047Y-42271666D01*
X182164047Y-42271666D02*
X181925952Y-42271666D01*
X181925952Y-42271666D02*
X181830714Y-42224047D01*
X181354523Y-42652619D02*
X181354523Y-41985952D01*
X181354523Y-42081190D02*
X181306904Y-42033571D01*
X181306904Y-42033571D02*
X181211666Y-41985952D01*
X181211666Y-41985952D02*
X181068809Y-41985952D01*
X181068809Y-41985952D02*
X180973571Y-42033571D01*
X180973571Y-42033571D02*
X180925952Y-42128809D01*
X180925952Y-42128809D02*
X180925952Y-42652619D01*
X180925952Y-42128809D02*
X180878333Y-42033571D01*
X180878333Y-42033571D02*
X180783095Y-41985952D01*
X180783095Y-41985952D02*
X180640238Y-41985952D01*
X180640238Y-41985952D02*
X180544999Y-42033571D01*
X180544999Y-42033571D02*
X180497380Y-42128809D01*
X180497380Y-42128809D02*
X180497380Y-42652619D01*
X179640238Y-42605000D02*
X179735476Y-42652619D01*
X179735476Y-42652619D02*
X179925952Y-42652619D01*
X179925952Y-42652619D02*
X180021190Y-42605000D01*
X180021190Y-42605000D02*
X180068809Y-42509761D01*
X180068809Y-42509761D02*
X180068809Y-42128809D01*
X180068809Y-42128809D02*
X180021190Y-42033571D01*
X180021190Y-42033571D02*
X179925952Y-41985952D01*
X179925952Y-41985952D02*
X179735476Y-41985952D01*
X179735476Y-41985952D02*
X179640238Y-42033571D01*
X179640238Y-42033571D02*
X179592619Y-42128809D01*
X179592619Y-42128809D02*
X179592619Y-42224047D01*
X179592619Y-42224047D02*
X180068809Y-42319285D01*
X179021190Y-42652619D02*
X179116428Y-42605000D01*
X179116428Y-42605000D02*
X179164047Y-42509761D01*
X179164047Y-42509761D02*
X179164047Y-41652619D01*
X178259285Y-42605000D02*
X178354523Y-42652619D01*
X178354523Y-42652619D02*
X178544999Y-42652619D01*
X178544999Y-42652619D02*
X178640237Y-42605000D01*
X178640237Y-42605000D02*
X178687856Y-42509761D01*
X178687856Y-42509761D02*
X178687856Y-42128809D01*
X178687856Y-42128809D02*
X178640237Y-42033571D01*
X178640237Y-42033571D02*
X178544999Y-41985952D01*
X178544999Y-41985952D02*
X178354523Y-41985952D01*
X178354523Y-41985952D02*
X178259285Y-42033571D01*
X178259285Y-42033571D02*
X178211666Y-42128809D01*
X178211666Y-42128809D02*
X178211666Y-42224047D01*
X178211666Y-42224047D02*
X178687856Y-42319285D01*
X177640237Y-42652619D02*
X177735475Y-42605000D01*
X177735475Y-42605000D02*
X177783094Y-42557380D01*
X177783094Y-42557380D02*
X177830713Y-42462142D01*
X177830713Y-42462142D02*
X177830713Y-42176428D01*
X177830713Y-42176428D02*
X177783094Y-42081190D01*
X177783094Y-42081190D02*
X177735475Y-42033571D01*
X177735475Y-42033571D02*
X177640237Y-41985952D01*
X177640237Y-41985952D02*
X177497380Y-41985952D01*
X177497380Y-41985952D02*
X177402142Y-42033571D01*
X177402142Y-42033571D02*
X177354523Y-42081190D01*
X177354523Y-42081190D02*
X177306904Y-42176428D01*
X177306904Y-42176428D02*
X177306904Y-42462142D01*
X177306904Y-42462142D02*
X177354523Y-42557380D01*
X177354523Y-42557380D02*
X177402142Y-42605000D01*
X177402142Y-42605000D02*
X177497380Y-42652619D01*
X177497380Y-42652619D02*
X177640237Y-42652619D01*
X176878332Y-41985952D02*
X176878332Y-42652619D01*
X176878332Y-42081190D02*
X176830713Y-42033571D01*
X176830713Y-42033571D02*
X176735475Y-41985952D01*
X176735475Y-41985952D02*
X176592618Y-41985952D01*
X176592618Y-41985952D02*
X176497380Y-42033571D01*
X176497380Y-42033571D02*
X176449761Y-42128809D01*
X176449761Y-42128809D02*
X176449761Y-42652619D01*
X175973570Y-42271666D02*
X175211666Y-42271666D01*
X174735475Y-42652619D02*
X174735475Y-41652619D01*
X174735475Y-41652619D02*
X174354523Y-41652619D01*
X174354523Y-41652619D02*
X174259285Y-41700238D01*
X174259285Y-41700238D02*
X174211666Y-41747857D01*
X174211666Y-41747857D02*
X174164047Y-41843095D01*
X174164047Y-41843095D02*
X174164047Y-41985952D01*
X174164047Y-41985952D02*
X174211666Y-42081190D01*
X174211666Y-42081190D02*
X174259285Y-42128809D01*
X174259285Y-42128809D02*
X174354523Y-42176428D01*
X174354523Y-42176428D02*
X174735475Y-42176428D01*
X173164047Y-42557380D02*
X173211666Y-42605000D01*
X173211666Y-42605000D02*
X173354523Y-42652619D01*
X173354523Y-42652619D02*
X173449761Y-42652619D01*
X173449761Y-42652619D02*
X173592618Y-42605000D01*
X173592618Y-42605000D02*
X173687856Y-42509761D01*
X173687856Y-42509761D02*
X173735475Y-42414523D01*
X173735475Y-42414523D02*
X173783094Y-42224047D01*
X173783094Y-42224047D02*
X173783094Y-42081190D01*
X173783094Y-42081190D02*
X173735475Y-41890714D01*
X173735475Y-41890714D02*
X173687856Y-41795476D01*
X173687856Y-41795476D02*
X173592618Y-41700238D01*
X173592618Y-41700238D02*
X173449761Y-41652619D01*
X173449761Y-41652619D02*
X173354523Y-41652619D01*
X173354523Y-41652619D02*
X173211666Y-41700238D01*
X173211666Y-41700238D02*
X173164047Y-41747857D01*
X172402142Y-42128809D02*
X172259285Y-42176428D01*
X172259285Y-42176428D02*
X172211666Y-42224047D01*
X172211666Y-42224047D02*
X172164047Y-42319285D01*
X172164047Y-42319285D02*
X172164047Y-42462142D01*
X172164047Y-42462142D02*
X172211666Y-42557380D01*
X172211666Y-42557380D02*
X172259285Y-42605000D01*
X172259285Y-42605000D02*
X172354523Y-42652619D01*
X172354523Y-42652619D02*
X172735475Y-42652619D01*
X172735475Y-42652619D02*
X172735475Y-41652619D01*
X172735475Y-41652619D02*
X172402142Y-41652619D01*
X172402142Y-41652619D02*
X172306904Y-41700238D01*
X172306904Y-41700238D02*
X172259285Y-41747857D01*
X172259285Y-41747857D02*
X172211666Y-41843095D01*
X172211666Y-41843095D02*
X172211666Y-41938333D01*
X172211666Y-41938333D02*
X172259285Y-42033571D01*
X172259285Y-42033571D02*
X172306904Y-42081190D01*
X172306904Y-42081190D02*
X172402142Y-42128809D01*
X172402142Y-42128809D02*
X172735475Y-42128809D01*
X171735475Y-42557380D02*
X171687856Y-42605000D01*
X171687856Y-42605000D02*
X171735475Y-42652619D01*
X171735475Y-42652619D02*
X171783094Y-42605000D01*
X171783094Y-42605000D02*
X171735475Y-42557380D01*
X171735475Y-42557380D02*
X171735475Y-42652619D01*
X170830714Y-41985952D02*
X170830714Y-42795476D01*
X170830714Y-42795476D02*
X170878333Y-42890714D01*
X170878333Y-42890714D02*
X170925952Y-42938333D01*
X170925952Y-42938333D02*
X171021190Y-42985952D01*
X171021190Y-42985952D02*
X171164047Y-42985952D01*
X171164047Y-42985952D02*
X171259285Y-42938333D01*
X170830714Y-42605000D02*
X170925952Y-42652619D01*
X170925952Y-42652619D02*
X171116428Y-42652619D01*
X171116428Y-42652619D02*
X171211666Y-42605000D01*
X171211666Y-42605000D02*
X171259285Y-42557380D01*
X171259285Y-42557380D02*
X171306904Y-42462142D01*
X171306904Y-42462142D02*
X171306904Y-42176428D01*
X171306904Y-42176428D02*
X171259285Y-42081190D01*
X171259285Y-42081190D02*
X171211666Y-42033571D01*
X171211666Y-42033571D02*
X171116428Y-41985952D01*
X171116428Y-41985952D02*
X170925952Y-41985952D01*
X170925952Y-41985952D02*
X170830714Y-42033571D01*
X170354523Y-42652619D02*
X170354523Y-41985952D01*
X170354523Y-41652619D02*
X170402142Y-41700238D01*
X170402142Y-41700238D02*
X170354523Y-41747857D01*
X170354523Y-41747857D02*
X170306904Y-41700238D01*
X170306904Y-41700238D02*
X170354523Y-41652619D01*
X170354523Y-41652619D02*
X170354523Y-41747857D01*
X170021190Y-41985952D02*
X169640238Y-41985952D01*
X169878333Y-41652619D02*
X169878333Y-42509761D01*
X169878333Y-42509761D02*
X169830714Y-42605000D01*
X169830714Y-42605000D02*
X169735476Y-42652619D01*
X169735476Y-42652619D02*
X169640238Y-42652619D01*
X211851904Y-34682619D02*
X211851904Y-33682619D01*
X211851904Y-33682619D02*
X211470952Y-33682619D01*
X211470952Y-33682619D02*
X211375714Y-33730238D01*
X211375714Y-33730238D02*
X211328095Y-33777857D01*
X211328095Y-33777857D02*
X211280476Y-33873095D01*
X211280476Y-33873095D02*
X211280476Y-34015952D01*
X211280476Y-34015952D02*
X211328095Y-34111190D01*
X211328095Y-34111190D02*
X211375714Y-34158809D01*
X211375714Y-34158809D02*
X211470952Y-34206428D01*
X211470952Y-34206428D02*
X211851904Y-34206428D01*
X210851904Y-34682619D02*
X210851904Y-34015952D01*
X210851904Y-34206428D02*
X210804285Y-34111190D01*
X210804285Y-34111190D02*
X210756666Y-34063571D01*
X210756666Y-34063571D02*
X210661428Y-34015952D01*
X210661428Y-34015952D02*
X210566190Y-34015952D01*
X210089999Y-34682619D02*
X210185237Y-34635000D01*
X210185237Y-34635000D02*
X210232856Y-34587380D01*
X210232856Y-34587380D02*
X210280475Y-34492142D01*
X210280475Y-34492142D02*
X210280475Y-34206428D01*
X210280475Y-34206428D02*
X210232856Y-34111190D01*
X210232856Y-34111190D02*
X210185237Y-34063571D01*
X210185237Y-34063571D02*
X210089999Y-34015952D01*
X210089999Y-34015952D02*
X209947142Y-34015952D01*
X209947142Y-34015952D02*
X209851904Y-34063571D01*
X209851904Y-34063571D02*
X209804285Y-34111190D01*
X209804285Y-34111190D02*
X209756666Y-34206428D01*
X209756666Y-34206428D02*
X209756666Y-34492142D01*
X209756666Y-34492142D02*
X209804285Y-34587380D01*
X209804285Y-34587380D02*
X209851904Y-34635000D01*
X209851904Y-34635000D02*
X209947142Y-34682619D01*
X209947142Y-34682619D02*
X210089999Y-34682619D01*
X209328094Y-34015952D02*
X209328094Y-34873095D01*
X209328094Y-34873095D02*
X209375713Y-34968333D01*
X209375713Y-34968333D02*
X209470951Y-35015952D01*
X209470951Y-35015952D02*
X209518570Y-35015952D01*
X209328094Y-33682619D02*
X209375713Y-33730238D01*
X209375713Y-33730238D02*
X209328094Y-33777857D01*
X209328094Y-33777857D02*
X209280475Y-33730238D01*
X209280475Y-33730238D02*
X209328094Y-33682619D01*
X209328094Y-33682619D02*
X209328094Y-33777857D01*
X208470952Y-34635000D02*
X208566190Y-34682619D01*
X208566190Y-34682619D02*
X208756666Y-34682619D01*
X208756666Y-34682619D02*
X208851904Y-34635000D01*
X208851904Y-34635000D02*
X208899523Y-34539761D01*
X208899523Y-34539761D02*
X208899523Y-34158809D01*
X208899523Y-34158809D02*
X208851904Y-34063571D01*
X208851904Y-34063571D02*
X208756666Y-34015952D01*
X208756666Y-34015952D02*
X208566190Y-34015952D01*
X208566190Y-34015952D02*
X208470952Y-34063571D01*
X208470952Y-34063571D02*
X208423333Y-34158809D01*
X208423333Y-34158809D02*
X208423333Y-34254047D01*
X208423333Y-34254047D02*
X208899523Y-34349285D01*
X207566190Y-34635000D02*
X207661428Y-34682619D01*
X207661428Y-34682619D02*
X207851904Y-34682619D01*
X207851904Y-34682619D02*
X207947142Y-34635000D01*
X207947142Y-34635000D02*
X207994761Y-34587380D01*
X207994761Y-34587380D02*
X208042380Y-34492142D01*
X208042380Y-34492142D02*
X208042380Y-34206428D01*
X208042380Y-34206428D02*
X207994761Y-34111190D01*
X207994761Y-34111190D02*
X207947142Y-34063571D01*
X207947142Y-34063571D02*
X207851904Y-34015952D01*
X207851904Y-34015952D02*
X207661428Y-34015952D01*
X207661428Y-34015952D02*
X207566190Y-34063571D01*
X207280475Y-34015952D02*
X206899523Y-34015952D01*
X207137618Y-33682619D02*
X207137618Y-34539761D01*
X207137618Y-34539761D02*
X207089999Y-34635000D01*
X207089999Y-34635000D02*
X206994761Y-34682619D01*
X206994761Y-34682619D02*
X206899523Y-34682619D01*
X205804284Y-34682619D02*
X205804284Y-33682619D01*
X205804284Y-33682619D02*
X205470951Y-34396904D01*
X205470951Y-34396904D02*
X205137618Y-33682619D01*
X205137618Y-33682619D02*
X205137618Y-34682619D01*
X204280475Y-34635000D02*
X204375713Y-34682619D01*
X204375713Y-34682619D02*
X204566189Y-34682619D01*
X204566189Y-34682619D02*
X204661427Y-34635000D01*
X204661427Y-34635000D02*
X204709046Y-34539761D01*
X204709046Y-34539761D02*
X204709046Y-34158809D01*
X204709046Y-34158809D02*
X204661427Y-34063571D01*
X204661427Y-34063571D02*
X204566189Y-34015952D01*
X204566189Y-34015952D02*
X204375713Y-34015952D01*
X204375713Y-34015952D02*
X204280475Y-34063571D01*
X204280475Y-34063571D02*
X204232856Y-34158809D01*
X204232856Y-34158809D02*
X204232856Y-34254047D01*
X204232856Y-34254047D02*
X204709046Y-34349285D01*
X203804284Y-34015952D02*
X203804284Y-34682619D01*
X203804284Y-34111190D02*
X203756665Y-34063571D01*
X203756665Y-34063571D02*
X203661427Y-34015952D01*
X203661427Y-34015952D02*
X203518570Y-34015952D01*
X203518570Y-34015952D02*
X203423332Y-34063571D01*
X203423332Y-34063571D02*
X203375713Y-34158809D01*
X203375713Y-34158809D02*
X203375713Y-34682619D01*
X203042379Y-34015952D02*
X202661427Y-34015952D01*
X202899522Y-33682619D02*
X202899522Y-34539761D01*
X202899522Y-34539761D02*
X202851903Y-34635000D01*
X202851903Y-34635000D02*
X202756665Y-34682619D01*
X202756665Y-34682619D02*
X202661427Y-34682619D01*
X202185236Y-34682619D02*
X202280474Y-34635000D01*
X202280474Y-34635000D02*
X202328093Y-34587380D01*
X202328093Y-34587380D02*
X202375712Y-34492142D01*
X202375712Y-34492142D02*
X202375712Y-34206428D01*
X202375712Y-34206428D02*
X202328093Y-34111190D01*
X202328093Y-34111190D02*
X202280474Y-34063571D01*
X202280474Y-34063571D02*
X202185236Y-34015952D01*
X202185236Y-34015952D02*
X202042379Y-34015952D01*
X202042379Y-34015952D02*
X201947141Y-34063571D01*
X201947141Y-34063571D02*
X201899522Y-34111190D01*
X201899522Y-34111190D02*
X201851903Y-34206428D01*
X201851903Y-34206428D02*
X201851903Y-34492142D01*
X201851903Y-34492142D02*
X201899522Y-34587380D01*
X201899522Y-34587380D02*
X201947141Y-34635000D01*
X201947141Y-34635000D02*
X202042379Y-34682619D01*
X202042379Y-34682619D02*
X202185236Y-34682619D01*
X201423331Y-34682619D02*
X201423331Y-34015952D01*
X201423331Y-34206428D02*
X201375712Y-34111190D01*
X201375712Y-34111190D02*
X201328093Y-34063571D01*
X201328093Y-34063571D02*
X201232855Y-34015952D01*
X201232855Y-34015952D02*
X201137617Y-34015952D01*
X200804283Y-34587380D02*
X200756664Y-34635000D01*
X200756664Y-34635000D02*
X200804283Y-34682619D01*
X200804283Y-34682619D02*
X200851902Y-34635000D01*
X200851902Y-34635000D02*
X200804283Y-34587380D01*
X200804283Y-34587380D02*
X200804283Y-34682619D01*
X200804283Y-34063571D02*
X200756664Y-34111190D01*
X200756664Y-34111190D02*
X200804283Y-34158809D01*
X200804283Y-34158809D02*
X200851902Y-34111190D01*
X200851902Y-34111190D02*
X200804283Y-34063571D01*
X200804283Y-34063571D02*
X200804283Y-34158809D01*
X211851904Y-36302619D02*
X211851904Y-35302619D01*
X211851904Y-35302619D02*
X211613809Y-35302619D01*
X211613809Y-35302619D02*
X211470952Y-35350238D01*
X211470952Y-35350238D02*
X211375714Y-35445476D01*
X211375714Y-35445476D02*
X211328095Y-35540714D01*
X211328095Y-35540714D02*
X211280476Y-35731190D01*
X211280476Y-35731190D02*
X211280476Y-35874047D01*
X211280476Y-35874047D02*
X211328095Y-36064523D01*
X211328095Y-36064523D02*
X211375714Y-36159761D01*
X211375714Y-36159761D02*
X211470952Y-36255000D01*
X211470952Y-36255000D02*
X211613809Y-36302619D01*
X211613809Y-36302619D02*
X211851904Y-36302619D01*
X210851904Y-36302619D02*
X210851904Y-35635952D01*
X210851904Y-35826428D02*
X210804285Y-35731190D01*
X210804285Y-35731190D02*
X210756666Y-35683571D01*
X210756666Y-35683571D02*
X210661428Y-35635952D01*
X210661428Y-35635952D02*
X210566190Y-35635952D01*
X210232856Y-36207380D02*
X210185237Y-36255000D01*
X210185237Y-36255000D02*
X210232856Y-36302619D01*
X210232856Y-36302619D02*
X210280475Y-36255000D01*
X210280475Y-36255000D02*
X210232856Y-36207380D01*
X210232856Y-36207380D02*
X210232856Y-36302619D01*
X208994761Y-35778809D02*
X208661428Y-35778809D01*
X208518571Y-36302619D02*
X208994761Y-36302619D01*
X208994761Y-36302619D02*
X208994761Y-35302619D01*
X208994761Y-35302619D02*
X208518571Y-35302619D01*
X208089999Y-36302619D02*
X208089999Y-35635952D01*
X208089999Y-35826428D02*
X208042380Y-35731190D01*
X208042380Y-35731190D02*
X207994761Y-35683571D01*
X207994761Y-35683571D02*
X207899523Y-35635952D01*
X207899523Y-35635952D02*
X207804285Y-35635952D01*
X207470951Y-36302619D02*
X207470951Y-35635952D01*
X207470951Y-35302619D02*
X207518570Y-35350238D01*
X207518570Y-35350238D02*
X207470951Y-35397857D01*
X207470951Y-35397857D02*
X207423332Y-35350238D01*
X207423332Y-35350238D02*
X207470951Y-35302619D01*
X207470951Y-35302619D02*
X207470951Y-35397857D01*
X206566190Y-36255000D02*
X206661428Y-36302619D01*
X206661428Y-36302619D02*
X206851904Y-36302619D01*
X206851904Y-36302619D02*
X206947142Y-36255000D01*
X206947142Y-36255000D02*
X206994761Y-36207380D01*
X206994761Y-36207380D02*
X207042380Y-36112142D01*
X207042380Y-36112142D02*
X207042380Y-35826428D01*
X207042380Y-35826428D02*
X206994761Y-35731190D01*
X206994761Y-35731190D02*
X206947142Y-35683571D01*
X206947142Y-35683571D02*
X206851904Y-35635952D01*
X206851904Y-35635952D02*
X206661428Y-35635952D01*
X206661428Y-35635952D02*
X206566190Y-35683571D01*
X205375713Y-36302619D02*
X205375713Y-35302619D01*
X204804285Y-36302619D02*
X205232856Y-35731190D01*
X204804285Y-35302619D02*
X205375713Y-35874047D01*
X204232856Y-36302619D02*
X204328094Y-36255000D01*
X204328094Y-36255000D02*
X204375713Y-36159761D01*
X204375713Y-36159761D02*
X204375713Y-35302619D01*
X203423332Y-36302619D02*
X203423332Y-35778809D01*
X203423332Y-35778809D02*
X203470951Y-35683571D01*
X203470951Y-35683571D02*
X203566189Y-35635952D01*
X203566189Y-35635952D02*
X203756665Y-35635952D01*
X203756665Y-35635952D02*
X203851903Y-35683571D01*
X203423332Y-36255000D02*
X203518570Y-36302619D01*
X203518570Y-36302619D02*
X203756665Y-36302619D01*
X203756665Y-36302619D02*
X203851903Y-36255000D01*
X203851903Y-36255000D02*
X203899522Y-36159761D01*
X203899522Y-36159761D02*
X203899522Y-36064523D01*
X203899522Y-36064523D02*
X203851903Y-35969285D01*
X203851903Y-35969285D02*
X203756665Y-35921666D01*
X203756665Y-35921666D02*
X203518570Y-35921666D01*
X203518570Y-35921666D02*
X203423332Y-35874047D01*
X203042379Y-35635952D02*
X202804284Y-36302619D01*
X202804284Y-36302619D02*
X202566189Y-35635952D01*
X202185236Y-36302619D02*
X202185236Y-35635952D01*
X202185236Y-35302619D02*
X202232855Y-35350238D01*
X202232855Y-35350238D02*
X202185236Y-35397857D01*
X202185236Y-35397857D02*
X202137617Y-35350238D01*
X202137617Y-35350238D02*
X202185236Y-35302619D01*
X202185236Y-35302619D02*
X202185236Y-35397857D01*
X201709046Y-35635952D02*
X201709046Y-36302619D01*
X201709046Y-35731190D02*
X201661427Y-35683571D01*
X201661427Y-35683571D02*
X201566189Y-35635952D01*
X201566189Y-35635952D02*
X201423332Y-35635952D01*
X201423332Y-35635952D02*
X201328094Y-35683571D01*
X201328094Y-35683571D02*
X201280475Y-35778809D01*
X201280475Y-35778809D02*
X201280475Y-36302619D01*
X200851903Y-36255000D02*
X200756665Y-36302619D01*
X200756665Y-36302619D02*
X200566189Y-36302619D01*
X200566189Y-36302619D02*
X200470951Y-36255000D01*
X200470951Y-36255000D02*
X200423332Y-36159761D01*
X200423332Y-36159761D02*
X200423332Y-36112142D01*
X200423332Y-36112142D02*
X200470951Y-36016904D01*
X200470951Y-36016904D02*
X200566189Y-35969285D01*
X200566189Y-35969285D02*
X200709046Y-35969285D01*
X200709046Y-35969285D02*
X200804284Y-35921666D01*
X200804284Y-35921666D02*
X200851903Y-35826428D01*
X200851903Y-35826428D02*
X200851903Y-35778809D01*
X200851903Y-35778809D02*
X200804284Y-35683571D01*
X200804284Y-35683571D02*
X200709046Y-35635952D01*
X200709046Y-35635952D02*
X200566189Y-35635952D01*
X200566189Y-35635952D02*
X200470951Y-35683571D01*
D12*
X201496427Y-45481428D02*
X201853570Y-45481428D01*
X201853570Y-45481428D02*
X201853570Y-43338571D01*
X201853570Y-43338571D02*
X201496427Y-43338571D01*
X200639284Y-43481428D02*
X200496427Y-43481428D01*
X200496427Y-43481428D02*
X200353570Y-43552857D01*
X200353570Y-43552857D02*
X200282142Y-43624285D01*
X200282142Y-43624285D02*
X200210713Y-43767142D01*
X200210713Y-43767142D02*
X200139284Y-44052857D01*
X200139284Y-44052857D02*
X200139284Y-44410000D01*
X200139284Y-44410000D02*
X200210713Y-44695714D01*
X200210713Y-44695714D02*
X200282142Y-44838571D01*
X200282142Y-44838571D02*
X200353570Y-44910000D01*
X200353570Y-44910000D02*
X200496427Y-44981428D01*
X200496427Y-44981428D02*
X200639284Y-44981428D01*
X200639284Y-44981428D02*
X200782142Y-44910000D01*
X200782142Y-44910000D02*
X200853570Y-44838571D01*
X200853570Y-44838571D02*
X200924999Y-44695714D01*
X200924999Y-44695714D02*
X200996427Y-44410000D01*
X200996427Y-44410000D02*
X200996427Y-44052857D01*
X200996427Y-44052857D02*
X200924999Y-43767142D01*
X200924999Y-43767142D02*
X200853570Y-43624285D01*
X200853570Y-43624285D02*
X200782142Y-43552857D01*
X200782142Y-43552857D02*
X200639284Y-43481428D01*
X199710713Y-43481428D02*
X199210713Y-44981428D01*
X199210713Y-44981428D02*
X198710713Y-43481428D01*
X198139285Y-44910000D02*
X198139285Y-44981428D01*
X198139285Y-44981428D02*
X198210714Y-45124285D01*
X198210714Y-45124285D02*
X198282142Y-45195714D01*
X196353571Y-44410000D02*
X195210714Y-44410000D01*
X195782142Y-44981428D02*
X195782142Y-43838571D01*
X194567856Y-43624285D02*
X194496428Y-43552857D01*
X194496428Y-43552857D02*
X194353571Y-43481428D01*
X194353571Y-43481428D02*
X193996428Y-43481428D01*
X193996428Y-43481428D02*
X193853571Y-43552857D01*
X193853571Y-43552857D02*
X193782142Y-43624285D01*
X193782142Y-43624285D02*
X193710713Y-43767142D01*
X193710713Y-43767142D02*
X193710713Y-43910000D01*
X193710713Y-43910000D02*
X193782142Y-44124285D01*
X193782142Y-44124285D02*
X194639285Y-44981428D01*
X194639285Y-44981428D02*
X193710713Y-44981428D01*
X193067857Y-44838571D02*
X192996428Y-44910000D01*
X192996428Y-44910000D02*
X193067857Y-44981428D01*
X193067857Y-44981428D02*
X193139285Y-44910000D01*
X193139285Y-44910000D02*
X193067857Y-44838571D01*
X193067857Y-44838571D02*
X193067857Y-44981428D01*
X191567856Y-44981428D02*
X192424999Y-44981428D01*
X191996428Y-44981428D02*
X191996428Y-43481428D01*
X191996428Y-43481428D02*
X192139285Y-43695714D01*
X192139285Y-43695714D02*
X192282142Y-43838571D01*
X192282142Y-43838571D02*
X192424999Y-43910000D01*
X191139285Y-43481428D02*
X190639285Y-44981428D01*
X190639285Y-44981428D02*
X190139285Y-43481428D01*
X189782143Y-45481428D02*
X189425000Y-45481428D01*
X189425000Y-45481428D02*
X189425000Y-43338571D01*
X189425000Y-43338571D02*
X189782143Y-43338571D01*
X187567857Y-44910000D02*
X187353572Y-44981428D01*
X187353572Y-44981428D02*
X186996429Y-44981428D01*
X186996429Y-44981428D02*
X186853572Y-44910000D01*
X186853572Y-44910000D02*
X186782143Y-44838571D01*
X186782143Y-44838571D02*
X186710714Y-44695714D01*
X186710714Y-44695714D02*
X186710714Y-44552857D01*
X186710714Y-44552857D02*
X186782143Y-44410000D01*
X186782143Y-44410000D02*
X186853572Y-44338571D01*
X186853572Y-44338571D02*
X186996429Y-44267142D01*
X186996429Y-44267142D02*
X187282143Y-44195714D01*
X187282143Y-44195714D02*
X187425000Y-44124285D01*
X187425000Y-44124285D02*
X187496429Y-44052857D01*
X187496429Y-44052857D02*
X187567857Y-43910000D01*
X187567857Y-43910000D02*
X187567857Y-43767142D01*
X187567857Y-43767142D02*
X187496429Y-43624285D01*
X187496429Y-43624285D02*
X187425000Y-43552857D01*
X187425000Y-43552857D02*
X187282143Y-43481428D01*
X187282143Y-43481428D02*
X186925000Y-43481428D01*
X186925000Y-43481428D02*
X186710714Y-43552857D01*
X186067858Y-44195714D02*
X185567858Y-44195714D01*
X185353572Y-44981428D02*
X186067858Y-44981428D01*
X186067858Y-44981428D02*
X186067858Y-43481428D01*
X186067858Y-43481428D02*
X185353572Y-43481428D01*
X202496427Y-47911428D02*
X202853570Y-47911428D01*
X202853570Y-47911428D02*
X202853570Y-45768571D01*
X202853570Y-45768571D02*
X202496427Y-45768571D01*
X201639284Y-45911428D02*
X201496427Y-45911428D01*
X201496427Y-45911428D02*
X201353570Y-45982857D01*
X201353570Y-45982857D02*
X201282142Y-46054285D01*
X201282142Y-46054285D02*
X201210713Y-46197142D01*
X201210713Y-46197142D02*
X201139284Y-46482857D01*
X201139284Y-46482857D02*
X201139284Y-46840000D01*
X201139284Y-46840000D02*
X201210713Y-47125714D01*
X201210713Y-47125714D02*
X201282142Y-47268571D01*
X201282142Y-47268571D02*
X201353570Y-47340000D01*
X201353570Y-47340000D02*
X201496427Y-47411428D01*
X201496427Y-47411428D02*
X201639284Y-47411428D01*
X201639284Y-47411428D02*
X201782142Y-47340000D01*
X201782142Y-47340000D02*
X201853570Y-47268571D01*
X201853570Y-47268571D02*
X201924999Y-47125714D01*
X201924999Y-47125714D02*
X201996427Y-46840000D01*
X201996427Y-46840000D02*
X201996427Y-46482857D01*
X201996427Y-46482857D02*
X201924999Y-46197142D01*
X201924999Y-46197142D02*
X201853570Y-46054285D01*
X201853570Y-46054285D02*
X201782142Y-45982857D01*
X201782142Y-45982857D02*
X201639284Y-45911428D01*
X200710713Y-45911428D02*
X200210713Y-47411428D01*
X200210713Y-47411428D02*
X199710713Y-45911428D01*
X199139285Y-47340000D02*
X199139285Y-47411428D01*
X199139285Y-47411428D02*
X199210714Y-47554285D01*
X199210714Y-47554285D02*
X199282142Y-47625714D01*
X197353571Y-46840000D02*
X196210714Y-46840000D01*
X196782142Y-47411428D02*
X196782142Y-46268571D01*
X194853571Y-46411428D02*
X194853571Y-47411428D01*
X195210713Y-45840000D02*
X195567856Y-46911428D01*
X195567856Y-46911428D02*
X194639285Y-46911428D01*
X194067857Y-47268571D02*
X193996428Y-47340000D01*
X193996428Y-47340000D02*
X194067857Y-47411428D01*
X194067857Y-47411428D02*
X194139285Y-47340000D01*
X194139285Y-47340000D02*
X194067857Y-47268571D01*
X194067857Y-47268571D02*
X194067857Y-47411428D01*
X193424999Y-46054285D02*
X193353571Y-45982857D01*
X193353571Y-45982857D02*
X193210714Y-45911428D01*
X193210714Y-45911428D02*
X192853571Y-45911428D01*
X192853571Y-45911428D02*
X192710714Y-45982857D01*
X192710714Y-45982857D02*
X192639285Y-46054285D01*
X192639285Y-46054285D02*
X192567856Y-46197142D01*
X192567856Y-46197142D02*
X192567856Y-46340000D01*
X192567856Y-46340000D02*
X192639285Y-46554285D01*
X192639285Y-46554285D02*
X193496428Y-47411428D01*
X193496428Y-47411428D02*
X192567856Y-47411428D01*
X192139285Y-45911428D02*
X191639285Y-47411428D01*
X191639285Y-47411428D02*
X191139285Y-45911428D01*
X190782143Y-47911428D02*
X190425000Y-47911428D01*
X190425000Y-47911428D02*
X190425000Y-45768571D01*
X190425000Y-45768571D02*
X190782143Y-45768571D01*
X188496429Y-47411428D02*
X188496429Y-45911428D01*
X188496429Y-45911428D02*
X188139286Y-45911428D01*
X188139286Y-45911428D02*
X187925000Y-45982857D01*
X187925000Y-45982857D02*
X187782143Y-46125714D01*
X187782143Y-46125714D02*
X187710714Y-46268571D01*
X187710714Y-46268571D02*
X187639286Y-46554285D01*
X187639286Y-46554285D02*
X187639286Y-46768571D01*
X187639286Y-46768571D02*
X187710714Y-47054285D01*
X187710714Y-47054285D02*
X187782143Y-47197142D01*
X187782143Y-47197142D02*
X187925000Y-47340000D01*
X187925000Y-47340000D02*
X188139286Y-47411428D01*
X188139286Y-47411428D02*
X188496429Y-47411428D01*
X186996429Y-47411428D02*
X186996429Y-45911428D01*
X185782143Y-46625714D02*
X186282143Y-46625714D01*
X186282143Y-47411428D02*
X186282143Y-45911428D01*
X186282143Y-45911428D02*
X185567857Y-45911428D01*
X184496429Y-46625714D02*
X184996429Y-46625714D01*
X184996429Y-47411428D02*
X184996429Y-45911428D01*
X184996429Y-45911428D02*
X184282143Y-45911428D01*
D10*
X196362619Y-32075238D02*
X197362619Y-32408571D01*
X197362619Y-32408571D02*
X196362619Y-32741904D01*
X197362619Y-33075238D02*
X196362619Y-33075238D01*
X197362619Y-33551428D02*
X196362619Y-33551428D01*
X196362619Y-33551428D02*
X197362619Y-34122856D01*
X197362619Y-34122856D02*
X196362619Y-34122856D01*
X197362619Y-35122856D02*
X197362619Y-34551428D01*
X197362619Y-34837142D02*
X196362619Y-34837142D01*
X196362619Y-34837142D02*
X196505476Y-34741904D01*
X196505476Y-34741904D02*
X196600714Y-34646666D01*
X196600714Y-34646666D02*
X196648333Y-34551428D01*
X197362619Y-35551428D02*
X196362619Y-35551428D01*
X196362619Y-35551428D02*
X196362619Y-35932380D01*
X196362619Y-35932380D02*
X196410238Y-36027618D01*
X196410238Y-36027618D02*
X196457857Y-36075237D01*
X196457857Y-36075237D02*
X196553095Y-36122856D01*
X196553095Y-36122856D02*
X196695952Y-36122856D01*
X196695952Y-36122856D02*
X196791190Y-36075237D01*
X196791190Y-36075237D02*
X196838809Y-36027618D01*
X196838809Y-36027618D02*
X196886428Y-35932380D01*
X196886428Y-35932380D02*
X196886428Y-35551428D01*
X193822619Y-32075238D02*
X194822619Y-32408571D01*
X194822619Y-32408571D02*
X193822619Y-32741904D01*
X194822619Y-33075238D02*
X193822619Y-33075238D01*
X194822619Y-33551428D02*
X193822619Y-33551428D01*
X193822619Y-33551428D02*
X194822619Y-34122856D01*
X194822619Y-34122856D02*
X193822619Y-34122856D01*
X194822619Y-35122856D02*
X194822619Y-34551428D01*
X194822619Y-34837142D02*
X193822619Y-34837142D01*
X193822619Y-34837142D02*
X193965476Y-34741904D01*
X193965476Y-34741904D02*
X194060714Y-34646666D01*
X194060714Y-34646666D02*
X194108333Y-34551428D01*
X194822619Y-35551428D02*
X193822619Y-35551428D01*
X193822619Y-35551428D02*
X194536904Y-35884761D01*
X194536904Y-35884761D02*
X193822619Y-36218094D01*
X193822619Y-36218094D02*
X194822619Y-36218094D01*
X191282619Y-32075238D02*
X192282619Y-32408571D01*
X192282619Y-32408571D02*
X191282619Y-32741904D01*
X192282619Y-33075238D02*
X191282619Y-33075238D01*
X192282619Y-33551428D02*
X191282619Y-33551428D01*
X191282619Y-33551428D02*
X192282619Y-34122856D01*
X192282619Y-34122856D02*
X191282619Y-34122856D01*
X192282619Y-35075237D02*
X192282619Y-34599047D01*
X192282619Y-34599047D02*
X191282619Y-34599047D01*
X192282619Y-35932380D02*
X192282619Y-35360952D01*
X192282619Y-35646666D02*
X191282619Y-35646666D01*
X191282619Y-35646666D02*
X191425476Y-35551428D01*
X191425476Y-35551428D02*
X191520714Y-35456190D01*
X191520714Y-35456190D02*
X191568333Y-35360952D01*
X188742619Y-32075238D02*
X189742619Y-32408571D01*
X189742619Y-32408571D02*
X188742619Y-32741904D01*
X189742619Y-33075238D02*
X188742619Y-33075238D01*
X189742619Y-33551428D02*
X188742619Y-33551428D01*
X188742619Y-33551428D02*
X189742619Y-34122856D01*
X189742619Y-34122856D02*
X188742619Y-34122856D01*
X189742619Y-35170475D02*
X189266428Y-34837142D01*
X189742619Y-34599047D02*
X188742619Y-34599047D01*
X188742619Y-34599047D02*
X188742619Y-34979999D01*
X188742619Y-34979999D02*
X188790238Y-35075237D01*
X188790238Y-35075237D02*
X188837857Y-35122856D01*
X188837857Y-35122856D02*
X188933095Y-35170475D01*
X188933095Y-35170475D02*
X189075952Y-35170475D01*
X189075952Y-35170475D02*
X189171190Y-35122856D01*
X189171190Y-35122856D02*
X189218809Y-35075237D01*
X189218809Y-35075237D02*
X189266428Y-34979999D01*
X189266428Y-34979999D02*
X189266428Y-34599047D01*
X189742619Y-36122856D02*
X189742619Y-35551428D01*
X189742619Y-35837142D02*
X188742619Y-35837142D01*
X188742619Y-35837142D02*
X188885476Y-35741904D01*
X188885476Y-35741904D02*
X188980714Y-35646666D01*
X188980714Y-35646666D02*
X189028333Y-35551428D01*
X186690000Y-31345000D02*
X186690000Y-41187500D01*
X199390000Y-31345000D02*
X186690000Y-31345000D01*
X199390000Y-41187500D02*
X199390000Y-31345000D01*
X186690000Y-41187500D02*
X199390000Y-41187500D01*
D12*
X185062857Y-33551428D02*
X185062857Y-32051428D01*
X184348571Y-32551428D02*
X184348571Y-33551428D01*
X184348571Y-32694285D02*
X184277142Y-32622857D01*
X184277142Y-32622857D02*
X184134285Y-32551428D01*
X184134285Y-32551428D02*
X183919999Y-32551428D01*
X183919999Y-32551428D02*
X183777142Y-32622857D01*
X183777142Y-32622857D02*
X183705714Y-32765714D01*
X183705714Y-32765714D02*
X183705714Y-33551428D01*
X182991428Y-32551428D02*
X182991428Y-34051428D01*
X182991428Y-32622857D02*
X182848571Y-32551428D01*
X182848571Y-32551428D02*
X182562856Y-32551428D01*
X182562856Y-32551428D02*
X182419999Y-32622857D01*
X182419999Y-32622857D02*
X182348571Y-32694285D01*
X182348571Y-32694285D02*
X182277142Y-32837142D01*
X182277142Y-32837142D02*
X182277142Y-33265714D01*
X182277142Y-33265714D02*
X182348571Y-33408571D01*
X182348571Y-33408571D02*
X182419999Y-33480000D01*
X182419999Y-33480000D02*
X182562856Y-33551428D01*
X182562856Y-33551428D02*
X182848571Y-33551428D01*
X182848571Y-33551428D02*
X182991428Y-33480000D01*
X180991428Y-32551428D02*
X180991428Y-33551428D01*
X181634285Y-32551428D02*
X181634285Y-33337142D01*
X181634285Y-33337142D02*
X181562856Y-33480000D01*
X181562856Y-33480000D02*
X181419999Y-33551428D01*
X181419999Y-33551428D02*
X181205713Y-33551428D01*
X181205713Y-33551428D02*
X181062856Y-33480000D01*
X181062856Y-33480000D02*
X180991428Y-33408571D01*
X180491427Y-32551428D02*
X179919999Y-32551428D01*
X180277142Y-32051428D02*
X180277142Y-33337142D01*
X180277142Y-33337142D02*
X180205713Y-33480000D01*
X180205713Y-33480000D02*
X180062856Y-33551428D01*
X180062856Y-33551428D02*
X179919999Y-33551428D01*
X185134285Y-35910000D02*
X184920000Y-35981428D01*
X184920000Y-35981428D02*
X184562857Y-35981428D01*
X184562857Y-35981428D02*
X184420000Y-35910000D01*
X184420000Y-35910000D02*
X184348571Y-35838571D01*
X184348571Y-35838571D02*
X184277142Y-35695714D01*
X184277142Y-35695714D02*
X184277142Y-35552857D01*
X184277142Y-35552857D02*
X184348571Y-35410000D01*
X184348571Y-35410000D02*
X184420000Y-35338571D01*
X184420000Y-35338571D02*
X184562857Y-35267142D01*
X184562857Y-35267142D02*
X184848571Y-35195714D01*
X184848571Y-35195714D02*
X184991428Y-35124285D01*
X184991428Y-35124285D02*
X185062857Y-35052857D01*
X185062857Y-35052857D02*
X185134285Y-34910000D01*
X185134285Y-34910000D02*
X185134285Y-34767142D01*
X185134285Y-34767142D02*
X185062857Y-34624285D01*
X185062857Y-34624285D02*
X184991428Y-34552857D01*
X184991428Y-34552857D02*
X184848571Y-34481428D01*
X184848571Y-34481428D02*
X184491428Y-34481428D01*
X184491428Y-34481428D02*
X184277142Y-34552857D01*
X183634286Y-35981428D02*
X183634286Y-34981428D01*
X183634286Y-34481428D02*
X183705714Y-34552857D01*
X183705714Y-34552857D02*
X183634286Y-34624285D01*
X183634286Y-34624285D02*
X183562857Y-34552857D01*
X183562857Y-34552857D02*
X183634286Y-34481428D01*
X183634286Y-34481428D02*
X183634286Y-34624285D01*
X182277143Y-34981428D02*
X182277143Y-36195714D01*
X182277143Y-36195714D02*
X182348571Y-36338571D01*
X182348571Y-36338571D02*
X182420000Y-36410000D01*
X182420000Y-36410000D02*
X182562857Y-36481428D01*
X182562857Y-36481428D02*
X182777143Y-36481428D01*
X182777143Y-36481428D02*
X182920000Y-36410000D01*
X182277143Y-35910000D02*
X182420000Y-35981428D01*
X182420000Y-35981428D02*
X182705714Y-35981428D01*
X182705714Y-35981428D02*
X182848571Y-35910000D01*
X182848571Y-35910000D02*
X182920000Y-35838571D01*
X182920000Y-35838571D02*
X182991428Y-35695714D01*
X182991428Y-35695714D02*
X182991428Y-35267142D01*
X182991428Y-35267142D02*
X182920000Y-35124285D01*
X182920000Y-35124285D02*
X182848571Y-35052857D01*
X182848571Y-35052857D02*
X182705714Y-34981428D01*
X182705714Y-34981428D02*
X182420000Y-34981428D01*
X182420000Y-34981428D02*
X182277143Y-35052857D01*
X181562857Y-34981428D02*
X181562857Y-35981428D01*
X181562857Y-35124285D02*
X181491428Y-35052857D01*
X181491428Y-35052857D02*
X181348571Y-34981428D01*
X181348571Y-34981428D02*
X181134285Y-34981428D01*
X181134285Y-34981428D02*
X180991428Y-35052857D01*
X180991428Y-35052857D02*
X180920000Y-35195714D01*
X180920000Y-35195714D02*
X180920000Y-35981428D01*
X179562857Y-35981428D02*
X179562857Y-35195714D01*
X179562857Y-35195714D02*
X179634285Y-35052857D01*
X179634285Y-35052857D02*
X179777142Y-34981428D01*
X179777142Y-34981428D02*
X180062857Y-34981428D01*
X180062857Y-34981428D02*
X180205714Y-35052857D01*
X179562857Y-35910000D02*
X179705714Y-35981428D01*
X179705714Y-35981428D02*
X180062857Y-35981428D01*
X180062857Y-35981428D02*
X180205714Y-35910000D01*
X180205714Y-35910000D02*
X180277142Y-35767142D01*
X180277142Y-35767142D02*
X180277142Y-35624285D01*
X180277142Y-35624285D02*
X180205714Y-35481428D01*
X180205714Y-35481428D02*
X180062857Y-35410000D01*
X180062857Y-35410000D02*
X179705714Y-35410000D01*
X179705714Y-35410000D02*
X179562857Y-35338571D01*
X178634285Y-35981428D02*
X178777142Y-35910000D01*
X178777142Y-35910000D02*
X178848571Y-35767142D01*
X178848571Y-35767142D02*
X178848571Y-34481428D01*
X178134285Y-35910000D02*
X177991428Y-35981428D01*
X177991428Y-35981428D02*
X177705714Y-35981428D01*
X177705714Y-35981428D02*
X177562857Y-35910000D01*
X177562857Y-35910000D02*
X177491428Y-35767142D01*
X177491428Y-35767142D02*
X177491428Y-35695714D01*
X177491428Y-35695714D02*
X177562857Y-35552857D01*
X177562857Y-35552857D02*
X177705714Y-35481428D01*
X177705714Y-35481428D02*
X177920000Y-35481428D01*
X177920000Y-35481428D02*
X178062857Y-35410000D01*
X178062857Y-35410000D02*
X178134285Y-35267142D01*
X178134285Y-35267142D02*
X178134285Y-35195714D01*
X178134285Y-35195714D02*
X178062857Y-35052857D01*
X178062857Y-35052857D02*
X177920000Y-34981428D01*
X177920000Y-34981428D02*
X177705714Y-34981428D01*
X177705714Y-34981428D02*
X177562857Y-35052857D01*
M02*
