G04 #@! TF.GenerationSoftware,KiCad,Pcbnew,(6.0.5)*
G04 #@! TF.CreationDate,2023-02-17T12:54:08-08:00*
G04 #@! TF.ProjectId,PCM1863,50434d31-3836-4332-9e6b-696361645f70,rev?*
G04 #@! TF.SameCoordinates,Original*
G04 #@! TF.FileFunction,Legend,Top*
G04 #@! TF.FilePolarity,Positive*
%FSLAX46Y46*%
G04 Gerber Fmt 4.6, Leading zero omitted, Abs format (unit mm)*
G04 Created by KiCad (PCBNEW (6.0.5)) date 2023-02-17 12:54:08*
%MOMM*%
%LPD*%
G01*
G04 APERTURE LIST*
%ADD10C,0.150000*%
%ADD11C,0.300000*%
%ADD12C,0.120000*%
%ADD13C,0.200000*%
G04 APERTURE END LIST*
D10*
X159952380Y-124371428D02*
X160952380Y-124038095D01*
X159952380Y-123704761D01*
X160952380Y-123371428D02*
X159952380Y-123371428D01*
X160952380Y-122895238D02*
X159952380Y-122895238D01*
X160952380Y-122323809D01*
X159952380Y-122323809D01*
X160952380Y-121276190D02*
X160476190Y-121609523D01*
X160952380Y-121847619D02*
X159952380Y-121847619D01*
X159952380Y-121466666D01*
X160000000Y-121371428D01*
X160047619Y-121323809D01*
X160142857Y-121276190D01*
X160285714Y-121276190D01*
X160380952Y-121323809D01*
X160428571Y-121371428D01*
X160476190Y-121466666D01*
X160476190Y-121847619D01*
X160952380Y-120323809D02*
X160952380Y-120895238D01*
X160952380Y-120609523D02*
X159952380Y-120609523D01*
X160095238Y-120704761D01*
X160190476Y-120800000D01*
X160238095Y-120895238D01*
X166452380Y-145990476D02*
X166452380Y-146466666D01*
X165452380Y-146466666D01*
X166452380Y-145085714D02*
X165976190Y-145419047D01*
X166452380Y-145657142D02*
X165452380Y-145657142D01*
X165452380Y-145276190D01*
X165500000Y-145180952D01*
X165547619Y-145133333D01*
X165642857Y-145085714D01*
X165785714Y-145085714D01*
X165880952Y-145133333D01*
X165928571Y-145180952D01*
X165976190Y-145276190D01*
X165976190Y-145657142D01*
X166357142Y-144085714D02*
X166404761Y-144133333D01*
X166452380Y-144276190D01*
X166452380Y-144371428D01*
X166404761Y-144514285D01*
X166309523Y-144609523D01*
X166214285Y-144657142D01*
X166023809Y-144704761D01*
X165880952Y-144704761D01*
X165690476Y-144657142D01*
X165595238Y-144609523D01*
X165500000Y-144514285D01*
X165452380Y-144371428D01*
X165452380Y-144276190D01*
X165500000Y-144133333D01*
X165547619Y-144085714D01*
X166452380Y-143657142D02*
X165452380Y-143657142D01*
X166452380Y-143085714D02*
X165880952Y-143514285D01*
X165452380Y-143085714D02*
X166023809Y-143657142D01*
X130814285Y-144152380D02*
X131147619Y-145152380D01*
X131480952Y-144152380D01*
X132385714Y-145057142D02*
X132338095Y-145104761D01*
X132195238Y-145152380D01*
X132100000Y-145152380D01*
X131957142Y-145104761D01*
X131861904Y-145009523D01*
X131814285Y-144914285D01*
X131766666Y-144723809D01*
X131766666Y-144580952D01*
X131814285Y-144390476D01*
X131861904Y-144295238D01*
X131957142Y-144200000D01*
X132100000Y-144152380D01*
X132195238Y-144152380D01*
X132338095Y-144200000D01*
X132385714Y-144247619D01*
X133385714Y-145057142D02*
X133338095Y-145104761D01*
X133195238Y-145152380D01*
X133100000Y-145152380D01*
X132957142Y-145104761D01*
X132861904Y-145009523D01*
X132814285Y-144914285D01*
X132766666Y-144723809D01*
X132766666Y-144580952D01*
X132814285Y-144390476D01*
X132861904Y-144295238D01*
X132957142Y-144200000D01*
X133100000Y-144152380D01*
X133195238Y-144152380D01*
X133338095Y-144200000D01*
X133385714Y-144247619D01*
X133576190Y-145247619D02*
X134338095Y-145247619D01*
X134576190Y-145152380D02*
X134576190Y-144152380D01*
X134957142Y-144152380D01*
X135052380Y-144200000D01*
X135100000Y-144247619D01*
X135147619Y-144342857D01*
X135147619Y-144485714D01*
X135100000Y-144580952D01*
X135052380Y-144628571D01*
X134957142Y-144676190D01*
X134576190Y-144676190D01*
X135480952Y-144152380D02*
X135719047Y-145152380D01*
X135909523Y-144438095D01*
X136100000Y-145152380D01*
X136338095Y-144152380D01*
X137290476Y-145152380D02*
X136957142Y-144676190D01*
X136719047Y-145152380D02*
X136719047Y-144152380D01*
X137100000Y-144152380D01*
X137195238Y-144200000D01*
X137242857Y-144247619D01*
X137290476Y-144342857D01*
X137290476Y-144485714D01*
X137242857Y-144580952D01*
X137195238Y-144628571D01*
X137100000Y-144676190D01*
X136719047Y-144676190D01*
X152652380Y-124471428D02*
X153652380Y-124138095D01*
X152652380Y-123804761D01*
X153652380Y-123471428D02*
X152652380Y-123471428D01*
X153652380Y-122995238D02*
X152652380Y-122995238D01*
X153652380Y-122423809D01*
X152652380Y-122423809D01*
X153652380Y-121376190D02*
X153176190Y-121709523D01*
X153652380Y-121947619D02*
X152652380Y-121947619D01*
X152652380Y-121566666D01*
X152700000Y-121471428D01*
X152747619Y-121423809D01*
X152842857Y-121376190D01*
X152985714Y-121376190D01*
X153080952Y-121423809D01*
X153128571Y-121471428D01*
X153176190Y-121566666D01*
X153176190Y-121947619D01*
X152747619Y-120995238D02*
X152700000Y-120947619D01*
X152652380Y-120852380D01*
X152652380Y-120614285D01*
X152700000Y-120519047D01*
X152747619Y-120471428D01*
X152842857Y-120423809D01*
X152938095Y-120423809D01*
X153080952Y-120471428D01*
X153652380Y-121042857D01*
X153652380Y-120423809D01*
X146152380Y-146690476D02*
X145152380Y-146690476D01*
X145152380Y-146452380D01*
X145200000Y-146309523D01*
X145295238Y-146214285D01*
X145390476Y-146166666D01*
X145580952Y-146119047D01*
X145723809Y-146119047D01*
X145914285Y-146166666D01*
X146009523Y-146214285D01*
X146104761Y-146309523D01*
X146152380Y-146452380D01*
X146152380Y-146690476D01*
X145152380Y-145833333D02*
X146152380Y-145500000D01*
X145152380Y-145166666D01*
X146152380Y-144833333D02*
X145152380Y-144833333D01*
X145152380Y-144595238D01*
X145200000Y-144452380D01*
X145295238Y-144357142D01*
X145390476Y-144309523D01*
X145580952Y-144261904D01*
X145723809Y-144261904D01*
X145914285Y-144309523D01*
X146009523Y-144357142D01*
X146104761Y-144452380D01*
X146152380Y-144595238D01*
X146152380Y-144833333D01*
X146152380Y-143833333D02*
X145152380Y-143833333D01*
X145152380Y-143595238D01*
X145200000Y-143452380D01*
X145295238Y-143357142D01*
X145390476Y-143309523D01*
X145580952Y-143261904D01*
X145723809Y-143261904D01*
X145914285Y-143309523D01*
X146009523Y-143357142D01*
X146104761Y-143452380D01*
X146152380Y-143595238D01*
X146152380Y-143833333D01*
D11*
X123421428Y-152671071D02*
X123421428Y-153885357D01*
X123492857Y-154028214D01*
X123564285Y-154099642D01*
X123707142Y-154171071D01*
X123992857Y-154171071D01*
X124135714Y-154099642D01*
X124207142Y-154028214D01*
X124278571Y-153885357D01*
X124278571Y-152671071D01*
X124992857Y-153171071D02*
X124992857Y-154171071D01*
X124992857Y-153313928D02*
X125064285Y-153242500D01*
X125207142Y-153171071D01*
X125421428Y-153171071D01*
X125564285Y-153242500D01*
X125635714Y-153385357D01*
X125635714Y-154171071D01*
X126350000Y-154171071D02*
X126350000Y-153171071D01*
X126350000Y-152671071D02*
X126278571Y-152742500D01*
X126350000Y-152813928D01*
X126421428Y-152742500D01*
X126350000Y-152671071D01*
X126350000Y-152813928D01*
X126921428Y-153171071D02*
X127278571Y-154171071D01*
X127635714Y-153171071D01*
X128778571Y-154099642D02*
X128635714Y-154171071D01*
X128350000Y-154171071D01*
X128207142Y-154099642D01*
X128135714Y-153956785D01*
X128135714Y-153385357D01*
X128207142Y-153242500D01*
X128350000Y-153171071D01*
X128635714Y-153171071D01*
X128778571Y-153242500D01*
X128850000Y-153385357D01*
X128850000Y-153528214D01*
X128135714Y-153671071D01*
X129492857Y-154171071D02*
X129492857Y-153171071D01*
X129492857Y-153456785D02*
X129564285Y-153313928D01*
X129635714Y-153242500D01*
X129778571Y-153171071D01*
X129921428Y-153171071D01*
X130350000Y-154099642D02*
X130492857Y-154171071D01*
X130778571Y-154171071D01*
X130921428Y-154099642D01*
X130992857Y-153956785D01*
X130992857Y-153885357D01*
X130921428Y-153742500D01*
X130778571Y-153671071D01*
X130564285Y-153671071D01*
X130421428Y-153599642D01*
X130350000Y-153456785D01*
X130350000Y-153385357D01*
X130421428Y-153242500D01*
X130564285Y-153171071D01*
X130778571Y-153171071D01*
X130921428Y-153242500D01*
X131635714Y-154171071D02*
X131635714Y-153171071D01*
X131635714Y-152671071D02*
X131564285Y-152742500D01*
X131635714Y-152813928D01*
X131707142Y-152742500D01*
X131635714Y-152671071D01*
X131635714Y-152813928D01*
X132135714Y-153171071D02*
X132707142Y-153171071D01*
X132350000Y-152671071D02*
X132350000Y-153956785D01*
X132421428Y-154099642D01*
X132564285Y-154171071D01*
X132707142Y-154171071D01*
X133064285Y-153171071D02*
X133421428Y-154171071D01*
X133778571Y-153171071D02*
X133421428Y-154171071D01*
X133278571Y-154528214D01*
X133207142Y-154599642D01*
X133064285Y-154671071D01*
X135707142Y-154171071D02*
X135564285Y-154099642D01*
X135492857Y-154028214D01*
X135421428Y-153885357D01*
X135421428Y-153456785D01*
X135492857Y-153313928D01*
X135564285Y-153242500D01*
X135707142Y-153171071D01*
X135921428Y-153171071D01*
X136064285Y-153242500D01*
X136135714Y-153313928D01*
X136207142Y-153456785D01*
X136207142Y-153885357D01*
X136135714Y-154028214D01*
X136064285Y-154099642D01*
X135921428Y-154171071D01*
X135707142Y-154171071D01*
X136635714Y-153171071D02*
X137207142Y-153171071D01*
X136850000Y-154171071D02*
X136850000Y-152885357D01*
X136921428Y-152742500D01*
X137064285Y-152671071D01*
X137207142Y-152671071D01*
X138707142Y-152671071D02*
X139064285Y-154171071D01*
X139350000Y-153099642D01*
X139635714Y-154171071D01*
X139992857Y-152671071D01*
X141207142Y-154171071D02*
X141207142Y-153385357D01*
X141135714Y-153242500D01*
X140992857Y-153171071D01*
X140707142Y-153171071D01*
X140564285Y-153242500D01*
X141207142Y-154099642D02*
X141064285Y-154171071D01*
X140707142Y-154171071D01*
X140564285Y-154099642D01*
X140492857Y-153956785D01*
X140492857Y-153813928D01*
X140564285Y-153671071D01*
X140707142Y-153599642D01*
X141064285Y-153599642D01*
X141207142Y-153528214D01*
X141850000Y-154099642D02*
X141992857Y-154171071D01*
X142278571Y-154171071D01*
X142421428Y-154099642D01*
X142492857Y-153956785D01*
X142492857Y-153885357D01*
X142421428Y-153742500D01*
X142278571Y-153671071D01*
X142064285Y-153671071D01*
X141921428Y-153599642D01*
X141850000Y-153456785D01*
X141850000Y-153385357D01*
X141921428Y-153242500D01*
X142064285Y-153171071D01*
X142278571Y-153171071D01*
X142421428Y-153242500D01*
X143135714Y-154171071D02*
X143135714Y-152671071D01*
X143778571Y-154171071D02*
X143778571Y-153385357D01*
X143707142Y-153242500D01*
X143564285Y-153171071D01*
X143350000Y-153171071D01*
X143207142Y-153242500D01*
X143135714Y-153313928D01*
X144492857Y-154171071D02*
X144492857Y-153171071D01*
X144492857Y-152671071D02*
X144421428Y-152742500D01*
X144492857Y-152813928D01*
X144564285Y-152742500D01*
X144492857Y-152671071D01*
X144492857Y-152813928D01*
X145207142Y-153171071D02*
X145207142Y-154171071D01*
X145207142Y-153313928D02*
X145278571Y-153242500D01*
X145421428Y-153171071D01*
X145635714Y-153171071D01*
X145778571Y-153242500D01*
X145850000Y-153385357D01*
X145850000Y-154171071D01*
X147207142Y-153171071D02*
X147207142Y-154385357D01*
X147135714Y-154528214D01*
X147064285Y-154599642D01*
X146921428Y-154671071D01*
X146707142Y-154671071D01*
X146564285Y-154599642D01*
X147207142Y-154099642D02*
X147064285Y-154171071D01*
X146778571Y-154171071D01*
X146635714Y-154099642D01*
X146564285Y-154028214D01*
X146492857Y-153885357D01*
X146492857Y-153456785D01*
X146564285Y-153313928D01*
X146635714Y-153242500D01*
X146778571Y-153171071D01*
X147064285Y-153171071D01*
X147207142Y-153242500D01*
X147707142Y-153171071D02*
X148278571Y-153171071D01*
X147921428Y-152671071D02*
X147921428Y-153956785D01*
X147992857Y-154099642D01*
X148135714Y-154171071D01*
X148278571Y-154171071D01*
X148992857Y-154171071D02*
X148850000Y-154099642D01*
X148778571Y-154028214D01*
X148707142Y-153885357D01*
X148707142Y-153456785D01*
X148778571Y-153313928D01*
X148850000Y-153242500D01*
X148992857Y-153171071D01*
X149207142Y-153171071D01*
X149350000Y-153242500D01*
X149421428Y-153313928D01*
X149492857Y-153456785D01*
X149492857Y-153885357D01*
X149421428Y-154028214D01*
X149350000Y-154099642D01*
X149207142Y-154171071D01*
X148992857Y-154171071D01*
X150135714Y-153171071D02*
X150135714Y-154171071D01*
X150135714Y-153313928D02*
X150207142Y-153242500D01*
X150350000Y-153171071D01*
X150564285Y-153171071D01*
X150707142Y-153242500D01*
X150778571Y-153385357D01*
X150778571Y-154171071D01*
X124457142Y-156443214D02*
X124385714Y-156514642D01*
X124171428Y-156586071D01*
X124028571Y-156586071D01*
X123814285Y-156514642D01*
X123671428Y-156371785D01*
X123599999Y-156228928D01*
X123528571Y-155943214D01*
X123528571Y-155728928D01*
X123599999Y-155443214D01*
X123671428Y-155300357D01*
X123814285Y-155157500D01*
X124028571Y-155086071D01*
X124171428Y-155086071D01*
X124385714Y-155157500D01*
X124457142Y-155228928D01*
X125099999Y-156586071D02*
X125099999Y-155086071D01*
X125742857Y-156586071D02*
X125742857Y-155800357D01*
X125671428Y-155657500D01*
X125528571Y-155586071D01*
X125314285Y-155586071D01*
X125171428Y-155657500D01*
X125099999Y-155728928D01*
X127099999Y-156586071D02*
X127099999Y-155800357D01*
X127028571Y-155657500D01*
X126885714Y-155586071D01*
X126599999Y-155586071D01*
X126457142Y-155657500D01*
X127099999Y-156514642D02*
X126957142Y-156586071D01*
X126599999Y-156586071D01*
X126457142Y-156514642D01*
X126385714Y-156371785D01*
X126385714Y-156228928D01*
X126457142Y-156086071D01*
X126599999Y-156014642D01*
X126957142Y-156014642D01*
X127099999Y-155943214D01*
X127814285Y-156586071D02*
X127814285Y-155586071D01*
X127814285Y-155728928D02*
X127885714Y-155657500D01*
X128028571Y-155586071D01*
X128242857Y-155586071D01*
X128385714Y-155657500D01*
X128457142Y-155800357D01*
X128457142Y-156586071D01*
X128457142Y-155800357D02*
X128528571Y-155657500D01*
X128671428Y-155586071D01*
X128885714Y-155586071D01*
X129028571Y-155657500D01*
X129099999Y-155800357D01*
X129099999Y-156586071D01*
X130385714Y-156514642D02*
X130242857Y-156586071D01*
X129957142Y-156586071D01*
X129814285Y-156514642D01*
X129742857Y-156371785D01*
X129742857Y-155800357D01*
X129814285Y-155657500D01*
X129957142Y-155586071D01*
X130242857Y-155586071D01*
X130385714Y-155657500D01*
X130457142Y-155800357D01*
X130457142Y-155943214D01*
X129742857Y-156086071D01*
X131314285Y-156586071D02*
X131171428Y-156514642D01*
X131099999Y-156371785D01*
X131099999Y-155086071D01*
X132457142Y-156514642D02*
X132314285Y-156586071D01*
X132028571Y-156586071D01*
X131885714Y-156514642D01*
X131814285Y-156371785D01*
X131814285Y-155800357D01*
X131885714Y-155657500D01*
X132028571Y-155586071D01*
X132314285Y-155586071D01*
X132457142Y-155657500D01*
X132528571Y-155800357D01*
X132528571Y-155943214D01*
X131814285Y-156086071D01*
X133385714Y-156586071D02*
X133242857Y-156514642D01*
X133171428Y-156443214D01*
X133099999Y-156300357D01*
X133099999Y-155871785D01*
X133171428Y-155728928D01*
X133242857Y-155657500D01*
X133385714Y-155586071D01*
X133599999Y-155586071D01*
X133742857Y-155657500D01*
X133814285Y-155728928D01*
X133885714Y-155871785D01*
X133885714Y-156300357D01*
X133814285Y-156443214D01*
X133742857Y-156514642D01*
X133599999Y-156586071D01*
X133385714Y-156586071D01*
X134528571Y-155586071D02*
X134528571Y-156586071D01*
X134528571Y-155728928D02*
X134600000Y-155657500D01*
X134742857Y-155586071D01*
X134957142Y-155586071D01*
X135100000Y-155657500D01*
X135171428Y-155800357D01*
X135171428Y-156586071D01*
X137028571Y-155800357D02*
X137528571Y-155800357D01*
X137742857Y-156586071D02*
X137028571Y-156586071D01*
X137028571Y-155086071D01*
X137742857Y-155086071D01*
X138385714Y-155586071D02*
X138385714Y-156586071D01*
X138385714Y-155728928D02*
X138457142Y-155657500D01*
X138600000Y-155586071D01*
X138814285Y-155586071D01*
X138957142Y-155657500D01*
X139028571Y-155800357D01*
X139028571Y-156586071D01*
X140385714Y-155586071D02*
X140385714Y-156800357D01*
X140314285Y-156943214D01*
X140242857Y-157014642D01*
X140100000Y-157086071D01*
X139885714Y-157086071D01*
X139742857Y-157014642D01*
X140385714Y-156514642D02*
X140242857Y-156586071D01*
X139957142Y-156586071D01*
X139814285Y-156514642D01*
X139742857Y-156443214D01*
X139671428Y-156300357D01*
X139671428Y-155871785D01*
X139742857Y-155728928D01*
X139814285Y-155657500D01*
X139957142Y-155586071D01*
X140242857Y-155586071D01*
X140385714Y-155657500D01*
X141100000Y-156586071D02*
X141100000Y-155586071D01*
X141100000Y-155086071D02*
X141028571Y-155157500D01*
X141100000Y-155228928D01*
X141171428Y-155157500D01*
X141100000Y-155086071D01*
X141100000Y-155228928D01*
X141814285Y-155586071D02*
X141814285Y-156586071D01*
X141814285Y-155728928D02*
X141885714Y-155657500D01*
X142028571Y-155586071D01*
X142242857Y-155586071D01*
X142385714Y-155657500D01*
X142457142Y-155800357D01*
X142457142Y-156586071D01*
X143742857Y-156514642D02*
X143600000Y-156586071D01*
X143314285Y-156586071D01*
X143171428Y-156514642D01*
X143100000Y-156371785D01*
X143100000Y-155800357D01*
X143171428Y-155657500D01*
X143314285Y-155586071D01*
X143600000Y-155586071D01*
X143742857Y-155657500D01*
X143814285Y-155800357D01*
X143814285Y-155943214D01*
X143100000Y-156086071D01*
X145528571Y-155228928D02*
X145600000Y-155157500D01*
X145742857Y-155086071D01*
X146100000Y-155086071D01*
X146242857Y-155157500D01*
X146314285Y-155228928D01*
X146385714Y-155371785D01*
X146385714Y-155514642D01*
X146314285Y-155728928D01*
X145457142Y-156586071D01*
X146385714Y-156586071D01*
X147314285Y-155086071D02*
X147457142Y-155086071D01*
X147600000Y-155157500D01*
X147671428Y-155228928D01*
X147742857Y-155371785D01*
X147814285Y-155657500D01*
X147814285Y-156014642D01*
X147742857Y-156300357D01*
X147671428Y-156443214D01*
X147600000Y-156514642D01*
X147457142Y-156586071D01*
X147314285Y-156586071D01*
X147171428Y-156514642D01*
X147100000Y-156443214D01*
X147028571Y-156300357D01*
X146957142Y-156014642D01*
X146957142Y-155657500D01*
X147028571Y-155371785D01*
X147100000Y-155228928D01*
X147171428Y-155157500D01*
X147314285Y-155086071D01*
X148385714Y-155228928D02*
X148457142Y-155157500D01*
X148600000Y-155086071D01*
X148957142Y-155086071D01*
X149100000Y-155157500D01*
X149171428Y-155228928D01*
X149242857Y-155371785D01*
X149242857Y-155514642D01*
X149171428Y-155728928D01*
X148314285Y-156586071D01*
X149242857Y-156586071D01*
X149742857Y-155086071D02*
X150671428Y-155086071D01*
X150171428Y-155657500D01*
X150385714Y-155657500D01*
X150528571Y-155728928D01*
X150600000Y-155800357D01*
X150671428Y-155943214D01*
X150671428Y-156300357D01*
X150600000Y-156443214D01*
X150528571Y-156514642D01*
X150385714Y-156586071D01*
X149957142Y-156586071D01*
X149814285Y-156514642D01*
X149742857Y-156443214D01*
D10*
X153452380Y-146414285D02*
X153452380Y-146890476D01*
X152452380Y-146890476D01*
X153452380Y-146080952D02*
X152452380Y-146080952D01*
X152452380Y-145842857D01*
X152500000Y-145700000D01*
X152595238Y-145604761D01*
X152690476Y-145557142D01*
X152880952Y-145509523D01*
X153023809Y-145509523D01*
X153214285Y-145557142D01*
X153309523Y-145604761D01*
X153404761Y-145700000D01*
X153452380Y-145842857D01*
X153452380Y-146080952D01*
X152452380Y-144890476D02*
X152452380Y-144700000D01*
X152500000Y-144604761D01*
X152595238Y-144509523D01*
X152785714Y-144461904D01*
X153119047Y-144461904D01*
X153309523Y-144509523D01*
X153404761Y-144604761D01*
X153452380Y-144700000D01*
X153452380Y-144890476D01*
X153404761Y-144985714D01*
X153309523Y-145080952D01*
X153119047Y-145128571D01*
X152785714Y-145128571D01*
X152595238Y-145080952D01*
X152500000Y-144985714D01*
X152452380Y-144890476D01*
X129021428Y-117871428D02*
X129783333Y-117871428D01*
X129402380Y-118252380D02*
X129402380Y-117490476D01*
X130164285Y-117252380D02*
X130783333Y-117252380D01*
X130450000Y-117633333D01*
X130592857Y-117633333D01*
X130688095Y-117680952D01*
X130735714Y-117728571D01*
X130783333Y-117823809D01*
X130783333Y-118061904D01*
X130735714Y-118157142D01*
X130688095Y-118204761D01*
X130592857Y-118252380D01*
X130307142Y-118252380D01*
X130211904Y-118204761D01*
X130164285Y-118157142D01*
X131211904Y-118157142D02*
X131259523Y-118204761D01*
X131211904Y-118252380D01*
X131164285Y-118204761D01*
X131211904Y-118157142D01*
X131211904Y-118252380D01*
X131592857Y-117252380D02*
X132211904Y-117252380D01*
X131878571Y-117633333D01*
X132021428Y-117633333D01*
X132116666Y-117680952D01*
X132164285Y-117728571D01*
X132211904Y-117823809D01*
X132211904Y-118061904D01*
X132164285Y-118157142D01*
X132116666Y-118204761D01*
X132021428Y-118252380D01*
X131735714Y-118252380D01*
X131640476Y-118204761D01*
X131592857Y-118157142D01*
X132497619Y-117252380D02*
X132830952Y-118252380D01*
X133164285Y-117252380D01*
X133450000Y-117966666D02*
X133926190Y-117966666D01*
X133354761Y-118252380D02*
X133688095Y-117252380D01*
X134021428Y-118252380D01*
D11*
X153171428Y-153842500D02*
X153885714Y-153842500D01*
X153028571Y-154271071D02*
X153528571Y-152771071D01*
X154028571Y-154271071D01*
X154528571Y-154271071D02*
X154528571Y-152771071D01*
X154885714Y-152771071D01*
X155100000Y-152842500D01*
X155242857Y-152985357D01*
X155314285Y-153128214D01*
X155385714Y-153413928D01*
X155385714Y-153628214D01*
X155314285Y-153913928D01*
X155242857Y-154056785D01*
X155100000Y-154199642D01*
X154885714Y-154271071D01*
X154528571Y-154271071D01*
X156885714Y-154128214D02*
X156814285Y-154199642D01*
X156600000Y-154271071D01*
X156457142Y-154271071D01*
X156242857Y-154199642D01*
X156100000Y-154056785D01*
X156028571Y-153913928D01*
X155957142Y-153628214D01*
X155957142Y-153413928D01*
X156028571Y-153128214D01*
X156100000Y-152985357D01*
X156242857Y-152842500D01*
X156457142Y-152771071D01*
X156600000Y-152771071D01*
X156814285Y-152842500D01*
X156885714Y-152913928D01*
X158671428Y-153699642D02*
X159814285Y-153699642D01*
X161671428Y-154271071D02*
X161671428Y-152771071D01*
X162242857Y-152771071D01*
X162385714Y-152842500D01*
X162457142Y-152913928D01*
X162528571Y-153056785D01*
X162528571Y-153271071D01*
X162457142Y-153413928D01*
X162385714Y-153485357D01*
X162242857Y-153556785D01*
X161671428Y-153556785D01*
X164028571Y-154128214D02*
X163957142Y-154199642D01*
X163742857Y-154271071D01*
X163600000Y-154271071D01*
X163385714Y-154199642D01*
X163242857Y-154056785D01*
X163171428Y-153913928D01*
X163100000Y-153628214D01*
X163100000Y-153413928D01*
X163171428Y-153128214D01*
X163242857Y-152985357D01*
X163385714Y-152842500D01*
X163600000Y-152771071D01*
X163742857Y-152771071D01*
X163957142Y-152842500D01*
X164028571Y-152913928D01*
X164671428Y-154271071D02*
X164671428Y-152771071D01*
X165171428Y-153842500D01*
X165671428Y-152771071D01*
X165671428Y-154271071D01*
X167171428Y-154271071D02*
X166314285Y-154271071D01*
X166742857Y-154271071D02*
X166742857Y-152771071D01*
X166600000Y-152985357D01*
X166457142Y-153128214D01*
X166314285Y-153199642D01*
X168028571Y-153413928D02*
X167885714Y-153342500D01*
X167814285Y-153271071D01*
X167742857Y-153128214D01*
X167742857Y-153056785D01*
X167814285Y-152913928D01*
X167885714Y-152842500D01*
X168028571Y-152771071D01*
X168314285Y-152771071D01*
X168457142Y-152842500D01*
X168528571Y-152913928D01*
X168600000Y-153056785D01*
X168600000Y-153128214D01*
X168528571Y-153271071D01*
X168457142Y-153342500D01*
X168314285Y-153413928D01*
X168028571Y-153413928D01*
X167885714Y-153485357D01*
X167814285Y-153556785D01*
X167742857Y-153699642D01*
X167742857Y-153985357D01*
X167814285Y-154128214D01*
X167885714Y-154199642D01*
X168028571Y-154271071D01*
X168314285Y-154271071D01*
X168457142Y-154199642D01*
X168528571Y-154128214D01*
X168600000Y-153985357D01*
X168600000Y-153699642D01*
X168528571Y-153556785D01*
X168457142Y-153485357D01*
X168314285Y-153413928D01*
X169885714Y-152771071D02*
X169600000Y-152771071D01*
X169457142Y-152842500D01*
X169385714Y-152913928D01*
X169242857Y-153128214D01*
X169171428Y-153413928D01*
X169171428Y-153985357D01*
X169242857Y-154128214D01*
X169314285Y-154199642D01*
X169457142Y-154271071D01*
X169742857Y-154271071D01*
X169885714Y-154199642D01*
X169957142Y-154128214D01*
X170028571Y-153985357D01*
X170028571Y-153628214D01*
X169957142Y-153485357D01*
X169885714Y-153413928D01*
X169742857Y-153342500D01*
X169457142Y-153342500D01*
X169314285Y-153413928D01*
X169242857Y-153485357D01*
X169171428Y-153628214D01*
X170528571Y-152771071D02*
X171457142Y-152771071D01*
X170957142Y-153342500D01*
X171171428Y-153342500D01*
X171314285Y-153413928D01*
X171385714Y-153485357D01*
X171457142Y-153628214D01*
X171457142Y-153985357D01*
X171385714Y-154128214D01*
X171314285Y-154199642D01*
X171171428Y-154271071D01*
X170742857Y-154271071D01*
X170600000Y-154199642D01*
X170528571Y-154128214D01*
X173028571Y-152771071D02*
X173528571Y-154271071D01*
X174028571Y-152771071D01*
X174528571Y-154128214D02*
X174600000Y-154199642D01*
X174528571Y-154271071D01*
X174457142Y-154199642D01*
X174528571Y-154128214D01*
X174528571Y-154271071D01*
X175100000Y-152771071D02*
X176028571Y-152771071D01*
X175528571Y-153342500D01*
X175742857Y-153342500D01*
X175885714Y-153413928D01*
X175957142Y-153485357D01*
X176028571Y-153628214D01*
X176028571Y-153985357D01*
X175957142Y-154128214D01*
X175885714Y-154199642D01*
X175742857Y-154271071D01*
X175314285Y-154271071D01*
X175171428Y-154199642D01*
X175100000Y-154128214D01*
X155135714Y-155900357D02*
X154635714Y-155900357D01*
X154635714Y-156686071D02*
X154635714Y-155186071D01*
X155350000Y-155186071D01*
X156135714Y-156686071D02*
X155992857Y-156614642D01*
X155921428Y-156543214D01*
X155850000Y-156400357D01*
X155850000Y-155971785D01*
X155921428Y-155828928D01*
X155992857Y-155757500D01*
X156135714Y-155686071D01*
X156350000Y-155686071D01*
X156492857Y-155757500D01*
X156564285Y-155828928D01*
X156635714Y-155971785D01*
X156635714Y-156400357D01*
X156564285Y-156543214D01*
X156492857Y-156614642D01*
X156350000Y-156686071D01*
X156135714Y-156686071D01*
X157278571Y-156686071D02*
X157278571Y-155686071D01*
X157278571Y-155971785D02*
X157350000Y-155828928D01*
X157421428Y-155757500D01*
X157564285Y-155686071D01*
X157707142Y-155686071D01*
X158850000Y-156686071D02*
X158850000Y-155186071D01*
X158850000Y-156614642D02*
X158707142Y-156686071D01*
X158421428Y-156686071D01*
X158278571Y-156614642D01*
X158207142Y-156543214D01*
X158135714Y-156400357D01*
X158135714Y-155971785D01*
X158207142Y-155828928D01*
X158278571Y-155757500D01*
X158421428Y-155686071D01*
X158707142Y-155686071D01*
X158850000Y-155757500D01*
X160992857Y-155186071D02*
X161135714Y-155186071D01*
X161278571Y-155257500D01*
X161350000Y-155328928D01*
X161421428Y-155471785D01*
X161492857Y-155757500D01*
X161492857Y-156114642D01*
X161421428Y-156400357D01*
X161350000Y-156543214D01*
X161278571Y-156614642D01*
X161135714Y-156686071D01*
X160992857Y-156686071D01*
X160850000Y-156614642D01*
X160778571Y-156543214D01*
X160707142Y-156400357D01*
X160635714Y-156114642D01*
X160635714Y-155757500D01*
X160707142Y-155471785D01*
X160778571Y-155328928D01*
X160850000Y-155257500D01*
X160992857Y-155186071D01*
X162064285Y-155328928D02*
X162135714Y-155257500D01*
X162278571Y-155186071D01*
X162635714Y-155186071D01*
X162778571Y-155257500D01*
X162850000Y-155328928D01*
X162921428Y-155471785D01*
X162921428Y-155614642D01*
X162850000Y-155828928D01*
X161992857Y-156686071D01*
X162921428Y-156686071D01*
X164635714Y-155114642D02*
X163350000Y-157043214D01*
X165921428Y-156686071D02*
X165064285Y-156686071D01*
X165492857Y-156686071D02*
X165492857Y-155186071D01*
X165350000Y-155400357D01*
X165207142Y-155543214D01*
X165064285Y-155614642D01*
X167278571Y-155186071D02*
X166564285Y-155186071D01*
X166492857Y-155900357D01*
X166564285Y-155828928D01*
X166707142Y-155757500D01*
X167064285Y-155757500D01*
X167207142Y-155828928D01*
X167278571Y-155900357D01*
X167350000Y-156043214D01*
X167350000Y-156400357D01*
X167278571Y-156543214D01*
X167207142Y-156614642D01*
X167064285Y-156686071D01*
X166707142Y-156686071D01*
X166564285Y-156614642D01*
X166492857Y-156543214D01*
X169064285Y-155114642D02*
X167778571Y-157043214D01*
X169492857Y-155328928D02*
X169564285Y-155257500D01*
X169707142Y-155186071D01*
X170064285Y-155186071D01*
X170207142Y-155257500D01*
X170278571Y-155328928D01*
X170350000Y-155471785D01*
X170350000Y-155614642D01*
X170278571Y-155828928D01*
X169421428Y-156686071D01*
X170350000Y-156686071D01*
X171278571Y-155186071D02*
X171421428Y-155186071D01*
X171564285Y-155257500D01*
X171635714Y-155328928D01*
X171707142Y-155471785D01*
X171778571Y-155757500D01*
X171778571Y-156114642D01*
X171707142Y-156400357D01*
X171635714Y-156543214D01*
X171564285Y-156614642D01*
X171421428Y-156686071D01*
X171278571Y-156686071D01*
X171135714Y-156614642D01*
X171064285Y-156543214D01*
X170992857Y-156400357D01*
X170921428Y-156114642D01*
X170921428Y-155757500D01*
X170992857Y-155471785D01*
X171064285Y-155328928D01*
X171135714Y-155257500D01*
X171278571Y-155186071D01*
X172350000Y-155328928D02*
X172421428Y-155257500D01*
X172564285Y-155186071D01*
X172921428Y-155186071D01*
X173064285Y-155257500D01*
X173135714Y-155328928D01*
X173207142Y-155471785D01*
X173207142Y-155614642D01*
X173135714Y-155828928D01*
X172278571Y-156686071D01*
X173207142Y-156686071D01*
X173707142Y-155186071D02*
X174635714Y-155186071D01*
X174135714Y-155757500D01*
X174350000Y-155757500D01*
X174492857Y-155828928D01*
X174564285Y-155900357D01*
X174635714Y-156043214D01*
X174635714Y-156400357D01*
X174564285Y-156543214D01*
X174492857Y-156614642D01*
X174350000Y-156686071D01*
X173921428Y-156686071D01*
X173778571Y-156614642D01*
X173707142Y-156543214D01*
D10*
X131380952Y-116390688D02*
X131857142Y-116390688D01*
X131285714Y-116676402D02*
X131619047Y-115676402D01*
X131952380Y-116676402D01*
X132142857Y-115676402D02*
X132476190Y-116676402D01*
X132809523Y-115676402D01*
X133142857Y-116676402D02*
X133142857Y-115676402D01*
X133380952Y-115676402D01*
X133523809Y-115724022D01*
X133619047Y-115819260D01*
X133666666Y-115914498D01*
X133714285Y-116104974D01*
X133714285Y-116247831D01*
X133666666Y-116438307D01*
X133619047Y-116533545D01*
X133523809Y-116628783D01*
X133380952Y-116676402D01*
X133142857Y-116676402D01*
X134142857Y-116676402D02*
X134142857Y-115676402D01*
X134380952Y-115676402D01*
X134523809Y-115724022D01*
X134619047Y-115819260D01*
X134666666Y-115914498D01*
X134714285Y-116104974D01*
X134714285Y-116247831D01*
X134666666Y-116438307D01*
X134619047Y-116533545D01*
X134523809Y-116628783D01*
X134380952Y-116676402D01*
X134142857Y-116676402D01*
X134904761Y-116771641D02*
X135666666Y-116771641D01*
X135904761Y-116676402D02*
X135904761Y-115676402D01*
X136285714Y-115676402D01*
X136380952Y-115724022D01*
X136428571Y-115771641D01*
X136476190Y-115866879D01*
X136476190Y-116009736D01*
X136428571Y-116104974D01*
X136380952Y-116152593D01*
X136285714Y-116200212D01*
X135904761Y-116200212D01*
X136809523Y-115676402D02*
X137047619Y-116676402D01*
X137238095Y-115962117D01*
X137428571Y-116676402D01*
X137666666Y-115676402D01*
X138619047Y-116676402D02*
X138285714Y-116200212D01*
X138047619Y-116676402D02*
X138047619Y-115676402D01*
X138428571Y-115676402D01*
X138523809Y-115724022D01*
X138571428Y-115771641D01*
X138619047Y-115866879D01*
X138619047Y-116009736D01*
X138571428Y-116104974D01*
X138523809Y-116152593D01*
X138428571Y-116200212D01*
X138047619Y-116200212D01*
X183535714Y-147171428D02*
X183607142Y-147242857D01*
X183678571Y-147457142D01*
X183678571Y-147600000D01*
X183607142Y-147814285D01*
X183464285Y-147957142D01*
X183321428Y-148028571D01*
X183035714Y-148100000D01*
X182821428Y-148100000D01*
X182535714Y-148028571D01*
X182392857Y-147957142D01*
X182250000Y-147814285D01*
X182178571Y-147600000D01*
X182178571Y-147457142D01*
X182250000Y-147242857D01*
X182321428Y-147171428D01*
X183678571Y-146314285D02*
X183607142Y-146457142D01*
X183535714Y-146528571D01*
X183392857Y-146600000D01*
X182964285Y-146600000D01*
X182821428Y-146528571D01*
X182750000Y-146457142D01*
X182678571Y-146314285D01*
X182678571Y-146100000D01*
X182750000Y-145957142D01*
X182821428Y-145885714D01*
X182964285Y-145814285D01*
X183392857Y-145814285D01*
X183535714Y-145885714D01*
X183607142Y-145957142D01*
X183678571Y-146100000D01*
X183678571Y-146314285D01*
X182678571Y-145171428D02*
X183678571Y-145171428D01*
X182821428Y-145171428D02*
X182750000Y-145100000D01*
X182678571Y-144957142D01*
X182678571Y-144742857D01*
X182750000Y-144600000D01*
X182892857Y-144528571D01*
X183678571Y-144528571D01*
X182678571Y-144028571D02*
X182678571Y-143457142D01*
X182178571Y-143814285D02*
X183464285Y-143814285D01*
X183607142Y-143742857D01*
X183678571Y-143600000D01*
X183678571Y-143457142D01*
X183678571Y-142957142D02*
X182678571Y-142957142D01*
X182964285Y-142957142D02*
X182821428Y-142885714D01*
X182750000Y-142814285D01*
X182678571Y-142671428D01*
X182678571Y-142528571D01*
X183678571Y-141814285D02*
X183607142Y-141957142D01*
X183535714Y-142028571D01*
X183392857Y-142100000D01*
X182964285Y-142100000D01*
X182821428Y-142028571D01*
X182750000Y-141957142D01*
X182678571Y-141814285D01*
X182678571Y-141600000D01*
X182750000Y-141457142D01*
X182821428Y-141385714D01*
X182964285Y-141314285D01*
X183392857Y-141314285D01*
X183535714Y-141385714D01*
X183607142Y-141457142D01*
X183678571Y-141600000D01*
X183678571Y-141814285D01*
X183678571Y-140457142D02*
X183607142Y-140600000D01*
X183464285Y-140671428D01*
X182178571Y-140671428D01*
X183678571Y-139671428D02*
X183607142Y-139814285D01*
X183464285Y-139885714D01*
X182178571Y-139885714D01*
X183607142Y-138528571D02*
X183678571Y-138671428D01*
X183678571Y-138957142D01*
X183607142Y-139100000D01*
X183464285Y-139171428D01*
X182892857Y-139171428D01*
X182750000Y-139100000D01*
X182678571Y-138957142D01*
X182678571Y-138671428D01*
X182750000Y-138528571D01*
X182892857Y-138457142D01*
X183035714Y-138457142D01*
X183178571Y-139171428D01*
X183678571Y-137814285D02*
X182678571Y-137814285D01*
X182964285Y-137814285D02*
X182821428Y-137742857D01*
X182750000Y-137671428D01*
X182678571Y-137528571D01*
X182678571Y-137385714D01*
X184250000Y-135314285D02*
X184178571Y-135385714D01*
X183964285Y-135528571D01*
X183821428Y-135600000D01*
X183607142Y-135671428D01*
X183250000Y-135742857D01*
X182964285Y-135742857D01*
X182607142Y-135671428D01*
X182392857Y-135600000D01*
X182250000Y-135528571D01*
X182035714Y-135385714D01*
X181964285Y-135314285D01*
X183678571Y-134742857D02*
X182178571Y-134742857D01*
X182178571Y-134385714D01*
X182250000Y-134171428D01*
X182392857Y-134028571D01*
X182535714Y-133957142D01*
X182821428Y-133885714D01*
X183035714Y-133885714D01*
X183321428Y-133957142D01*
X183464285Y-134028571D01*
X183607142Y-134171428D01*
X183678571Y-134385714D01*
X183678571Y-134742857D01*
X183678571Y-133242857D02*
X182678571Y-133242857D01*
X182178571Y-133242857D02*
X182250000Y-133314285D01*
X182321428Y-133242857D01*
X182250000Y-133171428D01*
X182178571Y-133242857D01*
X182321428Y-133242857D01*
X182678571Y-131885714D02*
X183892857Y-131885714D01*
X184035714Y-131957142D01*
X184107142Y-132028571D01*
X184178571Y-132171428D01*
X184178571Y-132385714D01*
X184107142Y-132528571D01*
X183607142Y-131885714D02*
X183678571Y-132028571D01*
X183678571Y-132314285D01*
X183607142Y-132457142D01*
X183535714Y-132528571D01*
X183392857Y-132600000D01*
X182964285Y-132600000D01*
X182821428Y-132528571D01*
X182750000Y-132457142D01*
X182678571Y-132314285D01*
X182678571Y-132028571D01*
X182750000Y-131885714D01*
X183678571Y-131171428D02*
X182678571Y-131171428D01*
X182178571Y-131171428D02*
X182250000Y-131242857D01*
X182321428Y-131171428D01*
X182250000Y-131100000D01*
X182178571Y-131171428D01*
X182321428Y-131171428D01*
X182678571Y-130671428D02*
X182678571Y-130100000D01*
X182178571Y-130457142D02*
X183464285Y-130457142D01*
X183607142Y-130385714D01*
X183678571Y-130242857D01*
X183678571Y-130100000D01*
X183678571Y-128957142D02*
X182892857Y-128957142D01*
X182750000Y-129028571D01*
X182678571Y-129171428D01*
X182678571Y-129457142D01*
X182750000Y-129600000D01*
X183607142Y-128957142D02*
X183678571Y-129100000D01*
X183678571Y-129457142D01*
X183607142Y-129600000D01*
X183464285Y-129671428D01*
X183321428Y-129671428D01*
X183178571Y-129600000D01*
X183107142Y-129457142D01*
X183107142Y-129100000D01*
X183035714Y-128957142D01*
X183678571Y-128028571D02*
X183607142Y-128171428D01*
X183464285Y-128242857D01*
X182178571Y-128242857D01*
X184250000Y-127600000D02*
X184178571Y-127528571D01*
X183964285Y-127385714D01*
X183821428Y-127314285D01*
X183607142Y-127242857D01*
X183250000Y-127171428D01*
X182964285Y-127171428D01*
X182607142Y-127242857D01*
X182392857Y-127314285D01*
X182250000Y-127385714D01*
X182035714Y-127528571D01*
X181964285Y-127600000D01*
X157752380Y-124376190D02*
X158752380Y-124042857D01*
X157752380Y-123709523D01*
X158752380Y-123376190D02*
X157752380Y-123376190D01*
X158752380Y-122900000D02*
X157752380Y-122900000D01*
X158752380Y-122328571D01*
X157752380Y-122328571D01*
X158752380Y-121376190D02*
X158752380Y-121852380D01*
X157752380Y-121852380D01*
X158752380Y-120519047D02*
X158752380Y-121090476D01*
X158752380Y-120804761D02*
X157752380Y-120804761D01*
X157895238Y-120900000D01*
X157990476Y-120995238D01*
X158038095Y-121090476D01*
X150252380Y-146771428D02*
X151252380Y-146104761D01*
X150252380Y-146104761D02*
X151252380Y-146771428D01*
X151252380Y-145723809D02*
X150252380Y-145723809D01*
X173723809Y-144100000D02*
X173628571Y-144052380D01*
X173485714Y-144052380D01*
X173342857Y-144100000D01*
X173247619Y-144195238D01*
X173200000Y-144290476D01*
X173152380Y-144480952D01*
X173152380Y-144623809D01*
X173200000Y-144814285D01*
X173247619Y-144909523D01*
X173342857Y-145004761D01*
X173485714Y-145052380D01*
X173580952Y-145052380D01*
X173723809Y-145004761D01*
X173771428Y-144957142D01*
X173771428Y-144623809D01*
X173580952Y-144623809D01*
X174200000Y-145052380D02*
X174200000Y-144052380D01*
X174580952Y-144052380D01*
X174676190Y-144100000D01*
X174723809Y-144147619D01*
X174771428Y-144242857D01*
X174771428Y-144385714D01*
X174723809Y-144480952D01*
X174676190Y-144528571D01*
X174580952Y-144576190D01*
X174200000Y-144576190D01*
X175200000Y-145052380D02*
X175200000Y-144052380D01*
X175866666Y-144052380D02*
X176057142Y-144052380D01*
X176152380Y-144100000D01*
X176247619Y-144195238D01*
X176295238Y-144385714D01*
X176295238Y-144719047D01*
X176247619Y-144909523D01*
X176152380Y-145004761D01*
X176057142Y-145052380D01*
X175866666Y-145052380D01*
X175771428Y-145004761D01*
X175676190Y-144909523D01*
X175628571Y-144719047D01*
X175628571Y-144385714D01*
X175676190Y-144195238D01*
X175771428Y-144100000D01*
X175866666Y-144052380D01*
X176628571Y-144052380D02*
X177247619Y-144052380D01*
X176914285Y-144433333D01*
X177057142Y-144433333D01*
X177152380Y-144480952D01*
X177200000Y-144528571D01*
X177247619Y-144623809D01*
X177247619Y-144861904D01*
X177200000Y-144957142D01*
X177152380Y-145004761D01*
X177057142Y-145052380D01*
X176771428Y-145052380D01*
X176676190Y-145004761D01*
X176628571Y-144957142D01*
X131400000Y-139971428D02*
X132161904Y-139971428D01*
X131780952Y-140352380D02*
X131780952Y-139590476D01*
X132542857Y-139352380D02*
X133161904Y-139352380D01*
X132828571Y-139733333D01*
X132971428Y-139733333D01*
X133066666Y-139780952D01*
X133114285Y-139828571D01*
X133161904Y-139923809D01*
X133161904Y-140161904D01*
X133114285Y-140257142D01*
X133066666Y-140304761D01*
X132971428Y-140352380D01*
X132685714Y-140352380D01*
X132590476Y-140304761D01*
X132542857Y-140257142D01*
X133590476Y-140257142D02*
X133638095Y-140304761D01*
X133590476Y-140352380D01*
X133542857Y-140304761D01*
X133590476Y-140257142D01*
X133590476Y-140352380D01*
X133971428Y-139352380D02*
X134590476Y-139352380D01*
X134257142Y-139733333D01*
X134400000Y-139733333D01*
X134495238Y-139780952D01*
X134542857Y-139828571D01*
X134590476Y-139923809D01*
X134590476Y-140161904D01*
X134542857Y-140257142D01*
X134495238Y-140304761D01*
X134400000Y-140352380D01*
X134114285Y-140352380D01*
X134019047Y-140304761D01*
X133971428Y-140257142D01*
X134876190Y-139352380D02*
X135209523Y-140352380D01*
X135542857Y-139352380D01*
X135876190Y-140352380D02*
X135876190Y-139352380D01*
X136114285Y-139352380D01*
X136257142Y-139400000D01*
X136352380Y-139495238D01*
X136400000Y-139590476D01*
X136447619Y-139780952D01*
X136447619Y-139923809D01*
X136400000Y-140114285D01*
X136352380Y-140209523D01*
X136257142Y-140304761D01*
X136114285Y-140352380D01*
X135876190Y-140352380D01*
X174842857Y-127052380D02*
X174842857Y-126052380D01*
X175176190Y-126766666D01*
X175509523Y-126052380D01*
X175509523Y-127052380D01*
X175985714Y-127052380D02*
X175985714Y-126052380D01*
X176223809Y-126052380D01*
X176366666Y-126100000D01*
X176461904Y-126195238D01*
X176509523Y-126290476D01*
X176557142Y-126480952D01*
X176557142Y-126623809D01*
X176509523Y-126814285D01*
X176461904Y-126909523D01*
X176366666Y-127004761D01*
X176223809Y-127052380D01*
X175985714Y-127052380D01*
X177176190Y-126052380D02*
X177366666Y-126052380D01*
X177461904Y-126100000D01*
X177557142Y-126195238D01*
X177604761Y-126385714D01*
X177604761Y-126719047D01*
X177557142Y-126909523D01*
X177461904Y-127004761D01*
X177366666Y-127052380D01*
X177176190Y-127052380D01*
X177080952Y-127004761D01*
X176985714Y-126909523D01*
X176938095Y-126719047D01*
X176938095Y-126385714D01*
X176985714Y-126195238D01*
X177080952Y-126100000D01*
X177176190Y-126052380D01*
X122557142Y-141952380D02*
X122557142Y-140952380D01*
X122795238Y-140952380D01*
X122938095Y-141000000D01*
X123033333Y-141095238D01*
X123080952Y-141190476D01*
X123128571Y-141380952D01*
X123128571Y-141523809D01*
X123080952Y-141714285D01*
X123033333Y-141809523D01*
X122938095Y-141904761D01*
X122795238Y-141952380D01*
X122557142Y-141952380D01*
X123414285Y-140952380D02*
X123747619Y-141952380D01*
X124080952Y-140952380D01*
X124414285Y-141952380D02*
X124414285Y-140952380D01*
X124652380Y-140952380D01*
X124795238Y-141000000D01*
X124890476Y-141095238D01*
X124938095Y-141190476D01*
X124985714Y-141380952D01*
X124985714Y-141523809D01*
X124938095Y-141714285D01*
X124890476Y-141809523D01*
X124795238Y-141904761D01*
X124652380Y-141952380D01*
X124414285Y-141952380D01*
X125414285Y-141952380D02*
X125414285Y-140952380D01*
X125652380Y-140952380D01*
X125795238Y-141000000D01*
X125890476Y-141095238D01*
X125938095Y-141190476D01*
X125985714Y-141380952D01*
X125985714Y-141523809D01*
X125938095Y-141714285D01*
X125890476Y-141809523D01*
X125795238Y-141904761D01*
X125652380Y-141952380D01*
X125414285Y-141952380D01*
X126176190Y-142047619D02*
X126938095Y-142047619D01*
X127176190Y-141952380D02*
X127176190Y-140952380D01*
X127557142Y-140952380D01*
X127652380Y-141000000D01*
X127700000Y-141047619D01*
X127747619Y-141142857D01*
X127747619Y-141285714D01*
X127700000Y-141380952D01*
X127652380Y-141428571D01*
X127557142Y-141476190D01*
X127176190Y-141476190D01*
X128080952Y-140952380D02*
X128319047Y-141952380D01*
X128509523Y-141238095D01*
X128700000Y-141952380D01*
X128938095Y-140952380D01*
X129890476Y-141952380D02*
X129557142Y-141476190D01*
X129319047Y-141952380D02*
X129319047Y-140952380D01*
X129700000Y-140952380D01*
X129795238Y-141000000D01*
X129842857Y-141047619D01*
X129890476Y-141142857D01*
X129890476Y-141285714D01*
X129842857Y-141380952D01*
X129795238Y-141428571D01*
X129700000Y-141476190D01*
X129319047Y-141476190D01*
X173723809Y-141700000D02*
X173628571Y-141652380D01*
X173485714Y-141652380D01*
X173342857Y-141700000D01*
X173247619Y-141795238D01*
X173200000Y-141890476D01*
X173152380Y-142080952D01*
X173152380Y-142223809D01*
X173200000Y-142414285D01*
X173247619Y-142509523D01*
X173342857Y-142604761D01*
X173485714Y-142652380D01*
X173580952Y-142652380D01*
X173723809Y-142604761D01*
X173771428Y-142557142D01*
X173771428Y-142223809D01*
X173580952Y-142223809D01*
X174200000Y-142652380D02*
X174200000Y-141652380D01*
X174580952Y-141652380D01*
X174676190Y-141700000D01*
X174723809Y-141747619D01*
X174771428Y-141842857D01*
X174771428Y-141985714D01*
X174723809Y-142080952D01*
X174676190Y-142128571D01*
X174580952Y-142176190D01*
X174200000Y-142176190D01*
X175200000Y-142652380D02*
X175200000Y-141652380D01*
X175866666Y-141652380D02*
X176057142Y-141652380D01*
X176152380Y-141700000D01*
X176247619Y-141795238D01*
X176295238Y-141985714D01*
X176295238Y-142319047D01*
X176247619Y-142509523D01*
X176152380Y-142604761D01*
X176057142Y-142652380D01*
X175866666Y-142652380D01*
X175771428Y-142604761D01*
X175676190Y-142509523D01*
X175628571Y-142319047D01*
X175628571Y-141985714D01*
X175676190Y-141795238D01*
X175771428Y-141700000D01*
X175866666Y-141652380D01*
X176676190Y-141747619D02*
X176723809Y-141700000D01*
X176819047Y-141652380D01*
X177057142Y-141652380D01*
X177152380Y-141700000D01*
X177200000Y-141747619D01*
X177247619Y-141842857D01*
X177247619Y-141938095D01*
X177200000Y-142080952D01*
X176628571Y-142652380D01*
X177247619Y-142652380D01*
X147452380Y-146671428D02*
X147452380Y-146480952D01*
X147500000Y-146385714D01*
X147595238Y-146290476D01*
X147785714Y-146242857D01*
X148119047Y-146242857D01*
X148309523Y-146290476D01*
X148404761Y-146385714D01*
X148452380Y-146480952D01*
X148452380Y-146671428D01*
X148404761Y-146766666D01*
X148309523Y-146861904D01*
X148119047Y-146909523D01*
X147785714Y-146909523D01*
X147595238Y-146861904D01*
X147500000Y-146766666D01*
X147452380Y-146671428D01*
X148404761Y-145861904D02*
X148452380Y-145719047D01*
X148452380Y-145480952D01*
X148404761Y-145385714D01*
X148357142Y-145338095D01*
X148261904Y-145290476D01*
X148166666Y-145290476D01*
X148071428Y-145338095D01*
X148023809Y-145385714D01*
X147976190Y-145480952D01*
X147928571Y-145671428D01*
X147880952Y-145766666D01*
X147833333Y-145814285D01*
X147738095Y-145861904D01*
X147642857Y-145861904D01*
X147547619Y-145814285D01*
X147500000Y-145766666D01*
X147452380Y-145671428D01*
X147452380Y-145433333D01*
X147500000Y-145290476D01*
X148357142Y-144290476D02*
X148404761Y-144338095D01*
X148452380Y-144480952D01*
X148452380Y-144576190D01*
X148404761Y-144719047D01*
X148309523Y-144814285D01*
X148214285Y-144861904D01*
X148023809Y-144909523D01*
X147880952Y-144909523D01*
X147690476Y-144861904D01*
X147595238Y-144814285D01*
X147500000Y-144719047D01*
X147452380Y-144576190D01*
X147452380Y-144480952D01*
X147500000Y-144338095D01*
X147547619Y-144290476D01*
X145452380Y-125166666D02*
X145452380Y-125642857D01*
X144452380Y-125642857D01*
X145452380Y-124833333D02*
X144452380Y-124833333D01*
X144452380Y-124595238D01*
X144500000Y-124452380D01*
X144595238Y-124357142D01*
X144690476Y-124309523D01*
X144880952Y-124261904D01*
X145023809Y-124261904D01*
X145214285Y-124309523D01*
X145309523Y-124357142D01*
X145404761Y-124452380D01*
X145452380Y-124595238D01*
X145452380Y-124833333D01*
X144452380Y-123642857D02*
X144452380Y-123452380D01*
X144500000Y-123357142D01*
X144595238Y-123261904D01*
X144785714Y-123214285D01*
X145119047Y-123214285D01*
X145309523Y-123261904D01*
X145404761Y-123357142D01*
X145452380Y-123452380D01*
X145452380Y-123642857D01*
X145404761Y-123738095D01*
X145309523Y-123833333D01*
X145119047Y-123880952D01*
X144785714Y-123880952D01*
X144595238Y-123833333D01*
X144500000Y-123738095D01*
X144452380Y-123642857D01*
X145547619Y-123023809D02*
X145547619Y-122261904D01*
X145452380Y-122023809D02*
X144452380Y-122023809D01*
X144452380Y-121642857D01*
X144500000Y-121547619D01*
X144547619Y-121500000D01*
X144642857Y-121452380D01*
X144785714Y-121452380D01*
X144880952Y-121500000D01*
X144928571Y-121547619D01*
X144976190Y-121642857D01*
X144976190Y-122023809D01*
X144452380Y-121119047D02*
X145452380Y-120880952D01*
X144738095Y-120690476D01*
X145452380Y-120500000D01*
X144452380Y-120261904D01*
X145452380Y-119309523D02*
X144976190Y-119642857D01*
X145452380Y-119880952D02*
X144452380Y-119880952D01*
X144452380Y-119500000D01*
X144500000Y-119404761D01*
X144547619Y-119357142D01*
X144642857Y-119309523D01*
X144785714Y-119309523D01*
X144880952Y-119357142D01*
X144928571Y-119404761D01*
X144976190Y-119500000D01*
X144976190Y-119880952D01*
X142738095Y-133947619D02*
X142785714Y-133900000D01*
X142880952Y-133852380D01*
X143119047Y-133852380D01*
X143214285Y-133900000D01*
X143261904Y-133947619D01*
X143309523Y-134042857D01*
X143309523Y-134138095D01*
X143261904Y-134280952D01*
X142690476Y-134852380D01*
X143309523Y-134852380D01*
X143690476Y-133947619D02*
X143738095Y-133900000D01*
X143833333Y-133852380D01*
X144071428Y-133852380D01*
X144166666Y-133900000D01*
X144214285Y-133947619D01*
X144261904Y-134042857D01*
X144261904Y-134138095D01*
X144214285Y-134280952D01*
X143642857Y-134852380D01*
X144261904Y-134852380D01*
X144690476Y-134852380D02*
X144690476Y-133852380D01*
X145023809Y-134566666D01*
X145357142Y-133852380D01*
X145357142Y-134852380D01*
X145833333Y-134852380D02*
X145833333Y-133852380D01*
X145833333Y-134328571D02*
X146404761Y-134328571D01*
X146404761Y-134852380D02*
X146404761Y-133852380D01*
X146785714Y-134185714D02*
X147309523Y-134185714D01*
X146785714Y-134852380D01*
X147309523Y-134852380D01*
X163047380Y-123552380D02*
X162047380Y-123552380D01*
X162761666Y-123219047D01*
X162047380Y-122885714D01*
X163047380Y-122885714D01*
X163047380Y-122409523D02*
X162047380Y-122409523D01*
X162952142Y-121361904D02*
X162999761Y-121409523D01*
X163047380Y-121552380D01*
X163047380Y-121647619D01*
X162999761Y-121790476D01*
X162904523Y-121885714D01*
X162809285Y-121933333D01*
X162618809Y-121980952D01*
X162475952Y-121980952D01*
X162285476Y-121933333D01*
X162190238Y-121885714D01*
X162095000Y-121790476D01*
X162047380Y-121647619D01*
X162047380Y-121552380D01*
X162095000Y-121409523D01*
X162142619Y-121361904D01*
X163142619Y-121171428D02*
X163142619Y-120409523D01*
X164133571Y-123171428D02*
X164181190Y-123028571D01*
X164228809Y-122980952D01*
X164324047Y-122933333D01*
X164466904Y-122933333D01*
X164562142Y-122980952D01*
X164609761Y-123028571D01*
X164657380Y-123123809D01*
X164657380Y-123504761D01*
X163657380Y-123504761D01*
X163657380Y-123171428D01*
X163705000Y-123076190D01*
X163752619Y-123028571D01*
X163847857Y-122980952D01*
X163943095Y-122980952D01*
X164038333Y-123028571D01*
X164085952Y-123076190D01*
X164133571Y-123171428D01*
X164133571Y-123504761D01*
X164657380Y-122504761D02*
X163657380Y-122504761D01*
X164371666Y-122076190D02*
X164371666Y-121600000D01*
X164657380Y-122171428D02*
X163657380Y-121838095D01*
X164657380Y-121504761D01*
X164609761Y-121219047D02*
X164657380Y-121076190D01*
X164657380Y-120838095D01*
X164609761Y-120742857D01*
X164562142Y-120695238D01*
X164466904Y-120647619D01*
X164371666Y-120647619D01*
X164276428Y-120695238D01*
X164228809Y-120742857D01*
X164181190Y-120838095D01*
X164133571Y-121028571D01*
X164085952Y-121123809D01*
X164038333Y-121171428D01*
X163943095Y-121219047D01*
X163847857Y-121219047D01*
X163752619Y-121171428D01*
X163705000Y-121123809D01*
X163657380Y-121028571D01*
X163657380Y-120790476D01*
X163705000Y-120647619D01*
X165552380Y-124371428D02*
X166552380Y-124038095D01*
X165552380Y-123704761D01*
X166552380Y-123371428D02*
X165552380Y-123371428D01*
X166552380Y-122895238D02*
X165552380Y-122895238D01*
X166552380Y-122323809D01*
X165552380Y-122323809D01*
X166552380Y-121276190D02*
X166076190Y-121609523D01*
X166552380Y-121847619D02*
X165552380Y-121847619D01*
X165552380Y-121466666D01*
X165600000Y-121371428D01*
X165647619Y-121323809D01*
X165742857Y-121276190D01*
X165885714Y-121276190D01*
X165980952Y-121323809D01*
X166028571Y-121371428D01*
X166076190Y-121466666D01*
X166076190Y-121847619D01*
X165552380Y-120942857D02*
X165552380Y-120323809D01*
X165933333Y-120657142D01*
X165933333Y-120514285D01*
X165980952Y-120419047D01*
X166028571Y-120371428D01*
X166123809Y-120323809D01*
X166361904Y-120323809D01*
X166457142Y-120371428D01*
X166504761Y-120419047D01*
X166552380Y-120514285D01*
X166552380Y-120800000D01*
X166504761Y-120895238D01*
X166457142Y-120942857D01*
X174028571Y-134852380D02*
X174028571Y-133852380D01*
X174361904Y-134566666D01*
X174695238Y-133852380D01*
X174695238Y-134852380D01*
X175361904Y-133852380D02*
X175552380Y-133852380D01*
X175647619Y-133900000D01*
X175742857Y-133995238D01*
X175790476Y-134185714D01*
X175790476Y-134519047D01*
X175742857Y-134709523D01*
X175647619Y-134804761D01*
X175552380Y-134852380D01*
X175361904Y-134852380D01*
X175266666Y-134804761D01*
X175171428Y-134709523D01*
X175123809Y-134519047D01*
X175123809Y-134185714D01*
X175171428Y-133995238D01*
X175266666Y-133900000D01*
X175361904Y-133852380D01*
X176171428Y-134804761D02*
X176314285Y-134852380D01*
X176552380Y-134852380D01*
X176647619Y-134804761D01*
X176695238Y-134757142D01*
X176742857Y-134661904D01*
X176742857Y-134566666D01*
X176695238Y-134471428D01*
X176647619Y-134423809D01*
X176552380Y-134376190D01*
X176361904Y-134328571D01*
X176266666Y-134280952D01*
X176219047Y-134233333D01*
X176171428Y-134138095D01*
X176171428Y-134042857D01*
X176219047Y-133947619D01*
X176266666Y-133900000D01*
X176361904Y-133852380D01*
X176600000Y-133852380D01*
X176742857Y-133900000D01*
X177171428Y-134852380D02*
X177171428Y-133852380D01*
X134738095Y-125547619D02*
X134785714Y-125500000D01*
X134880952Y-125452380D01*
X135119047Y-125452380D01*
X135214285Y-125500000D01*
X135261904Y-125547619D01*
X135309523Y-125642857D01*
X135309523Y-125738095D01*
X135261904Y-125880952D01*
X134690476Y-126452380D01*
X135309523Y-126452380D01*
X136166666Y-125785714D02*
X136166666Y-126452380D01*
X135928571Y-125404761D02*
X135690476Y-126119047D01*
X136309523Y-126119047D01*
X136690476Y-126452380D02*
X136690476Y-125452380D01*
X137023809Y-126166666D01*
X137357142Y-125452380D01*
X137357142Y-126452380D01*
X137833333Y-126452380D02*
X137833333Y-125452380D01*
X137833333Y-125928571D02*
X138404761Y-125928571D01*
X138404761Y-126452380D02*
X138404761Y-125452380D01*
X138785714Y-125785714D02*
X139309523Y-125785714D01*
X138785714Y-126452380D01*
X139309523Y-126452380D01*
X173723809Y-139000000D02*
X173628571Y-138952380D01*
X173485714Y-138952380D01*
X173342857Y-139000000D01*
X173247619Y-139095238D01*
X173200000Y-139190476D01*
X173152380Y-139380952D01*
X173152380Y-139523809D01*
X173200000Y-139714285D01*
X173247619Y-139809523D01*
X173342857Y-139904761D01*
X173485714Y-139952380D01*
X173580952Y-139952380D01*
X173723809Y-139904761D01*
X173771428Y-139857142D01*
X173771428Y-139523809D01*
X173580952Y-139523809D01*
X174200000Y-139952380D02*
X174200000Y-138952380D01*
X174580952Y-138952380D01*
X174676190Y-139000000D01*
X174723809Y-139047619D01*
X174771428Y-139142857D01*
X174771428Y-139285714D01*
X174723809Y-139380952D01*
X174676190Y-139428571D01*
X174580952Y-139476190D01*
X174200000Y-139476190D01*
X175200000Y-139952380D02*
X175200000Y-138952380D01*
X175866666Y-138952380D02*
X176057142Y-138952380D01*
X176152380Y-139000000D01*
X176247619Y-139095238D01*
X176295238Y-139285714D01*
X176295238Y-139619047D01*
X176247619Y-139809523D01*
X176152380Y-139904761D01*
X176057142Y-139952380D01*
X175866666Y-139952380D01*
X175771428Y-139904761D01*
X175676190Y-139809523D01*
X175628571Y-139619047D01*
X175628571Y-139285714D01*
X175676190Y-139095238D01*
X175771428Y-139000000D01*
X175866666Y-138952380D01*
X177247619Y-139952380D02*
X176676190Y-139952380D01*
X176961904Y-139952380D02*
X176961904Y-138952380D01*
X176866666Y-139095238D01*
X176771428Y-139190476D01*
X176676190Y-139238095D01*
X159161904Y-132552380D02*
X159161904Y-131552380D01*
X159542857Y-131552380D01*
X159638095Y-131600000D01*
X159685714Y-131647619D01*
X159733333Y-131742857D01*
X159733333Y-131885714D01*
X159685714Y-131980952D01*
X159638095Y-132028571D01*
X159542857Y-132076190D01*
X159161904Y-132076190D01*
X160733333Y-132457142D02*
X160685714Y-132504761D01*
X160542857Y-132552380D01*
X160447619Y-132552380D01*
X160304761Y-132504761D01*
X160209523Y-132409523D01*
X160161904Y-132314285D01*
X160114285Y-132123809D01*
X160114285Y-131980952D01*
X160161904Y-131790476D01*
X160209523Y-131695238D01*
X160304761Y-131600000D01*
X160447619Y-131552380D01*
X160542857Y-131552380D01*
X160685714Y-131600000D01*
X160733333Y-131647619D01*
X161161904Y-132552380D02*
X161161904Y-131552380D01*
X161495238Y-132266666D01*
X161828571Y-131552380D01*
X161828571Y-132552380D01*
X162828571Y-132552380D02*
X162257142Y-132552380D01*
X162542857Y-132552380D02*
X162542857Y-131552380D01*
X162447619Y-131695238D01*
X162352380Y-131790476D01*
X162257142Y-131838095D01*
X163400000Y-131980952D02*
X163304761Y-131933333D01*
X163257142Y-131885714D01*
X163209523Y-131790476D01*
X163209523Y-131742857D01*
X163257142Y-131647619D01*
X163304761Y-131600000D01*
X163400000Y-131552380D01*
X163590476Y-131552380D01*
X163685714Y-131600000D01*
X163733333Y-131647619D01*
X163780952Y-131742857D01*
X163780952Y-131790476D01*
X163733333Y-131885714D01*
X163685714Y-131933333D01*
X163590476Y-131980952D01*
X163400000Y-131980952D01*
X163304761Y-132028571D01*
X163257142Y-132076190D01*
X163209523Y-132171428D01*
X163209523Y-132361904D01*
X163257142Y-132457142D01*
X163304761Y-132504761D01*
X163400000Y-132552380D01*
X163590476Y-132552380D01*
X163685714Y-132504761D01*
X163733333Y-132457142D01*
X163780952Y-132361904D01*
X163780952Y-132171428D01*
X163733333Y-132076190D01*
X163685714Y-132028571D01*
X163590476Y-131980952D01*
X164638095Y-131552380D02*
X164447619Y-131552380D01*
X164352380Y-131600000D01*
X164304761Y-131647619D01*
X164209523Y-131790476D01*
X164161904Y-131980952D01*
X164161904Y-132361904D01*
X164209523Y-132457142D01*
X164257142Y-132504761D01*
X164352380Y-132552380D01*
X164542857Y-132552380D01*
X164638095Y-132504761D01*
X164685714Y-132457142D01*
X164733333Y-132361904D01*
X164733333Y-132123809D01*
X164685714Y-132028571D01*
X164638095Y-131980952D01*
X164542857Y-131933333D01*
X164352380Y-131933333D01*
X164257142Y-131980952D01*
X164209523Y-132028571D01*
X164161904Y-132123809D01*
X165066666Y-131552380D02*
X165685714Y-131552380D01*
X165352380Y-131933333D01*
X165495238Y-131933333D01*
X165590476Y-131980952D01*
X165638095Y-132028571D01*
X165685714Y-132123809D01*
X165685714Y-132361904D01*
X165638095Y-132457142D01*
X165590476Y-132504761D01*
X165495238Y-132552380D01*
X165209523Y-132552380D01*
X165114285Y-132504761D01*
X165066666Y-132457142D01*
X174971428Y-149628571D02*
X175114285Y-149676190D01*
X175161904Y-149723809D01*
X175209523Y-149819047D01*
X175209523Y-149961904D01*
X175161904Y-150057142D01*
X175114285Y-150104761D01*
X175019047Y-150152380D01*
X174638095Y-150152380D01*
X174638095Y-149152380D01*
X174971428Y-149152380D01*
X175066666Y-149200000D01*
X175114285Y-149247619D01*
X175161904Y-149342857D01*
X175161904Y-149438095D01*
X175114285Y-149533333D01*
X175066666Y-149580952D01*
X174971428Y-149628571D01*
X174638095Y-149628571D01*
X176209523Y-150057142D02*
X176161904Y-150104761D01*
X176019047Y-150152380D01*
X175923809Y-150152380D01*
X175780952Y-150104761D01*
X175685714Y-150009523D01*
X175638095Y-149914285D01*
X175590476Y-149723809D01*
X175590476Y-149580952D01*
X175638095Y-149390476D01*
X175685714Y-149295238D01*
X175780952Y-149200000D01*
X175923809Y-149152380D01*
X176019047Y-149152380D01*
X176161904Y-149200000D01*
X176209523Y-149247619D01*
X176638095Y-150152380D02*
X176638095Y-149152380D01*
X177209523Y-150152380D02*
X176780952Y-149580952D01*
X177209523Y-149152380D02*
X176638095Y-149723809D01*
X155186919Y-124326756D02*
X156186919Y-123993423D01*
X155186919Y-123660089D01*
X156186919Y-123326756D02*
X155186919Y-123326756D01*
X156186919Y-122850566D02*
X155186919Y-122850566D01*
X156186919Y-122279137D01*
X155186919Y-122279137D01*
X156186919Y-121326756D02*
X156186919Y-121802946D01*
X155186919Y-121802946D01*
X155282158Y-121041042D02*
X155234539Y-120993423D01*
X155186919Y-120898185D01*
X155186919Y-120660089D01*
X155234539Y-120564851D01*
X155282158Y-120517232D01*
X155377396Y-120469613D01*
X155472634Y-120469613D01*
X155615491Y-120517232D01*
X156186919Y-121088661D01*
X156186919Y-120469613D01*
X116266666Y-147152380D02*
X116600000Y-148152380D01*
X116933333Y-147152380D01*
X117600000Y-147628571D02*
X117742857Y-147676190D01*
X117790476Y-147723809D01*
X117838095Y-147819047D01*
X117838095Y-147961904D01*
X117790476Y-148057142D01*
X117742857Y-148104761D01*
X117647619Y-148152380D01*
X117266666Y-148152380D01*
X117266666Y-147152380D01*
X117600000Y-147152380D01*
X117695238Y-147200000D01*
X117742857Y-147247619D01*
X117790476Y-147342857D01*
X117790476Y-147438095D01*
X117742857Y-147533333D01*
X117695238Y-147580952D01*
X117600000Y-147628571D01*
X117266666Y-147628571D01*
X118266666Y-147152380D02*
X118266666Y-147961904D01*
X118314285Y-148057142D01*
X118361904Y-148104761D01*
X118457142Y-148152380D01*
X118647619Y-148152380D01*
X118742857Y-148104761D01*
X118790476Y-148057142D01*
X118838095Y-147961904D01*
X118838095Y-147152380D01*
X119266666Y-148104761D02*
X119409523Y-148152380D01*
X119647619Y-148152380D01*
X119742857Y-148104761D01*
X119790476Y-148057142D01*
X119838095Y-147961904D01*
X119838095Y-147866666D01*
X119790476Y-147771428D01*
X119742857Y-147723809D01*
X119647619Y-147676190D01*
X119457142Y-147628571D01*
X119361904Y-147580952D01*
X119314285Y-147533333D01*
X119266666Y-147438095D01*
X119266666Y-147342857D01*
X119314285Y-147247619D01*
X119361904Y-147200000D01*
X119457142Y-147152380D01*
X119695238Y-147152380D01*
X119838095Y-147200000D01*
X154380952Y-146671428D02*
X155142857Y-146671428D01*
X155619047Y-146671428D02*
X156380952Y-146671428D01*
X156857142Y-146671428D02*
X157619047Y-146671428D01*
X158095238Y-147052380D02*
X158095238Y-146052380D01*
X158666666Y-147052380D01*
X158666666Y-146052380D01*
X159714285Y-146957142D02*
X159666666Y-147004761D01*
X159523809Y-147052380D01*
X159428571Y-147052380D01*
X159285714Y-147004761D01*
X159190476Y-146909523D01*
X159142857Y-146814285D01*
X159095238Y-146623809D01*
X159095238Y-146480952D01*
X159142857Y-146290476D01*
X159190476Y-146195238D01*
X159285714Y-146100000D01*
X159428571Y-146052380D01*
X159523809Y-146052380D01*
X159666666Y-146100000D01*
X159714285Y-146147619D01*
X160142857Y-146671428D02*
X160904761Y-146671428D01*
X161380952Y-146671428D02*
X162142857Y-146671428D01*
X162619047Y-146671428D02*
X163380952Y-146671428D01*
X163857142Y-146671428D02*
X164619047Y-146671428D01*
X167852380Y-124476190D02*
X168852380Y-124142857D01*
X167852380Y-123809523D01*
X168852380Y-123476190D02*
X167852380Y-123476190D01*
X168852380Y-123000000D02*
X167852380Y-123000000D01*
X168852380Y-122428571D01*
X167852380Y-122428571D01*
X168852380Y-121476190D02*
X168852380Y-121952380D01*
X167852380Y-121952380D01*
X167852380Y-121238095D02*
X167852380Y-120619047D01*
X168233333Y-120952380D01*
X168233333Y-120809523D01*
X168280952Y-120714285D01*
X168328571Y-120666666D01*
X168423809Y-120619047D01*
X168661904Y-120619047D01*
X168757142Y-120666666D01*
X168804761Y-120714285D01*
X168852380Y-120809523D01*
X168852380Y-121095238D01*
X168804761Y-121190476D01*
X168757142Y-121238095D01*
X141447380Y-146657142D02*
X142447380Y-146323809D01*
X141447380Y-145990476D01*
X142352142Y-145085714D02*
X142399761Y-145133333D01*
X142447380Y-145276190D01*
X142447380Y-145371428D01*
X142399761Y-145514285D01*
X142304523Y-145609523D01*
X142209285Y-145657142D01*
X142018809Y-145704761D01*
X141875952Y-145704761D01*
X141685476Y-145657142D01*
X141590238Y-145609523D01*
X141495000Y-145514285D01*
X141447380Y-145371428D01*
X141447380Y-145276190D01*
X141495000Y-145133333D01*
X141542619Y-145085714D01*
X142352142Y-144085714D02*
X142399761Y-144133333D01*
X142447380Y-144276190D01*
X142447380Y-144371428D01*
X142399761Y-144514285D01*
X142304523Y-144609523D01*
X142209285Y-144657142D01*
X142018809Y-144704761D01*
X141875952Y-144704761D01*
X141685476Y-144657142D01*
X141590238Y-144609523D01*
X141495000Y-144514285D01*
X141447380Y-144371428D01*
X141447380Y-144276190D01*
X141495000Y-144133333D01*
X141542619Y-144085714D01*
X141399761Y-142942857D02*
X142685476Y-143800000D01*
X143057380Y-147014285D02*
X144057380Y-146680952D01*
X143057380Y-146347619D01*
X144152619Y-146252380D02*
X144152619Y-145490476D01*
X143533571Y-144919047D02*
X143581190Y-144776190D01*
X143628809Y-144728571D01*
X143724047Y-144680952D01*
X143866904Y-144680952D01*
X143962142Y-144728571D01*
X144009761Y-144776190D01*
X144057380Y-144871428D01*
X144057380Y-145252380D01*
X143057380Y-145252380D01*
X143057380Y-144919047D01*
X143105000Y-144823809D01*
X143152619Y-144776190D01*
X143247857Y-144728571D01*
X143343095Y-144728571D01*
X143438333Y-144776190D01*
X143485952Y-144823809D01*
X143533571Y-144919047D01*
X143533571Y-145252380D01*
X143057380Y-144252380D02*
X143866904Y-144252380D01*
X143962142Y-144204761D01*
X144009761Y-144157142D01*
X144057380Y-144061904D01*
X144057380Y-143871428D01*
X144009761Y-143776190D01*
X143962142Y-143728571D01*
X143866904Y-143680952D01*
X143057380Y-143680952D01*
X144009761Y-143252380D02*
X144057380Y-143109523D01*
X144057380Y-142871428D01*
X144009761Y-142776190D01*
X143962142Y-142728571D01*
X143866904Y-142680952D01*
X143771666Y-142680952D01*
X143676428Y-142728571D01*
X143628809Y-142776190D01*
X143581190Y-142871428D01*
X143533571Y-143061904D01*
X143485952Y-143157142D01*
X143438333Y-143204761D01*
X143343095Y-143252380D01*
X143247857Y-143252380D01*
X143152619Y-143204761D01*
X143105000Y-143157142D01*
X143057380Y-143061904D01*
X143057380Y-142823809D01*
X143105000Y-142680952D01*
X150666666Y-124066666D02*
X150666666Y-123590476D01*
X150952380Y-124161904D02*
X149952380Y-123828571D01*
X150952380Y-123495238D01*
X149952380Y-123304761D02*
X150952380Y-122971428D01*
X149952380Y-122638095D01*
X150952380Y-122304761D02*
X149952380Y-122304761D01*
X149952380Y-122066666D01*
X150000000Y-121923809D01*
X150095238Y-121828571D01*
X150190476Y-121780952D01*
X150380952Y-121733333D01*
X150523809Y-121733333D01*
X150714285Y-121780952D01*
X150809523Y-121828571D01*
X150904761Y-121923809D01*
X150952380Y-122066666D01*
X150952380Y-122304761D01*
X150952380Y-121304761D02*
X149952380Y-121304761D01*
X149952380Y-121066666D01*
X150000000Y-120923809D01*
X150095238Y-120828571D01*
X150190476Y-120780952D01*
X150380952Y-120733333D01*
X150523809Y-120733333D01*
X150714285Y-120780952D01*
X150809523Y-120828571D01*
X150904761Y-120923809D01*
X150952380Y-121066666D01*
X150952380Y-121304761D01*
X173723809Y-136600000D02*
X173628571Y-136552380D01*
X173485714Y-136552380D01*
X173342857Y-136600000D01*
X173247619Y-136695238D01*
X173200000Y-136790476D01*
X173152380Y-136980952D01*
X173152380Y-137123809D01*
X173200000Y-137314285D01*
X173247619Y-137409523D01*
X173342857Y-137504761D01*
X173485714Y-137552380D01*
X173580952Y-137552380D01*
X173723809Y-137504761D01*
X173771428Y-137457142D01*
X173771428Y-137123809D01*
X173580952Y-137123809D01*
X174200000Y-137552380D02*
X174200000Y-136552380D01*
X174580952Y-136552380D01*
X174676190Y-136600000D01*
X174723809Y-136647619D01*
X174771428Y-136742857D01*
X174771428Y-136885714D01*
X174723809Y-136980952D01*
X174676190Y-137028571D01*
X174580952Y-137076190D01*
X174200000Y-137076190D01*
X175200000Y-137552380D02*
X175200000Y-136552380D01*
X175866666Y-136552380D02*
X176057142Y-136552380D01*
X176152380Y-136600000D01*
X176247619Y-136695238D01*
X176295238Y-136885714D01*
X176295238Y-137219047D01*
X176247619Y-137409523D01*
X176152380Y-137504761D01*
X176057142Y-137552380D01*
X175866666Y-137552380D01*
X175771428Y-137504761D01*
X175676190Y-137409523D01*
X175628571Y-137219047D01*
X175628571Y-136885714D01*
X175676190Y-136695238D01*
X175771428Y-136600000D01*
X175866666Y-136552380D01*
X176914285Y-136552380D02*
X177009523Y-136552380D01*
X177104761Y-136600000D01*
X177152380Y-136647619D01*
X177200000Y-136742857D01*
X177247619Y-136933333D01*
X177247619Y-137171428D01*
X177200000Y-137361904D01*
X177152380Y-137457142D01*
X177104761Y-137504761D01*
X177009523Y-137552380D01*
X176914285Y-137552380D01*
X176819047Y-137504761D01*
X176771428Y-137457142D01*
X176723809Y-137361904D01*
X176676190Y-137171428D01*
X176676190Y-136933333D01*
X176723809Y-136742857D01*
X176771428Y-136647619D01*
X176819047Y-136600000D01*
X176914285Y-136552380D01*
X172952380Y-124376190D02*
X173952380Y-124042857D01*
X172952380Y-123709523D01*
X173952380Y-123376190D02*
X172952380Y-123376190D01*
X173952380Y-122900000D02*
X172952380Y-122900000D01*
X173952380Y-122328571D01*
X172952380Y-122328571D01*
X173952380Y-121376190D02*
X173952380Y-121852380D01*
X172952380Y-121852380D01*
X173285714Y-120614285D02*
X173952380Y-120614285D01*
X172904761Y-120852380D02*
X173619047Y-121090476D01*
X173619047Y-120471428D01*
X140990476Y-125328571D02*
X141133333Y-125376190D01*
X141180952Y-125423809D01*
X141228571Y-125519047D01*
X141228571Y-125661904D01*
X141180952Y-125757142D01*
X141133333Y-125804761D01*
X141038095Y-125852380D01*
X140657142Y-125852380D01*
X140657142Y-124852380D01*
X140990476Y-124852380D01*
X141085714Y-124900000D01*
X141133333Y-124947619D01*
X141180952Y-125042857D01*
X141180952Y-125138095D01*
X141133333Y-125233333D01*
X141085714Y-125280952D01*
X140990476Y-125328571D01*
X140657142Y-125328571D01*
X141657142Y-124852380D02*
X141657142Y-125661904D01*
X141704761Y-125757142D01*
X141752380Y-125804761D01*
X141847619Y-125852380D01*
X142038095Y-125852380D01*
X142133333Y-125804761D01*
X142180952Y-125757142D01*
X142228571Y-125661904D01*
X142228571Y-124852380D01*
X143038095Y-125328571D02*
X142704761Y-125328571D01*
X142704761Y-125852380D02*
X142704761Y-124852380D01*
X143180952Y-124852380D01*
X143895238Y-125328571D02*
X143561904Y-125328571D01*
X143561904Y-125852380D02*
X143561904Y-124852380D01*
X144038095Y-124852380D01*
X170552380Y-124671428D02*
X171552380Y-124338095D01*
X170552380Y-124004761D01*
X171552380Y-123671428D02*
X170552380Y-123671428D01*
X171552380Y-123195238D02*
X170552380Y-123195238D01*
X171552380Y-122623809D01*
X170552380Y-122623809D01*
X171552380Y-121576190D02*
X171076190Y-121909523D01*
X171552380Y-122147619D02*
X170552380Y-122147619D01*
X170552380Y-121766666D01*
X170600000Y-121671428D01*
X170647619Y-121623809D01*
X170742857Y-121576190D01*
X170885714Y-121576190D01*
X170980952Y-121623809D01*
X171028571Y-121671428D01*
X171076190Y-121766666D01*
X171076190Y-122147619D01*
X170885714Y-120719047D02*
X171552380Y-120719047D01*
X170504761Y-120957142D02*
X171219047Y-121195238D01*
X171219047Y-120576190D01*
X175790476Y-129752380D02*
X175790476Y-128752380D01*
X176123809Y-129466666D01*
X176457142Y-128752380D01*
X176457142Y-129752380D01*
X176885714Y-129704761D02*
X177028571Y-129752380D01*
X177266666Y-129752380D01*
X177361904Y-129704761D01*
X177409523Y-129657142D01*
X177457142Y-129561904D01*
X177457142Y-129466666D01*
X177409523Y-129371428D01*
X177361904Y-129323809D01*
X177266666Y-129276190D01*
X177076190Y-129228571D01*
X176980952Y-129180952D01*
X176933333Y-129133333D01*
X176885714Y-129038095D01*
X176885714Y-128942857D01*
X176933333Y-128847619D01*
X176980952Y-128800000D01*
X177076190Y-128752380D01*
X177314285Y-128752380D01*
X177457142Y-128800000D01*
X173709523Y-147452380D02*
X173709523Y-146452380D01*
X173947619Y-146452380D01*
X174090476Y-146500000D01*
X174185714Y-146595238D01*
X174233333Y-146690476D01*
X174280952Y-146880952D01*
X174280952Y-147023809D01*
X174233333Y-147214285D01*
X174185714Y-147309523D01*
X174090476Y-147404761D01*
X173947619Y-147452380D01*
X173709523Y-147452380D01*
X174900000Y-146452380D02*
X175090476Y-146452380D01*
X175185714Y-146500000D01*
X175280952Y-146595238D01*
X175328571Y-146785714D01*
X175328571Y-147119047D01*
X175280952Y-147309523D01*
X175185714Y-147404761D01*
X175090476Y-147452380D01*
X174900000Y-147452380D01*
X174804761Y-147404761D01*
X174709523Y-147309523D01*
X174661904Y-147119047D01*
X174661904Y-146785714D01*
X174709523Y-146595238D01*
X174804761Y-146500000D01*
X174900000Y-146452380D01*
X175757142Y-146452380D02*
X175757142Y-147261904D01*
X175804761Y-147357142D01*
X175852380Y-147404761D01*
X175947619Y-147452380D01*
X176138095Y-147452380D01*
X176233333Y-147404761D01*
X176280952Y-147357142D01*
X176328571Y-147261904D01*
X176328571Y-146452380D01*
X176661904Y-146452380D02*
X177233333Y-146452380D01*
X176947619Y-147452380D02*
X176947619Y-146452380D01*
X175566666Y-132252380D02*
X175566666Y-131252380D01*
X175900000Y-131966666D01*
X176233333Y-131252380D01*
X176233333Y-132252380D01*
X177280952Y-132157142D02*
X177233333Y-132204761D01*
X177090476Y-132252380D01*
X176995238Y-132252380D01*
X176852380Y-132204761D01*
X176757142Y-132109523D01*
X176709523Y-132014285D01*
X176661904Y-131823809D01*
X176661904Y-131680952D01*
X176709523Y-131490476D01*
X176757142Y-131395238D01*
X176852380Y-131300000D01*
X176995238Y-131252380D01*
X177090476Y-131252380D01*
X177233333Y-131300000D01*
X177280952Y-131347619D01*
G04 #@! TO.C,C24*
X152457142Y-129742857D02*
X152504761Y-129790476D01*
X152552380Y-129933333D01*
X152552380Y-130028571D01*
X152504761Y-130171428D01*
X152409523Y-130266666D01*
X152314285Y-130314285D01*
X152123809Y-130361904D01*
X151980952Y-130361904D01*
X151790476Y-130314285D01*
X151695238Y-130266666D01*
X151600000Y-130171428D01*
X151552380Y-130028571D01*
X151552380Y-129933333D01*
X151600000Y-129790476D01*
X151647619Y-129742857D01*
X151647619Y-129361904D02*
X151600000Y-129314285D01*
X151552380Y-129219047D01*
X151552380Y-128980952D01*
X151600000Y-128885714D01*
X151647619Y-128838095D01*
X151742857Y-128790476D01*
X151838095Y-128790476D01*
X151980952Y-128838095D01*
X152552380Y-129409523D01*
X152552380Y-128790476D01*
X151885714Y-127933333D02*
X152552380Y-127933333D01*
X151504761Y-128171428D02*
X152219047Y-128409523D01*
X152219047Y-127790476D01*
G04 #@! TO.C,C4*
X130457142Y-133666666D02*
X130504761Y-133714285D01*
X130552380Y-133857142D01*
X130552380Y-133952380D01*
X130504761Y-134095238D01*
X130409523Y-134190476D01*
X130314285Y-134238095D01*
X130123809Y-134285714D01*
X129980952Y-134285714D01*
X129790476Y-134238095D01*
X129695238Y-134190476D01*
X129600000Y-134095238D01*
X129552380Y-133952380D01*
X129552380Y-133857142D01*
X129600000Y-133714285D01*
X129647619Y-133666666D01*
X129885714Y-132809523D02*
X130552380Y-132809523D01*
X129504761Y-133047619D02*
X130219047Y-133285714D01*
X130219047Y-132666666D01*
G04 #@! TO.C,C9*
X128657142Y-133666666D02*
X128704761Y-133714285D01*
X128752380Y-133857142D01*
X128752380Y-133952380D01*
X128704761Y-134095238D01*
X128609523Y-134190476D01*
X128514285Y-134238095D01*
X128323809Y-134285714D01*
X128180952Y-134285714D01*
X127990476Y-134238095D01*
X127895238Y-134190476D01*
X127800000Y-134095238D01*
X127752380Y-133952380D01*
X127752380Y-133857142D01*
X127800000Y-133714285D01*
X127847619Y-133666666D01*
X128752380Y-133190476D02*
X128752380Y-133000000D01*
X128704761Y-132904761D01*
X128657142Y-132857142D01*
X128514285Y-132761904D01*
X128323809Y-132714285D01*
X127942857Y-132714285D01*
X127847619Y-132761904D01*
X127800000Y-132809523D01*
X127752380Y-132904761D01*
X127752380Y-133095238D01*
X127800000Y-133190476D01*
X127847619Y-133238095D01*
X127942857Y-133285714D01*
X128180952Y-133285714D01*
X128276190Y-133238095D01*
X128323809Y-133190476D01*
X128371428Y-133095238D01*
X128371428Y-132904761D01*
X128323809Y-132809523D01*
X128276190Y-132761904D01*
X128180952Y-132714285D01*
G04 #@! TO.C,C21*
X168757142Y-130442857D02*
X168804761Y-130490476D01*
X168852380Y-130633333D01*
X168852380Y-130728571D01*
X168804761Y-130871428D01*
X168709523Y-130966666D01*
X168614285Y-131014285D01*
X168423809Y-131061904D01*
X168280952Y-131061904D01*
X168090476Y-131014285D01*
X167995238Y-130966666D01*
X167900000Y-130871428D01*
X167852380Y-130728571D01*
X167852380Y-130633333D01*
X167900000Y-130490476D01*
X167947619Y-130442857D01*
X167947619Y-130061904D02*
X167900000Y-130014285D01*
X167852380Y-129919047D01*
X167852380Y-129680952D01*
X167900000Y-129585714D01*
X167947619Y-129538095D01*
X168042857Y-129490476D01*
X168138095Y-129490476D01*
X168280952Y-129538095D01*
X168852380Y-130109523D01*
X168852380Y-129490476D01*
X168852380Y-128538095D02*
X168852380Y-129109523D01*
X168852380Y-128823809D02*
X167852380Y-128823809D01*
X167995238Y-128919047D01*
X168090476Y-129014285D01*
X168138095Y-129109523D01*
G04 #@! TO.C,C6*
X134733333Y-134657142D02*
X134685714Y-134704761D01*
X134542857Y-134752380D01*
X134447619Y-134752380D01*
X134304761Y-134704761D01*
X134209523Y-134609523D01*
X134161904Y-134514285D01*
X134114285Y-134323809D01*
X134114285Y-134180952D01*
X134161904Y-133990476D01*
X134209523Y-133895238D01*
X134304761Y-133800000D01*
X134447619Y-133752380D01*
X134542857Y-133752380D01*
X134685714Y-133800000D01*
X134733333Y-133847619D01*
X135590476Y-133752380D02*
X135400000Y-133752380D01*
X135304761Y-133800000D01*
X135257142Y-133847619D01*
X135161904Y-133990476D01*
X135114285Y-134180952D01*
X135114285Y-134561904D01*
X135161904Y-134657142D01*
X135209523Y-134704761D01*
X135304761Y-134752380D01*
X135495238Y-134752380D01*
X135590476Y-134704761D01*
X135638095Y-134657142D01*
X135685714Y-134561904D01*
X135685714Y-134323809D01*
X135638095Y-134228571D01*
X135590476Y-134180952D01*
X135495238Y-134133333D01*
X135304761Y-134133333D01*
X135209523Y-134180952D01*
X135161904Y-134228571D01*
X135114285Y-134323809D01*
G04 #@! TO.C,C22*
X170657142Y-130442857D02*
X170704761Y-130490476D01*
X170752380Y-130633333D01*
X170752380Y-130728571D01*
X170704761Y-130871428D01*
X170609523Y-130966666D01*
X170514285Y-131014285D01*
X170323809Y-131061904D01*
X170180952Y-131061904D01*
X169990476Y-131014285D01*
X169895238Y-130966666D01*
X169800000Y-130871428D01*
X169752380Y-130728571D01*
X169752380Y-130633333D01*
X169800000Y-130490476D01*
X169847619Y-130442857D01*
X169847619Y-130061904D02*
X169800000Y-130014285D01*
X169752380Y-129919047D01*
X169752380Y-129680952D01*
X169800000Y-129585714D01*
X169847619Y-129538095D01*
X169942857Y-129490476D01*
X170038095Y-129490476D01*
X170180952Y-129538095D01*
X170752380Y-130109523D01*
X170752380Y-129490476D01*
X169847619Y-129109523D02*
X169800000Y-129061904D01*
X169752380Y-128966666D01*
X169752380Y-128728571D01*
X169800000Y-128633333D01*
X169847619Y-128585714D01*
X169942857Y-128538095D01*
X170038095Y-128538095D01*
X170180952Y-128585714D01*
X170752380Y-129157142D01*
X170752380Y-128538095D01*
G04 #@! TO.C,C1*
X138157142Y-140266666D02*
X138204761Y-140314285D01*
X138252380Y-140457142D01*
X138252380Y-140552380D01*
X138204761Y-140695238D01*
X138109523Y-140790476D01*
X138014285Y-140838095D01*
X137823809Y-140885714D01*
X137680952Y-140885714D01*
X137490476Y-140838095D01*
X137395238Y-140790476D01*
X137300000Y-140695238D01*
X137252380Y-140552380D01*
X137252380Y-140457142D01*
X137300000Y-140314285D01*
X137347619Y-140266666D01*
X138252380Y-139314285D02*
X138252380Y-139885714D01*
X138252380Y-139600000D02*
X137252380Y-139600000D01*
X137395238Y-139695238D01*
X137490476Y-139790476D01*
X137538095Y-139885714D01*
G04 #@! TO.C,R2*
X130833333Y-143452380D02*
X130500000Y-142976190D01*
X130261904Y-143452380D02*
X130261904Y-142452380D01*
X130642857Y-142452380D01*
X130738095Y-142500000D01*
X130785714Y-142547619D01*
X130833333Y-142642857D01*
X130833333Y-142785714D01*
X130785714Y-142880952D01*
X130738095Y-142928571D01*
X130642857Y-142976190D01*
X130261904Y-142976190D01*
X131214285Y-142547619D02*
X131261904Y-142500000D01*
X131357142Y-142452380D01*
X131595238Y-142452380D01*
X131690476Y-142500000D01*
X131738095Y-142547619D01*
X131785714Y-142642857D01*
X131785714Y-142738095D01*
X131738095Y-142880952D01*
X131166666Y-143452380D01*
X131785714Y-143452380D01*
G04 #@! TO.C,C8*
X154057142Y-129966666D02*
X154104761Y-130014285D01*
X154152380Y-130157142D01*
X154152380Y-130252380D01*
X154104761Y-130395238D01*
X154009523Y-130490476D01*
X153914285Y-130538095D01*
X153723809Y-130585714D01*
X153580952Y-130585714D01*
X153390476Y-130538095D01*
X153295238Y-130490476D01*
X153200000Y-130395238D01*
X153152380Y-130252380D01*
X153152380Y-130157142D01*
X153200000Y-130014285D01*
X153247619Y-129966666D01*
X153580952Y-129395238D02*
X153533333Y-129490476D01*
X153485714Y-129538095D01*
X153390476Y-129585714D01*
X153342857Y-129585714D01*
X153247619Y-129538095D01*
X153200000Y-129490476D01*
X153152380Y-129395238D01*
X153152380Y-129204761D01*
X153200000Y-129109523D01*
X153247619Y-129061904D01*
X153342857Y-129014285D01*
X153390476Y-129014285D01*
X153485714Y-129061904D01*
X153533333Y-129109523D01*
X153580952Y-129204761D01*
X153580952Y-129395238D01*
X153628571Y-129490476D01*
X153676190Y-129538095D01*
X153771428Y-129585714D01*
X153961904Y-129585714D01*
X154057142Y-129538095D01*
X154104761Y-129490476D01*
X154152380Y-129395238D01*
X154152380Y-129204761D01*
X154104761Y-129109523D01*
X154057142Y-129061904D01*
X153961904Y-129014285D01*
X153771428Y-129014285D01*
X153676190Y-129061904D01*
X153628571Y-129109523D01*
X153580952Y-129204761D01*
G04 #@! TO.C,C10*
X158057142Y-134242857D02*
X158104761Y-134290476D01*
X158152380Y-134433333D01*
X158152380Y-134528571D01*
X158104761Y-134671428D01*
X158009523Y-134766666D01*
X157914285Y-134814285D01*
X157723809Y-134861904D01*
X157580952Y-134861904D01*
X157390476Y-134814285D01*
X157295238Y-134766666D01*
X157200000Y-134671428D01*
X157152380Y-134528571D01*
X157152380Y-134433333D01*
X157200000Y-134290476D01*
X157247619Y-134242857D01*
X158152380Y-133290476D02*
X158152380Y-133861904D01*
X158152380Y-133576190D02*
X157152380Y-133576190D01*
X157295238Y-133671428D01*
X157390476Y-133766666D01*
X157438095Y-133861904D01*
X157152380Y-132671428D02*
X157152380Y-132576190D01*
X157200000Y-132480952D01*
X157247619Y-132433333D01*
X157342857Y-132385714D01*
X157533333Y-132338095D01*
X157771428Y-132338095D01*
X157961904Y-132385714D01*
X158057142Y-132433333D01*
X158104761Y-132480952D01*
X158152380Y-132576190D01*
X158152380Y-132671428D01*
X158104761Y-132766666D01*
X158057142Y-132814285D01*
X157961904Y-132861904D01*
X157771428Y-132909523D01*
X157533333Y-132909523D01*
X157342857Y-132861904D01*
X157247619Y-132814285D01*
X157200000Y-132766666D01*
X157152380Y-132671428D01*
G04 #@! TO.C,C20*
X166857142Y-130442857D02*
X166904761Y-130490476D01*
X166952380Y-130633333D01*
X166952380Y-130728571D01*
X166904761Y-130871428D01*
X166809523Y-130966666D01*
X166714285Y-131014285D01*
X166523809Y-131061904D01*
X166380952Y-131061904D01*
X166190476Y-131014285D01*
X166095238Y-130966666D01*
X166000000Y-130871428D01*
X165952380Y-130728571D01*
X165952380Y-130633333D01*
X166000000Y-130490476D01*
X166047619Y-130442857D01*
X166047619Y-130061904D02*
X166000000Y-130014285D01*
X165952380Y-129919047D01*
X165952380Y-129680952D01*
X166000000Y-129585714D01*
X166047619Y-129538095D01*
X166142857Y-129490476D01*
X166238095Y-129490476D01*
X166380952Y-129538095D01*
X166952380Y-130109523D01*
X166952380Y-129490476D01*
X165952380Y-128871428D02*
X165952380Y-128776190D01*
X166000000Y-128680952D01*
X166047619Y-128633333D01*
X166142857Y-128585714D01*
X166333333Y-128538095D01*
X166571428Y-128538095D01*
X166761904Y-128585714D01*
X166857142Y-128633333D01*
X166904761Y-128680952D01*
X166952380Y-128776190D01*
X166952380Y-128871428D01*
X166904761Y-128966666D01*
X166857142Y-129014285D01*
X166761904Y-129061904D01*
X166571428Y-129109523D01*
X166333333Y-129109523D01*
X166142857Y-129061904D01*
X166047619Y-129014285D01*
X166000000Y-128966666D01*
X165952380Y-128871428D01*
G04 #@! TO.C,C3*
X158057142Y-137066666D02*
X158104761Y-137114285D01*
X158152380Y-137257142D01*
X158152380Y-137352380D01*
X158104761Y-137495238D01*
X158009523Y-137590476D01*
X157914285Y-137638095D01*
X157723809Y-137685714D01*
X157580952Y-137685714D01*
X157390476Y-137638095D01*
X157295238Y-137590476D01*
X157200000Y-137495238D01*
X157152380Y-137352380D01*
X157152380Y-137257142D01*
X157200000Y-137114285D01*
X157247619Y-137066666D01*
X157152380Y-136733333D02*
X157152380Y-136114285D01*
X157533333Y-136447619D01*
X157533333Y-136304761D01*
X157580952Y-136209523D01*
X157628571Y-136161904D01*
X157723809Y-136114285D01*
X157961904Y-136114285D01*
X158057142Y-136161904D01*
X158104761Y-136209523D01*
X158152380Y-136304761D01*
X158152380Y-136590476D01*
X158104761Y-136685714D01*
X158057142Y-136733333D01*
G04 #@! TO.C,R3*
X137633333Y-118152380D02*
X137300000Y-117676190D01*
X137061904Y-118152380D02*
X137061904Y-117152380D01*
X137442857Y-117152380D01*
X137538095Y-117200000D01*
X137585714Y-117247619D01*
X137633333Y-117342857D01*
X137633333Y-117485714D01*
X137585714Y-117580952D01*
X137538095Y-117628571D01*
X137442857Y-117676190D01*
X137061904Y-117676190D01*
X137966666Y-117152380D02*
X138585714Y-117152380D01*
X138252380Y-117533333D01*
X138395238Y-117533333D01*
X138490476Y-117580952D01*
X138538095Y-117628571D01*
X138585714Y-117723809D01*
X138585714Y-117961904D01*
X138538095Y-118057142D01*
X138490476Y-118104761D01*
X138395238Y-118152380D01*
X138109523Y-118152380D01*
X138014285Y-118104761D01*
X137966666Y-118057142D01*
G04 #@! TO.C,C2*
X148657142Y-134166666D02*
X148704761Y-134214285D01*
X148752380Y-134357142D01*
X148752380Y-134452380D01*
X148704761Y-134595238D01*
X148609523Y-134690476D01*
X148514285Y-134738095D01*
X148323809Y-134785714D01*
X148180952Y-134785714D01*
X147990476Y-134738095D01*
X147895238Y-134690476D01*
X147800000Y-134595238D01*
X147752380Y-134452380D01*
X147752380Y-134357142D01*
X147800000Y-134214285D01*
X147847619Y-134166666D01*
X147847619Y-133785714D02*
X147800000Y-133738095D01*
X147752380Y-133642857D01*
X147752380Y-133404761D01*
X147800000Y-133309523D01*
X147847619Y-133261904D01*
X147942857Y-133214285D01*
X148038095Y-133214285D01*
X148180952Y-133261904D01*
X148752380Y-133833333D01*
X148752380Y-133214285D01*
G04 #@! TO.C,C18*
X155657142Y-130342857D02*
X155704761Y-130390476D01*
X155752380Y-130533333D01*
X155752380Y-130628571D01*
X155704761Y-130771428D01*
X155609523Y-130866666D01*
X155514285Y-130914285D01*
X155323809Y-130961904D01*
X155180952Y-130961904D01*
X154990476Y-130914285D01*
X154895238Y-130866666D01*
X154800000Y-130771428D01*
X154752380Y-130628571D01*
X154752380Y-130533333D01*
X154800000Y-130390476D01*
X154847619Y-130342857D01*
X155752380Y-129390476D02*
X155752380Y-129961904D01*
X155752380Y-129676190D02*
X154752380Y-129676190D01*
X154895238Y-129771428D01*
X154990476Y-129866666D01*
X155038095Y-129961904D01*
X155180952Y-128819047D02*
X155133333Y-128914285D01*
X155085714Y-128961904D01*
X154990476Y-129009523D01*
X154942857Y-129009523D01*
X154847619Y-128961904D01*
X154800000Y-128914285D01*
X154752380Y-128819047D01*
X154752380Y-128628571D01*
X154800000Y-128533333D01*
X154847619Y-128485714D01*
X154942857Y-128438095D01*
X154990476Y-128438095D01*
X155085714Y-128485714D01*
X155133333Y-128533333D01*
X155180952Y-128628571D01*
X155180952Y-128819047D01*
X155228571Y-128914285D01*
X155276190Y-128961904D01*
X155371428Y-129009523D01*
X155561904Y-129009523D01*
X155657142Y-128961904D01*
X155704761Y-128914285D01*
X155752380Y-128819047D01*
X155752380Y-128628571D01*
X155704761Y-128533333D01*
X155657142Y-128485714D01*
X155561904Y-128438095D01*
X155371428Y-128438095D01*
X155276190Y-128485714D01*
X155228571Y-128533333D01*
X155180952Y-128628571D01*
G04 #@! TO.C,D2*
X133761904Y-143552380D02*
X133761904Y-142552380D01*
X134000000Y-142552380D01*
X134142857Y-142600000D01*
X134238095Y-142695238D01*
X134285714Y-142790476D01*
X134333333Y-142980952D01*
X134333333Y-143123809D01*
X134285714Y-143314285D01*
X134238095Y-143409523D01*
X134142857Y-143504761D01*
X134000000Y-143552380D01*
X133761904Y-143552380D01*
X134714285Y-142647619D02*
X134761904Y-142600000D01*
X134857142Y-142552380D01*
X135095238Y-142552380D01*
X135190476Y-142600000D01*
X135238095Y-142647619D01*
X135285714Y-142742857D01*
X135285714Y-142838095D01*
X135238095Y-142980952D01*
X134666666Y-143552380D01*
X135285714Y-143552380D01*
G04 #@! TO.C,C5*
X128057142Y-117566666D02*
X128104761Y-117614285D01*
X128152380Y-117757142D01*
X128152380Y-117852380D01*
X128104761Y-117995238D01*
X128009523Y-118090476D01*
X127914285Y-118138095D01*
X127723809Y-118185714D01*
X127580952Y-118185714D01*
X127390476Y-118138095D01*
X127295238Y-118090476D01*
X127200000Y-117995238D01*
X127152380Y-117852380D01*
X127152380Y-117757142D01*
X127200000Y-117614285D01*
X127247619Y-117566666D01*
X127152380Y-116661904D02*
X127152380Y-117138095D01*
X127628571Y-117185714D01*
X127580952Y-117138095D01*
X127533333Y-117042857D01*
X127533333Y-116804761D01*
X127580952Y-116709523D01*
X127628571Y-116661904D01*
X127723809Y-116614285D01*
X127961904Y-116614285D01*
X128057142Y-116661904D01*
X128104761Y-116709523D01*
X128152380Y-116804761D01*
X128152380Y-117042857D01*
X128104761Y-117138095D01*
X128057142Y-117185714D01*
G04 #@! TO.C,C11*
X164957142Y-130342857D02*
X165004761Y-130390476D01*
X165052380Y-130533333D01*
X165052380Y-130628571D01*
X165004761Y-130771428D01*
X164909523Y-130866666D01*
X164814285Y-130914285D01*
X164623809Y-130961904D01*
X164480952Y-130961904D01*
X164290476Y-130914285D01*
X164195238Y-130866666D01*
X164100000Y-130771428D01*
X164052380Y-130628571D01*
X164052380Y-130533333D01*
X164100000Y-130390476D01*
X164147619Y-130342857D01*
X165052380Y-129390476D02*
X165052380Y-129961904D01*
X165052380Y-129676190D02*
X164052380Y-129676190D01*
X164195238Y-129771428D01*
X164290476Y-129866666D01*
X164338095Y-129961904D01*
X165052380Y-128438095D02*
X165052380Y-129009523D01*
X165052380Y-128723809D02*
X164052380Y-128723809D01*
X164195238Y-128819047D01*
X164290476Y-128914285D01*
X164338095Y-129009523D01*
G04 #@! TO.C,R1*
X146733333Y-123652380D02*
X146400000Y-123176190D01*
X146161904Y-123652380D02*
X146161904Y-122652380D01*
X146542857Y-122652380D01*
X146638095Y-122700000D01*
X146685714Y-122747619D01*
X146733333Y-122842857D01*
X146733333Y-122985714D01*
X146685714Y-123080952D01*
X146638095Y-123128571D01*
X146542857Y-123176190D01*
X146161904Y-123176190D01*
X147685714Y-123652380D02*
X147114285Y-123652380D01*
X147400000Y-123652380D02*
X147400000Y-122652380D01*
X147304761Y-122795238D01*
X147209523Y-122890476D01*
X147114285Y-122938095D01*
G04 #@! TO.C,C7*
X148857142Y-126766666D02*
X148904761Y-126814285D01*
X148952380Y-126957142D01*
X148952380Y-127052380D01*
X148904761Y-127195238D01*
X148809523Y-127290476D01*
X148714285Y-127338095D01*
X148523809Y-127385714D01*
X148380952Y-127385714D01*
X148190476Y-127338095D01*
X148095238Y-127290476D01*
X148000000Y-127195238D01*
X147952380Y-127052380D01*
X147952380Y-126957142D01*
X148000000Y-126814285D01*
X148047619Y-126766666D01*
X147952380Y-126433333D02*
X147952380Y-125766666D01*
X148952380Y-126195238D01*
G04 #@! TO.C,C17*
X133757142Y-132957142D02*
X133709523Y-133004761D01*
X133566666Y-133052380D01*
X133471428Y-133052380D01*
X133328571Y-133004761D01*
X133233333Y-132909523D01*
X133185714Y-132814285D01*
X133138095Y-132623809D01*
X133138095Y-132480952D01*
X133185714Y-132290476D01*
X133233333Y-132195238D01*
X133328571Y-132100000D01*
X133471428Y-132052380D01*
X133566666Y-132052380D01*
X133709523Y-132100000D01*
X133757142Y-132147619D01*
X134709523Y-133052380D02*
X134138095Y-133052380D01*
X134423809Y-133052380D02*
X134423809Y-132052380D01*
X134328571Y-132195238D01*
X134233333Y-132290476D01*
X134138095Y-132338095D01*
X135042857Y-132052380D02*
X135709523Y-132052380D01*
X135280952Y-133052380D01*
G04 #@! TO.C,C15*
X156657142Y-145442857D02*
X156704761Y-145490476D01*
X156752380Y-145633333D01*
X156752380Y-145728571D01*
X156704761Y-145871428D01*
X156609523Y-145966666D01*
X156514285Y-146014285D01*
X156323809Y-146061904D01*
X156180952Y-146061904D01*
X155990476Y-146014285D01*
X155895238Y-145966666D01*
X155800000Y-145871428D01*
X155752380Y-145728571D01*
X155752380Y-145633333D01*
X155800000Y-145490476D01*
X155847619Y-145442857D01*
X156752380Y-144490476D02*
X156752380Y-145061904D01*
X156752380Y-144776190D02*
X155752380Y-144776190D01*
X155895238Y-144871428D01*
X155990476Y-144966666D01*
X156038095Y-145061904D01*
X155752380Y-143585714D02*
X155752380Y-144061904D01*
X156228571Y-144109523D01*
X156180952Y-144061904D01*
X156133333Y-143966666D01*
X156133333Y-143728571D01*
X156180952Y-143633333D01*
X156228571Y-143585714D01*
X156323809Y-143538095D01*
X156561904Y-143538095D01*
X156657142Y-143585714D01*
X156704761Y-143633333D01*
X156752380Y-143728571D01*
X156752380Y-143966666D01*
X156704761Y-144061904D01*
X156657142Y-144109523D01*
G04 #@! TO.C,C19*
X157757142Y-130442857D02*
X157804761Y-130490476D01*
X157852380Y-130633333D01*
X157852380Y-130728571D01*
X157804761Y-130871428D01*
X157709523Y-130966666D01*
X157614285Y-131014285D01*
X157423809Y-131061904D01*
X157280952Y-131061904D01*
X157090476Y-131014285D01*
X156995238Y-130966666D01*
X156900000Y-130871428D01*
X156852380Y-130728571D01*
X156852380Y-130633333D01*
X156900000Y-130490476D01*
X156947619Y-130442857D01*
X157852380Y-129490476D02*
X157852380Y-130061904D01*
X157852380Y-129776190D02*
X156852380Y-129776190D01*
X156995238Y-129871428D01*
X157090476Y-129966666D01*
X157138095Y-130061904D01*
X157852380Y-129014285D02*
X157852380Y-128823809D01*
X157804761Y-128728571D01*
X157757142Y-128680952D01*
X157614285Y-128585714D01*
X157423809Y-128538095D01*
X157042857Y-128538095D01*
X156947619Y-128585714D01*
X156900000Y-128633333D01*
X156852380Y-128728571D01*
X156852380Y-128919047D01*
X156900000Y-129014285D01*
X156947619Y-129061904D01*
X157042857Y-129109523D01*
X157280952Y-129109523D01*
X157376190Y-129061904D01*
X157423809Y-129014285D01*
X157471428Y-128919047D01*
X157471428Y-128728571D01*
X157423809Y-128633333D01*
X157376190Y-128585714D01*
X157280952Y-128538095D01*
G04 #@! TO.C,C13*
X162957142Y-130442857D02*
X163004761Y-130490476D01*
X163052380Y-130633333D01*
X163052380Y-130728571D01*
X163004761Y-130871428D01*
X162909523Y-130966666D01*
X162814285Y-131014285D01*
X162623809Y-131061904D01*
X162480952Y-131061904D01*
X162290476Y-131014285D01*
X162195238Y-130966666D01*
X162100000Y-130871428D01*
X162052380Y-130728571D01*
X162052380Y-130633333D01*
X162100000Y-130490476D01*
X162147619Y-130442857D01*
X163052380Y-129490476D02*
X163052380Y-130061904D01*
X163052380Y-129776190D02*
X162052380Y-129776190D01*
X162195238Y-129871428D01*
X162290476Y-129966666D01*
X162338095Y-130061904D01*
X162052380Y-129157142D02*
X162052380Y-128538095D01*
X162433333Y-128871428D01*
X162433333Y-128728571D01*
X162480952Y-128633333D01*
X162528571Y-128585714D01*
X162623809Y-128538095D01*
X162861904Y-128538095D01*
X162957142Y-128585714D01*
X163004761Y-128633333D01*
X163052380Y-128728571D01*
X163052380Y-129014285D01*
X163004761Y-129109523D01*
X162957142Y-129157142D01*
G04 #@! TO.C,D3*
X134961904Y-118152380D02*
X134961904Y-117152380D01*
X135200000Y-117152380D01*
X135342857Y-117200000D01*
X135438095Y-117295238D01*
X135485714Y-117390476D01*
X135533333Y-117580952D01*
X135533333Y-117723809D01*
X135485714Y-117914285D01*
X135438095Y-118009523D01*
X135342857Y-118104761D01*
X135200000Y-118152380D01*
X134961904Y-118152380D01*
X135866666Y-117152380D02*
X136485714Y-117152380D01*
X136152380Y-117533333D01*
X136295238Y-117533333D01*
X136390476Y-117580952D01*
X136438095Y-117628571D01*
X136485714Y-117723809D01*
X136485714Y-117961904D01*
X136438095Y-118057142D01*
X136390476Y-118104761D01*
X136295238Y-118152380D01*
X136009523Y-118152380D01*
X135914285Y-118104761D01*
X135866666Y-118057142D01*
G04 #@! TO.C,R4*
X134733333Y-148082380D02*
X134400000Y-147606190D01*
X134161904Y-148082380D02*
X134161904Y-147082380D01*
X134542857Y-147082380D01*
X134638095Y-147130000D01*
X134685714Y-147177619D01*
X134733333Y-147272857D01*
X134733333Y-147415714D01*
X134685714Y-147510952D01*
X134638095Y-147558571D01*
X134542857Y-147606190D01*
X134161904Y-147606190D01*
X135590476Y-147415714D02*
X135590476Y-148082380D01*
X135352380Y-147034761D02*
X135114285Y-147749047D01*
X135733333Y-147749047D01*
G04 #@! TO.C,D4*
X130661904Y-148452380D02*
X130661904Y-147452380D01*
X130900000Y-147452380D01*
X131042857Y-147500000D01*
X131138095Y-147595238D01*
X131185714Y-147690476D01*
X131233333Y-147880952D01*
X131233333Y-148023809D01*
X131185714Y-148214285D01*
X131138095Y-148309523D01*
X131042857Y-148404761D01*
X130900000Y-148452380D01*
X130661904Y-148452380D01*
X132090476Y-147785714D02*
X132090476Y-148452380D01*
X131852380Y-147404761D02*
X131614285Y-148119047D01*
X132233333Y-148119047D01*
G04 #@! TO.C,C16*
X159357142Y-130442857D02*
X159404761Y-130490476D01*
X159452380Y-130633333D01*
X159452380Y-130728571D01*
X159404761Y-130871428D01*
X159309523Y-130966666D01*
X159214285Y-131014285D01*
X159023809Y-131061904D01*
X158880952Y-131061904D01*
X158690476Y-131014285D01*
X158595238Y-130966666D01*
X158500000Y-130871428D01*
X158452380Y-130728571D01*
X158452380Y-130633333D01*
X158500000Y-130490476D01*
X158547619Y-130442857D01*
X159452380Y-129490476D02*
X159452380Y-130061904D01*
X159452380Y-129776190D02*
X158452380Y-129776190D01*
X158595238Y-129871428D01*
X158690476Y-129966666D01*
X158738095Y-130061904D01*
X158452380Y-128633333D02*
X158452380Y-128823809D01*
X158500000Y-128919047D01*
X158547619Y-128966666D01*
X158690476Y-129061904D01*
X158880952Y-129109523D01*
X159261904Y-129109523D01*
X159357142Y-129061904D01*
X159404761Y-129014285D01*
X159452380Y-128919047D01*
X159452380Y-128728571D01*
X159404761Y-128633333D01*
X159357142Y-128585714D01*
X159261904Y-128538095D01*
X159023809Y-128538095D01*
X158928571Y-128585714D01*
X158880952Y-128633333D01*
X158833333Y-128728571D01*
X158833333Y-128919047D01*
X158880952Y-129014285D01*
X158928571Y-129061904D01*
X159023809Y-129109523D01*
G04 #@! TO.C,C14*
X161157142Y-130342857D02*
X161204761Y-130390476D01*
X161252380Y-130533333D01*
X161252380Y-130628571D01*
X161204761Y-130771428D01*
X161109523Y-130866666D01*
X161014285Y-130914285D01*
X160823809Y-130961904D01*
X160680952Y-130961904D01*
X160490476Y-130914285D01*
X160395238Y-130866666D01*
X160300000Y-130771428D01*
X160252380Y-130628571D01*
X160252380Y-130533333D01*
X160300000Y-130390476D01*
X160347619Y-130342857D01*
X161252380Y-129390476D02*
X161252380Y-129961904D01*
X161252380Y-129676190D02*
X160252380Y-129676190D01*
X160395238Y-129771428D01*
X160490476Y-129866666D01*
X160538095Y-129961904D01*
X160585714Y-128533333D02*
X161252380Y-128533333D01*
X160204761Y-128771428D02*
X160919047Y-129009523D01*
X160919047Y-128390476D01*
G04 #@! TO.C,C25*
X124757142Y-120855357D02*
X124804761Y-120902976D01*
X124852380Y-121045833D01*
X124852380Y-121141071D01*
X124804761Y-121283928D01*
X124709523Y-121379166D01*
X124614285Y-121426785D01*
X124423809Y-121474404D01*
X124280952Y-121474404D01*
X124090476Y-121426785D01*
X123995238Y-121379166D01*
X123900000Y-121283928D01*
X123852380Y-121141071D01*
X123852380Y-121045833D01*
X123900000Y-120902976D01*
X123947619Y-120855357D01*
X123947619Y-120474404D02*
X123900000Y-120426785D01*
X123852380Y-120331547D01*
X123852380Y-120093452D01*
X123900000Y-119998214D01*
X123947619Y-119950595D01*
X124042857Y-119902976D01*
X124138095Y-119902976D01*
X124280952Y-119950595D01*
X124852380Y-120522023D01*
X124852380Y-119902976D01*
X123852380Y-118998214D02*
X123852380Y-119474404D01*
X124328571Y-119522023D01*
X124280952Y-119474404D01*
X124233333Y-119379166D01*
X124233333Y-119141071D01*
X124280952Y-119045833D01*
X124328571Y-118998214D01*
X124423809Y-118950595D01*
X124661904Y-118950595D01*
X124757142Y-118998214D01*
X124804761Y-119045833D01*
X124852380Y-119141071D01*
X124852380Y-119379166D01*
X124804761Y-119474404D01*
X124757142Y-119522023D01*
G04 #@! TO.C,D1*
X145861904Y-132139880D02*
X145861904Y-131139880D01*
X146100000Y-131139880D01*
X146242857Y-131187500D01*
X146338095Y-131282738D01*
X146385714Y-131377976D01*
X146433333Y-131568452D01*
X146433333Y-131711309D01*
X146385714Y-131901785D01*
X146338095Y-131997023D01*
X146242857Y-132092261D01*
X146100000Y-132139880D01*
X145861904Y-132139880D01*
X147385714Y-132139880D02*
X146814285Y-132139880D01*
X147100000Y-132139880D02*
X147100000Y-131139880D01*
X147004761Y-131282738D01*
X146909523Y-131377976D01*
X146814285Y-131425595D01*
G04 #@! TO.C,C12*
X155157142Y-145380357D02*
X155204761Y-145427976D01*
X155252380Y-145570833D01*
X155252380Y-145666071D01*
X155204761Y-145808928D01*
X155109523Y-145904166D01*
X155014285Y-145951785D01*
X154823809Y-145999404D01*
X154680952Y-145999404D01*
X154490476Y-145951785D01*
X154395238Y-145904166D01*
X154300000Y-145808928D01*
X154252380Y-145666071D01*
X154252380Y-145570833D01*
X154300000Y-145427976D01*
X154347619Y-145380357D01*
X155252380Y-144427976D02*
X155252380Y-144999404D01*
X155252380Y-144713690D02*
X154252380Y-144713690D01*
X154395238Y-144808928D01*
X154490476Y-144904166D01*
X154538095Y-144999404D01*
X154347619Y-144047023D02*
X154300000Y-143999404D01*
X154252380Y-143904166D01*
X154252380Y-143666071D01*
X154300000Y-143570833D01*
X154347619Y-143523214D01*
X154442857Y-143475595D01*
X154538095Y-143475595D01*
X154680952Y-143523214D01*
X155252380Y-144094642D01*
X155252380Y-143475595D01*
G04 #@! TO.C,C23*
X172757142Y-130442857D02*
X172804761Y-130490476D01*
X172852380Y-130633333D01*
X172852380Y-130728571D01*
X172804761Y-130871428D01*
X172709523Y-130966666D01*
X172614285Y-131014285D01*
X172423809Y-131061904D01*
X172280952Y-131061904D01*
X172090476Y-131014285D01*
X171995238Y-130966666D01*
X171900000Y-130871428D01*
X171852380Y-130728571D01*
X171852380Y-130633333D01*
X171900000Y-130490476D01*
X171947619Y-130442857D01*
X171947619Y-130061904D02*
X171900000Y-130014285D01*
X171852380Y-129919047D01*
X171852380Y-129680952D01*
X171900000Y-129585714D01*
X171947619Y-129538095D01*
X172042857Y-129490476D01*
X172138095Y-129490476D01*
X172280952Y-129538095D01*
X172852380Y-130109523D01*
X172852380Y-129490476D01*
X171852380Y-129157142D02*
X171852380Y-128538095D01*
X172233333Y-128871428D01*
X172233333Y-128728571D01*
X172280952Y-128633333D01*
X172328571Y-128585714D01*
X172423809Y-128538095D01*
X172661904Y-128538095D01*
X172757142Y-128585714D01*
X172804761Y-128633333D01*
X172852380Y-128728571D01*
X172852380Y-129014285D01*
X172804761Y-129109523D01*
X172757142Y-129157142D01*
D12*
G04 #@! TO.C,C24*
X152090000Y-133453733D02*
X152090000Y-133746267D01*
X153110000Y-133453733D02*
X153110000Y-133746267D01*
D13*
G04 #@! TO.C,Y2*
X140750000Y-138700000D02*
X140750000Y-138700000D01*
X140950000Y-138700000D02*
X140950000Y-138700000D01*
X140950000Y-138700000D02*
G75*
G03*
X140750000Y-138700000I-100000J0D01*
G01*
X140750000Y-138700000D02*
G75*
G03*
X140950000Y-138700000I100000J0D01*
G01*
D12*
G04 #@! TO.C,C4*
X130610000Y-137646267D02*
X130610000Y-137353733D01*
X129590000Y-137646267D02*
X129590000Y-137353733D01*
G04 #@! TO.C,C9*
X128810000Y-137646267D02*
X128810000Y-137353733D01*
X127790000Y-137646267D02*
X127790000Y-137353733D01*
G04 #@! TO.C,C21*
X167890000Y-126453733D02*
X167890000Y-126746267D01*
X168910000Y-126453733D02*
X168910000Y-126746267D01*
G04 #@! TO.C,C6*
X137846267Y-134810000D02*
X137553733Y-134810000D01*
X137846267Y-133790000D02*
X137553733Y-133790000D01*
G04 #@! TO.C,C22*
X169790000Y-126453733D02*
X169790000Y-126746267D01*
X170810000Y-126453733D02*
X170810000Y-126746267D01*
G04 #@! TO.C,C1*
X137690000Y-137153733D02*
X137690000Y-137446267D01*
X138710000Y-137153733D02*
X138710000Y-137446267D01*
G04 #@! TO.C,R2*
X132029724Y-140932500D02*
X131520276Y-140932500D01*
X132029724Y-141977500D02*
X131520276Y-141977500D01*
G04 #@! TO.C,U1*
X162600000Y-140910000D02*
X160400000Y-140910000D01*
X162600000Y-140910000D02*
X164800000Y-140910000D01*
X162600000Y-132890000D02*
X164800000Y-132890000D01*
X162600000Y-132890000D02*
X159000000Y-132890000D01*
D13*
G04 #@! TO.C,IC1*
X144295000Y-127555000D02*
X144295000Y-128755000D01*
D12*
G04 #@! TO.C,J3*
X181130000Y-148255000D02*
X181130000Y-125335000D01*
X181130000Y-150855000D02*
X179800000Y-150855000D01*
X178470000Y-148255000D02*
X178470000Y-125335000D01*
X181130000Y-148255000D02*
X178470000Y-148255000D01*
X181130000Y-149525000D02*
X181130000Y-150855000D01*
X181130000Y-125335000D02*
X178470000Y-125335000D01*
G04 #@! TO.C,C8*
X153790000Y-133453733D02*
X153790000Y-133746267D01*
X154810000Y-133453733D02*
X154810000Y-133746267D01*
G04 #@! TO.C,C10*
X156610000Y-133453733D02*
X156610000Y-133746267D01*
X155590000Y-133453733D02*
X155590000Y-133746267D01*
G04 #@! TO.C,C20*
X165890000Y-126453733D02*
X165890000Y-126746267D01*
X166910000Y-126453733D02*
X166910000Y-126746267D01*
G04 #@! TO.C,C3*
X155590000Y-137946267D02*
X155590000Y-137653733D01*
X156610000Y-137946267D02*
X156610000Y-137653733D01*
G04 #@! TO.C,R3*
X137077500Y-120254724D02*
X137077500Y-119745276D01*
X138122500Y-120254724D02*
X138122500Y-119745276D01*
D13*
G04 #@! TO.C,Y1*
X135850000Y-130100000D02*
X135850000Y-130100000D01*
X135650000Y-130100000D02*
X135650000Y-130100000D01*
X135850000Y-130100000D02*
G75*
G03*
X135650000Y-130100000I-100000J0D01*
G01*
X135650000Y-130100000D02*
G75*
G03*
X135850000Y-130100000I100000J0D01*
G01*
D12*
G04 #@! TO.C,C2*
X149290000Y-133153733D02*
X149290000Y-133446267D01*
X150310000Y-133153733D02*
X150310000Y-133446267D01*
G04 #@! TO.C,C18*
X155910000Y-126453733D02*
X155910000Y-126746267D01*
X154890000Y-126453733D02*
X154890000Y-126746267D01*
G04 #@! TO.C,D2*
X133740000Y-140765000D02*
X133740000Y-142235000D01*
X136200000Y-140765000D02*
X133740000Y-140765000D01*
X133740000Y-142235000D02*
X136200000Y-142235000D01*
G04 #@! TO.C,C5*
X127190000Y-119916233D02*
X127190000Y-120208767D01*
X128210000Y-119916233D02*
X128210000Y-120208767D01*
G04 #@! TO.C,C11*
X164090000Y-126491233D02*
X164090000Y-126783767D01*
X165110000Y-126491233D02*
X165110000Y-126783767D01*
G04 #@! TO.C,R1*
X146922500Y-125742224D02*
X146922500Y-125232776D01*
X145877500Y-125742224D02*
X145877500Y-125232776D01*
G04 #@! TO.C,J1*
X143175000Y-150430000D02*
X141845000Y-150430000D01*
X144445000Y-150430000D02*
X144445000Y-147770000D01*
X167365000Y-150430000D02*
X167365000Y-147770000D01*
X144445000Y-150430000D02*
X167365000Y-150430000D01*
X141845000Y-150430000D02*
X141845000Y-149100000D01*
X144445000Y-147770000D02*
X167365000Y-147770000D01*
G04 #@! TO.C,C7*
X147890000Y-129346267D02*
X147890000Y-129053733D01*
X148910000Y-129346267D02*
X148910000Y-129053733D01*
G04 #@! TO.C,C17*
X137553733Y-132090000D02*
X137846267Y-132090000D01*
X137553733Y-133110000D02*
X137846267Y-133110000D01*
G04 #@! TO.C,C15*
X155790000Y-141416233D02*
X155790000Y-141708767D01*
X156810000Y-141416233D02*
X156810000Y-141708767D01*
G04 #@! TO.C,C19*
X157610000Y-126453733D02*
X157610000Y-126746267D01*
X156590000Y-126453733D02*
X156590000Y-126746267D01*
G04 #@! TO.C,C13*
X162090000Y-126453733D02*
X162090000Y-126746267D01*
X163110000Y-126453733D02*
X163110000Y-126746267D01*
G04 #@! TO.C,D3*
X134865000Y-119200000D02*
X134865000Y-121660000D01*
X134865000Y-121660000D02*
X136335000Y-121660000D01*
X136335000Y-121660000D02*
X136335000Y-119200000D01*
G04 #@! TO.C,R4*
X135154724Y-145677500D02*
X134645276Y-145677500D01*
X135154724Y-146722500D02*
X134645276Y-146722500D01*
D10*
G04 #@! TO.C,J4*
X121825000Y-140625000D02*
X121825000Y-139900000D01*
X118250000Y-145850000D02*
X119650000Y-145850000D01*
X121400000Y-143500000D02*
X121400000Y-144500000D01*
X119650000Y-137550000D02*
X118250000Y-137550000D01*
X115250000Y-145550000D02*
X115700000Y-145550000D01*
X115700000Y-145550000D02*
X115700000Y-145850000D01*
X115700000Y-137550000D02*
X115700000Y-137850000D01*
X121825000Y-139900000D02*
X121400000Y-139900000D01*
X121400000Y-139900000D02*
X121400000Y-138900000D01*
X115850000Y-137550000D02*
X115700000Y-137550000D01*
X115700000Y-145850000D02*
X115850000Y-145850000D01*
X115700000Y-137850000D02*
X115250000Y-137850000D01*
D12*
G04 #@! TO.C,D4*
X132960000Y-146935000D02*
X132960000Y-145465000D01*
X130500000Y-146935000D02*
X132960000Y-146935000D01*
X132960000Y-145465000D02*
X130500000Y-145465000D01*
D13*
G04 #@! TO.C,IC3*
X131925000Y-118650000D02*
X131925000Y-121550000D01*
X129775000Y-118600000D02*
X130925000Y-118600000D01*
X131275000Y-118650000D02*
X131925000Y-118650000D01*
X131925000Y-121550000D02*
X131275000Y-121550000D01*
X131275000Y-121550000D02*
X131275000Y-118650000D01*
D12*
G04 #@! TO.C,C16*
X159410000Y-126453733D02*
X159410000Y-126746267D01*
X158390000Y-126453733D02*
X158390000Y-126746267D01*
G04 #@! TO.C,C14*
X160190000Y-126453733D02*
X160190000Y-126746267D01*
X161210000Y-126453733D02*
X161210000Y-126746267D01*
D13*
G04 #@! TO.C,IC2*
X133420000Y-138855000D02*
X133420000Y-135955000D01*
X133420000Y-135955000D02*
X134070000Y-135955000D01*
X134070000Y-135955000D02*
X134070000Y-138855000D01*
X131920000Y-135905000D02*
X133070000Y-135905000D01*
X134070000Y-138855000D02*
X133420000Y-138855000D01*
D12*
G04 #@! TO.C,C25*
X126410000Y-119928733D02*
X126410000Y-120221267D01*
X125390000Y-119928733D02*
X125390000Y-120221267D01*
G04 #@! TO.C,D1*
X147135000Y-127527500D02*
X145665000Y-127527500D01*
X145665000Y-127527500D02*
X145665000Y-129987500D01*
X147135000Y-129987500D02*
X147135000Y-127527500D01*
G04 #@! TO.C,C12*
X153890000Y-141453733D02*
X153890000Y-141746267D01*
X154910000Y-141453733D02*
X154910000Y-141746267D01*
G04 #@! TO.C,C23*
X171790000Y-126453733D02*
X171790000Y-126746267D01*
X172810000Y-126453733D02*
X172810000Y-126746267D01*
G04 #@! TO.C,J2*
X149210000Y-117070000D02*
X149210000Y-119730000D01*
X172130000Y-117070000D02*
X172130000Y-119730000D01*
X172130000Y-119730000D02*
X149210000Y-119730000D01*
X172130000Y-117070000D02*
X149210000Y-117070000D01*
X173400000Y-117070000D02*
X174730000Y-117070000D01*
X174730000Y-117070000D02*
X174730000Y-118400000D01*
G04 #@! TD*
M02*
