G04 #@! TF.GenerationSoftware,KiCad,Pcbnew,(6.0.5)*
G04 #@! TF.CreationDate,2023-02-22T13:25:26-08:00*
G04 #@! TF.ProjectId,PCM1863,50434d31-3836-4332-9e6b-696361645f70,rev?*
G04 #@! TF.SameCoordinates,Original*
G04 #@! TF.FileFunction,Legend,Top*
G04 #@! TF.FilePolarity,Positive*
%FSLAX46Y46*%
G04 Gerber Fmt 4.6, Leading zero omitted, Abs format (unit mm)*
G04 Created by KiCad (PCBNEW (6.0.5)) date 2023-02-22 13:25:26*
%MOMM*%
%LPD*%
G01*
G04 APERTURE LIST*
%ADD10C,0.150000*%
%ADD11C,0.200000*%
%ADD12C,0.254000*%
%ADD13C,0.120000*%
G04 APERTURE END LIST*
D10*
X134152380Y-56071428D02*
X135152380Y-55738095D01*
X134152380Y-55404761D01*
X135152380Y-55071428D02*
X134152380Y-55071428D01*
X135152380Y-54595238D02*
X134152380Y-54595238D01*
X135152380Y-54023809D01*
X134152380Y-54023809D01*
X135152380Y-52976190D02*
X134676190Y-53309523D01*
X135152380Y-53547619D02*
X134152380Y-53547619D01*
X134152380Y-53166666D01*
X134200000Y-53071428D01*
X134247619Y-53023809D01*
X134342857Y-52976190D01*
X134485714Y-52976190D01*
X134580952Y-53023809D01*
X134628571Y-53071428D01*
X134676190Y-53166666D01*
X134676190Y-53547619D01*
X134152380Y-52642857D02*
X134152380Y-52023809D01*
X134533333Y-52357142D01*
X134533333Y-52214285D01*
X134580952Y-52119047D01*
X134628571Y-52071428D01*
X134723809Y-52023809D01*
X134961904Y-52023809D01*
X135057142Y-52071428D01*
X135104761Y-52119047D01*
X135152380Y-52214285D01*
X135152380Y-52500000D01*
X135104761Y-52595238D01*
X135057142Y-52642857D01*
X119752380Y-55895238D02*
X118752380Y-55895238D01*
X119466666Y-55561904D01*
X118752380Y-55228571D01*
X119752380Y-55228571D01*
X119752380Y-54752380D02*
X118752380Y-54752380D01*
X119657142Y-53704761D02*
X119704761Y-53752380D01*
X119752380Y-53895238D01*
X119752380Y-53990476D01*
X119704761Y-54133333D01*
X119609523Y-54228571D01*
X119514285Y-54276190D01*
X119323809Y-54323809D01*
X119180952Y-54323809D01*
X118990476Y-54276190D01*
X118895238Y-54228571D01*
X118800000Y-54133333D01*
X118752380Y-53990476D01*
X118752380Y-53895238D01*
X118800000Y-53752380D01*
X118847619Y-53704761D01*
X119847619Y-53514285D02*
X119847619Y-52752380D01*
X119228571Y-52180952D02*
X119276190Y-52038095D01*
X119323809Y-51990476D01*
X119419047Y-51942857D01*
X119561904Y-51942857D01*
X119657142Y-51990476D01*
X119704761Y-52038095D01*
X119752380Y-52133333D01*
X119752380Y-52514285D01*
X118752380Y-52514285D01*
X118752380Y-52180952D01*
X118800000Y-52085714D01*
X118847619Y-52038095D01*
X118942857Y-51990476D01*
X119038095Y-51990476D01*
X119133333Y-52038095D01*
X119180952Y-52085714D01*
X119228571Y-52180952D01*
X119228571Y-52514285D01*
X119752380Y-51514285D02*
X118752380Y-51514285D01*
X119466666Y-51085714D02*
X119466666Y-50609523D01*
X119752380Y-51180952D02*
X118752380Y-50847619D01*
X119752380Y-50514285D01*
X119704761Y-50228571D02*
X119752380Y-50085714D01*
X119752380Y-49847619D01*
X119704761Y-49752380D01*
X119657142Y-49704761D01*
X119561904Y-49657142D01*
X119466666Y-49657142D01*
X119371428Y-49704761D01*
X119323809Y-49752380D01*
X119276190Y-49847619D01*
X119228571Y-50038095D01*
X119180952Y-50133333D01*
X119133333Y-50180952D01*
X119038095Y-50228571D01*
X118942857Y-50228571D01*
X118847619Y-50180952D01*
X118800000Y-50133333D01*
X118752380Y-50038095D01*
X118752380Y-49800000D01*
X118800000Y-49657142D01*
X89880952Y-79466666D02*
X90357142Y-79466666D01*
X89785714Y-79752380D02*
X90119047Y-78752380D01*
X90452380Y-79752380D01*
X90642857Y-78752380D02*
X90976190Y-79752380D01*
X91309523Y-78752380D01*
X91642857Y-79752380D02*
X91642857Y-78752380D01*
X91880952Y-78752380D01*
X92023809Y-78800000D01*
X92119047Y-78895238D01*
X92166666Y-78990476D01*
X92214285Y-79180952D01*
X92214285Y-79323809D01*
X92166666Y-79514285D01*
X92119047Y-79609523D01*
X92023809Y-79704761D01*
X91880952Y-79752380D01*
X91642857Y-79752380D01*
X92642857Y-79752380D02*
X92642857Y-78752380D01*
X92880952Y-78752380D01*
X93023809Y-78800000D01*
X93119047Y-78895238D01*
X93166666Y-78990476D01*
X93214285Y-79180952D01*
X93214285Y-79323809D01*
X93166666Y-79514285D01*
X93119047Y-79609523D01*
X93023809Y-79704761D01*
X92880952Y-79752380D01*
X92642857Y-79752380D01*
X93404761Y-79847619D02*
X94166666Y-79847619D01*
X94404761Y-79752380D02*
X94404761Y-78752380D01*
X94785714Y-78752380D01*
X94880952Y-78800000D01*
X94928571Y-78847619D01*
X94976190Y-78942857D01*
X94976190Y-79085714D01*
X94928571Y-79180952D01*
X94880952Y-79228571D01*
X94785714Y-79276190D01*
X94404761Y-79276190D01*
X95309523Y-78752380D02*
X95547619Y-79752380D01*
X95738095Y-79038095D01*
X95928571Y-79752380D01*
X96166666Y-78752380D01*
X97119047Y-79752380D02*
X96785714Y-79276190D01*
X96547619Y-79752380D02*
X96547619Y-78752380D01*
X96928571Y-78752380D01*
X97023809Y-78800000D01*
X97071428Y-78847619D01*
X97119047Y-78942857D01*
X97119047Y-79085714D01*
X97071428Y-79180952D01*
X97023809Y-79228571D01*
X96928571Y-79276190D01*
X96547619Y-79276190D01*
X139352380Y-55971428D02*
X140352380Y-55638095D01*
X139352380Y-55304761D01*
X140352380Y-54971428D02*
X139352380Y-54971428D01*
X140352380Y-54495238D02*
X139352380Y-54495238D01*
X140352380Y-53923809D01*
X139352380Y-53923809D01*
X140352380Y-52876190D02*
X139876190Y-53209523D01*
X140352380Y-53447619D02*
X139352380Y-53447619D01*
X139352380Y-53066666D01*
X139400000Y-52971428D01*
X139447619Y-52923809D01*
X139542857Y-52876190D01*
X139685714Y-52876190D01*
X139780952Y-52923809D01*
X139828571Y-52971428D01*
X139876190Y-53066666D01*
X139876190Y-53447619D01*
X139685714Y-52019047D02*
X140352380Y-52019047D01*
X139304761Y-52257142D02*
X140019047Y-52495238D01*
X140019047Y-51876190D01*
X129152380Y-55876190D02*
X130152380Y-55542857D01*
X129152380Y-55209523D01*
X130152380Y-54876190D02*
X129152380Y-54876190D01*
X130152380Y-54400000D02*
X129152380Y-54400000D01*
X130152380Y-53828571D01*
X129152380Y-53828571D01*
X130152380Y-52876190D02*
X130152380Y-53352380D01*
X129152380Y-53352380D01*
X130152380Y-52019047D02*
X130152380Y-52590476D01*
X130152380Y-52304761D02*
X129152380Y-52304761D01*
X129295238Y-52400000D01*
X129390476Y-52495238D01*
X129438095Y-52590476D01*
X89871428Y-82871428D02*
X90633333Y-82871428D01*
X90252380Y-83252380D02*
X90252380Y-82490476D01*
X91014285Y-82252380D02*
X91633333Y-82252380D01*
X91300000Y-82633333D01*
X91442857Y-82633333D01*
X91538095Y-82680952D01*
X91585714Y-82728571D01*
X91633333Y-82823809D01*
X91633333Y-83061904D01*
X91585714Y-83157142D01*
X91538095Y-83204761D01*
X91442857Y-83252380D01*
X91157142Y-83252380D01*
X91061904Y-83204761D01*
X91014285Y-83157142D01*
X92061904Y-83157142D02*
X92109523Y-83204761D01*
X92061904Y-83252380D01*
X92014285Y-83204761D01*
X92061904Y-83157142D01*
X92061904Y-83252380D01*
X92442857Y-82252380D02*
X93061904Y-82252380D01*
X92728571Y-82633333D01*
X92871428Y-82633333D01*
X92966666Y-82680952D01*
X93014285Y-82728571D01*
X93061904Y-82823809D01*
X93061904Y-83061904D01*
X93014285Y-83157142D01*
X92966666Y-83204761D01*
X92871428Y-83252380D01*
X92585714Y-83252380D01*
X92490476Y-83204761D01*
X92442857Y-83157142D01*
X93347619Y-82252380D02*
X93680952Y-83252380D01*
X94014285Y-82252380D01*
X94300000Y-82966666D02*
X94776190Y-82966666D01*
X94204761Y-83252380D02*
X94538095Y-82252380D01*
X94871428Y-83252380D01*
X119052380Y-123033333D02*
X120052380Y-122700000D01*
X119052380Y-122366666D01*
X119957142Y-121461904D02*
X120004761Y-121509523D01*
X120052380Y-121652380D01*
X120052380Y-121747619D01*
X120004761Y-121890476D01*
X119909523Y-121985714D01*
X119814285Y-122033333D01*
X119623809Y-122080952D01*
X119480952Y-122080952D01*
X119290476Y-122033333D01*
X119195238Y-121985714D01*
X119100000Y-121890476D01*
X119052380Y-121747619D01*
X119052380Y-121652380D01*
X119100000Y-121509523D01*
X119147619Y-121461904D01*
X119957142Y-120461904D02*
X120004761Y-120509523D01*
X120052380Y-120652380D01*
X120052380Y-120747619D01*
X120004761Y-120890476D01*
X119909523Y-120985714D01*
X119814285Y-121033333D01*
X119623809Y-121080952D01*
X119480952Y-121080952D01*
X119290476Y-121033333D01*
X119195238Y-120985714D01*
X119100000Y-120890476D01*
X119052380Y-120747619D01*
X119052380Y-120652380D01*
X119100000Y-120509523D01*
X119147619Y-120461904D01*
X85957142Y-122152380D02*
X85957142Y-121152380D01*
X86195238Y-121152380D01*
X86338095Y-121200000D01*
X86433333Y-121295238D01*
X86480952Y-121390476D01*
X86528571Y-121580952D01*
X86528571Y-121723809D01*
X86480952Y-121914285D01*
X86433333Y-122009523D01*
X86338095Y-122104761D01*
X86195238Y-122152380D01*
X85957142Y-122152380D01*
X86814285Y-121152380D02*
X87147619Y-122152380D01*
X87480952Y-121152380D01*
X87814285Y-122152380D02*
X87814285Y-121152380D01*
X88052380Y-121152380D01*
X88195238Y-121200000D01*
X88290476Y-121295238D01*
X88338095Y-121390476D01*
X88385714Y-121580952D01*
X88385714Y-121723809D01*
X88338095Y-121914285D01*
X88290476Y-122009523D01*
X88195238Y-122104761D01*
X88052380Y-122152380D01*
X87814285Y-122152380D01*
X88814285Y-122152380D02*
X88814285Y-121152380D01*
X89052380Y-121152380D01*
X89195238Y-121200000D01*
X89290476Y-121295238D01*
X89338095Y-121390476D01*
X89385714Y-121580952D01*
X89385714Y-121723809D01*
X89338095Y-121914285D01*
X89290476Y-122009523D01*
X89195238Y-122104761D01*
X89052380Y-122152380D01*
X88814285Y-122152380D01*
X89576190Y-122247619D02*
X90338095Y-122247619D01*
X90576190Y-122152380D02*
X90576190Y-121152380D01*
X90957142Y-121152380D01*
X91052380Y-121200000D01*
X91100000Y-121247619D01*
X91147619Y-121342857D01*
X91147619Y-121485714D01*
X91100000Y-121580952D01*
X91052380Y-121628571D01*
X90957142Y-121676190D01*
X90576190Y-121676190D01*
X91480952Y-121152380D02*
X91719047Y-122152380D01*
X91909523Y-121438095D01*
X92100000Y-122152380D01*
X92338095Y-121152380D01*
X93290476Y-122152380D02*
X92957142Y-121676190D01*
X92719047Y-122152380D02*
X92719047Y-121152380D01*
X93100000Y-121152380D01*
X93195238Y-121200000D01*
X93242857Y-121247619D01*
X93290476Y-121342857D01*
X93290476Y-121485714D01*
X93242857Y-121580952D01*
X93195238Y-121628571D01*
X93100000Y-121676190D01*
X92719047Y-121676190D01*
X86709523Y-112271428D02*
X87471428Y-112271428D01*
X87090476Y-112652380D02*
X87090476Y-111890476D01*
X87852380Y-111652380D02*
X88471428Y-111652380D01*
X88138095Y-112033333D01*
X88280952Y-112033333D01*
X88376190Y-112080952D01*
X88423809Y-112128571D01*
X88471428Y-112223809D01*
X88471428Y-112461904D01*
X88423809Y-112557142D01*
X88376190Y-112604761D01*
X88280952Y-112652380D01*
X87995238Y-112652380D01*
X87900000Y-112604761D01*
X87852380Y-112557142D01*
X88757142Y-111652380D02*
X89090476Y-112652380D01*
X89423809Y-111652380D01*
X89661904Y-111652380D02*
X90280952Y-111652380D01*
X89947619Y-112033333D01*
X90090476Y-112033333D01*
X90185714Y-112080952D01*
X90233333Y-112128571D01*
X90280952Y-112223809D01*
X90280952Y-112461904D01*
X90233333Y-112557142D01*
X90185714Y-112604761D01*
X90090476Y-112652380D01*
X89804761Y-112652380D01*
X89709523Y-112604761D01*
X89661904Y-112557142D01*
X90566666Y-111652380D02*
X90900000Y-112652380D01*
X91233333Y-111652380D01*
X91566666Y-112652380D02*
X91566666Y-111652380D01*
X91804761Y-111652380D01*
X91947619Y-111700000D01*
X92042857Y-111795238D01*
X92090476Y-111890476D01*
X92138095Y-112080952D01*
X92138095Y-112223809D01*
X92090476Y-112414285D01*
X92042857Y-112509523D01*
X91947619Y-112604761D01*
X91804761Y-112652380D01*
X91566666Y-112652380D01*
X106933333Y-103752380D02*
X106457142Y-103752380D01*
X106457142Y-102752380D01*
X107266666Y-103752380D02*
X107266666Y-102752380D01*
X107504761Y-102752380D01*
X107647619Y-102800000D01*
X107742857Y-102895238D01*
X107790476Y-102990476D01*
X107838095Y-103180952D01*
X107838095Y-103323809D01*
X107790476Y-103514285D01*
X107742857Y-103609523D01*
X107647619Y-103704761D01*
X107504761Y-103752380D01*
X107266666Y-103752380D01*
X108457142Y-102752380D02*
X108647619Y-102752380D01*
X108742857Y-102800000D01*
X108838095Y-102895238D01*
X108885714Y-103085714D01*
X108885714Y-103419047D01*
X108838095Y-103609523D01*
X108742857Y-103704761D01*
X108647619Y-103752380D01*
X108457142Y-103752380D01*
X108361904Y-103704761D01*
X108266666Y-103609523D01*
X108219047Y-103419047D01*
X108219047Y-103085714D01*
X108266666Y-102895238D01*
X108361904Y-102800000D01*
X108457142Y-102752380D01*
X109076190Y-103847619D02*
X109838095Y-103847619D01*
X110076190Y-103752380D02*
X110076190Y-102752380D01*
X110457142Y-102752380D01*
X110552380Y-102800000D01*
X110600000Y-102847619D01*
X110647619Y-102942857D01*
X110647619Y-103085714D01*
X110600000Y-103180952D01*
X110552380Y-103228571D01*
X110457142Y-103276190D01*
X110076190Y-103276190D01*
X110980952Y-102752380D02*
X111219047Y-103752380D01*
X111409523Y-103038095D01*
X111600000Y-103752380D01*
X111838095Y-102752380D01*
X112790476Y-103752380D02*
X112457142Y-103276190D01*
X112219047Y-103752380D02*
X112219047Y-102752380D01*
X112600000Y-102752380D01*
X112695238Y-102800000D01*
X112742857Y-102847619D01*
X112790476Y-102942857D01*
X112790476Y-103085714D01*
X112742857Y-103180952D01*
X112695238Y-103228571D01*
X112600000Y-103276190D01*
X112219047Y-103276190D01*
X130678571Y-125178571D02*
X131535714Y-125178571D01*
X131107142Y-126678571D02*
X131107142Y-125178571D01*
X132607142Y-126607142D02*
X132464285Y-126678571D01*
X132178571Y-126678571D01*
X132035714Y-126607142D01*
X131964285Y-126464285D01*
X131964285Y-125892857D01*
X132035714Y-125750000D01*
X132178571Y-125678571D01*
X132464285Y-125678571D01*
X132607142Y-125750000D01*
X132678571Y-125892857D01*
X132678571Y-126035714D01*
X131964285Y-126178571D01*
X133250000Y-126607142D02*
X133392857Y-126678571D01*
X133678571Y-126678571D01*
X133821428Y-126607142D01*
X133892857Y-126464285D01*
X133892857Y-126392857D01*
X133821428Y-126250000D01*
X133678571Y-126178571D01*
X133464285Y-126178571D01*
X133321428Y-126107142D01*
X133250000Y-125964285D01*
X133250000Y-125892857D01*
X133321428Y-125750000D01*
X133464285Y-125678571D01*
X133678571Y-125678571D01*
X133821428Y-125750000D01*
X134321428Y-125678571D02*
X134892857Y-125678571D01*
X134535714Y-125178571D02*
X134535714Y-126464285D01*
X134607142Y-126607142D01*
X134750000Y-126678571D01*
X134892857Y-126678571D01*
X135392857Y-126678571D02*
X135392857Y-125678571D01*
X135392857Y-125178571D02*
X135321428Y-125250000D01*
X135392857Y-125321428D01*
X135464285Y-125250000D01*
X135392857Y-125178571D01*
X135392857Y-125321428D01*
X136107142Y-125678571D02*
X136107142Y-126678571D01*
X136107142Y-125821428D02*
X136178571Y-125750000D01*
X136321428Y-125678571D01*
X136535714Y-125678571D01*
X136678571Y-125750000D01*
X136750000Y-125892857D01*
X136750000Y-126678571D01*
X138107142Y-125678571D02*
X138107142Y-126892857D01*
X138035714Y-127035714D01*
X137964285Y-127107142D01*
X137821428Y-127178571D01*
X137607142Y-127178571D01*
X137464285Y-127107142D01*
X138107142Y-126607142D02*
X137964285Y-126678571D01*
X137678571Y-126678571D01*
X137535714Y-126607142D01*
X137464285Y-126535714D01*
X137392857Y-126392857D01*
X137392857Y-125964285D01*
X137464285Y-125821428D01*
X137535714Y-125750000D01*
X137678571Y-125678571D01*
X137964285Y-125678571D01*
X138107142Y-125750000D01*
X137797738Y-95552380D02*
X137797738Y-94552380D01*
X138131071Y-95266666D01*
X138464404Y-94552380D01*
X138464404Y-95552380D01*
X139512023Y-95457142D02*
X139464404Y-95504761D01*
X139321547Y-95552380D01*
X139226309Y-95552380D01*
X139083452Y-95504761D01*
X138988214Y-95409523D01*
X138940595Y-95314285D01*
X138892976Y-95123809D01*
X138892976Y-94980952D01*
X138940595Y-94790476D01*
X138988214Y-94695238D01*
X139083452Y-94600000D01*
X139226309Y-94552380D01*
X139321547Y-94552380D01*
X139464404Y-94600000D01*
X139512023Y-94647619D01*
X137052380Y-121571428D02*
X138052380Y-120904761D01*
X137052380Y-120904761D02*
X138052380Y-121571428D01*
X138052380Y-120523809D02*
X137052380Y-120523809D01*
X145135595Y-90052380D02*
X145135595Y-89052380D01*
X145468928Y-89766666D01*
X145802261Y-89052380D01*
X145802261Y-90052380D01*
X146278452Y-90052380D02*
X146278452Y-89052380D01*
X146516547Y-89052380D01*
X146659404Y-89100000D01*
X146754642Y-89195238D01*
X146802261Y-89290476D01*
X146849880Y-89480952D01*
X146849880Y-89623809D01*
X146802261Y-89814285D01*
X146754642Y-89909523D01*
X146659404Y-90004761D01*
X146516547Y-90052380D01*
X146278452Y-90052380D01*
X147468928Y-89052380D02*
X147659404Y-89052380D01*
X147754642Y-89100000D01*
X147849880Y-89195238D01*
X147897500Y-89385714D01*
X147897500Y-89719047D01*
X147849880Y-89909523D01*
X147754642Y-90004761D01*
X147659404Y-90052380D01*
X147468928Y-90052380D01*
X147373690Y-90004761D01*
X147278452Y-89909523D01*
X147230833Y-89719047D01*
X147230833Y-89385714D01*
X147278452Y-89195238D01*
X147373690Y-89100000D01*
X147468928Y-89052380D01*
D11*
X73771428Y-64542500D02*
X74485714Y-64542500D01*
X73628571Y-64971071D02*
X74128571Y-63471071D01*
X74628571Y-64971071D01*
X75128571Y-64971071D02*
X75128571Y-63471071D01*
X75485714Y-63471071D01*
X75700000Y-63542500D01*
X75842857Y-63685357D01*
X75914285Y-63828214D01*
X75985714Y-64113928D01*
X75985714Y-64328214D01*
X75914285Y-64613928D01*
X75842857Y-64756785D01*
X75700000Y-64899642D01*
X75485714Y-64971071D01*
X75128571Y-64971071D01*
X77485714Y-64828214D02*
X77414285Y-64899642D01*
X77200000Y-64971071D01*
X77057142Y-64971071D01*
X76842857Y-64899642D01*
X76700000Y-64756785D01*
X76628571Y-64613928D01*
X76557142Y-64328214D01*
X76557142Y-64113928D01*
X76628571Y-63828214D01*
X76700000Y-63685357D01*
X76842857Y-63542500D01*
X77057142Y-63471071D01*
X77200000Y-63471071D01*
X77414285Y-63542500D01*
X77485714Y-63613928D01*
X79271428Y-64399642D02*
X80414285Y-64399642D01*
X82271428Y-64971071D02*
X82271428Y-63471071D01*
X82842857Y-63471071D01*
X82985714Y-63542500D01*
X83057142Y-63613928D01*
X83128571Y-63756785D01*
X83128571Y-63971071D01*
X83057142Y-64113928D01*
X82985714Y-64185357D01*
X82842857Y-64256785D01*
X82271428Y-64256785D01*
X84628571Y-64828214D02*
X84557142Y-64899642D01*
X84342857Y-64971071D01*
X84200000Y-64971071D01*
X83985714Y-64899642D01*
X83842857Y-64756785D01*
X83771428Y-64613928D01*
X83700000Y-64328214D01*
X83700000Y-64113928D01*
X83771428Y-63828214D01*
X83842857Y-63685357D01*
X83985714Y-63542500D01*
X84200000Y-63471071D01*
X84342857Y-63471071D01*
X84557142Y-63542500D01*
X84628571Y-63613928D01*
X85271428Y-64971071D02*
X85271428Y-63471071D01*
X85771428Y-64542500D01*
X86271428Y-63471071D01*
X86271428Y-64971071D01*
X87771428Y-64971071D02*
X86914285Y-64971071D01*
X87342857Y-64971071D02*
X87342857Y-63471071D01*
X87200000Y-63685357D01*
X87057142Y-63828214D01*
X86914285Y-63899642D01*
X88628571Y-64113928D02*
X88485714Y-64042500D01*
X88414285Y-63971071D01*
X88342857Y-63828214D01*
X88342857Y-63756785D01*
X88414285Y-63613928D01*
X88485714Y-63542500D01*
X88628571Y-63471071D01*
X88914285Y-63471071D01*
X89057142Y-63542500D01*
X89128571Y-63613928D01*
X89200000Y-63756785D01*
X89200000Y-63828214D01*
X89128571Y-63971071D01*
X89057142Y-64042500D01*
X88914285Y-64113928D01*
X88628571Y-64113928D01*
X88485714Y-64185357D01*
X88414285Y-64256785D01*
X88342857Y-64399642D01*
X88342857Y-64685357D01*
X88414285Y-64828214D01*
X88485714Y-64899642D01*
X88628571Y-64971071D01*
X88914285Y-64971071D01*
X89057142Y-64899642D01*
X89128571Y-64828214D01*
X89200000Y-64685357D01*
X89200000Y-64399642D01*
X89128571Y-64256785D01*
X89057142Y-64185357D01*
X88914285Y-64113928D01*
X90485714Y-63471071D02*
X90200000Y-63471071D01*
X90057142Y-63542500D01*
X89985714Y-63613928D01*
X89842857Y-63828214D01*
X89771428Y-64113928D01*
X89771428Y-64685357D01*
X89842857Y-64828214D01*
X89914285Y-64899642D01*
X90057142Y-64971071D01*
X90342857Y-64971071D01*
X90485714Y-64899642D01*
X90557142Y-64828214D01*
X90628571Y-64685357D01*
X90628571Y-64328214D01*
X90557142Y-64185357D01*
X90485714Y-64113928D01*
X90342857Y-64042500D01*
X90057142Y-64042500D01*
X89914285Y-64113928D01*
X89842857Y-64185357D01*
X89771428Y-64328214D01*
X91200000Y-63613928D02*
X91271428Y-63542500D01*
X91414285Y-63471071D01*
X91771428Y-63471071D01*
X91914285Y-63542500D01*
X91985714Y-63613928D01*
X92057142Y-63756785D01*
X92057142Y-63899642D01*
X91985714Y-64113928D01*
X91128571Y-64971071D01*
X92057142Y-64971071D01*
X93628571Y-63471071D02*
X94128571Y-64971071D01*
X94628571Y-63471071D01*
X95128571Y-64828214D02*
X95200000Y-64899642D01*
X95128571Y-64971071D01*
X95057142Y-64899642D01*
X95128571Y-64828214D01*
X95128571Y-64971071D01*
X96485714Y-63971071D02*
X96485714Y-64971071D01*
X96128571Y-63399642D02*
X95771428Y-64471071D01*
X96700000Y-64471071D01*
X75735714Y-66600357D02*
X75235714Y-66600357D01*
X75235714Y-67386071D02*
X75235714Y-65886071D01*
X75950000Y-65886071D01*
X76735714Y-67386071D02*
X76592857Y-67314642D01*
X76521428Y-67243214D01*
X76450000Y-67100357D01*
X76450000Y-66671785D01*
X76521428Y-66528928D01*
X76592857Y-66457500D01*
X76735714Y-66386071D01*
X76950000Y-66386071D01*
X77092857Y-66457500D01*
X77164285Y-66528928D01*
X77235714Y-66671785D01*
X77235714Y-67100357D01*
X77164285Y-67243214D01*
X77092857Y-67314642D01*
X76950000Y-67386071D01*
X76735714Y-67386071D01*
X77878571Y-67386071D02*
X77878571Y-66386071D01*
X77878571Y-66671785D02*
X77950000Y-66528928D01*
X78021428Y-66457500D01*
X78164285Y-66386071D01*
X78307142Y-66386071D01*
X79450000Y-67386071D02*
X79450000Y-65886071D01*
X79450000Y-67314642D02*
X79307142Y-67386071D01*
X79021428Y-67386071D01*
X78878571Y-67314642D01*
X78807142Y-67243214D01*
X78735714Y-67100357D01*
X78735714Y-66671785D01*
X78807142Y-66528928D01*
X78878571Y-66457500D01*
X79021428Y-66386071D01*
X79307142Y-66386071D01*
X79450000Y-66457500D01*
X81592857Y-65886071D02*
X81735714Y-65886071D01*
X81878571Y-65957500D01*
X81950000Y-66028928D01*
X82021428Y-66171785D01*
X82092857Y-66457500D01*
X82092857Y-66814642D01*
X82021428Y-67100357D01*
X81950000Y-67243214D01*
X81878571Y-67314642D01*
X81735714Y-67386071D01*
X81592857Y-67386071D01*
X81450000Y-67314642D01*
X81378571Y-67243214D01*
X81307142Y-67100357D01*
X81235714Y-66814642D01*
X81235714Y-66457500D01*
X81307142Y-66171785D01*
X81378571Y-66028928D01*
X81450000Y-65957500D01*
X81592857Y-65886071D01*
X82664285Y-66028928D02*
X82735714Y-65957500D01*
X82878571Y-65886071D01*
X83235714Y-65886071D01*
X83378571Y-65957500D01*
X83450000Y-66028928D01*
X83521428Y-66171785D01*
X83521428Y-66314642D01*
X83450000Y-66528928D01*
X82592857Y-67386071D01*
X83521428Y-67386071D01*
X85235714Y-65814642D02*
X83950000Y-67743214D01*
X86521428Y-67386071D02*
X85664285Y-67386071D01*
X86092857Y-67386071D02*
X86092857Y-65886071D01*
X85950000Y-66100357D01*
X85807142Y-66243214D01*
X85664285Y-66314642D01*
X87235714Y-67386071D02*
X87521428Y-67386071D01*
X87664285Y-67314642D01*
X87735714Y-67243214D01*
X87878571Y-67028928D01*
X87950000Y-66743214D01*
X87950000Y-66171785D01*
X87878571Y-66028928D01*
X87807142Y-65957500D01*
X87664285Y-65886071D01*
X87378571Y-65886071D01*
X87235714Y-65957500D01*
X87164285Y-66028928D01*
X87092857Y-66171785D01*
X87092857Y-66528928D01*
X87164285Y-66671785D01*
X87235714Y-66743214D01*
X87378571Y-66814642D01*
X87664285Y-66814642D01*
X87807142Y-66743214D01*
X87878571Y-66671785D01*
X87950000Y-66528928D01*
X89664285Y-65814642D02*
X88378571Y-67743214D01*
X90092857Y-66028928D02*
X90164285Y-65957500D01*
X90307142Y-65886071D01*
X90664285Y-65886071D01*
X90807142Y-65957500D01*
X90878571Y-66028928D01*
X90950000Y-66171785D01*
X90950000Y-66314642D01*
X90878571Y-66528928D01*
X90021428Y-67386071D01*
X90950000Y-67386071D01*
X91878571Y-65886071D02*
X92021428Y-65886071D01*
X92164285Y-65957500D01*
X92235714Y-66028928D01*
X92307142Y-66171785D01*
X92378571Y-66457500D01*
X92378571Y-66814642D01*
X92307142Y-67100357D01*
X92235714Y-67243214D01*
X92164285Y-67314642D01*
X92021428Y-67386071D01*
X91878571Y-67386071D01*
X91735714Y-67314642D01*
X91664285Y-67243214D01*
X91592857Y-67100357D01*
X91521428Y-66814642D01*
X91521428Y-66457500D01*
X91592857Y-66171785D01*
X91664285Y-66028928D01*
X91735714Y-65957500D01*
X91878571Y-65886071D01*
X92950000Y-66028928D02*
X93021428Y-65957500D01*
X93164285Y-65886071D01*
X93521428Y-65886071D01*
X93664285Y-65957500D01*
X93735714Y-66028928D01*
X93807142Y-66171785D01*
X93807142Y-66314642D01*
X93735714Y-66528928D01*
X92878571Y-67386071D01*
X93807142Y-67386071D01*
X94307142Y-65886071D02*
X95235714Y-65886071D01*
X94735714Y-66457500D01*
X94950000Y-66457500D01*
X95092857Y-66528928D01*
X95164285Y-66600357D01*
X95235714Y-66743214D01*
X95235714Y-67100357D01*
X95164285Y-67243214D01*
X95092857Y-67314642D01*
X94950000Y-67386071D01*
X94521428Y-67386071D01*
X94378571Y-67314642D01*
X94307142Y-67243214D01*
D10*
X102138095Y-112547619D02*
X102185714Y-112500000D01*
X102280952Y-112452380D01*
X102519047Y-112452380D01*
X102614285Y-112500000D01*
X102661904Y-112547619D01*
X102709523Y-112642857D01*
X102709523Y-112738095D01*
X102661904Y-112880952D01*
X102090476Y-113452380D01*
X102709523Y-113452380D01*
X103566666Y-112785714D02*
X103566666Y-113452380D01*
X103328571Y-112404761D02*
X103090476Y-113119047D01*
X103709523Y-113119047D01*
X104090476Y-113452380D02*
X104090476Y-112452380D01*
X104423809Y-113166666D01*
X104757142Y-112452380D01*
X104757142Y-113452380D01*
X105233333Y-113452380D02*
X105233333Y-112452380D01*
X105233333Y-112928571D02*
X105804761Y-112928571D01*
X105804761Y-113452380D02*
X105804761Y-112452380D01*
X106185714Y-112785714D02*
X106709523Y-112785714D01*
X106185714Y-113452380D01*
X106709523Y-113452380D01*
X83380952Y-104152380D02*
X84047619Y-105152380D01*
X84047619Y-104152380D02*
X83380952Y-105152380D01*
X84619047Y-104152380D02*
X84809523Y-104152380D01*
X84904761Y-104200000D01*
X85000000Y-104295238D01*
X85047619Y-104485714D01*
X85047619Y-104819047D01*
X85000000Y-105009523D01*
X84904761Y-105104761D01*
X84809523Y-105152380D01*
X84619047Y-105152380D01*
X84523809Y-105104761D01*
X84428571Y-105009523D01*
X84380952Y-104819047D01*
X84380952Y-104485714D01*
X84428571Y-104295238D01*
X84523809Y-104200000D01*
X84619047Y-104152380D01*
X85238095Y-105247619D02*
X86000000Y-105247619D01*
X86571428Y-104628571D02*
X86714285Y-104676190D01*
X86761904Y-104723809D01*
X86809523Y-104819047D01*
X86809523Y-104961904D01*
X86761904Y-105057142D01*
X86714285Y-105104761D01*
X86619047Y-105152380D01*
X86238095Y-105152380D01*
X86238095Y-104152380D01*
X86571428Y-104152380D01*
X86666666Y-104200000D01*
X86714285Y-104247619D01*
X86761904Y-104342857D01*
X86761904Y-104438095D01*
X86714285Y-104533333D01*
X86666666Y-104580952D01*
X86571428Y-104628571D01*
X86238095Y-104628571D01*
X87238095Y-104152380D02*
X87238095Y-104961904D01*
X87285714Y-105057142D01*
X87333333Y-105104761D01*
X87428571Y-105152380D01*
X87619047Y-105152380D01*
X87714285Y-105104761D01*
X87761904Y-105057142D01*
X87809523Y-104961904D01*
X87809523Y-104152380D01*
X88619047Y-104628571D02*
X88285714Y-104628571D01*
X88285714Y-105152380D02*
X88285714Y-104152380D01*
X88761904Y-104152380D01*
X89476190Y-104628571D02*
X89142857Y-104628571D01*
X89142857Y-105152380D02*
X89142857Y-104152380D01*
X89619047Y-104152380D01*
X145459404Y-99600000D02*
X145364166Y-99552380D01*
X145221309Y-99552380D01*
X145078452Y-99600000D01*
X144983214Y-99695238D01*
X144935595Y-99790476D01*
X144887976Y-99980952D01*
X144887976Y-100123809D01*
X144935595Y-100314285D01*
X144983214Y-100409523D01*
X145078452Y-100504761D01*
X145221309Y-100552380D01*
X145316547Y-100552380D01*
X145459404Y-100504761D01*
X145507023Y-100457142D01*
X145507023Y-100123809D01*
X145316547Y-100123809D01*
X145935595Y-100552380D02*
X145935595Y-99552380D01*
X146316547Y-99552380D01*
X146411785Y-99600000D01*
X146459404Y-99647619D01*
X146507023Y-99742857D01*
X146507023Y-99885714D01*
X146459404Y-99980952D01*
X146411785Y-100028571D01*
X146316547Y-100076190D01*
X145935595Y-100076190D01*
X146935595Y-100552380D02*
X146935595Y-99552380D01*
X147602261Y-99552380D02*
X147792738Y-99552380D01*
X147887976Y-99600000D01*
X147983214Y-99695238D01*
X148030833Y-99885714D01*
X148030833Y-100219047D01*
X147983214Y-100409523D01*
X147887976Y-100504761D01*
X147792738Y-100552380D01*
X147602261Y-100552380D01*
X147507023Y-100504761D01*
X147411785Y-100409523D01*
X147364166Y-100219047D01*
X147364166Y-99885714D01*
X147411785Y-99695238D01*
X147507023Y-99600000D01*
X147602261Y-99552380D01*
X148649880Y-99552380D02*
X148745119Y-99552380D01*
X148840357Y-99600000D01*
X148887976Y-99647619D01*
X148935595Y-99742857D01*
X148983214Y-99933333D01*
X148983214Y-100171428D01*
X148935595Y-100361904D01*
X148887976Y-100457142D01*
X148840357Y-100504761D01*
X148745119Y-100552380D01*
X148649880Y-100552380D01*
X148554642Y-100504761D01*
X148507023Y-100457142D01*
X148459404Y-100361904D01*
X148411785Y-100171428D01*
X148411785Y-99933333D01*
X148459404Y-99742857D01*
X148507023Y-99647619D01*
X148554642Y-99600000D01*
X148649880Y-99552380D01*
X145371428Y-113228571D02*
X145514285Y-113276190D01*
X145561904Y-113323809D01*
X145609523Y-113419047D01*
X145609523Y-113561904D01*
X145561904Y-113657142D01*
X145514285Y-113704761D01*
X145419047Y-113752380D01*
X145038095Y-113752380D01*
X145038095Y-112752380D01*
X145371428Y-112752380D01*
X145466666Y-112800000D01*
X145514285Y-112847619D01*
X145561904Y-112942857D01*
X145561904Y-113038095D01*
X145514285Y-113133333D01*
X145466666Y-113180952D01*
X145371428Y-113228571D01*
X145038095Y-113228571D01*
X146609523Y-113657142D02*
X146561904Y-113704761D01*
X146419047Y-113752380D01*
X146323809Y-113752380D01*
X146180952Y-113704761D01*
X146085714Y-113609523D01*
X146038095Y-113514285D01*
X145990476Y-113323809D01*
X145990476Y-113180952D01*
X146038095Y-112990476D01*
X146085714Y-112895238D01*
X146180952Y-112800000D01*
X146323809Y-112752380D01*
X146419047Y-112752380D01*
X146561904Y-112800000D01*
X146609523Y-112847619D01*
X147038095Y-113752380D02*
X147038095Y-112752380D01*
X147609523Y-113752380D02*
X147180952Y-113180952D01*
X147609523Y-112752380D02*
X147038095Y-113323809D01*
X71414285Y-97152380D02*
X71747619Y-98152380D01*
X72080952Y-97152380D01*
X72747619Y-97628571D02*
X72890476Y-97676190D01*
X72938095Y-97723809D01*
X72985714Y-97819047D01*
X72985714Y-97961904D01*
X72938095Y-98057142D01*
X72890476Y-98104761D01*
X72795238Y-98152380D01*
X72414285Y-98152380D01*
X72414285Y-97152380D01*
X72747619Y-97152380D01*
X72842857Y-97200000D01*
X72890476Y-97247619D01*
X72938095Y-97342857D01*
X72938095Y-97438095D01*
X72890476Y-97533333D01*
X72842857Y-97580952D01*
X72747619Y-97628571D01*
X72414285Y-97628571D01*
X73414285Y-97152380D02*
X73414285Y-97961904D01*
X73461904Y-98057142D01*
X73509523Y-98104761D01*
X73604761Y-98152380D01*
X73795238Y-98152380D01*
X73890476Y-98104761D01*
X73938095Y-98057142D01*
X73985714Y-97961904D01*
X73985714Y-97152380D01*
X74414285Y-98104761D02*
X74557142Y-98152380D01*
X74795238Y-98152380D01*
X74890476Y-98104761D01*
X74938095Y-98057142D01*
X74985714Y-97961904D01*
X74985714Y-97866666D01*
X74938095Y-97771428D01*
X74890476Y-97723809D01*
X74795238Y-97676190D01*
X74604761Y-97628571D01*
X74509523Y-97580952D01*
X74461904Y-97533333D01*
X74414285Y-97438095D01*
X74414285Y-97342857D01*
X74461904Y-97247619D01*
X74509523Y-97200000D01*
X74604761Y-97152380D01*
X74842857Y-97152380D01*
X74985714Y-97200000D01*
X75176190Y-98247619D02*
X75938095Y-98247619D01*
X76176190Y-98152380D02*
X76176190Y-97152380D01*
X76557142Y-97152380D01*
X76652380Y-97200000D01*
X76700000Y-97247619D01*
X76747619Y-97342857D01*
X76747619Y-97485714D01*
X76700000Y-97580952D01*
X76652380Y-97628571D01*
X76557142Y-97676190D01*
X76176190Y-97676190D01*
X77080952Y-97152380D02*
X77319047Y-98152380D01*
X77509523Y-97438095D01*
X77700000Y-98152380D01*
X77938095Y-97152380D01*
X78890476Y-98152380D02*
X78557142Y-97676190D01*
X78319047Y-98152380D02*
X78319047Y-97152380D01*
X78700000Y-97152380D01*
X78795238Y-97200000D01*
X78842857Y-97247619D01*
X78890476Y-97342857D01*
X78890476Y-97485714D01*
X78842857Y-97580952D01*
X78795238Y-97628571D01*
X78700000Y-97676190D01*
X78319047Y-97676190D01*
X93066666Y-93252380D02*
X93733333Y-94252380D01*
X93733333Y-93252380D02*
X93066666Y-94252380D01*
X94114285Y-94252380D02*
X94114285Y-93252380D01*
X94352380Y-94347619D02*
X95114285Y-94347619D01*
X95685714Y-93728571D02*
X95828571Y-93776190D01*
X95876190Y-93823809D01*
X95923809Y-93919047D01*
X95923809Y-94061904D01*
X95876190Y-94157142D01*
X95828571Y-94204761D01*
X95733333Y-94252380D01*
X95352380Y-94252380D01*
X95352380Y-93252380D01*
X95685714Y-93252380D01*
X95780952Y-93300000D01*
X95828571Y-93347619D01*
X95876190Y-93442857D01*
X95876190Y-93538095D01*
X95828571Y-93633333D01*
X95780952Y-93680952D01*
X95685714Y-93728571D01*
X95352380Y-93728571D01*
X96352380Y-93252380D02*
X96352380Y-94061904D01*
X96400000Y-94157142D01*
X96447619Y-94204761D01*
X96542857Y-94252380D01*
X96733333Y-94252380D01*
X96828571Y-94204761D01*
X96876190Y-94157142D01*
X96923809Y-94061904D01*
X96923809Y-93252380D01*
X97733333Y-93728571D02*
X97400000Y-93728571D01*
X97400000Y-94252380D02*
X97400000Y-93252380D01*
X97876190Y-93252380D01*
X98590476Y-93728571D02*
X98257142Y-93728571D01*
X98257142Y-94252380D02*
X98257142Y-93252380D01*
X98733333Y-93252380D01*
X137645357Y-93152380D02*
X137645357Y-92152380D01*
X137978690Y-92866666D01*
X138312023Y-92152380D01*
X138312023Y-93152380D01*
X138740595Y-93104761D02*
X138883452Y-93152380D01*
X139121547Y-93152380D01*
X139216785Y-93104761D01*
X139264404Y-93057142D01*
X139312023Y-92961904D01*
X139312023Y-92866666D01*
X139264404Y-92771428D01*
X139216785Y-92723809D01*
X139121547Y-92676190D01*
X138931071Y-92628571D01*
X138835833Y-92580952D01*
X138788214Y-92533333D01*
X138740595Y-92438095D01*
X138740595Y-92342857D01*
X138788214Y-92247619D01*
X138835833Y-92200000D01*
X138931071Y-92152380D01*
X139169166Y-92152380D01*
X139312023Y-92200000D01*
X152635714Y-117871428D02*
X152707142Y-117942857D01*
X152778571Y-118157142D01*
X152778571Y-118300000D01*
X152707142Y-118514285D01*
X152564285Y-118657142D01*
X152421428Y-118728571D01*
X152135714Y-118800000D01*
X151921428Y-118800000D01*
X151635714Y-118728571D01*
X151492857Y-118657142D01*
X151350000Y-118514285D01*
X151278571Y-118300000D01*
X151278571Y-118157142D01*
X151350000Y-117942857D01*
X151421428Y-117871428D01*
X152778571Y-117014285D02*
X152707142Y-117157142D01*
X152635714Y-117228571D01*
X152492857Y-117300000D01*
X152064285Y-117300000D01*
X151921428Y-117228571D01*
X151850000Y-117157142D01*
X151778571Y-117014285D01*
X151778571Y-116800000D01*
X151850000Y-116657142D01*
X151921428Y-116585714D01*
X152064285Y-116514285D01*
X152492857Y-116514285D01*
X152635714Y-116585714D01*
X152707142Y-116657142D01*
X152778571Y-116800000D01*
X152778571Y-117014285D01*
X151778571Y-115871428D02*
X152778571Y-115871428D01*
X151921428Y-115871428D02*
X151850000Y-115800000D01*
X151778571Y-115657142D01*
X151778571Y-115442857D01*
X151850000Y-115300000D01*
X151992857Y-115228571D01*
X152778571Y-115228571D01*
X151778571Y-114728571D02*
X151778571Y-114157142D01*
X151278571Y-114514285D02*
X152564285Y-114514285D01*
X152707142Y-114442857D01*
X152778571Y-114300000D01*
X152778571Y-114157142D01*
X152778571Y-113657142D02*
X151778571Y-113657142D01*
X152064285Y-113657142D02*
X151921428Y-113585714D01*
X151850000Y-113514285D01*
X151778571Y-113371428D01*
X151778571Y-113228571D01*
X152778571Y-112514285D02*
X152707142Y-112657142D01*
X152635714Y-112728571D01*
X152492857Y-112800000D01*
X152064285Y-112800000D01*
X151921428Y-112728571D01*
X151850000Y-112657142D01*
X151778571Y-112514285D01*
X151778571Y-112300000D01*
X151850000Y-112157142D01*
X151921428Y-112085714D01*
X152064285Y-112014285D01*
X152492857Y-112014285D01*
X152635714Y-112085714D01*
X152707142Y-112157142D01*
X152778571Y-112300000D01*
X152778571Y-112514285D01*
X152778571Y-111157142D02*
X152707142Y-111300000D01*
X152564285Y-111371428D01*
X151278571Y-111371428D01*
X152778571Y-110371428D02*
X152707142Y-110514285D01*
X152564285Y-110585714D01*
X151278571Y-110585714D01*
X152707142Y-109228571D02*
X152778571Y-109371428D01*
X152778571Y-109657142D01*
X152707142Y-109800000D01*
X152564285Y-109871428D01*
X151992857Y-109871428D01*
X151850000Y-109800000D01*
X151778571Y-109657142D01*
X151778571Y-109371428D01*
X151850000Y-109228571D01*
X151992857Y-109157142D01*
X152135714Y-109157142D01*
X152278571Y-109871428D01*
X152778571Y-108514285D02*
X151778571Y-108514285D01*
X152064285Y-108514285D02*
X151921428Y-108442857D01*
X151850000Y-108371428D01*
X151778571Y-108228571D01*
X151778571Y-108085714D01*
X153350000Y-106014285D02*
X153278571Y-106085714D01*
X153064285Y-106228571D01*
X152921428Y-106300000D01*
X152707142Y-106371428D01*
X152350000Y-106442857D01*
X152064285Y-106442857D01*
X151707142Y-106371428D01*
X151492857Y-106300000D01*
X151350000Y-106228571D01*
X151135714Y-106085714D01*
X151064285Y-106014285D01*
X152778571Y-105442857D02*
X151278571Y-105442857D01*
X151278571Y-105085714D01*
X151350000Y-104871428D01*
X151492857Y-104728571D01*
X151635714Y-104657142D01*
X151921428Y-104585714D01*
X152135714Y-104585714D01*
X152421428Y-104657142D01*
X152564285Y-104728571D01*
X152707142Y-104871428D01*
X152778571Y-105085714D01*
X152778571Y-105442857D01*
X152778571Y-103942857D02*
X151778571Y-103942857D01*
X151278571Y-103942857D02*
X151350000Y-104014285D01*
X151421428Y-103942857D01*
X151350000Y-103871428D01*
X151278571Y-103942857D01*
X151421428Y-103942857D01*
X151778571Y-102585714D02*
X152992857Y-102585714D01*
X153135714Y-102657142D01*
X153207142Y-102728571D01*
X153278571Y-102871428D01*
X153278571Y-103085714D01*
X153207142Y-103228571D01*
X152707142Y-102585714D02*
X152778571Y-102728571D01*
X152778571Y-103014285D01*
X152707142Y-103157142D01*
X152635714Y-103228571D01*
X152492857Y-103300000D01*
X152064285Y-103300000D01*
X151921428Y-103228571D01*
X151850000Y-103157142D01*
X151778571Y-103014285D01*
X151778571Y-102728571D01*
X151850000Y-102585714D01*
X152778571Y-101871428D02*
X151778571Y-101871428D01*
X151278571Y-101871428D02*
X151350000Y-101942857D01*
X151421428Y-101871428D01*
X151350000Y-101800000D01*
X151278571Y-101871428D01*
X151421428Y-101871428D01*
X151778571Y-101371428D02*
X151778571Y-100800000D01*
X151278571Y-101157142D02*
X152564285Y-101157142D01*
X152707142Y-101085714D01*
X152778571Y-100942857D01*
X152778571Y-100800000D01*
X152778571Y-99657142D02*
X151992857Y-99657142D01*
X151850000Y-99728571D01*
X151778571Y-99871428D01*
X151778571Y-100157142D01*
X151850000Y-100300000D01*
X152707142Y-99657142D02*
X152778571Y-99800000D01*
X152778571Y-100157142D01*
X152707142Y-100300000D01*
X152564285Y-100371428D01*
X152421428Y-100371428D01*
X152278571Y-100300000D01*
X152207142Y-100157142D01*
X152207142Y-99800000D01*
X152135714Y-99657142D01*
X152778571Y-98728571D02*
X152707142Y-98871428D01*
X152564285Y-98942857D01*
X151278571Y-98942857D01*
X153350000Y-98300000D02*
X153278571Y-98228571D01*
X153064285Y-98085714D01*
X152921428Y-98014285D01*
X152707142Y-97942857D01*
X152350000Y-97871428D01*
X152064285Y-97871428D01*
X151707142Y-97942857D01*
X151492857Y-98014285D01*
X151350000Y-98085714D01*
X151135714Y-98228571D01*
X151064285Y-98300000D01*
X140704761Y-127709523D02*
X140752380Y-127566666D01*
X140752380Y-127328571D01*
X140704761Y-127233333D01*
X140657142Y-127185714D01*
X140561904Y-127138095D01*
X140466666Y-127138095D01*
X140371428Y-127185714D01*
X140323809Y-127233333D01*
X140276190Y-127328571D01*
X140228571Y-127519047D01*
X140180952Y-127614285D01*
X140133333Y-127661904D01*
X140038095Y-127709523D01*
X139942857Y-127709523D01*
X139847619Y-127661904D01*
X139800000Y-127614285D01*
X139752380Y-127519047D01*
X139752380Y-127280952D01*
X139800000Y-127138095D01*
X140657142Y-126138095D02*
X140704761Y-126185714D01*
X140752380Y-126328571D01*
X140752380Y-126423809D01*
X140704761Y-126566666D01*
X140609523Y-126661904D01*
X140514285Y-126709523D01*
X140323809Y-126757142D01*
X140180952Y-126757142D01*
X139990476Y-126709523D01*
X139895238Y-126661904D01*
X139800000Y-126566666D01*
X139752380Y-126423809D01*
X139752380Y-126328571D01*
X139800000Y-126185714D01*
X139847619Y-126138095D01*
X140752380Y-125709523D02*
X139752380Y-125709523D01*
X140752380Y-125138095D02*
X140180952Y-125566666D01*
X139752380Y-125138095D02*
X140323809Y-125709523D01*
X140752380Y-124709523D02*
X139752380Y-124709523D01*
X141133333Y-123947619D02*
X141085714Y-123995238D01*
X140942857Y-124090476D01*
X140847619Y-124138095D01*
X140704761Y-124185714D01*
X140466666Y-124233333D01*
X140276190Y-124233333D01*
X140038095Y-124185714D01*
X139895238Y-124138095D01*
X139800000Y-124090476D01*
X139657142Y-123995238D01*
X139609523Y-123947619D01*
X139752380Y-123661904D02*
X139752380Y-123042857D01*
X140133333Y-123376190D01*
X140133333Y-123233333D01*
X140180952Y-123138095D01*
X140228571Y-123090476D01*
X140323809Y-123042857D01*
X140561904Y-123042857D01*
X140657142Y-123090476D01*
X140704761Y-123138095D01*
X140752380Y-123233333D01*
X140752380Y-123519047D01*
X140704761Y-123614285D01*
X140657142Y-123661904D01*
X140657142Y-122614285D02*
X140704761Y-122566666D01*
X140752380Y-122614285D01*
X140704761Y-122661904D01*
X140657142Y-122614285D01*
X140752380Y-122614285D01*
X139752380Y-122233333D02*
X139752380Y-121614285D01*
X140133333Y-121947619D01*
X140133333Y-121804761D01*
X140180952Y-121709523D01*
X140228571Y-121661904D01*
X140323809Y-121614285D01*
X140561904Y-121614285D01*
X140657142Y-121661904D01*
X140704761Y-121709523D01*
X140752380Y-121804761D01*
X140752380Y-122090476D01*
X140704761Y-122185714D01*
X140657142Y-122233333D01*
X139752380Y-121328571D02*
X140752380Y-120995238D01*
X139752380Y-120661904D01*
X141133333Y-120423809D02*
X141085714Y-120376190D01*
X140942857Y-120280952D01*
X140847619Y-120233333D01*
X140704761Y-120185714D01*
X140466666Y-120138095D01*
X140276190Y-120138095D01*
X140038095Y-120185714D01*
X139895238Y-120233333D01*
X139800000Y-120280952D01*
X139657142Y-120376190D01*
X139609523Y-120423809D01*
X102738095Y-120047619D02*
X102785714Y-120000000D01*
X102880952Y-119952380D01*
X103119047Y-119952380D01*
X103214285Y-120000000D01*
X103261904Y-120047619D01*
X103309523Y-120142857D01*
X103309523Y-120238095D01*
X103261904Y-120380952D01*
X102690476Y-120952380D01*
X103309523Y-120952380D01*
X103690476Y-120047619D02*
X103738095Y-120000000D01*
X103833333Y-119952380D01*
X104071428Y-119952380D01*
X104166666Y-120000000D01*
X104214285Y-120047619D01*
X104261904Y-120142857D01*
X104261904Y-120238095D01*
X104214285Y-120380952D01*
X103642857Y-120952380D01*
X104261904Y-120952380D01*
X104690476Y-120952380D02*
X104690476Y-119952380D01*
X105023809Y-120666666D01*
X105357142Y-119952380D01*
X105357142Y-120952380D01*
X105833333Y-120952380D02*
X105833333Y-119952380D01*
X105833333Y-120428571D02*
X106404761Y-120428571D01*
X106404761Y-120952380D02*
X106404761Y-119952380D01*
X106785714Y-120285714D02*
X107309523Y-120285714D01*
X106785714Y-120952380D01*
X107309523Y-120952380D01*
X124152380Y-55876190D02*
X125152380Y-55542857D01*
X124152380Y-55209523D01*
X125152380Y-54876190D02*
X124152380Y-54876190D01*
X125152380Y-54400000D02*
X124152380Y-54400000D01*
X125152380Y-53828571D01*
X124152380Y-53828571D01*
X125152380Y-52876190D02*
X125152380Y-53352380D01*
X124152380Y-53352380D01*
X124247619Y-52590476D02*
X124200000Y-52542857D01*
X124152380Y-52447619D01*
X124152380Y-52209523D01*
X124200000Y-52114285D01*
X124247619Y-52066666D01*
X124342857Y-52019047D01*
X124438095Y-52019047D01*
X124580952Y-52066666D01*
X125152380Y-52638095D01*
X125152380Y-52019047D01*
X145459404Y-107400000D02*
X145364166Y-107352380D01*
X145221309Y-107352380D01*
X145078452Y-107400000D01*
X144983214Y-107495238D01*
X144935595Y-107590476D01*
X144887976Y-107780952D01*
X144887976Y-107923809D01*
X144935595Y-108114285D01*
X144983214Y-108209523D01*
X145078452Y-108304761D01*
X145221309Y-108352380D01*
X145316547Y-108352380D01*
X145459404Y-108304761D01*
X145507023Y-108257142D01*
X145507023Y-107923809D01*
X145316547Y-107923809D01*
X145935595Y-108352380D02*
X145935595Y-107352380D01*
X146316547Y-107352380D01*
X146411785Y-107400000D01*
X146459404Y-107447619D01*
X146507023Y-107542857D01*
X146507023Y-107685714D01*
X146459404Y-107780952D01*
X146411785Y-107828571D01*
X146316547Y-107876190D01*
X145935595Y-107876190D01*
X146935595Y-108352380D02*
X146935595Y-107352380D01*
X147602261Y-107352380D02*
X147792738Y-107352380D01*
X147887976Y-107400000D01*
X147983214Y-107495238D01*
X148030833Y-107685714D01*
X148030833Y-108019047D01*
X147983214Y-108209523D01*
X147887976Y-108304761D01*
X147792738Y-108352380D01*
X147602261Y-108352380D01*
X147507023Y-108304761D01*
X147411785Y-108209523D01*
X147364166Y-108019047D01*
X147364166Y-107685714D01*
X147411785Y-107495238D01*
X147507023Y-107400000D01*
X147602261Y-107352380D01*
X148364166Y-107352380D02*
X148983214Y-107352380D01*
X148649880Y-107733333D01*
X148792738Y-107733333D01*
X148887976Y-107780952D01*
X148935595Y-107828571D01*
X148983214Y-107923809D01*
X148983214Y-108161904D01*
X148935595Y-108257142D01*
X148887976Y-108304761D01*
X148792738Y-108352380D01*
X148507023Y-108352380D01*
X148411785Y-108304761D01*
X148364166Y-108257142D01*
X144935595Y-110952380D02*
X144935595Y-109952380D01*
X145173690Y-109952380D01*
X145316547Y-110000000D01*
X145411785Y-110095238D01*
X145459404Y-110190476D01*
X145507023Y-110380952D01*
X145507023Y-110523809D01*
X145459404Y-110714285D01*
X145411785Y-110809523D01*
X145316547Y-110904761D01*
X145173690Y-110952380D01*
X144935595Y-110952380D01*
X146126071Y-109952380D02*
X146316547Y-109952380D01*
X146411785Y-110000000D01*
X146507023Y-110095238D01*
X146554642Y-110285714D01*
X146554642Y-110619047D01*
X146507023Y-110809523D01*
X146411785Y-110904761D01*
X146316547Y-110952380D01*
X146126071Y-110952380D01*
X146030833Y-110904761D01*
X145935595Y-110809523D01*
X145887976Y-110619047D01*
X145887976Y-110285714D01*
X145935595Y-110095238D01*
X146030833Y-110000000D01*
X146126071Y-109952380D01*
X146983214Y-109952380D02*
X146983214Y-110761904D01*
X147030833Y-110857142D01*
X147078452Y-110904761D01*
X147173690Y-110952380D01*
X147364166Y-110952380D01*
X147459404Y-110904761D01*
X147507023Y-110857142D01*
X147554642Y-110761904D01*
X147554642Y-109952380D01*
X147887976Y-109952380D02*
X148459404Y-109952380D01*
X148173690Y-110952380D02*
X148173690Y-109952380D01*
X145459404Y-105000000D02*
X145364166Y-104952380D01*
X145221309Y-104952380D01*
X145078452Y-105000000D01*
X144983214Y-105095238D01*
X144935595Y-105190476D01*
X144887976Y-105380952D01*
X144887976Y-105523809D01*
X144935595Y-105714285D01*
X144983214Y-105809523D01*
X145078452Y-105904761D01*
X145221309Y-105952380D01*
X145316547Y-105952380D01*
X145459404Y-105904761D01*
X145507023Y-105857142D01*
X145507023Y-105523809D01*
X145316547Y-105523809D01*
X145935595Y-105952380D02*
X145935595Y-104952380D01*
X146316547Y-104952380D01*
X146411785Y-105000000D01*
X146459404Y-105047619D01*
X146507023Y-105142857D01*
X146507023Y-105285714D01*
X146459404Y-105380952D01*
X146411785Y-105428571D01*
X146316547Y-105476190D01*
X145935595Y-105476190D01*
X146935595Y-105952380D02*
X146935595Y-104952380D01*
X147602261Y-104952380D02*
X147792738Y-104952380D01*
X147887976Y-105000000D01*
X147983214Y-105095238D01*
X148030833Y-105285714D01*
X148030833Y-105619047D01*
X147983214Y-105809523D01*
X147887976Y-105904761D01*
X147792738Y-105952380D01*
X147602261Y-105952380D01*
X147507023Y-105904761D01*
X147411785Y-105809523D01*
X147364166Y-105619047D01*
X147364166Y-105285714D01*
X147411785Y-105095238D01*
X147507023Y-105000000D01*
X147602261Y-104952380D01*
X148411785Y-105047619D02*
X148459404Y-105000000D01*
X148554642Y-104952380D01*
X148792738Y-104952380D01*
X148887976Y-105000000D01*
X148935595Y-105047619D01*
X148983214Y-105142857D01*
X148983214Y-105238095D01*
X148935595Y-105380952D01*
X148364166Y-105952380D01*
X148983214Y-105952380D01*
X132852380Y-122185714D02*
X131852380Y-122185714D01*
X132852380Y-121614285D01*
X131852380Y-121614285D01*
X132757142Y-120566666D02*
X132804761Y-120614285D01*
X132852380Y-120757142D01*
X132852380Y-120852380D01*
X132804761Y-120995238D01*
X132709523Y-121090476D01*
X132614285Y-121138095D01*
X132423809Y-121185714D01*
X132280952Y-121185714D01*
X132090476Y-121138095D01*
X131995238Y-121090476D01*
X131900000Y-120995238D01*
X131852380Y-120852380D01*
X131852380Y-120757142D01*
X131900000Y-120614285D01*
X131947619Y-120566666D01*
X124061904Y-89952380D02*
X124061904Y-88952380D01*
X124442857Y-88952380D01*
X124538095Y-89000000D01*
X124585714Y-89047619D01*
X124633333Y-89142857D01*
X124633333Y-89285714D01*
X124585714Y-89380952D01*
X124538095Y-89428571D01*
X124442857Y-89476190D01*
X124061904Y-89476190D01*
X125633333Y-89857142D02*
X125585714Y-89904761D01*
X125442857Y-89952380D01*
X125347619Y-89952380D01*
X125204761Y-89904761D01*
X125109523Y-89809523D01*
X125061904Y-89714285D01*
X125014285Y-89523809D01*
X125014285Y-89380952D01*
X125061904Y-89190476D01*
X125109523Y-89095238D01*
X125204761Y-89000000D01*
X125347619Y-88952380D01*
X125442857Y-88952380D01*
X125585714Y-89000000D01*
X125633333Y-89047619D01*
X126061904Y-89952380D02*
X126061904Y-88952380D01*
X126395238Y-89666666D01*
X126728571Y-88952380D01*
X126728571Y-89952380D01*
X127728571Y-89952380D02*
X127157142Y-89952380D01*
X127442857Y-89952380D02*
X127442857Y-88952380D01*
X127347619Y-89095238D01*
X127252380Y-89190476D01*
X127157142Y-89238095D01*
X128300000Y-89380952D02*
X128204761Y-89333333D01*
X128157142Y-89285714D01*
X128109523Y-89190476D01*
X128109523Y-89142857D01*
X128157142Y-89047619D01*
X128204761Y-89000000D01*
X128300000Y-88952380D01*
X128490476Y-88952380D01*
X128585714Y-89000000D01*
X128633333Y-89047619D01*
X128680952Y-89142857D01*
X128680952Y-89190476D01*
X128633333Y-89285714D01*
X128585714Y-89333333D01*
X128490476Y-89380952D01*
X128300000Y-89380952D01*
X128204761Y-89428571D01*
X128157142Y-89476190D01*
X128109523Y-89571428D01*
X128109523Y-89761904D01*
X128157142Y-89857142D01*
X128204761Y-89904761D01*
X128300000Y-89952380D01*
X128490476Y-89952380D01*
X128585714Y-89904761D01*
X128633333Y-89857142D01*
X128680952Y-89761904D01*
X128680952Y-89571428D01*
X128633333Y-89476190D01*
X128585714Y-89428571D01*
X128490476Y-89380952D01*
X129538095Y-88952380D02*
X129347619Y-88952380D01*
X129252380Y-89000000D01*
X129204761Y-89047619D01*
X129109523Y-89190476D01*
X129061904Y-89380952D01*
X129061904Y-89761904D01*
X129109523Y-89857142D01*
X129157142Y-89904761D01*
X129252380Y-89952380D01*
X129442857Y-89952380D01*
X129538095Y-89904761D01*
X129585714Y-89857142D01*
X129633333Y-89761904D01*
X129633333Y-89523809D01*
X129585714Y-89428571D01*
X129538095Y-89380952D01*
X129442857Y-89333333D01*
X129252380Y-89333333D01*
X129157142Y-89380952D01*
X129109523Y-89428571D01*
X129061904Y-89523809D01*
X129966666Y-88952380D02*
X130585714Y-88952380D01*
X130252380Y-89333333D01*
X130395238Y-89333333D01*
X130490476Y-89380952D01*
X130538095Y-89428571D01*
X130585714Y-89523809D01*
X130585714Y-89761904D01*
X130538095Y-89857142D01*
X130490476Y-89904761D01*
X130395238Y-89952380D01*
X130109523Y-89952380D01*
X130014285Y-89904761D01*
X129966666Y-89857142D01*
X124252380Y-123071428D02*
X124252380Y-122880952D01*
X124300000Y-122785714D01*
X124395238Y-122690476D01*
X124585714Y-122642857D01*
X124919047Y-122642857D01*
X125109523Y-122690476D01*
X125204761Y-122785714D01*
X125252380Y-122880952D01*
X125252380Y-123071428D01*
X125204761Y-123166666D01*
X125109523Y-123261904D01*
X124919047Y-123309523D01*
X124585714Y-123309523D01*
X124395238Y-123261904D01*
X124300000Y-123166666D01*
X124252380Y-123071428D01*
X125204761Y-122261904D02*
X125252380Y-122119047D01*
X125252380Y-121880952D01*
X125204761Y-121785714D01*
X125157142Y-121738095D01*
X125061904Y-121690476D01*
X124966666Y-121690476D01*
X124871428Y-121738095D01*
X124823809Y-121785714D01*
X124776190Y-121880952D01*
X124728571Y-122071428D01*
X124680952Y-122166666D01*
X124633333Y-122214285D01*
X124538095Y-122261904D01*
X124442857Y-122261904D01*
X124347619Y-122214285D01*
X124300000Y-122166666D01*
X124252380Y-122071428D01*
X124252380Y-121833333D01*
X124300000Y-121690476D01*
X125157142Y-120690476D02*
X125204761Y-120738095D01*
X125252380Y-120880952D01*
X125252380Y-120976190D01*
X125204761Y-121119047D01*
X125109523Y-121214285D01*
X125014285Y-121261904D01*
X124823809Y-121309523D01*
X124680952Y-121309523D01*
X124490476Y-121261904D01*
X124395238Y-121214285D01*
X124300000Y-121119047D01*
X124252380Y-120976190D01*
X124252380Y-120880952D01*
X124300000Y-120738095D01*
X124347619Y-120690476D01*
X71466666Y-114252380D02*
X71800000Y-115252380D01*
X72133333Y-114252380D01*
X72800000Y-114728571D02*
X72942857Y-114776190D01*
X72990476Y-114823809D01*
X73038095Y-114919047D01*
X73038095Y-115061904D01*
X72990476Y-115157142D01*
X72942857Y-115204761D01*
X72847619Y-115252380D01*
X72466666Y-115252380D01*
X72466666Y-114252380D01*
X72800000Y-114252380D01*
X72895238Y-114300000D01*
X72942857Y-114347619D01*
X72990476Y-114442857D01*
X72990476Y-114538095D01*
X72942857Y-114633333D01*
X72895238Y-114680952D01*
X72800000Y-114728571D01*
X72466666Y-114728571D01*
X73466666Y-114252380D02*
X73466666Y-115061904D01*
X73514285Y-115157142D01*
X73561904Y-115204761D01*
X73657142Y-115252380D01*
X73847619Y-115252380D01*
X73942857Y-115204761D01*
X73990476Y-115157142D01*
X74038095Y-115061904D01*
X74038095Y-114252380D01*
X74466666Y-115204761D02*
X74609523Y-115252380D01*
X74847619Y-115252380D01*
X74942857Y-115204761D01*
X74990476Y-115157142D01*
X75038095Y-115061904D01*
X75038095Y-114966666D01*
X74990476Y-114871428D01*
X74942857Y-114823809D01*
X74847619Y-114776190D01*
X74657142Y-114728571D01*
X74561904Y-114680952D01*
X74514285Y-114633333D01*
X74466666Y-114538095D01*
X74466666Y-114442857D01*
X74514285Y-114347619D01*
X74561904Y-114300000D01*
X74657142Y-114252380D01*
X74895238Y-114252380D01*
X75038095Y-114300000D01*
X143352380Y-123090476D02*
X143352380Y-123566666D01*
X142352380Y-123566666D01*
X143352380Y-122185714D02*
X142876190Y-122519047D01*
X143352380Y-122757142D02*
X142352380Y-122757142D01*
X142352380Y-122376190D01*
X142400000Y-122280952D01*
X142447619Y-122233333D01*
X142542857Y-122185714D01*
X142685714Y-122185714D01*
X142780952Y-122233333D01*
X142828571Y-122280952D01*
X142876190Y-122376190D01*
X142876190Y-122757142D01*
X143257142Y-121185714D02*
X143304761Y-121233333D01*
X143352380Y-121376190D01*
X143352380Y-121471428D01*
X143304761Y-121614285D01*
X143209523Y-121709523D01*
X143114285Y-121757142D01*
X142923809Y-121804761D01*
X142780952Y-121804761D01*
X142590476Y-121757142D01*
X142495238Y-121709523D01*
X142400000Y-121614285D01*
X142352380Y-121471428D01*
X142352380Y-121376190D01*
X142400000Y-121233333D01*
X142447619Y-121185714D01*
X143352380Y-120757142D02*
X142352380Y-120757142D01*
X143352380Y-120185714D02*
X142780952Y-120614285D01*
X142352380Y-120185714D02*
X142923809Y-120757142D01*
X141952380Y-55676190D02*
X142952380Y-55342857D01*
X141952380Y-55009523D01*
X142952380Y-54676190D02*
X141952380Y-54676190D01*
X142952380Y-54200000D02*
X141952380Y-54200000D01*
X142952380Y-53628571D01*
X141952380Y-53628571D01*
X142952380Y-52676190D02*
X142952380Y-53152380D01*
X141952380Y-53152380D01*
X142285714Y-51914285D02*
X142952380Y-51914285D01*
X141904761Y-52152380D02*
X142619047Y-52390476D01*
X142619047Y-51771428D01*
X128828571Y-49678571D02*
X128828571Y-48178571D01*
X129542857Y-48678571D02*
X129542857Y-49678571D01*
X129542857Y-48821428D02*
X129614285Y-48750000D01*
X129757142Y-48678571D01*
X129971428Y-48678571D01*
X130114285Y-48750000D01*
X130185714Y-48892857D01*
X130185714Y-49678571D01*
X130900000Y-48678571D02*
X130900000Y-50178571D01*
X130900000Y-48750000D02*
X131042857Y-48678571D01*
X131328571Y-48678571D01*
X131471428Y-48750000D01*
X131542857Y-48821428D01*
X131614285Y-48964285D01*
X131614285Y-49392857D01*
X131542857Y-49535714D01*
X131471428Y-49607142D01*
X131328571Y-49678571D01*
X131042857Y-49678571D01*
X130900000Y-49607142D01*
X132900000Y-48678571D02*
X132900000Y-49678571D01*
X132257142Y-48678571D02*
X132257142Y-49464285D01*
X132328571Y-49607142D01*
X132471428Y-49678571D01*
X132685714Y-49678571D01*
X132828571Y-49607142D01*
X132900000Y-49535714D01*
X133400000Y-48678571D02*
X133971428Y-48678571D01*
X133614285Y-48178571D02*
X133614285Y-49464285D01*
X133685714Y-49607142D01*
X133828571Y-49678571D01*
X133971428Y-49678571D01*
X134400000Y-49607142D02*
X134542857Y-49678571D01*
X134828571Y-49678571D01*
X134971428Y-49607142D01*
X135042857Y-49464285D01*
X135042857Y-49392857D01*
X134971428Y-49250000D01*
X134828571Y-49178571D01*
X134614285Y-49178571D01*
X134471428Y-49107142D01*
X134400000Y-48964285D01*
X134400000Y-48892857D01*
X134471428Y-48750000D01*
X134614285Y-48678571D01*
X134828571Y-48678571D01*
X134971428Y-48750000D01*
X131752380Y-55971428D02*
X132752380Y-55638095D01*
X131752380Y-55304761D01*
X132752380Y-54971428D02*
X131752380Y-54971428D01*
X132752380Y-54495238D02*
X131752380Y-54495238D01*
X132752380Y-53923809D01*
X131752380Y-53923809D01*
X132752380Y-52876190D02*
X132276190Y-53209523D01*
X132752380Y-53447619D02*
X131752380Y-53447619D01*
X131752380Y-53066666D01*
X131800000Y-52971428D01*
X131847619Y-52923809D01*
X131942857Y-52876190D01*
X132085714Y-52876190D01*
X132180952Y-52923809D01*
X132228571Y-52971428D01*
X132276190Y-53066666D01*
X132276190Y-53447619D01*
X132752380Y-51923809D02*
X132752380Y-52495238D01*
X132752380Y-52209523D02*
X131752380Y-52209523D01*
X131895238Y-52304761D01*
X131990476Y-52400000D01*
X132038095Y-52495238D01*
X135452380Y-122214285D02*
X135452380Y-122690476D01*
X134452380Y-122690476D01*
X135452380Y-121880952D02*
X134452380Y-121880952D01*
X134452380Y-121642857D01*
X134500000Y-121500000D01*
X134595238Y-121404761D01*
X134690476Y-121357142D01*
X134880952Y-121309523D01*
X135023809Y-121309523D01*
X135214285Y-121357142D01*
X135309523Y-121404761D01*
X135404761Y-121500000D01*
X135452380Y-121642857D01*
X135452380Y-121880952D01*
X134452380Y-120690476D02*
X134452380Y-120500000D01*
X134500000Y-120404761D01*
X134595238Y-120309523D01*
X134785714Y-120261904D01*
X135119047Y-120261904D01*
X135309523Y-120309523D01*
X135404761Y-120404761D01*
X135452380Y-120500000D01*
X135452380Y-120690476D01*
X135404761Y-120785714D01*
X135309523Y-120880952D01*
X135119047Y-120928571D01*
X134785714Y-120928571D01*
X134595238Y-120880952D01*
X134500000Y-120785714D01*
X134452380Y-120690476D01*
X136852380Y-55976190D02*
X137852380Y-55642857D01*
X136852380Y-55309523D01*
X137852380Y-54976190D02*
X136852380Y-54976190D01*
X137852380Y-54500000D02*
X136852380Y-54500000D01*
X137852380Y-53928571D01*
X136852380Y-53928571D01*
X137852380Y-52976190D02*
X137852380Y-53452380D01*
X136852380Y-53452380D01*
X136852380Y-52738095D02*
X136852380Y-52119047D01*
X137233333Y-52452380D01*
X137233333Y-52309523D01*
X137280952Y-52214285D01*
X137328571Y-52166666D01*
X137423809Y-52119047D01*
X137661904Y-52119047D01*
X137757142Y-52166666D01*
X137804761Y-52214285D01*
X137852380Y-52309523D01*
X137852380Y-52595238D01*
X137804761Y-52690476D01*
X137757142Y-52738095D01*
X126652380Y-55971428D02*
X127652380Y-55638095D01*
X126652380Y-55304761D01*
X127652380Y-54971428D02*
X126652380Y-54971428D01*
X127652380Y-54495238D02*
X126652380Y-54495238D01*
X127652380Y-53923809D01*
X126652380Y-53923809D01*
X127652380Y-52876190D02*
X127176190Y-53209523D01*
X127652380Y-53447619D02*
X126652380Y-53447619D01*
X126652380Y-53066666D01*
X126700000Y-52971428D01*
X126747619Y-52923809D01*
X126842857Y-52876190D01*
X126985714Y-52876190D01*
X127080952Y-52923809D01*
X127128571Y-52971428D01*
X127176190Y-53066666D01*
X127176190Y-53447619D01*
X126747619Y-52495238D02*
X126700000Y-52447619D01*
X126652380Y-52352380D01*
X126652380Y-52114285D01*
X126700000Y-52019047D01*
X126747619Y-51971428D01*
X126842857Y-51923809D01*
X126938095Y-51923809D01*
X127080952Y-51971428D01*
X127652380Y-52542857D01*
X127652380Y-51923809D01*
X122752380Y-123890476D02*
X121752380Y-123890476D01*
X121752380Y-123652380D01*
X121800000Y-123509523D01*
X121895238Y-123414285D01*
X121990476Y-123366666D01*
X122180952Y-123319047D01*
X122323809Y-123319047D01*
X122514285Y-123366666D01*
X122609523Y-123414285D01*
X122704761Y-123509523D01*
X122752380Y-123652380D01*
X122752380Y-123890476D01*
X121752380Y-123033333D02*
X122752380Y-122700000D01*
X121752380Y-122366666D01*
X122752380Y-122033333D02*
X121752380Y-122033333D01*
X121752380Y-121795238D01*
X121800000Y-121652380D01*
X121895238Y-121557142D01*
X121990476Y-121509523D01*
X122180952Y-121461904D01*
X122323809Y-121461904D01*
X122514285Y-121509523D01*
X122609523Y-121557142D01*
X122704761Y-121652380D01*
X122752380Y-121795238D01*
X122752380Y-122033333D01*
X122752380Y-121033333D02*
X121752380Y-121033333D01*
X121752380Y-120795238D01*
X121800000Y-120652380D01*
X121895238Y-120557142D01*
X121990476Y-120509523D01*
X122180952Y-120461904D01*
X122323809Y-120461904D01*
X122514285Y-120509523D01*
X122609523Y-120557142D01*
X122704761Y-120652380D01*
X122752380Y-120795238D01*
X122752380Y-121033333D01*
X126852380Y-126471428D02*
X127852380Y-125804761D01*
X126852380Y-125804761D02*
X127852380Y-126471428D01*
X126852380Y-125233333D02*
X126852380Y-125138095D01*
X126900000Y-125042857D01*
X126947619Y-124995238D01*
X127042857Y-124947619D01*
X127233333Y-124900000D01*
X127471428Y-124900000D01*
X127661904Y-124947619D01*
X127757142Y-124995238D01*
X127804761Y-125042857D01*
X127852380Y-125138095D01*
X127852380Y-125233333D01*
X127804761Y-125328571D01*
X127757142Y-125376190D01*
X127661904Y-125423809D01*
X127471428Y-125471428D01*
X127233333Y-125471428D01*
X127042857Y-125423809D01*
X126947619Y-125376190D01*
X126900000Y-125328571D01*
X126852380Y-125233333D01*
X127947619Y-124709523D02*
X127947619Y-123947619D01*
X127328571Y-123376190D02*
X127376190Y-123233333D01*
X127423809Y-123185714D01*
X127519047Y-123138095D01*
X127661904Y-123138095D01*
X127757142Y-123185714D01*
X127804761Y-123233333D01*
X127852380Y-123328571D01*
X127852380Y-123709523D01*
X126852380Y-123709523D01*
X126852380Y-123376190D01*
X126900000Y-123280952D01*
X126947619Y-123233333D01*
X127042857Y-123185714D01*
X127138095Y-123185714D01*
X127233333Y-123233333D01*
X127280952Y-123280952D01*
X127328571Y-123376190D01*
X127328571Y-123709523D01*
X126852380Y-122709523D02*
X127661904Y-122709523D01*
X127757142Y-122661904D01*
X127804761Y-122614285D01*
X127852380Y-122519047D01*
X127852380Y-122328571D01*
X127804761Y-122233333D01*
X127757142Y-122185714D01*
X127661904Y-122138095D01*
X126852380Y-122138095D01*
X127328571Y-121328571D02*
X127328571Y-121661904D01*
X127852380Y-121661904D02*
X126852380Y-121661904D01*
X126852380Y-121185714D01*
X127328571Y-120471428D02*
X127328571Y-120804761D01*
X127852380Y-120804761D02*
X126852380Y-120804761D01*
X126852380Y-120328571D01*
X145459404Y-102400000D02*
X145364166Y-102352380D01*
X145221309Y-102352380D01*
X145078452Y-102400000D01*
X144983214Y-102495238D01*
X144935595Y-102590476D01*
X144887976Y-102780952D01*
X144887976Y-102923809D01*
X144935595Y-103114285D01*
X144983214Y-103209523D01*
X145078452Y-103304761D01*
X145221309Y-103352380D01*
X145316547Y-103352380D01*
X145459404Y-103304761D01*
X145507023Y-103257142D01*
X145507023Y-102923809D01*
X145316547Y-102923809D01*
X145935595Y-103352380D02*
X145935595Y-102352380D01*
X146316547Y-102352380D01*
X146411785Y-102400000D01*
X146459404Y-102447619D01*
X146507023Y-102542857D01*
X146507023Y-102685714D01*
X146459404Y-102780952D01*
X146411785Y-102828571D01*
X146316547Y-102876190D01*
X145935595Y-102876190D01*
X146935595Y-103352380D02*
X146935595Y-102352380D01*
X147602261Y-102352380D02*
X147792738Y-102352380D01*
X147887976Y-102400000D01*
X147983214Y-102495238D01*
X148030833Y-102685714D01*
X148030833Y-103019047D01*
X147983214Y-103209523D01*
X147887976Y-103304761D01*
X147792738Y-103352380D01*
X147602261Y-103352380D01*
X147507023Y-103304761D01*
X147411785Y-103209523D01*
X147364166Y-103019047D01*
X147364166Y-102685714D01*
X147411785Y-102495238D01*
X147507023Y-102400000D01*
X147602261Y-102352380D01*
X148983214Y-103352380D02*
X148411785Y-103352380D01*
X148697500Y-103352380D02*
X148697500Y-102352380D01*
X148602261Y-102495238D01*
X148507023Y-102590476D01*
X148411785Y-102638095D01*
X136421547Y-97952380D02*
X136421547Y-96952380D01*
X136754880Y-97666666D01*
X137088214Y-96952380D01*
X137088214Y-97952380D01*
X137754880Y-96952380D02*
X137945357Y-96952380D01*
X138040595Y-97000000D01*
X138135833Y-97095238D01*
X138183452Y-97285714D01*
X138183452Y-97619047D01*
X138135833Y-97809523D01*
X138040595Y-97904761D01*
X137945357Y-97952380D01*
X137754880Y-97952380D01*
X137659642Y-97904761D01*
X137564404Y-97809523D01*
X137516785Y-97619047D01*
X137516785Y-97285714D01*
X137564404Y-97095238D01*
X137659642Y-97000000D01*
X137754880Y-96952380D01*
X138564404Y-97904761D02*
X138707261Y-97952380D01*
X138945357Y-97952380D01*
X139040595Y-97904761D01*
X139088214Y-97857142D01*
X139135833Y-97761904D01*
X139135833Y-97666666D01*
X139088214Y-97571428D01*
X139040595Y-97523809D01*
X138945357Y-97476190D01*
X138754880Y-97428571D01*
X138659642Y-97380952D01*
X138612023Y-97333333D01*
X138564404Y-97238095D01*
X138564404Y-97142857D01*
X138612023Y-97047619D01*
X138659642Y-97000000D01*
X138754880Y-96952380D01*
X138992976Y-96952380D01*
X139135833Y-97000000D01*
X139564404Y-97952380D02*
X139564404Y-96952380D01*
D11*
X72021428Y-54163571D02*
X72021428Y-55377857D01*
X72092857Y-55520714D01*
X72164285Y-55592142D01*
X72307142Y-55663571D01*
X72592857Y-55663571D01*
X72735714Y-55592142D01*
X72807142Y-55520714D01*
X72878571Y-55377857D01*
X72878571Y-54163571D01*
X73592857Y-54663571D02*
X73592857Y-55663571D01*
X73592857Y-54806428D02*
X73664285Y-54735000D01*
X73807142Y-54663571D01*
X74021428Y-54663571D01*
X74164285Y-54735000D01*
X74235714Y-54877857D01*
X74235714Y-55663571D01*
X74950000Y-55663571D02*
X74950000Y-54663571D01*
X74950000Y-54163571D02*
X74878571Y-54235000D01*
X74950000Y-54306428D01*
X75021428Y-54235000D01*
X74950000Y-54163571D01*
X74950000Y-54306428D01*
X75521428Y-54663571D02*
X75878571Y-55663571D01*
X76235714Y-54663571D01*
X77378571Y-55592142D02*
X77235714Y-55663571D01*
X76950000Y-55663571D01*
X76807142Y-55592142D01*
X76735714Y-55449285D01*
X76735714Y-54877857D01*
X76807142Y-54735000D01*
X76950000Y-54663571D01*
X77235714Y-54663571D01*
X77378571Y-54735000D01*
X77450000Y-54877857D01*
X77450000Y-55020714D01*
X76735714Y-55163571D01*
X78092857Y-55663571D02*
X78092857Y-54663571D01*
X78092857Y-54949285D02*
X78164285Y-54806428D01*
X78235714Y-54735000D01*
X78378571Y-54663571D01*
X78521428Y-54663571D01*
X78950000Y-55592142D02*
X79092857Y-55663571D01*
X79378571Y-55663571D01*
X79521428Y-55592142D01*
X79592857Y-55449285D01*
X79592857Y-55377857D01*
X79521428Y-55235000D01*
X79378571Y-55163571D01*
X79164285Y-55163571D01*
X79021428Y-55092142D01*
X78950000Y-54949285D01*
X78950000Y-54877857D01*
X79021428Y-54735000D01*
X79164285Y-54663571D01*
X79378571Y-54663571D01*
X79521428Y-54735000D01*
X80235714Y-55663571D02*
X80235714Y-54663571D01*
X80235714Y-54163571D02*
X80164285Y-54235000D01*
X80235714Y-54306428D01*
X80307142Y-54235000D01*
X80235714Y-54163571D01*
X80235714Y-54306428D01*
X80735714Y-54663571D02*
X81307142Y-54663571D01*
X80950000Y-54163571D02*
X80950000Y-55449285D01*
X81021428Y-55592142D01*
X81164285Y-55663571D01*
X81307142Y-55663571D01*
X81664285Y-54663571D02*
X82021428Y-55663571D01*
X82378571Y-54663571D02*
X82021428Y-55663571D01*
X81878571Y-56020714D01*
X81807142Y-56092142D01*
X81664285Y-56163571D01*
X84307142Y-55663571D02*
X84164285Y-55592142D01*
X84092857Y-55520714D01*
X84021428Y-55377857D01*
X84021428Y-54949285D01*
X84092857Y-54806428D01*
X84164285Y-54735000D01*
X84307142Y-54663571D01*
X84521428Y-54663571D01*
X84664285Y-54735000D01*
X84735714Y-54806428D01*
X84807142Y-54949285D01*
X84807142Y-55377857D01*
X84735714Y-55520714D01*
X84664285Y-55592142D01*
X84521428Y-55663571D01*
X84307142Y-55663571D01*
X85235714Y-54663571D02*
X85807142Y-54663571D01*
X85450000Y-55663571D02*
X85450000Y-54377857D01*
X85521428Y-54235000D01*
X85664285Y-54163571D01*
X85807142Y-54163571D01*
X87307142Y-54163571D02*
X87664285Y-55663571D01*
X87950000Y-54592142D01*
X88235714Y-55663571D01*
X88592857Y-54163571D01*
X89807142Y-55663571D02*
X89807142Y-54877857D01*
X89735714Y-54735000D01*
X89592857Y-54663571D01*
X89307142Y-54663571D01*
X89164285Y-54735000D01*
X89807142Y-55592142D02*
X89664285Y-55663571D01*
X89307142Y-55663571D01*
X89164285Y-55592142D01*
X89092857Y-55449285D01*
X89092857Y-55306428D01*
X89164285Y-55163571D01*
X89307142Y-55092142D01*
X89664285Y-55092142D01*
X89807142Y-55020714D01*
X90450000Y-55592142D02*
X90592857Y-55663571D01*
X90878571Y-55663571D01*
X91021428Y-55592142D01*
X91092857Y-55449285D01*
X91092857Y-55377857D01*
X91021428Y-55235000D01*
X90878571Y-55163571D01*
X90664285Y-55163571D01*
X90521428Y-55092142D01*
X90450000Y-54949285D01*
X90450000Y-54877857D01*
X90521428Y-54735000D01*
X90664285Y-54663571D01*
X90878571Y-54663571D01*
X91021428Y-54735000D01*
X91735714Y-55663571D02*
X91735714Y-54163571D01*
X92378571Y-55663571D02*
X92378571Y-54877857D01*
X92307142Y-54735000D01*
X92164285Y-54663571D01*
X91950000Y-54663571D01*
X91807142Y-54735000D01*
X91735714Y-54806428D01*
X93092857Y-55663571D02*
X93092857Y-54663571D01*
X93092857Y-54163571D02*
X93021428Y-54235000D01*
X93092857Y-54306428D01*
X93164285Y-54235000D01*
X93092857Y-54163571D01*
X93092857Y-54306428D01*
X93807142Y-54663571D02*
X93807142Y-55663571D01*
X93807142Y-54806428D02*
X93878571Y-54735000D01*
X94021428Y-54663571D01*
X94235714Y-54663571D01*
X94378571Y-54735000D01*
X94450000Y-54877857D01*
X94450000Y-55663571D01*
X95807142Y-54663571D02*
X95807142Y-55877857D01*
X95735714Y-56020714D01*
X95664285Y-56092142D01*
X95521428Y-56163571D01*
X95307142Y-56163571D01*
X95164285Y-56092142D01*
X95807142Y-55592142D02*
X95664285Y-55663571D01*
X95378571Y-55663571D01*
X95235714Y-55592142D01*
X95164285Y-55520714D01*
X95092857Y-55377857D01*
X95092857Y-54949285D01*
X95164285Y-54806428D01*
X95235714Y-54735000D01*
X95378571Y-54663571D01*
X95664285Y-54663571D01*
X95807142Y-54735000D01*
X96307142Y-54663571D02*
X96878571Y-54663571D01*
X96521428Y-54163571D02*
X96521428Y-55449285D01*
X96592857Y-55592142D01*
X96735714Y-55663571D01*
X96878571Y-55663571D01*
X97592857Y-55663571D02*
X97450000Y-55592142D01*
X97378571Y-55520714D01*
X97307142Y-55377857D01*
X97307142Y-54949285D01*
X97378571Y-54806428D01*
X97450000Y-54735000D01*
X97592857Y-54663571D01*
X97807142Y-54663571D01*
X97950000Y-54735000D01*
X98021428Y-54806428D01*
X98092857Y-54949285D01*
X98092857Y-55377857D01*
X98021428Y-55520714D01*
X97950000Y-55592142D01*
X97807142Y-55663571D01*
X97592857Y-55663571D01*
X98735714Y-54663571D02*
X98735714Y-55663571D01*
X98735714Y-54806428D02*
X98807142Y-54735000D01*
X98950000Y-54663571D01*
X99164285Y-54663571D01*
X99307142Y-54735000D01*
X99378571Y-54877857D01*
X99378571Y-55663571D01*
X78914285Y-57292857D02*
X79414285Y-57292857D01*
X79628571Y-58078571D02*
X78914285Y-58078571D01*
X78914285Y-56578571D01*
X79628571Y-56578571D01*
X80271428Y-57078571D02*
X80271428Y-58078571D01*
X80271428Y-57221428D02*
X80342857Y-57150000D01*
X80485714Y-57078571D01*
X80700000Y-57078571D01*
X80842857Y-57150000D01*
X80914285Y-57292857D01*
X80914285Y-58078571D01*
X82271428Y-57078571D02*
X82271428Y-58292857D01*
X82200000Y-58435714D01*
X82128571Y-58507142D01*
X81985714Y-58578571D01*
X81771428Y-58578571D01*
X81628571Y-58507142D01*
X82271428Y-58007142D02*
X82128571Y-58078571D01*
X81842857Y-58078571D01*
X81700000Y-58007142D01*
X81628571Y-57935714D01*
X81557142Y-57792857D01*
X81557142Y-57364285D01*
X81628571Y-57221428D01*
X81700000Y-57150000D01*
X81842857Y-57078571D01*
X82128571Y-57078571D01*
X82271428Y-57150000D01*
X82985714Y-58078571D02*
X82985714Y-57078571D01*
X82985714Y-56578571D02*
X82914285Y-56650000D01*
X82985714Y-56721428D01*
X83057142Y-56650000D01*
X82985714Y-56578571D01*
X82985714Y-56721428D01*
X83700000Y-57078571D02*
X83700000Y-58078571D01*
X83700000Y-57221428D02*
X83771428Y-57150000D01*
X83914285Y-57078571D01*
X84128571Y-57078571D01*
X84271428Y-57150000D01*
X84342857Y-57292857D01*
X84342857Y-58078571D01*
X85628571Y-58007142D02*
X85485714Y-58078571D01*
X85200000Y-58078571D01*
X85057142Y-58007142D01*
X84985714Y-57864285D01*
X84985714Y-57292857D01*
X85057142Y-57150000D01*
X85200000Y-57078571D01*
X85485714Y-57078571D01*
X85628571Y-57150000D01*
X85700000Y-57292857D01*
X85700000Y-57435714D01*
X84985714Y-57578571D01*
X87414285Y-56721428D02*
X87485714Y-56650000D01*
X87628571Y-56578571D01*
X87985714Y-56578571D01*
X88128571Y-56650000D01*
X88200000Y-56721428D01*
X88271428Y-56864285D01*
X88271428Y-57007142D01*
X88200000Y-57221428D01*
X87342857Y-58078571D01*
X88271428Y-58078571D01*
X89200000Y-56578571D02*
X89342857Y-56578571D01*
X89485714Y-56650000D01*
X89557142Y-56721428D01*
X89628571Y-56864285D01*
X89700000Y-57150000D01*
X89700000Y-57507142D01*
X89628571Y-57792857D01*
X89557142Y-57935714D01*
X89485714Y-58007142D01*
X89342857Y-58078571D01*
X89200000Y-58078571D01*
X89057142Y-58007142D01*
X88985714Y-57935714D01*
X88914285Y-57792857D01*
X88842857Y-57507142D01*
X88842857Y-57150000D01*
X88914285Y-56864285D01*
X88985714Y-56721428D01*
X89057142Y-56650000D01*
X89200000Y-56578571D01*
X90271428Y-56721428D02*
X90342857Y-56650000D01*
X90485714Y-56578571D01*
X90842857Y-56578571D01*
X90985714Y-56650000D01*
X91057142Y-56721428D01*
X91128571Y-56864285D01*
X91128571Y-57007142D01*
X91057142Y-57221428D01*
X90200000Y-58078571D01*
X91128571Y-58078571D01*
X91628571Y-56578571D02*
X92557142Y-56578571D01*
X92057142Y-57150000D01*
X92271428Y-57150000D01*
X92414285Y-57221428D01*
X92485714Y-57292857D01*
X92557142Y-57435714D01*
X92557142Y-57792857D01*
X92485714Y-57935714D01*
X92414285Y-58007142D01*
X92271428Y-58078571D01*
X91842857Y-58078571D01*
X91700000Y-58007142D01*
X91628571Y-57935714D01*
X80200000Y-60350714D02*
X80128571Y-60422142D01*
X79914285Y-60493571D01*
X79771428Y-60493571D01*
X79557142Y-60422142D01*
X79414285Y-60279285D01*
X79342857Y-60136428D01*
X79271428Y-59850714D01*
X79271428Y-59636428D01*
X79342857Y-59350714D01*
X79414285Y-59207857D01*
X79557142Y-59065000D01*
X79771428Y-58993571D01*
X79914285Y-58993571D01*
X80128571Y-59065000D01*
X80200000Y-59136428D01*
X80842857Y-60493571D02*
X80842857Y-58993571D01*
X81485714Y-60493571D02*
X81485714Y-59707857D01*
X81414285Y-59565000D01*
X81271428Y-59493571D01*
X81057142Y-59493571D01*
X80914285Y-59565000D01*
X80842857Y-59636428D01*
X82842857Y-60493571D02*
X82842857Y-59707857D01*
X82771428Y-59565000D01*
X82628571Y-59493571D01*
X82342857Y-59493571D01*
X82200000Y-59565000D01*
X82842857Y-60422142D02*
X82700000Y-60493571D01*
X82342857Y-60493571D01*
X82200000Y-60422142D01*
X82128571Y-60279285D01*
X82128571Y-60136428D01*
X82200000Y-59993571D01*
X82342857Y-59922142D01*
X82700000Y-59922142D01*
X82842857Y-59850714D01*
X83557142Y-60493571D02*
X83557142Y-59493571D01*
X83557142Y-59636428D02*
X83628571Y-59565000D01*
X83771428Y-59493571D01*
X83985714Y-59493571D01*
X84128571Y-59565000D01*
X84200000Y-59707857D01*
X84200000Y-60493571D01*
X84200000Y-59707857D02*
X84271428Y-59565000D01*
X84414285Y-59493571D01*
X84628571Y-59493571D01*
X84771428Y-59565000D01*
X84842857Y-59707857D01*
X84842857Y-60493571D01*
X86128571Y-60422142D02*
X85985714Y-60493571D01*
X85700000Y-60493571D01*
X85557142Y-60422142D01*
X85485714Y-60279285D01*
X85485714Y-59707857D01*
X85557142Y-59565000D01*
X85700000Y-59493571D01*
X85985714Y-59493571D01*
X86128571Y-59565000D01*
X86200000Y-59707857D01*
X86200000Y-59850714D01*
X85485714Y-59993571D01*
X87057142Y-60493571D02*
X86914285Y-60422142D01*
X86842857Y-60279285D01*
X86842857Y-58993571D01*
X88200000Y-60422142D02*
X88057142Y-60493571D01*
X87771428Y-60493571D01*
X87628571Y-60422142D01*
X87557142Y-60279285D01*
X87557142Y-59707857D01*
X87628571Y-59565000D01*
X87771428Y-59493571D01*
X88057142Y-59493571D01*
X88200000Y-59565000D01*
X88271428Y-59707857D01*
X88271428Y-59850714D01*
X87557142Y-59993571D01*
X89128571Y-60493571D02*
X88985714Y-60422142D01*
X88914285Y-60350714D01*
X88842857Y-60207857D01*
X88842857Y-59779285D01*
X88914285Y-59636428D01*
X88985714Y-59565000D01*
X89128571Y-59493571D01*
X89342857Y-59493571D01*
X89485714Y-59565000D01*
X89557142Y-59636428D01*
X89628571Y-59779285D01*
X89628571Y-60207857D01*
X89557142Y-60350714D01*
X89485714Y-60422142D01*
X89342857Y-60493571D01*
X89128571Y-60493571D01*
X90271428Y-59493571D02*
X90271428Y-60493571D01*
X90271428Y-59636428D02*
X90342857Y-59565000D01*
X90485714Y-59493571D01*
X90700000Y-59493571D01*
X90842857Y-59565000D01*
X90914285Y-59707857D01*
X90914285Y-60493571D01*
D10*
X122166666Y-55566666D02*
X122166666Y-55090476D01*
X122452380Y-55661904D02*
X121452380Y-55328571D01*
X122452380Y-54995238D01*
X121452380Y-54804761D02*
X122452380Y-54471428D01*
X121452380Y-54138095D01*
X122452380Y-53804761D02*
X121452380Y-53804761D01*
X121452380Y-53566666D01*
X121500000Y-53423809D01*
X121595238Y-53328571D01*
X121690476Y-53280952D01*
X121880952Y-53233333D01*
X122023809Y-53233333D01*
X122214285Y-53280952D01*
X122309523Y-53328571D01*
X122404761Y-53423809D01*
X122452380Y-53566666D01*
X122452380Y-53804761D01*
X122452380Y-52804761D02*
X121452380Y-52804761D01*
X121452380Y-52566666D01*
X121500000Y-52423809D01*
X121595238Y-52328571D01*
X121690476Y-52280952D01*
X121880952Y-52233333D01*
X122023809Y-52233333D01*
X122214285Y-52280952D01*
X122309523Y-52328571D01*
X122404761Y-52423809D01*
X122452380Y-52566666D01*
X122452380Y-52804761D01*
X130252380Y-122185714D02*
X129252380Y-122185714D01*
X130252380Y-121614285D01*
X129252380Y-121614285D01*
X130157142Y-120566666D02*
X130204761Y-120614285D01*
X130252380Y-120757142D01*
X130252380Y-120852380D01*
X130204761Y-120995238D01*
X130109523Y-121090476D01*
X130014285Y-121138095D01*
X129823809Y-121185714D01*
X129680952Y-121185714D01*
X129490476Y-121138095D01*
X129395238Y-121090476D01*
X129300000Y-120995238D01*
X129252380Y-120852380D01*
X129252380Y-120757142D01*
X129300000Y-120614285D01*
X129347619Y-120566666D01*
G04 #@! TO.C,C28*
X97757142Y-108157142D02*
X97709523Y-108204761D01*
X97566666Y-108252380D01*
X97471428Y-108252380D01*
X97328571Y-108204761D01*
X97233333Y-108109523D01*
X97185714Y-108014285D01*
X97138095Y-107823809D01*
X97138095Y-107680952D01*
X97185714Y-107490476D01*
X97233333Y-107395238D01*
X97328571Y-107300000D01*
X97471428Y-107252380D01*
X97566666Y-107252380D01*
X97709523Y-107300000D01*
X97757142Y-107347619D01*
X98138095Y-107347619D02*
X98185714Y-107300000D01*
X98280952Y-107252380D01*
X98519047Y-107252380D01*
X98614285Y-107300000D01*
X98661904Y-107347619D01*
X98709523Y-107442857D01*
X98709523Y-107538095D01*
X98661904Y-107680952D01*
X98090476Y-108252380D01*
X98709523Y-108252380D01*
X99280952Y-107680952D02*
X99185714Y-107633333D01*
X99138095Y-107585714D01*
X99090476Y-107490476D01*
X99090476Y-107442857D01*
X99138095Y-107347619D01*
X99185714Y-107300000D01*
X99280952Y-107252380D01*
X99471428Y-107252380D01*
X99566666Y-107300000D01*
X99614285Y-107347619D01*
X99661904Y-107442857D01*
X99661904Y-107490476D01*
X99614285Y-107585714D01*
X99566666Y-107633333D01*
X99471428Y-107680952D01*
X99280952Y-107680952D01*
X99185714Y-107728571D01*
X99138095Y-107776190D01*
X99090476Y-107871428D01*
X99090476Y-108061904D01*
X99138095Y-108157142D01*
X99185714Y-108204761D01*
X99280952Y-108252380D01*
X99471428Y-108252380D01*
X99566666Y-108204761D01*
X99614285Y-108157142D01*
X99661904Y-108061904D01*
X99661904Y-107871428D01*
X99614285Y-107776190D01*
X99566666Y-107728571D01*
X99471428Y-107680952D01*
G04 #@! TO.C,R2*
X87070833Y-120252380D02*
X86737500Y-119776190D01*
X86499404Y-120252380D02*
X86499404Y-119252380D01*
X86880357Y-119252380D01*
X86975595Y-119300000D01*
X87023214Y-119347619D01*
X87070833Y-119442857D01*
X87070833Y-119585714D01*
X87023214Y-119680952D01*
X86975595Y-119728571D01*
X86880357Y-119776190D01*
X86499404Y-119776190D01*
X87451785Y-119347619D02*
X87499404Y-119300000D01*
X87594642Y-119252380D01*
X87832738Y-119252380D01*
X87927976Y-119300000D01*
X87975595Y-119347619D01*
X88023214Y-119442857D01*
X88023214Y-119538095D01*
X87975595Y-119680952D01*
X87404166Y-120252380D01*
X88023214Y-120252380D01*
G04 #@! TO.C,C29*
X97257142Y-99542857D02*
X97304761Y-99590476D01*
X97352380Y-99733333D01*
X97352380Y-99828571D01*
X97304761Y-99971428D01*
X97209523Y-100066666D01*
X97114285Y-100114285D01*
X96923809Y-100161904D01*
X96780952Y-100161904D01*
X96590476Y-100114285D01*
X96495238Y-100066666D01*
X96400000Y-99971428D01*
X96352380Y-99828571D01*
X96352380Y-99733333D01*
X96400000Y-99590476D01*
X96447619Y-99542857D01*
X96447619Y-99161904D02*
X96400000Y-99114285D01*
X96352380Y-99019047D01*
X96352380Y-98780952D01*
X96400000Y-98685714D01*
X96447619Y-98638095D01*
X96542857Y-98590476D01*
X96638095Y-98590476D01*
X96780952Y-98638095D01*
X97352380Y-99209523D01*
X97352380Y-98590476D01*
X97352380Y-98114285D02*
X97352380Y-97923809D01*
X97304761Y-97828571D01*
X97257142Y-97780952D01*
X97114285Y-97685714D01*
X96923809Y-97638095D01*
X96542857Y-97638095D01*
X96447619Y-97685714D01*
X96400000Y-97733333D01*
X96352380Y-97828571D01*
X96352380Y-98019047D01*
X96400000Y-98114285D01*
X96447619Y-98161904D01*
X96542857Y-98209523D01*
X96780952Y-98209523D01*
X96876190Y-98161904D01*
X96923809Y-98114285D01*
X96971428Y-98019047D01*
X96971428Y-97828571D01*
X96923809Y-97733333D01*
X96876190Y-97685714D01*
X96780952Y-97638095D01*
G04 #@! TO.C,JP9*
X120266666Y-73752380D02*
X120266666Y-74466666D01*
X120219047Y-74609523D01*
X120123809Y-74704761D01*
X119980952Y-74752380D01*
X119885714Y-74752380D01*
X120742857Y-74752380D02*
X120742857Y-73752380D01*
X121123809Y-73752380D01*
X121219047Y-73800000D01*
X121266666Y-73847619D01*
X121314285Y-73942857D01*
X121314285Y-74085714D01*
X121266666Y-74180952D01*
X121219047Y-74228571D01*
X121123809Y-74276190D01*
X120742857Y-74276190D01*
X121790476Y-74752380D02*
X121980952Y-74752380D01*
X122076190Y-74704761D01*
X122123809Y-74657142D01*
X122219047Y-74514285D01*
X122266666Y-74323809D01*
X122266666Y-73942857D01*
X122219047Y-73847619D01*
X122171428Y-73800000D01*
X122076190Y-73752380D01*
X121885714Y-73752380D01*
X121790476Y-73800000D01*
X121742857Y-73847619D01*
X121695238Y-73942857D01*
X121695238Y-74180952D01*
X121742857Y-74276190D01*
X121790476Y-74323809D01*
X121885714Y-74371428D01*
X122076190Y-74371428D01*
X122171428Y-74323809D01*
X122219047Y-74276190D01*
X122266666Y-74180952D01*
G04 #@! TO.C,R4*
X73733333Y-100152380D02*
X73400000Y-99676190D01*
X73161904Y-100152380D02*
X73161904Y-99152380D01*
X73542857Y-99152380D01*
X73638095Y-99200000D01*
X73685714Y-99247619D01*
X73733333Y-99342857D01*
X73733333Y-99485714D01*
X73685714Y-99580952D01*
X73638095Y-99628571D01*
X73542857Y-99676190D01*
X73161904Y-99676190D01*
X74590476Y-99485714D02*
X74590476Y-100152380D01*
X74352380Y-99104761D02*
X74114285Y-99819047D01*
X74733333Y-99819047D01*
G04 #@! TO.C,R21*
X142857142Y-65552380D02*
X142523809Y-65076190D01*
X142285714Y-65552380D02*
X142285714Y-64552380D01*
X142666666Y-64552380D01*
X142761904Y-64600000D01*
X142809523Y-64647619D01*
X142857142Y-64742857D01*
X142857142Y-64885714D01*
X142809523Y-64980952D01*
X142761904Y-65028571D01*
X142666666Y-65076190D01*
X142285714Y-65076190D01*
X143238095Y-64647619D02*
X143285714Y-64600000D01*
X143380952Y-64552380D01*
X143619047Y-64552380D01*
X143714285Y-64600000D01*
X143761904Y-64647619D01*
X143809523Y-64742857D01*
X143809523Y-64838095D01*
X143761904Y-64980952D01*
X143190476Y-65552380D01*
X143809523Y-65552380D01*
X144761904Y-65552380D02*
X144190476Y-65552380D01*
X144476190Y-65552380D02*
X144476190Y-64552380D01*
X144380952Y-64695238D01*
X144285714Y-64790476D01*
X144190476Y-64838095D01*
G04 #@! TO.C,C4*
X85957142Y-112166666D02*
X86004761Y-112214285D01*
X86052380Y-112357142D01*
X86052380Y-112452380D01*
X86004761Y-112595238D01*
X85909523Y-112690476D01*
X85814285Y-112738095D01*
X85623809Y-112785714D01*
X85480952Y-112785714D01*
X85290476Y-112738095D01*
X85195238Y-112690476D01*
X85100000Y-112595238D01*
X85052380Y-112452380D01*
X85052380Y-112357142D01*
X85100000Y-112214285D01*
X85147619Y-112166666D01*
X85385714Y-111309523D02*
X86052380Y-111309523D01*
X85004761Y-111547619D02*
X85719047Y-111785714D01*
X85719047Y-111166666D01*
G04 #@! TO.C,R22*
X135557142Y-65752380D02*
X135223809Y-65276190D01*
X134985714Y-65752380D02*
X134985714Y-64752380D01*
X135366666Y-64752380D01*
X135461904Y-64800000D01*
X135509523Y-64847619D01*
X135557142Y-64942857D01*
X135557142Y-65085714D01*
X135509523Y-65180952D01*
X135461904Y-65228571D01*
X135366666Y-65276190D01*
X134985714Y-65276190D01*
X135938095Y-64847619D02*
X135985714Y-64800000D01*
X136080952Y-64752380D01*
X136319047Y-64752380D01*
X136414285Y-64800000D01*
X136461904Y-64847619D01*
X136509523Y-64942857D01*
X136509523Y-65038095D01*
X136461904Y-65180952D01*
X135890476Y-65752380D01*
X136509523Y-65752380D01*
X136890476Y-64847619D02*
X136938095Y-64800000D01*
X137033333Y-64752380D01*
X137271428Y-64752380D01*
X137366666Y-64800000D01*
X137414285Y-64847619D01*
X137461904Y-64942857D01*
X137461904Y-65038095D01*
X137414285Y-65180952D01*
X136842857Y-65752380D01*
X137461904Y-65752380D01*
G04 #@! TO.C,C24*
X116757142Y-90342857D02*
X116804761Y-90390476D01*
X116852380Y-90533333D01*
X116852380Y-90628571D01*
X116804761Y-90771428D01*
X116709523Y-90866666D01*
X116614285Y-90914285D01*
X116423809Y-90961904D01*
X116280952Y-90961904D01*
X116090476Y-90914285D01*
X115995238Y-90866666D01*
X115900000Y-90771428D01*
X115852380Y-90628571D01*
X115852380Y-90533333D01*
X115900000Y-90390476D01*
X115947619Y-90342857D01*
X115947619Y-89961904D02*
X115900000Y-89914285D01*
X115852380Y-89819047D01*
X115852380Y-89580952D01*
X115900000Y-89485714D01*
X115947619Y-89438095D01*
X116042857Y-89390476D01*
X116138095Y-89390476D01*
X116280952Y-89438095D01*
X116852380Y-90009523D01*
X116852380Y-89390476D01*
X116185714Y-88533333D02*
X116852380Y-88533333D01*
X115804761Y-88771428D02*
X116519047Y-89009523D01*
X116519047Y-88390476D01*
G04 #@! TO.C,C3*
X114457142Y-95466666D02*
X114504761Y-95514285D01*
X114552380Y-95657142D01*
X114552380Y-95752380D01*
X114504761Y-95895238D01*
X114409523Y-95990476D01*
X114314285Y-96038095D01*
X114123809Y-96085714D01*
X113980952Y-96085714D01*
X113790476Y-96038095D01*
X113695238Y-95990476D01*
X113600000Y-95895238D01*
X113552380Y-95752380D01*
X113552380Y-95657142D01*
X113600000Y-95514285D01*
X113647619Y-95466666D01*
X113552380Y-95133333D02*
X113552380Y-94514285D01*
X113933333Y-94847619D01*
X113933333Y-94704761D01*
X113980952Y-94609523D01*
X114028571Y-94561904D01*
X114123809Y-94514285D01*
X114361904Y-94514285D01*
X114457142Y-94561904D01*
X114504761Y-94609523D01*
X114552380Y-94704761D01*
X114552380Y-94990476D01*
X114504761Y-95085714D01*
X114457142Y-95133333D01*
G04 #@! TO.C,C12*
X117857142Y-101342857D02*
X117904761Y-101390476D01*
X117952380Y-101533333D01*
X117952380Y-101628571D01*
X117904761Y-101771428D01*
X117809523Y-101866666D01*
X117714285Y-101914285D01*
X117523809Y-101961904D01*
X117380952Y-101961904D01*
X117190476Y-101914285D01*
X117095238Y-101866666D01*
X117000000Y-101771428D01*
X116952380Y-101628571D01*
X116952380Y-101533333D01*
X117000000Y-101390476D01*
X117047619Y-101342857D01*
X117952380Y-100390476D02*
X117952380Y-100961904D01*
X117952380Y-100676190D02*
X116952380Y-100676190D01*
X117095238Y-100771428D01*
X117190476Y-100866666D01*
X117238095Y-100961904D01*
X117047619Y-100009523D02*
X117000000Y-99961904D01*
X116952380Y-99866666D01*
X116952380Y-99628571D01*
X117000000Y-99533333D01*
X117047619Y-99485714D01*
X117142857Y-99438095D01*
X117238095Y-99438095D01*
X117380952Y-99485714D01*
X117952380Y-100057142D01*
X117952380Y-99438095D01*
G04 #@! TO.C,C20*
X139957142Y-82257142D02*
X139909523Y-82304761D01*
X139766666Y-82352380D01*
X139671428Y-82352380D01*
X139528571Y-82304761D01*
X139433333Y-82209523D01*
X139385714Y-82114285D01*
X139338095Y-81923809D01*
X139338095Y-81780952D01*
X139385714Y-81590476D01*
X139433333Y-81495238D01*
X139528571Y-81400000D01*
X139671428Y-81352380D01*
X139766666Y-81352380D01*
X139909523Y-81400000D01*
X139957142Y-81447619D01*
X140338095Y-81447619D02*
X140385714Y-81400000D01*
X140480952Y-81352380D01*
X140719047Y-81352380D01*
X140814285Y-81400000D01*
X140861904Y-81447619D01*
X140909523Y-81542857D01*
X140909523Y-81638095D01*
X140861904Y-81780952D01*
X140290476Y-82352380D01*
X140909523Y-82352380D01*
X141528571Y-81352380D02*
X141623809Y-81352380D01*
X141719047Y-81400000D01*
X141766666Y-81447619D01*
X141814285Y-81542857D01*
X141861904Y-81733333D01*
X141861904Y-81971428D01*
X141814285Y-82161904D01*
X141766666Y-82257142D01*
X141719047Y-82304761D01*
X141623809Y-82352380D01*
X141528571Y-82352380D01*
X141433333Y-82304761D01*
X141385714Y-82257142D01*
X141338095Y-82161904D01*
X141290476Y-81971428D01*
X141290476Y-81733333D01*
X141338095Y-81542857D01*
X141385714Y-81447619D01*
X141433333Y-81400000D01*
X141528571Y-81352380D01*
G04 #@! TO.C,JP7*
X86666666Y-99152380D02*
X86666666Y-99866666D01*
X86619047Y-100009523D01*
X86523809Y-100104761D01*
X86380952Y-100152380D01*
X86285714Y-100152380D01*
X87142857Y-100152380D02*
X87142857Y-99152380D01*
X87523809Y-99152380D01*
X87619047Y-99200000D01*
X87666666Y-99247619D01*
X87714285Y-99342857D01*
X87714285Y-99485714D01*
X87666666Y-99580952D01*
X87619047Y-99628571D01*
X87523809Y-99676190D01*
X87142857Y-99676190D01*
X88047619Y-99152380D02*
X88714285Y-99152380D01*
X88285714Y-100152380D01*
G04 #@! TO.C,C8*
X118957142Y-90466666D02*
X119004761Y-90514285D01*
X119052380Y-90657142D01*
X119052380Y-90752380D01*
X119004761Y-90895238D01*
X118909523Y-90990476D01*
X118814285Y-91038095D01*
X118623809Y-91085714D01*
X118480952Y-91085714D01*
X118290476Y-91038095D01*
X118195238Y-90990476D01*
X118100000Y-90895238D01*
X118052380Y-90752380D01*
X118052380Y-90657142D01*
X118100000Y-90514285D01*
X118147619Y-90466666D01*
X118480952Y-89895238D02*
X118433333Y-89990476D01*
X118385714Y-90038095D01*
X118290476Y-90085714D01*
X118242857Y-90085714D01*
X118147619Y-90038095D01*
X118100000Y-89990476D01*
X118052380Y-89895238D01*
X118052380Y-89704761D01*
X118100000Y-89609523D01*
X118147619Y-89561904D01*
X118242857Y-89514285D01*
X118290476Y-89514285D01*
X118385714Y-89561904D01*
X118433333Y-89609523D01*
X118480952Y-89704761D01*
X118480952Y-89895238D01*
X118528571Y-89990476D01*
X118576190Y-90038095D01*
X118671428Y-90085714D01*
X118861904Y-90085714D01*
X118957142Y-90038095D01*
X119004761Y-89990476D01*
X119052380Y-89895238D01*
X119052380Y-89704761D01*
X119004761Y-89609523D01*
X118957142Y-89561904D01*
X118861904Y-89514285D01*
X118671428Y-89514285D01*
X118576190Y-89561904D01*
X118528571Y-89609523D01*
X118480952Y-89704761D01*
G04 #@! TO.C,C19*
X128557142Y-87542857D02*
X128604761Y-87590476D01*
X128652380Y-87733333D01*
X128652380Y-87828571D01*
X128604761Y-87971428D01*
X128509523Y-88066666D01*
X128414285Y-88114285D01*
X128223809Y-88161904D01*
X128080952Y-88161904D01*
X127890476Y-88114285D01*
X127795238Y-88066666D01*
X127700000Y-87971428D01*
X127652380Y-87828571D01*
X127652380Y-87733333D01*
X127700000Y-87590476D01*
X127747619Y-87542857D01*
X128652380Y-86590476D02*
X128652380Y-87161904D01*
X128652380Y-86876190D02*
X127652380Y-86876190D01*
X127795238Y-86971428D01*
X127890476Y-87066666D01*
X127938095Y-87161904D01*
X128652380Y-86114285D02*
X128652380Y-85923809D01*
X128604761Y-85828571D01*
X128557142Y-85780952D01*
X128414285Y-85685714D01*
X128223809Y-85638095D01*
X127842857Y-85638095D01*
X127747619Y-85685714D01*
X127700000Y-85733333D01*
X127652380Y-85828571D01*
X127652380Y-86019047D01*
X127700000Y-86114285D01*
X127747619Y-86161904D01*
X127842857Y-86209523D01*
X128080952Y-86209523D01*
X128176190Y-86161904D01*
X128223809Y-86114285D01*
X128271428Y-86019047D01*
X128271428Y-85828571D01*
X128223809Y-85733333D01*
X128176190Y-85685714D01*
X128080952Y-85638095D01*
G04 #@! TO.C,R5*
X106833333Y-76452380D02*
X106500000Y-75976190D01*
X106261904Y-76452380D02*
X106261904Y-75452380D01*
X106642857Y-75452380D01*
X106738095Y-75500000D01*
X106785714Y-75547619D01*
X106833333Y-75642857D01*
X106833333Y-75785714D01*
X106785714Y-75880952D01*
X106738095Y-75928571D01*
X106642857Y-75976190D01*
X106261904Y-75976190D01*
X107738095Y-75452380D02*
X107261904Y-75452380D01*
X107214285Y-75928571D01*
X107261904Y-75880952D01*
X107357142Y-75833333D01*
X107595238Y-75833333D01*
X107690476Y-75880952D01*
X107738095Y-75928571D01*
X107785714Y-76023809D01*
X107785714Y-76261904D01*
X107738095Y-76357142D01*
X107690476Y-76404761D01*
X107595238Y-76452380D01*
X107357142Y-76452380D01*
X107261904Y-76404761D01*
X107214285Y-76357142D01*
G04 #@! TO.C,R16*
X121457142Y-78352380D02*
X121123809Y-77876190D01*
X120885714Y-78352380D02*
X120885714Y-77352380D01*
X121266666Y-77352380D01*
X121361904Y-77400000D01*
X121409523Y-77447619D01*
X121457142Y-77542857D01*
X121457142Y-77685714D01*
X121409523Y-77780952D01*
X121361904Y-77828571D01*
X121266666Y-77876190D01*
X120885714Y-77876190D01*
X122409523Y-78352380D02*
X121838095Y-78352380D01*
X122123809Y-78352380D02*
X122123809Y-77352380D01*
X122028571Y-77495238D01*
X121933333Y-77590476D01*
X121838095Y-77638095D01*
X123266666Y-77352380D02*
X123076190Y-77352380D01*
X122980952Y-77400000D01*
X122933333Y-77447619D01*
X122838095Y-77590476D01*
X122790476Y-77780952D01*
X122790476Y-78161904D01*
X122838095Y-78257142D01*
X122885714Y-78304761D01*
X122980952Y-78352380D01*
X123171428Y-78352380D01*
X123266666Y-78304761D01*
X123314285Y-78257142D01*
X123361904Y-78161904D01*
X123361904Y-77923809D01*
X123314285Y-77828571D01*
X123266666Y-77780952D01*
X123171428Y-77733333D01*
X122980952Y-77733333D01*
X122885714Y-77780952D01*
X122838095Y-77828571D01*
X122790476Y-77923809D01*
D12*
G04 #@! TO.C,Y1*
X107995238Y-111069761D02*
X107995238Y-111674523D01*
X107571904Y-110404523D02*
X107995238Y-111069761D01*
X108418571Y-110404523D01*
X109507142Y-111674523D02*
X108781428Y-111674523D01*
X109144285Y-111674523D02*
X109144285Y-110404523D01*
X109023333Y-110585952D01*
X108902380Y-110706904D01*
X108781428Y-110767380D01*
D10*
G04 #@! TO.C,FB1*
X146198571Y-95033333D02*
X146198571Y-95366666D01*
X146722380Y-95366666D02*
X145722380Y-95366666D01*
X145722380Y-94890476D01*
X146198571Y-94176190D02*
X146246190Y-94033333D01*
X146293809Y-93985714D01*
X146389047Y-93938095D01*
X146531904Y-93938095D01*
X146627142Y-93985714D01*
X146674761Y-94033333D01*
X146722380Y-94128571D01*
X146722380Y-94509523D01*
X145722380Y-94509523D01*
X145722380Y-94176190D01*
X145770000Y-94080952D01*
X145817619Y-94033333D01*
X145912857Y-93985714D01*
X146008095Y-93985714D01*
X146103333Y-94033333D01*
X146150952Y-94080952D01*
X146198571Y-94176190D01*
X146198571Y-94509523D01*
X146722380Y-92985714D02*
X146722380Y-93557142D01*
X146722380Y-93271428D02*
X145722380Y-93271428D01*
X145865238Y-93366666D01*
X145960476Y-93461904D01*
X146008095Y-93557142D01*
D12*
G04 #@! TO.C,IC1*
X93660238Y-95974523D02*
X93660238Y-94704523D01*
X94990714Y-95853571D02*
X94930238Y-95914047D01*
X94748809Y-95974523D01*
X94627857Y-95974523D01*
X94446428Y-95914047D01*
X94325476Y-95793095D01*
X94265000Y-95672142D01*
X94204523Y-95430238D01*
X94204523Y-95248809D01*
X94265000Y-95006904D01*
X94325476Y-94885952D01*
X94446428Y-94765000D01*
X94627857Y-94704523D01*
X94748809Y-94704523D01*
X94930238Y-94765000D01*
X94990714Y-94825476D01*
X96200238Y-95974523D02*
X95474523Y-95974523D01*
X95837380Y-95974523D02*
X95837380Y-94704523D01*
X95716428Y-94885952D01*
X95595476Y-95006904D01*
X95474523Y-95067380D01*
D10*
G04 #@! TO.C,C21*
X139957142Y-85457142D02*
X139909523Y-85504761D01*
X139766666Y-85552380D01*
X139671428Y-85552380D01*
X139528571Y-85504761D01*
X139433333Y-85409523D01*
X139385714Y-85314285D01*
X139338095Y-85123809D01*
X139338095Y-84980952D01*
X139385714Y-84790476D01*
X139433333Y-84695238D01*
X139528571Y-84600000D01*
X139671428Y-84552380D01*
X139766666Y-84552380D01*
X139909523Y-84600000D01*
X139957142Y-84647619D01*
X140338095Y-84647619D02*
X140385714Y-84600000D01*
X140480952Y-84552380D01*
X140719047Y-84552380D01*
X140814285Y-84600000D01*
X140861904Y-84647619D01*
X140909523Y-84742857D01*
X140909523Y-84838095D01*
X140861904Y-84980952D01*
X140290476Y-85552380D01*
X140909523Y-85552380D01*
X141861904Y-85552380D02*
X141290476Y-85552380D01*
X141576190Y-85552380D02*
X141576190Y-84552380D01*
X141480952Y-84695238D01*
X141385714Y-84790476D01*
X141290476Y-84838095D01*
G04 #@! TO.C,R10*
X101752380Y-55642857D02*
X101276190Y-55976190D01*
X101752380Y-56214285D02*
X100752380Y-56214285D01*
X100752380Y-55833333D01*
X100800000Y-55738095D01*
X100847619Y-55690476D01*
X100942857Y-55642857D01*
X101085714Y-55642857D01*
X101180952Y-55690476D01*
X101228571Y-55738095D01*
X101276190Y-55833333D01*
X101276190Y-56214285D01*
X101752380Y-54690476D02*
X101752380Y-55261904D01*
X101752380Y-54976190D02*
X100752380Y-54976190D01*
X100895238Y-55071428D01*
X100990476Y-55166666D01*
X101038095Y-55261904D01*
X100752380Y-54071428D02*
X100752380Y-53976190D01*
X100800000Y-53880952D01*
X100847619Y-53833333D01*
X100942857Y-53785714D01*
X101133333Y-53738095D01*
X101371428Y-53738095D01*
X101561904Y-53785714D01*
X101657142Y-53833333D01*
X101704761Y-53880952D01*
X101752380Y-53976190D01*
X101752380Y-54071428D01*
X101704761Y-54166666D01*
X101657142Y-54214285D01*
X101561904Y-54261904D01*
X101371428Y-54309523D01*
X101133333Y-54309523D01*
X100942857Y-54261904D01*
X100847619Y-54214285D01*
X100800000Y-54166666D01*
X100752380Y-54071428D01*
G04 #@! TO.C,R13*
X111652380Y-63342857D02*
X111176190Y-63676190D01*
X111652380Y-63914285D02*
X110652380Y-63914285D01*
X110652380Y-63533333D01*
X110700000Y-63438095D01*
X110747619Y-63390476D01*
X110842857Y-63342857D01*
X110985714Y-63342857D01*
X111080952Y-63390476D01*
X111128571Y-63438095D01*
X111176190Y-63533333D01*
X111176190Y-63914285D01*
X111652380Y-62390476D02*
X111652380Y-62961904D01*
X111652380Y-62676190D02*
X110652380Y-62676190D01*
X110795238Y-62771428D01*
X110890476Y-62866666D01*
X110938095Y-62961904D01*
X110652380Y-62057142D02*
X110652380Y-61438095D01*
X111033333Y-61771428D01*
X111033333Y-61628571D01*
X111080952Y-61533333D01*
X111128571Y-61485714D01*
X111223809Y-61438095D01*
X111461904Y-61438095D01*
X111557142Y-61485714D01*
X111604761Y-61533333D01*
X111652380Y-61628571D01*
X111652380Y-61914285D01*
X111604761Y-62009523D01*
X111557142Y-62057142D01*
G04 #@! TO.C,D4*
X73161904Y-101852380D02*
X73161904Y-100852380D01*
X73400000Y-100852380D01*
X73542857Y-100900000D01*
X73638095Y-100995238D01*
X73685714Y-101090476D01*
X73733333Y-101280952D01*
X73733333Y-101423809D01*
X73685714Y-101614285D01*
X73638095Y-101709523D01*
X73542857Y-101804761D01*
X73400000Y-101852380D01*
X73161904Y-101852380D01*
X74590476Y-101185714D02*
X74590476Y-101852380D01*
X74352380Y-100804761D02*
X74114285Y-101519047D01*
X74733333Y-101519047D01*
G04 #@! TO.C,C26*
X124357142Y-84296590D02*
X124404761Y-84344209D01*
X124452380Y-84487066D01*
X124452380Y-84582304D01*
X124404761Y-84725161D01*
X124309523Y-84820399D01*
X124214285Y-84868018D01*
X124023809Y-84915637D01*
X123880952Y-84915637D01*
X123690476Y-84868018D01*
X123595238Y-84820399D01*
X123500000Y-84725161D01*
X123452380Y-84582304D01*
X123452380Y-84487066D01*
X123500000Y-84344209D01*
X123547619Y-84296590D01*
X123547619Y-83915637D02*
X123500000Y-83868018D01*
X123452380Y-83772780D01*
X123452380Y-83534685D01*
X123500000Y-83439447D01*
X123547619Y-83391828D01*
X123642857Y-83344209D01*
X123738095Y-83344209D01*
X123880952Y-83391828D01*
X124452380Y-83963256D01*
X124452380Y-83344209D01*
X123452380Y-82487066D02*
X123452380Y-82677542D01*
X123500000Y-82772780D01*
X123547619Y-82820399D01*
X123690476Y-82915637D01*
X123880952Y-82963256D01*
X124261904Y-82963256D01*
X124357142Y-82915637D01*
X124404761Y-82868018D01*
X124452380Y-82772780D01*
X124452380Y-82582304D01*
X124404761Y-82487066D01*
X124357142Y-82439447D01*
X124261904Y-82391828D01*
X124023809Y-82391828D01*
X123928571Y-82439447D01*
X123880952Y-82487066D01*
X123833333Y-82582304D01*
X123833333Y-82772780D01*
X123880952Y-82868018D01*
X123928571Y-82915637D01*
X124023809Y-82963256D01*
G04 #@! TO.C,R19*
X142857142Y-76552380D02*
X142523809Y-76076190D01*
X142285714Y-76552380D02*
X142285714Y-75552380D01*
X142666666Y-75552380D01*
X142761904Y-75600000D01*
X142809523Y-75647619D01*
X142857142Y-75742857D01*
X142857142Y-75885714D01*
X142809523Y-75980952D01*
X142761904Y-76028571D01*
X142666666Y-76076190D01*
X142285714Y-76076190D01*
X143809523Y-76552380D02*
X143238095Y-76552380D01*
X143523809Y-76552380D02*
X143523809Y-75552380D01*
X143428571Y-75695238D01*
X143333333Y-75790476D01*
X143238095Y-75838095D01*
X144285714Y-76552380D02*
X144476190Y-76552380D01*
X144571428Y-76504761D01*
X144619047Y-76457142D01*
X144714285Y-76314285D01*
X144761904Y-76123809D01*
X144761904Y-75742857D01*
X144714285Y-75647619D01*
X144666666Y-75600000D01*
X144571428Y-75552380D01*
X144380952Y-75552380D01*
X144285714Y-75600000D01*
X144238095Y-75647619D01*
X144190476Y-75742857D01*
X144190476Y-75980952D01*
X144238095Y-76076190D01*
X144285714Y-76123809D01*
X144380952Y-76171428D01*
X144571428Y-76171428D01*
X144666666Y-76123809D01*
X144714285Y-76076190D01*
X144761904Y-75980952D01*
G04 #@! TO.C,JP11*
X135090476Y-68152380D02*
X135090476Y-68866666D01*
X135042857Y-69009523D01*
X134947619Y-69104761D01*
X134804761Y-69152380D01*
X134709523Y-69152380D01*
X135566666Y-69152380D02*
X135566666Y-68152380D01*
X135947619Y-68152380D01*
X136042857Y-68200000D01*
X136090476Y-68247619D01*
X136138095Y-68342857D01*
X136138095Y-68485714D01*
X136090476Y-68580952D01*
X136042857Y-68628571D01*
X135947619Y-68676190D01*
X135566666Y-68676190D01*
X137090476Y-69152380D02*
X136519047Y-69152380D01*
X136804761Y-69152380D02*
X136804761Y-68152380D01*
X136709523Y-68295238D01*
X136614285Y-68390476D01*
X136519047Y-68438095D01*
X138042857Y-69152380D02*
X137471428Y-69152380D01*
X137757142Y-69152380D02*
X137757142Y-68152380D01*
X137661904Y-68295238D01*
X137566666Y-68390476D01*
X137471428Y-68438095D01*
G04 #@! TO.C,C6*
X95557142Y-119166666D02*
X95604761Y-119214285D01*
X95652380Y-119357142D01*
X95652380Y-119452380D01*
X95604761Y-119595238D01*
X95509523Y-119690476D01*
X95414285Y-119738095D01*
X95223809Y-119785714D01*
X95080952Y-119785714D01*
X94890476Y-119738095D01*
X94795238Y-119690476D01*
X94700000Y-119595238D01*
X94652380Y-119452380D01*
X94652380Y-119357142D01*
X94700000Y-119214285D01*
X94747619Y-119166666D01*
X94652380Y-118309523D02*
X94652380Y-118500000D01*
X94700000Y-118595238D01*
X94747619Y-118642857D01*
X94890476Y-118738095D01*
X95080952Y-118785714D01*
X95461904Y-118785714D01*
X95557142Y-118738095D01*
X95604761Y-118690476D01*
X95652380Y-118595238D01*
X95652380Y-118404761D01*
X95604761Y-118309523D01*
X95557142Y-118261904D01*
X95461904Y-118214285D01*
X95223809Y-118214285D01*
X95128571Y-118261904D01*
X95080952Y-118309523D01*
X95033333Y-118404761D01*
X95033333Y-118595238D01*
X95080952Y-118690476D01*
X95128571Y-118738095D01*
X95223809Y-118785714D01*
G04 #@! TO.C,R23*
X93857142Y-113852380D02*
X93523809Y-113376190D01*
X93285714Y-113852380D02*
X93285714Y-112852380D01*
X93666666Y-112852380D01*
X93761904Y-112900000D01*
X93809523Y-112947619D01*
X93857142Y-113042857D01*
X93857142Y-113185714D01*
X93809523Y-113280952D01*
X93761904Y-113328571D01*
X93666666Y-113376190D01*
X93285714Y-113376190D01*
X94238095Y-112947619D02*
X94285714Y-112900000D01*
X94380952Y-112852380D01*
X94619047Y-112852380D01*
X94714285Y-112900000D01*
X94761904Y-112947619D01*
X94809523Y-113042857D01*
X94809523Y-113138095D01*
X94761904Y-113280952D01*
X94190476Y-113852380D01*
X94809523Y-113852380D01*
X95142857Y-112852380D02*
X95761904Y-112852380D01*
X95428571Y-113233333D01*
X95571428Y-113233333D01*
X95666666Y-113280952D01*
X95714285Y-113328571D01*
X95761904Y-113423809D01*
X95761904Y-113661904D01*
X95714285Y-113757142D01*
X95666666Y-113804761D01*
X95571428Y-113852380D01*
X95285714Y-113852380D01*
X95190476Y-113804761D01*
X95142857Y-113757142D01*
G04 #@! TO.C,C13*
X134557142Y-78557142D02*
X134509523Y-78604761D01*
X134366666Y-78652380D01*
X134271428Y-78652380D01*
X134128571Y-78604761D01*
X134033333Y-78509523D01*
X133985714Y-78414285D01*
X133938095Y-78223809D01*
X133938095Y-78080952D01*
X133985714Y-77890476D01*
X134033333Y-77795238D01*
X134128571Y-77700000D01*
X134271428Y-77652380D01*
X134366666Y-77652380D01*
X134509523Y-77700000D01*
X134557142Y-77747619D01*
X135509523Y-78652380D02*
X134938095Y-78652380D01*
X135223809Y-78652380D02*
X135223809Y-77652380D01*
X135128571Y-77795238D01*
X135033333Y-77890476D01*
X134938095Y-77938095D01*
X135842857Y-77652380D02*
X136461904Y-77652380D01*
X136128571Y-78033333D01*
X136271428Y-78033333D01*
X136366666Y-78080952D01*
X136414285Y-78128571D01*
X136461904Y-78223809D01*
X136461904Y-78461904D01*
X136414285Y-78557142D01*
X136366666Y-78604761D01*
X136271428Y-78652380D01*
X135985714Y-78652380D01*
X135890476Y-78604761D01*
X135842857Y-78557142D01*
D12*
G04 #@! TO.C,IC2*
X91560238Y-116074523D02*
X91560238Y-114804523D01*
X92890714Y-115953571D02*
X92830238Y-116014047D01*
X92648809Y-116074523D01*
X92527857Y-116074523D01*
X92346428Y-116014047D01*
X92225476Y-115893095D01*
X92165000Y-115772142D01*
X92104523Y-115530238D01*
X92104523Y-115348809D01*
X92165000Y-115106904D01*
X92225476Y-114985952D01*
X92346428Y-114865000D01*
X92527857Y-114804523D01*
X92648809Y-114804523D01*
X92830238Y-114865000D01*
X92890714Y-114925476D01*
X93374523Y-114925476D02*
X93435000Y-114865000D01*
X93555952Y-114804523D01*
X93858333Y-114804523D01*
X93979285Y-114865000D01*
X94039761Y-114925476D01*
X94100238Y-115046428D01*
X94100238Y-115167380D01*
X94039761Y-115348809D01*
X93314047Y-116074523D01*
X94100238Y-116074523D01*
D10*
G04 #@! TO.C,D1*
X110161904Y-101952380D02*
X110161904Y-100952380D01*
X110400000Y-100952380D01*
X110542857Y-101000000D01*
X110638095Y-101095238D01*
X110685714Y-101190476D01*
X110733333Y-101380952D01*
X110733333Y-101523809D01*
X110685714Y-101714285D01*
X110638095Y-101809523D01*
X110542857Y-101904761D01*
X110400000Y-101952380D01*
X110161904Y-101952380D01*
X111685714Y-101952380D02*
X111114285Y-101952380D01*
X111400000Y-101952380D02*
X111400000Y-100952380D01*
X111304761Y-101095238D01*
X111209523Y-101190476D01*
X111114285Y-101238095D01*
G04 #@! TO.C,JP1*
X105966666Y-72252380D02*
X105966666Y-72966666D01*
X105919047Y-73109523D01*
X105823809Y-73204761D01*
X105680952Y-73252380D01*
X105585714Y-73252380D01*
X106442857Y-73252380D02*
X106442857Y-72252380D01*
X106823809Y-72252380D01*
X106919047Y-72300000D01*
X106966666Y-72347619D01*
X107014285Y-72442857D01*
X107014285Y-72585714D01*
X106966666Y-72680952D01*
X106919047Y-72728571D01*
X106823809Y-72776190D01*
X106442857Y-72776190D01*
X107966666Y-73252380D02*
X107395238Y-73252380D01*
X107680952Y-73252380D02*
X107680952Y-72252380D01*
X107585714Y-72395238D01*
X107490476Y-72490476D01*
X107395238Y-72538095D01*
G04 #@! TO.C,C22*
X133657142Y-88357142D02*
X133609523Y-88404761D01*
X133466666Y-88452380D01*
X133371428Y-88452380D01*
X133228571Y-88404761D01*
X133133333Y-88309523D01*
X133085714Y-88214285D01*
X133038095Y-88023809D01*
X133038095Y-87880952D01*
X133085714Y-87690476D01*
X133133333Y-87595238D01*
X133228571Y-87500000D01*
X133371428Y-87452380D01*
X133466666Y-87452380D01*
X133609523Y-87500000D01*
X133657142Y-87547619D01*
X134038095Y-87547619D02*
X134085714Y-87500000D01*
X134180952Y-87452380D01*
X134419047Y-87452380D01*
X134514285Y-87500000D01*
X134561904Y-87547619D01*
X134609523Y-87642857D01*
X134609523Y-87738095D01*
X134561904Y-87880952D01*
X133990476Y-88452380D01*
X134609523Y-88452380D01*
X134990476Y-87547619D02*
X135038095Y-87500000D01*
X135133333Y-87452380D01*
X135371428Y-87452380D01*
X135466666Y-87500000D01*
X135514285Y-87547619D01*
X135561904Y-87642857D01*
X135561904Y-87738095D01*
X135514285Y-87880952D01*
X134942857Y-88452380D01*
X135561904Y-88452380D01*
D12*
G04 #@! TO.C,Y2*
X108295238Y-115569761D02*
X108295238Y-116174523D01*
X107871904Y-114904523D02*
X108295238Y-115569761D01*
X108718571Y-114904523D01*
X109081428Y-115025476D02*
X109141904Y-114965000D01*
X109262857Y-114904523D01*
X109565238Y-114904523D01*
X109686190Y-114965000D01*
X109746666Y-115025476D01*
X109807142Y-115146428D01*
X109807142Y-115267380D01*
X109746666Y-115448809D01*
X109020952Y-116174523D01*
X109807142Y-116174523D01*
D10*
G04 #@! TO.C,C25*
X82457142Y-87142857D02*
X82504761Y-87190476D01*
X82552380Y-87333333D01*
X82552380Y-87428571D01*
X82504761Y-87571428D01*
X82409523Y-87666666D01*
X82314285Y-87714285D01*
X82123809Y-87761904D01*
X81980952Y-87761904D01*
X81790476Y-87714285D01*
X81695238Y-87666666D01*
X81600000Y-87571428D01*
X81552380Y-87428571D01*
X81552380Y-87333333D01*
X81600000Y-87190476D01*
X81647619Y-87142857D01*
X81647619Y-86761904D02*
X81600000Y-86714285D01*
X81552380Y-86619047D01*
X81552380Y-86380952D01*
X81600000Y-86285714D01*
X81647619Y-86238095D01*
X81742857Y-86190476D01*
X81838095Y-86190476D01*
X81980952Y-86238095D01*
X82552380Y-86809523D01*
X82552380Y-86190476D01*
X81552380Y-85285714D02*
X81552380Y-85761904D01*
X82028571Y-85809523D01*
X81980952Y-85761904D01*
X81933333Y-85666666D01*
X81933333Y-85428571D01*
X81980952Y-85333333D01*
X82028571Y-85285714D01*
X82123809Y-85238095D01*
X82361904Y-85238095D01*
X82457142Y-85285714D01*
X82504761Y-85333333D01*
X82552380Y-85428571D01*
X82552380Y-85666666D01*
X82504761Y-85761904D01*
X82457142Y-85809523D01*
G04 #@! TO.C,JP6*
X88766666Y-93752380D02*
X88766666Y-94466666D01*
X88719047Y-94609523D01*
X88623809Y-94704761D01*
X88480952Y-94752380D01*
X88385714Y-94752380D01*
X89242857Y-94752380D02*
X89242857Y-93752380D01*
X89623809Y-93752380D01*
X89719047Y-93800000D01*
X89766666Y-93847619D01*
X89814285Y-93942857D01*
X89814285Y-94085714D01*
X89766666Y-94180952D01*
X89719047Y-94228571D01*
X89623809Y-94276190D01*
X89242857Y-94276190D01*
X90671428Y-93752380D02*
X90480952Y-93752380D01*
X90385714Y-93800000D01*
X90338095Y-93847619D01*
X90242857Y-93990476D01*
X90195238Y-94180952D01*
X90195238Y-94561904D01*
X90242857Y-94657142D01*
X90290476Y-94704761D01*
X90385714Y-94752380D01*
X90576190Y-94752380D01*
X90671428Y-94704761D01*
X90719047Y-94657142D01*
X90766666Y-94561904D01*
X90766666Y-94323809D01*
X90719047Y-94228571D01*
X90671428Y-94180952D01*
X90576190Y-94133333D01*
X90385714Y-94133333D01*
X90290476Y-94180952D01*
X90242857Y-94228571D01*
X90195238Y-94323809D01*
D12*
G04 #@! TO.C,IC4*
X90460238Y-107974523D02*
X90460238Y-106704523D01*
X91790714Y-107853571D02*
X91730238Y-107914047D01*
X91548809Y-107974523D01*
X91427857Y-107974523D01*
X91246428Y-107914047D01*
X91125476Y-107793095D01*
X91065000Y-107672142D01*
X91004523Y-107430238D01*
X91004523Y-107248809D01*
X91065000Y-107006904D01*
X91125476Y-106885952D01*
X91246428Y-106765000D01*
X91427857Y-106704523D01*
X91548809Y-106704523D01*
X91730238Y-106765000D01*
X91790714Y-106825476D01*
X92879285Y-107127857D02*
X92879285Y-107974523D01*
X92576904Y-106644047D02*
X92274523Y-107551190D01*
X93060714Y-107551190D01*
D10*
G04 #@! TO.C,R1*
X110633333Y-100152380D02*
X110300000Y-99676190D01*
X110061904Y-100152380D02*
X110061904Y-99152380D01*
X110442857Y-99152380D01*
X110538095Y-99200000D01*
X110585714Y-99247619D01*
X110633333Y-99342857D01*
X110633333Y-99485714D01*
X110585714Y-99580952D01*
X110538095Y-99628571D01*
X110442857Y-99676190D01*
X110061904Y-99676190D01*
X111585714Y-100152380D02*
X111014285Y-100152380D01*
X111300000Y-100152380D02*
X111300000Y-99152380D01*
X111204761Y-99295238D01*
X111109523Y-99390476D01*
X111014285Y-99438095D01*
G04 #@! TO.C,C23*
X133657142Y-91257142D02*
X133609523Y-91304761D01*
X133466666Y-91352380D01*
X133371428Y-91352380D01*
X133228571Y-91304761D01*
X133133333Y-91209523D01*
X133085714Y-91114285D01*
X133038095Y-90923809D01*
X133038095Y-90780952D01*
X133085714Y-90590476D01*
X133133333Y-90495238D01*
X133228571Y-90400000D01*
X133371428Y-90352380D01*
X133466666Y-90352380D01*
X133609523Y-90400000D01*
X133657142Y-90447619D01*
X134038095Y-90447619D02*
X134085714Y-90400000D01*
X134180952Y-90352380D01*
X134419047Y-90352380D01*
X134514285Y-90400000D01*
X134561904Y-90447619D01*
X134609523Y-90542857D01*
X134609523Y-90638095D01*
X134561904Y-90780952D01*
X133990476Y-91352380D01*
X134609523Y-91352380D01*
X134942857Y-90352380D02*
X135561904Y-90352380D01*
X135228571Y-90733333D01*
X135371428Y-90733333D01*
X135466666Y-90780952D01*
X135514285Y-90828571D01*
X135561904Y-90923809D01*
X135561904Y-91161904D01*
X135514285Y-91257142D01*
X135466666Y-91304761D01*
X135371428Y-91352380D01*
X135085714Y-91352380D01*
X134990476Y-91304761D01*
X134942857Y-91257142D01*
G04 #@! TO.C,JP10*
X142290476Y-68152380D02*
X142290476Y-68866666D01*
X142242857Y-69009523D01*
X142147619Y-69104761D01*
X142004761Y-69152380D01*
X141909523Y-69152380D01*
X142766666Y-69152380D02*
X142766666Y-68152380D01*
X143147619Y-68152380D01*
X143242857Y-68200000D01*
X143290476Y-68247619D01*
X143338095Y-68342857D01*
X143338095Y-68485714D01*
X143290476Y-68580952D01*
X143242857Y-68628571D01*
X143147619Y-68676190D01*
X142766666Y-68676190D01*
X144290476Y-69152380D02*
X143719047Y-69152380D01*
X144004761Y-69152380D02*
X144004761Y-68152380D01*
X143909523Y-68295238D01*
X143814285Y-68390476D01*
X143719047Y-68438095D01*
X144909523Y-68152380D02*
X145004761Y-68152380D01*
X145100000Y-68200000D01*
X145147619Y-68247619D01*
X145195238Y-68342857D01*
X145242857Y-68533333D01*
X145242857Y-68771428D01*
X145195238Y-68961904D01*
X145147619Y-69057142D01*
X145100000Y-69104761D01*
X145004761Y-69152380D01*
X144909523Y-69152380D01*
X144814285Y-69104761D01*
X144766666Y-69057142D01*
X144719047Y-68961904D01*
X144671428Y-68771428D01*
X144671428Y-68533333D01*
X144719047Y-68342857D01*
X144766666Y-68247619D01*
X144814285Y-68200000D01*
X144909523Y-68152380D01*
G04 #@! TO.C,C1*
X100857142Y-113266666D02*
X100904761Y-113314285D01*
X100952380Y-113457142D01*
X100952380Y-113552380D01*
X100904761Y-113695238D01*
X100809523Y-113790476D01*
X100714285Y-113838095D01*
X100523809Y-113885714D01*
X100380952Y-113885714D01*
X100190476Y-113838095D01*
X100095238Y-113790476D01*
X100000000Y-113695238D01*
X99952380Y-113552380D01*
X99952380Y-113457142D01*
X100000000Y-113314285D01*
X100047619Y-113266666D01*
X100952380Y-112314285D02*
X100952380Y-112885714D01*
X100952380Y-112600000D02*
X99952380Y-112600000D01*
X100095238Y-112695238D01*
X100190476Y-112790476D01*
X100238095Y-112885714D01*
G04 #@! TO.C,FB3*
X98628571Y-89733333D02*
X98628571Y-90066666D01*
X99152380Y-90066666D02*
X98152380Y-90066666D01*
X98152380Y-89590476D01*
X98628571Y-88876190D02*
X98676190Y-88733333D01*
X98723809Y-88685714D01*
X98819047Y-88638095D01*
X98961904Y-88638095D01*
X99057142Y-88685714D01*
X99104761Y-88733333D01*
X99152380Y-88828571D01*
X99152380Y-89209523D01*
X98152380Y-89209523D01*
X98152380Y-88876190D01*
X98200000Y-88780952D01*
X98247619Y-88733333D01*
X98342857Y-88685714D01*
X98438095Y-88685714D01*
X98533333Y-88733333D01*
X98580952Y-88780952D01*
X98628571Y-88876190D01*
X98628571Y-89209523D01*
X98152380Y-88304761D02*
X98152380Y-87685714D01*
X98533333Y-88019047D01*
X98533333Y-87876190D01*
X98580952Y-87780952D01*
X98628571Y-87733333D01*
X98723809Y-87685714D01*
X98961904Y-87685714D01*
X99057142Y-87733333D01*
X99104761Y-87780952D01*
X99152380Y-87876190D01*
X99152380Y-88161904D01*
X99104761Y-88257142D01*
X99057142Y-88304761D01*
G04 #@! TO.C,R12*
X111152380Y-55442857D02*
X110676190Y-55776190D01*
X111152380Y-56014285D02*
X110152380Y-56014285D01*
X110152380Y-55633333D01*
X110200000Y-55538095D01*
X110247619Y-55490476D01*
X110342857Y-55442857D01*
X110485714Y-55442857D01*
X110580952Y-55490476D01*
X110628571Y-55538095D01*
X110676190Y-55633333D01*
X110676190Y-56014285D01*
X111152380Y-54490476D02*
X111152380Y-55061904D01*
X111152380Y-54776190D02*
X110152380Y-54776190D01*
X110295238Y-54871428D01*
X110390476Y-54966666D01*
X110438095Y-55061904D01*
X110247619Y-54109523D02*
X110200000Y-54061904D01*
X110152380Y-53966666D01*
X110152380Y-53728571D01*
X110200000Y-53633333D01*
X110247619Y-53585714D01*
X110342857Y-53538095D01*
X110438095Y-53538095D01*
X110580952Y-53585714D01*
X111152380Y-54157142D01*
X111152380Y-53538095D01*
G04 #@! TO.C,JP8*
X128666666Y-67952380D02*
X128666666Y-68666666D01*
X128619047Y-68809523D01*
X128523809Y-68904761D01*
X128380952Y-68952380D01*
X128285714Y-68952380D01*
X129142857Y-68952380D02*
X129142857Y-67952380D01*
X129523809Y-67952380D01*
X129619047Y-68000000D01*
X129666666Y-68047619D01*
X129714285Y-68142857D01*
X129714285Y-68285714D01*
X129666666Y-68380952D01*
X129619047Y-68428571D01*
X129523809Y-68476190D01*
X129142857Y-68476190D01*
X130285714Y-68380952D02*
X130190476Y-68333333D01*
X130142857Y-68285714D01*
X130095238Y-68190476D01*
X130095238Y-68142857D01*
X130142857Y-68047619D01*
X130190476Y-68000000D01*
X130285714Y-67952380D01*
X130476190Y-67952380D01*
X130571428Y-68000000D01*
X130619047Y-68047619D01*
X130666666Y-68142857D01*
X130666666Y-68190476D01*
X130619047Y-68285714D01*
X130571428Y-68333333D01*
X130476190Y-68380952D01*
X130285714Y-68380952D01*
X130190476Y-68428571D01*
X130142857Y-68476190D01*
X130095238Y-68571428D01*
X130095238Y-68761904D01*
X130142857Y-68857142D01*
X130190476Y-68904761D01*
X130285714Y-68952380D01*
X130476190Y-68952380D01*
X130571428Y-68904761D01*
X130619047Y-68857142D01*
X130666666Y-68761904D01*
X130666666Y-68571428D01*
X130619047Y-68476190D01*
X130571428Y-68428571D01*
X130476190Y-68380952D01*
G04 #@! TO.C,C16*
X99357142Y-97542857D02*
X99404761Y-97590476D01*
X99452380Y-97733333D01*
X99452380Y-97828571D01*
X99404761Y-97971428D01*
X99309523Y-98066666D01*
X99214285Y-98114285D01*
X99023809Y-98161904D01*
X98880952Y-98161904D01*
X98690476Y-98114285D01*
X98595238Y-98066666D01*
X98500000Y-97971428D01*
X98452380Y-97828571D01*
X98452380Y-97733333D01*
X98500000Y-97590476D01*
X98547619Y-97542857D01*
X99452380Y-96590476D02*
X99452380Y-97161904D01*
X99452380Y-96876190D02*
X98452380Y-96876190D01*
X98595238Y-96971428D01*
X98690476Y-97066666D01*
X98738095Y-97161904D01*
X98452380Y-95733333D02*
X98452380Y-95923809D01*
X98500000Y-96019047D01*
X98547619Y-96066666D01*
X98690476Y-96161904D01*
X98880952Y-96209523D01*
X99261904Y-96209523D01*
X99357142Y-96161904D01*
X99404761Y-96114285D01*
X99452380Y-96019047D01*
X99452380Y-95828571D01*
X99404761Y-95733333D01*
X99357142Y-95685714D01*
X99261904Y-95638095D01*
X99023809Y-95638095D01*
X98928571Y-95685714D01*
X98880952Y-95733333D01*
X98833333Y-95828571D01*
X98833333Y-96019047D01*
X98880952Y-96114285D01*
X98928571Y-96161904D01*
X99023809Y-96209523D01*
G04 #@! TO.C,C9*
X84157142Y-112166666D02*
X84204761Y-112214285D01*
X84252380Y-112357142D01*
X84252380Y-112452380D01*
X84204761Y-112595238D01*
X84109523Y-112690476D01*
X84014285Y-112738095D01*
X83823809Y-112785714D01*
X83680952Y-112785714D01*
X83490476Y-112738095D01*
X83395238Y-112690476D01*
X83300000Y-112595238D01*
X83252380Y-112452380D01*
X83252380Y-112357142D01*
X83300000Y-112214285D01*
X83347619Y-112166666D01*
X84252380Y-111690476D02*
X84252380Y-111500000D01*
X84204761Y-111404761D01*
X84157142Y-111357142D01*
X84014285Y-111261904D01*
X83823809Y-111214285D01*
X83442857Y-111214285D01*
X83347619Y-111261904D01*
X83300000Y-111309523D01*
X83252380Y-111404761D01*
X83252380Y-111595238D01*
X83300000Y-111690476D01*
X83347619Y-111738095D01*
X83442857Y-111785714D01*
X83680952Y-111785714D01*
X83776190Y-111738095D01*
X83823809Y-111690476D01*
X83871428Y-111595238D01*
X83871428Y-111404761D01*
X83823809Y-111309523D01*
X83776190Y-111261904D01*
X83680952Y-111214285D01*
G04 #@! TO.C,C27*
X121357142Y-84242857D02*
X121404761Y-84290476D01*
X121452380Y-84433333D01*
X121452380Y-84528571D01*
X121404761Y-84671428D01*
X121309523Y-84766666D01*
X121214285Y-84814285D01*
X121023809Y-84861904D01*
X120880952Y-84861904D01*
X120690476Y-84814285D01*
X120595238Y-84766666D01*
X120500000Y-84671428D01*
X120452380Y-84528571D01*
X120452380Y-84433333D01*
X120500000Y-84290476D01*
X120547619Y-84242857D01*
X120547619Y-83861904D02*
X120500000Y-83814285D01*
X120452380Y-83719047D01*
X120452380Y-83480952D01*
X120500000Y-83385714D01*
X120547619Y-83338095D01*
X120642857Y-83290476D01*
X120738095Y-83290476D01*
X120880952Y-83338095D01*
X121452380Y-83909523D01*
X121452380Y-83290476D01*
X120452380Y-82957142D02*
X120452380Y-82290476D01*
X121452380Y-82719047D01*
G04 #@! TO.C,JP2*
X113466666Y-68752380D02*
X113466666Y-69466666D01*
X113419047Y-69609523D01*
X113323809Y-69704761D01*
X113180952Y-69752380D01*
X113085714Y-69752380D01*
X113942857Y-69752380D02*
X113942857Y-68752380D01*
X114323809Y-68752380D01*
X114419047Y-68800000D01*
X114466666Y-68847619D01*
X114514285Y-68942857D01*
X114514285Y-69085714D01*
X114466666Y-69180952D01*
X114419047Y-69228571D01*
X114323809Y-69276190D01*
X113942857Y-69276190D01*
X114895238Y-68847619D02*
X114942857Y-68800000D01*
X115038095Y-68752380D01*
X115276190Y-68752380D01*
X115371428Y-68800000D01*
X115419047Y-68847619D01*
X115466666Y-68942857D01*
X115466666Y-69038095D01*
X115419047Y-69180952D01*
X114847619Y-69752380D01*
X115466666Y-69752380D01*
G04 #@! TO.C,R15*
X128757142Y-75952380D02*
X128423809Y-75476190D01*
X128185714Y-75952380D02*
X128185714Y-74952380D01*
X128566666Y-74952380D01*
X128661904Y-75000000D01*
X128709523Y-75047619D01*
X128757142Y-75142857D01*
X128757142Y-75285714D01*
X128709523Y-75380952D01*
X128661904Y-75428571D01*
X128566666Y-75476190D01*
X128185714Y-75476190D01*
X129709523Y-75952380D02*
X129138095Y-75952380D01*
X129423809Y-75952380D02*
X129423809Y-74952380D01*
X129328571Y-75095238D01*
X129233333Y-75190476D01*
X129138095Y-75238095D01*
X130614285Y-74952380D02*
X130138095Y-74952380D01*
X130090476Y-75428571D01*
X130138095Y-75380952D01*
X130233333Y-75333333D01*
X130471428Y-75333333D01*
X130566666Y-75380952D01*
X130614285Y-75428571D01*
X130661904Y-75523809D01*
X130661904Y-75761904D01*
X130614285Y-75857142D01*
X130566666Y-75904761D01*
X130471428Y-75952380D01*
X130233333Y-75952380D01*
X130138095Y-75904761D01*
X130090476Y-75857142D01*
D12*
G04 #@! TO.C,IC3*
X85560238Y-86674523D02*
X85560238Y-85404523D01*
X86890714Y-86553571D02*
X86830238Y-86614047D01*
X86648809Y-86674523D01*
X86527857Y-86674523D01*
X86346428Y-86614047D01*
X86225476Y-86493095D01*
X86165000Y-86372142D01*
X86104523Y-86130238D01*
X86104523Y-85948809D01*
X86165000Y-85706904D01*
X86225476Y-85585952D01*
X86346428Y-85465000D01*
X86527857Y-85404523D01*
X86648809Y-85404523D01*
X86830238Y-85465000D01*
X86890714Y-85525476D01*
X87314047Y-85404523D02*
X88100238Y-85404523D01*
X87676904Y-85888333D01*
X87858333Y-85888333D01*
X87979285Y-85948809D01*
X88039761Y-86009285D01*
X88100238Y-86130238D01*
X88100238Y-86432619D01*
X88039761Y-86553571D01*
X87979285Y-86614047D01*
X87858333Y-86674523D01*
X87495476Y-86674523D01*
X87374523Y-86614047D01*
X87314047Y-86553571D01*
D10*
G04 #@! TO.C,R17*
X129017418Y-66052380D02*
X128684085Y-65576190D01*
X128445990Y-66052380D02*
X128445990Y-65052380D01*
X128826942Y-65052380D01*
X128922180Y-65100000D01*
X128969799Y-65147619D01*
X129017418Y-65242857D01*
X129017418Y-65385714D01*
X128969799Y-65480952D01*
X128922180Y-65528571D01*
X128826942Y-65576190D01*
X128445990Y-65576190D01*
X129969799Y-66052380D02*
X129398371Y-66052380D01*
X129684085Y-66052380D02*
X129684085Y-65052380D01*
X129588847Y-65195238D01*
X129493609Y-65290476D01*
X129398371Y-65338095D01*
X130303133Y-65052380D02*
X130969799Y-65052380D01*
X130541228Y-66052380D01*
G04 #@! TO.C,C5*
X84157142Y-86166666D02*
X84204761Y-86214285D01*
X84252380Y-86357142D01*
X84252380Y-86452380D01*
X84204761Y-86595238D01*
X84109523Y-86690476D01*
X84014285Y-86738095D01*
X83823809Y-86785714D01*
X83680952Y-86785714D01*
X83490476Y-86738095D01*
X83395238Y-86690476D01*
X83300000Y-86595238D01*
X83252380Y-86452380D01*
X83252380Y-86357142D01*
X83300000Y-86214285D01*
X83347619Y-86166666D01*
X83252380Y-85261904D02*
X83252380Y-85738095D01*
X83728571Y-85785714D01*
X83680952Y-85738095D01*
X83633333Y-85642857D01*
X83633333Y-85404761D01*
X83680952Y-85309523D01*
X83728571Y-85261904D01*
X83823809Y-85214285D01*
X84061904Y-85214285D01*
X84157142Y-85261904D01*
X84204761Y-85309523D01*
X84252380Y-85404761D01*
X84252380Y-85642857D01*
X84204761Y-85738095D01*
X84157142Y-85785714D01*
G04 #@! TO.C,R18*
X121557142Y-69852380D02*
X121223809Y-69376190D01*
X120985714Y-69852380D02*
X120985714Y-68852380D01*
X121366666Y-68852380D01*
X121461904Y-68900000D01*
X121509523Y-68947619D01*
X121557142Y-69042857D01*
X121557142Y-69185714D01*
X121509523Y-69280952D01*
X121461904Y-69328571D01*
X121366666Y-69376190D01*
X120985714Y-69376190D01*
X122509523Y-69852380D02*
X121938095Y-69852380D01*
X122223809Y-69852380D02*
X122223809Y-68852380D01*
X122128571Y-68995238D01*
X122033333Y-69090476D01*
X121938095Y-69138095D01*
X123080952Y-69280952D02*
X122985714Y-69233333D01*
X122938095Y-69185714D01*
X122890476Y-69090476D01*
X122890476Y-69042857D01*
X122938095Y-68947619D01*
X122985714Y-68900000D01*
X123080952Y-68852380D01*
X123271428Y-68852380D01*
X123366666Y-68900000D01*
X123414285Y-68947619D01*
X123461904Y-69042857D01*
X123461904Y-69090476D01*
X123414285Y-69185714D01*
X123366666Y-69233333D01*
X123271428Y-69280952D01*
X123080952Y-69280952D01*
X122985714Y-69328571D01*
X122938095Y-69376190D01*
X122890476Y-69471428D01*
X122890476Y-69661904D01*
X122938095Y-69757142D01*
X122985714Y-69804761D01*
X123080952Y-69852380D01*
X123271428Y-69852380D01*
X123366666Y-69804761D01*
X123414285Y-69757142D01*
X123461904Y-69661904D01*
X123461904Y-69471428D01*
X123414285Y-69376190D01*
X123366666Y-69328571D01*
X123271428Y-69280952D01*
G04 #@! TO.C,C14*
X103207142Y-99542857D02*
X103254761Y-99590476D01*
X103302380Y-99733333D01*
X103302380Y-99828571D01*
X103254761Y-99971428D01*
X103159523Y-100066666D01*
X103064285Y-100114285D01*
X102873809Y-100161904D01*
X102730952Y-100161904D01*
X102540476Y-100114285D01*
X102445238Y-100066666D01*
X102350000Y-99971428D01*
X102302380Y-99828571D01*
X102302380Y-99733333D01*
X102350000Y-99590476D01*
X102397619Y-99542857D01*
X103302380Y-98590476D02*
X103302380Y-99161904D01*
X103302380Y-98876190D02*
X102302380Y-98876190D01*
X102445238Y-98971428D01*
X102540476Y-99066666D01*
X102588095Y-99161904D01*
X102635714Y-97733333D02*
X103302380Y-97733333D01*
X102254761Y-97971428D02*
X102969047Y-98209523D01*
X102969047Y-97590476D01*
G04 #@! TO.C,D3*
X89252380Y-76338095D02*
X88252380Y-76338095D01*
X88252380Y-76100000D01*
X88300000Y-75957142D01*
X88395238Y-75861904D01*
X88490476Y-75814285D01*
X88680952Y-75766666D01*
X88823809Y-75766666D01*
X89014285Y-75814285D01*
X89109523Y-75861904D01*
X89204761Y-75957142D01*
X89252380Y-76100000D01*
X89252380Y-76338095D01*
X88252380Y-75433333D02*
X88252380Y-74814285D01*
X88633333Y-75147619D01*
X88633333Y-75004761D01*
X88680952Y-74909523D01*
X88728571Y-74861904D01*
X88823809Y-74814285D01*
X89061904Y-74814285D01*
X89157142Y-74861904D01*
X89204761Y-74909523D01*
X89252380Y-75004761D01*
X89252380Y-75290476D01*
X89204761Y-75385714D01*
X89157142Y-75433333D01*
G04 #@! TO.C,C15*
X123257142Y-101042857D02*
X123304761Y-101090476D01*
X123352380Y-101233333D01*
X123352380Y-101328571D01*
X123304761Y-101471428D01*
X123209523Y-101566666D01*
X123114285Y-101614285D01*
X122923809Y-101661904D01*
X122780952Y-101661904D01*
X122590476Y-101614285D01*
X122495238Y-101566666D01*
X122400000Y-101471428D01*
X122352380Y-101328571D01*
X122352380Y-101233333D01*
X122400000Y-101090476D01*
X122447619Y-101042857D01*
X123352380Y-100090476D02*
X123352380Y-100661904D01*
X123352380Y-100376190D02*
X122352380Y-100376190D01*
X122495238Y-100471428D01*
X122590476Y-100566666D01*
X122638095Y-100661904D01*
X122352380Y-99185714D02*
X122352380Y-99661904D01*
X122828571Y-99709523D01*
X122780952Y-99661904D01*
X122733333Y-99566666D01*
X122733333Y-99328571D01*
X122780952Y-99233333D01*
X122828571Y-99185714D01*
X122923809Y-99138095D01*
X123161904Y-99138095D01*
X123257142Y-99185714D01*
X123304761Y-99233333D01*
X123352380Y-99328571D01*
X123352380Y-99566666D01*
X123304761Y-99661904D01*
X123257142Y-99709523D01*
G04 #@! TO.C,C10*
X120857142Y-90442857D02*
X120904761Y-90490476D01*
X120952380Y-90633333D01*
X120952380Y-90728571D01*
X120904761Y-90871428D01*
X120809523Y-90966666D01*
X120714285Y-91014285D01*
X120523809Y-91061904D01*
X120380952Y-91061904D01*
X120190476Y-91014285D01*
X120095238Y-90966666D01*
X120000000Y-90871428D01*
X119952380Y-90728571D01*
X119952380Y-90633333D01*
X120000000Y-90490476D01*
X120047619Y-90442857D01*
X120952380Y-89490476D02*
X120952380Y-90061904D01*
X120952380Y-89776190D02*
X119952380Y-89776190D01*
X120095238Y-89871428D01*
X120190476Y-89966666D01*
X120238095Y-90061904D01*
X119952380Y-88871428D02*
X119952380Y-88776190D01*
X120000000Y-88680952D01*
X120047619Y-88633333D01*
X120142857Y-88585714D01*
X120333333Y-88538095D01*
X120571428Y-88538095D01*
X120761904Y-88585714D01*
X120857142Y-88633333D01*
X120904761Y-88680952D01*
X120952380Y-88776190D01*
X120952380Y-88871428D01*
X120904761Y-88966666D01*
X120857142Y-89014285D01*
X120761904Y-89061904D01*
X120571428Y-89109523D01*
X120333333Y-89109523D01*
X120142857Y-89061904D01*
X120047619Y-89014285D01*
X120000000Y-88966666D01*
X119952380Y-88871428D01*
G04 #@! TO.C,R3*
X87252380Y-75766666D02*
X86776190Y-76100000D01*
X87252380Y-76338095D02*
X86252380Y-76338095D01*
X86252380Y-75957142D01*
X86300000Y-75861904D01*
X86347619Y-75814285D01*
X86442857Y-75766666D01*
X86585714Y-75766666D01*
X86680952Y-75814285D01*
X86728571Y-75861904D01*
X86776190Y-75957142D01*
X86776190Y-76338095D01*
X86252380Y-75433333D02*
X86252380Y-74814285D01*
X86633333Y-75147619D01*
X86633333Y-75004761D01*
X86680952Y-74909523D01*
X86728571Y-74861904D01*
X86823809Y-74814285D01*
X87061904Y-74814285D01*
X87157142Y-74861904D01*
X87204761Y-74909523D01*
X87252380Y-75004761D01*
X87252380Y-75290476D01*
X87204761Y-75385714D01*
X87157142Y-75433333D01*
G04 #@! TO.C,C18*
X131457142Y-87642857D02*
X131504761Y-87690476D01*
X131552380Y-87833333D01*
X131552380Y-87928571D01*
X131504761Y-88071428D01*
X131409523Y-88166666D01*
X131314285Y-88214285D01*
X131123809Y-88261904D01*
X130980952Y-88261904D01*
X130790476Y-88214285D01*
X130695238Y-88166666D01*
X130600000Y-88071428D01*
X130552380Y-87928571D01*
X130552380Y-87833333D01*
X130600000Y-87690476D01*
X130647619Y-87642857D01*
X131552380Y-86690476D02*
X131552380Y-87261904D01*
X131552380Y-86976190D02*
X130552380Y-86976190D01*
X130695238Y-87071428D01*
X130790476Y-87166666D01*
X130838095Y-87261904D01*
X130980952Y-86119047D02*
X130933333Y-86214285D01*
X130885714Y-86261904D01*
X130790476Y-86309523D01*
X130742857Y-86309523D01*
X130647619Y-86261904D01*
X130600000Y-86214285D01*
X130552380Y-86119047D01*
X130552380Y-85928571D01*
X130600000Y-85833333D01*
X130647619Y-85785714D01*
X130742857Y-85738095D01*
X130790476Y-85738095D01*
X130885714Y-85785714D01*
X130933333Y-85833333D01*
X130980952Y-85928571D01*
X130980952Y-86119047D01*
X131028571Y-86214285D01*
X131076190Y-86261904D01*
X131171428Y-86309523D01*
X131361904Y-86309523D01*
X131457142Y-86261904D01*
X131504761Y-86214285D01*
X131552380Y-86119047D01*
X131552380Y-85928571D01*
X131504761Y-85833333D01*
X131457142Y-85785714D01*
X131361904Y-85738095D01*
X131171428Y-85738095D01*
X131076190Y-85785714D01*
X131028571Y-85833333D01*
X130980952Y-85928571D01*
G04 #@! TO.C,R20*
X135257142Y-76152380D02*
X134923809Y-75676190D01*
X134685714Y-76152380D02*
X134685714Y-75152380D01*
X135066666Y-75152380D01*
X135161904Y-75200000D01*
X135209523Y-75247619D01*
X135257142Y-75342857D01*
X135257142Y-75485714D01*
X135209523Y-75580952D01*
X135161904Y-75628571D01*
X135066666Y-75676190D01*
X134685714Y-75676190D01*
X135638095Y-75247619D02*
X135685714Y-75200000D01*
X135780952Y-75152380D01*
X136019047Y-75152380D01*
X136114285Y-75200000D01*
X136161904Y-75247619D01*
X136209523Y-75342857D01*
X136209523Y-75438095D01*
X136161904Y-75580952D01*
X135590476Y-76152380D01*
X136209523Y-76152380D01*
X136828571Y-75152380D02*
X136923809Y-75152380D01*
X137019047Y-75200000D01*
X137066666Y-75247619D01*
X137114285Y-75342857D01*
X137161904Y-75533333D01*
X137161904Y-75771428D01*
X137114285Y-75961904D01*
X137066666Y-76057142D01*
X137019047Y-76104761D01*
X136923809Y-76152380D01*
X136828571Y-76152380D01*
X136733333Y-76104761D01*
X136685714Y-76057142D01*
X136638095Y-75961904D01*
X136590476Y-75771428D01*
X136590476Y-75533333D01*
X136638095Y-75342857D01*
X136685714Y-75247619D01*
X136733333Y-75200000D01*
X136828571Y-75152380D01*
G04 #@! TO.C,R11*
X101752380Y-63342857D02*
X101276190Y-63676190D01*
X101752380Y-63914285D02*
X100752380Y-63914285D01*
X100752380Y-63533333D01*
X100800000Y-63438095D01*
X100847619Y-63390476D01*
X100942857Y-63342857D01*
X101085714Y-63342857D01*
X101180952Y-63390476D01*
X101228571Y-63438095D01*
X101276190Y-63533333D01*
X101276190Y-63914285D01*
X101752380Y-62390476D02*
X101752380Y-62961904D01*
X101752380Y-62676190D02*
X100752380Y-62676190D01*
X100895238Y-62771428D01*
X100990476Y-62866666D01*
X101038095Y-62961904D01*
X101752380Y-61438095D02*
X101752380Y-62009523D01*
X101752380Y-61723809D02*
X100752380Y-61723809D01*
X100895238Y-61819047D01*
X100990476Y-61914285D01*
X101038095Y-62009523D01*
G04 #@! TO.C,JP5*
X87166666Y-107252380D02*
X87166666Y-107966666D01*
X87119047Y-108109523D01*
X87023809Y-108204761D01*
X86880952Y-108252380D01*
X86785714Y-108252380D01*
X87642857Y-108252380D02*
X87642857Y-107252380D01*
X88023809Y-107252380D01*
X88119047Y-107300000D01*
X88166666Y-107347619D01*
X88214285Y-107442857D01*
X88214285Y-107585714D01*
X88166666Y-107680952D01*
X88119047Y-107728571D01*
X88023809Y-107776190D01*
X87642857Y-107776190D01*
X89119047Y-107252380D02*
X88642857Y-107252380D01*
X88595238Y-107728571D01*
X88642857Y-107680952D01*
X88738095Y-107633333D01*
X88976190Y-107633333D01*
X89071428Y-107680952D01*
X89119047Y-107728571D01*
X89166666Y-107823809D01*
X89166666Y-108061904D01*
X89119047Y-108157142D01*
X89071428Y-108204761D01*
X88976190Y-108252380D01*
X88738095Y-108252380D01*
X88642857Y-108204761D01*
X88595238Y-108157142D01*
G04 #@! TO.C,FB2*
X151398571Y-95033333D02*
X151398571Y-95366666D01*
X151922380Y-95366666D02*
X150922380Y-95366666D01*
X150922380Y-94890476D01*
X151398571Y-94176190D02*
X151446190Y-94033333D01*
X151493809Y-93985714D01*
X151589047Y-93938095D01*
X151731904Y-93938095D01*
X151827142Y-93985714D01*
X151874761Y-94033333D01*
X151922380Y-94128571D01*
X151922380Y-94509523D01*
X150922380Y-94509523D01*
X150922380Y-94176190D01*
X150970000Y-94080952D01*
X151017619Y-94033333D01*
X151112857Y-93985714D01*
X151208095Y-93985714D01*
X151303333Y-94033333D01*
X151350952Y-94080952D01*
X151398571Y-94176190D01*
X151398571Y-94509523D01*
X151017619Y-93557142D02*
X150970000Y-93509523D01*
X150922380Y-93414285D01*
X150922380Y-93176190D01*
X150970000Y-93080952D01*
X151017619Y-93033333D01*
X151112857Y-92985714D01*
X151208095Y-92985714D01*
X151350952Y-93033333D01*
X151922380Y-93604761D01*
X151922380Y-92985714D01*
G04 #@! TO.C,R8*
X113833333Y-66152380D02*
X113500000Y-65676190D01*
X113261904Y-66152380D02*
X113261904Y-65152380D01*
X113642857Y-65152380D01*
X113738095Y-65200000D01*
X113785714Y-65247619D01*
X113833333Y-65342857D01*
X113833333Y-65485714D01*
X113785714Y-65580952D01*
X113738095Y-65628571D01*
X113642857Y-65676190D01*
X113261904Y-65676190D01*
X114404761Y-65580952D02*
X114309523Y-65533333D01*
X114261904Y-65485714D01*
X114214285Y-65390476D01*
X114214285Y-65342857D01*
X114261904Y-65247619D01*
X114309523Y-65200000D01*
X114404761Y-65152380D01*
X114595238Y-65152380D01*
X114690476Y-65200000D01*
X114738095Y-65247619D01*
X114785714Y-65342857D01*
X114785714Y-65390476D01*
X114738095Y-65485714D01*
X114690476Y-65533333D01*
X114595238Y-65580952D01*
X114404761Y-65580952D01*
X114309523Y-65628571D01*
X114261904Y-65676190D01*
X114214285Y-65771428D01*
X114214285Y-65961904D01*
X114261904Y-66057142D01*
X114309523Y-66104761D01*
X114404761Y-66152380D01*
X114595238Y-66152380D01*
X114690476Y-66104761D01*
X114738095Y-66057142D01*
X114785714Y-65961904D01*
X114785714Y-65771428D01*
X114738095Y-65676190D01*
X114690476Y-65628571D01*
X114595238Y-65580952D01*
G04 #@! TO.C,C17*
X100657142Y-120342857D02*
X100704761Y-120390476D01*
X100752380Y-120533333D01*
X100752380Y-120628571D01*
X100704761Y-120771428D01*
X100609523Y-120866666D01*
X100514285Y-120914285D01*
X100323809Y-120961904D01*
X100180952Y-120961904D01*
X99990476Y-120914285D01*
X99895238Y-120866666D01*
X99800000Y-120771428D01*
X99752380Y-120628571D01*
X99752380Y-120533333D01*
X99800000Y-120390476D01*
X99847619Y-120342857D01*
X100752380Y-119390476D02*
X100752380Y-119961904D01*
X100752380Y-119676190D02*
X99752380Y-119676190D01*
X99895238Y-119771428D01*
X99990476Y-119866666D01*
X100038095Y-119961904D01*
X99752380Y-119057142D02*
X99752380Y-118390476D01*
X100752380Y-118819047D01*
G04 #@! TO.C,R7*
X107033333Y-69252380D02*
X106700000Y-68776190D01*
X106461904Y-69252380D02*
X106461904Y-68252380D01*
X106842857Y-68252380D01*
X106938095Y-68300000D01*
X106985714Y-68347619D01*
X107033333Y-68442857D01*
X107033333Y-68585714D01*
X106985714Y-68680952D01*
X106938095Y-68728571D01*
X106842857Y-68776190D01*
X106461904Y-68776190D01*
X107366666Y-68252380D02*
X108033333Y-68252380D01*
X107604761Y-69252380D01*
G04 #@! TO.C,FB5*
X95028571Y-88408333D02*
X95028571Y-88741666D01*
X95552380Y-88741666D02*
X94552380Y-88741666D01*
X94552380Y-88265476D01*
X95028571Y-87551190D02*
X95076190Y-87408333D01*
X95123809Y-87360714D01*
X95219047Y-87313095D01*
X95361904Y-87313095D01*
X95457142Y-87360714D01*
X95504761Y-87408333D01*
X95552380Y-87503571D01*
X95552380Y-87884523D01*
X94552380Y-87884523D01*
X94552380Y-87551190D01*
X94600000Y-87455952D01*
X94647619Y-87408333D01*
X94742857Y-87360714D01*
X94838095Y-87360714D01*
X94933333Y-87408333D01*
X94980952Y-87455952D01*
X95028571Y-87551190D01*
X95028571Y-87884523D01*
X94552380Y-86408333D02*
X94552380Y-86884523D01*
X95028571Y-86932142D01*
X94980952Y-86884523D01*
X94933333Y-86789285D01*
X94933333Y-86551190D01*
X94980952Y-86455952D01*
X95028571Y-86408333D01*
X95123809Y-86360714D01*
X95361904Y-86360714D01*
X95457142Y-86408333D01*
X95504761Y-86455952D01*
X95552380Y-86551190D01*
X95552380Y-86789285D01*
X95504761Y-86884523D01*
X95457142Y-86932142D01*
G04 #@! TO.C,R6*
X113833333Y-77052380D02*
X113500000Y-76576190D01*
X113261904Y-77052380D02*
X113261904Y-76052380D01*
X113642857Y-76052380D01*
X113738095Y-76100000D01*
X113785714Y-76147619D01*
X113833333Y-76242857D01*
X113833333Y-76385714D01*
X113785714Y-76480952D01*
X113738095Y-76528571D01*
X113642857Y-76576190D01*
X113261904Y-76576190D01*
X114690476Y-76052380D02*
X114500000Y-76052380D01*
X114404761Y-76100000D01*
X114357142Y-76147619D01*
X114261904Y-76290476D01*
X114214285Y-76480952D01*
X114214285Y-76861904D01*
X114261904Y-76957142D01*
X114309523Y-77004761D01*
X114404761Y-77052380D01*
X114595238Y-77052380D01*
X114690476Y-77004761D01*
X114738095Y-76957142D01*
X114785714Y-76861904D01*
X114785714Y-76623809D01*
X114738095Y-76528571D01*
X114690476Y-76480952D01*
X114595238Y-76433333D01*
X114404761Y-76433333D01*
X114309523Y-76480952D01*
X114261904Y-76528571D01*
X114214285Y-76623809D01*
G04 #@! TO.C,C11*
X122557142Y-87942857D02*
X122604761Y-87990476D01*
X122652380Y-88133333D01*
X122652380Y-88228571D01*
X122604761Y-88371428D01*
X122509523Y-88466666D01*
X122414285Y-88514285D01*
X122223809Y-88561904D01*
X122080952Y-88561904D01*
X121890476Y-88514285D01*
X121795238Y-88466666D01*
X121700000Y-88371428D01*
X121652380Y-88228571D01*
X121652380Y-88133333D01*
X121700000Y-87990476D01*
X121747619Y-87942857D01*
X122652380Y-86990476D02*
X122652380Y-87561904D01*
X122652380Y-87276190D02*
X121652380Y-87276190D01*
X121795238Y-87371428D01*
X121890476Y-87466666D01*
X121938095Y-87561904D01*
X122652380Y-86038095D02*
X122652380Y-86609523D01*
X122652380Y-86323809D02*
X121652380Y-86323809D01*
X121795238Y-86419047D01*
X121890476Y-86514285D01*
X121938095Y-86609523D01*
G04 #@! TO.C,JP4*
X104966666Y-65052380D02*
X104966666Y-65766666D01*
X104919047Y-65909523D01*
X104823809Y-66004761D01*
X104680952Y-66052380D01*
X104585714Y-66052380D01*
X105442857Y-66052380D02*
X105442857Y-65052380D01*
X105823809Y-65052380D01*
X105919047Y-65100000D01*
X105966666Y-65147619D01*
X106014285Y-65242857D01*
X106014285Y-65385714D01*
X105966666Y-65480952D01*
X105919047Y-65528571D01*
X105823809Y-65576190D01*
X105442857Y-65576190D01*
X106871428Y-65385714D02*
X106871428Y-66052380D01*
X106633333Y-65004761D02*
X106395238Y-65719047D01*
X107014285Y-65719047D01*
G04 #@! TO.C,D2*
X86361904Y-117952380D02*
X86361904Y-116952380D01*
X86600000Y-116952380D01*
X86742857Y-117000000D01*
X86838095Y-117095238D01*
X86885714Y-117190476D01*
X86933333Y-117380952D01*
X86933333Y-117523809D01*
X86885714Y-117714285D01*
X86838095Y-117809523D01*
X86742857Y-117904761D01*
X86600000Y-117952380D01*
X86361904Y-117952380D01*
X87314285Y-117047619D02*
X87361904Y-117000000D01*
X87457142Y-116952380D01*
X87695238Y-116952380D01*
X87790476Y-117000000D01*
X87838095Y-117047619D01*
X87885714Y-117142857D01*
X87885714Y-117238095D01*
X87838095Y-117380952D01*
X87266666Y-117952380D01*
X87885714Y-117952380D01*
G04 #@! TO.C,C7*
X101307142Y-105116666D02*
X101354761Y-105164285D01*
X101402380Y-105307142D01*
X101402380Y-105402380D01*
X101354761Y-105545238D01*
X101259523Y-105640476D01*
X101164285Y-105688095D01*
X100973809Y-105735714D01*
X100830952Y-105735714D01*
X100640476Y-105688095D01*
X100545238Y-105640476D01*
X100450000Y-105545238D01*
X100402380Y-105402380D01*
X100402380Y-105307142D01*
X100450000Y-105164285D01*
X100497619Y-105116666D01*
X100402380Y-104783333D02*
X100402380Y-104116666D01*
X101402380Y-104545238D01*
G04 #@! TO.C,JP3*
X103752380Y-55433333D02*
X104466666Y-55433333D01*
X104609523Y-55480952D01*
X104704761Y-55576190D01*
X104752380Y-55719047D01*
X104752380Y-55814285D01*
X104752380Y-54957142D02*
X103752380Y-54957142D01*
X103752380Y-54576190D01*
X103800000Y-54480952D01*
X103847619Y-54433333D01*
X103942857Y-54385714D01*
X104085714Y-54385714D01*
X104180952Y-54433333D01*
X104228571Y-54480952D01*
X104276190Y-54576190D01*
X104276190Y-54957142D01*
X103752380Y-54052380D02*
X103752380Y-53433333D01*
X104133333Y-53766666D01*
X104133333Y-53623809D01*
X104180952Y-53528571D01*
X104228571Y-53480952D01*
X104323809Y-53433333D01*
X104561904Y-53433333D01*
X104657142Y-53480952D01*
X104704761Y-53528571D01*
X104752380Y-53623809D01*
X104752380Y-53909523D01*
X104704761Y-54004761D01*
X104657142Y-54052380D01*
G04 #@! TO.C,FB4*
X77328571Y-88333333D02*
X77328571Y-88666666D01*
X77852380Y-88666666D02*
X76852380Y-88666666D01*
X76852380Y-88190476D01*
X77328571Y-87476190D02*
X77376190Y-87333333D01*
X77423809Y-87285714D01*
X77519047Y-87238095D01*
X77661904Y-87238095D01*
X77757142Y-87285714D01*
X77804761Y-87333333D01*
X77852380Y-87428571D01*
X77852380Y-87809523D01*
X76852380Y-87809523D01*
X76852380Y-87476190D01*
X76900000Y-87380952D01*
X76947619Y-87333333D01*
X77042857Y-87285714D01*
X77138095Y-87285714D01*
X77233333Y-87333333D01*
X77280952Y-87380952D01*
X77328571Y-87476190D01*
X77328571Y-87809523D01*
X77185714Y-86380952D02*
X77852380Y-86380952D01*
X76804761Y-86619047D02*
X77519047Y-86857142D01*
X77519047Y-86238095D01*
G04 #@! TO.C,FB6*
X105928571Y-90833333D02*
X105928571Y-91166666D01*
X106452380Y-91166666D02*
X105452380Y-91166666D01*
X105452380Y-90690476D01*
X105928571Y-89976190D02*
X105976190Y-89833333D01*
X106023809Y-89785714D01*
X106119047Y-89738095D01*
X106261904Y-89738095D01*
X106357142Y-89785714D01*
X106404761Y-89833333D01*
X106452380Y-89928571D01*
X106452380Y-90309523D01*
X105452380Y-90309523D01*
X105452380Y-89976190D01*
X105500000Y-89880952D01*
X105547619Y-89833333D01*
X105642857Y-89785714D01*
X105738095Y-89785714D01*
X105833333Y-89833333D01*
X105880952Y-89880952D01*
X105928571Y-89976190D01*
X105928571Y-90309523D01*
X105452380Y-88880952D02*
X105452380Y-89071428D01*
X105500000Y-89166666D01*
X105547619Y-89214285D01*
X105690476Y-89309523D01*
X105880952Y-89357142D01*
X106261904Y-89357142D01*
X106357142Y-89309523D01*
X106404761Y-89261904D01*
X106452380Y-89166666D01*
X106452380Y-88976190D01*
X106404761Y-88880952D01*
X106357142Y-88833333D01*
X106261904Y-88785714D01*
X106023809Y-88785714D01*
X105928571Y-88833333D01*
X105880952Y-88880952D01*
X105833333Y-88976190D01*
X105833333Y-89166666D01*
X105880952Y-89261904D01*
X105928571Y-89309523D01*
X106023809Y-89357142D01*
G04 #@! TO.C,C2*
X112757142Y-93466666D02*
X112804761Y-93514285D01*
X112852380Y-93657142D01*
X112852380Y-93752380D01*
X112804761Y-93895238D01*
X112709523Y-93990476D01*
X112614285Y-94038095D01*
X112423809Y-94085714D01*
X112280952Y-94085714D01*
X112090476Y-94038095D01*
X111995238Y-93990476D01*
X111900000Y-93895238D01*
X111852380Y-93752380D01*
X111852380Y-93657142D01*
X111900000Y-93514285D01*
X111947619Y-93466666D01*
X111947619Y-93085714D02*
X111900000Y-93038095D01*
X111852380Y-92942857D01*
X111852380Y-92704761D01*
X111900000Y-92609523D01*
X111947619Y-92561904D01*
X112042857Y-92514285D01*
X112138095Y-92514285D01*
X112280952Y-92561904D01*
X112852380Y-93133333D01*
X112852380Y-92514285D01*
D13*
G04 #@! TO.C,C28*
X95446267Y-107290000D02*
X95153733Y-107290000D01*
X95446267Y-108310000D02*
X95153733Y-108310000D01*
G04 #@! TO.C,R2*
X89682776Y-119377500D02*
X90192224Y-119377500D01*
X89682776Y-120422500D02*
X90192224Y-120422500D01*
G04 #@! TO.C,C29*
X97660000Y-102003733D02*
X97660000Y-102296267D01*
X96640000Y-102003733D02*
X96640000Y-102296267D01*
G04 #@! TO.C,JP9*
X121072500Y-71337500D02*
X121072500Y-73137500D01*
X125572500Y-71237500D02*
X125572500Y-71337500D01*
X121072500Y-73237500D02*
X121072500Y-73137500D01*
X125472500Y-71237500D02*
X125572500Y-71237500D01*
X121072500Y-71237500D02*
X121172500Y-71237500D01*
X121172500Y-71237500D02*
X125472500Y-71237500D01*
X121172500Y-73237500D02*
X121072500Y-73237500D01*
X125572500Y-73237500D02*
X125472500Y-73237500D01*
X125472500Y-73237500D02*
X121172500Y-73237500D01*
X125572500Y-73137500D02*
X125572500Y-71337500D01*
X121072500Y-71337500D02*
X121072500Y-71237500D01*
X125572500Y-73137500D02*
X125572500Y-73237500D01*
G04 #@! TO.C,R4*
X76954724Y-99077500D02*
X76445276Y-99077500D01*
X76954724Y-100122500D02*
X76445276Y-100122500D01*
G04 #@! TO.C,R21*
X143969724Y-66027500D02*
X143460276Y-66027500D01*
X143969724Y-67072500D02*
X143460276Y-67072500D01*
G04 #@! TO.C,C4*
X86010000Y-114553733D02*
X86010000Y-114846267D01*
X84990000Y-114553733D02*
X84990000Y-114846267D01*
G04 #@! TO.C,R22*
X136260276Y-66227500D02*
X136769724Y-66227500D01*
X136260276Y-67272500D02*
X136769724Y-67272500D01*
G04 #@! TO.C,C24*
X116910000Y-92853733D02*
X116910000Y-93146267D01*
X115890000Y-92853733D02*
X115890000Y-93146267D01*
G04 #@! TO.C,C3*
X114610000Y-97853733D02*
X114610000Y-98146267D01*
X113590000Y-97853733D02*
X113590000Y-98146267D01*
G04 #@! TO.C,C12*
X119710000Y-98791233D02*
X119710000Y-99083767D01*
X118690000Y-98791233D02*
X118690000Y-99083767D01*
G04 #@! TO.C,C20*
X137646267Y-82510000D02*
X137353733Y-82510000D01*
X137646267Y-81490000D02*
X137353733Y-81490000D01*
G04 #@! TO.C,JP7*
X90642500Y-102712500D02*
X86342500Y-102712500D01*
X90742500Y-100712500D02*
X90742500Y-100812500D01*
X86242500Y-100712500D02*
X86342500Y-100712500D01*
X90742500Y-102612500D02*
X90742500Y-100812500D01*
X86342500Y-100712500D02*
X90642500Y-100712500D01*
X90642500Y-100712500D02*
X90742500Y-100712500D01*
X86242500Y-100812500D02*
X86242500Y-100712500D01*
X90742500Y-102712500D02*
X90642500Y-102712500D01*
X90742500Y-102612500D02*
X90742500Y-102712500D01*
X86242500Y-102712500D02*
X86242500Y-102612500D01*
X86342500Y-102712500D02*
X86242500Y-102712500D01*
X86242500Y-100812500D02*
X86242500Y-102612500D01*
G04 #@! TO.C,C8*
X118910000Y-92853733D02*
X118910000Y-93146267D01*
X117890000Y-92853733D02*
X117890000Y-93146267D01*
G04 #@! TO.C,C19*
X127690000Y-83653733D02*
X127690000Y-83946267D01*
X128710000Y-83653733D02*
X128710000Y-83946267D01*
G04 #@! TO.C,R5*
X108154724Y-73877500D02*
X107645276Y-73877500D01*
X108154724Y-74922500D02*
X107645276Y-74922500D01*
G04 #@! TO.C,R16*
X122682224Y-75727500D02*
X122172776Y-75727500D01*
X122682224Y-76772500D02*
X122172776Y-76772500D01*
D11*
G04 #@! TO.C,Y1*
X102450000Y-110800000D02*
X102450000Y-110800000D01*
X102650000Y-110800000D02*
X102650000Y-110800000D01*
X102650000Y-110800000D02*
G75*
G03*
X102450000Y-110800000I-100000J0D01*
G01*
X102450000Y-110800000D02*
G75*
G03*
X102650000Y-110800000I100000J0D01*
G01*
D13*
G04 #@! TO.C,FB1*
X148210000Y-94371267D02*
X148210000Y-94028733D01*
X147190000Y-94371267D02*
X147190000Y-94028733D01*
D11*
G04 #@! TO.C,IC1*
X94775489Y-96550000D02*
X94775489Y-97750000D01*
D13*
G04 #@! TO.C,C21*
X137646267Y-85610000D02*
X137353733Y-85610000D01*
X137646267Y-84590000D02*
X137353733Y-84590000D01*
G04 #@! TO.C,R10*
X103322500Y-55154724D02*
X103322500Y-54645276D01*
X102277500Y-55154724D02*
X102277500Y-54645276D01*
G04 #@! TO.C,J2*
X119390000Y-59680000D02*
X118060000Y-59680000D01*
X120660000Y-57020000D02*
X143580000Y-57020000D01*
X143580000Y-59680000D02*
X143580000Y-57020000D01*
X118060000Y-59680000D02*
X118060000Y-58350000D01*
X120660000Y-59680000D02*
X120660000Y-57020000D01*
X120660000Y-59680000D02*
X143580000Y-59680000D01*
G04 #@! TO.C,R13*
X110222500Y-63154724D02*
X110222500Y-62645276D01*
X109177500Y-63154724D02*
X109177500Y-62645276D01*
G04 #@! TO.C,D4*
X77537500Y-100565000D02*
X75077500Y-100565000D01*
X75077500Y-100565000D02*
X75077500Y-102035000D01*
X75077500Y-102035000D02*
X77537500Y-102035000D01*
G04 #@! TO.C,C26*
X124890000Y-83653733D02*
X124890000Y-83946267D01*
X125910000Y-83653733D02*
X125910000Y-83946267D01*
G04 #@! TO.C,R19*
X143982224Y-74027500D02*
X143472776Y-74027500D01*
X143982224Y-75072500D02*
X143472776Y-75072500D01*
G04 #@! TO.C,JP11*
X139372500Y-71637500D02*
X139272500Y-71637500D01*
X139372500Y-71537500D02*
X139372500Y-69737500D01*
X139372500Y-69637500D02*
X139372500Y-69737500D01*
X134872500Y-69737500D02*
X134872500Y-69637500D01*
X134972500Y-69637500D02*
X139272500Y-69637500D01*
X134872500Y-69737500D02*
X134872500Y-71537500D01*
X139372500Y-71537500D02*
X139372500Y-71637500D01*
X139272500Y-71637500D02*
X134972500Y-71637500D01*
X134972500Y-71637500D02*
X134872500Y-71637500D01*
X139272500Y-69637500D02*
X139372500Y-69637500D01*
X134872500Y-71637500D02*
X134872500Y-71537500D01*
X134872500Y-69637500D02*
X134972500Y-69637500D01*
G04 #@! TO.C,C6*
X95610000Y-116383767D02*
X95610000Y-116091233D01*
X94590000Y-116383767D02*
X94590000Y-116091233D01*
G04 #@! TO.C,R23*
X94554724Y-112322500D02*
X94045276Y-112322500D01*
X94554724Y-111277500D02*
X94045276Y-111277500D01*
G04 #@! TO.C,C13*
X135746267Y-80110000D02*
X135453733Y-80110000D01*
X135746267Y-79090000D02*
X135453733Y-79090000D01*
D11*
G04 #@! TO.C,IC2*
X89475000Y-113250000D02*
X89475000Y-116150000D01*
X87325000Y-113200000D02*
X88475000Y-113200000D01*
X89475000Y-116150000D02*
X88825000Y-116150000D01*
X88825000Y-113250000D02*
X89475000Y-113250000D01*
X88825000Y-116150000D02*
X88825000Y-113250000D01*
D13*
G04 #@! TO.C,D1*
X109760000Y-100765000D02*
X107300000Y-100765000D01*
X107300000Y-102235000D02*
X109760000Y-102235000D01*
X109760000Y-102235000D02*
X109760000Y-100765000D01*
G04 #@! TO.C,JP1*
X106400000Y-69800000D02*
X106500000Y-69800000D01*
X106400000Y-69900000D02*
X106400000Y-69800000D01*
X110900000Y-71800000D02*
X110800000Y-71800000D01*
X106500000Y-69800000D02*
X110800000Y-69800000D01*
X106400000Y-71800000D02*
X106400000Y-71700000D01*
X110800000Y-71800000D02*
X106500000Y-71800000D01*
X110800000Y-69800000D02*
X110900000Y-69800000D01*
X110900000Y-69800000D02*
X110900000Y-69900000D01*
X106500000Y-71800000D02*
X106400000Y-71800000D01*
X106400000Y-69900000D02*
X106400000Y-71700000D01*
X110900000Y-71700000D02*
X110900000Y-71800000D01*
X110900000Y-71700000D02*
X110900000Y-69900000D01*
G04 #@! TO.C,C22*
X137646267Y-87490000D02*
X137353733Y-87490000D01*
X137646267Y-88510000D02*
X137353733Y-88510000D01*
D11*
G04 #@! TO.C,Y2*
X102550000Y-118175000D02*
X102550000Y-118175000D01*
X102750000Y-118175000D02*
X102750000Y-118175000D01*
X102550000Y-118175000D02*
G75*
G03*
X102750000Y-118175000I100000J0D01*
G01*
X102750000Y-118175000D02*
G75*
G03*
X102550000Y-118175000I-100000J0D01*
G01*
D13*
G04 #@! TO.C,C25*
X81490000Y-83508767D02*
X81490000Y-83216233D01*
X82510000Y-83508767D02*
X82510000Y-83216233D01*
G04 #@! TO.C,U1*
X127700000Y-98310000D02*
X125500000Y-98310000D01*
X127700000Y-90290000D02*
X129900000Y-90290000D01*
X127700000Y-98310000D02*
X129900000Y-98310000D01*
X127700000Y-90290000D02*
X124100000Y-90290000D01*
G04 #@! TO.C,JP6*
X91112500Y-99657500D02*
X91112500Y-99757500D01*
X91012500Y-95257500D02*
X91112500Y-95257500D01*
X89112500Y-99657500D02*
X89112500Y-95357500D01*
X89112500Y-95257500D02*
X89212500Y-95257500D01*
X89112500Y-99757500D02*
X89112500Y-99657500D01*
X91012500Y-95257500D02*
X89212500Y-95257500D01*
X89112500Y-95357500D02*
X89112500Y-95257500D01*
X89212500Y-99757500D02*
X91012500Y-99757500D01*
X91112500Y-95257500D02*
X91112500Y-95357500D01*
X91112500Y-99757500D02*
X91012500Y-99757500D01*
X91112500Y-95357500D02*
X91112500Y-99657500D01*
X89212500Y-99757500D02*
X89112500Y-99757500D01*
D10*
G04 #@! TO.C,J4*
X77400000Y-110400000D02*
X77400000Y-111400000D01*
X71700000Y-112450000D02*
X71700000Y-112750000D01*
X74250000Y-112750000D02*
X75650000Y-112750000D01*
X77825000Y-107525000D02*
X77825000Y-106800000D01*
X71250000Y-112450000D02*
X71700000Y-112450000D01*
X75650000Y-104450000D02*
X74250000Y-104450000D01*
X71700000Y-104750000D02*
X71250000Y-104750000D01*
X71700000Y-112750000D02*
X71850000Y-112750000D01*
X77825000Y-106800000D02*
X77400000Y-106800000D01*
X77400000Y-106800000D02*
X77400000Y-105800000D01*
X71700000Y-104450000D02*
X71700000Y-104750000D01*
X71850000Y-104450000D02*
X71700000Y-104450000D01*
D11*
G04 #@! TO.C,IC4*
X91950000Y-104600000D02*
X91950000Y-104000000D01*
X94850000Y-104000000D02*
X94850000Y-104600000D01*
X95000000Y-102450000D02*
X95000000Y-103650000D01*
X94850000Y-104600000D02*
X91950000Y-104600000D01*
X91950000Y-104000000D02*
X94850000Y-104000000D01*
D13*
G04 #@! TO.C,R1*
X108367224Y-100122500D02*
X107857776Y-100122500D01*
X108367224Y-99077500D02*
X107857776Y-99077500D01*
G04 #@! TO.C,C23*
X137646267Y-91410000D02*
X137353733Y-91410000D01*
X137646267Y-90390000D02*
X137353733Y-90390000D01*
G04 #@! TO.C,JP10*
X142057500Y-69762500D02*
X142057500Y-71562500D01*
X146557500Y-69662500D02*
X146557500Y-69762500D01*
X142157500Y-71662500D02*
X142057500Y-71662500D01*
X142057500Y-69662500D02*
X142157500Y-69662500D01*
X146557500Y-71562500D02*
X146557500Y-71662500D01*
X146457500Y-71662500D02*
X142157500Y-71662500D01*
X146557500Y-71662500D02*
X146457500Y-71662500D01*
X142057500Y-71662500D02*
X142057500Y-71562500D01*
X146457500Y-69662500D02*
X146557500Y-69662500D01*
X146557500Y-71562500D02*
X146557500Y-69762500D01*
X142157500Y-69662500D02*
X146457500Y-69662500D01*
X142057500Y-69762500D02*
X142057500Y-69662500D01*
G04 #@! TO.C,C1*
X99890000Y-110646267D02*
X99890000Y-110353733D01*
X100910000Y-110646267D02*
X100910000Y-110353733D01*
G04 #@! TO.C,FB3*
X100810000Y-89071267D02*
X100810000Y-88728733D01*
X99790000Y-89071267D02*
X99790000Y-88728733D01*
G04 #@! TO.C,R12*
X108677500Y-55254724D02*
X108677500Y-54745276D01*
X109722500Y-55254724D02*
X109722500Y-54745276D01*
G04 #@! TO.C,JP8*
X132957500Y-71262500D02*
X132957500Y-69462500D01*
X128457500Y-69462500D02*
X128457500Y-71262500D01*
X132957500Y-71262500D02*
X132957500Y-71362500D01*
X132957500Y-69362500D02*
X132957500Y-69462500D01*
X128457500Y-69462500D02*
X128457500Y-69362500D01*
X132857500Y-71362500D02*
X128557500Y-71362500D01*
X128557500Y-69362500D02*
X132857500Y-69362500D01*
X128457500Y-71362500D02*
X128457500Y-71262500D01*
X128457500Y-69362500D02*
X128557500Y-69362500D01*
X132857500Y-69362500D02*
X132957500Y-69362500D01*
X128557500Y-71362500D02*
X128457500Y-71362500D01*
X132957500Y-71362500D02*
X132857500Y-71362500D01*
G04 #@! TO.C,C16*
X99560000Y-102296267D02*
X99560000Y-102003733D01*
X98540000Y-102296267D02*
X98540000Y-102003733D01*
G04 #@! TO.C,J1*
X119675000Y-119030000D02*
X118345000Y-119030000D01*
X120945000Y-116370000D02*
X143865000Y-116370000D01*
X143865000Y-119030000D02*
X143865000Y-116370000D01*
X120945000Y-119030000D02*
X120945000Y-116370000D01*
X118345000Y-119030000D02*
X118345000Y-117700000D01*
X120945000Y-119030000D02*
X143865000Y-119030000D01*
G04 #@! TO.C,C9*
X84310000Y-114553733D02*
X84310000Y-114846267D01*
X83290000Y-114553733D02*
X83290000Y-114846267D01*
G04 #@! TO.C,C27*
X121990000Y-83653733D02*
X121990000Y-83946267D01*
X123010000Y-83653733D02*
X123010000Y-83946267D01*
G04 #@! TO.C,JP2*
X117657500Y-70287500D02*
X117757500Y-70287500D01*
X113257500Y-70387500D02*
X113257500Y-72187500D01*
X113257500Y-70387500D02*
X113257500Y-70287500D01*
X113257500Y-70287500D02*
X113357500Y-70287500D01*
X117757500Y-72287500D02*
X117657500Y-72287500D01*
X117657500Y-72287500D02*
X113357500Y-72287500D01*
X113357500Y-72287500D02*
X113257500Y-72287500D01*
X117757500Y-72187500D02*
X117757500Y-72287500D01*
X113357500Y-70287500D02*
X117657500Y-70287500D01*
X113257500Y-72287500D02*
X113257500Y-72187500D01*
X117757500Y-72187500D02*
X117757500Y-70387500D01*
X117757500Y-70287500D02*
X117757500Y-70387500D01*
G04 #@! TO.C,R15*
X130069724Y-74472500D02*
X129560276Y-74472500D01*
X130069724Y-73427500D02*
X129560276Y-73427500D01*
D11*
G04 #@! TO.C,IC3*
X87075000Y-84850000D02*
X87075000Y-81950000D01*
X85575000Y-81900000D02*
X86725000Y-81900000D01*
X87725000Y-84850000D02*
X87075000Y-84850000D01*
X87075000Y-81950000D02*
X87725000Y-81950000D01*
X87725000Y-81950000D02*
X87725000Y-84850000D01*
D13*
G04 #@! TO.C,R17*
X130169724Y-66427500D02*
X129660276Y-66427500D01*
X130169724Y-67472500D02*
X129660276Y-67472500D01*
G04 #@! TO.C,J3*
X141070000Y-91245000D02*
X143730000Y-91245000D01*
X141070000Y-114165000D02*
X143730000Y-114165000D01*
X141070000Y-91245000D02*
X141070000Y-114165000D01*
X141070000Y-89975000D02*
X141070000Y-88645000D01*
X143730000Y-91245000D02*
X143730000Y-114165000D01*
X141070000Y-88645000D02*
X142400000Y-88645000D01*
G04 #@! TO.C,C5*
X84310000Y-83446267D02*
X84310000Y-83153733D01*
X83290000Y-83446267D02*
X83290000Y-83153733D01*
G04 #@! TO.C,R18*
X122272776Y-67327500D02*
X122782224Y-67327500D01*
X122272776Y-68372500D02*
X122782224Y-68372500D01*
G04 #@! TO.C,C14*
X103260000Y-102296267D02*
X103260000Y-102003733D01*
X102240000Y-102296267D02*
X102240000Y-102003733D01*
G04 #@! TO.C,D3*
X89435000Y-76765000D02*
X87965000Y-76765000D01*
X89435000Y-79225000D02*
X89435000Y-76765000D01*
X87965000Y-76765000D02*
X87965000Y-79225000D01*
G04 #@! TO.C,C15*
X120790000Y-98791233D02*
X120790000Y-99083767D01*
X121810000Y-98791233D02*
X121810000Y-99083767D01*
G04 #@! TO.C,C10*
X121010000Y-92853733D02*
X121010000Y-93146267D01*
X119990000Y-92853733D02*
X119990000Y-93146267D01*
G04 #@! TO.C,R3*
X86177500Y-78132776D02*
X86177500Y-78642224D01*
X87222500Y-78132776D02*
X87222500Y-78642224D01*
G04 #@! TO.C,C18*
X130590000Y-83653733D02*
X130590000Y-83946267D01*
X131610000Y-83653733D02*
X131610000Y-83946267D01*
G04 #@! TO.C,R20*
X136469724Y-73627500D02*
X135960276Y-73627500D01*
X136469724Y-74672500D02*
X135960276Y-74672500D01*
G04 #@! TO.C,R11*
X103222500Y-62645276D02*
X103222500Y-63154724D01*
X102177500Y-62645276D02*
X102177500Y-63154724D01*
G04 #@! TO.C,JP5*
X87157500Y-108887500D02*
X87157500Y-110687500D01*
X91557500Y-108787500D02*
X91657500Y-108787500D01*
X91657500Y-110787500D02*
X91557500Y-110787500D01*
X91657500Y-108787500D02*
X91657500Y-108887500D01*
X87257500Y-108787500D02*
X91557500Y-108787500D01*
X87157500Y-110787500D02*
X87157500Y-110687500D01*
X91657500Y-110687500D02*
X91657500Y-108887500D01*
X91557500Y-110787500D02*
X87257500Y-110787500D01*
X87157500Y-108887500D02*
X87157500Y-108787500D01*
X91657500Y-110687500D02*
X91657500Y-110787500D01*
X87257500Y-110787500D02*
X87157500Y-110787500D01*
X87157500Y-108787500D02*
X87257500Y-108787500D01*
G04 #@! TO.C,FB2*
X153410000Y-94371267D02*
X153410000Y-94028733D01*
X152390000Y-94371267D02*
X152390000Y-94028733D01*
G04 #@! TO.C,R8*
X114657776Y-66677500D02*
X115167224Y-66677500D01*
X114657776Y-67722500D02*
X115167224Y-67722500D01*
G04 #@! TO.C,C17*
X100910000Y-116253733D02*
X100910000Y-116546267D01*
X99890000Y-116253733D02*
X99890000Y-116546267D01*
G04 #@! TO.C,R7*
X108254724Y-67822500D02*
X107745276Y-67822500D01*
X108254724Y-66777500D02*
X107745276Y-66777500D01*
G04 #@! TO.C,FB5*
X92990000Y-87403733D02*
X92990000Y-87746267D01*
X94010000Y-87403733D02*
X94010000Y-87746267D01*
G04 #@! TO.C,R6*
X115154724Y-75622500D02*
X114645276Y-75622500D01*
X115154724Y-74577500D02*
X114645276Y-74577500D01*
G04 #@! TO.C,C11*
X123310000Y-90453733D02*
X123310000Y-90746267D01*
X122290000Y-90453733D02*
X122290000Y-90746267D01*
G04 #@! TO.C,JP4*
X105387500Y-60142500D02*
X105387500Y-60042500D01*
X105487500Y-64542500D02*
X105387500Y-64542500D01*
X107287500Y-60042500D02*
X107387500Y-60042500D01*
X105387500Y-60042500D02*
X105487500Y-60042500D01*
X105487500Y-64542500D02*
X107287500Y-64542500D01*
X107387500Y-64442500D02*
X107387500Y-64542500D01*
X105387500Y-64442500D02*
X105387500Y-60142500D01*
X107387500Y-60142500D02*
X107387500Y-64442500D01*
X107287500Y-60042500D02*
X105487500Y-60042500D01*
X105387500Y-64542500D02*
X105387500Y-64442500D01*
X107387500Y-60042500D02*
X107387500Y-60142500D01*
X107387500Y-64542500D02*
X107287500Y-64542500D01*
G04 #@! TO.C,D2*
X88315000Y-118235000D02*
X90775000Y-118235000D01*
X88315000Y-116765000D02*
X88315000Y-118235000D01*
X90775000Y-116765000D02*
X88315000Y-116765000D01*
G04 #@! TO.C,C7*
X100340000Y-102296267D02*
X100340000Y-102003733D01*
X101360000Y-102296267D02*
X101360000Y-102003733D01*
G04 #@! TO.C,JP3*
X105187500Y-53342500D02*
X105287500Y-53342500D01*
X105287500Y-57842500D02*
X107087500Y-57842500D01*
X105187500Y-57842500D02*
X105187500Y-57742500D01*
X105187500Y-57742500D02*
X105187500Y-53442500D01*
X107187500Y-57742500D02*
X107187500Y-57842500D01*
X105187500Y-53442500D02*
X105187500Y-53342500D01*
X107087500Y-53342500D02*
X105287500Y-53342500D01*
X107187500Y-53342500D02*
X107187500Y-53442500D01*
X107087500Y-53342500D02*
X107187500Y-53342500D01*
X107187500Y-57842500D02*
X107087500Y-57842500D01*
X107187500Y-53442500D02*
X107187500Y-57742500D01*
X105287500Y-57842500D02*
X105187500Y-57842500D01*
G04 #@! TO.C,FB4*
X76310000Y-87328733D02*
X76310000Y-87671267D01*
X75290000Y-87328733D02*
X75290000Y-87671267D01*
G04 #@! TO.C,FB6*
X104910000Y-89828733D02*
X104910000Y-90171267D01*
X103890000Y-89828733D02*
X103890000Y-90171267D01*
G04 #@! TO.C,C2*
X112810000Y-96283767D02*
X112810000Y-95991233D01*
X111790000Y-96283767D02*
X111790000Y-95991233D01*
G04 #@! TD*
M02*
