M48
; DRILL file {KiCad 7.0.1} date Fri Apr 14 22:16:13 2023
; FORMAT={-:-/ absolute / inch / decimal}
; #@! TF.CreationDate,2023-04-14T22:16:13-07:00
; #@! TF.GenerationSoftware,Kicad,Pcbnew,7.0.1
; #@! TF.FileFunction,MixedPlating,1,2
FMAT,2
INCH
; #@! TA.AperFunction,Plated,PTH,ViaDrill
T1C0.0157
; #@! TA.AperFunction,Plated,PTH,ComponentDrill
T2C0.0217
; #@! TA.AperFunction,Plated,PTH,ComponentDrill
T3C0.0335
; #@! TA.AperFunction,Plated,PTH,ComponentDrill
T4C0.0394
; #@! TA.AperFunction,Plated,PTH,ComponentDrill
T5C0.1260
; #@! TA.AperFunction,NonPlated,NPTH,ComponentDrill
T6C0.0315
%
G90
G05
T1
X3.71Y-1.1791
X3.85Y-1.3191
X3.88Y-1.5491
X3.9Y-1.9691
X3.95Y-3.3841
X3.99Y-2.8091
X4.0Y-2.5341
X4.025Y-3.1341
X4.025Y-3.7091
X4.13Y-2.1091
X4.13Y-2.2691
X4.15Y-5.3591
X4.2Y-1.3691
X4.21Y-2.9691
X4.28Y-2.2691
X4.31Y-1.0091
X4.31Y-2.3691
X4.32Y-1.8891
X4.35Y-2.4191
X4.35Y-5.8891
X4.39Y-3.4991
X4.41Y-3.0391
X4.46Y-1.9791
X4.5Y-3.2591
X4.54Y-2.5291
X4.55Y-1.4791
X4.63Y-2.1591
X4.63Y-2.6591
X4.65Y-5.8991
X4.69Y-1.9691
X4.69Y-2.7191
X4.7Y-1.1391
X4.72Y-2.5991
X4.78Y-2.9891
X4.83Y-2.8491
X4.83Y-5.8991
X4.85Y-2.0091
X4.85Y-2.5191
X4.86Y-2.7191
X4.93Y-1.0691
X4.94Y-2.7391
X4.95Y-2.1991
X4.96Y-1.6591
X4.99Y-1.3191
X5.02Y-2.3991
X5.03Y-2.6291
X5.05Y-2.0891
X5.05Y-2.3291
X5.1Y-2.9691
X5.16Y-1.4491
X5.24Y-1.9391
X5.25Y-5.6691
X5.3Y-1.6291
X5.37Y-1.0891
X5.38Y-3.3691
X5.46Y-2.9591
X5.47Y-2.0091
X5.51Y-2.4091
X5.57Y-0.9491
X5.59Y-2.1291
X5.63Y-3.0891
X5.63Y-3.3091
X5.64Y-1.3491
X5.64Y-1.7691
X5.66Y-3.5791
X5.7Y-4.2391
X5.74Y-4.5591
X5.76Y-5.0391
X5.79Y-5.4391
X5.81Y-1.7691
X5.81Y-2.2091
X5.82Y-1.3491
X5.83Y-4.7791
X5.86Y-3.9391
X5.87Y-5.2191
X5.89Y-3.4191
X5.9Y-4.4691
X5.91Y-4.1591
X6.0Y-1.3591
X6.0Y-1.7691
X6.0Y-4.3391
X6.03Y-2.1291
X6.04Y-5.2291
X6.07Y-5.5391
X6.08Y-4.7691
X6.11Y-3.6391
X6.12Y-3.0891
X6.14Y-4.9991
X6.16Y-2.2691
X6.16Y-4.2091
X6.24Y-1.9491
X6.24Y-4.5091
X6.33Y-1.4391
X6.36Y-5.0291
X6.4Y-1.6891
X6.4Y-5.3591
X6.42Y-4.7091
X6.47Y-2.0791
X6.47Y-3.6091
X6.47Y-4.4391
X6.48Y-1.3091
X6.48Y-2.5191
X6.48Y-4.1591
X6.5Y-3.0191
X6.53Y-3.9291
X6.55Y-3.3191
T4
X3.89Y-2.1391
X3.89Y-2.2391
X3.89Y-2.3391
X3.89Y-2.4391
X3.89Y-2.5391
X3.89Y-2.6391
X3.89Y-2.7391
X3.89Y-2.8391
X3.89Y-2.9391
X3.89Y-3.0391
X3.9902Y-1.5693
X3.9902Y-1.6693
X4.0902Y-1.5693
X4.0902Y-1.6693
X4.1902Y-1.5693
X4.1902Y-1.6693
X4.2902Y-1.5693
X4.2902Y-1.6693
X4.3902Y-1.5693
X4.3902Y-1.6693
X4.57Y-3.5491
X4.67Y-3.5491
X4.77Y-3.5491
X4.87Y-3.5491
X4.97Y-3.5491
X5.66Y-1.1591
X5.66Y-1.9391
X5.76Y-1.1591
X5.76Y-1.9391
X5.86Y-1.1591
X5.86Y-1.9391
X5.96Y-1.1591
X5.96Y-1.9391
X6.24Y-2.6091
X6.24Y-2.7091
X6.24Y-2.8091
X6.24Y-2.9091
X6.24Y-3.1591
X6.24Y-3.2591
X6.24Y-3.3591
X6.24Y-3.4591
X6.24Y-3.7593
X6.24Y-3.8593
X6.24Y-3.9593
T5
X3.8953Y-1.022
X3.8953Y-5.837
X6.2953Y-1.022
X6.2953Y-5.837
T6
X4.2528Y-5.8008
X4.4496Y-5.8008
T2
G00X4.1986Y-5.8963
M15
G01X4.1986Y-5.9219
M16
G05
G00X4.5037Y-5.8963
M15
G01X4.5037Y-5.9219
M16
G05
T3
G00X4.2045Y-5.7486
M15
G01X4.2045Y-5.7703
M16
G05
G00X4.4978Y-5.7486
M15
G01X4.4978Y-5.7703
M16
G05
T0
M30
