G04 #@! TF.GenerationSoftware,KiCad,Pcbnew,(6.0.5)*
G04 #@! TF.CreationDate,2023-02-22T13:25:26-08:00*
G04 #@! TF.ProjectId,PCM1863,50434d31-3836-4332-9e6b-696361645f70,rev?*
G04 #@! TF.SameCoordinates,Original*
G04 #@! TF.FileFunction,Copper,L1,Top*
G04 #@! TF.FilePolarity,Positive*
%FSLAX46Y46*%
G04 Gerber Fmt 4.6, Leading zero omitted, Abs format (unit mm)*
G04 Created by KiCad (PCBNEW (6.0.5)) date 2023-02-22 13:25:26*
%MOMM*%
%LPD*%
G01*
G04 APERTURE LIST*
G04 Aperture macros list*
%AMRoundRect*
0 Rectangle with rounded corners*
0 $1 Rounding radius*
0 $2 $3 $4 $5 $6 $7 $8 $9 X,Y pos of 4 corners*
0 Add a 4 corners polygon primitive as box body*
4,1,4,$2,$3,$4,$5,$6,$7,$8,$9,$2,$3,0*
0 Add four circle primitives for the rounded corners*
1,1,$1+$1,$2,$3*
1,1,$1+$1,$4,$5*
1,1,$1+$1,$6,$7*
1,1,$1+$1,$8,$9*
0 Add four rect primitives between the rounded corners*
20,1,$1+$1,$2,$3,$4,$5,0*
20,1,$1+$1,$4,$5,$6,$7,0*
20,1,$1+$1,$6,$7,$8,$9,0*
20,1,$1+$1,$8,$9,$2,$3,0*%
G04 Aperture macros list end*
G04 #@! TA.AperFunction,SMDPad,CuDef*
%ADD10RoundRect,0.237500X0.300000X0.237500X-0.300000X0.237500X-0.300000X-0.237500X0.300000X-0.237500X0*%
G04 #@! TD*
G04 #@! TA.AperFunction,SMDPad,CuDef*
%ADD11RoundRect,0.237500X-0.250000X-0.237500X0.250000X-0.237500X0.250000X0.237500X-0.250000X0.237500X0*%
G04 #@! TD*
G04 #@! TA.AperFunction,ComponentPad*
%ADD12C,4.400000*%
G04 #@! TD*
G04 #@! TA.AperFunction,SMDPad,CuDef*
%ADD13RoundRect,0.237500X-0.237500X0.300000X-0.237500X-0.300000X0.237500X-0.300000X0.237500X0.300000X0*%
G04 #@! TD*
G04 #@! TA.AperFunction,ComponentPad*
%ADD14C,1.400000*%
G04 #@! TD*
G04 #@! TA.AperFunction,SMDPad,CuDef*
%ADD15RoundRect,0.237500X0.250000X0.237500X-0.250000X0.237500X-0.250000X-0.237500X0.250000X-0.237500X0*%
G04 #@! TD*
G04 #@! TA.AperFunction,SMDPad,CuDef*
%ADD16R,1.300000X1.100000*%
G04 #@! TD*
G04 #@! TA.AperFunction,SMDPad,CuDef*
%ADD17RoundRect,0.237500X0.237500X-0.287500X0.237500X0.287500X-0.237500X0.287500X-0.237500X-0.287500X0*%
G04 #@! TD*
G04 #@! TA.AperFunction,SMDPad,CuDef*
%ADD18R,0.400000X1.200000*%
G04 #@! TD*
G04 #@! TA.AperFunction,SMDPad,CuDef*
%ADD19RoundRect,0.237500X0.237500X-0.250000X0.237500X0.250000X-0.237500X0.250000X-0.237500X-0.250000X0*%
G04 #@! TD*
G04 #@! TA.AperFunction,ComponentPad*
%ADD20R,1.700000X1.700000*%
G04 #@! TD*
G04 #@! TA.AperFunction,ComponentPad*
%ADD21O,1.700000X1.700000*%
G04 #@! TD*
G04 #@! TA.AperFunction,SMDPad,CuDef*
%ADD22RoundRect,0.237500X-0.287500X-0.237500X0.287500X-0.237500X0.287500X0.237500X-0.287500X0.237500X0*%
G04 #@! TD*
G04 #@! TA.AperFunction,SMDPad,CuDef*
%ADD23RoundRect,0.237500X0.237500X-0.300000X0.237500X0.300000X-0.237500X0.300000X-0.237500X-0.300000X0*%
G04 #@! TD*
G04 #@! TA.AperFunction,SMDPad,CuDef*
%ADD24R,1.150000X0.600000*%
G04 #@! TD*
G04 #@! TA.AperFunction,SMDPad,CuDef*
%ADD25RoundRect,0.237500X0.287500X0.237500X-0.287500X0.237500X-0.287500X-0.237500X0.287500X-0.237500X0*%
G04 #@! TD*
G04 #@! TA.AperFunction,SMDPad,CuDef*
%ADD26RoundRect,0.075000X-0.662500X-0.075000X0.662500X-0.075000X0.662500X0.075000X-0.662500X0.075000X0*%
G04 #@! TD*
G04 #@! TA.AperFunction,SMDPad,CuDef*
%ADD27R,1.300000X0.450000*%
G04 #@! TD*
G04 #@! TA.AperFunction,ComponentPad*
%ADD28O,1.800000X1.150000*%
G04 #@! TD*
G04 #@! TA.AperFunction,ComponentPad*
%ADD29O,2.000000X1.450000*%
G04 #@! TD*
G04 #@! TA.AperFunction,SMDPad,CuDef*
%ADD30R,0.600000X1.200000*%
G04 #@! TD*
G04 #@! TA.AperFunction,SMDPad,CuDef*
%ADD31RoundRect,0.237500X-0.237500X0.287500X-0.237500X-0.287500X0.237500X-0.287500X0.237500X0.287500X0*%
G04 #@! TD*
G04 #@! TA.AperFunction,SMDPad,CuDef*
%ADD32RoundRect,0.237500X-0.237500X0.250000X-0.237500X-0.250000X0.237500X-0.250000X0.237500X0.250000X0*%
G04 #@! TD*
G04 #@! TA.AperFunction,ViaPad*
%ADD33C,1.000000*%
G04 #@! TD*
G04 #@! TA.AperFunction,Conductor*
%ADD34C,0.500000*%
G04 #@! TD*
G04 #@! TA.AperFunction,Conductor*
%ADD35C,0.750000*%
G04 #@! TD*
G04 #@! TA.AperFunction,Conductor*
%ADD36C,0.250000*%
G04 #@! TD*
G04 #@! TA.AperFunction,Conductor*
%ADD37C,0.200000*%
G04 #@! TD*
G04 APERTURE END LIST*
D10*
G04 #@! TO.P,C28,1*
G04 #@! TO.N,DVDD*
X96162500Y-107800000D03*
G04 #@! TO.P,C28,2*
G04 #@! TO.N,GNDD*
X94437500Y-107800000D03*
G04 #@! TD*
D11*
G04 #@! TO.P,R2,1*
G04 #@! TO.N,Net-(D2-Pad1)*
X89025000Y-119900000D03*
G04 #@! TO.P,R2,2*
G04 #@! TO.N,GNDD*
X90850000Y-119900000D03*
G04 #@! TD*
D12*
G04 #@! TO.P,H3,1,1*
G04 #@! TO.N,GNDD*
X75000000Y-125000000D03*
G04 #@! TD*
D13*
G04 #@! TO.P,C29,1*
G04 #@! TO.N,GNDD*
X97150000Y-101287500D03*
G04 #@! TO.P,C29,2*
G04 #@! TO.N,LDO*
X97150000Y-103012500D03*
G04 #@! TD*
D14*
G04 #@! TO.P,JP9,1,A*
G04 #@! TO.N,GNDA*
X124572500Y-72237500D03*
G04 #@! TO.P,JP9,2,B*
G04 #@! TO.N,VINR3*
X122032500Y-72237500D03*
G04 #@! TD*
D15*
G04 #@! TO.P,R4,1*
G04 #@! TO.N,GNDD*
X77612500Y-99600000D03*
G04 #@! TO.P,R4,2*
G04 #@! TO.N,Net-(D4-Pad1)*
X75787500Y-99600000D03*
G04 #@! TD*
G04 #@! TO.P,R21,1*
G04 #@! TO.N,GNDA*
X144627500Y-66550000D03*
G04 #@! TO.P,R21,2*
G04 #@! TO.N,VINL4*
X142802500Y-66550000D03*
G04 #@! TD*
D13*
G04 #@! TO.P,C4,1*
G04 #@! TO.N,VCC*
X85500000Y-113837500D03*
G04 #@! TO.P,C4,2*
G04 #@! TO.N,GNDD*
X85500000Y-115562500D03*
G04 #@! TD*
D11*
G04 #@! TO.P,R22,1*
G04 #@! TO.N,VINR4*
X135602500Y-66750000D03*
G04 #@! TO.P,R22,2*
G04 #@! TO.N,GNDA*
X137427500Y-66750000D03*
G04 #@! TD*
D13*
G04 #@! TO.P,C24,1*
G04 #@! TO.N,GNDA*
X116400000Y-92137500D03*
G04 #@! TO.P,C24,2*
G04 #@! TO.N,AVDD*
X116400000Y-93862500D03*
G04 #@! TD*
G04 #@! TO.P,C3,1*
G04 #@! TO.N,GNDD*
X114100000Y-97137500D03*
G04 #@! TO.P,C3,2*
G04 #@! TO.N,XI*
X114100000Y-98862500D03*
G04 #@! TD*
G04 #@! TO.P,C12,1*
G04 #@! TO.N,DVDD*
X119200000Y-98075000D03*
G04 #@! TO.P,C12,2*
G04 #@! TO.N,GNDD*
X119200000Y-99800000D03*
G04 #@! TD*
D10*
G04 #@! TO.P,C20,1*
G04 #@! TO.N,VINR3*
X138362500Y-82000000D03*
G04 #@! TO.P,C20,2*
G04 #@! TO.N,/3R*
X136637500Y-82000000D03*
G04 #@! TD*
D14*
G04 #@! TO.P,JP7,1,A*
G04 #@! TO.N,XO*
X87242500Y-101712500D03*
G04 #@! TO.P,JP7,2,B*
G04 #@! TO.N,Net-(IC4-Pad3)*
X89782500Y-101712500D03*
G04 #@! TD*
D13*
G04 #@! TO.P,C8,1*
G04 #@! TO.N,GNDA*
X118400000Y-92137500D03*
G04 #@! TO.P,C8,2*
G04 #@! TO.N,AVDD*
X118400000Y-93862500D03*
G04 #@! TD*
G04 #@! TO.P,C19,1*
G04 #@! TO.N,VINL1*
X128200000Y-82937500D03*
G04 #@! TO.P,C19,2*
G04 #@! TO.N,/1L*
X128200000Y-84662500D03*
G04 #@! TD*
D15*
G04 #@! TO.P,R5,1*
G04 #@! TO.N,MICBIAS*
X108812500Y-74400000D03*
G04 #@! TO.P,R5,2*
G04 #@! TO.N,VINL1*
X106987500Y-74400000D03*
G04 #@! TD*
G04 #@! TO.P,R16,1*
G04 #@! TO.N,MICBIAS*
X123340000Y-76250000D03*
G04 #@! TO.P,R16,2*
G04 #@! TO.N,VINR3*
X121515000Y-76250000D03*
G04 #@! TD*
D16*
G04 #@! TO.P,Y1,1,_TRI-STATE_(STBY)*
G04 #@! TO.N,DVDD*
X103600000Y-110625000D03*
G04 #@! TO.P,Y1,2,GND/CASE*
G04 #@! TO.N,GNDD*
X105700000Y-110625000D03*
G04 #@! TO.P,Y1,3,OUTPUT*
G04 #@! TO.N,OSC*
X105700000Y-108975000D03*
G04 #@! TO.P,Y1,4,VDD*
G04 #@! TO.N,DVDD*
X103600000Y-108975000D03*
G04 #@! TD*
D17*
G04 #@! TO.P,FB1,1*
G04 #@! TO.N,GNDD*
X147700000Y-95075000D03*
G04 #@! TO.P,FB1,2*
G04 #@! TO.N,GNDA*
X147700000Y-93325000D03*
G04 #@! TD*
D18*
G04 #@! TO.P,IC1,1,EN*
G04 #@! TO.N,GNDD*
X94325489Y-97150000D03*
G04 #@! TO.P,IC1,2,INPUT(A)*
G04 #@! TO.N,OSC*
X93675489Y-97150000D03*
G04 #@! TO.P,IC1,3,GND*
G04 #@! TO.N,GNDD*
X93025489Y-97150000D03*
G04 #@! TO.P,IC1,4,OUTPUT(Y)*
G04 #@! TO.N,XI*
X93025489Y-99050000D03*
G04 #@! TO.P,IC1,5,VCC*
G04 #@! TO.N,LDO*
X94325489Y-99050000D03*
G04 #@! TD*
D10*
G04 #@! TO.P,C21,1*
G04 #@! TO.N,VINL3*
X138362500Y-85100000D03*
G04 #@! TO.P,C21,2*
G04 #@! TO.N,/3L*
X136637500Y-85100000D03*
G04 #@! TD*
D19*
G04 #@! TO.P,R10,1*
G04 #@! TO.N,MICBIAS*
X102800000Y-55812500D03*
G04 #@! TO.P,R10,2*
G04 #@! TO.N,VINL2*
X102800000Y-53987500D03*
G04 #@! TD*
D20*
G04 #@! TO.P,J2,1,Pin_1*
G04 #@! TO.N,MICBIAS*
X119390000Y-58350000D03*
D21*
G04 #@! TO.P,J2,2,Pin_2*
G04 #@! TO.N,AVDD*
X121930000Y-58350000D03*
G04 #@! TO.P,J2,3,Pin_3*
G04 #@! TO.N,VINL2*
X124470000Y-58350000D03*
G04 #@! TO.P,J2,4,Pin_4*
G04 #@! TO.N,VINR2*
X127010000Y-58350000D03*
G04 #@! TO.P,J2,5,Pin_5*
G04 #@! TO.N,VINL1*
X129550000Y-58350000D03*
G04 #@! TO.P,J2,6,Pin_6*
G04 #@! TO.N,VINR1*
X132090000Y-58350000D03*
G04 #@! TO.P,J2,7,Pin_7*
G04 #@! TO.N,VINR3*
X134630000Y-58350000D03*
G04 #@! TO.P,J2,8,Pin_8*
G04 #@! TO.N,VINL3*
X137170000Y-58350000D03*
G04 #@! TO.P,J2,9,Pin_9*
G04 #@! TO.N,VINR4*
X139710000Y-58350000D03*
G04 #@! TO.P,J2,10,Pin_10*
G04 #@! TO.N,VINL4*
X142250000Y-58350000D03*
G04 #@! TD*
D19*
G04 #@! TO.P,R13,1*
G04 #@! TO.N,VINR2*
X109700000Y-63812500D03*
G04 #@! TO.P,R13,2*
G04 #@! TO.N,GNDA*
X109700000Y-61987500D03*
G04 #@! TD*
D22*
G04 #@! TO.P,D4,1,K*
G04 #@! TO.N,Net-(D4-Pad1)*
X75862500Y-101300000D03*
G04 #@! TO.P,D4,2,A*
G04 #@! TO.N,VCC*
X77612500Y-101300000D03*
G04 #@! TD*
D13*
G04 #@! TO.P,C26,1*
G04 #@! TO.N,VINR2*
X125400000Y-82937500D03*
G04 #@! TO.P,C26,2*
G04 #@! TO.N,/2R*
X125400000Y-84662500D03*
G04 #@! TD*
D15*
G04 #@! TO.P,R19,1*
G04 #@! TO.N,MICBIAS*
X144640000Y-74550000D03*
G04 #@! TO.P,R19,2*
G04 #@! TO.N,VINL4*
X142815000Y-74550000D03*
G04 #@! TD*
D14*
G04 #@! TO.P,JP11,1,A*
G04 #@! TO.N,GNDA*
X138372500Y-70637500D03*
G04 #@! TO.P,JP11,2,B*
G04 #@! TO.N,VINR4*
X135832500Y-70637500D03*
G04 #@! TD*
D23*
G04 #@! TO.P,C6,1*
G04 #@! TO.N,GNDD*
X95100000Y-117100000D03*
G04 #@! TO.P,C6,2*
G04 #@! TO.N,DVDD*
X95100000Y-115375000D03*
G04 #@! TD*
D15*
G04 #@! TO.P,R23,1*
G04 #@! TO.N,DVDD*
X95212500Y-111800000D03*
G04 #@! TO.P,R23,2*
G04 #@! TO.N,Net-(IC4-Pad5)*
X93387500Y-111800000D03*
G04 #@! TD*
D10*
G04 #@! TO.P,C13,1*
G04 #@! TO.N,GNDA*
X136462500Y-79600000D03*
G04 #@! TO.P,C13,2*
G04 #@! TO.N,MICBIAS*
X134737500Y-79600000D03*
G04 #@! TD*
D24*
G04 #@! TO.P,IC2,1,IN*
G04 #@! TO.N,VCC*
X87900000Y-113750000D03*
G04 #@! TO.P,IC2,2,GND*
G04 #@! TO.N,GNDD*
X87900000Y-114700000D03*
G04 #@! TO.P,IC2,3,EN*
G04 #@! TO.N,VCC*
X87900000Y-115650000D03*
G04 #@! TO.P,IC2,4,NC*
G04 #@! TO.N,unconnected-(IC2-Pad4)*
X90400000Y-115650000D03*
G04 #@! TO.P,IC2,5,OUT*
G04 #@! TO.N,DVDD*
X90400000Y-113750000D03*
G04 #@! TD*
D25*
G04 #@! TO.P,D1,1,K*
G04 #@! TO.N,Net-(D1-Pad1)*
X108975000Y-101500000D03*
G04 #@! TO.P,D1,2,A*
G04 #@! TO.N,LDO*
X107225000Y-101500000D03*
G04 #@! TD*
D12*
G04 #@! TO.P,H2,1,1*
G04 #@! TO.N,GNDA*
X150000000Y-50000000D03*
G04 #@! TD*
D14*
G04 #@! TO.P,JP1,1,A*
G04 #@! TO.N,VINL1*
X107400000Y-70800000D03*
G04 #@! TO.P,JP1,2,B*
G04 #@! TO.N,GNDA*
X109940000Y-70800000D03*
G04 #@! TD*
D10*
G04 #@! TO.P,C22,1*
G04 #@! TO.N,VINR4*
X138362500Y-88000000D03*
G04 #@! TO.P,C22,2*
G04 #@! TO.N,/4R*
X136637500Y-88000000D03*
G04 #@! TD*
D16*
G04 #@! TO.P,Y2,1,_TRI-STATE_(STBY)*
G04 #@! TO.N,DVDD*
X103700000Y-118000000D03*
G04 #@! TO.P,Y2,2,GND/CASE*
G04 #@! TO.N,GNDD*
X105800000Y-118000000D03*
G04 #@! TO.P,Y2,3,OUTPUT*
G04 #@! TO.N,SCKI(3.3V)*
X105800000Y-116350000D03*
G04 #@! TO.P,Y2,4,VDD*
G04 #@! TO.N,DVDD*
X103700000Y-116350000D03*
G04 #@! TD*
D23*
G04 #@! TO.P,C25,1*
G04 #@! TO.N,VCC*
X82000000Y-84225000D03*
G04 #@! TO.P,C25,2*
G04 #@! TO.N,GNDA*
X82000000Y-82500000D03*
G04 #@! TD*
D26*
G04 #@! TO.P,U1,1,VINL2/VIN1M*
G04 #@! TO.N,/2L*
X124837500Y-90800000D03*
G04 #@! TO.P,U1,2,VINR2/VIN2M*
G04 #@! TO.N,/2R*
X124837500Y-91300000D03*
G04 #@! TO.P,U1,3,VINL1/VIN1P*
G04 #@! TO.N,/1L*
X124837500Y-91800000D03*
G04 #@! TO.P,U1,4,VINR1/VIN2P*
G04 #@! TO.N,/1R*
X124837500Y-92300000D03*
G04 #@! TO.P,U1,5,Mic_Bias*
G04 #@! TO.N,MICBIAS*
X124837500Y-92800000D03*
G04 #@! TO.P,U1,6,VREF*
G04 #@! TO.N,Net-(C11-Pad2)*
X124837500Y-93300000D03*
G04 #@! TO.P,U1,7,AGND*
G04 #@! TO.N,GNDA*
X124837500Y-93800000D03*
G04 #@! TO.P,U1,8,AVDD*
G04 #@! TO.N,AVDD*
X124837500Y-94300000D03*
G04 #@! TO.P,U1,9,XO*
G04 #@! TO.N,XO*
X124837500Y-94800000D03*
G04 #@! TO.P,U1,10,XI*
G04 #@! TO.N,XI*
X124837500Y-95300000D03*
G04 #@! TO.P,U1,11,LDO*
G04 #@! TO.N,LDO*
X124837500Y-95800000D03*
G04 #@! TO.P,U1,12,DGND*
G04 #@! TO.N,GNDD*
X124837500Y-96300000D03*
G04 #@! TO.P,U1,13,DVDD*
G04 #@! TO.N,DVDD*
X124837500Y-96800000D03*
G04 #@! TO.P,U1,14,IOVDD*
X124837500Y-97300000D03*
G04 #@! TO.P,U1,15,SCKI*
G04 #@! TO.N,SCKI(3.3V)*
X124837500Y-97800000D03*
G04 #@! TO.P,U1,16,LRCK*
G04 #@! TO.N,LRCK*
X130562500Y-97800000D03*
G04 #@! TO.P,U1,17,BCK*
G04 #@! TO.N,BCK*
X130562500Y-97300000D03*
G04 #@! TO.P,U1,18,DOUT*
G04 #@! TO.N,DOUT*
X130562500Y-96800000D03*
G04 #@! TO.P,U1,19,GPIO3/INTC*
G04 #@! TO.N,/INT{slash}GPIO3{slash}INTC*
X130562500Y-96300000D03*
G04 #@! TO.P,U1,20,GPIO2/INTB/DMCLK*
G04 #@! TO.N,/MD6{slash}GPIO2{slash}INTB{slash}DMCLK*
X130562500Y-95800000D03*
G04 #@! TO.P,U1,21,GPIO1/INTA/DMIN*
G04 #@! TO.N,/MD5{slash}GPIO1{slash}INTA{slash}DMIN*
X130562500Y-95300000D03*
G04 #@! TO.P,U1,22,MISO/GPIO0/DMIN2*
G04 #@! TO.N,/MD4{slash}MISO{slash}GPIO0*
X130562500Y-94800000D03*
G04 #@! TO.P,U1,23,MOSI/SDA*
G04 #@! TO.N,/DOUT2{slash}MD2{slash}MOSI{slash}SDA*
X130562500Y-94300000D03*
G04 #@! TO.P,U1,24,MC/SCL*
G04 #@! TO.N,/MD3{slash}MC{slash}SCL*
X130562500Y-93800000D03*
G04 #@! TO.P,U1,25,MS/AD*
G04 #@! TO.N,/MD1{slash}MS{slash}AD*
X130562500Y-93300000D03*
G04 #@! TO.P,U1,26,MD0*
G04 #@! TO.N,/MDO*
X130562500Y-92800000D03*
G04 #@! TO.P,U1,27,VINL4/VIN4M*
G04 #@! TO.N,/4L*
X130562500Y-92300000D03*
G04 #@! TO.P,U1,28,VINR4/VIN3M*
G04 #@! TO.N,/4R*
X130562500Y-91800000D03*
G04 #@! TO.P,U1,29,VINL3/VIN4P*
G04 #@! TO.N,/3L*
X130562500Y-91300000D03*
G04 #@! TO.P,U1,30,VINR3/VIN3P*
G04 #@! TO.N,/3R*
X130562500Y-90800000D03*
G04 #@! TD*
D14*
G04 #@! TO.P,JP6,1,A*
G04 #@! TO.N,XI*
X90112500Y-98757500D03*
G04 #@! TO.P,JP6,2,B*
G04 #@! TO.N,GNDD*
X90112500Y-96217500D03*
G04 #@! TD*
D27*
G04 #@! TO.P,J4,1,VBUS*
G04 #@! TO.N,VCC*
X76900000Y-107300000D03*
G04 #@! TO.P,J4,2,D-*
G04 #@! TO.N,unconnected-(J4-Pad2)*
X76900000Y-107950000D03*
G04 #@! TO.P,J4,3,D+*
G04 #@! TO.N,unconnected-(J4-Pad3)*
X76900000Y-108600000D03*
G04 #@! TO.P,J4,4,ID*
G04 #@! TO.N,unconnected-(J4-Pad4)*
X76900000Y-109250000D03*
G04 #@! TO.P,J4,5,GND*
G04 #@! TO.N,GNDD*
X76900000Y-109900000D03*
D28*
G04 #@! TO.P,J4,6,Shield*
G04 #@! TO.N,unconnected-(J4-Pad6)*
X73050000Y-104725000D03*
D29*
X76850000Y-104875000D03*
D28*
X73050000Y-112475000D03*
D29*
X76850000Y-112325000D03*
G04 #@! TD*
D30*
G04 #@! TO.P,IC4,1,VCCA*
G04 #@! TO.N,LDO*
X94350000Y-103050000D03*
G04 #@! TO.P,IC4,2,GND*
G04 #@! TO.N,GNDD*
X93400000Y-103050000D03*
G04 #@! TO.P,IC4,3,A*
G04 #@! TO.N,Net-(IC4-Pad3)*
X92450000Y-103050000D03*
G04 #@! TO.P,IC4,4,B*
G04 #@! TO.N,XO_BUFF*
X92450000Y-105550000D03*
G04 #@! TO.P,IC4,5,OE*
G04 #@! TO.N,Net-(IC4-Pad5)*
X93400000Y-105550000D03*
G04 #@! TO.P,IC4,6,VCCB*
G04 #@! TO.N,DVDD*
X94350000Y-105550000D03*
G04 #@! TD*
D15*
G04 #@! TO.P,R1,1*
G04 #@! TO.N,Net-(D1-Pad1)*
X109025000Y-99600000D03*
G04 #@! TO.P,R1,2*
G04 #@! TO.N,GNDD*
X107200000Y-99600000D03*
G04 #@! TD*
D10*
G04 #@! TO.P,C23,1*
G04 #@! TO.N,VINL4*
X138362500Y-90900000D03*
G04 #@! TO.P,C23,2*
G04 #@! TO.N,/4L*
X136637500Y-90900000D03*
G04 #@! TD*
D14*
G04 #@! TO.P,JP10,1,A*
G04 #@! TO.N,VINL4*
X143057500Y-70662500D03*
G04 #@! TO.P,JP10,2,B*
G04 #@! TO.N,GNDA*
X145597500Y-70662500D03*
G04 #@! TD*
D23*
G04 #@! TO.P,C1,1*
G04 #@! TO.N,DVDD*
X100400000Y-111362500D03*
G04 #@! TO.P,C1,2*
G04 #@! TO.N,GNDD*
X100400000Y-109637500D03*
G04 #@! TD*
D17*
G04 #@! TO.P,FB3,1*
G04 #@! TO.N,GNDD*
X100300000Y-89775000D03*
G04 #@! TO.P,FB3,2*
G04 #@! TO.N,GNDA*
X100300000Y-88025000D03*
G04 #@! TD*
D19*
G04 #@! TO.P,R12,1*
G04 #@! TO.N,GNDA*
X109200000Y-55912500D03*
G04 #@! TO.P,R12,2*
G04 #@! TO.N,VINL2*
X109200000Y-54087500D03*
G04 #@! TD*
D14*
G04 #@! TO.P,JP8,1,A*
G04 #@! TO.N,VINL3*
X129457500Y-70362500D03*
G04 #@! TO.P,JP8,2,B*
G04 #@! TO.N,GNDA*
X131997500Y-70362500D03*
G04 #@! TD*
D23*
G04 #@! TO.P,C16,1*
G04 #@! TO.N,LDO*
X99050000Y-103012500D03*
G04 #@! TO.P,C16,2*
G04 #@! TO.N,GNDD*
X99050000Y-101287500D03*
G04 #@! TD*
D20*
G04 #@! TO.P,J1,1,Pin_1*
G04 #@! TO.N,VCC*
X119675000Y-117700000D03*
D21*
G04 #@! TO.P,J1,2,Pin_2*
G04 #@! TO.N,DVDD*
X122215000Y-117700000D03*
G04 #@! TO.P,J1,3,Pin_3*
G04 #@! TO.N,OSC*
X124755000Y-117700000D03*
G04 #@! TO.P,J1,4,Pin_4*
G04 #@! TO.N,XO_BUFF*
X127295000Y-117700000D03*
G04 #@! TO.P,J1,5,Pin_5*
G04 #@! TO.N,unconnected-(J1-Pad5)*
X129835000Y-117700000D03*
G04 #@! TO.P,J1,6,Pin_6*
G04 #@! TO.N,unconnected-(J1-Pad6)*
X132375000Y-117700000D03*
G04 #@! TO.P,J1,7,Pin_7*
G04 #@! TO.N,LDO*
X134915000Y-117700000D03*
G04 #@! TO.P,J1,8,Pin_8*
G04 #@! TO.N,XI*
X137455000Y-117700000D03*
G04 #@! TO.P,J1,9,Pin_9*
G04 #@! TO.N,SCKI(3.3V)*
X139995000Y-117700000D03*
G04 #@! TO.P,J1,10,Pin_10*
G04 #@! TO.N,LRCK*
X142535000Y-117700000D03*
G04 #@! TD*
D13*
G04 #@! TO.P,C9,1*
G04 #@! TO.N,VCC*
X83800000Y-113837500D03*
G04 #@! TO.P,C9,2*
G04 #@! TO.N,GNDD*
X83800000Y-115562500D03*
G04 #@! TD*
G04 #@! TO.P,C27,1*
G04 #@! TO.N,VINL2*
X122500000Y-82937500D03*
G04 #@! TO.P,C27,2*
G04 #@! TO.N,/2L*
X122500000Y-84662500D03*
G04 #@! TD*
D14*
G04 #@! TO.P,JP2,1,A*
G04 #@! TO.N,GNDA*
X116757500Y-71287500D03*
G04 #@! TO.P,JP2,2,B*
G04 #@! TO.N,VINR1*
X114217500Y-71287500D03*
G04 #@! TD*
D15*
G04 #@! TO.P,R15,1*
G04 #@! TO.N,MICBIAS*
X130727500Y-73950000D03*
G04 #@! TO.P,R15,2*
G04 #@! TO.N,VINL3*
X128902500Y-73950000D03*
G04 #@! TD*
D24*
G04 #@! TO.P,IC3,1,IN*
G04 #@! TO.N,VCC*
X86150000Y-82450000D03*
G04 #@! TO.P,IC3,2,GND*
G04 #@! TO.N,GNDA*
X86150000Y-83400000D03*
G04 #@! TO.P,IC3,3,EN*
G04 #@! TO.N,VCC*
X86150000Y-84350000D03*
G04 #@! TO.P,IC3,4,NC*
G04 #@! TO.N,unconnected-(IC3-Pad4)*
X88650000Y-84350000D03*
G04 #@! TO.P,IC3,5,OUT*
G04 #@! TO.N,AVDD*
X88650000Y-82450000D03*
G04 #@! TD*
D15*
G04 #@! TO.P,R17,1*
G04 #@! TO.N,GNDA*
X130827500Y-66950000D03*
G04 #@! TO.P,R17,2*
G04 #@! TO.N,VINL3*
X129002500Y-66950000D03*
G04 #@! TD*
D20*
G04 #@! TO.P,J3,1,Pin_1*
G04 #@! TO.N,/MDO*
X142400000Y-89975000D03*
D21*
G04 #@! TO.P,J3,2,Pin_2*
G04 #@! TO.N,/MD1{slash}MS{slash}AD*
X142400000Y-92515000D03*
G04 #@! TO.P,J3,3,Pin_3*
G04 #@! TO.N,/MD3{slash}MC{slash}SCL*
X142400000Y-95055000D03*
G04 #@! TO.P,J3,4,Pin_4*
G04 #@! TO.N,/DOUT2{slash}MD2{slash}MOSI{slash}SDA*
X142400000Y-97595000D03*
G04 #@! TO.P,J3,5,Pin_5*
G04 #@! TO.N,/MD4{slash}MISO{slash}GPIO0*
X142400000Y-100135000D03*
G04 #@! TO.P,J3,6,Pin_6*
G04 #@! TO.N,/MD5{slash}GPIO1{slash}INTA{slash}DMIN*
X142400000Y-102675000D03*
G04 #@! TO.P,J3,7,Pin_7*
G04 #@! TO.N,/MD6{slash}GPIO2{slash}INTB{slash}DMCLK*
X142400000Y-105215000D03*
G04 #@! TO.P,J3,8,Pin_8*
G04 #@! TO.N,/INT{slash}GPIO3{slash}INTC*
X142400000Y-107755000D03*
G04 #@! TO.P,J3,9,Pin_9*
G04 #@! TO.N,DOUT*
X142400000Y-110295000D03*
G04 #@! TO.P,J3,10,Pin_10*
G04 #@! TO.N,BCK*
X142400000Y-112835000D03*
G04 #@! TD*
D23*
G04 #@! TO.P,C5,1*
G04 #@! TO.N,VCC*
X83800000Y-84162500D03*
G04 #@! TO.P,C5,2*
G04 #@! TO.N,GNDA*
X83800000Y-82437500D03*
G04 #@! TD*
D11*
G04 #@! TO.P,R18,1*
G04 #@! TO.N,VINR3*
X121615000Y-67850000D03*
G04 #@! TO.P,R18,2*
G04 #@! TO.N,GNDA*
X123440000Y-67850000D03*
G04 #@! TD*
D23*
G04 #@! TO.P,C14,1*
G04 #@! TO.N,LDO*
X102750000Y-103012500D03*
G04 #@! TO.P,C14,2*
G04 #@! TO.N,GNDD*
X102750000Y-101287500D03*
G04 #@! TD*
D31*
G04 #@! TO.P,D3,1,K*
G04 #@! TO.N,Net-(D3-Pad1)*
X88700000Y-77550000D03*
G04 #@! TO.P,D3,2,A*
G04 #@! TO.N,AVDD*
X88700000Y-79300000D03*
G04 #@! TD*
D13*
G04 #@! TO.P,C15,1*
G04 #@! TO.N,DVDD*
X121300000Y-98075000D03*
G04 #@! TO.P,C15,2*
G04 #@! TO.N,GNDD*
X121300000Y-99800000D03*
G04 #@! TD*
G04 #@! TO.P,C10,1*
G04 #@! TO.N,GNDA*
X120500000Y-92137500D03*
G04 #@! TO.P,C10,2*
G04 #@! TO.N,AVDD*
X120500000Y-93862500D03*
G04 #@! TD*
D32*
G04 #@! TO.P,R3,1*
G04 #@! TO.N,Net-(D3-Pad1)*
X86700000Y-77475000D03*
G04 #@! TO.P,R3,2*
G04 #@! TO.N,GNDA*
X86700000Y-79300000D03*
G04 #@! TD*
D12*
G04 #@! TO.P,H4,1,1*
G04 #@! TO.N,GNDD*
X150000000Y-125000000D03*
G04 #@! TD*
D13*
G04 #@! TO.P,C18,1*
G04 #@! TO.N,VINR1*
X131100000Y-82937500D03*
G04 #@! TO.P,C18,2*
G04 #@! TO.N,/1R*
X131100000Y-84662500D03*
G04 #@! TD*
D15*
G04 #@! TO.P,R20,1*
G04 #@! TO.N,MICBIAS*
X137127500Y-74150000D03*
G04 #@! TO.P,R20,2*
G04 #@! TO.N,VINR4*
X135302500Y-74150000D03*
G04 #@! TD*
D32*
G04 #@! TO.P,R11,1*
G04 #@! TO.N,MICBIAS*
X102700000Y-61987500D03*
G04 #@! TO.P,R11,2*
G04 #@! TO.N,VINR2*
X102700000Y-63812500D03*
G04 #@! TD*
D14*
G04 #@! TO.P,JP5,1,A*
G04 #@! TO.N,Net-(IC4-Pad5)*
X90657500Y-109787500D03*
G04 #@! TO.P,JP5,2,B*
G04 #@! TO.N,GNDD*
X88117500Y-109787500D03*
G04 #@! TD*
D17*
G04 #@! TO.P,FB2,1*
G04 #@! TO.N,GNDD*
X152900000Y-95075000D03*
G04 #@! TO.P,FB2,2*
G04 #@! TO.N,GNDA*
X152900000Y-93325000D03*
G04 #@! TD*
D11*
G04 #@! TO.P,R8,1*
G04 #@! TO.N,VINR1*
X114000000Y-67200000D03*
G04 #@! TO.P,R8,2*
G04 #@! TO.N,GNDA*
X115825000Y-67200000D03*
G04 #@! TD*
D13*
G04 #@! TO.P,C17,1*
G04 #@! TO.N,DVDD*
X100400000Y-115537500D03*
G04 #@! TO.P,C17,2*
G04 #@! TO.N,GNDD*
X100400000Y-117262500D03*
G04 #@! TD*
D15*
G04 #@! TO.P,R7,1*
G04 #@! TO.N,GNDA*
X108912500Y-67300000D03*
G04 #@! TO.P,R7,2*
G04 #@! TO.N,VINL1*
X107087500Y-67300000D03*
G04 #@! TD*
D31*
G04 #@! TO.P,FB5,1*
G04 #@! TO.N,GNDA*
X93500000Y-86700000D03*
G04 #@! TO.P,FB5,2*
G04 #@! TO.N,GNDD*
X93500000Y-88450000D03*
G04 #@! TD*
D15*
G04 #@! TO.P,R6,1*
G04 #@! TO.N,MICBIAS*
X115812500Y-75100000D03*
G04 #@! TO.P,R6,2*
G04 #@! TO.N,VINR1*
X113987500Y-75100000D03*
G04 #@! TD*
D13*
G04 #@! TO.P,C11,1*
G04 #@! TO.N,GNDA*
X122800000Y-89737500D03*
G04 #@! TO.P,C11,2*
G04 #@! TO.N,Net-(C11-Pad2)*
X122800000Y-91462500D03*
G04 #@! TD*
D14*
G04 #@! TO.P,JP4,1,A*
G04 #@! TO.N,GNDA*
X106387500Y-61042500D03*
G04 #@! TO.P,JP4,2,B*
G04 #@! TO.N,VINR2*
X106387500Y-63582500D03*
G04 #@! TD*
D22*
G04 #@! TO.P,D2,1,K*
G04 #@! TO.N,Net-(D2-Pad1)*
X89100000Y-117500000D03*
G04 #@! TO.P,D2,2,A*
G04 #@! TO.N,DVDD*
X90850000Y-117500000D03*
G04 #@! TD*
D23*
G04 #@! TO.P,C7,1*
G04 #@! TO.N,LDO*
X100850000Y-103012500D03*
G04 #@! TO.P,C7,2*
G04 #@! TO.N,GNDD*
X100850000Y-101287500D03*
G04 #@! TD*
D14*
G04 #@! TO.P,JP3,1,A*
G04 #@! TO.N,VINL2*
X106187500Y-54342500D03*
G04 #@! TO.P,JP3,2,B*
G04 #@! TO.N,GNDA*
X106187500Y-56882500D03*
G04 #@! TD*
D31*
G04 #@! TO.P,FB4,1*
G04 #@! TO.N,GNDA*
X75800000Y-86625000D03*
G04 #@! TO.P,FB4,2*
G04 #@! TO.N,GNDD*
X75800000Y-88375000D03*
G04 #@! TD*
D12*
G04 #@! TO.P,H1,1,1*
G04 #@! TO.N,GNDA*
X75000000Y-50000000D03*
G04 #@! TD*
D31*
G04 #@! TO.P,FB6,1*
G04 #@! TO.N,GNDA*
X104400000Y-89125000D03*
G04 #@! TO.P,FB6,2*
G04 #@! TO.N,GNDD*
X104400000Y-90875000D03*
G04 #@! TD*
D23*
G04 #@! TO.P,C2,1*
G04 #@! TO.N,GNDD*
X112300000Y-97000000D03*
G04 #@! TO.P,C2,2*
G04 #@! TO.N,XO*
X112300000Y-95275000D03*
G04 #@! TD*
D33*
G04 #@! TO.N,XI*
X128150000Y-103450000D03*
X126200000Y-106200000D03*
G04 #@! TO.N,LDO*
X126900000Y-101600000D03*
X124200000Y-104300000D03*
G04 #@! TO.N,MICBIAS*
X130890000Y-72450000D03*
X144190000Y-72850000D03*
X115590000Y-58050000D03*
X123490000Y-74650000D03*
X104290000Y-61850000D03*
X115890000Y-73250000D03*
X102890000Y-57750000D03*
X132900000Y-81100000D03*
X137390000Y-72650000D03*
X109190000Y-72850000D03*
G04 #@! TO.N,XO_BUFF*
X115700000Y-112400000D03*
X113300000Y-110500000D03*
X99200000Y-105000000D03*
X102700000Y-106100000D03*
X96000000Y-104900000D03*
X90500000Y-104900000D03*
G04 #@! TO.N,OSC*
X114200000Y-113800000D03*
X105800000Y-106600000D03*
X112100000Y-111700000D03*
X98500000Y-99300000D03*
G04 #@! TO.N,GNDA*
X99500000Y-86000000D03*
X110850000Y-67950000D03*
X138300000Y-80000000D03*
X139050000Y-66750000D03*
X94900000Y-85300000D03*
X104200000Y-87400000D03*
X114600000Y-92100000D03*
X84600000Y-77800000D03*
X80200000Y-82100000D03*
X152100000Y-91600000D03*
X75700000Y-84500000D03*
X125150000Y-68350000D03*
X110350000Y-57950000D03*
X83800000Y-80700000D03*
X122400000Y-93200000D03*
X123700000Y-88200000D03*
X147700000Y-91500000D03*
X146350000Y-66550000D03*
X109250000Y-60150000D03*
X132550000Y-66950000D03*
X117850000Y-67650000D03*
G04 #@! TO.N,GNDD*
X85500000Y-117300000D03*
X106100000Y-92500000D03*
X104450000Y-101550000D03*
X79600000Y-111300000D03*
X93300000Y-117600000D03*
X98600000Y-110700000D03*
X79300000Y-99600000D03*
X105400000Y-98900000D03*
X91200000Y-89500000D03*
X94800000Y-109900000D03*
X87800000Y-106200000D03*
X75800000Y-90400000D03*
X152100000Y-96500000D03*
X93000000Y-100900000D03*
X108100000Y-112900000D03*
X110600000Y-96700000D03*
X119200000Y-101800000D03*
X101200000Y-92000000D03*
X126000000Y-99400000D03*
X108600000Y-118000000D03*
X92200000Y-94500000D03*
X121300000Y-101800000D03*
X98500000Y-117200000D03*
X146900000Y-96500000D03*
X92537500Y-119900000D03*
X82100000Y-115500000D03*
G04 #@! TD*
D34*
G04 #@! TO.N,XO*
X112875000Y-95275000D02*
X121775000Y-95275000D01*
D35*
X100975000Y-95275000D02*
X112875000Y-95275000D01*
D36*
X123299040Y-94900960D02*
X122199040Y-94900960D01*
D34*
X121775000Y-95275000D02*
X121800000Y-95300000D01*
D36*
X122199040Y-94900960D02*
X121800000Y-95300000D01*
D35*
X87242500Y-101712500D02*
X87242500Y-92957500D01*
X87242500Y-92957500D02*
X88700000Y-91500000D01*
D34*
X112300000Y-95275000D02*
X112875000Y-95275000D01*
D35*
X97200000Y-91500000D02*
X100975000Y-95275000D01*
D36*
X124837500Y-94800000D02*
X123400000Y-94800000D01*
D35*
X88700000Y-91500000D02*
X97200000Y-91500000D01*
D36*
X123400000Y-94800000D02*
X123299040Y-94900960D01*
G04 #@! TO.N,XI*
X124837500Y-95300000D02*
X126400000Y-95300000D01*
X123237026Y-95350480D02*
X123949520Y-95350480D01*
D35*
X88600000Y-97245000D02*
X88600000Y-95300000D01*
X108800000Y-97200000D02*
X110462500Y-98862500D01*
D36*
X122487506Y-96100000D02*
X123237026Y-95350480D01*
X126400000Y-95300000D02*
X127000000Y-95300000D01*
D34*
X128200000Y-96500000D02*
X128200000Y-96700000D01*
X117400000Y-96100000D02*
X119600000Y-96100000D01*
D35*
X126200000Y-106200000D02*
X126200000Y-106445000D01*
D34*
X116700000Y-96800000D02*
X117400000Y-96100000D01*
D35*
X128200000Y-103400000D02*
X128150000Y-103450000D01*
D34*
X114100000Y-98862500D02*
X114637500Y-98862500D01*
D35*
X95757176Y-93200000D02*
X99757176Y-97200000D01*
D36*
X121900000Y-96100000D02*
X122487506Y-96100000D01*
X123949520Y-95350480D02*
X124000000Y-95300000D01*
D35*
X126200000Y-106445000D02*
X137455000Y-117700000D01*
D34*
X114637500Y-98862500D02*
X116700000Y-96800000D01*
D35*
X92732989Y-98757500D02*
X93025489Y-99050000D01*
X110462500Y-98862500D02*
X114100000Y-98862500D01*
X90700000Y-93200000D02*
X95757176Y-93200000D01*
X99757176Y-97200000D02*
X108800000Y-97200000D01*
D34*
X127300000Y-95600000D02*
X128200000Y-96500000D01*
D36*
X127000000Y-95300000D02*
X127300000Y-95600000D01*
X124000000Y-95300000D02*
X124837500Y-95300000D01*
D35*
X90112500Y-98757500D02*
X92732989Y-98757500D01*
X88600000Y-95300000D02*
X90700000Y-93200000D01*
D34*
X119600000Y-96100000D02*
X121900000Y-96100000D01*
D35*
X90112500Y-98757500D02*
X88600000Y-97245000D01*
X128200000Y-96700000D02*
X128200000Y-103400000D01*
G04 #@! TO.N,LDO*
X123600000Y-104900000D02*
X123600000Y-106385000D01*
D36*
X127300000Y-96600000D02*
X126500000Y-95800000D01*
D35*
X94387500Y-103012500D02*
X94350000Y-103050000D01*
D34*
X122500000Y-96900000D02*
X123000000Y-96400000D01*
D35*
X97150000Y-103012500D02*
X94387500Y-103012500D01*
D36*
X123600000Y-95800000D02*
X124837500Y-95800000D01*
D35*
X107087500Y-103012500D02*
X112187500Y-103012500D01*
X102750000Y-103012500D02*
X107087500Y-103012500D01*
D36*
X123000000Y-96400000D02*
X123600000Y-95800000D01*
D35*
X112187500Y-103012500D02*
X117200000Y-98000000D01*
X123600000Y-106385000D02*
X134915000Y-117700000D01*
X107225000Y-102875000D02*
X107087500Y-103012500D01*
D36*
X126500000Y-95800000D02*
X124837500Y-95800000D01*
D35*
X126900000Y-100300000D02*
X126900000Y-101600000D01*
X100850000Y-103012500D02*
X102750000Y-103012500D01*
D36*
X127300000Y-97500000D02*
X127300000Y-96600000D01*
D35*
X94350000Y-99074511D02*
X94325489Y-99050000D01*
D34*
X119600000Y-96900000D02*
X122500000Y-96900000D01*
X127375480Y-97575480D02*
X127300000Y-97500000D01*
D35*
X124200000Y-104300000D02*
X123600000Y-104900000D01*
X127200000Y-100000000D02*
X126900000Y-100300000D01*
D34*
X118300000Y-96900000D02*
X119600000Y-96900000D01*
D35*
X99050000Y-103012500D02*
X97150000Y-103012500D01*
D34*
X117200000Y-98000000D02*
X118300000Y-96900000D01*
X127375480Y-99824520D02*
X127375480Y-97575480D01*
X127200000Y-100000000D02*
X127375480Y-99824520D01*
D35*
X99050000Y-103012500D02*
X100850000Y-103012500D01*
X107225000Y-101500000D02*
X107225000Y-102875000D01*
X94350000Y-103050000D02*
X94350000Y-99074511D01*
G04 #@! TO.N,AVDD*
X96200000Y-52500000D02*
X100100000Y-48600000D01*
X112180000Y-48600000D02*
X121930000Y-58350000D01*
X88650000Y-82450000D02*
X88650000Y-79350000D01*
X114562500Y-93862500D02*
X116400000Y-93862500D01*
X103150000Y-82450000D02*
X114562500Y-93862500D01*
D34*
X122018750Y-94318750D02*
X123018750Y-94318750D01*
D35*
X103150000Y-82450000D02*
X96200000Y-75500000D01*
X100100000Y-48600000D02*
X112180000Y-48600000D01*
X118400000Y-93862500D02*
X120500000Y-93862500D01*
X88650000Y-82450000D02*
X103150000Y-82450000D01*
X88650000Y-79350000D02*
X88700000Y-79300000D01*
D36*
X123100000Y-94300000D02*
X124837500Y-94300000D01*
D35*
X116400000Y-93862500D02*
X118400000Y-93862500D01*
X96200000Y-75500000D02*
X96200000Y-52500000D01*
D34*
X121581250Y-93881250D02*
X122018750Y-94318750D01*
X121581250Y-93881250D02*
X120518750Y-93881250D01*
X120518750Y-93881250D02*
X120500000Y-93862500D01*
G04 #@! TO.N,Net-(C11-Pad2)*
X123600000Y-92900000D02*
X122800000Y-92100000D01*
D36*
X124837500Y-93300000D02*
X124000000Y-93300000D01*
D34*
X122800000Y-92100000D02*
X122800000Y-91462500D01*
D36*
X124000000Y-93300000D02*
X123600000Y-92900000D01*
D35*
G04 #@! TO.N,MICBIAS*
X144640000Y-74550000D02*
X144640000Y-73300000D01*
D36*
X124837500Y-92800000D02*
X127100000Y-92800000D01*
D35*
X130000000Y-89000000D02*
X132900000Y-86100000D01*
X123340000Y-74800000D02*
X123490000Y-74650000D01*
X132900000Y-81100000D02*
X134400000Y-79600000D01*
D34*
X128800000Y-90500000D02*
X128800000Y-90200000D01*
D35*
X102815000Y-57675000D02*
X102890000Y-57750000D01*
X102802500Y-62032500D02*
X104107500Y-62032500D01*
X115590000Y-58050000D02*
X119090000Y-58050000D01*
X137127500Y-74150000D02*
X137127500Y-72912500D01*
D34*
X128800000Y-91100000D02*
X128800000Y-90500000D01*
X128800000Y-90200000D02*
X130000000Y-89000000D01*
D35*
X137127500Y-72912500D02*
X137390000Y-72650000D01*
X123340000Y-76250000D02*
X123340000Y-74800000D01*
X104107500Y-62032500D02*
X104290000Y-61850000D01*
X130727500Y-73950000D02*
X130727500Y-72612500D01*
D36*
X127100000Y-92800000D02*
X128200000Y-91700000D01*
D35*
X115870000Y-74962500D02*
X115870000Y-73270000D01*
X132900000Y-86100000D02*
X132900000Y-81100000D01*
X144640000Y-73300000D02*
X144190000Y-72850000D01*
X134737500Y-79600000D02*
X134637500Y-79500000D01*
X108787500Y-73252500D02*
X109190000Y-72850000D01*
X108787500Y-74450000D02*
X108787500Y-73252500D01*
X119090000Y-58050000D02*
X119390000Y-58350000D01*
X134400000Y-79600000D02*
X134737500Y-79600000D01*
X102815000Y-55862500D02*
X102815000Y-57675000D01*
X115870000Y-73270000D02*
X115890000Y-73250000D01*
D34*
X128200000Y-91700000D02*
X128800000Y-91100000D01*
D35*
X130727500Y-72612500D02*
X130890000Y-72450000D01*
G04 #@! TO.N,VINR1*
X113945000Y-70650000D02*
X114457500Y-71162500D01*
X131100000Y-81100000D02*
X128824520Y-78824520D01*
X125590000Y-64850000D02*
X132090000Y-58350000D01*
X113945000Y-67162500D02*
X113945000Y-70650000D01*
X128824520Y-78824520D02*
X117712020Y-78824520D01*
X116257500Y-64850000D02*
X113945000Y-67162500D01*
X114045000Y-74962500D02*
X114045000Y-71575000D01*
X117712020Y-78824520D02*
X113987500Y-75100000D01*
X116257500Y-64850000D02*
X125590000Y-64850000D01*
X131100000Y-82937500D02*
X131100000Y-81100000D01*
X114045000Y-71575000D02*
X114457500Y-71162500D01*
D36*
G04 #@! TO.N,/1R*
X131200000Y-84762500D02*
X131100000Y-84662500D01*
X124837500Y-92300000D02*
X126500000Y-92300000D01*
X128000000Y-89000000D02*
X131200000Y-85800000D01*
X131200000Y-85800000D02*
X131200000Y-84762500D01*
X128000000Y-90800000D02*
X128000000Y-89000000D01*
X126500000Y-92300000D02*
X128000000Y-90800000D01*
D35*
G04 #@! TO.N,VINL1*
X128200000Y-82937500D02*
X128200000Y-82000000D01*
X114150000Y-63450000D02*
X124450000Y-63450000D01*
X106962500Y-74450000D02*
X107432500Y-73980000D01*
X126400000Y-80200000D02*
X112787500Y-80200000D01*
X107432500Y-73980000D02*
X107432500Y-67620000D01*
X124450000Y-63450000D02*
X129550000Y-58350000D01*
X111950000Y-65650000D02*
X114150000Y-63450000D01*
X107432500Y-67620000D02*
X107062500Y-67250000D01*
X128200000Y-82000000D02*
X126400000Y-80200000D01*
X112787500Y-80200000D02*
X106987500Y-74400000D01*
X108662500Y-65650000D02*
X111950000Y-65650000D01*
X107062500Y-67250000D02*
X108662500Y-65650000D01*
D36*
G04 #@! TO.N,/1L*
X127300000Y-90600000D02*
X127300000Y-87900000D01*
X128300000Y-84762500D02*
X128200000Y-84662500D01*
X128300000Y-86900000D02*
X128300000Y-84762500D01*
X126100000Y-91800000D02*
X127300000Y-90600000D01*
X127300000Y-87900000D02*
X128300000Y-86900000D01*
X124837500Y-91800000D02*
X126100000Y-91800000D01*
D34*
G04 #@! TO.N,VINR3*
X139100000Y-82000000D02*
X139900000Y-81200000D01*
D35*
X126630000Y-66350000D02*
X123115000Y-66350000D01*
D34*
X139900000Y-81200000D02*
X139900000Y-79100000D01*
X123265000Y-78000000D02*
X121515000Y-76250000D01*
D35*
X121615000Y-71820000D02*
X122032500Y-72237500D01*
X123115000Y-66350000D02*
X121615000Y-67850000D01*
X121515000Y-76250000D02*
X121515000Y-72755000D01*
X121615000Y-67850000D02*
X121615000Y-71820000D01*
X134630000Y-58350000D02*
X126630000Y-66350000D01*
D34*
X138362500Y-82000000D02*
X139100000Y-82000000D01*
X138800000Y-78000000D02*
X123265000Y-78000000D01*
D35*
X121515000Y-72755000D02*
X122032500Y-72237500D01*
D34*
X139900000Y-79100000D02*
X138800000Y-78000000D01*
D36*
G04 #@! TO.N,/3R*
X130562500Y-90800000D02*
X130562500Y-90537500D01*
X134700000Y-86400000D02*
X134700000Y-83937500D01*
X134700000Y-83937500D02*
X136637500Y-82000000D01*
X130562500Y-90537500D02*
X134700000Y-86400000D01*
D35*
G04 #@! TO.N,VINL3*
X128902500Y-73950000D02*
X128902500Y-70917500D01*
X129457500Y-67405000D02*
X129002500Y-66950000D01*
X128902500Y-70917500D02*
X129457500Y-70362500D01*
X137170000Y-58350000D02*
X129002500Y-66517500D01*
D34*
X139200000Y-77000000D02*
X132318407Y-77000000D01*
X140900000Y-82562500D02*
X140900000Y-78700000D01*
X132318407Y-77000000D02*
X129268407Y-73950000D01*
D35*
X129002500Y-66517500D02*
X129002500Y-66950000D01*
D34*
X138362500Y-85100000D02*
X140900000Y-82562500D01*
X140900000Y-78700000D02*
X139200000Y-77000000D01*
D35*
X129457500Y-70362500D02*
X129457500Y-67405000D01*
D34*
X129268407Y-73950000D02*
X128902500Y-73950000D01*
D36*
G04 #@! TO.N,/3L*
X131365006Y-91300000D02*
X136637500Y-86027506D01*
X130562500Y-91300000D02*
X131365006Y-91300000D01*
X136637500Y-86027506D02*
X136637500Y-85100000D01*
D34*
G04 #@! TO.N,VINR4*
X141700000Y-78000000D02*
X139800000Y-76100000D01*
X139100000Y-88000000D02*
X141700000Y-85400000D01*
D35*
X135302500Y-71167500D02*
X135832500Y-70637500D01*
X135602500Y-65997500D02*
X139710000Y-61890000D01*
X135602500Y-70407500D02*
X135832500Y-70637500D01*
D34*
X139800000Y-76100000D02*
X137252500Y-76100000D01*
X137252500Y-76100000D02*
X135302500Y-74150000D01*
X138362500Y-88000000D02*
X139100000Y-88000000D01*
D35*
X135602500Y-66750000D02*
X135602500Y-65997500D01*
D34*
X141700000Y-85400000D02*
X141700000Y-78000000D01*
D35*
X135302500Y-74150000D02*
X135302500Y-71167500D01*
X135602500Y-66750000D02*
X135602500Y-70407500D01*
X139710000Y-61890000D02*
X139710000Y-58350000D01*
D36*
G04 #@! TO.N,/4R*
X132837500Y-91800000D02*
X136637500Y-88000000D01*
X130562500Y-91800000D02*
X132837500Y-91800000D01*
D34*
G04 #@! TO.N,VINL4*
X140600000Y-88200000D02*
X142815000Y-85985000D01*
D35*
X142802500Y-70407500D02*
X143057500Y-70662500D01*
D34*
X140600000Y-89600000D02*
X140600000Y-88200000D01*
D35*
X142250000Y-58350000D02*
X142250000Y-65997500D01*
X142250000Y-65997500D02*
X142802500Y-66550000D01*
X142815000Y-74550000D02*
X142815000Y-70905000D01*
D34*
X142815000Y-85985000D02*
X142815000Y-74550000D01*
D35*
X142815000Y-70905000D02*
X143057500Y-70662500D01*
D34*
X138362500Y-90900000D02*
X139300000Y-90900000D01*
D35*
X142802500Y-66550000D02*
X142802500Y-70407500D01*
D34*
X139300000Y-90900000D02*
X140600000Y-89600000D01*
D36*
G04 #@! TO.N,/4L*
X130562500Y-92300000D02*
X135237500Y-92300000D01*
X135237500Y-92300000D02*
X136637500Y-90900000D01*
D35*
G04 #@! TO.N,VINR2*
X106215000Y-63390000D02*
X106670000Y-63845000D01*
X110400000Y-81400000D02*
X102700000Y-73700000D01*
X123510000Y-61850000D02*
X127010000Y-58350000D01*
X111655000Y-63845000D02*
X113650000Y-61850000D01*
X113650000Y-61850000D02*
X123510000Y-61850000D01*
X125400000Y-82700000D02*
X124100000Y-81400000D01*
X124100000Y-81400000D02*
X110400000Y-81400000D01*
X102700000Y-73700000D02*
X102700000Y-63812500D01*
X125400000Y-82937500D02*
X125400000Y-82700000D01*
X105747500Y-63857500D02*
X106215000Y-63390000D01*
X106670000Y-63845000D02*
X111655000Y-63845000D01*
X102802500Y-63857500D02*
X105747500Y-63857500D01*
D36*
G04 #@! TO.N,/2R*
X126400000Y-90540006D02*
X126400000Y-87500000D01*
X125640006Y-91300000D02*
X126400000Y-90540006D01*
X124837500Y-91300000D02*
X125640006Y-91300000D01*
X126400000Y-87500000D02*
X125400000Y-86500000D01*
X125400000Y-86500000D02*
X125400000Y-84662500D01*
D35*
G04 #@! TO.N,VINL2*
X122070000Y-60750000D02*
X124470000Y-58350000D01*
X109337500Y-82937500D02*
X100700000Y-74300000D01*
X106002500Y-54037500D02*
X106415000Y-54450000D01*
X102815000Y-54037500D02*
X106002500Y-54037500D01*
X100700000Y-74300000D02*
X100700000Y-55500000D01*
X102212500Y-53987500D02*
X102800000Y-53987500D01*
X106415000Y-54450000D02*
X108802500Y-54450000D01*
X108802500Y-54450000D02*
X109215000Y-54037500D01*
X100700000Y-55500000D02*
X102212500Y-53987500D01*
X115927500Y-60750000D02*
X122070000Y-60750000D01*
X122500000Y-82937500D02*
X109337500Y-82937500D01*
X115927500Y-60750000D02*
X109215000Y-54037500D01*
D36*
G04 #@! TO.N,/2L*
X124837500Y-90800000D02*
X124837500Y-87937500D01*
X122600000Y-84762500D02*
X122500000Y-84662500D01*
X122600000Y-85700000D02*
X122600000Y-84762500D01*
X124837500Y-87937500D02*
X122600000Y-85700000D01*
D35*
G04 #@! TO.N,Net-(IC4-Pad3)*
X92450000Y-103050000D02*
X91120000Y-103050000D01*
X91120000Y-103050000D02*
X89782500Y-101712500D01*
G04 #@! TO.N,SCKI(3.3V)*
X124837500Y-101162500D02*
X124837500Y-98024520D01*
X124837500Y-102542500D02*
X139995000Y-117700000D01*
X109650000Y-116350000D02*
X124837500Y-101162500D01*
X105800000Y-116350000D02*
X109650000Y-116350000D01*
X124837500Y-101162500D02*
X124837500Y-102542500D01*
D36*
G04 #@! TO.N,DOUT*
X131800000Y-96800000D02*
X133900000Y-98900000D01*
X133900000Y-101795000D02*
X142400000Y-110295000D01*
X133900000Y-98900000D02*
X133900000Y-101795000D01*
X130562500Y-96800000D02*
X131800000Y-96800000D01*
G04 #@! TO.N,BCK*
X130562500Y-97300000D02*
X131400000Y-97300000D01*
X131400000Y-97300000D02*
X133100000Y-99000000D01*
X133100000Y-103535000D02*
X142400000Y-112835000D01*
X133100000Y-99000000D02*
X133100000Y-103535000D01*
D35*
G04 #@! TO.N,LRCK*
X130600000Y-105765000D02*
X130600000Y-98024520D01*
X142535000Y-117700000D02*
X130600000Y-105765000D01*
G04 #@! TO.N,XO_BUFF*
X121995000Y-112400000D02*
X127295000Y-117700000D01*
X92450000Y-105550000D02*
X91150000Y-105550000D01*
X96000000Y-104900000D02*
X99100000Y-104900000D01*
X104100000Y-106100000D02*
X104500000Y-105700000D01*
X113200000Y-110500000D02*
X113300000Y-110500000D01*
X91150000Y-105550000D02*
X90500000Y-104900000D01*
X109300000Y-106600000D02*
X113200000Y-110500000D01*
X102700000Y-106100000D02*
X104100000Y-106100000D01*
X108225489Y-105525489D02*
X109300000Y-106600000D01*
X104500000Y-105700000D02*
X104674511Y-105525489D01*
X115700000Y-112400000D02*
X121995000Y-112400000D01*
X99100000Y-104900000D02*
X99200000Y-105000000D01*
X104674511Y-105525489D02*
X108225489Y-105525489D01*
G04 #@! TO.N,Net-(IC4-Pad5)*
X93387500Y-111800000D02*
X92670000Y-111800000D01*
X93400000Y-107045000D02*
X93400000Y-105550000D01*
X90657500Y-109787500D02*
X93400000Y-107045000D01*
X92670000Y-111800000D02*
X90657500Y-109787500D01*
D36*
G04 #@! TO.N,/MDO*
X130562500Y-92800000D02*
X139575000Y-92800000D01*
X139575000Y-92800000D02*
X142400000Y-89975000D01*
G04 #@! TO.N,/MD1{slash}MS{slash}AD*
X141615000Y-93300000D02*
X142400000Y-92515000D01*
X130562500Y-93300000D02*
X141615000Y-93300000D01*
G04 #@! TO.N,/MD3{slash}MC{slash}SCL*
X130562500Y-93800000D02*
X136700000Y-93800000D01*
X137955000Y-95055000D02*
X142400000Y-95055000D01*
X136700000Y-93800000D02*
X137955000Y-95055000D01*
G04 #@! TO.N,/DOUT2{slash}MD2{slash}MOSI{slash}SDA*
X130562500Y-94300000D02*
X135800000Y-94300000D01*
X139095000Y-97595000D02*
X142400000Y-97595000D01*
X135800000Y-94300000D02*
X139095000Y-97595000D01*
G04 #@! TO.N,/MD4{slash}MISO{slash}GPIO0*
X134900000Y-94800000D02*
X140235000Y-100135000D01*
X140235000Y-100135000D02*
X142400000Y-100135000D01*
X130562500Y-94800000D02*
X134900000Y-94800000D01*
G04 #@! TO.N,/MD5{slash}GPIO1{slash}INTA{slash}DMIN*
X130562500Y-95300000D02*
X133700000Y-95300000D01*
X133700000Y-95300000D02*
X141075000Y-102675000D01*
X141075000Y-102675000D02*
X142400000Y-102675000D01*
D35*
G04 #@! TO.N,OSC*
X105700000Y-106700000D02*
X105800000Y-106600000D01*
D34*
X95600000Y-96400000D02*
X98500000Y-99300000D01*
X95100000Y-95900000D02*
X95600000Y-96400000D01*
D36*
X93900000Y-96100000D02*
X94100000Y-95900000D01*
D35*
X105700000Y-108975000D02*
X105700000Y-106700000D01*
D34*
X94700000Y-95900000D02*
X95100000Y-95900000D01*
D35*
X114200000Y-113800000D02*
X120855000Y-113800000D01*
D36*
X94100000Y-95900000D02*
X94700000Y-95900000D01*
X93675489Y-97150000D02*
X93675489Y-96324511D01*
D35*
X109375000Y-108975000D02*
X112100000Y-111700000D01*
D36*
X93675489Y-96324511D02*
X93900000Y-96100000D01*
D35*
X105700000Y-108975000D02*
X109375000Y-108975000D01*
X120855000Y-113800000D02*
X124755000Y-117700000D01*
G04 #@! TO.N,Net-(D1-Pad1)*
X108975000Y-99650000D02*
X109025000Y-99600000D01*
X108975000Y-101500000D02*
X108975000Y-99650000D01*
G04 #@! TO.N,Net-(D2-Pad1)*
X89100000Y-117500000D02*
X89100000Y-119825000D01*
X89100000Y-119825000D02*
X89025000Y-119900000D01*
G04 #@! TO.N,Net-(D3-Pad1)*
X86775000Y-77550000D02*
X86700000Y-77475000D01*
X88700000Y-77550000D02*
X86775000Y-77550000D01*
D36*
G04 #@! TO.N,DVDD*
X124837500Y-97300000D02*
X123680000Y-97300000D01*
D35*
X97750000Y-108950000D02*
X102300000Y-104400000D01*
D34*
X94350000Y-105987500D02*
X96162500Y-107800000D01*
D35*
X112875000Y-104400000D02*
X119200000Y-98075000D01*
X96631250Y-117831250D02*
X99100000Y-120300000D01*
D37*
X125700000Y-97300000D02*
X125900000Y-97100000D01*
D35*
X96631250Y-115131250D02*
X96631250Y-117831250D01*
X93475000Y-114875000D02*
X93475000Y-113750000D01*
X103600000Y-108975000D02*
X103600000Y-110625000D01*
X99100000Y-120300000D02*
X112000000Y-120300000D01*
X119200000Y-98075000D02*
X121300000Y-98075000D01*
X95100000Y-115375000D02*
X96387500Y-115375000D01*
X100237500Y-115375000D02*
X100400000Y-115537500D01*
X112000000Y-120300000D02*
X117100000Y-115200000D01*
X119715000Y-115200000D02*
X122215000Y-117700000D01*
D34*
X94350000Y-105550000D02*
X94350000Y-105987500D01*
D35*
X90400000Y-113750000D02*
X93475000Y-113750000D01*
X93475000Y-113750000D02*
X95100000Y-115375000D01*
X103700000Y-116350000D02*
X103700000Y-118000000D01*
D37*
X125900000Y-96900000D02*
X125800000Y-96800000D01*
X125800000Y-96800000D02*
X124837500Y-96800000D01*
D34*
X122905000Y-98075000D02*
X123190000Y-97790000D01*
D35*
X102300000Y-104400000D02*
X112875000Y-104400000D01*
D36*
X123680000Y-97300000D02*
X123190000Y-97790000D01*
D37*
X125900000Y-97100000D02*
X125900000Y-96900000D01*
D35*
X117100000Y-115200000D02*
X119715000Y-115200000D01*
D37*
X124837500Y-97300000D02*
X125700000Y-97300000D01*
D35*
X90850000Y-117500000D02*
X93475000Y-114875000D01*
D34*
X121300000Y-98075000D02*
X122905000Y-98075000D01*
D35*
G04 #@! TO.N,VCC*
X82000000Y-84225000D02*
X83737500Y-84225000D01*
X79500000Y-117200000D02*
X83800000Y-121500000D01*
X85587500Y-113750000D02*
X87900000Y-113750000D01*
X79500000Y-114700000D02*
X79500000Y-117200000D01*
D34*
X86150000Y-84350000D02*
X86974022Y-84350000D01*
X89100000Y-115274022D02*
X89100000Y-114125978D01*
X86974022Y-84350000D02*
X87300000Y-84024022D01*
D35*
X83800000Y-84162500D02*
X83987500Y-84350000D01*
D34*
X87300000Y-84024022D02*
X87300000Y-82775978D01*
D35*
X117300000Y-117700000D02*
X119675000Y-117700000D01*
D34*
X88724022Y-113750000D02*
X87900000Y-113750000D01*
X87900000Y-115650000D02*
X88724022Y-115650000D01*
D35*
X83987500Y-84350000D02*
X86150000Y-84350000D01*
X113500000Y-121500000D02*
X117300000Y-117700000D01*
X83800000Y-113837500D02*
X85500000Y-113837500D01*
D34*
X86974022Y-82450000D02*
X86150000Y-82450000D01*
D35*
X82300000Y-111900000D02*
X79500000Y-114700000D01*
X83800000Y-121500000D02*
X113500000Y-121500000D01*
X85500000Y-113837500D02*
X85587500Y-113750000D01*
D34*
X89100000Y-114125978D02*
X88724022Y-113750000D01*
X87300000Y-82775978D02*
X86974022Y-82450000D01*
X88724022Y-115650000D02*
X89100000Y-115274022D01*
D35*
X83737500Y-84225000D02*
X83800000Y-84162500D01*
G04 #@! TO.N,Net-(D4-Pad1)*
X75862500Y-99675000D02*
X75787500Y-99600000D01*
X75862500Y-101300000D02*
X75862500Y-99675000D01*
D36*
G04 #@! TO.N,/MD6{slash}GPIO2{slash}INTB{slash}DMCLK*
X142315000Y-105215000D02*
X142400000Y-105215000D01*
X132900000Y-95800000D02*
X142315000Y-105215000D01*
X130562500Y-95800000D02*
X132900000Y-95800000D01*
G04 #@! TO.N,/INT{slash}GPIO3{slash}INTC*
X134800000Y-98900000D02*
X134800000Y-100155000D01*
X134800000Y-100155000D02*
X142400000Y-107755000D01*
X130562500Y-96300000D02*
X132200000Y-96300000D01*
X132200000Y-96300000D02*
X134800000Y-98900000D01*
D35*
G04 #@! TO.N,unconnected-(J4-Pad6)*
X73050000Y-112475000D02*
X76700000Y-112475000D01*
X73050000Y-104725000D02*
X73050000Y-112475000D01*
X76700000Y-112475000D02*
X76850000Y-112325000D01*
X73050000Y-104725000D02*
X76700000Y-104725000D01*
X76700000Y-104725000D02*
X76850000Y-104875000D01*
G04 #@! TO.N,GNDA*
X100300000Y-86800000D02*
X99500000Y-86000000D01*
D34*
X122819230Y-93619230D02*
X123200000Y-93619230D01*
D35*
X118400000Y-92137500D02*
X116400000Y-92137500D01*
X86100000Y-79300000D02*
X84600000Y-77800000D01*
X100300000Y-88025000D02*
X100300000Y-86800000D01*
X144627500Y-66550000D02*
X144627500Y-69692500D01*
X83800000Y-82437500D02*
X83800000Y-80700000D01*
X108887500Y-69652500D02*
X109972500Y-70737500D01*
X109702500Y-62020000D02*
X109702500Y-60602500D01*
X122800000Y-89100000D02*
X123700000Y-88200000D01*
X124650000Y-67850000D02*
X125150000Y-68350000D01*
D34*
X86150000Y-83400000D02*
X84762500Y-83400000D01*
D35*
X137427500Y-66750000D02*
X139050000Y-66750000D01*
X108887500Y-67250000D02*
X110150000Y-67250000D01*
D36*
X123200000Y-93619230D02*
X123380770Y-93800000D01*
D35*
X122800000Y-89737500D02*
X122800000Y-89100000D01*
X137427500Y-66750000D02*
X137427500Y-69692500D01*
X147700000Y-93325000D02*
X147700000Y-91500000D01*
X131997500Y-70362500D02*
X130827500Y-69192500D01*
X82000000Y-82500000D02*
X81600000Y-82100000D01*
D34*
X122400000Y-93200000D02*
X122819230Y-93619230D01*
D35*
X130827500Y-66950000D02*
X130827500Y-69192500D01*
X81600000Y-82100000D02*
X80200000Y-82100000D01*
X108887500Y-67250000D02*
X108887500Y-69652500D01*
X109702500Y-62020000D02*
X107385000Y-62020000D01*
X117362500Y-67162500D02*
X117850000Y-67650000D01*
X75800000Y-86625000D02*
X75800000Y-84600000D01*
X114637500Y-92137500D02*
X114600000Y-92100000D01*
X110150000Y-67250000D02*
X110850000Y-67950000D01*
X123440000Y-71105000D02*
X124572500Y-72237500D01*
X107385000Y-62020000D02*
X106215000Y-60850000D01*
X104400000Y-87600000D02*
X104200000Y-87400000D01*
X93500000Y-86700000D02*
X94900000Y-85300000D01*
X130827500Y-66950000D02*
X132550000Y-66950000D01*
X120500000Y-92137500D02*
X118400000Y-92137500D01*
X152900000Y-93325000D02*
X152900000Y-92400000D01*
X107542500Y-55862500D02*
X106415000Y-56990000D01*
X138372500Y-70637500D02*
X137427500Y-69692500D01*
X104400000Y-89125000D02*
X104400000Y-87600000D01*
X116400000Y-92137500D02*
X114637500Y-92137500D01*
X144627500Y-69692500D02*
X145597500Y-70662500D01*
X109215000Y-55862500D02*
X107542500Y-55862500D01*
X115770000Y-67162500D02*
X117362500Y-67162500D01*
X123440000Y-67850000D02*
X124650000Y-67850000D01*
D34*
X84762500Y-83400000D02*
X83800000Y-82437500D01*
D35*
X109215000Y-56815000D02*
X110350000Y-57950000D01*
X115770000Y-69935000D02*
X116997500Y-71162500D01*
X75800000Y-84600000D02*
X75700000Y-84500000D01*
X144627500Y-66550000D02*
X146350000Y-66550000D01*
X123440000Y-67850000D02*
X123440000Y-71105000D01*
X109702500Y-60602500D02*
X109250000Y-60150000D01*
X137900000Y-79600000D02*
X138300000Y-80000000D01*
X86700000Y-79300000D02*
X86100000Y-79300000D01*
X115770000Y-67162500D02*
X115770000Y-69935000D01*
X136462500Y-79600000D02*
X137900000Y-79600000D01*
D36*
X123380770Y-93800000D02*
X124837500Y-93800000D01*
D35*
X152900000Y-92400000D02*
X152100000Y-91600000D01*
X109215000Y-55862500D02*
X109215000Y-56815000D01*
G04 #@! TO.N,GNDD*
X107200000Y-99600000D02*
X106100000Y-99600000D01*
D36*
X126400000Y-99000000D02*
X126400000Y-97900000D01*
D35*
X100300000Y-91100000D02*
X101200000Y-92000000D01*
X75800000Y-88375000D02*
X75800000Y-90400000D01*
X107975000Y-112900000D02*
X105700000Y-110625000D01*
X102750000Y-101287500D02*
X104187500Y-101287500D01*
X104400000Y-90875000D02*
X104475000Y-90875000D01*
X152900000Y-95075000D02*
X152900000Y-95700000D01*
X92250000Y-88450000D02*
X93500000Y-88450000D01*
D34*
X92900000Y-95900000D02*
X92200000Y-95200000D01*
D35*
X112300000Y-97000000D02*
X113962500Y-97000000D01*
X90112500Y-96217500D02*
X91830000Y-94500000D01*
X100400000Y-109637500D02*
X99662500Y-109637500D01*
X90850000Y-119900000D02*
X92537500Y-119900000D01*
D34*
X86362500Y-114700000D02*
X87900000Y-114700000D01*
X92200000Y-95200000D02*
X92200000Y-94500000D01*
D35*
X100300000Y-89775000D02*
X100300000Y-91100000D01*
X87800000Y-109470000D02*
X88117500Y-109787500D01*
D34*
X85500000Y-115562500D02*
X86362500Y-114700000D01*
D35*
X85500000Y-115562500D02*
X85500000Y-117300000D01*
D36*
X126400000Y-97900000D02*
X126500000Y-97800000D01*
D35*
X93400000Y-101300000D02*
X93000000Y-100900000D01*
D36*
X126500000Y-96700000D02*
X126100000Y-96300000D01*
D35*
X147700000Y-95700000D02*
X146900000Y-96500000D01*
X100850000Y-101287500D02*
X102750000Y-101287500D01*
D36*
X126000000Y-99400000D02*
X126400000Y-99000000D01*
D35*
X106100000Y-99600000D02*
X105400000Y-98900000D01*
D36*
X76900000Y-109900000D02*
X78300000Y-109900000D01*
D34*
X78900000Y-110500000D02*
X78900000Y-110600000D01*
D35*
X121300000Y-99800000D02*
X121300000Y-101800000D01*
X99050000Y-101287500D02*
X97150000Y-101287500D01*
X98562500Y-117262500D02*
X98500000Y-117200000D01*
X93400000Y-103050000D02*
X93400000Y-101300000D01*
X113962500Y-97000000D02*
X114100000Y-97137500D01*
X99662500Y-109637500D02*
X98600000Y-110700000D01*
X99050000Y-101287500D02*
X100850000Y-101287500D01*
D34*
X78600000Y-110200000D02*
X78900000Y-110500000D01*
D36*
X94200000Y-97900000D02*
X94000000Y-98100000D01*
D35*
X110900000Y-97000000D02*
X110600000Y-96700000D01*
X108100000Y-112900000D02*
X107975000Y-112900000D01*
D36*
X78300000Y-109900000D02*
X78600000Y-110200000D01*
D35*
X94437500Y-107800000D02*
X94437500Y-109537500D01*
X105800000Y-118000000D02*
X108600000Y-118000000D01*
D36*
X93025489Y-97949022D02*
X93025489Y-97150000D01*
D35*
X147700000Y-95075000D02*
X147700000Y-95700000D01*
X91830000Y-94500000D02*
X92200000Y-94500000D01*
X100400000Y-117262500D02*
X98562500Y-117262500D01*
X77612500Y-99600000D02*
X79300000Y-99600000D01*
D36*
X93176467Y-98100000D02*
X93025489Y-97949022D01*
D35*
X93800000Y-117100000D02*
X93300000Y-117600000D01*
X95100000Y-117100000D02*
X93800000Y-117100000D01*
X104187500Y-101287500D02*
X104450000Y-101550000D01*
D36*
X94000000Y-98100000D02*
X93176467Y-98100000D01*
D35*
X152900000Y-95700000D02*
X152100000Y-96500000D01*
X104475000Y-90875000D02*
X106100000Y-92500000D01*
X112300000Y-97000000D02*
X110900000Y-97000000D01*
X119200000Y-99800000D02*
X119200000Y-101800000D01*
D36*
X126100000Y-96300000D02*
X124837500Y-96300000D01*
X94200000Y-97275489D02*
X94200000Y-97900000D01*
D35*
X94437500Y-109537500D02*
X94800000Y-109900000D01*
X78900000Y-110600000D02*
X79600000Y-111300000D01*
D36*
X126500000Y-97800000D02*
X126500000Y-96700000D01*
D35*
X83800000Y-115562500D02*
X82100000Y-115500000D01*
D36*
X93025489Y-97150000D02*
X93025489Y-96025489D01*
D35*
X87800000Y-106200000D02*
X87800000Y-109470000D01*
D36*
X93025489Y-96025489D02*
X92900000Y-95900000D01*
D35*
X91200000Y-89500000D02*
X92250000Y-88450000D01*
G04 #@! TD*
G04 #@! TA.AperFunction,Conductor*
G04 #@! TO.N,DVDD*
G36*
X95365663Y-105684487D02*
G01*
X95421650Y-105732136D01*
X95594294Y-105828624D01*
X95782392Y-105889740D01*
X95978777Y-105913158D01*
X95984911Y-105912686D01*
X95984913Y-105912686D01*
X96000116Y-105911516D01*
X96035239Y-105908813D01*
X96103590Y-105922942D01*
X96987303Y-106388054D01*
X97197361Y-106498611D01*
X97202560Y-106501506D01*
X98734203Y-107402472D01*
X98828580Y-107457988D01*
X98877154Y-107509767D01*
X98889722Y-107582220D01*
X98805362Y-108257103D01*
X98777065Y-108322217D01*
X98769430Y-108330570D01*
X97200000Y-109900000D01*
X97200000Y-111900000D01*
X97207391Y-111906159D01*
X97786084Y-112388404D01*
X97786086Y-112388405D01*
X97800000Y-112400000D01*
X98500000Y-112400000D01*
X99208358Y-111691642D01*
X99270670Y-111657616D01*
X99341485Y-111662681D01*
X99398321Y-111705228D01*
X99422780Y-111767733D01*
X99427075Y-111809132D01*
X99429968Y-111822528D01*
X99480488Y-111973953D01*
X99486653Y-111987115D01*
X99570426Y-112122492D01*
X99579460Y-112133890D01*
X99692129Y-112246363D01*
X99703540Y-112255375D01*
X99839063Y-112338912D01*
X99852241Y-112345056D01*
X100003766Y-112395315D01*
X100017132Y-112398181D01*
X100109770Y-112407672D01*
X100116185Y-112408000D01*
X100127885Y-112408000D01*
X100143124Y-112403525D01*
X100144329Y-112402135D01*
X100146000Y-112394452D01*
X100146000Y-112389885D01*
X100654000Y-112389885D01*
X100658475Y-112405124D01*
X100659865Y-112406329D01*
X100667548Y-112408000D01*
X100683766Y-112408000D01*
X100690282Y-112407663D01*
X100784132Y-112397925D01*
X100797528Y-112395032D01*
X100948953Y-112344512D01*
X100962115Y-112338347D01*
X101097492Y-112254574D01*
X101108890Y-112245540D01*
X101221363Y-112132871D01*
X101230375Y-112121460D01*
X101313912Y-111985937D01*
X101320056Y-111972759D01*
X101370315Y-111821234D01*
X101373181Y-111807868D01*
X101382672Y-111715230D01*
X101383000Y-111708815D01*
X101383000Y-111634615D01*
X101378525Y-111619376D01*
X101377135Y-111618171D01*
X101369452Y-111616500D01*
X100672115Y-111616500D01*
X100656876Y-111620975D01*
X100655671Y-111622365D01*
X100654000Y-111630048D01*
X100654000Y-112389885D01*
X100146000Y-112389885D01*
X100146000Y-111234500D01*
X100150355Y-111219669D01*
X102442001Y-111219669D01*
X102442371Y-111226490D01*
X102447895Y-111277352D01*
X102451521Y-111292604D01*
X102496676Y-111413054D01*
X102505214Y-111428649D01*
X102581715Y-111530724D01*
X102594276Y-111543285D01*
X102696351Y-111619786D01*
X102711946Y-111628324D01*
X102832394Y-111673478D01*
X102847649Y-111677105D01*
X102898514Y-111682631D01*
X102905328Y-111683000D01*
X103327885Y-111683000D01*
X103343124Y-111678525D01*
X103344329Y-111677135D01*
X103346000Y-111669452D01*
X103346000Y-110897115D01*
X103341525Y-110881876D01*
X103340135Y-110880671D01*
X103332452Y-110879000D01*
X102460116Y-110879000D01*
X102444877Y-110883475D01*
X102443672Y-110884865D01*
X102442001Y-110892548D01*
X102442001Y-111219669D01*
X100150355Y-111219669D01*
X100166002Y-111166379D01*
X100219658Y-111119886D01*
X100272000Y-111108500D01*
X101364885Y-111108500D01*
X101380124Y-111104025D01*
X101381329Y-111102635D01*
X101383000Y-111094952D01*
X101383000Y-111016234D01*
X101382663Y-111009718D01*
X101372925Y-110915868D01*
X101370032Y-110902472D01*
X101319512Y-110751047D01*
X101313349Y-110737889D01*
X101273859Y-110674074D01*
X101255022Y-110605622D01*
X101276184Y-110537852D01*
X101330625Y-110492281D01*
X101378660Y-110481793D01*
X101695408Y-110475900D01*
X101713522Y-110475563D01*
X101718634Y-110352885D01*
X102442000Y-110352885D01*
X102446475Y-110368124D01*
X102447865Y-110369329D01*
X102455548Y-110371000D01*
X103327885Y-110371000D01*
X103343124Y-110366525D01*
X103344329Y-110365135D01*
X103346000Y-110357452D01*
X103346000Y-109247115D01*
X103341525Y-109231876D01*
X103340135Y-109230671D01*
X103332452Y-109229000D01*
X102460116Y-109229000D01*
X102444877Y-109233475D01*
X102443672Y-109234865D01*
X102442001Y-109242548D01*
X102442001Y-109569669D01*
X102442371Y-109576490D01*
X102447895Y-109627352D01*
X102451522Y-109642606D01*
X102493945Y-109755771D01*
X102499128Y-109826578D01*
X102493945Y-109844229D01*
X102451522Y-109957391D01*
X102447895Y-109972649D01*
X102442369Y-110023514D01*
X102442000Y-110030328D01*
X102442000Y-110352885D01*
X101718634Y-110352885D01*
X101808446Y-108197381D01*
X101831267Y-108130153D01*
X101886812Y-108085934D01*
X101935441Y-108076632D01*
X102355957Y-108080320D01*
X102423900Y-108100919D01*
X102469920Y-108154980D01*
X102479407Y-108225340D01*
X102472834Y-108250545D01*
X102451522Y-108307395D01*
X102447895Y-108322649D01*
X102442369Y-108373514D01*
X102442000Y-108380328D01*
X102442000Y-108702885D01*
X102446475Y-108718124D01*
X102447865Y-108719329D01*
X102455548Y-108721000D01*
X103728000Y-108721000D01*
X103796121Y-108741002D01*
X103842614Y-108794658D01*
X103854000Y-108847000D01*
X103854000Y-111664884D01*
X103858475Y-111680123D01*
X103859865Y-111681328D01*
X103867548Y-111682999D01*
X104294669Y-111682999D01*
X104301490Y-111682629D01*
X104352352Y-111677105D01*
X104367607Y-111673478D01*
X104395038Y-111663195D01*
X104465845Y-111658012D01*
X104528214Y-111691933D01*
X104562343Y-111754189D01*
X104565261Y-111782363D01*
X104533792Y-115118124D01*
X104533324Y-115167689D01*
X104512681Y-115235618D01*
X104458589Y-115281602D01*
X104400523Y-115292316D01*
X104394683Y-115292000D01*
X103972115Y-115292000D01*
X103956876Y-115296475D01*
X103955671Y-115297865D01*
X103954000Y-115305548D01*
X103954000Y-118128000D01*
X103933998Y-118196121D01*
X103880342Y-118242614D01*
X103828000Y-118254000D01*
X102560116Y-118254000D01*
X102544877Y-118258475D01*
X102543672Y-118259865D01*
X102542001Y-118267548D01*
X102542001Y-118496728D01*
X102521999Y-118564849D01*
X102468343Y-118611342D01*
X102411337Y-118622642D01*
X101888541Y-118603279D01*
X101821208Y-118580769D01*
X101776733Y-118525429D01*
X101773136Y-118515569D01*
X101522509Y-117727885D01*
X102542000Y-117727885D01*
X102546475Y-117743124D01*
X102547865Y-117744329D01*
X102555548Y-117746000D01*
X103427885Y-117746000D01*
X103443124Y-117741525D01*
X103444329Y-117740135D01*
X103446000Y-117732452D01*
X103446000Y-116622115D01*
X103441525Y-116606876D01*
X103440135Y-116605671D01*
X103432452Y-116604000D01*
X102560116Y-116604000D01*
X102544877Y-116608475D01*
X102543672Y-116609865D01*
X102542001Y-116617548D01*
X102542001Y-116944669D01*
X102542371Y-116951490D01*
X102547895Y-117002352D01*
X102551522Y-117017606D01*
X102593945Y-117130771D01*
X102599128Y-117201578D01*
X102593945Y-117219229D01*
X102551522Y-117332391D01*
X102547895Y-117347649D01*
X102542369Y-117398514D01*
X102542000Y-117405328D01*
X102542000Y-117727885D01*
X101522509Y-117727885D01*
X101389431Y-117309639D01*
X101383500Y-117271435D01*
X101383500Y-116912928D01*
X101372707Y-116808907D01*
X101317654Y-116643893D01*
X101226116Y-116495969D01*
X101220932Y-116490794D01*
X101218856Y-116488721D01*
X101217890Y-116486955D01*
X101216387Y-116485059D01*
X101216712Y-116484802D01*
X101184780Y-116426437D01*
X101189786Y-116355617D01*
X101218703Y-116310536D01*
X101221363Y-116307872D01*
X101230375Y-116296460D01*
X101313912Y-116160937D01*
X101320056Y-116147759D01*
X101343232Y-116077885D01*
X102542000Y-116077885D01*
X102546475Y-116093124D01*
X102547865Y-116094329D01*
X102555548Y-116096000D01*
X103427885Y-116096000D01*
X103443124Y-116091525D01*
X103444329Y-116090135D01*
X103446000Y-116082452D01*
X103446000Y-115310116D01*
X103441525Y-115294877D01*
X103440135Y-115293672D01*
X103432452Y-115292001D01*
X103005331Y-115292001D01*
X102998510Y-115292371D01*
X102947648Y-115297895D01*
X102932396Y-115301521D01*
X102811946Y-115346676D01*
X102796351Y-115355214D01*
X102694276Y-115431715D01*
X102681715Y-115444276D01*
X102605214Y-115546351D01*
X102596676Y-115561946D01*
X102551522Y-115682394D01*
X102547895Y-115697649D01*
X102542369Y-115748514D01*
X102542000Y-115755328D01*
X102542000Y-116077885D01*
X101343232Y-116077885D01*
X101370315Y-115996234D01*
X101373181Y-115982868D01*
X101382672Y-115890230D01*
X101383000Y-115883815D01*
X101383000Y-115809615D01*
X101378525Y-115794376D01*
X101377135Y-115793171D01*
X101369452Y-115791500D01*
X99435115Y-115791500D01*
X99419876Y-115795975D01*
X99418671Y-115797365D01*
X99417000Y-115805048D01*
X99417000Y-115883766D01*
X99417337Y-115890282D01*
X99427075Y-115984132D01*
X99429968Y-115997528D01*
X99480488Y-116148953D01*
X99486652Y-116162113D01*
X99501865Y-116186696D01*
X99520703Y-116255148D01*
X99499542Y-116322918D01*
X99445102Y-116368489D01*
X99394721Y-116379000D01*
X99239634Y-116379000D01*
X99232377Y-116378791D01*
X99114056Y-116371965D01*
X99061385Y-116357009D01*
X98898127Y-116268735D01*
X98898120Y-116268732D01*
X98892701Y-116265802D01*
X98703768Y-116207318D01*
X98697643Y-116206674D01*
X98697642Y-116206674D01*
X98513204Y-116187289D01*
X98513202Y-116187289D01*
X98507075Y-116186645D01*
X98424576Y-116194153D01*
X98316251Y-116204011D01*
X98316248Y-116204012D01*
X98310112Y-116204570D01*
X98304206Y-116206308D01*
X98304202Y-116206309D01*
X98220153Y-116231046D01*
X98120381Y-116260410D01*
X98114920Y-116263265D01*
X98114915Y-116263267D01*
X98057825Y-116293113D01*
X97992193Y-116307242D01*
X96108833Y-116198586D01*
X96041978Y-116174694D01*
X95998653Y-116118450D01*
X95992613Y-116047711D01*
X96008830Y-116006682D01*
X96013911Y-115998439D01*
X96020056Y-115985259D01*
X96070315Y-115833734D01*
X96073181Y-115820368D01*
X96082672Y-115727730D01*
X96083000Y-115721315D01*
X96083000Y-115647115D01*
X96078525Y-115631876D01*
X96077135Y-115630671D01*
X96069452Y-115629000D01*
X94972000Y-115629000D01*
X94903879Y-115608998D01*
X94857386Y-115555342D01*
X94846000Y-115503000D01*
X94846000Y-115265385D01*
X99417000Y-115265385D01*
X99421475Y-115280624D01*
X99422865Y-115281829D01*
X99430548Y-115283500D01*
X100127885Y-115283500D01*
X100143124Y-115279025D01*
X100144329Y-115277635D01*
X100146000Y-115269952D01*
X100146000Y-115265385D01*
X100654000Y-115265385D01*
X100658475Y-115280624D01*
X100659865Y-115281829D01*
X100667548Y-115283500D01*
X101364885Y-115283500D01*
X101380124Y-115279025D01*
X101381329Y-115277635D01*
X101383000Y-115269952D01*
X101383000Y-115191234D01*
X101382663Y-115184718D01*
X101372925Y-115090868D01*
X101370032Y-115077472D01*
X101319512Y-114926047D01*
X101313347Y-114912885D01*
X101229574Y-114777508D01*
X101220540Y-114766110D01*
X101107871Y-114653637D01*
X101096460Y-114644625D01*
X100960937Y-114561088D01*
X100947759Y-114554944D01*
X100796234Y-114504685D01*
X100782868Y-114501819D01*
X100690230Y-114492328D01*
X100683815Y-114492000D01*
X100672115Y-114492000D01*
X100656876Y-114496475D01*
X100655671Y-114497865D01*
X100654000Y-114505548D01*
X100654000Y-115265385D01*
X100146000Y-115265385D01*
X100146000Y-114510115D01*
X100141525Y-114494876D01*
X100140135Y-114493671D01*
X100132452Y-114492000D01*
X100116234Y-114492000D01*
X100109718Y-114492337D01*
X100015868Y-114502075D01*
X100002472Y-114504968D01*
X99851047Y-114555488D01*
X99837885Y-114561653D01*
X99702508Y-114645426D01*
X99691110Y-114654460D01*
X99578637Y-114767129D01*
X99569625Y-114778540D01*
X99486088Y-114914063D01*
X99479944Y-114927241D01*
X99429685Y-115078766D01*
X99426819Y-115092132D01*
X99417328Y-115184770D01*
X99417000Y-115191185D01*
X99417000Y-115265385D01*
X94846000Y-115265385D01*
X94846000Y-115102885D01*
X95354000Y-115102885D01*
X95358475Y-115118124D01*
X95359865Y-115119329D01*
X95367548Y-115121000D01*
X96064885Y-115121000D01*
X96080124Y-115116525D01*
X96081329Y-115115135D01*
X96083000Y-115107452D01*
X96083000Y-115028734D01*
X96082663Y-115022218D01*
X96072925Y-114928368D01*
X96070032Y-114914972D01*
X96019512Y-114763547D01*
X96013347Y-114750385D01*
X95929574Y-114615008D01*
X95920540Y-114603610D01*
X95807871Y-114491137D01*
X95796460Y-114482125D01*
X95660937Y-114398588D01*
X95647759Y-114392444D01*
X95496234Y-114342185D01*
X95482868Y-114339319D01*
X95390230Y-114329828D01*
X95383815Y-114329500D01*
X95372115Y-114329500D01*
X95356876Y-114333975D01*
X95355671Y-114335365D01*
X95354000Y-114343048D01*
X95354000Y-115102885D01*
X94846000Y-115102885D01*
X94846000Y-114347615D01*
X94841525Y-114332376D01*
X94840135Y-114331171D01*
X94832452Y-114329500D01*
X94816234Y-114329500D01*
X94809718Y-114329837D01*
X94715868Y-114339575D01*
X94702472Y-114342468D01*
X94565876Y-114388040D01*
X94494926Y-114390624D01*
X94433843Y-114354440D01*
X94402018Y-114290976D01*
X94400000Y-114268516D01*
X94400000Y-112792233D01*
X94420002Y-112724112D01*
X94473658Y-112677619D01*
X94543932Y-112667515D01*
X94592116Y-112684973D01*
X94639063Y-112713912D01*
X94652241Y-112720056D01*
X94803766Y-112770315D01*
X94817132Y-112773181D01*
X94909770Y-112782672D01*
X94916185Y-112783000D01*
X94940385Y-112783000D01*
X94955624Y-112778525D01*
X94956829Y-112777135D01*
X94958500Y-112769452D01*
X94958500Y-112764885D01*
X95466500Y-112764885D01*
X95470975Y-112780124D01*
X95472365Y-112781329D01*
X95480048Y-112783000D01*
X95508766Y-112783000D01*
X95515282Y-112782663D01*
X95609132Y-112772925D01*
X95622528Y-112770032D01*
X95773953Y-112719512D01*
X95787115Y-112713347D01*
X95922492Y-112629574D01*
X95933890Y-112620540D01*
X96046363Y-112507871D01*
X96055375Y-112496460D01*
X96138912Y-112360937D01*
X96145056Y-112347759D01*
X96195315Y-112196234D01*
X96198181Y-112182868D01*
X96207672Y-112090230D01*
X96208000Y-112083815D01*
X96208000Y-112072115D01*
X96203525Y-112056876D01*
X96202135Y-112055671D01*
X96194452Y-112054000D01*
X95484615Y-112054000D01*
X95469376Y-112058475D01*
X95468171Y-112059865D01*
X95466500Y-112067548D01*
X95466500Y-112764885D01*
X94958500Y-112764885D01*
X94958500Y-111672000D01*
X94978502Y-111603879D01*
X95032158Y-111557386D01*
X95084500Y-111546000D01*
X96189885Y-111546000D01*
X96205124Y-111541525D01*
X96206329Y-111540135D01*
X96208000Y-111532452D01*
X96208000Y-111516234D01*
X96207663Y-111509718D01*
X96197925Y-111415868D01*
X96195032Y-111402472D01*
X96144512Y-111251047D01*
X96138347Y-111237885D01*
X96054574Y-111102508D01*
X96045540Y-111091110D01*
X95932871Y-110978637D01*
X95921460Y-110969625D01*
X95785937Y-110886088D01*
X95772759Y-110879944D01*
X95621234Y-110829685D01*
X95607868Y-110826819D01*
X95595207Y-110825522D01*
X95529480Y-110798680D01*
X95488699Y-110740565D01*
X95485811Y-110669627D01*
X95512668Y-110617850D01*
X95628078Y-110484145D01*
X95662567Y-110423434D01*
X95699460Y-110382734D01*
X95718451Y-110369329D01*
X96100000Y-110100000D01*
X96200000Y-109000000D01*
X96190399Y-108991999D01*
X96187225Y-108988060D01*
X96160056Y-108922468D01*
X96172662Y-108852599D01*
X96221041Y-108800638D01*
X96285334Y-108783000D01*
X96508766Y-108783000D01*
X96515282Y-108782663D01*
X96609132Y-108772925D01*
X96622528Y-108770032D01*
X96773953Y-108719512D01*
X96787115Y-108713347D01*
X96922492Y-108629574D01*
X96933890Y-108620540D01*
X97046363Y-108507871D01*
X97055375Y-108496460D01*
X97138912Y-108360937D01*
X97145056Y-108347759D01*
X97195315Y-108196234D01*
X97198181Y-108182868D01*
X97207672Y-108090230D01*
X97208000Y-108083815D01*
X97208000Y-108072115D01*
X97203525Y-108056876D01*
X97202135Y-108055671D01*
X97194452Y-108054000D01*
X96034500Y-108054000D01*
X95966379Y-108033998D01*
X95919886Y-107980342D01*
X95908500Y-107928000D01*
X95908500Y-107527885D01*
X96416500Y-107527885D01*
X96420975Y-107543124D01*
X96422365Y-107544329D01*
X96430048Y-107546000D01*
X97189885Y-107546000D01*
X97205124Y-107541525D01*
X97206329Y-107540135D01*
X97208000Y-107532452D01*
X97208000Y-107516234D01*
X97207663Y-107509718D01*
X97197925Y-107415868D01*
X97195032Y-107402472D01*
X97144512Y-107251047D01*
X97138347Y-107237885D01*
X97054574Y-107102508D01*
X97045540Y-107091110D01*
X96932871Y-106978637D01*
X96921460Y-106969625D01*
X96785937Y-106886088D01*
X96772759Y-106879944D01*
X96621234Y-106829685D01*
X96607868Y-106826819D01*
X96515230Y-106817328D01*
X96508815Y-106817000D01*
X96434615Y-106817000D01*
X96419376Y-106821475D01*
X96418171Y-106822865D01*
X96416500Y-106830548D01*
X96416500Y-107527885D01*
X95908500Y-107527885D01*
X95908500Y-106835115D01*
X95904025Y-106819876D01*
X95902635Y-106818671D01*
X95894952Y-106817000D01*
X95816234Y-106817000D01*
X95809718Y-106817337D01*
X95715868Y-106827075D01*
X95702472Y-106829968D01*
X95551047Y-106880488D01*
X95537885Y-106886653D01*
X95402508Y-106970426D01*
X95391106Y-106979464D01*
X95389433Y-106981139D01*
X95388007Y-106981919D01*
X95385373Y-106984007D01*
X95385016Y-106983556D01*
X95327151Y-107015219D01*
X95256331Y-107010216D01*
X95211246Y-106981299D01*
X95208185Y-106978244D01*
X95203003Y-106973071D01*
X95161372Y-106947409D01*
X95061150Y-106885631D01*
X95061148Y-106885630D01*
X95054920Y-106881791D01*
X94943640Y-106844881D01*
X94904595Y-106823676D01*
X94881985Y-106805587D01*
X94841288Y-106747413D01*
X94838504Y-106676471D01*
X94874515Y-106615285D01*
X94900190Y-106596680D01*
X94903646Y-106594788D01*
X95005724Y-106518285D01*
X95018285Y-106505724D01*
X95094786Y-106403649D01*
X95103324Y-106388054D01*
X95148478Y-106267606D01*
X95152105Y-106252351D01*
X95157631Y-106201486D01*
X95158000Y-106194673D01*
X95157999Y-105780441D01*
X95178001Y-105712321D01*
X95231656Y-105665827D01*
X95301930Y-105655723D01*
X95365663Y-105684487D01*
G37*
G04 #@! TD.AperFunction*
G04 #@! TD*
G04 #@! TA.AperFunction,Conductor*
G04 #@! TO.N,VCC*
G36*
X83996121Y-83928502D02*
G01*
X84042614Y-83982158D01*
X84054000Y-84034500D01*
X84054000Y-85189885D01*
X84058475Y-85205124D01*
X84059865Y-85206329D01*
X84067548Y-85208000D01*
X84083766Y-85208000D01*
X84090282Y-85207663D01*
X84184132Y-85197925D01*
X84197528Y-85195032D01*
X84348953Y-85144512D01*
X84362115Y-85138347D01*
X84497492Y-85054574D01*
X84508890Y-85045540D01*
X84621363Y-84932871D01*
X84630375Y-84921460D01*
X84713912Y-84785937D01*
X84720056Y-84772759D01*
X84745958Y-84694669D01*
X85067001Y-84694669D01*
X85067371Y-84701490D01*
X85072895Y-84752352D01*
X85076521Y-84767604D01*
X85121676Y-84888054D01*
X85130214Y-84903649D01*
X85206715Y-85005724D01*
X85219276Y-85018285D01*
X85321351Y-85094786D01*
X85336946Y-85103324D01*
X85457394Y-85148478D01*
X85472649Y-85152105D01*
X85523514Y-85157631D01*
X85530328Y-85158000D01*
X85877885Y-85158000D01*
X85893124Y-85153525D01*
X85894329Y-85152135D01*
X85896000Y-85144452D01*
X85896000Y-84622115D01*
X85891525Y-84606876D01*
X85890135Y-84605671D01*
X85882452Y-84604000D01*
X85085116Y-84604000D01*
X85069877Y-84608475D01*
X85068672Y-84609865D01*
X85067001Y-84617548D01*
X85067001Y-84694669D01*
X84745958Y-84694669D01*
X84770315Y-84621234D01*
X84773181Y-84607868D01*
X84782672Y-84515230D01*
X84783000Y-84508815D01*
X84783000Y-84284500D01*
X84803002Y-84216379D01*
X84856658Y-84169886D01*
X84909000Y-84158500D01*
X85326487Y-84158500D01*
X85370716Y-84166518D01*
X85457289Y-84198973D01*
X85457291Y-84198973D01*
X85464684Y-84201745D01*
X85472532Y-84202598D01*
X85472534Y-84202598D01*
X85523469Y-84208131D01*
X85526866Y-84208500D01*
X86278000Y-84208500D01*
X86346121Y-84228502D01*
X86392614Y-84282158D01*
X86404000Y-84334500D01*
X86404000Y-85139884D01*
X86408475Y-85155123D01*
X86409865Y-85156328D01*
X86417548Y-85157999D01*
X86769669Y-85157999D01*
X86776490Y-85157629D01*
X86827352Y-85152105D01*
X86842604Y-85148479D01*
X86963054Y-85103324D01*
X86978649Y-85094786D01*
X87080724Y-85018285D01*
X87084905Y-85014104D01*
X87147217Y-84980078D01*
X87218032Y-84985143D01*
X87274868Y-85027690D01*
X87299679Y-85094210D01*
X87300000Y-85103199D01*
X87300000Y-85700000D01*
X87300018Y-85700738D01*
X87300018Y-85700775D01*
X87398908Y-89854123D01*
X87380533Y-89922700D01*
X87371334Y-89935832D01*
X85400000Y-92400000D01*
X85400000Y-102900000D01*
X86400000Y-110900000D01*
X86409094Y-110908119D01*
X86409094Y-110908120D01*
X88440653Y-112722012D01*
X88478145Y-112782302D01*
X88477090Y-112853290D01*
X88437824Y-112912440D01*
X88372812Y-112940970D01*
X88356735Y-112942000D01*
X88172115Y-112942000D01*
X88156876Y-112946475D01*
X88155671Y-112947865D01*
X88154000Y-112955548D01*
X88154000Y-113765500D01*
X88133998Y-113833621D01*
X88080342Y-113880114D01*
X88028000Y-113891500D01*
X87276866Y-113891500D01*
X87273469Y-113891869D01*
X87222534Y-113897402D01*
X87222532Y-113897402D01*
X87214684Y-113898255D01*
X87207291Y-113901027D01*
X87207289Y-113901027D01*
X87120716Y-113933482D01*
X87076487Y-113941500D01*
X86429569Y-113941500D01*
X86410621Y-113940067D01*
X86403280Y-113938950D01*
X86396383Y-113937901D01*
X86396381Y-113937901D01*
X86389151Y-113936801D01*
X86381859Y-113937394D01*
X86381856Y-113937394D01*
X86336482Y-113941085D01*
X86326267Y-113941500D01*
X86318207Y-113941500D01*
X86304917Y-113943049D01*
X86289993Y-113944789D01*
X86285618Y-113945222D01*
X86220161Y-113950546D01*
X86220158Y-113950547D01*
X86212863Y-113951140D01*
X86205899Y-113953396D01*
X86199940Y-113954587D01*
X86194085Y-113955971D01*
X86186819Y-113956818D01*
X86118173Y-113981735D01*
X86114045Y-113983152D01*
X86051564Y-114003393D01*
X86051562Y-114003394D01*
X86044601Y-114005649D01*
X86038346Y-114009445D01*
X86032872Y-114011951D01*
X86027442Y-114014670D01*
X86020563Y-114017167D01*
X85959516Y-114057191D01*
X85955810Y-114059529D01*
X85933247Y-114073220D01*
X85867884Y-114091500D01*
X82835115Y-114091500D01*
X82819876Y-114095975D01*
X82818671Y-114097365D01*
X82817000Y-114105048D01*
X82817000Y-114183766D01*
X82817337Y-114190282D01*
X82827075Y-114284132D01*
X82829968Y-114297528D01*
X82857647Y-114380492D01*
X82860231Y-114451442D01*
X82824047Y-114512525D01*
X82760583Y-114544350D01*
X82731134Y-114546174D01*
X82378740Y-114526596D01*
X82348473Y-114521156D01*
X82303768Y-114507318D01*
X82297643Y-114506674D01*
X82297642Y-114506674D01*
X82113204Y-114487289D01*
X82113202Y-114487289D01*
X82107075Y-114486645D01*
X82062163Y-114490732D01*
X81947160Y-114501198D01*
X81874550Y-114485861D01*
X81064809Y-114036005D01*
X81014975Y-113985438D01*
X81000000Y-113925861D01*
X81000000Y-113565385D01*
X82817000Y-113565385D01*
X82821475Y-113580624D01*
X82822865Y-113581829D01*
X82830548Y-113583500D01*
X83527885Y-113583500D01*
X83543124Y-113579025D01*
X83544329Y-113577635D01*
X83546000Y-113569952D01*
X83546000Y-113565385D01*
X84054000Y-113565385D01*
X84058475Y-113580624D01*
X84059865Y-113581829D01*
X84067548Y-113583500D01*
X85227885Y-113583500D01*
X85243124Y-113579025D01*
X85244329Y-113577635D01*
X85246000Y-113569952D01*
X85246000Y-113565385D01*
X85754000Y-113565385D01*
X85758475Y-113580624D01*
X85759865Y-113581829D01*
X85767548Y-113583500D01*
X86464885Y-113583500D01*
X86480124Y-113579025D01*
X86481329Y-113577635D01*
X86483000Y-113569952D01*
X86483000Y-113491234D01*
X86482663Y-113484718D01*
X86481954Y-113477885D01*
X86817000Y-113477885D01*
X86821475Y-113493124D01*
X86822865Y-113494329D01*
X86830548Y-113496000D01*
X87627885Y-113496000D01*
X87643124Y-113491525D01*
X87644329Y-113490135D01*
X87646000Y-113482452D01*
X87646000Y-112960116D01*
X87641525Y-112944877D01*
X87640135Y-112943672D01*
X87632452Y-112942001D01*
X87280331Y-112942001D01*
X87273510Y-112942371D01*
X87222648Y-112947895D01*
X87207396Y-112951521D01*
X87086946Y-112996676D01*
X87071351Y-113005214D01*
X86969276Y-113081715D01*
X86956715Y-113094276D01*
X86880214Y-113196351D01*
X86871676Y-113211946D01*
X86826522Y-113332394D01*
X86822895Y-113347649D01*
X86817369Y-113398514D01*
X86817000Y-113405328D01*
X86817000Y-113477885D01*
X86481954Y-113477885D01*
X86472925Y-113390868D01*
X86470032Y-113377472D01*
X86419512Y-113226047D01*
X86413347Y-113212885D01*
X86329574Y-113077508D01*
X86320540Y-113066110D01*
X86207871Y-112953637D01*
X86196460Y-112944625D01*
X86060937Y-112861088D01*
X86047759Y-112854944D01*
X85896234Y-112804685D01*
X85882868Y-112801819D01*
X85790230Y-112792328D01*
X85783815Y-112792000D01*
X85772115Y-112792000D01*
X85756876Y-112796475D01*
X85755671Y-112797865D01*
X85754000Y-112805548D01*
X85754000Y-113565385D01*
X85246000Y-113565385D01*
X85246000Y-112810115D01*
X85241525Y-112794876D01*
X85240135Y-112793671D01*
X85232452Y-112792000D01*
X85216234Y-112792000D01*
X85209718Y-112792337D01*
X85115868Y-112802075D01*
X85102472Y-112804968D01*
X84951047Y-112855488D01*
X84937885Y-112861653D01*
X84802508Y-112945426D01*
X84791110Y-112954460D01*
X84739166Y-113006494D01*
X84676883Y-113040573D01*
X84606063Y-113035570D01*
X84560975Y-113006649D01*
X84507871Y-112953637D01*
X84496460Y-112944625D01*
X84360937Y-112861088D01*
X84347759Y-112854944D01*
X84196234Y-112804685D01*
X84182868Y-112801819D01*
X84090230Y-112792328D01*
X84083815Y-112792000D01*
X84072115Y-112792000D01*
X84056876Y-112796475D01*
X84055671Y-112797865D01*
X84054000Y-112805548D01*
X84054000Y-113565385D01*
X83546000Y-113565385D01*
X83546000Y-112810115D01*
X83541525Y-112794876D01*
X83540135Y-112793671D01*
X83532452Y-112792000D01*
X83516234Y-112792000D01*
X83509718Y-112792337D01*
X83415868Y-112802075D01*
X83402472Y-112804968D01*
X83251047Y-112855488D01*
X83237885Y-112861653D01*
X83102508Y-112945426D01*
X83091110Y-112954460D01*
X82978637Y-113067129D01*
X82969625Y-113078540D01*
X82886088Y-113214063D01*
X82879944Y-113227241D01*
X82829685Y-113378766D01*
X82826819Y-113392132D01*
X82817328Y-113484770D01*
X82817000Y-113491185D01*
X82817000Y-113565385D01*
X81000000Y-113565385D01*
X81000000Y-109000000D01*
X80985343Y-108992400D01*
X78313441Y-107606969D01*
X78313440Y-107606969D01*
X78300000Y-107600000D01*
X78169025Y-107600000D01*
X78100904Y-107579998D01*
X78062414Y-107535578D01*
X78027830Y-107505611D01*
X78028288Y-107505082D01*
X78015900Y-107498318D01*
X78000793Y-107478161D01*
X78000615Y-107478295D01*
X77918642Y-107368919D01*
X77913261Y-107361739D01*
X77833319Y-107301825D01*
X77790804Y-107244967D01*
X77785778Y-107174149D01*
X77819838Y-107111855D01*
X77882169Y-107077865D01*
X77908884Y-107075000D01*
X78039884Y-107075000D01*
X78055123Y-107070525D01*
X78056328Y-107069135D01*
X78057999Y-107061452D01*
X78057999Y-107030331D01*
X78057629Y-107023510D01*
X78052105Y-106972648D01*
X78048479Y-106957396D01*
X78003324Y-106836946D01*
X77994786Y-106821351D01*
X77918285Y-106719276D01*
X77905724Y-106706715D01*
X77803649Y-106630214D01*
X77788054Y-106621676D01*
X77667606Y-106576522D01*
X77652351Y-106572895D01*
X77601486Y-106567369D01*
X77594672Y-106567000D01*
X77143115Y-106567000D01*
X77127876Y-106571475D01*
X77126671Y-106572865D01*
X77125000Y-106580548D01*
X77125000Y-107075000D01*
X77124448Y-107075000D01*
X77124447Y-107126000D01*
X77086062Y-107185725D01*
X77021481Y-107215218D01*
X77003551Y-107216500D01*
X76801000Y-107216500D01*
X76732879Y-107196498D01*
X76686386Y-107142842D01*
X76675000Y-107090500D01*
X76675000Y-106585116D01*
X76666754Y-106557031D01*
X76642260Y-106518919D01*
X76643323Y-106444485D01*
X76675037Y-106346881D01*
X76715110Y-106288277D01*
X76741073Y-106271881D01*
X77061560Y-106120562D01*
X77115356Y-106108500D01*
X77180866Y-106108500D01*
X77183653Y-106108251D01*
X77183659Y-106108251D01*
X77338730Y-106094411D01*
X77338734Y-106094410D01*
X77344317Y-106093912D01*
X77556702Y-106035811D01*
X77561767Y-106033395D01*
X77561770Y-106033394D01*
X77654201Y-105989306D01*
X77755441Y-105941017D01*
X77788151Y-105917513D01*
X77804853Y-105905511D01*
X77849667Y-105885149D01*
X78286032Y-105783027D01*
X78286033Y-105783027D01*
X78303670Y-105778899D01*
X78318423Y-105200158D01*
X78321863Y-105173955D01*
X78348890Y-105061379D01*
X78348890Y-105061378D01*
X78350200Y-105055922D01*
X78362875Y-104836098D01*
X78336422Y-104617504D01*
X78336289Y-104617071D01*
X78333937Y-104591573D01*
X78396316Y-102144525D01*
X78418046Y-102076939D01*
X78433101Y-102058721D01*
X78483863Y-102007871D01*
X78492875Y-101996460D01*
X78576412Y-101860937D01*
X78582556Y-101847759D01*
X78632815Y-101696234D01*
X78635681Y-101682868D01*
X78645172Y-101590230D01*
X78645500Y-101583815D01*
X78645500Y-101572115D01*
X78641025Y-101556876D01*
X78639635Y-101555671D01*
X78631952Y-101554000D01*
X77484500Y-101554000D01*
X77416379Y-101533998D01*
X77369886Y-101480342D01*
X77358500Y-101428000D01*
X77358500Y-101172000D01*
X77378502Y-101103879D01*
X77432158Y-101057386D01*
X77484500Y-101046000D01*
X78627385Y-101046000D01*
X78642624Y-101041525D01*
X78643829Y-101040135D01*
X78645500Y-101032452D01*
X78645500Y-101016234D01*
X78645163Y-101009718D01*
X78635425Y-100915868D01*
X78632532Y-100902472D01*
X78601698Y-100810052D01*
X78599114Y-100739103D01*
X78635297Y-100678019D01*
X78698762Y-100646194D01*
X78724452Y-100644217D01*
X80881890Y-100699536D01*
X80881891Y-100699536D01*
X80900000Y-100700000D01*
X80900000Y-100300757D01*
X80900009Y-100299248D01*
X81080836Y-85200234D01*
X81101651Y-85132360D01*
X81155860Y-85086513D01*
X81226250Y-85077251D01*
X81285656Y-85105245D01*
X81286383Y-85104325D01*
X81290347Y-85107456D01*
X81290473Y-85107515D01*
X81290737Y-85107764D01*
X81303540Y-85117875D01*
X81439063Y-85201412D01*
X81452241Y-85207556D01*
X81603766Y-85257815D01*
X81617132Y-85260681D01*
X81709770Y-85270172D01*
X81716185Y-85270500D01*
X81727885Y-85270500D01*
X81743124Y-85266025D01*
X81744329Y-85264635D01*
X81746000Y-85256952D01*
X81746000Y-85252385D01*
X82254000Y-85252385D01*
X82258475Y-85267624D01*
X82259865Y-85268829D01*
X82267548Y-85270500D01*
X82283766Y-85270500D01*
X82290282Y-85270163D01*
X82384132Y-85260425D01*
X82397528Y-85257532D01*
X82548953Y-85207012D01*
X82562115Y-85200847D01*
X82697492Y-85117074D01*
X82708890Y-85108040D01*
X82821366Y-84995368D01*
X82830484Y-84983823D01*
X82888402Y-84942761D01*
X82959325Y-84939531D01*
X83018382Y-84972744D01*
X83092129Y-85046363D01*
X83103540Y-85055375D01*
X83239063Y-85138912D01*
X83252241Y-85145056D01*
X83403766Y-85195315D01*
X83417132Y-85198181D01*
X83509770Y-85207672D01*
X83516185Y-85208000D01*
X83527885Y-85208000D01*
X83543124Y-85203525D01*
X83544329Y-85202135D01*
X83546000Y-85194452D01*
X83546000Y-84434615D01*
X83541525Y-84419376D01*
X83540135Y-84418171D01*
X83532452Y-84416500D01*
X83041115Y-84416500D01*
X83025876Y-84420975D01*
X83013278Y-84435513D01*
X82953552Y-84473896D01*
X82918054Y-84479000D01*
X82272115Y-84479000D01*
X82256876Y-84483475D01*
X82255671Y-84484865D01*
X82254000Y-84492548D01*
X82254000Y-85252385D01*
X81746000Y-85252385D01*
X81746000Y-84097000D01*
X81766002Y-84028879D01*
X81819658Y-83982386D01*
X81872000Y-83971000D01*
X82758885Y-83971000D01*
X82774124Y-83966525D01*
X82786722Y-83951987D01*
X82846448Y-83913604D01*
X82881946Y-83908500D01*
X83928000Y-83908500D01*
X83996121Y-83928502D01*
G37*
G04 #@! TD.AperFunction*
G04 #@! TD*
M02*
