G04 #@! TF.GenerationSoftware,KiCad,Pcbnew,(6.0.5)*
G04 #@! TF.CreationDate,2023-02-17T12:54:08-08:00*
G04 #@! TF.ProjectId,PCM1863,50434d31-3836-4332-9e6b-696361645f70,rev?*
G04 #@! TF.SameCoordinates,Original*
G04 #@! TF.FileFunction,Copper,L1,Top*
G04 #@! TF.FilePolarity,Positive*
%FSLAX46Y46*%
G04 Gerber Fmt 4.6, Leading zero omitted, Abs format (unit mm)*
G04 Created by KiCad (PCBNEW (6.0.5)) date 2023-02-17 12:54:08*
%MOMM*%
%LPD*%
G01*
G04 APERTURE LIST*
G04 Aperture macros list*
%AMRoundRect*
0 Rectangle with rounded corners*
0 $1 Rounding radius*
0 $2 $3 $4 $5 $6 $7 $8 $9 X,Y pos of 4 corners*
0 Add a 4 corners polygon primitive as box body*
4,1,4,$2,$3,$4,$5,$6,$7,$8,$9,$2,$3,0*
0 Add four circle primitives for the rounded corners*
1,1,$1+$1,$2,$3*
1,1,$1+$1,$4,$5*
1,1,$1+$1,$6,$7*
1,1,$1+$1,$8,$9*
0 Add four rect primitives between the rounded corners*
20,1,$1+$1,$2,$3,$4,$5,0*
20,1,$1+$1,$4,$5,$6,$7,0*
20,1,$1+$1,$6,$7,$8,$9,0*
20,1,$1+$1,$8,$9,$2,$3,0*%
G04 Aperture macros list end*
G04 #@! TA.AperFunction,SMDPad,CuDef*
%ADD10RoundRect,0.237500X-0.237500X0.300000X-0.237500X-0.300000X0.237500X-0.300000X0.237500X0.300000X0*%
G04 #@! TD*
G04 #@! TA.AperFunction,SMDPad,CuDef*
%ADD11R,1.300000X1.100000*%
G04 #@! TD*
G04 #@! TA.AperFunction,SMDPad,CuDef*
%ADD12RoundRect,0.237500X0.237500X-0.300000X0.237500X0.300000X-0.237500X0.300000X-0.237500X-0.300000X0*%
G04 #@! TD*
G04 #@! TA.AperFunction,SMDPad,CuDef*
%ADD13RoundRect,0.237500X0.300000X0.237500X-0.300000X0.237500X-0.300000X-0.237500X0.300000X-0.237500X0*%
G04 #@! TD*
G04 #@! TA.AperFunction,SMDPad,CuDef*
%ADD14RoundRect,0.237500X0.250000X0.237500X-0.250000X0.237500X-0.250000X-0.237500X0.250000X-0.237500X0*%
G04 #@! TD*
G04 #@! TA.AperFunction,SMDPad,CuDef*
%ADD15RoundRect,0.075000X-0.662500X-0.075000X0.662500X-0.075000X0.662500X0.075000X-0.662500X0.075000X0*%
G04 #@! TD*
G04 #@! TA.AperFunction,SMDPad,CuDef*
%ADD16R,0.400000X1.200000*%
G04 #@! TD*
G04 #@! TA.AperFunction,ComponentPad*
%ADD17R,1.700000X1.700000*%
G04 #@! TD*
G04 #@! TA.AperFunction,ComponentPad*
%ADD18O,1.700000X1.700000*%
G04 #@! TD*
G04 #@! TA.AperFunction,SMDPad,CuDef*
%ADD19RoundRect,0.237500X0.237500X-0.250000X0.237500X0.250000X-0.237500X0.250000X-0.237500X-0.250000X0*%
G04 #@! TD*
G04 #@! TA.AperFunction,SMDPad,CuDef*
%ADD20RoundRect,0.237500X-0.287500X-0.237500X0.287500X-0.237500X0.287500X0.237500X-0.287500X0.237500X0*%
G04 #@! TD*
G04 #@! TA.AperFunction,ComponentPad*
%ADD21C,4.400000*%
G04 #@! TD*
G04 #@! TA.AperFunction,SMDPad,CuDef*
%ADD22RoundRect,0.237500X-0.300000X-0.237500X0.300000X-0.237500X0.300000X0.237500X-0.300000X0.237500X0*%
G04 #@! TD*
G04 #@! TA.AperFunction,SMDPad,CuDef*
%ADD23RoundRect,0.237500X0.237500X-0.287500X0.237500X0.287500X-0.237500X0.287500X-0.237500X-0.287500X0*%
G04 #@! TD*
G04 #@! TA.AperFunction,SMDPad,CuDef*
%ADD24R,1.300000X0.450000*%
G04 #@! TD*
G04 #@! TA.AperFunction,ComponentPad*
%ADD25O,1.800000X1.150000*%
G04 #@! TD*
G04 #@! TA.AperFunction,ComponentPad*
%ADD26O,2.000000X1.450000*%
G04 #@! TD*
G04 #@! TA.AperFunction,SMDPad,CuDef*
%ADD27RoundRect,0.237500X0.287500X0.237500X-0.287500X0.237500X-0.287500X-0.237500X0.287500X-0.237500X0*%
G04 #@! TD*
G04 #@! TA.AperFunction,SMDPad,CuDef*
%ADD28R,1.150000X0.600000*%
G04 #@! TD*
G04 #@! TA.AperFunction,SMDPad,CuDef*
%ADD29RoundRect,0.237500X-0.237500X0.287500X-0.237500X-0.287500X0.237500X-0.287500X0.237500X0.287500X0*%
G04 #@! TD*
G04 #@! TA.AperFunction,ViaPad*
%ADD30C,0.800000*%
G04 #@! TD*
G04 #@! TA.AperFunction,Conductor*
%ADD31C,0.500000*%
G04 #@! TD*
G04 #@! TA.AperFunction,Conductor*
%ADD32C,0.250000*%
G04 #@! TD*
G04 APERTURE END LIST*
D10*
G04 #@! TO.P,C24,1*
G04 #@! TO.N,GND*
X152600000Y-132737500D03*
G04 #@! TO.P,C24,2*
G04 #@! TO.N,AVDD*
X152600000Y-134462500D03*
G04 #@! TD*
D11*
G04 #@! TO.P,Y2,1,_TRI-STATE_(STBY)*
G04 #@! TO.N,DVDD*
X141900000Y-138525000D03*
G04 #@! TO.P,Y2,2,GND/CASE*
G04 #@! TO.N,GND*
X144000000Y-138525000D03*
G04 #@! TO.P,Y2,3,OUTPUT*
G04 #@! TO.N,SCKI(3.3V)*
X144000000Y-136875000D03*
G04 #@! TO.P,Y2,4,VDD*
G04 #@! TO.N,DVDD*
X141900000Y-136875000D03*
G04 #@! TD*
D12*
G04 #@! TO.P,C4,1*
G04 #@! TO.N,VCC*
X130100000Y-138362500D03*
G04 #@! TO.P,C4,2*
G04 #@! TO.N,GND*
X130100000Y-136637500D03*
G04 #@! TD*
G04 #@! TO.P,C9,1*
G04 #@! TO.N,VCC*
X128300000Y-138362500D03*
G04 #@! TO.P,C9,2*
G04 #@! TO.N,GND*
X128300000Y-136637500D03*
G04 #@! TD*
D10*
G04 #@! TO.P,C21,1*
G04 #@! TO.N,/A16*
X168400000Y-125737500D03*
G04 #@! TO.P,C21,2*
G04 #@! TO.N,Net-(C21-Pad2)*
X168400000Y-127462500D03*
G04 #@! TD*
D13*
G04 #@! TO.P,C6,1*
G04 #@! TO.N,GND*
X138562500Y-134300000D03*
G04 #@! TO.P,C6,2*
G04 #@! TO.N,DVDD*
X136837500Y-134300000D03*
G04 #@! TD*
D10*
G04 #@! TO.P,C22,1*
G04 #@! TO.N,/A15*
X170300000Y-125737500D03*
G04 #@! TO.P,C22,2*
G04 #@! TO.N,Net-(C22-Pad2)*
X170300000Y-127462500D03*
G04 #@! TD*
G04 #@! TO.P,C1,1*
G04 #@! TO.N,DVDD*
X138200000Y-136437500D03*
G04 #@! TO.P,C1,2*
G04 #@! TO.N,GND*
X138200000Y-138162500D03*
G04 #@! TD*
D14*
G04 #@! TO.P,R2,1*
G04 #@! TO.N,Net-(D2-Pad1)*
X132687500Y-141455000D03*
G04 #@! TO.P,R2,2*
G04 #@! TO.N,GND*
X130862500Y-141455000D03*
G04 #@! TD*
D15*
G04 #@! TO.P,U1,1,VINL2/VIN1M*
G04 #@! TO.N,Net-(C19-Pad2)*
X159737500Y-133400000D03*
G04 #@! TO.P,U1,2,VINR2/VIN2M*
G04 #@! TO.N,Net-(C18-Pad2)*
X159737500Y-133900000D03*
G04 #@! TO.P,U1,3,VINL1/VIN1P*
G04 #@! TO.N,Net-(C16-Pad2)*
X159737500Y-134400000D03*
G04 #@! TO.P,U1,4,VINR1/VIN2P*
G04 #@! TO.N,Net-(C14-Pad2)*
X159737500Y-134900000D03*
G04 #@! TO.P,U1,5,Mic_Bias*
G04 #@! TO.N,Net-(C13-Pad2)*
X159737500Y-135400000D03*
G04 #@! TO.P,U1,6,VREF*
G04 #@! TO.N,Net-(C11-Pad2)*
X159737500Y-135900000D03*
G04 #@! TO.P,U1,7,AGND*
G04 #@! TO.N,GND*
X159737500Y-136400000D03*
G04 #@! TO.P,U1,8,AVDD*
G04 #@! TO.N,AVDD*
X159737500Y-136900000D03*
G04 #@! TO.P,U1,9,XO*
G04 #@! TO.N,XO*
X159737500Y-137400000D03*
G04 #@! TO.P,U1,10,XI*
G04 #@! TO.N,XI*
X159737500Y-137900000D03*
G04 #@! TO.P,U1,11,LDO*
G04 #@! TO.N,LDO*
X159737500Y-138400000D03*
G04 #@! TO.P,U1,12,DGND*
G04 #@! TO.N,GND*
X159737500Y-138900000D03*
G04 #@! TO.P,U1,13,DVDD*
G04 #@! TO.N,DVDD*
X159737500Y-139400000D03*
G04 #@! TO.P,U1,14,IOVDD*
X159737500Y-139900000D03*
G04 #@! TO.P,U1,15,SCKI*
G04 #@! TO.N,SCKI(3.3V)*
X159737500Y-140400000D03*
G04 #@! TO.P,U1,16,LRCK*
G04 #@! TO.N,LRCK*
X165462500Y-140400000D03*
G04 #@! TO.P,U1,17,BCK*
G04 #@! TO.N,BCK*
X165462500Y-139900000D03*
G04 #@! TO.P,U1,18,DOUT*
G04 #@! TO.N,DOUT*
X165462500Y-139400000D03*
G04 #@! TO.P,U1,19,GPIO3/INTC*
G04 #@! TO.N,/A6*
X165462500Y-138900000D03*
G04 #@! TO.P,U1,20,GPIO2/INTB/DMCLK*
G04 #@! TO.N,/A7*
X165462500Y-138400000D03*
G04 #@! TO.P,U1,21,GPIO1/INTA/DMIN*
G04 #@! TO.N,/A8*
X165462500Y-137900000D03*
G04 #@! TO.P,U1,22,MISO/GPIO0/DMIN2*
G04 #@! TO.N,/A9*
X165462500Y-137400000D03*
G04 #@! TO.P,U1,23,MOSI/SDA*
G04 #@! TO.N,/A10*
X165462500Y-136900000D03*
G04 #@! TO.P,U1,24,MC/SCL*
G04 #@! TO.N,/A11*
X165462500Y-136400000D03*
G04 #@! TO.P,U1,25,MS/AD*
G04 #@! TO.N,/A12*
X165462500Y-135900000D03*
G04 #@! TO.P,U1,26,MD0*
G04 #@! TO.N,/A13*
X165462500Y-135400000D03*
G04 #@! TO.P,U1,27,VINL4/VIN4M*
G04 #@! TO.N,Net-(C23-Pad2)*
X165462500Y-134900000D03*
G04 #@! TO.P,U1,28,VINR4/VIN3M*
G04 #@! TO.N,Net-(C22-Pad2)*
X165462500Y-134400000D03*
G04 #@! TO.P,U1,29,VINL3/VIN4P*
G04 #@! TO.N,Net-(C21-Pad2)*
X165462500Y-133900000D03*
G04 #@! TO.P,U1,30,VINR3/VIN3P*
G04 #@! TO.N,Net-(C20-Pad2)*
X165462500Y-133400000D03*
G04 #@! TD*
D16*
G04 #@! TO.P,IC1,1,EN*
G04 #@! TO.N,GND*
X143845000Y-128155000D03*
G04 #@! TO.P,IC1,2,INPUT(A)*
G04 #@! TO.N,OSC*
X143195000Y-128155000D03*
G04 #@! TO.P,IC1,3,GND*
G04 #@! TO.N,GND*
X142545000Y-128155000D03*
G04 #@! TO.P,IC1,4,OUTPUT(Y)*
G04 #@! TO.N,XI*
X142545000Y-130055000D03*
G04 #@! TO.P,IC1,5,VCC*
G04 #@! TO.N,LDO*
X143845000Y-130055000D03*
G04 #@! TD*
D17*
G04 #@! TO.P,J3,1,Pin_1*
G04 #@! TO.N,BCK*
X179800000Y-149525000D03*
D18*
G04 #@! TO.P,J3,2,Pin_2*
G04 #@! TO.N,DOUT*
X179800000Y-146985000D03*
G04 #@! TO.P,J3,3,Pin_3*
G04 #@! TO.N,/A6*
X179800000Y-144445000D03*
G04 #@! TO.P,J3,4,Pin_4*
G04 #@! TO.N,/A7*
X179800000Y-141905000D03*
G04 #@! TO.P,J3,5,Pin_5*
G04 #@! TO.N,/A8*
X179800000Y-139365000D03*
G04 #@! TO.P,J3,6,Pin_6*
G04 #@! TO.N,/A9*
X179800000Y-136825000D03*
G04 #@! TO.P,J3,7,Pin_7*
G04 #@! TO.N,/A10*
X179800000Y-134285000D03*
G04 #@! TO.P,J3,8,Pin_8*
G04 #@! TO.N,/A11*
X179800000Y-131745000D03*
G04 #@! TO.P,J3,9,Pin_9*
G04 #@! TO.N,/A12*
X179800000Y-129205000D03*
G04 #@! TO.P,J3,10,Pin_10*
G04 #@! TO.N,/A13*
X179800000Y-126665000D03*
G04 #@! TD*
D10*
G04 #@! TO.P,C8,1*
G04 #@! TO.N,GND*
X154300000Y-132737500D03*
G04 #@! TO.P,C8,2*
G04 #@! TO.N,AVDD*
X154300000Y-134462500D03*
G04 #@! TD*
G04 #@! TO.P,C10,1*
G04 #@! TO.N,GND*
X156100000Y-132737500D03*
G04 #@! TO.P,C10,2*
G04 #@! TO.N,AVDD*
X156100000Y-134462500D03*
G04 #@! TD*
G04 #@! TO.P,C20,1*
G04 #@! TO.N,/A17*
X166400000Y-125737500D03*
G04 #@! TO.P,C20,2*
G04 #@! TO.N,Net-(C20-Pad2)*
X166400000Y-127462500D03*
G04 #@! TD*
D12*
G04 #@! TO.P,C3,1*
G04 #@! TO.N,GND*
X156100000Y-138662500D03*
G04 #@! TO.P,C3,2*
G04 #@! TO.N,XI*
X156100000Y-136937500D03*
G04 #@! TD*
D19*
G04 #@! TO.P,R3,1*
G04 #@! TO.N,Net-(D3-Pad1)*
X137600000Y-120912500D03*
G04 #@! TO.P,R3,2*
G04 #@! TO.N,GND*
X137600000Y-119087500D03*
G04 #@! TD*
D11*
G04 #@! TO.P,Y1,1,_TRI-STATE_(STBY)*
G04 #@! TO.N,DVDD*
X136800000Y-129925000D03*
G04 #@! TO.P,Y1,2,GND/CASE*
G04 #@! TO.N,GND*
X138900000Y-129925000D03*
G04 #@! TO.P,Y1,3,OUTPUT*
G04 #@! TO.N,OSC*
X138900000Y-128275000D03*
G04 #@! TO.P,Y1,4,VDD*
G04 #@! TO.N,DVDD*
X136800000Y-128275000D03*
G04 #@! TD*
D10*
G04 #@! TO.P,C2,1*
G04 #@! TO.N,GND*
X149800000Y-132437500D03*
G04 #@! TO.P,C2,2*
G04 #@! TO.N,XO*
X149800000Y-134162500D03*
G04 #@! TD*
G04 #@! TO.P,C18,1*
G04 #@! TO.N,/A2*
X155400000Y-125737500D03*
G04 #@! TO.P,C18,2*
G04 #@! TO.N,Net-(C18-Pad2)*
X155400000Y-127462500D03*
G04 #@! TD*
D20*
G04 #@! TO.P,D2,1,K*
G04 #@! TO.N,Net-(D2-Pad1)*
X134525000Y-141500000D03*
G04 #@! TO.P,D2,2,A*
G04 #@! TO.N,DVDD*
X136275000Y-141500000D03*
G04 #@! TD*
D10*
G04 #@! TO.P,C5,1*
G04 #@! TO.N,VCC*
X127700000Y-119200000D03*
G04 #@! TO.P,C5,2*
G04 #@! TO.N,GND*
X127700000Y-120925000D03*
G04 #@! TD*
D21*
G04 #@! TO.P,H4,1,1*
G04 #@! TO.N,GND*
X180000000Y-155000000D03*
G04 #@! TD*
D10*
G04 #@! TO.P,C11,1*
G04 #@! TO.N,GND*
X164600000Y-125775000D03*
G04 #@! TO.P,C11,2*
G04 #@! TO.N,Net-(C11-Pad2)*
X164600000Y-127500000D03*
G04 #@! TD*
D19*
G04 #@! TO.P,R1,1*
G04 #@! TO.N,Net-(D1-Pad1)*
X146400000Y-126400000D03*
G04 #@! TO.P,R1,2*
G04 #@! TO.N,GND*
X146400000Y-124575000D03*
G04 #@! TD*
D17*
G04 #@! TO.P,J1,1,Pin_1*
G04 #@! TO.N,VCC*
X143175000Y-149100000D03*
D18*
G04 #@! TO.P,J1,2,Pin_2*
G04 #@! TO.N,DVDD*
X145715000Y-149100000D03*
G04 #@! TO.P,J1,3,Pin_3*
G04 #@! TO.N,OSC*
X148255000Y-149100000D03*
G04 #@! TO.P,J1,4,Pin_4*
G04 #@! TO.N,XI*
X150795000Y-149100000D03*
G04 #@! TO.P,J1,5,Pin_5*
G04 #@! TO.N,LDO*
X153335000Y-149100000D03*
G04 #@! TO.P,J1,6,Pin_6*
G04 #@! TO.N,unconnected-(J1-Pad6)*
X155875000Y-149100000D03*
G04 #@! TO.P,J1,7,Pin_7*
G04 #@! TO.N,unconnected-(J1-Pad7)*
X158415000Y-149100000D03*
G04 #@! TO.P,J1,8,Pin_8*
G04 #@! TO.N,unconnected-(J1-Pad8)*
X160955000Y-149100000D03*
G04 #@! TO.P,J1,9,Pin_9*
G04 #@! TO.N,unconnected-(J1-Pad9)*
X163495000Y-149100000D03*
G04 #@! TO.P,J1,10,Pin_10*
G04 #@! TO.N,LRCK*
X166035000Y-149100000D03*
G04 #@! TD*
D12*
G04 #@! TO.P,C7,1*
G04 #@! TO.N,LDO*
X148400000Y-130062500D03*
G04 #@! TO.P,C7,2*
G04 #@! TO.N,GND*
X148400000Y-128337500D03*
G04 #@! TD*
D22*
G04 #@! TO.P,C17,1*
G04 #@! TO.N,DVDD*
X136837500Y-132600000D03*
G04 #@! TO.P,C17,2*
G04 #@! TO.N,GND*
X138562500Y-132600000D03*
G04 #@! TD*
D10*
G04 #@! TO.P,C15,1*
G04 #@! TO.N,DVDD*
X156300000Y-140700000D03*
G04 #@! TO.P,C15,2*
G04 #@! TO.N,GND*
X156300000Y-142425000D03*
G04 #@! TD*
G04 #@! TO.P,C19,1*
G04 #@! TO.N,/A1*
X157100000Y-125737500D03*
G04 #@! TO.P,C19,2*
G04 #@! TO.N,Net-(C19-Pad2)*
X157100000Y-127462500D03*
G04 #@! TD*
G04 #@! TO.P,C13,1*
G04 #@! TO.N,/A5*
X162600000Y-125737500D03*
G04 #@! TO.P,C13,2*
G04 #@! TO.N,Net-(C13-Pad2)*
X162600000Y-127462500D03*
G04 #@! TD*
D21*
G04 #@! TO.P,H1,1,1*
G04 #@! TO.N,GND*
X120000000Y-155000000D03*
G04 #@! TD*
D23*
G04 #@! TO.P,D3,1,K*
G04 #@! TO.N,Net-(D3-Pad1)*
X135600000Y-120875000D03*
G04 #@! TO.P,D3,2,A*
G04 #@! TO.N,AVDD*
X135600000Y-119125000D03*
G04 #@! TD*
D14*
G04 #@! TO.P,R4,1*
G04 #@! TO.N,GND*
X135812500Y-146200000D03*
G04 #@! TO.P,R4,2*
G04 #@! TO.N,Net-(D4-Pad1)*
X133987500Y-146200000D03*
G04 #@! TD*
D24*
G04 #@! TO.P,J4,1,VBUS*
G04 #@! TO.N,VCC*
X120900000Y-140400000D03*
G04 #@! TO.P,J4,2,D-*
G04 #@! TO.N,unconnected-(J4-Pad2)*
X120900000Y-141050000D03*
G04 #@! TO.P,J4,3,D+*
G04 #@! TO.N,unconnected-(J4-Pad3)*
X120900000Y-141700000D03*
G04 #@! TO.P,J4,4,ID*
G04 #@! TO.N,unconnected-(J4-Pad4)*
X120900000Y-142350000D03*
G04 #@! TO.P,J4,5,GND*
G04 #@! TO.N,GND*
X120900000Y-143000000D03*
D25*
G04 #@! TO.P,J4,6,Shield*
X117050000Y-137825000D03*
D26*
X120850000Y-137975000D03*
X120850000Y-145425000D03*
D25*
X117050000Y-145575000D03*
G04 #@! TD*
D27*
G04 #@! TO.P,D4,1,K*
G04 #@! TO.N,Net-(D4-Pad1)*
X132175000Y-146200000D03*
G04 #@! TO.P,D4,2,A*
G04 #@! TO.N,VCC*
X130425000Y-146200000D03*
G04 #@! TD*
D28*
G04 #@! TO.P,IC3,1,IN*
G04 #@! TO.N,VCC*
X130350000Y-119150000D03*
G04 #@! TO.P,IC3,2,GND*
G04 #@! TO.N,GND*
X130350000Y-120100000D03*
G04 #@! TO.P,IC3,3,EN*
G04 #@! TO.N,VCC*
X130350000Y-121050000D03*
G04 #@! TO.P,IC3,4,NC*
G04 #@! TO.N,unconnected-(IC3-Pad4)*
X132850000Y-121050000D03*
G04 #@! TO.P,IC3,5,OUT*
G04 #@! TO.N,AVDD*
X132850000Y-119150000D03*
G04 #@! TD*
D10*
G04 #@! TO.P,C16,1*
G04 #@! TO.N,/A3*
X158900000Y-125737500D03*
G04 #@! TO.P,C16,2*
G04 #@! TO.N,Net-(C16-Pad2)*
X158900000Y-127462500D03*
G04 #@! TD*
D21*
G04 #@! TO.P,H3,1,1*
G04 #@! TO.N,GND*
X120000000Y-120000000D03*
G04 #@! TD*
D10*
G04 #@! TO.P,C14,1*
G04 #@! TO.N,/A4*
X160700000Y-125737500D03*
G04 #@! TO.P,C14,2*
G04 #@! TO.N,Net-(C14-Pad2)*
X160700000Y-127462500D03*
G04 #@! TD*
D21*
G04 #@! TO.P,H2,1,1*
G04 #@! TO.N,GND*
X180000000Y-120000000D03*
G04 #@! TD*
D28*
G04 #@! TO.P,IC2,1,IN*
G04 #@! TO.N,VCC*
X132495000Y-136455000D03*
G04 #@! TO.P,IC2,2,GND*
G04 #@! TO.N,GND*
X132495000Y-137405000D03*
G04 #@! TO.P,IC2,3,EN*
G04 #@! TO.N,VCC*
X132495000Y-138355000D03*
G04 #@! TO.P,IC2,4,NC*
G04 #@! TO.N,unconnected-(IC2-Pad4)*
X134995000Y-138355000D03*
G04 #@! TO.P,IC2,5,OUT*
G04 #@! TO.N,DVDD*
X134995000Y-136455000D03*
G04 #@! TD*
D10*
G04 #@! TO.P,C25,1*
G04 #@! TO.N,VCC*
X125900000Y-119212500D03*
G04 #@! TO.P,C25,2*
G04 #@! TO.N,GND*
X125900000Y-120937500D03*
G04 #@! TD*
D29*
G04 #@! TO.P,D1,1,K*
G04 #@! TO.N,Net-(D1-Pad1)*
X146400000Y-128312500D03*
G04 #@! TO.P,D1,2,A*
G04 #@! TO.N,LDO*
X146400000Y-130062500D03*
G04 #@! TD*
D10*
G04 #@! TO.P,C12,1*
G04 #@! TO.N,DVDD*
X154400000Y-140737500D03*
G04 #@! TO.P,C12,2*
G04 #@! TO.N,GND*
X154400000Y-142462500D03*
G04 #@! TD*
G04 #@! TO.P,C23,1*
G04 #@! TO.N,/A14*
X172300000Y-125737500D03*
G04 #@! TO.P,C23,2*
G04 #@! TO.N,Net-(C23-Pad2)*
X172300000Y-127462500D03*
G04 #@! TD*
D17*
G04 #@! TO.P,J2,1,Pin_1*
G04 #@! TO.N,/A14*
X173400000Y-118400000D03*
D18*
G04 #@! TO.P,J2,2,Pin_2*
G04 #@! TO.N,/A15*
X170860000Y-118400000D03*
G04 #@! TO.P,J2,3,Pin_3*
G04 #@! TO.N,/A16*
X168320000Y-118400000D03*
G04 #@! TO.P,J2,4,Pin_4*
G04 #@! TO.N,/A17*
X165780000Y-118400000D03*
G04 #@! TO.P,J2,5,Pin_5*
G04 #@! TO.N,/A5*
X163240000Y-118400000D03*
G04 #@! TO.P,J2,6,Pin_6*
G04 #@! TO.N,/A4*
X160700000Y-118400000D03*
G04 #@! TO.P,J2,7,Pin_7*
G04 #@! TO.N,/A3*
X158160000Y-118400000D03*
G04 #@! TO.P,J2,8,Pin_8*
G04 #@! TO.N,/A1*
X155620000Y-118400000D03*
G04 #@! TO.P,J2,9,Pin_9*
G04 #@! TO.N,/A2*
X153080000Y-118400000D03*
G04 #@! TO.P,J2,10,Pin_10*
G04 #@! TO.N,AVDD*
X150540000Y-118400000D03*
G04 #@! TD*
D30*
G04 #@! TO.N,GND*
X146499312Y-138100688D03*
X130500000Y-135100000D03*
X144100000Y-126500000D03*
X161700000Y-139600000D03*
X161300000Y-137100000D03*
X152400000Y-131200000D03*
X123725489Y-143024511D03*
X154000000Y-131200000D03*
X137200000Y-146000000D03*
X147900000Y-124600000D03*
X157600000Y-142700000D03*
X149800000Y-130900000D03*
X127700000Y-122200000D03*
X154700000Y-138000000D03*
X149900000Y-128300000D03*
X140000000Y-134300000D03*
X140000000Y-132600000D03*
X141300000Y-127300000D03*
X129000000Y-120400000D03*
X164600000Y-124100000D03*
X126200000Y-122324022D03*
X156300000Y-131200000D03*
X139000000Y-139800000D03*
X130770000Y-140200000D03*
X128000000Y-135000000D03*
X139200000Y-118824022D03*
X152500000Y-141900000D03*
G04 #@! TO.N,XI*
X146900000Y-141800000D03*
X148462500Y-136937500D03*
G04 #@! TO.N,LDO*
X150100000Y-137800000D03*
X149300000Y-144200000D03*
X149300000Y-135900000D03*
G04 #@! TO.N,SCKI(3.3V)*
X148800000Y-139400000D03*
X148800000Y-141800000D03*
G04 #@! TO.N,OSC*
X141900000Y-134300000D03*
X142400000Y-142000000D03*
G04 #@! TD*
D31*
G04 #@! TO.N,GND*
X138200000Y-139000000D02*
X139000000Y-139800000D01*
X140000000Y-132600000D02*
X140000000Y-131025000D01*
D32*
X161300000Y-137000000D02*
X161300000Y-137100000D01*
X160700000Y-136400000D02*
X160900000Y-136600000D01*
D31*
X130350000Y-120100000D02*
X129300000Y-120100000D01*
X156100000Y-131400000D02*
X156100000Y-132737500D01*
X146075000Y-138525000D02*
X144000000Y-138525000D01*
X153062500Y-142462500D02*
X154400000Y-142462500D01*
X147900000Y-124600000D02*
X146425000Y-124600000D01*
D32*
X160900000Y-136600000D02*
X161300000Y-137000000D01*
D31*
X132495000Y-137405000D02*
X130867500Y-137405000D01*
D32*
X142800000Y-129100000D02*
X143699022Y-129100000D01*
D31*
X129300000Y-120100000D02*
X129000000Y-120400000D01*
X152600000Y-132737500D02*
X152600000Y-131400000D01*
X157325000Y-142425000D02*
X157600000Y-142700000D01*
X130862500Y-141455000D02*
X130862500Y-140292500D01*
D32*
X142545000Y-128155000D02*
X142545000Y-128845000D01*
X161000000Y-138900000D02*
X161700000Y-139600000D01*
D31*
X137000000Y-146200000D02*
X135812500Y-146200000D01*
X130500000Y-135300000D02*
X130500000Y-135100000D01*
X138562500Y-134300000D02*
X140000000Y-134300000D01*
D32*
X159737500Y-136400000D02*
X160700000Y-136400000D01*
D31*
X152600000Y-131400000D02*
X152400000Y-131200000D01*
X146425000Y-124600000D02*
X146400000Y-124575000D01*
X138562500Y-132600000D02*
X140000000Y-132600000D01*
D32*
X142545000Y-128845000D02*
X142800000Y-129100000D01*
D31*
X148400000Y-128337500D02*
X149862500Y-128337500D01*
X128300000Y-135300000D02*
X128000000Y-135000000D01*
X149862500Y-128337500D02*
X149900000Y-128300000D01*
X156300000Y-142425000D02*
X157325000Y-142425000D01*
D32*
X142155000Y-128155000D02*
X142545000Y-128155000D01*
D31*
X130867500Y-137405000D02*
X130100000Y-136637500D01*
X152500000Y-141900000D02*
X153062500Y-142462500D01*
D32*
X143845000Y-128155000D02*
X143845000Y-126755000D01*
X143845000Y-128954022D02*
X143845000Y-128155000D01*
D31*
X140000000Y-131025000D02*
X138900000Y-129925000D01*
X130300000Y-135500000D02*
X130500000Y-135300000D01*
X127700000Y-120925000D02*
X127700000Y-122200000D01*
D32*
X143845000Y-126755000D02*
X144100000Y-126500000D01*
X141300000Y-127300000D02*
X142155000Y-128155000D01*
D31*
X154300000Y-131500000D02*
X154300000Y-132737500D01*
X146499312Y-138100688D02*
X146075000Y-138525000D01*
X154000000Y-131200000D02*
X154300000Y-131500000D01*
X138200000Y-138162500D02*
X138200000Y-139000000D01*
X156100000Y-138662500D02*
X155362500Y-138662500D01*
X125900000Y-120937500D02*
X125900000Y-122024022D01*
X130100000Y-136637500D02*
X130100000Y-135700000D01*
D32*
X143699022Y-129100000D02*
X143845000Y-128954022D01*
X159737500Y-138900000D02*
X161000000Y-138900000D01*
D31*
X155362500Y-138662500D02*
X154700000Y-138000000D01*
X149800000Y-132437500D02*
X149800000Y-130900000D01*
X123725489Y-143024511D02*
X121450000Y-143024511D01*
X137600000Y-119087500D02*
X138936522Y-119087500D01*
X128300000Y-136637500D02*
X128300000Y-135300000D01*
X164600000Y-125775000D02*
X164600000Y-124100000D01*
X156300000Y-131200000D02*
X156100000Y-131400000D01*
X130100000Y-135700000D02*
X130300000Y-135500000D01*
D32*
G04 #@! TO.N,XO*
X151300000Y-135662500D02*
X149800000Y-134162500D01*
X151300000Y-135700000D02*
X151300000Y-135662500D01*
X151500000Y-135900000D02*
X151300000Y-135700000D01*
X159737500Y-137400000D02*
X158400000Y-137400000D01*
X156900000Y-135900000D02*
X151500000Y-135900000D01*
X158400000Y-137400000D02*
X156900000Y-135900000D01*
D31*
G04 #@! TO.N,XI*
X146900000Y-144500000D02*
X150795000Y-148395000D01*
X148462500Y-136937500D02*
X148737500Y-136937500D01*
X142545000Y-130055000D02*
X142545000Y-131445000D01*
D32*
X156100000Y-136937500D02*
X157037500Y-136937500D01*
X158000000Y-137900000D02*
X159737500Y-137900000D01*
D31*
X150795000Y-148395000D02*
X150795000Y-149100000D01*
X148737500Y-136937500D02*
X156100000Y-136937500D01*
X148037500Y-136937500D02*
X148462500Y-136937500D01*
X148700000Y-136900000D02*
X148737500Y-136937500D01*
D32*
X157037500Y-136937500D02*
X158000000Y-137900000D01*
D31*
X142545000Y-131445000D02*
X148037500Y-136937500D01*
X146900000Y-141800000D02*
X146900000Y-144500000D01*
G04 #@! TO.N,LDO*
X150900000Y-138700000D02*
X150100000Y-137900000D01*
X149300000Y-145065000D02*
X153335000Y-149100000D01*
X148400000Y-130062500D02*
X146400000Y-130062500D01*
X150100000Y-137900000D02*
X150100000Y-137800000D01*
X146400000Y-130062500D02*
X143852500Y-130062500D01*
D32*
X154900000Y-139700000D02*
X154500000Y-139300000D01*
D31*
X143852500Y-130062500D02*
X143845000Y-130055000D01*
D32*
X156900000Y-139700000D02*
X154900000Y-139700000D01*
D31*
X149300000Y-144200000D02*
X149300000Y-145065000D01*
X148400000Y-135000000D02*
X148400000Y-130062500D01*
X149300000Y-135900000D02*
X148400000Y-135000000D01*
X154500000Y-139300000D02*
X153900000Y-138700000D01*
D32*
X158200000Y-138400000D02*
X156900000Y-139700000D01*
X159737500Y-138400000D02*
X158200000Y-138400000D01*
D31*
X153900000Y-138700000D02*
X150900000Y-138700000D01*
G04 #@! TO.N,AVDD*
X148100000Y-122600000D02*
X151200000Y-125700000D01*
X151200000Y-133062500D02*
X152600000Y-134462500D01*
D32*
X158700000Y-136900000D02*
X157800000Y-136000000D01*
D31*
X133950000Y-119150000D02*
X134300000Y-119500000D01*
D32*
X158934994Y-136900000D02*
X159737500Y-136900000D01*
X158934994Y-136900000D02*
X158700000Y-136900000D01*
D31*
X134300000Y-119500000D02*
X134300000Y-121900000D01*
X133950000Y-119150000D02*
X135575000Y-119150000D01*
X152600000Y-134462500D02*
X154300000Y-134462500D01*
X154300000Y-134462500D02*
X156100000Y-134462500D01*
X148100000Y-122540000D02*
X148100000Y-122600000D01*
X135000000Y-122600000D02*
X148100000Y-122600000D01*
X150540000Y-120100000D02*
X150540000Y-118400000D01*
X132850000Y-119150000D02*
X133950000Y-119150000D01*
D32*
X156100000Y-134462500D02*
X156497494Y-134462500D01*
D31*
X135575000Y-119150000D02*
X135600000Y-119125000D01*
X150540000Y-120100000D02*
X148100000Y-122540000D01*
X156462500Y-134462500D02*
X157900000Y-135900000D01*
X156100000Y-134462500D02*
X156462500Y-134462500D01*
X134300000Y-121900000D02*
X135000000Y-122600000D01*
X151200000Y-125700000D02*
X151200000Y-133062500D01*
D32*
G04 #@! TO.N,Net-(C11-Pad2)*
X161400000Y-135900000D02*
X164600000Y-132700000D01*
X164600000Y-132700000D02*
X164600000Y-127500000D01*
X159737500Y-135900000D02*
X161400000Y-135900000D01*
D31*
G04 #@! TO.N,/A5*
X163240000Y-123260000D02*
X163240000Y-118400000D01*
X162600000Y-125737500D02*
X162600000Y-123900000D01*
X162600000Y-123900000D02*
X163240000Y-123260000D01*
D32*
G04 #@! TO.N,Net-(C13-Pad2)*
X162600000Y-134064282D02*
X162600000Y-127462500D01*
X159737500Y-135400000D02*
X161264282Y-135400000D01*
X161264282Y-135400000D02*
X162600000Y-134064282D01*
D31*
G04 #@! TO.N,/A4*
X160700000Y-125737500D02*
X160700000Y-118400000D01*
D32*
G04 #@! TO.N,Net-(C14-Pad2)*
X159737500Y-134900000D02*
X161128564Y-134900000D01*
X161128564Y-134900000D02*
X161900000Y-134128564D01*
X161900000Y-131700000D02*
X160700000Y-130500000D01*
X160700000Y-130500000D02*
X160700000Y-127462500D01*
X161900000Y-134128564D02*
X161900000Y-131700000D01*
D31*
G04 #@! TO.N,/A3*
X158160000Y-123260000D02*
X158160000Y-118400000D01*
X158900000Y-125737500D02*
X158900000Y-124000000D01*
X158900000Y-124000000D02*
X158160000Y-123260000D01*
D32*
G04 #@! TO.N,Net-(C16-Pad2)*
X158900000Y-130000000D02*
X158900000Y-127462500D01*
X159737500Y-134400000D02*
X160992846Y-134400000D01*
X161300000Y-132400000D02*
X158900000Y-130000000D01*
X160992846Y-134400000D02*
X161300000Y-134092846D01*
X161300000Y-134092846D02*
X161300000Y-132400000D01*
D31*
G04 #@! TO.N,/A2*
X155400000Y-125737500D02*
X155400000Y-124800000D01*
X153080000Y-122480000D02*
X153080000Y-118400000D01*
X155400000Y-124800000D02*
X153080000Y-122480000D01*
D32*
G04 #@! TO.N,Net-(C18-Pad2)*
X155400000Y-128900000D02*
X155400000Y-127462500D01*
X157400000Y-130900000D02*
X155400000Y-128900000D01*
X157400000Y-132365006D02*
X157400000Y-130900000D01*
X159737500Y-133900000D02*
X158934994Y-133900000D01*
X158934994Y-133900000D02*
X157400000Y-132365006D01*
D31*
G04 #@! TO.N,/A1*
X155620000Y-122420000D02*
X155620000Y-118400000D01*
X157100000Y-125737500D02*
X157100000Y-123900000D01*
X157100000Y-123900000D02*
X155620000Y-122420000D01*
D32*
G04 #@! TO.N,Net-(C19-Pad2)*
X159737500Y-133400000D02*
X159737500Y-132537500D01*
X158500000Y-131300000D02*
X158500000Y-130800000D01*
X157100000Y-129400000D02*
X157100000Y-127462500D01*
X158500000Y-130800000D02*
X157100000Y-129400000D01*
X159737500Y-132537500D02*
X158500000Y-131300000D01*
D31*
G04 #@! TO.N,/A17*
X166400000Y-123900000D02*
X165780000Y-123280000D01*
X166400000Y-125737500D02*
X166400000Y-123900000D01*
X165780000Y-123280000D02*
X165780000Y-118400000D01*
D32*
G04 #@! TO.N,Net-(C20-Pad2)*
X166400000Y-130100000D02*
X166400000Y-127462500D01*
X165462500Y-133400000D02*
X165462500Y-131037500D01*
X165462500Y-131037500D02*
X166400000Y-130100000D01*
D31*
G04 #@! TO.N,/A16*
X168320000Y-125657500D02*
X168320000Y-118400000D01*
X168400000Y-125737500D02*
X168320000Y-125657500D01*
D32*
G04 #@! TO.N,Net-(C21-Pad2)*
X166500000Y-133900000D02*
X168400000Y-132000000D01*
X165462500Y-133900000D02*
X166500000Y-133900000D01*
X168400000Y-132000000D02*
X168400000Y-127462500D01*
D31*
G04 #@! TO.N,/A15*
X170860000Y-123040000D02*
X170860000Y-118400000D01*
X170300000Y-123600000D02*
X170860000Y-123040000D01*
X170300000Y-125737500D02*
X170300000Y-123600000D01*
D32*
G04 #@! TO.N,Net-(C22-Pad2)*
X167800000Y-134400000D02*
X170300000Y-131900000D01*
X165462500Y-134400000D02*
X167800000Y-134400000D01*
X170300000Y-131900000D02*
X170300000Y-127462500D01*
D31*
G04 #@! TO.N,/A14*
X172300000Y-125737500D02*
X173400000Y-124637500D01*
X173400000Y-124637500D02*
X173400000Y-118400000D01*
D32*
G04 #@! TO.N,Net-(C23-Pad2)*
X165462500Y-134900000D02*
X169200000Y-134900000D01*
X169200000Y-134900000D02*
X172300000Y-131800000D01*
X172300000Y-131800000D02*
X172300000Y-127462500D01*
D31*
G04 #@! TO.N,SCKI(3.3V)*
X148800000Y-141800000D02*
X151200000Y-144200000D01*
X144000000Y-136875000D02*
X146475000Y-136875000D01*
X151200000Y-144200000D02*
X157900000Y-144200000D01*
X159737500Y-142362500D02*
X159737500Y-140499520D01*
X148800000Y-139200000D02*
X148800000Y-139400000D01*
X147800000Y-138200000D02*
X148800000Y-139200000D01*
X157900000Y-144200000D02*
X159737500Y-142362500D01*
X146475000Y-136875000D02*
X147800000Y-138200000D01*
D32*
G04 #@! TO.N,DOUT*
X165462500Y-139400000D02*
X172215000Y-139400000D01*
X172215000Y-139400000D02*
X179800000Y-146985000D01*
G04 #@! TO.N,BCK*
X165462500Y-139900000D02*
X170175000Y-139900000D01*
X170175000Y-139900000D02*
X179800000Y-149525000D01*
D31*
G04 #@! TO.N,LRCK*
X166035000Y-141072020D02*
X165462500Y-140499520D01*
X166035000Y-149100000D02*
X166035000Y-141072020D01*
D32*
G04 #@! TO.N,/A6*
X174255000Y-138900000D02*
X179800000Y-144445000D01*
X165462500Y-138900000D02*
X174255000Y-138900000D01*
G04 #@! TO.N,/A7*
X165462500Y-138400000D02*
X176295000Y-138400000D01*
X176295000Y-138400000D02*
X179800000Y-141905000D01*
G04 #@! TO.N,/A8*
X165462500Y-137900000D02*
X178335000Y-137900000D01*
X178335000Y-137900000D02*
X179800000Y-139365000D01*
G04 #@! TO.N,/A9*
X179225000Y-137400000D02*
X179800000Y-136825000D01*
X165462500Y-137400000D02*
X179225000Y-137400000D01*
G04 #@! TO.N,/A10*
X165462500Y-136900000D02*
X177185000Y-136900000D01*
X177185000Y-136900000D02*
X179800000Y-134285000D01*
G04 #@! TO.N,/A11*
X175145000Y-136400000D02*
X179800000Y-131745000D01*
X165462500Y-136400000D02*
X175145000Y-136400000D01*
G04 #@! TO.N,/A12*
X165462500Y-135900000D02*
X173105000Y-135900000D01*
X173105000Y-135900000D02*
X179800000Y-129205000D01*
G04 #@! TO.N,/A13*
X165462500Y-135400000D02*
X171065000Y-135400000D01*
X171065000Y-135400000D02*
X179800000Y-126665000D01*
D31*
G04 #@! TO.N,OSC*
X148255000Y-147855000D02*
X148255000Y-149100000D01*
X138900000Y-128275000D02*
X138900000Y-128100000D01*
X141300000Y-133400000D02*
X141300000Y-133700000D01*
X141300000Y-129900000D02*
X141300000Y-133400000D01*
X141000000Y-126000000D02*
X142089022Y-126000000D01*
X143195000Y-127105978D02*
X143195000Y-128155000D01*
X142089022Y-126000000D02*
X143195000Y-127105978D01*
X142400000Y-142000000D02*
X148255000Y-147855000D01*
X141300000Y-129000000D02*
X141300000Y-129900000D01*
X138900000Y-128100000D02*
X139650000Y-127350000D01*
X139650000Y-127350000D02*
X141300000Y-129000000D01*
X141300000Y-133700000D02*
X141900000Y-134300000D01*
X139650000Y-127350000D02*
X141000000Y-126000000D01*
G04 #@! TO.N,Net-(D1-Pad1)*
X146400000Y-128312500D02*
X146400000Y-126400000D01*
G04 #@! TO.N,Net-(D2-Pad1)*
X134525000Y-141500000D02*
X132732500Y-141500000D01*
X132732500Y-141500000D02*
X132687500Y-141455000D01*
G04 #@! TO.N,Net-(D3-Pad1)*
X135600000Y-120875000D02*
X137562500Y-120875000D01*
X137562500Y-120875000D02*
X137600000Y-120912500D01*
G04 #@! TO.N,DVDD*
X138100000Y-141000000D02*
X136775000Y-141000000D01*
X136762500Y-134375000D02*
X136837500Y-134300000D01*
X142800000Y-141000000D02*
X143062500Y-140737500D01*
X136762500Y-139662500D02*
X138100000Y-141000000D01*
X156262500Y-140737500D02*
X156300000Y-140700000D01*
X154400000Y-140737500D02*
X156262500Y-140737500D01*
X143062500Y-140737500D02*
X154400000Y-140737500D01*
X138700000Y-141000000D02*
X142900000Y-145200000D01*
D32*
X159737500Y-139900000D02*
X158100000Y-139900000D01*
D31*
X136762500Y-136437500D02*
X135012500Y-136437500D01*
X136775000Y-141000000D02*
X136275000Y-141500000D01*
X136762500Y-136437500D02*
X136762500Y-139662500D01*
X138100000Y-141000000D02*
X138700000Y-141000000D01*
X141900000Y-138525000D02*
X141900000Y-136875000D01*
D32*
X160500000Y-139400000D02*
X159737500Y-139400000D01*
D31*
X136762500Y-136437500D02*
X136762500Y-134375000D01*
X142900000Y-145200000D02*
X142900000Y-146285000D01*
X138200000Y-136437500D02*
X141462500Y-136437500D01*
D32*
X160700000Y-139700000D02*
X160700000Y-139600000D01*
D31*
X156300000Y-140700000D02*
X157300000Y-140700000D01*
X135012500Y-136437500D02*
X134995000Y-136455000D01*
D32*
X159737500Y-139900000D02*
X160500000Y-139900000D01*
D31*
X136837500Y-132600000D02*
X136837500Y-129962500D01*
X141462500Y-136437500D02*
X141900000Y-136875000D01*
X136837500Y-129962500D02*
X136800000Y-129925000D01*
D32*
X160500000Y-139900000D02*
X160700000Y-139700000D01*
D31*
X138200000Y-136437500D02*
X136762500Y-136437500D01*
X136837500Y-132600000D02*
X136837500Y-134300000D01*
X136800000Y-129925000D02*
X136800000Y-128275000D01*
D32*
X160700000Y-139600000D02*
X160500000Y-139400000D01*
D31*
X138700000Y-141000000D02*
X142800000Y-141000000D01*
X157300000Y-140700000D02*
X158100000Y-139900000D01*
X142900000Y-146285000D02*
X145715000Y-149100000D01*
G04 #@! TO.N,VCC*
X125900000Y-119212500D02*
X125311522Y-119212500D01*
X132495000Y-138355000D02*
X133145000Y-138355000D01*
X127231250Y-139431250D02*
X126287011Y-140375489D01*
X130425000Y-145125000D02*
X130425000Y-146200000D01*
X131050000Y-119150000D02*
X131500000Y-119600000D01*
X126287011Y-140375489D02*
X126287011Y-140687011D01*
X133319022Y-136455000D02*
X132495000Y-136455000D01*
X130300000Y-119200000D02*
X130350000Y-119150000D01*
X121450000Y-140375489D02*
X125975489Y-140375489D01*
X125311522Y-119212500D02*
X124500000Y-120024022D01*
X125975489Y-140375489D02*
X126287011Y-140687011D01*
X128450000Y-142850000D02*
X128300000Y-143000000D01*
X126700000Y-138900000D02*
X127231250Y-139431250D01*
X128300000Y-146900000D02*
X130500000Y-149100000D01*
X133700000Y-136835978D02*
X133319022Y-136455000D01*
X128300000Y-138362500D02*
X130100000Y-138362500D01*
X125400000Y-135000000D02*
X126700000Y-136300000D01*
X133145000Y-138355000D02*
X133700000Y-137800000D01*
X126287011Y-140687011D02*
X128450000Y-142850000D01*
X128300000Y-143000000D02*
X128300000Y-146900000D01*
X125400000Y-123424022D02*
X125400000Y-135000000D01*
X124500000Y-120024022D02*
X124500000Y-122524022D01*
X131500000Y-120724022D02*
X131174022Y-121050000D01*
X124500000Y-122524022D02*
X125400000Y-123424022D01*
X131500000Y-119600000D02*
X131500000Y-120724022D01*
X132487500Y-138362500D02*
X132495000Y-138355000D01*
X130350000Y-119150000D02*
X131050000Y-119150000D01*
X131174022Y-121050000D02*
X130350000Y-121050000D01*
X130500000Y-149100000D02*
X143175000Y-149100000D01*
X128300000Y-143000000D02*
X130425000Y-145125000D01*
X127700000Y-119200000D02*
X125900000Y-119200000D01*
X128300000Y-138362500D02*
X127231250Y-139431250D01*
X126700000Y-136300000D02*
X126700000Y-138900000D01*
X133700000Y-137800000D02*
X133700000Y-136835978D01*
X130100000Y-138362500D02*
X132487500Y-138362500D01*
X127700000Y-119200000D02*
X130300000Y-119200000D01*
G04 #@! TO.N,Net-(D4-Pad1)*
X132175000Y-146200000D02*
X133987500Y-146200000D01*
G04 #@! TD*
M02*
