M48
; DRILL file {KiCad (6.0.5)} date Wed Feb 22 13:25:07 2023
; FORMAT={-:-/ absolute / inch / decimal}
; #@! TF.CreationDate,2023-02-22T13:25:07-08:00
; #@! TF.GenerationSoftware,Kicad,Pcbnew,(6.0.5)
; #@! TF.FileFunction,MixedPlating,1,2
FMAT,2
INCH
; #@! TA.AperFunction,Plated,PTH,ViaDrill
T1C0.0157
; #@! TA.AperFunction,Plated,PTH,ComponentDrill
T2C0.0217
; #@! TA.AperFunction,Plated,PTH,ComponentDrill
T3C0.0276
; #@! TA.AperFunction,Plated,PTH,ComponentDrill
T4C0.0335
; #@! TA.AperFunction,Plated,PTH,ComponentDrill
T5C0.0394
; #@! TA.AperFunction,Plated,PTH,ComponentDrill
T6C0.0866
; #@! TA.AperFunction,NonPlated,NPTH,ComponentDrill
T7C0.0315
%
G90
G05
T1
X2.9803Y-3.3268
X2.9843Y-3.5591
X3.122Y-3.9213
X3.1339Y-4.3819
X3.1575Y-3.2323
X3.2323Y-4.5472
X3.2992Y-3.1772
X3.3307Y-3.063
X3.3661Y-4.6181
X3.4567Y-4.1811
X3.563Y-4.1299
X3.5906Y-3.5236
X3.6299Y-3.7205
X3.6432Y-4.7205
X3.6614Y-3.9724
X3.6732Y-4.6299
X3.7323Y-4.3268
X3.7362Y-3.3583
X3.7795Y-4.1299
X3.878Y-3.9094
X3.878Y-4.6142
X3.8819Y-4.3583
X3.9055Y-4.1339
X3.9173Y-3.3858
X3.9843Y-3.622
X4.0433Y-4.1772
X4.0508Y-2.2736
X4.1024Y-3.4409
X4.1059Y-2.435
X4.1122Y-3.998
X4.1496Y-3.8937
X4.1654Y-4.1969
X4.1772Y-3.6417
X4.2559Y-4.4449
X4.2756Y-4.6457
X4.2988Y-2.8681
X4.3012Y-2.3681
X4.3445Y-2.2815
X4.3543Y-3.8071
X4.3642Y-2.6752
X4.4134Y-4.3976
X4.4606Y-4.3504
X4.4961Y-4.4803
X4.5118Y-3.626
X4.5508Y-2.2854
X4.5551Y-4.4252
X4.5626Y-2.8839
X4.6398Y-2.6634
X4.6929Y-4.0079
X4.7756Y-4.0079
X4.8189Y-3.6693
X4.8618Y-2.939
X4.8701Y-3.4724
X4.8898Y-4.1063
X4.9272Y-2.6909
X4.9606Y-3.9134
X4.9685Y-4.1811
X4.9961Y-4.0
X5.0453Y-4.0728
X5.1531Y-2.8524
X5.2185Y-2.6358
X5.2323Y-3.1929
X5.4091Y-2.8602
X5.4449Y-3.1496
X5.4744Y-2.628
X5.6768Y-2.8681
X5.7618Y-2.6201
X5.7835Y-3.7992
X5.815Y-3.6024
X5.9882Y-3.6063
X5.9882Y-3.7992
T3
X3.4347Y-4.0044
X3.4692Y-4.3223
X3.5347Y-4.0044
X3.5477Y-3.7881
X3.5477Y-3.8881
X3.5692Y-4.3223
X4.1806Y-2.1395
X4.1806Y-2.2395
X4.1885Y-2.4032
X4.1885Y-2.5032
X4.2283Y-2.7874
X4.3283Y-2.7874
X4.4968Y-2.8066
X4.5968Y-2.8066
X4.8044Y-2.844
X4.9044Y-2.844
X5.0968Y-2.7702
X5.1968Y-2.7702
X5.3477Y-2.781
X5.4477Y-2.781
X5.6322Y-2.782
X5.7322Y-2.782
T5
X4.7004Y-2.2972
X4.7116Y-4.6339
X4.8004Y-2.2972
X4.8116Y-4.6339
X4.9004Y-2.2972
X4.9116Y-4.6339
X5.0004Y-2.2972
X5.0116Y-4.6339
X5.1004Y-2.2972
X5.1116Y-4.6339
X5.2004Y-2.2972
X5.2116Y-4.6339
X5.3004Y-2.2972
X5.3116Y-4.6339
X5.4004Y-2.2972
X5.4116Y-4.6339
X5.5004Y-2.2972
X5.5116Y-4.6339
X5.6004Y-2.2972
X5.6063Y-3.5423
X5.6063Y-3.6423
X5.6063Y-3.7423
X5.6063Y-3.8423
X5.6063Y-3.9423
X5.6063Y-4.0423
X5.6063Y-4.1423
X5.6063Y-4.2423
X5.6063Y-4.3423
X5.6063Y-4.4423
X5.6116Y-4.6339
T6
X2.9528Y-1.9685
X2.9528Y-4.9213
X5.9055Y-1.9685
X5.9055Y-4.9213
T7
X2.9843Y-4.1772
X2.9843Y-4.374
T2
G00X2.8888Y-4.123
M15
G01X2.8632Y-4.123
M16
G05
G00X2.8888Y-4.4281
M15
G01X2.8632Y-4.4281
M16
G05
T4
G00X3.0364Y-4.1289
M15
G01X3.0148Y-4.1289
M16
G05
G00X3.0364Y-4.4222
M15
G01X3.0148Y-4.4222
M16
G05
T0
M30
