G04 #@! TF.GenerationSoftware,KiCad,Pcbnew,(6.0.5)*
G04 #@! TF.CreationDate,2023-03-12T22:04:04-07:00*
G04 #@! TF.ProjectId,PCM1863,50434d31-3836-4332-9e6b-696361645f70,rev?*
G04 #@! TF.SameCoordinates,Original*
G04 #@! TF.FileFunction,Legend,Top*
G04 #@! TF.FilePolarity,Positive*
%FSLAX46Y46*%
G04 Gerber Fmt 4.6, Leading zero omitted, Abs format (unit mm)*
G04 Created by KiCad (PCBNEW (6.0.5)) date 2023-03-12 22:04:04*
%MOMM*%
%LPD*%
G01*
G04 APERTURE LIST*
%ADD10C,0.150000*%
%ADD11C,0.250000*%
%ADD12C,0.300000*%
%ADD13C,0.254000*%
%ADD14C,0.120000*%
%ADD15C,0.200000*%
G04 APERTURE END LIST*
D10*
X137287976Y-135404761D02*
X137430833Y-135452380D01*
X137668928Y-135452380D01*
X137764166Y-135404761D01*
X137811785Y-135357142D01*
X137859404Y-135261904D01*
X137859404Y-135166666D01*
X137811785Y-135071428D01*
X137764166Y-135023809D01*
X137668928Y-134976190D01*
X137478452Y-134928571D01*
X137383214Y-134880952D01*
X137335595Y-134833333D01*
X137287976Y-134738095D01*
X137287976Y-134642857D01*
X137335595Y-134547619D01*
X137383214Y-134500000D01*
X137478452Y-134452380D01*
X137716547Y-134452380D01*
X137859404Y-134500000D01*
X138287976Y-135452380D02*
X138287976Y-134452380D01*
X138526071Y-134452380D01*
X138668928Y-134500000D01*
X138764166Y-134595238D01*
X138811785Y-134690476D01*
X138859404Y-134880952D01*
X138859404Y-135023809D01*
X138811785Y-135214285D01*
X138764166Y-135309523D01*
X138668928Y-135404761D01*
X138526071Y-135452380D01*
X138287976Y-135452380D01*
X139240357Y-135166666D02*
X139716547Y-135166666D01*
X139145119Y-135452380D02*
X139478452Y-134452380D01*
X139811785Y-135452380D01*
D11*
X119214285Y-102750000D02*
X119071428Y-102678571D01*
X118857142Y-102678571D01*
X118642857Y-102750000D01*
X118500000Y-102892857D01*
X118428571Y-103035714D01*
X118357142Y-103321428D01*
X118357142Y-103535714D01*
X118428571Y-103821428D01*
X118500000Y-103964285D01*
X118642857Y-104107142D01*
X118857142Y-104178571D01*
X119000000Y-104178571D01*
X119214285Y-104107142D01*
X119285714Y-104035714D01*
X119285714Y-103535714D01*
X119000000Y-103535714D01*
X119928571Y-104178571D02*
X119928571Y-102678571D01*
X120785714Y-104178571D01*
X120785714Y-102678571D01*
X121500000Y-104178571D02*
X121500000Y-102678571D01*
X121857142Y-102678571D01*
X122071428Y-102750000D01*
X122214285Y-102892857D01*
X122285714Y-103035714D01*
X122357142Y-103321428D01*
X122357142Y-103535714D01*
X122285714Y-103821428D01*
X122214285Y-103964285D01*
X122071428Y-104107142D01*
X121857142Y-104178571D01*
X121500000Y-104178571D01*
X122928571Y-103750000D02*
X123642857Y-103750000D01*
X122785714Y-104178571D02*
X123285714Y-102678571D01*
X123785714Y-104178571D01*
D10*
X101952380Y-164688214D02*
X101952380Y-165164404D01*
X100952380Y-165164404D01*
X101952380Y-163783452D02*
X101476190Y-164116785D01*
X101952380Y-164354880D02*
X100952380Y-164354880D01*
X100952380Y-163973928D01*
X101000000Y-163878690D01*
X101047619Y-163831071D01*
X101142857Y-163783452D01*
X101285714Y-163783452D01*
X101380952Y-163831071D01*
X101428571Y-163878690D01*
X101476190Y-163973928D01*
X101476190Y-164354880D01*
X101857142Y-162783452D02*
X101904761Y-162831071D01*
X101952380Y-162973928D01*
X101952380Y-163069166D01*
X101904761Y-163212023D01*
X101809523Y-163307261D01*
X101714285Y-163354880D01*
X101523809Y-163402500D01*
X101380952Y-163402500D01*
X101190476Y-163354880D01*
X101095238Y-163307261D01*
X101000000Y-163212023D01*
X100952380Y-163069166D01*
X100952380Y-162973928D01*
X101000000Y-162831071D01*
X101047619Y-162783452D01*
X101952380Y-162354880D02*
X100952380Y-162354880D01*
X101952380Y-161783452D02*
X101380952Y-162212023D01*
X100952380Y-161783452D02*
X101523809Y-162354880D01*
D11*
X90107142Y-164750000D02*
X89964285Y-164678571D01*
X89750000Y-164678571D01*
X89535714Y-164750000D01*
X89392857Y-164892857D01*
X89321428Y-165035714D01*
X89250000Y-165321428D01*
X89250000Y-165535714D01*
X89321428Y-165821428D01*
X89392857Y-165964285D01*
X89535714Y-166107142D01*
X89750000Y-166178571D01*
X89892857Y-166178571D01*
X90107142Y-166107142D01*
X90178571Y-166035714D01*
X90178571Y-165535714D01*
X89892857Y-165535714D01*
X90821428Y-166178571D02*
X90821428Y-164678571D01*
X91678571Y-166178571D01*
X91678571Y-164678571D01*
X92392857Y-166178571D02*
X92392857Y-164678571D01*
X92750000Y-164678571D01*
X92964285Y-164750000D01*
X93107142Y-164892857D01*
X93178571Y-165035714D01*
X93250000Y-165321428D01*
X93250000Y-165535714D01*
X93178571Y-165821428D01*
X93107142Y-165964285D01*
X92964285Y-166107142D01*
X92750000Y-166178571D01*
X92392857Y-166178571D01*
X93892857Y-166178571D02*
X93892857Y-164678571D01*
X94250000Y-164678571D01*
X94464285Y-164750000D01*
X94607142Y-164892857D01*
X94678571Y-165035714D01*
X94750000Y-165321428D01*
X94750000Y-165535714D01*
X94678571Y-165821428D01*
X94607142Y-165964285D01*
X94464285Y-166107142D01*
X94250000Y-166178571D01*
X93892857Y-166178571D01*
D10*
X116500000Y-164640595D02*
X116452380Y-164735833D01*
X116452380Y-164878690D01*
X116500000Y-165021547D01*
X116595238Y-165116785D01*
X116690476Y-165164404D01*
X116880952Y-165212023D01*
X117023809Y-165212023D01*
X117214285Y-165164404D01*
X117309523Y-165116785D01*
X117404761Y-165021547D01*
X117452380Y-164878690D01*
X117452380Y-164783452D01*
X117404761Y-164640595D01*
X117357142Y-164592976D01*
X117023809Y-164592976D01*
X117023809Y-164783452D01*
X117452380Y-164164404D02*
X116452380Y-164164404D01*
X116452380Y-163783452D01*
X116500000Y-163688214D01*
X116547619Y-163640595D01*
X116642857Y-163592976D01*
X116785714Y-163592976D01*
X116880952Y-163640595D01*
X116928571Y-163688214D01*
X116976190Y-163783452D01*
X116976190Y-164164404D01*
X117452380Y-163164404D02*
X116452380Y-163164404D01*
X116452380Y-162497738D02*
X116452380Y-162307261D01*
X116500000Y-162212023D01*
X116595238Y-162116785D01*
X116785714Y-162069166D01*
X117119047Y-162069166D01*
X117309523Y-162116785D01*
X117404761Y-162212023D01*
X117452380Y-162307261D01*
X117452380Y-162497738D01*
X117404761Y-162592976D01*
X117309523Y-162688214D01*
X117119047Y-162735833D01*
X116785714Y-162735833D01*
X116595238Y-162688214D01*
X116500000Y-162592976D01*
X116452380Y-162497738D01*
X116452380Y-161450119D02*
X116452380Y-161354880D01*
X116500000Y-161259642D01*
X116547619Y-161212023D01*
X116642857Y-161164404D01*
X116833333Y-161116785D01*
X117071428Y-161116785D01*
X117261904Y-161164404D01*
X117357142Y-161212023D01*
X117404761Y-161259642D01*
X117452380Y-161354880D01*
X117452380Y-161450119D01*
X117404761Y-161545357D01*
X117357142Y-161592976D01*
X117261904Y-161640595D01*
X117071428Y-161688214D01*
X116833333Y-161688214D01*
X116642857Y-161640595D01*
X116547619Y-161592976D01*
X116500000Y-161545357D01*
X116452380Y-161450119D01*
D11*
X105107142Y-85750000D02*
X104964285Y-85678571D01*
X104750000Y-85678571D01*
X104535714Y-85750000D01*
X104392857Y-85892857D01*
X104321428Y-86035714D01*
X104250000Y-86321428D01*
X104250000Y-86535714D01*
X104321428Y-86821428D01*
X104392857Y-86964285D01*
X104535714Y-87107142D01*
X104750000Y-87178571D01*
X104892857Y-87178571D01*
X105107142Y-87107142D01*
X105178571Y-87035714D01*
X105178571Y-86535714D01*
X104892857Y-86535714D01*
X105821428Y-87178571D02*
X105821428Y-85678571D01*
X106678571Y-87178571D01*
X106678571Y-85678571D01*
X107392857Y-87178571D02*
X107392857Y-85678571D01*
X107750000Y-85678571D01*
X107964285Y-85750000D01*
X108107142Y-85892857D01*
X108178571Y-86035714D01*
X108250000Y-86321428D01*
X108250000Y-86535714D01*
X108178571Y-86821428D01*
X108107142Y-86964285D01*
X107964285Y-87107142D01*
X107750000Y-87178571D01*
X107392857Y-87178571D01*
X108892857Y-87178571D02*
X108892857Y-85678571D01*
X109250000Y-85678571D01*
X109464285Y-85750000D01*
X109607142Y-85892857D01*
X109678571Y-86035714D01*
X109750000Y-86321428D01*
X109750000Y-86535714D01*
X109678571Y-86821428D01*
X109607142Y-86964285D01*
X109464285Y-87107142D01*
X109250000Y-87178571D01*
X108892857Y-87178571D01*
D10*
X136192738Y-68952380D02*
X136526071Y-69952380D01*
X136859404Y-68952380D01*
X137764166Y-69857142D02*
X137716547Y-69904761D01*
X137573690Y-69952380D01*
X137478452Y-69952380D01*
X137335595Y-69904761D01*
X137240357Y-69809523D01*
X137192738Y-69714285D01*
X137145119Y-69523809D01*
X137145119Y-69380952D01*
X137192738Y-69190476D01*
X137240357Y-69095238D01*
X137335595Y-69000000D01*
X137478452Y-68952380D01*
X137573690Y-68952380D01*
X137716547Y-69000000D01*
X137764166Y-69047619D01*
X138764166Y-69857142D02*
X138716547Y-69904761D01*
X138573690Y-69952380D01*
X138478452Y-69952380D01*
X138335595Y-69904761D01*
X138240357Y-69809523D01*
X138192738Y-69714285D01*
X138145119Y-69523809D01*
X138145119Y-69380952D01*
X138192738Y-69190476D01*
X138240357Y-69095238D01*
X138335595Y-69000000D01*
X138478452Y-68952380D01*
X138573690Y-68952380D01*
X138716547Y-69000000D01*
X138764166Y-69047619D01*
X88357142Y-91952380D02*
X87880952Y-91952380D01*
X87880952Y-90952380D01*
X88690476Y-91952380D02*
X88690476Y-90952380D01*
X88928571Y-90952380D01*
X89071428Y-91000000D01*
X89166666Y-91095238D01*
X89214285Y-91190476D01*
X89261904Y-91380952D01*
X89261904Y-91523809D01*
X89214285Y-91714285D01*
X89166666Y-91809523D01*
X89071428Y-91904761D01*
X88928571Y-91952380D01*
X88690476Y-91952380D01*
X89880952Y-90952380D02*
X90071428Y-90952380D01*
X90166666Y-91000000D01*
X90261904Y-91095238D01*
X90309523Y-91285714D01*
X90309523Y-91619047D01*
X90261904Y-91809523D01*
X90166666Y-91904761D01*
X90071428Y-91952380D01*
X89880952Y-91952380D01*
X89785714Y-91904761D01*
X89690476Y-91809523D01*
X89642857Y-91619047D01*
X89642857Y-91285714D01*
X89690476Y-91095238D01*
X89785714Y-91000000D01*
X89880952Y-90952380D01*
X90500000Y-92047619D02*
X91261904Y-92047619D01*
X91690476Y-90952380D02*
X91880952Y-90952380D01*
X91976190Y-91000000D01*
X92071428Y-91095238D01*
X92119047Y-91285714D01*
X92119047Y-91619047D01*
X92071428Y-91809523D01*
X91976190Y-91904761D01*
X91880952Y-91952380D01*
X91690476Y-91952380D01*
X91595238Y-91904761D01*
X91500000Y-91809523D01*
X91452380Y-91619047D01*
X91452380Y-91285714D01*
X91500000Y-91095238D01*
X91595238Y-91000000D01*
X91690476Y-90952380D01*
X92547619Y-91952380D02*
X92547619Y-90952380D01*
X93119047Y-91952380D01*
X93119047Y-90952380D01*
X120309523Y-72952380D02*
X120309523Y-71952380D01*
X120547619Y-71952380D01*
X120690476Y-72000000D01*
X120785714Y-72095238D01*
X120833333Y-72190476D01*
X120880952Y-72380952D01*
X120880952Y-72523809D01*
X120833333Y-72714285D01*
X120785714Y-72809523D01*
X120690476Y-72904761D01*
X120547619Y-72952380D01*
X120309523Y-72952380D01*
X121309523Y-72952380D02*
X121309523Y-72285714D01*
X121309523Y-71952380D02*
X121261904Y-72000000D01*
X121309523Y-72047619D01*
X121357142Y-72000000D01*
X121309523Y-71952380D01*
X121309523Y-72047619D01*
X122214285Y-72285714D02*
X122214285Y-73095238D01*
X122166666Y-73190476D01*
X122119047Y-73238095D01*
X122023809Y-73285714D01*
X121880952Y-73285714D01*
X121785714Y-73238095D01*
X122214285Y-72904761D02*
X122119047Y-72952380D01*
X121928571Y-72952380D01*
X121833333Y-72904761D01*
X121785714Y-72857142D01*
X121738095Y-72761904D01*
X121738095Y-72476190D01*
X121785714Y-72380952D01*
X121833333Y-72333333D01*
X121928571Y-72285714D01*
X122119047Y-72285714D01*
X122214285Y-72333333D01*
X122690476Y-72952380D02*
X122690476Y-72285714D01*
X122690476Y-71952380D02*
X122642857Y-72000000D01*
X122690476Y-72047619D01*
X122738095Y-72000000D01*
X122690476Y-71952380D01*
X122690476Y-72047619D01*
X123023809Y-72285714D02*
X123404761Y-72285714D01*
X123166666Y-71952380D02*
X123166666Y-72809523D01*
X123214285Y-72904761D01*
X123309523Y-72952380D01*
X123404761Y-72952380D01*
X124166666Y-72952380D02*
X124166666Y-72428571D01*
X124119047Y-72333333D01*
X124023809Y-72285714D01*
X123833333Y-72285714D01*
X123738095Y-72333333D01*
X124166666Y-72904761D02*
X124071428Y-72952380D01*
X123833333Y-72952380D01*
X123738095Y-72904761D01*
X123690476Y-72809523D01*
X123690476Y-72714285D01*
X123738095Y-72619047D01*
X123833333Y-72571428D01*
X124071428Y-72571428D01*
X124166666Y-72523809D01*
X124785714Y-72952380D02*
X124690476Y-72904761D01*
X124642857Y-72809523D01*
X124642857Y-71952380D01*
X91166666Y-64952380D02*
X91833333Y-65952380D01*
X91833333Y-64952380D02*
X91166666Y-65952380D01*
X92214285Y-65952380D02*
X92214285Y-64952380D01*
X92452380Y-66047619D02*
X93214285Y-66047619D01*
X93785714Y-65428571D02*
X93928571Y-65476190D01*
X93976190Y-65523809D01*
X94023809Y-65619047D01*
X94023809Y-65761904D01*
X93976190Y-65857142D01*
X93928571Y-65904761D01*
X93833333Y-65952380D01*
X93452380Y-65952380D01*
X93452380Y-64952380D01*
X93785714Y-64952380D01*
X93880952Y-65000000D01*
X93928571Y-65047619D01*
X93976190Y-65142857D01*
X93976190Y-65238095D01*
X93928571Y-65333333D01*
X93880952Y-65380952D01*
X93785714Y-65428571D01*
X93452380Y-65428571D01*
X94452380Y-64952380D02*
X94452380Y-65761904D01*
X94500000Y-65857142D01*
X94547619Y-65904761D01*
X94642857Y-65952380D01*
X94833333Y-65952380D01*
X94928571Y-65904761D01*
X94976190Y-65857142D01*
X95023809Y-65761904D01*
X95023809Y-64952380D01*
X95833333Y-65428571D02*
X95500000Y-65428571D01*
X95500000Y-65952380D02*
X95500000Y-64952380D01*
X95976190Y-64952380D01*
X96690476Y-65428571D02*
X96357142Y-65428571D01*
X96357142Y-65952380D02*
X96357142Y-64952380D01*
X96833333Y-64952380D01*
X89023809Y-36952380D02*
X89357142Y-37952380D01*
X89690476Y-36952380D01*
X90595238Y-37857142D02*
X90547619Y-37904761D01*
X90404761Y-37952380D01*
X90309523Y-37952380D01*
X90166666Y-37904761D01*
X90071428Y-37809523D01*
X90023809Y-37714285D01*
X89976190Y-37523809D01*
X89976190Y-37380952D01*
X90023809Y-37190476D01*
X90071428Y-37095238D01*
X90166666Y-37000000D01*
X90309523Y-36952380D01*
X90404761Y-36952380D01*
X90547619Y-37000000D01*
X90595238Y-37047619D01*
X91595238Y-37857142D02*
X91547619Y-37904761D01*
X91404761Y-37952380D01*
X91309523Y-37952380D01*
X91166666Y-37904761D01*
X91071428Y-37809523D01*
X91023809Y-37714285D01*
X90976190Y-37523809D01*
X90976190Y-37380952D01*
X91023809Y-37190476D01*
X91071428Y-37095238D01*
X91166666Y-37000000D01*
X91309523Y-36952380D01*
X91404761Y-36952380D01*
X91547619Y-37000000D01*
X91595238Y-37047619D01*
X91785714Y-38047619D02*
X92547619Y-38047619D01*
X92785714Y-37952380D02*
X92785714Y-36952380D01*
X93261904Y-37952380D02*
X93261904Y-36952380D01*
X93833333Y-37952380D01*
X93833333Y-36952380D01*
D11*
X88500000Y-102107142D02*
X89642857Y-102107142D01*
X89071428Y-102678571D02*
X89071428Y-101535714D01*
X90214285Y-101178571D02*
X91142857Y-101178571D01*
X90642857Y-101750000D01*
X90857142Y-101750000D01*
X91000000Y-101821428D01*
X91071428Y-101892857D01*
X91142857Y-102035714D01*
X91142857Y-102392857D01*
X91071428Y-102535714D01*
X91000000Y-102607142D01*
X90857142Y-102678571D01*
X90428571Y-102678571D01*
X90285714Y-102607142D01*
X90214285Y-102535714D01*
X91785714Y-102535714D02*
X91857142Y-102607142D01*
X91785714Y-102678571D01*
X91714285Y-102607142D01*
X91785714Y-102535714D01*
X91785714Y-102678571D01*
X92357142Y-101178571D02*
X93285714Y-101178571D01*
X92785714Y-101750000D01*
X93000000Y-101750000D01*
X93142857Y-101821428D01*
X93214285Y-101892857D01*
X93285714Y-102035714D01*
X93285714Y-102392857D01*
X93214285Y-102535714D01*
X93142857Y-102607142D01*
X93000000Y-102678571D01*
X92571428Y-102678571D01*
X92428571Y-102607142D01*
X92357142Y-102535714D01*
X93714285Y-101178571D02*
X94214285Y-102678571D01*
X94714285Y-101178571D01*
D10*
X136183214Y-74257380D02*
X136583214Y-75257380D01*
X136583214Y-74257380D02*
X136183214Y-75257380D01*
X136926071Y-74257380D02*
X137040357Y-74257380D01*
X137097500Y-74305000D01*
X137154642Y-74400238D01*
X137183214Y-74590714D01*
X137183214Y-74924047D01*
X137154642Y-75114523D01*
X137097500Y-75209761D01*
X137040357Y-75257380D01*
X136926071Y-75257380D01*
X136868928Y-75209761D01*
X136811785Y-75114523D01*
X136783214Y-74924047D01*
X136783214Y-74590714D01*
X136811785Y-74400238D01*
X136868928Y-74305000D01*
X136926071Y-74257380D01*
X137297500Y-75352619D02*
X137754642Y-75352619D01*
X138097500Y-74733571D02*
X138183214Y-74781190D01*
X138211785Y-74828809D01*
X138240357Y-74924047D01*
X138240357Y-75066904D01*
X138211785Y-75162142D01*
X138183214Y-75209761D01*
X138126071Y-75257380D01*
X137897500Y-75257380D01*
X137897500Y-74257380D01*
X138097500Y-74257380D01*
X138154642Y-74305000D01*
X138183214Y-74352619D01*
X138211785Y-74447857D01*
X138211785Y-74543095D01*
X138183214Y-74638333D01*
X138154642Y-74685952D01*
X138097500Y-74733571D01*
X137897500Y-74733571D01*
X138497500Y-74257380D02*
X138497500Y-75066904D01*
X138526071Y-75162142D01*
X138554642Y-75209761D01*
X138611785Y-75257380D01*
X138726071Y-75257380D01*
X138783214Y-75209761D01*
X138811785Y-75162142D01*
X138840357Y-75066904D01*
X138840357Y-74257380D01*
X139326071Y-74733571D02*
X139126071Y-74733571D01*
X139126071Y-75257380D02*
X139126071Y-74257380D01*
X139411785Y-74257380D01*
X139840357Y-74733571D02*
X139640357Y-74733571D01*
X139640357Y-75257380D02*
X139640357Y-74257380D01*
X139926071Y-74257380D01*
X135835595Y-67071428D02*
X136597500Y-67071428D01*
X136216547Y-67452380D02*
X136216547Y-66690476D01*
X136978452Y-66452380D02*
X137597500Y-66452380D01*
X137264166Y-66833333D01*
X137407023Y-66833333D01*
X137502261Y-66880952D01*
X137549880Y-66928571D01*
X137597500Y-67023809D01*
X137597500Y-67261904D01*
X137549880Y-67357142D01*
X137502261Y-67404761D01*
X137407023Y-67452380D01*
X137121309Y-67452380D01*
X137026071Y-67404761D01*
X136978452Y-67357142D01*
X138026071Y-67357142D02*
X138073690Y-67404761D01*
X138026071Y-67452380D01*
X137978452Y-67404761D01*
X138026071Y-67357142D01*
X138026071Y-67452380D01*
X138407023Y-66452380D02*
X139026071Y-66452380D01*
X138692738Y-66833333D01*
X138835595Y-66833333D01*
X138930833Y-66880952D01*
X138978452Y-66928571D01*
X139026071Y-67023809D01*
X139026071Y-67261904D01*
X138978452Y-67357142D01*
X138930833Y-67404761D01*
X138835595Y-67452380D01*
X138549880Y-67452380D01*
X138454642Y-67404761D01*
X138407023Y-67357142D01*
X139311785Y-66452380D02*
X139645119Y-67452380D01*
X139978452Y-66452380D01*
X91000000Y-155571428D02*
X91761904Y-155571428D01*
X91380952Y-155952380D02*
X91380952Y-155190476D01*
X92142857Y-154952380D02*
X92761904Y-154952380D01*
X92428571Y-155333333D01*
X92571428Y-155333333D01*
X92666666Y-155380952D01*
X92714285Y-155428571D01*
X92761904Y-155523809D01*
X92761904Y-155761904D01*
X92714285Y-155857142D01*
X92666666Y-155904761D01*
X92571428Y-155952380D01*
X92285714Y-155952380D01*
X92190476Y-155904761D01*
X92142857Y-155857142D01*
X93190476Y-155857142D02*
X93238095Y-155904761D01*
X93190476Y-155952380D01*
X93142857Y-155904761D01*
X93190476Y-155857142D01*
X93190476Y-155952380D01*
X93571428Y-154952380D02*
X94190476Y-154952380D01*
X93857142Y-155333333D01*
X94000000Y-155333333D01*
X94095238Y-155380952D01*
X94142857Y-155428571D01*
X94190476Y-155523809D01*
X94190476Y-155761904D01*
X94142857Y-155857142D01*
X94095238Y-155904761D01*
X94000000Y-155952380D01*
X93714285Y-155952380D01*
X93619047Y-155904761D01*
X93571428Y-155857142D01*
X94476190Y-154952380D02*
X94809523Y-155952380D01*
X95142857Y-154952380D01*
X114000000Y-164640595D02*
X113952380Y-164735833D01*
X113952380Y-164878690D01*
X114000000Y-165021547D01*
X114095238Y-165116785D01*
X114190476Y-165164404D01*
X114380952Y-165212023D01*
X114523809Y-165212023D01*
X114714285Y-165164404D01*
X114809523Y-165116785D01*
X114904761Y-165021547D01*
X114952380Y-164878690D01*
X114952380Y-164783452D01*
X114904761Y-164640595D01*
X114857142Y-164592976D01*
X114523809Y-164592976D01*
X114523809Y-164783452D01*
X114952380Y-164164404D02*
X113952380Y-164164404D01*
X113952380Y-163783452D01*
X114000000Y-163688214D01*
X114047619Y-163640595D01*
X114142857Y-163592976D01*
X114285714Y-163592976D01*
X114380952Y-163640595D01*
X114428571Y-163688214D01*
X114476190Y-163783452D01*
X114476190Y-164164404D01*
X114952380Y-163164404D02*
X113952380Y-163164404D01*
X113952380Y-162497738D02*
X113952380Y-162307261D01*
X114000000Y-162212023D01*
X114095238Y-162116785D01*
X114285714Y-162069166D01*
X114619047Y-162069166D01*
X114809523Y-162116785D01*
X114904761Y-162212023D01*
X114952380Y-162307261D01*
X114952380Y-162497738D01*
X114904761Y-162592976D01*
X114809523Y-162688214D01*
X114619047Y-162735833D01*
X114285714Y-162735833D01*
X114095238Y-162688214D01*
X114000000Y-162592976D01*
X113952380Y-162497738D01*
X114952380Y-161116785D02*
X114952380Y-161688214D01*
X114952380Y-161402500D02*
X113952380Y-161402500D01*
X114095238Y-161497738D01*
X114190476Y-161592976D01*
X114238095Y-161688214D01*
D11*
X99000000Y-48178571D02*
X99500000Y-49678571D01*
X100000000Y-48178571D01*
X101357142Y-49535714D02*
X101285714Y-49607142D01*
X101071428Y-49678571D01*
X100928571Y-49678571D01*
X100714285Y-49607142D01*
X100571428Y-49464285D01*
X100500000Y-49321428D01*
X100428571Y-49035714D01*
X100428571Y-48821428D01*
X100500000Y-48535714D01*
X100571428Y-48392857D01*
X100714285Y-48250000D01*
X100928571Y-48178571D01*
X101071428Y-48178571D01*
X101285714Y-48250000D01*
X101357142Y-48321428D01*
X102857142Y-49535714D02*
X102785714Y-49607142D01*
X102571428Y-49678571D01*
X102428571Y-49678571D01*
X102214285Y-49607142D01*
X102071428Y-49464285D01*
X102000000Y-49321428D01*
X101928571Y-49035714D01*
X101928571Y-48821428D01*
X102000000Y-48535714D01*
X102071428Y-48392857D01*
X102214285Y-48250000D01*
X102428571Y-48178571D01*
X102571428Y-48178571D01*
X102785714Y-48250000D01*
X102857142Y-48321428D01*
D10*
X137165595Y-122952380D02*
X137165595Y-121952380D01*
X137641785Y-122952380D02*
X137641785Y-121952380D01*
X138213214Y-122952380D01*
X138213214Y-121952380D01*
X138594166Y-121952380D02*
X139213214Y-121952380D01*
X138879880Y-122333333D01*
X139022738Y-122333333D01*
X139117976Y-122380952D01*
X139165595Y-122428571D01*
X139213214Y-122523809D01*
X139213214Y-122761904D01*
X139165595Y-122857142D01*
X139117976Y-122904761D01*
X139022738Y-122952380D01*
X138737023Y-122952380D01*
X138641785Y-122904761D01*
X138594166Y-122857142D01*
X102761904Y-116666666D02*
X103238095Y-116666666D01*
X102666666Y-116952380D02*
X103000000Y-115952380D01*
X103333333Y-116952380D01*
X103666666Y-116952380D02*
X103666666Y-115952380D01*
X103904761Y-115952380D01*
X104047619Y-116000000D01*
X104142857Y-116095238D01*
X104190476Y-116190476D01*
X104238095Y-116380952D01*
X104238095Y-116523809D01*
X104190476Y-116714285D01*
X104142857Y-116809523D01*
X104047619Y-116904761D01*
X103904761Y-116952380D01*
X103666666Y-116952380D01*
X105238095Y-116857142D02*
X105190476Y-116904761D01*
X105047619Y-116952380D01*
X104952380Y-116952380D01*
X104809523Y-116904761D01*
X104714285Y-116809523D01*
X104666666Y-116714285D01*
X104619047Y-116523809D01*
X104619047Y-116380952D01*
X104666666Y-116190476D01*
X104714285Y-116095238D01*
X104809523Y-116000000D01*
X104952380Y-115952380D01*
X105047619Y-115952380D01*
X105190476Y-116000000D01*
X105238095Y-116047619D01*
X137335595Y-120452380D02*
X137335595Y-119452380D01*
X137811785Y-120452380D02*
X137811785Y-119452380D01*
X138383214Y-120452380D01*
X138383214Y-119452380D01*
X138811785Y-119547619D02*
X138859404Y-119500000D01*
X138954642Y-119452380D01*
X139192738Y-119452380D01*
X139287976Y-119500000D01*
X139335595Y-119547619D01*
X139383214Y-119642857D01*
X139383214Y-119738095D01*
X139335595Y-119880952D01*
X138764166Y-120452380D01*
X139383214Y-120452380D01*
X121500000Y-164640595D02*
X121452380Y-164735833D01*
X121452380Y-164878690D01*
X121500000Y-165021547D01*
X121595238Y-165116785D01*
X121690476Y-165164404D01*
X121880952Y-165212023D01*
X122023809Y-165212023D01*
X122214285Y-165164404D01*
X122309523Y-165116785D01*
X122404761Y-165021547D01*
X122452380Y-164878690D01*
X122452380Y-164783452D01*
X122404761Y-164640595D01*
X122357142Y-164592976D01*
X122023809Y-164592976D01*
X122023809Y-164783452D01*
X122452380Y-164164404D02*
X121452380Y-164164404D01*
X122452380Y-163592976D01*
X121452380Y-163592976D01*
X122452380Y-163116785D02*
X121452380Y-163116785D01*
X121452380Y-162878690D01*
X121500000Y-162735833D01*
X121595238Y-162640595D01*
X121690476Y-162592976D01*
X121880952Y-162545357D01*
X122023809Y-162545357D01*
X122214285Y-162592976D01*
X122309523Y-162640595D01*
X122404761Y-162735833D01*
X122452380Y-162878690D01*
X122452380Y-163116785D01*
X122166666Y-162164404D02*
X122166666Y-161688214D01*
X122452380Y-162259642D02*
X121452380Y-161926309D01*
X122452380Y-161592976D01*
X96976190Y-73452380D02*
X97642857Y-74452380D01*
X97642857Y-73452380D02*
X96976190Y-74452380D01*
X98023809Y-74452380D02*
X98023809Y-73452380D01*
X98261904Y-74547619D02*
X99023809Y-74547619D01*
X99833333Y-74357142D02*
X99785714Y-74404761D01*
X99642857Y-74452380D01*
X99547619Y-74452380D01*
X99404761Y-74404761D01*
X99309523Y-74309523D01*
X99261904Y-74214285D01*
X99214285Y-74023809D01*
X99214285Y-73880952D01*
X99261904Y-73690476D01*
X99309523Y-73595238D01*
X99404761Y-73500000D01*
X99547619Y-73452380D01*
X99642857Y-73452380D01*
X99785714Y-73500000D01*
X99833333Y-73547619D01*
X100452380Y-73452380D02*
X100642857Y-73452380D01*
X100738095Y-73500000D01*
X100833333Y-73595238D01*
X100880952Y-73785714D01*
X100880952Y-74119047D01*
X100833333Y-74309523D01*
X100738095Y-74404761D01*
X100642857Y-74452380D01*
X100452380Y-74452380D01*
X100357142Y-74404761D01*
X100261904Y-74309523D01*
X100214285Y-74119047D01*
X100214285Y-73785714D01*
X100261904Y-73595238D01*
X100357142Y-73500000D01*
X100452380Y-73452380D01*
X101309523Y-74452380D02*
X101309523Y-73452380D01*
X101880952Y-74452380D01*
X101880952Y-73452380D01*
X102357142Y-74452380D02*
X102357142Y-73452380D01*
X102928571Y-74452380D01*
X102928571Y-73452380D01*
X108770000Y-164640595D02*
X108722380Y-164735833D01*
X108722380Y-164878690D01*
X108770000Y-165021547D01*
X108865238Y-165116785D01*
X108960476Y-165164404D01*
X109150952Y-165212023D01*
X109293809Y-165212023D01*
X109484285Y-165164404D01*
X109579523Y-165116785D01*
X109674761Y-165021547D01*
X109722380Y-164878690D01*
X109722380Y-164783452D01*
X109674761Y-164640595D01*
X109627142Y-164592976D01*
X109293809Y-164592976D01*
X109293809Y-164783452D01*
X109722380Y-164164404D02*
X108722380Y-164164404D01*
X108722380Y-163783452D01*
X108770000Y-163688214D01*
X108817619Y-163640595D01*
X108912857Y-163592976D01*
X109055714Y-163592976D01*
X109150952Y-163640595D01*
X109198571Y-163688214D01*
X109246190Y-163783452D01*
X109246190Y-164164404D01*
X109722380Y-163164404D02*
X108722380Y-163164404D01*
X108722380Y-162497738D02*
X108722380Y-162307261D01*
X108770000Y-162212023D01*
X108865238Y-162116785D01*
X109055714Y-162069166D01*
X109389047Y-162069166D01*
X109579523Y-162116785D01*
X109674761Y-162212023D01*
X109722380Y-162307261D01*
X109722380Y-162497738D01*
X109674761Y-162592976D01*
X109579523Y-162688214D01*
X109389047Y-162735833D01*
X109055714Y-162735833D01*
X108865238Y-162688214D01*
X108770000Y-162592976D01*
X108722380Y-162497738D01*
X108722380Y-161735833D02*
X108722380Y-161116785D01*
X109103333Y-161450119D01*
X109103333Y-161307261D01*
X109150952Y-161212023D01*
X109198571Y-161164404D01*
X109293809Y-161116785D01*
X109531904Y-161116785D01*
X109627142Y-161164404D01*
X109674761Y-161212023D01*
X109722380Y-161307261D01*
X109722380Y-161592976D01*
X109674761Y-161688214D01*
X109627142Y-161735833D01*
X137287976Y-130166666D02*
X137764166Y-130166666D01*
X137192738Y-130452380D02*
X137526071Y-129452380D01*
X137859404Y-130452380D01*
X138192738Y-130452380D02*
X138192738Y-129452380D01*
X138430833Y-129452380D01*
X138573690Y-129500000D01*
X138668928Y-129595238D01*
X138716547Y-129690476D01*
X138764166Y-129880952D01*
X138764166Y-130023809D01*
X138716547Y-130214285D01*
X138668928Y-130309523D01*
X138573690Y-130404761D01*
X138430833Y-130452380D01*
X138192738Y-130452380D01*
X108833333Y-96452380D02*
X109166666Y-97452380D01*
X109500000Y-96452380D01*
X110404761Y-97452380D02*
X110071428Y-96976190D01*
X109833333Y-97452380D02*
X109833333Y-96452380D01*
X110214285Y-96452380D01*
X110309523Y-96500000D01*
X110357142Y-96547619D01*
X110404761Y-96642857D01*
X110404761Y-96785714D01*
X110357142Y-96880952D01*
X110309523Y-96928571D01*
X110214285Y-96976190D01*
X109833333Y-96976190D01*
X110833333Y-96928571D02*
X111166666Y-96928571D01*
X111309523Y-97452380D02*
X110833333Y-97452380D01*
X110833333Y-96452380D01*
X111309523Y-96452380D01*
X112071428Y-96928571D02*
X111738095Y-96928571D01*
X111738095Y-97452380D02*
X111738095Y-96452380D01*
X112214285Y-96452380D01*
X112357142Y-97547619D02*
X113119047Y-97547619D01*
X113928571Y-97357142D02*
X113880952Y-97404761D01*
X113738095Y-97452380D01*
X113642857Y-97452380D01*
X113500000Y-97404761D01*
X113404761Y-97309523D01*
X113357142Y-97214285D01*
X113309523Y-97023809D01*
X113309523Y-96880952D01*
X113357142Y-96690476D01*
X113404761Y-96595238D01*
X113500000Y-96500000D01*
X113642857Y-96452380D01*
X113738095Y-96452380D01*
X113880952Y-96500000D01*
X113928571Y-96547619D01*
X114547619Y-96452380D02*
X114738095Y-96452380D01*
X114833333Y-96500000D01*
X114928571Y-96595238D01*
X114976190Y-96785714D01*
X114976190Y-97119047D01*
X114928571Y-97309523D01*
X114833333Y-97404761D01*
X114738095Y-97452380D01*
X114547619Y-97452380D01*
X114452380Y-97404761D01*
X114357142Y-97309523D01*
X114309523Y-97119047D01*
X114309523Y-96785714D01*
X114357142Y-96595238D01*
X114452380Y-96500000D01*
X114547619Y-96452380D01*
X115404761Y-97452380D02*
X115404761Y-96452380D01*
X115976190Y-97452380D01*
X115976190Y-96452380D01*
X116452380Y-97452380D02*
X116452380Y-96452380D01*
X117023809Y-97452380D01*
X117023809Y-96452380D01*
X136859404Y-79000000D02*
X136764166Y-78952380D01*
X136621309Y-78952380D01*
X136478452Y-79000000D01*
X136383214Y-79095238D01*
X136335595Y-79190476D01*
X136287976Y-79380952D01*
X136287976Y-79523809D01*
X136335595Y-79714285D01*
X136383214Y-79809523D01*
X136478452Y-79904761D01*
X136621309Y-79952380D01*
X136716547Y-79952380D01*
X136859404Y-79904761D01*
X136907023Y-79857142D01*
X136907023Y-79523809D01*
X136716547Y-79523809D01*
X137335595Y-79952380D02*
X137335595Y-78952380D01*
X137907023Y-79952380D01*
X137907023Y-78952380D01*
X138383214Y-79952380D02*
X138383214Y-78952380D01*
X138621309Y-78952380D01*
X138764166Y-79000000D01*
X138859404Y-79095238D01*
X138907023Y-79190476D01*
X138954642Y-79380952D01*
X138954642Y-79523809D01*
X138907023Y-79714285D01*
X138859404Y-79809523D01*
X138764166Y-79904761D01*
X138621309Y-79952380D01*
X138383214Y-79952380D01*
X139335595Y-79666666D02*
X139811785Y-79666666D01*
X139240357Y-79952380D02*
X139573690Y-78952380D01*
X139907023Y-79952380D01*
X119000000Y-164640595D02*
X118952380Y-164735833D01*
X118952380Y-164878690D01*
X119000000Y-165021547D01*
X119095238Y-165116785D01*
X119190476Y-165164404D01*
X119380952Y-165212023D01*
X119523809Y-165212023D01*
X119714285Y-165164404D01*
X119809523Y-165116785D01*
X119904761Y-165021547D01*
X119952380Y-164878690D01*
X119952380Y-164783452D01*
X119904761Y-164640595D01*
X119857142Y-164592976D01*
X119523809Y-164592976D01*
X119523809Y-164783452D01*
X119952380Y-164164404D02*
X118952380Y-164164404D01*
X119952380Y-163592976D01*
X118952380Y-163592976D01*
X119952380Y-163116785D02*
X118952380Y-163116785D01*
X118952380Y-162878690D01*
X119000000Y-162735833D01*
X119095238Y-162640595D01*
X119190476Y-162592976D01*
X119380952Y-162545357D01*
X119523809Y-162545357D01*
X119714285Y-162592976D01*
X119809523Y-162640595D01*
X119904761Y-162735833D01*
X119952380Y-162878690D01*
X119952380Y-163116785D01*
X119666666Y-162164404D02*
X119666666Y-161688214D01*
X119952380Y-162259642D02*
X118952380Y-161926309D01*
X119952380Y-161592976D01*
X111500000Y-164640595D02*
X111452380Y-164735833D01*
X111452380Y-164878690D01*
X111500000Y-165021547D01*
X111595238Y-165116785D01*
X111690476Y-165164404D01*
X111880952Y-165212023D01*
X112023809Y-165212023D01*
X112214285Y-165164404D01*
X112309523Y-165116785D01*
X112404761Y-165021547D01*
X112452380Y-164878690D01*
X112452380Y-164783452D01*
X112404761Y-164640595D01*
X112357142Y-164592976D01*
X112023809Y-164592976D01*
X112023809Y-164783452D01*
X112452380Y-164164404D02*
X111452380Y-164164404D01*
X111452380Y-163783452D01*
X111500000Y-163688214D01*
X111547619Y-163640595D01*
X111642857Y-163592976D01*
X111785714Y-163592976D01*
X111880952Y-163640595D01*
X111928571Y-163688214D01*
X111976190Y-163783452D01*
X111976190Y-164164404D01*
X112452380Y-163164404D02*
X111452380Y-163164404D01*
X111452380Y-162497738D02*
X111452380Y-162307261D01*
X111500000Y-162212023D01*
X111595238Y-162116785D01*
X111785714Y-162069166D01*
X112119047Y-162069166D01*
X112309523Y-162116785D01*
X112404761Y-162212023D01*
X112452380Y-162307261D01*
X112452380Y-162497738D01*
X112404761Y-162592976D01*
X112309523Y-162688214D01*
X112119047Y-162735833D01*
X111785714Y-162735833D01*
X111595238Y-162688214D01*
X111500000Y-162592976D01*
X111452380Y-162497738D01*
X111547619Y-161688214D02*
X111500000Y-161640595D01*
X111452380Y-161545357D01*
X111452380Y-161307261D01*
X111500000Y-161212023D01*
X111547619Y-161164404D01*
X111642857Y-161116785D01*
X111738095Y-161116785D01*
X111880952Y-161164404D01*
X112452380Y-161735833D01*
X112452380Y-161116785D01*
D12*
X100761904Y-139464761D02*
X100761904Y-141083809D01*
X100857142Y-141274285D01*
X100952380Y-141369523D01*
X101142857Y-141464761D01*
X101523809Y-141464761D01*
X101714285Y-141369523D01*
X101809523Y-141274285D01*
X101904761Y-141083809D01*
X101904761Y-139464761D01*
X102857142Y-140131428D02*
X102857142Y-141464761D01*
X102857142Y-140321904D02*
X102952380Y-140226666D01*
X103142857Y-140131428D01*
X103428571Y-140131428D01*
X103619047Y-140226666D01*
X103714285Y-140417142D01*
X103714285Y-141464761D01*
X104666666Y-141464761D02*
X104666666Y-140131428D01*
X104666666Y-139464761D02*
X104571428Y-139560000D01*
X104666666Y-139655238D01*
X104761904Y-139560000D01*
X104666666Y-139464761D01*
X104666666Y-139655238D01*
X105428571Y-140131428D02*
X105904761Y-141464761D01*
X106380952Y-140131428D01*
X107904761Y-141369523D02*
X107714285Y-141464761D01*
X107333333Y-141464761D01*
X107142857Y-141369523D01*
X107047619Y-141179047D01*
X107047619Y-140417142D01*
X107142857Y-140226666D01*
X107333333Y-140131428D01*
X107714285Y-140131428D01*
X107904761Y-140226666D01*
X108000000Y-140417142D01*
X108000000Y-140607619D01*
X107047619Y-140798095D01*
X108857142Y-141464761D02*
X108857142Y-140131428D01*
X108857142Y-140512380D02*
X108952380Y-140321904D01*
X109047619Y-140226666D01*
X109238095Y-140131428D01*
X109428571Y-140131428D01*
X110000000Y-141369523D02*
X110190476Y-141464761D01*
X110571428Y-141464761D01*
X110761904Y-141369523D01*
X110857142Y-141179047D01*
X110857142Y-141083809D01*
X110761904Y-140893333D01*
X110571428Y-140798095D01*
X110285714Y-140798095D01*
X110095238Y-140702857D01*
X110000000Y-140512380D01*
X110000000Y-140417142D01*
X110095238Y-140226666D01*
X110285714Y-140131428D01*
X110571428Y-140131428D01*
X110761904Y-140226666D01*
X111714285Y-141464761D02*
X111714285Y-140131428D01*
X111714285Y-139464761D02*
X111619047Y-139560000D01*
X111714285Y-139655238D01*
X111809523Y-139560000D01*
X111714285Y-139464761D01*
X111714285Y-139655238D01*
X112380952Y-140131428D02*
X113142857Y-140131428D01*
X112666666Y-139464761D02*
X112666666Y-141179047D01*
X112761904Y-141369523D01*
X112952380Y-141464761D01*
X113142857Y-141464761D01*
X113619047Y-140131428D02*
X114095238Y-141464761D01*
X114571428Y-140131428D02*
X114095238Y-141464761D01*
X113904761Y-141940952D01*
X113809523Y-142036190D01*
X113619047Y-142131428D01*
X117142857Y-141464761D02*
X116952380Y-141369523D01*
X116857142Y-141274285D01*
X116761904Y-141083809D01*
X116761904Y-140512380D01*
X116857142Y-140321904D01*
X116952380Y-140226666D01*
X117142857Y-140131428D01*
X117428571Y-140131428D01*
X117619047Y-140226666D01*
X117714285Y-140321904D01*
X117809523Y-140512380D01*
X117809523Y-141083809D01*
X117714285Y-141274285D01*
X117619047Y-141369523D01*
X117428571Y-141464761D01*
X117142857Y-141464761D01*
X118380952Y-140131428D02*
X119142857Y-140131428D01*
X118666666Y-141464761D02*
X118666666Y-139750476D01*
X118761904Y-139560000D01*
X118952380Y-139464761D01*
X119142857Y-139464761D01*
X121142857Y-139464761D02*
X121619047Y-141464761D01*
X122000000Y-140036190D01*
X122380952Y-141464761D01*
X122857142Y-139464761D01*
X124476190Y-141464761D02*
X124476190Y-140417142D01*
X124380952Y-140226666D01*
X124190476Y-140131428D01*
X123809523Y-140131428D01*
X123619047Y-140226666D01*
X124476190Y-141369523D02*
X124285714Y-141464761D01*
X123809523Y-141464761D01*
X123619047Y-141369523D01*
X123523809Y-141179047D01*
X123523809Y-140988571D01*
X123619047Y-140798095D01*
X123809523Y-140702857D01*
X124285714Y-140702857D01*
X124476190Y-140607619D01*
X125333333Y-141369523D02*
X125523809Y-141464761D01*
X125904761Y-141464761D01*
X126095238Y-141369523D01*
X126190476Y-141179047D01*
X126190476Y-141083809D01*
X126095238Y-140893333D01*
X125904761Y-140798095D01*
X125619047Y-140798095D01*
X125428571Y-140702857D01*
X125333333Y-140512380D01*
X125333333Y-140417142D01*
X125428571Y-140226666D01*
X125619047Y-140131428D01*
X125904761Y-140131428D01*
X126095238Y-140226666D01*
X127047619Y-141464761D02*
X127047619Y-139464761D01*
X127904761Y-141464761D02*
X127904761Y-140417142D01*
X127809523Y-140226666D01*
X127619047Y-140131428D01*
X127333333Y-140131428D01*
X127142857Y-140226666D01*
X127047619Y-140321904D01*
X128857142Y-141464761D02*
X128857142Y-140131428D01*
X128857142Y-139464761D02*
X128761904Y-139560000D01*
X128857142Y-139655238D01*
X128952380Y-139560000D01*
X128857142Y-139464761D01*
X128857142Y-139655238D01*
X129809523Y-140131428D02*
X129809523Y-141464761D01*
X129809523Y-140321904D02*
X129904761Y-140226666D01*
X130095238Y-140131428D01*
X130380952Y-140131428D01*
X130571428Y-140226666D01*
X130666666Y-140417142D01*
X130666666Y-141464761D01*
X132476190Y-140131428D02*
X132476190Y-141750476D01*
X132380952Y-141940952D01*
X132285714Y-142036190D01*
X132095238Y-142131428D01*
X131809523Y-142131428D01*
X131619047Y-142036190D01*
X132476190Y-141369523D02*
X132285714Y-141464761D01*
X131904761Y-141464761D01*
X131714285Y-141369523D01*
X131619047Y-141274285D01*
X131523809Y-141083809D01*
X131523809Y-140512380D01*
X131619047Y-140321904D01*
X131714285Y-140226666D01*
X131904761Y-140131428D01*
X132285714Y-140131428D01*
X132476190Y-140226666D01*
X133142857Y-140131428D02*
X133904761Y-140131428D01*
X133428571Y-139464761D02*
X133428571Y-141179047D01*
X133523809Y-141369523D01*
X133714285Y-141464761D01*
X133904761Y-141464761D01*
X134857142Y-141464761D02*
X134666666Y-141369523D01*
X134571428Y-141274285D01*
X134476190Y-141083809D01*
X134476190Y-140512380D01*
X134571428Y-140321904D01*
X134666666Y-140226666D01*
X134857142Y-140131428D01*
X135142857Y-140131428D01*
X135333333Y-140226666D01*
X135428571Y-140321904D01*
X135523809Y-140512380D01*
X135523809Y-141083809D01*
X135428571Y-141274285D01*
X135333333Y-141369523D01*
X135142857Y-141464761D01*
X134857142Y-141464761D01*
X136380952Y-140131428D02*
X136380952Y-141464761D01*
X136380952Y-140321904D02*
X136476190Y-140226666D01*
X136666666Y-140131428D01*
X136952380Y-140131428D01*
X137142857Y-140226666D01*
X137238095Y-140417142D01*
X137238095Y-141464761D01*
X98238095Y-143637142D02*
X98904761Y-143637142D01*
X99190476Y-144684761D02*
X98238095Y-144684761D01*
X98238095Y-142684761D01*
X99190476Y-142684761D01*
X100047619Y-143351428D02*
X100047619Y-144684761D01*
X100047619Y-143541904D02*
X100142857Y-143446666D01*
X100333333Y-143351428D01*
X100619047Y-143351428D01*
X100809523Y-143446666D01*
X100904761Y-143637142D01*
X100904761Y-144684761D01*
X102714285Y-143351428D02*
X102714285Y-144970476D01*
X102619047Y-145160952D01*
X102523809Y-145256190D01*
X102333333Y-145351428D01*
X102047619Y-145351428D01*
X101857142Y-145256190D01*
X102714285Y-144589523D02*
X102523809Y-144684761D01*
X102142857Y-144684761D01*
X101952380Y-144589523D01*
X101857142Y-144494285D01*
X101761904Y-144303809D01*
X101761904Y-143732380D01*
X101857142Y-143541904D01*
X101952380Y-143446666D01*
X102142857Y-143351428D01*
X102523809Y-143351428D01*
X102714285Y-143446666D01*
X103666666Y-144684761D02*
X103666666Y-143351428D01*
X103666666Y-142684761D02*
X103571428Y-142780000D01*
X103666666Y-142875238D01*
X103761904Y-142780000D01*
X103666666Y-142684761D01*
X103666666Y-142875238D01*
X104619047Y-143351428D02*
X104619047Y-144684761D01*
X104619047Y-143541904D02*
X104714285Y-143446666D01*
X104904761Y-143351428D01*
X105190476Y-143351428D01*
X105380952Y-143446666D01*
X105476190Y-143637142D01*
X105476190Y-144684761D01*
X107190476Y-144589523D02*
X107000000Y-144684761D01*
X106619047Y-144684761D01*
X106428571Y-144589523D01*
X106333333Y-144399047D01*
X106333333Y-143637142D01*
X106428571Y-143446666D01*
X106619047Y-143351428D01*
X107000000Y-143351428D01*
X107190476Y-143446666D01*
X107285714Y-143637142D01*
X107285714Y-143827619D01*
X106333333Y-144018095D01*
X109571428Y-142875238D02*
X109666666Y-142780000D01*
X109857142Y-142684761D01*
X110333333Y-142684761D01*
X110523809Y-142780000D01*
X110619047Y-142875238D01*
X110714285Y-143065714D01*
X110714285Y-143256190D01*
X110619047Y-143541904D01*
X109476190Y-144684761D01*
X110714285Y-144684761D01*
X111952380Y-142684761D02*
X112142857Y-142684761D01*
X112333333Y-142780000D01*
X112428571Y-142875238D01*
X112523809Y-143065714D01*
X112619047Y-143446666D01*
X112619047Y-143922857D01*
X112523809Y-144303809D01*
X112428571Y-144494285D01*
X112333333Y-144589523D01*
X112142857Y-144684761D01*
X111952380Y-144684761D01*
X111761904Y-144589523D01*
X111666666Y-144494285D01*
X111571428Y-144303809D01*
X111476190Y-143922857D01*
X111476190Y-143446666D01*
X111571428Y-143065714D01*
X111666666Y-142875238D01*
X111761904Y-142780000D01*
X111952380Y-142684761D01*
X113380952Y-142875238D02*
X113476190Y-142780000D01*
X113666666Y-142684761D01*
X114142857Y-142684761D01*
X114333333Y-142780000D01*
X114428571Y-142875238D01*
X114523809Y-143065714D01*
X114523809Y-143256190D01*
X114428571Y-143541904D01*
X113285714Y-144684761D01*
X114523809Y-144684761D01*
X115190476Y-142684761D02*
X116428571Y-142684761D01*
X115761904Y-143446666D01*
X116047619Y-143446666D01*
X116238095Y-143541904D01*
X116333333Y-143637142D01*
X116428571Y-143827619D01*
X116428571Y-144303809D01*
X116333333Y-144494285D01*
X116238095Y-144589523D01*
X116047619Y-144684761D01*
X115476190Y-144684761D01*
X115285714Y-144589523D01*
X115190476Y-144494285D01*
X118809523Y-143922857D02*
X120333333Y-143922857D01*
X123952380Y-144494285D02*
X123857142Y-144589523D01*
X123571428Y-144684761D01*
X123380952Y-144684761D01*
X123095238Y-144589523D01*
X122904761Y-144399047D01*
X122809523Y-144208571D01*
X122714285Y-143827619D01*
X122714285Y-143541904D01*
X122809523Y-143160952D01*
X122904761Y-142970476D01*
X123095238Y-142780000D01*
X123380952Y-142684761D01*
X123571428Y-142684761D01*
X123857142Y-142780000D01*
X123952380Y-142875238D01*
X124809523Y-144684761D02*
X124809523Y-142684761D01*
X125666666Y-144684761D02*
X125666666Y-143637142D01*
X125571428Y-143446666D01*
X125380952Y-143351428D01*
X125095238Y-143351428D01*
X124904761Y-143446666D01*
X124809523Y-143541904D01*
X127476190Y-144684761D02*
X127476190Y-143637142D01*
X127380952Y-143446666D01*
X127190476Y-143351428D01*
X126809523Y-143351428D01*
X126619047Y-143446666D01*
X127476190Y-144589523D02*
X127285714Y-144684761D01*
X126809523Y-144684761D01*
X126619047Y-144589523D01*
X126523809Y-144399047D01*
X126523809Y-144208571D01*
X126619047Y-144018095D01*
X126809523Y-143922857D01*
X127285714Y-143922857D01*
X127476190Y-143827619D01*
X128428571Y-144684761D02*
X128428571Y-143351428D01*
X128428571Y-143541904D02*
X128523809Y-143446666D01*
X128714285Y-143351428D01*
X129000000Y-143351428D01*
X129190476Y-143446666D01*
X129285714Y-143637142D01*
X129285714Y-144684761D01*
X129285714Y-143637142D02*
X129380952Y-143446666D01*
X129571428Y-143351428D01*
X129857142Y-143351428D01*
X130047619Y-143446666D01*
X130142857Y-143637142D01*
X130142857Y-144684761D01*
X131857142Y-144589523D02*
X131666666Y-144684761D01*
X131285714Y-144684761D01*
X131095238Y-144589523D01*
X131000000Y-144399047D01*
X131000000Y-143637142D01*
X131095238Y-143446666D01*
X131285714Y-143351428D01*
X131666666Y-143351428D01*
X131857142Y-143446666D01*
X131952380Y-143637142D01*
X131952380Y-143827619D01*
X131000000Y-144018095D01*
X133095238Y-144684761D02*
X132904761Y-144589523D01*
X132809523Y-144399047D01*
X132809523Y-142684761D01*
X134619047Y-144589523D02*
X134428571Y-144684761D01*
X134047619Y-144684761D01*
X133857142Y-144589523D01*
X133761904Y-144399047D01*
X133761904Y-143637142D01*
X133857142Y-143446666D01*
X134047619Y-143351428D01*
X134428571Y-143351428D01*
X134619047Y-143446666D01*
X134714285Y-143637142D01*
X134714285Y-143827619D01*
X133761904Y-144018095D01*
X135857142Y-144684761D02*
X135666666Y-144589523D01*
X135571428Y-144494285D01*
X135476190Y-144303809D01*
X135476190Y-143732380D01*
X135571428Y-143541904D01*
X135666666Y-143446666D01*
X135857142Y-143351428D01*
X136142857Y-143351428D01*
X136333333Y-143446666D01*
X136428571Y-143541904D01*
X136523809Y-143732380D01*
X136523809Y-144303809D01*
X136428571Y-144494285D01*
X136333333Y-144589523D01*
X136142857Y-144684761D01*
X135857142Y-144684761D01*
X137380952Y-143351428D02*
X137380952Y-144684761D01*
X137380952Y-143541904D02*
X137476190Y-143446666D01*
X137666666Y-143351428D01*
X137952380Y-143351428D01*
X138142857Y-143446666D01*
X138238095Y-143637142D01*
X138238095Y-144684761D01*
X103857142Y-150553333D02*
X104809523Y-150553333D01*
X103666666Y-151124761D02*
X104333333Y-149124761D01*
X105000000Y-151124761D01*
X105666666Y-151124761D02*
X105666666Y-149124761D01*
X106142857Y-149124761D01*
X106428571Y-149220000D01*
X106619047Y-149410476D01*
X106714285Y-149600952D01*
X106809523Y-149981904D01*
X106809523Y-150267619D01*
X106714285Y-150648571D01*
X106619047Y-150839047D01*
X106428571Y-151029523D01*
X106142857Y-151124761D01*
X105666666Y-151124761D01*
X108809523Y-150934285D02*
X108714285Y-151029523D01*
X108428571Y-151124761D01*
X108238095Y-151124761D01*
X107952380Y-151029523D01*
X107761904Y-150839047D01*
X107666666Y-150648571D01*
X107571428Y-150267619D01*
X107571428Y-149981904D01*
X107666666Y-149600952D01*
X107761904Y-149410476D01*
X107952380Y-149220000D01*
X108238095Y-149124761D01*
X108428571Y-149124761D01*
X108714285Y-149220000D01*
X108809523Y-149315238D01*
X111190476Y-150362857D02*
X112714285Y-150362857D01*
X115190476Y-151124761D02*
X115190476Y-149124761D01*
X115952380Y-149124761D01*
X116142857Y-149220000D01*
X116238095Y-149315238D01*
X116333333Y-149505714D01*
X116333333Y-149791428D01*
X116238095Y-149981904D01*
X116142857Y-150077142D01*
X115952380Y-150172380D01*
X115190476Y-150172380D01*
X118333333Y-150934285D02*
X118238095Y-151029523D01*
X117952380Y-151124761D01*
X117761904Y-151124761D01*
X117476190Y-151029523D01*
X117285714Y-150839047D01*
X117190476Y-150648571D01*
X117095238Y-150267619D01*
X117095238Y-149981904D01*
X117190476Y-149600952D01*
X117285714Y-149410476D01*
X117476190Y-149220000D01*
X117761904Y-149124761D01*
X117952380Y-149124761D01*
X118238095Y-149220000D01*
X118333333Y-149315238D01*
X119190476Y-151124761D02*
X119190476Y-149124761D01*
X119857142Y-150553333D01*
X120523809Y-149124761D01*
X120523809Y-151124761D01*
X122523809Y-151124761D02*
X121380952Y-151124761D01*
X121952380Y-151124761D02*
X121952380Y-149124761D01*
X121761904Y-149410476D01*
X121571428Y-149600952D01*
X121380952Y-149696190D01*
X123666666Y-149981904D02*
X123476190Y-149886666D01*
X123380952Y-149791428D01*
X123285714Y-149600952D01*
X123285714Y-149505714D01*
X123380952Y-149315238D01*
X123476190Y-149220000D01*
X123666666Y-149124761D01*
X124047619Y-149124761D01*
X124238095Y-149220000D01*
X124333333Y-149315238D01*
X124428571Y-149505714D01*
X124428571Y-149600952D01*
X124333333Y-149791428D01*
X124238095Y-149886666D01*
X124047619Y-149981904D01*
X123666666Y-149981904D01*
X123476190Y-150077142D01*
X123380952Y-150172380D01*
X123285714Y-150362857D01*
X123285714Y-150743809D01*
X123380952Y-150934285D01*
X123476190Y-151029523D01*
X123666666Y-151124761D01*
X124047619Y-151124761D01*
X124238095Y-151029523D01*
X124333333Y-150934285D01*
X124428571Y-150743809D01*
X124428571Y-150362857D01*
X124333333Y-150172380D01*
X124238095Y-150077142D01*
X124047619Y-149981904D01*
X126142857Y-149124761D02*
X125761904Y-149124761D01*
X125571428Y-149220000D01*
X125476190Y-149315238D01*
X125285714Y-149600952D01*
X125190476Y-149981904D01*
X125190476Y-150743809D01*
X125285714Y-150934285D01*
X125380952Y-151029523D01*
X125571428Y-151124761D01*
X125952380Y-151124761D01*
X126142857Y-151029523D01*
X126238095Y-150934285D01*
X126333333Y-150743809D01*
X126333333Y-150267619D01*
X126238095Y-150077142D01*
X126142857Y-149981904D01*
X125952380Y-149886666D01*
X125571428Y-149886666D01*
X125380952Y-149981904D01*
X125285714Y-150077142D01*
X125190476Y-150267619D01*
X127000000Y-149124761D02*
X128238095Y-149124761D01*
X127571428Y-149886666D01*
X127857142Y-149886666D01*
X128047619Y-149981904D01*
X128142857Y-150077142D01*
X128238095Y-150267619D01*
X128238095Y-150743809D01*
X128142857Y-150934285D01*
X128047619Y-151029523D01*
X127857142Y-151124761D01*
X127285714Y-151124761D01*
X127095238Y-151029523D01*
X127000000Y-150934285D01*
X130428571Y-149791428D02*
X130904761Y-151124761D01*
X131380952Y-149791428D01*
X132142857Y-150934285D02*
X132238095Y-151029523D01*
X132142857Y-151124761D01*
X132047619Y-151029523D01*
X132142857Y-150934285D01*
X132142857Y-151124761D01*
X134047619Y-149124761D02*
X133095238Y-149124761D01*
X132999999Y-150077142D01*
X133095238Y-149981904D01*
X133285714Y-149886666D01*
X133761904Y-149886666D01*
X133952380Y-149981904D01*
X134047619Y-150077142D01*
X134142857Y-150267619D01*
X134142857Y-150743809D01*
X134047619Y-150934285D01*
X133952380Y-151029523D01*
X133761904Y-151124761D01*
X133285714Y-151124761D01*
X133095238Y-151029523D01*
X132999999Y-150934285D01*
X106380952Y-153297142D02*
X105714285Y-153297142D01*
X105714285Y-154344761D02*
X105714285Y-152344761D01*
X106666666Y-152344761D01*
X107714285Y-154344761D02*
X107523809Y-154249523D01*
X107428571Y-154154285D01*
X107333333Y-153963809D01*
X107333333Y-153392380D01*
X107428571Y-153201904D01*
X107523809Y-153106666D01*
X107714285Y-153011428D01*
X108000000Y-153011428D01*
X108190476Y-153106666D01*
X108285714Y-153201904D01*
X108380952Y-153392380D01*
X108380952Y-153963809D01*
X108285714Y-154154285D01*
X108190476Y-154249523D01*
X108000000Y-154344761D01*
X107714285Y-154344761D01*
X109238095Y-154344761D02*
X109238095Y-153011428D01*
X109238095Y-153392380D02*
X109333333Y-153201904D01*
X109428571Y-153106666D01*
X109619047Y-153011428D01*
X109809523Y-153011428D01*
X111333333Y-154344761D02*
X111333333Y-152344761D01*
X111333333Y-154249523D02*
X111142857Y-154344761D01*
X110761904Y-154344761D01*
X110571428Y-154249523D01*
X110476190Y-154154285D01*
X110380952Y-153963809D01*
X110380952Y-153392380D01*
X110476190Y-153201904D01*
X110571428Y-153106666D01*
X110761904Y-153011428D01*
X111142857Y-153011428D01*
X111333333Y-153106666D01*
X114190476Y-152344761D02*
X114380952Y-152344761D01*
X114571428Y-152440000D01*
X114666666Y-152535238D01*
X114761904Y-152725714D01*
X114857142Y-153106666D01*
X114857142Y-153582857D01*
X114761904Y-153963809D01*
X114666666Y-154154285D01*
X114571428Y-154249523D01*
X114380952Y-154344761D01*
X114190476Y-154344761D01*
X114000000Y-154249523D01*
X113904761Y-154154285D01*
X113809523Y-153963809D01*
X113714285Y-153582857D01*
X113714285Y-153106666D01*
X113809523Y-152725714D01*
X113904761Y-152535238D01*
X114000000Y-152440000D01*
X114190476Y-152344761D01*
X115523809Y-152344761D02*
X116761904Y-152344761D01*
X116095238Y-153106666D01*
X116380952Y-153106666D01*
X116571428Y-153201904D01*
X116666666Y-153297142D01*
X116761904Y-153487619D01*
X116761904Y-153963809D01*
X116666666Y-154154285D01*
X116571428Y-154249523D01*
X116380952Y-154344761D01*
X115809523Y-154344761D01*
X115619047Y-154249523D01*
X115523809Y-154154285D01*
X119047619Y-152249523D02*
X117333333Y-154820952D01*
X120761904Y-154344761D02*
X119619047Y-154344761D01*
X120190476Y-154344761D02*
X120190476Y-152344761D01*
X120000000Y-152630476D01*
X119809523Y-152820952D01*
X119619047Y-152916190D01*
X121523809Y-152535238D02*
X121619047Y-152440000D01*
X121809523Y-152344761D01*
X122285714Y-152344761D01*
X122476190Y-152440000D01*
X122571428Y-152535238D01*
X122666666Y-152725714D01*
X122666666Y-152916190D01*
X122571428Y-153201904D01*
X121428571Y-154344761D01*
X122666666Y-154344761D01*
X124952380Y-152249523D02*
X123238095Y-154820952D01*
X125523809Y-152535238D02*
X125619047Y-152440000D01*
X125809523Y-152344761D01*
X126285714Y-152344761D01*
X126476190Y-152440000D01*
X126571428Y-152535238D01*
X126666666Y-152725714D01*
X126666666Y-152916190D01*
X126571428Y-153201904D01*
X125428571Y-154344761D01*
X126666666Y-154344761D01*
X127904761Y-152344761D02*
X128095238Y-152344761D01*
X128285714Y-152440000D01*
X128380952Y-152535238D01*
X128476190Y-152725714D01*
X128571428Y-153106666D01*
X128571428Y-153582857D01*
X128476190Y-153963809D01*
X128380952Y-154154285D01*
X128285714Y-154249523D01*
X128095238Y-154344761D01*
X127904761Y-154344761D01*
X127714285Y-154249523D01*
X127619047Y-154154285D01*
X127523809Y-153963809D01*
X127428571Y-153582857D01*
X127428571Y-153106666D01*
X127523809Y-152725714D01*
X127619047Y-152535238D01*
X127714285Y-152440000D01*
X127904761Y-152344761D01*
X129333333Y-152535238D02*
X129428571Y-152440000D01*
X129619047Y-152344761D01*
X130095238Y-152344761D01*
X130285714Y-152440000D01*
X130380952Y-152535238D01*
X130476190Y-152725714D01*
X130476190Y-152916190D01*
X130380952Y-153201904D01*
X129238095Y-154344761D01*
X130476190Y-154344761D01*
X131142857Y-152344761D02*
X132380952Y-152344761D01*
X131714285Y-153106666D01*
X132000000Y-153106666D01*
X132190476Y-153201904D01*
X132285714Y-153297142D01*
X132380952Y-153487619D01*
X132380952Y-153963809D01*
X132285714Y-154154285D01*
X132190476Y-154249523D01*
X132000000Y-154344761D01*
X131428571Y-154344761D01*
X131238095Y-154249523D01*
X131142857Y-154154285D01*
D10*
X136240357Y-84452380D02*
X136907023Y-85452380D01*
X136907023Y-84452380D02*
X136240357Y-85452380D01*
X137478452Y-84452380D02*
X137668928Y-84452380D01*
X137764166Y-84500000D01*
X137859404Y-84595238D01*
X137907023Y-84785714D01*
X137907023Y-85119047D01*
X137859404Y-85309523D01*
X137764166Y-85404761D01*
X137668928Y-85452380D01*
X137478452Y-85452380D01*
X137383214Y-85404761D01*
X137287976Y-85309523D01*
X137240357Y-85119047D01*
X137240357Y-84785714D01*
X137287976Y-84595238D01*
X137383214Y-84500000D01*
X137478452Y-84452380D01*
X137335595Y-117952380D02*
X137335595Y-116952380D01*
X137811785Y-117952380D02*
X137811785Y-116952380D01*
X138383214Y-117952380D01*
X138383214Y-116952380D01*
X139383214Y-117952380D02*
X138811785Y-117952380D01*
X139097500Y-117952380D02*
X139097500Y-116952380D01*
X139002261Y-117095238D01*
X138907023Y-117190476D01*
X138811785Y-117238095D01*
X137335595Y-127952380D02*
X137335595Y-126952380D01*
X137668928Y-127666666D01*
X138002261Y-126952380D01*
X138002261Y-127952380D01*
X138478452Y-127952380D02*
X138478452Y-126952380D01*
X138716547Y-126952380D01*
X138859404Y-127000000D01*
X138954642Y-127095238D01*
X139002261Y-127190476D01*
X139049880Y-127380952D01*
X139049880Y-127523809D01*
X139002261Y-127714285D01*
X138954642Y-127809523D01*
X138859404Y-127904761D01*
X138716547Y-127952380D01*
X138478452Y-127952380D01*
X139668928Y-126952380D02*
X139764166Y-126952380D01*
X139859404Y-127000000D01*
X139907023Y-127047619D01*
X139954642Y-127142857D01*
X140002261Y-127333333D01*
X140002261Y-127571428D01*
X139954642Y-127761904D01*
X139907023Y-127857142D01*
X139859404Y-127904761D01*
X139764166Y-127952380D01*
X139668928Y-127952380D01*
X139573690Y-127904761D01*
X139526071Y-127857142D01*
X139478452Y-127761904D01*
X139430833Y-127571428D01*
X139430833Y-127333333D01*
X139478452Y-127142857D01*
X139526071Y-127047619D01*
X139573690Y-127000000D01*
X139668928Y-126952380D01*
X103928571Y-164831071D02*
X103976190Y-164688214D01*
X104023809Y-164640595D01*
X104119047Y-164592976D01*
X104261904Y-164592976D01*
X104357142Y-164640595D01*
X104404761Y-164688214D01*
X104452380Y-164783452D01*
X104452380Y-165164404D01*
X103452380Y-165164404D01*
X103452380Y-164831071D01*
X103500000Y-164735833D01*
X103547619Y-164688214D01*
X103642857Y-164640595D01*
X103738095Y-164640595D01*
X103833333Y-164688214D01*
X103880952Y-164735833D01*
X103928571Y-164831071D01*
X103928571Y-165164404D01*
X104357142Y-163592976D02*
X104404761Y-163640595D01*
X104452380Y-163783452D01*
X104452380Y-163878690D01*
X104404761Y-164021547D01*
X104309523Y-164116785D01*
X104214285Y-164164404D01*
X104023809Y-164212023D01*
X103880952Y-164212023D01*
X103690476Y-164164404D01*
X103595238Y-164116785D01*
X103500000Y-164021547D01*
X103452380Y-163878690D01*
X103452380Y-163783452D01*
X103500000Y-163640595D01*
X103547619Y-163592976D01*
X104452380Y-163164404D02*
X103452380Y-163164404D01*
X104452380Y-162592976D02*
X103880952Y-163021547D01*
X103452380Y-162592976D02*
X104023809Y-163164404D01*
X118785714Y-66452380D02*
X119452380Y-67452380D01*
X119452380Y-66452380D02*
X118785714Y-67452380D01*
X120023809Y-66452380D02*
X120214285Y-66452380D01*
X120309523Y-66500000D01*
X120404761Y-66595238D01*
X120452380Y-66785714D01*
X120452380Y-67119047D01*
X120404761Y-67309523D01*
X120309523Y-67404761D01*
X120214285Y-67452380D01*
X120023809Y-67452380D01*
X119928571Y-67404761D01*
X119833333Y-67309523D01*
X119785714Y-67119047D01*
X119785714Y-66785714D01*
X119833333Y-66595238D01*
X119928571Y-66500000D01*
X120023809Y-66452380D01*
X120642857Y-67547619D02*
X121404761Y-67547619D01*
X121642857Y-66928571D02*
X121976190Y-66928571D01*
X122119047Y-67452380D02*
X121642857Y-67452380D01*
X121642857Y-66452380D01*
X122119047Y-66452380D01*
X122547619Y-67452380D02*
X122547619Y-66452380D01*
X123119047Y-67452380D01*
X123119047Y-66452380D01*
X139071428Y-109857142D02*
X139071428Y-109095238D01*
X139452380Y-109476190D02*
X138690476Y-109476190D01*
X138452380Y-108714285D02*
X138452380Y-108095238D01*
X138833333Y-108428571D01*
X138833333Y-108285714D01*
X138880952Y-108190476D01*
X138928571Y-108142857D01*
X139023809Y-108095238D01*
X139261904Y-108095238D01*
X139357142Y-108142857D01*
X139404761Y-108190476D01*
X139452380Y-108285714D01*
X139452380Y-108571428D01*
X139404761Y-108666666D01*
X139357142Y-108714285D01*
X139357142Y-107666666D02*
X139404761Y-107619047D01*
X139452380Y-107666666D01*
X139404761Y-107714285D01*
X139357142Y-107666666D01*
X139452380Y-107666666D01*
X138452380Y-107285714D02*
X138452380Y-106666666D01*
X138833333Y-107000000D01*
X138833333Y-106857142D01*
X138880952Y-106761904D01*
X138928571Y-106714285D01*
X139023809Y-106666666D01*
X139261904Y-106666666D01*
X139357142Y-106714285D01*
X139404761Y-106761904D01*
X139452380Y-106857142D01*
X139452380Y-107142857D01*
X139404761Y-107238095D01*
X139357142Y-107285714D01*
X138452380Y-106380952D02*
X139452380Y-106047619D01*
X138452380Y-105714285D01*
X139166666Y-105428571D02*
X139166666Y-104952380D01*
X139452380Y-105523809D02*
X138452380Y-105190476D01*
X139452380Y-104857142D01*
X139547619Y-104761904D02*
X139547619Y-104000000D01*
X138452380Y-103571428D02*
X138452380Y-103380952D01*
X138500000Y-103285714D01*
X138595238Y-103190476D01*
X138785714Y-103142857D01*
X139119047Y-103142857D01*
X139309523Y-103190476D01*
X139404761Y-103285714D01*
X139452380Y-103380952D01*
X139452380Y-103571428D01*
X139404761Y-103666666D01*
X139309523Y-103761904D01*
X139119047Y-103809523D01*
X138785714Y-103809523D01*
X138595238Y-103761904D01*
X138500000Y-103666666D01*
X138452380Y-103571428D01*
X139452380Y-102714285D02*
X138452380Y-102714285D01*
X139452380Y-102142857D01*
X138452380Y-102142857D01*
X136859404Y-64000000D02*
X136764166Y-63952380D01*
X136621309Y-63952380D01*
X136478452Y-64000000D01*
X136383214Y-64095238D01*
X136335595Y-64190476D01*
X136287976Y-64380952D01*
X136287976Y-64523809D01*
X136335595Y-64714285D01*
X136383214Y-64809523D01*
X136478452Y-64904761D01*
X136621309Y-64952380D01*
X136716547Y-64952380D01*
X136859404Y-64904761D01*
X136907023Y-64857142D01*
X136907023Y-64523809D01*
X136716547Y-64523809D01*
X137335595Y-64952380D02*
X137335595Y-63952380D01*
X137907023Y-64952380D01*
X137907023Y-63952380D01*
X138383214Y-64952380D02*
X138383214Y-63952380D01*
X138621309Y-63952380D01*
X138764166Y-64000000D01*
X138859404Y-64095238D01*
X138907023Y-64190476D01*
X138954642Y-64380952D01*
X138954642Y-64523809D01*
X138907023Y-64714285D01*
X138859404Y-64809523D01*
X138764166Y-64904761D01*
X138621309Y-64952380D01*
X138383214Y-64952380D01*
X139335595Y-64666666D02*
X139811785Y-64666666D01*
X139240357Y-64952380D02*
X139573690Y-63952380D01*
X139907023Y-64952380D01*
X113690476Y-90452380D02*
X114357142Y-91452380D01*
X114357142Y-90452380D02*
X113690476Y-91452380D01*
X114928571Y-90452380D02*
X115119047Y-90452380D01*
X115214285Y-90500000D01*
X115309523Y-90595238D01*
X115357142Y-90785714D01*
X115357142Y-91119047D01*
X115309523Y-91309523D01*
X115214285Y-91404761D01*
X115119047Y-91452380D01*
X114928571Y-91452380D01*
X114833333Y-91404761D01*
X114738095Y-91309523D01*
X114690476Y-91119047D01*
X114690476Y-90785714D01*
X114738095Y-90595238D01*
X114833333Y-90500000D01*
X114928571Y-90452380D01*
X115547619Y-91547619D02*
X116309523Y-91547619D01*
X117119047Y-91357142D02*
X117071428Y-91404761D01*
X116928571Y-91452380D01*
X116833333Y-91452380D01*
X116690476Y-91404761D01*
X116595238Y-91309523D01*
X116547619Y-91214285D01*
X116500000Y-91023809D01*
X116500000Y-90880952D01*
X116547619Y-90690476D01*
X116595238Y-90595238D01*
X116690476Y-90500000D01*
X116833333Y-90452380D01*
X116928571Y-90452380D01*
X117071428Y-90500000D01*
X117119047Y-90547619D01*
X117738095Y-90452380D02*
X117928571Y-90452380D01*
X118023809Y-90500000D01*
X118119047Y-90595238D01*
X118166666Y-90785714D01*
X118166666Y-91119047D01*
X118119047Y-91309523D01*
X118023809Y-91404761D01*
X117928571Y-91452380D01*
X117738095Y-91452380D01*
X117642857Y-91404761D01*
X117547619Y-91309523D01*
X117500000Y-91119047D01*
X117500000Y-90785714D01*
X117547619Y-90595238D01*
X117642857Y-90500000D01*
X117738095Y-90452380D01*
X118595238Y-91452380D02*
X118595238Y-90452380D01*
X119166666Y-91452380D01*
X119166666Y-90452380D01*
X119642857Y-91452380D02*
X119642857Y-90452380D01*
X120214285Y-91452380D01*
X120214285Y-90452380D01*
X136526071Y-61452380D02*
X136716547Y-61452380D01*
X136811785Y-61500000D01*
X136907023Y-61595238D01*
X136954642Y-61785714D01*
X136954642Y-62119047D01*
X136907023Y-62309523D01*
X136811785Y-62404761D01*
X136716547Y-62452380D01*
X136526071Y-62452380D01*
X136430833Y-62404761D01*
X136335595Y-62309523D01*
X136287976Y-62119047D01*
X136287976Y-61785714D01*
X136335595Y-61595238D01*
X136430833Y-61500000D01*
X136526071Y-61452380D01*
X137335595Y-62404761D02*
X137478452Y-62452380D01*
X137716547Y-62452380D01*
X137811785Y-62404761D01*
X137859404Y-62357142D01*
X137907023Y-62261904D01*
X137907023Y-62166666D01*
X137859404Y-62071428D01*
X137811785Y-62023809D01*
X137716547Y-61976190D01*
X137526071Y-61928571D01*
X137430833Y-61880952D01*
X137383214Y-61833333D01*
X137335595Y-61738095D01*
X137335595Y-61642857D01*
X137383214Y-61547619D01*
X137430833Y-61500000D01*
X137526071Y-61452380D01*
X137764166Y-61452380D01*
X137907023Y-61500000D01*
X138907023Y-62357142D02*
X138859404Y-62404761D01*
X138716547Y-62452380D01*
X138621309Y-62452380D01*
X138478452Y-62404761D01*
X138383214Y-62309523D01*
X138335595Y-62214285D01*
X138287976Y-62023809D01*
X138287976Y-61880952D01*
X138335595Y-61690476D01*
X138383214Y-61595238D01*
X138478452Y-61500000D01*
X138621309Y-61452380D01*
X138716547Y-61452380D01*
X138859404Y-61500000D01*
X138907023Y-61547619D01*
X106952380Y-165164404D02*
X105952380Y-165164404D01*
X105952380Y-164926309D01*
X106000000Y-164783452D01*
X106095238Y-164688214D01*
X106190476Y-164640595D01*
X106380952Y-164592976D01*
X106523809Y-164592976D01*
X106714285Y-164640595D01*
X106809523Y-164688214D01*
X106904761Y-164783452D01*
X106952380Y-164926309D01*
X106952380Y-165164404D01*
X105952380Y-163973928D02*
X105952380Y-163783452D01*
X106000000Y-163688214D01*
X106095238Y-163592976D01*
X106285714Y-163545357D01*
X106619047Y-163545357D01*
X106809523Y-163592976D01*
X106904761Y-163688214D01*
X106952380Y-163783452D01*
X106952380Y-163973928D01*
X106904761Y-164069166D01*
X106809523Y-164164404D01*
X106619047Y-164212023D01*
X106285714Y-164212023D01*
X106095238Y-164164404D01*
X106000000Y-164069166D01*
X105952380Y-163973928D01*
X105952380Y-163116785D02*
X106761904Y-163116785D01*
X106857142Y-163069166D01*
X106904761Y-163021547D01*
X106952380Y-162926309D01*
X106952380Y-162735833D01*
X106904761Y-162640595D01*
X106857142Y-162592976D01*
X106761904Y-162545357D01*
X105952380Y-162545357D01*
X105952380Y-162212023D02*
X105952380Y-161640595D01*
X106952380Y-161926309D02*
X105952380Y-161926309D01*
X137287976Y-132904761D02*
X137430833Y-132952380D01*
X137668928Y-132952380D01*
X137764166Y-132904761D01*
X137811785Y-132857142D01*
X137859404Y-132761904D01*
X137859404Y-132666666D01*
X137811785Y-132571428D01*
X137764166Y-132523809D01*
X137668928Y-132476190D01*
X137478452Y-132428571D01*
X137383214Y-132380952D01*
X137335595Y-132333333D01*
X137287976Y-132238095D01*
X137287976Y-132142857D01*
X137335595Y-132047619D01*
X137383214Y-132000000D01*
X137478452Y-131952380D01*
X137716547Y-131952380D01*
X137859404Y-132000000D01*
X138859404Y-132857142D02*
X138811785Y-132904761D01*
X138668928Y-132952380D01*
X138573690Y-132952380D01*
X138430833Y-132904761D01*
X138335595Y-132809523D01*
X138287976Y-132714285D01*
X138240357Y-132523809D01*
X138240357Y-132380952D01*
X138287976Y-132190476D01*
X138335595Y-132095238D01*
X138430833Y-132000000D01*
X138573690Y-131952380D01*
X138668928Y-131952380D01*
X138811785Y-132000000D01*
X138859404Y-132047619D01*
X139764166Y-132952380D02*
X139287976Y-132952380D01*
X139287976Y-131952380D01*
X99404761Y-165212023D02*
X99452380Y-165069166D01*
X99452380Y-164831071D01*
X99404761Y-164735833D01*
X99357142Y-164688214D01*
X99261904Y-164640595D01*
X99166666Y-164640595D01*
X99071428Y-164688214D01*
X99023809Y-164735833D01*
X98976190Y-164831071D01*
X98928571Y-165021547D01*
X98880952Y-165116785D01*
X98833333Y-165164404D01*
X98738095Y-165212023D01*
X98642857Y-165212023D01*
X98547619Y-165164404D01*
X98500000Y-165116785D01*
X98452380Y-165021547D01*
X98452380Y-164783452D01*
X98500000Y-164640595D01*
X99357142Y-163640595D02*
X99404761Y-163688214D01*
X99452380Y-163831071D01*
X99452380Y-163926309D01*
X99404761Y-164069166D01*
X99309523Y-164164404D01*
X99214285Y-164212023D01*
X99023809Y-164259642D01*
X98880952Y-164259642D01*
X98690476Y-164212023D01*
X98595238Y-164164404D01*
X98500000Y-164069166D01*
X98452380Y-163926309D01*
X98452380Y-163831071D01*
X98500000Y-163688214D01*
X98547619Y-163640595D01*
X99452380Y-163212023D02*
X98452380Y-163212023D01*
X99452380Y-162640595D02*
X98880952Y-163069166D01*
X98452380Y-162640595D02*
X99023809Y-163212023D01*
X99452380Y-162212023D02*
X98452380Y-162212023D01*
X99833333Y-161450119D02*
X99785714Y-161497738D01*
X99642857Y-161592976D01*
X99547619Y-161640595D01*
X99404761Y-161688214D01*
X99166666Y-161735833D01*
X98976190Y-161735833D01*
X98738095Y-161688214D01*
X98595238Y-161640595D01*
X98500000Y-161592976D01*
X98357142Y-161497738D01*
X98309523Y-161450119D01*
X98452380Y-161164404D02*
X98452380Y-160545357D01*
X98833333Y-160878690D01*
X98833333Y-160735833D01*
X98880952Y-160640595D01*
X98928571Y-160592976D01*
X99023809Y-160545357D01*
X99261904Y-160545357D01*
X99357142Y-160592976D01*
X99404761Y-160640595D01*
X99452380Y-160735833D01*
X99452380Y-161021547D01*
X99404761Y-161116785D01*
X99357142Y-161164404D01*
X99357142Y-160116785D02*
X99404761Y-160069166D01*
X99452380Y-160116785D01*
X99404761Y-160164404D01*
X99357142Y-160116785D01*
X99452380Y-160116785D01*
X98452380Y-159735833D02*
X98452380Y-159116785D01*
X98833333Y-159450119D01*
X98833333Y-159307261D01*
X98880952Y-159212023D01*
X98928571Y-159164404D01*
X99023809Y-159116785D01*
X99261904Y-159116785D01*
X99357142Y-159164404D01*
X99404761Y-159212023D01*
X99452380Y-159307261D01*
X99452380Y-159592976D01*
X99404761Y-159688214D01*
X99357142Y-159735833D01*
X98452380Y-158831071D02*
X99452380Y-158497738D01*
X98452380Y-158164404D01*
X99833333Y-157926309D02*
X99785714Y-157878690D01*
X99642857Y-157783452D01*
X99547619Y-157735833D01*
X99404761Y-157688214D01*
X99166666Y-157640595D01*
X98976190Y-157640595D01*
X98738095Y-157688214D01*
X98595238Y-157735833D01*
X98500000Y-157783452D01*
X98357142Y-157878690D01*
X98309523Y-157926309D01*
X135776071Y-72071428D02*
X136347500Y-72071428D01*
X136061785Y-72452380D02*
X136061785Y-71690476D01*
X136633214Y-71452380D02*
X137097500Y-71452380D01*
X136847500Y-71833333D01*
X136954642Y-71833333D01*
X137026071Y-71880952D01*
X137061785Y-71928571D01*
X137097500Y-72023809D01*
X137097500Y-72261904D01*
X137061785Y-72357142D01*
X137026071Y-72404761D01*
X136954642Y-72452380D01*
X136740357Y-72452380D01*
X136668928Y-72404761D01*
X136633214Y-72357142D01*
X137418928Y-72357142D02*
X137454642Y-72404761D01*
X137418928Y-72452380D01*
X137383214Y-72404761D01*
X137418928Y-72357142D01*
X137418928Y-72452380D01*
X137704642Y-71452380D02*
X138168928Y-71452380D01*
X137918928Y-71833333D01*
X138026071Y-71833333D01*
X138097500Y-71880952D01*
X138133214Y-71928571D01*
X138168928Y-72023809D01*
X138168928Y-72261904D01*
X138133214Y-72357142D01*
X138097500Y-72404761D01*
X138026071Y-72452380D01*
X137811785Y-72452380D01*
X137740357Y-72404761D01*
X137704642Y-72357142D01*
X138383214Y-71452380D02*
X138633214Y-72452380D01*
X138883214Y-71452380D01*
X139097500Y-72166666D02*
X139454642Y-72166666D01*
X139026071Y-72452380D02*
X139276071Y-71452380D01*
X139526071Y-72452380D01*
X137165595Y-125257380D02*
X137165595Y-124257380D01*
X137641785Y-125257380D02*
X137641785Y-124257380D01*
X138213214Y-125257380D01*
X138213214Y-124257380D01*
X139117976Y-124590714D02*
X139117976Y-125257380D01*
X138879880Y-124209761D02*
X138641785Y-124924047D01*
X139260833Y-124924047D01*
X86071428Y-152071428D02*
X86833333Y-152071428D01*
X86452380Y-152452380D02*
X86452380Y-151690476D01*
X87214285Y-151452380D02*
X87833333Y-151452380D01*
X87500000Y-151833333D01*
X87642857Y-151833333D01*
X87738095Y-151880952D01*
X87785714Y-151928571D01*
X87833333Y-152023809D01*
X87833333Y-152261904D01*
X87785714Y-152357142D01*
X87738095Y-152404761D01*
X87642857Y-152452380D01*
X87357142Y-152452380D01*
X87261904Y-152404761D01*
X87214285Y-152357142D01*
X88261904Y-152357142D02*
X88309523Y-152404761D01*
X88261904Y-152452380D01*
X88214285Y-152404761D01*
X88261904Y-152357142D01*
X88261904Y-152452380D01*
X88642857Y-151452380D02*
X89261904Y-151452380D01*
X88928571Y-151833333D01*
X89071428Y-151833333D01*
X89166666Y-151880952D01*
X89214285Y-151928571D01*
X89261904Y-152023809D01*
X89261904Y-152261904D01*
X89214285Y-152357142D01*
X89166666Y-152404761D01*
X89071428Y-152452380D01*
X88785714Y-152452380D01*
X88690476Y-152404761D01*
X88642857Y-152357142D01*
X89547619Y-151452380D02*
X89880952Y-152452380D01*
X90214285Y-151452380D01*
X90309523Y-152547619D02*
X91071428Y-152547619D01*
X91500000Y-151452380D02*
X91690476Y-151452380D01*
X91785714Y-151500000D01*
X91880952Y-151595238D01*
X91928571Y-151785714D01*
X91928571Y-152119047D01*
X91880952Y-152309523D01*
X91785714Y-152404761D01*
X91690476Y-152452380D01*
X91500000Y-152452380D01*
X91404761Y-152404761D01*
X91309523Y-152309523D01*
X91261904Y-152119047D01*
X91261904Y-151785714D01*
X91309523Y-151595238D01*
X91404761Y-151500000D01*
X91500000Y-151452380D01*
X92357142Y-152452380D02*
X92357142Y-151452380D01*
X92928571Y-152452380D01*
X92928571Y-151452380D01*
X127571428Y-101071428D02*
X128333333Y-101071428D01*
X127952380Y-101452380D02*
X127952380Y-100690476D01*
X128714285Y-100452380D02*
X129333333Y-100452380D01*
X129000000Y-100833333D01*
X129142857Y-100833333D01*
X129238095Y-100880952D01*
X129285714Y-100928571D01*
X129333333Y-101023809D01*
X129333333Y-101261904D01*
X129285714Y-101357142D01*
X129238095Y-101404761D01*
X129142857Y-101452380D01*
X128857142Y-101452380D01*
X128761904Y-101404761D01*
X128714285Y-101357142D01*
X129761904Y-101357142D02*
X129809523Y-101404761D01*
X129761904Y-101452380D01*
X129714285Y-101404761D01*
X129761904Y-101357142D01*
X129761904Y-101452380D01*
X130142857Y-100452380D02*
X130761904Y-100452380D01*
X130428571Y-100833333D01*
X130571428Y-100833333D01*
X130666666Y-100880952D01*
X130714285Y-100928571D01*
X130761904Y-101023809D01*
X130761904Y-101261904D01*
X130714285Y-101357142D01*
X130666666Y-101404761D01*
X130571428Y-101452380D01*
X130285714Y-101452380D01*
X130190476Y-101404761D01*
X130142857Y-101357142D01*
X131047619Y-100452380D02*
X131380952Y-101452380D01*
X131714285Y-100452380D01*
X132000000Y-101166666D02*
X132476190Y-101166666D01*
X131904761Y-101452380D02*
X132238095Y-100452380D01*
X132571428Y-101452380D01*
X137168928Y-114452380D02*
X137418928Y-115452380D01*
X137668928Y-114452380D01*
X138347500Y-115452380D02*
X138097500Y-114976190D01*
X137918928Y-115452380D02*
X137918928Y-114452380D01*
X138204642Y-114452380D01*
X138276071Y-114500000D01*
X138311785Y-114547619D01*
X138347500Y-114642857D01*
X138347500Y-114785714D01*
X138311785Y-114880952D01*
X138276071Y-114928571D01*
X138204642Y-114976190D01*
X137918928Y-114976190D01*
X138668928Y-114928571D02*
X138918928Y-114928571D01*
X139026071Y-115452380D02*
X138668928Y-115452380D01*
X138668928Y-114452380D01*
X139026071Y-114452380D01*
X139597500Y-114928571D02*
X139347500Y-114928571D01*
X139347500Y-115452380D02*
X139347500Y-114452380D01*
X139704642Y-114452380D01*
X97238095Y-54047619D02*
X97285714Y-54000000D01*
X97380952Y-53952380D01*
X97619047Y-53952380D01*
X97714285Y-54000000D01*
X97761904Y-54047619D01*
X97809523Y-54142857D01*
X97809523Y-54238095D01*
X97761904Y-54380952D01*
X97190476Y-54952380D01*
X97809523Y-54952380D01*
X98190476Y-54047619D02*
X98238095Y-54000000D01*
X98333333Y-53952380D01*
X98571428Y-53952380D01*
X98666666Y-54000000D01*
X98714285Y-54047619D01*
X98761904Y-54142857D01*
X98761904Y-54238095D01*
X98714285Y-54380952D01*
X98142857Y-54952380D01*
X98761904Y-54952380D01*
X99190476Y-54952380D02*
X99190476Y-53952380D01*
X99523809Y-54666666D01*
X99857142Y-53952380D01*
X99857142Y-54952380D01*
X100333333Y-54952380D02*
X100333333Y-53952380D01*
X100333333Y-54428571D02*
X100904761Y-54428571D01*
X100904761Y-54952380D02*
X100904761Y-53952380D01*
X101285714Y-54285714D02*
X101809523Y-54285714D01*
X101285714Y-54952380D01*
X101809523Y-54952380D01*
X126190476Y-72666666D02*
X126666666Y-72666666D01*
X126095238Y-72952380D02*
X126428571Y-71952380D01*
X126761904Y-72952380D01*
X127095238Y-72285714D02*
X127095238Y-72952380D01*
X127095238Y-72380952D02*
X127142857Y-72333333D01*
X127238095Y-72285714D01*
X127380952Y-72285714D01*
X127476190Y-72333333D01*
X127523809Y-72428571D01*
X127523809Y-72952380D01*
X128428571Y-72952380D02*
X128428571Y-72428571D01*
X128380952Y-72333333D01*
X128285714Y-72285714D01*
X128095238Y-72285714D01*
X128000000Y-72333333D01*
X128428571Y-72904761D02*
X128333333Y-72952380D01*
X128095238Y-72952380D01*
X128000000Y-72904761D01*
X127952380Y-72809523D01*
X127952380Y-72714285D01*
X128000000Y-72619047D01*
X128095238Y-72571428D01*
X128333333Y-72571428D01*
X128428571Y-72523809D01*
X129047619Y-72952380D02*
X128952380Y-72904761D01*
X128904761Y-72809523D01*
X128904761Y-71952380D01*
X129571428Y-72952380D02*
X129476190Y-72904761D01*
X129428571Y-72857142D01*
X129380952Y-72761904D01*
X129380952Y-72476190D01*
X129428571Y-72380952D01*
X129476190Y-72333333D01*
X129571428Y-72285714D01*
X129714285Y-72285714D01*
X129809523Y-72333333D01*
X129857142Y-72380952D01*
X129904761Y-72476190D01*
X129904761Y-72761904D01*
X129857142Y-72857142D01*
X129809523Y-72904761D01*
X129714285Y-72952380D01*
X129571428Y-72952380D01*
X130761904Y-72285714D02*
X130761904Y-73095238D01*
X130714285Y-73190476D01*
X130666666Y-73238095D01*
X130571428Y-73285714D01*
X130428571Y-73285714D01*
X130333333Y-73238095D01*
X130761904Y-72904761D02*
X130666666Y-72952380D01*
X130476190Y-72952380D01*
X130380952Y-72904761D01*
X130333333Y-72857142D01*
X130285714Y-72761904D01*
X130285714Y-72476190D01*
X130333333Y-72380952D01*
X130380952Y-72333333D01*
X130476190Y-72285714D01*
X130666666Y-72285714D01*
X130761904Y-72333333D01*
X116880952Y-74952380D02*
X117547619Y-75952380D01*
X117547619Y-74952380D02*
X116880952Y-75952380D01*
X118119047Y-74952380D02*
X118309523Y-74952380D01*
X118404761Y-75000000D01*
X118500000Y-75095238D01*
X118547619Y-75285714D01*
X118547619Y-75619047D01*
X118500000Y-75809523D01*
X118404761Y-75904761D01*
X118309523Y-75952380D01*
X118119047Y-75952380D01*
X118023809Y-75904761D01*
X117928571Y-75809523D01*
X117880952Y-75619047D01*
X117880952Y-75285714D01*
X117928571Y-75095238D01*
X118023809Y-75000000D01*
X118119047Y-74952380D01*
X118738095Y-76047619D02*
X119500000Y-76047619D01*
X120071428Y-75428571D02*
X120214285Y-75476190D01*
X120261904Y-75523809D01*
X120309523Y-75619047D01*
X120309523Y-75761904D01*
X120261904Y-75857142D01*
X120214285Y-75904761D01*
X120119047Y-75952380D01*
X119738095Y-75952380D01*
X119738095Y-74952380D01*
X120071428Y-74952380D01*
X120166666Y-75000000D01*
X120214285Y-75047619D01*
X120261904Y-75142857D01*
X120261904Y-75238095D01*
X120214285Y-75333333D01*
X120166666Y-75380952D01*
X120071428Y-75428571D01*
X119738095Y-75428571D01*
X120738095Y-74952380D02*
X120738095Y-75761904D01*
X120785714Y-75857142D01*
X120833333Y-75904761D01*
X120928571Y-75952380D01*
X121119047Y-75952380D01*
X121214285Y-75904761D01*
X121261904Y-75857142D01*
X121309523Y-75761904D01*
X121309523Y-74952380D01*
X122119047Y-75428571D02*
X121785714Y-75428571D01*
X121785714Y-75952380D02*
X121785714Y-74952380D01*
X122261904Y-74952380D01*
X122976190Y-75428571D02*
X122642857Y-75428571D01*
X122642857Y-75952380D02*
X122642857Y-74952380D01*
X123119047Y-74952380D01*
X105238095Y-41952380D02*
X105571428Y-42952380D01*
X105904761Y-41952380D01*
X106809523Y-42857142D02*
X106761904Y-42904761D01*
X106619047Y-42952380D01*
X106523809Y-42952380D01*
X106380952Y-42904761D01*
X106285714Y-42809523D01*
X106238095Y-42714285D01*
X106190476Y-42523809D01*
X106190476Y-42380952D01*
X106238095Y-42190476D01*
X106285714Y-42095238D01*
X106380952Y-42000000D01*
X106523809Y-41952380D01*
X106619047Y-41952380D01*
X106761904Y-42000000D01*
X106809523Y-42047619D01*
X107809523Y-42857142D02*
X107761904Y-42904761D01*
X107619047Y-42952380D01*
X107523809Y-42952380D01*
X107380952Y-42904761D01*
X107285714Y-42809523D01*
X107238095Y-42714285D01*
X107190476Y-42523809D01*
X107190476Y-42380952D01*
X107238095Y-42190476D01*
X107285714Y-42095238D01*
X107380952Y-42000000D01*
X107523809Y-41952380D01*
X107619047Y-41952380D01*
X107761904Y-42000000D01*
X107809523Y-42047619D01*
X108000000Y-43047619D02*
X108761904Y-43047619D01*
X109190476Y-41952380D02*
X109380952Y-41952380D01*
X109476190Y-42000000D01*
X109571428Y-42095238D01*
X109619047Y-42285714D01*
X109619047Y-42619047D01*
X109571428Y-42809523D01*
X109476190Y-42904761D01*
X109380952Y-42952380D01*
X109190476Y-42952380D01*
X109095238Y-42904761D01*
X109000000Y-42809523D01*
X108952380Y-42619047D01*
X108952380Y-42285714D01*
X109000000Y-42095238D01*
X109095238Y-42000000D01*
X109190476Y-41952380D01*
X110047619Y-42952380D02*
X110047619Y-41952380D01*
X110619047Y-42952380D01*
X110619047Y-41952380D01*
X135835595Y-77071428D02*
X136597500Y-77071428D01*
X136216547Y-77452380D02*
X136216547Y-76690476D01*
X137597500Y-77452380D02*
X137026071Y-77452380D01*
X137311785Y-77452380D02*
X137311785Y-76452380D01*
X137216547Y-76595238D01*
X137121309Y-76690476D01*
X137026071Y-76738095D01*
X138026071Y-77357142D02*
X138073690Y-77404761D01*
X138026071Y-77452380D01*
X137978452Y-77404761D01*
X138026071Y-77357142D01*
X138026071Y-77452380D01*
X138645119Y-76880952D02*
X138549880Y-76833333D01*
X138502261Y-76785714D01*
X138454642Y-76690476D01*
X138454642Y-76642857D01*
X138502261Y-76547619D01*
X138549880Y-76500000D01*
X138645119Y-76452380D01*
X138835595Y-76452380D01*
X138930833Y-76500000D01*
X138978452Y-76547619D01*
X139026071Y-76642857D01*
X139026071Y-76690476D01*
X138978452Y-76785714D01*
X138930833Y-76833333D01*
X138835595Y-76880952D01*
X138645119Y-76880952D01*
X138549880Y-76928571D01*
X138502261Y-76976190D01*
X138454642Y-77071428D01*
X138454642Y-77261904D01*
X138502261Y-77357142D01*
X138549880Y-77404761D01*
X138645119Y-77452380D01*
X138835595Y-77452380D01*
X138930833Y-77404761D01*
X138978452Y-77357142D01*
X139026071Y-77261904D01*
X139026071Y-77071428D01*
X138978452Y-76976190D01*
X138930833Y-76928571D01*
X138835595Y-76880952D01*
X139311785Y-76452380D02*
X139645119Y-77452380D01*
X139978452Y-76452380D01*
D11*
X134214285Y-44250000D02*
X134071428Y-44178571D01*
X133857142Y-44178571D01*
X133642857Y-44250000D01*
X133500000Y-44392857D01*
X133428571Y-44535714D01*
X133357142Y-44821428D01*
X133357142Y-45035714D01*
X133428571Y-45321428D01*
X133500000Y-45464285D01*
X133642857Y-45607142D01*
X133857142Y-45678571D01*
X134000000Y-45678571D01*
X134214285Y-45607142D01*
X134285714Y-45535714D01*
X134285714Y-45035714D01*
X134000000Y-45035714D01*
X134928571Y-45678571D02*
X134928571Y-44178571D01*
X135785714Y-45678571D01*
X135785714Y-44178571D01*
X136500000Y-45678571D02*
X136500000Y-44178571D01*
X136857142Y-44178571D01*
X137071428Y-44250000D01*
X137214285Y-44392857D01*
X137285714Y-44535714D01*
X137357142Y-44821428D01*
X137357142Y-45035714D01*
X137285714Y-45321428D01*
X137214285Y-45464285D01*
X137071428Y-45607142D01*
X136857142Y-45678571D01*
X136500000Y-45678571D01*
X137928571Y-45250000D02*
X138642857Y-45250000D01*
X137785714Y-45678571D02*
X138285714Y-44178571D01*
X138785714Y-45678571D01*
D10*
X136240357Y-81952380D02*
X136907023Y-82952380D01*
X136907023Y-81952380D02*
X136240357Y-82952380D01*
X137287976Y-82952380D02*
X137287976Y-81952380D01*
D11*
X82607142Y-45250000D02*
X82464285Y-45178571D01*
X82250000Y-45178571D01*
X82035714Y-45250000D01*
X81892857Y-45392857D01*
X81821428Y-45535714D01*
X81750000Y-45821428D01*
X81750000Y-46035714D01*
X81821428Y-46321428D01*
X81892857Y-46464285D01*
X82035714Y-46607142D01*
X82250000Y-46678571D01*
X82392857Y-46678571D01*
X82607142Y-46607142D01*
X82678571Y-46535714D01*
X82678571Y-46035714D01*
X82392857Y-46035714D01*
X83321428Y-46678571D02*
X83321428Y-45178571D01*
X84178571Y-46678571D01*
X84178571Y-45178571D01*
X84892857Y-46678571D02*
X84892857Y-45178571D01*
X85250000Y-45178571D01*
X85464285Y-45250000D01*
X85607142Y-45392857D01*
X85678571Y-45535714D01*
X85750000Y-45821428D01*
X85750000Y-46035714D01*
X85678571Y-46321428D01*
X85607142Y-46464285D01*
X85464285Y-46607142D01*
X85250000Y-46678571D01*
X84892857Y-46678571D01*
X86392857Y-46678571D02*
X86392857Y-45178571D01*
X86750000Y-45178571D01*
X86964285Y-45250000D01*
X87107142Y-45392857D01*
X87178571Y-45535714D01*
X87250000Y-45821428D01*
X87250000Y-46035714D01*
X87178571Y-46321428D01*
X87107142Y-46464285D01*
X86964285Y-46607142D01*
X86750000Y-46678571D01*
X86392857Y-46678571D01*
X122357142Y-94607142D02*
X123500000Y-94607142D01*
X122928571Y-95178571D02*
X122928571Y-94035714D01*
X124071428Y-93678571D02*
X125000000Y-93678571D01*
X124500000Y-94250000D01*
X124714285Y-94250000D01*
X124857142Y-94321428D01*
X124928571Y-94392857D01*
X125000000Y-94535714D01*
X125000000Y-94892857D01*
X124928571Y-95035714D01*
X124857142Y-95107142D01*
X124714285Y-95178571D01*
X124285714Y-95178571D01*
X124142857Y-95107142D01*
X124071428Y-95035714D01*
X125642857Y-95035714D02*
X125714285Y-95107142D01*
X125642857Y-95178571D01*
X125571428Y-95107142D01*
X125642857Y-95035714D01*
X125642857Y-95178571D01*
X126214285Y-93678571D02*
X127142857Y-93678571D01*
X126642857Y-94250000D01*
X126857142Y-94250000D01*
X127000000Y-94321428D01*
X127071428Y-94392857D01*
X127142857Y-94535714D01*
X127142857Y-94892857D01*
X127071428Y-95035714D01*
X127000000Y-95107142D01*
X126857142Y-95178571D01*
X126428571Y-95178571D01*
X126285714Y-95107142D01*
X126214285Y-95035714D01*
X127571428Y-93678571D02*
X128071428Y-95178571D01*
X128571428Y-93678571D01*
X129000000Y-94750000D02*
X129714285Y-94750000D01*
X128857142Y-95178571D02*
X129357142Y-93678571D01*
X129857142Y-95178571D01*
D10*
X91238095Y-110547619D02*
X91285714Y-110500000D01*
X91380952Y-110452380D01*
X91619047Y-110452380D01*
X91714285Y-110500000D01*
X91761904Y-110547619D01*
X91809523Y-110642857D01*
X91809523Y-110738095D01*
X91761904Y-110880952D01*
X91190476Y-111452380D01*
X91809523Y-111452380D01*
X92666666Y-110785714D02*
X92666666Y-111452380D01*
X92428571Y-110404761D02*
X92190476Y-111119047D01*
X92809523Y-111119047D01*
X93190476Y-111452380D02*
X93190476Y-110452380D01*
X93523809Y-111166666D01*
X93857142Y-110452380D01*
X93857142Y-111452380D01*
X94333333Y-111452380D02*
X94333333Y-110452380D01*
X94333333Y-110928571D02*
X94904761Y-110928571D01*
X94904761Y-111452380D02*
X94904761Y-110452380D01*
X95285714Y-110785714D02*
X95809523Y-110785714D01*
X95285714Y-111452380D01*
X95809523Y-111452380D01*
X90833333Y-76452380D02*
X90357142Y-76452380D01*
X90357142Y-75452380D01*
X91166666Y-76452380D02*
X91166666Y-75452380D01*
X91404761Y-75452380D01*
X91547619Y-75500000D01*
X91642857Y-75595238D01*
X91690476Y-75690476D01*
X91738095Y-75880952D01*
X91738095Y-76023809D01*
X91690476Y-76214285D01*
X91642857Y-76309523D01*
X91547619Y-76404761D01*
X91404761Y-76452380D01*
X91166666Y-76452380D01*
X92357142Y-75452380D02*
X92547619Y-75452380D01*
X92642857Y-75500000D01*
X92738095Y-75595238D01*
X92785714Y-75785714D01*
X92785714Y-76119047D01*
X92738095Y-76309523D01*
X92642857Y-76404761D01*
X92547619Y-76452380D01*
X92357142Y-76452380D01*
X92261904Y-76404761D01*
X92166666Y-76309523D01*
X92119047Y-76119047D01*
X92119047Y-75785714D01*
X92166666Y-75595238D01*
X92261904Y-75500000D01*
X92357142Y-75452380D01*
X92976190Y-76547619D02*
X93738095Y-76547619D01*
X94547619Y-76357142D02*
X94500000Y-76404761D01*
X94357142Y-76452380D01*
X94261904Y-76452380D01*
X94119047Y-76404761D01*
X94023809Y-76309523D01*
X93976190Y-76214285D01*
X93928571Y-76023809D01*
X93928571Y-75880952D01*
X93976190Y-75690476D01*
X94023809Y-75595238D01*
X94119047Y-75500000D01*
X94261904Y-75452380D01*
X94357142Y-75452380D01*
X94500000Y-75500000D01*
X94547619Y-75547619D01*
X95166666Y-75452380D02*
X95357142Y-75452380D01*
X95452380Y-75500000D01*
X95547619Y-75595238D01*
X95595238Y-75785714D01*
X95595238Y-76119047D01*
X95547619Y-76309523D01*
X95452380Y-76404761D01*
X95357142Y-76452380D01*
X95166666Y-76452380D01*
X95071428Y-76404761D01*
X94976190Y-76309523D01*
X94928571Y-76119047D01*
X94928571Y-75785714D01*
X94976190Y-75595238D01*
X95071428Y-75500000D01*
X95166666Y-75452380D01*
X96023809Y-76452380D02*
X96023809Y-75452380D01*
X96595238Y-76452380D01*
X96595238Y-75452380D01*
X97071428Y-76452380D02*
X97071428Y-75452380D01*
X97642857Y-76452380D01*
X97642857Y-75452380D01*
X137668928Y-111500000D02*
X137597500Y-111452380D01*
X137490357Y-111452380D01*
X137383214Y-111500000D01*
X137311785Y-111595238D01*
X137276071Y-111690476D01*
X137240357Y-111880952D01*
X137240357Y-112023809D01*
X137276071Y-112214285D01*
X137311785Y-112309523D01*
X137383214Y-112404761D01*
X137490357Y-112452380D01*
X137561785Y-112452380D01*
X137668928Y-112404761D01*
X137704642Y-112357142D01*
X137704642Y-112023809D01*
X137561785Y-112023809D01*
X138026071Y-112452380D02*
X138026071Y-111452380D01*
X138454642Y-112452380D01*
X138454642Y-111452380D01*
X138811785Y-112452380D02*
X138811785Y-111452380D01*
X138990357Y-111452380D01*
X139097500Y-111500000D01*
X139168928Y-111595238D01*
X139204642Y-111690476D01*
X139240357Y-111880952D01*
X139240357Y-112023809D01*
X139204642Y-112214285D01*
X139168928Y-112309523D01*
X139097500Y-112404761D01*
X138990357Y-112452380D01*
X138811785Y-112452380D01*
X139526071Y-112166666D02*
X139883214Y-112166666D01*
X139454642Y-112452380D02*
X139704642Y-111452380D01*
X139954642Y-112452380D01*
X108452380Y-72761904D02*
X109452380Y-72095238D01*
X108452380Y-72095238D02*
X109452380Y-72761904D01*
X109452380Y-71714285D02*
X108452380Y-71714285D01*
X109547619Y-71476190D02*
X109547619Y-70714285D01*
X108452380Y-70619047D02*
X108452380Y-70047619D01*
X109452380Y-70333333D02*
X108452380Y-70333333D01*
X108452380Y-69523809D02*
X108452380Y-69333333D01*
X108500000Y-69238095D01*
X108595238Y-69142857D01*
X108785714Y-69095238D01*
X109119047Y-69095238D01*
X109309523Y-69142857D01*
X109404761Y-69238095D01*
X109452380Y-69333333D01*
X109452380Y-69523809D01*
X109404761Y-69619047D01*
X109309523Y-69714285D01*
X109119047Y-69761904D01*
X108785714Y-69761904D01*
X108595238Y-69714285D01*
X108500000Y-69619047D01*
X108452380Y-69523809D01*
X109547619Y-68904761D02*
X109547619Y-68142857D01*
X108500000Y-67380952D02*
X108452380Y-67476190D01*
X108452380Y-67619047D01*
X108500000Y-67761904D01*
X108595238Y-67857142D01*
X108690476Y-67904761D01*
X108880952Y-67952380D01*
X109023809Y-67952380D01*
X109214285Y-67904761D01*
X109309523Y-67857142D01*
X109404761Y-67761904D01*
X109452380Y-67619047D01*
X109452380Y-67523809D01*
X109404761Y-67380952D01*
X109357142Y-67333333D01*
X109023809Y-67333333D01*
X109023809Y-67523809D01*
X109452380Y-66904761D02*
X108452380Y-66904761D01*
X109452380Y-66333333D01*
X108452380Y-66333333D01*
X109452380Y-65857142D02*
X108452380Y-65857142D01*
X108452380Y-65619047D01*
X108500000Y-65476190D01*
X108595238Y-65380952D01*
X108690476Y-65333333D01*
X108880952Y-65285714D01*
X109023809Y-65285714D01*
X109214285Y-65333333D01*
X109309523Y-65380952D01*
X109404761Y-65476190D01*
X109452380Y-65619047D01*
X109452380Y-65857142D01*
G04 #@! TO.C,C22*
X116857142Y-130642857D02*
X116904761Y-130690476D01*
X116952380Y-130833333D01*
X116952380Y-130928571D01*
X116904761Y-131071428D01*
X116809523Y-131166666D01*
X116714285Y-131214285D01*
X116523809Y-131261904D01*
X116380952Y-131261904D01*
X116190476Y-131214285D01*
X116095238Y-131166666D01*
X116000000Y-131071428D01*
X115952380Y-130928571D01*
X115952380Y-130833333D01*
X116000000Y-130690476D01*
X116047619Y-130642857D01*
X116047619Y-130261904D02*
X116000000Y-130214285D01*
X115952380Y-130119047D01*
X115952380Y-129880952D01*
X116000000Y-129785714D01*
X116047619Y-129738095D01*
X116142857Y-129690476D01*
X116238095Y-129690476D01*
X116380952Y-129738095D01*
X116952380Y-130309523D01*
X116952380Y-129690476D01*
X116047619Y-129309523D02*
X116000000Y-129261904D01*
X115952380Y-129166666D01*
X115952380Y-128928571D01*
X116000000Y-128833333D01*
X116047619Y-128785714D01*
X116142857Y-128738095D01*
X116238095Y-128738095D01*
X116380952Y-128785714D01*
X116952380Y-129357142D01*
X116952380Y-128738095D01*
D13*
G04 #@! TO.C,IC1*
X101574523Y-68239761D02*
X100304523Y-68239761D01*
X101453571Y-66909285D02*
X101514047Y-66969761D01*
X101574523Y-67151190D01*
X101574523Y-67272142D01*
X101514047Y-67453571D01*
X101393095Y-67574523D01*
X101272142Y-67635000D01*
X101030238Y-67695476D01*
X100848809Y-67695476D01*
X100606904Y-67635000D01*
X100485952Y-67574523D01*
X100365000Y-67453571D01*
X100304523Y-67272142D01*
X100304523Y-67151190D01*
X100365000Y-66969761D01*
X100425476Y-66909285D01*
X101574523Y-65699761D02*
X101574523Y-66425476D01*
X101574523Y-66062619D02*
X100304523Y-66062619D01*
X100485952Y-66183571D01*
X100606904Y-66304523D01*
X100667380Y-66425476D01*
D10*
G04 #@! TO.C,D3*
X136261904Y-104452380D02*
X136261904Y-103452380D01*
X136500000Y-103452380D01*
X136642857Y-103500000D01*
X136738095Y-103595238D01*
X136785714Y-103690476D01*
X136833333Y-103880952D01*
X136833333Y-104023809D01*
X136785714Y-104214285D01*
X136738095Y-104309523D01*
X136642857Y-104404761D01*
X136500000Y-104452380D01*
X136261904Y-104452380D01*
X137166666Y-103452380D02*
X137785714Y-103452380D01*
X137452380Y-103833333D01*
X137595238Y-103833333D01*
X137690476Y-103880952D01*
X137738095Y-103928571D01*
X137785714Y-104023809D01*
X137785714Y-104261904D01*
X137738095Y-104357142D01*
X137690476Y-104404761D01*
X137595238Y-104452380D01*
X137309523Y-104452380D01*
X137214285Y-104404761D01*
X137166666Y-104357142D01*
G04 #@! TO.C,C23*
X124857142Y-126642857D02*
X124904761Y-126690476D01*
X124952380Y-126833333D01*
X124952380Y-126928571D01*
X124904761Y-127071428D01*
X124809523Y-127166666D01*
X124714285Y-127214285D01*
X124523809Y-127261904D01*
X124380952Y-127261904D01*
X124190476Y-127214285D01*
X124095238Y-127166666D01*
X124000000Y-127071428D01*
X123952380Y-126928571D01*
X123952380Y-126833333D01*
X124000000Y-126690476D01*
X124047619Y-126642857D01*
X124047619Y-126261904D02*
X124000000Y-126214285D01*
X123952380Y-126119047D01*
X123952380Y-125880952D01*
X124000000Y-125785714D01*
X124047619Y-125738095D01*
X124142857Y-125690476D01*
X124238095Y-125690476D01*
X124380952Y-125738095D01*
X124952380Y-126309523D01*
X124952380Y-125690476D01*
X123952380Y-125357142D02*
X123952380Y-124738095D01*
X124333333Y-125071428D01*
X124333333Y-124928571D01*
X124380952Y-124833333D01*
X124428571Y-124785714D01*
X124523809Y-124738095D01*
X124761904Y-124738095D01*
X124857142Y-124785714D01*
X124904761Y-124833333D01*
X124952380Y-124928571D01*
X124952380Y-125214285D01*
X124904761Y-125309523D01*
X124857142Y-125357142D01*
G04 #@! TO.C,C17*
X94427142Y-59142857D02*
X94474761Y-59190476D01*
X94522380Y-59333333D01*
X94522380Y-59428571D01*
X94474761Y-59571428D01*
X94379523Y-59666666D01*
X94284285Y-59714285D01*
X94093809Y-59761904D01*
X93950952Y-59761904D01*
X93760476Y-59714285D01*
X93665238Y-59666666D01*
X93570000Y-59571428D01*
X93522380Y-59428571D01*
X93522380Y-59333333D01*
X93570000Y-59190476D01*
X93617619Y-59142857D01*
X94522380Y-58190476D02*
X94522380Y-58761904D01*
X94522380Y-58476190D02*
X93522380Y-58476190D01*
X93665238Y-58571428D01*
X93760476Y-58666666D01*
X93808095Y-58761904D01*
X93522380Y-57857142D02*
X93522380Y-57190476D01*
X94522380Y-57619047D01*
G04 #@! TO.C,C21*
X121857142Y-129642857D02*
X121904761Y-129690476D01*
X121952380Y-129833333D01*
X121952380Y-129928571D01*
X121904761Y-130071428D01*
X121809523Y-130166666D01*
X121714285Y-130214285D01*
X121523809Y-130261904D01*
X121380952Y-130261904D01*
X121190476Y-130214285D01*
X121095238Y-130166666D01*
X121000000Y-130071428D01*
X120952380Y-129928571D01*
X120952380Y-129833333D01*
X121000000Y-129690476D01*
X121047619Y-129642857D01*
X121047619Y-129261904D02*
X121000000Y-129214285D01*
X120952380Y-129119047D01*
X120952380Y-128880952D01*
X121000000Y-128785714D01*
X121047619Y-128738095D01*
X121142857Y-128690476D01*
X121238095Y-128690476D01*
X121380952Y-128738095D01*
X121952380Y-129309523D01*
X121952380Y-128690476D01*
X121952380Y-127738095D02*
X121952380Y-128309523D01*
X121952380Y-128023809D02*
X120952380Y-128023809D01*
X121095238Y-128119047D01*
X121190476Y-128214285D01*
X121238095Y-128309523D01*
G04 #@! TO.C,R8*
X118333333Y-113952380D02*
X118000000Y-113476190D01*
X117761904Y-113952380D02*
X117761904Y-112952380D01*
X118142857Y-112952380D01*
X118238095Y-113000000D01*
X118285714Y-113047619D01*
X118333333Y-113142857D01*
X118333333Y-113285714D01*
X118285714Y-113380952D01*
X118238095Y-113428571D01*
X118142857Y-113476190D01*
X117761904Y-113476190D01*
X118904761Y-113380952D02*
X118809523Y-113333333D01*
X118761904Y-113285714D01*
X118714285Y-113190476D01*
X118714285Y-113142857D01*
X118761904Y-113047619D01*
X118809523Y-113000000D01*
X118904761Y-112952380D01*
X119095238Y-112952380D01*
X119190476Y-113000000D01*
X119238095Y-113047619D01*
X119285714Y-113142857D01*
X119285714Y-113190476D01*
X119238095Y-113285714D01*
X119190476Y-113333333D01*
X119095238Y-113380952D01*
X118904761Y-113380952D01*
X118809523Y-113428571D01*
X118761904Y-113476190D01*
X118714285Y-113571428D01*
X118714285Y-113761904D01*
X118761904Y-113857142D01*
X118809523Y-113904761D01*
X118904761Y-113952380D01*
X119095238Y-113952380D01*
X119190476Y-113904761D01*
X119238095Y-113857142D01*
X119285714Y-113761904D01*
X119285714Y-113571428D01*
X119238095Y-113476190D01*
X119190476Y-113428571D01*
X119095238Y-113380952D01*
D13*
G04 #@! TO.C,IC2*
X89760238Y-162300501D02*
X89760238Y-161030501D01*
X91090714Y-162179549D02*
X91030238Y-162240025D01*
X90848809Y-162300501D01*
X90727857Y-162300501D01*
X90546428Y-162240025D01*
X90425476Y-162119073D01*
X90365000Y-161998120D01*
X90304523Y-161756216D01*
X90304523Y-161574787D01*
X90365000Y-161332882D01*
X90425476Y-161211930D01*
X90546428Y-161090978D01*
X90727857Y-161030501D01*
X90848809Y-161030501D01*
X91030238Y-161090978D01*
X91090714Y-161151454D01*
X91574523Y-161151454D02*
X91635000Y-161090978D01*
X91755952Y-161030501D01*
X92058333Y-161030501D01*
X92179285Y-161090978D01*
X92239761Y-161151454D01*
X92300238Y-161272406D01*
X92300238Y-161393358D01*
X92239761Y-161574787D01*
X91514047Y-162300501D01*
X92300238Y-162300501D01*
D10*
G04 #@! TO.C,C26*
X126857142Y-126642857D02*
X126904761Y-126690476D01*
X126952380Y-126833333D01*
X126952380Y-126928571D01*
X126904761Y-127071428D01*
X126809523Y-127166666D01*
X126714285Y-127214285D01*
X126523809Y-127261904D01*
X126380952Y-127261904D01*
X126190476Y-127214285D01*
X126095238Y-127166666D01*
X126000000Y-127071428D01*
X125952380Y-126928571D01*
X125952380Y-126833333D01*
X126000000Y-126690476D01*
X126047619Y-126642857D01*
X126047619Y-126261904D02*
X126000000Y-126214285D01*
X125952380Y-126119047D01*
X125952380Y-125880952D01*
X126000000Y-125785714D01*
X126047619Y-125738095D01*
X126142857Y-125690476D01*
X126238095Y-125690476D01*
X126380952Y-125738095D01*
X126952380Y-126309523D01*
X126952380Y-125690476D01*
X125952380Y-124833333D02*
X125952380Y-125023809D01*
X126000000Y-125119047D01*
X126047619Y-125166666D01*
X126190476Y-125261904D01*
X126380952Y-125309523D01*
X126761904Y-125309523D01*
X126857142Y-125261904D01*
X126904761Y-125214285D01*
X126952380Y-125119047D01*
X126952380Y-124928571D01*
X126904761Y-124833333D01*
X126857142Y-124785714D01*
X126761904Y-124738095D01*
X126523809Y-124738095D01*
X126428571Y-124785714D01*
X126380952Y-124833333D01*
X126333333Y-124928571D01*
X126333333Y-125119047D01*
X126380952Y-125214285D01*
X126428571Y-125261904D01*
X126523809Y-125309523D01*
G04 #@! TO.C,R6*
X122333333Y-119952380D02*
X122000000Y-119476190D01*
X121761904Y-119952380D02*
X121761904Y-118952380D01*
X122142857Y-118952380D01*
X122238095Y-119000000D01*
X122285714Y-119047619D01*
X122333333Y-119142857D01*
X122333333Y-119285714D01*
X122285714Y-119380952D01*
X122238095Y-119428571D01*
X122142857Y-119476190D01*
X121761904Y-119476190D01*
X123190476Y-118952380D02*
X123000000Y-118952380D01*
X122904761Y-119000000D01*
X122857142Y-119047619D01*
X122761904Y-119190476D01*
X122714285Y-119380952D01*
X122714285Y-119761904D01*
X122761904Y-119857142D01*
X122809523Y-119904761D01*
X122904761Y-119952380D01*
X123095238Y-119952380D01*
X123190476Y-119904761D01*
X123238095Y-119857142D01*
X123285714Y-119761904D01*
X123285714Y-119523809D01*
X123238095Y-119428571D01*
X123190476Y-119380952D01*
X123095238Y-119333333D01*
X122904761Y-119333333D01*
X122809523Y-119380952D01*
X122761904Y-119428571D01*
X122714285Y-119523809D01*
G04 #@! TO.C,C25*
X134144153Y-91807142D02*
X134096534Y-91854761D01*
X133953677Y-91902380D01*
X133858439Y-91902380D01*
X133715582Y-91854761D01*
X133620344Y-91759523D01*
X133572725Y-91664285D01*
X133525106Y-91473809D01*
X133525106Y-91330952D01*
X133572725Y-91140476D01*
X133620344Y-91045238D01*
X133715582Y-90950000D01*
X133858439Y-90902380D01*
X133953677Y-90902380D01*
X134096534Y-90950000D01*
X134144153Y-90997619D01*
X134525106Y-90997619D02*
X134572725Y-90950000D01*
X134667963Y-90902380D01*
X134906058Y-90902380D01*
X135001296Y-90950000D01*
X135048915Y-90997619D01*
X135096534Y-91092857D01*
X135096534Y-91188095D01*
X135048915Y-91330952D01*
X134477487Y-91902380D01*
X135096534Y-91902380D01*
X136001296Y-90902380D02*
X135525106Y-90902380D01*
X135477487Y-91378571D01*
X135525106Y-91330952D01*
X135620344Y-91283333D01*
X135858439Y-91283333D01*
X135953677Y-91330952D01*
X136001296Y-91378571D01*
X136048915Y-91473809D01*
X136048915Y-91711904D01*
X136001296Y-91807142D01*
X135953677Y-91854761D01*
X135858439Y-91902380D01*
X135620344Y-91902380D01*
X135525106Y-91854761D01*
X135477487Y-91807142D01*
G04 #@! TO.C,C16*
X97857142Y-83357142D02*
X97809523Y-83404761D01*
X97666666Y-83452380D01*
X97571428Y-83452380D01*
X97428571Y-83404761D01*
X97333333Y-83309523D01*
X97285714Y-83214285D01*
X97238095Y-83023809D01*
X97238095Y-82880952D01*
X97285714Y-82690476D01*
X97333333Y-82595238D01*
X97428571Y-82500000D01*
X97571428Y-82452380D01*
X97666666Y-82452380D01*
X97809523Y-82500000D01*
X97857142Y-82547619D01*
X98809523Y-83452380D02*
X98238095Y-83452380D01*
X98523809Y-83452380D02*
X98523809Y-82452380D01*
X98428571Y-82595238D01*
X98333333Y-82690476D01*
X98238095Y-82738095D01*
X99666666Y-82452380D02*
X99476190Y-82452380D01*
X99380952Y-82500000D01*
X99333333Y-82547619D01*
X99238095Y-82690476D01*
X99190476Y-82880952D01*
X99190476Y-83261904D01*
X99238095Y-83357142D01*
X99285714Y-83404761D01*
X99380952Y-83452380D01*
X99571428Y-83452380D01*
X99666666Y-83404761D01*
X99714285Y-83357142D01*
X99761904Y-83261904D01*
X99761904Y-83023809D01*
X99714285Y-82928571D01*
X99666666Y-82880952D01*
X99571428Y-82833333D01*
X99380952Y-82833333D01*
X99285714Y-82880952D01*
X99238095Y-82928571D01*
X99190476Y-83023809D01*
G04 #@! TO.C,R23*
X116452380Y-65280357D02*
X115976190Y-65613690D01*
X116452380Y-65851785D02*
X115452380Y-65851785D01*
X115452380Y-65470833D01*
X115500000Y-65375595D01*
X115547619Y-65327976D01*
X115642857Y-65280357D01*
X115785714Y-65280357D01*
X115880952Y-65327976D01*
X115928571Y-65375595D01*
X115976190Y-65470833D01*
X115976190Y-65851785D01*
X115547619Y-64899404D02*
X115500000Y-64851785D01*
X115452380Y-64756547D01*
X115452380Y-64518452D01*
X115500000Y-64423214D01*
X115547619Y-64375595D01*
X115642857Y-64327976D01*
X115738095Y-64327976D01*
X115880952Y-64375595D01*
X116452380Y-64947023D01*
X116452380Y-64327976D01*
X115452380Y-63994642D02*
X115452380Y-63375595D01*
X115833333Y-63708928D01*
X115833333Y-63566071D01*
X115880952Y-63470833D01*
X115928571Y-63423214D01*
X116023809Y-63375595D01*
X116261904Y-63375595D01*
X116357142Y-63423214D01*
X116404761Y-63470833D01*
X116452380Y-63566071D01*
X116452380Y-63851785D01*
X116404761Y-63947023D01*
X116357142Y-63994642D01*
G04 #@! TO.C,C31*
X126857142Y-111142857D02*
X126904761Y-111190476D01*
X126952380Y-111333333D01*
X126952380Y-111428571D01*
X126904761Y-111571428D01*
X126809523Y-111666666D01*
X126714285Y-111714285D01*
X126523809Y-111761904D01*
X126380952Y-111761904D01*
X126190476Y-111714285D01*
X126095238Y-111666666D01*
X126000000Y-111571428D01*
X125952380Y-111428571D01*
X125952380Y-111333333D01*
X126000000Y-111190476D01*
X126047619Y-111142857D01*
X125952380Y-110809523D02*
X125952380Y-110190476D01*
X126333333Y-110523809D01*
X126333333Y-110380952D01*
X126380952Y-110285714D01*
X126428571Y-110238095D01*
X126523809Y-110190476D01*
X126761904Y-110190476D01*
X126857142Y-110238095D01*
X126904761Y-110285714D01*
X126952380Y-110380952D01*
X126952380Y-110666666D01*
X126904761Y-110761904D01*
X126857142Y-110809523D01*
X126952380Y-109238095D02*
X126952380Y-109809523D01*
X126952380Y-109523809D02*
X125952380Y-109523809D01*
X126095238Y-109619047D01*
X126190476Y-109714285D01*
X126238095Y-109809523D01*
G04 #@! TO.C,J5*
X90166666Y-78952380D02*
X90166666Y-79666666D01*
X90119047Y-79809523D01*
X90023809Y-79904761D01*
X89880952Y-79952380D01*
X89785714Y-79952380D01*
X91119047Y-78952380D02*
X90642857Y-78952380D01*
X90595238Y-79428571D01*
X90642857Y-79380952D01*
X90738095Y-79333333D01*
X90976190Y-79333333D01*
X91071428Y-79380952D01*
X91119047Y-79428571D01*
X91166666Y-79523809D01*
X91166666Y-79761904D01*
X91119047Y-79857142D01*
X91071428Y-79904761D01*
X90976190Y-79952380D01*
X90738095Y-79952380D01*
X90642857Y-79904761D01*
X90595238Y-79857142D01*
G04 #@! TO.C,C32*
X120857142Y-107642857D02*
X120904761Y-107690476D01*
X120952380Y-107833333D01*
X120952380Y-107928571D01*
X120904761Y-108071428D01*
X120809523Y-108166666D01*
X120714285Y-108214285D01*
X120523809Y-108261904D01*
X120380952Y-108261904D01*
X120190476Y-108214285D01*
X120095238Y-108166666D01*
X120000000Y-108071428D01*
X119952380Y-107928571D01*
X119952380Y-107833333D01*
X120000000Y-107690476D01*
X120047619Y-107642857D01*
X119952380Y-107309523D02*
X119952380Y-106690476D01*
X120333333Y-107023809D01*
X120333333Y-106880952D01*
X120380952Y-106785714D01*
X120428571Y-106738095D01*
X120523809Y-106690476D01*
X120761904Y-106690476D01*
X120857142Y-106738095D01*
X120904761Y-106785714D01*
X120952380Y-106880952D01*
X120952380Y-107166666D01*
X120904761Y-107261904D01*
X120857142Y-107309523D01*
X120047619Y-106309523D02*
X120000000Y-106261904D01*
X119952380Y-106166666D01*
X119952380Y-105928571D01*
X120000000Y-105833333D01*
X120047619Y-105785714D01*
X120142857Y-105738095D01*
X120238095Y-105738095D01*
X120380952Y-105785714D01*
X120952380Y-106357142D01*
X120952380Y-105738095D01*
G04 #@! TO.C,U1*
X111238095Y-114452380D02*
X111238095Y-115261904D01*
X111285714Y-115357142D01*
X111333333Y-115404761D01*
X111428571Y-115452380D01*
X111619047Y-115452380D01*
X111714285Y-115404761D01*
X111761904Y-115357142D01*
X111809523Y-115261904D01*
X111809523Y-114452380D01*
X112809523Y-115452380D02*
X112238095Y-115452380D01*
X112523809Y-115452380D02*
X112523809Y-114452380D01*
X112428571Y-114595238D01*
X112333333Y-114690476D01*
X112238095Y-114738095D01*
G04 #@! TO.C,C27*
X124857142Y-111142857D02*
X124904761Y-111190476D01*
X124952380Y-111333333D01*
X124952380Y-111428571D01*
X124904761Y-111571428D01*
X124809523Y-111666666D01*
X124714285Y-111714285D01*
X124523809Y-111761904D01*
X124380952Y-111761904D01*
X124190476Y-111714285D01*
X124095238Y-111666666D01*
X124000000Y-111571428D01*
X123952380Y-111428571D01*
X123952380Y-111333333D01*
X124000000Y-111190476D01*
X124047619Y-111142857D01*
X124047619Y-110761904D02*
X124000000Y-110714285D01*
X123952380Y-110619047D01*
X123952380Y-110380952D01*
X124000000Y-110285714D01*
X124047619Y-110238095D01*
X124142857Y-110190476D01*
X124238095Y-110190476D01*
X124380952Y-110238095D01*
X124952380Y-110809523D01*
X124952380Y-110190476D01*
X123952380Y-109857142D02*
X123952380Y-109190476D01*
X124952380Y-109619047D01*
G04 #@! TO.C,C19*
X112857142Y-109857142D02*
X112809523Y-109904761D01*
X112666666Y-109952380D01*
X112571428Y-109952380D01*
X112428571Y-109904761D01*
X112333333Y-109809523D01*
X112285714Y-109714285D01*
X112238095Y-109523809D01*
X112238095Y-109380952D01*
X112285714Y-109190476D01*
X112333333Y-109095238D01*
X112428571Y-109000000D01*
X112571428Y-108952380D01*
X112666666Y-108952380D01*
X112809523Y-109000000D01*
X112857142Y-109047619D01*
X113809523Y-109952380D02*
X113238095Y-109952380D01*
X113523809Y-109952380D02*
X113523809Y-108952380D01*
X113428571Y-109095238D01*
X113333333Y-109190476D01*
X113238095Y-109238095D01*
X114285714Y-109952380D02*
X114476190Y-109952380D01*
X114571428Y-109904761D01*
X114619047Y-109857142D01*
X114714285Y-109714285D01*
X114761904Y-109523809D01*
X114761904Y-109142857D01*
X114714285Y-109047619D01*
X114666666Y-109000000D01*
X114571428Y-108952380D01*
X114380952Y-108952380D01*
X114285714Y-109000000D01*
X114238095Y-109047619D01*
X114190476Y-109142857D01*
X114190476Y-109380952D01*
X114238095Y-109476190D01*
X114285714Y-109523809D01*
X114380952Y-109571428D01*
X114571428Y-109571428D01*
X114666666Y-109523809D01*
X114714285Y-109476190D01*
X114761904Y-109380952D01*
G04 #@! TO.C,J7*
X117166666Y-100952380D02*
X117166666Y-101666666D01*
X117119047Y-101809523D01*
X117023809Y-101904761D01*
X116880952Y-101952380D01*
X116785714Y-101952380D01*
X117547619Y-100952380D02*
X118214285Y-100952380D01*
X117785714Y-101952380D01*
G04 #@! TO.C,R7*
X122333333Y-116952380D02*
X122000000Y-116476190D01*
X121761904Y-116952380D02*
X121761904Y-115952380D01*
X122142857Y-115952380D01*
X122238095Y-116000000D01*
X122285714Y-116047619D01*
X122333333Y-116142857D01*
X122333333Y-116285714D01*
X122285714Y-116380952D01*
X122238095Y-116428571D01*
X122142857Y-116476190D01*
X121761904Y-116476190D01*
X122666666Y-115952380D02*
X123333333Y-115952380D01*
X122904761Y-116952380D01*
G04 #@! TO.C,J6*
X107496666Y-73452380D02*
X107496666Y-74166666D01*
X107449047Y-74309523D01*
X107353809Y-74404761D01*
X107210952Y-74452380D01*
X107115714Y-74452380D01*
X108401428Y-73452380D02*
X108210952Y-73452380D01*
X108115714Y-73500000D01*
X108068095Y-73547619D01*
X107972857Y-73690476D01*
X107925238Y-73880952D01*
X107925238Y-74261904D01*
X107972857Y-74357142D01*
X108020476Y-74404761D01*
X108115714Y-74452380D01*
X108306190Y-74452380D01*
X108401428Y-74404761D01*
X108449047Y-74357142D01*
X108496666Y-74261904D01*
X108496666Y-74023809D01*
X108449047Y-73928571D01*
X108401428Y-73880952D01*
X108306190Y-73833333D01*
X108115714Y-73833333D01*
X108020476Y-73880952D01*
X107972857Y-73928571D01*
X107925238Y-74023809D01*
G04 #@! TO.C,C29*
X113857142Y-84642857D02*
X113904761Y-84690476D01*
X113952380Y-84833333D01*
X113952380Y-84928571D01*
X113904761Y-85071428D01*
X113809523Y-85166666D01*
X113714285Y-85214285D01*
X113523809Y-85261904D01*
X113380952Y-85261904D01*
X113190476Y-85214285D01*
X113095238Y-85166666D01*
X113000000Y-85071428D01*
X112952380Y-84928571D01*
X112952380Y-84833333D01*
X113000000Y-84690476D01*
X113047619Y-84642857D01*
X113047619Y-84261904D02*
X113000000Y-84214285D01*
X112952380Y-84119047D01*
X112952380Y-83880952D01*
X113000000Y-83785714D01*
X113047619Y-83738095D01*
X113142857Y-83690476D01*
X113238095Y-83690476D01*
X113380952Y-83738095D01*
X113952380Y-84309523D01*
X113952380Y-83690476D01*
X113952380Y-83214285D02*
X113952380Y-83023809D01*
X113904761Y-82928571D01*
X113857142Y-82880952D01*
X113714285Y-82785714D01*
X113523809Y-82738095D01*
X113142857Y-82738095D01*
X113047619Y-82785714D01*
X113000000Y-82833333D01*
X112952380Y-82928571D01*
X112952380Y-83119047D01*
X113000000Y-83214285D01*
X113047619Y-83261904D01*
X113142857Y-83309523D01*
X113380952Y-83309523D01*
X113476190Y-83261904D01*
X113523809Y-83214285D01*
X113571428Y-83119047D01*
X113571428Y-82928571D01*
X113523809Y-82833333D01*
X113476190Y-82785714D01*
X113380952Y-82738095D01*
G04 #@! TO.C,C10*
X106857142Y-105357142D02*
X106809523Y-105404761D01*
X106666666Y-105452380D01*
X106571428Y-105452380D01*
X106428571Y-105404761D01*
X106333333Y-105309523D01*
X106285714Y-105214285D01*
X106238095Y-105023809D01*
X106238095Y-104880952D01*
X106285714Y-104690476D01*
X106333333Y-104595238D01*
X106428571Y-104500000D01*
X106571428Y-104452380D01*
X106666666Y-104452380D01*
X106809523Y-104500000D01*
X106857142Y-104547619D01*
X107809523Y-105452380D02*
X107238095Y-105452380D01*
X107523809Y-105452380D02*
X107523809Y-104452380D01*
X107428571Y-104595238D01*
X107333333Y-104690476D01*
X107238095Y-104738095D01*
X108428571Y-104452380D02*
X108523809Y-104452380D01*
X108619047Y-104500000D01*
X108666666Y-104547619D01*
X108714285Y-104642857D01*
X108761904Y-104833333D01*
X108761904Y-105071428D01*
X108714285Y-105261904D01*
X108666666Y-105357142D01*
X108619047Y-105404761D01*
X108523809Y-105452380D01*
X108428571Y-105452380D01*
X108333333Y-105404761D01*
X108285714Y-105357142D01*
X108238095Y-105261904D01*
X108190476Y-105071428D01*
X108190476Y-104833333D01*
X108238095Y-104642857D01*
X108285714Y-104547619D01*
X108333333Y-104500000D01*
X108428571Y-104452380D01*
G04 #@! TO.C,C12*
X96357142Y-98857142D02*
X96309523Y-98904761D01*
X96166666Y-98952380D01*
X96071428Y-98952380D01*
X95928571Y-98904761D01*
X95833333Y-98809523D01*
X95785714Y-98714285D01*
X95738095Y-98523809D01*
X95738095Y-98380952D01*
X95785714Y-98190476D01*
X95833333Y-98095238D01*
X95928571Y-98000000D01*
X96071428Y-97952380D01*
X96166666Y-97952380D01*
X96309523Y-98000000D01*
X96357142Y-98047619D01*
X97309523Y-98952380D02*
X96738095Y-98952380D01*
X97023809Y-98952380D02*
X97023809Y-97952380D01*
X96928571Y-98095238D01*
X96833333Y-98190476D01*
X96738095Y-98238095D01*
X97690476Y-98047619D02*
X97738095Y-98000000D01*
X97833333Y-97952380D01*
X98071428Y-97952380D01*
X98166666Y-98000000D01*
X98214285Y-98047619D01*
X98261904Y-98142857D01*
X98261904Y-98238095D01*
X98214285Y-98380952D01*
X97642857Y-98952380D01*
X98261904Y-98952380D01*
G04 #@! TO.C,R1*
X92952380Y-95166666D02*
X92476190Y-95500000D01*
X92952380Y-95738095D02*
X91952380Y-95738095D01*
X91952380Y-95357142D01*
X92000000Y-95261904D01*
X92047619Y-95214285D01*
X92142857Y-95166666D01*
X92285714Y-95166666D01*
X92380952Y-95214285D01*
X92428571Y-95261904D01*
X92476190Y-95357142D01*
X92476190Y-95738095D01*
X92952380Y-94214285D02*
X92952380Y-94785714D01*
X92952380Y-94500000D02*
X91952380Y-94500000D01*
X92095238Y-94595238D01*
X92190476Y-94690476D01*
X92238095Y-94785714D01*
G04 #@! TO.C,C14*
X97857142Y-88732142D02*
X97809523Y-88779761D01*
X97666666Y-88827380D01*
X97571428Y-88827380D01*
X97428571Y-88779761D01*
X97333333Y-88684523D01*
X97285714Y-88589285D01*
X97238095Y-88398809D01*
X97238095Y-88255952D01*
X97285714Y-88065476D01*
X97333333Y-87970238D01*
X97428571Y-87875000D01*
X97571428Y-87827380D01*
X97666666Y-87827380D01*
X97809523Y-87875000D01*
X97857142Y-87922619D01*
X98809523Y-88827380D02*
X98238095Y-88827380D01*
X98523809Y-88827380D02*
X98523809Y-87827380D01*
X98428571Y-87970238D01*
X98333333Y-88065476D01*
X98238095Y-88113095D01*
X99666666Y-88160714D02*
X99666666Y-88827380D01*
X99428571Y-87779761D02*
X99190476Y-88494047D01*
X99809523Y-88494047D01*
G04 #@! TO.C,C13*
X111357142Y-103857142D02*
X111309523Y-103904761D01*
X111166666Y-103952380D01*
X111071428Y-103952380D01*
X110928571Y-103904761D01*
X110833333Y-103809523D01*
X110785714Y-103714285D01*
X110738095Y-103523809D01*
X110738095Y-103380952D01*
X110785714Y-103190476D01*
X110833333Y-103095238D01*
X110928571Y-103000000D01*
X111071428Y-102952380D01*
X111166666Y-102952380D01*
X111309523Y-103000000D01*
X111357142Y-103047619D01*
X112309523Y-103952380D02*
X111738095Y-103952380D01*
X112023809Y-103952380D02*
X112023809Y-102952380D01*
X111928571Y-103095238D01*
X111833333Y-103190476D01*
X111738095Y-103238095D01*
X112642857Y-102952380D02*
X113261904Y-102952380D01*
X112928571Y-103333333D01*
X113071428Y-103333333D01*
X113166666Y-103380952D01*
X113214285Y-103428571D01*
X113261904Y-103523809D01*
X113261904Y-103761904D01*
X113214285Y-103857142D01*
X113166666Y-103904761D01*
X113071428Y-103952380D01*
X112785714Y-103952380D01*
X112690476Y-103904761D01*
X112642857Y-103857142D01*
G04 #@! TO.C,C5*
X104333333Y-101857142D02*
X104285714Y-101904761D01*
X104142857Y-101952380D01*
X104047619Y-101952380D01*
X103904761Y-101904761D01*
X103809523Y-101809523D01*
X103761904Y-101714285D01*
X103714285Y-101523809D01*
X103714285Y-101380952D01*
X103761904Y-101190476D01*
X103809523Y-101095238D01*
X103904761Y-101000000D01*
X104047619Y-100952380D01*
X104142857Y-100952380D01*
X104285714Y-101000000D01*
X104333333Y-101047619D01*
X105238095Y-100952380D02*
X104761904Y-100952380D01*
X104714285Y-101428571D01*
X104761904Y-101380952D01*
X104857142Y-101333333D01*
X105095238Y-101333333D01*
X105190476Y-101380952D01*
X105238095Y-101428571D01*
X105285714Y-101523809D01*
X105285714Y-101761904D01*
X105238095Y-101857142D01*
X105190476Y-101904761D01*
X105095238Y-101952380D01*
X104857142Y-101952380D01*
X104761904Y-101904761D01*
X104714285Y-101857142D01*
G04 #@! TO.C,C11*
X118857142Y-95642857D02*
X118904761Y-95690476D01*
X118952380Y-95833333D01*
X118952380Y-95928571D01*
X118904761Y-96071428D01*
X118809523Y-96166666D01*
X118714285Y-96214285D01*
X118523809Y-96261904D01*
X118380952Y-96261904D01*
X118190476Y-96214285D01*
X118095238Y-96166666D01*
X118000000Y-96071428D01*
X117952380Y-95928571D01*
X117952380Y-95833333D01*
X118000000Y-95690476D01*
X118047619Y-95642857D01*
X118952380Y-94690476D02*
X118952380Y-95261904D01*
X118952380Y-94976190D02*
X117952380Y-94976190D01*
X118095238Y-95071428D01*
X118190476Y-95166666D01*
X118238095Y-95261904D01*
X118952380Y-93738095D02*
X118952380Y-94309523D01*
X118952380Y-94023809D02*
X117952380Y-94023809D01*
X118095238Y-94119047D01*
X118190476Y-94214285D01*
X118238095Y-94309523D01*
G04 #@! TO.C,C24*
X134497886Y-94807142D02*
X134450267Y-94854761D01*
X134307410Y-94902380D01*
X134212172Y-94902380D01*
X134069315Y-94854761D01*
X133974077Y-94759523D01*
X133926458Y-94664285D01*
X133878839Y-94473809D01*
X133878839Y-94330952D01*
X133926458Y-94140476D01*
X133974077Y-94045238D01*
X134069315Y-93950000D01*
X134212172Y-93902380D01*
X134307410Y-93902380D01*
X134450267Y-93950000D01*
X134497886Y-93997619D01*
X134878839Y-93997619D02*
X134926458Y-93950000D01*
X135021696Y-93902380D01*
X135259791Y-93902380D01*
X135355029Y-93950000D01*
X135402648Y-93997619D01*
X135450267Y-94092857D01*
X135450267Y-94188095D01*
X135402648Y-94330952D01*
X134831220Y-94902380D01*
X135450267Y-94902380D01*
X136307410Y-94235714D02*
X136307410Y-94902380D01*
X136069315Y-93854761D02*
X135831220Y-94569047D01*
X136450267Y-94569047D01*
D13*
G04 #@! TO.C,IC4*
X116322738Y-82574523D02*
X116322738Y-81304523D01*
X117653214Y-82453571D02*
X117592738Y-82514047D01*
X117411309Y-82574523D01*
X117290357Y-82574523D01*
X117108928Y-82514047D01*
X116987976Y-82393095D01*
X116927500Y-82272142D01*
X116867023Y-82030238D01*
X116867023Y-81848809D01*
X116927500Y-81606904D01*
X116987976Y-81485952D01*
X117108928Y-81365000D01*
X117290357Y-81304523D01*
X117411309Y-81304523D01*
X117592738Y-81365000D01*
X117653214Y-81425476D01*
X118741785Y-81727857D02*
X118741785Y-82574523D01*
X118439404Y-81244047D02*
X118137023Y-82151190D01*
X118923214Y-82151190D01*
D10*
G04 #@! TO.C,C20*
X119857142Y-129642857D02*
X119904761Y-129690476D01*
X119952380Y-129833333D01*
X119952380Y-129928571D01*
X119904761Y-130071428D01*
X119809523Y-130166666D01*
X119714285Y-130214285D01*
X119523809Y-130261904D01*
X119380952Y-130261904D01*
X119190476Y-130214285D01*
X119095238Y-130166666D01*
X119000000Y-130071428D01*
X118952380Y-129928571D01*
X118952380Y-129833333D01*
X119000000Y-129690476D01*
X119047619Y-129642857D01*
X119047619Y-129261904D02*
X119000000Y-129214285D01*
X118952380Y-129119047D01*
X118952380Y-128880952D01*
X119000000Y-128785714D01*
X119047619Y-128738095D01*
X119142857Y-128690476D01*
X119238095Y-128690476D01*
X119380952Y-128738095D01*
X119952380Y-129309523D01*
X119952380Y-128690476D01*
X118952380Y-128071428D02*
X118952380Y-127976190D01*
X119000000Y-127880952D01*
X119047619Y-127833333D01*
X119142857Y-127785714D01*
X119333333Y-127738095D01*
X119571428Y-127738095D01*
X119761904Y-127785714D01*
X119857142Y-127833333D01*
X119904761Y-127880952D01*
X119952380Y-127976190D01*
X119952380Y-128071428D01*
X119904761Y-128166666D01*
X119857142Y-128214285D01*
X119761904Y-128261904D01*
X119571428Y-128309523D01*
X119333333Y-128309523D01*
X119142857Y-128261904D01*
X119047619Y-128214285D01*
X119000000Y-128166666D01*
X118952380Y-128071428D01*
G04 #@! TO.C,C28*
X113857142Y-74142857D02*
X113904761Y-74190476D01*
X113952380Y-74333333D01*
X113952380Y-74428571D01*
X113904761Y-74571428D01*
X113809523Y-74666666D01*
X113714285Y-74714285D01*
X113523809Y-74761904D01*
X113380952Y-74761904D01*
X113190476Y-74714285D01*
X113095238Y-74666666D01*
X113000000Y-74571428D01*
X112952380Y-74428571D01*
X112952380Y-74333333D01*
X113000000Y-74190476D01*
X113047619Y-74142857D01*
X113047619Y-73761904D02*
X113000000Y-73714285D01*
X112952380Y-73619047D01*
X112952380Y-73380952D01*
X113000000Y-73285714D01*
X113047619Y-73238095D01*
X113142857Y-73190476D01*
X113238095Y-73190476D01*
X113380952Y-73238095D01*
X113952380Y-73809523D01*
X113952380Y-73190476D01*
X113380952Y-72619047D02*
X113333333Y-72714285D01*
X113285714Y-72761904D01*
X113190476Y-72809523D01*
X113142857Y-72809523D01*
X113047619Y-72761904D01*
X113000000Y-72714285D01*
X112952380Y-72619047D01*
X112952380Y-72428571D01*
X113000000Y-72333333D01*
X113047619Y-72285714D01*
X113142857Y-72238095D01*
X113190476Y-72238095D01*
X113285714Y-72285714D01*
X113333333Y-72333333D01*
X113380952Y-72428571D01*
X113380952Y-72619047D01*
X113428571Y-72714285D01*
X113476190Y-72761904D01*
X113571428Y-72809523D01*
X113761904Y-72809523D01*
X113857142Y-72761904D01*
X113904761Y-72714285D01*
X113952380Y-72619047D01*
X113952380Y-72428571D01*
X113904761Y-72333333D01*
X113857142Y-72285714D01*
X113761904Y-72238095D01*
X113571428Y-72238095D01*
X113476190Y-72285714D01*
X113428571Y-72333333D01*
X113380952Y-72428571D01*
G04 #@! TO.C,C1*
X94333333Y-108857142D02*
X94285714Y-108904761D01*
X94142857Y-108952380D01*
X94047619Y-108952380D01*
X93904761Y-108904761D01*
X93809523Y-108809523D01*
X93761904Y-108714285D01*
X93714285Y-108523809D01*
X93714285Y-108380952D01*
X93761904Y-108190476D01*
X93809523Y-108095238D01*
X93904761Y-108000000D01*
X94047619Y-107952380D01*
X94142857Y-107952380D01*
X94285714Y-108000000D01*
X94333333Y-108047619D01*
X95285714Y-108952380D02*
X94714285Y-108952380D01*
X95000000Y-108952380D02*
X95000000Y-107952380D01*
X94904761Y-108095238D01*
X94809523Y-108190476D01*
X94714285Y-108238095D01*
G04 #@! TO.C,C2*
X121857142Y-85666666D02*
X121904761Y-85714285D01*
X121952380Y-85857142D01*
X121952380Y-85952380D01*
X121904761Y-86095238D01*
X121809523Y-86190476D01*
X121714285Y-86238095D01*
X121523809Y-86285714D01*
X121380952Y-86285714D01*
X121190476Y-86238095D01*
X121095238Y-86190476D01*
X121000000Y-86095238D01*
X120952380Y-85952380D01*
X120952380Y-85857142D01*
X121000000Y-85714285D01*
X121047619Y-85666666D01*
X121047619Y-85285714D02*
X121000000Y-85238095D01*
X120952380Y-85142857D01*
X120952380Y-84904761D01*
X121000000Y-84809523D01*
X121047619Y-84761904D01*
X121142857Y-84714285D01*
X121238095Y-84714285D01*
X121380952Y-84761904D01*
X121952380Y-85333333D01*
X121952380Y-84714285D01*
G04 #@! TO.C,C30*
X114857142Y-130642857D02*
X114904761Y-130690476D01*
X114952380Y-130833333D01*
X114952380Y-130928571D01*
X114904761Y-131071428D01*
X114809523Y-131166666D01*
X114714285Y-131214285D01*
X114523809Y-131261904D01*
X114380952Y-131261904D01*
X114190476Y-131214285D01*
X114095238Y-131166666D01*
X114000000Y-131071428D01*
X113952380Y-130928571D01*
X113952380Y-130833333D01*
X114000000Y-130690476D01*
X114047619Y-130642857D01*
X113952380Y-130309523D02*
X113952380Y-129690476D01*
X114333333Y-130023809D01*
X114333333Y-129880952D01*
X114380952Y-129785714D01*
X114428571Y-129738095D01*
X114523809Y-129690476D01*
X114761904Y-129690476D01*
X114857142Y-129738095D01*
X114904761Y-129785714D01*
X114952380Y-129880952D01*
X114952380Y-130166666D01*
X114904761Y-130261904D01*
X114857142Y-130309523D01*
X113952380Y-129071428D02*
X113952380Y-128976190D01*
X114000000Y-128880952D01*
X114047619Y-128833333D01*
X114142857Y-128785714D01*
X114333333Y-128738095D01*
X114571428Y-128738095D01*
X114761904Y-128785714D01*
X114857142Y-128833333D01*
X114904761Y-128880952D01*
X114952380Y-128976190D01*
X114952380Y-129071428D01*
X114904761Y-129166666D01*
X114857142Y-129214285D01*
X114761904Y-129261904D01*
X114571428Y-129309523D01*
X114333333Y-129309523D01*
X114142857Y-129261904D01*
X114047619Y-129214285D01*
X114000000Y-129166666D01*
X113952380Y-129071428D01*
G04 #@! TO.C,C15*
X96719642Y-104857142D02*
X96672023Y-104904761D01*
X96529166Y-104952380D01*
X96433928Y-104952380D01*
X96291071Y-104904761D01*
X96195833Y-104809523D01*
X96148214Y-104714285D01*
X96100595Y-104523809D01*
X96100595Y-104380952D01*
X96148214Y-104190476D01*
X96195833Y-104095238D01*
X96291071Y-104000000D01*
X96433928Y-103952380D01*
X96529166Y-103952380D01*
X96672023Y-104000000D01*
X96719642Y-104047619D01*
X97672023Y-104952380D02*
X97100595Y-104952380D01*
X97386309Y-104952380D02*
X97386309Y-103952380D01*
X97291071Y-104095238D01*
X97195833Y-104190476D01*
X97100595Y-104238095D01*
X98576785Y-103952380D02*
X98100595Y-103952380D01*
X98052976Y-104428571D01*
X98100595Y-104380952D01*
X98195833Y-104333333D01*
X98433928Y-104333333D01*
X98529166Y-104380952D01*
X98576785Y-104428571D01*
X98624404Y-104523809D01*
X98624404Y-104761904D01*
X98576785Y-104857142D01*
X98529166Y-104904761D01*
X98433928Y-104952380D01*
X98195833Y-104952380D01*
X98100595Y-104904761D01*
X98052976Y-104857142D01*
G04 #@! TO.C,D1*
X97261904Y-91827380D02*
X97261904Y-90827380D01*
X97500000Y-90827380D01*
X97642857Y-90875000D01*
X97738095Y-90970238D01*
X97785714Y-91065476D01*
X97833333Y-91255952D01*
X97833333Y-91398809D01*
X97785714Y-91589285D01*
X97738095Y-91684523D01*
X97642857Y-91779761D01*
X97500000Y-91827380D01*
X97261904Y-91827380D01*
X98785714Y-91827380D02*
X98214285Y-91827380D01*
X98500000Y-91827380D02*
X98500000Y-90827380D01*
X98404761Y-90970238D01*
X98309523Y-91065476D01*
X98214285Y-91113095D01*
D13*
G04 #@! TO.C,IC3*
X139074523Y-99739761D02*
X137804523Y-99739761D01*
X138953571Y-98409285D02*
X139014047Y-98469761D01*
X139074523Y-98651190D01*
X139074523Y-98772142D01*
X139014047Y-98953571D01*
X138893095Y-99074523D01*
X138772142Y-99135000D01*
X138530238Y-99195476D01*
X138348809Y-99195476D01*
X138106904Y-99135000D01*
X137985952Y-99074523D01*
X137865000Y-98953571D01*
X137804523Y-98772142D01*
X137804523Y-98651190D01*
X137865000Y-98469761D01*
X137925476Y-98409285D01*
X137804523Y-97985952D02*
X137804523Y-97199761D01*
X138288333Y-97623095D01*
X138288333Y-97441666D01*
X138348809Y-97320714D01*
X138409285Y-97260238D01*
X138530238Y-97199761D01*
X138832619Y-97199761D01*
X138953571Y-97260238D01*
X139014047Y-97320714D01*
X139074523Y-97441666D01*
X139074523Y-97804523D01*
X139014047Y-97925476D01*
X138953571Y-97985952D01*
D10*
G04 #@! TO.C,J3*
X112666666Y-86952380D02*
X112666666Y-87666666D01*
X112619047Y-87809523D01*
X112523809Y-87904761D01*
X112380952Y-87952380D01*
X112285714Y-87952380D01*
X113047619Y-86952380D02*
X113666666Y-86952380D01*
X113333333Y-87333333D01*
X113476190Y-87333333D01*
X113571428Y-87380952D01*
X113619047Y-87428571D01*
X113666666Y-87523809D01*
X113666666Y-87761904D01*
X113619047Y-87857142D01*
X113571428Y-87904761D01*
X113476190Y-87952380D01*
X113190476Y-87952380D01*
X113095238Y-87904761D01*
X113047619Y-87857142D01*
G04 #@! TO.C,C6*
X97333333Y-101857142D02*
X97285714Y-101904761D01*
X97142857Y-101952380D01*
X97047619Y-101952380D01*
X96904761Y-101904761D01*
X96809523Y-101809523D01*
X96761904Y-101714285D01*
X96714285Y-101523809D01*
X96714285Y-101380952D01*
X96761904Y-101190476D01*
X96809523Y-101095238D01*
X96904761Y-101000000D01*
X97047619Y-100952380D01*
X97142857Y-100952380D01*
X97285714Y-101000000D01*
X97333333Y-101047619D01*
X98190476Y-100952380D02*
X98000000Y-100952380D01*
X97904761Y-101000000D01*
X97857142Y-101047619D01*
X97761904Y-101190476D01*
X97714285Y-101380952D01*
X97714285Y-101761904D01*
X97761904Y-101857142D01*
X97809523Y-101904761D01*
X97904761Y-101952380D01*
X98095238Y-101952380D01*
X98190476Y-101904761D01*
X98238095Y-101857142D01*
X98285714Y-101761904D01*
X98285714Y-101523809D01*
X98238095Y-101428571D01*
X98190476Y-101380952D01*
X98095238Y-101333333D01*
X97904761Y-101333333D01*
X97809523Y-101380952D01*
X97761904Y-101428571D01*
X97714285Y-101523809D01*
G04 #@! TO.C,R3*
X137169391Y-107166666D02*
X136693201Y-107500000D01*
X137169391Y-107738095D02*
X136169391Y-107738095D01*
X136169391Y-107357142D01*
X136217011Y-107261904D01*
X136264630Y-107214285D01*
X136359868Y-107166666D01*
X136502725Y-107166666D01*
X136597963Y-107214285D01*
X136645582Y-107261904D01*
X136693201Y-107357142D01*
X136693201Y-107738095D01*
X136169391Y-106833333D02*
X136169391Y-106214285D01*
X136550344Y-106547619D01*
X136550344Y-106404761D01*
X136597963Y-106309523D01*
X136645582Y-106261904D01*
X136740820Y-106214285D01*
X136978915Y-106214285D01*
X137074153Y-106261904D01*
X137121772Y-106309523D01*
X137169391Y-106404761D01*
X137169391Y-106690476D01*
X137121772Y-106785714D01*
X137074153Y-106833333D01*
D13*
G04 #@! TO.C,Y1*
X93895238Y-115469761D02*
X93895238Y-116074523D01*
X93471904Y-114804523D02*
X93895238Y-115469761D01*
X94318571Y-114804523D01*
X95407142Y-116074523D02*
X94681428Y-116074523D01*
X95044285Y-116074523D02*
X95044285Y-114804523D01*
X94923333Y-114985952D01*
X94802380Y-115106904D01*
X94681428Y-115167380D01*
D10*
G04 #@! TO.C,D2*
X97261904Y-152452380D02*
X97261904Y-151452380D01*
X97500000Y-151452380D01*
X97642857Y-151500000D01*
X97738095Y-151595238D01*
X97785714Y-151690476D01*
X97833333Y-151880952D01*
X97833333Y-152023809D01*
X97785714Y-152214285D01*
X97738095Y-152309523D01*
X97642857Y-152404761D01*
X97500000Y-152452380D01*
X97261904Y-152452380D01*
X98214285Y-151547619D02*
X98261904Y-151500000D01*
X98357142Y-151452380D01*
X98595238Y-151452380D01*
X98690476Y-151500000D01*
X98738095Y-151547619D01*
X98785714Y-151642857D01*
X98785714Y-151738095D01*
X98738095Y-151880952D01*
X98166666Y-152452380D01*
X98785714Y-152452380D01*
G04 #@! TO.C,C8*
X104333333Y-98857142D02*
X104285714Y-98904761D01*
X104142857Y-98952380D01*
X104047619Y-98952380D01*
X103904761Y-98904761D01*
X103809523Y-98809523D01*
X103761904Y-98714285D01*
X103714285Y-98523809D01*
X103714285Y-98380952D01*
X103761904Y-98190476D01*
X103809523Y-98095238D01*
X103904761Y-98000000D01*
X104047619Y-97952380D01*
X104142857Y-97952380D01*
X104285714Y-98000000D01*
X104333333Y-98047619D01*
X104904761Y-98380952D02*
X104809523Y-98333333D01*
X104761904Y-98285714D01*
X104714285Y-98190476D01*
X104714285Y-98142857D01*
X104761904Y-98047619D01*
X104809523Y-98000000D01*
X104904761Y-97952380D01*
X105095238Y-97952380D01*
X105190476Y-98000000D01*
X105238095Y-98047619D01*
X105285714Y-98142857D01*
X105285714Y-98190476D01*
X105238095Y-98285714D01*
X105190476Y-98333333D01*
X105095238Y-98380952D01*
X104904761Y-98380952D01*
X104809523Y-98428571D01*
X104761904Y-98476190D01*
X104714285Y-98571428D01*
X104714285Y-98761904D01*
X104761904Y-98857142D01*
X104809523Y-98904761D01*
X104904761Y-98952380D01*
X105095238Y-98952380D01*
X105190476Y-98904761D01*
X105238095Y-98857142D01*
X105285714Y-98761904D01*
X105285714Y-98571428D01*
X105238095Y-98476190D01*
X105190476Y-98428571D01*
X105095238Y-98380952D01*
G04 #@! TO.C,C9*
X84857142Y-161392644D02*
X84904761Y-161440263D01*
X84952380Y-161583120D01*
X84952380Y-161678358D01*
X84904761Y-161821216D01*
X84809523Y-161916454D01*
X84714285Y-161964073D01*
X84523809Y-162011692D01*
X84380952Y-162011692D01*
X84190476Y-161964073D01*
X84095238Y-161916454D01*
X84000000Y-161821216D01*
X83952380Y-161678358D01*
X83952380Y-161583120D01*
X84000000Y-161440263D01*
X84047619Y-161392644D01*
X84952380Y-160916454D02*
X84952380Y-160725978D01*
X84904761Y-160630739D01*
X84857142Y-160583120D01*
X84714285Y-160487882D01*
X84523809Y-160440263D01*
X84142857Y-160440263D01*
X84047619Y-160487882D01*
X84000000Y-160535501D01*
X83952380Y-160630739D01*
X83952380Y-160821216D01*
X84000000Y-160916454D01*
X84047619Y-160964073D01*
X84142857Y-161011692D01*
X84380952Y-161011692D01*
X84476190Y-160964073D01*
X84523809Y-160916454D01*
X84571428Y-160821216D01*
X84571428Y-160630739D01*
X84523809Y-160535501D01*
X84476190Y-160487882D01*
X84380952Y-160440263D01*
G04 #@! TO.C,R5*
X117333333Y-122952380D02*
X117000000Y-122476190D01*
X116761904Y-122952380D02*
X116761904Y-121952380D01*
X117142857Y-121952380D01*
X117238095Y-122000000D01*
X117285714Y-122047619D01*
X117333333Y-122142857D01*
X117333333Y-122285714D01*
X117285714Y-122380952D01*
X117238095Y-122428571D01*
X117142857Y-122476190D01*
X116761904Y-122476190D01*
X118238095Y-121952380D02*
X117761904Y-121952380D01*
X117714285Y-122428571D01*
X117761904Y-122380952D01*
X117857142Y-122333333D01*
X118095238Y-122333333D01*
X118190476Y-122380952D01*
X118238095Y-122428571D01*
X118285714Y-122523809D01*
X118285714Y-122761904D01*
X118238095Y-122857142D01*
X118190476Y-122904761D01*
X118095238Y-122952380D01*
X117857142Y-122952380D01*
X117761904Y-122904761D01*
X117714285Y-122857142D01*
G04 #@! TO.C,C18*
X112357142Y-106857142D02*
X112309523Y-106904761D01*
X112166666Y-106952380D01*
X112071428Y-106952380D01*
X111928571Y-106904761D01*
X111833333Y-106809523D01*
X111785714Y-106714285D01*
X111738095Y-106523809D01*
X111738095Y-106380952D01*
X111785714Y-106190476D01*
X111833333Y-106095238D01*
X111928571Y-106000000D01*
X112071428Y-105952380D01*
X112166666Y-105952380D01*
X112309523Y-106000000D01*
X112357142Y-106047619D01*
X113309523Y-106952380D02*
X112738095Y-106952380D01*
X113023809Y-106952380D02*
X113023809Y-105952380D01*
X112928571Y-106095238D01*
X112833333Y-106190476D01*
X112738095Y-106238095D01*
X113880952Y-106380952D02*
X113785714Y-106333333D01*
X113738095Y-106285714D01*
X113690476Y-106190476D01*
X113690476Y-106142857D01*
X113738095Y-106047619D01*
X113785714Y-106000000D01*
X113880952Y-105952380D01*
X114071428Y-105952380D01*
X114166666Y-106000000D01*
X114214285Y-106047619D01*
X114261904Y-106142857D01*
X114261904Y-106190476D01*
X114214285Y-106285714D01*
X114166666Y-106333333D01*
X114071428Y-106380952D01*
X113880952Y-106380952D01*
X113785714Y-106428571D01*
X113738095Y-106476190D01*
X113690476Y-106571428D01*
X113690476Y-106761904D01*
X113738095Y-106857142D01*
X113785714Y-106904761D01*
X113880952Y-106952380D01*
X114071428Y-106952380D01*
X114166666Y-106904761D01*
X114214285Y-106857142D01*
X114261904Y-106761904D01*
X114261904Y-106571428D01*
X114214285Y-106476190D01*
X114166666Y-106428571D01*
X114071428Y-106380952D01*
G04 #@! TO.C,FB1*
X125166666Y-68498571D02*
X124833333Y-68498571D01*
X124833333Y-69022380D02*
X124833333Y-68022380D01*
X125309523Y-68022380D01*
X126023809Y-68498571D02*
X126166666Y-68546190D01*
X126214285Y-68593809D01*
X126261904Y-68689047D01*
X126261904Y-68831904D01*
X126214285Y-68927142D01*
X126166666Y-68974761D01*
X126071428Y-69022380D01*
X125690476Y-69022380D01*
X125690476Y-68022380D01*
X126023809Y-68022380D01*
X126119047Y-68070000D01*
X126166666Y-68117619D01*
X126214285Y-68212857D01*
X126214285Y-68308095D01*
X126166666Y-68403333D01*
X126119047Y-68450952D01*
X126023809Y-68498571D01*
X125690476Y-68498571D01*
X127214285Y-69022380D02*
X126642857Y-69022380D01*
X126928571Y-69022380D02*
X126928571Y-68022380D01*
X126833333Y-68165238D01*
X126738095Y-68260476D01*
X126642857Y-68308095D01*
G04 #@! TO.C,C3*
X104357142Y-76166666D02*
X104404761Y-76214285D01*
X104452380Y-76357142D01*
X104452380Y-76452380D01*
X104404761Y-76595238D01*
X104309523Y-76690476D01*
X104214285Y-76738095D01*
X104023809Y-76785714D01*
X103880952Y-76785714D01*
X103690476Y-76738095D01*
X103595238Y-76690476D01*
X103500000Y-76595238D01*
X103452380Y-76452380D01*
X103452380Y-76357142D01*
X103500000Y-76214285D01*
X103547619Y-76166666D01*
X103452380Y-75833333D02*
X103452380Y-75214285D01*
X103833333Y-75547619D01*
X103833333Y-75404761D01*
X103880952Y-75309523D01*
X103928571Y-75261904D01*
X104023809Y-75214285D01*
X104261904Y-75214285D01*
X104357142Y-75261904D01*
X104404761Y-75309523D01*
X104452380Y-75404761D01*
X104452380Y-75690476D01*
X104404761Y-75785714D01*
X104357142Y-75833333D01*
G04 #@! TO.C,J4*
X92666666Y-34952380D02*
X92666666Y-35666666D01*
X92619047Y-35809523D01*
X92523809Y-35904761D01*
X92380952Y-35952380D01*
X92285714Y-35952380D01*
X93571428Y-35285714D02*
X93571428Y-35952380D01*
X93333333Y-34904761D02*
X93095238Y-35619047D01*
X93714285Y-35619047D01*
G04 #@! TO.C,R2*
X95833333Y-148952380D02*
X95500000Y-148476190D01*
X95261904Y-148952380D02*
X95261904Y-147952380D01*
X95642857Y-147952380D01*
X95738095Y-148000000D01*
X95785714Y-148047619D01*
X95833333Y-148142857D01*
X95833333Y-148285714D01*
X95785714Y-148380952D01*
X95738095Y-148428571D01*
X95642857Y-148476190D01*
X95261904Y-148476190D01*
X96214285Y-148047619D02*
X96261904Y-148000000D01*
X96357142Y-147952380D01*
X96595238Y-147952380D01*
X96690476Y-148000000D01*
X96738095Y-148047619D01*
X96785714Y-148142857D01*
X96785714Y-148238095D01*
X96738095Y-148380952D01*
X96166666Y-148952380D01*
X96785714Y-148952380D01*
G04 #@! TO.C,D4*
X106489880Y-37738095D02*
X105489880Y-37738095D01*
X105489880Y-37500000D01*
X105537500Y-37357142D01*
X105632738Y-37261904D01*
X105727976Y-37214285D01*
X105918452Y-37166666D01*
X106061309Y-37166666D01*
X106251785Y-37214285D01*
X106347023Y-37261904D01*
X106442261Y-37357142D01*
X106489880Y-37500000D01*
X106489880Y-37738095D01*
X105823214Y-36309523D02*
X106489880Y-36309523D01*
X105442261Y-36547619D02*
X106156547Y-36785714D01*
X106156547Y-36166666D01*
D13*
G04 #@! TO.C,Y2*
X102395238Y-60469761D02*
X102395238Y-61074523D01*
X101971904Y-59804523D02*
X102395238Y-60469761D01*
X102818571Y-59804523D01*
X103181428Y-59925476D02*
X103241904Y-59865000D01*
X103362857Y-59804523D01*
X103665238Y-59804523D01*
X103786190Y-59865000D01*
X103846666Y-59925476D01*
X103907142Y-60046428D01*
X103907142Y-60167380D01*
X103846666Y-60348809D01*
X103120952Y-61074523D01*
X103907142Y-61074523D01*
D10*
G04 #@! TO.C,C4*
X87857142Y-161392644D02*
X87904761Y-161440263D01*
X87952380Y-161583120D01*
X87952380Y-161678358D01*
X87904761Y-161821216D01*
X87809523Y-161916454D01*
X87714285Y-161964073D01*
X87523809Y-162011692D01*
X87380952Y-162011692D01*
X87190476Y-161964073D01*
X87095238Y-161916454D01*
X87000000Y-161821216D01*
X86952380Y-161678358D01*
X86952380Y-161583120D01*
X87000000Y-161440263D01*
X87047619Y-161392644D01*
X87285714Y-160535501D02*
X87952380Y-160535501D01*
X86904761Y-160773597D02*
X87619047Y-161011692D01*
X87619047Y-160392644D01*
G04 #@! TO.C,J2*
X95666666Y-69952380D02*
X95666666Y-70666666D01*
X95619047Y-70809523D01*
X95523809Y-70904761D01*
X95380952Y-70952380D01*
X95285714Y-70952380D01*
X96095238Y-70047619D02*
X96142857Y-70000000D01*
X96238095Y-69952380D01*
X96476190Y-69952380D01*
X96571428Y-70000000D01*
X96619047Y-70047619D01*
X96666666Y-70142857D01*
X96666666Y-70238095D01*
X96619047Y-70380952D01*
X96047619Y-70952380D01*
X96666666Y-70952380D01*
G04 #@! TO.C,C33*
X122857142Y-107642857D02*
X122904761Y-107690476D01*
X122952380Y-107833333D01*
X122952380Y-107928571D01*
X122904761Y-108071428D01*
X122809523Y-108166666D01*
X122714285Y-108214285D01*
X122523809Y-108261904D01*
X122380952Y-108261904D01*
X122190476Y-108214285D01*
X122095238Y-108166666D01*
X122000000Y-108071428D01*
X121952380Y-107928571D01*
X121952380Y-107833333D01*
X122000000Y-107690476D01*
X122047619Y-107642857D01*
X121952380Y-107309523D02*
X121952380Y-106690476D01*
X122333333Y-107023809D01*
X122333333Y-106880952D01*
X122380952Y-106785714D01*
X122428571Y-106738095D01*
X122523809Y-106690476D01*
X122761904Y-106690476D01*
X122857142Y-106738095D01*
X122904761Y-106785714D01*
X122952380Y-106880952D01*
X122952380Y-107166666D01*
X122904761Y-107261904D01*
X122857142Y-107309523D01*
X121952380Y-106357142D02*
X121952380Y-105738095D01*
X122333333Y-106071428D01*
X122333333Y-105928571D01*
X122380952Y-105833333D01*
X122428571Y-105785714D01*
X122523809Y-105738095D01*
X122761904Y-105738095D01*
X122857142Y-105785714D01*
X122904761Y-105833333D01*
X122952380Y-105928571D01*
X122952380Y-106214285D01*
X122904761Y-106309523D01*
X122857142Y-106357142D01*
G04 #@! TO.C,R4*
X109833333Y-37952380D02*
X109500000Y-37476190D01*
X109261904Y-37952380D02*
X109261904Y-36952380D01*
X109642857Y-36952380D01*
X109738095Y-37000000D01*
X109785714Y-37047619D01*
X109833333Y-37142857D01*
X109833333Y-37285714D01*
X109785714Y-37380952D01*
X109738095Y-37428571D01*
X109642857Y-37476190D01*
X109261904Y-37476190D01*
X110690476Y-37285714D02*
X110690476Y-37952380D01*
X110452380Y-36904761D02*
X110214285Y-37619047D01*
X110833333Y-37619047D01*
G04 #@! TO.C,J1*
X114666666Y-70419880D02*
X114666666Y-71134166D01*
X114619047Y-71277023D01*
X114523809Y-71372261D01*
X114380952Y-71419880D01*
X114285714Y-71419880D01*
X115666666Y-71419880D02*
X115095238Y-71419880D01*
X115380952Y-71419880D02*
X115380952Y-70419880D01*
X115285714Y-70562738D01*
X115190476Y-70657976D01*
X115095238Y-70705595D01*
G04 #@! TO.C,C7*
X97833333Y-85857142D02*
X97785714Y-85904761D01*
X97642857Y-85952380D01*
X97547619Y-85952380D01*
X97404761Y-85904761D01*
X97309523Y-85809523D01*
X97261904Y-85714285D01*
X97214285Y-85523809D01*
X97214285Y-85380952D01*
X97261904Y-85190476D01*
X97309523Y-85095238D01*
X97404761Y-85000000D01*
X97547619Y-84952380D01*
X97642857Y-84952380D01*
X97785714Y-85000000D01*
X97833333Y-85047619D01*
X98166666Y-84952380D02*
X98833333Y-84952380D01*
X98404761Y-85952380D01*
D14*
G04 #@! TO.C,C22*
X117010000Y-126646267D02*
X117010000Y-126353733D01*
X115990000Y-126646267D02*
X115990000Y-126353733D01*
G04 #@! TO.C,J9*
X134170000Y-113345000D02*
X134170000Y-136265000D01*
X136830000Y-113345000D02*
X136830000Y-136265000D01*
X134170000Y-136265000D02*
X136830000Y-136265000D01*
X134170000Y-113345000D02*
X136830000Y-113345000D01*
X134170000Y-112075000D02*
X134170000Y-110745000D01*
X134170000Y-110745000D02*
X135500000Y-110745000D01*
D15*
G04 #@! TO.C,IC1*
X99600000Y-64950000D02*
X99600000Y-66150000D01*
D14*
G04 #@! TO.C,D3*
X133487011Y-104685000D02*
X135947011Y-104685000D01*
X135947011Y-104685000D02*
X135947011Y-103215000D01*
X135947011Y-103215000D02*
X133487011Y-103215000D01*
G04 #@! TO.C,C23*
X123990000Y-122646267D02*
X123990000Y-122353733D01*
X125010000Y-122646267D02*
X125010000Y-122353733D01*
G04 #@! TO.C,C17*
X96010000Y-58646267D02*
X96010000Y-58353733D01*
X94990000Y-58646267D02*
X94990000Y-58353733D01*
G04 #@! TO.C,C21*
X120990000Y-125353733D02*
X120990000Y-125646267D01*
X122010000Y-125353733D02*
X122010000Y-125646267D01*
G04 #@! TO.C,R8*
X121842224Y-114022500D02*
X121332776Y-114022500D01*
X121842224Y-112977500D02*
X121332776Y-112977500D01*
D15*
G04 #@! TO.C,IC2*
X91825000Y-159675978D02*
X91175000Y-159675978D01*
X91825000Y-156775978D02*
X91825000Y-159675978D01*
X91175000Y-156775978D02*
X91825000Y-156775978D01*
X91175000Y-159675978D02*
X91175000Y-156775978D01*
X89675000Y-156725978D02*
X90825000Y-156725978D01*
D14*
G04 #@! TO.C,C26*
X125990000Y-122353733D02*
X125990000Y-122646267D01*
X127010000Y-122353733D02*
X127010000Y-122646267D01*
G04 #@! TO.C,R6*
X125842224Y-118977500D02*
X125332776Y-118977500D01*
X125842224Y-120022500D02*
X125332776Y-120022500D01*
G04 #@! TO.C,C25*
X135433278Y-93460000D02*
X135140744Y-93460000D01*
X135433278Y-92440000D02*
X135140744Y-92440000D01*
G04 #@! TO.C,C16*
X95283767Y-82400000D02*
X94991233Y-82400000D01*
X95283767Y-83420000D02*
X94991233Y-83420000D01*
G04 #@! TO.C,R23*
X117040000Y-64382776D02*
X117040000Y-64892224D01*
X118085000Y-64382776D02*
X118085000Y-64892224D01*
G04 #@! TO.C,C31*
X125990000Y-113646267D02*
X125990000Y-113353733D01*
X127010000Y-113646267D02*
X127010000Y-113353733D01*
G04 #@! TO.C,J5*
X94730000Y-77005000D02*
X92130000Y-77005000D01*
X94730000Y-77005000D02*
X94730000Y-79665000D01*
X92130000Y-77005000D02*
X92130000Y-79665000D01*
X94730000Y-79665000D02*
X92130000Y-79665000D01*
X96000000Y-77005000D02*
X97330000Y-77005000D01*
X97330000Y-77005000D02*
X97330000Y-78335000D01*
G04 #@! TO.C,C32*
X119990000Y-110353733D02*
X119990000Y-110646267D01*
X121010000Y-110353733D02*
X121010000Y-110646267D01*
G04 #@! TO.C,U1*
X111150000Y-111500000D02*
X111150000Y-113700000D01*
X103130000Y-111500000D02*
X103130000Y-113700000D01*
X111150000Y-111500000D02*
X111150000Y-107900000D01*
X103130000Y-111500000D02*
X103130000Y-109300000D01*
G04 #@! TO.C,C27*
X125090000Y-113353733D02*
X125090000Y-113646267D01*
X124070000Y-113353733D02*
X124070000Y-113646267D01*
G04 #@! TO.C,C19*
X116783767Y-108990000D02*
X116491233Y-108990000D01*
X116783767Y-110010000D02*
X116491233Y-110010000D01*
G04 #@! TO.C,J7*
X111170000Y-100830000D02*
X111170000Y-99500000D01*
X112500000Y-100830000D02*
X111170000Y-100830000D01*
X113770000Y-100830000D02*
X116370000Y-100830000D01*
X113770000Y-98170000D02*
X116370000Y-98170000D01*
X113770000Y-100830000D02*
X113770000Y-98170000D01*
X116370000Y-100830000D02*
X116370000Y-98170000D01*
G04 #@! TO.C,R7*
X125842224Y-117022500D02*
X125332776Y-117022500D01*
X125842224Y-115977500D02*
X125332776Y-115977500D01*
G04 #@! TO.C,J6*
X107830000Y-67630000D02*
X105170000Y-67630000D01*
X105170000Y-70230000D02*
X105170000Y-67630000D01*
X107830000Y-72830000D02*
X106500000Y-72830000D01*
X107830000Y-71500000D02*
X107830000Y-72830000D01*
X107830000Y-70230000D02*
X105170000Y-70230000D01*
X107830000Y-70230000D02*
X107830000Y-67630000D01*
G04 #@! TO.C,C29*
X114072500Y-80921267D02*
X114072500Y-80628733D01*
X113052500Y-80921267D02*
X113052500Y-80628733D01*
G04 #@! TO.C,C10*
X107783767Y-104010000D02*
X107491233Y-104010000D01*
X107783767Y-102990000D02*
X107491233Y-102990000D01*
G04 #@! TO.C,C12*
X100353733Y-97990000D02*
X100646267Y-97990000D01*
X100353733Y-99010000D02*
X100646267Y-99010000D01*
G04 #@! TO.C,R1*
X94660000Y-94120276D02*
X94660000Y-94629724D01*
X93615000Y-94120276D02*
X93615000Y-94629724D01*
G04 #@! TO.C,C14*
X95283767Y-88885000D02*
X94991233Y-88885000D01*
X95283767Y-87865000D02*
X94991233Y-87865000D01*
G04 #@! TO.C,C13*
X115646267Y-102990000D02*
X115353733Y-102990000D01*
X115646267Y-104010000D02*
X115353733Y-104010000D01*
G04 #@! TO.C,C5*
X107646267Y-102010000D02*
X107353733Y-102010000D01*
X107646267Y-100990000D02*
X107353733Y-100990000D01*
G04 #@! TO.C,C11*
X117990000Y-98353733D02*
X117990000Y-98646267D01*
X119010000Y-98353733D02*
X119010000Y-98646267D01*
G04 #@! TO.C,C24*
X135433278Y-96460000D02*
X135140744Y-96460000D01*
X135433278Y-95440000D02*
X135140744Y-95440000D01*
D15*
G04 #@! TO.C,IC4*
X116112500Y-78337500D02*
X119012500Y-78337500D01*
X119012500Y-78937500D02*
X116112500Y-78937500D01*
X119012500Y-78337500D02*
X119012500Y-78937500D01*
X116112500Y-78937500D02*
X116112500Y-78337500D01*
X115962500Y-80487500D02*
X115962500Y-79287500D01*
D14*
G04 #@! TO.C,C20*
X120010000Y-125646267D02*
X120010000Y-125353733D01*
X118990000Y-125646267D02*
X118990000Y-125353733D01*
G04 #@! TO.C,J8*
X97810000Y-166670000D02*
X97810000Y-169330000D01*
X120730000Y-166670000D02*
X120730000Y-169330000D01*
X120730000Y-169330000D02*
X97810000Y-169330000D01*
X122000000Y-166670000D02*
X123330000Y-166670000D01*
X123330000Y-166670000D02*
X123330000Y-168000000D01*
X120730000Y-166670000D02*
X97810000Y-166670000D01*
G04 #@! TO.C,C28*
X113052500Y-76783767D02*
X113052500Y-76491233D01*
X114072500Y-76783767D02*
X114072500Y-76491233D01*
G04 #@! TO.C,C1*
X97353733Y-107990000D02*
X97646267Y-107990000D01*
X97353733Y-109010000D02*
X97646267Y-109010000D01*
G04 #@! TO.C,C2*
X122010000Y-88353733D02*
X122010000Y-88646267D01*
X120990000Y-88353733D02*
X120990000Y-88646267D01*
G04 #@! TO.C,C30*
X115010000Y-126783767D02*
X115010000Y-126491233D01*
X113990000Y-126783767D02*
X113990000Y-126491233D01*
G04 #@! TO.C,C15*
X100353733Y-105010000D02*
X100646267Y-105010000D01*
X100353733Y-103990000D02*
X100646267Y-103990000D01*
G04 #@! TO.C,D1*
X93477500Y-92110000D02*
X95937500Y-92110000D01*
X93477500Y-90640000D02*
X93477500Y-92110000D01*
X95937500Y-90640000D02*
X93477500Y-90640000D01*
G04 #@! TO.C,J10*
X132670000Y-86265000D02*
X135330000Y-86265000D01*
X132670000Y-63345000D02*
X132670000Y-86265000D01*
X132670000Y-60745000D02*
X134000000Y-60745000D01*
X132670000Y-63345000D02*
X135330000Y-63345000D01*
X132670000Y-62075000D02*
X132670000Y-60745000D01*
X135330000Y-63345000D02*
X135330000Y-86265000D01*
D15*
G04 #@! TO.C,IC3*
X135612011Y-98500000D02*
X135612011Y-101400000D01*
X134962011Y-101400000D02*
X134962011Y-98500000D01*
X137112011Y-101450000D02*
X135962011Y-101450000D01*
X134962011Y-98500000D02*
X135612011Y-98500000D01*
X135612011Y-101400000D02*
X134962011Y-101400000D01*
D14*
G04 #@! TO.C,J3*
X114630000Y-89830000D02*
X114630000Y-88500000D01*
X119830000Y-89830000D02*
X119830000Y-87170000D01*
X117230000Y-89830000D02*
X117230000Y-87170000D01*
X117230000Y-87170000D02*
X119830000Y-87170000D01*
X115960000Y-89830000D02*
X114630000Y-89830000D01*
X117230000Y-89830000D02*
X119830000Y-89830000D01*
G04 #@! TO.C,C6*
X100646267Y-102010000D02*
X100353733Y-102010000D01*
X100646267Y-100990000D02*
X100353733Y-100990000D01*
G04 #@! TO.C,R3*
X135809511Y-107695276D02*
X135809511Y-108204724D01*
X134764511Y-107695276D02*
X134764511Y-108204724D01*
D15*
G04 #@! TO.C,Y1*
X97500000Y-111300000D02*
X97500000Y-111300000D01*
X97500000Y-111500000D02*
X97500000Y-111500000D01*
X97500000Y-111500000D02*
G75*
G03*
X97500000Y-111300000I0J100000D01*
G01*
X97500000Y-111300000D02*
G75*
G03*
X97500000Y-111500000I0J-100000D01*
G01*
D14*
G04 #@! TO.C,D2*
X94200000Y-152735000D02*
X96660000Y-152735000D01*
X96660000Y-152735000D02*
X96660000Y-151265000D01*
X96660000Y-151265000D02*
X94200000Y-151265000D01*
G04 #@! TO.C,C8*
X107646267Y-99010000D02*
X107353733Y-99010000D01*
X107646267Y-97990000D02*
X107353733Y-97990000D01*
G04 #@! TO.C,C9*
X85010000Y-158079711D02*
X85010000Y-158372245D01*
X83990000Y-158079711D02*
X83990000Y-158372245D01*
G04 #@! TO.C,R5*
X120842224Y-121977500D02*
X120332776Y-121977500D01*
X120842224Y-123022500D02*
X120332776Y-123022500D01*
G04 #@! TO.C,C18*
X116783767Y-105990000D02*
X116491233Y-105990000D01*
X116783767Y-107010000D02*
X116491233Y-107010000D01*
G04 #@! TO.C,FB1*
X125828733Y-69490000D02*
X126171267Y-69490000D01*
X125828733Y-70510000D02*
X126171267Y-70510000D01*
G04 #@! TO.C,C3*
X103010000Y-76646267D02*
X103010000Y-76353733D01*
X101990000Y-76646267D02*
X101990000Y-76353733D01*
D10*
G04 #@! TO.C,J4*
X103150000Y-38905000D02*
X103150000Y-37505000D01*
X97200000Y-40655000D02*
X96200000Y-40655000D01*
X100800000Y-41080000D02*
X100800000Y-40655000D01*
X100800000Y-40655000D02*
X101800000Y-40655000D01*
X100075000Y-41080000D02*
X100800000Y-41080000D01*
X94850000Y-37505000D02*
X94850000Y-38905000D01*
D14*
G04 #@! TO.C,R2*
X95254724Y-150522500D02*
X94745276Y-150522500D01*
X95254724Y-149477500D02*
X94745276Y-149477500D01*
G04 #@! TO.C,D4*
X106772500Y-40800000D02*
X106772500Y-38340000D01*
X105302500Y-38340000D02*
X105302500Y-40800000D01*
X106772500Y-38340000D02*
X105302500Y-38340000D01*
D15*
G04 #@! TO.C,Y2*
X98500000Y-56500000D02*
X98500000Y-56500000D01*
X98500000Y-56300000D02*
X98500000Y-56300000D01*
X98500000Y-56300000D02*
G75*
G03*
X98500000Y-56500000I0J-100000D01*
G01*
X98500000Y-56500000D02*
G75*
G03*
X98500000Y-56300000I0J100000D01*
G01*
D14*
G04 #@! TO.C,C4*
X88010000Y-158079711D02*
X88010000Y-158372245D01*
X86990000Y-158079711D02*
X86990000Y-158372245D01*
G04 #@! TO.C,J2*
X97630000Y-70170000D02*
X97630000Y-72830000D01*
X100230000Y-72830000D02*
X97630000Y-72830000D01*
X101500000Y-70170000D02*
X102830000Y-70170000D01*
X102830000Y-70170000D02*
X102830000Y-71500000D01*
X100230000Y-70170000D02*
X97630000Y-70170000D01*
X100230000Y-70170000D02*
X100230000Y-72830000D01*
G04 #@! TO.C,C33*
X121990000Y-110646267D02*
X121990000Y-110353733D01*
X123010000Y-110646267D02*
X123010000Y-110353733D01*
G04 #@! TO.C,R4*
X110292224Y-38352500D02*
X109782776Y-38352500D01*
X110292224Y-39397500D02*
X109782776Y-39397500D01*
G04 #@! TO.C,J1*
X118832500Y-70967500D02*
X116232500Y-70967500D01*
X120102500Y-68307500D02*
X121432500Y-68307500D01*
X118832500Y-68307500D02*
X118832500Y-70967500D01*
X116232500Y-68307500D02*
X116232500Y-70967500D01*
X118832500Y-68307500D02*
X116232500Y-68307500D01*
X121432500Y-68307500D02*
X121432500Y-69637500D01*
G04 #@! TO.C,C7*
X95283767Y-85885000D02*
X94991233Y-85885000D01*
X95283767Y-84865000D02*
X94991233Y-84865000D01*
G04 #@! TD*
M02*
