G04 #@! TF.GenerationSoftware,KiCad,Pcbnew,7.0.1*
G04 #@! TF.CreationDate,2023-05-20T00:25:49-07:00*
G04 #@! TF.ProjectId,PCM1863,50434d31-3836-4332-9e6b-696361645f70,rev?*
G04 #@! TF.SameCoordinates,Original*
G04 #@! TF.FileFunction,Copper,L2,Bot*
G04 #@! TF.FilePolarity,Positive*
%FSLAX46Y46*%
G04 Gerber Fmt 4.6, Leading zero omitted, Abs format (unit mm)*
G04 Created by KiCad (PCBNEW 7.0.1) date 2023-05-20 00:25:49*
%MOMM*%
%LPD*%
G01*
G04 APERTURE LIST*
G04 #@! TA.AperFunction,ComponentPad*
%ADD10O,1.700000X1.700000*%
G04 #@! TD*
G04 #@! TA.AperFunction,ComponentPad*
%ADD11R,1.700000X1.700000*%
G04 #@! TD*
G04 #@! TA.AperFunction,ViaPad*
%ADD12C,1.000000*%
G04 #@! TD*
G04 #@! TA.AperFunction,Conductor*
%ADD13C,1.000000*%
G04 #@! TD*
G04 APERTURE END LIST*
D10*
G04 #@! TO.P,J6,10,Pin_10*
G04 #@! TO.N,+3.3VA*
X180335000Y-134850000D03*
G04 #@! TO.P,J6,9,Pin_9*
G04 #@! TO.N,GNDD*
X182875000Y-134850000D03*
G04 #@! TO.P,J6,8,Pin_8*
G04 #@! TO.N,+1V8*
X185415000Y-134850000D03*
G04 #@! TO.P,J6,7,Pin_7*
G04 #@! TO.N,GNDD*
X187955000Y-134850000D03*
G04 #@! TO.P,J6,6,Pin_6*
G04 #@! TO.N,VCC*
X190495000Y-134850000D03*
G04 #@! TO.P,J6,5,Pin_5*
G04 #@! TO.N,GNDD*
X193035000Y-134850000D03*
G04 #@! TO.P,J6,4,Pin_4*
G04 #@! TO.N,/VREF*
X195575000Y-134850000D03*
G04 #@! TO.P,J6,3,Pin_3*
G04 #@! TO.N,GNDA*
X198115000Y-134850000D03*
G04 #@! TO.P,J6,2,Pin_2*
G04 #@! TO.N,+3V3*
X200655000Y-134850000D03*
D11*
G04 #@! TO.P,J6,1,Pin_1*
G04 #@! TO.N,GNDD*
X203195000Y-134850000D03*
G04 #@! TD*
D10*
G04 #@! TO.P,J4,4,Pin_4*
G04 #@! TO.N,/INT{slash}GPIO3{slash}INTC*
X210820000Y-75160000D03*
G04 #@! TO.P,J4,3,Pin_3*
G04 #@! TO.N,/MD6{slash}GPIO2{slash}INTB{slash}DMCLK*
X210820000Y-72620000D03*
G04 #@! TO.P,J4,2,Pin_2*
G04 #@! TO.N,/MD5{slash}GPIO1{slash}INTA{slash}DMIN*
X210820000Y-70080000D03*
D11*
G04 #@! TO.P,J4,1,Pin_1*
G04 #@! TO.N,/MD4{slash}MISO{slash}GPIO0*
X210820000Y-67540000D03*
G04 #@! TD*
D10*
G04 #@! TO.P,J3,4,Pin_4*
G04 #@! TO.N,/DOUT2{slash}MD2{slash}MOSI{slash}SDA*
X210820000Y-61962000D03*
G04 #@! TO.P,J3,3,Pin_3*
G04 #@! TO.N,/MD3{slash}MC{slash}SCL*
X210820000Y-59422000D03*
G04 #@! TO.P,J3,2,Pin_2*
G04 #@! TO.N,/MD1{slash}MS{slash}AD*
X210820000Y-56882000D03*
D11*
G04 #@! TO.P,J3,1,Pin_1*
G04 #@! TO.N,/MDO*
X210820000Y-54342000D03*
G04 #@! TD*
D10*
G04 #@! TO.P,J2,4,Pin_4*
G04 #@! TO.N,/SCKI(3.3V)*
X210820000Y-88505000D03*
G04 #@! TO.P,J2,3,Pin_3*
G04 #@! TO.N,/BCK*
X210820000Y-85965000D03*
G04 #@! TO.P,J2,2,Pin_2*
G04 #@! TO.N,/LRCK*
X210820000Y-83425000D03*
D11*
G04 #@! TO.P,J2,1,Pin_1*
G04 #@! TO.N,/DOUT*
X210820000Y-80885000D03*
G04 #@! TD*
D10*
G04 #@! TO.P,J1,4,Pin_4*
G04 #@! TO.N,/VINR1*
X189230000Y-38330000D03*
G04 #@! TO.P,J1,3,Pin_3*
G04 #@! TO.N,/VIN1P*
X191770000Y-38330000D03*
G04 #@! TO.P,J1,2,Pin_2*
G04 #@! TO.N,/VIN1M*
X194310000Y-38330000D03*
D11*
G04 #@! TO.P,J1,1,Pin_1*
G04 #@! TO.N,/VIN1P*
X196850000Y-38330000D03*
G04 #@! TD*
D12*
G04 #@! TO.N,GNDA*
X208280000Y-51665000D03*
X179070000Y-47855000D03*
X183515000Y-52300000D03*
X180975000Y-52300000D03*
G04 #@! TO.N,GNDD*
X177800000Y-58015000D03*
X176530000Y-59920000D03*
X179705000Y-72620000D03*
X177800000Y-70715000D03*
X178435000Y-65635000D03*
X180975000Y-65635000D03*
X183515000Y-65635000D03*
X186055000Y-65000000D03*
X186690000Y-66905000D03*
G04 #@! TO.N,GNDA*
X169545000Y-54840000D03*
X172085000Y-51030000D03*
X174625000Y-47220000D03*
X170815000Y-45950000D03*
X170815000Y-41505000D03*
X175260000Y-43410000D03*
X175895000Y-38965000D03*
X172720000Y-37060000D03*
X177165000Y-34520000D03*
X180975000Y-33250000D03*
X179705000Y-37060000D03*
X179070000Y-40870000D03*
X186690000Y-47220000D03*
X184150000Y-43410000D03*
X182880000Y-40235000D03*
X183515000Y-35790000D03*
X186055000Y-32615000D03*
X191135000Y-32615000D03*
X194945000Y-32615000D03*
X199390000Y-32615000D03*
X216535000Y-71985000D03*
X214630000Y-70080000D03*
X216535000Y-67540000D03*
X214630000Y-65000000D03*
X216535000Y-61825000D03*
X214630000Y-58650000D03*
X216535000Y-56110000D03*
X214630000Y-53570000D03*
G04 #@! TO.N,GNDD*
X202565000Y-70715000D03*
X205740000Y-73890000D03*
X208280000Y-76430000D03*
X211455000Y-78335000D03*
X210820000Y-92305000D03*
X210820000Y-97385000D03*
X210820000Y-102465000D03*
X210820000Y-106275000D03*
G04 #@! TO.N,GNDA*
X180975000Y-113895000D03*
G04 #@! TO.N,GNDD*
X193675000Y-92940000D03*
X193675000Y-95480000D03*
X193675000Y-98020000D03*
X193675000Y-101195000D03*
X193675000Y-104370000D03*
X193675000Y-107545000D03*
X193675000Y-110720000D03*
X193675000Y-113895000D03*
X193675000Y-117705000D03*
X187960000Y-129770000D03*
X189230000Y-127865000D03*
X187960000Y-125325000D03*
X191135000Y-121515000D03*
X193675000Y-120880000D03*
X193675000Y-124055000D03*
X193675000Y-127230000D03*
X193675000Y-130405000D03*
X204470000Y-137390000D03*
G04 #@! TO.N,GNDA*
X198755000Y-55475000D03*
X194945000Y-59285000D03*
X209550000Y-48490000D03*
X211455000Y-49760000D03*
X214630000Y-49760000D03*
X215900000Y-47220000D03*
X215900000Y-42775000D03*
X215900000Y-39600000D03*
X212090000Y-35790000D03*
X208915000Y-33885000D03*
X203835000Y-32615000D03*
X205740000Y-35790000D03*
X201295000Y-35790000D03*
X203835000Y-38965000D03*
X199390000Y-39600000D03*
X200660000Y-42140000D03*
X194945000Y-42140000D03*
X196850000Y-45315000D03*
X194945000Y-44680000D03*
X194945000Y-47855000D03*
X194945000Y-50395000D03*
X194945000Y-52935000D03*
X191135000Y-48490000D03*
X191135000Y-51030000D03*
X191135000Y-53570000D03*
X191135000Y-56110000D03*
X190500000Y-45950000D03*
X189230000Y-43410000D03*
X190500000Y-40870000D03*
G04 #@! TO.N,GNDD*
X194310000Y-63730000D03*
X194310000Y-66270000D03*
X194310000Y-68810000D03*
X210820000Y-114530000D03*
X207010000Y-114530000D03*
G04 #@! TO.N,GNDA*
X182880000Y-114530000D03*
G04 #@! TO.N,GNDD*
X194310000Y-76430000D03*
G04 #@! TO.N,GNDA*
X179070000Y-44680000D03*
X213360000Y-47220000D03*
X197485000Y-47220000D03*
X181610000Y-115800000D03*
G04 #@! TO.N,GNDD*
X210820000Y-108180000D03*
G04 #@! TO.N,/VREF*
X175641000Y-71350000D03*
X173101000Y-56110000D03*
G04 #@! TD*
D13*
G04 #@! TO.N,/VREF*
X173101000Y-68810000D02*
X175641000Y-71350000D01*
X173101000Y-56110000D02*
X173101000Y-68810000D01*
G04 #@! TD*
G04 #@! TA.AperFunction,Conductor*
G04 #@! TO.N,GNDD*
G36*
X184088000Y-56126613D02*
G01*
X184133387Y-56172000D01*
X184150000Y-56234000D01*
X184150000Y-62460000D01*
X198120000Y-62460000D01*
X198755000Y-62460000D01*
X209473983Y-62460000D01*
X209520645Y-62469115D01*
X209560448Y-62495119D01*
X209587539Y-62534190D01*
X209621138Y-62610788D01*
X209621140Y-62610791D01*
X209744278Y-62799268D01*
X209896760Y-62964906D01*
X210074424Y-63103189D01*
X210272426Y-63210342D01*
X210485365Y-63283444D01*
X210707431Y-63320500D01*
X210932569Y-63320500D01*
X211154635Y-63283444D01*
X211367574Y-63210342D01*
X211565576Y-63103189D01*
X211743240Y-62964906D01*
X211895722Y-62799268D01*
X212018860Y-62610791D01*
X212030143Y-62585068D01*
X212052461Y-62534190D01*
X212079552Y-62495119D01*
X212119355Y-62469115D01*
X212166017Y-62460000D01*
X212599927Y-62460000D01*
X212662235Y-62476791D01*
X212707669Y-62522618D01*
X212723921Y-62585068D01*
X212093209Y-135747824D01*
X212091060Y-135997069D01*
X212074094Y-136058616D01*
X212028756Y-136103565D01*
X211967065Y-136120000D01*
X209550000Y-136120000D01*
X209550000Y-138536000D01*
X209533387Y-138598000D01*
X209488000Y-138643387D01*
X209426000Y-138660000D01*
X202054000Y-138660000D01*
X201992000Y-138643387D01*
X201946613Y-138598000D01*
X201930000Y-138536000D01*
X201930000Y-136257454D01*
X201944124Y-136199979D01*
X201983280Y-136155598D01*
X202038547Y-136134421D01*
X202097334Y-136141272D01*
X202237624Y-136193597D01*
X202297176Y-136200000D01*
X202945000Y-136200000D01*
X202945000Y-135100000D01*
X203445000Y-135100000D01*
X203445000Y-136200000D01*
X204092824Y-136200000D01*
X204152375Y-136193597D01*
X204287089Y-136143352D01*
X204402188Y-136057188D01*
X204488352Y-135942089D01*
X204538597Y-135807375D01*
X204545000Y-135747824D01*
X204545000Y-135100000D01*
X203445000Y-135100000D01*
X202945000Y-135100000D01*
X202945000Y-133500000D01*
X203445000Y-133500000D01*
X203445000Y-134600000D01*
X204545000Y-134600000D01*
X204545000Y-133952176D01*
X204538597Y-133892624D01*
X204488352Y-133757910D01*
X204402188Y-133642811D01*
X204287089Y-133556647D01*
X204152375Y-133506402D01*
X204092824Y-133500000D01*
X203445000Y-133500000D01*
X202945000Y-133500000D01*
X202297176Y-133500000D01*
X202237624Y-133506402D01*
X202097334Y-133558728D01*
X202038547Y-133565579D01*
X201983280Y-133544402D01*
X201944124Y-133500021D01*
X201930000Y-133442546D01*
X201930000Y-131040000D01*
X186814000Y-131040000D01*
X186752000Y-131023387D01*
X186706613Y-130978000D01*
X186690000Y-130916000D01*
X186690000Y-119734000D01*
X186706613Y-119672000D01*
X186752000Y-119626613D01*
X186814000Y-119610000D01*
X193040000Y-119610000D01*
X193040000Y-103100000D01*
X175384000Y-103100000D01*
X175322000Y-103083387D01*
X175276613Y-103038000D01*
X175260000Y-102976000D01*
X175260000Y-88504999D01*
X209456843Y-88504999D01*
X209475435Y-88729363D01*
X209530705Y-88947618D01*
X209621138Y-89153788D01*
X209621140Y-89153791D01*
X209744278Y-89342268D01*
X209896760Y-89507906D01*
X210074424Y-89646189D01*
X210272426Y-89753342D01*
X210485365Y-89826444D01*
X210707431Y-89863500D01*
X210932569Y-89863500D01*
X211154635Y-89826444D01*
X211367574Y-89753342D01*
X211565576Y-89646189D01*
X211743240Y-89507906D01*
X211895722Y-89342268D01*
X212018860Y-89153791D01*
X212109296Y-88947616D01*
X212164564Y-88729368D01*
X212183156Y-88505000D01*
X212164564Y-88280632D01*
X212109296Y-88062384D01*
X212018860Y-87856209D01*
X211895722Y-87667732D01*
X211743240Y-87502094D01*
X211565576Y-87363811D01*
X211529067Y-87344053D01*
X211481563Y-87298474D01*
X211464086Y-87235000D01*
X211481563Y-87171526D01*
X211529067Y-87125946D01*
X211565576Y-87106189D01*
X211743240Y-86967906D01*
X211895722Y-86802268D01*
X212018860Y-86613791D01*
X212109296Y-86407616D01*
X212164564Y-86189368D01*
X212183156Y-85965000D01*
X212164564Y-85740632D01*
X212109296Y-85522384D01*
X212018860Y-85316209D01*
X211895722Y-85127732D01*
X211743240Y-84962094D01*
X211565576Y-84823811D01*
X211529067Y-84804053D01*
X211481563Y-84758474D01*
X211464086Y-84695000D01*
X211481563Y-84631526D01*
X211529067Y-84585946D01*
X211565576Y-84566189D01*
X211743240Y-84427906D01*
X211895722Y-84262268D01*
X212018860Y-84073791D01*
X212109296Y-83867616D01*
X212164564Y-83649368D01*
X212183156Y-83425000D01*
X212164564Y-83200632D01*
X212109296Y-82982384D01*
X212018860Y-82776209D01*
X211895722Y-82587732D01*
X211895721Y-82587731D01*
X211895718Y-82587726D01*
X211750510Y-82429990D01*
X211721736Y-82377238D01*
X211721143Y-82317151D01*
X211748870Y-82263840D01*
X211798401Y-82229827D01*
X211916204Y-82185889D01*
X212033261Y-82098261D01*
X212120889Y-81981204D01*
X212171989Y-81844201D01*
X212178500Y-81783638D01*
X212178500Y-79986362D01*
X212171989Y-79925799D01*
X212171988Y-79925797D01*
X212171988Y-79925794D01*
X212120889Y-79788796D01*
X212033261Y-79671738D01*
X211916203Y-79584110D01*
X211779205Y-79533011D01*
X211748919Y-79529755D01*
X211718638Y-79526500D01*
X209921362Y-79526500D01*
X209894445Y-79529393D01*
X209860794Y-79533011D01*
X209723796Y-79584110D01*
X209606738Y-79671738D01*
X209519110Y-79788796D01*
X209468011Y-79925794D01*
X209461500Y-79986366D01*
X209461500Y-81783634D01*
X209468011Y-81844205D01*
X209519110Y-81981203D01*
X209606738Y-82098261D01*
X209723793Y-82185887D01*
X209723796Y-82185889D01*
X209841596Y-82229826D01*
X209891129Y-82263840D01*
X209918856Y-82317151D01*
X209918263Y-82377237D01*
X209889490Y-82429990D01*
X209744279Y-82587730D01*
X209621138Y-82776211D01*
X209530705Y-82982381D01*
X209475435Y-83200636D01*
X209456843Y-83425000D01*
X209475435Y-83649363D01*
X209530705Y-83867618D01*
X209621138Y-84073788D01*
X209621140Y-84073791D01*
X209744278Y-84262268D01*
X209896760Y-84427906D01*
X210074424Y-84566189D01*
X210074426Y-84566190D01*
X210110931Y-84585946D01*
X210158436Y-84631527D01*
X210175913Y-84695000D01*
X210158436Y-84758473D01*
X210110931Y-84804054D01*
X210074426Y-84823809D01*
X209896760Y-84962094D01*
X209744279Y-85127730D01*
X209621138Y-85316211D01*
X209530705Y-85522381D01*
X209475435Y-85740636D01*
X209456843Y-85964999D01*
X209475435Y-86189363D01*
X209530705Y-86407618D01*
X209621138Y-86613788D01*
X209621140Y-86613791D01*
X209744278Y-86802268D01*
X209896760Y-86967906D01*
X210074424Y-87106189D01*
X210074426Y-87106190D01*
X210110931Y-87125946D01*
X210158436Y-87171527D01*
X210175913Y-87235000D01*
X210158436Y-87298473D01*
X210110931Y-87344054D01*
X210074426Y-87363809D01*
X209896760Y-87502094D01*
X209744279Y-87667730D01*
X209621138Y-87856211D01*
X209530705Y-88062381D01*
X209475435Y-88280636D01*
X209456843Y-88504999D01*
X175260000Y-88504999D01*
X175260000Y-75160000D01*
X209456843Y-75160000D01*
X209475435Y-75384363D01*
X209530705Y-75602618D01*
X209621138Y-75808788D01*
X209621140Y-75808791D01*
X209744278Y-75997268D01*
X209896760Y-76162906D01*
X210074424Y-76301189D01*
X210272426Y-76408342D01*
X210485365Y-76481444D01*
X210707431Y-76518500D01*
X210932569Y-76518500D01*
X211154635Y-76481444D01*
X211367574Y-76408342D01*
X211565576Y-76301189D01*
X211743240Y-76162906D01*
X211895722Y-75997268D01*
X212018860Y-75808791D01*
X212109296Y-75602616D01*
X212164564Y-75384368D01*
X212183156Y-75160000D01*
X212164564Y-74935632D01*
X212109296Y-74717384D01*
X212018860Y-74511209D01*
X211895722Y-74322732D01*
X211743240Y-74157094D01*
X211565576Y-74018811D01*
X211529067Y-73999053D01*
X211481563Y-73953474D01*
X211464086Y-73890000D01*
X211481563Y-73826526D01*
X211529067Y-73780946D01*
X211565576Y-73761189D01*
X211743240Y-73622906D01*
X211895722Y-73457268D01*
X212018860Y-73268791D01*
X212109296Y-73062616D01*
X212164564Y-72844368D01*
X212183156Y-72620000D01*
X212164564Y-72395632D01*
X212109296Y-72177384D01*
X212018860Y-71971209D01*
X211895722Y-71782732D01*
X211743240Y-71617094D01*
X211565576Y-71478811D01*
X211529067Y-71459053D01*
X211481563Y-71413474D01*
X211464086Y-71350000D01*
X211481563Y-71286526D01*
X211529067Y-71240946D01*
X211565576Y-71221189D01*
X211743240Y-71082906D01*
X211895722Y-70917268D01*
X212018860Y-70728791D01*
X212109296Y-70522616D01*
X212164564Y-70304368D01*
X212183156Y-70080000D01*
X212164564Y-69855632D01*
X212109296Y-69637384D01*
X212018860Y-69431209D01*
X211895722Y-69242732D01*
X211895721Y-69242731D01*
X211895718Y-69242726D01*
X211750510Y-69084990D01*
X211721736Y-69032238D01*
X211721143Y-68972151D01*
X211748870Y-68918840D01*
X211798401Y-68884827D01*
X211916204Y-68840889D01*
X212033261Y-68753261D01*
X212120889Y-68636204D01*
X212171989Y-68499201D01*
X212178500Y-68438638D01*
X212178500Y-66641362D01*
X212171989Y-66580799D01*
X212171988Y-66580797D01*
X212171988Y-66580794D01*
X212120889Y-66443796D01*
X212033261Y-66326738D01*
X211916203Y-66239110D01*
X211779205Y-66188011D01*
X211748919Y-66184755D01*
X211718638Y-66181500D01*
X209921362Y-66181500D01*
X209894445Y-66184393D01*
X209860794Y-66188011D01*
X209723796Y-66239110D01*
X209606738Y-66326738D01*
X209519110Y-66443796D01*
X209468011Y-66580794D01*
X209461500Y-66641366D01*
X209461500Y-68438634D01*
X209468011Y-68499205D01*
X209519110Y-68636203D01*
X209606738Y-68753261D01*
X209682533Y-68810000D01*
X209723796Y-68840889D01*
X209841596Y-68884826D01*
X209891129Y-68918840D01*
X209918856Y-68972151D01*
X209918263Y-69032237D01*
X209889490Y-69084990D01*
X209744279Y-69242730D01*
X209621138Y-69431211D01*
X209530705Y-69637381D01*
X209475435Y-69855636D01*
X209456843Y-70080000D01*
X209475435Y-70304363D01*
X209530705Y-70522618D01*
X209621138Y-70728788D01*
X209621140Y-70728791D01*
X209744278Y-70917268D01*
X209896760Y-71082906D01*
X210074424Y-71221189D01*
X210074426Y-71221190D01*
X210110931Y-71240946D01*
X210158436Y-71286527D01*
X210175913Y-71350000D01*
X210158436Y-71413473D01*
X210110931Y-71459054D01*
X210074426Y-71478809D01*
X209896760Y-71617094D01*
X209744279Y-71782730D01*
X209621138Y-71971211D01*
X209530705Y-72177381D01*
X209530704Y-72177384D01*
X209488535Y-72343907D01*
X209475435Y-72395636D01*
X209456843Y-72619999D01*
X209475435Y-72844363D01*
X209530705Y-73062618D01*
X209621138Y-73268788D01*
X209621140Y-73268791D01*
X209744278Y-73457268D01*
X209896760Y-73622906D01*
X210074424Y-73761189D01*
X210074426Y-73761190D01*
X210110931Y-73780946D01*
X210158436Y-73826527D01*
X210175913Y-73890000D01*
X210158436Y-73953473D01*
X210110931Y-73999054D01*
X210074426Y-74018809D01*
X209896760Y-74157094D01*
X209744279Y-74322730D01*
X209621138Y-74511211D01*
X209530705Y-74717381D01*
X209475435Y-74935636D01*
X209456843Y-75160000D01*
X175260000Y-75160000D01*
X175260000Y-72455500D01*
X175273240Y-72399748D01*
X175310133Y-72355903D01*
X175362800Y-72333326D01*
X175419994Y-72336839D01*
X175429505Y-72339723D01*
X175443299Y-72343908D01*
X175641000Y-72363380D01*
X175838701Y-72343908D01*
X176028804Y-72286241D01*
X176204004Y-72192595D01*
X176357568Y-72066568D01*
X176483595Y-71913004D01*
X176577241Y-71737804D01*
X176634908Y-71547701D01*
X176654380Y-71350000D01*
X176634908Y-71152299D01*
X176577241Y-70962196D01*
X176483595Y-70786996D01*
X176357568Y-70633432D01*
X176323784Y-70605706D01*
X176314769Y-70597535D01*
X175296319Y-69579085D01*
X175269439Y-69538857D01*
X175260000Y-69491404D01*
X175260000Y-56234000D01*
X175276613Y-56172000D01*
X175322000Y-56126613D01*
X175384000Y-56110000D01*
X184026000Y-56110000D01*
X184088000Y-56126613D01*
G37*
G04 #@! TD.AperFunction*
G04 #@! TD*
G04 #@! TA.AperFunction,Conductor*
G04 #@! TO.N,GNDA*
G36*
X205741661Y-31010545D02*
G01*
X206407952Y-31028594D01*
X206414643Y-31028957D01*
X207077284Y-31082914D01*
X207083938Y-31083637D01*
X207742725Y-31173396D01*
X207749297Y-31174474D01*
X208402223Y-31299759D01*
X208408763Y-31301198D01*
X209053980Y-31461656D01*
X209060418Y-31463444D01*
X209695980Y-31658593D01*
X209702310Y-31660725D01*
X210326389Y-31889999D01*
X210332604Y-31892476D01*
X210943341Y-32155197D01*
X210949416Y-32158007D01*
X211542185Y-32451993D01*
X211545028Y-32453403D01*
X211550929Y-32456531D01*
X212129720Y-32783765D01*
X212135431Y-32787202D01*
X212695628Y-33145273D01*
X212701146Y-33149014D01*
X213028685Y-33384285D01*
X213241130Y-33536885D01*
X213246476Y-33540949D01*
X213764635Y-33957457D01*
X213769754Y-33961804D01*
X214264640Y-34405786D01*
X214269515Y-34410405D01*
X214739594Y-34880484D01*
X214744213Y-34885359D01*
X215188195Y-35380245D01*
X215192542Y-35385364D01*
X215609050Y-35903523D01*
X215613114Y-35908869D01*
X215848371Y-36236388D01*
X216000979Y-36448845D01*
X216004740Y-36454392D01*
X216362792Y-37014560D01*
X216366241Y-37020290D01*
X216693461Y-37599057D01*
X216696596Y-37604971D01*
X216991987Y-38200573D01*
X216994807Y-38206668D01*
X217257518Y-38817383D01*
X217260004Y-38823622D01*
X217489268Y-39447672D01*
X217491412Y-39454036D01*
X217686550Y-40089565D01*
X217688347Y-40096036D01*
X217848799Y-40741227D01*
X217850242Y-40747786D01*
X217975520Y-41400675D01*
X217976607Y-41407302D01*
X218066360Y-42066050D01*
X218067086Y-42072726D01*
X218121041Y-42735349D01*
X218121405Y-42742055D01*
X218139455Y-43408339D01*
X218139500Y-43411697D01*
X218139500Y-130008303D01*
X218139455Y-130011661D01*
X218121405Y-130677944D01*
X218121041Y-130684650D01*
X218067086Y-131347273D01*
X218066360Y-131353949D01*
X217976607Y-132012697D01*
X217975520Y-132019324D01*
X217850242Y-132672213D01*
X217848799Y-132678772D01*
X217688347Y-133323963D01*
X217686550Y-133330434D01*
X217491412Y-133965963D01*
X217489268Y-133972327D01*
X217260004Y-134596377D01*
X217257518Y-134602616D01*
X216994807Y-135213331D01*
X216991987Y-135219426D01*
X216696596Y-135815028D01*
X216693452Y-135820957D01*
X216404240Y-136332500D01*
X216366255Y-136399685D01*
X216362792Y-136405439D01*
X216004740Y-136965607D01*
X216000971Y-136971166D01*
X215613114Y-137511130D01*
X215609050Y-137516476D01*
X215192542Y-138034635D01*
X215188195Y-138039754D01*
X214744213Y-138534640D01*
X214739594Y-138539515D01*
X214269515Y-139009594D01*
X214264640Y-139014213D01*
X213769754Y-139458195D01*
X213764635Y-139462542D01*
X213246476Y-139879050D01*
X213241130Y-139883114D01*
X212701166Y-140270971D01*
X212695607Y-140274740D01*
X212135439Y-140632792D01*
X212129685Y-140636255D01*
X211550961Y-140963451D01*
X211545028Y-140966596D01*
X210949426Y-141261987D01*
X210943331Y-141264807D01*
X210332616Y-141527518D01*
X210326377Y-141530004D01*
X209702327Y-141759268D01*
X209695963Y-141761412D01*
X209060434Y-141956550D01*
X209053963Y-141958347D01*
X208408772Y-142118799D01*
X208402213Y-142120242D01*
X207749324Y-142245520D01*
X207742697Y-142246607D01*
X207083949Y-142336360D01*
X207077273Y-142337086D01*
X206414650Y-142391041D01*
X206407944Y-142391405D01*
X205741661Y-142409455D01*
X205738303Y-142409500D01*
X180341697Y-142409500D01*
X180338339Y-142409455D01*
X179672055Y-142391405D01*
X179665349Y-142391041D01*
X179002726Y-142337086D01*
X178996050Y-142336360D01*
X178337302Y-142246607D01*
X178330675Y-142245520D01*
X177677786Y-142120242D01*
X177671227Y-142118799D01*
X177026036Y-141958347D01*
X177019565Y-141956550D01*
X176384036Y-141761412D01*
X176377672Y-141759268D01*
X175753622Y-141530004D01*
X175747383Y-141527518D01*
X175136668Y-141264807D01*
X175130573Y-141261987D01*
X174534971Y-140966596D01*
X174529057Y-140963461D01*
X173950290Y-140636241D01*
X173944560Y-140632792D01*
X173845647Y-140569568D01*
X173384380Y-140274731D01*
X173378845Y-140270979D01*
X172904142Y-139930000D01*
X172838869Y-139883114D01*
X172833523Y-139879050D01*
X172315364Y-139462542D01*
X172310245Y-139458195D01*
X171815359Y-139014213D01*
X171810484Y-139009594D01*
X171340405Y-138539515D01*
X171335786Y-138534640D01*
X170891804Y-138039754D01*
X170887457Y-138034635D01*
X170470949Y-137516476D01*
X170466885Y-137511130D01*
X170237868Y-137192299D01*
X170079014Y-136971146D01*
X170075273Y-136965628D01*
X169717202Y-136405431D01*
X169713765Y-136399720D01*
X169386531Y-135820929D01*
X169383403Y-135815028D01*
X169336809Y-135721080D01*
X169088007Y-135219416D01*
X169085192Y-135213331D01*
X168928898Y-134850000D01*
X178971843Y-134850000D01*
X178990435Y-135074363D01*
X178990435Y-135074366D01*
X178990436Y-135074368D01*
X179026407Y-135216415D01*
X179045705Y-135292618D01*
X179136138Y-135498788D01*
X179136140Y-135498791D01*
X179259278Y-135687268D01*
X179411760Y-135852906D01*
X179589424Y-135991189D01*
X179787426Y-136098342D01*
X180000365Y-136171444D01*
X180222431Y-136208500D01*
X180447569Y-136208500D01*
X180669635Y-136171444D01*
X180882574Y-136098342D01*
X181080576Y-135991189D01*
X181258240Y-135852906D01*
X181410722Y-135687268D01*
X181501190Y-135548795D01*
X181545982Y-135507561D01*
X181605000Y-135492616D01*
X181664018Y-135507561D01*
X181708809Y-135548795D01*
X181799278Y-135687268D01*
X181951760Y-135852906D01*
X182129424Y-135991189D01*
X182327426Y-136098342D01*
X182540365Y-136171444D01*
X182762431Y-136208500D01*
X182987569Y-136208500D01*
X183209635Y-136171444D01*
X183422574Y-136098342D01*
X183620576Y-135991189D01*
X183798240Y-135852906D01*
X183950722Y-135687268D01*
X184041190Y-135548795D01*
X184085982Y-135507561D01*
X184145000Y-135492616D01*
X184204018Y-135507561D01*
X184248809Y-135548795D01*
X184339278Y-135687268D01*
X184491760Y-135852906D01*
X184669424Y-135991189D01*
X184867426Y-136098342D01*
X185080365Y-136171444D01*
X185302431Y-136208500D01*
X185527569Y-136208500D01*
X185749635Y-136171444D01*
X185962574Y-136098342D01*
X186160576Y-135991189D01*
X186338240Y-135852906D01*
X186490722Y-135687268D01*
X186581190Y-135548795D01*
X186625982Y-135507561D01*
X186685000Y-135492616D01*
X186744018Y-135507561D01*
X186788809Y-135548795D01*
X186879278Y-135687268D01*
X187031760Y-135852906D01*
X187209424Y-135991189D01*
X187407426Y-136098342D01*
X187620365Y-136171444D01*
X187842431Y-136208500D01*
X188067569Y-136208500D01*
X188289635Y-136171444D01*
X188502574Y-136098342D01*
X188700576Y-135991189D01*
X188878240Y-135852906D01*
X189030722Y-135687268D01*
X189121190Y-135548795D01*
X189165982Y-135507561D01*
X189225000Y-135492616D01*
X189284018Y-135507561D01*
X189328809Y-135548795D01*
X189419278Y-135687268D01*
X189571760Y-135852906D01*
X189749424Y-135991189D01*
X189947426Y-136098342D01*
X190160365Y-136171444D01*
X190382431Y-136208500D01*
X190607569Y-136208500D01*
X190829635Y-136171444D01*
X191042574Y-136098342D01*
X191240576Y-135991189D01*
X191418240Y-135852906D01*
X191570722Y-135687268D01*
X191661190Y-135548795D01*
X191705982Y-135507561D01*
X191765000Y-135492616D01*
X191824018Y-135507561D01*
X191868809Y-135548795D01*
X191959278Y-135687268D01*
X192111760Y-135852906D01*
X192289424Y-135991189D01*
X192487426Y-136098342D01*
X192700365Y-136171444D01*
X192922431Y-136208500D01*
X193147569Y-136208500D01*
X193369635Y-136171444D01*
X193582574Y-136098342D01*
X193780576Y-135991189D01*
X193958240Y-135852906D01*
X194110722Y-135687268D01*
X194201190Y-135548795D01*
X194245982Y-135507561D01*
X194305000Y-135492616D01*
X194364018Y-135507561D01*
X194408809Y-135548795D01*
X194499278Y-135687268D01*
X194651760Y-135852906D01*
X194829424Y-135991189D01*
X195027426Y-136098342D01*
X195240365Y-136171444D01*
X195462431Y-136208500D01*
X195687569Y-136208500D01*
X195909635Y-136171444D01*
X196122574Y-136098342D01*
X196320576Y-135991189D01*
X196498240Y-135852906D01*
X196650722Y-135687268D01*
X196744748Y-135543349D01*
X196788663Y-135502595D01*
X196846562Y-135487188D01*
X196904926Y-135500726D01*
X196950131Y-135540048D01*
X197076892Y-135721080D01*
X197243918Y-135888106D01*
X197437423Y-136023600D01*
X197651507Y-136123430D01*
X197864999Y-136180635D01*
X197865000Y-136180636D01*
X197865000Y-133519364D01*
X197864999Y-133519364D01*
X197651507Y-133576569D01*
X197437421Y-133676400D01*
X197243921Y-133811890D01*
X197076893Y-133978918D01*
X196950132Y-134159952D01*
X196904928Y-134199274D01*
X196846564Y-134212812D01*
X196788665Y-134197405D01*
X196744748Y-134156649D01*
X196650723Y-134012732D01*
X196574480Y-133929912D01*
X196498240Y-133847094D01*
X196320576Y-133708811D01*
X196122574Y-133601658D01*
X196122573Y-133601657D01*
X196122572Y-133601657D01*
X195909636Y-133528556D01*
X195687569Y-133491500D01*
X195462431Y-133491500D01*
X195240363Y-133528556D01*
X195027427Y-133601657D01*
X194829424Y-133708811D01*
X194651760Y-133847094D01*
X194499279Y-134012730D01*
X194408809Y-134151205D01*
X194364017Y-134192438D01*
X194305000Y-134207383D01*
X194245983Y-134192438D01*
X194201191Y-134151205D01*
X194110723Y-134012734D01*
X194110722Y-134012732D01*
X193958240Y-133847094D01*
X193780576Y-133708811D01*
X193582574Y-133601658D01*
X193582573Y-133601657D01*
X193582572Y-133601657D01*
X193369636Y-133528556D01*
X193147569Y-133491500D01*
X192922431Y-133491500D01*
X192700363Y-133528556D01*
X192487427Y-133601657D01*
X192289424Y-133708811D01*
X192111760Y-133847094D01*
X191959279Y-134012730D01*
X191868809Y-134151205D01*
X191824017Y-134192438D01*
X191765000Y-134207383D01*
X191705983Y-134192438D01*
X191661191Y-134151205D01*
X191570723Y-134012734D01*
X191570722Y-134012732D01*
X191418240Y-133847094D01*
X191240576Y-133708811D01*
X191042574Y-133601658D01*
X191042573Y-133601657D01*
X191042572Y-133601657D01*
X190829636Y-133528556D01*
X190607569Y-133491500D01*
X190382431Y-133491500D01*
X190160363Y-133528556D01*
X189947427Y-133601657D01*
X189749424Y-133708811D01*
X189571760Y-133847094D01*
X189419279Y-134012730D01*
X189328809Y-134151205D01*
X189284017Y-134192438D01*
X189225000Y-134207383D01*
X189165983Y-134192438D01*
X189121191Y-134151205D01*
X189030723Y-134012734D01*
X189030722Y-134012732D01*
X188878240Y-133847094D01*
X188700576Y-133708811D01*
X188502574Y-133601658D01*
X188502573Y-133601657D01*
X188502572Y-133601657D01*
X188289636Y-133528556D01*
X188067569Y-133491500D01*
X187842431Y-133491500D01*
X187620363Y-133528556D01*
X187407427Y-133601657D01*
X187209424Y-133708811D01*
X187031760Y-133847094D01*
X186879279Y-134012730D01*
X186788809Y-134151205D01*
X186744017Y-134192438D01*
X186685000Y-134207383D01*
X186625983Y-134192438D01*
X186581191Y-134151205D01*
X186490723Y-134012734D01*
X186490722Y-134012732D01*
X186338240Y-133847094D01*
X186160576Y-133708811D01*
X185962574Y-133601658D01*
X185962573Y-133601657D01*
X185962572Y-133601657D01*
X185749636Y-133528556D01*
X185527569Y-133491500D01*
X185302431Y-133491500D01*
X185080363Y-133528556D01*
X184867427Y-133601657D01*
X184669424Y-133708811D01*
X184491760Y-133847094D01*
X184339279Y-134012730D01*
X184248809Y-134151205D01*
X184204017Y-134192438D01*
X184145000Y-134207383D01*
X184085983Y-134192438D01*
X184041191Y-134151205D01*
X183950723Y-134012734D01*
X183950722Y-134012732D01*
X183798240Y-133847094D01*
X183620576Y-133708811D01*
X183422574Y-133601658D01*
X183422573Y-133601657D01*
X183422572Y-133601657D01*
X183209636Y-133528556D01*
X182987569Y-133491500D01*
X182762431Y-133491500D01*
X182540363Y-133528556D01*
X182327427Y-133601657D01*
X182129424Y-133708811D01*
X181951760Y-133847094D01*
X181799279Y-134012730D01*
X181708809Y-134151205D01*
X181664017Y-134192438D01*
X181605000Y-134207383D01*
X181545983Y-134192438D01*
X181501191Y-134151205D01*
X181410723Y-134012734D01*
X181410722Y-134012732D01*
X181258240Y-133847094D01*
X181080576Y-133708811D01*
X180882574Y-133601658D01*
X180882573Y-133601657D01*
X180882572Y-133601657D01*
X180669636Y-133528556D01*
X180447569Y-133491500D01*
X180222431Y-133491500D01*
X180000363Y-133528556D01*
X179787427Y-133601657D01*
X179589424Y-133708811D01*
X179411760Y-133847094D01*
X179259279Y-134012730D01*
X179136138Y-134201211D01*
X179065000Y-134363393D01*
X179045704Y-134407384D01*
X178997844Y-134596377D01*
X178990435Y-134625636D01*
X178971843Y-134850000D01*
X168928898Y-134850000D01*
X168822476Y-134602604D01*
X168819995Y-134596377D01*
X168750563Y-134407384D01*
X168590725Y-133972310D01*
X168588593Y-133965980D01*
X168393444Y-133330418D01*
X168391656Y-133323980D01*
X168231198Y-132678763D01*
X168229757Y-132672213D01*
X168104474Y-132019297D01*
X168103396Y-132012725D01*
X168013637Y-131353938D01*
X168012913Y-131347273D01*
X167982030Y-130968004D01*
X167958957Y-130684643D01*
X167958594Y-130677944D01*
X167940545Y-130011661D01*
X167940500Y-130008303D01*
X167940500Y-68809999D01*
X172087620Y-68809999D01*
X172107090Y-69007699D01*
X172164857Y-69198130D01*
X172166202Y-69200504D01*
X172258404Y-69373003D01*
X172384431Y-69526567D01*
X172418213Y-69554291D01*
X172427230Y-69562464D01*
X173953681Y-71088915D01*
X173980561Y-71129143D01*
X173990000Y-71176596D01*
X173990000Y-104370000D01*
X191646000Y-104370000D01*
X191708000Y-104386613D01*
X191753387Y-104432000D01*
X191770000Y-104494000D01*
X191770000Y-118216000D01*
X191753387Y-118278000D01*
X191708000Y-118323387D01*
X191646000Y-118340000D01*
X185420000Y-118340000D01*
X185420000Y-132310000D01*
X200536000Y-132310000D01*
X200598000Y-132326613D01*
X200643387Y-132372000D01*
X200660000Y-132434000D01*
X200660000Y-133367500D01*
X200643387Y-133429500D01*
X200598000Y-133474887D01*
X200552126Y-133487178D01*
X200552565Y-133489809D01*
X200320363Y-133528556D01*
X200107427Y-133601657D01*
X199909424Y-133708811D01*
X199731760Y-133847094D01*
X199579275Y-134012734D01*
X199485250Y-134156650D01*
X199441334Y-134197405D01*
X199383435Y-134212812D01*
X199325071Y-134199274D01*
X199279867Y-134159951D01*
X199153109Y-133978921D01*
X198986081Y-133811893D01*
X198792576Y-133676399D01*
X198578492Y-133576569D01*
X198365000Y-133519364D01*
X198365000Y-136180635D01*
X198578492Y-136123430D01*
X198792576Y-136023600D01*
X198986081Y-135888106D01*
X199153106Y-135721081D01*
X199279868Y-135540048D01*
X199325072Y-135500726D01*
X199383436Y-135487188D01*
X199441335Y-135502595D01*
X199485252Y-135543351D01*
X199579276Y-135687267D01*
X199661573Y-135776663D01*
X199731760Y-135852906D01*
X199909424Y-135991189D01*
X200107426Y-136098342D01*
X200320365Y-136171444D01*
X200542431Y-136208500D01*
X200552565Y-136210191D01*
X200552126Y-136212821D01*
X200598000Y-136225113D01*
X200643387Y-136270500D01*
X200660000Y-136332500D01*
X200660000Y-139930000D01*
X210820000Y-139930000D01*
X210820000Y-137514000D01*
X210836613Y-137452000D01*
X210882000Y-137406613D01*
X210944000Y-137390000D01*
X213360000Y-137390000D01*
X213360000Y-61190000D01*
X212005469Y-61190000D01*
X211946452Y-61175055D01*
X211901661Y-61133823D01*
X211895719Y-61124728D01*
X211743242Y-60959096D01*
X211743241Y-60959095D01*
X211743240Y-60959094D01*
X211565576Y-60820811D01*
X211529067Y-60801053D01*
X211481563Y-60755474D01*
X211464086Y-60692000D01*
X211481563Y-60628526D01*
X211529067Y-60582946D01*
X211565576Y-60563189D01*
X211743240Y-60424906D01*
X211895722Y-60259268D01*
X212018860Y-60070791D01*
X212109296Y-59864616D01*
X212164564Y-59646368D01*
X212183156Y-59422000D01*
X212164564Y-59197632D01*
X212109296Y-58979384D01*
X212018860Y-58773209D01*
X211895722Y-58584732D01*
X211743240Y-58419094D01*
X211565576Y-58280811D01*
X211529067Y-58261053D01*
X211481563Y-58215474D01*
X211464086Y-58152000D01*
X211481563Y-58088526D01*
X211529067Y-58042946D01*
X211565576Y-58023189D01*
X211743240Y-57884906D01*
X211895722Y-57719268D01*
X212018860Y-57530791D01*
X212109296Y-57324616D01*
X212164564Y-57106368D01*
X212183156Y-56882000D01*
X212164564Y-56657632D01*
X212109296Y-56439384D01*
X212018860Y-56233209D01*
X211895722Y-56044732D01*
X211895721Y-56044731D01*
X211895718Y-56044726D01*
X211750510Y-55886990D01*
X211721736Y-55834238D01*
X211721143Y-55774151D01*
X211748870Y-55720840D01*
X211798401Y-55686827D01*
X211916204Y-55642889D01*
X212033261Y-55555261D01*
X212120889Y-55438204D01*
X212146842Y-55368621D01*
X212171988Y-55301205D01*
X212171988Y-55301203D01*
X212171989Y-55301201D01*
X212178500Y-55240638D01*
X212178500Y-53443362D01*
X212171989Y-53382799D01*
X212171988Y-53382797D01*
X212171988Y-53382794D01*
X212120889Y-53245796D01*
X212033261Y-53128738D01*
X211916203Y-53041110D01*
X211779205Y-52990011D01*
X211748919Y-52986755D01*
X211718638Y-52983500D01*
X209921362Y-52983500D01*
X209894445Y-52986393D01*
X209860794Y-52990011D01*
X209723796Y-53041110D01*
X209606738Y-53128738D01*
X209519110Y-53245796D01*
X209468011Y-53382794D01*
X209461500Y-53443366D01*
X209461500Y-55240634D01*
X209468011Y-55301205D01*
X209519110Y-55438203D01*
X209606738Y-55555261D01*
X209723793Y-55642887D01*
X209723796Y-55642889D01*
X209841596Y-55686826D01*
X209891129Y-55720840D01*
X209918856Y-55774151D01*
X209918263Y-55834237D01*
X209889490Y-55886990D01*
X209744279Y-56044730D01*
X209621138Y-56233211D01*
X209530705Y-56439381D01*
X209475435Y-56657636D01*
X209456843Y-56882000D01*
X209475435Y-57106363D01*
X209475435Y-57106366D01*
X209475436Y-57106368D01*
X209524073Y-57298432D01*
X209530705Y-57324618D01*
X209621138Y-57530788D01*
X209621140Y-57530791D01*
X209744278Y-57719268D01*
X209896760Y-57884906D01*
X210074424Y-58023189D01*
X210074426Y-58023190D01*
X210110931Y-58042946D01*
X210158436Y-58088527D01*
X210175913Y-58152000D01*
X210158436Y-58215473D01*
X210110931Y-58261054D01*
X210074426Y-58280809D01*
X209896760Y-58419094D01*
X209744279Y-58584730D01*
X209621138Y-58773211D01*
X209530705Y-58979381D01*
X209530704Y-58979384D01*
X209518297Y-59028380D01*
X209475435Y-59197636D01*
X209456843Y-59421999D01*
X209475435Y-59646363D01*
X209475435Y-59646366D01*
X209475436Y-59646368D01*
X209494664Y-59722299D01*
X209530705Y-59864618D01*
X209621138Y-60070788D01*
X209621140Y-60070791D01*
X209744278Y-60259268D01*
X209896760Y-60424906D01*
X210074424Y-60563189D01*
X210074426Y-60563190D01*
X210110931Y-60582946D01*
X210158436Y-60628527D01*
X210175913Y-60692000D01*
X210158436Y-60755473D01*
X210110931Y-60801054D01*
X210074426Y-60820809D01*
X209896757Y-60959096D01*
X209744280Y-61124728D01*
X209738339Y-61133823D01*
X209693548Y-61175055D01*
X209634531Y-61190000D01*
X185544000Y-61190000D01*
X185482000Y-61173387D01*
X185436613Y-61128000D01*
X185420000Y-61066000D01*
X185420000Y-54840000D01*
X173990000Y-54840000D01*
X173990000Y-55272768D01*
X173970762Y-55339108D01*
X173919017Y-55384863D01*
X173850821Y-55395835D01*
X173787336Y-55368621D01*
X173664004Y-55267405D01*
X173664003Y-55267404D01*
X173569390Y-55216833D01*
X173488804Y-55173759D01*
X173298701Y-55116092D01*
X173298698Y-55116091D01*
X173101000Y-55096620D01*
X172903301Y-55116091D01*
X172839931Y-55135314D01*
X172713196Y-55173759D01*
X172713192Y-55173760D01*
X172713192Y-55173761D01*
X172537996Y-55267404D01*
X172384432Y-55393432D01*
X172258404Y-55546996D01*
X172165484Y-55720840D01*
X172164759Y-55722196D01*
X172126314Y-55848931D01*
X172107091Y-55912301D01*
X172087620Y-56110000D01*
X172091903Y-56153486D01*
X172092500Y-56165640D01*
X172092500Y-68754358D01*
X172091903Y-68766512D01*
X172087620Y-68809999D01*
X167940500Y-68809999D01*
X167940500Y-43411697D01*
X167940545Y-43408339D01*
X167958594Y-42742055D01*
X167958958Y-42735349D01*
X168012914Y-42072711D01*
X168013639Y-42066050D01*
X168069741Y-41654289D01*
X168103397Y-41407268D01*
X168104473Y-41400708D01*
X168229760Y-40747768D01*
X168231200Y-40741227D01*
X168348057Y-40271336D01*
X168391659Y-40096009D01*
X168393441Y-40089591D01*
X168588596Y-39454007D01*
X168590721Y-39447700D01*
X168820004Y-38823597D01*
X168822471Y-38817408D01*
X169032139Y-38329999D01*
X187866843Y-38329999D01*
X187885435Y-38554363D01*
X187940705Y-38772618D01*
X188031138Y-38978788D01*
X188031140Y-38978791D01*
X188154278Y-39167268D01*
X188306760Y-39332906D01*
X188484424Y-39471189D01*
X188682426Y-39578342D01*
X188895365Y-39651444D01*
X189117431Y-39688500D01*
X189342569Y-39688500D01*
X189564635Y-39651444D01*
X189777574Y-39578342D01*
X189975576Y-39471189D01*
X190153240Y-39332906D01*
X190305722Y-39167268D01*
X190396190Y-39028795D01*
X190440982Y-38987561D01*
X190500000Y-38972616D01*
X190559018Y-38987561D01*
X190603809Y-39028795D01*
X190694278Y-39167268D01*
X190846760Y-39332906D01*
X191024424Y-39471189D01*
X191222426Y-39578342D01*
X191435365Y-39651444D01*
X191657431Y-39688500D01*
X191882569Y-39688500D01*
X192104635Y-39651444D01*
X192317574Y-39578342D01*
X192515576Y-39471189D01*
X192693240Y-39332906D01*
X192845722Y-39167268D01*
X192936190Y-39028795D01*
X192980982Y-38987561D01*
X193040000Y-38972616D01*
X193099018Y-38987561D01*
X193143809Y-39028795D01*
X193234278Y-39167268D01*
X193386760Y-39332906D01*
X193564424Y-39471189D01*
X193762426Y-39578342D01*
X193975365Y-39651444D01*
X194197431Y-39688500D01*
X194422569Y-39688500D01*
X194644635Y-39651444D01*
X194857574Y-39578342D01*
X195055576Y-39471189D01*
X195233240Y-39332906D01*
X195296452Y-39264239D01*
X195349073Y-39230387D01*
X195411528Y-39226539D01*
X195467909Y-39253676D01*
X195503861Y-39304889D01*
X195549110Y-39426204D01*
X195636738Y-39543261D01*
X195753796Y-39630889D01*
X195890794Y-39681988D01*
X195890797Y-39681988D01*
X195890799Y-39681989D01*
X195951362Y-39688500D01*
X197748634Y-39688500D01*
X197748638Y-39688500D01*
X197809201Y-39681989D01*
X197809203Y-39681988D01*
X197809205Y-39681988D01*
X197891097Y-39651443D01*
X197946204Y-39630889D01*
X198063261Y-39543261D01*
X198150889Y-39426204D01*
X198201989Y-39289201D01*
X198208500Y-39228638D01*
X198208500Y-37431362D01*
X198201989Y-37370799D01*
X198201988Y-37370797D01*
X198201988Y-37370794D01*
X198150889Y-37233796D01*
X198063261Y-37116738D01*
X197946203Y-37029110D01*
X197809205Y-36978011D01*
X197778919Y-36974755D01*
X197748638Y-36971500D01*
X195951362Y-36971500D01*
X195924445Y-36974393D01*
X195890794Y-36978011D01*
X195753796Y-37029110D01*
X195636738Y-37116738D01*
X195549110Y-37233796D01*
X195503861Y-37355110D01*
X195467909Y-37406323D01*
X195411528Y-37433460D01*
X195349074Y-37429612D01*
X195296451Y-37395758D01*
X195233242Y-37327096D01*
X195233241Y-37327095D01*
X195233240Y-37327094D01*
X195055576Y-37188811D01*
X194857574Y-37081658D01*
X194857573Y-37081657D01*
X194857572Y-37081657D01*
X194644636Y-37008556D01*
X194422569Y-36971500D01*
X194197431Y-36971500D01*
X193975363Y-37008556D01*
X193762427Y-37081657D01*
X193564424Y-37188811D01*
X193386760Y-37327094D01*
X193234279Y-37492730D01*
X193143809Y-37631205D01*
X193099017Y-37672438D01*
X193040000Y-37687383D01*
X192980983Y-37672438D01*
X192936191Y-37631205D01*
X192915175Y-37599038D01*
X192845722Y-37492732D01*
X192693240Y-37327094D01*
X192515576Y-37188811D01*
X192317574Y-37081658D01*
X192317573Y-37081657D01*
X192317572Y-37081657D01*
X192104636Y-37008556D01*
X191882569Y-36971500D01*
X191657431Y-36971500D01*
X191435363Y-37008556D01*
X191222427Y-37081657D01*
X191024424Y-37188811D01*
X190846760Y-37327094D01*
X190694279Y-37492730D01*
X190603809Y-37631205D01*
X190559017Y-37672438D01*
X190500000Y-37687383D01*
X190440983Y-37672438D01*
X190396191Y-37631205D01*
X190375175Y-37599038D01*
X190305722Y-37492732D01*
X190153240Y-37327094D01*
X189975576Y-37188811D01*
X189777574Y-37081658D01*
X189777573Y-37081657D01*
X189777572Y-37081657D01*
X189564636Y-37008556D01*
X189342569Y-36971500D01*
X189117431Y-36971500D01*
X188895363Y-37008556D01*
X188682427Y-37081657D01*
X188484424Y-37188811D01*
X188306760Y-37327094D01*
X188154279Y-37492730D01*
X188031138Y-37681211D01*
X187940705Y-37887381D01*
X187885435Y-38105636D01*
X187866843Y-38329999D01*
X169032139Y-38329999D01*
X169085203Y-38206643D01*
X169088000Y-38200597D01*
X169383412Y-37604952D01*
X169386522Y-37599085D01*
X169713774Y-37020263D01*
X169717192Y-37014584D01*
X170075284Y-36454354D01*
X170079002Y-36448870D01*
X170466888Y-35908864D01*
X170470949Y-35903523D01*
X170887474Y-35385343D01*
X170891786Y-35380265D01*
X171335803Y-34885340D01*
X171340386Y-34880503D01*
X171810503Y-34410386D01*
X171815340Y-34405803D01*
X172310265Y-33961786D01*
X172315343Y-33957474D01*
X172833527Y-33540945D01*
X172838869Y-33536885D01*
X173378870Y-33149002D01*
X173384354Y-33145284D01*
X173944584Y-32787192D01*
X173950263Y-32783774D01*
X174529085Y-32456522D01*
X174534952Y-32453412D01*
X175130597Y-32158000D01*
X175136643Y-32155203D01*
X175747408Y-31892471D01*
X175753597Y-31890004D01*
X176377700Y-31660721D01*
X176384007Y-31658596D01*
X177019591Y-31463441D01*
X177026009Y-31461659D01*
X177671244Y-31301196D01*
X177677768Y-31299760D01*
X178330708Y-31174473D01*
X178337268Y-31173397D01*
X178996065Y-31083637D01*
X179002711Y-31082914D01*
X179665358Y-31028957D01*
X179672045Y-31028594D01*
X180338338Y-31010545D01*
X180341697Y-31010500D01*
X180387595Y-31010500D01*
X205692405Y-31010500D01*
X205738303Y-31010500D01*
X205741661Y-31010545D01*
G37*
G04 #@! TD.AperFunction*
G04 #@! TD*
M02*
