G04 #@! TF.GenerationSoftware,KiCad,Pcbnew,(6.0.5)*
G04 #@! TF.CreationDate,2023-01-29T16:22:37-08:00*
G04 #@! TF.ProjectId,PCM1863,50434d31-3836-4332-9e6b-696361645f70,rev?*
G04 #@! TF.SameCoordinates,Original*
G04 #@! TF.FileFunction,Copper,L2,Bot*
G04 #@! TF.FilePolarity,Positive*
%FSLAX46Y46*%
G04 Gerber Fmt 4.6, Leading zero omitted, Abs format (unit mm)*
G04 Created by KiCad (PCBNEW (6.0.5)) date 2023-01-29 16:22:37*
%MOMM*%
%LPD*%
G01*
G04 APERTURE LIST*
G04 #@! TA.AperFunction,ComponentPad*
%ADD10R,1.700000X1.700000*%
G04 #@! TD*
G04 #@! TA.AperFunction,ComponentPad*
%ADD11O,1.700000X1.700000*%
G04 #@! TD*
G04 #@! TA.AperFunction,ViaPad*
%ADD12C,0.800000*%
G04 #@! TD*
G04 #@! TA.AperFunction,Conductor*
%ADD13C,0.200000*%
G04 #@! TD*
G04 APERTURE END LIST*
D10*
G04 #@! TO.P,J1,1,Pin_1*
G04 #@! TO.N,unconnected-(J1-Pad1)*
X72000000Y-96740000D03*
D11*
G04 #@! TO.P,J1,2,Pin_2*
G04 #@! TO.N,XI*
X72000000Y-99280000D03*
G04 #@! TO.P,J1,3,Pin_3*
G04 #@! TO.N,+1V8*
X72000000Y-101820000D03*
G04 #@! TO.P,J1,4,Pin_4*
G04 #@! TO.N,VCC*
X72000000Y-104360000D03*
G04 #@! TO.P,J1,5,Pin_5*
G04 #@! TO.N,LDO*
X72000000Y-106900000D03*
G04 #@! TO.P,J1,6,Pin_6*
G04 #@! TO.N,GNDD*
X72000000Y-109440000D03*
G04 #@! TO.P,J1,7,Pin_7*
G04 #@! TO.N,DVDD*
X72000000Y-111980000D03*
G04 #@! TO.P,J1,8,Pin_8*
G04 #@! TO.N,BCK*
X72000000Y-114520000D03*
G04 #@! TO.P,J1,9,Pin_9*
G04 #@! TO.N,LRCK*
X72000000Y-117060000D03*
G04 #@! TO.P,J1,10,Pin_10*
G04 #@! TO.N,DOUT*
X72000000Y-119600000D03*
G04 #@! TD*
D10*
G04 #@! TO.P,J3,1,Pin_1*
G04 #@! TO.N,/A6*
X115300000Y-118800000D03*
D11*
G04 #@! TO.P,J3,2,Pin_2*
G04 #@! TO.N,/A7*
X115300000Y-116260000D03*
G04 #@! TO.P,J3,3,Pin_3*
G04 #@! TO.N,/A8*
X115300000Y-113720000D03*
G04 #@! TO.P,J3,4,Pin_4*
G04 #@! TO.N,/A9*
X115300000Y-111180000D03*
G04 #@! TO.P,J3,5,Pin_5*
G04 #@! TO.N,/A10*
X115300000Y-108640000D03*
G04 #@! TO.P,J3,6,Pin_6*
G04 #@! TO.N,/A11*
X115300000Y-106100000D03*
G04 #@! TO.P,J3,7,Pin_7*
G04 #@! TO.N,/A12*
X115300000Y-103560000D03*
G04 #@! TO.P,J3,8,Pin_8*
G04 #@! TO.N,/A13*
X115300000Y-101020000D03*
G04 #@! TO.P,J3,9,Pin_9*
G04 #@! TO.N,/A14*
X115300000Y-98480000D03*
G04 #@! TO.P,J3,10,Pin_10*
G04 #@! TO.N,/A15*
X115300000Y-95940000D03*
G04 #@! TD*
D10*
G04 #@! TO.P,J2,1,Pin_1*
G04 #@! TO.N,/A17*
X104300000Y-95700000D03*
D11*
G04 #@! TO.P,J2,2,Pin_2*
G04 #@! TO.N,/A16*
X101760000Y-95700000D03*
G04 #@! TO.P,J2,3,Pin_3*
G04 #@! TO.N,GNDA*
X99220000Y-95700000D03*
G04 #@! TO.P,J2,4,Pin_4*
G04 #@! TO.N,/A5*
X96680000Y-95700000D03*
G04 #@! TO.P,J2,5,Pin_5*
G04 #@! TO.N,/A4*
X94140000Y-95700000D03*
G04 #@! TO.P,J2,6,Pin_6*
G04 #@! TO.N,/A3*
X91600000Y-95700000D03*
G04 #@! TO.P,J2,7,Pin_7*
G04 #@! TO.N,/A2*
X89060000Y-95700000D03*
G04 #@! TO.P,J2,8,Pin_8*
G04 #@! TO.N,/A1*
X86520000Y-95700000D03*
G04 #@! TO.P,J2,9,Pin_9*
G04 #@! TO.N,AVDD*
X83980000Y-95700000D03*
G04 #@! TO.P,J2,10,Pin_10*
G04 #@! TO.N,XO*
X81440000Y-95700000D03*
G04 #@! TD*
D12*
G04 #@! TO.N,GNDA*
X83600000Y-102000000D03*
G04 #@! TO.N,GNDD*
X81400000Y-111000000D03*
G04 #@! TO.N,GNDA*
X101710000Y-98190000D03*
X86725000Y-106675000D03*
G04 #@! TO.N,GNDD*
X92300000Y-119900000D03*
X83350000Y-116350000D03*
X85600000Y-109000000D03*
X76325000Y-101625000D03*
G04 #@! TO.N,VCC*
X90500000Y-116000000D03*
X75100000Y-111900000D03*
G04 #@! TD*
D13*
G04 #@! TO.N,VCC*
X90200000Y-116000000D02*
X90500000Y-116000000D01*
X75200000Y-119900000D02*
X75700000Y-120400000D01*
X75700000Y-120400000D02*
X85800000Y-120400000D01*
X85800000Y-120400000D02*
X90200000Y-116000000D01*
X75200000Y-112025000D02*
X75200000Y-119900000D01*
X75100000Y-111925000D02*
X75200000Y-112025000D01*
G04 #@! TD*
G04 #@! TA.AperFunction,Conductor*
G04 #@! TO.N,GNDD*
G36*
X76580701Y-94996364D02*
G01*
X77671028Y-94999615D01*
X77739087Y-95019820D01*
X77785420Y-95073614D01*
X77796607Y-95128929D01*
X77700000Y-98800000D01*
X85300000Y-108200000D01*
X85309749Y-108200104D01*
X85309751Y-108200104D01*
X113375340Y-108498674D01*
X113443244Y-108519400D01*
X113489164Y-108573547D01*
X113500000Y-108624667D01*
X113500000Y-121965500D01*
X113479998Y-122033621D01*
X113426342Y-122080114D01*
X113374000Y-122091500D01*
X91626000Y-122091500D01*
X91557879Y-122071498D01*
X91511386Y-122017842D01*
X91500000Y-121965500D01*
X91500000Y-114900000D01*
X91488144Y-114899376D01*
X89618091Y-114800952D01*
X89618090Y-114800952D01*
X89600000Y-114800000D01*
X89484346Y-114918115D01*
X84937663Y-119561536D01*
X84875713Y-119596215D01*
X84846170Y-119599374D01*
X76424535Y-119501448D01*
X76356651Y-119480656D01*
X76310786Y-119426463D01*
X76300000Y-119375457D01*
X76300000Y-112959972D01*
X76320002Y-112891851D01*
X76346545Y-112862182D01*
X77885940Y-111611424D01*
X77885940Y-111611423D01*
X77900000Y-111600000D01*
X77900000Y-109400000D01*
X75400000Y-109400000D01*
X75401489Y-109416376D01*
X75487508Y-110362593D01*
X75473755Y-110432244D01*
X75424529Y-110483404D01*
X75362025Y-110500000D01*
X73156339Y-110500000D01*
X73088218Y-110479998D01*
X73041725Y-110426342D01*
X73031621Y-110356068D01*
X73054016Y-110300474D01*
X73165009Y-110146011D01*
X73170313Y-110137183D01*
X73264670Y-109946267D01*
X73268469Y-109936672D01*
X73330377Y-109732910D01*
X73332555Y-109722837D01*
X73333986Y-109711962D01*
X73331775Y-109697778D01*
X73318617Y-109694000D01*
X72100000Y-109694000D01*
X72100000Y-109186000D01*
X73318344Y-109186000D01*
X73331875Y-109182027D01*
X73333180Y-109172947D01*
X73291214Y-109005875D01*
X73287894Y-108996124D01*
X73202972Y-108800814D01*
X73198105Y-108791739D01*
X73082426Y-108612926D01*
X73076136Y-108604757D01*
X72932806Y-108447240D01*
X72925268Y-108440210D01*
X72905858Y-108424882D01*
X72864794Y-108366966D01*
X72861562Y-108296043D01*
X72897187Y-108234631D01*
X72960358Y-108202228D01*
X72983949Y-108200000D01*
X75200000Y-108200000D01*
X75210785Y-95118551D01*
X75230843Y-95050447D01*
X75284537Y-95003998D01*
X75337161Y-94992656D01*
X76580701Y-94996364D01*
G37*
G04 #@! TD.AperFunction*
G04 #@! TD*
G04 #@! TA.AperFunction,Conductor*
G04 #@! TO.N,GNDA*
G36*
X99416121Y-95466002D02*
G01*
X99462614Y-95519658D01*
X99474000Y-95572000D01*
X99474000Y-97018517D01*
X99478064Y-97032359D01*
X99491478Y-97034393D01*
X99498184Y-97033534D01*
X99508262Y-97031392D01*
X99712255Y-96970191D01*
X99721842Y-96966433D01*
X99913095Y-96872739D01*
X99921945Y-96867464D01*
X100095328Y-96743792D01*
X100103193Y-96737145D01*
X100211026Y-96629687D01*
X100273397Y-96595771D01*
X100344204Y-96600959D01*
X100400966Y-96643605D01*
X100425660Y-96710168D01*
X100425896Y-96723126D01*
X100400000Y-97500000D01*
X100414121Y-97500216D01*
X100414123Y-97500216D01*
X107383524Y-97606619D01*
X113377210Y-97698125D01*
X113445017Y-97719164D01*
X113490685Y-97773523D01*
X113501279Y-97822798D01*
X113598674Y-107172688D01*
X113579383Y-107241013D01*
X113526214Y-107288062D01*
X113472681Y-107300000D01*
X86352190Y-107300000D01*
X86284069Y-107279998D01*
X86263095Y-107263095D01*
X86003427Y-107003427D01*
X85996856Y-106996332D01*
X80032009Y-100037344D01*
X80002863Y-99972605D01*
X80001755Y-99950847D01*
X80089286Y-97500000D01*
X80095636Y-97322183D01*
X80118057Y-97254820D01*
X80173338Y-97210272D01*
X80222260Y-97200683D01*
X81521744Y-97207943D01*
X97981883Y-97299899D01*
X97981884Y-97299899D01*
X98000000Y-97300000D01*
X98000000Y-96703706D01*
X98020002Y-96635585D01*
X98073658Y-96589092D01*
X98143932Y-96578988D01*
X98208512Y-96608482D01*
X98221238Y-96621209D01*
X98263219Y-96669674D01*
X98270580Y-96676883D01*
X98434434Y-96812916D01*
X98442881Y-96818831D01*
X98626756Y-96926279D01*
X98636042Y-96930729D01*
X98835001Y-97006703D01*
X98844899Y-97009579D01*
X98948250Y-97030606D01*
X98962299Y-97029410D01*
X98966000Y-97019065D01*
X98966000Y-95572000D01*
X98986002Y-95503879D01*
X99039658Y-95457386D01*
X99092000Y-95446000D01*
X99348000Y-95446000D01*
X99416121Y-95466002D01*
G37*
G04 #@! TD.AperFunction*
G04 #@! TD*
M02*
