M48
; DRILL file {KiCad (6.0.5)} date Sun Mar 12 22:04:00 2023
; FORMAT={-:-/ absolute / inch / decimal}
; #@! TF.CreationDate,2023-03-12T22:04:00-07:00
; #@! TF.GenerationSoftware,Kicad,Pcbnew,(6.0.5)
; #@! TF.FileFunction,MixedPlating,1,2
FMAT,2
INCH
; #@! TA.AperFunction,Plated,PTH,ViaDrill
T1C0.0157
; #@! TA.AperFunction,Plated,PTH,ComponentDrill
T2C0.0217
; #@! TA.AperFunction,Plated,PTH,ComponentDrill
T3C0.0335
; #@! TA.AperFunction,Plated,PTH,ComponentDrill
T4C0.0394
; #@! TA.AperFunction,Plated,PTH,ComponentDrill
T5C0.1260
; #@! TA.AperFunction,NonPlated,NPTH,ComponentDrill
T6C0.0315
%
G90
G05
T1
X3.3858Y-6.378
X3.563Y-6.437
X3.622Y-6.6142
X3.6417Y-3.3268
X3.6417Y-3.4646
X3.6614Y-3.2087
X3.7042Y-5.8071
X3.7402Y-2.1654
X3.7992Y-3.7402
X3.8189Y-2.4409
X3.8189Y-2.5197
X3.8189Y-4.9409
X3.8386Y-4.6654
X3.937Y-4.2913
X3.9764Y-2.5197
X3.9764Y-3.189
X3.9764Y-3.8189
X4.0157Y-3.4252
X4.0423Y-3.937
X4.0423Y-4.0551
X4.0551Y-4.1339
X4.0945Y-3.0906
X4.0945Y-3.3071
X4.1929Y-2.2244
X4.252Y-3.3071
X4.252Y-3.5039
X4.3307Y-1.6142
X4.3307Y-3.937
X4.3504Y-2.0669
X4.3701Y-3.1496
X4.5669Y-2.9528
X4.6457Y-4.9606
X4.6457Y-5.0394
X4.685Y-4.3701
X4.7047Y-1.4567
X4.7244Y-4.1339
X4.7244Y-4.6457
X4.7441Y-3.0512
X4.7441Y-4.0157
X4.7638Y-3.8583
X4.8425Y-2.7756
X4.8425Y-3.1102
X4.8425Y-4.7638
X4.8425Y-4.9016
X4.8622Y-4.1339
X4.8819Y-3.4646
X4.9409Y-4.2913
X5.0Y-1.5157
X5.0394Y-4.3504
X5.0591Y-4.7835
X5.0787Y-4.626
X5.0984Y-2.7756
X5.1575Y-4.4488
X5.1575Y-4.7244
X5.1772Y-1.752
X5.2362Y-3.6614
X5.2362Y-3.7795
X5.3937Y-4.2913
X5.4134Y-1.9685
X5.4724Y-3.9764
T4
X3.6795Y-3.0841
X3.7795Y-3.0841
X3.8961Y-2.815
X3.9031Y-6.6142
X3.9961Y-2.815
X4.0031Y-6.6142
X4.1031Y-6.6142
X4.1929Y-2.715
X4.1929Y-2.815
X4.2031Y-6.6142
X4.3031Y-6.6142
X4.4031Y-6.6142
X4.4291Y-3.9173
X4.5031Y-6.6142
X4.5291Y-3.9173
X4.5654Y-3.4843
X4.6031Y-6.6142
X4.6284Y-2.7416
X4.6654Y-3.4843
X4.7031Y-6.6142
X4.7284Y-2.7416
X4.8031Y-6.6142
X5.2756Y-2.4439
X5.2756Y-2.5439
X5.2756Y-2.6439
X5.2756Y-2.7439
X5.2756Y-2.8439
X5.2756Y-2.9439
X5.2756Y-3.0439
X5.2756Y-3.1439
X5.2756Y-3.2439
X5.2756Y-3.3439
X5.3346Y-4.4124
X5.3346Y-4.5124
X5.3346Y-4.6124
X5.3346Y-4.7124
X5.3346Y-4.8124
X5.3346Y-4.9124
X5.3346Y-5.0124
X5.3346Y-5.1124
X5.3346Y-5.2124
X5.3346Y-5.3124
T5
X3.3346Y-1.5551
X3.3346Y-6.6142
X5.3346Y-1.5551
X5.3346Y-6.6142
T6
X3.7992Y-1.5376
X3.9961Y-1.5376
T2
G00X3.7451Y-1.4421
M15
G01X3.7451Y-1.4165
M16
G05
G00X4.0502Y-1.4421
M15
G01X4.0502Y-1.4165
M16
G05
T3
G00X3.751Y-1.5898
M15
G01X3.751Y-1.5681
M16
G05
G00X4.0443Y-1.5898
M15
G01X4.0443Y-1.5681
M16
G05
T0
M30
