M48
; DRILL file {KiCad 7.0.1} date Sat May 20 00:25:46 2023
; FORMAT={-:-/ absolute / inch / decimal}
; #@! TF.CreationDate,2023-05-20T00:25:46-07:00
; #@! TF.GenerationSoftware,Kicad,Pcbnew,7.0.1
; #@! TF.FileFunction,MixedPlating,1,2
FMAT,2
INCH
; #@! TA.AperFunction,Plated,PTH,ViaDrill
T1C0.0157
; #@! TA.AperFunction,Plated,PTH,ComponentDrill
T2C0.0394
%
G90
G05
T1
X6.675Y-2.1591
X6.725Y-1.6341
X6.725Y-1.8091
X6.775Y-2.0091
X6.8Y-1.4591
X6.815Y-2.2091
X6.875Y-1.8591
X6.9Y-1.7091
X6.915Y-2.8091
X6.925Y-1.5341
X6.95Y-2.3591
X6.975Y-1.3591
X7.0Y-2.2841
X7.0Y-2.7841
X7.025Y-2.5841
X7.05Y-1.6091
X7.05Y-1.7591
X7.05Y-1.8841
X7.075Y-1.4591
X7.075Y-2.8591
X7.125Y-1.3091
X7.125Y-2.0591
X7.125Y-2.5841
X7.125Y-4.4841
X7.15Y-4.5591
X7.2Y-1.5841
X7.2Y-4.5091
X7.225Y-1.4091
X7.225Y-2.0591
X7.225Y-2.5841
X7.25Y-1.7091
X7.325Y-1.2841
X7.325Y-2.5591
X7.35Y-1.8591
X7.35Y-2.6341
X7.4Y-4.9341
X7.4Y-5.1091
X7.45Y-1.7091
X7.45Y-5.0341
X7.5Y-1.6091
X7.5Y-1.8091
X7.525Y-1.2841
X7.525Y-1.9091
X7.525Y-2.0091
X7.525Y-2.1091
X7.525Y-2.2091
X7.525Y-4.7841
X7.625Y-3.6591
X7.625Y-3.7591
X7.625Y-3.8591
X7.625Y-3.9841
X7.625Y-4.1091
X7.625Y-4.2341
X7.625Y-4.3591
X7.625Y-4.4841
X7.625Y-4.6341
X7.625Y-4.7591
X7.625Y-4.8841
X7.625Y-5.0091
X7.625Y-5.1341
X7.65Y-2.5091
X7.65Y-2.6091
X7.65Y-2.7091
X7.65Y-3.0091
X7.675Y-1.2841
X7.675Y-1.6591
X7.675Y-1.7591
X7.675Y-1.8841
X7.675Y-1.9841
X7.675Y-2.0841
X7.675Y-2.3341
X7.75Y-1.7841
X7.775Y-1.8591
X7.825Y-2.1841
X7.85Y-1.2841
X7.85Y-1.5591
X7.9Y-1.6591
X7.925Y-1.4091
X7.975Y-2.7841
X8.025Y-1.2841
X8.025Y-1.5341
X8.05Y-5.4091
X8.1Y-1.4091
X8.1Y-2.9091
X8.15Y-4.5091
X8.2Y-2.0341
X8.2Y-3.0091
X8.225Y-1.3341
X8.25Y-1.9091
X8.3Y-3.6341
X8.3Y-3.8341
X8.3Y-4.0341
X8.3Y-4.1841
X8.3Y-4.2591
X8.3Y-4.5091
X8.325Y-1.9591
X8.325Y-3.0841
X8.35Y-1.4091
X8.4Y-1.8591
X8.45Y-1.9591
X8.45Y-2.1091
X8.45Y-2.3091
X8.45Y-2.5591
X8.45Y-2.7591
X8.5Y-1.5591
X8.5Y-1.6841
X8.5Y-1.8591
X8.525Y-2.2091
X8.525Y-2.4341
X8.525Y-2.6591
X8.525Y-2.8341
T2
X7.0998Y-5.3091
X7.1998Y-5.3091
X7.2998Y-5.3091
X7.3998Y-5.3091
X7.45Y-1.5091
X7.4998Y-5.3091
X7.55Y-1.5091
X7.5998Y-5.3091
X7.65Y-1.5091
X7.6998Y-5.3091
X7.75Y-1.5091
X7.7998Y-5.3091
X7.8998Y-5.3091
X7.9998Y-5.3091
X8.3Y-2.1394
X8.3Y-2.2394
X8.3Y-2.3394
X8.3Y-2.4394
X8.3Y-2.6591
X8.3Y-2.7591
X8.3Y-2.8591
X8.3Y-2.9591
X8.3Y-3.1844
X8.3Y-3.2844
X8.3Y-3.3844
X8.3Y-3.4844
T0
M30
