%TF.GenerationSoftware,KiCad,Pcbnew,(6.0.10)*%
%TF.CreationDate,2023-03-06T12:11:40-08:00*%
%TF.ProjectId,PCM5242,50434d35-3234-4322-9e6b-696361645f70,rev?*%
%TF.SameCoordinates,Original*%
%TF.FileFunction,Copper,L2,Bot*%
%TF.FilePolarity,Positive*%
%FSLAX46Y46*%
G04 Gerber Fmt 4.6, Leading zero omitted, Abs format (unit mm)*
G04 Created by KiCad (PCBNEW (6.0.10)) date 2023-03-06 12:11:40*
%MOMM*%
%LPD*%
G01*
G04 APERTURE LIST*
%TA.AperFunction,ComponentPad*%
%ADD10R,1.700000X1.700000*%
%TD*%
%TA.AperFunction,ComponentPad*%
%ADD11O,1.700000X1.700000*%
%TD*%
%TA.AperFunction,ViaPad*%
%ADD12C,0.800000*%
%TD*%
%TA.AperFunction,Conductor*%
%ADD13C,1.000000*%
%TD*%
%TA.AperFunction,Conductor*%
%ADD14C,0.250000*%
%TD*%
G04 APERTURE END LIST*
D10*
%TO.P,J2,1,Pin_1*%
%TO.N,GND*%
X124206000Y-117353000D03*
D11*
%TO.P,J2,2,Pin_2*%
%TO.N,/A5*%
X124206000Y-114813000D03*
%TO.P,J2,3,Pin_3*%
%TO.N,/A6*%
X124206000Y-112273000D03*
%TO.P,J2,4,Pin_4*%
%TO.N,/A7*%
X124206000Y-109733000D03*
%TO.P,J2,5,Pin_5*%
%TO.N,/A8*%
X124206000Y-107193000D03*
%TO.P,J2,6,Pin_6*%
%TO.N,/A9*%
X124206000Y-104653000D03*
%TO.P,J2,7,Pin_7*%
%TO.N,/A10*%
X124206000Y-102113000D03*
%TO.P,J2,8,Pin_8*%
%TO.N,/A11*%
X124206000Y-99573000D03*
%TO.P,J2,9,Pin_9*%
%TO.N,/A12*%
X124206000Y-97033000D03*
%TO.P,J2,10,Pin_10*%
%TO.N,/A13*%
X124206000Y-94493000D03*
%TO.P,J2,11,Pin_11*%
%TO.N,/A14*%
X124206000Y-91953000D03*
%TO.P,J2,12,Pin_12*%
%TO.N,/A15*%
X124206000Y-89413000D03*
%TD*%
D10*
%TO.P,J3,1,Pin_1*%
%TO.N,GND*%
X51100000Y-93100000D03*
D11*
%TO.P,J3,2,Pin_2*%
%TO.N,VCC*%
X51100000Y-95640000D03*
%TD*%
D10*
%TO.P,J1,1,Pin_1*%
%TO.N,/A1*%
X87640000Y-131318000D03*
D11*
%TO.P,J1,2,Pin_2*%
%TO.N,/A2*%
X90180000Y-131318000D03*
%TO.P,J1,3,Pin_3*%
%TO.N,/A3*%
X92720000Y-131318000D03*
%TO.P,J1,4,Pin_4*%
%TO.N,/A4*%
X95260000Y-131318000D03*
%TD*%
D12*
%TO.N,GND*%
X92000000Y-96200000D03*
X95250000Y-104902000D03*
X77978000Y-81026000D03*
X87700000Y-93000000D03*
X97589000Y-94435000D03*
X83610500Y-98248500D03*
X69232750Y-84218750D03*
X60717250Y-117148000D03*
X83764000Y-89258000D03*
X87896814Y-97919802D03*
X86360000Y-106680000D03*
X58374000Y-80110500D03*
X100055750Y-105690000D03*
%TO.N,DVDD*%
X81534000Y-91440000D03*
X95758000Y-94234000D03*
%TO.N,AVDD*%
X83308500Y-96523500D03*
X93726000Y-103886000D03*
X78002000Y-101116000D03*
X88400000Y-94400000D03*
%TO.N,SCK*%
X94488000Y-92455500D03*
X89916107Y-89453580D03*
%TD*%
D13*
%TO.N,DVDD*%
X95758000Y-94234000D02*
X93970695Y-94234000D01*
X93970695Y-94234000D02*
X91176695Y-91440000D01*
X91176695Y-91440000D02*
X81534000Y-91440000D01*
%TO.N,AVDD*%
X81026000Y-103886000D02*
X78232000Y-101092000D01*
X83308500Y-96523500D02*
X86276500Y-96523500D01*
X86276500Y-96523500D02*
X88400000Y-94400000D01*
X93726000Y-103886000D02*
X81026000Y-103886000D01*
D14*
%TO.N,SCK*%
X89961687Y-89408000D02*
X89916107Y-89453580D01*
X91440500Y-89408000D02*
X89961687Y-89408000D01*
X94488000Y-92455500D02*
X91440500Y-89408000D01*
%TD*%
%TA.AperFunction,Conductor*%
%TO.N,GND*%
G36*
X106934000Y-104648000D02*
G01*
X106426000Y-104648000D01*
X106426000Y-103378000D01*
X106934000Y-103378000D01*
X106934000Y-104648000D01*
G37*
%TD.AperFunction*%
%TD*%
%TA.AperFunction,Conductor*%
%TO.N,GND*%
G36*
X54044121Y-89682002D02*
G01*
X54090614Y-89735658D01*
X54102000Y-89788000D01*
X54102000Y-104394000D01*
X80055576Y-104394000D01*
X80123697Y-104414002D01*
X80144671Y-104430905D01*
X80269145Y-104555379D01*
X80278247Y-104565522D01*
X80301968Y-104595025D01*
X80340421Y-104627291D01*
X80344069Y-104630472D01*
X80345881Y-104632115D01*
X80348075Y-104634309D01*
X80381349Y-104661642D01*
X80382147Y-104662304D01*
X80453474Y-104722154D01*
X80458144Y-104724722D01*
X80462261Y-104728103D01*
X80544120Y-104771995D01*
X80545280Y-104772624D01*
X80621389Y-104814466D01*
X80621394Y-104814468D01*
X80626787Y-104817433D01*
X80631865Y-104819044D01*
X80636563Y-104821563D01*
X80725498Y-104848753D01*
X80726702Y-104849128D01*
X80815306Y-104877235D01*
X80820597Y-104877828D01*
X80825698Y-104879388D01*
X80918311Y-104888795D01*
X80919431Y-104888915D01*
X80969227Y-104894500D01*
X80972756Y-104894500D01*
X80973739Y-104894555D01*
X80979426Y-104895003D01*
X80999683Y-104897060D01*
X81016336Y-104898752D01*
X81016339Y-104898752D01*
X81022463Y-104899374D01*
X81068112Y-104895059D01*
X81079969Y-104894500D01*
X93775769Y-104894500D01*
X93778825Y-104894200D01*
X93778832Y-104894200D01*
X93837340Y-104888463D01*
X93922833Y-104880080D01*
X93928734Y-104878298D01*
X93928736Y-104878298D01*
X94025324Y-104849136D01*
X94112169Y-104822916D01*
X94286796Y-104730066D01*
X94401807Y-104636265D01*
X94435287Y-104608960D01*
X94435290Y-104608957D01*
X94440062Y-104605065D01*
X94477170Y-104560210D01*
X94562204Y-104457421D01*
X94562205Y-104457419D01*
X94566130Y-104452675D01*
X94568072Y-104449083D01*
X94622194Y-104404252D01*
X94671977Y-104394000D01*
X120778000Y-104394000D01*
X120846121Y-104414002D01*
X120892614Y-104467658D01*
X120904000Y-104520000D01*
X120904000Y-120142000D01*
X126328859Y-120142000D01*
X126396980Y-120162002D01*
X126443473Y-120215658D01*
X126454856Y-120268808D01*
X126368525Y-133736324D01*
X126348087Y-133804315D01*
X126294135Y-133850463D01*
X126243334Y-133861513D01*
X100980283Y-134022938D01*
X48009018Y-134361413D01*
X47940771Y-134341847D01*
X47893936Y-134288490D01*
X47882214Y-134234882D01*
X47895650Y-131064000D01*
X49186526Y-131064000D01*
X49206391Y-131316403D01*
X49207545Y-131321210D01*
X49207546Y-131321216D01*
X49245179Y-131477968D01*
X49265495Y-131562591D01*
X49267388Y-131567162D01*
X49267389Y-131567164D01*
X49322456Y-131700106D01*
X49362384Y-131796502D01*
X49494672Y-132012376D01*
X49659102Y-132204898D01*
X49851624Y-132369328D01*
X50067498Y-132501616D01*
X50072068Y-132503509D01*
X50072072Y-132503511D01*
X50277643Y-132588661D01*
X50301409Y-132598505D01*
X50385174Y-132618615D01*
X50542784Y-132656454D01*
X50542790Y-132656455D01*
X50547597Y-132657609D01*
X50647416Y-132665465D01*
X50734345Y-132672307D01*
X50734352Y-132672307D01*
X50736801Y-132672500D01*
X50863199Y-132672500D01*
X50865648Y-132672307D01*
X50865655Y-132672307D01*
X50952584Y-132665465D01*
X51052403Y-132657609D01*
X51057210Y-132656455D01*
X51057216Y-132656454D01*
X51214826Y-132618615D01*
X51298591Y-132598505D01*
X51322357Y-132588661D01*
X51527928Y-132503511D01*
X51527932Y-132503509D01*
X51532502Y-132501616D01*
X51748376Y-132369328D01*
X51927742Y-132216134D01*
X86281500Y-132216134D01*
X86288255Y-132278316D01*
X86339385Y-132414705D01*
X86426739Y-132531261D01*
X86543295Y-132618615D01*
X86679684Y-132669745D01*
X86741866Y-132676500D01*
X88538134Y-132676500D01*
X88600316Y-132669745D01*
X88736705Y-132618615D01*
X88853261Y-132531261D01*
X88940615Y-132414705D01*
X88962799Y-132355529D01*
X88984598Y-132297382D01*
X89027240Y-132240618D01*
X89093802Y-132215918D01*
X89163150Y-132231126D01*
X89197817Y-132259114D01*
X89226250Y-132291938D01*
X89398126Y-132434632D01*
X89591000Y-132547338D01*
X89799692Y-132627030D01*
X89804760Y-132628061D01*
X89804763Y-132628062D01*
X89912017Y-132649883D01*
X90018597Y-132671567D01*
X90023772Y-132671757D01*
X90023774Y-132671757D01*
X90236673Y-132679564D01*
X90236677Y-132679564D01*
X90241837Y-132679753D01*
X90246957Y-132679097D01*
X90246959Y-132679097D01*
X90458288Y-132652025D01*
X90458289Y-132652025D01*
X90463416Y-132651368D01*
X90468366Y-132649883D01*
X90672429Y-132588661D01*
X90672434Y-132588659D01*
X90677384Y-132587174D01*
X90877994Y-132488896D01*
X91059860Y-132359173D01*
X91218096Y-132201489D01*
X91348453Y-132020077D01*
X91349776Y-132021028D01*
X91396645Y-131977857D01*
X91466580Y-131965625D01*
X91532026Y-131993144D01*
X91559875Y-132024994D01*
X91619987Y-132123088D01*
X91766250Y-132291938D01*
X91938126Y-132434632D01*
X92131000Y-132547338D01*
X92339692Y-132627030D01*
X92344760Y-132628061D01*
X92344763Y-132628062D01*
X92452017Y-132649883D01*
X92558597Y-132671567D01*
X92563772Y-132671757D01*
X92563774Y-132671757D01*
X92776673Y-132679564D01*
X92776677Y-132679564D01*
X92781837Y-132679753D01*
X92786957Y-132679097D01*
X92786959Y-132679097D01*
X92998288Y-132652025D01*
X92998289Y-132652025D01*
X93003416Y-132651368D01*
X93008366Y-132649883D01*
X93212429Y-132588661D01*
X93212434Y-132588659D01*
X93217384Y-132587174D01*
X93417994Y-132488896D01*
X93599860Y-132359173D01*
X93758096Y-132201489D01*
X93888453Y-132020077D01*
X93889776Y-132021028D01*
X93936645Y-131977857D01*
X94006580Y-131965625D01*
X94072026Y-131993144D01*
X94099875Y-132024994D01*
X94159987Y-132123088D01*
X94306250Y-132291938D01*
X94478126Y-132434632D01*
X94671000Y-132547338D01*
X94879692Y-132627030D01*
X94884760Y-132628061D01*
X94884763Y-132628062D01*
X94992017Y-132649883D01*
X95098597Y-132671567D01*
X95103772Y-132671757D01*
X95103774Y-132671757D01*
X95316673Y-132679564D01*
X95316677Y-132679564D01*
X95321837Y-132679753D01*
X95326957Y-132679097D01*
X95326959Y-132679097D01*
X95538288Y-132652025D01*
X95538289Y-132652025D01*
X95543416Y-132651368D01*
X95548366Y-132649883D01*
X95752429Y-132588661D01*
X95752434Y-132588659D01*
X95757384Y-132587174D01*
X95957994Y-132488896D01*
X96139860Y-132359173D01*
X96298096Y-132201489D01*
X96428453Y-132020077D01*
X96449320Y-131977857D01*
X96525136Y-131824453D01*
X96525137Y-131824451D01*
X96527430Y-131819811D01*
X96592370Y-131606069D01*
X96621529Y-131384590D01*
X96623156Y-131318000D01*
X96604852Y-131095361D01*
X96550431Y-130878702D01*
X96461354Y-130673840D01*
X96388309Y-130560930D01*
X96385120Y-130556000D01*
X120560526Y-130556000D01*
X120580391Y-130808403D01*
X120639495Y-131054591D01*
X120641388Y-131059162D01*
X120641389Y-131059164D01*
X120654304Y-131090342D01*
X120736384Y-131288502D01*
X120868672Y-131504376D01*
X121033102Y-131696898D01*
X121225624Y-131861328D01*
X121441498Y-131993616D01*
X121446068Y-131995509D01*
X121446072Y-131995511D01*
X121670836Y-132088611D01*
X121675409Y-132090505D01*
X121760032Y-132110821D01*
X121916784Y-132148454D01*
X121916790Y-132148455D01*
X121921597Y-132149609D01*
X122021416Y-132157465D01*
X122108345Y-132164307D01*
X122108352Y-132164307D01*
X122110801Y-132164500D01*
X122237199Y-132164500D01*
X122239648Y-132164307D01*
X122239655Y-132164307D01*
X122326584Y-132157465D01*
X122426403Y-132149609D01*
X122431210Y-132148455D01*
X122431216Y-132148454D01*
X122587968Y-132110821D01*
X122672591Y-132090505D01*
X122677164Y-132088611D01*
X122901928Y-131995511D01*
X122901932Y-131995509D01*
X122906502Y-131993616D01*
X123122376Y-131861328D01*
X123314898Y-131696898D01*
X123479328Y-131504376D01*
X123611616Y-131288502D01*
X123693697Y-131090342D01*
X123706611Y-131059164D01*
X123706612Y-131059162D01*
X123708505Y-131054591D01*
X123767609Y-130808403D01*
X123787474Y-130556000D01*
X123767609Y-130303597D01*
X123765673Y-130295530D01*
X123722481Y-130115624D01*
X123708505Y-130057409D01*
X123706611Y-130052836D01*
X123613511Y-129828072D01*
X123613509Y-129828068D01*
X123611616Y-129823498D01*
X123479328Y-129607624D01*
X123314898Y-129415102D01*
X123122376Y-129250672D01*
X122906502Y-129118384D01*
X122901932Y-129116491D01*
X122901928Y-129116489D01*
X122677164Y-129023389D01*
X122677162Y-129023388D01*
X122672591Y-129021495D01*
X122587968Y-129001179D01*
X122431216Y-128963546D01*
X122431210Y-128963545D01*
X122426403Y-128962391D01*
X122326584Y-128954535D01*
X122239655Y-128947693D01*
X122239648Y-128947693D01*
X122237199Y-128947500D01*
X122110801Y-128947500D01*
X122108352Y-128947693D01*
X122108345Y-128947693D01*
X122021416Y-128954535D01*
X121921597Y-128962391D01*
X121916790Y-128963545D01*
X121916784Y-128963546D01*
X121760032Y-129001179D01*
X121675409Y-129021495D01*
X121670838Y-129023388D01*
X121670836Y-129023389D01*
X121446072Y-129116489D01*
X121446068Y-129116491D01*
X121441498Y-129118384D01*
X121225624Y-129250672D01*
X121033102Y-129415102D01*
X120868672Y-129607624D01*
X120736384Y-129823498D01*
X120734491Y-129828068D01*
X120734489Y-129828072D01*
X120641389Y-130052836D01*
X120639495Y-130057409D01*
X120625519Y-130115624D01*
X120582328Y-130295530D01*
X120580391Y-130303597D01*
X120560526Y-130556000D01*
X96385120Y-130556000D01*
X96342822Y-130490617D01*
X96342820Y-130490614D01*
X96340014Y-130486277D01*
X96189670Y-130321051D01*
X96185619Y-130317852D01*
X96185615Y-130317848D01*
X96018414Y-130185800D01*
X96018410Y-130185798D01*
X96014359Y-130182598D01*
X95818789Y-130074638D01*
X95813920Y-130072914D01*
X95813916Y-130072912D01*
X95613087Y-130001795D01*
X95613083Y-130001794D01*
X95608212Y-130000069D01*
X95603119Y-129999162D01*
X95603116Y-129999161D01*
X95393373Y-129961800D01*
X95393367Y-129961799D01*
X95388284Y-129960894D01*
X95314452Y-129959992D01*
X95170081Y-129958228D01*
X95170079Y-129958228D01*
X95164911Y-129958165D01*
X94944091Y-129991955D01*
X94731756Y-130061357D01*
X94533607Y-130164507D01*
X94529474Y-130167610D01*
X94529471Y-130167612D01*
X94359100Y-130295530D01*
X94354965Y-130298635D01*
X94351393Y-130302373D01*
X94243729Y-130415037D01*
X94200629Y-130460138D01*
X94093201Y-130617621D01*
X94038293Y-130662621D01*
X93967768Y-130670792D01*
X93904021Y-130639538D01*
X93883324Y-130615054D01*
X93802822Y-130490617D01*
X93802820Y-130490614D01*
X93800014Y-130486277D01*
X93649670Y-130321051D01*
X93645619Y-130317852D01*
X93645615Y-130317848D01*
X93478414Y-130185800D01*
X93478410Y-130185798D01*
X93474359Y-130182598D01*
X93278789Y-130074638D01*
X93273920Y-130072914D01*
X93273916Y-130072912D01*
X93073087Y-130001795D01*
X93073083Y-130001794D01*
X93068212Y-130000069D01*
X93063119Y-129999162D01*
X93063116Y-129999161D01*
X92853373Y-129961800D01*
X92853367Y-129961799D01*
X92848284Y-129960894D01*
X92774452Y-129959992D01*
X92630081Y-129958228D01*
X92630079Y-129958228D01*
X92624911Y-129958165D01*
X92404091Y-129991955D01*
X92191756Y-130061357D01*
X91993607Y-130164507D01*
X91989474Y-130167610D01*
X91989471Y-130167612D01*
X91819100Y-130295530D01*
X91814965Y-130298635D01*
X91811393Y-130302373D01*
X91703729Y-130415037D01*
X91660629Y-130460138D01*
X91553201Y-130617621D01*
X91498293Y-130662621D01*
X91427768Y-130670792D01*
X91364021Y-130639538D01*
X91343324Y-130615054D01*
X91262822Y-130490617D01*
X91262820Y-130490614D01*
X91260014Y-130486277D01*
X91109670Y-130321051D01*
X91105619Y-130317852D01*
X91105615Y-130317848D01*
X90938414Y-130185800D01*
X90938410Y-130185798D01*
X90934359Y-130182598D01*
X90738789Y-130074638D01*
X90733920Y-130072914D01*
X90733916Y-130072912D01*
X90533087Y-130001795D01*
X90533083Y-130001794D01*
X90528212Y-130000069D01*
X90523119Y-129999162D01*
X90523116Y-129999161D01*
X90313373Y-129961800D01*
X90313367Y-129961799D01*
X90308284Y-129960894D01*
X90234452Y-129959992D01*
X90090081Y-129958228D01*
X90090079Y-129958228D01*
X90084911Y-129958165D01*
X89864091Y-129991955D01*
X89651756Y-130061357D01*
X89453607Y-130164507D01*
X89449474Y-130167610D01*
X89449471Y-130167612D01*
X89279100Y-130295530D01*
X89274965Y-130298635D01*
X89218537Y-130357684D01*
X89194283Y-130383064D01*
X89132759Y-130418494D01*
X89061846Y-130415037D01*
X89004060Y-130373791D01*
X88985207Y-130340243D01*
X88943767Y-130229703D01*
X88940615Y-130221295D01*
X88853261Y-130104739D01*
X88736705Y-130017385D01*
X88600316Y-129966255D01*
X88538134Y-129959500D01*
X86741866Y-129959500D01*
X86679684Y-129966255D01*
X86543295Y-130017385D01*
X86426739Y-130104739D01*
X86339385Y-130221295D01*
X86288255Y-130357684D01*
X86281500Y-130419866D01*
X86281500Y-132216134D01*
X51927742Y-132216134D01*
X51940898Y-132204898D01*
X52105328Y-132012376D01*
X52237616Y-131796502D01*
X52277545Y-131700106D01*
X52332611Y-131567164D01*
X52332612Y-131567162D01*
X52334505Y-131562591D01*
X52354821Y-131477968D01*
X52392454Y-131321216D01*
X52392455Y-131321210D01*
X52393609Y-131316403D01*
X52413474Y-131064000D01*
X52393609Y-130811597D01*
X52334505Y-130565409D01*
X52303525Y-130490617D01*
X52239511Y-130336072D01*
X52239509Y-130336068D01*
X52237616Y-130331498D01*
X52105328Y-130115624D01*
X51940898Y-129923102D01*
X51748376Y-129758672D01*
X51532502Y-129626384D01*
X51527932Y-129624491D01*
X51527928Y-129624489D01*
X51303164Y-129531389D01*
X51303162Y-129531388D01*
X51298591Y-129529495D01*
X51213968Y-129509179D01*
X51057216Y-129471546D01*
X51057210Y-129471545D01*
X51052403Y-129470391D01*
X50952584Y-129462535D01*
X50865655Y-129455693D01*
X50865648Y-129455693D01*
X50863199Y-129455500D01*
X50736801Y-129455500D01*
X50734352Y-129455693D01*
X50734345Y-129455693D01*
X50647416Y-129462535D01*
X50547597Y-129470391D01*
X50542790Y-129471545D01*
X50542784Y-129471546D01*
X50386032Y-129509179D01*
X50301409Y-129529495D01*
X50296838Y-129531388D01*
X50296836Y-129531389D01*
X50072072Y-129624489D01*
X50072068Y-129624491D01*
X50067498Y-129626384D01*
X49851624Y-129758672D01*
X49659102Y-129923102D01*
X49494672Y-130115624D01*
X49362384Y-130331498D01*
X49360491Y-130336068D01*
X49360489Y-130336072D01*
X49296475Y-130490617D01*
X49265495Y-130565409D01*
X49206391Y-130811597D01*
X49186526Y-131064000D01*
X47895650Y-131064000D01*
X48006516Y-104899374D01*
X48045891Y-95606695D01*
X49737251Y-95606695D01*
X49737548Y-95611848D01*
X49737548Y-95611851D01*
X49743011Y-95706590D01*
X49750110Y-95829715D01*
X49751247Y-95834761D01*
X49751248Y-95834767D01*
X49761331Y-95879507D01*
X49799222Y-96047639D01*
X49883266Y-96254616D01*
X49999987Y-96445088D01*
X50146250Y-96613938D01*
X50318126Y-96756632D01*
X50511000Y-96869338D01*
X50719692Y-96949030D01*
X50724760Y-96950061D01*
X50724763Y-96950062D01*
X50832017Y-96971883D01*
X50938597Y-96993567D01*
X50943772Y-96993757D01*
X50943774Y-96993757D01*
X51156673Y-97001564D01*
X51156677Y-97001564D01*
X51161837Y-97001753D01*
X51166957Y-97001097D01*
X51166959Y-97001097D01*
X51378288Y-96974025D01*
X51378289Y-96974025D01*
X51383416Y-96973368D01*
X51388366Y-96971883D01*
X51592429Y-96910661D01*
X51592434Y-96910659D01*
X51597384Y-96909174D01*
X51797994Y-96810896D01*
X51979860Y-96681173D01*
X52138096Y-96523489D01*
X52197594Y-96440689D01*
X52265435Y-96346277D01*
X52268453Y-96342077D01*
X52367430Y-96141811D01*
X52432370Y-95928069D01*
X52461529Y-95706590D01*
X52463156Y-95640000D01*
X52444852Y-95417361D01*
X52390431Y-95200702D01*
X52301354Y-94995840D01*
X52180014Y-94808277D01*
X52176540Y-94804459D01*
X52176533Y-94804450D01*
X52032435Y-94646088D01*
X52001383Y-94582242D01*
X52009779Y-94511744D01*
X52054956Y-94456976D01*
X52081400Y-94443307D01*
X52188052Y-94403325D01*
X52203649Y-94394786D01*
X52305724Y-94318285D01*
X52318285Y-94305724D01*
X52394786Y-94203649D01*
X52403324Y-94188054D01*
X52448478Y-94067606D01*
X52452105Y-94052351D01*
X52457631Y-94001486D01*
X52458000Y-93994672D01*
X52458000Y-93372115D01*
X52453525Y-93356876D01*
X52452135Y-93355671D01*
X52444452Y-93354000D01*
X49760116Y-93354000D01*
X49744877Y-93358475D01*
X49743672Y-93359865D01*
X49742001Y-93367548D01*
X49742001Y-93994669D01*
X49742371Y-94001490D01*
X49747895Y-94052352D01*
X49751521Y-94067604D01*
X49796676Y-94188054D01*
X49805214Y-94203649D01*
X49881715Y-94305724D01*
X49894276Y-94318285D01*
X49996351Y-94394786D01*
X50011946Y-94403324D01*
X50120827Y-94444142D01*
X50177591Y-94486784D01*
X50202291Y-94553345D01*
X50187083Y-94622694D01*
X50167691Y-94649175D01*
X50044200Y-94778401D01*
X50040629Y-94782138D01*
X49914743Y-94966680D01*
X49820688Y-95169305D01*
X49760989Y-95384570D01*
X49737251Y-95606695D01*
X48045891Y-95606695D01*
X48057666Y-92827885D01*
X49742000Y-92827885D01*
X49746475Y-92843124D01*
X49747865Y-92844329D01*
X49755548Y-92846000D01*
X50827885Y-92846000D01*
X50843124Y-92841525D01*
X50844329Y-92840135D01*
X50846000Y-92832452D01*
X50846000Y-92827885D01*
X51354000Y-92827885D01*
X51358475Y-92843124D01*
X51359865Y-92844329D01*
X51367548Y-92846000D01*
X52439884Y-92846000D01*
X52455123Y-92841525D01*
X52456328Y-92840135D01*
X52457999Y-92832452D01*
X52457999Y-92205331D01*
X52457629Y-92198510D01*
X52452105Y-92147648D01*
X52448479Y-92132396D01*
X52403324Y-92011946D01*
X52394786Y-91996351D01*
X52318285Y-91894276D01*
X52305724Y-91881715D01*
X52203649Y-91805214D01*
X52188054Y-91796676D01*
X52067606Y-91751522D01*
X52052351Y-91747895D01*
X52001486Y-91742369D01*
X51994672Y-91742000D01*
X51372115Y-91742000D01*
X51356876Y-91746475D01*
X51355671Y-91747865D01*
X51354000Y-91755548D01*
X51354000Y-92827885D01*
X50846000Y-92827885D01*
X50846000Y-91760116D01*
X50841525Y-91744877D01*
X50840135Y-91743672D01*
X50832452Y-91742001D01*
X50205331Y-91742001D01*
X50198510Y-91742371D01*
X50147648Y-91747895D01*
X50132396Y-91751521D01*
X50011946Y-91796676D01*
X49996351Y-91805214D01*
X49894276Y-91881715D01*
X49881715Y-91894276D01*
X49805214Y-91996351D01*
X49796676Y-92011946D01*
X49751522Y-92132394D01*
X49747895Y-92147649D01*
X49742369Y-92198514D01*
X49742000Y-92205328D01*
X49742000Y-92827885D01*
X48057666Y-92827885D01*
X48070549Y-89787465D01*
X48090840Y-89719431D01*
X48144692Y-89673166D01*
X48196548Y-89662000D01*
X53976000Y-89662000D01*
X54044121Y-89682002D01*
G37*
%TD.AperFunction*%
%TD*%
%TA.AperFunction,Conductor*%
%TO.N,GND*%
G36*
X126683541Y-75458502D02*
G01*
X126730034Y-75512158D01*
X126741417Y-75565308D01*
X126717999Y-79218502D01*
X126462984Y-119000811D01*
X126442547Y-119068799D01*
X126388595Y-119114947D01*
X126336988Y-119126000D01*
X121792000Y-119126000D01*
X121723879Y-119105998D01*
X121677386Y-119052342D01*
X121666000Y-119000000D01*
X121666000Y-118247669D01*
X122848001Y-118247669D01*
X122848371Y-118254490D01*
X122853895Y-118305352D01*
X122857521Y-118320604D01*
X122902676Y-118441054D01*
X122911214Y-118456649D01*
X122987715Y-118558724D01*
X123000276Y-118571285D01*
X123102351Y-118647786D01*
X123117946Y-118656324D01*
X123238394Y-118701478D01*
X123253649Y-118705105D01*
X123304514Y-118710631D01*
X123311328Y-118711000D01*
X123933885Y-118711000D01*
X123949124Y-118706525D01*
X123950329Y-118705135D01*
X123952000Y-118697452D01*
X123952000Y-118692884D01*
X124460000Y-118692884D01*
X124464475Y-118708123D01*
X124465865Y-118709328D01*
X124473548Y-118710999D01*
X125100669Y-118710999D01*
X125107490Y-118710629D01*
X125158352Y-118705105D01*
X125173604Y-118701479D01*
X125294054Y-118656324D01*
X125309649Y-118647786D01*
X125411724Y-118571285D01*
X125424285Y-118558724D01*
X125500786Y-118456649D01*
X125509324Y-118441054D01*
X125554478Y-118320606D01*
X125558105Y-118305351D01*
X125563631Y-118254486D01*
X125564000Y-118247672D01*
X125564000Y-117625115D01*
X125559525Y-117609876D01*
X125558135Y-117608671D01*
X125550452Y-117607000D01*
X124478115Y-117607000D01*
X124462876Y-117611475D01*
X124461671Y-117612865D01*
X124460000Y-117620548D01*
X124460000Y-118692884D01*
X123952000Y-118692884D01*
X123952000Y-117625115D01*
X123947525Y-117609876D01*
X123946135Y-117608671D01*
X123938452Y-117607000D01*
X122866116Y-117607000D01*
X122850877Y-117611475D01*
X122849672Y-117612865D01*
X122848001Y-117620548D01*
X122848001Y-118247669D01*
X121666000Y-118247669D01*
X121666000Y-114779695D01*
X122843251Y-114779695D01*
X122843548Y-114784848D01*
X122843548Y-114784851D01*
X122849011Y-114879590D01*
X122856110Y-115002715D01*
X122857247Y-115007761D01*
X122857248Y-115007767D01*
X122877119Y-115095939D01*
X122905222Y-115220639D01*
X122989266Y-115427616D01*
X123105987Y-115618088D01*
X123252250Y-115786938D01*
X123256225Y-115790238D01*
X123256231Y-115790244D01*
X123261425Y-115794556D01*
X123301059Y-115853460D01*
X123302555Y-115924441D01*
X123265439Y-115984962D01*
X123225168Y-116009480D01*
X123117946Y-116049676D01*
X123102351Y-116058214D01*
X123000276Y-116134715D01*
X122987715Y-116147276D01*
X122911214Y-116249351D01*
X122902676Y-116264946D01*
X122857522Y-116385394D01*
X122853895Y-116400649D01*
X122848369Y-116451514D01*
X122848000Y-116458328D01*
X122848000Y-117080885D01*
X122852475Y-117096124D01*
X122853865Y-117097329D01*
X122861548Y-117099000D01*
X125545884Y-117099000D01*
X125561123Y-117094525D01*
X125562328Y-117093135D01*
X125563999Y-117085452D01*
X125563999Y-116458331D01*
X125563629Y-116451510D01*
X125558105Y-116400648D01*
X125554479Y-116385396D01*
X125509324Y-116264946D01*
X125500786Y-116249351D01*
X125424285Y-116147276D01*
X125411724Y-116134715D01*
X125309649Y-116058214D01*
X125294054Y-116049676D01*
X125183813Y-116008348D01*
X125127049Y-115965706D01*
X125102349Y-115899145D01*
X125117557Y-115829796D01*
X125139104Y-115801115D01*
X125240430Y-115700144D01*
X125240440Y-115700132D01*
X125244096Y-115696489D01*
X125303594Y-115613689D01*
X125371435Y-115519277D01*
X125374453Y-115515077D01*
X125473430Y-115314811D01*
X125538370Y-115101069D01*
X125567529Y-114879590D01*
X125569156Y-114813000D01*
X125550852Y-114590361D01*
X125496431Y-114373702D01*
X125407354Y-114168840D01*
X125286014Y-113981277D01*
X125135670Y-113816051D01*
X125131619Y-113812852D01*
X125131615Y-113812848D01*
X124964414Y-113680800D01*
X124964410Y-113680798D01*
X124960359Y-113677598D01*
X124919053Y-113654796D01*
X124869084Y-113604364D01*
X124854312Y-113534921D01*
X124879428Y-113468516D01*
X124906780Y-113441909D01*
X124950603Y-113410650D01*
X125085860Y-113314173D01*
X125244096Y-113156489D01*
X125303594Y-113073689D01*
X125371435Y-112979277D01*
X125374453Y-112975077D01*
X125473430Y-112774811D01*
X125538370Y-112561069D01*
X125567529Y-112339590D01*
X125569156Y-112273000D01*
X125550852Y-112050361D01*
X125496431Y-111833702D01*
X125407354Y-111628840D01*
X125286014Y-111441277D01*
X125135670Y-111276051D01*
X125131619Y-111272852D01*
X125131615Y-111272848D01*
X124964414Y-111140800D01*
X124964410Y-111140798D01*
X124960359Y-111137598D01*
X124919053Y-111114796D01*
X124869084Y-111064364D01*
X124854312Y-110994921D01*
X124879428Y-110928516D01*
X124906780Y-110901909D01*
X124950603Y-110870650D01*
X125085860Y-110774173D01*
X125244096Y-110616489D01*
X125303594Y-110533689D01*
X125371435Y-110439277D01*
X125374453Y-110435077D01*
X125473430Y-110234811D01*
X125538370Y-110021069D01*
X125567529Y-109799590D01*
X125569156Y-109733000D01*
X125550852Y-109510361D01*
X125496431Y-109293702D01*
X125407354Y-109088840D01*
X125286014Y-108901277D01*
X125135670Y-108736051D01*
X125131619Y-108732852D01*
X125131615Y-108732848D01*
X124964414Y-108600800D01*
X124964410Y-108600798D01*
X124960359Y-108597598D01*
X124919053Y-108574796D01*
X124869084Y-108524364D01*
X124854312Y-108454921D01*
X124879428Y-108388516D01*
X124906780Y-108361909D01*
X124950603Y-108330650D01*
X125085860Y-108234173D01*
X125244096Y-108076489D01*
X125303594Y-107993689D01*
X125371435Y-107899277D01*
X125374453Y-107895077D01*
X125473430Y-107694811D01*
X125538370Y-107481069D01*
X125567529Y-107259590D01*
X125569156Y-107193000D01*
X125550852Y-106970361D01*
X125496431Y-106753702D01*
X125407354Y-106548840D01*
X125286014Y-106361277D01*
X125135670Y-106196051D01*
X125131619Y-106192852D01*
X125131615Y-106192848D01*
X124964414Y-106060800D01*
X124964410Y-106060798D01*
X124960359Y-106057598D01*
X124919053Y-106034796D01*
X124869084Y-105984364D01*
X124854312Y-105914921D01*
X124879428Y-105848516D01*
X124906780Y-105821909D01*
X124950603Y-105790650D01*
X125085860Y-105694173D01*
X125244096Y-105536489D01*
X125303594Y-105453689D01*
X125371435Y-105359277D01*
X125374453Y-105355077D01*
X125473430Y-105154811D01*
X125538370Y-104941069D01*
X125567529Y-104719590D01*
X125569156Y-104653000D01*
X125550852Y-104430361D01*
X125496431Y-104213702D01*
X125407354Y-104008840D01*
X125286014Y-103821277D01*
X125135670Y-103656051D01*
X125131619Y-103652852D01*
X125131615Y-103652848D01*
X124964414Y-103520800D01*
X124964410Y-103520798D01*
X124960359Y-103517598D01*
X124919053Y-103494796D01*
X124869084Y-103444364D01*
X124854312Y-103374921D01*
X124879428Y-103308516D01*
X124906780Y-103281909D01*
X124950603Y-103250650D01*
X125085860Y-103154173D01*
X125128115Y-103112066D01*
X125193534Y-103046875D01*
X125244096Y-102996489D01*
X125303594Y-102913689D01*
X125371435Y-102819277D01*
X125374453Y-102815077D01*
X125473430Y-102614811D01*
X125538370Y-102401069D01*
X125567529Y-102179590D01*
X125569156Y-102113000D01*
X125550852Y-101890361D01*
X125496431Y-101673702D01*
X125407354Y-101468840D01*
X125306023Y-101312206D01*
X125288822Y-101285617D01*
X125288820Y-101285614D01*
X125286014Y-101281277D01*
X125135670Y-101116051D01*
X125131619Y-101112852D01*
X125131615Y-101112848D01*
X124964414Y-100980800D01*
X124964410Y-100980798D01*
X124960359Y-100977598D01*
X124919053Y-100954796D01*
X124869084Y-100904364D01*
X124854312Y-100834921D01*
X124879428Y-100768516D01*
X124906780Y-100741909D01*
X124950603Y-100710650D01*
X125085860Y-100614173D01*
X125244096Y-100456489D01*
X125303594Y-100373689D01*
X125371435Y-100279277D01*
X125374453Y-100275077D01*
X125388338Y-100246984D01*
X125471136Y-100079453D01*
X125471137Y-100079451D01*
X125473430Y-100074811D01*
X125538370Y-99861069D01*
X125567529Y-99639590D01*
X125569156Y-99573000D01*
X125550852Y-99350361D01*
X125496431Y-99133702D01*
X125407354Y-98928840D01*
X125286014Y-98741277D01*
X125135670Y-98576051D01*
X125131619Y-98572852D01*
X125131615Y-98572848D01*
X124964414Y-98440800D01*
X124964410Y-98440798D01*
X124960359Y-98437598D01*
X124919053Y-98414796D01*
X124869084Y-98364364D01*
X124854312Y-98294921D01*
X124879428Y-98228516D01*
X124906780Y-98201909D01*
X124950603Y-98170650D01*
X125085860Y-98074173D01*
X125244096Y-97916489D01*
X125303594Y-97833689D01*
X125371435Y-97739277D01*
X125374453Y-97735077D01*
X125473430Y-97534811D01*
X125524243Y-97367566D01*
X125536865Y-97326023D01*
X125536865Y-97326021D01*
X125538370Y-97321069D01*
X125567529Y-97099590D01*
X125568047Y-97078390D01*
X125569074Y-97036365D01*
X125569074Y-97036361D01*
X125569156Y-97033000D01*
X125550852Y-96810361D01*
X125496431Y-96593702D01*
X125407354Y-96388840D01*
X125286014Y-96201277D01*
X125135670Y-96036051D01*
X125131619Y-96032852D01*
X125131615Y-96032848D01*
X124964414Y-95900800D01*
X124964410Y-95900798D01*
X124960359Y-95897598D01*
X124919053Y-95874796D01*
X124869084Y-95824364D01*
X124854312Y-95754921D01*
X124879428Y-95688516D01*
X124906780Y-95661909D01*
X124950603Y-95630650D01*
X125085860Y-95534173D01*
X125244096Y-95376489D01*
X125303594Y-95293689D01*
X125371435Y-95199277D01*
X125374453Y-95195077D01*
X125387191Y-95169305D01*
X125471136Y-94999453D01*
X125471137Y-94999451D01*
X125473430Y-94994811D01*
X125538370Y-94781069D01*
X125567529Y-94559590D01*
X125569156Y-94493000D01*
X125550852Y-94270361D01*
X125496431Y-94053702D01*
X125407354Y-93848840D01*
X125286014Y-93661277D01*
X125135670Y-93496051D01*
X125131619Y-93492852D01*
X125131615Y-93492848D01*
X124964414Y-93360800D01*
X124964410Y-93360798D01*
X124960359Y-93357598D01*
X124919053Y-93334796D01*
X124869084Y-93284364D01*
X124854312Y-93214921D01*
X124879428Y-93148516D01*
X124906780Y-93121909D01*
X124963336Y-93081568D01*
X125085860Y-92994173D01*
X125244096Y-92836489D01*
X125255391Y-92820771D01*
X125371435Y-92659277D01*
X125374453Y-92655077D01*
X125382466Y-92638865D01*
X125471136Y-92459453D01*
X125471137Y-92459451D01*
X125473430Y-92454811D01*
X125528916Y-92272187D01*
X125536865Y-92246023D01*
X125536865Y-92246021D01*
X125538370Y-92241069D01*
X125567529Y-92019590D01*
X125568015Y-91999694D01*
X125569074Y-91956365D01*
X125569074Y-91956361D01*
X125569156Y-91953000D01*
X125550852Y-91730361D01*
X125496431Y-91513702D01*
X125407354Y-91308840D01*
X125286014Y-91121277D01*
X125135670Y-90956051D01*
X125131619Y-90952852D01*
X125131615Y-90952848D01*
X124964414Y-90820800D01*
X124964410Y-90820798D01*
X124960359Y-90817598D01*
X124919053Y-90794796D01*
X124869084Y-90744364D01*
X124854312Y-90674921D01*
X124879428Y-90608516D01*
X124906780Y-90581909D01*
X124950603Y-90550650D01*
X125085860Y-90454173D01*
X125093447Y-90446613D01*
X125240435Y-90300137D01*
X125244096Y-90296489D01*
X125250507Y-90287568D01*
X125371435Y-90119277D01*
X125374453Y-90115077D01*
X125390213Y-90083190D01*
X125471136Y-89919453D01*
X125471137Y-89919451D01*
X125473430Y-89914811D01*
X125538370Y-89701069D01*
X125567529Y-89479590D01*
X125569156Y-89413000D01*
X125550852Y-89190361D01*
X125496431Y-88973702D01*
X125407354Y-88768840D01*
X125286014Y-88581277D01*
X125135670Y-88416051D01*
X125131619Y-88412852D01*
X125131615Y-88412848D01*
X124964414Y-88280800D01*
X124964410Y-88280798D01*
X124960359Y-88277598D01*
X124764789Y-88169638D01*
X124759920Y-88167914D01*
X124759916Y-88167912D01*
X124559087Y-88096795D01*
X124559083Y-88096794D01*
X124554212Y-88095069D01*
X124549119Y-88094162D01*
X124549116Y-88094161D01*
X124339373Y-88056800D01*
X124339367Y-88056799D01*
X124334284Y-88055894D01*
X124260452Y-88054992D01*
X124116081Y-88053228D01*
X124116079Y-88053228D01*
X124110911Y-88053165D01*
X123890091Y-88086955D01*
X123677756Y-88156357D01*
X123479607Y-88259507D01*
X123475474Y-88262610D01*
X123475471Y-88262612D01*
X123451247Y-88280800D01*
X123300965Y-88393635D01*
X123297393Y-88397373D01*
X123154930Y-88546452D01*
X123146629Y-88555138D01*
X123143715Y-88559410D01*
X123143714Y-88559411D01*
X123125838Y-88585617D01*
X123020743Y-88739680D01*
X122993687Y-88797967D01*
X122936262Y-88921680D01*
X122926688Y-88942305D01*
X122866989Y-89157570D01*
X122843251Y-89379695D01*
X122843548Y-89384848D01*
X122843548Y-89384851D01*
X122849011Y-89479590D01*
X122856110Y-89602715D01*
X122857247Y-89607761D01*
X122857248Y-89607767D01*
X122863824Y-89636945D01*
X122905222Y-89820639D01*
X122943461Y-89914811D01*
X122976198Y-89995432D01*
X122989266Y-90027616D01*
X123023322Y-90083190D01*
X123097087Y-90203564D01*
X123105987Y-90218088D01*
X123252250Y-90386938D01*
X123424126Y-90529632D01*
X123465278Y-90553679D01*
X123497445Y-90572476D01*
X123546169Y-90624114D01*
X123559240Y-90693897D01*
X123532509Y-90759669D01*
X123492055Y-90793027D01*
X123479607Y-90799507D01*
X123475474Y-90802610D01*
X123475471Y-90802612D01*
X123374070Y-90878746D01*
X123300965Y-90933635D01*
X123146629Y-91095138D01*
X123020743Y-91279680D01*
X122926688Y-91482305D01*
X122866989Y-91697570D01*
X122843251Y-91919695D01*
X122843548Y-91924848D01*
X122843548Y-91924851D01*
X122849011Y-92019590D01*
X122856110Y-92142715D01*
X122857247Y-92147761D01*
X122857248Y-92147767D01*
X122857532Y-92149025D01*
X122905222Y-92360639D01*
X122989266Y-92567616D01*
X123105987Y-92758088D01*
X123252250Y-92926938D01*
X123424126Y-93069632D01*
X123444552Y-93081568D01*
X123497445Y-93112476D01*
X123546169Y-93164114D01*
X123559240Y-93233897D01*
X123532509Y-93299669D01*
X123492055Y-93333027D01*
X123479607Y-93339507D01*
X123475474Y-93342610D01*
X123475471Y-93342612D01*
X123305100Y-93470530D01*
X123300965Y-93473635D01*
X123146629Y-93635138D01*
X123020743Y-93819680D01*
X123001891Y-93860294D01*
X122931632Y-94011655D01*
X122926688Y-94022305D01*
X122866989Y-94237570D01*
X122843251Y-94459695D01*
X122843548Y-94464848D01*
X122843548Y-94464851D01*
X122852541Y-94620814D01*
X122856110Y-94682715D01*
X122857247Y-94687761D01*
X122857248Y-94687767D01*
X122877119Y-94775939D01*
X122905222Y-94900639D01*
X122949770Y-95010348D01*
X122975217Y-95073016D01*
X122989266Y-95107616D01*
X122991965Y-95112020D01*
X123074910Y-95247374D01*
X123105987Y-95298088D01*
X123252250Y-95466938D01*
X123424126Y-95609632D01*
X123476095Y-95640000D01*
X123497445Y-95652476D01*
X123546169Y-95704114D01*
X123559240Y-95773897D01*
X123532509Y-95839669D01*
X123492055Y-95873027D01*
X123479607Y-95879507D01*
X123475474Y-95882610D01*
X123475471Y-95882612D01*
X123305100Y-96010530D01*
X123300965Y-96013635D01*
X123146629Y-96175138D01*
X123020743Y-96359680D01*
X123005003Y-96393590D01*
X122944706Y-96523489D01*
X122926688Y-96562305D01*
X122866989Y-96777570D01*
X122843251Y-96999695D01*
X122843548Y-97004848D01*
X122843548Y-97004851D01*
X122849011Y-97099590D01*
X122856110Y-97222715D01*
X122857247Y-97227761D01*
X122857248Y-97227767D01*
X122867581Y-97273616D01*
X122905222Y-97440639D01*
X122989266Y-97647616D01*
X123105987Y-97838088D01*
X123252250Y-98006938D01*
X123424126Y-98149632D01*
X123494595Y-98190811D01*
X123497445Y-98192476D01*
X123546169Y-98244114D01*
X123559240Y-98313897D01*
X123532509Y-98379669D01*
X123492055Y-98413027D01*
X123479607Y-98419507D01*
X123475474Y-98422610D01*
X123475471Y-98422612D01*
X123451247Y-98440800D01*
X123300965Y-98553635D01*
X123146629Y-98715138D01*
X123020743Y-98899680D01*
X122926688Y-99102305D01*
X122866989Y-99317570D01*
X122843251Y-99539695D01*
X122843548Y-99544848D01*
X122843548Y-99544851D01*
X122849011Y-99639590D01*
X122856110Y-99762715D01*
X122857247Y-99767761D01*
X122857248Y-99767767D01*
X122877119Y-99855939D01*
X122905222Y-99980639D01*
X122989266Y-100187616D01*
X123025033Y-100245982D01*
X123086246Y-100345873D01*
X123105987Y-100378088D01*
X123252250Y-100546938D01*
X123424126Y-100689632D01*
X123494595Y-100730811D01*
X123497445Y-100732476D01*
X123546169Y-100784114D01*
X123559240Y-100853897D01*
X123532509Y-100919669D01*
X123492055Y-100953027D01*
X123479607Y-100959507D01*
X123475474Y-100962610D01*
X123475471Y-100962612D01*
X123451247Y-100980800D01*
X123300965Y-101093635D01*
X123146629Y-101255138D01*
X123020743Y-101439680D01*
X122926688Y-101642305D01*
X122866989Y-101857570D01*
X122843251Y-102079695D01*
X122843548Y-102084848D01*
X122843548Y-102084851D01*
X122849011Y-102179590D01*
X122856110Y-102302715D01*
X122857247Y-102307761D01*
X122857248Y-102307767D01*
X122877119Y-102395939D01*
X122905222Y-102520639D01*
X122989266Y-102727616D01*
X122991965Y-102732020D01*
X123092836Y-102896627D01*
X123105987Y-102918088D01*
X123252250Y-103086938D01*
X123424126Y-103229632D01*
X123494595Y-103270811D01*
X123497445Y-103272476D01*
X123546169Y-103324114D01*
X123559240Y-103393897D01*
X123532509Y-103459669D01*
X123492055Y-103493027D01*
X123479607Y-103499507D01*
X123475474Y-103502610D01*
X123475471Y-103502612D01*
X123451247Y-103520800D01*
X123300965Y-103633635D01*
X123146629Y-103795138D01*
X123020743Y-103979680D01*
X122926688Y-104182305D01*
X122866989Y-104397570D01*
X122843251Y-104619695D01*
X122843548Y-104624848D01*
X122843548Y-104624851D01*
X122849615Y-104730066D01*
X122856110Y-104842715D01*
X122857247Y-104847761D01*
X122857248Y-104847767D01*
X122866508Y-104888854D01*
X122905222Y-105060639D01*
X122989266Y-105267616D01*
X123105987Y-105458088D01*
X123252250Y-105626938D01*
X123424126Y-105769632D01*
X123494595Y-105810811D01*
X123497445Y-105812476D01*
X123546169Y-105864114D01*
X123559240Y-105933897D01*
X123532509Y-105999669D01*
X123492055Y-106033027D01*
X123479607Y-106039507D01*
X123475474Y-106042610D01*
X123475471Y-106042612D01*
X123451247Y-106060800D01*
X123300965Y-106173635D01*
X123146629Y-106335138D01*
X123020743Y-106519680D01*
X122926688Y-106722305D01*
X122866989Y-106937570D01*
X122843251Y-107159695D01*
X122843548Y-107164848D01*
X122843548Y-107164851D01*
X122849011Y-107259590D01*
X122856110Y-107382715D01*
X122857247Y-107387761D01*
X122857248Y-107387767D01*
X122877119Y-107475939D01*
X122905222Y-107600639D01*
X122989266Y-107807616D01*
X123105987Y-107998088D01*
X123252250Y-108166938D01*
X123424126Y-108309632D01*
X123494595Y-108350811D01*
X123497445Y-108352476D01*
X123546169Y-108404114D01*
X123559240Y-108473897D01*
X123532509Y-108539669D01*
X123492055Y-108573027D01*
X123479607Y-108579507D01*
X123475474Y-108582610D01*
X123475471Y-108582612D01*
X123451247Y-108600800D01*
X123300965Y-108713635D01*
X123146629Y-108875138D01*
X123020743Y-109059680D01*
X122926688Y-109262305D01*
X122866989Y-109477570D01*
X122843251Y-109699695D01*
X122843548Y-109704848D01*
X122843548Y-109704851D01*
X122849011Y-109799590D01*
X122856110Y-109922715D01*
X122857247Y-109927761D01*
X122857248Y-109927767D01*
X122877119Y-110015939D01*
X122905222Y-110140639D01*
X122989266Y-110347616D01*
X123105987Y-110538088D01*
X123252250Y-110706938D01*
X123424126Y-110849632D01*
X123494595Y-110890811D01*
X123497445Y-110892476D01*
X123546169Y-110944114D01*
X123559240Y-111013897D01*
X123532509Y-111079669D01*
X123492055Y-111113027D01*
X123479607Y-111119507D01*
X123475474Y-111122610D01*
X123475471Y-111122612D01*
X123451247Y-111140800D01*
X123300965Y-111253635D01*
X123146629Y-111415138D01*
X123020743Y-111599680D01*
X122926688Y-111802305D01*
X122866989Y-112017570D01*
X122843251Y-112239695D01*
X122843548Y-112244848D01*
X122843548Y-112244851D01*
X122849011Y-112339590D01*
X122856110Y-112462715D01*
X122857247Y-112467761D01*
X122857248Y-112467767D01*
X122877119Y-112555939D01*
X122905222Y-112680639D01*
X122989266Y-112887616D01*
X123105987Y-113078088D01*
X123252250Y-113246938D01*
X123424126Y-113389632D01*
X123494595Y-113430811D01*
X123497445Y-113432476D01*
X123546169Y-113484114D01*
X123559240Y-113553897D01*
X123532509Y-113619669D01*
X123492055Y-113653027D01*
X123479607Y-113659507D01*
X123475474Y-113662610D01*
X123475471Y-113662612D01*
X123451247Y-113680800D01*
X123300965Y-113793635D01*
X123146629Y-113955138D01*
X123020743Y-114139680D01*
X122926688Y-114342305D01*
X122866989Y-114557570D01*
X122843251Y-114779695D01*
X121666000Y-114779695D01*
X121666000Y-103632000D01*
X94700630Y-103429253D01*
X94632662Y-103408740D01*
X94589917Y-103361634D01*
X94573960Y-103331110D01*
X94450032Y-103176975D01*
X94298526Y-103049846D01*
X94293128Y-103046879D01*
X94293123Y-103046875D01*
X94130608Y-102957533D01*
X94130609Y-102957533D01*
X94125213Y-102954567D01*
X94119346Y-102952706D01*
X94119344Y-102952705D01*
X93942564Y-102896627D01*
X93942563Y-102896627D01*
X93936694Y-102894765D01*
X93782773Y-102877500D01*
X81495924Y-102877500D01*
X81427803Y-102857498D01*
X81406829Y-102840595D01*
X78909925Y-100343691D01*
X78891752Y-100328763D01*
X78857346Y-100300502D01*
X78795739Y-100249897D01*
X78679584Y-100187616D01*
X78626870Y-100159351D01*
X78626869Y-100159351D01*
X78621437Y-100156438D01*
X78512781Y-100123218D01*
X78438200Y-100100416D01*
X78438198Y-100100416D01*
X78432302Y-100098613D01*
X78374449Y-100092736D01*
X78241666Y-100079248D01*
X78241661Y-100079248D01*
X78235538Y-100078626D01*
X78111475Y-100090354D01*
X78044771Y-100096659D01*
X78044769Y-100096659D01*
X78038638Y-100097239D01*
X77943871Y-100125490D01*
X77855007Y-100151981D01*
X77855005Y-100151982D01*
X77849104Y-100153741D01*
X77674154Y-100245982D01*
X77628047Y-100283319D01*
X77600006Y-100300502D01*
X77551281Y-100322195D01*
X77551274Y-100322199D01*
X77545248Y-100324882D01*
X77390747Y-100437134D01*
X77262960Y-100579056D01*
X77167473Y-100744444D01*
X77108458Y-100926072D01*
X77107768Y-100932633D01*
X77107768Y-100932635D01*
X77103042Y-100977598D01*
X77088496Y-101116000D01*
X77089186Y-101122565D01*
X77105466Y-101277457D01*
X77108458Y-101305928D01*
X77167473Y-101487556D01*
X77262960Y-101652944D01*
X77267378Y-101657851D01*
X77267379Y-101657852D01*
X77286169Y-101678720D01*
X77390747Y-101794866D01*
X77470194Y-101852588D01*
X77529288Y-101895522D01*
X77545248Y-101907118D01*
X77551276Y-101909802D01*
X77551278Y-101909803D01*
X77660252Y-101958321D01*
X77698098Y-101984333D01*
X78807756Y-103093990D01*
X78841780Y-103156301D01*
X78836716Y-103227116D01*
X78794169Y-103283952D01*
X78727649Y-103308763D01*
X78717713Y-103309080D01*
X55243053Y-103132579D01*
X55175084Y-103112066D01*
X55128996Y-103058062D01*
X55118000Y-103006583D01*
X55118000Y-96516425D01*
X82295145Y-96516425D01*
X82313070Y-96713388D01*
X82368910Y-96903119D01*
X82371763Y-96908577D01*
X82371765Y-96908581D01*
X82419220Y-96999353D01*
X82460540Y-97078390D01*
X82584468Y-97232525D01*
X82589192Y-97236489D01*
X82596433Y-97242565D01*
X82735974Y-97359654D01*
X82741372Y-97362621D01*
X82741377Y-97362625D01*
X82838753Y-97416157D01*
X82909287Y-97454933D01*
X82915154Y-97456794D01*
X82915156Y-97456795D01*
X83091936Y-97512873D01*
X83097806Y-97514735D01*
X83251727Y-97532000D01*
X86214657Y-97532000D01*
X86228264Y-97532737D01*
X86259762Y-97536159D01*
X86259767Y-97536159D01*
X86265888Y-97536824D01*
X86292138Y-97534527D01*
X86315888Y-97532450D01*
X86320714Y-97532121D01*
X86323186Y-97532000D01*
X86326269Y-97532000D01*
X86338238Y-97530826D01*
X86369006Y-97527810D01*
X86370319Y-97527688D01*
X86414584Y-97523815D01*
X86462913Y-97519587D01*
X86468032Y-97518100D01*
X86473333Y-97517580D01*
X86562334Y-97490709D01*
X86563467Y-97490374D01*
X86646914Y-97466130D01*
X86646918Y-97466128D01*
X86652836Y-97464409D01*
X86657568Y-97461956D01*
X86662669Y-97460416D01*
X86709350Y-97435596D01*
X86744760Y-97416769D01*
X86745926Y-97416157D01*
X86822953Y-97376229D01*
X86828426Y-97373392D01*
X86832589Y-97370069D01*
X86837296Y-97367566D01*
X86909418Y-97308745D01*
X86910274Y-97308054D01*
X86949473Y-97276762D01*
X86951977Y-97274258D01*
X86952695Y-97273616D01*
X86957028Y-97269915D01*
X86990562Y-97242565D01*
X87019788Y-97207237D01*
X87027777Y-97198458D01*
X89148309Y-95077926D01*
X89242102Y-94963739D01*
X89335562Y-94789437D01*
X89380317Y-94643051D01*
X89391584Y-94606200D01*
X89391584Y-94606198D01*
X89393387Y-94600302D01*
X89404946Y-94486507D01*
X89412751Y-94409666D01*
X89412751Y-94409661D01*
X89413373Y-94403538D01*
X89401272Y-94275522D01*
X89395341Y-94212770D01*
X89395340Y-94212766D01*
X89394761Y-94206638D01*
X89338259Y-94017104D01*
X89246018Y-93842154D01*
X89121553Y-93688453D01*
X89088935Y-93661277D01*
X88974335Y-93565795D01*
X88974330Y-93565792D01*
X88969604Y-93561854D01*
X88948061Y-93550108D01*
X88801364Y-93470126D01*
X88801365Y-93470126D01*
X88795959Y-93467179D01*
X88607231Y-93408036D01*
X88601108Y-93407371D01*
X88601104Y-93407370D01*
X88416736Y-93387341D01*
X88416732Y-93387341D01*
X88410611Y-93386676D01*
X88213587Y-93403913D01*
X88207670Y-93405632D01*
X88207665Y-93405633D01*
X88079433Y-93442889D01*
X88023663Y-93459092D01*
X87848074Y-93550108D01*
X87843255Y-93553955D01*
X87736207Y-93639411D01*
X87727027Y-93646739D01*
X85895671Y-95478095D01*
X85833359Y-95512121D01*
X85806576Y-95515000D01*
X83258731Y-95515000D01*
X83255675Y-95515300D01*
X83255668Y-95515300D01*
X83197160Y-95521037D01*
X83111667Y-95529420D01*
X83105766Y-95531202D01*
X83105764Y-95531202D01*
X83095924Y-95534173D01*
X82922331Y-95586584D01*
X82747704Y-95679434D01*
X82714408Y-95706590D01*
X82599213Y-95800540D01*
X82599210Y-95800543D01*
X82594438Y-95804435D01*
X82590511Y-95809182D01*
X82590509Y-95809184D01*
X82472299Y-95952075D01*
X82472297Y-95952079D01*
X82468370Y-95956825D01*
X82374302Y-96130799D01*
X82315818Y-96319732D01*
X82315174Y-96325857D01*
X82315174Y-96325858D01*
X82308555Y-96388840D01*
X82295145Y-96516425D01*
X55118000Y-96516425D01*
X55118000Y-91432925D01*
X80520645Y-91432925D01*
X80538570Y-91629888D01*
X80540308Y-91635794D01*
X80540309Y-91635798D01*
X80560001Y-91702707D01*
X80594410Y-91819619D01*
X80686040Y-91994890D01*
X80809968Y-92149025D01*
X80961474Y-92276154D01*
X80966872Y-92279121D01*
X80966877Y-92279125D01*
X81105979Y-92355596D01*
X81134787Y-92371433D01*
X81140654Y-92373294D01*
X81140656Y-92373295D01*
X81317436Y-92429373D01*
X81323306Y-92431235D01*
X81477227Y-92448500D01*
X90706770Y-92448500D01*
X90774891Y-92468502D01*
X90795865Y-92485405D01*
X93213840Y-94903379D01*
X93222942Y-94913522D01*
X93246663Y-94943025D01*
X93251391Y-94946992D01*
X93285116Y-94975291D01*
X93288764Y-94978472D01*
X93290576Y-94980115D01*
X93292770Y-94982309D01*
X93326044Y-95009642D01*
X93326842Y-95010304D01*
X93398169Y-95070154D01*
X93402839Y-95072722D01*
X93406956Y-95076103D01*
X93488815Y-95119995D01*
X93489975Y-95120624D01*
X93566084Y-95162466D01*
X93566089Y-95162468D01*
X93571482Y-95165433D01*
X93576560Y-95167044D01*
X93581258Y-95169563D01*
X93670193Y-95196753D01*
X93671397Y-95197128D01*
X93760001Y-95225235D01*
X93765292Y-95225828D01*
X93770393Y-95227388D01*
X93863006Y-95236795D01*
X93864126Y-95236915D01*
X93913922Y-95242500D01*
X93917451Y-95242500D01*
X93918434Y-95242555D01*
X93924121Y-95243003D01*
X93944378Y-95245060D01*
X93961031Y-95246752D01*
X93961034Y-95246752D01*
X93967158Y-95247374D01*
X94012807Y-95243059D01*
X94024664Y-95242500D01*
X95807769Y-95242500D01*
X95810825Y-95242200D01*
X95810832Y-95242200D01*
X95869340Y-95236463D01*
X95954833Y-95228080D01*
X95960734Y-95226298D01*
X95960736Y-95226298D01*
X96057324Y-95197136D01*
X96144169Y-95170916D01*
X96318796Y-95078066D01*
X96419615Y-94995840D01*
X96467287Y-94956960D01*
X96467290Y-94956957D01*
X96472062Y-94953065D01*
X96504775Y-94913522D01*
X96594201Y-94805425D01*
X96594203Y-94805421D01*
X96598130Y-94800675D01*
X96692198Y-94626701D01*
X96750682Y-94437768D01*
X96768277Y-94270361D01*
X96770711Y-94247204D01*
X96770711Y-94247202D01*
X96771355Y-94241075D01*
X96763847Y-94158576D01*
X96753989Y-94050251D01*
X96753988Y-94050248D01*
X96753430Y-94044112D01*
X96747219Y-94023006D01*
X96699330Y-93860294D01*
X96697590Y-93854381D01*
X96694694Y-93848840D01*
X96647280Y-93758147D01*
X96605960Y-93679110D01*
X96482032Y-93524975D01*
X96330526Y-93397846D01*
X96325128Y-93394879D01*
X96325123Y-93394875D01*
X96162608Y-93305533D01*
X96162609Y-93305533D01*
X96157213Y-93302567D01*
X96151346Y-93300706D01*
X96151344Y-93300705D01*
X95974564Y-93244627D01*
X95974563Y-93244627D01*
X95968694Y-93242765D01*
X95814773Y-93225500D01*
X95300195Y-93225500D01*
X95232074Y-93205498D01*
X95185581Y-93151842D01*
X95175477Y-93081568D01*
X95206560Y-93015189D01*
X95222621Y-92997352D01*
X95222622Y-92997351D01*
X95227040Y-92992444D01*
X95322527Y-92827056D01*
X95381542Y-92645428D01*
X95389258Y-92572020D01*
X95400814Y-92462065D01*
X95401504Y-92455500D01*
X95391004Y-92355596D01*
X95382232Y-92272135D01*
X95382232Y-92272133D01*
X95381542Y-92265572D01*
X95322527Y-92083944D01*
X95227040Y-91918556D01*
X95099253Y-91776634D01*
X94944752Y-91664382D01*
X94938724Y-91661698D01*
X94938722Y-91661697D01*
X94776319Y-91589391D01*
X94776318Y-91589391D01*
X94770288Y-91586706D01*
X94676887Y-91566853D01*
X94589944Y-91548372D01*
X94589939Y-91548372D01*
X94583487Y-91547000D01*
X94527594Y-91547000D01*
X94459473Y-91526998D01*
X94438499Y-91510095D01*
X91944152Y-89015747D01*
X91936612Y-89007461D01*
X91932500Y-89000982D01*
X91882848Y-88954356D01*
X91880007Y-88951602D01*
X91860270Y-88931865D01*
X91857073Y-88929385D01*
X91848051Y-88921680D01*
X91821600Y-88896841D01*
X91815821Y-88891414D01*
X91808875Y-88887595D01*
X91808872Y-88887593D01*
X91798066Y-88881652D01*
X91781547Y-88870801D01*
X91781083Y-88870441D01*
X91765541Y-88858386D01*
X91758272Y-88855241D01*
X91758268Y-88855238D01*
X91724963Y-88840826D01*
X91714313Y-88835609D01*
X91675560Y-88814305D01*
X91655937Y-88809267D01*
X91637234Y-88802863D01*
X91625920Y-88797967D01*
X91625919Y-88797967D01*
X91618645Y-88794819D01*
X91610822Y-88793580D01*
X91610812Y-88793577D01*
X91574976Y-88787901D01*
X91563356Y-88785495D01*
X91528211Y-88776472D01*
X91528210Y-88776472D01*
X91520530Y-88774500D01*
X91500276Y-88774500D01*
X91480565Y-88772949D01*
X91468386Y-88771020D01*
X91460557Y-88769780D01*
X91421564Y-88773466D01*
X91416539Y-88773941D01*
X91404681Y-88774500D01*
X90568005Y-88774500D01*
X90499884Y-88754498D01*
X90493944Y-88750436D01*
X90378201Y-88666343D01*
X90378200Y-88666342D01*
X90372859Y-88662462D01*
X90366831Y-88659778D01*
X90366829Y-88659777D01*
X90204426Y-88587471D01*
X90204425Y-88587471D01*
X90198395Y-88584786D01*
X90079016Y-88559411D01*
X90018051Y-88546452D01*
X90018046Y-88546452D01*
X90011594Y-88545080D01*
X89820620Y-88545080D01*
X89814168Y-88546452D01*
X89814163Y-88546452D01*
X89753198Y-88559411D01*
X89633819Y-88584786D01*
X89627789Y-88587471D01*
X89627788Y-88587471D01*
X89465385Y-88659777D01*
X89465383Y-88659778D01*
X89459355Y-88662462D01*
X89304854Y-88774714D01*
X89300433Y-88779624D01*
X89300432Y-88779625D01*
X89245327Y-88840826D01*
X89177067Y-88916636D01*
X89081580Y-89082024D01*
X89022565Y-89263652D01*
X89021875Y-89270213D01*
X89021875Y-89270215D01*
X89009827Y-89384851D01*
X89002603Y-89453580D01*
X89003293Y-89460145D01*
X89018809Y-89607767D01*
X89022565Y-89643508D01*
X89081580Y-89825136D01*
X89177067Y-89990524D01*
X89181485Y-89995431D01*
X89181486Y-89995432D01*
X89300432Y-90127535D01*
X89304854Y-90132446D01*
X89384024Y-90189967D01*
X89402739Y-90203564D01*
X89446093Y-90259787D01*
X89452168Y-90330523D01*
X89419036Y-90393314D01*
X89357216Y-90428226D01*
X89328678Y-90431500D01*
X81484231Y-90431500D01*
X81481175Y-90431800D01*
X81481168Y-90431800D01*
X81422660Y-90437537D01*
X81337167Y-90445920D01*
X81331266Y-90447702D01*
X81331264Y-90447702D01*
X81299902Y-90457171D01*
X81147831Y-90503084D01*
X80973204Y-90595934D01*
X80886938Y-90666291D01*
X80824713Y-90717040D01*
X80824710Y-90717043D01*
X80819938Y-90720935D01*
X80816011Y-90725682D01*
X80816009Y-90725684D01*
X80697799Y-90868575D01*
X80697797Y-90868579D01*
X80693870Y-90873325D01*
X80599802Y-91047299D01*
X80541318Y-91236232D01*
X80520645Y-91432925D01*
X55118000Y-91432925D01*
X55118000Y-88900000D01*
X48200845Y-88900000D01*
X48132724Y-88879998D01*
X48086231Y-88826342D01*
X48074846Y-88773466D01*
X48111622Y-80094307D01*
X48119513Y-78232000D01*
X48932526Y-78232000D01*
X48952391Y-78484403D01*
X48953545Y-78489210D01*
X48953546Y-78489216D01*
X48991179Y-78645968D01*
X49011495Y-78730591D01*
X49108384Y-78964502D01*
X49240672Y-79180376D01*
X49405102Y-79372898D01*
X49597624Y-79537328D01*
X49813498Y-79669616D01*
X49818068Y-79671509D01*
X49818072Y-79671511D01*
X50042836Y-79764611D01*
X50047409Y-79766505D01*
X50132032Y-79786821D01*
X50288784Y-79824454D01*
X50288790Y-79824455D01*
X50293597Y-79825609D01*
X50393416Y-79833465D01*
X50480345Y-79840307D01*
X50480352Y-79840307D01*
X50482801Y-79840500D01*
X50609199Y-79840500D01*
X50611648Y-79840307D01*
X50611655Y-79840307D01*
X50698584Y-79833465D01*
X50798403Y-79825609D01*
X50803210Y-79824455D01*
X50803216Y-79824454D01*
X50959968Y-79786821D01*
X51044591Y-79766505D01*
X51049164Y-79764611D01*
X51273928Y-79671511D01*
X51273932Y-79671509D01*
X51278502Y-79669616D01*
X51494376Y-79537328D01*
X51686898Y-79372898D01*
X51851328Y-79180376D01*
X51983616Y-78964502D01*
X52080505Y-78730591D01*
X52100821Y-78645968D01*
X52138454Y-78489216D01*
X52138455Y-78489210D01*
X52139226Y-78486000D01*
X122338526Y-78486000D01*
X122358391Y-78738403D01*
X122417495Y-78984591D01*
X122419388Y-78989162D01*
X122419389Y-78989164D01*
X122500149Y-79184135D01*
X122514384Y-79218502D01*
X122646672Y-79434376D01*
X122811102Y-79626898D01*
X123003624Y-79791328D01*
X123219498Y-79923616D01*
X123224068Y-79925509D01*
X123224072Y-79925511D01*
X123448836Y-80018611D01*
X123453409Y-80020505D01*
X123538032Y-80040821D01*
X123694784Y-80078454D01*
X123694790Y-80078455D01*
X123699597Y-80079609D01*
X123799416Y-80087465D01*
X123886345Y-80094307D01*
X123886352Y-80094307D01*
X123888801Y-80094500D01*
X124015199Y-80094500D01*
X124017648Y-80094307D01*
X124017655Y-80094307D01*
X124104584Y-80087465D01*
X124204403Y-80079609D01*
X124209210Y-80078455D01*
X124209216Y-80078454D01*
X124365968Y-80040821D01*
X124450591Y-80020505D01*
X124455164Y-80018611D01*
X124679928Y-79925511D01*
X124679932Y-79925509D01*
X124684502Y-79923616D01*
X124900376Y-79791328D01*
X125092898Y-79626898D01*
X125257328Y-79434376D01*
X125389616Y-79218502D01*
X125403852Y-79184135D01*
X125484611Y-78989164D01*
X125484612Y-78989162D01*
X125486505Y-78984591D01*
X125545609Y-78738403D01*
X125565474Y-78486000D01*
X125545609Y-78233597D01*
X125544043Y-78227070D01*
X125487660Y-77992221D01*
X125486505Y-77987409D01*
X125389616Y-77753498D01*
X125257328Y-77537624D01*
X125092898Y-77345102D01*
X124900376Y-77180672D01*
X124684502Y-77048384D01*
X124679932Y-77046491D01*
X124679928Y-77046489D01*
X124455164Y-76953389D01*
X124455162Y-76953388D01*
X124450591Y-76951495D01*
X124336440Y-76924090D01*
X124209216Y-76893546D01*
X124209210Y-76893545D01*
X124204403Y-76892391D01*
X124104584Y-76884535D01*
X124017655Y-76877693D01*
X124017648Y-76877693D01*
X124015199Y-76877500D01*
X123888801Y-76877500D01*
X123886352Y-76877693D01*
X123886345Y-76877693D01*
X123799416Y-76884535D01*
X123699597Y-76892391D01*
X123694790Y-76893545D01*
X123694784Y-76893546D01*
X123567560Y-76924090D01*
X123453409Y-76951495D01*
X123448838Y-76953388D01*
X123448836Y-76953389D01*
X123224072Y-77046489D01*
X123224068Y-77046491D01*
X123219498Y-77048384D01*
X123003624Y-77180672D01*
X122811102Y-77345102D01*
X122646672Y-77537624D01*
X122514384Y-77753498D01*
X122417495Y-77987409D01*
X122416340Y-77992221D01*
X122359958Y-78227070D01*
X122358391Y-78233597D01*
X122338526Y-78486000D01*
X52139226Y-78486000D01*
X52139609Y-78484403D01*
X52159474Y-78232000D01*
X52139609Y-77979597D01*
X52080505Y-77733409D01*
X52001154Y-77541838D01*
X51985511Y-77504072D01*
X51985509Y-77504068D01*
X51983616Y-77499498D01*
X51851328Y-77283624D01*
X51686898Y-77091102D01*
X51494376Y-76926672D01*
X51278502Y-76794384D01*
X51273932Y-76792491D01*
X51273928Y-76792489D01*
X51049164Y-76699389D01*
X51049162Y-76699388D01*
X51044591Y-76697495D01*
X50959968Y-76677179D01*
X50803216Y-76639546D01*
X50803210Y-76639545D01*
X50798403Y-76638391D01*
X50698584Y-76630535D01*
X50611655Y-76623693D01*
X50611648Y-76623693D01*
X50609199Y-76623500D01*
X50482801Y-76623500D01*
X50480352Y-76623693D01*
X50480345Y-76623693D01*
X50393416Y-76630535D01*
X50293597Y-76638391D01*
X50288790Y-76639545D01*
X50288784Y-76639546D01*
X50132032Y-76677179D01*
X50047409Y-76697495D01*
X50042838Y-76699388D01*
X50042836Y-76699389D01*
X49818072Y-76792489D01*
X49818068Y-76792491D01*
X49813498Y-76794384D01*
X49597624Y-76926672D01*
X49405102Y-77091102D01*
X49240672Y-77283624D01*
X49108384Y-77499498D01*
X49106491Y-77504068D01*
X49106489Y-77504072D01*
X49090846Y-77541838D01*
X49011495Y-77733409D01*
X48952391Y-77979597D01*
X48932526Y-78232000D01*
X48119513Y-78232000D01*
X48130818Y-75563965D01*
X48151109Y-75495931D01*
X48204961Y-75449666D01*
X48256817Y-75438500D01*
X126615420Y-75438500D01*
X126683541Y-75458502D01*
G37*
%TD.AperFunction*%
%TD*%
M02*
