%TF.GenerationSoftware,KiCad,Pcbnew,(6.0.10)*%
%TF.CreationDate,2023-03-06T12:11:40-08:00*%
%TF.ProjectId,PCM5242,50434d35-3234-4322-9e6b-696361645f70,rev?*%
%TF.SameCoordinates,Original*%
%TF.FileFunction,Copper,L1,Top*%
%TF.FilePolarity,Positive*%
%FSLAX46Y46*%
G04 Gerber Fmt 4.6, Leading zero omitted, Abs format (unit mm)*
G04 Created by KiCad (PCBNEW (6.0.10)) date 2023-03-06 12:11:40*
%MOMM*%
%LPD*%
G01*
G04 APERTURE LIST*
G04 Aperture macros list*
%AMRoundRect*
0 Rectangle with rounded corners*
0 $1 Rounding radius*
0 $2 $3 $4 $5 $6 $7 $8 $9 X,Y pos of 4 corners*
0 Add a 4 corners polygon primitive as box body*
4,1,4,$2,$3,$4,$5,$6,$7,$8,$9,$2,$3,0*
0 Add four circle primitives for the rounded corners*
1,1,$1+$1,$2,$3*
1,1,$1+$1,$4,$5*
1,1,$1+$1,$6,$7*
1,1,$1+$1,$8,$9*
0 Add four rect primitives between the rounded corners*
20,1,$1+$1,$2,$3,$4,$5,0*
20,1,$1+$1,$4,$5,$6,$7,0*
20,1,$1+$1,$6,$7,$8,$9,0*
20,1,$1+$1,$8,$9,$2,$3,0*%
G04 Aperture macros list end*
%TA.AperFunction,SMDPad,CuDef*%
%ADD10RoundRect,0.237500X-0.300000X-0.237500X0.300000X-0.237500X0.300000X0.237500X-0.300000X0.237500X0*%
%TD*%
%TA.AperFunction,ComponentPad*%
%ADD11R,1.700000X1.700000*%
%TD*%
%TA.AperFunction,ComponentPad*%
%ADD12O,1.700000X1.700000*%
%TD*%
%TA.AperFunction,SMDPad,CuDef*%
%ADD13RoundRect,0.237500X0.300000X0.237500X-0.300000X0.237500X-0.300000X-0.237500X0.300000X-0.237500X0*%
%TD*%
%TA.AperFunction,SMDPad,CuDef*%
%ADD14RoundRect,0.237500X0.237500X-0.300000X0.237500X0.300000X-0.237500X0.300000X-0.237500X-0.300000X0*%
%TD*%
%TA.AperFunction,SMDPad,CuDef*%
%ADD15RoundRect,0.250000X-0.625000X0.400000X-0.625000X-0.400000X0.625000X-0.400000X0.625000X0.400000X0*%
%TD*%
%TA.AperFunction,SMDPad,CuDef*%
%ADD16R,1.150000X0.600000*%
%TD*%
%TA.AperFunction,SMDPad,CuDef*%
%ADD17RoundRect,0.250000X0.625000X-0.400000X0.625000X0.400000X-0.625000X0.400000X-0.625000X-0.400000X0*%
%TD*%
%TA.AperFunction,SMDPad,CuDef*%
%ADD18RoundRect,0.237500X-0.237500X0.300000X-0.237500X-0.300000X0.237500X-0.300000X0.237500X0.300000X0*%
%TD*%
%TA.AperFunction,SMDPad,CuDef*%
%ADD19R,0.900000X0.300000*%
%TD*%
%TA.AperFunction,SMDPad,CuDef*%
%ADD20R,0.300000X0.900000*%
%TD*%
%TA.AperFunction,SMDPad,CuDef*%
%ADD21R,3.550000X3.550000*%
%TD*%
%TA.AperFunction,SMDPad,CuDef*%
%ADD22R,1.300000X1.100000*%
%TD*%
%TA.AperFunction,ViaPad*%
%ADD23C,0.800000*%
%TD*%
%TA.AperFunction,Conductor*%
%ADD24C,0.250000*%
%TD*%
%TA.AperFunction,Conductor*%
%ADD25C,1.000000*%
%TD*%
G04 APERTURE END LIST*
D10*
%TO.P,C19,1*%
%TO.N,DVDD*%
X74829500Y-81026000D03*
%TO.P,C19,2*%
%TO.N,GND*%
X76554500Y-81026000D03*
%TD*%
D11*
%TO.P,J2,1,Pin_1*%
%TO.N,GND*%
X124206000Y-117353000D03*
D12*
%TO.P,J2,2,Pin_2*%
%TO.N,/A5*%
X124206000Y-114813000D03*
%TO.P,J2,3,Pin_3*%
%TO.N,/A6*%
X124206000Y-112273000D03*
%TO.P,J2,4,Pin_4*%
%TO.N,/A7*%
X124206000Y-109733000D03*
%TO.P,J2,5,Pin_5*%
%TO.N,/A8*%
X124206000Y-107193000D03*
%TO.P,J2,6,Pin_6*%
%TO.N,/A9*%
X124206000Y-104653000D03*
%TO.P,J2,7,Pin_7*%
%TO.N,/A10*%
X124206000Y-102113000D03*
%TO.P,J2,8,Pin_8*%
%TO.N,/A11*%
X124206000Y-99573000D03*
%TO.P,J2,9,Pin_9*%
%TO.N,/A12*%
X124206000Y-97033000D03*
%TO.P,J2,10,Pin_10*%
%TO.N,/A13*%
X124206000Y-94493000D03*
%TO.P,J2,11,Pin_11*%
%TO.N,/A14*%
X124206000Y-91953000D03*
%TO.P,J2,12,Pin_12*%
%TO.N,/A15*%
X124206000Y-89413000D03*
%TD*%
D13*
%TO.P,C11,1*%
%TO.N,Net-(C11-Pad1)*%
X95858500Y-115570000D03*
%TO.P,C11,2*%
%TO.N,Net-(C11-Pad2)*%
X94133500Y-115570000D03*
%TD*%
D14*
%TO.P,C15,1*%
%TO.N,GND*%
X69232750Y-82751000D03*
%TO.P,C15,2*%
%TO.N,DVDD*%
X69232750Y-81026000D03*
%TD*%
D11*
%TO.P,J3,1,Pin_1*%
%TO.N,GND*%
X51100000Y-93100000D03*
D12*
%TO.P,J3,2,Pin_2*%
%TO.N,VCC*%
X51100000Y-95640000D03*
%TD*%
D15*
%TO.P,R3,1*%
%TO.N,Net-(R3-Pad1)*%
X90648000Y-108686000D03*
%TO.P,R3,2*%
%TO.N,Net-(C12-Pad1)*%
X90648000Y-111786000D03*
%TD*%
D16*
%TO.P,IC1,1,IN*%
%TO.N,VCC*%
X62778000Y-81960500D03*
%TO.P,IC1,2,GND*%
%TO.N,GND*%
X62778000Y-82910500D03*
%TO.P,IC1,3,EN*%
%TO.N,VCC*%
X62778000Y-83860500D03*
%TO.P,IC1,4,NC*%
%TO.N,unconnected-(IC1-Pad4)*%
X65278000Y-83860500D03*
%TO.P,IC1,5,OUT*%
%TO.N,DVDD*%
X65278000Y-81960500D03*
%TD*%
D14*
%TO.P,C16,1*%
%TO.N,VCC*%
X58374000Y-83513000D03*
%TO.P,C16,2*%
%TO.N,GND*%
X58374000Y-81788000D03*
%TD*%
D15*
%TO.P,R4,1*%
%TO.N,Net-(R4-Pad1)*%
X85598000Y-108660000D03*
%TO.P,R4,2*%
%TO.N,Net-(C12-Pad2)*%
X85598000Y-111760000D03*
%TD*%
D11*
%TO.P,J1,1,Pin_1*%
%TO.N,/A1*%
X87640000Y-131318000D03*
D12*
%TO.P,J1,2,Pin_2*%
%TO.N,/A2*%
X90180000Y-131318000D03*
%TO.P,J1,3,Pin_3*%
%TO.N,/A3*%
X92720000Y-131318000D03*
%TO.P,J1,4,Pin_4*%
%TO.N,/A4*%
X95260000Y-131318000D03*
%TD*%
D15*
%TO.P,R6,1*%
%TO.N,Net-(C12-Pad1)*%
X90678000Y-115290000D03*
%TO.P,R6,2*%
%TO.N,/A2*%
X90678000Y-118390000D03*
%TD*%
D17*
%TO.P,R11,1*%
%TO.N,/A4*%
X100274000Y-124512000D03*
%TO.P,R11,2*%
%TO.N,Net-(R11-Pad2)*%
X100274000Y-121412000D03*
%TD*%
D18*
%TO.P,C2,1*%
%TO.N,GND*%
X84836000Y-92958500D03*
%TO.P,C2,2*%
%TO.N,DVDD*%
X84836000Y-94683500D03*
%TD*%
D10*
%TO.P,C10,1*%
%TO.N,AVDD*%
X93603500Y-101346000D03*
%TO.P,C10,2*%
%TO.N,GND*%
X95328500Y-101346000D03*
%TD*%
D18*
%TO.P,C4,1*%
%TO.N,AVDD*%
X86500000Y-96537500D03*
%TO.P,C4,2*%
%TO.N,GND*%
X86500000Y-98262500D03*
%TD*%
D15*
%TO.P,R9,1*%
%TO.N,Net-(C11-Pad2)*%
X96774000Y-119354000D03*
%TO.P,R9,2*%
%TO.N,/A3*%
X96774000Y-122454000D03*
%TD*%
D18*
%TO.P,C18,1*%
%TO.N,VCC*%
X64781250Y-115523500D03*
%TO.P,C18,2*%
%TO.N,GND*%
X64781250Y-117248500D03*
%TD*%
D15*
%TO.P,R8,1*%
%TO.N,Net-(C12-Pad2)*%
X83248000Y-116560000D03*
%TO.P,R8,2*%
%TO.N,Net-(R10-Pad2)*%
X83248000Y-119660000D03*
%TD*%
D18*
%TO.P,C14,1*%
%TO.N,VCC*%
X61938000Y-115523500D03*
%TO.P,C14,2*%
%TO.N,GND*%
X61938000Y-117248500D03*
%TD*%
D15*
%TO.P,R7,1*%
%TO.N,Net-(C11-Pad1)*%
X100274000Y-114688000D03*
%TO.P,R7,2*%
%TO.N,Net-(R11-Pad2)*%
X100274000Y-117788000D03*
%TD*%
D17*
%TO.P,R10,1*%
%TO.N,/A1*%
X87122000Y-122200000D03*
%TO.P,R10,2*%
%TO.N,Net-(R10-Pad2)*%
X87122000Y-119100000D03*
%TD*%
D15*
%TO.P,R2,1*%
%TO.N,Net-(R2-Pad1)*%
X97028000Y-108432000D03*
%TO.P,R2,2*%
%TO.N,Net-(C11-Pad1)*%
X97028000Y-111532000D03*
%TD*%
D19*
%TO.P,U1,1,XSMT*%
%TO.N,AVDD*%
X89498000Y-94516000D03*
%TO.P,U1,2,LDOO*%
%TO.N,/No Connect*%
X89498000Y-95016000D03*
%TO.P,U1,3,DGND*%
%TO.N,GND*%
X89498000Y-95516000D03*
%TO.P,U1,4,DVDD*%
%TO.N,DVDD*%
X89498000Y-96016000D03*
%TO.P,U1,5,CPVDD*%
%TO.N,AVDD*%
X89498000Y-96516000D03*
%TO.P,U1,6,CAPP*%
%TO.N,Net-(C6-Pad1)*%
X89498000Y-97016000D03*
%TO.P,U1,7,CPGND*%
%TO.N,GND*%
X89498000Y-97516000D03*
%TO.P,U1,8,CAPM*%
%TO.N,Net-(C6-Pad2)*%
X89498000Y-98016000D03*
D20*
%TO.P,U1,9,VNEG*%
%TO.N,Net-(C7-Pad1)*%
X90198000Y-98716000D03*
%TO.P,U1,10,OUTLP*%
%TO.N,Net-(R4-Pad1)*%
X90698000Y-98716000D03*
%TO.P,U1,11,OUTLN*%
%TO.N,Net-(R3-Pad1)*%
X91198000Y-98716000D03*
%TO.P,U1,12,OUTRN*%
%TO.N,Net-(R5-Pad1)*%
X91698000Y-98716000D03*
%TO.P,U1,13,OUTRP*%
%TO.N,Net-(R2-Pad1)*%
X92198000Y-98716000D03*
%TO.P,U1,14,AVDD*%
%TO.N,AVDD*%
X92698000Y-98716000D03*
%TO.P,U1,15,AGND*%
%TO.N,GND*%
X93198000Y-98716000D03*
%TO.P,U1,16,VCOM*%
%TO.N,Net-(C8-Pad1)*%
X93698000Y-98716000D03*
D19*
%TO.P,U1,17,SDA*%
%TO.N,/A5*%
X94398000Y-98016000D03*
%TO.P,U1,18,SCL*%
%TO.N,/A6*%
X94398000Y-97516000D03*
%TO.P,U1,19,GPIO5*%
%TO.N,/A7*%
X94398000Y-97016000D03*
%TO.P,U1,20,GPIO4*%
%TO.N,/A8*%
X94398000Y-96516000D03*
%TO.P,U1,21,GPIO3*%
%TO.N,/A9*%
X94398000Y-96016000D03*
%TO.P,U1,22,ADR2*%
%TO.N,/A10*%
X94398000Y-95516000D03*
%TO.P,U1,23,MODE1*%
%TO.N,GND*%
X94398000Y-95016000D03*
%TO.P,U1,24,MODE2*%
%TO.N,DVDD*%
X94398000Y-94516000D03*
D20*
%TO.P,U1,25,GPIO6*%
%TO.N,/A11*%
X93698000Y-93816000D03*
%TO.P,U1,26,SCK*%
%TO.N,SCK*%
X93198000Y-93816000D03*
%TO.P,U1,27,BCK*%
%TO.N,/A12*%
X92698000Y-93816000D03*
%TO.P,U1,28,DIN*%
%TO.N,/A13*%
X92198000Y-93816000D03*
%TO.P,U1,29,NC*%
%TO.N,/No Connect*%
X91698000Y-93816000D03*
%TO.P,U1,30,NC*%
X91198000Y-93816000D03*
%TO.P,U1,31,LRCK*%
%TO.N,/A14*%
X90698000Y-93816000D03*
%TO.P,U1,32,ADR1*%
%TO.N,/A15*%
X90198000Y-93816000D03*
D21*
%TO.P,U1,33,GND*%
%TO.N,GND*%
X91948000Y-96266000D03*
%TD*%
D22*
%TO.P,Y1,1,_TRI-STATE_(STBY)*%
%TO.N,DVDD*%
X81444000Y-86781000D03*
%TO.P,Y1,2,GND/CASE*%
%TO.N,GND*%
X83544000Y-86781000D03*
%TO.P,Y1,3,OUTPUT*%
%TO.N,SCK*%
X83544000Y-85131000D03*
%TO.P,Y1,4,VDD*%
%TO.N,DVDD*%
X81444000Y-85131000D03*
%TD*%
D18*
%TO.P,C7,1*%
%TO.N,Net-(C7-Pad1)*%
X88048000Y-104801500D03*
%TO.P,C7,2*%
%TO.N,GND*%
X88048000Y-106526500D03*
%TD*%
%TO.P,C1,1*%
%TO.N,AVDD*%
X84836000Y-96514500D03*
%TO.P,C1,2*%
%TO.N,GND*%
X84836000Y-98239500D03*
%TD*%
D16*
%TO.P,IC2,1,IN*%
%TO.N,VCC*%
X66691250Y-115382000D03*
%TO.P,IC2,2,GND*%
%TO.N,GND*%
X66691250Y-116332000D03*
%TO.P,IC2,3,EN*%
%TO.N,VCC*%
X66691250Y-117282000D03*
%TO.P,IC2,4,NC*%
%TO.N,unconnected-(IC2-Pad4)*%
X69191250Y-117282000D03*
%TO.P,IC2,5,OUT*%
%TO.N,AVDD*%
X69191250Y-115382000D03*
%TD*%
D14*
%TO.P,C5,1*%
%TO.N,DVDD*%
X86614000Y-94683500D03*
%TO.P,C5,2*%
%TO.N,GND*%
X86614000Y-92958500D03*
%TD*%
D10*
%TO.P,C9,1*%
%TO.N,AVDD*%
X93659500Y-102870000D03*
%TO.P,C9,2*%
%TO.N,GND*%
X95384500Y-102870000D03*
%TD*%
D14*
%TO.P,C13,1*%
%TO.N,VCC*%
X60660000Y-83613500D03*
%TO.P,C13,2*%
%TO.N,GND*%
X60660000Y-81888500D03*
%TD*%
D13*
%TO.P,C12,1*%
%TO.N,Net-(C12-Pad1)*%
X87610500Y-115570000D03*
%TO.P,C12,2*%
%TO.N,Net-(C12-Pad2)*%
X85885500Y-115570000D03*
%TD*%
D14*
%TO.P,C17,1*%
%TO.N,GND*%
X71639250Y-116994500D03*
%TO.P,C17,2*%
%TO.N,AVDD*%
X71639250Y-115269500D03*
%TD*%
D10*
%TO.P,C8,1*%
%TO.N,Net-(C8-Pad1)*%
X96785500Y-105664000D03*
%TO.P,C8,2*%
%TO.N,GND*%
X98510500Y-105664000D03*
%TD*%
D15*
%TO.P,R5,1*%
%TO.N,Net-(R5-Pad1)*%
X93980000Y-108686000D03*
%TO.P,R5,2*%
%TO.N,Net-(C11-Pad2)*%
X93980000Y-111786000D03*
%TD*%
D10*
%TO.P,C6,1*%
%TO.N,Net-(C6-Pad1)*%
X86203500Y-101854000D03*
%TO.P,C6,2*%
%TO.N,Net-(C6-Pad2)*%
X87928500Y-101854000D03*
%TD*%
D23*
%TO.N,GND*%
X92000000Y-96200000D03*
X95250000Y-104902000D03*
X77978000Y-81026000D03*
X87700000Y-93000000D03*
X97589000Y-94435000D03*
X83610500Y-98248500D03*
X69232750Y-84218750D03*
X60717250Y-117148000D03*
X83764000Y-89258000D03*
X87896814Y-97919802D03*
X86360000Y-106680000D03*
X58374000Y-80110500D03*
X100055750Y-105690000D03*
%TO.N,DVDD*%
X81534000Y-91440000D03*
X95758000Y-94234000D03*
%TO.N,AVDD*%
X83308500Y-96523500D03*
X93726000Y-103886000D03*
X78002000Y-101116000D03*
X88400000Y-94400000D03*
%TO.N,SCK*%
X94488000Y-92455500D03*
X89916107Y-89453580D03*
%TD*%
D24*
%TO.N,Net-(R10-Pad2)*%
X83808000Y-119100000D02*
X87122000Y-119100000D01*
X83248000Y-119660000D02*
X83808000Y-119100000D01*
D25*
%TO.N,AVDD*%
X85081000Y-96523500D02*
X85090000Y-96514500D01*
X83308500Y-96523500D02*
X85081000Y-96523500D01*
%TO.N,DVDD*%
X81444000Y-92620000D02*
X81444000Y-86781000D01*
X83472000Y-94648000D02*
X81444000Y-92620000D01*
X84836000Y-94648000D02*
X83472000Y-94648000D01*
D24*
%TO.N,GND*%
X97008000Y-95016000D02*
X97589000Y-94435000D01*
X94398000Y-95016000D02*
X97008000Y-95016000D01*
%TO.N,DVDD*%
X88904000Y-96016000D02*
X89498000Y-96016000D01*
X88895000Y-96007000D02*
X88904000Y-96016000D01*
%TO.N,GND*%
X95250000Y-104902000D02*
X95328500Y-104823500D01*
X95328500Y-104823500D02*
X95328500Y-101346000D01*
X100029750Y-105664000D02*
X98510500Y-105664000D01*
X86614000Y-92958500D02*
X84836000Y-92958500D01*
X83619500Y-98239500D02*
X83610500Y-98248500D01*
X86614000Y-92958500D02*
X87658500Y-92958500D01*
X95328500Y-100800500D02*
X94177198Y-99649198D01*
D25*
X69232750Y-82751000D02*
X69232750Y-84218750D01*
D24*
X60817750Y-117248500D02*
X60717250Y-117148000D01*
D25*
X83544000Y-89038000D02*
X83764000Y-89258000D01*
D24*
X63469000Y-81126500D02*
X61422000Y-81126500D01*
X95328500Y-100800500D02*
X95328500Y-101196000D01*
X88348814Y-97928802D02*
X88336000Y-97894000D01*
X86513500Y-106526500D02*
X88048000Y-106526500D01*
X64781250Y-117248500D02*
X65697750Y-116332000D01*
X86360000Y-106680000D02*
X86513500Y-106526500D01*
X94177198Y-99649198D02*
X93381198Y-99649198D01*
X62749250Y-117248500D02*
X64781250Y-117248500D01*
X93381198Y-99649198D02*
X93198000Y-99466000D01*
X93198000Y-99466000D02*
X93198000Y-98716000D01*
X87414000Y-94625000D02*
X88305000Y-95516000D01*
X63708000Y-82805500D02*
X63708000Y-81365500D01*
X63708000Y-81365500D02*
X63469000Y-81126500D01*
X58474500Y-81888500D02*
X58374000Y-81788000D01*
X87658500Y-92958500D02*
X87700000Y-93000000D01*
X89498000Y-97516000D02*
X88714000Y-97516000D01*
X65697750Y-116332000D02*
X66691250Y-116332000D01*
X85090000Y-98239500D02*
X86614000Y-98239500D01*
X71639250Y-116994500D02*
X70976750Y-116332000D01*
X88305000Y-95516000D02*
X89498000Y-95516000D01*
X61422000Y-81126500D02*
X60660000Y-81888500D01*
X60660000Y-81888500D02*
X58474500Y-81888500D01*
X85090000Y-98239500D02*
X83619500Y-98239500D01*
D25*
X58374000Y-80110500D02*
X58374000Y-81788000D01*
D24*
X87414000Y-93758500D02*
X87414000Y-94625000D01*
X70976750Y-116332000D02*
X66691250Y-116332000D01*
X62749250Y-117248500D02*
X60817750Y-117248500D01*
X88714000Y-97516000D02*
X88348814Y-97928802D01*
D25*
X83544000Y-86781000D02*
X83544000Y-89038000D01*
D24*
X63603000Y-82910500D02*
X63708000Y-82805500D01*
X62778000Y-82910500D02*
X63603000Y-82910500D01*
X86614000Y-92958500D02*
X87414000Y-93758500D01*
D25*
X76554500Y-81026000D02*
X77978000Y-81026000D01*
%TO.N,VCC*%
X59617250Y-117826000D02*
X60463250Y-118672000D01*
X64972750Y-115332000D02*
X66691250Y-115332000D01*
X62749250Y-115523500D02*
X64781250Y-115523500D01*
X60786115Y-115523500D02*
X59617250Y-116692365D01*
X59149750Y-102075750D02*
X59149750Y-112278500D01*
X59617250Y-116692365D02*
X59617250Y-117826000D01*
X65351250Y-118672000D02*
X66691250Y-117332000D01*
X59149750Y-112278500D02*
X62394750Y-115523500D01*
D24*
X58374000Y-83513000D02*
X60559500Y-83513000D01*
D25*
X64781250Y-115523500D02*
X64972750Y-115332000D01*
X60463250Y-118672000D02*
X65351250Y-118672000D01*
D24*
X62531000Y-83613500D02*
X62778000Y-83860500D01*
D25*
X55328500Y-95648000D02*
X58166000Y-92810500D01*
X55276500Y-95648000D02*
X55328500Y-95700000D01*
X58166000Y-92810500D02*
X58166000Y-83721000D01*
D24*
X60660000Y-83613500D02*
X62313000Y-81960500D01*
D25*
X55328500Y-95648000D02*
X55328500Y-98254500D01*
X58166000Y-83721000D02*
X58374000Y-83513000D01*
D24*
X60660000Y-83613500D02*
X62531000Y-83613500D01*
D25*
X62394750Y-115523500D02*
X62749250Y-115523500D01*
X55328500Y-98254500D02*
X59149750Y-102075750D01*
X64781250Y-115523500D02*
X60786115Y-115523500D01*
D24*
X62313000Y-81960500D02*
X62778000Y-81960500D01*
X60559500Y-83513000D02*
X60660000Y-83613500D01*
D25*
X50920000Y-95648000D02*
X55276500Y-95648000D01*
D24*
%TO.N,Net-(C6-Pad1)*%
X89046000Y-97007000D02*
X87454495Y-97007000D01*
X83764000Y-99926000D02*
X84275500Y-99926000D01*
X83456695Y-97377000D02*
X82800000Y-98033695D01*
X82800000Y-98033695D02*
X82800000Y-98962000D01*
X82800000Y-98962000D02*
X83764000Y-99926000D01*
X85560495Y-97377000D02*
X83456695Y-97377000D01*
X87061495Y-97400000D02*
X85583495Y-97400000D01*
X87454495Y-97007000D02*
X87061495Y-97400000D01*
X84275500Y-99926000D02*
X86203500Y-101854000D01*
X85583495Y-97400000D02*
X85560495Y-97377000D01*
%TO.N,Net-(C6-Pad2)*%
X89498000Y-98112000D02*
X89498000Y-98016000D01*
X87928500Y-101854000D02*
X87928500Y-99681500D01*
X87928500Y-99681500D02*
X89498000Y-98112000D01*
%TO.N,Net-(C7-Pad1)*%
X90198000Y-102149500D02*
X88048000Y-104299500D01*
X90198000Y-98716000D02*
X90198000Y-102149500D01*
D25*
%TO.N,DVDD*%
X65278000Y-81960500D02*
X66212500Y-81026000D01*
D24*
X95476000Y-94516000D02*
X95758000Y-94234000D01*
D25*
X74829500Y-81164325D02*
X78796175Y-85131000D01*
X74829500Y-81026000D02*
X74829500Y-81164325D01*
D24*
X94398000Y-94516000D02*
X95476000Y-94516000D01*
D25*
X69232750Y-81026000D02*
X74720250Y-81026000D01*
X66212500Y-81026000D02*
X69232750Y-81026000D01*
D24*
X87937500Y-96007000D02*
X88895000Y-96007000D01*
X84836000Y-94683500D02*
X84836000Y-94648000D01*
X86614000Y-94683500D02*
X84836000Y-94683500D01*
D25*
X78796175Y-85131000D02*
X79794000Y-85131000D01*
X79794000Y-85131000D02*
X81444000Y-86781000D01*
D24*
X87937500Y-96007000D02*
X86614000Y-94683500D01*
D25*
X74896000Y-81092500D02*
X74829500Y-81026000D01*
X78796175Y-85131000D02*
X81444000Y-85131000D01*
D24*
%TO.N,Net-(C11-Pad1)*%
X97028000Y-114400500D02*
X95858500Y-115570000D01*
X100184000Y-114688000D02*
X100274000Y-114688000D01*
X97028000Y-111532000D02*
X100184000Y-114688000D01*
X100200000Y-114762000D02*
X100274000Y-114688000D01*
X97028000Y-111532000D02*
X97028000Y-114400500D01*
%TO.N,Net-(C11-Pad2)*%
X94133500Y-115570000D02*
X94133500Y-116713500D01*
X93348000Y-112012000D02*
X93348000Y-114024500D01*
X93348000Y-114024500D02*
X94085500Y-114762000D01*
X94085500Y-114762000D02*
X94085500Y-115749500D01*
X94133500Y-116713500D02*
X96774000Y-119354000D01*
%TO.N,Net-(C12-Pad2)*%
X85885500Y-115570000D02*
X84238000Y-115570000D01*
X85598000Y-111760000D02*
X85598000Y-115282500D01*
X84238000Y-115570000D02*
X83248000Y-116560000D01*
X85598000Y-115282500D02*
X85885500Y-115570000D01*
%TO.N,Net-(C8-Pad1)*%
X93698000Y-98716000D02*
X93698000Y-99116000D01*
X93698000Y-99116000D02*
X93748000Y-99166000D01*
X93748000Y-99166000D02*
X95843495Y-99166000D01*
X95843495Y-99166000D02*
X96785500Y-100108005D01*
X96785500Y-100108005D02*
X96785500Y-105664000D01*
%TO.N,/A2*%
X90180000Y-118888000D02*
X90180000Y-131318000D01*
X90678000Y-118390000D02*
X90180000Y-118888000D01*
%TO.N,/A3*%
X96774000Y-127264000D02*
X92720000Y-131318000D01*
X96774000Y-122454000D02*
X96774000Y-127264000D01*
%TO.N,/A4*%
X100274000Y-124512000D02*
X100274000Y-126304000D01*
X100274000Y-126304000D02*
X95260000Y-131318000D01*
%TO.N,/A5*%
X107409000Y-98016000D02*
X124206000Y-114813000D01*
X94398000Y-98016000D02*
X107409000Y-98016000D01*
%TO.N,/A6*%
X94398000Y-97516000D02*
X109449000Y-97516000D01*
X109449000Y-97516000D02*
X124206000Y-112273000D01*
%TO.N,/A7*%
X111489000Y-97016000D02*
X124206000Y-109733000D01*
X94398000Y-97016000D02*
X111489000Y-97016000D01*
%TO.N,/A8*%
X94398000Y-96516000D02*
X113529000Y-96516000D01*
X113529000Y-96516000D02*
X124206000Y-107193000D01*
%TO.N,/A9*%
X115569000Y-96016000D02*
X124206000Y-104653000D01*
X94398000Y-96016000D02*
X115569000Y-96016000D01*
%TO.N,/A10*%
X94398000Y-95516000D02*
X117609000Y-95516000D01*
X117609000Y-95516000D02*
X124206000Y-102113000D01*
%TO.N,/A11*%
X118105000Y-93472000D02*
X124206000Y-99573000D01*
X94042000Y-93472000D02*
X118105000Y-93472000D01*
X93698000Y-93816000D02*
X94042000Y-93472000D01*
%TO.N,/A12*%
X118904000Y-91731000D02*
X124206000Y-97033000D01*
X92493000Y-92756305D02*
X92493000Y-92155695D01*
X92698000Y-93816000D02*
X92698000Y-92961305D01*
X92698000Y-92961305D02*
X92493000Y-92756305D01*
X92917695Y-91731000D02*
X118904000Y-91731000D01*
X92493000Y-92155695D02*
X92917695Y-91731000D01*
%TO.N,/A13*%
X120994000Y-91281000D02*
X124206000Y-94493000D01*
X92198000Y-93097701D02*
X92043000Y-92942701D01*
X92198000Y-93816000D02*
X92198000Y-93097701D01*
X92043000Y-91853000D02*
X92615000Y-91281000D01*
X92615000Y-91281000D02*
X120994000Y-91281000D01*
X92043000Y-92942701D02*
X92043000Y-91853000D01*
%TO.N,/A14*%
X123084000Y-90831000D02*
X124206000Y-91953000D01*
X90698000Y-93816000D02*
X90698000Y-92561604D01*
X92428604Y-90831000D02*
X123084000Y-90831000D01*
X90698000Y-92561604D02*
X92428604Y-90831000D01*
%TO.N,/A15*%
X90198000Y-93816000D02*
X90198000Y-92425208D01*
X90198000Y-92425208D02*
X93210208Y-89413000D01*
X93210208Y-89413000D02*
X124206000Y-89413000D01*
%TO.N,AVDD*%
X92698000Y-98716000D02*
X92698000Y-99602396D01*
D25*
X93659500Y-102870000D02*
X93659500Y-103819500D01*
D24*
X89498000Y-94516000D02*
X88516000Y-94516000D01*
D25*
X78002000Y-101116000D02*
X82594500Y-96523500D01*
D24*
X93603500Y-101346000D02*
X93603500Y-102870000D01*
D25*
X82594500Y-96523500D02*
X83308500Y-96523500D01*
X71639250Y-107478750D02*
X78002000Y-101116000D01*
D24*
X92698000Y-99602396D02*
X93194802Y-100099198D01*
D25*
X71473750Y-115382000D02*
X71639250Y-115216500D01*
D24*
X86614000Y-96514500D02*
X85090000Y-96514500D01*
X89046000Y-96507000D02*
X86621500Y-96507000D01*
X88516000Y-94516000D02*
X88400000Y-94400000D01*
D25*
X69191250Y-115382000D02*
X71473750Y-115382000D01*
X71639250Y-115269500D02*
X71639250Y-107478750D01*
D24*
X86621500Y-96507000D02*
X86614000Y-96514500D01*
X93603500Y-100484698D02*
X93603500Y-101346000D01*
D25*
X93659500Y-103819500D02*
X93726000Y-103886000D01*
D24*
X93218000Y-100099198D02*
X93603500Y-100484698D01*
%TO.N,Net-(R2-Pad1)*%
X97028000Y-108432000D02*
X94095505Y-105499505D01*
X92198000Y-100778505D02*
X92202000Y-100782505D01*
X94095505Y-105499505D02*
X94095505Y-105491000D01*
X92202000Y-103597495D02*
X94095505Y-105491000D01*
X92202000Y-100782505D02*
X92202000Y-103597495D01*
X92198000Y-98716000D02*
X92198000Y-100778505D01*
%TO.N,Net-(R4-Pad1)*%
X90698000Y-102285896D02*
X88848000Y-104135896D01*
X87247495Y-108660000D02*
X85598000Y-108660000D01*
X90698000Y-98716000D02*
X90698000Y-102285896D01*
X88848000Y-107059495D02*
X87247495Y-108660000D01*
X88848000Y-104135896D02*
X88848000Y-107059495D01*
%TO.N,Net-(R5-Pad1)*%
X91648000Y-102608688D02*
X90048000Y-104208688D01*
X91648000Y-99491000D02*
X91648000Y-102608688D01*
X91698000Y-99441000D02*
X91648000Y-99491000D01*
X91698000Y-98716000D02*
X91698000Y-99441000D01*
X90048000Y-105612000D02*
X93348000Y-108912000D01*
X90048000Y-104208688D02*
X90048000Y-105612000D01*
%TO.N,Net-(R11-Pad2)*%
X100274000Y-117788000D02*
X100274000Y-121412000D01*
%TO.N,/A1*%
X87640000Y-131318000D02*
X87640000Y-123480000D01*
X87640000Y-123480000D02*
X87122000Y-122962000D01*
%TO.N,SCK*%
X93808500Y-92455500D02*
X93198000Y-93066000D01*
X94488000Y-92455500D02*
X93808500Y-92455500D01*
X93198000Y-93066000D02*
X93198000Y-93816000D01*
X85479000Y-85131000D02*
X89916107Y-89453580D01*
X85479000Y-85131000D02*
X83544000Y-85131000D01*
%TO.N,/No Connect*%
X91198000Y-93816000D02*
X91698000Y-93816000D01*
%TO.N,Net-(C12-Pad1)*%
X87610500Y-115570000D02*
X87610500Y-113762000D01*
X90648000Y-111812000D02*
X90648000Y-115260000D01*
X87610500Y-113762000D02*
X89560500Y-111812000D01*
X90648000Y-115260000D02*
X90678000Y-115290000D01*
X89560500Y-111812000D02*
X90648000Y-111812000D01*
%TO.N,Net-(R3-Pad1)*%
X89348000Y-104272292D02*
X89348000Y-107412000D01*
X91198000Y-102422292D02*
X89348000Y-104272292D01*
X89348000Y-107412000D02*
X90648000Y-108712000D01*
X91198000Y-98716000D02*
X91198000Y-102422292D01*
%TD*%
M02*
