%TF.GenerationSoftware,KiCad,Pcbnew,(6.0.10)*%
%TF.CreationDate,2023-04-10T11:55:32-07:00*%
%TF.ProjectId,PCM5242,50434d35-3234-4322-9e6b-696361645f70,rev?*%
%TF.SameCoordinates,Original*%
%TF.FileFunction,Legend,Top*%
%TF.FilePolarity,Positive*%
%FSLAX46Y46*%
G04 Gerber Fmt 4.6, Leading zero omitted, Abs format (unit mm)*
G04 Created by KiCad (PCBNEW (6.0.10)) date 2023-04-10 11:55:32*
%MOMM*%
%LPD*%
G01*
G04 APERTURE LIST*
%ADD10C,0.250000*%
%ADD11C,0.150000*%
%ADD12C,0.254000*%
%ADD13C,0.120000*%
%ADD14C,0.200000*%
G04 APERTURE END LIST*
D10*
X121880952Y-87232380D02*
X121880952Y-88041904D01*
X121928571Y-88137142D01*
X121976190Y-88184761D01*
X122071428Y-88232380D01*
X122261904Y-88232380D01*
X122357142Y-88184761D01*
X122404761Y-88137142D01*
X122452380Y-88041904D01*
X122452380Y-87232380D01*
X122928571Y-87565714D02*
X122928571Y-88232380D01*
X122928571Y-87660952D02*
X122976190Y-87613333D01*
X123071428Y-87565714D01*
X123214285Y-87565714D01*
X123309523Y-87613333D01*
X123357142Y-87708571D01*
X123357142Y-88232380D01*
X123833333Y-88232380D02*
X123833333Y-87565714D01*
X123833333Y-87232380D02*
X123785714Y-87280000D01*
X123833333Y-87327619D01*
X123880952Y-87280000D01*
X123833333Y-87232380D01*
X123833333Y-87327619D01*
X124214285Y-87565714D02*
X124452380Y-88232380D01*
X124690476Y-87565714D01*
X125452380Y-88184761D02*
X125357142Y-88232380D01*
X125166666Y-88232380D01*
X125071428Y-88184761D01*
X125023809Y-88089523D01*
X125023809Y-87708571D01*
X125071428Y-87613333D01*
X125166666Y-87565714D01*
X125357142Y-87565714D01*
X125452380Y-87613333D01*
X125499999Y-87708571D01*
X125499999Y-87803809D01*
X125023809Y-87899047D01*
X125928571Y-88232380D02*
X125928571Y-87565714D01*
X125928571Y-87756190D02*
X125976190Y-87660952D01*
X126023809Y-87613333D01*
X126119047Y-87565714D01*
X126214285Y-87565714D01*
X126499999Y-88184761D02*
X126595238Y-88232380D01*
X126785714Y-88232380D01*
X126880952Y-88184761D01*
X126928571Y-88089523D01*
X126928571Y-88041904D01*
X126880952Y-87946666D01*
X126785714Y-87899047D01*
X126642857Y-87899047D01*
X126547619Y-87851428D01*
X126499999Y-87756190D01*
X126499999Y-87708571D01*
X126547619Y-87613333D01*
X126642857Y-87565714D01*
X126785714Y-87565714D01*
X126880952Y-87613333D01*
X127357142Y-88232380D02*
X127357142Y-87565714D01*
X127357142Y-87232380D02*
X127309523Y-87280000D01*
X127357142Y-87327619D01*
X127404761Y-87280000D01*
X127357142Y-87232380D01*
X127357142Y-87327619D01*
X127690476Y-87565714D02*
X128071428Y-87565714D01*
X127833333Y-87232380D02*
X127833333Y-88089523D01*
X127880952Y-88184761D01*
X127976190Y-88232380D01*
X128071428Y-88232380D01*
X128309523Y-87565714D02*
X128547619Y-88232380D01*
X128785714Y-87565714D02*
X128547619Y-88232380D01*
X128452380Y-88470476D01*
X128404761Y-88518095D01*
X128309523Y-88565714D01*
X130071428Y-88232380D02*
X129976190Y-88184761D01*
X129928571Y-88137142D01*
X129880952Y-88041904D01*
X129880952Y-87756190D01*
X129928571Y-87660952D01*
X129976190Y-87613333D01*
X130071428Y-87565714D01*
X130214285Y-87565714D01*
X130309523Y-87613333D01*
X130357142Y-87660952D01*
X130404761Y-87756190D01*
X130404761Y-88041904D01*
X130357142Y-88137142D01*
X130309523Y-88184761D01*
X130214285Y-88232380D01*
X130071428Y-88232380D01*
X130690476Y-87565714D02*
X131071428Y-87565714D01*
X130833333Y-88232380D02*
X130833333Y-87375238D01*
X130880952Y-87280000D01*
X130976190Y-87232380D01*
X131071428Y-87232380D01*
X132071428Y-87232380D02*
X132309523Y-88232380D01*
X132499999Y-87518095D01*
X132690476Y-88232380D01*
X132928571Y-87232380D01*
X133738095Y-88232380D02*
X133738095Y-87708571D01*
X133690476Y-87613333D01*
X133595238Y-87565714D01*
X133404761Y-87565714D01*
X133309523Y-87613333D01*
X133738095Y-88184761D02*
X133642857Y-88232380D01*
X133404761Y-88232380D01*
X133309523Y-88184761D01*
X133261904Y-88089523D01*
X133261904Y-87994285D01*
X133309523Y-87899047D01*
X133404761Y-87851428D01*
X133642857Y-87851428D01*
X133738095Y-87803809D01*
X134166666Y-88184761D02*
X134261904Y-88232380D01*
X134452380Y-88232380D01*
X134547619Y-88184761D01*
X134595238Y-88089523D01*
X134595238Y-88041904D01*
X134547619Y-87946666D01*
X134452380Y-87899047D01*
X134309523Y-87899047D01*
X134214285Y-87851428D01*
X134166666Y-87756190D01*
X134166666Y-87708571D01*
X134214285Y-87613333D01*
X134309523Y-87565714D01*
X134452380Y-87565714D01*
X134547619Y-87613333D01*
X135023809Y-88232380D02*
X135023809Y-87232380D01*
X135452380Y-88232380D02*
X135452380Y-87708571D01*
X135404761Y-87613333D01*
X135309523Y-87565714D01*
X135166666Y-87565714D01*
X135071428Y-87613333D01*
X135023809Y-87660952D01*
X135928571Y-88232380D02*
X135928571Y-87565714D01*
X135928571Y-87232380D02*
X135880952Y-87280000D01*
X135928571Y-87327619D01*
X135976190Y-87280000D01*
X135928571Y-87232380D01*
X135928571Y-87327619D01*
X136404761Y-87565714D02*
X136404761Y-88232380D01*
X136404761Y-87660952D02*
X136452380Y-87613333D01*
X136547619Y-87565714D01*
X136690476Y-87565714D01*
X136785714Y-87613333D01*
X136833333Y-87708571D01*
X136833333Y-88232380D01*
X137738095Y-87565714D02*
X137738095Y-88375238D01*
X137690476Y-88470476D01*
X137642857Y-88518095D01*
X137547619Y-88565714D01*
X137404761Y-88565714D01*
X137309523Y-88518095D01*
X137738095Y-88184761D02*
X137642857Y-88232380D01*
X137452380Y-88232380D01*
X137357142Y-88184761D01*
X137309523Y-88137142D01*
X137261904Y-88041904D01*
X137261904Y-87756190D01*
X137309523Y-87660952D01*
X137357142Y-87613333D01*
X137452380Y-87565714D01*
X137642857Y-87565714D01*
X137738095Y-87613333D01*
X138071428Y-87565714D02*
X138452380Y-87565714D01*
X138214285Y-87232380D02*
X138214285Y-88089523D01*
X138261904Y-88184761D01*
X138357142Y-88232380D01*
X138452380Y-88232380D01*
X138928571Y-88232380D02*
X138833333Y-88184761D01*
X138785714Y-88137142D01*
X138738095Y-88041904D01*
X138738095Y-87756190D01*
X138785714Y-87660952D01*
X138833333Y-87613333D01*
X138928571Y-87565714D01*
X139071428Y-87565714D01*
X139166666Y-87613333D01*
X139214285Y-87660952D01*
X139261904Y-87756190D01*
X139261904Y-88041904D01*
X139214285Y-88137142D01*
X139166666Y-88184761D01*
X139071428Y-88232380D01*
X138928571Y-88232380D01*
X139690476Y-87565714D02*
X139690476Y-88232380D01*
X139690476Y-87660952D02*
X139738095Y-87613333D01*
X139833333Y-87565714D01*
X139976190Y-87565714D01*
X140071428Y-87613333D01*
X140119047Y-87708571D01*
X140119047Y-88232380D01*
X121000000Y-89318571D02*
X121333333Y-89318571D01*
X121476190Y-89842380D02*
X121000000Y-89842380D01*
X121000000Y-88842380D01*
X121476190Y-88842380D01*
X121904761Y-89175714D02*
X121904761Y-89842380D01*
X121904761Y-89270952D02*
X121952380Y-89223333D01*
X122047619Y-89175714D01*
X122190476Y-89175714D01*
X122285714Y-89223333D01*
X122333333Y-89318571D01*
X122333333Y-89842380D01*
X123238095Y-89175714D02*
X123238095Y-89985238D01*
X123190476Y-90080476D01*
X123142857Y-90128095D01*
X123047619Y-90175714D01*
X122904761Y-90175714D01*
X122809523Y-90128095D01*
X123238095Y-89794761D02*
X123142857Y-89842380D01*
X122952380Y-89842380D01*
X122857142Y-89794761D01*
X122809523Y-89747142D01*
X122761904Y-89651904D01*
X122761904Y-89366190D01*
X122809523Y-89270952D01*
X122857142Y-89223333D01*
X122952380Y-89175714D01*
X123142857Y-89175714D01*
X123238095Y-89223333D01*
X123714285Y-89842380D02*
X123714285Y-89175714D01*
X123714285Y-88842380D02*
X123666666Y-88890000D01*
X123714285Y-88937619D01*
X123761904Y-88890000D01*
X123714285Y-88842380D01*
X123714285Y-88937619D01*
X124190476Y-89175714D02*
X124190476Y-89842380D01*
X124190476Y-89270952D02*
X124238095Y-89223333D01*
X124333333Y-89175714D01*
X124476190Y-89175714D01*
X124571428Y-89223333D01*
X124619047Y-89318571D01*
X124619047Y-89842380D01*
X125476190Y-89794761D02*
X125380952Y-89842380D01*
X125190476Y-89842380D01*
X125095238Y-89794761D01*
X125047619Y-89699523D01*
X125047619Y-89318571D01*
X125095238Y-89223333D01*
X125190476Y-89175714D01*
X125380952Y-89175714D01*
X125476190Y-89223333D01*
X125523809Y-89318571D01*
X125523809Y-89413809D01*
X125047619Y-89509047D01*
X126666666Y-88937619D02*
X126714285Y-88890000D01*
X126809523Y-88842380D01*
X127047619Y-88842380D01*
X127142857Y-88890000D01*
X127190476Y-88937619D01*
X127238095Y-89032857D01*
X127238095Y-89128095D01*
X127190476Y-89270952D01*
X126619047Y-89842380D01*
X127238095Y-89842380D01*
X127857142Y-88842380D02*
X127952380Y-88842380D01*
X128047619Y-88890000D01*
X128095238Y-88937619D01*
X128142857Y-89032857D01*
X128190476Y-89223333D01*
X128190476Y-89461428D01*
X128142857Y-89651904D01*
X128095238Y-89747142D01*
X128047619Y-89794761D01*
X127952380Y-89842380D01*
X127857142Y-89842380D01*
X127761904Y-89794761D01*
X127714285Y-89747142D01*
X127666666Y-89651904D01*
X127619047Y-89461428D01*
X127619047Y-89223333D01*
X127666666Y-89032857D01*
X127714285Y-88937619D01*
X127761904Y-88890000D01*
X127857142Y-88842380D01*
X128571428Y-88937619D02*
X128619047Y-88890000D01*
X128714285Y-88842380D01*
X128952380Y-88842380D01*
X129047619Y-88890000D01*
X129095238Y-88937619D01*
X129142857Y-89032857D01*
X129142857Y-89128095D01*
X129095238Y-89270952D01*
X128523809Y-89842380D01*
X129142857Y-89842380D01*
X129476190Y-88842380D02*
X130095238Y-88842380D01*
X129761904Y-89223333D01*
X129904761Y-89223333D01*
X130000000Y-89270952D01*
X130047619Y-89318571D01*
X130095238Y-89413809D01*
X130095238Y-89651904D01*
X130047619Y-89747142D01*
X130000000Y-89794761D01*
X129904761Y-89842380D01*
X129619047Y-89842380D01*
X129523809Y-89794761D01*
X129476190Y-89747142D01*
X131285714Y-89461428D02*
X132047619Y-89461428D01*
X133857142Y-89747142D02*
X133809523Y-89794761D01*
X133666666Y-89842380D01*
X133571428Y-89842380D01*
X133428571Y-89794761D01*
X133333333Y-89699523D01*
X133285714Y-89604285D01*
X133238095Y-89413809D01*
X133238095Y-89270952D01*
X133285714Y-89080476D01*
X133333333Y-88985238D01*
X133428571Y-88890000D01*
X133571428Y-88842380D01*
X133666666Y-88842380D01*
X133809523Y-88890000D01*
X133857142Y-88937619D01*
X134285714Y-89842380D02*
X134285714Y-88842380D01*
X134714285Y-89842380D02*
X134714285Y-89318571D01*
X134666666Y-89223333D01*
X134571428Y-89175714D01*
X134428571Y-89175714D01*
X134333333Y-89223333D01*
X134285714Y-89270952D01*
X135619047Y-89842380D02*
X135619047Y-89318571D01*
X135571428Y-89223333D01*
X135476190Y-89175714D01*
X135285714Y-89175714D01*
X135190476Y-89223333D01*
X135619047Y-89794761D02*
X135523809Y-89842380D01*
X135285714Y-89842380D01*
X135190476Y-89794761D01*
X135142857Y-89699523D01*
X135142857Y-89604285D01*
X135190476Y-89509047D01*
X135285714Y-89461428D01*
X135523809Y-89461428D01*
X135619047Y-89413809D01*
X136095238Y-89842380D02*
X136095238Y-89175714D01*
X136095238Y-89270952D02*
X136142857Y-89223333D01*
X136238095Y-89175714D01*
X136380952Y-89175714D01*
X136476190Y-89223333D01*
X136523809Y-89318571D01*
X136523809Y-89842380D01*
X136523809Y-89318571D02*
X136571428Y-89223333D01*
X136666666Y-89175714D01*
X136809523Y-89175714D01*
X136904761Y-89223333D01*
X136952380Y-89318571D01*
X136952380Y-89842380D01*
X137809523Y-89794761D02*
X137714285Y-89842380D01*
X137523809Y-89842380D01*
X137428571Y-89794761D01*
X137380952Y-89699523D01*
X137380952Y-89318571D01*
X137428571Y-89223333D01*
X137523809Y-89175714D01*
X137714285Y-89175714D01*
X137809523Y-89223333D01*
X137857142Y-89318571D01*
X137857142Y-89413809D01*
X137380952Y-89509047D01*
X138428571Y-89842380D02*
X138333333Y-89794761D01*
X138285714Y-89699523D01*
X138285714Y-88842380D01*
X139190476Y-89794761D02*
X139095238Y-89842380D01*
X138904761Y-89842380D01*
X138809523Y-89794761D01*
X138761904Y-89699523D01*
X138761904Y-89318571D01*
X138809523Y-89223333D01*
X138904761Y-89175714D01*
X139095238Y-89175714D01*
X139190476Y-89223333D01*
X139238095Y-89318571D01*
X139238095Y-89413809D01*
X138761904Y-89509047D01*
X139809523Y-89842380D02*
X139714285Y-89794761D01*
X139666666Y-89747142D01*
X139619047Y-89651904D01*
X139619047Y-89366190D01*
X139666666Y-89270952D01*
X139714285Y-89223333D01*
X139809523Y-89175714D01*
X139952380Y-89175714D01*
X140047619Y-89223333D01*
X140095238Y-89270952D01*
X140142857Y-89366190D01*
X140142857Y-89651904D01*
X140095238Y-89747142D01*
X140047619Y-89794761D01*
X139952380Y-89842380D01*
X139809523Y-89842380D01*
X140571428Y-89175714D02*
X140571428Y-89842380D01*
X140571428Y-89270952D02*
X140619047Y-89223333D01*
X140714285Y-89175714D01*
X140857142Y-89175714D01*
X140952380Y-89223333D01*
X141000000Y-89318571D01*
X141000000Y-89842380D01*
X121952380Y-93062380D02*
X121952380Y-92062380D01*
X122190476Y-92062380D01*
X122333333Y-92110000D01*
X122428571Y-92205238D01*
X122476190Y-92300476D01*
X122523809Y-92490952D01*
X122523809Y-92633809D01*
X122476190Y-92824285D01*
X122428571Y-92919523D01*
X122333333Y-93014761D01*
X122190476Y-93062380D01*
X121952380Y-93062380D01*
X122904761Y-92776666D02*
X123380952Y-92776666D01*
X122809523Y-93062380D02*
X123142857Y-92062380D01*
X123476190Y-93062380D01*
X124380952Y-92967142D02*
X124333333Y-93014761D01*
X124190476Y-93062380D01*
X124095238Y-93062380D01*
X123952380Y-93014761D01*
X123857142Y-92919523D01*
X123809523Y-92824285D01*
X123761904Y-92633809D01*
X123761904Y-92490952D01*
X123809523Y-92300476D01*
X123857142Y-92205238D01*
X123952380Y-92110000D01*
X124095238Y-92062380D01*
X124190476Y-92062380D01*
X124333333Y-92110000D01*
X124380952Y-92157619D01*
X125571428Y-92681428D02*
X126333333Y-92681428D01*
X127571428Y-93062380D02*
X127571428Y-92062380D01*
X127952380Y-92062380D01*
X128047619Y-92110000D01*
X128095238Y-92157619D01*
X128142857Y-92252857D01*
X128142857Y-92395714D01*
X128095238Y-92490952D01*
X128047619Y-92538571D01*
X127952380Y-92586190D01*
X127571428Y-92586190D01*
X129142857Y-92967142D02*
X129095238Y-93014761D01*
X128952380Y-93062380D01*
X128857142Y-93062380D01*
X128714285Y-93014761D01*
X128619047Y-92919523D01*
X128571428Y-92824285D01*
X128523809Y-92633809D01*
X128523809Y-92490952D01*
X128571428Y-92300476D01*
X128619047Y-92205238D01*
X128714285Y-92110000D01*
X128857142Y-92062380D01*
X128952380Y-92062380D01*
X129095238Y-92110000D01*
X129142857Y-92157619D01*
X129571428Y-93062380D02*
X129571428Y-92062380D01*
X129904761Y-92776666D01*
X130238095Y-92062380D01*
X130238095Y-93062380D01*
X131952380Y-92062380D02*
X131476190Y-92062380D01*
X131428571Y-92538571D01*
X131476190Y-92490952D01*
X131571428Y-92443333D01*
X131809523Y-92443333D01*
X131904761Y-92490952D01*
X131952380Y-92538571D01*
X132000000Y-92633809D01*
X132000000Y-92871904D01*
X131952380Y-92967142D01*
X131904761Y-93014761D01*
X131809523Y-93062380D01*
X131571428Y-93062380D01*
X131476190Y-93014761D01*
X131428571Y-92967142D01*
X132380952Y-92157619D02*
X132428571Y-92110000D01*
X132523809Y-92062380D01*
X132761904Y-92062380D01*
X132857142Y-92110000D01*
X132904761Y-92157619D01*
X132952380Y-92252857D01*
X132952380Y-92348095D01*
X132904761Y-92490952D01*
X132333333Y-93062380D01*
X132952380Y-93062380D01*
X133809523Y-92395714D02*
X133809523Y-93062380D01*
X133571428Y-92014761D02*
X133333333Y-92729047D01*
X133952380Y-92729047D01*
X134285714Y-92157619D02*
X134333333Y-92110000D01*
X134428571Y-92062380D01*
X134666666Y-92062380D01*
X134761904Y-92110000D01*
X134809523Y-92157619D01*
X134857142Y-92252857D01*
X134857142Y-92348095D01*
X134809523Y-92490952D01*
X134238095Y-93062380D01*
X134857142Y-93062380D01*
X135904761Y-92062380D02*
X136238095Y-93062380D01*
X136571428Y-92062380D01*
X136904761Y-92967142D02*
X136952380Y-93014761D01*
X136904761Y-93062380D01*
X136857142Y-93014761D01*
X136904761Y-92967142D01*
X136904761Y-93062380D01*
X138047619Y-92062380D02*
X138666666Y-92062380D01*
X138333333Y-92443333D01*
X138476190Y-92443333D01*
X138571428Y-92490952D01*
X138619047Y-92538571D01*
X138666666Y-92633809D01*
X138666666Y-92871904D01*
X138619047Y-92967142D01*
X138571428Y-93014761D01*
X138476190Y-93062380D01*
X138190476Y-93062380D01*
X138095238Y-93014761D01*
X138047619Y-92967142D01*
X139095238Y-92967142D02*
X139142857Y-93014761D01*
X139095238Y-93062380D01*
X139047619Y-93014761D01*
X139095238Y-92967142D01*
X139095238Y-93062380D01*
X139761904Y-92062380D02*
X139857142Y-92062380D01*
X139952380Y-92110000D01*
X140000000Y-92157619D01*
X140047619Y-92252857D01*
X140095238Y-92443333D01*
X140095238Y-92681428D01*
X140047619Y-92871904D01*
X140000000Y-92967142D01*
X139952380Y-93014761D01*
X139857142Y-93062380D01*
X139761904Y-93062380D01*
X139666666Y-93014761D01*
X139619047Y-92967142D01*
X139571428Y-92871904D01*
X139523809Y-92681428D01*
X139523809Y-92443333D01*
X139571428Y-92252857D01*
X139619047Y-92157619D01*
X139666666Y-92110000D01*
X139761904Y-92062380D01*
X123952380Y-93672380D02*
X123952380Y-94386666D01*
X123904761Y-94529523D01*
X123809523Y-94624761D01*
X123666666Y-94672380D01*
X123571428Y-94672380D01*
X124857142Y-94672380D02*
X124857142Y-94148571D01*
X124809523Y-94053333D01*
X124714285Y-94005714D01*
X124523809Y-94005714D01*
X124428571Y-94053333D01*
X124857142Y-94624761D02*
X124761904Y-94672380D01*
X124523809Y-94672380D01*
X124428571Y-94624761D01*
X124380952Y-94529523D01*
X124380952Y-94434285D01*
X124428571Y-94339047D01*
X124523809Y-94291428D01*
X124761904Y-94291428D01*
X124857142Y-94243809D01*
X125333333Y-94672380D02*
X125333333Y-94005714D01*
X125333333Y-94100952D02*
X125380952Y-94053333D01*
X125476190Y-94005714D01*
X125619047Y-94005714D01*
X125714285Y-94053333D01*
X125761904Y-94148571D01*
X125761904Y-94672380D01*
X125761904Y-94148571D02*
X125809523Y-94053333D01*
X125904761Y-94005714D01*
X126047619Y-94005714D01*
X126142857Y-94053333D01*
X126190476Y-94148571D01*
X126190476Y-94672380D01*
X127047619Y-94624761D02*
X126952380Y-94672380D01*
X126761904Y-94672380D01*
X126666666Y-94624761D01*
X126619047Y-94529523D01*
X126619047Y-94148571D01*
X126666666Y-94053333D01*
X126761904Y-94005714D01*
X126952380Y-94005714D01*
X127047619Y-94053333D01*
X127095238Y-94148571D01*
X127095238Y-94243809D01*
X126619047Y-94339047D01*
X127476190Y-94624761D02*
X127571428Y-94672380D01*
X127761904Y-94672380D01*
X127857142Y-94624761D01*
X127904761Y-94529523D01*
X127904761Y-94481904D01*
X127857142Y-94386666D01*
X127761904Y-94339047D01*
X127619047Y-94339047D01*
X127523809Y-94291428D01*
X127476190Y-94196190D01*
X127476190Y-94148571D01*
X127523809Y-94053333D01*
X127619047Y-94005714D01*
X127761904Y-94005714D01*
X127857142Y-94053333D01*
X129285714Y-93672380D02*
X129380952Y-93672380D01*
X129476190Y-93720000D01*
X129523809Y-93767619D01*
X129571428Y-93862857D01*
X129619047Y-94053333D01*
X129619047Y-94291428D01*
X129571428Y-94481904D01*
X129523809Y-94577142D01*
X129476190Y-94624761D01*
X129380952Y-94672380D01*
X129285714Y-94672380D01*
X129190476Y-94624761D01*
X129142857Y-94577142D01*
X129095238Y-94481904D01*
X129047619Y-94291428D01*
X129047619Y-94053333D01*
X129095238Y-93862857D01*
X129142857Y-93767619D01*
X129190476Y-93720000D01*
X129285714Y-93672380D01*
X130476190Y-94005714D02*
X130476190Y-94672380D01*
X130238095Y-93624761D02*
X130000000Y-94339047D01*
X130619047Y-94339047D01*
X131714285Y-93624761D02*
X130857142Y-94910476D01*
X132571428Y-94672380D02*
X132000000Y-94672380D01*
X132285714Y-94672380D02*
X132285714Y-93672380D01*
X132190476Y-93815238D01*
X132095238Y-93910476D01*
X132000000Y-93958095D01*
X133190476Y-93672380D02*
X133285714Y-93672380D01*
X133380952Y-93720000D01*
X133428571Y-93767619D01*
X133476190Y-93862857D01*
X133523809Y-94053333D01*
X133523809Y-94291428D01*
X133476190Y-94481904D01*
X133428571Y-94577142D01*
X133380952Y-94624761D01*
X133285714Y-94672380D01*
X133190476Y-94672380D01*
X133095238Y-94624761D01*
X133047619Y-94577142D01*
X133000000Y-94481904D01*
X132952380Y-94291428D01*
X132952380Y-94053333D01*
X133000000Y-93862857D01*
X133047619Y-93767619D01*
X133095238Y-93720000D01*
X133190476Y-93672380D01*
X134666666Y-93624761D02*
X133809523Y-94910476D01*
X134952380Y-93767619D02*
X135000000Y-93720000D01*
X135095238Y-93672380D01*
X135333333Y-93672380D01*
X135428571Y-93720000D01*
X135476190Y-93767619D01*
X135523809Y-93862857D01*
X135523809Y-93958095D01*
X135476190Y-94100952D01*
X134904761Y-94672380D01*
X135523809Y-94672380D01*
X136142857Y-93672380D02*
X136238095Y-93672380D01*
X136333333Y-93720000D01*
X136380952Y-93767619D01*
X136428571Y-93862857D01*
X136476190Y-94053333D01*
X136476190Y-94291428D01*
X136428571Y-94481904D01*
X136380952Y-94577142D01*
X136333333Y-94624761D01*
X136238095Y-94672380D01*
X136142857Y-94672380D01*
X136047619Y-94624761D01*
X136000000Y-94577142D01*
X135952380Y-94481904D01*
X135904761Y-94291428D01*
X135904761Y-94053333D01*
X135952380Y-93862857D01*
X136000000Y-93767619D01*
X136047619Y-93720000D01*
X136142857Y-93672380D01*
X136857142Y-93767619D02*
X136904761Y-93720000D01*
X137000000Y-93672380D01*
X137238095Y-93672380D01*
X137333333Y-93720000D01*
X137380952Y-93767619D01*
X137428571Y-93862857D01*
X137428571Y-93958095D01*
X137380952Y-94100952D01*
X136809523Y-94672380D01*
X137428571Y-94672380D01*
X137761904Y-93672380D02*
X138380952Y-93672380D01*
X138047619Y-94053333D01*
X138190476Y-94053333D01*
X138285714Y-94100952D01*
X138333333Y-94148571D01*
X138380952Y-94243809D01*
X138380952Y-94481904D01*
X138333333Y-94577142D01*
X138285714Y-94624761D01*
X138190476Y-94672380D01*
X137904761Y-94672380D01*
X137809523Y-94624761D01*
X137761904Y-94577142D01*
D11*
X100700000Y-97700000D02*
X89300000Y-97700000D01*
X89300000Y-97700000D02*
X89300000Y-100500000D01*
X100700000Y-106100000D02*
X100700000Y-97700000D01*
X89200000Y-115000000D02*
X89200000Y-112400000D01*
X100700000Y-115000000D02*
X89200000Y-115000000D01*
X100700000Y-106100000D02*
X100700000Y-115000000D01*
X114700000Y-106100000D02*
X89400000Y-106100000D01*
X142100000Y-107800000D02*
X122600000Y-107800000D01*
X126828571Y-106952380D02*
X126828571Y-105952380D01*
X127066666Y-105952380D01*
X127209523Y-106000000D01*
X127304761Y-106095238D01*
X127352380Y-106190476D01*
X127400000Y-106380952D01*
X127400000Y-106523809D01*
X127352380Y-106714285D01*
X127304761Y-106809523D01*
X127209523Y-106904761D01*
X127066666Y-106952380D01*
X126828571Y-106952380D01*
X127828571Y-106952380D02*
X127828571Y-106285714D01*
X127828571Y-105952380D02*
X127780952Y-106000000D01*
X127828571Y-106047619D01*
X127876190Y-106000000D01*
X127828571Y-105952380D01*
X127828571Y-106047619D01*
X128733333Y-106285714D02*
X128733333Y-107095238D01*
X128685714Y-107190476D01*
X128638095Y-107238095D01*
X128542857Y-107285714D01*
X128400000Y-107285714D01*
X128304761Y-107238095D01*
X128733333Y-106904761D02*
X128638095Y-106952380D01*
X128447619Y-106952380D01*
X128352380Y-106904761D01*
X128304761Y-106857142D01*
X128257142Y-106761904D01*
X128257142Y-106476190D01*
X128304761Y-106380952D01*
X128352380Y-106333333D01*
X128447619Y-106285714D01*
X128638095Y-106285714D01*
X128733333Y-106333333D01*
X129209523Y-106952380D02*
X129209523Y-106285714D01*
X129209523Y-105952380D02*
X129161904Y-106000000D01*
X129209523Y-106047619D01*
X129257142Y-106000000D01*
X129209523Y-105952380D01*
X129209523Y-106047619D01*
X129542857Y-106285714D02*
X129923809Y-106285714D01*
X129685714Y-105952380D02*
X129685714Y-106809523D01*
X129733333Y-106904761D01*
X129828571Y-106952380D01*
X129923809Y-106952380D01*
X130685714Y-106952380D02*
X130685714Y-106428571D01*
X130638095Y-106333333D01*
X130542857Y-106285714D01*
X130352380Y-106285714D01*
X130257142Y-106333333D01*
X130685714Y-106904761D02*
X130590476Y-106952380D01*
X130352380Y-106952380D01*
X130257142Y-106904761D01*
X130209523Y-106809523D01*
X130209523Y-106714285D01*
X130257142Y-106619047D01*
X130352380Y-106571428D01*
X130590476Y-106571428D01*
X130685714Y-106523809D01*
X131304761Y-106952380D02*
X131209523Y-106904761D01*
X131161904Y-106809523D01*
X131161904Y-105952380D01*
X132971428Y-106000000D02*
X132876190Y-105952380D01*
X132733333Y-105952380D01*
X132590476Y-106000000D01*
X132495238Y-106095238D01*
X132447619Y-106190476D01*
X132400000Y-106380952D01*
X132400000Y-106523809D01*
X132447619Y-106714285D01*
X132495238Y-106809523D01*
X132590476Y-106904761D01*
X132733333Y-106952380D01*
X132828571Y-106952380D01*
X132971428Y-106904761D01*
X133019047Y-106857142D01*
X133019047Y-106523809D01*
X132828571Y-106523809D01*
X133447619Y-106952380D02*
X133447619Y-106285714D01*
X133447619Y-106476190D02*
X133495238Y-106380952D01*
X133542857Y-106333333D01*
X133638095Y-106285714D01*
X133733333Y-106285714D01*
X134209523Y-106952380D02*
X134114285Y-106904761D01*
X134066666Y-106857142D01*
X134019047Y-106761904D01*
X134019047Y-106476190D01*
X134066666Y-106380952D01*
X134114285Y-106333333D01*
X134209523Y-106285714D01*
X134352380Y-106285714D01*
X134447619Y-106333333D01*
X134495238Y-106380952D01*
X134542857Y-106476190D01*
X134542857Y-106761904D01*
X134495238Y-106857142D01*
X134447619Y-106904761D01*
X134352380Y-106952380D01*
X134209523Y-106952380D01*
X135400000Y-106285714D02*
X135400000Y-106952380D01*
X134971428Y-106285714D02*
X134971428Y-106809523D01*
X135019047Y-106904761D01*
X135114285Y-106952380D01*
X135257142Y-106952380D01*
X135352380Y-106904761D01*
X135400000Y-106857142D01*
X135876190Y-106285714D02*
X135876190Y-106952380D01*
X135876190Y-106380952D02*
X135923809Y-106333333D01*
X136019047Y-106285714D01*
X136161904Y-106285714D01*
X136257142Y-106333333D01*
X136304761Y-106428571D01*
X136304761Y-106952380D01*
X137209523Y-106952380D02*
X137209523Y-105952380D01*
X137209523Y-106904761D02*
X137114285Y-106952380D01*
X136923809Y-106952380D01*
X136828571Y-106904761D01*
X136780952Y-106857142D01*
X136733333Y-106761904D01*
X136733333Y-106476190D01*
X136780952Y-106380952D01*
X136828571Y-106333333D01*
X136923809Y-106285714D01*
X137114285Y-106285714D01*
X137209523Y-106333333D01*
X138066666Y-106904761D02*
X137971428Y-106952380D01*
X137780952Y-106952380D01*
X137685714Y-106904761D01*
X137638095Y-106809523D01*
X137638095Y-106428571D01*
X137685714Y-106333333D01*
X137780952Y-106285714D01*
X137971428Y-106285714D01*
X138066666Y-106333333D01*
X138114285Y-106428571D01*
X138114285Y-106523809D01*
X137638095Y-106619047D01*
X138971428Y-106952380D02*
X138971428Y-105952380D01*
X138971428Y-106904761D02*
X138876190Y-106952380D01*
X138685714Y-106952380D01*
X138590476Y-106904761D01*
X138542857Y-106857142D01*
X138495238Y-106761904D01*
X138495238Y-106476190D01*
X138542857Y-106380952D01*
X138590476Y-106333333D01*
X138685714Y-106285714D01*
X138876190Y-106285714D01*
X138971428Y-106333333D01*
X126909523Y-111266666D02*
X127385714Y-111266666D01*
X126814285Y-111552380D02*
X127147619Y-110552380D01*
X127480952Y-111552380D01*
X127814285Y-110885714D02*
X127814285Y-111552380D01*
X127814285Y-110980952D02*
X127861904Y-110933333D01*
X127957142Y-110885714D01*
X128100000Y-110885714D01*
X128195238Y-110933333D01*
X128242857Y-111028571D01*
X128242857Y-111552380D01*
X129147619Y-111552380D02*
X129147619Y-111028571D01*
X129100000Y-110933333D01*
X129004761Y-110885714D01*
X128814285Y-110885714D01*
X128719047Y-110933333D01*
X129147619Y-111504761D02*
X129052380Y-111552380D01*
X128814285Y-111552380D01*
X128719047Y-111504761D01*
X128671428Y-111409523D01*
X128671428Y-111314285D01*
X128719047Y-111219047D01*
X128814285Y-111171428D01*
X129052380Y-111171428D01*
X129147619Y-111123809D01*
X129766666Y-111552380D02*
X129671428Y-111504761D01*
X129623809Y-111409523D01*
X129623809Y-110552380D01*
X130290476Y-111552380D02*
X130195238Y-111504761D01*
X130147619Y-111457142D01*
X130099999Y-111361904D01*
X130099999Y-111076190D01*
X130147619Y-110980952D01*
X130195238Y-110933333D01*
X130290476Y-110885714D01*
X130433333Y-110885714D01*
X130528571Y-110933333D01*
X130576190Y-110980952D01*
X130623809Y-111076190D01*
X130623809Y-111361904D01*
X130576190Y-111457142D01*
X130528571Y-111504761D01*
X130433333Y-111552380D01*
X130290476Y-111552380D01*
X131480952Y-110885714D02*
X131480952Y-111695238D01*
X131433333Y-111790476D01*
X131385714Y-111838095D01*
X131290476Y-111885714D01*
X131147619Y-111885714D01*
X131052380Y-111838095D01*
X131480952Y-111504761D02*
X131385714Y-111552380D01*
X131195238Y-111552380D01*
X131099999Y-111504761D01*
X131052380Y-111457142D01*
X131004761Y-111361904D01*
X131004761Y-111076190D01*
X131052380Y-110980952D01*
X131099999Y-110933333D01*
X131195238Y-110885714D01*
X131385714Y-110885714D01*
X131480952Y-110933333D01*
X133242857Y-110600000D02*
X133147619Y-110552380D01*
X133004761Y-110552380D01*
X132861904Y-110600000D01*
X132766666Y-110695238D01*
X132719047Y-110790476D01*
X132671428Y-110980952D01*
X132671428Y-111123809D01*
X132719047Y-111314285D01*
X132766666Y-111409523D01*
X132861904Y-111504761D01*
X133004761Y-111552380D01*
X133100000Y-111552380D01*
X133242857Y-111504761D01*
X133290476Y-111457142D01*
X133290476Y-111123809D01*
X133100000Y-111123809D01*
X133719047Y-111552380D02*
X133719047Y-110885714D01*
X133719047Y-111076190D02*
X133766666Y-110980952D01*
X133814285Y-110933333D01*
X133909523Y-110885714D01*
X134004761Y-110885714D01*
X134480952Y-111552380D02*
X134385714Y-111504761D01*
X134338095Y-111457142D01*
X134290476Y-111361904D01*
X134290476Y-111076190D01*
X134338095Y-110980952D01*
X134385714Y-110933333D01*
X134480952Y-110885714D01*
X134623809Y-110885714D01*
X134719047Y-110933333D01*
X134766666Y-110980952D01*
X134814285Y-111076190D01*
X134814285Y-111361904D01*
X134766666Y-111457142D01*
X134719047Y-111504761D01*
X134623809Y-111552380D01*
X134480952Y-111552380D01*
X135671428Y-110885714D02*
X135671428Y-111552380D01*
X135242857Y-110885714D02*
X135242857Y-111409523D01*
X135290476Y-111504761D01*
X135385714Y-111552380D01*
X135528571Y-111552380D01*
X135623809Y-111504761D01*
X135671428Y-111457142D01*
X136147619Y-110885714D02*
X136147619Y-111552380D01*
X136147619Y-110980952D02*
X136195238Y-110933333D01*
X136290476Y-110885714D01*
X136433333Y-110885714D01*
X136528571Y-110933333D01*
X136576190Y-111028571D01*
X136576190Y-111552380D01*
X137480952Y-111552380D02*
X137480952Y-110552380D01*
X137480952Y-111504761D02*
X137385714Y-111552380D01*
X137195238Y-111552380D01*
X137100000Y-111504761D01*
X137052380Y-111457142D01*
X137004761Y-111361904D01*
X137004761Y-111076190D01*
X137052380Y-110980952D01*
X137100000Y-110933333D01*
X137195238Y-110885714D01*
X137385714Y-110885714D01*
X137480952Y-110933333D01*
X138338095Y-111504761D02*
X138242857Y-111552380D01*
X138052380Y-111552380D01*
X137957142Y-111504761D01*
X137909523Y-111409523D01*
X137909523Y-111028571D01*
X137957142Y-110933333D01*
X138052380Y-110885714D01*
X138242857Y-110885714D01*
X138338095Y-110933333D01*
X138385714Y-111028571D01*
X138385714Y-111123809D01*
X137909523Y-111219047D01*
X139242857Y-111552380D02*
X139242857Y-110552380D01*
X139242857Y-111504761D02*
X139147619Y-111552380D01*
X138957142Y-111552380D01*
X138861904Y-111504761D01*
X138814285Y-111457142D01*
X138766666Y-111361904D01*
X138766666Y-111076190D01*
X138814285Y-110980952D01*
X138861904Y-110933333D01*
X138957142Y-110885714D01*
X139147619Y-110885714D01*
X139242857Y-110933333D01*
X83352380Y-113280952D02*
X83352380Y-112661904D01*
X83733333Y-112995238D01*
X83733333Y-112852380D01*
X83780952Y-112757142D01*
X83828571Y-112709523D01*
X83923809Y-112661904D01*
X84161904Y-112661904D01*
X84257142Y-112709523D01*
X84304761Y-112757142D01*
X84352380Y-112852380D01*
X84352380Y-113138095D01*
X84304761Y-113233333D01*
X84257142Y-113280952D01*
X84257142Y-112233333D02*
X84304761Y-112185714D01*
X84352380Y-112233333D01*
X84304761Y-112280952D01*
X84257142Y-112233333D01*
X84352380Y-112233333D01*
X83352380Y-111852380D02*
X83352380Y-111233333D01*
X83733333Y-111566666D01*
X83733333Y-111423809D01*
X83780952Y-111328571D01*
X83828571Y-111280952D01*
X83923809Y-111233333D01*
X84161904Y-111233333D01*
X84257142Y-111280952D01*
X84304761Y-111328571D01*
X84352380Y-111423809D01*
X84352380Y-111709523D01*
X84304761Y-111804761D01*
X84257142Y-111852380D01*
X83352380Y-110947619D02*
X84352380Y-110614285D01*
X83352380Y-110280952D01*
X84352380Y-109185714D02*
X83352380Y-109185714D01*
X83352380Y-108804761D01*
X83400000Y-108709523D01*
X83447619Y-108661904D01*
X83542857Y-108614285D01*
X83685714Y-108614285D01*
X83780952Y-108661904D01*
X83828571Y-108709523D01*
X83876190Y-108804761D01*
X83876190Y-109185714D01*
X84352380Y-108042857D02*
X84304761Y-108138095D01*
X84257142Y-108185714D01*
X84161904Y-108233333D01*
X83876190Y-108233333D01*
X83780952Y-108185714D01*
X83733333Y-108138095D01*
X83685714Y-108042857D01*
X83685714Y-107900000D01*
X83733333Y-107804761D01*
X83780952Y-107757142D01*
X83876190Y-107709523D01*
X84161904Y-107709523D01*
X84257142Y-107757142D01*
X84304761Y-107804761D01*
X84352380Y-107900000D01*
X84352380Y-108042857D01*
X83685714Y-107376190D02*
X84352380Y-107185714D01*
X83876190Y-106995238D01*
X84352380Y-106804761D01*
X83685714Y-106614285D01*
X84304761Y-105852380D02*
X84352380Y-105947619D01*
X84352380Y-106138095D01*
X84304761Y-106233333D01*
X84209523Y-106280952D01*
X83828571Y-106280952D01*
X83733333Y-106233333D01*
X83685714Y-106138095D01*
X83685714Y-105947619D01*
X83733333Y-105852380D01*
X83828571Y-105804761D01*
X83923809Y-105804761D01*
X84019047Y-106280952D01*
X84352380Y-105376190D02*
X83685714Y-105376190D01*
X83876190Y-105376190D02*
X83780952Y-105328571D01*
X83733333Y-105280952D01*
X83685714Y-105185714D01*
X83685714Y-105090476D01*
X83304761Y-103280952D02*
X84590476Y-104138095D01*
X83400000Y-101661904D02*
X83352380Y-101757142D01*
X83352380Y-101900000D01*
X83400000Y-102042857D01*
X83495238Y-102138095D01*
X83590476Y-102185714D01*
X83780952Y-102233333D01*
X83923809Y-102233333D01*
X84114285Y-102185714D01*
X84209523Y-102138095D01*
X84304761Y-102042857D01*
X84352380Y-101900000D01*
X84352380Y-101804761D01*
X84304761Y-101661904D01*
X84257142Y-101614285D01*
X83923809Y-101614285D01*
X83923809Y-101804761D01*
X84352380Y-101185714D02*
X83352380Y-101185714D01*
X84352380Y-100614285D01*
X83352380Y-100614285D01*
X84352380Y-100138095D02*
X83352380Y-100138095D01*
X83352380Y-99900000D01*
X83400000Y-99757142D01*
X83495238Y-99661904D01*
X83590476Y-99614285D01*
X83780952Y-99566666D01*
X83923809Y-99566666D01*
X84114285Y-99614285D01*
X84209523Y-99661904D01*
X84304761Y-99757142D01*
X84352380Y-99900000D01*
X84352380Y-100138095D01*
X85866666Y-110252380D02*
X86200000Y-111252380D01*
X86533333Y-110252380D01*
X87438095Y-111157142D02*
X87390476Y-111204761D01*
X87247619Y-111252380D01*
X87152380Y-111252380D01*
X87009523Y-111204761D01*
X86914285Y-111109523D01*
X86866666Y-111014285D01*
X86819047Y-110823809D01*
X86819047Y-110680952D01*
X86866666Y-110490476D01*
X86914285Y-110395238D01*
X87009523Y-110300000D01*
X87152380Y-110252380D01*
X87247619Y-110252380D01*
X87390476Y-110300000D01*
X87438095Y-110347619D01*
X88438095Y-111157142D02*
X88390476Y-111204761D01*
X88247619Y-111252380D01*
X88152380Y-111252380D01*
X88009523Y-111204761D01*
X87914285Y-111109523D01*
X87866666Y-111014285D01*
X87819047Y-110823809D01*
X87819047Y-110680952D01*
X87866666Y-110490476D01*
X87914285Y-110395238D01*
X88009523Y-110300000D01*
X88152380Y-110252380D01*
X88247619Y-110252380D01*
X88390476Y-110300000D01*
X88438095Y-110347619D01*
X85314285Y-102752380D02*
X85314285Y-101752380D01*
X85552380Y-101752380D01*
X85695238Y-101800000D01*
X85790476Y-101895238D01*
X85838095Y-101990476D01*
X85885714Y-102180952D01*
X85885714Y-102323809D01*
X85838095Y-102514285D01*
X85790476Y-102609523D01*
X85695238Y-102704761D01*
X85552380Y-102752380D01*
X85314285Y-102752380D01*
X86838095Y-101800000D02*
X86742857Y-101752380D01*
X86600000Y-101752380D01*
X86457142Y-101800000D01*
X86361904Y-101895238D01*
X86314285Y-101990476D01*
X86266666Y-102180952D01*
X86266666Y-102323809D01*
X86314285Y-102514285D01*
X86361904Y-102609523D01*
X86457142Y-102704761D01*
X86600000Y-102752380D01*
X86695238Y-102752380D01*
X86838095Y-102704761D01*
X86885714Y-102657142D01*
X86885714Y-102323809D01*
X86695238Y-102323809D01*
X87314285Y-102752380D02*
X87314285Y-101752380D01*
X87885714Y-102752380D01*
X87885714Y-101752380D01*
X88361904Y-102752380D02*
X88361904Y-101752380D01*
X88600000Y-101752380D01*
X88742857Y-101800000D01*
X88838095Y-101895238D01*
X88885714Y-101990476D01*
X88933333Y-102180952D01*
X88933333Y-102323809D01*
X88885714Y-102514285D01*
X88838095Y-102609523D01*
X88742857Y-102704761D01*
X88600000Y-102752380D01*
X88361904Y-102752380D01*
X84900000Y-100400000D02*
X89300000Y-100400000D01*
X89300000Y-100400000D02*
X89300000Y-112400000D01*
X89300000Y-112400000D02*
X84900000Y-112400000D01*
X84900000Y-112400000D02*
X84900000Y-100400000D01*
X89800000Y-97052380D02*
X89800000Y-96052380D01*
X90038095Y-96052380D01*
X90180952Y-96100000D01*
X90276190Y-96195238D01*
X90323809Y-96290476D01*
X90371428Y-96480952D01*
X90371428Y-96623809D01*
X90323809Y-96814285D01*
X90276190Y-96909523D01*
X90180952Y-97004761D01*
X90038095Y-97052380D01*
X89800000Y-97052380D01*
X90800000Y-97052380D02*
X90800000Y-96385714D01*
X90800000Y-96052380D02*
X90752380Y-96100000D01*
X90800000Y-96147619D01*
X90847619Y-96100000D01*
X90800000Y-96052380D01*
X90800000Y-96147619D01*
X91704761Y-96385714D02*
X91704761Y-97195238D01*
X91657142Y-97290476D01*
X91609523Y-97338095D01*
X91514285Y-97385714D01*
X91371428Y-97385714D01*
X91276190Y-97338095D01*
X91704761Y-97004761D02*
X91609523Y-97052380D01*
X91419047Y-97052380D01*
X91323809Y-97004761D01*
X91276190Y-96957142D01*
X91228571Y-96861904D01*
X91228571Y-96576190D01*
X91276190Y-96480952D01*
X91323809Y-96433333D01*
X91419047Y-96385714D01*
X91609523Y-96385714D01*
X91704761Y-96433333D01*
X92180952Y-97052380D02*
X92180952Y-96385714D01*
X92180952Y-96052380D02*
X92133333Y-96100000D01*
X92180952Y-96147619D01*
X92228571Y-96100000D01*
X92180952Y-96052380D01*
X92180952Y-96147619D01*
X92514285Y-96385714D02*
X92895238Y-96385714D01*
X92657142Y-96052380D02*
X92657142Y-96909523D01*
X92704761Y-97004761D01*
X92800000Y-97052380D01*
X92895238Y-97052380D01*
X93657142Y-97052380D02*
X93657142Y-96528571D01*
X93609523Y-96433333D01*
X93514285Y-96385714D01*
X93323809Y-96385714D01*
X93228571Y-96433333D01*
X93657142Y-97004761D02*
X93561904Y-97052380D01*
X93323809Y-97052380D01*
X93228571Y-97004761D01*
X93180952Y-96909523D01*
X93180952Y-96814285D01*
X93228571Y-96719047D01*
X93323809Y-96671428D01*
X93561904Y-96671428D01*
X93657142Y-96623809D01*
X94276190Y-97052380D02*
X94180952Y-97004761D01*
X94133333Y-96909523D01*
X94133333Y-96052380D01*
X95895238Y-97052380D02*
X95419047Y-97052380D01*
X95419047Y-96052380D01*
X96228571Y-97052380D02*
X96228571Y-96052380D01*
X96466666Y-96052380D01*
X96609523Y-96100000D01*
X96704761Y-96195238D01*
X96752380Y-96290476D01*
X96800000Y-96480952D01*
X96800000Y-96623809D01*
X96752380Y-96814285D01*
X96704761Y-96909523D01*
X96609523Y-97004761D01*
X96466666Y-97052380D01*
X96228571Y-97052380D01*
X97419047Y-96052380D02*
X97609523Y-96052380D01*
X97704761Y-96100000D01*
X97800000Y-96195238D01*
X97847619Y-96385714D01*
X97847619Y-96719047D01*
X97800000Y-96909523D01*
X97704761Y-97004761D01*
X97609523Y-97052380D01*
X97419047Y-97052380D01*
X97323809Y-97004761D01*
X97228571Y-96909523D01*
X97180952Y-96719047D01*
X97180952Y-96385714D01*
X97228571Y-96195238D01*
X97323809Y-96100000D01*
X97419047Y-96052380D01*
X90480952Y-116666666D02*
X90957142Y-116666666D01*
X90385714Y-116952380D02*
X90719047Y-115952380D01*
X91052380Y-116952380D01*
X91385714Y-116285714D02*
X91385714Y-116952380D01*
X91385714Y-116380952D02*
X91433333Y-116333333D01*
X91528571Y-116285714D01*
X91671428Y-116285714D01*
X91766666Y-116333333D01*
X91814285Y-116428571D01*
X91814285Y-116952380D01*
X92719047Y-116952380D02*
X92719047Y-116428571D01*
X92671428Y-116333333D01*
X92576190Y-116285714D01*
X92385714Y-116285714D01*
X92290476Y-116333333D01*
X92719047Y-116904761D02*
X92623809Y-116952380D01*
X92385714Y-116952380D01*
X92290476Y-116904761D01*
X92242857Y-116809523D01*
X92242857Y-116714285D01*
X92290476Y-116619047D01*
X92385714Y-116571428D01*
X92623809Y-116571428D01*
X92719047Y-116523809D01*
X93338095Y-116952380D02*
X93242857Y-116904761D01*
X93195238Y-116809523D01*
X93195238Y-115952380D01*
X93861904Y-116952380D02*
X93766666Y-116904761D01*
X93719047Y-116857142D01*
X93671428Y-116761904D01*
X93671428Y-116476190D01*
X93719047Y-116380952D01*
X93766666Y-116333333D01*
X93861904Y-116285714D01*
X94004761Y-116285714D01*
X94100000Y-116333333D01*
X94147619Y-116380952D01*
X94195238Y-116476190D01*
X94195238Y-116761904D01*
X94147619Y-116857142D01*
X94100000Y-116904761D01*
X94004761Y-116952380D01*
X93861904Y-116952380D01*
X95052380Y-116285714D02*
X95052380Y-117095238D01*
X95004761Y-117190476D01*
X94957142Y-117238095D01*
X94861904Y-117285714D01*
X94719047Y-117285714D01*
X94623809Y-117238095D01*
X95052380Y-116904761D02*
X94957142Y-116952380D01*
X94766666Y-116952380D01*
X94671428Y-116904761D01*
X94623809Y-116857142D01*
X94576190Y-116761904D01*
X94576190Y-116476190D01*
X94623809Y-116380952D01*
X94671428Y-116333333D01*
X94766666Y-116285714D01*
X94957142Y-116285714D01*
X95052380Y-116333333D01*
X96766666Y-116952380D02*
X96290476Y-116952380D01*
X96290476Y-115952380D01*
X97100000Y-116952380D02*
X97100000Y-115952380D01*
X97338095Y-115952380D01*
X97480952Y-116000000D01*
X97576190Y-116095238D01*
X97623809Y-116190476D01*
X97671428Y-116380952D01*
X97671428Y-116523809D01*
X97623809Y-116714285D01*
X97576190Y-116809523D01*
X97480952Y-116904761D01*
X97338095Y-116952380D01*
X97100000Y-116952380D01*
X98290476Y-115952380D02*
X98480952Y-115952380D01*
X98576190Y-116000000D01*
X98671428Y-116095238D01*
X98719047Y-116285714D01*
X98719047Y-116619047D01*
X98671428Y-116809523D01*
X98576190Y-116904761D01*
X98480952Y-116952380D01*
X98290476Y-116952380D01*
X98195238Y-116904761D01*
X98100000Y-116809523D01*
X98052380Y-116619047D01*
X98052380Y-116285714D01*
X98100000Y-116095238D01*
X98195238Y-116000000D01*
X98290476Y-115952380D01*
X104090476Y-84647619D02*
X104138095Y-84600000D01*
X104233333Y-84552380D01*
X104471428Y-84552380D01*
X104566666Y-84600000D01*
X104614285Y-84647619D01*
X104661904Y-84742857D01*
X104661904Y-84838095D01*
X104614285Y-84980952D01*
X104042857Y-85552380D01*
X104661904Y-85552380D01*
X105519047Y-84885714D02*
X105519047Y-85552380D01*
X105280952Y-84504761D02*
X105042857Y-85219047D01*
X105661904Y-85219047D01*
X106042857Y-85457142D02*
X106090476Y-85504761D01*
X106042857Y-85552380D01*
X105995238Y-85504761D01*
X106042857Y-85457142D01*
X106042857Y-85552380D01*
X106709523Y-84552380D02*
X106804761Y-84552380D01*
X106900000Y-84600000D01*
X106947619Y-84647619D01*
X106995238Y-84742857D01*
X107042857Y-84933333D01*
X107042857Y-85171428D01*
X106995238Y-85361904D01*
X106947619Y-85457142D01*
X106900000Y-85504761D01*
X106804761Y-85552380D01*
X106709523Y-85552380D01*
X106614285Y-85504761D01*
X106566666Y-85457142D01*
X106519047Y-85361904D01*
X106471428Y-85171428D01*
X106471428Y-84933333D01*
X106519047Y-84742857D01*
X106566666Y-84647619D01*
X106614285Y-84600000D01*
X106709523Y-84552380D01*
X108233333Y-85552380D02*
X108233333Y-84552380D01*
X108566666Y-85266666D01*
X108900000Y-84552380D01*
X108900000Y-85552380D01*
X109376190Y-85552380D02*
X109376190Y-84552380D01*
X109376190Y-85028571D02*
X109947619Y-85028571D01*
X109947619Y-85552380D02*
X109947619Y-84552380D01*
X110328571Y-84885714D02*
X110852380Y-84885714D01*
X110328571Y-85552380D01*
X110852380Y-85552380D01*
X111947619Y-85504761D02*
X112090476Y-85552380D01*
X112328571Y-85552380D01*
X112423809Y-85504761D01*
X112471428Y-85457142D01*
X112519047Y-85361904D01*
X112519047Y-85266666D01*
X112471428Y-85171428D01*
X112423809Y-85123809D01*
X112328571Y-85076190D01*
X112138095Y-85028571D01*
X112042857Y-84980952D01*
X111995238Y-84933333D01*
X111947619Y-84838095D01*
X111947619Y-84742857D01*
X111995238Y-84647619D01*
X112042857Y-84600000D01*
X112138095Y-84552380D01*
X112376190Y-84552380D01*
X112519047Y-84600000D01*
X112852380Y-84885714D02*
X113090476Y-85552380D01*
X113328571Y-84885714D02*
X113090476Y-85552380D01*
X112995238Y-85790476D01*
X112947619Y-85838095D01*
X112852380Y-85885714D01*
X113661904Y-85504761D02*
X113757142Y-85552380D01*
X113947619Y-85552380D01*
X114042857Y-85504761D01*
X114090476Y-85409523D01*
X114090476Y-85361904D01*
X114042857Y-85266666D01*
X113947619Y-85219047D01*
X113804761Y-85219047D01*
X113709523Y-85171428D01*
X113661904Y-85076190D01*
X113661904Y-85028571D01*
X113709523Y-84933333D01*
X113804761Y-84885714D01*
X113947619Y-84885714D01*
X114042857Y-84933333D01*
X114376190Y-84885714D02*
X114757142Y-84885714D01*
X114519047Y-84552380D02*
X114519047Y-85409523D01*
X114566666Y-85504761D01*
X114661904Y-85552380D01*
X114757142Y-85552380D01*
X115471428Y-85504761D02*
X115376190Y-85552380D01*
X115185714Y-85552380D01*
X115090476Y-85504761D01*
X115042857Y-85409523D01*
X115042857Y-85028571D01*
X115090476Y-84933333D01*
X115185714Y-84885714D01*
X115376190Y-84885714D01*
X115471428Y-84933333D01*
X115519047Y-85028571D01*
X115519047Y-85123809D01*
X115042857Y-85219047D01*
X115947619Y-85552380D02*
X115947619Y-84885714D01*
X115947619Y-84980952D02*
X115995238Y-84933333D01*
X116090476Y-84885714D01*
X116233333Y-84885714D01*
X116328571Y-84933333D01*
X116376190Y-85028571D01*
X116376190Y-85552380D01*
X116376190Y-85028571D02*
X116423809Y-84933333D01*
X116519047Y-84885714D01*
X116661904Y-84885714D01*
X116757142Y-84933333D01*
X116804761Y-85028571D01*
X116804761Y-85552380D01*
X118614285Y-85457142D02*
X118566666Y-85504761D01*
X118423809Y-85552380D01*
X118328571Y-85552380D01*
X118185714Y-85504761D01*
X118090476Y-85409523D01*
X118042857Y-85314285D01*
X117995238Y-85123809D01*
X117995238Y-84980952D01*
X118042857Y-84790476D01*
X118090476Y-84695238D01*
X118185714Y-84600000D01*
X118328571Y-84552380D01*
X118423809Y-84552380D01*
X118566666Y-84600000D01*
X118614285Y-84647619D01*
X119185714Y-85552380D02*
X119090476Y-85504761D01*
X119042857Y-85409523D01*
X119042857Y-84552380D01*
X119709523Y-85552380D02*
X119614285Y-85504761D01*
X119566666Y-85457142D01*
X119519047Y-85361904D01*
X119519047Y-85076190D01*
X119566666Y-84980952D01*
X119614285Y-84933333D01*
X119709523Y-84885714D01*
X119852380Y-84885714D01*
X119947619Y-84933333D01*
X119995238Y-84980952D01*
X120042857Y-85076190D01*
X120042857Y-85361904D01*
X119995238Y-85457142D01*
X119947619Y-85504761D01*
X119852380Y-85552380D01*
X119709523Y-85552380D01*
X120900000Y-85504761D02*
X120804761Y-85552380D01*
X120614285Y-85552380D01*
X120519047Y-85504761D01*
X120471428Y-85457142D01*
X120423809Y-85361904D01*
X120423809Y-85076190D01*
X120471428Y-84980952D01*
X120519047Y-84933333D01*
X120614285Y-84885714D01*
X120804761Y-84885714D01*
X120900000Y-84933333D01*
X121328571Y-85552380D02*
X121328571Y-84552380D01*
X121423809Y-85171428D02*
X121709523Y-85552380D01*
X121709523Y-84885714D02*
X121328571Y-85266666D01*
X106400000Y-86300000D02*
X116400000Y-86300000D01*
X116400000Y-86300000D02*
X116400000Y-97100000D01*
X116400000Y-97100000D02*
X106400000Y-97100000D01*
X106400000Y-97100000D02*
X106400000Y-86300000D01*
X114861904Y-101552380D02*
X114861904Y-100552380D01*
X115242857Y-100552380D01*
X115338095Y-100600000D01*
X115385714Y-100647619D01*
X115433333Y-100742857D01*
X115433333Y-100885714D01*
X115385714Y-100980952D01*
X115338095Y-101028571D01*
X115242857Y-101076190D01*
X114861904Y-101076190D01*
X116433333Y-101457142D02*
X116385714Y-101504761D01*
X116242857Y-101552380D01*
X116147619Y-101552380D01*
X116004761Y-101504761D01*
X115909523Y-101409523D01*
X115861904Y-101314285D01*
X115814285Y-101123809D01*
X115814285Y-100980952D01*
X115861904Y-100790476D01*
X115909523Y-100695238D01*
X116004761Y-100600000D01*
X116147619Y-100552380D01*
X116242857Y-100552380D01*
X116385714Y-100600000D01*
X116433333Y-100647619D01*
X116861904Y-101552380D02*
X116861904Y-100552380D01*
X117195238Y-101266666D01*
X117528571Y-100552380D01*
X117528571Y-101552380D01*
X118480952Y-100552380D02*
X118004761Y-100552380D01*
X117957142Y-101028571D01*
X118004761Y-100980952D01*
X118100000Y-100933333D01*
X118338095Y-100933333D01*
X118433333Y-100980952D01*
X118480952Y-101028571D01*
X118528571Y-101123809D01*
X118528571Y-101361904D01*
X118480952Y-101457142D01*
X118433333Y-101504761D01*
X118338095Y-101552380D01*
X118100000Y-101552380D01*
X118004761Y-101504761D01*
X117957142Y-101457142D01*
X118909523Y-100647619D02*
X118957142Y-100600000D01*
X119052380Y-100552380D01*
X119290476Y-100552380D01*
X119385714Y-100600000D01*
X119433333Y-100647619D01*
X119480952Y-100742857D01*
X119480952Y-100838095D01*
X119433333Y-100980952D01*
X118861904Y-101552380D01*
X119480952Y-101552380D01*
X120338095Y-100885714D02*
X120338095Y-101552380D01*
X120100000Y-100504761D02*
X119861904Y-101219047D01*
X120480952Y-101219047D01*
X120814285Y-100647619D02*
X120861904Y-100600000D01*
X120957142Y-100552380D01*
X121195238Y-100552380D01*
X121290476Y-100600000D01*
X121338095Y-100647619D01*
X121385714Y-100742857D01*
X121385714Y-100838095D01*
X121338095Y-100980952D01*
X120766666Y-101552380D01*
X121385714Y-101552380D01*
X122600000Y-101900000D02*
X114800000Y-101900000D01*
X114800000Y-101900000D02*
X114800000Y-109500000D01*
X114800000Y-109500000D02*
X122600000Y-109500000D01*
X122600000Y-109500000D02*
X122600000Y-101900000D01*
X112352380Y-119766666D02*
X112828571Y-119766666D01*
X112257142Y-120052380D02*
X112590476Y-119052380D01*
X112923809Y-120052380D01*
X113257142Y-119385714D02*
X113257142Y-120052380D01*
X113257142Y-119480952D02*
X113304761Y-119433333D01*
X113400000Y-119385714D01*
X113542857Y-119385714D01*
X113638095Y-119433333D01*
X113685714Y-119528571D01*
X113685714Y-120052380D01*
X114590476Y-120052380D02*
X114590476Y-119528571D01*
X114542857Y-119433333D01*
X114447619Y-119385714D01*
X114257142Y-119385714D01*
X114161904Y-119433333D01*
X114590476Y-120004761D02*
X114495238Y-120052380D01*
X114257142Y-120052380D01*
X114161904Y-120004761D01*
X114114285Y-119909523D01*
X114114285Y-119814285D01*
X114161904Y-119719047D01*
X114257142Y-119671428D01*
X114495238Y-119671428D01*
X114590476Y-119623809D01*
X115209523Y-120052380D02*
X115114285Y-120004761D01*
X115066666Y-119909523D01*
X115066666Y-119052380D01*
X115733333Y-120052380D02*
X115638095Y-120004761D01*
X115590476Y-119957142D01*
X115542857Y-119861904D01*
X115542857Y-119576190D01*
X115590476Y-119480952D01*
X115638095Y-119433333D01*
X115733333Y-119385714D01*
X115876190Y-119385714D01*
X115971428Y-119433333D01*
X116019047Y-119480952D01*
X116066666Y-119576190D01*
X116066666Y-119861904D01*
X116019047Y-119957142D01*
X115971428Y-120004761D01*
X115876190Y-120052380D01*
X115733333Y-120052380D01*
X116923809Y-119385714D02*
X116923809Y-120195238D01*
X116876190Y-120290476D01*
X116828571Y-120338095D01*
X116733333Y-120385714D01*
X116590476Y-120385714D01*
X116495238Y-120338095D01*
X116923809Y-120004761D02*
X116828571Y-120052380D01*
X116638095Y-120052380D01*
X116542857Y-120004761D01*
X116495238Y-119957142D01*
X116447619Y-119861904D01*
X116447619Y-119576190D01*
X116495238Y-119480952D01*
X116542857Y-119433333D01*
X116638095Y-119385714D01*
X116828571Y-119385714D01*
X116923809Y-119433333D01*
X118352380Y-119052380D02*
X118542857Y-119052380D01*
X118638095Y-119100000D01*
X118733333Y-119195238D01*
X118780952Y-119385714D01*
X118780952Y-119719047D01*
X118733333Y-119909523D01*
X118638095Y-120004761D01*
X118542857Y-120052380D01*
X118352380Y-120052380D01*
X118257142Y-120004761D01*
X118161904Y-119909523D01*
X118114285Y-119719047D01*
X118114285Y-119385714D01*
X118161904Y-119195238D01*
X118257142Y-119100000D01*
X118352380Y-119052380D01*
X119638095Y-119385714D02*
X119638095Y-120052380D01*
X119209523Y-119385714D02*
X119209523Y-119909523D01*
X119257142Y-120004761D01*
X119352380Y-120052380D01*
X119495238Y-120052380D01*
X119590476Y-120004761D01*
X119638095Y-119957142D01*
X119971428Y-119385714D02*
X120352380Y-119385714D01*
X120114285Y-119052380D02*
X120114285Y-119909523D01*
X120161904Y-120004761D01*
X120257142Y-120052380D01*
X120352380Y-120052380D01*
X120685714Y-119385714D02*
X120685714Y-120385714D01*
X120685714Y-119433333D02*
X120780952Y-119385714D01*
X120971428Y-119385714D01*
X121066666Y-119433333D01*
X121114285Y-119480952D01*
X121161904Y-119576190D01*
X121161904Y-119861904D01*
X121114285Y-119957142D01*
X121066666Y-120004761D01*
X120971428Y-120052380D01*
X120780952Y-120052380D01*
X120685714Y-120004761D01*
X122019047Y-119385714D02*
X122019047Y-120052380D01*
X121590476Y-119385714D02*
X121590476Y-119909523D01*
X121638095Y-120004761D01*
X121733333Y-120052380D01*
X121876190Y-120052380D01*
X121971428Y-120004761D01*
X122019047Y-119957142D01*
X122352380Y-119385714D02*
X122733333Y-119385714D01*
X122495238Y-119052380D02*
X122495238Y-119909523D01*
X122542857Y-120004761D01*
X122638095Y-120052380D01*
X122733333Y-120052380D01*
X123019047Y-120004761D02*
X123114285Y-120052380D01*
X123304761Y-120052380D01*
X123400000Y-120004761D01*
X123447619Y-119909523D01*
X123447619Y-119861904D01*
X123400000Y-119766666D01*
X123304761Y-119719047D01*
X123161904Y-119719047D01*
X123066666Y-119671428D01*
X123019047Y-119576190D01*
X123019047Y-119528571D01*
X123066666Y-119433333D01*
X123161904Y-119385714D01*
X123304761Y-119385714D01*
X123400000Y-119433333D01*
X125200000Y-120700000D02*
X111400000Y-120700000D01*
X111400000Y-120700000D02*
X111400000Y-130300000D01*
X111400000Y-130300000D02*
X125200000Y-130300000D01*
X125200000Y-130300000D02*
X125200000Y-120700000D01*
X141452380Y-107057142D02*
X140452380Y-107057142D01*
X140452380Y-106819047D01*
X140500000Y-106676190D01*
X140595238Y-106580952D01*
X140690476Y-106533333D01*
X140880952Y-106485714D01*
X141023809Y-106485714D01*
X141214285Y-106533333D01*
X141309523Y-106580952D01*
X141404761Y-106676190D01*
X141452380Y-106819047D01*
X141452380Y-107057142D01*
X141452380Y-106057142D02*
X140785714Y-106057142D01*
X140452380Y-106057142D02*
X140500000Y-106104761D01*
X140547619Y-106057142D01*
X140500000Y-106009523D01*
X140452380Y-106057142D01*
X140547619Y-106057142D01*
X140785714Y-105152380D02*
X141595238Y-105152380D01*
X141690476Y-105200000D01*
X141738095Y-105247619D01*
X141785714Y-105342857D01*
X141785714Y-105485714D01*
X141738095Y-105580952D01*
X141404761Y-105152380D02*
X141452380Y-105247619D01*
X141452380Y-105438095D01*
X141404761Y-105533333D01*
X141357142Y-105580952D01*
X141261904Y-105628571D01*
X140976190Y-105628571D01*
X140880952Y-105580952D01*
X140833333Y-105533333D01*
X140785714Y-105438095D01*
X140785714Y-105247619D01*
X140833333Y-105152380D01*
X141452380Y-104676190D02*
X140785714Y-104676190D01*
X140452380Y-104676190D02*
X140500000Y-104723809D01*
X140547619Y-104676190D01*
X140500000Y-104628571D01*
X140452380Y-104676190D01*
X140547619Y-104676190D01*
X140785714Y-104342857D02*
X140785714Y-103961904D01*
X140452380Y-104200000D02*
X141309523Y-104200000D01*
X141404761Y-104152380D01*
X141452380Y-104057142D01*
X141452380Y-103961904D01*
X141452380Y-103200000D02*
X140928571Y-103200000D01*
X140833333Y-103247619D01*
X140785714Y-103342857D01*
X140785714Y-103533333D01*
X140833333Y-103628571D01*
X141404761Y-103200000D02*
X141452380Y-103295238D01*
X141452380Y-103533333D01*
X141404761Y-103628571D01*
X141309523Y-103676190D01*
X141214285Y-103676190D01*
X141119047Y-103628571D01*
X141071428Y-103533333D01*
X141071428Y-103295238D01*
X141023809Y-103200000D01*
X141452380Y-102580952D02*
X141404761Y-102676190D01*
X141309523Y-102723809D01*
X140452380Y-102723809D01*
X141452380Y-101438095D02*
X140452380Y-101438095D01*
X140785714Y-100961904D02*
X141452380Y-100961904D01*
X140880952Y-100961904D02*
X140833333Y-100914285D01*
X140785714Y-100819047D01*
X140785714Y-100676190D01*
X140833333Y-100580952D01*
X140928571Y-100533333D01*
X141452380Y-100533333D01*
X140785714Y-100057142D02*
X141785714Y-100057142D01*
X140833333Y-100057142D02*
X140785714Y-99961904D01*
X140785714Y-99771428D01*
X140833333Y-99676190D01*
X140880952Y-99628571D01*
X140976190Y-99580952D01*
X141261904Y-99580952D01*
X141357142Y-99628571D01*
X141404761Y-99676190D01*
X141452380Y-99771428D01*
X141452380Y-99961904D01*
X141404761Y-100057142D01*
X140785714Y-98723809D02*
X141452380Y-98723809D01*
X140785714Y-99152380D02*
X141309523Y-99152380D01*
X141404761Y-99104761D01*
X141452380Y-99009523D01*
X141452380Y-98866666D01*
X141404761Y-98771428D01*
X141357142Y-98723809D01*
X140785714Y-98390476D02*
X140785714Y-98009523D01*
X140452380Y-98247619D02*
X141309523Y-98247619D01*
X141404761Y-98200000D01*
X141452380Y-98104761D01*
X141452380Y-98009523D01*
X141404761Y-97723809D02*
X141452380Y-97628571D01*
X141452380Y-97438095D01*
X141404761Y-97342857D01*
X141309523Y-97295238D01*
X141261904Y-97295238D01*
X141166666Y-97342857D01*
X141119047Y-97438095D01*
X141119047Y-97580952D01*
X141071428Y-97676190D01*
X140976190Y-97723809D01*
X140928571Y-97723809D01*
X140833333Y-97676190D01*
X140785714Y-97580952D01*
X140785714Y-97438095D01*
X140833333Y-97342857D01*
X142100000Y-88800000D02*
X152000000Y-88800000D01*
X152000000Y-88800000D02*
X152000000Y-121900000D01*
X152000000Y-121900000D02*
X142100000Y-121900000D01*
X142100000Y-121900000D02*
X142100000Y-88800000D01*
X143685714Y-91566666D02*
X144161904Y-91566666D01*
X143590476Y-91852380D02*
X143923809Y-90852380D01*
X144257142Y-91852380D01*
X144590476Y-91852380D02*
X144590476Y-90852380D01*
X144828571Y-90852380D01*
X144971428Y-90900000D01*
X145066666Y-90995238D01*
X145114285Y-91090476D01*
X145161904Y-91280952D01*
X145161904Y-91423809D01*
X145114285Y-91614285D01*
X145066666Y-91709523D01*
X144971428Y-91804761D01*
X144828571Y-91852380D01*
X144590476Y-91852380D01*
X146161904Y-91852380D02*
X145828571Y-91376190D01*
X145590476Y-91852380D02*
X145590476Y-90852380D01*
X145971428Y-90852380D01*
X146066666Y-90900000D01*
X146114285Y-90947619D01*
X146161904Y-91042857D01*
X146161904Y-91185714D01*
X146114285Y-91280952D01*
X146066666Y-91328571D01*
X145971428Y-91376190D01*
X145590476Y-91376190D01*
X147114285Y-91852380D02*
X146542857Y-91852380D01*
X146828571Y-91852380D02*
X146828571Y-90852380D01*
X146733333Y-90995238D01*
X146638095Y-91090476D01*
X146542857Y-91138095D01*
X144109523Y-94552380D02*
X143633333Y-94552380D01*
X143633333Y-93552380D01*
X145014285Y-94552380D02*
X144680952Y-94076190D01*
X144442857Y-94552380D02*
X144442857Y-93552380D01*
X144823809Y-93552380D01*
X144919047Y-93600000D01*
X144966666Y-93647619D01*
X145014285Y-93742857D01*
X145014285Y-93885714D01*
X144966666Y-93980952D01*
X144919047Y-94028571D01*
X144823809Y-94076190D01*
X144442857Y-94076190D01*
X146014285Y-94457142D02*
X145966666Y-94504761D01*
X145823809Y-94552380D01*
X145728571Y-94552380D01*
X145585714Y-94504761D01*
X145490476Y-94409523D01*
X145442857Y-94314285D01*
X145395238Y-94123809D01*
X145395238Y-93980952D01*
X145442857Y-93790476D01*
X145490476Y-93695238D01*
X145585714Y-93600000D01*
X145728571Y-93552380D01*
X145823809Y-93552380D01*
X145966666Y-93600000D01*
X146014285Y-93647619D01*
X146442857Y-94552380D02*
X146442857Y-93552380D01*
X147014285Y-94552380D02*
X146585714Y-93980952D01*
X147014285Y-93552380D02*
X146442857Y-94123809D01*
X144976190Y-96952380D02*
X144976190Y-95952380D01*
X145214285Y-95952380D01*
X145357142Y-96000000D01*
X145452380Y-96095238D01*
X145500000Y-96190476D01*
X145547619Y-96380952D01*
X145547619Y-96523809D01*
X145500000Y-96714285D01*
X145452380Y-96809523D01*
X145357142Y-96904761D01*
X145214285Y-96952380D01*
X144976190Y-96952380D01*
X145976190Y-96952380D02*
X145976190Y-95952380D01*
X146452380Y-96952380D02*
X146452380Y-95952380D01*
X147023809Y-96952380D01*
X147023809Y-95952380D01*
X144771428Y-98828571D02*
X144914285Y-98876190D01*
X144961904Y-98923809D01*
X145009523Y-99019047D01*
X145009523Y-99161904D01*
X144961904Y-99257142D01*
X144914285Y-99304761D01*
X144819047Y-99352380D01*
X144438095Y-99352380D01*
X144438095Y-98352380D01*
X144771428Y-98352380D01*
X144866666Y-98400000D01*
X144914285Y-98447619D01*
X144961904Y-98542857D01*
X144961904Y-98638095D01*
X144914285Y-98733333D01*
X144866666Y-98780952D01*
X144771428Y-98828571D01*
X144438095Y-98828571D01*
X146009523Y-99257142D02*
X145961904Y-99304761D01*
X145819047Y-99352380D01*
X145723809Y-99352380D01*
X145580952Y-99304761D01*
X145485714Y-99209523D01*
X145438095Y-99114285D01*
X145390476Y-98923809D01*
X145390476Y-98780952D01*
X145438095Y-98590476D01*
X145485714Y-98495238D01*
X145580952Y-98400000D01*
X145723809Y-98352380D01*
X145819047Y-98352380D01*
X145961904Y-98400000D01*
X146009523Y-98447619D01*
X146438095Y-99352380D02*
X146438095Y-98352380D01*
X147009523Y-99352380D02*
X146580952Y-98780952D01*
X147009523Y-98352380D02*
X146438095Y-98923809D01*
X143623809Y-101100000D02*
X143528571Y-101052380D01*
X143385714Y-101052380D01*
X143242857Y-101100000D01*
X143147619Y-101195238D01*
X143100000Y-101290476D01*
X143052380Y-101480952D01*
X143052380Y-101623809D01*
X143100000Y-101814285D01*
X143147619Y-101909523D01*
X143242857Y-102004761D01*
X143385714Y-102052380D01*
X143480952Y-102052380D01*
X143623809Y-102004761D01*
X143671428Y-101957142D01*
X143671428Y-101623809D01*
X143480952Y-101623809D01*
X144100000Y-102052380D02*
X144100000Y-101052380D01*
X144480952Y-101052380D01*
X144576190Y-101100000D01*
X144623809Y-101147619D01*
X144671428Y-101242857D01*
X144671428Y-101385714D01*
X144623809Y-101480952D01*
X144576190Y-101528571D01*
X144480952Y-101576190D01*
X144100000Y-101576190D01*
X145100000Y-102052380D02*
X145100000Y-101052380D01*
X145766666Y-101052380D02*
X145957142Y-101052380D01*
X146052380Y-101100000D01*
X146147619Y-101195238D01*
X146195238Y-101385714D01*
X146195238Y-101719047D01*
X146147619Y-101909523D01*
X146052380Y-102004761D01*
X145957142Y-102052380D01*
X145766666Y-102052380D01*
X145671428Y-102004761D01*
X145576190Y-101909523D01*
X145528571Y-101719047D01*
X145528571Y-101385714D01*
X145576190Y-101195238D01*
X145671428Y-101100000D01*
X145766666Y-101052380D01*
X147052380Y-101052380D02*
X146861904Y-101052380D01*
X146766666Y-101100000D01*
X146719047Y-101147619D01*
X146623809Y-101290476D01*
X146576190Y-101480952D01*
X146576190Y-101861904D01*
X146623809Y-101957142D01*
X146671428Y-102004761D01*
X146766666Y-102052380D01*
X146957142Y-102052380D01*
X147052380Y-102004761D01*
X147100000Y-101957142D01*
X147147619Y-101861904D01*
X147147619Y-101623809D01*
X147100000Y-101528571D01*
X147052380Y-101480952D01*
X146957142Y-101433333D01*
X146766666Y-101433333D01*
X146671428Y-101480952D01*
X146623809Y-101528571D01*
X146576190Y-101623809D01*
X143685714Y-104366666D02*
X144161904Y-104366666D01*
X143590476Y-104652380D02*
X143923809Y-103652380D01*
X144257142Y-104652380D01*
X144590476Y-104652380D02*
X144590476Y-103652380D01*
X144828571Y-103652380D01*
X144971428Y-103700000D01*
X145066666Y-103795238D01*
X145114285Y-103890476D01*
X145161904Y-104080952D01*
X145161904Y-104223809D01*
X145114285Y-104414285D01*
X145066666Y-104509523D01*
X144971428Y-104604761D01*
X144828571Y-104652380D01*
X144590476Y-104652380D01*
X146161904Y-104652380D02*
X145828571Y-104176190D01*
X145590476Y-104652380D02*
X145590476Y-103652380D01*
X145971428Y-103652380D01*
X146066666Y-103700000D01*
X146114285Y-103747619D01*
X146161904Y-103842857D01*
X146161904Y-103985714D01*
X146114285Y-104080952D01*
X146066666Y-104128571D01*
X145971428Y-104176190D01*
X145590476Y-104176190D01*
X146542857Y-103747619D02*
X146590476Y-103700000D01*
X146685714Y-103652380D01*
X146923809Y-103652380D01*
X147019047Y-103700000D01*
X147066666Y-103747619D01*
X147114285Y-103842857D01*
X147114285Y-103938095D01*
X147066666Y-104080952D01*
X146495238Y-104652380D01*
X147114285Y-104652380D01*
X143623809Y-106200000D02*
X143528571Y-106152380D01*
X143385714Y-106152380D01*
X143242857Y-106200000D01*
X143147619Y-106295238D01*
X143100000Y-106390476D01*
X143052380Y-106580952D01*
X143052380Y-106723809D01*
X143100000Y-106914285D01*
X143147619Y-107009523D01*
X143242857Y-107104761D01*
X143385714Y-107152380D01*
X143480952Y-107152380D01*
X143623809Y-107104761D01*
X143671428Y-107057142D01*
X143671428Y-106723809D01*
X143480952Y-106723809D01*
X144100000Y-107152380D02*
X144100000Y-106152380D01*
X144480952Y-106152380D01*
X144576190Y-106200000D01*
X144623809Y-106247619D01*
X144671428Y-106342857D01*
X144671428Y-106485714D01*
X144623809Y-106580952D01*
X144576190Y-106628571D01*
X144480952Y-106676190D01*
X144100000Y-106676190D01*
X145100000Y-107152380D02*
X145100000Y-106152380D01*
X145766666Y-106152380D02*
X145957142Y-106152380D01*
X146052380Y-106200000D01*
X146147619Y-106295238D01*
X146195238Y-106485714D01*
X146195238Y-106819047D01*
X146147619Y-107009523D01*
X146052380Y-107104761D01*
X145957142Y-107152380D01*
X145766666Y-107152380D01*
X145671428Y-107104761D01*
X145576190Y-107009523D01*
X145528571Y-106819047D01*
X145528571Y-106485714D01*
X145576190Y-106295238D01*
X145671428Y-106200000D01*
X145766666Y-106152380D01*
X146528571Y-106152380D02*
X147147619Y-106152380D01*
X146814285Y-106533333D01*
X146957142Y-106533333D01*
X147052380Y-106580952D01*
X147100000Y-106628571D01*
X147147619Y-106723809D01*
X147147619Y-106961904D01*
X147100000Y-107057142D01*
X147052380Y-107104761D01*
X146957142Y-107152380D01*
X146671428Y-107152380D01*
X146576190Y-107104761D01*
X146528571Y-107057142D01*
X143623809Y-108600000D02*
X143528571Y-108552380D01*
X143385714Y-108552380D01*
X143242857Y-108600000D01*
X143147619Y-108695238D01*
X143100000Y-108790476D01*
X143052380Y-108980952D01*
X143052380Y-109123809D01*
X143100000Y-109314285D01*
X143147619Y-109409523D01*
X143242857Y-109504761D01*
X143385714Y-109552380D01*
X143480952Y-109552380D01*
X143623809Y-109504761D01*
X143671428Y-109457142D01*
X143671428Y-109123809D01*
X143480952Y-109123809D01*
X144100000Y-109552380D02*
X144100000Y-108552380D01*
X144480952Y-108552380D01*
X144576190Y-108600000D01*
X144623809Y-108647619D01*
X144671428Y-108742857D01*
X144671428Y-108885714D01*
X144623809Y-108980952D01*
X144576190Y-109028571D01*
X144480952Y-109076190D01*
X144100000Y-109076190D01*
X145100000Y-109552380D02*
X145100000Y-108552380D01*
X145766666Y-108552380D02*
X145957142Y-108552380D01*
X146052380Y-108600000D01*
X146147619Y-108695238D01*
X146195238Y-108885714D01*
X146195238Y-109219047D01*
X146147619Y-109409523D01*
X146052380Y-109504761D01*
X145957142Y-109552380D01*
X145766666Y-109552380D01*
X145671428Y-109504761D01*
X145576190Y-109409523D01*
X145528571Y-109219047D01*
X145528571Y-108885714D01*
X145576190Y-108695238D01*
X145671428Y-108600000D01*
X145766666Y-108552380D01*
X147052380Y-108885714D02*
X147052380Y-109552380D01*
X146814285Y-108504761D02*
X146576190Y-109219047D01*
X147195238Y-109219047D01*
X143623809Y-111200000D02*
X143528571Y-111152380D01*
X143385714Y-111152380D01*
X143242857Y-111200000D01*
X143147619Y-111295238D01*
X143100000Y-111390476D01*
X143052380Y-111580952D01*
X143052380Y-111723809D01*
X143100000Y-111914285D01*
X143147619Y-112009523D01*
X143242857Y-112104761D01*
X143385714Y-112152380D01*
X143480952Y-112152380D01*
X143623809Y-112104761D01*
X143671428Y-112057142D01*
X143671428Y-111723809D01*
X143480952Y-111723809D01*
X144100000Y-112152380D02*
X144100000Y-111152380D01*
X144480952Y-111152380D01*
X144576190Y-111200000D01*
X144623809Y-111247619D01*
X144671428Y-111342857D01*
X144671428Y-111485714D01*
X144623809Y-111580952D01*
X144576190Y-111628571D01*
X144480952Y-111676190D01*
X144100000Y-111676190D01*
X145100000Y-112152380D02*
X145100000Y-111152380D01*
X145766666Y-111152380D02*
X145957142Y-111152380D01*
X146052380Y-111200000D01*
X146147619Y-111295238D01*
X146195238Y-111485714D01*
X146195238Y-111819047D01*
X146147619Y-112009523D01*
X146052380Y-112104761D01*
X145957142Y-112152380D01*
X145766666Y-112152380D01*
X145671428Y-112104761D01*
X145576190Y-112009523D01*
X145528571Y-111819047D01*
X145528571Y-111485714D01*
X145576190Y-111295238D01*
X145671428Y-111200000D01*
X145766666Y-111152380D01*
X147100000Y-111152380D02*
X146623809Y-111152380D01*
X146576190Y-111628571D01*
X146623809Y-111580952D01*
X146719047Y-111533333D01*
X146957142Y-111533333D01*
X147052380Y-111580952D01*
X147100000Y-111628571D01*
X147147619Y-111723809D01*
X147147619Y-111961904D01*
X147100000Y-112057142D01*
X147052380Y-112104761D01*
X146957142Y-112152380D01*
X146719047Y-112152380D01*
X146623809Y-112104761D01*
X146576190Y-112057142D01*
X144709523Y-114704761D02*
X144852380Y-114752380D01*
X145090476Y-114752380D01*
X145185714Y-114704761D01*
X145233333Y-114657142D01*
X145280952Y-114561904D01*
X145280952Y-114466666D01*
X145233333Y-114371428D01*
X145185714Y-114323809D01*
X145090476Y-114276190D01*
X144900000Y-114228571D01*
X144804761Y-114180952D01*
X144757142Y-114133333D01*
X144709523Y-114038095D01*
X144709523Y-113942857D01*
X144757142Y-113847619D01*
X144804761Y-113800000D01*
X144900000Y-113752380D01*
X145138095Y-113752380D01*
X145280952Y-113800000D01*
X146280952Y-114657142D02*
X146233333Y-114704761D01*
X146090476Y-114752380D01*
X145995238Y-114752380D01*
X145852380Y-114704761D01*
X145757142Y-114609523D01*
X145709523Y-114514285D01*
X145661904Y-114323809D01*
X145661904Y-114180952D01*
X145709523Y-113990476D01*
X145757142Y-113895238D01*
X145852380Y-113800000D01*
X145995238Y-113752380D01*
X146090476Y-113752380D01*
X146233333Y-113800000D01*
X146280952Y-113847619D01*
X147185714Y-114752380D02*
X146709523Y-114752380D01*
X146709523Y-113752380D01*
X144485714Y-117104761D02*
X144628571Y-117152380D01*
X144866666Y-117152380D01*
X144961904Y-117104761D01*
X145009523Y-117057142D01*
X145057142Y-116961904D01*
X145057142Y-116866666D01*
X145009523Y-116771428D01*
X144961904Y-116723809D01*
X144866666Y-116676190D01*
X144676190Y-116628571D01*
X144580952Y-116580952D01*
X144533333Y-116533333D01*
X144485714Y-116438095D01*
X144485714Y-116342857D01*
X144533333Y-116247619D01*
X144580952Y-116200000D01*
X144676190Y-116152380D01*
X144914285Y-116152380D01*
X145057142Y-116200000D01*
X145485714Y-117152380D02*
X145485714Y-116152380D01*
X145723809Y-116152380D01*
X145866666Y-116200000D01*
X145961904Y-116295238D01*
X146009523Y-116390476D01*
X146057142Y-116580952D01*
X146057142Y-116723809D01*
X146009523Y-116914285D01*
X145961904Y-117009523D01*
X145866666Y-117104761D01*
X145723809Y-117152380D01*
X145485714Y-117152380D01*
X146438095Y-116866666D02*
X146914285Y-116866666D01*
X146342857Y-117152380D02*
X146676190Y-116152380D01*
X147009523Y-117152380D01*
X143838095Y-119666666D02*
X144314285Y-119666666D01*
X143742857Y-119952380D02*
X144076190Y-118952380D01*
X144409523Y-119952380D01*
X145266666Y-119000000D02*
X145171428Y-118952380D01*
X145028571Y-118952380D01*
X144885714Y-119000000D01*
X144790476Y-119095238D01*
X144742857Y-119190476D01*
X144695238Y-119380952D01*
X144695238Y-119523809D01*
X144742857Y-119714285D01*
X144790476Y-119809523D01*
X144885714Y-119904761D01*
X145028571Y-119952380D01*
X145123809Y-119952380D01*
X145266666Y-119904761D01*
X145314285Y-119857142D01*
X145314285Y-119523809D01*
X145123809Y-119523809D01*
X145742857Y-119952380D02*
X145742857Y-118952380D01*
X146314285Y-119952380D01*
X146314285Y-118952380D01*
X146790476Y-119952380D02*
X146790476Y-118952380D01*
X147028571Y-118952380D01*
X147171428Y-119000000D01*
X147266666Y-119095238D01*
X147314285Y-119190476D01*
X147361904Y-119380952D01*
X147361904Y-119523809D01*
X147314285Y-119714285D01*
X147266666Y-119809523D01*
X147171428Y-119904761D01*
X147028571Y-119952380D01*
X146790476Y-119952380D01*
X121152380Y-125500000D02*
X121152380Y-125309523D01*
X121200000Y-125214285D01*
X121295238Y-125119047D01*
X121485714Y-125071428D01*
X121819047Y-125071428D01*
X122009523Y-125119047D01*
X122104761Y-125214285D01*
X122152380Y-125309523D01*
X122152380Y-125500000D01*
X122104761Y-125595238D01*
X122009523Y-125690476D01*
X121819047Y-125738095D01*
X121485714Y-125738095D01*
X121295238Y-125690476D01*
X121200000Y-125595238D01*
X121152380Y-125500000D01*
X121152380Y-124642857D02*
X121961904Y-124642857D01*
X122057142Y-124595238D01*
X122104761Y-124547619D01*
X122152380Y-124452380D01*
X122152380Y-124261904D01*
X122104761Y-124166666D01*
X122057142Y-124119047D01*
X121961904Y-124071428D01*
X121152380Y-124071428D01*
X121152380Y-123738095D02*
X121152380Y-123166666D01*
X122152380Y-123452380D02*
X121152380Y-123452380D01*
X122152380Y-122261904D02*
X121676190Y-122595238D01*
X122152380Y-122833333D02*
X121152380Y-122833333D01*
X121152380Y-122452380D01*
X121200000Y-122357142D01*
X121247619Y-122309523D01*
X121342857Y-122261904D01*
X121485714Y-122261904D01*
X121580952Y-122309523D01*
X121628571Y-122357142D01*
X121676190Y-122452380D01*
X121676190Y-122833333D01*
X122152380Y-121833333D02*
X121152380Y-121833333D01*
X121152380Y-121452380D01*
X121200000Y-121357142D01*
X121247619Y-121309523D01*
X121342857Y-121261904D01*
X121485714Y-121261904D01*
X121580952Y-121309523D01*
X121628571Y-121357142D01*
X121676190Y-121452380D01*
X121676190Y-121833333D01*
X118552380Y-125523809D02*
X118552380Y-125333333D01*
X118600000Y-125238095D01*
X118695238Y-125142857D01*
X118885714Y-125095238D01*
X119219047Y-125095238D01*
X119409523Y-125142857D01*
X119504761Y-125238095D01*
X119552380Y-125333333D01*
X119552380Y-125523809D01*
X119504761Y-125619047D01*
X119409523Y-125714285D01*
X119219047Y-125761904D01*
X118885714Y-125761904D01*
X118695238Y-125714285D01*
X118600000Y-125619047D01*
X118552380Y-125523809D01*
X118552380Y-124666666D02*
X119361904Y-124666666D01*
X119457142Y-124619047D01*
X119504761Y-124571428D01*
X119552380Y-124476190D01*
X119552380Y-124285714D01*
X119504761Y-124190476D01*
X119457142Y-124142857D01*
X119361904Y-124095238D01*
X118552380Y-124095238D01*
X118552380Y-123761904D02*
X118552380Y-123190476D01*
X119552380Y-123476190D02*
X118552380Y-123476190D01*
X119552380Y-122285714D02*
X119076190Y-122619047D01*
X119552380Y-122857142D02*
X118552380Y-122857142D01*
X118552380Y-122476190D01*
X118600000Y-122380952D01*
X118647619Y-122333333D01*
X118742857Y-122285714D01*
X118885714Y-122285714D01*
X118980952Y-122333333D01*
X119028571Y-122380952D01*
X119076190Y-122476190D01*
X119076190Y-122857142D01*
X119552380Y-121857142D02*
X118552380Y-121857142D01*
X119552380Y-121285714D01*
X118552380Y-121285714D01*
X115952380Y-125428571D02*
X115952380Y-125238095D01*
X116000000Y-125142857D01*
X116095238Y-125047619D01*
X116285714Y-125000000D01*
X116619047Y-125000000D01*
X116809523Y-125047619D01*
X116904761Y-125142857D01*
X116952380Y-125238095D01*
X116952380Y-125428571D01*
X116904761Y-125523809D01*
X116809523Y-125619047D01*
X116619047Y-125666666D01*
X116285714Y-125666666D01*
X116095238Y-125619047D01*
X116000000Y-125523809D01*
X115952380Y-125428571D01*
X115952380Y-124571428D02*
X116761904Y-124571428D01*
X116857142Y-124523809D01*
X116904761Y-124476190D01*
X116952380Y-124380952D01*
X116952380Y-124190476D01*
X116904761Y-124095238D01*
X116857142Y-124047619D01*
X116761904Y-124000000D01*
X115952380Y-124000000D01*
X115952380Y-123666666D02*
X115952380Y-123095238D01*
X116952380Y-123380952D02*
X115952380Y-123380952D01*
X116952380Y-122285714D02*
X116952380Y-122761904D01*
X115952380Y-122761904D01*
X116952380Y-121952380D02*
X115952380Y-121952380D01*
X116952380Y-121380952D01*
X115952380Y-121380952D01*
X113452380Y-125504761D02*
X113452380Y-125314285D01*
X113500000Y-125219047D01*
X113595238Y-125123809D01*
X113785714Y-125076190D01*
X114119047Y-125076190D01*
X114309523Y-125123809D01*
X114404761Y-125219047D01*
X114452380Y-125314285D01*
X114452380Y-125504761D01*
X114404761Y-125600000D01*
X114309523Y-125695238D01*
X114119047Y-125742857D01*
X113785714Y-125742857D01*
X113595238Y-125695238D01*
X113500000Y-125600000D01*
X113452380Y-125504761D01*
X113452380Y-124647619D02*
X114261904Y-124647619D01*
X114357142Y-124600000D01*
X114404761Y-124552380D01*
X114452380Y-124457142D01*
X114452380Y-124266666D01*
X114404761Y-124171428D01*
X114357142Y-124123809D01*
X114261904Y-124076190D01*
X113452380Y-124076190D01*
X113452380Y-123742857D02*
X113452380Y-123171428D01*
X114452380Y-123457142D02*
X113452380Y-123457142D01*
X114452380Y-122361904D02*
X114452380Y-122838095D01*
X113452380Y-122838095D01*
X114452380Y-122028571D02*
X113452380Y-122028571D01*
X113452380Y-121647619D01*
X113500000Y-121552380D01*
X113547619Y-121504761D01*
X113642857Y-121457142D01*
X113785714Y-121457142D01*
X113880952Y-121504761D01*
X113928571Y-121552380D01*
X113976190Y-121647619D01*
X113976190Y-122028571D01*
%TO.C,C10*%
X99397342Y-100442857D02*
X99444961Y-100490476D01*
X99492580Y-100633333D01*
X99492580Y-100728571D01*
X99444961Y-100871428D01*
X99349723Y-100966666D01*
X99254485Y-101014285D01*
X99064009Y-101061904D01*
X98921152Y-101061904D01*
X98730676Y-101014285D01*
X98635438Y-100966666D01*
X98540200Y-100871428D01*
X98492580Y-100728571D01*
X98492580Y-100633333D01*
X98540200Y-100490476D01*
X98587819Y-100442857D01*
X99492580Y-99490476D02*
X99492580Y-100061904D01*
X99492580Y-99776190D02*
X98492580Y-99776190D01*
X98635438Y-99871428D01*
X98730676Y-99966666D01*
X98778295Y-100061904D01*
X98492580Y-98871428D02*
X98492580Y-98776190D01*
X98540200Y-98680952D01*
X98587819Y-98633333D01*
X98683057Y-98585714D01*
X98873533Y-98538095D01*
X99111628Y-98538095D01*
X99302104Y-98585714D01*
X99397342Y-98633333D01*
X99444961Y-98680952D01*
X99492580Y-98776190D01*
X99492580Y-98871428D01*
X99444961Y-98966666D01*
X99397342Y-99014285D01*
X99302104Y-99061904D01*
X99111628Y-99109523D01*
X98873533Y-99109523D01*
X98683057Y-99061904D01*
X98587819Y-99014285D01*
X98540200Y-98966666D01*
X98492580Y-98871428D01*
D12*
%TO.C,Y1*%
X107595238Y-93369761D02*
X107595238Y-93974523D01*
X107171904Y-92704523D02*
X107595238Y-93369761D01*
X108018571Y-92704523D01*
X109107142Y-93974523D02*
X108381428Y-93974523D01*
X108744285Y-93974523D02*
X108744285Y-92704523D01*
X108623333Y-92885952D01*
X108502380Y-93006904D01*
X108381428Y-93067380D01*
D11*
%TO.C,C13*%
X112357142Y-88157142D02*
X112309523Y-88204761D01*
X112166666Y-88252380D01*
X112071428Y-88252380D01*
X111928571Y-88204761D01*
X111833333Y-88109523D01*
X111785714Y-88014285D01*
X111738095Y-87823809D01*
X111738095Y-87680952D01*
X111785714Y-87490476D01*
X111833333Y-87395238D01*
X111928571Y-87300000D01*
X112071428Y-87252380D01*
X112166666Y-87252380D01*
X112309523Y-87300000D01*
X112357142Y-87347619D01*
X113309523Y-88252380D02*
X112738095Y-88252380D01*
X113023809Y-88252380D02*
X113023809Y-87252380D01*
X112928571Y-87395238D01*
X112833333Y-87490476D01*
X112738095Y-87538095D01*
X113642857Y-87252380D02*
X114261904Y-87252380D01*
X113928571Y-87633333D01*
X114071428Y-87633333D01*
X114166666Y-87680952D01*
X114214285Y-87728571D01*
X114261904Y-87823809D01*
X114261904Y-88061904D01*
X114214285Y-88157142D01*
X114166666Y-88204761D01*
X114071428Y-88252380D01*
X113785714Y-88252380D01*
X113690476Y-88204761D01*
X113642857Y-88157142D01*
D12*
%TO.C,IC1*%
X94255238Y-101130323D02*
X94255238Y-99860323D01*
X95585714Y-101009371D02*
X95525238Y-101069847D01*
X95343809Y-101130323D01*
X95222857Y-101130323D01*
X95041428Y-101069847D01*
X94920476Y-100948895D01*
X94860000Y-100827942D01*
X94799523Y-100586038D01*
X94799523Y-100404609D01*
X94860000Y-100162704D01*
X94920476Y-100041752D01*
X95041428Y-99920800D01*
X95222857Y-99860323D01*
X95343809Y-99860323D01*
X95525238Y-99920800D01*
X95585714Y-99981276D01*
X96795238Y-101130323D02*
X96069523Y-101130323D01*
X96432380Y-101130323D02*
X96432380Y-99860323D01*
X96311428Y-100041752D01*
X96190476Y-100162704D01*
X96069523Y-100223180D01*
D11*
%TO.C,C11*%
X92757142Y-100642857D02*
X92804761Y-100690476D01*
X92852380Y-100833333D01*
X92852380Y-100928571D01*
X92804761Y-101071428D01*
X92709523Y-101166666D01*
X92614285Y-101214285D01*
X92423809Y-101261904D01*
X92280952Y-101261904D01*
X92090476Y-101214285D01*
X91995238Y-101166666D01*
X91900000Y-101071428D01*
X91852380Y-100928571D01*
X91852380Y-100833333D01*
X91900000Y-100690476D01*
X91947619Y-100642857D01*
X92852380Y-99690476D02*
X92852380Y-100261904D01*
X92852380Y-99976190D02*
X91852380Y-99976190D01*
X91995238Y-100071428D01*
X92090476Y-100166666D01*
X92138095Y-100261904D01*
X92852380Y-98738095D02*
X92852380Y-99309523D01*
X92852380Y-99023809D02*
X91852380Y-99023809D01*
X91995238Y-99119047D01*
X92090476Y-99214285D01*
X92138095Y-99309523D01*
%TO.C,C1*%
X111533333Y-102157142D02*
X111485714Y-102204761D01*
X111342857Y-102252380D01*
X111247619Y-102252380D01*
X111104761Y-102204761D01*
X111009523Y-102109523D01*
X110961904Y-102014285D01*
X110914285Y-101823809D01*
X110914285Y-101680952D01*
X110961904Y-101490476D01*
X111009523Y-101395238D01*
X111104761Y-101300000D01*
X111247619Y-101252380D01*
X111342857Y-101252380D01*
X111485714Y-101300000D01*
X111533333Y-101347619D01*
X112485714Y-102252380D02*
X111914285Y-102252380D01*
X112200000Y-102252380D02*
X112200000Y-101252380D01*
X112104761Y-101395238D01*
X112009523Y-101490476D01*
X111914285Y-101538095D01*
%TO.C,C15*%
X91057142Y-112542857D02*
X91104761Y-112590476D01*
X91152380Y-112733333D01*
X91152380Y-112828571D01*
X91104761Y-112971428D01*
X91009523Y-113066666D01*
X90914285Y-113114285D01*
X90723809Y-113161904D01*
X90580952Y-113161904D01*
X90390476Y-113114285D01*
X90295238Y-113066666D01*
X90200000Y-112971428D01*
X90152380Y-112828571D01*
X90152380Y-112733333D01*
X90200000Y-112590476D01*
X90247619Y-112542857D01*
X91152380Y-111590476D02*
X91152380Y-112161904D01*
X91152380Y-111876190D02*
X90152380Y-111876190D01*
X90295238Y-111971428D01*
X90390476Y-112066666D01*
X90438095Y-112161904D01*
X90152380Y-110685714D02*
X90152380Y-111161904D01*
X90628571Y-111209523D01*
X90580952Y-111161904D01*
X90533333Y-111066666D01*
X90533333Y-110828571D01*
X90580952Y-110733333D01*
X90628571Y-110685714D01*
X90723809Y-110638095D01*
X90961904Y-110638095D01*
X91057142Y-110685714D01*
X91104761Y-110733333D01*
X91152380Y-110828571D01*
X91152380Y-111066666D01*
X91104761Y-111161904D01*
X91057142Y-111209523D01*
%TO.C,C2*%
X113533333Y-102157142D02*
X113485714Y-102204761D01*
X113342857Y-102252380D01*
X113247619Y-102252380D01*
X113104761Y-102204761D01*
X113009523Y-102109523D01*
X112961904Y-102014285D01*
X112914285Y-101823809D01*
X112914285Y-101680952D01*
X112961904Y-101490476D01*
X113009523Y-101395238D01*
X113104761Y-101300000D01*
X113247619Y-101252380D01*
X113342857Y-101252380D01*
X113485714Y-101300000D01*
X113533333Y-101347619D01*
X113914285Y-101347619D02*
X113961904Y-101300000D01*
X114057142Y-101252380D01*
X114295238Y-101252380D01*
X114390476Y-101300000D01*
X114438095Y-101347619D01*
X114485714Y-101442857D01*
X114485714Y-101538095D01*
X114438095Y-101680952D01*
X113866666Y-102252380D01*
X114485714Y-102252380D01*
%TO.C,C8*%
X118033333Y-111657142D02*
X117985714Y-111704761D01*
X117842857Y-111752380D01*
X117747619Y-111752380D01*
X117604761Y-111704761D01*
X117509523Y-111609523D01*
X117461904Y-111514285D01*
X117414285Y-111323809D01*
X117414285Y-111180952D01*
X117461904Y-110990476D01*
X117509523Y-110895238D01*
X117604761Y-110800000D01*
X117747619Y-110752380D01*
X117842857Y-110752380D01*
X117985714Y-110800000D01*
X118033333Y-110847619D01*
X118604761Y-111180952D02*
X118509523Y-111133333D01*
X118461904Y-111085714D01*
X118414285Y-110990476D01*
X118414285Y-110942857D01*
X118461904Y-110847619D01*
X118509523Y-110800000D01*
X118604761Y-110752380D01*
X118795238Y-110752380D01*
X118890476Y-110800000D01*
X118938095Y-110847619D01*
X118985714Y-110942857D01*
X118985714Y-110990476D01*
X118938095Y-111085714D01*
X118890476Y-111133333D01*
X118795238Y-111180952D01*
X118604761Y-111180952D01*
X118509523Y-111228571D01*
X118461904Y-111276190D01*
X118414285Y-111371428D01*
X118414285Y-111561904D01*
X118461904Y-111657142D01*
X118509523Y-111704761D01*
X118604761Y-111752380D01*
X118795238Y-111752380D01*
X118890476Y-111704761D01*
X118938095Y-111657142D01*
X118985714Y-111561904D01*
X118985714Y-111371428D01*
X118938095Y-111276190D01*
X118890476Y-111228571D01*
X118795238Y-111180952D01*
D12*
%TO.C,IC2*%
X94160238Y-114074523D02*
X94160238Y-112804523D01*
X95490714Y-113953571D02*
X95430238Y-114014047D01*
X95248809Y-114074523D01*
X95127857Y-114074523D01*
X94946428Y-114014047D01*
X94825476Y-113893095D01*
X94765000Y-113772142D01*
X94704523Y-113530238D01*
X94704523Y-113348809D01*
X94765000Y-113106904D01*
X94825476Y-112985952D01*
X94946428Y-112865000D01*
X95127857Y-112804523D01*
X95248809Y-112804523D01*
X95430238Y-112865000D01*
X95490714Y-112925476D01*
X95974523Y-112925476D02*
X96035000Y-112865000D01*
X96155952Y-112804523D01*
X96458333Y-112804523D01*
X96579285Y-112865000D01*
X96639761Y-112925476D01*
X96700238Y-113046428D01*
X96700238Y-113167380D01*
X96639761Y-113348809D01*
X95914047Y-114074523D01*
X96700238Y-114074523D01*
D11*
%TO.C,C5*%
X111233333Y-115157142D02*
X111185714Y-115204761D01*
X111042857Y-115252380D01*
X110947619Y-115252380D01*
X110804761Y-115204761D01*
X110709523Y-115109523D01*
X110661904Y-115014285D01*
X110614285Y-114823809D01*
X110614285Y-114680952D01*
X110661904Y-114490476D01*
X110709523Y-114395238D01*
X110804761Y-114300000D01*
X110947619Y-114252380D01*
X111042857Y-114252380D01*
X111185714Y-114300000D01*
X111233333Y-114347619D01*
X112138095Y-114252380D02*
X111661904Y-114252380D01*
X111614285Y-114728571D01*
X111661904Y-114680952D01*
X111757142Y-114633333D01*
X111995238Y-114633333D01*
X112090476Y-114680952D01*
X112138095Y-114728571D01*
X112185714Y-114823809D01*
X112185714Y-115061904D01*
X112138095Y-115157142D01*
X112090476Y-115204761D01*
X111995238Y-115252380D01*
X111757142Y-115252380D01*
X111661904Y-115204761D01*
X111614285Y-115157142D01*
%TO.C,C4*%
X113033333Y-111057142D02*
X112985714Y-111104761D01*
X112842857Y-111152380D01*
X112747619Y-111152380D01*
X112604761Y-111104761D01*
X112509523Y-111009523D01*
X112461904Y-110914285D01*
X112414285Y-110723809D01*
X112414285Y-110580952D01*
X112461904Y-110390476D01*
X112509523Y-110295238D01*
X112604761Y-110200000D01*
X112747619Y-110152380D01*
X112842857Y-110152380D01*
X112985714Y-110200000D01*
X113033333Y-110247619D01*
X113890476Y-110485714D02*
X113890476Y-111152380D01*
X113652380Y-110104761D02*
X113414285Y-110819047D01*
X114033333Y-110819047D01*
%TO.C,C12*%
X91157142Y-100542857D02*
X91204761Y-100590476D01*
X91252380Y-100733333D01*
X91252380Y-100828571D01*
X91204761Y-100971428D01*
X91109523Y-101066666D01*
X91014285Y-101114285D01*
X90823809Y-101161904D01*
X90680952Y-101161904D01*
X90490476Y-101114285D01*
X90395238Y-101066666D01*
X90300000Y-100971428D01*
X90252380Y-100828571D01*
X90252380Y-100733333D01*
X90300000Y-100590476D01*
X90347619Y-100542857D01*
X91252380Y-99590476D02*
X91252380Y-100161904D01*
X91252380Y-99876190D02*
X90252380Y-99876190D01*
X90395238Y-99971428D01*
X90490476Y-100066666D01*
X90538095Y-100161904D01*
X90347619Y-99209523D02*
X90300000Y-99161904D01*
X90252380Y-99066666D01*
X90252380Y-98828571D01*
X90300000Y-98733333D01*
X90347619Y-98685714D01*
X90442857Y-98638095D01*
X90538095Y-98638095D01*
X90680952Y-98685714D01*
X91252380Y-99257142D01*
X91252380Y-98638095D01*
%TO.C,C7*%
X118133333Y-113757142D02*
X118085714Y-113804761D01*
X117942857Y-113852380D01*
X117847619Y-113852380D01*
X117704761Y-113804761D01*
X117609523Y-113709523D01*
X117561904Y-113614285D01*
X117514285Y-113423809D01*
X117514285Y-113280952D01*
X117561904Y-113090476D01*
X117609523Y-112995238D01*
X117704761Y-112900000D01*
X117847619Y-112852380D01*
X117942857Y-112852380D01*
X118085714Y-112900000D01*
X118133333Y-112947619D01*
X118466666Y-112852380D02*
X119133333Y-112852380D01*
X118704761Y-113852380D01*
%TO.C,C16*%
X98457142Y-108357142D02*
X98409523Y-108404761D01*
X98266666Y-108452380D01*
X98171428Y-108452380D01*
X98028571Y-108404761D01*
X97933333Y-108309523D01*
X97885714Y-108214285D01*
X97838095Y-108023809D01*
X97838095Y-107880952D01*
X97885714Y-107690476D01*
X97933333Y-107595238D01*
X98028571Y-107500000D01*
X98171428Y-107452380D01*
X98266666Y-107452380D01*
X98409523Y-107500000D01*
X98457142Y-107547619D01*
X99409523Y-108452380D02*
X98838095Y-108452380D01*
X99123809Y-108452380D02*
X99123809Y-107452380D01*
X99028571Y-107595238D01*
X98933333Y-107690476D01*
X98838095Y-107738095D01*
X100266666Y-107452380D02*
X100076190Y-107452380D01*
X99980952Y-107500000D01*
X99933333Y-107547619D01*
X99838095Y-107690476D01*
X99790476Y-107880952D01*
X99790476Y-108261904D01*
X99838095Y-108357142D01*
X99885714Y-108404761D01*
X99980952Y-108452380D01*
X100171428Y-108452380D01*
X100266666Y-108404761D01*
X100314285Y-108357142D01*
X100361904Y-108261904D01*
X100361904Y-108023809D01*
X100314285Y-107928571D01*
X100266666Y-107880952D01*
X100171428Y-107833333D01*
X99980952Y-107833333D01*
X99885714Y-107880952D01*
X99838095Y-107928571D01*
X99790476Y-108023809D01*
%TO.C,C6*%
X114333333Y-112457142D02*
X114285714Y-112504761D01*
X114142857Y-112552380D01*
X114047619Y-112552380D01*
X113904761Y-112504761D01*
X113809523Y-112409523D01*
X113761904Y-112314285D01*
X113714285Y-112123809D01*
X113714285Y-111980952D01*
X113761904Y-111790476D01*
X113809523Y-111695238D01*
X113904761Y-111600000D01*
X114047619Y-111552380D01*
X114142857Y-111552380D01*
X114285714Y-111600000D01*
X114333333Y-111647619D01*
X115190476Y-111552380D02*
X115000000Y-111552380D01*
X114904761Y-111600000D01*
X114857142Y-111647619D01*
X114761904Y-111790476D01*
X114714285Y-111980952D01*
X114714285Y-112361904D01*
X114761904Y-112457142D01*
X114809523Y-112504761D01*
X114904761Y-112552380D01*
X115095238Y-112552380D01*
X115190476Y-112504761D01*
X115238095Y-112457142D01*
X115285714Y-112361904D01*
X115285714Y-112123809D01*
X115238095Y-112028571D01*
X115190476Y-111980952D01*
X115095238Y-111933333D01*
X114904761Y-111933333D01*
X114809523Y-111980952D01*
X114761904Y-112028571D01*
X114714285Y-112123809D01*
%TO.C,C14*%
X92757142Y-112542857D02*
X92804761Y-112590476D01*
X92852380Y-112733333D01*
X92852380Y-112828571D01*
X92804761Y-112971428D01*
X92709523Y-113066666D01*
X92614285Y-113114285D01*
X92423809Y-113161904D01*
X92280952Y-113161904D01*
X92090476Y-113114285D01*
X91995238Y-113066666D01*
X91900000Y-112971428D01*
X91852380Y-112828571D01*
X91852380Y-112733333D01*
X91900000Y-112590476D01*
X91947619Y-112542857D01*
X92852380Y-111590476D02*
X92852380Y-112161904D01*
X92852380Y-111876190D02*
X91852380Y-111876190D01*
X91995238Y-111971428D01*
X92090476Y-112066666D01*
X92138095Y-112161904D01*
X92185714Y-110733333D02*
X92852380Y-110733333D01*
X91804761Y-110971428D02*
X92519047Y-111209523D01*
X92519047Y-110590476D01*
%TO.C,C9*%
X125933333Y-110157142D02*
X125885714Y-110204761D01*
X125742857Y-110252380D01*
X125647619Y-110252380D01*
X125504761Y-110204761D01*
X125409523Y-110109523D01*
X125361904Y-110014285D01*
X125314285Y-109823809D01*
X125314285Y-109680952D01*
X125361904Y-109490476D01*
X125409523Y-109395238D01*
X125504761Y-109300000D01*
X125647619Y-109252380D01*
X125742857Y-109252380D01*
X125885714Y-109300000D01*
X125933333Y-109347619D01*
X126409523Y-110252380D02*
X126600000Y-110252380D01*
X126695238Y-110204761D01*
X126742857Y-110157142D01*
X126838095Y-110014285D01*
X126885714Y-109823809D01*
X126885714Y-109442857D01*
X126838095Y-109347619D01*
X126790476Y-109300000D01*
X126695238Y-109252380D01*
X126504761Y-109252380D01*
X126409523Y-109300000D01*
X126361904Y-109347619D01*
X126314285Y-109442857D01*
X126314285Y-109680952D01*
X126361904Y-109776190D01*
X126409523Y-109823809D01*
X126504761Y-109871428D01*
X126695238Y-109871428D01*
X126790476Y-109823809D01*
X126838095Y-109776190D01*
X126885714Y-109680952D01*
%TO.C,C3*%
X109233333Y-108557142D02*
X109185714Y-108604761D01*
X109042857Y-108652380D01*
X108947619Y-108652380D01*
X108804761Y-108604761D01*
X108709523Y-108509523D01*
X108661904Y-108414285D01*
X108614285Y-108223809D01*
X108614285Y-108080952D01*
X108661904Y-107890476D01*
X108709523Y-107795238D01*
X108804761Y-107700000D01*
X108947619Y-107652380D01*
X109042857Y-107652380D01*
X109185714Y-107700000D01*
X109233333Y-107747619D01*
X109566666Y-107652380D02*
X110185714Y-107652380D01*
X109852380Y-108033333D01*
X109995238Y-108033333D01*
X110090476Y-108080952D01*
X110138095Y-108128571D01*
X110185714Y-108223809D01*
X110185714Y-108461904D01*
X110138095Y-108557142D01*
X110090476Y-108604761D01*
X109995238Y-108652380D01*
X109709523Y-108652380D01*
X109614285Y-108604761D01*
X109566666Y-108557142D01*
%TO.C,U1*%
X123438095Y-105152380D02*
X123438095Y-105961904D01*
X123485714Y-106057142D01*
X123533333Y-106104761D01*
X123628571Y-106152380D01*
X123819047Y-106152380D01*
X123914285Y-106104761D01*
X123961904Y-106057142D01*
X124009523Y-105961904D01*
X124009523Y-105152380D01*
X125009523Y-106152380D02*
X124438095Y-106152380D01*
X124723809Y-106152380D02*
X124723809Y-105152380D01*
X124628571Y-105295238D01*
X124533333Y-105390476D01*
X124438095Y-105438095D01*
D13*
%TO.C,J2*%
X150600000Y-120682500D02*
X149270000Y-120682500D01*
X150600000Y-118082500D02*
X150600000Y-90082500D01*
X150600000Y-90082500D02*
X147940000Y-90082500D01*
X150600000Y-119352500D02*
X150600000Y-120682500D01*
X147940000Y-118082500D02*
X147940000Y-90082500D01*
X150600000Y-118082500D02*
X147940000Y-118082500D01*
%TO.C,C10*%
X98490000Y-103146267D02*
X98490000Y-102853733D01*
X99510000Y-103146267D02*
X99510000Y-102853733D01*
D14*
%TO.C,Y1*%
X112000000Y-91518400D02*
X112000000Y-91518400D01*
X112000000Y-91718400D02*
X112000000Y-91718400D01*
X112000000Y-91718400D02*
G75*
G03*
X112000000Y-91518400I0J100000D01*
G01*
X112000000Y-91518400D02*
G75*
G03*
X112000000Y-91718400I0J-100000D01*
G01*
D13*
%TO.C,C13*%
X113146267Y-90010000D02*
X112853733Y-90010000D01*
X113146267Y-88990000D02*
X112853733Y-88990000D01*
D14*
%TO.C,IC1*%
X95925000Y-104550000D02*
X95275000Y-104550000D01*
X95275000Y-101650000D02*
X95925000Y-101650000D01*
X95925000Y-101650000D02*
X95925000Y-104550000D01*
X95275000Y-104550000D02*
X95275000Y-101650000D01*
X93775000Y-101600000D02*
X94925000Y-101600000D01*
D13*
%TO.C,C11*%
X91890000Y-103346267D02*
X91890000Y-103053733D01*
X92910000Y-103346267D02*
X92910000Y-103053733D01*
%TO.C,C1*%
X111203400Y-104142733D02*
X111203400Y-104435267D01*
X112223400Y-104142733D02*
X112223400Y-104435267D01*
%TO.C,J3*%
X85968000Y-106210000D02*
X85968000Y-108810000D01*
X85968000Y-103610000D02*
X87298000Y-103610000D01*
X85968000Y-108810000D02*
X88628000Y-108810000D01*
X88628000Y-106210000D02*
X88628000Y-108810000D01*
X85968000Y-106210000D02*
X88628000Y-106210000D01*
X85968000Y-104940000D02*
X85968000Y-103610000D01*
%TO.C,C15*%
X91210000Y-108746267D02*
X91210000Y-108453733D01*
X90190000Y-108746267D02*
X90190000Y-108453733D01*
%TO.C,C2*%
X113210000Y-104408767D02*
X113210000Y-104116233D01*
X114230000Y-104408767D02*
X114230000Y-104116233D01*
%TO.C,C8*%
X120685733Y-111784000D02*
X120978267Y-111784000D01*
X120685733Y-110764000D02*
X120978267Y-110764000D01*
D14*
%TO.C,IC2*%
X95725000Y-112050000D02*
X95075000Y-112050000D01*
X95075000Y-112050000D02*
X95075000Y-109150000D01*
X95075000Y-109150000D02*
X95725000Y-109150000D01*
X95725000Y-109150000D02*
X95725000Y-112050000D01*
X93575000Y-109100000D02*
X94725000Y-109100000D01*
D13*
%TO.C,C5*%
X111910000Y-112053733D02*
X111910000Y-112346267D01*
X110890000Y-112053733D02*
X110890000Y-112346267D01*
%TO.C,C4*%
X112590000Y-108153733D02*
X112590000Y-108446267D01*
X113610000Y-108153733D02*
X113610000Y-108446267D01*
%TO.C,C12*%
X90190000Y-103346267D02*
X90190000Y-103053733D01*
X91210000Y-103346267D02*
X91210000Y-103053733D01*
%TO.C,C7*%
X120685733Y-113714400D02*
X120978267Y-113714400D01*
X120685733Y-112694400D02*
X120978267Y-112694400D01*
%TO.C,C16*%
X99110000Y-110646267D02*
X99110000Y-110353733D01*
X98090000Y-110646267D02*
X98090000Y-110353733D01*
%TO.C,C6*%
X116808000Y-111153133D02*
X116808000Y-111445667D01*
X115788000Y-111153133D02*
X115788000Y-111445667D01*
%TO.C,C14*%
X91990000Y-108746267D02*
X91990000Y-108453733D01*
X93010000Y-108746267D02*
X93010000Y-108453733D01*
%TO.C,J1*%
X115270000Y-129130000D02*
X115270000Y-126470000D01*
X112670000Y-129130000D02*
X112670000Y-127800000D01*
X115270000Y-126470000D02*
X122950000Y-126470000D01*
X115270000Y-129130000D02*
X122950000Y-129130000D01*
X114000000Y-129130000D02*
X112670000Y-129130000D01*
X122950000Y-129130000D02*
X122950000Y-126470000D01*
%TO.C,C9*%
X124517000Y-109603733D02*
X124517000Y-109896267D01*
X123497000Y-109603733D02*
X123497000Y-109896267D01*
%TO.C,C3*%
X111810000Y-108153733D02*
X111810000Y-108446267D01*
X110790000Y-108153733D02*
X110790000Y-108446267D01*
%TO.C,U1*%
X116665000Y-108550000D02*
X116190000Y-108550000D01*
X121410000Y-108550000D02*
X121410000Y-108075000D01*
X120935000Y-108550000D02*
X121410000Y-108550000D01*
X116190000Y-108550000D02*
X116190000Y-108075000D01*
X120935000Y-103330000D02*
X121410000Y-103330000D01*
X121410000Y-103330000D02*
X121410000Y-103805000D01*
X116665000Y-103330000D02*
X116190000Y-103330000D01*
%TD*%
M02*
