M48
; DRILL file {KiCad (6.0.10)} date Mon Mar  6 12:11:44 2023
; FORMAT={-:-/ absolute / inch / decimal}
; #@! TF.CreationDate,2023-03-06T12:11:44-08:00
; #@! TF.GenerationSoftware,Kicad,Pcbnew,(6.0.10)
; #@! TF.FileFunction,Plated,1,2,PTH
FMAT,2
INCH
; #@! TA.AperFunction,Plated,PTH,ViaDrill
T1C0.0157
; #@! TA.AperFunction,Plated,PTH,ComponentDrill
T2C0.0394
%
G90
G05
T1
X2.2982Y-3.154
X2.3904Y-4.6121
X2.7257Y-3.3157
X3.07Y-3.19
X3.0709Y-3.9809
X3.21Y-3.6
X3.2799Y-3.8001
X3.2918Y-3.8681
X3.2978Y-3.5141
X3.4Y-4.2
X3.4528Y-3.6614
X3.4605Y-3.8551
X3.4803Y-3.7165
X3.54Y-3.5218
X3.622Y-3.7874
X3.69Y-4.09
X3.72Y-3.64
X3.75Y-4.13
X3.77Y-3.71
X3.8421Y-3.7179
X3.9392Y-4.161
T2
X2.0118Y-3.6654
X2.0118Y-3.7654
X3.4504Y-5.17
X3.5504Y-5.17
X3.6504Y-5.17
X3.7504Y-5.17
X4.89Y-3.5202
X4.89Y-3.6202
X4.89Y-3.7202
X4.89Y-3.8202
X4.89Y-3.9202
X4.89Y-4.0202
X4.89Y-4.1202
X4.89Y-4.2202
X4.89Y-4.3202
X4.89Y-4.4202
X4.89Y-4.5202
X4.89Y-4.6202
T0
M30
