%TF.GenerationSoftware,KiCad,Pcbnew,(6.0.10)*%
%TF.CreationDate,2023-03-06T12:11:40-08:00*%
%TF.ProjectId,PCM5242,50434d35-3234-4322-9e6b-696361645f70,rev?*%
%TF.SameCoordinates,Original*%
%TF.FileFunction,Legend,Bot*%
%TF.FilePolarity,Positive*%
%FSLAX46Y46*%
G04 Gerber Fmt 4.6, Leading zero omitted, Abs format (unit mm)*
G04 Created by KiCad (PCBNEW (6.0.10)) date 2023-03-06 12:11:40*
%MOMM*%
%LPD*%
G01*
G04 APERTURE LIST*
%ADD10C,0.150000*%
G04 APERTURE END LIST*
D10*
X55943333Y-95210380D02*
X55610000Y-96210380D01*
X55276666Y-95210380D01*
X54371904Y-96115142D02*
X54419523Y-96162761D01*
X54562380Y-96210380D01*
X54657619Y-96210380D01*
X54800476Y-96162761D01*
X54895714Y-96067523D01*
X54943333Y-95972285D01*
X54990952Y-95781809D01*
X54990952Y-95638952D01*
X54943333Y-95448476D01*
X54895714Y-95353238D01*
X54800476Y-95258000D01*
X54657619Y-95210380D01*
X54562380Y-95210380D01*
X54419523Y-95258000D01*
X54371904Y-95305619D01*
X53371904Y-96115142D02*
X53419523Y-96162761D01*
X53562380Y-96210380D01*
X53657619Y-96210380D01*
X53800476Y-96162761D01*
X53895714Y-96067523D01*
X53943333Y-95972285D01*
X53990952Y-95781809D01*
X53990952Y-95638952D01*
X53943333Y-95448476D01*
X53895714Y-95353238D01*
X53800476Y-95258000D01*
X53657619Y-95210380D01*
X53562380Y-95210380D01*
X53419523Y-95258000D01*
X53371904Y-95305619D01*
X56308476Y-92464000D02*
X56403714Y-92416380D01*
X56546571Y-92416380D01*
X56689428Y-92464000D01*
X56784666Y-92559238D01*
X56832285Y-92654476D01*
X56879904Y-92844952D01*
X56879904Y-92987809D01*
X56832285Y-93178285D01*
X56784666Y-93273523D01*
X56689428Y-93368761D01*
X56546571Y-93416380D01*
X56451333Y-93416380D01*
X56308476Y-93368761D01*
X56260857Y-93321142D01*
X56260857Y-92987809D01*
X56451333Y-92987809D01*
X55832285Y-93416380D02*
X55832285Y-92416380D01*
X55260857Y-93416380D01*
X55260857Y-92416380D01*
X54784666Y-93416380D02*
X54784666Y-92416380D01*
X54546571Y-92416380D01*
X54403714Y-92464000D01*
X54308476Y-92559238D01*
X54260857Y-92654476D01*
X54213238Y-92844952D01*
X54213238Y-92987809D01*
X54260857Y-93178285D01*
X54308476Y-93273523D01*
X54403714Y-93368761D01*
X54546571Y-93416380D01*
X54784666Y-93416380D01*
X53832285Y-93130666D02*
X53356095Y-93130666D01*
X53927523Y-93416380D02*
X53594190Y-92416380D01*
X53260857Y-93416380D01*
X121657904Y-116848000D02*
X121753142Y-116800380D01*
X121896000Y-116800380D01*
X122038857Y-116848000D01*
X122134095Y-116943238D01*
X122181714Y-117038476D01*
X122229333Y-117228952D01*
X122229333Y-117371809D01*
X122181714Y-117562285D01*
X122134095Y-117657523D01*
X122038857Y-117752761D01*
X121896000Y-117800380D01*
X121800761Y-117800380D01*
X121657904Y-117752761D01*
X121610285Y-117705142D01*
X121610285Y-117371809D01*
X121800761Y-117371809D01*
X121181714Y-117800380D02*
X121181714Y-116800380D01*
X120610285Y-117800380D01*
X120610285Y-116800380D01*
X120134095Y-117800380D02*
X120134095Y-116800380D01*
X119896000Y-116800380D01*
X119753142Y-116848000D01*
X119657904Y-116943238D01*
X119610285Y-117038476D01*
X119562666Y-117228952D01*
X119562666Y-117371809D01*
X119610285Y-117562285D01*
X119657904Y-117657523D01*
X119753142Y-117752761D01*
X119896000Y-117800380D01*
X120134095Y-117800380D01*
X119134095Y-117800380D02*
X119134095Y-116800380D01*
X118896000Y-116800380D01*
X118753142Y-116848000D01*
X118657904Y-116943238D01*
X118610285Y-117038476D01*
X118562666Y-117228952D01*
X118562666Y-117371809D01*
X118610285Y-117562285D01*
X118657904Y-117657523D01*
X118753142Y-117752761D01*
X118896000Y-117800380D01*
X119134095Y-117800380D01*
X121856285Y-89574666D02*
X121380095Y-89574666D01*
X121951523Y-89860380D02*
X121618190Y-88860380D01*
X121284857Y-89860380D01*
X120951523Y-89860380D02*
X120951523Y-88860380D01*
X120713428Y-88860380D01*
X120570571Y-88908000D01*
X120475333Y-89003238D01*
X120427714Y-89098476D01*
X120380095Y-89288952D01*
X120380095Y-89431809D01*
X120427714Y-89622285D01*
X120475333Y-89717523D01*
X120570571Y-89812761D01*
X120713428Y-89860380D01*
X120951523Y-89860380D01*
X119380095Y-89860380D02*
X119713428Y-89384190D01*
X119951523Y-89860380D02*
X119951523Y-88860380D01*
X119570571Y-88860380D01*
X119475333Y-88908000D01*
X119427714Y-88955619D01*
X119380095Y-89050857D01*
X119380095Y-89193714D01*
X119427714Y-89288952D01*
X119475333Y-89336571D01*
X119570571Y-89384190D01*
X119951523Y-89384190D01*
X118427714Y-89860380D02*
X118999142Y-89860380D01*
X118713428Y-89860380D02*
X118713428Y-88860380D01*
X118808666Y-89003238D01*
X118903904Y-89098476D01*
X118999142Y-89146095D01*
X121340476Y-92400380D02*
X121816666Y-92400380D01*
X121816666Y-91400380D01*
X120435714Y-92400380D02*
X120769047Y-91924190D01*
X121007142Y-92400380D02*
X121007142Y-91400380D01*
X120626190Y-91400380D01*
X120530952Y-91448000D01*
X120483333Y-91495619D01*
X120435714Y-91590857D01*
X120435714Y-91733714D01*
X120483333Y-91828952D01*
X120530952Y-91876571D01*
X120626190Y-91924190D01*
X121007142Y-91924190D01*
X120007142Y-92400380D02*
X120007142Y-91400380D01*
X119435714Y-92400380D02*
X119864285Y-91828952D01*
X119435714Y-91400380D02*
X120007142Y-91971809D01*
X121927809Y-95194380D02*
X121927809Y-94194380D01*
X121689714Y-94194380D01*
X121546857Y-94242000D01*
X121451619Y-94337238D01*
X121404000Y-94432476D01*
X121356380Y-94622952D01*
X121356380Y-94765809D01*
X121404000Y-94956285D01*
X121451619Y-95051523D01*
X121546857Y-95146761D01*
X121689714Y-95194380D01*
X121927809Y-95194380D01*
X120927809Y-95194380D02*
X120927809Y-94194380D01*
X120451619Y-95194380D02*
X120451619Y-94194380D01*
X119880190Y-95194380D01*
X119880190Y-94194380D01*
X121578571Y-97210571D02*
X121435714Y-97258190D01*
X121388095Y-97305809D01*
X121340476Y-97401047D01*
X121340476Y-97543904D01*
X121388095Y-97639142D01*
X121435714Y-97686761D01*
X121530952Y-97734380D01*
X121911904Y-97734380D01*
X121911904Y-96734380D01*
X121578571Y-96734380D01*
X121483333Y-96782000D01*
X121435714Y-96829619D01*
X121388095Y-96924857D01*
X121388095Y-97020095D01*
X121435714Y-97115333D01*
X121483333Y-97162952D01*
X121578571Y-97210571D01*
X121911904Y-97210571D01*
X120340476Y-97639142D02*
X120388095Y-97686761D01*
X120530952Y-97734380D01*
X120626190Y-97734380D01*
X120769047Y-97686761D01*
X120864285Y-97591523D01*
X120911904Y-97496285D01*
X120959523Y-97305809D01*
X120959523Y-97162952D01*
X120911904Y-96972476D01*
X120864285Y-96877238D01*
X120769047Y-96782000D01*
X120626190Y-96734380D01*
X120530952Y-96734380D01*
X120388095Y-96782000D01*
X120340476Y-96829619D01*
X119911904Y-97734380D02*
X119911904Y-96734380D01*
X119340476Y-97734380D02*
X119769047Y-97162952D01*
X119340476Y-96734380D02*
X119911904Y-97305809D01*
X121618190Y-99068000D02*
X121713428Y-99020380D01*
X121856285Y-99020380D01*
X121999142Y-99068000D01*
X122094380Y-99163238D01*
X122142000Y-99258476D01*
X122189619Y-99448952D01*
X122189619Y-99591809D01*
X122142000Y-99782285D01*
X122094380Y-99877523D01*
X121999142Y-99972761D01*
X121856285Y-100020380D01*
X121761047Y-100020380D01*
X121618190Y-99972761D01*
X121570571Y-99925142D01*
X121570571Y-99591809D01*
X121761047Y-99591809D01*
X121142000Y-100020380D02*
X121142000Y-99020380D01*
X120761047Y-99020380D01*
X120665809Y-99068000D01*
X120618190Y-99115619D01*
X120570571Y-99210857D01*
X120570571Y-99353714D01*
X120618190Y-99448952D01*
X120665809Y-99496571D01*
X120761047Y-99544190D01*
X121142000Y-99544190D01*
X120142000Y-100020380D02*
X120142000Y-99020380D01*
X119475333Y-99020380D02*
X119284857Y-99020380D01*
X119189619Y-99068000D01*
X119094380Y-99163238D01*
X119046761Y-99353714D01*
X119046761Y-99687047D01*
X119094380Y-99877523D01*
X119189619Y-99972761D01*
X119284857Y-100020380D01*
X119475333Y-100020380D01*
X119570571Y-99972761D01*
X119665809Y-99877523D01*
X119713428Y-99687047D01*
X119713428Y-99353714D01*
X119665809Y-99163238D01*
X119570571Y-99068000D01*
X119475333Y-99020380D01*
X118189619Y-99020380D02*
X118380095Y-99020380D01*
X118475333Y-99068000D01*
X118522952Y-99115619D01*
X118618190Y-99258476D01*
X118665809Y-99448952D01*
X118665809Y-99829904D01*
X118618190Y-99925142D01*
X118570571Y-99972761D01*
X118475333Y-100020380D01*
X118284857Y-100020380D01*
X118189619Y-99972761D01*
X118142000Y-99925142D01*
X118094380Y-99829904D01*
X118094380Y-99591809D01*
X118142000Y-99496571D01*
X118189619Y-99448952D01*
X118284857Y-99401333D01*
X118475333Y-99401333D01*
X118570571Y-99448952D01*
X118618190Y-99496571D01*
X118665809Y-99591809D01*
X122110285Y-102274666D02*
X121634095Y-102274666D01*
X122205523Y-102560380D02*
X121872190Y-101560380D01*
X121538857Y-102560380D01*
X121205523Y-102560380D02*
X121205523Y-101560380D01*
X120967428Y-101560380D01*
X120824571Y-101608000D01*
X120729333Y-101703238D01*
X120681714Y-101798476D01*
X120634095Y-101988952D01*
X120634095Y-102131809D01*
X120681714Y-102322285D01*
X120729333Y-102417523D01*
X120824571Y-102512761D01*
X120967428Y-102560380D01*
X121205523Y-102560380D01*
X119634095Y-102560380D02*
X119967428Y-102084190D01*
X120205523Y-102560380D02*
X120205523Y-101560380D01*
X119824571Y-101560380D01*
X119729333Y-101608000D01*
X119681714Y-101655619D01*
X119634095Y-101750857D01*
X119634095Y-101893714D01*
X119681714Y-101988952D01*
X119729333Y-102036571D01*
X119824571Y-102084190D01*
X120205523Y-102084190D01*
X119253142Y-101655619D02*
X119205523Y-101608000D01*
X119110285Y-101560380D01*
X118872190Y-101560380D01*
X118776952Y-101608000D01*
X118729333Y-101655619D01*
X118681714Y-101750857D01*
X118681714Y-101846095D01*
X118729333Y-101988952D01*
X119300761Y-102560380D01*
X118681714Y-102560380D01*
X121618190Y-104402000D02*
X121713428Y-104354380D01*
X121856285Y-104354380D01*
X121999142Y-104402000D01*
X122094380Y-104497238D01*
X122142000Y-104592476D01*
X122189619Y-104782952D01*
X122189619Y-104925809D01*
X122142000Y-105116285D01*
X122094380Y-105211523D01*
X121999142Y-105306761D01*
X121856285Y-105354380D01*
X121761047Y-105354380D01*
X121618190Y-105306761D01*
X121570571Y-105259142D01*
X121570571Y-104925809D01*
X121761047Y-104925809D01*
X121142000Y-105354380D02*
X121142000Y-104354380D01*
X120761047Y-104354380D01*
X120665809Y-104402000D01*
X120618190Y-104449619D01*
X120570571Y-104544857D01*
X120570571Y-104687714D01*
X120618190Y-104782952D01*
X120665809Y-104830571D01*
X120761047Y-104878190D01*
X121142000Y-104878190D01*
X120142000Y-105354380D02*
X120142000Y-104354380D01*
X119475333Y-104354380D02*
X119284857Y-104354380D01*
X119189619Y-104402000D01*
X119094380Y-104497238D01*
X119046761Y-104687714D01*
X119046761Y-105021047D01*
X119094380Y-105211523D01*
X119189619Y-105306761D01*
X119284857Y-105354380D01*
X119475333Y-105354380D01*
X119570571Y-105306761D01*
X119665809Y-105211523D01*
X119713428Y-105021047D01*
X119713428Y-104687714D01*
X119665809Y-104497238D01*
X119570571Y-104402000D01*
X119475333Y-104354380D01*
X118713428Y-104354380D02*
X118094380Y-104354380D01*
X118427714Y-104735333D01*
X118284857Y-104735333D01*
X118189619Y-104782952D01*
X118142000Y-104830571D01*
X118094380Y-104925809D01*
X118094380Y-105163904D01*
X118142000Y-105259142D01*
X118189619Y-105306761D01*
X118284857Y-105354380D01*
X118570571Y-105354380D01*
X118665809Y-105306761D01*
X118713428Y-105259142D01*
X121618190Y-106942000D02*
X121713428Y-106894380D01*
X121856285Y-106894380D01*
X121999142Y-106942000D01*
X122094380Y-107037238D01*
X122142000Y-107132476D01*
X122189619Y-107322952D01*
X122189619Y-107465809D01*
X122142000Y-107656285D01*
X122094380Y-107751523D01*
X121999142Y-107846761D01*
X121856285Y-107894380D01*
X121761047Y-107894380D01*
X121618190Y-107846761D01*
X121570571Y-107799142D01*
X121570571Y-107465809D01*
X121761047Y-107465809D01*
X121142000Y-107894380D02*
X121142000Y-106894380D01*
X120761047Y-106894380D01*
X120665809Y-106942000D01*
X120618190Y-106989619D01*
X120570571Y-107084857D01*
X120570571Y-107227714D01*
X120618190Y-107322952D01*
X120665809Y-107370571D01*
X120761047Y-107418190D01*
X121142000Y-107418190D01*
X120142000Y-107894380D02*
X120142000Y-106894380D01*
X119475333Y-106894380D02*
X119284857Y-106894380D01*
X119189619Y-106942000D01*
X119094380Y-107037238D01*
X119046761Y-107227714D01*
X119046761Y-107561047D01*
X119094380Y-107751523D01*
X119189619Y-107846761D01*
X119284857Y-107894380D01*
X119475333Y-107894380D01*
X119570571Y-107846761D01*
X119665809Y-107751523D01*
X119713428Y-107561047D01*
X119713428Y-107227714D01*
X119665809Y-107037238D01*
X119570571Y-106942000D01*
X119475333Y-106894380D01*
X118189619Y-107227714D02*
X118189619Y-107894380D01*
X118427714Y-106846761D02*
X118665809Y-107561047D01*
X118046761Y-107561047D01*
X121618190Y-109228000D02*
X121713428Y-109180380D01*
X121856285Y-109180380D01*
X121999142Y-109228000D01*
X122094380Y-109323238D01*
X122142000Y-109418476D01*
X122189619Y-109608952D01*
X122189619Y-109751809D01*
X122142000Y-109942285D01*
X122094380Y-110037523D01*
X121999142Y-110132761D01*
X121856285Y-110180380D01*
X121761047Y-110180380D01*
X121618190Y-110132761D01*
X121570571Y-110085142D01*
X121570571Y-109751809D01*
X121761047Y-109751809D01*
X121142000Y-110180380D02*
X121142000Y-109180380D01*
X120761047Y-109180380D01*
X120665809Y-109228000D01*
X120618190Y-109275619D01*
X120570571Y-109370857D01*
X120570571Y-109513714D01*
X120618190Y-109608952D01*
X120665809Y-109656571D01*
X120761047Y-109704190D01*
X121142000Y-109704190D01*
X120142000Y-110180380D02*
X120142000Y-109180380D01*
X119475333Y-109180380D02*
X119284857Y-109180380D01*
X119189619Y-109228000D01*
X119094380Y-109323238D01*
X119046761Y-109513714D01*
X119046761Y-109847047D01*
X119094380Y-110037523D01*
X119189619Y-110132761D01*
X119284857Y-110180380D01*
X119475333Y-110180380D01*
X119570571Y-110132761D01*
X119665809Y-110037523D01*
X119713428Y-109847047D01*
X119713428Y-109513714D01*
X119665809Y-109323238D01*
X119570571Y-109228000D01*
X119475333Y-109180380D01*
X118142000Y-109180380D02*
X118618190Y-109180380D01*
X118665809Y-109656571D01*
X118618190Y-109608952D01*
X118522952Y-109561333D01*
X118284857Y-109561333D01*
X118189619Y-109608952D01*
X118142000Y-109656571D01*
X118094380Y-109751809D01*
X118094380Y-109989904D01*
X118142000Y-110085142D01*
X118189619Y-110132761D01*
X118284857Y-110180380D01*
X118522952Y-110180380D01*
X118618190Y-110132761D01*
X118665809Y-110085142D01*
X121078476Y-112672761D02*
X120935619Y-112720380D01*
X120697523Y-112720380D01*
X120602285Y-112672761D01*
X120554666Y-112625142D01*
X120507047Y-112529904D01*
X120507047Y-112434666D01*
X120554666Y-112339428D01*
X120602285Y-112291809D01*
X120697523Y-112244190D01*
X120888000Y-112196571D01*
X120983238Y-112148952D01*
X121030857Y-112101333D01*
X121078476Y-112006095D01*
X121078476Y-111910857D01*
X121030857Y-111815619D01*
X120983238Y-111768000D01*
X120888000Y-111720380D01*
X120649904Y-111720380D01*
X120507047Y-111768000D01*
X119507047Y-112625142D02*
X119554666Y-112672761D01*
X119697523Y-112720380D01*
X119792761Y-112720380D01*
X119935619Y-112672761D01*
X120030857Y-112577523D01*
X120078476Y-112482285D01*
X120126095Y-112291809D01*
X120126095Y-112148952D01*
X120078476Y-111958476D01*
X120030857Y-111863238D01*
X119935619Y-111768000D01*
X119792761Y-111720380D01*
X119697523Y-111720380D01*
X119554666Y-111768000D01*
X119507047Y-111815619D01*
X118602285Y-112720380D02*
X119078476Y-112720380D01*
X119078476Y-111720380D01*
X121102285Y-115212761D02*
X120959428Y-115260380D01*
X120721333Y-115260380D01*
X120626095Y-115212761D01*
X120578476Y-115165142D01*
X120530857Y-115069904D01*
X120530857Y-114974666D01*
X120578476Y-114879428D01*
X120626095Y-114831809D01*
X120721333Y-114784190D01*
X120911809Y-114736571D01*
X121007047Y-114688952D01*
X121054666Y-114641333D01*
X121102285Y-114546095D01*
X121102285Y-114450857D01*
X121054666Y-114355619D01*
X121007047Y-114308000D01*
X120911809Y-114260380D01*
X120673714Y-114260380D01*
X120530857Y-114308000D01*
X120102285Y-115260380D02*
X120102285Y-114260380D01*
X119864190Y-114260380D01*
X119721333Y-114308000D01*
X119626095Y-114403238D01*
X119578476Y-114498476D01*
X119530857Y-114688952D01*
X119530857Y-114831809D01*
X119578476Y-115022285D01*
X119626095Y-115117523D01*
X119721333Y-115212761D01*
X119864190Y-115260380D01*
X120102285Y-115260380D01*
X119149904Y-114974666D02*
X118673714Y-114974666D01*
X119245142Y-115260380D02*
X118911809Y-114260380D01*
X118578476Y-115260380D01*
X94702380Y-128746000D02*
X94702380Y-128555523D01*
X94750000Y-128460285D01*
X94845238Y-128365047D01*
X95035714Y-128317428D01*
X95369047Y-128317428D01*
X95559523Y-128365047D01*
X95654761Y-128460285D01*
X95702380Y-128555523D01*
X95702380Y-128746000D01*
X95654761Y-128841238D01*
X95559523Y-128936476D01*
X95369047Y-128984095D01*
X95035714Y-128984095D01*
X94845238Y-128936476D01*
X94750000Y-128841238D01*
X94702380Y-128746000D01*
X94702380Y-127888857D02*
X95511904Y-127888857D01*
X95607142Y-127841238D01*
X95654761Y-127793619D01*
X95702380Y-127698380D01*
X95702380Y-127507904D01*
X95654761Y-127412666D01*
X95607142Y-127365047D01*
X95511904Y-127317428D01*
X94702380Y-127317428D01*
X94702380Y-126984095D02*
X94702380Y-126412666D01*
X95702380Y-126698380D02*
X94702380Y-126698380D01*
X95702380Y-125507904D02*
X95226190Y-125841238D01*
X95702380Y-126079333D02*
X94702380Y-126079333D01*
X94702380Y-125698380D01*
X94750000Y-125603142D01*
X94797619Y-125555523D01*
X94892857Y-125507904D01*
X95035714Y-125507904D01*
X95130952Y-125555523D01*
X95178571Y-125603142D01*
X95226190Y-125698380D01*
X95226190Y-126079333D01*
X95702380Y-125079333D02*
X94702380Y-125079333D01*
X94702380Y-124698380D01*
X94750000Y-124603142D01*
X94797619Y-124555523D01*
X94892857Y-124507904D01*
X95035714Y-124507904D01*
X95130952Y-124555523D01*
X95178571Y-124603142D01*
X95226190Y-124698380D01*
X95226190Y-125079333D01*
X92162380Y-128769809D02*
X92162380Y-128579333D01*
X92210000Y-128484095D01*
X92305238Y-128388857D01*
X92495714Y-128341238D01*
X92829047Y-128341238D01*
X93019523Y-128388857D01*
X93114761Y-128484095D01*
X93162380Y-128579333D01*
X93162380Y-128769809D01*
X93114761Y-128865047D01*
X93019523Y-128960285D01*
X92829047Y-129007904D01*
X92495714Y-129007904D01*
X92305238Y-128960285D01*
X92210000Y-128865047D01*
X92162380Y-128769809D01*
X92162380Y-127912666D02*
X92971904Y-127912666D01*
X93067142Y-127865047D01*
X93114761Y-127817428D01*
X93162380Y-127722190D01*
X93162380Y-127531714D01*
X93114761Y-127436476D01*
X93067142Y-127388857D01*
X92971904Y-127341238D01*
X92162380Y-127341238D01*
X92162380Y-127007904D02*
X92162380Y-126436476D01*
X93162380Y-126722190D02*
X92162380Y-126722190D01*
X93162380Y-125531714D02*
X92686190Y-125865047D01*
X93162380Y-126103142D02*
X92162380Y-126103142D01*
X92162380Y-125722190D01*
X92210000Y-125626952D01*
X92257619Y-125579333D01*
X92352857Y-125531714D01*
X92495714Y-125531714D01*
X92590952Y-125579333D01*
X92638571Y-125626952D01*
X92686190Y-125722190D01*
X92686190Y-126103142D01*
X93162380Y-125103142D02*
X92162380Y-125103142D01*
X93162380Y-124531714D01*
X92162380Y-124531714D01*
X89622380Y-128674571D02*
X89622380Y-128484095D01*
X89670000Y-128388857D01*
X89765238Y-128293619D01*
X89955714Y-128246000D01*
X90289047Y-128246000D01*
X90479523Y-128293619D01*
X90574761Y-128388857D01*
X90622380Y-128484095D01*
X90622380Y-128674571D01*
X90574761Y-128769809D01*
X90479523Y-128865047D01*
X90289047Y-128912666D01*
X89955714Y-128912666D01*
X89765238Y-128865047D01*
X89670000Y-128769809D01*
X89622380Y-128674571D01*
X89622380Y-127817428D02*
X90431904Y-127817428D01*
X90527142Y-127769809D01*
X90574761Y-127722190D01*
X90622380Y-127626952D01*
X90622380Y-127436476D01*
X90574761Y-127341238D01*
X90527142Y-127293619D01*
X90431904Y-127246000D01*
X89622380Y-127246000D01*
X89622380Y-126912666D02*
X89622380Y-126341238D01*
X90622380Y-126626952D02*
X89622380Y-126626952D01*
X90622380Y-125531714D02*
X90622380Y-126007904D01*
X89622380Y-126007904D01*
X90622380Y-125198380D02*
X89622380Y-125198380D01*
X90622380Y-124626952D01*
X89622380Y-124626952D01*
X87082380Y-128650761D02*
X87082380Y-128460285D01*
X87130000Y-128365047D01*
X87225238Y-128269809D01*
X87415714Y-128222190D01*
X87749047Y-128222190D01*
X87939523Y-128269809D01*
X88034761Y-128365047D01*
X88082380Y-128460285D01*
X88082380Y-128650761D01*
X88034761Y-128746000D01*
X87939523Y-128841238D01*
X87749047Y-128888857D01*
X87415714Y-128888857D01*
X87225238Y-128841238D01*
X87130000Y-128746000D01*
X87082380Y-128650761D01*
X87082380Y-127793619D02*
X87891904Y-127793619D01*
X87987142Y-127746000D01*
X88034761Y-127698380D01*
X88082380Y-127603142D01*
X88082380Y-127412666D01*
X88034761Y-127317428D01*
X87987142Y-127269809D01*
X87891904Y-127222190D01*
X87082380Y-127222190D01*
X87082380Y-126888857D02*
X87082380Y-126317428D01*
X88082380Y-126603142D02*
X87082380Y-126603142D01*
X88082380Y-125507904D02*
X88082380Y-125984095D01*
X87082380Y-125984095D01*
X88082380Y-125174571D02*
X87082380Y-125174571D01*
X87082380Y-124793619D01*
X87130000Y-124698380D01*
X87177619Y-124650761D01*
X87272857Y-124603142D01*
X87415714Y-124603142D01*
X87510952Y-124650761D01*
X87558571Y-124698380D01*
X87606190Y-124793619D01*
X87606190Y-125174571D01*
M02*
