%TF.GenerationSoftware,KiCad,Pcbnew,(6.0.10)*%
%TF.CreationDate,2023-04-10T11:55:32-07:00*%
%TF.ProjectId,PCM5242,50434d35-3234-4322-9e6b-696361645f70,rev?*%
%TF.SameCoordinates,Original*%
%TF.FileFunction,Paste,Top*%
%TF.FilePolarity,Positive*%
%FSLAX46Y46*%
G04 Gerber Fmt 4.6, Leading zero omitted, Abs format (unit mm)*
G04 Created by KiCad (PCBNEW (6.0.10)) date 2023-04-10 11:55:32*
%MOMM*%
%LPD*%
G01*
G04 APERTURE LIST*
G04 Aperture macros list*
%AMRoundRect*
0 Rectangle with rounded corners*
0 $1 Rounding radius*
0 $2 $3 $4 $5 $6 $7 $8 $9 X,Y pos of 4 corners*
0 Add a 4 corners polygon primitive as box body*
4,1,4,$2,$3,$4,$5,$6,$7,$8,$9,$2,$3,0*
0 Add four circle primitives for the rounded corners*
1,1,$1+$1,$2,$3*
1,1,$1+$1,$4,$5*
1,1,$1+$1,$6,$7*
1,1,$1+$1,$8,$9*
0 Add four rect primitives between the rounded corners*
20,1,$1+$1,$2,$3,$4,$5,0*
20,1,$1+$1,$4,$5,$6,$7,0*
20,1,$1+$1,$6,$7,$8,$9,0*
20,1,$1+$1,$8,$9,$2,$3,0*%
G04 Aperture macros list end*
%ADD10RoundRect,0.187500X0.237500X-0.300000X0.237500X0.300000X-0.237500X0.300000X-0.237500X-0.300000X0*%
%ADD11R,1.000000X1.200000*%
%ADD12RoundRect,0.187500X0.300000X0.237500X-0.300000X0.237500X-0.300000X-0.237500X0.300000X-0.237500X0*%
%ADD13R,1.050000X0.500000*%
%ADD14RoundRect,0.187500X-0.237500X0.300000X-0.237500X-0.300000X0.237500X-0.300000X0.237500X0.300000X0*%
%ADD15RoundRect,0.187500X-0.300000X-0.237500X0.300000X-0.237500X0.300000X0.237500X-0.300000X0.237500X0*%
%ADD16RoundRect,0.207500X-0.207500X-0.207500X0.207500X-0.207500X0.207500X0.207500X-0.207500X0.207500X0*%
%ADD17RoundRect,0.012500X-0.375000X-0.062500X0.375000X-0.062500X0.375000X0.062500X-0.375000X0.062500X0*%
%ADD18RoundRect,0.012500X-0.062500X-0.375000X0.062500X-0.375000X0.062500X0.375000X-0.062500X0.375000X0*%
G04 APERTURE END LIST*
D10*
%TO.C,C10*%
X99000000Y-103862500D03*
X99000000Y-102137500D03*
%TD*%
D11*
%TO.C,Y1*%
X112175000Y-92668400D03*
X112175000Y-94768400D03*
X113825000Y-94768400D03*
X113825000Y-92668400D03*
%TD*%
D12*
%TO.C,C13*%
X113862500Y-89500000D03*
X112137500Y-89500000D03*
%TD*%
D13*
%TO.C,IC1*%
X94350000Y-102150000D03*
X94350000Y-103100000D03*
X94350000Y-104050000D03*
X96850000Y-104050000D03*
X96850000Y-102150000D03*
%TD*%
D10*
%TO.C,C11*%
X92400000Y-104062500D03*
X92400000Y-102337500D03*
%TD*%
D14*
%TO.C,C1*%
X111713400Y-103426500D03*
X111713400Y-105151500D03*
%TD*%
D10*
%TO.C,C15*%
X90700000Y-109462500D03*
X90700000Y-107737500D03*
%TD*%
%TO.C,C2*%
X113720000Y-105125000D03*
X113720000Y-103400000D03*
%TD*%
D15*
%TO.C,C8*%
X119969500Y-111274000D03*
X121694500Y-111274000D03*
%TD*%
D13*
%TO.C,IC2*%
X96650000Y-109650000D03*
X96650000Y-111550000D03*
X94150000Y-111550000D03*
X94150000Y-110600000D03*
X94150000Y-109650000D03*
%TD*%
D14*
%TO.C,C5*%
X111400000Y-111337500D03*
X111400000Y-113062500D03*
%TD*%
%TO.C,C4*%
X113100000Y-107437500D03*
X113100000Y-109162500D03*
%TD*%
D10*
%TO.C,C12*%
X90700000Y-104062500D03*
X90700000Y-102337500D03*
%TD*%
D15*
%TO.C,C7*%
X119969500Y-113204400D03*
X121694500Y-113204400D03*
%TD*%
D10*
%TO.C,C16*%
X98600000Y-111362500D03*
X98600000Y-109637500D03*
%TD*%
D14*
%TO.C,C6*%
X116298000Y-110436900D03*
X116298000Y-112161900D03*
%TD*%
D10*
%TO.C,C14*%
X92500000Y-109462500D03*
X92500000Y-107737500D03*
%TD*%
D14*
%TO.C,C9*%
X124007000Y-108887500D03*
X124007000Y-110612500D03*
%TD*%
%TO.C,C3*%
X111300000Y-107437500D03*
X111300000Y-109162500D03*
%TD*%
D16*
%TO.C,U1*%
X118800000Y-106970000D03*
X117770000Y-105940000D03*
X117770000Y-104910000D03*
X118800000Y-104910000D03*
X119830000Y-104910000D03*
X118800000Y-105940000D03*
X117770000Y-106970000D03*
X119830000Y-106970000D03*
X119830000Y-105940000D03*
D17*
X116362500Y-104190000D03*
X116362500Y-104690000D03*
X116362500Y-105190000D03*
X116362500Y-105690000D03*
X116362500Y-106190000D03*
X116362500Y-106690000D03*
X116362500Y-107190000D03*
X116362500Y-107690000D03*
D18*
X117050000Y-108377500D03*
X117550000Y-108377500D03*
X118050000Y-108377500D03*
X118550000Y-108377500D03*
X119050000Y-108377500D03*
X119550000Y-108377500D03*
X120050000Y-108377500D03*
X120550000Y-108377500D03*
D17*
X121237500Y-107690000D03*
X121237500Y-107190000D03*
X121237500Y-106690000D03*
X121237500Y-106190000D03*
X121237500Y-105690000D03*
X121237500Y-105190000D03*
X121237500Y-104690000D03*
X121237500Y-104190000D03*
D18*
X120550000Y-103502500D03*
X120050000Y-103502500D03*
X119550000Y-103502500D03*
X119050000Y-103502500D03*
X118550000Y-103502500D03*
X118050000Y-103502500D03*
X117550000Y-103502500D03*
X117050000Y-103502500D03*
%TD*%
M02*
