%TF.GenerationSoftware,KiCad,Pcbnew,(6.0.10)*%
%TF.CreationDate,2023-03-06T12:11:40-08:00*%
%TF.ProjectId,PCM5242,50434d35-3234-4322-9e6b-696361645f70,rev?*%
%TF.SameCoordinates,Original*%
%TF.FileFunction,Legend,Top*%
%TF.FilePolarity,Positive*%
%FSLAX46Y46*%
G04 Gerber Fmt 4.6, Leading zero omitted, Abs format (unit mm)*
G04 Created by KiCad (PCBNEW (6.0.10)) date 2023-03-06 12:11:40*
%MOMM*%
%LPD*%
G01*
G04 APERTURE LIST*
%ADD10C,0.250000*%
%ADD11C,0.300000*%
%ADD12C,0.150000*%
%ADD13C,0.254000*%
%ADD14C,0.120000*%
%ADD15C,0.200000*%
G04 APERTURE END LIST*
D10*
X94535714Y-128690666D02*
X95011904Y-128690666D01*
X94440476Y-128976380D02*
X94773809Y-127976380D01*
X95107142Y-128976380D01*
X95869047Y-128309714D02*
X95869047Y-128976380D01*
X95630952Y-127928761D02*
X95392857Y-128643047D01*
X96011904Y-128643047D01*
X86915714Y-128690666D02*
X87391904Y-128690666D01*
X86820476Y-128976380D02*
X87153809Y-127976380D01*
X87487142Y-128976380D01*
X88344285Y-128976380D02*
X87772857Y-128976380D01*
X88058571Y-128976380D02*
X88058571Y-127976380D01*
X87963333Y-128119238D01*
X87868095Y-128214476D01*
X87772857Y-128262095D01*
X89455714Y-128690666D02*
X89931904Y-128690666D01*
X89360476Y-128976380D02*
X89693809Y-127976380D01*
X90027142Y-128976380D01*
X90312857Y-128071619D02*
X90360476Y-128024000D01*
X90455714Y-127976380D01*
X90693809Y-127976380D01*
X90789047Y-128024000D01*
X90836666Y-128071619D01*
X90884285Y-128166857D01*
X90884285Y-128262095D01*
X90836666Y-128404952D01*
X90265238Y-128976380D01*
X90884285Y-128976380D01*
D11*
X66564285Y-92943071D02*
X66564285Y-91443071D01*
X66921428Y-91443071D01*
X67135714Y-91514500D01*
X67278571Y-91657357D01*
X67350000Y-91800214D01*
X67421428Y-92085928D01*
X67421428Y-92300214D01*
X67350000Y-92585928D01*
X67278571Y-92728785D01*
X67135714Y-92871642D01*
X66921428Y-92943071D01*
X66564285Y-92943071D01*
X68064285Y-92943071D02*
X68064285Y-91943071D01*
X68064285Y-91443071D02*
X67992857Y-91514500D01*
X68064285Y-91585928D01*
X68135714Y-91514500D01*
X68064285Y-91443071D01*
X68064285Y-91585928D01*
X69421428Y-91943071D02*
X69421428Y-93157357D01*
X69350000Y-93300214D01*
X69278571Y-93371642D01*
X69135714Y-93443071D01*
X68921428Y-93443071D01*
X68778571Y-93371642D01*
X69421428Y-92871642D02*
X69278571Y-92943071D01*
X68992857Y-92943071D01*
X68850000Y-92871642D01*
X68778571Y-92800214D01*
X68707142Y-92657357D01*
X68707142Y-92228785D01*
X68778571Y-92085928D01*
X68850000Y-92014500D01*
X68992857Y-91943071D01*
X69278571Y-91943071D01*
X69421428Y-92014500D01*
X70135714Y-92943071D02*
X70135714Y-91943071D01*
X70135714Y-91443071D02*
X70064285Y-91514500D01*
X70135714Y-91585928D01*
X70207142Y-91514500D01*
X70135714Y-91443071D01*
X70135714Y-91585928D01*
X70635714Y-91943071D02*
X71207142Y-91943071D01*
X70850000Y-91443071D02*
X70850000Y-92728785D01*
X70921428Y-92871642D01*
X71064285Y-92943071D01*
X71207142Y-92943071D01*
X72350000Y-92943071D02*
X72350000Y-92157357D01*
X72278571Y-92014500D01*
X72135714Y-91943071D01*
X71850000Y-91943071D01*
X71707142Y-92014500D01*
X72350000Y-92871642D02*
X72207142Y-92943071D01*
X71850000Y-92943071D01*
X71707142Y-92871642D01*
X71635714Y-92728785D01*
X71635714Y-92585928D01*
X71707142Y-92443071D01*
X71850000Y-92371642D01*
X72207142Y-92371642D01*
X72350000Y-92300214D01*
X73278571Y-92943071D02*
X73135714Y-92871642D01*
X73064285Y-92728785D01*
X73064285Y-91443071D01*
D10*
X53927523Y-91616000D02*
X53832285Y-91568380D01*
X53689428Y-91568380D01*
X53546571Y-91616000D01*
X53451333Y-91711238D01*
X53403714Y-91806476D01*
X53356095Y-91996952D01*
X53356095Y-92139809D01*
X53403714Y-92330285D01*
X53451333Y-92425523D01*
X53546571Y-92520761D01*
X53689428Y-92568380D01*
X53784666Y-92568380D01*
X53927523Y-92520761D01*
X53975142Y-92473142D01*
X53975142Y-92139809D01*
X53784666Y-92139809D01*
X54403714Y-92568380D02*
X54403714Y-91568380D01*
X54975142Y-92568380D01*
X54975142Y-91568380D01*
X55451333Y-92568380D02*
X55451333Y-91568380D01*
X55689428Y-91568380D01*
X55832285Y-91616000D01*
X55927523Y-91711238D01*
X55975142Y-91806476D01*
X56022761Y-91996952D01*
X56022761Y-92139809D01*
X55975142Y-92330285D01*
X55927523Y-92425523D01*
X55832285Y-92520761D01*
X55689428Y-92568380D01*
X55451333Y-92568380D01*
X56403714Y-92282666D02*
X56879904Y-92282666D01*
X56308476Y-92568380D02*
X56641809Y-91568380D01*
X56975142Y-92568380D01*
X119459523Y-94654666D02*
X119935714Y-94654666D01*
X119364285Y-94940380D02*
X119697619Y-93940380D01*
X120030952Y-94940380D01*
X120888095Y-94940380D02*
X120316666Y-94940380D01*
X120602380Y-94940380D02*
X120602380Y-93940380D01*
X120507142Y-94083238D01*
X120411904Y-94178476D01*
X120316666Y-94226095D01*
X121221428Y-93940380D02*
X121840476Y-93940380D01*
X121507142Y-94321333D01*
X121650000Y-94321333D01*
X121745238Y-94368952D01*
X121792857Y-94416571D01*
X121840476Y-94511809D01*
X121840476Y-94749904D01*
X121792857Y-94845142D01*
X121745238Y-94892761D01*
X121650000Y-94940380D01*
X121364285Y-94940380D01*
X121269047Y-94892761D01*
X121221428Y-94845142D01*
X119459523Y-89574666D02*
X119935714Y-89574666D01*
X119364285Y-89860380D02*
X119697619Y-88860380D01*
X120030952Y-89860380D01*
X120888095Y-89860380D02*
X120316666Y-89860380D01*
X120602380Y-89860380D02*
X120602380Y-88860380D01*
X120507142Y-89003238D01*
X120411904Y-89098476D01*
X120316666Y-89146095D01*
X121792857Y-88860380D02*
X121316666Y-88860380D01*
X121269047Y-89336571D01*
X121316666Y-89288952D01*
X121411904Y-89241333D01*
X121650000Y-89241333D01*
X121745238Y-89288952D01*
X121792857Y-89336571D01*
X121840476Y-89431809D01*
X121840476Y-89669904D01*
X121792857Y-89765142D01*
X121745238Y-89812761D01*
X121650000Y-89860380D01*
X121411904Y-89860380D01*
X121316666Y-89812761D01*
X121269047Y-89765142D01*
X91995714Y-128690666D02*
X92471904Y-128690666D01*
X91900476Y-128976380D02*
X92233809Y-127976380D01*
X92567142Y-128976380D01*
X92805238Y-127976380D02*
X93424285Y-127976380D01*
X93090952Y-128357333D01*
X93233809Y-128357333D01*
X93329047Y-128404952D01*
X93376666Y-128452571D01*
X93424285Y-128547809D01*
X93424285Y-128785904D01*
X93376666Y-128881142D01*
X93329047Y-128928761D01*
X93233809Y-128976380D01*
X92948095Y-128976380D01*
X92852857Y-128928761D01*
X92805238Y-128881142D01*
X119935714Y-104814666D02*
X120411904Y-104814666D01*
X119840476Y-105100380D02*
X120173809Y-104100380D01*
X120507142Y-105100380D01*
X120888095Y-105100380D02*
X121078571Y-105100380D01*
X121173809Y-105052761D01*
X121221428Y-105005142D01*
X121316666Y-104862285D01*
X121364285Y-104671809D01*
X121364285Y-104290857D01*
X121316666Y-104195619D01*
X121269047Y-104148000D01*
X121173809Y-104100380D01*
X120983333Y-104100380D01*
X120888095Y-104148000D01*
X120840476Y-104195619D01*
X120792857Y-104290857D01*
X120792857Y-104528952D01*
X120840476Y-104624190D01*
X120888095Y-104671809D01*
X120983333Y-104719428D01*
X121173809Y-104719428D01*
X121269047Y-104671809D01*
X121316666Y-104624190D01*
X121364285Y-104528952D01*
X119459523Y-102274666D02*
X119935714Y-102274666D01*
X119364285Y-102560380D02*
X119697619Y-101560380D01*
X120030952Y-102560380D01*
X120888095Y-102560380D02*
X120316666Y-102560380D01*
X120602380Y-102560380D02*
X120602380Y-101560380D01*
X120507142Y-101703238D01*
X120411904Y-101798476D01*
X120316666Y-101846095D01*
X121507142Y-101560380D02*
X121602380Y-101560380D01*
X121697619Y-101608000D01*
X121745238Y-101655619D01*
X121792857Y-101750857D01*
X121840476Y-101941333D01*
X121840476Y-102179428D01*
X121792857Y-102369904D01*
X121745238Y-102465142D01*
X121697619Y-102512761D01*
X121602380Y-102560380D01*
X121507142Y-102560380D01*
X121411904Y-102512761D01*
X121364285Y-102465142D01*
X121316666Y-102369904D01*
X121269047Y-102179428D01*
X121269047Y-101941333D01*
X121316666Y-101750857D01*
X121364285Y-101655619D01*
X121411904Y-101608000D01*
X121507142Y-101560380D01*
X118340666Y-86812380D02*
X118340666Y-85812380D01*
X118578761Y-85812380D01*
X118721619Y-85860000D01*
X118816857Y-85955238D01*
X118864476Y-86050476D01*
X118912095Y-86240952D01*
X118912095Y-86383809D01*
X118864476Y-86574285D01*
X118816857Y-86669523D01*
X118721619Y-86764761D01*
X118578761Y-86812380D01*
X118340666Y-86812380D01*
X119340666Y-86812380D02*
X119340666Y-86145714D01*
X119340666Y-85812380D02*
X119293047Y-85860000D01*
X119340666Y-85907619D01*
X119388285Y-85860000D01*
X119340666Y-85812380D01*
X119340666Y-85907619D01*
X120245428Y-86145714D02*
X120245428Y-86955238D01*
X120197809Y-87050476D01*
X120150190Y-87098095D01*
X120054952Y-87145714D01*
X119912095Y-87145714D01*
X119816857Y-87098095D01*
X120245428Y-86764761D02*
X120150190Y-86812380D01*
X119959714Y-86812380D01*
X119864476Y-86764761D01*
X119816857Y-86717142D01*
X119769238Y-86621904D01*
X119769238Y-86336190D01*
X119816857Y-86240952D01*
X119864476Y-86193333D01*
X119959714Y-86145714D01*
X120150190Y-86145714D01*
X120245428Y-86193333D01*
X120721619Y-86812380D02*
X120721619Y-86145714D01*
X120721619Y-85812380D02*
X120674000Y-85860000D01*
X120721619Y-85907619D01*
X120769238Y-85860000D01*
X120721619Y-85812380D01*
X120721619Y-85907619D01*
X121054952Y-86145714D02*
X121435904Y-86145714D01*
X121197809Y-85812380D02*
X121197809Y-86669523D01*
X121245428Y-86764761D01*
X121340666Y-86812380D01*
X121435904Y-86812380D01*
X122197809Y-86812380D02*
X122197809Y-86288571D01*
X122150190Y-86193333D01*
X122054952Y-86145714D01*
X121864476Y-86145714D01*
X121769238Y-86193333D01*
X122197809Y-86764761D02*
X122102571Y-86812380D01*
X121864476Y-86812380D01*
X121769238Y-86764761D01*
X121721619Y-86669523D01*
X121721619Y-86574285D01*
X121769238Y-86479047D01*
X121864476Y-86431428D01*
X122102571Y-86431428D01*
X122197809Y-86383809D01*
X122816857Y-86812380D02*
X122721619Y-86764761D01*
X122674000Y-86669523D01*
X122674000Y-85812380D01*
X124150190Y-85812380D02*
X124340666Y-85812380D01*
X124435904Y-85860000D01*
X124531142Y-85955238D01*
X124578761Y-86145714D01*
X124578761Y-86479047D01*
X124531142Y-86669523D01*
X124435904Y-86764761D01*
X124340666Y-86812380D01*
X124150190Y-86812380D01*
X124054952Y-86764761D01*
X123959714Y-86669523D01*
X123912095Y-86479047D01*
X123912095Y-86145714D01*
X123959714Y-85955238D01*
X124054952Y-85860000D01*
X124150190Y-85812380D01*
X125435904Y-86145714D02*
X125435904Y-86812380D01*
X125007333Y-86145714D02*
X125007333Y-86669523D01*
X125054952Y-86764761D01*
X125150190Y-86812380D01*
X125293047Y-86812380D01*
X125388285Y-86764761D01*
X125435904Y-86717142D01*
X125769238Y-86145714D02*
X126150190Y-86145714D01*
X125912095Y-85812380D02*
X125912095Y-86669523D01*
X125959714Y-86764761D01*
X126054952Y-86812380D01*
X126150190Y-86812380D01*
X53276666Y-95210380D02*
X53610000Y-96210380D01*
X53943333Y-95210380D01*
X54848095Y-96115142D02*
X54800476Y-96162761D01*
X54657619Y-96210380D01*
X54562380Y-96210380D01*
X54419523Y-96162761D01*
X54324285Y-96067523D01*
X54276666Y-95972285D01*
X54229047Y-95781809D01*
X54229047Y-95638952D01*
X54276666Y-95448476D01*
X54324285Y-95353238D01*
X54419523Y-95258000D01*
X54562380Y-95210380D01*
X54657619Y-95210380D01*
X54800476Y-95258000D01*
X54848095Y-95305619D01*
X55848095Y-96115142D02*
X55800476Y-96162761D01*
X55657619Y-96210380D01*
X55562380Y-96210380D01*
X55419523Y-96162761D01*
X55324285Y-96067523D01*
X55276666Y-95972285D01*
X55229047Y-95781809D01*
X55229047Y-95638952D01*
X55276666Y-95448476D01*
X55324285Y-95353238D01*
X55419523Y-95258000D01*
X55562380Y-95210380D01*
X55657619Y-95210380D01*
X55800476Y-95258000D01*
X55848095Y-95305619D01*
X76883047Y-131484666D02*
X77359238Y-131484666D01*
X76787809Y-131770380D02*
X77121142Y-130770380D01*
X77454476Y-131770380D01*
X77787809Y-131103714D02*
X77787809Y-131770380D01*
X77787809Y-131198952D02*
X77835428Y-131151333D01*
X77930666Y-131103714D01*
X78073523Y-131103714D01*
X78168761Y-131151333D01*
X78216380Y-131246571D01*
X78216380Y-131770380D01*
X79121142Y-131770380D02*
X79121142Y-131246571D01*
X79073523Y-131151333D01*
X78978285Y-131103714D01*
X78787809Y-131103714D01*
X78692571Y-131151333D01*
X79121142Y-131722761D02*
X79025904Y-131770380D01*
X78787809Y-131770380D01*
X78692571Y-131722761D01*
X78644952Y-131627523D01*
X78644952Y-131532285D01*
X78692571Y-131437047D01*
X78787809Y-131389428D01*
X79025904Y-131389428D01*
X79121142Y-131341809D01*
X79740190Y-131770380D02*
X79644952Y-131722761D01*
X79597333Y-131627523D01*
X79597333Y-130770380D01*
X80264000Y-131770380D02*
X80168761Y-131722761D01*
X80121142Y-131675142D01*
X80073523Y-131579904D01*
X80073523Y-131294190D01*
X80121142Y-131198952D01*
X80168761Y-131151333D01*
X80264000Y-131103714D01*
X80406857Y-131103714D01*
X80502095Y-131151333D01*
X80549714Y-131198952D01*
X80597333Y-131294190D01*
X80597333Y-131579904D01*
X80549714Y-131675142D01*
X80502095Y-131722761D01*
X80406857Y-131770380D01*
X80264000Y-131770380D01*
X81454476Y-131103714D02*
X81454476Y-131913238D01*
X81406857Y-132008476D01*
X81359238Y-132056095D01*
X81264000Y-132103714D01*
X81121142Y-132103714D01*
X81025904Y-132056095D01*
X81454476Y-131722761D02*
X81359238Y-131770380D01*
X81168761Y-131770380D01*
X81073523Y-131722761D01*
X81025904Y-131675142D01*
X80978285Y-131579904D01*
X80978285Y-131294190D01*
X81025904Y-131198952D01*
X81073523Y-131151333D01*
X81168761Y-131103714D01*
X81359238Y-131103714D01*
X81454476Y-131151333D01*
X82692571Y-131770380D02*
X82692571Y-130770380D01*
X83168761Y-131103714D02*
X83168761Y-131770380D01*
X83168761Y-131198952D02*
X83216380Y-131151333D01*
X83311619Y-131103714D01*
X83454476Y-131103714D01*
X83549714Y-131151333D01*
X83597333Y-131246571D01*
X83597333Y-131770380D01*
X119459523Y-92114666D02*
X119935714Y-92114666D01*
X119364285Y-92400380D02*
X119697619Y-91400380D01*
X120030952Y-92400380D01*
X120888095Y-92400380D02*
X120316666Y-92400380D01*
X120602380Y-92400380D02*
X120602380Y-91400380D01*
X120507142Y-91543238D01*
X120411904Y-91638476D01*
X120316666Y-91686095D01*
X121745238Y-91733714D02*
X121745238Y-92400380D01*
X121507142Y-91352761D02*
X121269047Y-92067047D01*
X121888095Y-92067047D01*
X119935714Y-107354666D02*
X120411904Y-107354666D01*
X119840476Y-107640380D02*
X120173809Y-106640380D01*
X120507142Y-107640380D01*
X120983333Y-107068952D02*
X120888095Y-107021333D01*
X120840476Y-106973714D01*
X120792857Y-106878476D01*
X120792857Y-106830857D01*
X120840476Y-106735619D01*
X120888095Y-106688000D01*
X120983333Y-106640380D01*
X121173809Y-106640380D01*
X121269047Y-106688000D01*
X121316666Y-106735619D01*
X121364285Y-106830857D01*
X121364285Y-106878476D01*
X121316666Y-106973714D01*
X121269047Y-107021333D01*
X121173809Y-107068952D01*
X120983333Y-107068952D01*
X120888095Y-107116571D01*
X120840476Y-107164190D01*
X120792857Y-107259428D01*
X120792857Y-107449904D01*
X120840476Y-107545142D01*
X120888095Y-107592761D01*
X120983333Y-107640380D01*
X121173809Y-107640380D01*
X121269047Y-107592761D01*
X121316666Y-107545142D01*
X121364285Y-107449904D01*
X121364285Y-107259428D01*
X121316666Y-107164190D01*
X121269047Y-107116571D01*
X121173809Y-107068952D01*
X119459523Y-97448666D02*
X119935714Y-97448666D01*
X119364285Y-97734380D02*
X119697619Y-96734380D01*
X120030952Y-97734380D01*
X120888095Y-97734380D02*
X120316666Y-97734380D01*
X120602380Y-97734380D02*
X120602380Y-96734380D01*
X120507142Y-96877238D01*
X120411904Y-96972476D01*
X120316666Y-97020095D01*
X121269047Y-96829619D02*
X121316666Y-96782000D01*
X121411904Y-96734380D01*
X121650000Y-96734380D01*
X121745238Y-96782000D01*
X121792857Y-96829619D01*
X121840476Y-96924857D01*
X121840476Y-97020095D01*
X121792857Y-97162952D01*
X121221428Y-97734380D01*
X121840476Y-97734380D01*
X119459523Y-99734666D02*
X119935714Y-99734666D01*
X119364285Y-100020380D02*
X119697619Y-99020380D01*
X120030952Y-100020380D01*
X120888095Y-100020380D02*
X120316666Y-100020380D01*
X120602380Y-100020380D02*
X120602380Y-99020380D01*
X120507142Y-99163238D01*
X120411904Y-99258476D01*
X120316666Y-99306095D01*
X121840476Y-100020380D02*
X121269047Y-100020380D01*
X121554761Y-100020380D02*
X121554761Y-99020380D01*
X121459523Y-99163238D01*
X121364285Y-99258476D01*
X121269047Y-99306095D01*
X48808285Y-87785380D02*
X48808285Y-86785380D01*
X49189238Y-86785380D01*
X49284476Y-86833000D01*
X49332095Y-86880619D01*
X49379714Y-86975857D01*
X49379714Y-87118714D01*
X49332095Y-87213952D01*
X49284476Y-87261571D01*
X49189238Y-87309190D01*
X48808285Y-87309190D01*
X49951142Y-87785380D02*
X49855904Y-87737761D01*
X49808285Y-87690142D01*
X49760666Y-87594904D01*
X49760666Y-87309190D01*
X49808285Y-87213952D01*
X49855904Y-87166333D01*
X49951142Y-87118714D01*
X50094000Y-87118714D01*
X50189238Y-87166333D01*
X50236857Y-87213952D01*
X50284476Y-87309190D01*
X50284476Y-87594904D01*
X50236857Y-87690142D01*
X50189238Y-87737761D01*
X50094000Y-87785380D01*
X49951142Y-87785380D01*
X50617809Y-87118714D02*
X50808285Y-87785380D01*
X50998761Y-87309190D01*
X51189238Y-87785380D01*
X51379714Y-87118714D01*
X52141619Y-87737761D02*
X52046380Y-87785380D01*
X51855904Y-87785380D01*
X51760666Y-87737761D01*
X51713047Y-87642523D01*
X51713047Y-87261571D01*
X51760666Y-87166333D01*
X51855904Y-87118714D01*
X52046380Y-87118714D01*
X52141619Y-87166333D01*
X52189238Y-87261571D01*
X52189238Y-87356809D01*
X51713047Y-87452047D01*
X52617809Y-87785380D02*
X52617809Y-87118714D01*
X52617809Y-87309190D02*
X52665428Y-87213952D01*
X52713047Y-87166333D01*
X52808285Y-87118714D01*
X52903523Y-87118714D01*
X54713047Y-86737761D02*
X53855904Y-88023476D01*
X56332095Y-86833000D02*
X56236857Y-86785380D01*
X56094000Y-86785380D01*
X55951142Y-86833000D01*
X55855904Y-86928238D01*
X55808285Y-87023476D01*
X55760666Y-87213952D01*
X55760666Y-87356809D01*
X55808285Y-87547285D01*
X55855904Y-87642523D01*
X55951142Y-87737761D01*
X56094000Y-87785380D01*
X56189238Y-87785380D01*
X56332095Y-87737761D01*
X56379714Y-87690142D01*
X56379714Y-87356809D01*
X56189238Y-87356809D01*
X56808285Y-87785380D02*
X56808285Y-86785380D01*
X57379714Y-87785380D01*
X57379714Y-86785380D01*
X57855904Y-87785380D02*
X57855904Y-86785380D01*
X58094000Y-86785380D01*
X58236857Y-86833000D01*
X58332095Y-86928238D01*
X58379714Y-87023476D01*
X58427333Y-87213952D01*
X58427333Y-87356809D01*
X58379714Y-87547285D01*
X58332095Y-87642523D01*
X58236857Y-87737761D01*
X58094000Y-87785380D01*
X57855904Y-87785380D01*
X119681714Y-114974666D02*
X120157904Y-114974666D01*
X119586476Y-115260380D02*
X119919809Y-114260380D01*
X120253142Y-115260380D01*
X121062666Y-114260380D02*
X120586476Y-114260380D01*
X120538857Y-114736571D01*
X120586476Y-114688952D01*
X120681714Y-114641333D01*
X120919809Y-114641333D01*
X121015047Y-114688952D01*
X121062666Y-114736571D01*
X121110285Y-114831809D01*
X121110285Y-115069904D01*
X121062666Y-115165142D01*
X121015047Y-115212761D01*
X120919809Y-115260380D01*
X120681714Y-115260380D01*
X120586476Y-115212761D01*
X120538857Y-115165142D01*
X96798952Y-78485380D02*
X96798952Y-79294904D01*
X96846571Y-79390142D01*
X96894190Y-79437761D01*
X96989428Y-79485380D01*
X97179904Y-79485380D01*
X97275142Y-79437761D01*
X97322761Y-79390142D01*
X97370380Y-79294904D01*
X97370380Y-78485380D01*
X97846571Y-78818714D02*
X97846571Y-79485380D01*
X97846571Y-78913952D02*
X97894190Y-78866333D01*
X97989428Y-78818714D01*
X98132285Y-78818714D01*
X98227523Y-78866333D01*
X98275142Y-78961571D01*
X98275142Y-79485380D01*
X98751333Y-79485380D02*
X98751333Y-78818714D01*
X98751333Y-78485380D02*
X98703714Y-78533000D01*
X98751333Y-78580619D01*
X98798952Y-78533000D01*
X98751333Y-78485380D01*
X98751333Y-78580619D01*
X99132285Y-78818714D02*
X99370380Y-79485380D01*
X99608476Y-78818714D01*
X100370380Y-79437761D02*
X100275142Y-79485380D01*
X100084666Y-79485380D01*
X99989428Y-79437761D01*
X99941809Y-79342523D01*
X99941809Y-78961571D01*
X99989428Y-78866333D01*
X100084666Y-78818714D01*
X100275142Y-78818714D01*
X100370380Y-78866333D01*
X100417999Y-78961571D01*
X100417999Y-79056809D01*
X99941809Y-79152047D01*
X100846571Y-79485380D02*
X100846571Y-78818714D01*
X100846571Y-79009190D02*
X100894190Y-78913952D01*
X100941809Y-78866333D01*
X101037047Y-78818714D01*
X101132285Y-78818714D01*
X101417999Y-79437761D02*
X101513238Y-79485380D01*
X101703714Y-79485380D01*
X101798952Y-79437761D01*
X101846571Y-79342523D01*
X101846571Y-79294904D01*
X101798952Y-79199666D01*
X101703714Y-79152047D01*
X101560857Y-79152047D01*
X101465619Y-79104428D01*
X101417999Y-79009190D01*
X101417999Y-78961571D01*
X101465619Y-78866333D01*
X101560857Y-78818714D01*
X101703714Y-78818714D01*
X101798952Y-78866333D01*
X102275142Y-79485380D02*
X102275142Y-78818714D01*
X102275142Y-78485380D02*
X102227523Y-78533000D01*
X102275142Y-78580619D01*
X102322761Y-78533000D01*
X102275142Y-78485380D01*
X102275142Y-78580619D01*
X102608476Y-78818714D02*
X102989428Y-78818714D01*
X102751333Y-78485380D02*
X102751333Y-79342523D01*
X102798952Y-79437761D01*
X102894190Y-79485380D01*
X102989428Y-79485380D01*
X103227523Y-78818714D02*
X103465619Y-79485380D01*
X103703714Y-78818714D02*
X103465619Y-79485380D01*
X103370380Y-79723476D01*
X103322761Y-79771095D01*
X103227523Y-79818714D01*
X104989428Y-79485380D02*
X104894190Y-79437761D01*
X104846571Y-79390142D01*
X104798952Y-79294904D01*
X104798952Y-79009190D01*
X104846571Y-78913952D01*
X104894190Y-78866333D01*
X104989428Y-78818714D01*
X105132285Y-78818714D01*
X105227523Y-78866333D01*
X105275142Y-78913952D01*
X105322761Y-79009190D01*
X105322761Y-79294904D01*
X105275142Y-79390142D01*
X105227523Y-79437761D01*
X105132285Y-79485380D01*
X104989428Y-79485380D01*
X105608476Y-78818714D02*
X105989428Y-78818714D01*
X105751333Y-79485380D02*
X105751333Y-78628238D01*
X105798952Y-78533000D01*
X105894190Y-78485380D01*
X105989428Y-78485380D01*
X106989428Y-78485380D02*
X107227523Y-79485380D01*
X107417999Y-78771095D01*
X107608476Y-79485380D01*
X107846571Y-78485380D01*
X108656095Y-79485380D02*
X108656095Y-78961571D01*
X108608476Y-78866333D01*
X108513238Y-78818714D01*
X108322761Y-78818714D01*
X108227523Y-78866333D01*
X108656095Y-79437761D02*
X108560857Y-79485380D01*
X108322761Y-79485380D01*
X108227523Y-79437761D01*
X108179904Y-79342523D01*
X108179904Y-79247285D01*
X108227523Y-79152047D01*
X108322761Y-79104428D01*
X108560857Y-79104428D01*
X108656095Y-79056809D01*
X109084666Y-79437761D02*
X109179904Y-79485380D01*
X109370380Y-79485380D01*
X109465619Y-79437761D01*
X109513238Y-79342523D01*
X109513238Y-79294904D01*
X109465619Y-79199666D01*
X109370380Y-79152047D01*
X109227523Y-79152047D01*
X109132285Y-79104428D01*
X109084666Y-79009190D01*
X109084666Y-78961571D01*
X109132285Y-78866333D01*
X109227523Y-78818714D01*
X109370380Y-78818714D01*
X109465619Y-78866333D01*
X109941809Y-79485380D02*
X109941809Y-78485380D01*
X110370380Y-79485380D02*
X110370380Y-78961571D01*
X110322761Y-78866333D01*
X110227523Y-78818714D01*
X110084666Y-78818714D01*
X109989428Y-78866333D01*
X109941809Y-78913952D01*
X110846571Y-79485380D02*
X110846571Y-78818714D01*
X110846571Y-78485380D02*
X110798952Y-78533000D01*
X110846571Y-78580619D01*
X110894190Y-78533000D01*
X110846571Y-78485380D01*
X110846571Y-78580619D01*
X111322761Y-78818714D02*
X111322761Y-79485380D01*
X111322761Y-78913952D02*
X111370380Y-78866333D01*
X111465619Y-78818714D01*
X111608476Y-78818714D01*
X111703714Y-78866333D01*
X111751333Y-78961571D01*
X111751333Y-79485380D01*
X112656095Y-78818714D02*
X112656095Y-79628238D01*
X112608476Y-79723476D01*
X112560857Y-79771095D01*
X112465619Y-79818714D01*
X112322761Y-79818714D01*
X112227523Y-79771095D01*
X112656095Y-79437761D02*
X112560857Y-79485380D01*
X112370380Y-79485380D01*
X112275142Y-79437761D01*
X112227523Y-79390142D01*
X112179904Y-79294904D01*
X112179904Y-79009190D01*
X112227523Y-78913952D01*
X112275142Y-78866333D01*
X112370380Y-78818714D01*
X112560857Y-78818714D01*
X112656095Y-78866333D01*
X112989428Y-78818714D02*
X113370380Y-78818714D01*
X113132285Y-78485380D02*
X113132285Y-79342523D01*
X113179904Y-79437761D01*
X113275142Y-79485380D01*
X113370380Y-79485380D01*
X113846571Y-79485380D02*
X113751333Y-79437761D01*
X113703714Y-79390142D01*
X113656095Y-79294904D01*
X113656095Y-79009190D01*
X113703714Y-78913952D01*
X113751333Y-78866333D01*
X113846571Y-78818714D01*
X113989428Y-78818714D01*
X114084666Y-78866333D01*
X114132285Y-78913952D01*
X114179904Y-79009190D01*
X114179904Y-79294904D01*
X114132285Y-79390142D01*
X114084666Y-79437761D01*
X113989428Y-79485380D01*
X113846571Y-79485380D01*
X114608476Y-78818714D02*
X114608476Y-79485380D01*
X114608476Y-78913952D02*
X114656095Y-78866333D01*
X114751333Y-78818714D01*
X114894190Y-78818714D01*
X114989428Y-78866333D01*
X115037047Y-78961571D01*
X115037047Y-79485380D01*
X101394190Y-80571571D02*
X101727523Y-80571571D01*
X101870380Y-81095380D02*
X101394190Y-81095380D01*
X101394190Y-80095380D01*
X101870380Y-80095380D01*
X102298952Y-80428714D02*
X102298952Y-81095380D01*
X102298952Y-80523952D02*
X102346571Y-80476333D01*
X102441809Y-80428714D01*
X102584666Y-80428714D01*
X102679904Y-80476333D01*
X102727523Y-80571571D01*
X102727523Y-81095380D01*
X103632285Y-80428714D02*
X103632285Y-81238238D01*
X103584666Y-81333476D01*
X103537047Y-81381095D01*
X103441809Y-81428714D01*
X103298952Y-81428714D01*
X103203714Y-81381095D01*
X103632285Y-81047761D02*
X103537047Y-81095380D01*
X103346571Y-81095380D01*
X103251333Y-81047761D01*
X103203714Y-81000142D01*
X103156095Y-80904904D01*
X103156095Y-80619190D01*
X103203714Y-80523952D01*
X103251333Y-80476333D01*
X103346571Y-80428714D01*
X103537047Y-80428714D01*
X103632285Y-80476333D01*
X104108476Y-81095380D02*
X104108476Y-80428714D01*
X104108476Y-80095380D02*
X104060857Y-80143000D01*
X104108476Y-80190619D01*
X104156095Y-80143000D01*
X104108476Y-80095380D01*
X104108476Y-80190619D01*
X104584666Y-80428714D02*
X104584666Y-81095380D01*
X104584666Y-80523952D02*
X104632285Y-80476333D01*
X104727523Y-80428714D01*
X104870380Y-80428714D01*
X104965619Y-80476333D01*
X105013238Y-80571571D01*
X105013238Y-81095380D01*
X105870380Y-81047761D02*
X105775142Y-81095380D01*
X105584666Y-81095380D01*
X105489428Y-81047761D01*
X105441809Y-80952523D01*
X105441809Y-80571571D01*
X105489428Y-80476333D01*
X105584666Y-80428714D01*
X105775142Y-80428714D01*
X105870380Y-80476333D01*
X105918000Y-80571571D01*
X105918000Y-80666809D01*
X105441809Y-80762047D01*
X107060857Y-80190619D02*
X107108476Y-80143000D01*
X107203714Y-80095380D01*
X107441809Y-80095380D01*
X107537047Y-80143000D01*
X107584666Y-80190619D01*
X107632285Y-80285857D01*
X107632285Y-80381095D01*
X107584666Y-80523952D01*
X107013238Y-81095380D01*
X107632285Y-81095380D01*
X108251333Y-80095380D02*
X108346571Y-80095380D01*
X108441809Y-80143000D01*
X108489428Y-80190619D01*
X108537047Y-80285857D01*
X108584666Y-80476333D01*
X108584666Y-80714428D01*
X108537047Y-80904904D01*
X108489428Y-81000142D01*
X108441809Y-81047761D01*
X108346571Y-81095380D01*
X108251333Y-81095380D01*
X108156095Y-81047761D01*
X108108476Y-81000142D01*
X108060857Y-80904904D01*
X108013238Y-80714428D01*
X108013238Y-80476333D01*
X108060857Y-80285857D01*
X108108476Y-80190619D01*
X108156095Y-80143000D01*
X108251333Y-80095380D01*
X108965619Y-80190619D02*
X109013238Y-80143000D01*
X109108476Y-80095380D01*
X109346571Y-80095380D01*
X109441809Y-80143000D01*
X109489428Y-80190619D01*
X109537047Y-80285857D01*
X109537047Y-80381095D01*
X109489428Y-80523952D01*
X108918000Y-81095380D01*
X109537047Y-81095380D01*
X109870380Y-80095380D02*
X110489428Y-80095380D01*
X110156095Y-80476333D01*
X110298952Y-80476333D01*
X110394190Y-80523952D01*
X110441809Y-80571571D01*
X110489428Y-80666809D01*
X110489428Y-80904904D01*
X110441809Y-81000142D01*
X110394190Y-81047761D01*
X110298952Y-81095380D01*
X110013238Y-81095380D01*
X109918000Y-81047761D01*
X109870380Y-81000142D01*
X102632285Y-82610142D02*
X102584666Y-82657761D01*
X102441809Y-82705380D01*
X102346571Y-82705380D01*
X102203714Y-82657761D01*
X102108476Y-82562523D01*
X102060857Y-82467285D01*
X102013238Y-82276809D01*
X102013238Y-82133952D01*
X102060857Y-81943476D01*
X102108476Y-81848238D01*
X102203714Y-81753000D01*
X102346571Y-81705380D01*
X102441809Y-81705380D01*
X102584666Y-81753000D01*
X102632285Y-81800619D01*
X103060857Y-82705380D02*
X103060857Y-81705380D01*
X103489428Y-82705380D02*
X103489428Y-82181571D01*
X103441809Y-82086333D01*
X103346571Y-82038714D01*
X103203714Y-82038714D01*
X103108476Y-82086333D01*
X103060857Y-82133952D01*
X104394190Y-82705380D02*
X104394190Y-82181571D01*
X104346571Y-82086333D01*
X104251333Y-82038714D01*
X104060857Y-82038714D01*
X103965619Y-82086333D01*
X104394190Y-82657761D02*
X104298952Y-82705380D01*
X104060857Y-82705380D01*
X103965619Y-82657761D01*
X103918000Y-82562523D01*
X103918000Y-82467285D01*
X103965619Y-82372047D01*
X104060857Y-82324428D01*
X104298952Y-82324428D01*
X104394190Y-82276809D01*
X104870380Y-82705380D02*
X104870380Y-82038714D01*
X104870380Y-82133952D02*
X104918000Y-82086333D01*
X105013238Y-82038714D01*
X105156095Y-82038714D01*
X105251333Y-82086333D01*
X105298952Y-82181571D01*
X105298952Y-82705380D01*
X105298952Y-82181571D02*
X105346571Y-82086333D01*
X105441809Y-82038714D01*
X105584666Y-82038714D01*
X105679904Y-82086333D01*
X105727523Y-82181571D01*
X105727523Y-82705380D01*
X106584666Y-82657761D02*
X106489428Y-82705380D01*
X106298952Y-82705380D01*
X106203714Y-82657761D01*
X106156095Y-82562523D01*
X106156095Y-82181571D01*
X106203714Y-82086333D01*
X106298952Y-82038714D01*
X106489428Y-82038714D01*
X106584666Y-82086333D01*
X106632285Y-82181571D01*
X106632285Y-82276809D01*
X106156095Y-82372047D01*
X107203714Y-82705380D02*
X107108476Y-82657761D01*
X107060857Y-82562523D01*
X107060857Y-81705380D01*
X107965619Y-82657761D02*
X107870380Y-82705380D01*
X107679904Y-82705380D01*
X107584666Y-82657761D01*
X107537047Y-82562523D01*
X107537047Y-82181571D01*
X107584666Y-82086333D01*
X107679904Y-82038714D01*
X107870380Y-82038714D01*
X107965619Y-82086333D01*
X108013238Y-82181571D01*
X108013238Y-82276809D01*
X107537047Y-82372047D01*
X108584666Y-82705380D02*
X108489428Y-82657761D01*
X108441809Y-82610142D01*
X108394190Y-82514904D01*
X108394190Y-82229190D01*
X108441809Y-82133952D01*
X108489428Y-82086333D01*
X108584666Y-82038714D01*
X108727523Y-82038714D01*
X108822761Y-82086333D01*
X108870380Y-82133952D01*
X108918000Y-82229190D01*
X108918000Y-82514904D01*
X108870380Y-82610142D01*
X108822761Y-82657761D01*
X108727523Y-82705380D01*
X108584666Y-82705380D01*
X109346571Y-82038714D02*
X109346571Y-82705380D01*
X109346571Y-82133952D02*
X109394190Y-82086333D01*
X109489428Y-82038714D01*
X109632285Y-82038714D01*
X109727523Y-82086333D01*
X109775142Y-82181571D01*
X109775142Y-82705380D01*
X97632285Y-85925380D02*
X97632285Y-84925380D01*
X97870380Y-84925380D01*
X98013238Y-84973000D01*
X98108476Y-85068238D01*
X98156095Y-85163476D01*
X98203714Y-85353952D01*
X98203714Y-85496809D01*
X98156095Y-85687285D01*
X98108476Y-85782523D01*
X98013238Y-85877761D01*
X97870380Y-85925380D01*
X97632285Y-85925380D01*
X98584666Y-85639666D02*
X99060857Y-85639666D01*
X98489428Y-85925380D02*
X98822761Y-84925380D01*
X99156095Y-85925380D01*
X100060857Y-85830142D02*
X100013238Y-85877761D01*
X99870380Y-85925380D01*
X99775142Y-85925380D01*
X99632285Y-85877761D01*
X99537047Y-85782523D01*
X99489428Y-85687285D01*
X99441809Y-85496809D01*
X99441809Y-85353952D01*
X99489428Y-85163476D01*
X99537047Y-85068238D01*
X99632285Y-84973000D01*
X99775142Y-84925380D01*
X99870380Y-84925380D01*
X100013238Y-84973000D01*
X100060857Y-85020619D01*
X101251333Y-85544428D02*
X102013238Y-85544428D01*
X103251333Y-85925380D02*
X103251333Y-84925380D01*
X103632285Y-84925380D01*
X103727523Y-84973000D01*
X103775142Y-85020619D01*
X103822761Y-85115857D01*
X103822761Y-85258714D01*
X103775142Y-85353952D01*
X103727523Y-85401571D01*
X103632285Y-85449190D01*
X103251333Y-85449190D01*
X104822761Y-85830142D02*
X104775142Y-85877761D01*
X104632285Y-85925380D01*
X104537047Y-85925380D01*
X104394190Y-85877761D01*
X104298952Y-85782523D01*
X104251333Y-85687285D01*
X104203714Y-85496809D01*
X104203714Y-85353952D01*
X104251333Y-85163476D01*
X104298952Y-85068238D01*
X104394190Y-84973000D01*
X104537047Y-84925380D01*
X104632285Y-84925380D01*
X104775142Y-84973000D01*
X104822761Y-85020619D01*
X105251333Y-85925380D02*
X105251333Y-84925380D01*
X105584666Y-85639666D01*
X105918000Y-84925380D01*
X105918000Y-85925380D01*
X106870380Y-84925380D02*
X106394190Y-84925380D01*
X106346571Y-85401571D01*
X106394190Y-85353952D01*
X106489428Y-85306333D01*
X106727523Y-85306333D01*
X106822761Y-85353952D01*
X106870380Y-85401571D01*
X106918000Y-85496809D01*
X106918000Y-85734904D01*
X106870380Y-85830142D01*
X106822761Y-85877761D01*
X106727523Y-85925380D01*
X106489428Y-85925380D01*
X106394190Y-85877761D01*
X106346571Y-85830142D01*
X107298952Y-85020619D02*
X107346571Y-84973000D01*
X107441809Y-84925380D01*
X107679904Y-84925380D01*
X107775142Y-84973000D01*
X107822761Y-85020619D01*
X107870380Y-85115857D01*
X107870380Y-85211095D01*
X107822761Y-85353952D01*
X107251333Y-85925380D01*
X107870380Y-85925380D01*
X108727523Y-85258714D02*
X108727523Y-85925380D01*
X108489428Y-84877761D02*
X108251333Y-85592047D01*
X108870380Y-85592047D01*
X109203714Y-85020619D02*
X109251333Y-84973000D01*
X109346571Y-84925380D01*
X109584666Y-84925380D01*
X109679904Y-84973000D01*
X109727523Y-85020619D01*
X109775142Y-85115857D01*
X109775142Y-85211095D01*
X109727523Y-85353952D01*
X109156095Y-85925380D01*
X109775142Y-85925380D01*
X110822761Y-84925380D02*
X111156095Y-85925380D01*
X111489428Y-84925380D01*
X111822761Y-85830142D02*
X111870380Y-85877761D01*
X111822761Y-85925380D01*
X111775142Y-85877761D01*
X111822761Y-85830142D01*
X111822761Y-85925380D01*
X112251333Y-85020619D02*
X112298952Y-84973000D01*
X112394190Y-84925380D01*
X112632285Y-84925380D01*
X112727523Y-84973000D01*
X112775142Y-85020619D01*
X112822761Y-85115857D01*
X112822761Y-85211095D01*
X112775142Y-85353952D01*
X112203714Y-85925380D01*
X112822761Y-85925380D01*
X113251333Y-85830142D02*
X113298952Y-85877761D01*
X113251333Y-85925380D01*
X113203714Y-85877761D01*
X113251333Y-85830142D01*
X113251333Y-85925380D01*
X114251333Y-85925380D02*
X113679904Y-85925380D01*
X113965619Y-85925380D02*
X113965619Y-84925380D01*
X113870380Y-85068238D01*
X113775142Y-85163476D01*
X113679904Y-85211095D01*
X97679904Y-86535380D02*
X97679904Y-87249666D01*
X97632285Y-87392523D01*
X97537047Y-87487761D01*
X97394190Y-87535380D01*
X97298952Y-87535380D01*
X98584666Y-86868714D02*
X98584666Y-87535380D01*
X98156095Y-86868714D02*
X98156095Y-87392523D01*
X98203714Y-87487761D01*
X98298952Y-87535380D01*
X98441809Y-87535380D01*
X98537047Y-87487761D01*
X98584666Y-87440142D01*
X99203714Y-87535380D02*
X99108476Y-87487761D01*
X99060857Y-87392523D01*
X99060857Y-86535380D01*
X99584666Y-87535380D02*
X99584666Y-86868714D01*
X99584666Y-86535380D02*
X99537047Y-86583000D01*
X99584666Y-86630619D01*
X99632285Y-86583000D01*
X99584666Y-86535380D01*
X99584666Y-86630619D01*
X100489428Y-87535380D02*
X100489428Y-87011571D01*
X100441809Y-86916333D01*
X100346571Y-86868714D01*
X100156095Y-86868714D01*
X100060857Y-86916333D01*
X100489428Y-87487761D02*
X100394190Y-87535380D01*
X100156095Y-87535380D01*
X100060857Y-87487761D01*
X100013238Y-87392523D01*
X100013238Y-87297285D01*
X100060857Y-87202047D01*
X100156095Y-87154428D01*
X100394190Y-87154428D01*
X100489428Y-87106809D01*
X100965619Y-86868714D02*
X100965619Y-87535380D01*
X100965619Y-86963952D02*
X101013238Y-86916333D01*
X101108476Y-86868714D01*
X101251333Y-86868714D01*
X101346571Y-86916333D01*
X101394190Y-87011571D01*
X101394190Y-87535380D01*
X102918000Y-86535380D02*
X102918000Y-87249666D01*
X102870380Y-87392523D01*
X102775142Y-87487761D01*
X102632285Y-87535380D01*
X102537047Y-87535380D01*
X103822761Y-87535380D02*
X103822761Y-87011571D01*
X103775142Y-86916333D01*
X103679904Y-86868714D01*
X103489428Y-86868714D01*
X103394190Y-86916333D01*
X103822761Y-87487761D02*
X103727523Y-87535380D01*
X103489428Y-87535380D01*
X103394190Y-87487761D01*
X103346571Y-87392523D01*
X103346571Y-87297285D01*
X103394190Y-87202047D01*
X103489428Y-87154428D01*
X103727523Y-87154428D01*
X103822761Y-87106809D01*
X104298952Y-87535380D02*
X104298952Y-86868714D01*
X104298952Y-86963952D02*
X104346571Y-86916333D01*
X104441809Y-86868714D01*
X104584666Y-86868714D01*
X104679904Y-86916333D01*
X104727523Y-87011571D01*
X104727523Y-87535380D01*
X104727523Y-87011571D02*
X104775142Y-86916333D01*
X104870380Y-86868714D01*
X105013238Y-86868714D01*
X105108476Y-86916333D01*
X105156095Y-87011571D01*
X105156095Y-87535380D01*
X106013238Y-87487761D02*
X105918000Y-87535380D01*
X105727523Y-87535380D01*
X105632285Y-87487761D01*
X105584666Y-87392523D01*
X105584666Y-87011571D01*
X105632285Y-86916333D01*
X105727523Y-86868714D01*
X105918000Y-86868714D01*
X106013238Y-86916333D01*
X106060857Y-87011571D01*
X106060857Y-87106809D01*
X105584666Y-87202047D01*
X106441809Y-87487761D02*
X106537047Y-87535380D01*
X106727523Y-87535380D01*
X106822761Y-87487761D01*
X106870380Y-87392523D01*
X106870380Y-87344904D01*
X106822761Y-87249666D01*
X106727523Y-87202047D01*
X106584666Y-87202047D01*
X106489428Y-87154428D01*
X106441809Y-87059190D01*
X106441809Y-87011571D01*
X106489428Y-86916333D01*
X106584666Y-86868714D01*
X106727523Y-86868714D01*
X106822761Y-86916333D01*
X108013238Y-86630619D02*
X108060857Y-86583000D01*
X108156095Y-86535380D01*
X108394190Y-86535380D01*
X108489428Y-86583000D01*
X108537047Y-86630619D01*
X108584666Y-86725857D01*
X108584666Y-86821095D01*
X108537047Y-86963952D01*
X107965619Y-87535380D01*
X108584666Y-87535380D01*
X109727523Y-86487761D02*
X108870380Y-87773476D01*
X110013238Y-86630619D02*
X110060857Y-86583000D01*
X110156095Y-86535380D01*
X110394190Y-86535380D01*
X110489428Y-86583000D01*
X110537047Y-86630619D01*
X110584666Y-86725857D01*
X110584666Y-86821095D01*
X110537047Y-86963952D01*
X109965619Y-87535380D01*
X110584666Y-87535380D01*
X111156095Y-86963952D02*
X111060857Y-86916333D01*
X111013238Y-86868714D01*
X110965619Y-86773476D01*
X110965619Y-86725857D01*
X111013238Y-86630619D01*
X111060857Y-86583000D01*
X111156095Y-86535380D01*
X111346571Y-86535380D01*
X111441809Y-86583000D01*
X111489428Y-86630619D01*
X111537047Y-86725857D01*
X111537047Y-86773476D01*
X111489428Y-86868714D01*
X111441809Y-86916333D01*
X111346571Y-86963952D01*
X111156095Y-86963952D01*
X111060857Y-87011571D01*
X111013238Y-87059190D01*
X110965619Y-87154428D01*
X110965619Y-87344904D01*
X111013238Y-87440142D01*
X111060857Y-87487761D01*
X111156095Y-87535380D01*
X111346571Y-87535380D01*
X111441809Y-87487761D01*
X111489428Y-87440142D01*
X111537047Y-87344904D01*
X111537047Y-87154428D01*
X111489428Y-87059190D01*
X111441809Y-87011571D01*
X111346571Y-86963952D01*
X112679904Y-86487761D02*
X111822761Y-87773476D01*
X112965619Y-86630619D02*
X113013238Y-86583000D01*
X113108476Y-86535380D01*
X113346571Y-86535380D01*
X113441809Y-86583000D01*
X113489428Y-86630619D01*
X113537047Y-86725857D01*
X113537047Y-86821095D01*
X113489428Y-86963952D01*
X112918000Y-87535380D01*
X113537047Y-87535380D01*
X113870380Y-86535380D02*
X114489428Y-86535380D01*
X114156095Y-86916333D01*
X114298952Y-86916333D01*
X114394190Y-86963952D01*
X114441809Y-87011571D01*
X114489428Y-87106809D01*
X114489428Y-87344904D01*
X114441809Y-87440142D01*
X114394190Y-87487761D01*
X114298952Y-87535380D01*
X114013238Y-87535380D01*
X113918000Y-87487761D01*
X113870380Y-87440142D01*
X119134095Y-116848000D02*
X119038857Y-116800380D01*
X118896000Y-116800380D01*
X118753142Y-116848000D01*
X118657904Y-116943238D01*
X118610285Y-117038476D01*
X118562666Y-117228952D01*
X118562666Y-117371809D01*
X118610285Y-117562285D01*
X118657904Y-117657523D01*
X118753142Y-117752761D01*
X118896000Y-117800380D01*
X118991238Y-117800380D01*
X119134095Y-117752761D01*
X119181714Y-117705142D01*
X119181714Y-117371809D01*
X118991238Y-117371809D01*
X119610285Y-117800380D02*
X119610285Y-116800380D01*
X120181714Y-117800380D01*
X120181714Y-116800380D01*
X120657904Y-117800380D02*
X120657904Y-116800380D01*
X120896000Y-116800380D01*
X121038857Y-116848000D01*
X121134095Y-116943238D01*
X121181714Y-117038476D01*
X121229333Y-117228952D01*
X121229333Y-117371809D01*
X121181714Y-117562285D01*
X121134095Y-117657523D01*
X121038857Y-117752761D01*
X120896000Y-117800380D01*
X120657904Y-117800380D01*
X121657904Y-117800380D02*
X121657904Y-116800380D01*
X121896000Y-116800380D01*
X122038857Y-116848000D01*
X122134095Y-116943238D01*
X122181714Y-117038476D01*
X122229333Y-117228952D01*
X122229333Y-117371809D01*
X122181714Y-117562285D01*
X122134095Y-117657523D01*
X122038857Y-117752761D01*
X121896000Y-117800380D01*
X121657904Y-117800380D01*
X119681714Y-112688666D02*
X120157904Y-112688666D01*
X119586476Y-112974380D02*
X119919809Y-111974380D01*
X120253142Y-112974380D01*
X121015047Y-111974380D02*
X120824571Y-111974380D01*
X120729333Y-112022000D01*
X120681714Y-112069619D01*
X120586476Y-112212476D01*
X120538857Y-112402952D01*
X120538857Y-112783904D01*
X120586476Y-112879142D01*
X120634095Y-112926761D01*
X120729333Y-112974380D01*
X120919809Y-112974380D01*
X121015047Y-112926761D01*
X121062666Y-112879142D01*
X121110285Y-112783904D01*
X121110285Y-112545809D01*
X121062666Y-112450571D01*
X121015047Y-112402952D01*
X120919809Y-112355333D01*
X120729333Y-112355333D01*
X120634095Y-112402952D01*
X120586476Y-112450571D01*
X120538857Y-112545809D01*
X119935714Y-109894666D02*
X120411904Y-109894666D01*
X119840476Y-110180380D02*
X120173809Y-109180380D01*
X120507142Y-110180380D01*
X120745238Y-109180380D02*
X121411904Y-109180380D01*
X120983333Y-110180380D01*
D11*
X109819714Y-124964000D02*
X110534000Y-124964000D01*
X109676857Y-125392571D02*
X110176857Y-123892571D01*
X110676857Y-125392571D01*
X111176857Y-124392571D02*
X111176857Y-125392571D01*
X111176857Y-124535428D02*
X111248285Y-124464000D01*
X111391142Y-124392571D01*
X111605428Y-124392571D01*
X111748285Y-124464000D01*
X111819714Y-124606857D01*
X111819714Y-125392571D01*
X113176857Y-125392571D02*
X113176857Y-124606857D01*
X113105428Y-124464000D01*
X112962571Y-124392571D01*
X112676857Y-124392571D01*
X112534000Y-124464000D01*
X113176857Y-125321142D02*
X113034000Y-125392571D01*
X112676857Y-125392571D01*
X112534000Y-125321142D01*
X112462571Y-125178285D01*
X112462571Y-125035428D01*
X112534000Y-124892571D01*
X112676857Y-124821142D01*
X113034000Y-124821142D01*
X113176857Y-124749714D01*
X114105428Y-125392571D02*
X113962571Y-125321142D01*
X113891142Y-125178285D01*
X113891142Y-123892571D01*
X114891142Y-125392571D02*
X114748285Y-125321142D01*
X114676857Y-125249714D01*
X114605428Y-125106857D01*
X114605428Y-124678285D01*
X114676857Y-124535428D01*
X114748285Y-124464000D01*
X114891142Y-124392571D01*
X115105428Y-124392571D01*
X115248285Y-124464000D01*
X115319714Y-124535428D01*
X115391142Y-124678285D01*
X115391142Y-125106857D01*
X115319714Y-125249714D01*
X115248285Y-125321142D01*
X115105428Y-125392571D01*
X114891142Y-125392571D01*
X116676857Y-124392571D02*
X116676857Y-125606857D01*
X116605428Y-125749714D01*
X116534000Y-125821142D01*
X116391142Y-125892571D01*
X116176857Y-125892571D01*
X116034000Y-125821142D01*
X116676857Y-125321142D02*
X116534000Y-125392571D01*
X116248285Y-125392571D01*
X116105428Y-125321142D01*
X116034000Y-125249714D01*
X115962571Y-125106857D01*
X115962571Y-124678285D01*
X116034000Y-124535428D01*
X116105428Y-124464000D01*
X116248285Y-124392571D01*
X116534000Y-124392571D01*
X116676857Y-124464000D01*
D12*
%TO.C,C19*%
X75049142Y-79953142D02*
X75001523Y-80000761D01*
X74858666Y-80048380D01*
X74763428Y-80048380D01*
X74620571Y-80000761D01*
X74525333Y-79905523D01*
X74477714Y-79810285D01*
X74430095Y-79619809D01*
X74430095Y-79476952D01*
X74477714Y-79286476D01*
X74525333Y-79191238D01*
X74620571Y-79096000D01*
X74763428Y-79048380D01*
X74858666Y-79048380D01*
X75001523Y-79096000D01*
X75049142Y-79143619D01*
X76001523Y-80048380D02*
X75430095Y-80048380D01*
X75715809Y-80048380D02*
X75715809Y-79048380D01*
X75620571Y-79191238D01*
X75525333Y-79286476D01*
X75430095Y-79334095D01*
X76477714Y-80048380D02*
X76668190Y-80048380D01*
X76763428Y-80000761D01*
X76811047Y-79953142D01*
X76906285Y-79810285D01*
X76953904Y-79619809D01*
X76953904Y-79238857D01*
X76906285Y-79143619D01*
X76858666Y-79096000D01*
X76763428Y-79048380D01*
X76572952Y-79048380D01*
X76477714Y-79096000D01*
X76430095Y-79143619D01*
X76382476Y-79238857D01*
X76382476Y-79476952D01*
X76430095Y-79572190D01*
X76477714Y-79619809D01*
X76572952Y-79667428D01*
X76763428Y-79667428D01*
X76858666Y-79619809D01*
X76906285Y-79572190D01*
X76953904Y-79476952D01*
%TO.C,J2*%
X123872666Y-119135380D02*
X123872666Y-119849666D01*
X123825047Y-119992523D01*
X123729809Y-120087761D01*
X123586952Y-120135380D01*
X123491714Y-120135380D01*
X124301238Y-119230619D02*
X124348857Y-119183000D01*
X124444095Y-119135380D01*
X124682190Y-119135380D01*
X124777428Y-119183000D01*
X124825047Y-119230619D01*
X124872666Y-119325857D01*
X124872666Y-119421095D01*
X124825047Y-119563952D01*
X124253619Y-120135380D01*
X124872666Y-120135380D01*
%TO.C,C11*%
X94353142Y-117451142D02*
X94305523Y-117498761D01*
X94162666Y-117546380D01*
X94067428Y-117546380D01*
X93924571Y-117498761D01*
X93829333Y-117403523D01*
X93781714Y-117308285D01*
X93734095Y-117117809D01*
X93734095Y-116974952D01*
X93781714Y-116784476D01*
X93829333Y-116689238D01*
X93924571Y-116594000D01*
X94067428Y-116546380D01*
X94162666Y-116546380D01*
X94305523Y-116594000D01*
X94353142Y-116641619D01*
X95305523Y-117546380D02*
X94734095Y-117546380D01*
X95019809Y-117546380D02*
X95019809Y-116546380D01*
X94924571Y-116689238D01*
X94829333Y-116784476D01*
X94734095Y-116832095D01*
X96257904Y-117546380D02*
X95686476Y-117546380D01*
X95972190Y-117546380D02*
X95972190Y-116546380D01*
X95876952Y-116689238D01*
X95781714Y-116784476D01*
X95686476Y-116832095D01*
%TO.C,C15*%
X68699142Y-79859142D02*
X68651523Y-79906761D01*
X68508666Y-79954380D01*
X68413428Y-79954380D01*
X68270571Y-79906761D01*
X68175333Y-79811523D01*
X68127714Y-79716285D01*
X68080095Y-79525809D01*
X68080095Y-79382952D01*
X68127714Y-79192476D01*
X68175333Y-79097238D01*
X68270571Y-79002000D01*
X68413428Y-78954380D01*
X68508666Y-78954380D01*
X68651523Y-79002000D01*
X68699142Y-79049619D01*
X69651523Y-79954380D02*
X69080095Y-79954380D01*
X69365809Y-79954380D02*
X69365809Y-78954380D01*
X69270571Y-79097238D01*
X69175333Y-79192476D01*
X69080095Y-79240095D01*
X70556285Y-78954380D02*
X70080095Y-78954380D01*
X70032476Y-79430571D01*
X70080095Y-79382952D01*
X70175333Y-79335333D01*
X70413428Y-79335333D01*
X70508666Y-79382952D01*
X70556285Y-79430571D01*
X70603904Y-79525809D01*
X70603904Y-79763904D01*
X70556285Y-79859142D01*
X70508666Y-79906761D01*
X70413428Y-79954380D01*
X70175333Y-79954380D01*
X70080095Y-79906761D01*
X70032476Y-79859142D01*
%TO.C,J3*%
X50766666Y-90222380D02*
X50766666Y-90936666D01*
X50719047Y-91079523D01*
X50623809Y-91174761D01*
X50480952Y-91222380D01*
X50385714Y-91222380D01*
X51147619Y-90222380D02*
X51766666Y-90222380D01*
X51433333Y-90603333D01*
X51576190Y-90603333D01*
X51671428Y-90650952D01*
X51719047Y-90698571D01*
X51766666Y-90793809D01*
X51766666Y-91031904D01*
X51719047Y-91127142D01*
X51671428Y-91174761D01*
X51576190Y-91222380D01*
X51290476Y-91222380D01*
X51195238Y-91174761D01*
X51147619Y-91127142D01*
%TO.C,R3*%
X90511333Y-113990380D02*
X90178000Y-113514190D01*
X89939904Y-113990380D02*
X89939904Y-112990380D01*
X90320857Y-112990380D01*
X90416095Y-113038000D01*
X90463714Y-113085619D01*
X90511333Y-113180857D01*
X90511333Y-113323714D01*
X90463714Y-113418952D01*
X90416095Y-113466571D01*
X90320857Y-113514190D01*
X89939904Y-113514190D01*
X90844666Y-112990380D02*
X91463714Y-112990380D01*
X91130380Y-113371333D01*
X91273238Y-113371333D01*
X91368476Y-113418952D01*
X91416095Y-113466571D01*
X91463714Y-113561809D01*
X91463714Y-113799904D01*
X91416095Y-113895142D01*
X91368476Y-113942761D01*
X91273238Y-113990380D01*
X90987523Y-113990380D01*
X90892285Y-113942761D01*
X90844666Y-113895142D01*
D13*
%TO.C,IC1*%
X62788238Y-80685023D02*
X62788238Y-79415023D01*
X64118714Y-80564071D02*
X64058238Y-80624547D01*
X63876809Y-80685023D01*
X63755857Y-80685023D01*
X63574428Y-80624547D01*
X63453476Y-80503595D01*
X63393000Y-80382642D01*
X63332523Y-80140738D01*
X63332523Y-79959309D01*
X63393000Y-79717404D01*
X63453476Y-79596452D01*
X63574428Y-79475500D01*
X63755857Y-79415023D01*
X63876809Y-79415023D01*
X64058238Y-79475500D01*
X64118714Y-79535976D01*
X65328238Y-80685023D02*
X64602523Y-80685023D01*
X64965380Y-80685023D02*
X64965380Y-79415023D01*
X64844428Y-79596452D01*
X64723476Y-79717404D01*
X64602523Y-79777880D01*
D12*
%TO.C,C16*%
X56761142Y-80367142D02*
X56713523Y-80414761D01*
X56570666Y-80462380D01*
X56475428Y-80462380D01*
X56332571Y-80414761D01*
X56237333Y-80319523D01*
X56189714Y-80224285D01*
X56142095Y-80033809D01*
X56142095Y-79890952D01*
X56189714Y-79700476D01*
X56237333Y-79605238D01*
X56332571Y-79510000D01*
X56475428Y-79462380D01*
X56570666Y-79462380D01*
X56713523Y-79510000D01*
X56761142Y-79557619D01*
X57713523Y-80462380D02*
X57142095Y-80462380D01*
X57427809Y-80462380D02*
X57427809Y-79462380D01*
X57332571Y-79605238D01*
X57237333Y-79700476D01*
X57142095Y-79748095D01*
X58570666Y-79462380D02*
X58380190Y-79462380D01*
X58284952Y-79510000D01*
X58237333Y-79557619D01*
X58142095Y-79700476D01*
X58094476Y-79890952D01*
X58094476Y-80271904D01*
X58142095Y-80367142D01*
X58189714Y-80414761D01*
X58284952Y-80462380D01*
X58475428Y-80462380D01*
X58570666Y-80414761D01*
X58618285Y-80367142D01*
X58665904Y-80271904D01*
X58665904Y-80033809D01*
X58618285Y-79938571D01*
X58570666Y-79890952D01*
X58475428Y-79843333D01*
X58284952Y-79843333D01*
X58189714Y-79890952D01*
X58142095Y-79938571D01*
X58094476Y-80033809D01*
%TO.C,R4*%
X85377600Y-113838380D02*
X85044267Y-113362190D01*
X84806171Y-113838380D02*
X84806171Y-112838380D01*
X85187124Y-112838380D01*
X85282362Y-112886000D01*
X85329981Y-112933619D01*
X85377600Y-113028857D01*
X85377600Y-113171714D01*
X85329981Y-113266952D01*
X85282362Y-113314571D01*
X85187124Y-113362190D01*
X84806171Y-113362190D01*
X86234743Y-113171714D02*
X86234743Y-113838380D01*
X85996647Y-112790761D02*
X85758552Y-113505047D01*
X86377600Y-113505047D01*
%TO.C,J1*%
X84762380Y-131651333D02*
X85476666Y-131651333D01*
X85619523Y-131698952D01*
X85714761Y-131794190D01*
X85762380Y-131937047D01*
X85762380Y-132032285D01*
X85762380Y-130651333D02*
X85762380Y-131222761D01*
X85762380Y-130937047D02*
X84762380Y-130937047D01*
X84905238Y-131032285D01*
X85000476Y-131127523D01*
X85048095Y-131222761D01*
%TO.C,R6*%
X90511333Y-120848380D02*
X90178000Y-120372190D01*
X89939904Y-120848380D02*
X89939904Y-119848380D01*
X90320857Y-119848380D01*
X90416095Y-119896000D01*
X90463714Y-119943619D01*
X90511333Y-120038857D01*
X90511333Y-120181714D01*
X90463714Y-120276952D01*
X90416095Y-120324571D01*
X90320857Y-120372190D01*
X89939904Y-120372190D01*
X91368476Y-119848380D02*
X91178000Y-119848380D01*
X91082761Y-119896000D01*
X91035142Y-119943619D01*
X90939904Y-120086476D01*
X90892285Y-120276952D01*
X90892285Y-120657904D01*
X90939904Y-120753142D01*
X90987523Y-120800761D01*
X91082761Y-120848380D01*
X91273238Y-120848380D01*
X91368476Y-120800761D01*
X91416095Y-120753142D01*
X91463714Y-120657904D01*
X91463714Y-120419809D01*
X91416095Y-120324571D01*
X91368476Y-120276952D01*
X91273238Y-120229333D01*
X91082761Y-120229333D01*
X90987523Y-120276952D01*
X90939904Y-120324571D01*
X90892285Y-120419809D01*
%TO.C,R11*%
X99687142Y-127198380D02*
X99353809Y-126722190D01*
X99115714Y-127198380D02*
X99115714Y-126198380D01*
X99496666Y-126198380D01*
X99591904Y-126246000D01*
X99639523Y-126293619D01*
X99687142Y-126388857D01*
X99687142Y-126531714D01*
X99639523Y-126626952D01*
X99591904Y-126674571D01*
X99496666Y-126722190D01*
X99115714Y-126722190D01*
X100639523Y-127198380D02*
X100068095Y-127198380D01*
X100353809Y-127198380D02*
X100353809Y-126198380D01*
X100258571Y-126341238D01*
X100163333Y-126436476D01*
X100068095Y-126484095D01*
X101591904Y-127198380D02*
X101020476Y-127198380D01*
X101306190Y-127198380D02*
X101306190Y-126198380D01*
X101210952Y-126341238D01*
X101115714Y-126436476D01*
X101020476Y-126484095D01*
%TO.C,C2*%
X85193142Y-91606666D02*
X85240761Y-91654285D01*
X85288380Y-91797142D01*
X85288380Y-91892380D01*
X85240761Y-92035238D01*
X85145523Y-92130476D01*
X85050285Y-92178095D01*
X84859809Y-92225714D01*
X84716952Y-92225714D01*
X84526476Y-92178095D01*
X84431238Y-92130476D01*
X84336000Y-92035238D01*
X84288380Y-91892380D01*
X84288380Y-91797142D01*
X84336000Y-91654285D01*
X84383619Y-91606666D01*
X84383619Y-91225714D02*
X84336000Y-91178095D01*
X84288380Y-91082857D01*
X84288380Y-90844761D01*
X84336000Y-90749523D01*
X84383619Y-90701904D01*
X84478857Y-90654285D01*
X84574095Y-90654285D01*
X84716952Y-90701904D01*
X85288380Y-91273333D01*
X85288380Y-90654285D01*
%TO.C,C10*%
X96871142Y-101703142D02*
X96823523Y-101750761D01*
X96680666Y-101798380D01*
X96585428Y-101798380D01*
X96442571Y-101750761D01*
X96347333Y-101655523D01*
X96299714Y-101560285D01*
X96252095Y-101369809D01*
X96252095Y-101226952D01*
X96299714Y-101036476D01*
X96347333Y-100941238D01*
X96442571Y-100846000D01*
X96585428Y-100798380D01*
X96680666Y-100798380D01*
X96823523Y-100846000D01*
X96871142Y-100893619D01*
X97823523Y-101798380D02*
X97252095Y-101798380D01*
X97537809Y-101798380D02*
X97537809Y-100798380D01*
X97442571Y-100941238D01*
X97347333Y-101036476D01*
X97252095Y-101084095D01*
X98442571Y-100798380D02*
X98537809Y-100798380D01*
X98633047Y-100846000D01*
X98680666Y-100893619D01*
X98728285Y-100988857D01*
X98775904Y-101179333D01*
X98775904Y-101417428D01*
X98728285Y-101607904D01*
X98680666Y-101703142D01*
X98633047Y-101750761D01*
X98537809Y-101798380D01*
X98442571Y-101798380D01*
X98347333Y-101750761D01*
X98299714Y-101703142D01*
X98252095Y-101607904D01*
X98204476Y-101417428D01*
X98204476Y-101179333D01*
X98252095Y-100988857D01*
X98299714Y-100893619D01*
X98347333Y-100846000D01*
X98442571Y-100798380D01*
%TO.C,C4*%
X86971142Y-100242666D02*
X87018761Y-100290285D01*
X87066380Y-100433142D01*
X87066380Y-100528380D01*
X87018761Y-100671238D01*
X86923523Y-100766476D01*
X86828285Y-100814095D01*
X86637809Y-100861714D01*
X86494952Y-100861714D01*
X86304476Y-100814095D01*
X86209238Y-100766476D01*
X86114000Y-100671238D01*
X86066380Y-100528380D01*
X86066380Y-100433142D01*
X86114000Y-100290285D01*
X86161619Y-100242666D01*
X86399714Y-99385523D02*
X87066380Y-99385523D01*
X86018761Y-99623619D02*
X86733047Y-99861714D01*
X86733047Y-99242666D01*
%TO.C,R9*%
X96607333Y-124658380D02*
X96274000Y-124182190D01*
X96035904Y-124658380D02*
X96035904Y-123658380D01*
X96416857Y-123658380D01*
X96512095Y-123706000D01*
X96559714Y-123753619D01*
X96607333Y-123848857D01*
X96607333Y-123991714D01*
X96559714Y-124086952D01*
X96512095Y-124134571D01*
X96416857Y-124182190D01*
X96035904Y-124182190D01*
X97083523Y-124658380D02*
X97274000Y-124658380D01*
X97369238Y-124610761D01*
X97416857Y-124563142D01*
X97512095Y-124420285D01*
X97559714Y-124229809D01*
X97559714Y-123848857D01*
X97512095Y-123753619D01*
X97464476Y-123706000D01*
X97369238Y-123658380D01*
X97178761Y-123658380D01*
X97083523Y-123706000D01*
X97035904Y-123753619D01*
X96988285Y-123848857D01*
X96988285Y-124086952D01*
X97035904Y-124182190D01*
X97083523Y-124229809D01*
X97178761Y-124277428D01*
X97369238Y-124277428D01*
X97464476Y-124229809D01*
X97512095Y-124182190D01*
X97559714Y-124086952D01*
%TO.C,C18*%
X64127142Y-119483142D02*
X64079523Y-119530761D01*
X63936666Y-119578380D01*
X63841428Y-119578380D01*
X63698571Y-119530761D01*
X63603333Y-119435523D01*
X63555714Y-119340285D01*
X63508095Y-119149809D01*
X63508095Y-119006952D01*
X63555714Y-118816476D01*
X63603333Y-118721238D01*
X63698571Y-118626000D01*
X63841428Y-118578380D01*
X63936666Y-118578380D01*
X64079523Y-118626000D01*
X64127142Y-118673619D01*
X65079523Y-119578380D02*
X64508095Y-119578380D01*
X64793809Y-119578380D02*
X64793809Y-118578380D01*
X64698571Y-118721238D01*
X64603333Y-118816476D01*
X64508095Y-118864095D01*
X65650952Y-119006952D02*
X65555714Y-118959333D01*
X65508095Y-118911714D01*
X65460476Y-118816476D01*
X65460476Y-118768857D01*
X65508095Y-118673619D01*
X65555714Y-118626000D01*
X65650952Y-118578380D01*
X65841428Y-118578380D01*
X65936666Y-118626000D01*
X65984285Y-118673619D01*
X66031904Y-118768857D01*
X66031904Y-118816476D01*
X65984285Y-118911714D01*
X65936666Y-118959333D01*
X65841428Y-119006952D01*
X65650952Y-119006952D01*
X65555714Y-119054571D01*
X65508095Y-119102190D01*
X65460476Y-119197428D01*
X65460476Y-119387904D01*
X65508095Y-119483142D01*
X65555714Y-119530761D01*
X65650952Y-119578380D01*
X65841428Y-119578380D01*
X65936666Y-119530761D01*
X65984285Y-119483142D01*
X66031904Y-119387904D01*
X66031904Y-119197428D01*
X65984285Y-119102190D01*
X65936666Y-119054571D01*
X65841428Y-119006952D01*
%TO.C,R8*%
X83145333Y-122118380D02*
X82812000Y-121642190D01*
X82573904Y-122118380D02*
X82573904Y-121118380D01*
X82954857Y-121118380D01*
X83050095Y-121166000D01*
X83097714Y-121213619D01*
X83145333Y-121308857D01*
X83145333Y-121451714D01*
X83097714Y-121546952D01*
X83050095Y-121594571D01*
X82954857Y-121642190D01*
X82573904Y-121642190D01*
X83716761Y-121546952D02*
X83621523Y-121499333D01*
X83573904Y-121451714D01*
X83526285Y-121356476D01*
X83526285Y-121308857D01*
X83573904Y-121213619D01*
X83621523Y-121166000D01*
X83716761Y-121118380D01*
X83907238Y-121118380D01*
X84002476Y-121166000D01*
X84050095Y-121213619D01*
X84097714Y-121308857D01*
X84097714Y-121356476D01*
X84050095Y-121451714D01*
X84002476Y-121499333D01*
X83907238Y-121546952D01*
X83716761Y-121546952D01*
X83621523Y-121594571D01*
X83573904Y-121642190D01*
X83526285Y-121737428D01*
X83526285Y-121927904D01*
X83573904Y-122023142D01*
X83621523Y-122070761D01*
X83716761Y-122118380D01*
X83907238Y-122118380D01*
X84002476Y-122070761D01*
X84050095Y-122023142D01*
X84097714Y-121927904D01*
X84097714Y-121737428D01*
X84050095Y-121642190D01*
X84002476Y-121594571D01*
X83907238Y-121546952D01*
%TO.C,C14*%
X61029892Y-119483142D02*
X60982273Y-119530761D01*
X60839416Y-119578380D01*
X60744178Y-119578380D01*
X60601321Y-119530761D01*
X60506083Y-119435523D01*
X60458464Y-119340285D01*
X60410845Y-119149809D01*
X60410845Y-119006952D01*
X60458464Y-118816476D01*
X60506083Y-118721238D01*
X60601321Y-118626000D01*
X60744178Y-118578380D01*
X60839416Y-118578380D01*
X60982273Y-118626000D01*
X61029892Y-118673619D01*
X61982273Y-119578380D02*
X61410845Y-119578380D01*
X61696559Y-119578380D02*
X61696559Y-118578380D01*
X61601321Y-118721238D01*
X61506083Y-118816476D01*
X61410845Y-118864095D01*
X62839416Y-118911714D02*
X62839416Y-119578380D01*
X62601321Y-118530761D02*
X62363226Y-119245047D01*
X62982273Y-119245047D01*
%TO.C,R7*%
X100163333Y-120086380D02*
X99830000Y-119610190D01*
X99591904Y-120086380D02*
X99591904Y-119086380D01*
X99972857Y-119086380D01*
X100068095Y-119134000D01*
X100115714Y-119181619D01*
X100163333Y-119276857D01*
X100163333Y-119419714D01*
X100115714Y-119514952D01*
X100068095Y-119562571D01*
X99972857Y-119610190D01*
X99591904Y-119610190D01*
X100496666Y-119086380D02*
X101163333Y-119086380D01*
X100734761Y-120086380D01*
%TO.C,R10*%
X86479142Y-124404380D02*
X86145809Y-123928190D01*
X85907714Y-124404380D02*
X85907714Y-123404380D01*
X86288666Y-123404380D01*
X86383904Y-123452000D01*
X86431523Y-123499619D01*
X86479142Y-123594857D01*
X86479142Y-123737714D01*
X86431523Y-123832952D01*
X86383904Y-123880571D01*
X86288666Y-123928190D01*
X85907714Y-123928190D01*
X87431523Y-124404380D02*
X86860095Y-124404380D01*
X87145809Y-124404380D02*
X87145809Y-123404380D01*
X87050571Y-123547238D01*
X86955333Y-123642476D01*
X86860095Y-123690095D01*
X88050571Y-123404380D02*
X88145809Y-123404380D01*
X88241047Y-123452000D01*
X88288666Y-123499619D01*
X88336285Y-123594857D01*
X88383904Y-123785333D01*
X88383904Y-124023428D01*
X88336285Y-124213904D01*
X88288666Y-124309142D01*
X88241047Y-124356761D01*
X88145809Y-124404380D01*
X88050571Y-124404380D01*
X87955333Y-124356761D01*
X87907714Y-124309142D01*
X87860095Y-124213904D01*
X87812476Y-124023428D01*
X87812476Y-123785333D01*
X87860095Y-123594857D01*
X87907714Y-123499619D01*
X87955333Y-123452000D01*
X88050571Y-123404380D01*
%TO.C,R2*%
X96879333Y-113664380D02*
X96546000Y-113188190D01*
X96307904Y-113664380D02*
X96307904Y-112664380D01*
X96688857Y-112664380D01*
X96784095Y-112712000D01*
X96831714Y-112759619D01*
X96879333Y-112854857D01*
X96879333Y-112997714D01*
X96831714Y-113092952D01*
X96784095Y-113140571D01*
X96688857Y-113188190D01*
X96307904Y-113188190D01*
X97260285Y-112759619D02*
X97307904Y-112712000D01*
X97403142Y-112664380D01*
X97641238Y-112664380D01*
X97736476Y-112712000D01*
X97784095Y-112759619D01*
X97831714Y-112854857D01*
X97831714Y-112950095D01*
X97784095Y-113092952D01*
X97212666Y-113664380D01*
X97831714Y-113664380D01*
D13*
%TO.C,U1*%
X90980380Y-91506523D02*
X90980380Y-92534619D01*
X91040857Y-92655571D01*
X91101333Y-92716047D01*
X91222285Y-92776523D01*
X91464190Y-92776523D01*
X91585142Y-92716047D01*
X91645619Y-92655571D01*
X91706095Y-92534619D01*
X91706095Y-91506523D01*
X92976095Y-92776523D02*
X92250380Y-92776523D01*
X92613238Y-92776523D02*
X92613238Y-91506523D01*
X92492285Y-91687952D01*
X92371333Y-91808904D01*
X92250380Y-91869380D01*
%TO.C,Y1*%
X81945238Y-82519761D02*
X81945238Y-83124523D01*
X81521904Y-81854523D02*
X81945238Y-82519761D01*
X82368571Y-81854523D01*
X83457142Y-83124523D02*
X82731428Y-83124523D01*
X83094285Y-83124523D02*
X83094285Y-81854523D01*
X82973333Y-82035952D01*
X82852380Y-82156904D01*
X82731428Y-82217380D01*
D12*
%TO.C,C7*%
X88495142Y-108110666D02*
X88542761Y-108158285D01*
X88590380Y-108301142D01*
X88590380Y-108396380D01*
X88542761Y-108539238D01*
X88447523Y-108634476D01*
X88352285Y-108682095D01*
X88161809Y-108729714D01*
X88018952Y-108729714D01*
X87828476Y-108682095D01*
X87733238Y-108634476D01*
X87638000Y-108539238D01*
X87590380Y-108396380D01*
X87590380Y-108301142D01*
X87638000Y-108158285D01*
X87685619Y-108110666D01*
X87590380Y-107777333D02*
X87590380Y-107110666D01*
X88590380Y-107539238D01*
%TO.C,C1*%
X85193142Y-99988666D02*
X85240761Y-100036285D01*
X85288380Y-100179142D01*
X85288380Y-100274380D01*
X85240761Y-100417238D01*
X85145523Y-100512476D01*
X85050285Y-100560095D01*
X84859809Y-100607714D01*
X84716952Y-100607714D01*
X84526476Y-100560095D01*
X84431238Y-100512476D01*
X84336000Y-100417238D01*
X84288380Y-100274380D01*
X84288380Y-100179142D01*
X84336000Y-100036285D01*
X84383619Y-99988666D01*
X85288380Y-99036285D02*
X85288380Y-99607714D01*
X85288380Y-99322000D02*
X84288380Y-99322000D01*
X84431238Y-99417238D01*
X84526476Y-99512476D01*
X84574095Y-99607714D01*
D13*
%TO.C,IC2*%
X66701488Y-119700523D02*
X66701488Y-118430523D01*
X68031964Y-119579571D02*
X67971488Y-119640047D01*
X67790059Y-119700523D01*
X67669107Y-119700523D01*
X67487678Y-119640047D01*
X67366726Y-119519095D01*
X67306250Y-119398142D01*
X67245773Y-119156238D01*
X67245773Y-118974809D01*
X67306250Y-118732904D01*
X67366726Y-118611952D01*
X67487678Y-118491000D01*
X67669107Y-118430523D01*
X67790059Y-118430523D01*
X67971488Y-118491000D01*
X68031964Y-118551476D01*
X68515773Y-118551476D02*
X68576250Y-118491000D01*
X68697202Y-118430523D01*
X68999583Y-118430523D01*
X69120535Y-118491000D01*
X69181011Y-118551476D01*
X69241488Y-118672428D01*
X69241488Y-118793380D01*
X69181011Y-118974809D01*
X68455297Y-119700523D01*
X69241488Y-119700523D01*
D12*
%TO.C,C5*%
X86971142Y-91606666D02*
X87018761Y-91654285D01*
X87066380Y-91797142D01*
X87066380Y-91892380D01*
X87018761Y-92035238D01*
X86923523Y-92130476D01*
X86828285Y-92178095D01*
X86637809Y-92225714D01*
X86494952Y-92225714D01*
X86304476Y-92178095D01*
X86209238Y-92130476D01*
X86114000Y-92035238D01*
X86066380Y-91892380D01*
X86066380Y-91797142D01*
X86114000Y-91654285D01*
X86161619Y-91606666D01*
X86066380Y-90701904D02*
X86066380Y-91178095D01*
X86542571Y-91225714D01*
X86494952Y-91178095D01*
X86447333Y-91082857D01*
X86447333Y-90844761D01*
X86494952Y-90749523D01*
X86542571Y-90701904D01*
X86637809Y-90654285D01*
X86875904Y-90654285D01*
X86971142Y-90701904D01*
X87018761Y-90749523D01*
X87066380Y-90844761D01*
X87066380Y-91082857D01*
X87018761Y-91178095D01*
X86971142Y-91225714D01*
%TO.C,C9*%
X97149333Y-103227142D02*
X97101714Y-103274761D01*
X96958857Y-103322380D01*
X96863619Y-103322380D01*
X96720761Y-103274761D01*
X96625523Y-103179523D01*
X96577904Y-103084285D01*
X96530285Y-102893809D01*
X96530285Y-102750952D01*
X96577904Y-102560476D01*
X96625523Y-102465238D01*
X96720761Y-102370000D01*
X96863619Y-102322380D01*
X96958857Y-102322380D01*
X97101714Y-102370000D01*
X97149333Y-102417619D01*
X97625523Y-103322380D02*
X97816000Y-103322380D01*
X97911238Y-103274761D01*
X97958857Y-103227142D01*
X98054095Y-103084285D01*
X98101714Y-102893809D01*
X98101714Y-102512857D01*
X98054095Y-102417619D01*
X98006476Y-102370000D01*
X97911238Y-102322380D01*
X97720761Y-102322380D01*
X97625523Y-102370000D01*
X97577904Y-102417619D01*
X97530285Y-102512857D01*
X97530285Y-102750952D01*
X97577904Y-102846190D01*
X97625523Y-102893809D01*
X97720761Y-102941428D01*
X97911238Y-102941428D01*
X98006476Y-102893809D01*
X98054095Y-102846190D01*
X98101714Y-102750952D01*
%TO.C,C13*%
X59809142Y-80367142D02*
X59761523Y-80414761D01*
X59618666Y-80462380D01*
X59523428Y-80462380D01*
X59380571Y-80414761D01*
X59285333Y-80319523D01*
X59237714Y-80224285D01*
X59190095Y-80033809D01*
X59190095Y-79890952D01*
X59237714Y-79700476D01*
X59285333Y-79605238D01*
X59380571Y-79510000D01*
X59523428Y-79462380D01*
X59618666Y-79462380D01*
X59761523Y-79510000D01*
X59809142Y-79557619D01*
X60761523Y-80462380D02*
X60190095Y-80462380D01*
X60475809Y-80462380D02*
X60475809Y-79462380D01*
X60380571Y-79605238D01*
X60285333Y-79700476D01*
X60190095Y-79748095D01*
X61094857Y-79462380D02*
X61713904Y-79462380D01*
X61380571Y-79843333D01*
X61523428Y-79843333D01*
X61618666Y-79890952D01*
X61666285Y-79938571D01*
X61713904Y-80033809D01*
X61713904Y-80271904D01*
X61666285Y-80367142D01*
X61618666Y-80414761D01*
X61523428Y-80462380D01*
X61237714Y-80462380D01*
X61142476Y-80414761D01*
X61094857Y-80367142D01*
%TO.C,C12*%
X86105142Y-117451142D02*
X86057523Y-117498761D01*
X85914666Y-117546380D01*
X85819428Y-117546380D01*
X85676571Y-117498761D01*
X85581333Y-117403523D01*
X85533714Y-117308285D01*
X85486095Y-117117809D01*
X85486095Y-116974952D01*
X85533714Y-116784476D01*
X85581333Y-116689238D01*
X85676571Y-116594000D01*
X85819428Y-116546380D01*
X85914666Y-116546380D01*
X86057523Y-116594000D01*
X86105142Y-116641619D01*
X87057523Y-117546380D02*
X86486095Y-117546380D01*
X86771809Y-117546380D02*
X86771809Y-116546380D01*
X86676571Y-116689238D01*
X86581333Y-116784476D01*
X86486095Y-116832095D01*
X87438476Y-116641619D02*
X87486095Y-116594000D01*
X87581333Y-116546380D01*
X87819428Y-116546380D01*
X87914666Y-116594000D01*
X87962285Y-116641619D01*
X88009904Y-116736857D01*
X88009904Y-116832095D01*
X87962285Y-116974952D01*
X87390857Y-117546380D01*
X88009904Y-117546380D01*
%TO.C,C17*%
X71239142Y-119229142D02*
X71191523Y-119276761D01*
X71048666Y-119324380D01*
X70953428Y-119324380D01*
X70810571Y-119276761D01*
X70715333Y-119181523D01*
X70667714Y-119086285D01*
X70620095Y-118895809D01*
X70620095Y-118752952D01*
X70667714Y-118562476D01*
X70715333Y-118467238D01*
X70810571Y-118372000D01*
X70953428Y-118324380D01*
X71048666Y-118324380D01*
X71191523Y-118372000D01*
X71239142Y-118419619D01*
X72191523Y-119324380D02*
X71620095Y-119324380D01*
X71905809Y-119324380D02*
X71905809Y-118324380D01*
X71810571Y-118467238D01*
X71715333Y-118562476D01*
X71620095Y-118610095D01*
X72524857Y-118324380D02*
X73191523Y-118324380D01*
X72762952Y-119324380D01*
%TO.C,C8*%
X97623333Y-107291142D02*
X97575714Y-107338761D01*
X97432857Y-107386380D01*
X97337619Y-107386380D01*
X97194761Y-107338761D01*
X97099523Y-107243523D01*
X97051904Y-107148285D01*
X97004285Y-106957809D01*
X97004285Y-106814952D01*
X97051904Y-106624476D01*
X97099523Y-106529238D01*
X97194761Y-106434000D01*
X97337619Y-106386380D01*
X97432857Y-106386380D01*
X97575714Y-106434000D01*
X97623333Y-106481619D01*
X98194761Y-106814952D02*
X98099523Y-106767333D01*
X98051904Y-106719714D01*
X98004285Y-106624476D01*
X98004285Y-106576857D01*
X98051904Y-106481619D01*
X98099523Y-106434000D01*
X98194761Y-106386380D01*
X98385238Y-106386380D01*
X98480476Y-106434000D01*
X98528095Y-106481619D01*
X98575714Y-106576857D01*
X98575714Y-106624476D01*
X98528095Y-106719714D01*
X98480476Y-106767333D01*
X98385238Y-106814952D01*
X98194761Y-106814952D01*
X98099523Y-106862571D01*
X98051904Y-106910190D01*
X98004285Y-107005428D01*
X98004285Y-107195904D01*
X98051904Y-107291142D01*
X98099523Y-107338761D01*
X98194761Y-107386380D01*
X98385238Y-107386380D01*
X98480476Y-107338761D01*
X98528095Y-107291142D01*
X98575714Y-107195904D01*
X98575714Y-107005428D01*
X98528095Y-106910190D01*
X98480476Y-106862571D01*
X98385238Y-106814952D01*
%TO.C,R5*%
X93813333Y-114018380D02*
X93480000Y-113542190D01*
X93241904Y-114018380D02*
X93241904Y-113018380D01*
X93622857Y-113018380D01*
X93718095Y-113066000D01*
X93765714Y-113113619D01*
X93813333Y-113208857D01*
X93813333Y-113351714D01*
X93765714Y-113446952D01*
X93718095Y-113494571D01*
X93622857Y-113542190D01*
X93241904Y-113542190D01*
X94718095Y-113018380D02*
X94241904Y-113018380D01*
X94194285Y-113494571D01*
X94241904Y-113446952D01*
X94337142Y-113399333D01*
X94575238Y-113399333D01*
X94670476Y-113446952D01*
X94718095Y-113494571D01*
X94765714Y-113589809D01*
X94765714Y-113827904D01*
X94718095Y-113923142D01*
X94670476Y-113970761D01*
X94575238Y-114018380D01*
X94337142Y-114018380D01*
X94241904Y-113970761D01*
X94194285Y-113923142D01*
%TO.C,C6*%
X86955333Y-103631142D02*
X86907714Y-103678761D01*
X86764857Y-103726380D01*
X86669619Y-103726380D01*
X86526761Y-103678761D01*
X86431523Y-103583523D01*
X86383904Y-103488285D01*
X86336285Y-103297809D01*
X86336285Y-103154952D01*
X86383904Y-102964476D01*
X86431523Y-102869238D01*
X86526761Y-102774000D01*
X86669619Y-102726380D01*
X86764857Y-102726380D01*
X86907714Y-102774000D01*
X86955333Y-102821619D01*
X87812476Y-102726380D02*
X87622000Y-102726380D01*
X87526761Y-102774000D01*
X87479142Y-102821619D01*
X87383904Y-102964476D01*
X87336285Y-103154952D01*
X87336285Y-103535904D01*
X87383904Y-103631142D01*
X87431523Y-103678761D01*
X87526761Y-103726380D01*
X87717238Y-103726380D01*
X87812476Y-103678761D01*
X87860095Y-103631142D01*
X87907714Y-103535904D01*
X87907714Y-103297809D01*
X87860095Y-103202571D01*
X87812476Y-103154952D01*
X87717238Y-103107333D01*
X87526761Y-103107333D01*
X87431523Y-103154952D01*
X87383904Y-103202571D01*
X87336285Y-103297809D01*
D14*
%TO.C,C19*%
X75545733Y-80516000D02*
X75838267Y-80516000D01*
X75545733Y-81536000D02*
X75838267Y-81536000D01*
%TO.C,J2*%
X125536000Y-117353000D02*
X125536000Y-118683000D01*
X125536000Y-118683000D02*
X124206000Y-118683000D01*
X125536000Y-116083000D02*
X122876000Y-116083000D01*
X125536000Y-88083000D02*
X122876000Y-88083000D01*
X125536000Y-116083000D02*
X125536000Y-88083000D01*
X122876000Y-116083000D02*
X122876000Y-88083000D01*
%TO.C,C11*%
X95142267Y-116080000D02*
X94849733Y-116080000D01*
X95142267Y-115060000D02*
X94849733Y-115060000D01*
%TO.C,C15*%
X69742750Y-82034767D02*
X69742750Y-81742233D01*
X68722750Y-82034767D02*
X68722750Y-81742233D01*
%TO.C,J3*%
X49770000Y-93100000D02*
X49770000Y-91770000D01*
X49770000Y-91770000D02*
X51100000Y-91770000D01*
X52430000Y-94370000D02*
X52430000Y-96970000D01*
X49770000Y-94370000D02*
X49770000Y-96970000D01*
X49770000Y-96970000D02*
X52430000Y-96970000D01*
X49770000Y-94370000D02*
X52430000Y-94370000D01*
%TO.C,R3*%
X89738000Y-109508936D02*
X89738000Y-110963064D01*
X91558000Y-109508936D02*
X91558000Y-110963064D01*
D15*
%TO.C,IC1*%
X64353000Y-84360500D02*
X63703000Y-84360500D01*
X64353000Y-81460500D02*
X64353000Y-84360500D01*
X63703000Y-81460500D02*
X64353000Y-81460500D01*
X62203000Y-81410500D02*
X63353000Y-81410500D01*
X63703000Y-84360500D02*
X63703000Y-81460500D01*
D14*
%TO.C,C16*%
X58884000Y-82796767D02*
X58884000Y-82504233D01*
X57864000Y-82796767D02*
X57864000Y-82504233D01*
%TO.C,R4*%
X84688000Y-109482936D02*
X84688000Y-110937064D01*
X86508000Y-109482936D02*
X86508000Y-110937064D01*
%TO.C,J1*%
X88910000Y-132648000D02*
X96590000Y-132648000D01*
X88910000Y-129988000D02*
X96590000Y-129988000D01*
X86310000Y-132648000D02*
X86310000Y-131318000D01*
X87640000Y-132648000D02*
X86310000Y-132648000D01*
X88910000Y-132648000D02*
X88910000Y-129988000D01*
X96590000Y-132648000D02*
X96590000Y-129988000D01*
%TO.C,R6*%
X89768000Y-116112936D02*
X89768000Y-117567064D01*
X91588000Y-116112936D02*
X91588000Y-117567064D01*
%TO.C,R11*%
X99364000Y-123689064D02*
X99364000Y-122234936D01*
X101184000Y-123689064D02*
X101184000Y-122234936D01*
%TO.C,C2*%
X84326000Y-93674733D02*
X84326000Y-93967267D01*
X85346000Y-93674733D02*
X85346000Y-93967267D01*
%TO.C,C10*%
X94319733Y-101856000D02*
X94612267Y-101856000D01*
X94319733Y-100836000D02*
X94612267Y-100836000D01*
%TO.C,C4*%
X85990000Y-97253733D02*
X85990000Y-97546267D01*
X87010000Y-97253733D02*
X87010000Y-97546267D01*
%TO.C,R9*%
X97684000Y-120176936D02*
X97684000Y-121631064D01*
X95864000Y-120176936D02*
X95864000Y-121631064D01*
%TO.C,C18*%
X64271250Y-116239733D02*
X64271250Y-116532267D01*
X65291250Y-116239733D02*
X65291250Y-116532267D01*
%TO.C,R8*%
X84158000Y-117382936D02*
X84158000Y-118837064D01*
X82338000Y-117382936D02*
X82338000Y-118837064D01*
%TO.C,C14*%
X62448000Y-116239733D02*
X62448000Y-116532267D01*
X61428000Y-116239733D02*
X61428000Y-116532267D01*
%TO.C,R7*%
X101184000Y-115510936D02*
X101184000Y-116965064D01*
X99364000Y-115510936D02*
X99364000Y-116965064D01*
%TO.C,R10*%
X86212000Y-121377064D02*
X86212000Y-119922936D01*
X88032000Y-121377064D02*
X88032000Y-119922936D01*
%TO.C,R2*%
X97938000Y-109254936D02*
X97938000Y-110709064D01*
X96118000Y-109254936D02*
X96118000Y-110709064D01*
D10*
%TO.C,U1*%
X89173000Y-93766000D02*
G75*
G03*
X89173000Y-93766000I-125000J0D01*
G01*
D15*
%TO.C,Y1*%
X80494000Y-86956000D02*
X80494000Y-86956000D01*
X80294000Y-86956000D02*
X80294000Y-86956000D01*
X80494000Y-86956000D02*
G75*
G03*
X80294000Y-86956000I-100000J0D01*
G01*
X80294000Y-86956000D02*
G75*
G03*
X80494000Y-86956000I100000J0D01*
G01*
D14*
%TO.C,C7*%
X87538000Y-105517733D02*
X87538000Y-105810267D01*
X88558000Y-105517733D02*
X88558000Y-105810267D01*
%TO.C,C1*%
X85346000Y-97230733D02*
X85346000Y-97523267D01*
X84326000Y-97230733D02*
X84326000Y-97523267D01*
D15*
%TO.C,IC2*%
X66116250Y-114832000D02*
X67266250Y-114832000D01*
X68266250Y-114882000D02*
X68266250Y-117782000D01*
X67616250Y-114882000D02*
X68266250Y-114882000D01*
X68266250Y-117782000D02*
X67616250Y-117782000D01*
X67616250Y-117782000D02*
X67616250Y-114882000D01*
D14*
%TO.C,C5*%
X86104000Y-93967267D02*
X86104000Y-93674733D01*
X87124000Y-93967267D02*
X87124000Y-93674733D01*
%TO.C,C9*%
X94375733Y-102360000D02*
X94668267Y-102360000D01*
X94375733Y-103380000D02*
X94668267Y-103380000D01*
%TO.C,C13*%
X61170000Y-82897267D02*
X61170000Y-82604733D01*
X60150000Y-82897267D02*
X60150000Y-82604733D01*
%TO.C,C12*%
X86894267Y-116080000D02*
X86601733Y-116080000D01*
X86894267Y-115060000D02*
X86601733Y-115060000D01*
%TO.C,C17*%
X72149250Y-116278267D02*
X72149250Y-115985733D01*
X71129250Y-116278267D02*
X71129250Y-115985733D01*
%TO.C,C8*%
X97501733Y-105154000D02*
X97794267Y-105154000D01*
X97501733Y-106174000D02*
X97794267Y-106174000D01*
%TO.C,R5*%
X93070000Y-109508936D02*
X93070000Y-110963064D01*
X94890000Y-109508936D02*
X94890000Y-110963064D01*
%TO.C,C6*%
X86919733Y-102364000D02*
X87212267Y-102364000D01*
X86919733Y-101344000D02*
X87212267Y-101344000D01*
%TD*%
M02*
