%TF.GenerationSoftware,KiCad,Pcbnew,(6.0.10)*%
%TF.CreationDate,2023-04-10T11:55:32-07:00*%
%TF.ProjectId,PCM5242,50434d35-3234-4322-9e6b-696361645f70,rev?*%
%TF.SameCoordinates,Original*%
%TF.FileFunction,Copper,L1,Top*%
%TF.FilePolarity,Positive*%
%FSLAX46Y46*%
G04 Gerber Fmt 4.6, Leading zero omitted, Abs format (unit mm)*
G04 Created by KiCad (PCBNEW (6.0.10)) date 2023-04-10 11:55:32*
%MOMM*%
%LPD*%
G01*
G04 APERTURE LIST*
G04 Aperture macros list*
%AMRoundRect*
0 Rectangle with rounded corners*
0 $1 Rounding radius*
0 $2 $3 $4 $5 $6 $7 $8 $9 X,Y pos of 4 corners*
0 Add a 4 corners polygon primitive as box body*
4,1,4,$2,$3,$4,$5,$6,$7,$8,$9,$2,$3,0*
0 Add four circle primitives for the rounded corners*
1,1,$1+$1,$2,$3*
1,1,$1+$1,$4,$5*
1,1,$1+$1,$6,$7*
1,1,$1+$1,$8,$9*
0 Add four rect primitives between the rounded corners*
20,1,$1+$1,$2,$3,$4,$5,0*
20,1,$1+$1,$4,$5,$6,$7,0*
20,1,$1+$1,$6,$7,$8,$9,0*
20,1,$1+$1,$8,$9,$2,$3,0*%
G04 Aperture macros list end*
%TA.AperFunction,ComponentPad*%
%ADD10R,1.700000X1.700000*%
%TD*%
%TA.AperFunction,ComponentPad*%
%ADD11O,1.700000X1.700000*%
%TD*%
%TA.AperFunction,SMDPad,CuDef*%
%ADD12RoundRect,0.237500X0.237500X-0.300000X0.237500X0.300000X-0.237500X0.300000X-0.237500X-0.300000X0*%
%TD*%
%TA.AperFunction,SMDPad,CuDef*%
%ADD13R,1.100000X1.300000*%
%TD*%
%TA.AperFunction,SMDPad,CuDef*%
%ADD14RoundRect,0.237500X0.300000X0.237500X-0.300000X0.237500X-0.300000X-0.237500X0.300000X-0.237500X0*%
%TD*%
%TA.AperFunction,SMDPad,CuDef*%
%ADD15R,1.150000X0.600000*%
%TD*%
%TA.AperFunction,SMDPad,CuDef*%
%ADD16RoundRect,0.237500X-0.237500X0.300000X-0.237500X-0.300000X0.237500X-0.300000X0.237500X0.300000X0*%
%TD*%
%TA.AperFunction,SMDPad,CuDef*%
%ADD17RoundRect,0.237500X-0.300000X-0.237500X0.300000X-0.237500X0.300000X0.237500X-0.300000X0.237500X0*%
%TD*%
%TA.AperFunction,SMDPad,CuDef*%
%ADD18RoundRect,0.062500X-0.375000X-0.062500X0.375000X-0.062500X0.375000X0.062500X-0.375000X0.062500X0*%
%TD*%
%TA.AperFunction,SMDPad,CuDef*%
%ADD19RoundRect,0.062500X-0.062500X-0.375000X0.062500X-0.375000X0.062500X0.375000X-0.062500X0.375000X0*%
%TD*%
%TA.AperFunction,SMDPad,CuDef*%
%ADD20R,3.100000X3.100000*%
%TD*%
%TA.AperFunction,ViaPad*%
%ADD21C,1.000000*%
%TD*%
%TA.AperFunction,Conductor*%
%ADD22C,0.250000*%
%TD*%
%TA.AperFunction,Conductor*%
%ADD23C,1.000000*%
%TD*%
%TA.AperFunction,Conductor*%
%ADD24C,0.500000*%
%TD*%
%TA.AperFunction,Conductor*%
%ADD25C,0.750000*%
%TD*%
%TA.AperFunction,Conductor*%
%ADD26C,0.200000*%
%TD*%
G04 APERTURE END LIST*
D10*
%TO.P,J2,1,Pin_1*%
%TO.N,GND*%
X149270000Y-119352500D03*
D11*
%TO.P,J2,2,Pin_2*%
%TO.N,/SDA*%
X149270000Y-116812500D03*
%TO.P,J2,3,Pin_3*%
%TO.N,/SCL*%
X149270000Y-114272500D03*
%TO.P,J2,4,Pin_4*%
%TO.N,/GPIO5*%
X149270000Y-111732500D03*
%TO.P,J2,5,Pin_5*%
%TO.N,/GPIO4*%
X149270000Y-109192500D03*
%TO.P,J2,6,Pin_6*%
%TO.N,/GPIO3*%
X149270000Y-106652500D03*
%TO.P,J2,7,Pin_7*%
%TO.N,/ADR2*%
X149270000Y-104112500D03*
%TO.P,J2,8,Pin_8*%
%TO.N,/GPIO6*%
X149270000Y-101572500D03*
%TO.P,J2,9,Pin_9*%
%TO.N,/BCK*%
X149270000Y-99032500D03*
%TO.P,J2,10,Pin_10*%
%TO.N,/DIN*%
X149270000Y-96492500D03*
%TO.P,J2,11,Pin_11*%
%TO.N,/LRCK*%
X149270000Y-93952500D03*
%TO.P,J2,12,Pin_12*%
%TO.N,/ADR1*%
X149270000Y-91412500D03*
%TD*%
D12*
%TO.P,C10,1*%
%TO.N,GND*%
X99000000Y-103862500D03*
%TO.P,C10,2*%
%TO.N,DVDD*%
X99000000Y-102137500D03*
%TD*%
D13*
%TO.P,Y1,1,_TRI-STATE_(STBY)*%
%TO.N,DVDD*%
X112175000Y-92668400D03*
%TO.P,Y1,2,GND/CASE*%
%TO.N,GND*%
X112175000Y-94768400D03*
%TO.P,Y1,3,OUTPUT*%
%TO.N,SCK*%
X113825000Y-94768400D03*
%TO.P,Y1,4,VDD*%
%TO.N,DVDD*%
X113825000Y-92668400D03*
%TD*%
D14*
%TO.P,C13,1*%
%TO.N,DVDD*%
X113862500Y-89500000D03*
%TO.P,C13,2*%
%TO.N,GND*%
X112137500Y-89500000D03*
%TD*%
D15*
%TO.P,IC1,1,IN*%
%TO.N,VCC*%
X94350000Y-102150000D03*
%TO.P,IC1,2,GND*%
%TO.N,GND*%
X94350000Y-103100000D03*
%TO.P,IC1,3,EN*%
%TO.N,VCC*%
X94350000Y-104050000D03*
%TO.P,IC1,4,NC*%
%TO.N,unconnected-(IC1-Pad4)*%
X96850000Y-104050000D03*
%TO.P,IC1,5,OUT*%
%TO.N,DVDD*%
X96850000Y-102150000D03*
%TD*%
D12*
%TO.P,C11,1*%
%TO.N,VCC*%
X92400000Y-104062500D03*
%TO.P,C11,2*%
%TO.N,GND*%
X92400000Y-102337500D03*
%TD*%
D16*
%TO.P,C1,1*%
%TO.N,GND*%
X111713400Y-103426500D03*
%TO.P,C1,2*%
%TO.N,DVDD*%
X111713400Y-105151500D03*
%TD*%
D10*
%TO.P,J3,1,Pin_1*%
%TO.N,GND*%
X87298000Y-104940000D03*
D11*
%TO.P,J3,2,Pin_2*%
%TO.N,VCC*%
X87298000Y-107480000D03*
%TD*%
D12*
%TO.P,C15,1*%
%TO.N,VCC*%
X90700000Y-109462500D03*
%TO.P,C15,2*%
%TO.N,GND*%
X90700000Y-107737500D03*
%TD*%
%TO.P,C2,1*%
%TO.N,DVDD*%
X113720000Y-105125000D03*
%TO.P,C2,2*%
%TO.N,GND*%
X113720000Y-103400000D03*
%TD*%
D17*
%TO.P,C8,1*%
%TO.N,AVDD*%
X119969500Y-111274000D03*
%TO.P,C8,2*%
%TO.N,GND*%
X121694500Y-111274000D03*
%TD*%
D15*
%TO.P,IC2,5,OUT*%
%TO.N,AVDD*%
X96650000Y-109650000D03*
%TO.P,IC2,4,NC*%
%TO.N,unconnected-(IC2-Pad4)*%
X96650000Y-111550000D03*
%TO.P,IC2,3,EN*%
%TO.N,VCC*%
X94150000Y-111550000D03*
%TO.P,IC2,2,GND*%
%TO.N,GND*%
X94150000Y-110600000D03*
%TO.P,IC2,1,IN*%
%TO.N,VCC*%
X94150000Y-109650000D03*
%TD*%
D16*
%TO.P,C5,1*%
%TO.N,Net-(C5-Pad1)*%
X111400000Y-111337500D03*
%TO.P,C5,2*%
%TO.N,Net-(C5-Pad2)*%
X111400000Y-113062500D03*
%TD*%
%TO.P,C4,1*%
%TO.N,AVDD*%
X113100000Y-107437500D03*
%TO.P,C4,2*%
%TO.N,GND*%
X113100000Y-109162500D03*
%TD*%
D12*
%TO.P,C12,1*%
%TO.N,VCC*%
X90700000Y-104062500D03*
%TO.P,C12,2*%
%TO.N,GND*%
X90700000Y-102337500D03*
%TD*%
D17*
%TO.P,C7,1*%
%TO.N,AVDD*%
X119969500Y-113204400D03*
%TO.P,C7,2*%
%TO.N,GND*%
X121694500Y-113204400D03*
%TD*%
D12*
%TO.P,C16,1*%
%TO.N,GND*%
X98600000Y-111362500D03*
%TO.P,C16,2*%
%TO.N,AVDD*%
X98600000Y-109637500D03*
%TD*%
D16*
%TO.P,C6,1*%
%TO.N,Net-(C6-Pad1)*%
X116298000Y-110436900D03*
%TO.P,C6,2*%
%TO.N,GND*%
X116298000Y-112161900D03*
%TD*%
D12*
%TO.P,C14,1*%
%TO.N,VCC*%
X92500000Y-109462500D03*
%TO.P,C14,2*%
%TO.N,GND*%
X92500000Y-107737500D03*
%TD*%
D10*
%TO.P,J1,1,Pin_1*%
%TO.N,/OUTLP*%
X114000000Y-127800000D03*
D11*
%TO.P,J1,2,Pin_2*%
%TO.N,/OUTLN*%
X116540000Y-127800000D03*
%TO.P,J1,3,Pin_3*%
%TO.N,/OUTRN*%
X119080000Y-127800000D03*
%TO.P,J1,4,Pin_4*%
%TO.N,/OUTRP*%
X121620000Y-127800000D03*
%TD*%
D16*
%TO.P,C9,1*%
%TO.N,Net-(C9-Pad1)*%
X124007000Y-108887500D03*
%TO.P,C9,2*%
%TO.N,GND*%
X124007000Y-110612500D03*
%TD*%
%TO.P,C3,1*%
%TO.N,AVDD*%
X111300000Y-107437500D03*
%TO.P,C3,2*%
%TO.N,GND*%
X111300000Y-109162500D03*
%TD*%
D18*
%TO.P,U1,1,XSMT*%
%TO.N,AVDD*%
X116362500Y-104190000D03*
%TO.P,U1,2,LDOO*%
%TO.N,/No Connect*%
X116362500Y-104690000D03*
%TO.P,U1,3,DGND*%
%TO.N,GND*%
X116362500Y-105190000D03*
%TO.P,U1,4,DVDD*%
%TO.N,DVDD*%
X116362500Y-105690000D03*
%TO.P,U1,5,CPVDD*%
%TO.N,AVDD*%
X116362500Y-106190000D03*
%TO.P,U1,6,CAPP*%
%TO.N,Net-(C5-Pad1)*%
X116362500Y-106690000D03*
%TO.P,U1,7,CPGND*%
%TO.N,GND*%
X116362500Y-107190000D03*
%TO.P,U1,8,CAPM*%
%TO.N,Net-(C5-Pad2)*%
X116362500Y-107690000D03*
D19*
%TO.P,U1,9,VNEG*%
%TO.N,Net-(C6-Pad1)*%
X117050000Y-108377500D03*
%TO.P,U1,10,OUTLP*%
%TO.N,/OUTLP*%
X117550000Y-108377500D03*
%TO.P,U1,11,OUTLN*%
%TO.N,/OUTLN*%
X118050000Y-108377500D03*
%TO.P,U1,12,OUTRN*%
%TO.N,/OUTRN*%
X118550000Y-108377500D03*
%TO.P,U1,13,OUTRP*%
%TO.N,/OUTRP*%
X119050000Y-108377500D03*
%TO.P,U1,14,AVDD*%
%TO.N,AVDD*%
X119550000Y-108377500D03*
%TO.P,U1,15,AGND*%
%TO.N,GND*%
X120050000Y-108377500D03*
%TO.P,U1,16,VCOM*%
%TO.N,Net-(C9-Pad1)*%
X120550000Y-108377500D03*
D18*
%TO.P,U1,17,SDA*%
%TO.N,/SDA*%
X121237500Y-107690000D03*
%TO.P,U1,18,SCL*%
%TO.N,/SCL*%
X121237500Y-107190000D03*
%TO.P,U1,19,GPIO5*%
%TO.N,/GPIO5*%
X121237500Y-106690000D03*
%TO.P,U1,20,GPIO4*%
%TO.N,/GPIO4*%
X121237500Y-106190000D03*
%TO.P,U1,21,GPIO3*%
%TO.N,/GPIO3*%
X121237500Y-105690000D03*
%TO.P,U1,22,ADR2*%
%TO.N,/ADR2*%
X121237500Y-105190000D03*
%TO.P,U1,23,MODE1*%
%TO.N,GND*%
X121237500Y-104690000D03*
%TO.P,U1,24,MODE2*%
%TO.N,DVDD*%
X121237500Y-104190000D03*
D19*
%TO.P,U1,25,GPIO6*%
%TO.N,/GPIO6*%
X120550000Y-103502500D03*
%TO.P,U1,26,SCK*%
%TO.N,SCK*%
X120050000Y-103502500D03*
%TO.P,U1,27,BCK*%
%TO.N,/BCK*%
X119550000Y-103502500D03*
%TO.P,U1,28,DIN*%
%TO.N,/DIN*%
X119050000Y-103502500D03*
%TO.P,U1,29,NC*%
%TO.N,/No Connect*%
X118550000Y-103502500D03*
%TO.P,U1,30,NC*%
X118050000Y-103502500D03*
%TO.P,U1,31,LRCK*%
%TO.N,/LRCK*%
X117550000Y-103502500D03*
%TO.P,U1,32,ADR1*%
%TO.N,/ADR1*%
X117050000Y-103502500D03*
D20*
%TO.P,U1,33,GND*%
%TO.N,GND*%
X118800000Y-105940000D03*
%TD*%
D21*
%TO.N,GND*%
X91637500Y-100537500D03*
X99000000Y-105100000D03*
X98700000Y-112900000D03*
X92400000Y-111100000D03*
X94100000Y-107800000D03*
%TO.N,AVDD*%
X105862500Y-107437500D03*
X116000000Y-116100000D03*
X108000000Y-102000000D03*
X120000000Y-115000000D03*
%TO.N,GND*%
X112000000Y-96500000D03*
X123000000Y-112000000D03*
X116000000Y-114000000D03*
X123500000Y-104250000D03*
X110500000Y-110000000D03*
X110500000Y-89500000D03*
X118800000Y-105940000D03*
X109500000Y-103500000D03*
%TO.N,DVDD*%
X122750000Y-103000000D03*
X116500000Y-92750000D03*
%TO.N,SCK*%
X117000000Y-98000000D03*
X121000000Y-102000000D03*
%TD*%
D22*
%TO.N,/GPIO6*%
X121341727Y-102825000D02*
X122566727Y-101600000D01*
X149242500Y-101600000D02*
X149270000Y-101572500D01*
X121227500Y-102825000D02*
X121341727Y-102825000D01*
X122566727Y-101600000D02*
X149242500Y-101600000D01*
X120550000Y-103502500D02*
X121227500Y-102825000D01*
D23*
%TO.N,DVDD*%
X108469100Y-92668400D02*
X99000000Y-102137500D01*
X112175000Y-92668400D02*
X108469100Y-92668400D01*
D24*
%TO.N,VCC*%
X95500000Y-110175000D02*
X95500000Y-111025000D01*
X95500000Y-111025000D02*
X94975000Y-111550000D01*
X94975000Y-109650000D02*
X95500000Y-110175000D01*
X93850000Y-109650000D02*
X94975000Y-109650000D01*
X93100000Y-109662500D02*
X93837500Y-109662500D01*
X93837500Y-109662500D02*
X93850000Y-109650000D01*
X94975000Y-111550000D02*
X93850000Y-111550000D01*
D23*
%TO.N,GND*%
X98600000Y-112800000D02*
X98700000Y-112900000D01*
X98600000Y-111362500D02*
X98600000Y-112800000D01*
X91637500Y-102337500D02*
X92400000Y-102337500D01*
X91637500Y-102337500D02*
X91637500Y-100537500D01*
X90700000Y-102337500D02*
X91637500Y-102337500D01*
D25*
X93162500Y-103100000D02*
X92400000Y-102337500D01*
X94350000Y-103100000D02*
X93162500Y-103100000D01*
D23*
X99000000Y-103862500D02*
X99000000Y-105100000D01*
D24*
X92900000Y-110600000D02*
X92400000Y-111100000D01*
X94150000Y-110600000D02*
X92900000Y-110600000D01*
D23*
X90700000Y-107737500D02*
X92500000Y-107737500D01*
X94100000Y-107800000D02*
X94037500Y-107737500D01*
X92500000Y-107737500D02*
X94037500Y-107737500D01*
%TO.N,AVDD*%
X105862500Y-107437500D02*
X100800000Y-107437500D01*
X98738325Y-109637500D02*
X98600000Y-109637500D01*
X105200825Y-116100000D02*
X98738325Y-109637500D01*
X116000000Y-116100000D02*
X105200825Y-116100000D01*
X100800000Y-107437500D02*
X98600000Y-109637500D01*
X111300000Y-107437500D02*
X105862500Y-107437500D01*
%TO.N,DVDD*%
X102500000Y-105200000D02*
X99500000Y-102200000D01*
X111664900Y-105200000D02*
X102500000Y-105200000D01*
X111713400Y-105151500D02*
X111664900Y-105200000D01*
%TO.N,VCC*%
X90700000Y-105280081D02*
X90700000Y-104062500D01*
X87298000Y-107480000D02*
X88500081Y-107480000D01*
X88500081Y-107480000D02*
X90700000Y-105280081D01*
X92637500Y-109600000D02*
X94150000Y-109600000D01*
X92500000Y-109462500D02*
X92637500Y-109600000D01*
X90700000Y-109462500D02*
X92500000Y-109462500D01*
X89418000Y-109600000D02*
X91200000Y-109600000D01*
X87298000Y-107480000D02*
X89418000Y-109600000D01*
%TO.N,AVDD*%
X98587500Y-109650000D02*
X98600000Y-109637500D01*
X96650000Y-109650000D02*
X98587500Y-109650000D01*
D24*
%TO.N,DVDD*%
X98987500Y-102150000D02*
X99000000Y-102137500D01*
D23*
X96850000Y-102150000D02*
X98987500Y-102150000D01*
D24*
%TO.N,VCC*%
X95375000Y-102525000D02*
X95000000Y-102150000D01*
X95100000Y-104200000D02*
X95375000Y-103925000D01*
X94350000Y-104200000D02*
X95100000Y-104200000D01*
X95375000Y-103925000D02*
X95375000Y-102525000D01*
X95000000Y-102150000D02*
X94350000Y-102150000D01*
D23*
X92537500Y-104200000D02*
X94350000Y-104200000D01*
X92400000Y-104062500D02*
X92537500Y-104200000D01*
X90700000Y-104062500D02*
X92400000Y-104062500D01*
D24*
%TO.N,AVDD*%
X119969500Y-111274000D02*
X119969500Y-113204400D01*
D23*
X113100000Y-107437500D02*
X113075700Y-107413200D01*
D22*
X119550000Y-109550000D02*
X120000000Y-110000000D01*
X119550000Y-108377500D02*
X119550000Y-109550000D01*
D24*
X120000000Y-110000000D02*
X120000000Y-111243500D01*
D25*
X119969500Y-113204400D02*
X119969500Y-114969500D01*
D23*
X113075700Y-107413200D02*
X111815000Y-107413200D01*
D22*
X119969500Y-114969500D02*
X120000000Y-115000000D01*
X114172500Y-102000000D02*
X116362500Y-104190000D01*
D26*
X116362500Y-106190000D02*
X114917800Y-106190000D01*
D23*
X108000000Y-102000000D02*
X114172500Y-102000000D01*
D24*
X120000000Y-111243500D02*
X119969500Y-111274000D01*
D22*
X114917800Y-106190000D02*
X113670300Y-107437500D01*
D23*
X113500000Y-107437500D02*
X113100000Y-107437500D01*
D22*
X113670300Y-107437500D02*
X113500000Y-107437500D01*
D26*
X111815000Y-107413200D02*
X111764200Y-107464000D01*
D23*
%TO.N,GND*%
X111713400Y-103426500D02*
X109573500Y-103426500D01*
D22*
X123060000Y-104690000D02*
X123500000Y-104250000D01*
D23*
X121694500Y-111274000D02*
X122274000Y-111274000D01*
D22*
X116362500Y-107190000D02*
X115876992Y-107190000D01*
D23*
X109573500Y-103426500D02*
X109500000Y-103500000D01*
X121795600Y-113204400D02*
X123000000Y-112000000D01*
X112137500Y-89500000D02*
X110500000Y-89500000D01*
X124007000Y-110612500D02*
X124007000Y-110993000D01*
D24*
X115100000Y-104700000D02*
X115020000Y-104700000D01*
D23*
X124007000Y-110993000D02*
X123000000Y-112000000D01*
X113100000Y-109162500D02*
X111790700Y-109162500D01*
D22*
X114550000Y-109681891D02*
X112031891Y-112200000D01*
D23*
X113720000Y-103400000D02*
X111739900Y-103400000D01*
X122274000Y-111274000D02*
X123000000Y-112000000D01*
D22*
X112031891Y-112200000D02*
X110929505Y-112200000D01*
X115876992Y-107190000D02*
X114550000Y-108516992D01*
X115590000Y-105190000D02*
X115100000Y-104700000D01*
D23*
X121694500Y-113204400D02*
X121795600Y-113204400D01*
D22*
X120050000Y-108863008D02*
X121694500Y-110507508D01*
D23*
X112175000Y-96325000D02*
X112000000Y-96500000D01*
D22*
X116362500Y-105190000D02*
X115590000Y-105190000D01*
D23*
X111790700Y-109162500D02*
X111764200Y-109189000D01*
X116298000Y-112161900D02*
X116298000Y-113702000D01*
X111311000Y-109189000D02*
X110500000Y-110000000D01*
X111764200Y-109189000D02*
X111311000Y-109189000D01*
D22*
X114550000Y-108516992D02*
X114550000Y-109681891D01*
D23*
X116298000Y-113702000D02*
X116000000Y-114000000D01*
D22*
X121694500Y-110507508D02*
X121694500Y-111274000D01*
D23*
X111739900Y-103400000D02*
X111713400Y-103426500D01*
D22*
X110500000Y-111770495D02*
X110500000Y-110000000D01*
X110929505Y-112200000D02*
X110500000Y-111770495D01*
D23*
X112175000Y-94768400D02*
X112175000Y-96325000D01*
D22*
X120050000Y-108377500D02*
X120050000Y-108863008D01*
D24*
X115020000Y-104700000D02*
X113720000Y-103400000D01*
D22*
X121237500Y-104690000D02*
X123060000Y-104690000D01*
D26*
%TO.N,DVDD*%
X111739900Y-105125000D02*
X111713400Y-105151500D01*
D22*
X116500000Y-92750000D02*
X116418400Y-92668400D01*
X116362500Y-105690000D02*
X114285000Y-105690000D01*
X121560000Y-104190000D02*
X122750000Y-103000000D01*
D23*
X113720000Y-105125000D02*
X111739900Y-105125000D01*
D24*
X114285000Y-105690000D02*
X113720000Y-105125000D01*
D23*
X112175000Y-92668400D02*
X113825000Y-92668400D01*
X113862500Y-89500000D02*
X113862500Y-92630900D01*
D22*
X121237500Y-104190000D02*
X121560000Y-104190000D01*
D23*
X116418400Y-92668400D02*
X113825000Y-92668400D01*
X113862500Y-92630900D02*
X113825000Y-92668400D01*
D22*
%TO.N,Net-(C6-Pad1)*%
X117050000Y-108377500D02*
X117050000Y-109684900D01*
X117050000Y-109684900D02*
X116298000Y-110436900D01*
%TO.N,/OUTLP*%
X117574999Y-124225001D02*
X114000000Y-127800000D01*
D26*
X117550000Y-108377500D02*
X117574999Y-108402499D01*
D22*
X117574999Y-108402499D02*
X117574999Y-124225001D01*
D26*
%TO.N,/OUTLN*%
X116540000Y-125896397D02*
X116540000Y-127800000D01*
X118050000Y-108377500D02*
X118025001Y-108402499D01*
D22*
X118025001Y-124411396D02*
X116540000Y-125896397D01*
X118025001Y-108402499D02*
X118025001Y-124411396D01*
D26*
%TO.N,/OUTRN*%
X118550000Y-108377500D02*
X118574999Y-108402499D01*
X119080000Y-125896397D02*
X119080000Y-127800000D01*
X118574999Y-125391396D02*
X119080000Y-125896397D01*
D22*
X118574999Y-108402499D02*
X118574999Y-125391396D01*
D26*
%TO.N,/OUTRP*%
X119050000Y-108377500D02*
X119025001Y-108402499D01*
D22*
X119025001Y-108402499D02*
X119025001Y-125205001D01*
D26*
X119025001Y-125205001D02*
X121620000Y-127800000D01*
D22*
%TO.N,/SDA*%
X121237500Y-107690000D02*
X140147500Y-107690000D01*
X140147500Y-107690000D02*
X149270000Y-116812500D01*
%TO.N,/SCL*%
X142187500Y-107190000D02*
X149270000Y-114272500D01*
X121237500Y-107190000D02*
X142187500Y-107190000D01*
%TO.N,/GPIO5*%
X121237500Y-106690000D02*
X144227500Y-106690000D01*
X144227500Y-106690000D02*
X149270000Y-111732500D01*
%TO.N,/GPIO4*%
X121237500Y-106190000D02*
X146267500Y-106190000D01*
X146267500Y-106190000D02*
X149270000Y-109192500D01*
%TO.N,/GPIO3*%
X148307500Y-105690000D02*
X149270000Y-106652500D01*
X121237500Y-105690000D02*
X148307500Y-105690000D01*
%TO.N,/ADR2*%
X126387500Y-104112500D02*
X125310000Y-105190000D01*
X125310000Y-105190000D02*
X121237500Y-105190000D01*
X149270000Y-104112500D02*
X126387500Y-104112500D01*
%TO.N,/BCK*%
X122703896Y-99032500D02*
X149270000Y-99032500D01*
X119550000Y-103502500D02*
X119550000Y-102186396D01*
X119550000Y-102186396D02*
X122703896Y-99032500D01*
%TO.N,/DIN*%
X119050000Y-102050000D02*
X124607500Y-96492500D01*
X124607500Y-96492500D02*
X149270000Y-96492500D01*
X119050000Y-103502500D02*
X119050000Y-102050000D01*
%TO.N,/LRCK*%
X126047500Y-93952500D02*
X149270000Y-93952500D01*
X117550000Y-103502500D02*
X117550000Y-102450000D01*
X117550000Y-102450000D02*
X126047500Y-93952500D01*
%TO.N,/ADR1*%
X117050000Y-103502500D02*
X117050000Y-100950000D01*
X117050000Y-100950000D02*
X126587500Y-91412500D01*
X126587500Y-91412500D02*
X149270000Y-91412500D01*
%TO.N,/No Connect*%
X118050000Y-103502500D02*
X118550000Y-103502500D01*
%TO.N,SCK*%
X121000000Y-102000000D02*
X120050000Y-102950000D01*
X113767600Y-94767600D02*
X117000000Y-98000000D01*
X120050000Y-102950000D02*
X120050000Y-103502500D01*
%TO.N,Net-(C5-Pad1)*%
X114100000Y-109495495D02*
X112257995Y-111337500D01*
X115310000Y-106690000D02*
X114325000Y-107675000D01*
X114325000Y-107779226D02*
X114100000Y-108004226D01*
X116362500Y-106690000D02*
X115310000Y-106690000D01*
X114325000Y-107675000D02*
X114325000Y-107779226D01*
X114100000Y-108004226D02*
X114100000Y-109495495D01*
X112257995Y-111337500D02*
X111400000Y-111337500D01*
%TO.N,Net-(C5-Pad2)*%
X112184400Y-113062500D02*
X112373800Y-112873100D01*
X112373800Y-112873100D02*
X112373800Y-112626200D01*
X112373800Y-112626200D02*
X116362500Y-108637500D01*
X116362500Y-108637500D02*
X116362500Y-107690000D01*
X111400000Y-113062500D02*
X112184400Y-113062500D01*
%TO.N,Net-(C9-Pad1)*%
X120550000Y-108377500D02*
X121060000Y-108887500D01*
X121060000Y-108887500D02*
X124007000Y-108887500D01*
%TD*%
M02*
