M48
; DRILL file {KiCad (6.0.10)} date Mon Apr 10 11:55:41 2023
; FORMAT={-:-/ absolute / inch / decimal}
; #@! TF.CreationDate,2023-04-10T11:55:41-07:00
; #@! TF.GenerationSoftware,Kicad,Pcbnew,(6.0.10)
; #@! TF.FileFunction,Plated,1,2,PTH
FMAT,2
INCH
; #@! TA.AperFunction,Plated,PTH,ViaDrill
T1C0.0157
; #@! TA.AperFunction,Plated,PTH,ComponentDrill
T2C0.0394
%
G90
G05
T1
X3.6078Y-3.9582
X3.6378Y-4.374
X3.7047Y-4.2441
X3.8858Y-4.4449
X3.8976Y-4.1378
X4.1678Y-4.2298
X4.252Y-4.0157
X4.311Y-4.0748
X4.3504Y-3.5236
X4.3504Y-4.3307
X4.4094Y-3.7992
X4.5669Y-4.4882
X4.5669Y-4.5709
X4.5866Y-3.6516
X4.6063Y-3.8583
X4.6772Y-4.1709
X4.7244Y-4.5276
X4.7638Y-4.0157
X4.8327Y-4.0551
X4.8425Y-4.4094
X4.8622Y-4.1043
T2
X3.4369Y-4.1315
X3.4369Y-4.2315
X4.4882Y-5.0315
X4.5882Y-5.0315
X4.6882Y-5.0315
X4.7882Y-5.0315
X5.8768Y-3.5989
X5.8768Y-3.6989
X5.8768Y-3.7989
X5.8768Y-3.8989
X5.8768Y-3.9989
X5.8768Y-4.0989
X5.8768Y-4.1989
X5.8768Y-4.2989
X5.8768Y-4.3989
X5.8768Y-4.4989
X5.8768Y-4.5989
X5.8768Y-4.6989
T0
M30
