%TF.GenerationSoftware,KiCad,Pcbnew,(6.0.10)*%
%TF.CreationDate,2023-03-06T12:11:40-08:00*%
%TF.ProjectId,PCM5242,50434d35-3234-4322-9e6b-696361645f70,rev?*%
%TF.SameCoordinates,Original*%
%TF.FileFunction,Soldermask,Top*%
%TF.FilePolarity,Negative*%
%FSLAX46Y46*%
G04 Gerber Fmt 4.6, Leading zero omitted, Abs format (unit mm)*
G04 Created by KiCad (PCBNEW (6.0.10)) date 2023-03-06 12:11:40*
%MOMM*%
%LPD*%
G01*
G04 APERTURE LIST*
G04 Aperture macros list*
%AMRoundRect*
0 Rectangle with rounded corners*
0 $1 Rounding radius*
0 $2 $3 $4 $5 $6 $7 $8 $9 X,Y pos of 4 corners*
0 Add a 4 corners polygon primitive as box body*
4,1,4,$2,$3,$4,$5,$6,$7,$8,$9,$2,$3,0*
0 Add four circle primitives for the rounded corners*
1,1,$1+$1,$2,$3*
1,1,$1+$1,$4,$5*
1,1,$1+$1,$6,$7*
1,1,$1+$1,$8,$9*
0 Add four rect primitives between the rounded corners*
20,1,$1+$1,$2,$3,$4,$5,0*
20,1,$1+$1,$4,$5,$6,$7,0*
20,1,$1+$1,$6,$7,$8,$9,0*
20,1,$1+$1,$8,$9,$2,$3,0*%
G04 Aperture macros list end*
%ADD10RoundRect,0.237500X-0.300000X-0.237500X0.300000X-0.237500X0.300000X0.237500X-0.300000X0.237500X0*%
%ADD11C,2.200000*%
%ADD12R,1.700000X1.700000*%
%ADD13O,1.700000X1.700000*%
%ADD14RoundRect,0.237500X0.300000X0.237500X-0.300000X0.237500X-0.300000X-0.237500X0.300000X-0.237500X0*%
%ADD15RoundRect,0.237500X0.237500X-0.300000X0.237500X0.300000X-0.237500X0.300000X-0.237500X-0.300000X0*%
%ADD16RoundRect,0.250000X-0.625000X0.400000X-0.625000X-0.400000X0.625000X-0.400000X0.625000X0.400000X0*%
%ADD17R,1.150000X0.600000*%
%ADD18RoundRect,0.250000X0.625000X-0.400000X0.625000X0.400000X-0.625000X0.400000X-0.625000X-0.400000X0*%
%ADD19RoundRect,0.237500X-0.237500X0.300000X-0.237500X-0.300000X0.237500X-0.300000X0.237500X0.300000X0*%
%ADD20R,0.900000X0.300000*%
%ADD21R,0.300000X0.900000*%
%ADD22R,3.550000X3.550000*%
%ADD23R,1.300000X1.100000*%
G04 APERTURE END LIST*
D10*
%TO.C,C19*%
X74829500Y-81026000D03*
X76554500Y-81026000D03*
%TD*%
D11*
%TO.C,REF\u002A\u002A*%
X123952000Y-78486000D03*
%TD*%
D12*
%TO.C,J2*%
X124206000Y-117353000D03*
D13*
X124206000Y-114813000D03*
X124206000Y-112273000D03*
X124206000Y-109733000D03*
X124206000Y-107193000D03*
X124206000Y-104653000D03*
X124206000Y-102113000D03*
X124206000Y-99573000D03*
X124206000Y-97033000D03*
X124206000Y-94493000D03*
X124206000Y-91953000D03*
X124206000Y-89413000D03*
%TD*%
D14*
%TO.C,C11*%
X95858500Y-115570000D03*
X94133500Y-115570000D03*
%TD*%
D15*
%TO.C,C15*%
X69232750Y-82751000D03*
X69232750Y-81026000D03*
%TD*%
D12*
%TO.C,J3*%
X51100000Y-93100000D03*
D13*
X51100000Y-95640000D03*
%TD*%
D16*
%TO.C,R3*%
X90648000Y-108686000D03*
X90648000Y-111786000D03*
%TD*%
D17*
%TO.C,IC1*%
X62778000Y-81960500D03*
X62778000Y-82910500D03*
X62778000Y-83860500D03*
X65278000Y-83860500D03*
X65278000Y-81960500D03*
%TD*%
D15*
%TO.C,C16*%
X58374000Y-83513000D03*
X58374000Y-81788000D03*
%TD*%
D16*
%TO.C,R4*%
X85598000Y-108660000D03*
X85598000Y-111760000D03*
%TD*%
D12*
%TO.C,J1*%
X87640000Y-131318000D03*
D13*
X90180000Y-131318000D03*
X92720000Y-131318000D03*
X95260000Y-131318000D03*
%TD*%
D16*
%TO.C,R6*%
X90678000Y-115290000D03*
X90678000Y-118390000D03*
%TD*%
D18*
%TO.C,R11*%
X100274000Y-124512000D03*
X100274000Y-121412000D03*
%TD*%
D19*
%TO.C,C2*%
X84836000Y-92958500D03*
X84836000Y-94683500D03*
%TD*%
D10*
%TO.C,C10*%
X93603500Y-101346000D03*
X95328500Y-101346000D03*
%TD*%
D11*
%TO.C,REF\u002A\u002A*%
X122174000Y-130556000D03*
%TD*%
D19*
%TO.C,C4*%
X86500000Y-96537500D03*
X86500000Y-98262500D03*
%TD*%
D16*
%TO.C,R9*%
X96774000Y-119354000D03*
X96774000Y-122454000D03*
%TD*%
D19*
%TO.C,C18*%
X64781250Y-115523500D03*
X64781250Y-117248500D03*
%TD*%
D16*
%TO.C,R8*%
X83248000Y-116560000D03*
X83248000Y-119660000D03*
%TD*%
D19*
%TO.C,C14*%
X61938000Y-115523500D03*
X61938000Y-117248500D03*
%TD*%
D16*
%TO.C,R7*%
X100274000Y-114688000D03*
X100274000Y-117788000D03*
%TD*%
D18*
%TO.C,R10*%
X87122000Y-122200000D03*
X87122000Y-119100000D03*
%TD*%
D16*
%TO.C,R2*%
X97028000Y-108432000D03*
X97028000Y-111532000D03*
%TD*%
D20*
%TO.C,U1*%
X89498000Y-94516000D03*
X89498000Y-95016000D03*
X89498000Y-95516000D03*
X89498000Y-96016000D03*
X89498000Y-96516000D03*
X89498000Y-97016000D03*
X89498000Y-97516000D03*
X89498000Y-98016000D03*
D21*
X90198000Y-98716000D03*
X90698000Y-98716000D03*
X91198000Y-98716000D03*
X91698000Y-98716000D03*
X92198000Y-98716000D03*
X92698000Y-98716000D03*
X93198000Y-98716000D03*
X93698000Y-98716000D03*
D20*
X94398000Y-98016000D03*
X94398000Y-97516000D03*
X94398000Y-97016000D03*
X94398000Y-96516000D03*
X94398000Y-96016000D03*
X94398000Y-95516000D03*
X94398000Y-95016000D03*
X94398000Y-94516000D03*
D21*
X93698000Y-93816000D03*
X93198000Y-93816000D03*
X92698000Y-93816000D03*
X92198000Y-93816000D03*
X91698000Y-93816000D03*
X91198000Y-93816000D03*
X90698000Y-93816000D03*
X90198000Y-93816000D03*
D22*
X91948000Y-96266000D03*
%TD*%
D23*
%TO.C,Y1*%
X81444000Y-86781000D03*
X83544000Y-86781000D03*
X83544000Y-85131000D03*
X81444000Y-85131000D03*
%TD*%
D19*
%TO.C,C7*%
X88048000Y-104801500D03*
X88048000Y-106526500D03*
%TD*%
%TO.C,C1*%
X84836000Y-96514500D03*
X84836000Y-98239500D03*
%TD*%
D17*
%TO.C,IC2*%
X66691250Y-115382000D03*
X66691250Y-116332000D03*
X66691250Y-117282000D03*
X69191250Y-117282000D03*
X69191250Y-115382000D03*
%TD*%
D15*
%TO.C,C5*%
X86614000Y-94683500D03*
X86614000Y-92958500D03*
%TD*%
D10*
%TO.C,C9*%
X93659500Y-102870000D03*
X95384500Y-102870000D03*
%TD*%
D11*
%TO.C,REF\u002A\u002A*%
X50546000Y-78232000D03*
%TD*%
D15*
%TO.C,C13*%
X60660000Y-83613500D03*
X60660000Y-81888500D03*
%TD*%
D11*
%TO.C,REF\u002A\u002A*%
X50800000Y-131064000D03*
%TD*%
D14*
%TO.C,C12*%
X87610500Y-115570000D03*
X85885500Y-115570000D03*
%TD*%
D15*
%TO.C,C17*%
X71639250Y-116994500D03*
X71639250Y-115269500D03*
%TD*%
D10*
%TO.C,C8*%
X96785500Y-105664000D03*
X98510500Y-105664000D03*
%TD*%
D16*
%TO.C,R5*%
X93980000Y-108686000D03*
X93980000Y-111786000D03*
%TD*%
D10*
%TO.C,C6*%
X86203500Y-101854000D03*
X87928500Y-101854000D03*
%TD*%
M02*
