G04 #@! TF.GenerationSoftware,KiCad,Pcbnew,(6.0.5)*
G04 #@! TF.CreationDate,2023-01-29T16:22:37-08:00*
G04 #@! TF.ProjectId,PCM1863,50434d31-3836-4332-9e6b-696361645f70,rev?*
G04 #@! TF.SameCoordinates,Original*
G04 #@! TF.FileFunction,Copper,L1,Top*
G04 #@! TF.FilePolarity,Positive*
%FSLAX46Y46*%
G04 Gerber Fmt 4.6, Leading zero omitted, Abs format (unit mm)*
G04 Created by KiCad (PCBNEW (6.0.5)) date 2023-01-29 16:22:37*
%MOMM*%
%LPD*%
G01*
G04 APERTURE LIST*
G04 Aperture macros list*
%AMRoundRect*
0 Rectangle with rounded corners*
0 $1 Rounding radius*
0 $2 $3 $4 $5 $6 $7 $8 $9 X,Y pos of 4 corners*
0 Add a 4 corners polygon primitive as box body*
4,1,4,$2,$3,$4,$5,$6,$7,$8,$9,$2,$3,0*
0 Add four circle primitives for the rounded corners*
1,1,$1+$1,$2,$3*
1,1,$1+$1,$4,$5*
1,1,$1+$1,$6,$7*
1,1,$1+$1,$8,$9*
0 Add four rect primitives between the rounded corners*
20,1,$1+$1,$2,$3,$4,$5,0*
20,1,$1+$1,$4,$5,$6,$7,0*
20,1,$1+$1,$6,$7,$8,$9,0*
20,1,$1+$1,$8,$9,$2,$3,0*%
G04 Aperture macros list end*
G04 #@! TA.AperFunction,SMDPad,CuDef*
%ADD10R,0.600000X1.150000*%
G04 #@! TD*
G04 #@! TA.AperFunction,SMDPad,CuDef*
%ADD11RoundRect,0.250000X-0.537500X-0.425000X0.537500X-0.425000X0.537500X0.425000X-0.537500X0.425000X0*%
G04 #@! TD*
G04 #@! TA.AperFunction,SMDPad,CuDef*
%ADD12RoundRect,0.250000X-0.925000X0.875000X-0.925000X-0.875000X0.925000X-0.875000X0.925000X0.875000X0*%
G04 #@! TD*
G04 #@! TA.AperFunction,SMDPad,CuDef*
%ADD13RoundRect,0.250000X-0.425000X0.537500X-0.425000X-0.537500X0.425000X-0.537500X0.425000X0.537500X0*%
G04 #@! TD*
G04 #@! TA.AperFunction,SMDPad,CuDef*
%ADD14R,1.475000X0.300000*%
G04 #@! TD*
G04 #@! TA.AperFunction,SMDPad,CuDef*
%ADD15RoundRect,0.250000X0.875000X0.925000X-0.875000X0.925000X-0.875000X-0.925000X0.875000X-0.925000X0*%
G04 #@! TD*
G04 #@! TA.AperFunction,SMDPad,CuDef*
%ADD16RoundRect,0.237500X0.237500X-0.300000X0.237500X0.300000X-0.237500X0.300000X-0.237500X-0.300000X0*%
G04 #@! TD*
G04 #@! TA.AperFunction,SMDPad,CuDef*
%ADD17RoundRect,0.237500X-0.237500X0.300000X-0.237500X-0.300000X0.237500X-0.300000X0.237500X0.300000X0*%
G04 #@! TD*
G04 #@! TA.AperFunction,ComponentPad*
%ADD18R,1.700000X1.700000*%
G04 #@! TD*
G04 #@! TA.AperFunction,ComponentPad*
%ADD19O,1.700000X1.700000*%
G04 #@! TD*
G04 #@! TA.AperFunction,SMDPad,CuDef*
%ADD20RoundRect,0.250000X0.925000X-0.875000X0.925000X0.875000X-0.925000X0.875000X-0.925000X-0.875000X0*%
G04 #@! TD*
G04 #@! TA.AperFunction,SMDPad,CuDef*
%ADD21RoundRect,0.250000X-0.475000X0.337500X-0.475000X-0.337500X0.475000X-0.337500X0.475000X0.337500X0*%
G04 #@! TD*
G04 #@! TA.AperFunction,SMDPad,CuDef*
%ADD22R,1.300000X1.100000*%
G04 #@! TD*
G04 #@! TA.AperFunction,SMDPad,CuDef*
%ADD23RoundRect,0.237500X-0.300000X-0.237500X0.300000X-0.237500X0.300000X0.237500X-0.300000X0.237500X0*%
G04 #@! TD*
G04 #@! TA.AperFunction,SMDPad,CuDef*
%ADD24R,1.100000X1.300000*%
G04 #@! TD*
G04 #@! TA.AperFunction,SMDPad,CuDef*
%ADD25RoundRect,0.250000X0.337500X0.475000X-0.337500X0.475000X-0.337500X-0.475000X0.337500X-0.475000X0*%
G04 #@! TD*
G04 #@! TA.AperFunction,ViaPad*
%ADD26C,0.800000*%
G04 #@! TD*
G04 #@! TA.AperFunction,Conductor*
%ADD27C,0.250000*%
G04 #@! TD*
G04 #@! TA.AperFunction,Conductor*
%ADD28C,0.200000*%
G04 #@! TD*
G04 APERTURE END LIST*
D10*
G04 #@! TO.P,IC1,1,IN*
G04 #@! TO.N,VCC*
X81500000Y-112650000D03*
G04 #@! TO.P,IC1,2,GND*
G04 #@! TO.N,GNDD*
X80550000Y-112650000D03*
G04 #@! TO.P,IC1,3,EN*
G04 #@! TO.N,VCC*
X79600000Y-112650000D03*
G04 #@! TO.P,IC1,4,NC*
G04 #@! TO.N,unconnected-(IC1-Pad4)*
X79600000Y-115150000D03*
G04 #@! TO.P,IC1,5,OUT*
G04 #@! TO.N,LDO*
X81500000Y-115150000D03*
G04 #@! TD*
D11*
G04 #@! TO.P,C6,1*
G04 #@! TO.N,VCC*
X76525000Y-110500000D03*
G04 #@! TO.P,C6,2*
G04 #@! TO.N,GNDD*
X79400000Y-110500000D03*
G04 #@! TD*
D12*
G04 #@! TO.P,C14,1*
G04 #@! TO.N,/A4*
X98900000Y-99500000D03*
G04 #@! TO.P,C14,2*
G04 #@! TO.N,Net-(C14-Pad2)*
X98900000Y-104600000D03*
G04 #@! TD*
G04 #@! TO.P,C18,1*
G04 #@! TO.N,/A2*
X91200000Y-99200000D03*
G04 #@! TO.P,C18,2*
G04 #@! TO.N,Net-(C18-Pad2)*
X91200000Y-104300000D03*
G04 #@! TD*
D13*
G04 #@! TO.P,C11,1*
G04 #@! TO.N,GNDA*
X103500000Y-99425000D03*
G04 #@! TO.P,C11,2*
G04 #@! TO.N,Net-(C11-Pad2)*
X103500000Y-102300000D03*
G04 #@! TD*
D14*
G04 #@! TO.P,U1,1,VINL2/VIN1M*
G04 #@! TO.N,Net-(C19-Pad2)*
X90562000Y-107100000D03*
G04 #@! TO.P,U1,2,VINR2/VIN2M*
G04 #@! TO.N,Net-(C18-Pad2)*
X90562000Y-107600000D03*
G04 #@! TO.P,U1,3,VINL1/VIN1P*
G04 #@! TO.N,Net-(C16-Pad2)*
X90562000Y-108100000D03*
G04 #@! TO.P,U1,4,VINR1/VIN2P*
G04 #@! TO.N,Net-(C14-Pad2)*
X90562000Y-108600000D03*
G04 #@! TO.P,U1,5,Mic_Bias*
G04 #@! TO.N,Net-(C13-Pad2)*
X90562000Y-109100000D03*
G04 #@! TO.P,U1,6,VREF*
G04 #@! TO.N,Net-(C11-Pad2)*
X90562000Y-109600000D03*
G04 #@! TO.P,U1,7,AGND*
G04 #@! TO.N,GNDA*
X90562000Y-110100000D03*
G04 #@! TO.P,U1,8,AVDD*
G04 #@! TO.N,AVDD*
X90562000Y-110600000D03*
G04 #@! TO.P,U1,9,XO*
G04 #@! TO.N,XO*
X90562000Y-111100000D03*
G04 #@! TO.P,U1,10,XI*
G04 #@! TO.N,XI*
X90562000Y-111600000D03*
G04 #@! TO.P,U1,11,LDO*
G04 #@! TO.N,LDO*
X90562000Y-112100000D03*
G04 #@! TO.P,U1,12,DGND*
G04 #@! TO.N,GNDD*
X90562000Y-112600000D03*
G04 #@! TO.P,U1,13,DVDD*
G04 #@! TO.N,DVDD*
X90562000Y-113100000D03*
G04 #@! TO.P,U1,14,IOVDD*
X90562000Y-113600000D03*
G04 #@! TO.P,U1,15,SCKI*
G04 #@! TO.N,SCKI(3.3V)*
X90562000Y-114100000D03*
G04 #@! TO.P,U1,16,LRCK*
G04 #@! TO.N,LRCK*
X96438000Y-114100000D03*
G04 #@! TO.P,U1,17,BCK*
G04 #@! TO.N,BCK*
X96438000Y-113600000D03*
G04 #@! TO.P,U1,18,DOUT*
G04 #@! TO.N,DOUT*
X96438000Y-113100000D03*
G04 #@! TO.P,U1,19,GPIO3/INTC*
G04 #@! TO.N,/A6*
X96438000Y-112600000D03*
G04 #@! TO.P,U1,20,GPIO2/INTB/DMCLK*
G04 #@! TO.N,/A7*
X96438000Y-112100000D03*
G04 #@! TO.P,U1,21,GPIO1/INTA/DMIN*
G04 #@! TO.N,/A8*
X96438000Y-111600000D03*
G04 #@! TO.P,U1,22,MISO/GPIO0/DMIN2*
G04 #@! TO.N,/A9*
X96438000Y-111100000D03*
G04 #@! TO.P,U1,23,MOSI/SDA*
G04 #@! TO.N,/A10*
X96438000Y-110600000D03*
G04 #@! TO.P,U1,24,MC/SCL*
G04 #@! TO.N,/A11*
X96438000Y-110100000D03*
G04 #@! TO.P,U1,25,MS/AD*
G04 #@! TO.N,/A12*
X96438000Y-109600000D03*
G04 #@! TO.P,U1,26,MD0*
G04 #@! TO.N,/A13*
X96438000Y-109100000D03*
G04 #@! TO.P,U1,27,VINL4/VIN4M*
G04 #@! TO.N,Net-(C23-Pad2)*
X96438000Y-108600000D03*
G04 #@! TO.P,U1,28,VINR4/VIN3M*
G04 #@! TO.N,Net-(C22-Pad2)*
X96438000Y-108100000D03*
G04 #@! TO.P,U1,29,VINL3/VIN4P*
G04 #@! TO.N,Net-(C21-Pad2)*
X96438000Y-107600000D03*
G04 #@! TO.P,U1,30,VINR3/VIN3P*
G04 #@! TO.N,Net-(C20-Pad2)*
X96438000Y-107100000D03*
G04 #@! TD*
D15*
G04 #@! TO.P,C20,1*
G04 #@! TO.N,/A17*
X107900000Y-105300000D03*
G04 #@! TO.P,C20,2*
G04 #@! TO.N,Net-(C20-Pad2)*
X102800000Y-105300000D03*
G04 #@! TD*
D16*
G04 #@! TO.P,C15,1*
G04 #@! TO.N,DVDD*
X88500000Y-116100000D03*
G04 #@! TO.P,C15,2*
G04 #@! TO.N,GNDD*
X88500000Y-114375000D03*
G04 #@! TD*
D17*
G04 #@! TO.P,C10,1*
G04 #@! TO.N,GNDA*
X88400000Y-106675000D03*
G04 #@! TO.P,C10,2*
G04 #@! TO.N,AVDD*
X88400000Y-108400000D03*
G04 #@! TD*
D12*
G04 #@! TO.P,C8,1*
G04 #@! TO.N,GNDA*
X83600000Y-102000000D03*
G04 #@! TO.P,C8,2*
G04 #@! TO.N,AVDD*
X83600000Y-107100000D03*
G04 #@! TD*
D18*
G04 #@! TO.P,J1,1,Pin_1*
G04 #@! TO.N,unconnected-(J1-Pad1)*
X72000000Y-96740000D03*
D19*
G04 #@! TO.P,J1,2,Pin_2*
G04 #@! TO.N,XI*
X72000000Y-99280000D03*
G04 #@! TO.P,J1,3,Pin_3*
G04 #@! TO.N,+1V8*
X72000000Y-101820000D03*
G04 #@! TO.P,J1,4,Pin_4*
G04 #@! TO.N,VCC*
X72000000Y-104360000D03*
G04 #@! TO.P,J1,5,Pin_5*
G04 #@! TO.N,LDO*
X72000000Y-106900000D03*
G04 #@! TO.P,J1,6,Pin_6*
G04 #@! TO.N,GNDD*
X72000000Y-109440000D03*
G04 #@! TO.P,J1,7,Pin_7*
G04 #@! TO.N,DVDD*
X72000000Y-111980000D03*
G04 #@! TO.P,J1,8,Pin_8*
G04 #@! TO.N,BCK*
X72000000Y-114520000D03*
G04 #@! TO.P,J1,9,Pin_9*
G04 #@! TO.N,LRCK*
X72000000Y-117060000D03*
G04 #@! TO.P,J1,10,Pin_10*
G04 #@! TO.N,DOUT*
X72000000Y-119600000D03*
G04 #@! TD*
D20*
G04 #@! TO.P,C5,1*
G04 #@! TO.N,GNDD*
X76900000Y-119100000D03*
G04 #@! TO.P,C5,2*
G04 #@! TO.N,LDO*
X76900000Y-114000000D03*
G04 #@! TD*
D18*
G04 #@! TO.P,J3,1,Pin_1*
G04 #@! TO.N,/A6*
X115300000Y-118800000D03*
D19*
G04 #@! TO.P,J3,2,Pin_2*
G04 #@! TO.N,/A7*
X115300000Y-116260000D03*
G04 #@! TO.P,J3,3,Pin_3*
G04 #@! TO.N,/A8*
X115300000Y-113720000D03*
G04 #@! TO.P,J3,4,Pin_4*
G04 #@! TO.N,/A9*
X115300000Y-111180000D03*
G04 #@! TO.P,J3,5,Pin_5*
G04 #@! TO.N,/A10*
X115300000Y-108640000D03*
G04 #@! TO.P,J3,6,Pin_6*
G04 #@! TO.N,/A11*
X115300000Y-106100000D03*
G04 #@! TO.P,J3,7,Pin_7*
G04 #@! TO.N,/A12*
X115300000Y-103560000D03*
G04 #@! TO.P,J3,8,Pin_8*
G04 #@! TO.N,/A13*
X115300000Y-101020000D03*
G04 #@! TO.P,J3,9,Pin_9*
G04 #@! TO.N,/A14*
X115300000Y-98480000D03*
G04 #@! TO.P,J3,10,Pin_10*
G04 #@! TO.N,/A15*
X115300000Y-95940000D03*
G04 #@! TD*
D16*
G04 #@! TO.P,C4,2*
G04 #@! TO.N,LDO*
X83100000Y-112475000D03*
G04 #@! TO.P,C4,1*
G04 #@! TO.N,GNDD*
X83100000Y-114200000D03*
G04 #@! TD*
D17*
G04 #@! TO.P,C9,1*
G04 #@! TO.N,LDO*
X86900000Y-112400000D03*
G04 #@! TO.P,C9,2*
G04 #@! TO.N,GNDD*
X86900000Y-114125000D03*
G04 #@! TD*
D21*
G04 #@! TO.P,C17,1*
G04 #@! TO.N,VCC*
X90500000Y-116000000D03*
G04 #@! TO.P,C17,2*
G04 #@! TO.N,GNDD*
X90500000Y-118075000D03*
G04 #@! TD*
D22*
G04 #@! TO.P,Y1,1,_TRI-STATE_(STBY)*
G04 #@! TO.N,+1V8*
X77550000Y-107700000D03*
G04 #@! TO.P,Y1,2,GND/CASE*
G04 #@! TO.N,GNDD*
X79650000Y-107700000D03*
G04 #@! TO.P,Y1,3,OUTPUT*
G04 #@! TO.N,XI*
X79650000Y-106050000D03*
G04 #@! TO.P,Y1,4,VDD*
G04 #@! TO.N,+1V8*
X77550000Y-106050000D03*
G04 #@! TD*
D18*
G04 #@! TO.P,J2,1,Pin_1*
G04 #@! TO.N,/A17*
X104300000Y-95700000D03*
D19*
G04 #@! TO.P,J2,2,Pin_2*
G04 #@! TO.N,/A16*
X101760000Y-95700000D03*
G04 #@! TO.P,J2,3,Pin_3*
G04 #@! TO.N,GNDA*
X99220000Y-95700000D03*
G04 #@! TO.P,J2,4,Pin_4*
G04 #@! TO.N,/A5*
X96680000Y-95700000D03*
G04 #@! TO.P,J2,5,Pin_5*
G04 #@! TO.N,/A4*
X94140000Y-95700000D03*
G04 #@! TO.P,J2,6,Pin_6*
G04 #@! TO.N,/A3*
X91600000Y-95700000D03*
G04 #@! TO.P,J2,7,Pin_7*
G04 #@! TO.N,/A2*
X89060000Y-95700000D03*
G04 #@! TO.P,J2,8,Pin_8*
G04 #@! TO.N,/A1*
X86520000Y-95700000D03*
G04 #@! TO.P,J2,9,Pin_9*
G04 #@! TO.N,AVDD*
X83980000Y-95700000D03*
G04 #@! TO.P,J2,10,Pin_10*
G04 #@! TO.N,XO*
X81440000Y-95700000D03*
G04 #@! TD*
D12*
G04 #@! TO.P,C19,1*
G04 #@! TO.N,/A1*
X87400000Y-99250000D03*
G04 #@! TO.P,C19,2*
G04 #@! TO.N,Net-(C19-Pad2)*
X87400000Y-104350000D03*
G04 #@! TD*
D23*
G04 #@! TO.P,C3,1*
G04 #@! TO.N,GNDD*
X83375000Y-110800000D03*
G04 #@! TO.P,C3,2*
G04 #@! TO.N,XI*
X85100000Y-110800000D03*
G04 #@! TD*
D15*
G04 #@! TO.P,C23,1*
G04 #@! TO.N,/A14*
X108100000Y-116800000D03*
G04 #@! TO.P,C23,2*
G04 #@! TO.N,Net-(C23-Pad2)*
X103000000Y-116800000D03*
G04 #@! TD*
D17*
G04 #@! TO.P,C13,1*
G04 #@! TO.N,/A5*
X101600000Y-100475000D03*
G04 #@! TO.P,C13,2*
G04 #@! TO.N,Net-(C13-Pad2)*
X101600000Y-102200000D03*
G04 #@! TD*
D12*
G04 #@! TO.P,C16,1*
G04 #@! TO.N,/A3*
X95100000Y-99150000D03*
G04 #@! TO.P,C16,2*
G04 #@! TO.N,Net-(C16-Pad2)*
X95100000Y-104250000D03*
G04 #@! TD*
D24*
G04 #@! TO.P,Y2,1,_TRI-STATE_(STBY)*
G04 #@! TO.N,VCC*
X94900000Y-118700000D03*
G04 #@! TO.P,Y2,2,GND/CASE*
G04 #@! TO.N,GNDD*
X94900000Y-116600000D03*
G04 #@! TO.P,Y2,3,OUTPUT*
G04 #@! TO.N,SCKI(3.3V)*
X93250000Y-116600000D03*
G04 #@! TO.P,Y2,4,VDD*
G04 #@! TO.N,VCC*
X93250000Y-118700000D03*
G04 #@! TD*
D15*
G04 #@! TO.P,C22,1*
G04 #@! TO.N,/A15*
X108600000Y-112900000D03*
G04 #@! TO.P,C22,2*
G04 #@! TO.N,Net-(C22-Pad2)*
X103500000Y-112900000D03*
G04 #@! TD*
G04 #@! TO.P,C12,1*
G04 #@! TO.N,DVDD*
X87800000Y-118900000D03*
G04 #@! TO.P,C12,2*
G04 #@! TO.N,GNDD*
X82700000Y-118900000D03*
G04 #@! TD*
D25*
G04 #@! TO.P,C1,2*
G04 #@! TO.N,GNDD*
X76325000Y-103300000D03*
G04 #@! TO.P,C1,1*
G04 #@! TO.N,+1V8*
X78400000Y-103300000D03*
G04 #@! TD*
D13*
G04 #@! TO.P,C7,1*
G04 #@! TO.N,LDO*
X85000000Y-112700000D03*
G04 #@! TO.P,C7,2*
G04 #@! TO.N,GNDD*
X85000000Y-115575000D03*
G04 #@! TD*
D17*
G04 #@! TO.P,C2,1*
G04 #@! TO.N,GNDD*
X86800000Y-108775000D03*
G04 #@! TO.P,C2,2*
G04 #@! TO.N,XO*
X86800000Y-110500000D03*
G04 #@! TD*
D15*
G04 #@! TO.P,C21,1*
G04 #@! TO.N,/A16*
X108050000Y-109100000D03*
G04 #@! TO.P,C21,2*
G04 #@! TO.N,Net-(C21-Pad2)*
X102950000Y-109100000D03*
G04 #@! TD*
D26*
G04 #@! TO.N,GNDA*
X83600000Y-102000000D03*
G04 #@! TO.N,GNDD*
X81400000Y-111000000D03*
G04 #@! TO.N,GNDA*
X101710000Y-98190000D03*
X86725000Y-106675000D03*
G04 #@! TO.N,GNDD*
X92300000Y-119900000D03*
X83350000Y-116350000D03*
X85600000Y-109000000D03*
X76325000Y-101625000D03*
G04 #@! TO.N,VCC*
X90500000Y-116000000D03*
X75100000Y-111900000D03*
G04 #@! TD*
D27*
G04 #@! TO.N,VCC*
X76525000Y-110500000D02*
X78062500Y-112037500D01*
D28*
X78062500Y-112037500D02*
X78675000Y-112650000D01*
D27*
X76500000Y-110500000D02*
X75100000Y-111900000D01*
X76525000Y-110500000D02*
X76500000Y-110500000D01*
D28*
X74048551Y-110848551D02*
X74048551Y-106408551D01*
X74048551Y-106408551D02*
X72000000Y-104360000D01*
X75100000Y-111900000D02*
X74048551Y-110848551D01*
X78675000Y-112650000D02*
X79600000Y-112650000D01*
D27*
G04 #@! TO.N,LDO*
X75291436Y-114000000D02*
X73624031Y-112332595D01*
X73624031Y-112332595D02*
X73624031Y-108524031D01*
X76900000Y-114000000D02*
X75291436Y-114000000D01*
X73624031Y-108524031D02*
X72000000Y-106900000D01*
G04 #@! TO.N,GNDD*
X73174511Y-110614511D02*
X72000000Y-109440000D01*
X73174511Y-112518793D02*
X73174511Y-110614511D01*
X76900000Y-119100000D02*
X74848560Y-117048560D01*
X74848560Y-117048560D02*
X74848560Y-114192842D01*
X74848560Y-114192842D02*
X73174511Y-112518793D01*
G04 #@! TO.N,+1V8*
X76230000Y-106050000D02*
X77550000Y-106050000D01*
X72000000Y-101820000D02*
X76230000Y-106050000D01*
G04 #@! TO.N,XI*
X76180000Y-99280000D02*
X72000000Y-99280000D01*
X79650000Y-106050000D02*
X79650000Y-102750000D01*
X79650000Y-102750000D02*
X76180000Y-99280000D01*
G04 #@! TO.N,GNDD*
X77100000Y-118900000D02*
X76900000Y-119100000D01*
X82700000Y-118900000D02*
X77100000Y-118900000D01*
X81400000Y-111000000D02*
X81400000Y-110800000D01*
X80550000Y-111650000D02*
X81400000Y-111000000D01*
X81400000Y-110800000D02*
X83375000Y-110800000D01*
X80550000Y-111650000D02*
X79400000Y-110500000D01*
X80550000Y-112650000D02*
X80550000Y-111650000D01*
D28*
G04 #@! TO.N,VCC*
X80800000Y-113700000D02*
X81500000Y-113000000D01*
X80100000Y-113700000D02*
X80800000Y-113700000D01*
X81500000Y-113000000D02*
X81500000Y-112650000D01*
X79600000Y-113200000D02*
X80100000Y-113700000D01*
X79600000Y-112650000D02*
X79600000Y-113200000D01*
D27*
G04 #@! TO.N,LDO*
X83100000Y-112600000D02*
X83100000Y-112475000D01*
X81500000Y-114200000D02*
X83100000Y-112600000D01*
X81500000Y-115150000D02*
X81500000Y-114200000D01*
X79100000Y-116200000D02*
X80450000Y-116200000D01*
X80450000Y-116200000D02*
X81500000Y-115150000D01*
X76900000Y-114000000D02*
X79100000Y-116200000D01*
G04 #@! TO.N,DVDD*
X74399040Y-120091886D02*
X74399040Y-114379040D01*
X74399040Y-114379040D02*
X72000000Y-111980000D01*
X75057634Y-120750480D02*
X74399040Y-120091886D01*
X87800000Y-118900000D02*
X85949520Y-120750480D01*
X85949520Y-120750480D02*
X75057634Y-120750480D01*
G04 #@! TO.N,BCK*
X73949520Y-116469520D02*
X72000000Y-114520000D01*
X73949520Y-120278084D02*
X73949520Y-116469520D01*
X96851440Y-116051440D02*
X96851440Y-119748560D01*
X95400000Y-121200000D02*
X74871436Y-121200000D01*
X95300000Y-114500000D02*
X96851440Y-116051440D01*
X74871436Y-121200000D02*
X73949520Y-120278084D01*
X95300000Y-113800000D02*
X95300000Y-114500000D01*
X95500000Y-113600000D02*
X95300000Y-113800000D01*
X96438000Y-113600000D02*
X95500000Y-113600000D01*
X96851440Y-119748560D02*
X95400000Y-121200000D01*
G04 #@! TO.N,LRCK*
X73500000Y-118560000D02*
X72000000Y-117060000D01*
X73500000Y-120464282D02*
X73500000Y-118560000D01*
X74685238Y-121649520D02*
X73500000Y-120464282D01*
X95485238Y-121649520D02*
X74685238Y-121649520D01*
G04 #@! TO.N,DOUT*
X74549520Y-122149520D02*
X72000000Y-119600000D01*
X95721915Y-122149520D02*
X74549520Y-122149520D01*
X97750480Y-120120956D02*
X95721915Y-122149520D01*
X97500000Y-113100000D02*
X97750480Y-113350480D01*
X96438000Y-113100000D02*
X97500000Y-113100000D01*
X97750480Y-113350480D02*
X97750480Y-120120956D01*
G04 #@! TO.N,+1V8*
X78400000Y-103300000D02*
X77550000Y-104150000D01*
X77550000Y-106050000D02*
X77550000Y-107700000D01*
X77550000Y-104150000D02*
X77550000Y-106050000D01*
G04 #@! TO.N,GNDA*
X89300000Y-109874522D02*
X89300000Y-107575000D01*
X83600000Y-103700000D02*
X86575000Y-106675000D01*
X86725000Y-106675000D02*
X88400000Y-106675000D01*
X89300000Y-107575000D02*
X88400000Y-106675000D01*
X99220000Y-95700000D02*
X101710000Y-98190000D01*
X101710000Y-98190000D02*
X102945000Y-99425000D01*
X83600000Y-102000000D02*
X83600000Y-103700000D01*
X86575000Y-106675000D02*
X86725000Y-106675000D01*
X102945000Y-99425000D02*
X103500000Y-99425000D01*
X90562000Y-110100000D02*
X89525478Y-110100000D01*
X89525478Y-110100000D02*
X89300000Y-109874522D01*
G04 #@! TO.N,GNDD*
X88250000Y-114125000D02*
X88500000Y-114375000D01*
X92300000Y-119900000D02*
X95600000Y-119900000D01*
X88500000Y-114375000D02*
X88500000Y-113625478D01*
X84125000Y-115575000D02*
X85000000Y-115575000D01*
X96100000Y-119400000D02*
X96100000Y-117800000D01*
X86900000Y-114125000D02*
X88250000Y-114125000D01*
X95600000Y-119900000D02*
X96100000Y-119400000D01*
X86800000Y-108775000D02*
X85825000Y-108775000D01*
X82750000Y-110800000D02*
X83375000Y-110800000D01*
X82700000Y-118900000D02*
X82700000Y-117000000D01*
X85825000Y-108775000D02*
X85600000Y-109000000D01*
X82700000Y-117000000D02*
X83350000Y-116350000D01*
X76325000Y-103300000D02*
X76325000Y-101625000D01*
X89525478Y-112600000D02*
X90562000Y-112600000D01*
X83350000Y-116350000D02*
X84125000Y-115575000D01*
X83100000Y-114200000D02*
X83175000Y-114125000D01*
X86450000Y-114125000D02*
X86900000Y-114125000D01*
X96100000Y-117800000D02*
X95217859Y-116917859D01*
X90500000Y-118075000D02*
X90500000Y-118100000D01*
X84475000Y-115575000D02*
X83100000Y-114200000D01*
X85000000Y-115575000D02*
X86450000Y-114125000D01*
X88500000Y-113625478D02*
X89525478Y-112600000D01*
X85000000Y-115575000D02*
X84475000Y-115575000D01*
X90500000Y-118100000D02*
X92300000Y-119900000D01*
X83175000Y-114125000D02*
X86900000Y-114125000D01*
X79650000Y-107700000D02*
X82750000Y-110800000D01*
G04 #@! TO.N,XO*
X84117379Y-108549520D02*
X82437027Y-108549520D01*
X81050480Y-105686197D02*
X81050480Y-96089520D01*
X88654043Y-110500000D02*
X86800000Y-110500000D01*
X89254043Y-111100000D02*
X88654043Y-110500000D01*
X86100000Y-109800000D02*
X85367859Y-109800000D01*
X82437027Y-108549520D02*
X82100480Y-108212973D01*
X90562000Y-111100000D02*
X89254043Y-111100000D01*
X81050480Y-96089520D02*
X81440000Y-95700000D01*
X86800000Y-110500000D02*
X86100000Y-109800000D01*
X82100480Y-106736197D02*
X81050480Y-105686197D01*
X81050480Y-96389520D02*
X81440000Y-96000000D01*
X82100480Y-108212973D02*
X82100480Y-106736197D01*
X85367859Y-109800000D02*
X84117379Y-108549520D01*
G04 #@! TO.N,XI*
X80778565Y-106050000D02*
X79650000Y-106050000D01*
X85937980Y-111537980D02*
X85200000Y-110800000D01*
X82250829Y-108999040D02*
X81650960Y-108399170D01*
X85100000Y-110800000D02*
X85100000Y-110250000D01*
X89149520Y-111600000D02*
X90562000Y-111600000D01*
X83849040Y-108999040D02*
X82250829Y-108999040D01*
X81650960Y-108399170D02*
X81650960Y-106922395D01*
X89087500Y-111537980D02*
X89149520Y-111600000D01*
X85200000Y-110800000D02*
X85100000Y-110800000D01*
X81650960Y-106922395D02*
X80778565Y-106050000D01*
X85937980Y-111537980D02*
X89087500Y-111537980D01*
X85100000Y-110250000D02*
X83849040Y-108999040D01*
G04 #@! TO.N,LDO*
X90562000Y-112100000D02*
X87200000Y-112100000D01*
X86600000Y-112700000D02*
X86900000Y-112400000D01*
X85000000Y-112700000D02*
X86600000Y-112700000D01*
X84775000Y-112475000D02*
X85000000Y-112700000D01*
X83100000Y-112475000D02*
X84775000Y-112475000D01*
X87200000Y-112100000D02*
X86900000Y-112400000D01*
G04 #@! TO.N,VCC*
X90500000Y-116000000D02*
X93200000Y-118700000D01*
D28*
X94900000Y-118700000D02*
X93250000Y-118700000D01*
D27*
X93200000Y-118700000D02*
X93250000Y-118700000D01*
G04 #@! TO.N,AVDD*
X88400000Y-109610239D02*
X88400000Y-108400000D01*
X83980000Y-98220000D02*
X81500000Y-100700000D01*
X89389760Y-110600000D02*
X89075958Y-110286197D01*
X88400000Y-108400000D02*
X87500000Y-107500000D01*
X81500000Y-105500000D02*
X83100000Y-107100000D01*
X87500000Y-107500000D02*
X84000000Y-107500000D01*
X89075958Y-110286197D02*
X88400000Y-109610239D01*
X83980000Y-95700000D02*
X83980000Y-98220000D01*
X81500000Y-100700000D02*
X81500000Y-105500000D01*
X84000000Y-107500000D02*
X83600000Y-107100000D01*
X90562000Y-110600000D02*
X89389760Y-110600000D01*
X83100000Y-107100000D02*
X83600000Y-107100000D01*
G04 #@! TO.N,Net-(C11-Pad2)*
X101350480Y-106113802D02*
X101350480Y-103949520D01*
X90562000Y-109600000D02*
X92401478Y-109600000D01*
X95401478Y-106600000D02*
X100864282Y-106600000D01*
X92401478Y-109600000D02*
X95401478Y-106600000D01*
X103000000Y-102300000D02*
X103500000Y-102300000D01*
X100864282Y-106600000D02*
X101350480Y-106113802D01*
X101350480Y-103949520D02*
X103000000Y-102300000D01*
G04 #@! TO.N,DVDD*
X89400000Y-113725478D02*
X89400000Y-115300000D01*
X90562000Y-113100000D02*
X91400000Y-113100000D01*
X88500000Y-116100000D02*
X88600000Y-116100000D01*
X91500000Y-113200000D02*
X91500000Y-113400000D01*
X91300000Y-113600000D02*
X90562000Y-113600000D01*
X91500000Y-113400000D02*
X91300000Y-113600000D01*
X89525478Y-113600000D02*
X89400000Y-113725478D01*
X91400000Y-113100000D02*
X91500000Y-113200000D01*
X88600000Y-116100000D02*
X89400000Y-115300000D01*
X90562000Y-113600000D02*
X89525478Y-113600000D01*
X88500000Y-118200000D02*
X87800000Y-118900000D01*
X88500000Y-116100000D02*
X88500000Y-118200000D01*
G04 #@! TO.N,/A5*
X96680000Y-95700000D02*
X98680000Y-97700000D01*
X101600000Y-100475000D02*
X101600000Y-99300000D01*
X98680000Y-97700000D02*
X99200000Y-97700000D01*
X101600000Y-99300000D02*
X100000000Y-97700000D01*
X100000000Y-97700000D02*
X99200000Y-97700000D01*
G04 #@! TO.N,Net-(C13-Pad2)*
X100678084Y-106150480D02*
X100900960Y-105927604D01*
X90562000Y-109100000D02*
X92265760Y-109100000D01*
X100900960Y-102899040D02*
X101600000Y-102200000D01*
X100900960Y-105927604D02*
X100900960Y-102899040D01*
X92265760Y-109100000D02*
X95215281Y-106150480D01*
X95215281Y-106150480D02*
X100678084Y-106150480D01*
G04 #@! TO.N,/A4*
X94262493Y-95700000D02*
X98062493Y-99500000D01*
X94140000Y-95700000D02*
X94262493Y-95700000D01*
X98062493Y-99500000D02*
X98900000Y-99500000D01*
G04 #@! TO.N,Net-(C14-Pad2)*
X92130042Y-108600000D02*
X95029084Y-105700960D01*
X95029084Y-105700960D02*
X97799040Y-105700960D01*
X97799040Y-105700960D02*
X98900000Y-104600000D01*
X90562000Y-108600000D02*
X92130042Y-108600000D01*
G04 #@! TO.N,/A3*
X95050000Y-99150000D02*
X95100000Y-99150000D01*
X91600000Y-95700000D02*
X95050000Y-99150000D01*
G04 #@! TO.N,Net-(C16-Pad2)*
X90562000Y-108100000D02*
X91994324Y-108100000D01*
X91994324Y-108100000D02*
X95100000Y-104994324D01*
X95100000Y-104994324D02*
X95100000Y-104250000D01*
G04 #@! TO.N,/A2*
X89060000Y-95700000D02*
X91200000Y-97840000D01*
X91200000Y-97840000D02*
X91200000Y-99200000D01*
G04 #@! TO.N,Net-(C18-Pad2)*
X92100000Y-105200000D02*
X91200000Y-104300000D01*
X91598522Y-107600000D02*
X92100000Y-107098522D01*
X90562000Y-107600000D02*
X91598522Y-107600000D01*
X92100000Y-107098522D02*
X92100000Y-105200000D01*
G04 #@! TO.N,/A1*
X87400000Y-96580000D02*
X87400000Y-99250000D01*
X86520000Y-95700000D02*
X87400000Y-96580000D01*
G04 #@! TO.N,Net-(C19-Pad2)*
X87812000Y-104350000D02*
X87400000Y-104350000D01*
X90562000Y-107100000D02*
X87812000Y-104350000D01*
G04 #@! TO.N,/A17*
X107900000Y-99600000D02*
X104300000Y-96000000D01*
X104300000Y-96000000D02*
X104300000Y-95700000D01*
X107900000Y-105300000D02*
X107900000Y-99600000D01*
G04 #@! TO.N,Net-(C20-Pad2)*
X96438000Y-107100000D02*
X101000000Y-107100000D01*
X101000000Y-107100000D02*
X102800000Y-105300000D01*
G04 #@! TO.N,/A16*
X105600000Y-106650000D02*
X105600000Y-99500000D01*
X108050000Y-109100000D02*
X105600000Y-106650000D01*
X105560000Y-99500000D02*
X101760000Y-95700000D01*
G04 #@! TO.N,Net-(C21-Pad2)*
X100657176Y-109100000D02*
X102950000Y-109100000D01*
X99157176Y-107600000D02*
X100657176Y-109100000D01*
X96438000Y-107600000D02*
X99157176Y-107600000D01*
G04 #@! TO.N,/A15*
X110000960Y-111499040D02*
X110000960Y-101239040D01*
X110000960Y-101239040D02*
X115300000Y-95940000D01*
X108600000Y-112900000D02*
X110000960Y-111499040D01*
G04 #@! TO.N,Net-(C22-Pad2)*
X96438000Y-108100000D02*
X99021458Y-108100000D01*
X99021458Y-108100000D02*
X103500000Y-112578542D01*
X103500000Y-112578542D02*
X103500000Y-112900000D01*
G04 #@! TO.N,/A14*
X110100000Y-116800000D02*
X110450480Y-116449520D01*
X108100000Y-116800000D02*
X110100000Y-116800000D01*
X110450480Y-103329520D02*
X115300000Y-98480000D01*
X110450480Y-116449520D02*
X110450480Y-103329520D01*
G04 #@! TO.N,Net-(C23-Pad2)*
X101799040Y-111513300D02*
X101799040Y-115599040D01*
X96438000Y-108600000D02*
X98885740Y-108600000D01*
X101799040Y-115599040D02*
X103000000Y-116800000D01*
X98885740Y-108600000D02*
X101799040Y-111513300D01*
G04 #@! TO.N,SCKI(3.3V)*
X90562000Y-114100000D02*
X90750000Y-114100000D01*
X90750000Y-114100000D02*
X93250000Y-116600000D01*
G04 #@! TO.N,LRCK*
X97300960Y-119934758D02*
X95586198Y-121649520D01*
X96438000Y-114100000D02*
X96438000Y-114500000D01*
X97300960Y-115362960D02*
X97300960Y-119934758D01*
X95586198Y-121649520D02*
X95500000Y-121649520D01*
X96438000Y-114500000D02*
X97300960Y-115362960D01*
G04 #@! TO.N,/A6*
X96438000Y-112600000D02*
X97800000Y-112600000D01*
X110095718Y-122100000D02*
X113395717Y-118800000D01*
X97800000Y-112600000D02*
X98200000Y-113000000D01*
X98200000Y-119900000D02*
X100400000Y-122100000D01*
X100400000Y-122100000D02*
X110095718Y-122100000D01*
X113395717Y-118800000D02*
X115300000Y-118800000D01*
X98200000Y-113000000D02*
X98200000Y-119900000D01*
G04 #@! TO.N,/A7*
X100567859Y-121632141D02*
X100586198Y-121650480D01*
X111007153Y-120507153D02*
X111052847Y-120507153D01*
X100567859Y-121632141D02*
X100586199Y-121650480D01*
X111052847Y-120507153D02*
X115300000Y-116260000D01*
X97935718Y-112100000D02*
X98649520Y-112813803D01*
X109863827Y-121650479D02*
X111007153Y-120507153D01*
X98649520Y-112813803D02*
X98649520Y-119713802D01*
X98649520Y-119713802D02*
X100567859Y-121632141D01*
X96438000Y-112100000D02*
X97935718Y-112100000D01*
X100586199Y-121650480D02*
X109863827Y-121650479D01*
G04 #@! TO.N,/A8*
X113147599Y-117730987D02*
X113147599Y-115800000D01*
X113147599Y-115800000D02*
X113220000Y-115800000D01*
X99100000Y-112628565D02*
X99100000Y-119528564D01*
X96438000Y-111600000D02*
X98071435Y-111600000D01*
X100772396Y-121200960D02*
X109677629Y-121200959D01*
X113220000Y-115800000D02*
X115300000Y-113720000D01*
X98071435Y-111600000D02*
X99100000Y-112628565D01*
X99100000Y-119528564D02*
X100772396Y-121200960D01*
X109677629Y-121200959D02*
X113147599Y-117730987D01*
G04 #@! TO.N,/A9*
X112698080Y-117544788D02*
X112698080Y-113781920D01*
X109491431Y-120751440D02*
X112698080Y-117544788D01*
X112698080Y-113781920D02*
X115300000Y-111180000D01*
X100958594Y-120751440D02*
X109491431Y-120751440D01*
X98207153Y-111100000D02*
X99549520Y-112442368D01*
X99549520Y-112442368D02*
X99549520Y-119342366D01*
X96438000Y-111100000D02*
X98207153Y-111100000D01*
X99549520Y-119342366D02*
X100958594Y-120751440D01*
G04 #@! TO.N,/A10*
X96438000Y-110600000D02*
X98342870Y-110600000D01*
X98342870Y-110600000D02*
X100000000Y-112257130D01*
X101144792Y-120301920D02*
X109305233Y-120301920D01*
X100000000Y-119157128D02*
X101144792Y-120301920D01*
X109305233Y-120301920D02*
X112248560Y-117358591D01*
X112248560Y-117358591D02*
X112248560Y-111691440D01*
X100000000Y-112257130D02*
X100000000Y-119157128D01*
X112248560Y-111691440D02*
X115300000Y-108640000D01*
G04 #@! TO.N,/A11*
X100449520Y-112070933D02*
X100449520Y-118970930D01*
X111799040Y-117172394D02*
X111799040Y-109600960D01*
X109119036Y-119852400D02*
X111799040Y-117172394D01*
X98478588Y-110100000D02*
X100449520Y-112070933D01*
X111799040Y-109600960D02*
X115300000Y-106100000D01*
X96438000Y-110100000D02*
X98478588Y-110100000D01*
X101330990Y-119852400D02*
X109119036Y-119852400D01*
X100449520Y-118970930D02*
X101330990Y-119852400D01*
G04 #@! TO.N,/A12*
X96438000Y-109600000D02*
X98614306Y-109600000D01*
X101517188Y-119402880D02*
X108932838Y-119402880D01*
X111349520Y-107510480D02*
X115300000Y-103560000D01*
X111349520Y-116986197D02*
X111349520Y-107510480D01*
X108932838Y-119402880D02*
X111349520Y-116986197D01*
X100900000Y-111885694D02*
X100900000Y-118785692D01*
X100900000Y-118785692D02*
X101517188Y-119402880D01*
X98614306Y-109600000D02*
X100900000Y-111885694D01*
G04 #@! TO.N,/A13*
X101349520Y-118599494D02*
X101675013Y-118924987D01*
X110900000Y-116800000D02*
X110900000Y-105420000D01*
X108775013Y-118924987D02*
X110900000Y-116800000D01*
X101349520Y-111699497D02*
X101349520Y-118599494D01*
X98750023Y-109100000D02*
X101349520Y-111699497D01*
X101675013Y-118924987D02*
X108775013Y-118924987D01*
X110900000Y-105420000D02*
X115300000Y-101020000D01*
X96438000Y-109100000D02*
X98750023Y-109100000D01*
G04 #@! TD*
M02*
