M48
; DRILL file {KiCad (6.0.5)} date Sun Jan 29 16:21:54 2023
; FORMAT={-:-/ absolute / inch / decimal}
; #@! TF.CreationDate,2023-01-29T16:21:54-08:00
; #@! TF.GenerationSoftware,Kicad,Pcbnew,(6.0.5)
; #@! TF.FileFunction,MixedPlating,1,2
FMAT,2
INCH
; #@! TA.AperFunction,Plated,PTH,ViaDrill
T1C0.0157
; #@! TA.AperFunction,Plated,PTH,ComponentDrill
T2C0.0394
%
G90
G05
T1
X2.9567Y-4.4055
X3.0049Y-4.001
X3.2047Y-4.3701
X3.2815Y-4.5807
X3.2913Y-4.0157
X3.3701Y-4.2913
X3.4144Y-4.1998
X3.563Y-4.5669
X3.6339Y-4.7205
X4.0043Y-3.8657
T2
X2.8346Y-3.8087
X2.8346Y-3.9087
X2.8346Y-4.0087
X2.8346Y-4.1087
X2.8346Y-4.2087
X2.8346Y-4.3087
X2.8346Y-4.4087
X2.8346Y-4.5087
X2.8346Y-4.6087
X2.8346Y-4.7087
X3.2063Y-3.7677
X3.3063Y-3.7677
X3.4063Y-3.7677
X3.5063Y-3.7677
X3.6063Y-3.7677
X3.7063Y-3.7677
X3.8063Y-3.7677
X3.9063Y-3.7677
X4.0063Y-3.7677
X4.1063Y-3.7677
X4.5394Y-3.7772
X4.5394Y-3.8772
X4.5394Y-3.9772
X4.5394Y-4.0772
X4.5394Y-4.1772
X4.5394Y-4.2772
X4.5394Y-4.3772
X4.5394Y-4.4772
X4.5394Y-4.5772
X4.5394Y-4.6772
T0
M30
