G04 #@! TF.GenerationSoftware,KiCad,Pcbnew,(6.0.5)*
G04 #@! TF.CreationDate,2023-01-29T16:22:37-08:00*
G04 #@! TF.ProjectId,PCM1863,50434d31-3836-4332-9e6b-696361645f70,rev?*
G04 #@! TF.SameCoordinates,Original*
G04 #@! TF.FileFunction,Paste,Top*
G04 #@! TF.FilePolarity,Positive*
%FSLAX46Y46*%
G04 Gerber Fmt 4.6, Leading zero omitted, Abs format (unit mm)*
G04 Created by KiCad (PCBNEW (6.0.5)) date 2023-01-29 16:22:37*
%MOMM*%
%LPD*%
G01*
G04 APERTURE LIST*
G04 Aperture macros list*
%AMRoundRect*
0 Rectangle with rounded corners*
0 $1 Rounding radius*
0 $2 $3 $4 $5 $6 $7 $8 $9 X,Y pos of 4 corners*
0 Add a 4 corners polygon primitive as box body*
4,1,4,$2,$3,$4,$5,$6,$7,$8,$9,$2,$3,0*
0 Add four circle primitives for the rounded corners*
1,1,$1+$1,$2,$3*
1,1,$1+$1,$4,$5*
1,1,$1+$1,$6,$7*
1,1,$1+$1,$8,$9*
0 Add four rect primitives between the rounded corners*
20,1,$1+$1,$2,$3,$4,$5,0*
20,1,$1+$1,$4,$5,$6,$7,0*
20,1,$1+$1,$6,$7,$8,$9,0*
20,1,$1+$1,$8,$9,$2,$3,0*%
G04 Aperture macros list end*
%ADD10R,0.500000X1.050000*%
%ADD11RoundRect,0.200000X-0.537500X-0.425000X0.537500X-0.425000X0.537500X0.425000X-0.537500X0.425000X0*%
%ADD12RoundRect,0.200000X-0.925000X0.875000X-0.925000X-0.875000X0.925000X-0.875000X0.925000X0.875000X0*%
%ADD13RoundRect,0.200000X-0.425000X0.537500X-0.425000X-0.537500X0.425000X-0.537500X0.425000X0.537500X0*%
%ADD14R,1.375000X0.200000*%
%ADD15RoundRect,0.200000X0.875000X0.925000X-0.875000X0.925000X-0.875000X-0.925000X0.875000X-0.925000X0*%
%ADD16RoundRect,0.187500X0.237500X-0.300000X0.237500X0.300000X-0.237500X0.300000X-0.237500X-0.300000X0*%
%ADD17RoundRect,0.187500X-0.237500X0.300000X-0.237500X-0.300000X0.237500X-0.300000X0.237500X0.300000X0*%
%ADD18RoundRect,0.200000X0.925000X-0.875000X0.925000X0.875000X-0.925000X0.875000X-0.925000X-0.875000X0*%
%ADD19RoundRect,0.200000X-0.475000X0.337500X-0.475000X-0.337500X0.475000X-0.337500X0.475000X0.337500X0*%
%ADD20R,1.200000X1.000000*%
%ADD21RoundRect,0.187500X-0.300000X-0.237500X0.300000X-0.237500X0.300000X0.237500X-0.300000X0.237500X0*%
%ADD22R,1.000000X1.200000*%
%ADD23RoundRect,0.200000X0.337500X0.475000X-0.337500X0.475000X-0.337500X-0.475000X0.337500X-0.475000X0*%
G04 APERTURE END LIST*
D10*
G04 #@! TO.C,IC1*
X81500000Y-112650000D03*
X80550000Y-112650000D03*
X79600000Y-112650000D03*
X79600000Y-115150000D03*
X81500000Y-115150000D03*
G04 #@! TD*
D11*
G04 #@! TO.C,C6*
X76525000Y-110500000D03*
X79400000Y-110500000D03*
G04 #@! TD*
D12*
G04 #@! TO.C,C14*
X98900000Y-99500000D03*
X98900000Y-104600000D03*
G04 #@! TD*
G04 #@! TO.C,C18*
X91200000Y-99200000D03*
X91200000Y-104300000D03*
G04 #@! TD*
D13*
G04 #@! TO.C,C11*
X103500000Y-99425000D03*
X103500000Y-102300000D03*
G04 #@! TD*
D14*
G04 #@! TO.C,U1*
X90562000Y-107100000D03*
X90562000Y-107600000D03*
X90562000Y-108100000D03*
X90562000Y-108600000D03*
X90562000Y-109100000D03*
X90562000Y-109600000D03*
X90562000Y-110100000D03*
X90562000Y-110600000D03*
X90562000Y-111100000D03*
X90562000Y-111600000D03*
X90562000Y-112100000D03*
X90562000Y-112600000D03*
X90562000Y-113100000D03*
X90562000Y-113600000D03*
X90562000Y-114100000D03*
X96438000Y-114100000D03*
X96438000Y-113600000D03*
X96438000Y-113100000D03*
X96438000Y-112600000D03*
X96438000Y-112100000D03*
X96438000Y-111600000D03*
X96438000Y-111100000D03*
X96438000Y-110600000D03*
X96438000Y-110100000D03*
X96438000Y-109600000D03*
X96438000Y-109100000D03*
X96438000Y-108600000D03*
X96438000Y-108100000D03*
X96438000Y-107600000D03*
X96438000Y-107100000D03*
G04 #@! TD*
D15*
G04 #@! TO.C,C20*
X107900000Y-105300000D03*
X102800000Y-105300000D03*
G04 #@! TD*
D16*
G04 #@! TO.C,C15*
X88500000Y-116100000D03*
X88500000Y-114375000D03*
G04 #@! TD*
D17*
G04 #@! TO.C,C10*
X88400000Y-106675000D03*
X88400000Y-108400000D03*
G04 #@! TD*
D12*
G04 #@! TO.C,C8*
X83600000Y-102000000D03*
X83600000Y-107100000D03*
G04 #@! TD*
D18*
G04 #@! TO.C,C5*
X76900000Y-119100000D03*
X76900000Y-114000000D03*
G04 #@! TD*
D16*
G04 #@! TO.C,C4*
X83100000Y-112475000D03*
X83100000Y-114200000D03*
G04 #@! TD*
D17*
G04 #@! TO.C,C9*
X86900000Y-112400000D03*
X86900000Y-114125000D03*
G04 #@! TD*
D19*
G04 #@! TO.C,C17*
X90500000Y-116000000D03*
X90500000Y-118075000D03*
G04 #@! TD*
D20*
G04 #@! TO.C,Y1*
X77550000Y-107700000D03*
X79650000Y-107700000D03*
X79650000Y-106050000D03*
X77550000Y-106050000D03*
G04 #@! TD*
D12*
G04 #@! TO.C,C19*
X87400000Y-99250000D03*
X87400000Y-104350000D03*
G04 #@! TD*
D21*
G04 #@! TO.C,C3*
X83375000Y-110800000D03*
X85100000Y-110800000D03*
G04 #@! TD*
D15*
G04 #@! TO.C,C23*
X108100000Y-116800000D03*
X103000000Y-116800000D03*
G04 #@! TD*
D17*
G04 #@! TO.C,C13*
X101600000Y-100475000D03*
X101600000Y-102200000D03*
G04 #@! TD*
D12*
G04 #@! TO.C,C16*
X95100000Y-99150000D03*
X95100000Y-104250000D03*
G04 #@! TD*
D22*
G04 #@! TO.C,Y2*
X94900000Y-118700000D03*
X94900000Y-116600000D03*
X93250000Y-116600000D03*
X93250000Y-118700000D03*
G04 #@! TD*
D15*
G04 #@! TO.C,C22*
X108600000Y-112900000D03*
X103500000Y-112900000D03*
G04 #@! TD*
G04 #@! TO.C,C12*
X87800000Y-118900000D03*
X82700000Y-118900000D03*
G04 #@! TD*
D23*
G04 #@! TO.C,C1*
X76325000Y-103300000D03*
X78400000Y-103300000D03*
G04 #@! TD*
D13*
G04 #@! TO.C,C7*
X85000000Y-112700000D03*
X85000000Y-115575000D03*
G04 #@! TD*
D17*
G04 #@! TO.C,C2*
X86800000Y-108775000D03*
X86800000Y-110500000D03*
G04 #@! TD*
D15*
G04 #@! TO.C,C21*
X108050000Y-109100000D03*
X102950000Y-109100000D03*
G04 #@! TD*
M02*
